<?xml version="1.0" encoding="UTF-8" standalone="no"?>
<!DOCTYPE svg PUBLIC "-//W3C//DTD SVG 1.1//EN"
 "http://www.w3.org/Graphics/SVG/1.1/DTD/svg11.dtd">
<!-- Generated by graphviz version 2.36.0 (20140111.2315)
 -->
<!-- Title: METHOD Pages: 1 -->
<!--zoomable 161 -->
<svg id="main" version="1.1" xmlns="http://www.w3.org/2000/svg" xmlns:xlink="http://www.w3.org/1999/xlink" xml:space="preserve" onload="init(evt)">
<style type="text/css"><![CDATA[
.edge:hover path { stroke: red; }
.edge:hover polygon { stroke: red; fill: red; }
]]></style>
<script type="text/javascript"><![CDATA[
var edges = document.getElementsByTagName('g');
if (edges && edges.length) {
  for (var i=0;i<edges.length;i++) {
    if (edges[i].id.substr(0,4)=='edge') {
      edges[i].setAttribute('class','edge');
    }
  }
}
]]></script>
        <defs>
                <circle id="rim" cx="0" cy="0" r="7"/>
                <circle id="rim2" cx="0" cy="0" r="3.5"/>
                <g id="zoomPlus">
                        <use xlink:href="#rim" fill="#404040">
                                <set attributeName="fill" to="#808080" begin="zoomplus.mouseover" end="zoomplus.mouseout"/>
                        </use>
                        <path d="M-4,0h8M0,-4v8" fill="none" stroke="white" stroke-width="1.5" pointer-events="none"/>
                </g>
                <g id="zoomMin">
                        <use xlink:href="#rim" fill="#404040">
                                <set attributeName="fill" to="#808080" begin="zoomminus.mouseover" end="zoomminus.mouseout"/>
                        </use>
                        <path d="M-4,0h8" fill="none" stroke="white" stroke-width="1.5" pointer-events="none"/>
                </g>
                <g id="dirArrow">
                        <path fill="none" stroke="white" stroke-width="1.5" d="M0,-3.0v7 M-2.5,-0.5L0,-3.0L2.5,-0.5"/>
                </g>
               <g id="resetDef">
                       <use xlink:href="#rim2" fill="#404040">
                               <set attributeName="fill" to="#808080" begin="reset.mouseover" end="reset.mouseout"/>
                       </use>
               </g>
        </defs>

<script type="text/javascript">
var viewWidth = 566;
var viewHeight = 161;
var sectionId = 'dynsection-13';
</script>
<script xlink:href="../../svgpan.js"/>
<svg id="graph" class="graph">
<g id="viewport">
<title>METHOD</title>
<!-- Node1 -->
<g id="node1" class="node"><title>Node1</title>
<polygon fill="#bfbfbf" stroke="black" points="0,-57.5 0,-76.5 60,-76.5 60,-57.5 0,-57.5"/>
<text text-anchor="middle" x="30" y="-64.5" font-family="Helvetica,sans-Serif" font-size="10.00">METHOD</text>
</g>
<!-- Node2 -->
<g id="node2" class="node"><title>Node2</title>
<g id="a_node2"><a xlink:href="../../d3/de6/group__enumerator.html#ga92a12e35d2e39ebd1f316bd818297cc0" target="_top" xlink:title="enumerator_create_directory">
<polygon fill="none" stroke="black" points="200,-95.5 200,-114.5 340,-114.5 340,-95.5 200,-95.5"/>
<text text-anchor="middle" x="270" y="-102.5" font-family="Helvetica,sans-Serif" font-size="10.00">enumerator_create_directory</text>
</a>
</g>
</g>
<!-- Node1&#45;&gt;Node2 -->
<g id="edge1" class="edge"><title>Node1&#45;&gt;Node2</title>
<path fill="none" stroke="midnightblue" d="M43.0499,-76.7166C55.469,-86.0553 75.8128,-99.532 96,-105 125.822,-113.078 159.612,-114.664 189.366,-113.671"/>
<polygon fill="midnightblue" stroke="midnightblue" points="189.871,-117.152 199.708,-113.218 189.565,-110.159 189.871,-117.152"/>
</g>
<!-- Node7 -->
<g id="node7" class="node"><title>Node7</title>
<g id="a_node7"><a xlink:href="../../d7/d79/maemo__service_8c.html#a5c0c84bc072f9dd0f2cab63125e40787" target="_top" xlink:title="load_ca_dir">
<polygon fill="none" stroke="black" points="97,-76.5 97,-95.5 163,-95.5 163,-76.5 97,-76.5"/>
<text text-anchor="middle" x="130" y="-83.5" font-family="Helvetica,sans-Serif" font-size="10.00">load_ca_dir</text>
</a>
</g>
</g>
<!-- Node1&#45;&gt;Node7 -->
<g id="edge7" class="edge"><title>Node1&#45;&gt;Node7</title>
<path fill="none" stroke="midnightblue" d="M60.1379,-72.6492C68.5006,-74.2705 77.7924,-76.072 86.7746,-77.8134"/>
<polygon fill="midnightblue" stroke="midnightblue" points="86.2347,-81.2739 96.7181,-79.7413 87.5671,-74.4018 86.2347,-81.2739"/>
</g>
<!-- Node8 -->
<g id="node8" class="node"><title>Node8</title>
<g id="a_node8"><a xlink:href="../../d8/d11/cowfs_8c.html#ab23d75daf8d24eb797a720b189f0c319" target="_top" xlink:title="rel">
<polygon fill="none" stroke="black" points="255.5,-48.5 255.5,-67.5 284.5,-67.5 284.5,-48.5 255.5,-48.5"/>
<text text-anchor="middle" x="270" y="-55.5" font-family="Helvetica,sans-Serif" font-size="10.00">rel</text>
</a>
</g>
</g>
<!-- Node1&#45;&gt;Node8 -->
<g id="edge11" class="edge"><title>Node1&#45;&gt;Node8</title>
<path fill="none" stroke="midnightblue" d="M60.1835,-65.8964C107.799,-64.0958 201.284,-60.5607 245.175,-58.9009"/>
<polygon fill="midnightblue" stroke="midnightblue" points="245.586,-62.388 255.447,-58.5125 245.321,-55.393 245.586,-62.388"/>
</g>
<!-- Node9 -->
<g id="node9" class="node"><title>Node9</title>
<g id="a_node9"><a xlink:href="../../df/dfb/nm__creds_8c.html#a39216cd9ca299d5375a2142c16b1688f" target="_top" xlink:title="load_ca_file">
<polygon fill="none" stroke="black" points="96,-0.5 96,-19.5 164,-19.5 164,-0.5 96,-0.5"/>
<text text-anchor="middle" x="130" y="-7.5" font-family="Helvetica,sans-Serif" font-size="10.00">load_ca_file</text>
</a>
</g>
</g>
<!-- Node1&#45;&gt;Node9 -->
<g id="edge10" class="edge"><title>Node1&#45;&gt;Node9</title>
<path fill="none" stroke="midnightblue" d="M47.6244,-57.3307C63.0634,-48.3509 86.2641,-34.8566 103.947,-24.5715"/>
<polygon fill="midnightblue" stroke="midnightblue" points="105.737,-27.5797 112.621,-19.5265 102.217,-21.5288 105.737,-27.5797"/>
</g>
<!-- Node3 -->
<g id="node3" class="node"><title>Node3</title>
<g id="a_node3"><a xlink:href="../../de/d46/enumerator_8c.html#ac7dea07bcb773c647b0ea6d615d14e55" target="_top" xlink:title="enumerate_dir_enum">
<polygon fill="none" stroke="black" points="376.5,-133.5 376.5,-152.5 483.5,-152.5 483.5,-133.5 376.5,-133.5"/>
<text text-anchor="middle" x="430" y="-140.5" font-family="Helvetica,sans-Serif" font-size="10.00">enumerate_dir_enum</text>
</a>
</g>
</g>
<!-- Node2&#45;&gt;Node3 -->
<g id="edge2" class="edge"><title>Node2&#45;&gt;Node3</title>
<path fill="none" stroke="midnightblue" d="M310.87,-114.589C331.72,-119.604 357.435,-125.788 379.543,-131.105"/>
<polygon fill="midnightblue" stroke="midnightblue" points="378.875,-134.544 389.417,-133.48 380.512,-127.739 378.875,-134.544"/>
</g>
<!-- Node5 -->
<g id="node5" class="node"><title>Node5</title>
<g id="a_node5"><a xlink:href="../../de/d46/enumerator_8c.html#a9ab314b6f9e59b8cfd5e16f50ae7a347" target="_top" xlink:title="destroy_dir_enum">
<polygon fill="none" stroke="black" points="383,-95.5 383,-114.5 477,-114.5 477,-95.5 383,-95.5"/>
<text text-anchor="middle" x="430" y="-102.5" font-family="Helvetica,sans-Serif" font-size="10.00">destroy_dir_enum</text>
</a>
</g>
</g>
<!-- Node2&#45;&gt;Node5 -->
<g id="edge4" class="edge"><title>Node2&#45;&gt;Node5</title>
<path fill="none" stroke="midnightblue" d="M340.301,-105C351.122,-105 362.188,-105 372.673,-105"/>
<polygon fill="midnightblue" stroke="midnightblue" points="372.933,-108.5 382.933,-105 372.933,-101.5 372.933,-108.5"/>
</g>
<!-- Node6 -->
<g id="node6" class="node"><title>Node6</title>
<g id="a_node6"><a xlink:href="../../da/dfc/settings__parser_8c.html#af07d89f5ceaea0c7c8252cc41fd75f37" target="_top" xlink:title="free">
<polygon fill="none" stroke="black" points="522.5,-76.5 522.5,-95.5 555.5,-95.5 555.5,-76.5 522.5,-76.5"/>
<text text-anchor="middle" x="539" y="-83.5" font-family="Helvetica,sans-Serif" font-size="10.00">free</text>
</a>
</g>
</g>
<!-- Node2&#45;&gt;Node6 -->
<g id="edge6" class="edge"><title>Node2&#45;&gt;Node6</title>
<path fill="none" stroke="midnightblue" d="M313.677,-95.4885C332.654,-91.7232 355.335,-87.8546 376,-86 423.861,-81.7046 479.996,-83.1427 512.042,-84.5745"/>
<polygon fill="midnightblue" stroke="midnightblue" points="512.162,-88.0843 522.32,-85.0713 512.5,-81.0925 512.162,-88.0843"/>
</g>
<!-- Node4 -->
<g id="node4" class="node"><title>Node4</title>
<g id="a_node4"><a xlink:href="../../d4/d40/group__string__i.html#ga65c3d08890165aaa4663c72d07f93bb7" target="_top" xlink:title="streq">
<polygon fill="none" stroke="black" points="520,-133.5 520,-152.5 558,-152.5 558,-133.5 520,-133.5"/>
<text text-anchor="middle" x="539" y="-140.5" font-family="Helvetica,sans-Serif" font-size="10.00">streq</text>
</a>
</g>
</g>
<!-- Node3&#45;&gt;Node4 -->
<g id="edge3" class="edge"><title>Node3&#45;&gt;Node4</title>
<path fill="none" stroke="midnightblue" d="M483.56,-143C492.673,-143 501.823,-143 509.951,-143"/>
<polygon fill="midnightblue" stroke="midnightblue" points="509.959,-146.5 519.959,-143 509.959,-139.5 509.959,-146.5"/>
</g>
<!-- Node5&#45;&gt;Node6 -->
<g id="edge5" class="edge"><title>Node5&#45;&gt;Node6</title>
<path fill="none" stroke="midnightblue" d="M477.309,-96.7768C489.298,-94.648 501.778,-92.432 512.28,-90.567"/>
<polygon fill="midnightblue" stroke="midnightblue" points="513.172,-93.9635 522.406,-88.769 511.948,-87.0713 513.172,-93.9635"/>
</g>
<!-- Node7&#45;&gt;Node2 -->
<g id="edge8" class="edge"><title>Node7&#45;&gt;Node2</title>
<path fill="none" stroke="midnightblue" d="M163.007,-90.4067C171.221,-91.5377 180.428,-92.8053 189.895,-94.1087"/>
<polygon fill="midnightblue" stroke="midnightblue" points="189.439,-97.5789 199.823,-95.4756 190.394,-90.6443 189.439,-97.5789"/>
</g>
<!-- Node7&#45;&gt;Node8 -->
<g id="edge9" class="edge"><title>Node7&#45;&gt;Node8</title>
<path fill="none" stroke="midnightblue" d="M163.007,-79.5059C188.164,-74.4014 222.637,-67.407 245.347,-62.7992"/>
<polygon fill="midnightblue" stroke="midnightblue" points="246.064,-66.2251 255.168,-60.8065 244.672,-59.3649 246.064,-66.2251"/>
</g>
</g>
</svg>
        <g id="navigator" transform="translate(0 0)" fill="#404254">
                <rect fill="#f2f5e9" fill-opacity="0.5" stroke="#606060" stroke-width=".5" x="0" y="0" width="60" height="60"/>
                <use id="zoomplus" xlink:href="#zoomPlus" x="17" y="9" onmousedown="handleZoom(evt,'in')"/>
                <use id="zoomminus" xlink:href="#zoomMin" x="42" y="9" onmousedown="handleZoom(evt,'out')"/>
                <use id="reset" xlink:href="#resetDef" x="30" y="36" onmousedown="handleReset()"/>
                <g id="arrowUp" xlink:href="#dirArrow" transform="translate(30 24)" onmousedown="handlePan(0,-1)">
                  <use xlink:href="#rim" fill="#404040">
                        <set attributeName="fill" to="#808080" begin="arrowUp.mouseover" end="arrowUp.mouseout"/>
                  </use>
                  <path fill="none" stroke="white" stroke-width="1.5" d="M0,-3.0v7 M-2.5,-0.5L0,-3.0L2.5,-0.5"/>
                </g>
                <g id="arrowRight" xlink:href="#dirArrow" transform="rotate(90) translate(36 -43)" onmousedown="handlePan(1,0)">
                  <use xlink:href="#rim" fill="#404040">
                        <set attributeName="fill" to="#808080" begin="arrowRight.mouseover" end="arrowRight.mouseout"/>
                  </use>
                  <path fill="none" stroke="white" stroke-width="1.5" d="M0,-3.0v7 M-2.5,-0.5L0,-3.0L2.5,-0.5"/>
                </g>
                <g id="arrowDown" xlink:href="#dirArrow" transform="rotate(180) translate(-30 -48)" onmousedown="handlePan(0,1)">
                  <use xlink:href="#rim" fill="#404040">
                        <set attributeName="fill" to="#808080" begin="arrowDown.mouseover" end="arrowDown.mouseout"/>
                  </use>
                  <path fill="none" stroke="white" stroke-width="1.5" d="M0,-3.0v7 M-2.5,-0.5L0,-3.0L2.5,-0.5"/>
                </g>
                <g id="arrowLeft" xlink:href="#dirArrow" transform="rotate(270) translate(-36 17)" onmousedown="handlePan(-1,0)">
                  <use xlink:href="#rim" fill="#404040">
                        <set attributeName="fill" to="#808080" begin="arrowLeft.mouseover" end="arrowLeft.mouseout"/>
                  </use>
                  <path fill="none" stroke="white" stroke-width="1.5" d="M0,-3.0v7 M-2.5,-0.5L0,-3.0L2.5,-0.5"/>
                </g>
        </g>
        <svg viewBox="0 0 15 15" width="100%" height="30px" preserveAspectRatio="xMaxYMin meet">
         <g id="arrow_out" transform="scale(0.3 0.3)">
          <a xlink:href="nm__creds_8c_af6e2f2763a96fbfdac39dd15df815cd7_cgraph_org.svg" target="_base">
           <rect id="button" ry="5" rx="5" y="6" x="6" height="38" width="38"
                fill="#f2f5e9" fill-opacity="0.5" stroke="#606060" stroke-width="1.0"/>
           <path id="arrow"
             d="M 11.500037,31.436501 C 11.940474,20.09759 22.043105,11.32322 32.158766,21.979434 L 37.068811,17.246167 C 37.068811,17.246167 37.088388,32 37.088388,32 L 22.160133,31.978069 C 22.160133,31.978069 26.997745,27.140456 26.997745,27.140456 C 18.528582,18.264221 13.291696,25.230495 11.500037,31.436501 z"
             style="fill:#404040;"/>
          </a>
         </g>
        </svg>
</svg>
