<?xml version="1.0" encoding="UTF-8" standalone="no"?>
<!DOCTYPE svg PUBLIC "-//W3C//DTD SVG 1.1//EN"
 "http://www.w3.org/Graphics/SVG/1.1/DTD/svg11.dtd">
<!-- Generated by graphviz version 2.36.0 (20140111.2315)
 -->
<!-- Title: x509 Pages: 1 -->
<svg width="276pt" height="256pt"
 viewBox="0.00 0.00 276.00 256.00" xmlns="http://www.w3.org/2000/svg" xmlns:xlink="http://www.w3.org/1999/xlink">
<g id="graph0" class="graph" transform="scale(1 1) rotate(0) translate(4 252)">
<title>x509</title>
<!-- Node5 -->
<g id="node1" class="node"><title>Node5</title>
<g id="a_node1"><a xlink:href="../../d7/d2a/group__x509__ocsp__request.html" target="_top" xlink:title="x509_ocsp_request">
<polygon fill="none" stroke="black" points="162.5,-228.5 162.5,-247.5 263.5,-247.5 263.5,-228.5 162.5,-228.5"/>
<text text-anchor="middle" x="213" y="-235.5" font-family="Helvetica,sans-Serif" font-size="10.00">x509_ocsp_request</text>
</a>
</g>
</g>
<!-- Node2 -->
<g id="node2" class="node"><title>Node2</title>
<g id="a_node2"><a xlink:href="../../d5/d6b/group__x509__ac.html" target="_top" xlink:title="x509_ac">
<polygon fill="none" stroke="black" points="186.5,-190.5 186.5,-209.5 239.5,-209.5 239.5,-190.5 186.5,-190.5"/>
<text text-anchor="middle" x="213" y="-197.5" font-family="Helvetica,sans-Serif" font-size="10.00">x509_ac</text>
</a>
</g>
</g>
<!-- Node0 -->
<g id="node3" class="node"><title>Node0</title>
<polygon fill="#bfbfbf" stroke="black" points="84,-114.5 84,-133.5 122,-133.5 122,-114.5 84,-114.5"/>
<text text-anchor="middle" x="103" y="-121.5" font-family="Helvetica,sans-Serif" font-size="10.00">x509</text>
</g>
<!-- Node0&#45;&gt;Node5 -->
<g id="edge5" class="edge"><title>Node0&#45;&gt;Node5</title>
<path fill="none" stroke="midnightblue" d="M110.253,-143.167C118.151,-164.522 133.716,-198.706 158,-219 162.652,-222.888 168.153,-226.001 173.834,-228.489"/>
<polygon fill="midnightblue" stroke="midnightblue" points="113.503,-141.857 106.902,-133.57 106.895,-144.165 113.503,-141.857"/>
</g>
<!-- Node0&#45;&gt;Node2 -->
<g id="edge2" class="edge"><title>Node0&#45;&gt;Node2</title>
<path fill="none" stroke="midnightblue" d="M117.059,-141.742C127.052,-154.226 141.831,-170.513 158,-181 166.588,-186.57 177.007,-190.734 186.394,-193.721"/>
<polygon fill="midnightblue" stroke="midnightblue" points="119.828,-139.602 110.947,-133.825 114.288,-143.88 119.828,-139.602"/>
</g>
<!-- Node4 -->
<g id="node4" class="node"><title>Node4</title>
<g id="a_node4"><a xlink:href="../../dd/dc8/group__x509__crl.html" target="_top" xlink:title="x509_crl">
<polygon fill="none" stroke="black" points="186.5,-152.5 186.5,-171.5 239.5,-171.5 239.5,-152.5 186.5,-152.5"/>
<text text-anchor="middle" x="213" y="-159.5" font-family="Helvetica,sans-Serif" font-size="10.00">x509_crl</text>
</a>
</g>
</g>
<!-- Node0&#45;&gt;Node4 -->
<g id="edge4" class="edge"><title>Node0&#45;&gt;Node4</title>
<path fill="none" stroke="midnightblue" d="M132.109,-133.89C148.864,-139.786 169.977,-147.214 186.29,-152.954"/>
<polygon fill="midnightblue" stroke="midnightblue" points="132.916,-130.464 122.321,-130.446 130.592,-137.067 132.916,-130.464"/>
</g>
<!-- Node8 -->
<g id="node5" class="node"><title>Node8</title>
<g id="a_node5"><a xlink:href="../../dd/dbc/group__x509__plugin.html" target="_top" xlink:title="x509_plugin">
<polygon fill="none" stroke="black" points="179,-114.5 179,-133.5 247,-133.5 247,-114.5 179,-114.5"/>
<text text-anchor="middle" x="213" y="-121.5" font-family="Helvetica,sans-Serif" font-size="10.00">x509_plugin</text>
</a>
</g>
</g>
<!-- Node0&#45;&gt;Node8 -->
<g id="edge8" class="edge"><title>Node0&#45;&gt;Node8</title>
<path fill="none" stroke="midnightblue" d="M132.486,-124C146.676,-124 163.919,-124 178.715,-124"/>
<polygon fill="midnightblue" stroke="midnightblue" points="132.321,-120.5 122.321,-124 132.321,-127.5 132.321,-120.5"/>
</g>
<!-- Node3 -->
<g id="node6" class="node"><title>Node3</title>
<g id="a_node6"><a xlink:href="../../d6/dfa/group__x509__cert.html" target="_top" xlink:title="x509_cert">
<polygon fill="none" stroke="black" points="183.5,-76.5 183.5,-95.5 242.5,-95.5 242.5,-76.5 183.5,-76.5"/>
<text text-anchor="middle" x="213" y="-83.5" font-family="Helvetica,sans-Serif" font-size="10.00">x509_cert</text>
</a>
</g>
</g>
<!-- Node0&#45;&gt;Node3 -->
<g id="edge3" class="edge"><title>Node0&#45;&gt;Node3</title>
<path fill="none" stroke="midnightblue" d="M131.823,-114.21C148.071,-108.493 168.49,-101.309 184.655,-95.6212"/>
<polygon fill="midnightblue" stroke="midnightblue" points="130.592,-110.933 122.321,-117.554 132.916,-117.536 130.592,-110.933"/>
</g>
<!-- Node6 -->
<g id="node7" class="node"><title>Node6</title>
<g id="a_node7"><a xlink:href="../../dc/dd1/group__x509__ocsp__response.html" target="_top" xlink:title="x509_ocsp_response">
<polygon fill="none" stroke="black" points="158.5,-38.5 158.5,-57.5 267.5,-57.5 267.5,-38.5 158.5,-38.5"/>
<text text-anchor="middle" x="213" y="-45.5" font-family="Helvetica,sans-Serif" font-size="10.00">x509_ocsp_response</text>
</a>
</g>
</g>
<!-- Node0&#45;&gt;Node6 -->
<g id="edge6" class="edge"><title>Node0&#45;&gt;Node6</title>
<path fill="none" stroke="midnightblue" d="M117.059,-106.258C127.052,-93.7744 141.831,-77.4865 158,-67 163.837,-63.2144 170.519,-60.0785 177.148,-57.52"/>
<polygon fill="midnightblue" stroke="midnightblue" points="114.288,-104.12 110.947,-114.175 119.828,-108.398 114.288,-104.12"/>
</g>
<!-- Node7 -->
<g id="node8" class="node"><title>Node7</title>
<g id="a_node8"><a xlink:href="../../d6/dc9/group__x509__pkcs10.html" target="_top" xlink:title="x509_pkcs10">
<polygon fill="none" stroke="black" points="176,-0.5 176,-19.5 250,-19.5 250,-0.5 176,-0.5"/>
<text text-anchor="middle" x="213" y="-7.5" font-family="Helvetica,sans-Serif" font-size="10.00">x509_pkcs10</text>
</a>
</g>
</g>
<!-- Node0&#45;&gt;Node7 -->
<g id="edge7" class="edge"><title>Node0&#45;&gt;Node7</title>
<path fill="none" stroke="midnightblue" d="M110.253,-104.833C118.151,-83.4782 133.716,-49.2937 158,-29 163.186,-24.6664 169.427,-21.2944 175.796,-18.679"/>
<polygon fill="midnightblue" stroke="midnightblue" points="106.895,-103.835 106.902,-114.43 113.503,-106.143 106.895,-103.835"/>
</g>
<!-- Node1 -->
<g id="node9" class="node"><title>Node1</title>
<g id="a_node9"><a xlink:href="../../d1/d29/group__plugins.html" target="_top" xlink:title="plugins">
<polygon fill="none" stroke="black" points="0.5,-114.5 0.5,-133.5 47.5,-133.5 47.5,-114.5 0.5,-114.5"/>
<text text-anchor="middle" x="24" y="-121.5" font-family="Helvetica,sans-Serif" font-size="10.00">plugins</text>
</a>
</g>
</g>
<!-- Node1&#45;&gt;Node0 -->
<g id="edge1" class="edge"><title>Node1&#45;&gt;Node0</title>
<path fill="none" stroke="midnightblue" d="M57.8438,-124C66.759,-124 76.0879,-124 83.8618,-124"/>
<polygon fill="midnightblue" stroke="midnightblue" points="57.6861,-120.5 47.6861,-124 57.686,-127.5 57.6861,-120.5"/>
</g>
</g>
</svg>
