<?xml version="1.0" encoding="UTF-8" standalone="no"?>
<!DOCTYPE svg PUBLIC "-//W3C//DTD SVG 1.1//EN"
 "http://www.w3.org/Graphics/SVG/1.1/DTD/svg11.dtd">
<!-- Generated by graphviz version 2.36.0 (20140111.2315)
 -->
<!-- Title: eap_radius_build_attributes Pages: 1 -->
<svg width="378pt" height="77pt"
 viewBox="0.00 0.00 378.00 77.00" xmlns="http://www.w3.org/2000/svg" xmlns:xlink="http://www.w3.org/1999/xlink">
<g id="graph0" class="graph" transform="scale(1 1) rotate(0) translate(4 73)">
<title>eap_radius_build_attributes</title>
<!-- Node1 -->
<g id="node1" class="node"><title>Node1</title>
<polygon fill="#bfbfbf" stroke="black" points="0.5,-22.5 0.5,-41.5 135.5,-41.5 135.5,-22.5 0.5,-22.5"/>
<text text-anchor="middle" x="68" y="-29.5" font-family="Helvetica,sans-Serif" font-size="10.00">eap_radius_build_attributes</text>
</g>
<!-- Node2 -->
<g id="node2" class="node"><title>Node2</title>
<g id="a_node2"><a xlink:href="../../d5/d7f/eap__radius_8c.html#a1f15b54951de7f54d38fecab56d1062d" target="_top" xlink:title="add_radius_request\l_attrs">
<polygon fill="none" stroke="black" points="172.5,-39 172.5,-69 273.5,-69 273.5,-39 172.5,-39"/>
<text text-anchor="start" x="180.5" y="-57" font-family="Helvetica,sans-Serif" font-size="10.00">add_radius_request</text>
<text text-anchor="middle" x="223" y="-46" font-family="Helvetica,sans-Serif" font-size="10.00">_attrs</text>
</a>
</g>
</g>
<!-- Node1&#45;&gt;Node2 -->
<g id="edge1" class="edge"><title>Node1&#45;&gt;Node2</title>
<path fill="none" stroke="midnightblue" d="M145.182,-42.9543C154.39,-44.2783 163.604,-45.6032 172.291,-46.8522"/>
<polygon fill="midnightblue" stroke="midnightblue" points="145.615,-39.4806 135.218,-41.5216 144.618,-46.4093 145.615,-39.4806"/>
</g>
<!-- Node4 -->
<g id="node4" class="node"><title>Node4</title>
<g id="a_node4"><a xlink:href="../../d6/d63/eap__radius__xauth_8c.html#a8ac33026734eb7c66eca0e35e7ca3841" target="_top" xlink:title="verify_radius">
<polygon fill="none" stroke="black" points="187,-0.5 187,-19.5 259,-19.5 259,-0.5 187,-0.5"/>
<text text-anchor="middle" x="223" y="-7.5" font-family="Helvetica,sans-Serif" font-size="10.00">verify_radius</text>
</a>
</g>
</g>
<!-- Node1&#45;&gt;Node4 -->
<g id="edge3" class="edge"><title>Node1&#45;&gt;Node4</title>
<path fill="none" stroke="midnightblue" d="M145.266,-21.0336C159.82,-18.941 174.384,-16.8467 186.854,-15.0537"/>
<polygon fill="midnightblue" stroke="midnightblue" points="144.618,-17.5907 135.218,-22.4784 145.615,-24.5194 144.618,-17.5907"/>
</g>
<!-- Node3 -->
<g id="node3" class="node"><title>Node3</title>
<g id="a_node3"><a xlink:href="../../d5/d7f/eap__radius_8c.html#ad2b278048c1855ca840d64d50fc76ef7" target="_top" xlink:title="METHOD">
<polygon fill="none" stroke="black" points="310,-44.5 310,-63.5 370,-63.5 370,-44.5 310,-44.5"/>
<text text-anchor="middle" x="340" y="-51.5" font-family="Helvetica,sans-Serif" font-size="10.00">METHOD</text>
</a>
</g>
</g>
<!-- Node2&#45;&gt;Node3 -->
<g id="edge2" class="edge"><title>Node2&#45;&gt;Node3</title>
<path fill="none" stroke="midnightblue" d="M283.891,-54C292.866,-54 301.763,-54 309.705,-54"/>
<polygon fill="midnightblue" stroke="midnightblue" points="283.772,-50.5001 273.772,-54 283.772,-57.5001 283.772,-50.5001"/>
</g>
<!-- Node5 -->
<g id="node5" class="node"><title>Node5</title>
<g id="a_node5"><a xlink:href="../../d6/d63/eap__radius__xauth_8c.html#af56283fa00519460fbfec662b20c433f" target="_top" xlink:title="METHOD">
<polygon fill="none" stroke="black" points="310,-0.5 310,-19.5 370,-19.5 370,-0.5 310,-0.5"/>
<text text-anchor="middle" x="340" y="-7.5" font-family="Helvetica,sans-Serif" font-size="10.00">METHOD</text>
</a>
</g>
</g>
<!-- Node4&#45;&gt;Node5 -->
<g id="edge4" class="edge"><title>Node4&#45;&gt;Node5</title>
<path fill="none" stroke="midnightblue" d="M269.326,-10C282.976,-10 297.586,-10 309.883,-10"/>
<polygon fill="midnightblue" stroke="midnightblue" points="269.129,-6.5001 259.129,-10 269.129,-13.5001 269.129,-6.5001"/>
</g>
</g>
</svg>
