<?xml version="1.0" encoding="UTF-8" standalone="no"?>
<!DOCTYPE svg PUBLIC "-//W3C//DTD SVG 1.1//EN"
 "http://www.w3.org/Graphics/SVG/1.1/DTD/svg11.dtd">
<!-- Generated by graphviz version 2.36.0 (20140111.2315)
 -->
<!-- Title: crypto_factory_t Pages: 1 -->
<svg width="850pt" height="252pt"
 viewBox="0.00 0.00 850.00 252.00" xmlns="http://www.w3.org/2000/svg" xmlns:xlink="http://www.w3.org/1999/xlink">
<g id="graph0" class="graph" transform="scale(1 1) rotate(0) translate(4 248)">
<title>crypto_factory_t</title>
<!-- Node1 -->
<g id="node1" class="node"><title>Node1</title>
<polygon fill="#bfbfbf" stroke="black" points="325.5,-0.5 325.5,-19.5 412.5,-19.5 412.5,-0.5 325.5,-0.5"/>
<text text-anchor="middle" x="369" y="-7.5" font-family="Helvetica,sans-Serif" font-size="10.00">crypto_factory_t</text>
</g>
<!-- Node2 -->
<g id="node2" class="node"><title>Node2</title>
<g id="a_node2"><a xlink:href="../../dc/d1a/structnonce__gen__t.html" target="_top" xlink:title="nonce_gen_t">
<polygon fill="none" stroke="black" points="0,-156.5 0,-175.5 72,-175.5 72,-156.5 0,-156.5"/>
<text text-anchor="middle" x="36" y="-163.5" font-family="Helvetica,sans-Serif" font-size="10.00">nonce_gen_t</text>
</a>
</g>
</g>
<!-- Node2&#45;&gt;Node1 -->
<g id="edge1" class="edge"><title>Node2&#45;&gt;Node1</title>
<path fill="none" stroke="#9a32cd" stroke-dasharray="5,2" d="M31.0701,-146.399C24.9472,-118.595 18.49,-66.4319 47,-38 66.2902,-18.7627 241.701,-13.174 325.201,-11.5971"/>
<polygon fill="#9a32cd" stroke="#9a32cd" points="27.7318,-147.484 33.4895,-156.378 34.5347,-145.835 27.7318,-147.484"/>
<text text-anchor="middle" x="88.5" y="-85.5" font-family="Helvetica,sans-Serif" font-size="10.00"> create_nonce_gen</text>
</g>
<!-- Node3 -->
<g id="node3" class="node"><title>Node3</title>
<g id="a_node3"><a xlink:href="../../df/dc6/structsigner__t.html" target="_top" xlink:title="signer_t">
<polygon fill="none" stroke="black" points="116.5,-156.5 116.5,-175.5 167.5,-175.5 167.5,-156.5 116.5,-156.5"/>
<text text-anchor="middle" x="142" y="-163.5" font-family="Helvetica,sans-Serif" font-size="10.00">signer_t</text>
</a>
</g>
</g>
<!-- Node3&#45;&gt;Node1 -->
<g id="edge2" class="edge"><title>Node3&#45;&gt;Node1</title>
<path fill="none" stroke="#9a32cd" stroke-dasharray="5,2" d="M137.559,-146.503C132.13,-118.835 126.824,-66.846 155,-38 177.896,-14.56 269.491,-10.5498 325.161,-10.3587"/>
<polygon fill="#9a32cd" stroke="#9a32cd" points="134.174,-147.405 139.723,-156.43 141.013,-145.914 134.174,-147.405"/>
<text text-anchor="middle" x="186" y="-85.5" font-family="Helvetica,sans-Serif" font-size="10.00"> create_signer</text>
</g>
<!-- Node4 -->
<g id="node4" class="node"><title>Node4</title>
<g id="a_node4"><a xlink:href="../../df/d5f/structprf__t.html" target="_top" xlink:title="prf_t">
<polygon fill="none" stroke="black" points="209,-156.5 209,-175.5 245,-175.5 245,-156.5 209,-156.5"/>
<text text-anchor="middle" x="227" y="-163.5" font-family="Helvetica,sans-Serif" font-size="10.00">prf_t</text>
</a>
</g>
</g>
<!-- Node4&#45;&gt;Node1 -->
<g id="edge3" class="edge"><title>Node4&#45;&gt;Node1</title>
<path fill="none" stroke="#9a32cd" stroke-dasharray="5,2" d="M223.316,-146.341C219.068,-118.882 215.795,-67.6444 243,-38 254.042,-25.9676 293.472,-18.8777 325.318,-15.0064"/>
<polygon fill="#9a32cd" stroke="#9a32cd" points="219.874,-146.974 225.05,-156.218 226.768,-145.764 219.874,-146.974"/>
<text text-anchor="middle" x="266.5" y="-85.5" font-family="Helvetica,sans-Serif" font-size="10.00"> create_prf</text>
</g>
<!-- Node5 -->
<g id="node5" class="node"><title>Node5</title>
<g id="a_node5"><a xlink:href="../../d9/ddb/structrng__t.html" target="_top" xlink:title="rng_t">
<polygon fill="none" stroke="black" points="278,-156.5 278,-175.5 316,-175.5 316,-156.5 278,-156.5"/>
<text text-anchor="middle" x="297" y="-163.5" font-family="Helvetica,sans-Serif" font-size="10.00">rng_t</text>
</a>
</g>
</g>
<!-- Node5&#45;&gt;Node1 -->
<g id="edge4" class="edge"><title>Node5&#45;&gt;Node1</title>
<path fill="none" stroke="#9a32cd" stroke-dasharray="5,2" d="M294.779,-146.042C292.683,-119.338 292.737,-70.3072 316,-38 322.034,-29.6199 331.441,-23.6669 340.666,-19.5235"/>
<polygon fill="#9a32cd" stroke="#9a32cd" points="291.325,-146.691 295.782,-156.303 298.292,-146.01 291.325,-146.691"/>
<text text-anchor="middle" x="340.5" y="-85.5" font-family="Helvetica,sans-Serif" font-size="10.00"> create_rng</text>
</g>
<!-- Node6 -->
<g id="node6" class="node"><title>Node6</title>
<g id="a_node6"><a xlink:href="../../d7/d7d/structaead__t.html" target="_top" xlink:title="aead_t">
<polygon fill="none" stroke="black" points="346,-156.5 346,-175.5 392,-175.5 392,-156.5 346,-156.5"/>
<text text-anchor="middle" x="369" y="-163.5" font-family="Helvetica,sans-Serif" font-size="10.00">aead_t</text>
</a>
</g>
</g>
<!-- Node6&#45;&gt;Node1 -->
<g id="edge5" class="edge"><title>Node6&#45;&gt;Node1</title>
<path fill="none" stroke="#9a32cd" stroke-dasharray="5,2" d="M369,-145.982C369,-112.374 369,-43.755 369,-19.6253"/>
<polygon fill="#9a32cd" stroke="#9a32cd" points="365.5,-146.279 369,-156.279 372.5,-146.279 365.5,-146.279"/>
<text text-anchor="middle" x="397.5" y="-85.5" font-family="Helvetica,sans-Serif" font-size="10.00"> create_aead</text>
</g>
<!-- Node7 -->
<g id="node7" class="node"><title>Node7</title>
<g id="a_node7"><a xlink:href="../../db/d66/structiv__gen__t.html" target="_top" xlink:title="iv_gen_t">
<polygon fill="none" stroke="black" points="342.5,-224.5 342.5,-243.5 395.5,-243.5 395.5,-224.5 342.5,-224.5"/>
<text text-anchor="middle" x="369" y="-231.5" font-family="Helvetica,sans-Serif" font-size="10.00">iv_gen_t</text>
</a>
</g>
</g>
<!-- Node7&#45;&gt;Node6 -->
<g id="edge6" class="edge"><title>Node7&#45;&gt;Node6</title>
<path fill="none" stroke="#9a32cd" stroke-dasharray="5,2" d="M369,-214.041C369,-201.472 369,-185.563 369,-175.841"/>
<polygon fill="#9a32cd" stroke="#9a32cd" points="365.5,-214.372 369,-224.372 372.5,-214.372 365.5,-214.372"/>
<text text-anchor="middle" x="394.5" y="-197.5" font-family="Helvetica,sans-Serif" font-size="10.00"> get_iv_gen</text>
</g>
<!-- Node8 -->
<g id="node8" class="node"><title>Node8</title>
<g id="a_node8"><a xlink:href="../../db/dd3/structenumerator__t.html" target="_top" xlink:title="enumerator_t">
<polygon fill="none" stroke="black" points="412,-156.5 412,-175.5 486,-175.5 486,-156.5 412,-156.5"/>
<text text-anchor="middle" x="449" y="-163.5" font-family="Helvetica,sans-Serif" font-size="10.00">enumerator_t</text>
</a>
</g>
</g>
<!-- Node8&#45;&gt;Node1 -->
<g id="edge7" class="edge"><title>Node8&#45;&gt;Node1</title>
<path fill="none" stroke="#9a32cd" stroke-dasharray="5,2" d="M447.842,-145.965C445.6,-114.784 439.724,-54.6226 427,-38 420.519,-29.533 410.742,-23.6194 401.053,-19.5348"/>
<polygon fill="#9a32cd" stroke="#9a32cd" points="444.376,-146.598 448.53,-156.345 451.361,-146.135 444.376,-146.598"/>
<text text-anchor="middle" x="515" y="-129.5" font-family="Helvetica,sans-Serif" font-size="10.00"> create_verify_enumerator</text>
<text text-anchor="middle" x="515" y="-118.5" font-family="Helvetica,sans-Serif" font-size="10.00">create_aead_enumerator</text>
<text text-anchor="middle" x="515" y="-107.5" font-family="Helvetica,sans-Serif" font-size="10.00">create_hasher_enumerator</text>
<text text-anchor="middle" x="515" y="-96.5" font-family="Helvetica,sans-Serif" font-size="10.00">create_signer_enumerator</text>
<text text-anchor="middle" x="515" y="-85.5" font-family="Helvetica,sans-Serif" font-size="10.00">create_nonce_gen_enumerator</text>
<text text-anchor="middle" x="515" y="-74.5" font-family="Helvetica,sans-Serif" font-size="10.00">create_crypter_enumerator</text>
<text text-anchor="middle" x="515" y="-63.5" font-family="Helvetica,sans-Serif" font-size="10.00">create_dh_enumerator</text>
<text text-anchor="middle" x="515" y="-52.5" font-family="Helvetica,sans-Serif" font-size="10.00">create_prf_enumerator</text>
<text text-anchor="middle" x="515" y="-41.5" font-family="Helvetica,sans-Serif" font-size="10.00">create_rng_enumerator</text>
</g>
<!-- Node9 -->
<g id="node9" class="node"><title>Node9</title>
<g id="a_node9"><a xlink:href="../../d1/dd3/structdiffie__hellman__t.html" target="_top" xlink:title="diffie_hellman_t">
<polygon fill="none" stroke="black" points="558.5,-156.5 558.5,-175.5 643.5,-175.5 643.5,-156.5 558.5,-156.5"/>
<text text-anchor="middle" x="601" y="-163.5" font-family="Helvetica,sans-Serif" font-size="10.00">diffie_hellman_t</text>
</a>
</g>
</g>
<!-- Node9&#45;&gt;Node1 -->
<g id="edge8" class="edge"><title>Node9&#45;&gt;Node1</title>
<path fill="none" stroke="#9a32cd" stroke-dasharray="5,2" d="M604.77,-146.416C609.213,-118.635 612.734,-66.501 584,-38 560.63,-14.819 468.741,-10.7137 412.933,-10.4365"/>
<polygon fill="#9a32cd" stroke="#9a32cd" points="601.303,-145.923 602.963,-156.387 608.19,-147.171 601.303,-145.923"/>
<text text-anchor="middle" x="631" y="-85.5" font-family="Helvetica,sans-Serif" font-size="10.00"> create_dh</text>
</g>
<!-- Node10 -->
<g id="node10" class="node"><title>Node10</title>
<g id="a_node10"><a xlink:href="../../d4/d72/structhasher__t.html" target="_top" xlink:title="hasher_t">
<polygon fill="none" stroke="black" points="662,-156.5 662,-175.5 716,-175.5 716,-156.5 662,-156.5"/>
<text text-anchor="middle" x="689" y="-163.5" font-family="Helvetica,sans-Serif" font-size="10.00">hasher_t</text>
</a>
</g>
</g>
<!-- Node10&#45;&gt;Node1 -->
<g id="edge9" class="edge"><title>Node10&#45;&gt;Node1</title>
<path fill="none" stroke="#9a32cd" stroke-dasharray="5,2" d="M685.641,-146.159C679.473,-112.551 666.218,-45.0964 658,-38 639.835,-22.3152 488.672,-15.0227 412.509,-12.3177"/>
<polygon fill="#9a32cd" stroke="#9a32cd" points="682.22,-146.906 687.444,-156.123 689.108,-145.659 682.22,-146.906"/>
<text text-anchor="middle" x="716.5" y="-85.5" font-family="Helvetica,sans-Serif" font-size="10.00"> create_hasher</text>
</g>
<!-- Node11 -->
<g id="node11" class="node"><title>Node11</title>
<g id="a_node11"><a xlink:href="../../d9/d7b/structcrypter__t.html" target="_top" xlink:title="crypter_t">
<polygon fill="none" stroke="black" points="744.5,-156.5 744.5,-175.5 799.5,-175.5 799.5,-156.5 744.5,-156.5"/>
<text text-anchor="middle" x="772" y="-163.5" font-family="Helvetica,sans-Serif" font-size="10.00">crypter_t</text>
</a>
</g>
</g>
<!-- Node11&#45;&gt;Node1 -->
<g id="edge10" class="edge"><title>Node11&#45;&gt;Node1</title>
<path fill="none" stroke="#9a32cd" stroke-dasharray="5,2" d="M775.125,-146.115C778.587,-117.94 780.201,-65.3007 750,-38 725.435,-15.7937 507.242,-11.803 412.542,-11.1215"/>
<polygon fill="#9a32cd" stroke="#9a32cd" points="771.629,-145.84 773.667,-156.237 778.557,-146.838 771.629,-145.84"/>
<text text-anchor="middle" x="809" y="-85.5" font-family="Helvetica,sans-Serif" font-size="10.00"> create_crypter</text>
</g>
</g>
</svg>
