<?xml version="1.0" encoding="UTF-8" standalone="no"?>
<!DOCTYPE svg PUBLIC "-//W3C//DTD SVG 1.1//EN"
 "http://www.w3.org/Graphics/SVG/1.1/DTD/svg11.dtd">
<!-- Generated by graphviz version 2.36.0 (20140111.2315)
 -->
<!-- Title: private_plugin_loader_t Pages: 1 -->
<svg width="306pt" height="186pt"
 viewBox="0.00 0.00 306.00 186.00" xmlns="http://www.w3.org/2000/svg" xmlns:xlink="http://www.w3.org/1999/xlink">
<g id="graph0" class="graph" transform="scale(1 1) rotate(0) translate(4 182)">
<title>private_plugin_loader_t</title>
<!-- Node1 -->
<g id="node1" class="node"><title>Node1</title>
<polygon fill="#bfbfbf" stroke="black" points="34,-0.5 34,-19.5 150,-19.5 150,-0.5 34,-0.5"/>
<text text-anchor="middle" x="92" y="-7.5" font-family="Helvetica,sans-Serif" font-size="10.00">private_plugin_loader_t</text>
</g>
<!-- Node2 -->
<g id="node2" class="node"><title>Node2</title>
<polygon fill="none" stroke="#bfbfbf" points="-0.5,-90.5 -0.5,-109.5 40.5,-109.5 40.5,-90.5 -0.5,-90.5"/>
<text text-anchor="middle" x="20" y="-97.5" font-family="Helvetica,sans-Serif" font-size="10.00">struct</text>
</g>
<!-- Node2&#45;&gt;Node1 -->
<g id="edge1" class="edge"><title>Node2&#45;&gt;Node1</title>
<path fill="none" stroke="#9a32cd" stroke-dasharray="5,2" d="M29.4923,-80.9991C36.6689,-68.2698 47.2668,-51.1915 59,-38 65.1004,-31.1414 73.0334,-24.5924 79.5925,-19.6622"/>
<polygon fill="#9a32cd" stroke="#9a32cd" points="26.2338,-79.6638 24.5141,-90.1181 32.3778,-83.018 26.2338,-79.6638"/>
<text text-anchor="middle" x="73.5" y="-58" font-family="Helvetica,sans-Serif" font-size="10.00"> public</text>
<text text-anchor="middle" x="73.5" y="-47" font-family="Helvetica,sans-Serif" font-size="10.00">stats</text>
</g>
<!-- Node3 -->
<g id="node3" class="node"><title>Node3</title>
<g id="a_node3"><a xlink:href="../../dd/d49/structhashtable__t.html" target="_top" xlink:title="hashtable_t">
<polygon fill="none" stroke="black" points="58.5,-90.5 58.5,-109.5 125.5,-109.5 125.5,-90.5 58.5,-90.5"/>
<text text-anchor="middle" x="92" y="-97.5" font-family="Helvetica,sans-Serif" font-size="10.00">hashtable_t</text>
</a>
</g>
</g>
<!-- Node3&#45;&gt;Node1 -->
<g id="edge2" class="edge"><title>Node3&#45;&gt;Node1</title>
<path fill="none" stroke="#9a32cd" stroke-dasharray="5,2" d="M92,-79.9784C92,-61.3096 92,-33.6696 92,-19.7241"/>
<polygon fill="#9a32cd" stroke="#9a32cd" points="88.5001,-80.2405 92,-90.2405 95.5001,-80.2405 88.5001,-80.2405"/>
<text text-anchor="middle" x="111.5" y="-52.5" font-family="Helvetica,sans-Serif" font-size="10.00"> features</text>
</g>
<!-- Node4 -->
<g id="node4" class="node"><title>Node4</title>
<g id="a_node4"><a xlink:href="../../db/dd3/structenumerator__t.html" target="_top" xlink:title="enumerator_t">
<polygon fill="none" stroke="black" points="104,-158.5 104,-177.5 178,-177.5 178,-158.5 104,-158.5"/>
<text text-anchor="middle" x="141" y="-165.5" font-family="Helvetica,sans-Serif" font-size="10.00">enumerator_t</text>
</a>
</g>
</g>
<!-- Node4&#45;&gt;Node3 -->
<g id="edge3" class="edge"><title>Node4&#45;&gt;Node3</title>
<path fill="none" stroke="#9a32cd" stroke-dasharray="5,2" d="M98.2088,-153.583C92.5733,-150.04 87.5352,-145.586 84,-140 78.1602,-130.772 82.5763,-118.079 86.8131,-109.713"/>
<polygon fill="#9a32cd" stroke="#9a32cd" points="96.9469,-156.874 107.426,-158.436 100.208,-150.68 96.9469,-156.874"/>
<text text-anchor="middle" x="126.5" y="-131.5" font-family="Helvetica,sans-Serif" font-size="10.00"> create_enumerator</text>
</g>
<!-- Node5 -->
<g id="node5" class="node"><title>Node5</title>
<g id="a_node5"><a xlink:href="../../dc/de6/structlinked__list__t.html" target="_top" xlink:title="linked_list_t">
<polygon fill="none" stroke="black" points="155,-90.5 155,-109.5 223,-109.5 223,-90.5 155,-90.5"/>
<text text-anchor="middle" x="189" y="-97.5" font-family="Helvetica,sans-Serif" font-size="10.00">linked_list_t</text>
</a>
</g>
</g>
<!-- Node4&#45;&gt;Node5 -->
<g id="edge6" class="edge"><title>Node4&#45;&gt;Node5</title>
<path fill="none" stroke="#9a32cd" stroke-dasharray="5,2" d="M161.664,-152.106C165.785,-148.476 169.818,-144.368 173,-140 179.809,-130.654 184.308,-117.989 186.754,-109.661"/>
<polygon fill="#9a32cd" stroke="#9a32cd" points="159.405,-149.432 153.832,-158.443 163.808,-154.874 159.405,-149.432"/>
<text text-anchor="middle" x="222.5" y="-131.5" font-family="Helvetica,sans-Serif" font-size="10.00"> create_enumerator</text>
</g>
<!-- Node5&#45;&gt;Node1 -->
<g id="edge4" class="edge"><title>Node5&#45;&gt;Node1</title>
<path fill="none" stroke="#9a32cd" stroke-dasharray="5,2" d="M176.433,-82.3563C166.15,-69.381 150.775,-51.3801 135,-38 126.799,-31.0437 116.648,-24.5856 108.269,-19.7307"/>
<polygon fill="#9a32cd" stroke="#9a32cd" points="173.789,-84.6579 182.681,-90.4176 179.322,-80.3696 173.789,-84.6579"/>
<text text-anchor="middle" x="185" y="-63.5" font-family="Helvetica,sans-Serif" font-size="10.00"> plugins</text>
<text text-anchor="middle" x="185" y="-52.5" font-family="Helvetica,sans-Serif" font-size="10.00">loaded</text>
<text text-anchor="middle" x="185" y="-41.5" font-family="Helvetica,sans-Serif" font-size="10.00">paths</text>
</g>
<!-- Node5&#45;&gt;Node5 -->
<g id="edge5" class="edge"><title>Node5&#45;&gt;Node5</title>
<path fill="none" stroke="#9a32cd" stroke-dasharray="5,2" d="M233.148,-105.333C237.925,-104.309 241,-102.532 241,-100 241,-95.9492 233.127,-93.8289 223.008,-93.639"/>
<polygon fill="#9a32cd" stroke="#9a32cd" points="232.604,-101.87 223.008,-106.361 233.311,-108.834 232.604,-101.87"/>
<text text-anchor="middle" x="269.5" y="-97.5" font-family="Helvetica,sans-Serif" font-size="10.00"> clone_offset</text>
</g>
</g>
</svg>
