<?xml version="1.0" encoding="UTF-8" standalone="no"?>
<!DOCTYPE svg PUBLIC "-//W3C//DTD SVG 1.1//EN"
 "http://www.w3.org/Graphics/SVG/1.1/DTD/svg11.dtd">
<!-- Generated by graphviz version 2.36.0 (20140111.2315)
 -->
<!-- Title: METHOD Pages: 1 -->
<svg width="258pt" height="142pt"
 viewBox="0.00 0.00 258.00 142.00" xmlns="http://www.w3.org/2000/svg" xmlns:xlink="http://www.w3.org/1999/xlink">
<g id="graph0" class="graph" transform="scale(1 1) rotate(0) translate(4 138)">
<title>METHOD</title>
<!-- Node1 -->
<g id="node1" class="node"><title>Node1</title>
<polygon fill="#bfbfbf" stroke="black" points="0,-57.5 0,-76.5 60,-76.5 60,-57.5 0,-57.5"/>
<text text-anchor="middle" x="30" y="-64.5" font-family="Helvetica,sans-Serif" font-size="10.00">METHOD</text>
</g>
<!-- Node2 -->
<g id="node2" class="node"><title>Node2</title>
<g id="a_node2"><a xlink:href="../../d4/d87/group__chunk.html#gad94ca029616a107e89eaa618408fd7b6" target="_top" xlink:title="chunk_create">
<polygon fill="none" stroke="black" points="100.5,-114.5 100.5,-133.5 175.5,-133.5 175.5,-114.5 100.5,-114.5"/>
<text text-anchor="middle" x="138" y="-121.5" font-family="Helvetica,sans-Serif" font-size="10.00">chunk_create</text>
</a>
</g>
</g>
<!-- Node1&#45;&gt;Node2 -->
<g id="edge1" class="edge"><title>Node1&#45;&gt;Node2</title>
<path fill="none" stroke="midnightblue" d="M46.5266,-76.639C59.5503,-84.5872 78.7376,-95.9803 96,-105 99.155,-106.649 102.48,-108.31 105.815,-109.927"/>
<polygon fill="midnightblue" stroke="midnightblue" points="104.573,-113.211 115.109,-114.323 107.565,-106.883 104.573,-113.211"/>
</g>
<!-- Node3 -->
<g id="node3" class="node"><title>Node3</title>
<g id="a_node3"><a xlink:href="../../d4/d87/group__chunk.html#gaa86c84493369a4254d5801cdca20d458" target="_top" xlink:title="chunk_free">
<polygon fill="none" stroke="black" points="105.5,-76.5 105.5,-95.5 170.5,-95.5 170.5,-76.5 105.5,-76.5"/>
<text text-anchor="middle" x="138" y="-83.5" font-family="Helvetica,sans-Serif" font-size="10.00">chunk_free</text>
</a>
</g>
</g>
<!-- Node1&#45;&gt;Node3 -->
<g id="edge2" class="edge"><title>Node1&#45;&gt;Node3</title>
<path fill="none" stroke="midnightblue" d="M60.2456,-72.2421C71.0519,-74.1791 83.5195,-76.4139 95.222,-78.5115"/>
<polygon fill="midnightblue" stroke="midnightblue" points="94.7875,-81.9893 105.248,-80.3086 96.0225,-75.0991 94.7875,-81.9893"/>
</g>
<!-- Node5 -->
<g id="node5" class="node"><title>Node5</title>
<g id="a_node5"><a xlink:href="../../dd/db0/eap__md5_8c.html#a64435c27bbce607f185f780a28a9ce0c" target="_top" xlink:title="hash_challenge">
<polygon fill="none" stroke="black" points="96,-38.5 96,-57.5 180,-57.5 180,-38.5 96,-38.5"/>
<text text-anchor="middle" x="138" y="-45.5" font-family="Helvetica,sans-Serif" font-size="10.00">hash_challenge</text>
</a>
</g>
</g>
<!-- Node1&#45;&gt;Node5 -->
<g id="edge4" class="edge"><title>Node1&#45;&gt;Node5</title>
<path fill="none" stroke="midnightblue" d="M60.2456,-61.7579C68.2598,-60.3213 77.1878,-58.7211 86.0398,-57.1344"/>
<polygon fill="midnightblue" stroke="midnightblue" points="86.7233,-60.5677 95.9489,-55.3582 85.4882,-53.6775 86.7233,-60.5677"/>
</g>
<!-- Node6 -->
<g id="node6" class="node"><title>Node6</title>
<g id="a_node6"><a xlink:href="../../dd/d74/group__memory__i.html#gaf513a161cbe0ba0964578ee21ca4263b" target="_top" xlink:title="memeq_const">
<polygon fill="none" stroke="black" points="99,-0.5 99,-19.5 177,-19.5 177,-0.5 99,-0.5"/>
<text text-anchor="middle" x="138" y="-7.5" font-family="Helvetica,sans-Serif" font-size="10.00">memeq_const</text>
</a>
</g>
</g>
<!-- Node1&#45;&gt;Node6 -->
<g id="edge5" class="edge"><title>Node1&#45;&gt;Node6</title>
<path fill="none" stroke="midnightblue" d="M46.5266,-57.361C59.5503,-49.4128 78.7376,-38.0197 96,-29 99.155,-27.3515 102.48,-25.6904 105.815,-24.0731"/>
<polygon fill="midnightblue" stroke="midnightblue" points="107.565,-27.1169 115.109,-19.6775 104.573,-20.7889 107.565,-27.1169"/>
</g>
<!-- Node4 -->
<g id="node4" class="node"><title>Node4</title>
<g id="a_node4"><a xlink:href="../../da/dfc/settings__parser_8c.html#af07d89f5ceaea0c7c8252cc41fd75f37" target="_top" xlink:title="free">
<polygon fill="none" stroke="black" points="216.5,-76.5 216.5,-95.5 249.5,-95.5 249.5,-76.5 216.5,-76.5"/>
<text text-anchor="middle" x="233" y="-83.5" font-family="Helvetica,sans-Serif" font-size="10.00">free</text>
</a>
</g>
</g>
<!-- Node3&#45;&gt;Node4 -->
<g id="edge3" class="edge"><title>Node3&#45;&gt;Node4</title>
<path fill="none" stroke="midnightblue" d="M170.745,-86C182.269,-86 195.141,-86 206.101,-86"/>
<polygon fill="midnightblue" stroke="midnightblue" points="206.301,-89.5001 216.301,-86 206.301,-82.5001 206.301,-89.5001"/>
</g>
</g>
</svg>
