<?xml version="1.0" encoding="UTF-8" standalone="no"?>
<!DOCTYPE svg PUBLIC "-//W3C//DTD SVG 1.1//EN"
 "http://www.w3.org/Graphics/SVG/1.1/DTD/svg11.dtd">
<!-- Generated by graphviz version 2.36.0 (20140111.2315)
 -->
<!-- Title: mult4xor Pages: 1 -->
<!--zoomable 218 -->
<svg id="main" version="1.1" xmlns="http://www.w3.org/2000/svg" xmlns:xlink="http://www.w3.org/1999/xlink" xml:space="preserve" onload="init(evt)">
<style type="text/css"><![CDATA[
.edge:hover path { stroke: red; }
.edge:hover polygon { stroke: red; fill: red; }
]]></style>
<script type="text/javascript"><![CDATA[
var edges = document.getElementsByTagName('g');
if (edges && edges.length) {
  for (var i=0;i<edges.length;i++) {
    if (edges[i].id.substr(0,4)=='edge') {
      edges[i].setAttribute('class','edge');
    }
  }
}
]]></script>
        <defs>
                <circle id="rim" cx="0" cy="0" r="7"/>
                <circle id="rim2" cx="0" cy="0" r="3.5"/>
                <g id="zoomPlus">
                        <use xlink:href="#rim" fill="#404040">
                                <set attributeName="fill" to="#808080" begin="zoomplus.mouseover" end="zoomplus.mouseout"/>
                        </use>
                        <path d="M-4,0h8M0,-4v8" fill="none" stroke="white" stroke-width="1.5" pointer-events="none"/>
                </g>
                <g id="zoomMin">
                        <use xlink:href="#rim" fill="#404040">
                                <set attributeName="fill" to="#808080" begin="zoomminus.mouseover" end="zoomminus.mouseout"/>
                        </use>
                        <path d="M-4,0h8" fill="none" stroke="white" stroke-width="1.5" pointer-events="none"/>
                </g>
                <g id="dirArrow">
                        <path fill="none" stroke="white" stroke-width="1.5" d="M0,-3.0v7 M-2.5,-0.5L0,-3.0L2.5,-0.5"/>
                </g>
               <g id="resetDef">
                       <use xlink:href="#rim2" fill="#404040">
                               <set attributeName="fill" to="#808080" begin="reset.mouseover" end="reset.mouseout"/>
                       </use>
               </g>
        </defs>

<script type="text/javascript">
var viewWidth = 516;
var viewHeight = 218;
var sectionId = 'dynsection-33';
</script>
<script xlink:href="../../svgpan.js"/>
<svg id="graph" class="graph">
<g id="viewport">
<title>mult4xor</title>
<!-- Node1 -->
<g id="node1" class="node"><title>Node1</title>
<polygon fill="#bfbfbf" stroke="black" points="0,-95.5 0,-114.5 54,-114.5 54,-95.5 0,-95.5"/>
<text text-anchor="middle" x="27" y="-102.5" font-family="Helvetica,sans-Serif" font-size="10.00">mult4xor</text>
</g>
<!-- Node2 -->
<g id="node2" class="node"><title>Node2</title>
<g id="a_node2"><a xlink:href="../../d1/df5/aesni__gcm_8c.html#acf782a25037ae5fff73d9ae083992a42" target="_top" xlink:title="decrypt_gcm128">
<polygon fill="none" stroke="black" points="190.5,-190.5 190.5,-209.5 279.5,-209.5 279.5,-190.5 190.5,-190.5"/>
<text text-anchor="middle" x="235" y="-197.5" font-family="Helvetica,sans-Serif" font-size="10.00">decrypt_gcm128</text>
</a>
</g>
</g>
<!-- Node1&#45;&gt;Node2 -->
<g id="edge1" class="edge"><title>Node1&#45;&gt;Node2</title>
<path fill="none" stroke="midnightblue" d="M42.9984,-122.363C54.6449,-134.816 71.8268,-151.083 90,-161 121.375,-178.122 160.769,-188.117 190.419,-193.694"/>
<polygon fill="midnightblue" stroke="midnightblue" points="45.4933,-119.903 36.1895,-114.835 40.3019,-124.599 45.4933,-119.903"/>
</g>
<!-- Node5 -->
<g id="node5" class="node"><title>Node5</title>
<g id="a_node5"><a xlink:href="../../d1/df5/aesni__gcm_8c.html#ab26e6ea606656862762f4ec5fce6e729" target="_top" xlink:title="decrypt_gcm192">
<polygon fill="none" stroke="black" points="190.5,-152.5 190.5,-171.5 279.5,-171.5 279.5,-152.5 190.5,-152.5"/>
<text text-anchor="middle" x="235" y="-159.5" font-family="Helvetica,sans-Serif" font-size="10.00">decrypt_gcm192</text>
</a>
</g>
</g>
<!-- Node1&#45;&gt;Node5 -->
<g id="edge4" class="edge"><title>Node1&#45;&gt;Node5</title>
<path fill="none" stroke="midnightblue" d="M50.0507,-120.047C61.4968,-127.17 75.9883,-135.157 90,-140 122.627,-151.276 161.401,-156.782 190.49,-159.465"/>
<polygon fill="midnightblue" stroke="midnightblue" points="51.8934,-117.071 41.5914,-114.597 48.1022,-122.955 51.8934,-117.071"/>
</g>
<!-- Node6 -->
<g id="node6" class="node"><title>Node6</title>
<g id="a_node6"><a xlink:href="../../d1/df5/aesni__gcm_8c.html#a1572c6eee9bb6231701f0c8a33f28b53" target="_top" xlink:title="decrypt_gcm256">
<polygon fill="none" stroke="black" points="190.5,-114.5 190.5,-133.5 279.5,-133.5 279.5,-114.5 190.5,-114.5"/>
<text text-anchor="middle" x="235" y="-121.5" font-family="Helvetica,sans-Serif" font-size="10.00">decrypt_gcm256</text>
</a>
</g>
</g>
<!-- Node1&#45;&gt;Node6 -->
<g id="edge6" class="edge"><title>Node1&#45;&gt;Node6</title>
<path fill="none" stroke="midnightblue" d="M62.7786,-117.638C71.5458,-120.272 81.0208,-122.655 90,-124 123.378,-129 161.597,-128.726 190.27,-127.351"/>
<polygon fill="midnightblue" stroke="midnightblue" points="63.8357,-114.301 53.2451,-114.6 61.7102,-120.971 63.8357,-114.301"/>
</g>
<!-- Node7 -->
<g id="node7" class="node"><title>Node7</title>
<g id="a_node7"><a xlink:href="../../d1/df5/aesni__gcm_8c.html#a10b4817cc7063648248d8e25496c08d0" target="_top" xlink:title="encrypt_gcm128">
<polygon fill="none" stroke="black" points="190.5,-76.5 190.5,-95.5 279.5,-95.5 279.5,-76.5 190.5,-76.5"/>
<text text-anchor="middle" x="235" y="-83.5" font-family="Helvetica,sans-Serif" font-size="10.00">encrypt_gcm128</text>
</a>
</g>
</g>
<!-- Node1&#45;&gt;Node7 -->
<g id="edge8" class="edge"><title>Node1&#45;&gt;Node7</title>
<path fill="none" stroke="midnightblue" d="M62.7786,-92.362C71.5458,-89.7282 81.0208,-87.345 90,-86 123.378,-81.0004 161.597,-81.2738 190.27,-82.6492"/>
<polygon fill="midnightblue" stroke="midnightblue" points="61.7102,-89.029 53.2451,-95.4002 63.8357,-95.6985 61.7102,-89.029"/>
</g>
<!-- Node8 -->
<g id="node8" class="node"><title>Node8</title>
<g id="a_node8"><a xlink:href="../../d1/df5/aesni__gcm_8c.html#a816c4f6e48ebc4ef7640289b43d5eb81" target="_top" xlink:title="encrypt_gcm192">
<polygon fill="none" stroke="black" points="190.5,-38.5 190.5,-57.5 279.5,-57.5 279.5,-38.5 190.5,-38.5"/>
<text text-anchor="middle" x="235" y="-45.5" font-family="Helvetica,sans-Serif" font-size="10.00">encrypt_gcm192</text>
</a>
</g>
</g>
<!-- Node1&#45;&gt;Node8 -->
<g id="edge10" class="edge"><title>Node1&#45;&gt;Node8</title>
<path fill="none" stroke="midnightblue" d="M55.4475,-90.9973C66.0362,-86.0255 78.3799,-80.741 90,-77 122.893,-66.4105 161.308,-58.9065 190.184,-54.1884"/>
<polygon fill="midnightblue" stroke="midnightblue" points="53.7696,-87.9208 46.2876,-95.4221 56.8145,-94.2239 53.7696,-87.9208"/>
</g>
<!-- Node9 -->
<g id="node9" class="node"><title>Node9</title>
<g id="a_node9"><a xlink:href="../../d1/df5/aesni__gcm_8c.html#a69e73455df5681d4da7d698ed50a6d02" target="_top" xlink:title="encrypt_gcm256">
<polygon fill="none" stroke="black" points="190.5,-0.5 190.5,-19.5 279.5,-19.5 279.5,-0.5 190.5,-0.5"/>
<text text-anchor="middle" x="235" y="-7.5" font-family="Helvetica,sans-Serif" font-size="10.00">encrypt_gcm256</text>
</a>
</g>
</g>
<!-- Node1&#45;&gt;Node9 -->
<g id="edge12" class="edge"><title>Node1&#45;&gt;Node9</title>
<path fill="none" stroke="midnightblue" d="M45.9511,-88.4075C57.7515,-78.2096 73.9317,-65.5119 90,-57 122.65,-39.7041 162.836,-27.2362 192.452,-19.5065"/>
<polygon fill="midnightblue" stroke="midnightblue" points="43.3486,-86.0377 38.1968,-95.2957 47.9975,-91.2711 43.3486,-86.0377"/>
</g>
<!-- Node10 -->
<g id="node10" class="node"><title>Node10</title>
<g id="a_node10"><a xlink:href="../../d1/df5/aesni__gcm_8c.html#a5cb9487a1abf640d51a48da56f11d7c0" target="_top" xlink:title="icv_header">
<polygon fill="none" stroke="black" points="90,-95.5 90,-114.5 154,-114.5 154,-95.5 90,-95.5"/>
<text text-anchor="middle" x="122" y="-102.5" font-family="Helvetica,sans-Serif" font-size="10.00">icv_header</text>
</a>
</g>
</g>
<!-- Node1&#45;&gt;Node10 -->
<g id="edge14" class="edge"><title>Node1&#45;&gt;Node10</title>
<path fill="none" stroke="midnightblue" d="M64.6642,-105C73.0223,-105 81.8247,-105 89.9233,-105"/>
<polygon fill="midnightblue" stroke="midnightblue" points="64.4013,-101.5 54.4013,-105 64.4013,-108.5 64.4013,-101.5"/>
</g>
<!-- Node3 -->
<g id="node3" class="node"><title>Node3</title>
<g id="a_node3"><a xlink:href="../../d4/de6/group__aesni__gcm.html#ga235b68dffd7bb755375bc58697662e11" target="_top" xlink:title="aesni_gcm_create">
<polygon fill="none" stroke="black" points="316,-95.5 316,-114.5 412,-114.5 412,-95.5 316,-95.5"/>
<text text-anchor="middle" x="364" y="-102.5" font-family="Helvetica,sans-Serif" font-size="10.00">aesni_gcm_create</text>
</a>
</g>
</g>
<!-- Node2&#45;&gt;Node3 -->
<g id="edge2" class="edge"><title>Node2&#45;&gt;Node3</title>
<path fill="none" stroke="midnightblue" d="M271.376,-185.99C274.361,-184.431 277.276,-182.763 280,-181 310.506,-161.251 340.498,-130.08 354.619,-114.51"/>
<polygon fill="midnightblue" stroke="midnightblue" points="269.832,-182.848 262.333,-190.332 272.863,-189.158 269.832,-182.848"/>
</g>
<!-- Node4 -->
<g id="node4" class="node"><title>Node4</title>
<g id="a_node4"><a xlink:href="../../d5/d28/aesni__plugin_8c.html#aa9340245404bc5766575e18077c8fda2" target="_top" xlink:title="METHOD">
<polygon fill="none" stroke="black" points="448,-95.5 448,-114.5 508,-114.5 508,-95.5 448,-95.5"/>
<text text-anchor="middle" x="478" y="-102.5" font-family="Helvetica,sans-Serif" font-size="10.00">METHOD</text>
</a>
</g>
</g>
<!-- Node3&#45;&gt;Node4 -->
<g id="edge3" class="edge"><title>Node3&#45;&gt;Node4</title>
<path fill="none" stroke="midnightblue" d="M422.444,-105C431.219,-105 439.947,-105 447.764,-105"/>
<polygon fill="midnightblue" stroke="midnightblue" points="422.174,-101.5 412.173,-105 422.173,-108.5 422.174,-101.5"/>
</g>
<!-- Node5&#45;&gt;Node3 -->
<g id="edge5" class="edge"><title>Node5&#45;&gt;Node3</title>
<path fill="none" stroke="midnightblue" d="M267.819,-148.357C271.924,-146.569 276.066,-144.75 280,-143 301.286,-133.533 325.494,-122.408 342.249,-114.652"/>
<polygon fill="midnightblue" stroke="midnightblue" points="266.209,-145.24 258.425,-152.428 268.992,-151.663 266.209,-145.24"/>
</g>
<!-- Node6&#45;&gt;Node3 -->
<g id="edge7" class="edge"><title>Node6&#45;&gt;Node3</title>
<path fill="none" stroke="midnightblue" d="M289.707,-115.965C298.358,-114.671 307.257,-113.34 315.741,-112.07"/>
<polygon fill="midnightblue" stroke="midnightblue" points="289.078,-112.52 279.706,-117.461 290.114,-119.443 289.078,-112.52"/>
</g>
<!-- Node7&#45;&gt;Node3 -->
<g id="edge9" class="edge"><title>Node7&#45;&gt;Node3</title>
<path fill="none" stroke="midnightblue" d="M289.707,-94.0349C298.358,-95.3291 307.257,-96.6604 315.741,-97.9297"/>
<polygon fill="midnightblue" stroke="midnightblue" points="290.114,-90.5569 279.706,-92.5387 289.078,-97.4799 290.114,-90.5569"/>
</g>
<!-- Node8&#45;&gt;Node3 -->
<g id="edge11" class="edge"><title>Node8&#45;&gt;Node3</title>
<path fill="none" stroke="midnightblue" d="M267.819,-61.643C271.924,-63.4313 276.066,-65.2501 280,-67 301.286,-76.4674 325.494,-87.5917 342.249,-95.3484"/>
<polygon fill="midnightblue" stroke="midnightblue" points="268.992,-58.3367 258.425,-57.5721 266.209,-64.7596 268.992,-58.3367"/>
</g>
<!-- Node9&#45;&gt;Node3 -->
<g id="edge13" class="edge"><title>Node9&#45;&gt;Node3</title>
<path fill="none" stroke="midnightblue" d="M271.376,-24.0102C274.361,-25.5694 277.276,-27.2365 280,-29 310.506,-48.7486 340.498,-79.9199 354.619,-95.4901"/>
<polygon fill="midnightblue" stroke="midnightblue" points="272.863,-20.8417 262.333,-19.6679 269.832,-27.1519 272.863,-20.8417"/>
</g>
<!-- Node10&#45;&gt;Node2 -->
<g id="edge15" class="edge"><title>Node10&#45;&gt;Node2</title>
<path fill="none" stroke="midnightblue" d="M135.298,-123.048C147.532,-139.887 167.661,-164.783 190,-181 194.983,-184.617 200.761,-187.731 206.459,-190.33"/>
<polygon fill="midnightblue" stroke="midnightblue" points="137.979,-120.776 129.35,-114.628 132.261,-124.815 137.979,-120.776"/>
</g>
<!-- Node10&#45;&gt;Node5 -->
<g id="edge16" class="edge"><title>Node10&#45;&gt;Node5</title>
<path fill="none" stroke="midnightblue" d="M147.62,-119.811C160.136,-127.123 175.69,-135.878 190,-143 196.555,-146.262 203.803,-149.527 210.493,-152.407"/>
<polygon fill="midnightblue" stroke="midnightblue" points="149.103,-116.622 138.712,-114.553 145.544,-122.651 149.103,-116.622"/>
</g>
<!-- Node10&#45;&gt;Node6 -->
<g id="edge17" class="edge"><title>Node10&#45;&gt;Node6</title>
<path fill="none" stroke="midnightblue" d="M164.242,-112.059C172.702,-113.508 181.636,-115.037 190.183,-116.5"/>
<polygon fill="midnightblue" stroke="midnightblue" points="164.662,-108.581 154.215,-110.343 163.481,-115.48 164.662,-108.581"/>
</g>
<!-- Node10&#45;&gt;Node7 -->
<g id="edge18" class="edge"><title>Node10&#45;&gt;Node7</title>
<path fill="none" stroke="midnightblue" d="M164.242,-97.9406C172.702,-96.4925 181.636,-94.9632 190.183,-93.5001"/>
<polygon fill="midnightblue" stroke="midnightblue" points="163.481,-94.5198 154.215,-99.6569 164.662,-101.419 163.481,-94.5198"/>
</g>
<!-- Node10&#45;&gt;Node8 -->
<g id="edge19" class="edge"><title>Node10&#45;&gt;Node8</title>
<path fill="none" stroke="midnightblue" d="M147.62,-90.1886C160.136,-82.8774 175.69,-74.1217 190,-67 196.555,-63.7377 203.803,-60.4731 210.493,-57.5933"/>
<polygon fill="midnightblue" stroke="midnightblue" points="145.544,-87.3495 138.712,-95.4469 149.103,-93.3776 145.544,-87.3495"/>
</g>
<!-- Node10&#45;&gt;Node9 -->
<g id="edge20" class="edge"><title>Node10&#45;&gt;Node9</title>
<path fill="none" stroke="midnightblue" d="M135.298,-86.9518C147.532,-70.1128 167.661,-45.2172 190,-29 194.983,-25.3827 200.761,-22.2691 206.459,-19.6702"/>
<polygon fill="midnightblue" stroke="midnightblue" points="132.261,-85.1846 129.35,-95.3717 137.979,-89.2235 132.261,-85.1846"/>
</g>
</g>
</svg>
        <g id="navigator" transform="translate(0 0)" fill="#404254">
                <rect fill="#f2f5e9" fill-opacity="0.5" stroke="#606060" stroke-width=".5" x="0" y="0" width="60" height="60"/>
                <use id="zoomplus" xlink:href="#zoomPlus" x="17" y="9" onmousedown="handleZoom(evt,'in')"/>
                <use id="zoomminus" xlink:href="#zoomMin" x="42" y="9" onmousedown="handleZoom(evt,'out')"/>
                <use id="reset" xlink:href="#resetDef" x="30" y="36" onmousedown="handleReset()"/>
                <g id="arrowUp" xlink:href="#dirArrow" transform="translate(30 24)" onmousedown="handlePan(0,-1)">
                  <use xlink:href="#rim" fill="#404040">
                        <set attributeName="fill" to="#808080" begin="arrowUp.mouseover" end="arrowUp.mouseout"/>
                  </use>
                  <path fill="none" stroke="white" stroke-width="1.5" d="M0,-3.0v7 M-2.5,-0.5L0,-3.0L2.5,-0.5"/>
                </g>
                <g id="arrowRight" xlink:href="#dirArrow" transform="rotate(90) translate(36 -43)" onmousedown="handlePan(1,0)">
                  <use xlink:href="#rim" fill="#404040">
                        <set attributeName="fill" to="#808080" begin="arrowRight.mouseover" end="arrowRight.mouseout"/>
                  </use>
                  <path fill="none" stroke="white" stroke-width="1.5" d="M0,-3.0v7 M-2.5,-0.5L0,-3.0L2.5,-0.5"/>
                </g>
                <g id="arrowDown" xlink:href="#dirArrow" transform="rotate(180) translate(-30 -48)" onmousedown="handlePan(0,1)">
                  <use xlink:href="#rim" fill="#404040">
                        <set attributeName="fill" to="#808080" begin="arrowDown.mouseover" end="arrowDown.mouseout"/>
                  </use>
                  <path fill="none" stroke="white" stroke-width="1.5" d="M0,-3.0v7 M-2.5,-0.5L0,-3.0L2.5,-0.5"/>
                </g>
                <g id="arrowLeft" xlink:href="#dirArrow" transform="rotate(270) translate(-36 17)" onmousedown="handlePan(-1,0)">
                  <use xlink:href="#rim" fill="#404040">
                        <set attributeName="fill" to="#808080" begin="arrowLeft.mouseover" end="arrowLeft.mouseout"/>
                  </use>
                  <path fill="none" stroke="white" stroke-width="1.5" d="M0,-3.0v7 M-2.5,-0.5L0,-3.0L2.5,-0.5"/>
                </g>
        </g>
        <svg viewBox="0 0 15 15" width="100%" height="30px" preserveAspectRatio="xMaxYMin meet">
         <g id="arrow_out" transform="scale(0.3 0.3)">
          <a xlink:href="aesni__gcm_8c_aa66d75612fe06a7f8f0530cadd434f41_icgraph_org.svg" target="_base">
           <rect id="button" ry="5" rx="5" y="6" x="6" height="38" width="38"
                fill="#f2f5e9" fill-opacity="0.5" stroke="#606060" stroke-width="1.0"/>
           <path id="arrow"
             d="M 11.500037,31.436501 C 11.940474,20.09759 22.043105,11.32322 32.158766,21.979434 L 37.068811,17.246167 C 37.068811,17.246167 37.088388,32 37.088388,32 L 22.160133,31.978069 C 22.160133,31.978069 26.997745,27.140456 26.997745,27.140456 C 18.528582,18.264221 13.291696,25.230495 11.500037,31.436501 z"
             style="fill:#404040;"/>
          </a>
         </g>
        </svg>
</svg>
