<?xml version="1.0" encoding="UTF-8" standalone="no"?>
<!DOCTYPE svg PUBLIC "-//W3C//DTD SVG 1.1//EN"
 "http://www.w3.org/Graphics/SVG/1.1/DTD/svg11.dtd">
<!-- Generated by graphviz version 2.36.0 (20140111.2315)
 -->
<!-- Title: METHOD Pages: 1 -->
<svg width="494pt" height="85pt"
 viewBox="0.00 0.00 494.00 85.00" xmlns="http://www.w3.org/2000/svg" xmlns:xlink="http://www.w3.org/1999/xlink">
<g id="graph0" class="graph" transform="scale(1 1) rotate(0) translate(4 81)">
<title>METHOD</title>
<!-- Node1 -->
<g id="node1" class="node"><title>Node1</title>
<polygon fill="#bfbfbf" stroke="black" points="0,-38.5 0,-57.5 60,-57.5 60,-38.5 0,-38.5"/>
<text text-anchor="middle" x="30" y="-45.5" font-family="Helvetica,sans-Serif" font-size="10.00">METHOD</text>
</g>
<!-- Node2 -->
<g id="node2" class="node"><title>Node2</title>
<g id="a_node2"><a xlink:href="../../d4/d87/group__chunk.html#gad94ca029616a107e89eaa618408fd7b6" target="_top" xlink:title="chunk_create">
<polygon fill="none" stroke="black" points="122.5,-57.5 122.5,-76.5 197.5,-76.5 197.5,-57.5 122.5,-57.5"/>
<text text-anchor="middle" x="160" y="-64.5" font-family="Helvetica,sans-Serif" font-size="10.00">chunk_create</text>
</a>
</g>
</g>
<!-- Node1&#45;&gt;Node2 -->
<g id="edge1" class="edge"><title>Node1&#45;&gt;Node2</title>
<path fill="none" stroke="midnightblue" d="M60.0452,-52.3114C75.46,-54.5995 94.7773,-57.4669 112.243,-60.0595"/>
<polygon fill="midnightblue" stroke="midnightblue" points="111.864,-63.5415 122.269,-61.5478 112.892,-56.6174 111.864,-63.5415"/>
</g>
<!-- Node3 -->
<g id="node3" class="node"><title>Node3</title>
<g id="a_node3"><a xlink:href="../../d6/d02/group__eap__payload.html#gadb59cfd9e9751e29273126d1115df5ea" target="_top" xlink:title="eap_payload_create_data">
<polygon fill="none" stroke="black" points="96,-19.5 96,-38.5 224,-38.5 224,-19.5 96,-19.5"/>
<text text-anchor="middle" x="160" y="-26.5" font-family="Helvetica,sans-Serif" font-size="10.00">eap_payload_create_data</text>
</a>
</g>
</g>
<!-- Node1&#45;&gt;Node3 -->
<g id="edge2" class="edge"><title>Node1&#45;&gt;Node3</title>
<path fill="none" stroke="midnightblue" d="M60.0452,-43.6886C67.8995,-42.5227 76.7671,-41.2065 85.8866,-39.8528"/>
<polygon fill="midnightblue" stroke="midnightblue" points="86.4675,-43.305 95.8452,-38.3745 85.4396,-36.3808 86.4675,-43.305"/>
</g>
<!-- Node4 -->
<g id="node4" class="node"><title>Node4</title>
<g id="a_node4"><a xlink:href="../../d6/d02/group__eap__payload.html#ga5220ee974b4236a55b1b0bd0a7e1007b" target="_top" xlink:title="eap_payload_create">
<polygon fill="none" stroke="black" points="260,-38.5 260,-57.5 364,-57.5 364,-38.5 260,-38.5"/>
<text text-anchor="middle" x="312" y="-45.5" font-family="Helvetica,sans-Serif" font-size="10.00">eap_payload_create</text>
</a>
</g>
</g>
<!-- Node3&#45;&gt;Node4 -->
<g id="edge3" class="edge"><title>Node3&#45;&gt;Node4</title>
<path fill="none" stroke="midnightblue" d="M224.179,-37.0026C232.603,-38.0697 241.232,-39.1627 249.625,-40.2258"/>
<polygon fill="midnightblue" stroke="midnightblue" points="249.356,-43.7196 259.716,-41.504 250.235,-36.7751 249.356,-43.7196"/>
</g>
<!-- Node5 -->
<g id="node5" class="node"><title>Node5</title>
<g id="a_node5"><a xlink:href="../../d6/dba/proposal__substructure_8c.html#aee46d8bf7ed69187788995076df80c18" target="_top" xlink:title="set_data">
<polygon fill="none" stroke="black" points="285,-0.5 285,-19.5 339,-19.5 339,-0.5 285,-0.5"/>
<text text-anchor="middle" x="312" y="-7.5" font-family="Helvetica,sans-Serif" font-size="10.00">set_data</text>
</a>
</g>
</g>
<!-- Node3&#45;&gt;Node5 -->
<g id="edge4" class="edge"><title>Node3&#45;&gt;Node5</title>
<path fill="none" stroke="midnightblue" d="M224.179,-20.9974C241.483,-18.8055 259.649,-16.5045 274.865,-14.5771"/>
<polygon fill="midnightblue" stroke="midnightblue" points="275.4,-18.0373 284.881,-13.3084 274.521,-11.0928 275.4,-18.0373"/>
</g>
<!-- Node6 -->
<g id="node6" class="node"><title>Node6</title>
<g id="a_node6"><a xlink:href="../../d6/dba/proposal__substructure_8c.html#ae41211f5db0d00daffe91d0391f86909" target="_top" xlink:title="compute_length">
<polygon fill="none" stroke="black" points="400,-0.5 400,-19.5 486,-19.5 486,-0.5 400,-0.5"/>
<text text-anchor="middle" x="443" y="-7.5" font-family="Helvetica,sans-Serif" font-size="10.00">compute_length</text>
</a>
</g>
</g>
<!-- Node5&#45;&gt;Node6 -->
<g id="edge5" class="edge"><title>Node5&#45;&gt;Node6</title>
<path fill="none" stroke="midnightblue" d="M339.105,-10C353.691,-10 372.395,-10 389.846,-10"/>
<polygon fill="midnightblue" stroke="midnightblue" points="389.936,-13.5001 399.936,-10 389.936,-6.5001 389.936,-13.5001"/>
</g>
</g>
</svg>
