<?xml version="1.0" encoding="UTF-8" standalone="no"?>
<!DOCTYPE svg PUBLIC "-//W3C//DTD SVG 1.1//EN"
 "http://www.w3.org/Graphics/SVG/1.1/DTD/svg11.dtd">
<!-- Generated by graphviz version 2.36.0 (20140111.2315)
 -->
<!-- Title: systime_fix_validator_create Pages: 1 -->
<svg width="422pt" height="38pt"
 viewBox="0.00 0.00 422.00 38.00" xmlns="http://www.w3.org/2000/svg" xmlns:xlink="http://www.w3.org/1999/xlink">
<g id="graph0" class="graph" transform="scale(1 1) rotate(0) translate(4 34)">
<title>systime_fix_validator_create</title>
<!-- Node1 -->
<g id="node1" class="node"><title>Node1</title>
<polygon fill="#bfbfbf" stroke="black" points="0.5,-0 0.5,-30 109.5,-30 109.5,-0 0.5,-0"/>
<text text-anchor="start" x="8.5" y="-18" font-family="Helvetica,sans-Serif" font-size="10.00">systime_fix_validator</text>
<text text-anchor="middle" x="55" y="-7" font-family="Helvetica,sans-Serif" font-size="10.00">_create</text>
</g>
<!-- Node2 -->
<g id="node2" class="node"><title>Node2</title>
<g id="a_node2"><a xlink:href="../../d0/d9f/systime__fix__plugin_8c.html#a2d792719caf749ba528a4cda42f9bf8d" target="_top" xlink:title="load_validator">
<polygon fill="none" stroke="black" points="146.5,-5.5 146.5,-24.5 223.5,-24.5 223.5,-5.5 146.5,-5.5"/>
<text text-anchor="middle" x="185" y="-12.5" font-family="Helvetica,sans-Serif" font-size="10.00">load_validator</text>
</a>
</g>
</g>
<!-- Node1&#45;&gt;Node2 -->
<g id="edge1" class="edge"><title>Node1&#45;&gt;Node2</title>
<path fill="none" stroke="midnightblue" d="M119.738,-15C128.806,-15 137.88,-15 146.234,-15"/>
<polygon fill="midnightblue" stroke="midnightblue" points="119.542,-11.5001 109.542,-15 119.542,-18.5001 119.542,-11.5001"/>
</g>
<!-- Node3 -->
<g id="node3" class="node"><title>Node3</title>
<g id="a_node3"><a xlink:href="../../d0/d9f/systime__fix__plugin_8c.html#aac67b06b31ad3e878e026476fe63c61d" target="_top" xlink:title="plugin_cb">
<polygon fill="none" stroke="black" points="260,-5.5 260,-24.5 318,-24.5 318,-5.5 260,-5.5"/>
<text text-anchor="middle" x="289" y="-12.5" font-family="Helvetica,sans-Serif" font-size="10.00">plugin_cb</text>
</a>
</g>
</g>
<!-- Node2&#45;&gt;Node3 -->
<g id="edge2" class="edge"><title>Node2&#45;&gt;Node3</title>
<path fill="none" stroke="midnightblue" d="M233.93,-15C242.755,-15 251.703,-15 259.711,-15"/>
<polygon fill="midnightblue" stroke="midnightblue" points="233.691,-11.5001 223.691,-15 233.691,-18.5001 233.691,-11.5001"/>
</g>
<!-- Node4 -->
<g id="node4" class="node"><title>Node4</title>
<g id="a_node4"><a xlink:href="../../d0/d9f/systime__fix__plugin_8c.html#a847b43ec673b4f186a49ce81af4370c9" target="_top" xlink:title="METHOD">
<polygon fill="none" stroke="black" points="354,-5.5 354,-24.5 414,-24.5 414,-5.5 354,-5.5"/>
<text text-anchor="middle" x="384" y="-12.5" font-family="Helvetica,sans-Serif" font-size="10.00">METHOD</text>
</a>
</g>
</g>
<!-- Node3&#45;&gt;Node4 -->
<g id="edge3" class="edge"><title>Node3&#45;&gt;Node4</title>
<path fill="none" stroke="midnightblue" d="M328.337,-15C336.905,-15 345.856,-15 353.975,-15"/>
<polygon fill="midnightblue" stroke="midnightblue" points="328.155,-11.5001 318.155,-15 328.155,-18.5001 328.155,-11.5001"/>
</g>
</g>
</svg>
