<?xml version="1.0" encoding="UTF-8" standalone="no"?>
<!DOCTYPE svg PUBLIC "-//W3C//DTD SVG 1.1//EN"
 "http://www.w3.org/Graphics/SVG/1.1/DTD/svg11.dtd">
<!-- Generated by graphviz version 2.36.0 (20140111.2315)
 -->
<!-- Title: imv_attestation_state_t Pages: 1 -->
<svg width="844pt" height="342pt"
 viewBox="0.00 0.00 844.00 342.00" xmlns="http://www.w3.org/2000/svg" xmlns:xlink="http://www.w3.org/1999/xlink">
<g id="graph0" class="graph" transform="scale(1 1) rotate(0) translate(4 338)">
<title>imv_attestation_state_t</title>
<!-- Node1 -->
<g id="node1" class="node"><title>Node1</title>
<polygon fill="#bfbfbf" stroke="black" points="416.5,-0.5 416.5,-19.5 535.5,-19.5 535.5,-0.5 416.5,-0.5"/>
<text text-anchor="middle" x="476" y="-7.5" font-family="Helvetica,sans-Serif" font-size="10.00">imv_attestation_state_t</text>
</g>
<!-- Node2 -->
<g id="node2" class="node"><title>Node2</title>
<polygon fill="none" stroke="#bfbfbf" points="334.5,-78.5 334.5,-97.5 375.5,-97.5 375.5,-78.5 334.5,-78.5"/>
<text text-anchor="middle" x="355" y="-85.5" font-family="Helvetica,sans-Serif" font-size="10.00">struct</text>
</g>
<!-- Node2&#45;&gt;Node1 -->
<g id="edge1" class="edge"><title>Node2&#45;&gt;Node1</title>
<path fill="none" stroke="#9a32cd" stroke-dasharray="5,2" d="M364.743,-69.6901C371.456,-59.182 381.268,-46.249 393,-38 405.024,-29.5456 419.852,-23.6217 433.633,-19.5244"/>
<polygon fill="#9a32cd" stroke="#9a32cd" points="361.628,-68.0794 359.482,-78.4548 367.63,-71.6817 361.628,-68.0794"/>
<text text-anchor="middle" x="413.5" y="-46.5" font-family="Helvetica,sans-Serif" font-size="10.00"> interface</text>
</g>
<!-- Node3 -->
<g id="node3" class="node"><title>Node3</title>
<g id="a_node3"><a xlink:href="../../de/d88/structpts__t.html" target="_top" xlink:title="pts_t">
<polygon fill="none" stroke="black" points="394,-78.5 394,-97.5 432,-97.5 432,-78.5 394,-78.5"/>
<text text-anchor="middle" x="413" y="-85.5" font-family="Helvetica,sans-Serif" font-size="10.00">pts_t</text>
</a>
</g>
</g>
<!-- Node3&#45;&gt;Node1 -->
<g id="edge2" class="edge"><title>Node3&#45;&gt;Node1</title>
<path fill="none" stroke="#9a32cd" stroke-dasharray="5,2" d="M426.726,-70.4421C439.699,-54.7918 458.652,-31.9282 468.857,-19.6165"/>
<polygon fill="#9a32cd" stroke="#9a32cd" points="423.914,-68.3493 420.227,-78.2818 429.303,-72.8167 423.914,-68.3493"/>
<text text-anchor="middle" x="470" y="-46.5" font-family="Helvetica,sans-Serif" font-size="10.00"> get_pts</text>
</g>
<!-- Node4 -->
<g id="node4" class="node"><title>Node4</title>
<g id="a_node4"><a xlink:href="../../d6/d41/structcertificate__t.html" target="_top" xlink:title="certificate_t">
<polygon fill="none" stroke="black" points="145,-146.5 145,-165.5 213,-165.5 213,-146.5 145,-146.5"/>
<text text-anchor="middle" x="179" y="-153.5" font-family="Helvetica,sans-Serif" font-size="10.00">certificate_t</text>
</a>
</g>
</g>
<!-- Node4&#45;&gt;Node3 -->
<g id="edge3" class="edge"><title>Node4&#45;&gt;Node3</title>
<path fill="none" stroke="#9a32cd" stroke-dasharray="5,2" d="M207.108,-142.273C226.868,-133.767 254.116,-122.909 279,-116 324.622,-103.334 337.958,-109.041 384,-98 387.178,-97.2379 390.518,-96.317 393.755,-95.359"/>
<polygon fill="#9a32cd" stroke="#9a32cd" points="205.54,-139.139 197.781,-146.353 208.346,-145.552 205.54,-139.139"/>
<text text-anchor="middle" x="296.5" y="-119.5" font-family="Helvetica,sans-Serif" font-size="10.00"> get_aik</text>
</g>
<!-- Node4&#45;&gt;Node4 -->
<g id="edge4" class="edge"><title>Node4&#45;&gt;Node4</title>
<path fill="none" stroke="#9a32cd" stroke-dasharray="5,2" d="M223.148,-161.333C227.925,-160.309 231,-158.532 231,-156 231,-151.949 223.127,-149.829 213.008,-149.639"/>
<polygon fill="#9a32cd" stroke="#9a32cd" points="222.604,-157.87 213.008,-162.361 223.311,-164.834 222.604,-157.87"/>
<text text-anchor="middle" x="248" y="-153.5" font-family="Helvetica,sans-Serif" font-size="10.00"> get_ref</text>
</g>
<!-- Node5 -->
<g id="node5" class="node"><title>Node5</title>
<g id="a_node5"><a xlink:href="../../d6/d02/structidentification__t.html" target="_top" xlink:title="identification_t">
<polygon fill="none" stroke="black" points="0,-224.5 0,-243.5 80,-243.5 80,-224.5 0,-224.5"/>
<text text-anchor="middle" x="40" y="-231.5" font-family="Helvetica,sans-Serif" font-size="10.00">identification_t</text>
</a>
</g>
</g>
<!-- Node5&#45;&gt;Node4 -->
<g id="edge5" class="edge"><title>Node5&#45;&gt;Node4</title>
<path fill="none" stroke="#9a32cd" stroke-dasharray="5,2" d="M61.8784,-218.88C77.9688,-208.714 100.512,-194.925 121,-184 133.447,-177.363 147.819,-170.666 159.142,-165.602"/>
<polygon fill="#9a32cd" stroke="#9a32cd" points="59.7693,-216.073 53.2145,-224.397 63.5294,-221.978 59.7693,-216.073"/>
<text text-anchor="middle" x="148" y="-198" font-family="Helvetica,sans-Serif" font-size="10.00"> get_subject</text>
<text text-anchor="middle" x="148" y="-187" font-family="Helvetica,sans-Serif" font-size="10.00">get_issuer</text>
</g>
<!-- Node5&#45;&gt;Node5 -->
<g id="edge6" class="edge"><title>Node5&#45;&gt;Node5</title>
<path fill="none" stroke="#9a32cd" stroke-dasharray="5,2" d="M90.2648,-239.724C95.0048,-238.552 98,-236.644 98,-234 98,-229.77 90.3323,-227.423 80.1186,-226.96"/>
<polygon fill="#9a32cd" stroke="#9a32cd" points="89.5857,-236.283 80.1186,-241.04 90.4856,-243.225 89.5857,-236.283"/>
<text text-anchor="middle" x="111.5" y="-231.5" font-family="Helvetica,sans-Serif" font-size="10.00"> clone</text>
</g>
<!-- Node6 -->
<g id="node6" class="node"><title>Node6</title>
<g id="a_node6"><a xlink:href="../../d0/d14/structchunk__t.html" target="_top" xlink:title="chunk_t">
<polygon fill="none" stroke="black" points="21.5,-314.5 21.5,-333.5 72.5,-333.5 72.5,-314.5 21.5,-314.5"/>
<text text-anchor="middle" x="47" y="-321.5" font-family="Helvetica,sans-Serif" font-size="10.00">chunk_t</text>
</a>
</g>
</g>
<!-- Node6&#45;&gt;Node5 -->
<g id="edge7" class="edge"><title>Node6&#45;&gt;Node5</title>
<path fill="none" stroke="#9a32cd" stroke-dasharray="5,2" d="M17.4868,-308.879C12.8692,-305.335 8.72889,-301.065 6,-296 -1.1679,-282.697 -0.570448,-275.608 6,-262 9.73626,-254.262 16.8872,-248.061 23.6708,-243.564"/>
<polygon fill="#9a32cd" stroke="#9a32cd" points="15.8206,-311.971 26.1124,-314.487 19.636,-306.102 15.8206,-311.971"/>
<text text-anchor="middle" x="36.5" y="-276.5" font-family="Helvetica,sans-Serif" font-size="10.00"> get_encoding</text>
</g>
<!-- Node9 -->
<g id="node9" class="node"><title>Node9</title>
<g id="a_node9"><a xlink:href="../../d0/d39/structpts__pcr__t.html" target="_top" xlink:title="pts_pcr_t">
<polygon fill="none" stroke="black" points="284.5,-224.5 284.5,-243.5 341.5,-243.5 341.5,-224.5 284.5,-224.5"/>
<text text-anchor="middle" x="313" y="-231.5" font-family="Helvetica,sans-Serif" font-size="10.00">pts_pcr_t</text>
</a>
</g>
</g>
<!-- Node6&#45;&gt;Node9 -->
<g id="edge12" class="edge"><title>Node6&#45;&gt;Node9</title>
<path fill="none" stroke="#9a32cd" stroke-dasharray="5,2" d="M59.8074,-305.941C62.2219,-302.66 64.7076,-299.237 67,-296 77.5432,-281.111 74.3195,-271.325 90,-262 125.502,-240.887 234.254,-250.775 275,-244 278.076,-243.488 281.274,-242.87 284.45,-242.2"/>
<polygon fill="#9a32cd" stroke="#9a32cd" points="56.921,-303.957 53.7637,-314.07 62.5387,-308.133 56.921,-303.957"/>
<text text-anchor="middle" x="122" y="-287.5" font-family="Helvetica,sans-Serif" font-size="10.00"> extend</text>
<text text-anchor="middle" x="122" y="-276.5" font-family="Helvetica,sans-Serif" font-size="10.00">get_composite</text>
<text text-anchor="middle" x="122" y="-265.5" font-family="Helvetica,sans-Serif" font-size="10.00">get</text>
</g>
<!-- Node7 -->
<g id="node7" class="node"><title>Node7</title>
<g id="a_node7"><a xlink:href="../../db/dd3/structenumerator__t.html" target="_top" xlink:title="enumerator_t">
<polygon fill="none" stroke="black" points="322,-314.5 322,-333.5 396,-333.5 396,-314.5 322,-314.5"/>
<text text-anchor="middle" x="359" y="-321.5" font-family="Helvetica,sans-Serif" font-size="10.00">enumerator_t</text>
</a>
</g>
</g>
<!-- Node7&#45;&gt;Node1 -->
<g id="edge16" class="edge"><title>Node7&#45;&gt;Node1</title>
<path fill="none" stroke="#9a32cd" stroke-dasharray="5,2" d="M406.185,-318.676C439.783,-314.674 481.163,-307.56 494,-296 515.101,-276.998 513,-263.396 513,-235 513,-235 513,-235 513,-87 513,-60.2915 494.299,-33.1463 483.488,-19.6847"/>
<polygon fill="#9a32cd" stroke="#9a32cd" points="405.592,-315.221 396.048,-319.82 406.377,-322.177 405.592,-315.221"/>
<text text-anchor="middle" x="582" y="-153.5" font-family="Helvetica,sans-Serif" font-size="10.00"> create_component_enumerator</text>
</g>
<!-- Node7&#45;&gt;Node5 -->
<g id="edge8" class="edge"><title>Node7&#45;&gt;Node5</title>
<path fill="none" stroke="#9a32cd" stroke-dasharray="5,2" d="M311.412,-322.38C276.792,-320.284 229.596,-313.934 192,-296 171.546,-286.243 174.088,-272.49 154,-262 131.103,-250.044 102.868,-243.305 80.2258,-239.55"/>
<polygon fill="#9a32cd" stroke="#9a32cd" points="311.564,-325.892 321.728,-322.903 311.918,-318.901 311.564,-325.892"/>
<text text-anchor="middle" x="245" y="-276.5" font-family="Helvetica,sans-Serif" font-size="10.00"> create_part_enumerator</text>
</g>
<!-- Node7&#45;&gt;Node9 -->
<g id="edge13" class="edge"><title>Node7&#45;&gt;Node9</title>
<path fill="none" stroke="#9a32cd" stroke-dasharray="5,2" d="M319.846,-309.559C314.336,-305.999 309.399,-301.547 306,-296 295.974,-279.64 303.508,-256.129 308.865,-243.611"/>
<polygon fill="#9a32cd" stroke="#9a32cd" points="318.383,-312.747 328.84,-314.448 321.726,-306.597 318.383,-312.747"/>
<text text-anchor="middle" x="348.5" y="-276.5" font-family="Helvetica,sans-Serif" font-size="10.00"> create_enumerator</text>
</g>
<!-- Node10 -->
<g id="node10" class="node"><title>Node10</title>
<g id="a_node10"><a xlink:href="../../dd/d5a/structpts__file__meta__t.html" target="_top" xlink:title="pts_file_meta_t">
<polygon fill="none" stroke="black" points="371.5,-185.5 371.5,-204.5 454.5,-204.5 454.5,-185.5 371.5,-185.5"/>
<text text-anchor="middle" x="413" y="-192.5" font-family="Helvetica,sans-Serif" font-size="10.00">pts_file_meta_t</text>
</a>
</g>
</g>
<!-- Node7&#45;&gt;Node10 -->
<g id="edge15" class="edge"><title>Node7&#45;&gt;Node10</title>
<path fill="none" stroke="#9a32cd" stroke-dasharray="5,2" d="M380.955,-307.86C384.779,-304.355 388.367,-300.36 391,-296 409.102,-266.022 412.372,-222.964 412.918,-204.71"/>
<polygon fill="#9a32cd" stroke="#9a32cd" points="378.557,-305.298 373.006,-314.322 382.973,-310.73 378.557,-305.298"/>
<text text-anchor="middle" x="447.5" y="-276.5" font-family="Helvetica,sans-Serif" font-size="10.00"> create_enumerator</text>
</g>
<!-- Node8 -->
<g id="node8" class="node"><title>Node8</title>
<g id="a_node8"><a xlink:href="../../d0/d6f/structpublic__key__t.html" target="_top" xlink:title="public_key_t">
<polygon fill="none" stroke="black" points="143.5,-224.5 143.5,-243.5 214.5,-243.5 214.5,-224.5 143.5,-224.5"/>
<text text-anchor="middle" x="179" y="-231.5" font-family="Helvetica,sans-Serif" font-size="10.00">public_key_t</text>
</a>
</g>
</g>
<!-- Node8&#45;&gt;Node4 -->
<g id="edge9" class="edge"><title>Node8&#45;&gt;Node4</title>
<path fill="none" stroke="#9a32cd" stroke-dasharray="5,2" d="M179,-214.224C179,-198.697 179,-177.358 179,-165.616"/>
<polygon fill="#9a32cd" stroke="#9a32cd" points="175.5,-214.282 179,-224.282 182.5,-214.282 175.5,-214.282"/>
<text text-anchor="middle" x="213.5" y="-192.5" font-family="Helvetica,sans-Serif" font-size="10.00"> get_public_key</text>
</g>
<!-- Node8&#45;&gt;Node8 -->
<g id="edge10" class="edge"><title>Node8&#45;&gt;Node8</title>
<path fill="none" stroke="#9a32cd" stroke-dasharray="5,2" d="M224.812,-239.757C229.212,-238.587 232,-236.668 232,-234 232,-229.621 224.493,-227.261 214.669,-226.918"/>
<polygon fill="#9a32cd" stroke="#9a32cd" points="224.132,-236.316 214.669,-241.082 225.038,-243.257 224.132,-236.316"/>
<text text-anchor="middle" x="249" y="-231.5" font-family="Helvetica,sans-Serif" font-size="10.00"> get_ref</text>
</g>
<!-- Node9&#45;&gt;Node3 -->
<g id="edge11" class="edge"><title>Node9&#45;&gt;Node3</title>
<path fill="none" stroke="#9a32cd" stroke-dasharray="5,2" d="M323.202,-215.702C333.875,-197.893 351.361,-169.504 368,-146 380.53,-128.3 396.536,-108.654 405.692,-97.6666"/>
<polygon fill="#9a32cd" stroke="#9a32cd" points="320.127,-214.026 318.023,-224.41 326.143,-217.605 320.127,-214.026"/>
<text text-anchor="middle" x="388.5" y="-153.5" font-family="Helvetica,sans-Serif" font-size="10.00"> get_pcrs</text>
</g>
<!-- Node10&#45;&gt;Node3 -->
<g id="edge14" class="edge"><title>Node10&#45;&gt;Node3</title>
<path fill="none" stroke="#9a32cd" stroke-dasharray="5,2" d="M413,-175.255C413,-152.378 413,-114.653 413,-97.7113"/>
<polygon fill="#9a32cd" stroke="#9a32cd" points="409.5,-175.407 413,-185.407 416.5,-175.407 409.5,-175.407"/>
<text text-anchor="middle" x="444.5" y="-153.5" font-family="Helvetica,sans-Serif" font-size="10.00"> get_metadata</text>
</g>
<!-- Node11 -->
<g id="node11" class="node"><title>Node11</title>
<g id="a_node11"><a xlink:href="../../db/d27/structpts__component__t.html" target="_top" xlink:title="pts_component_t">
<polygon fill="none" stroke="black" points="577,-78.5 577,-97.5 669,-97.5 669,-78.5 577,-78.5"/>
<text text-anchor="middle" x="623" y="-85.5" font-family="Helvetica,sans-Serif" font-size="10.00">pts_component_t</text>
</a>
</g>
</g>
<!-- Node11&#45;&gt;Node1 -->
<g id="edge17" class="edge"><title>Node11&#45;&gt;Node1</title>
<path fill="none" stroke="#9a32cd" stroke-dasharray="5,2" d="M597.379,-73.754C567.312,-58.2087 518.318,-32.8789 492.742,-19.6557"/>
<polygon fill="#9a32cd" stroke="#9a32cd" points="595.933,-76.946 606.423,-78.4296 599.147,-70.7279 595.933,-76.946"/>
<text text-anchor="middle" x="607.5" y="-52" font-family="Helvetica,sans-Serif" font-size="10.00"> get_component</text>
<text text-anchor="middle" x="607.5" y="-41" font-family="Helvetica,sans-Serif" font-size="10.00">create_component</text>
</g>
<!-- Node11&#45;&gt;Node11 -->
<g id="edge20" class="edge"><title>Node11&#45;&gt;Node11</title>
<path fill="none" stroke="#9a32cd" stroke-dasharray="5,2" d="M679.274,-92.9508C684.034,-91.8915 687,-90.2412 687,-88 687,-84.4141 679.406,-82.3409 669.024,-81.7806"/>
<polygon fill="#9a32cd" stroke="#9a32cd" points="678.519,-89.5175 669.024,-94.2194 679.378,-96.4645 678.519,-89.5175"/>
<text text-anchor="middle" x="704" y="-85.5" font-family="Helvetica,sans-Serif" font-size="10.00"> get_ref</text>
</g>
<!-- Node12 -->
<g id="node12" class="node"><title>Node12</title>
<g id="a_node12"><a xlink:href="../../de/d8f/structpts__comp__func__name__t.html" target="_top" xlink:title="pts_comp_func_name_t">
<polygon fill="none" stroke="black" points="669.5,-146.5 669.5,-165.5 790.5,-165.5 790.5,-146.5 669.5,-146.5"/>
<text text-anchor="middle" x="730" y="-153.5" font-family="Helvetica,sans-Serif" font-size="10.00">pts_comp_func_name_t</text>
</a>
</g>
</g>
<!-- Node12&#45;&gt;Node11 -->
<g id="edge18" class="edge"><title>Node12&#45;&gt;Node11</title>
<path fill="none" stroke="#9a32cd" stroke-dasharray="5,2" d="M707.284,-140.988C685.998,-127.858 654.857,-108.65 636.992,-97.6305"/>
<polygon fill="#9a32cd" stroke="#9a32cd" points="705.663,-144.101 716.012,-146.372 709.338,-138.143 705.663,-144.101"/>
<text text-anchor="middle" x="737" y="-119.5" font-family="Helvetica,sans-Serif" font-size="10.00"> get_comp_func_name</text>
</g>
<!-- Node12&#45;&gt;Node12 -->
<g id="edge19" class="edge"><title>Node12&#45;&gt;Node12</title>
<path fill="none" stroke="#9a32cd" stroke-dasharray="5,2" d="M800.581,-160.543C805.203,-159.486 808,-157.971 808,-156 808,-152.846 800.839,-150.862 790.503,-150.049"/>
<polygon fill="#9a32cd" stroke="#9a32cd" points="799.922,-157.101 790.503,-161.951 800.891,-164.033 799.922,-157.101"/>
<text text-anchor="middle" x="821.5" y="-153.5" font-family="Helvetica,sans-Serif" font-size="10.00"> clone</text>
</g>
</g>
</svg>
