<?xml version="1.0" encoding="UTF-8" standalone="no"?>
<!DOCTYPE svg PUBLIC "-//W3C//DTD SVG 1.1//EN"
 "http://www.w3.org/Graphics/SVG/1.1/DTD/svg11.dtd">
<!-- Generated by graphviz version 2.36.0 (20140111.2315)
 -->
<!-- Title: dumm.h Pages: 1 -->
<svg width="262pt" height="84pt"
 viewBox="0.00 0.00 262.00 84.00" xmlns="http://www.w3.org/2000/svg" xmlns:xlink="http://www.w3.org/1999/xlink">
<g id="graph0" class="graph" transform="scale(1 1) rotate(0) translate(4 80)">
<title>dumm.h</title>
<!-- Node1 -->
<g id="node1" class="node"><title>Node1</title>
<polygon fill="#bfbfbf" stroke="black" points="104,-56.5 104,-75.5 156,-75.5 156,-56.5 104,-56.5"/>
<text text-anchor="middle" x="130" y="-63.5" font-family="Helvetica,sans-Serif" font-size="10.00">dumm.h</text>
</g>
<!-- Node2 -->
<g id="node2" class="node"><title>Node2</title>
<g id="a_node2"><a xlink:href="../../d0/dee/dumm_8c.html" target="_top" xlink:title="dumm.c">
<polygon fill="none" stroke="black" points="0,-0.5 0,-19.5 52,-19.5 52,-0.5 0,-0.5"/>
<text text-anchor="middle" x="26" y="-7.5" font-family="Helvetica,sans-Serif" font-size="10.00">dumm.c</text>
</a>
</g>
</g>
<!-- Node1&#45;&gt;Node2 -->
<g id="edge1" class="edge"><title>Node1&#45;&gt;Node2</title>
<path fill="none" stroke="midnightblue" d="M104.172,-51.5895C84.9433,-41.6052 59.2553,-28.2672 42.6679,-19.6545"/>
<polygon fill="midnightblue" stroke="midnightblue" points="102.803,-54.822 113.291,-56.324 106.029,-48.6095 102.803,-54.822"/>
</g>
<!-- Node3 -->
<g id="node3" class="node"><title>Node3</title>
<g id="a_node3"><a xlink:href="../../d1/d4c/ext_2dumm_8c.html" target="_top" xlink:title="dumm.c">
<polygon fill="none" stroke="black" points="70,-0.5 70,-19.5 122,-19.5 122,-0.5 70,-0.5"/>
<text text-anchor="middle" x="96" y="-7.5" font-family="Helvetica,sans-Serif" font-size="10.00">dumm.c</text>
</a>
</g>
</g>
<!-- Node1&#45;&gt;Node3 -->
<g id="edge2" class="edge"><title>Node1&#45;&gt;Node3</title>
<path fill="none" stroke="midnightblue" d="M119.023,-47.5656C113.173,-38.2747 106.23,-27.2484 101.51,-19.7511"/>
<polygon fill="midnightblue" stroke="midnightblue" points="116.096,-49.4855 124.386,-56.083 122.019,-45.7558 116.096,-49.4855"/>
</g>
<!-- Node4 -->
<g id="node4" class="node"><title>Node4</title>
<g id="a_node4"><a xlink:href="../../d1/d14/guest_8c.html" target="_top" xlink:title="guest.c">
<polygon fill="none" stroke="black" points="140.5,-0.5 140.5,-19.5 189.5,-19.5 189.5,-0.5 140.5,-0.5"/>
<text text-anchor="middle" x="165" y="-7.5" font-family="Helvetica,sans-Serif" font-size="10.00">guest.c</text>
</a>
</g>
</g>
<!-- Node1&#45;&gt;Node4 -->
<g id="edge3" class="edge"><title>Node1&#45;&gt;Node4</title>
<path fill="none" stroke="midnightblue" d="M141.3,-47.5656C147.322,-38.2747 154.469,-27.2484 159.328,-19.7511"/>
<polygon fill="midnightblue" stroke="midnightblue" points="138.281,-45.7878 135.78,-56.083 144.156,-49.5951 138.281,-45.7878"/>
</g>
<!-- Node5 -->
<g id="node5" class="node"><title>Node5</title>
<g id="a_node5"><a xlink:href="../../d0/d83/dumm_2main_8c.html" target="_top" xlink:title="main.c">
<polygon fill="none" stroke="black" points="208,-0.5 208,-19.5 254,-19.5 254,-0.5 208,-0.5"/>
<text text-anchor="middle" x="231" y="-7.5" font-family="Helvetica,sans-Serif" font-size="10.00">main.c</text>
</a>
</g>
</g>
<!-- Node1&#45;&gt;Node5 -->
<g id="edge4" class="edge"><title>Node1&#45;&gt;Node5</title>
<path fill="none" stroke="midnightblue" d="M155.083,-51.5895C173.757,-41.6052 198.704,-28.2672 214.813,-19.6545"/>
<polygon fill="midnightblue" stroke="midnightblue" points="153.396,-48.5224 146.227,-56.324 156.696,-54.6955 153.396,-48.5224"/>
</g>
</g>
</svg>
