<?xml version="1.0" encoding="UTF-8" standalone="no"?>
<!DOCTYPE svg PUBLIC "-//W3C//DTD SVG 1.1//EN"
 "http://www.w3.org/Graphics/SVG/1.1/DTD/svg11.dtd">
<!-- Generated by graphviz version 2.36.0 (20140111.2315)
 -->
<!-- Title: cowfs_create Pages: 1 -->
<svg width="626pt" height="85pt"
 viewBox="0.00 0.00 626.00 85.00" xmlns="http://www.w3.org/2000/svg" xmlns:xlink="http://www.w3.org/1999/xlink">
<g id="graph0" class="graph" transform="scale(1 1) rotate(0) translate(4 81)">
<title>cowfs_create</title>
<!-- Node1 -->
<g id="node1" class="node"><title>Node1</title>
<polygon fill="#bfbfbf" stroke="black" points="0.5,-38.5 0.5,-57.5 75.5,-57.5 75.5,-38.5 0.5,-38.5"/>
<text text-anchor="middle" x="38" y="-45.5" font-family="Helvetica,sans-Serif" font-size="10.00">cowfs_create</text>
</g>
<!-- Node2 -->
<g id="node2" class="node"><title>Node2</title>
<g id="a_node2"><a xlink:href="../../d1/d14/guest_8c.html#ad10b477db4ca0a2e33d58bc3c293ad14" target="_top" xlink:title="mount_unionfs">
<polygon fill="none" stroke="black" points="112,-38.5 112,-57.5 192,-57.5 192,-38.5 112,-38.5"/>
<text text-anchor="middle" x="152" y="-45.5" font-family="Helvetica,sans-Serif" font-size="10.00">mount_unionfs</text>
</a>
</g>
</g>
<!-- Node1&#45;&gt;Node2 -->
<g id="edge1" class="edge"><title>Node1&#45;&gt;Node2</title>
<path fill="none" stroke="midnightblue" d="M85.717,-48C94.4387,-48 103.47,-48 111.931,-48"/>
<polygon fill="midnightblue" stroke="midnightblue" points="85.673,-44.5001 75.673,-48 85.673,-51.5001 85.673,-44.5001"/>
</g>
<!-- Node3 -->
<g id="node3" class="node"><title>Node3</title>
<g id="a_node3"><a xlink:href="../../d1/d17/guest_8h.html#ab50d68bb44b28f3af8f9025edd726852" target="_top" xlink:title="guest_create">
<polygon fill="none" stroke="black" points="228.5,-57.5 228.5,-76.5 301.5,-76.5 301.5,-57.5 228.5,-57.5"/>
<text text-anchor="middle" x="265" y="-64.5" font-family="Helvetica,sans-Serif" font-size="10.00">guest_create</text>
</a>
</g>
</g>
<!-- Node2&#45;&gt;Node3 -->
<g id="edge2" class="edge"><title>Node2&#45;&gt;Node3</title>
<path fill="none" stroke="midnightblue" d="M202.237,-56.428C210.97,-57.9228 219.912,-59.4534 228.184,-60.8694"/>
<polygon fill="midnightblue" stroke="midnightblue" points="202.582,-52.9361 192.134,-54.6987 201.401,-59.8358 202.582,-52.9361"/>
</g>
<!-- Node5 -->
<g id="node5" class="node"><title>Node5</title>
<g id="a_node5"><a xlink:href="../../d1/d17/guest_8h.html#a731f5ebcd56d60de3c196ff8a03c28f0" target="_top" xlink:title="guest_load">
<polygon fill="none" stroke="black" points="233,-19.5 233,-38.5 297,-38.5 297,-19.5 233,-19.5"/>
<text text-anchor="middle" x="265" y="-26.5" font-family="Helvetica,sans-Serif" font-size="10.00">guest_load</text>
</a>
</g>
</g>
<!-- Node2&#45;&gt;Node5 -->
<g id="edge4" class="edge"><title>Node2&#45;&gt;Node5</title>
<path fill="none" stroke="midnightblue" d="M202.034,-39.6068C212.511,-37.8135 223.299,-35.9668 232.878,-34.3271"/>
<polygon fill="midnightblue" stroke="midnightblue" points="201.401,-36.1642 192.134,-41.3013 202.582,-43.0639 201.401,-36.1642"/>
</g>
<!-- Node4 -->
<g id="node4" class="node"><title>Node4</title>
<g id="a_node4"><a xlink:href="../../d0/dee/dumm_8c.html#adc226b6626e6298af262d685d39f91d6" target="_top" xlink:title="METHOD">
<polygon fill="none" stroke="black" points="343,-57.5 343,-76.5 403,-76.5 403,-57.5 343,-57.5"/>
<text text-anchor="middle" x="373" y="-64.5" font-family="Helvetica,sans-Serif" font-size="10.00">METHOD</text>
</a>
</g>
</g>
<!-- Node3&#45;&gt;Node4 -->
<g id="edge3" class="edge"><title>Node3&#45;&gt;Node4</title>
<path fill="none" stroke="midnightblue" d="M311.855,-67C322.306,-67 333.134,-67 342.674,-67"/>
<polygon fill="midnightblue" stroke="midnightblue" points="311.591,-63.5001 301.591,-67 311.591,-70.5001 311.591,-63.5001"/>
</g>
<!-- Node6 -->
<g id="node6" class="node"><title>Node6</title>
<g id="a_node6"><a xlink:href="../../d0/dee/dumm_8c.html#a87ab01e1e6ca9a9008bdd423cfdf037c" target="_top" xlink:title="load_guests">
<polygon fill="none" stroke="black" points="338.5,-19.5 338.5,-38.5 407.5,-38.5 407.5,-19.5 338.5,-19.5"/>
<text text-anchor="middle" x="373" y="-26.5" font-family="Helvetica,sans-Serif" font-size="10.00">load_guests</text>
</a>
</g>
</g>
<!-- Node5&#45;&gt;Node6 -->
<g id="edge5" class="edge"><title>Node5&#45;&gt;Node6</title>
<path fill="none" stroke="midnightblue" d="M307.272,-29C317.583,-29 328.517,-29 338.406,-29"/>
<polygon fill="midnightblue" stroke="midnightblue" points="307.23,-25.5001 297.23,-29 307.23,-32.5001 307.23,-25.5001"/>
</g>
<!-- Node7 -->
<g id="node7" class="node"><title>Node7</title>
<g id="a_node7"><a xlink:href="../../d0/d55/dumm_8h.html#ad0d53400c6ee3b458390d1987a5090f6" target="_top" xlink:title="dumm_create">
<polygon fill="none" stroke="black" points="444,-19.5 444,-38.5 520,-38.5 520,-19.5 444,-19.5"/>
<text text-anchor="middle" x="482" y="-26.5" font-family="Helvetica,sans-Serif" font-size="10.00">dumm_create</text>
</a>
</g>
</g>
<!-- Node6&#45;&gt;Node7 -->
<g id="edge6" class="edge"><title>Node6&#45;&gt;Node7</title>
<path fill="none" stroke="midnightblue" d="M417.567,-29C426.283,-29 435.362,-29 443.837,-29"/>
<polygon fill="midnightblue" stroke="midnightblue" points="417.562,-25.5001 407.562,-29 417.562,-32.5001 417.562,-25.5001"/>
</g>
<!-- Node8 -->
<g id="node8" class="node"><title>Node8</title>
<g id="a_node8"><a xlink:href="../../d1/d4c/ext_2dumm_8c.html#a483775b052d2c5ac3e09664bcbe4f09b" target="_top" xlink:title="Init_dumm">
<polygon fill="none" stroke="black" points="556,-38.5 556,-57.5 618,-57.5 618,-38.5 556,-38.5"/>
<text text-anchor="middle" x="587" y="-45.5" font-family="Helvetica,sans-Serif" font-size="10.00">Init_dumm</text>
</a>
</g>
</g>
<!-- Node7&#45;&gt;Node8 -->
<g id="edge7" class="edge"><title>Node7&#45;&gt;Node8</title>
<path fill="none" stroke="midnightblue" d="M530.3,-37.7252C539.031,-39.3357 547.924,-40.9762 555.966,-42.4597"/>
<polygon fill="midnightblue" stroke="midnightblue" points="530.654,-34.2316 520.185,-35.8594 529.385,-41.1155 530.654,-34.2316"/>
</g>
<!-- Node9 -->
<g id="node9" class="node"><title>Node9</title>
<g id="a_node9"><a xlink:href="../../d0/d83/dumm_2main_8c.html#a0ddf1224851353fc92bfbff6f499fa97" target="_top" xlink:title="main">
<polygon fill="none" stroke="black" points="568,-0.5 568,-19.5 606,-19.5 606,-0.5 568,-0.5"/>
<text text-anchor="middle" x="587" y="-7.5" font-family="Helvetica,sans-Serif" font-size="10.00">main</text>
</a>
</g>
</g>
<!-- Node7&#45;&gt;Node9 -->
<g id="edge8" class="edge"><title>Node7&#45;&gt;Node9</title>
<path fill="none" stroke="midnightblue" d="M530.283,-20.2779C543.664,-17.8096 557.427,-15.2708 567.926,-13.334"/>
<polygon fill="midnightblue" stroke="midnightblue" points="529.385,-16.8845 520.185,-22.1406 530.654,-23.7684 529.385,-16.8845"/>
</g>
</g>
</svg>
