<?xml version="1.0" encoding="UTF-8" standalone="no"?>
<!DOCTYPE svg PUBLIC "-//W3C//DTD SVG 1.1//EN"
 "http://www.w3.org/Graphics/SVG/1.1/DTD/svg11.dtd">
<!-- Generated by graphviz version 2.36.0 (20140111.2315)
 -->
<!-- Title: METHOD Pages: 1 -->
<svg width="432pt" height="66pt"
 viewBox="0.00 0.00 432.00 66.00" xmlns="http://www.w3.org/2000/svg" xmlns:xlink="http://www.w3.org/1999/xlink">
<g id="graph0" class="graph" transform="scale(1 1) rotate(0) translate(4 62)">
<title>METHOD</title>
<!-- Node1 -->
<g id="node1" class="node"><title>Node1</title>
<polygon fill="#bfbfbf" stroke="black" points="0,-19.5 0,-38.5 60,-38.5 60,-19.5 0,-19.5"/>
<text text-anchor="middle" x="30" y="-26.5" font-family="Helvetica,sans-Serif" font-size="10.00">METHOD</text>
</g>
<!-- Node2 -->
<g id="node2" class="node"><title>Node2</title>
<g id="a_node2"><a xlink:href="../../d3/de6/group__enumerator.html#ga84d904f94e6806d9b58c911e545f29c9" target="_top" xlink:title="enumerator_create_single">
<polygon fill="none" stroke="black" points="96,-19.5 96,-38.5 224,-38.5 224,-19.5 96,-19.5"/>
<text text-anchor="middle" x="160" y="-26.5" font-family="Helvetica,sans-Serif" font-size="10.00">enumerator_create_single</text>
</a>
</g>
</g>
<!-- Node1&#45;&gt;Node2 -->
<g id="edge1" class="edge"><title>Node1&#45;&gt;Node2</title>
<path fill="none" stroke="midnightblue" d="M60.0452,-29C67.816,-29 76.5785,-29 85.5956,-29"/>
<polygon fill="midnightblue" stroke="midnightblue" points="85.8452,-32.5001 95.8452,-29 85.8452,-25.5001 85.8452,-32.5001"/>
</g>
<!-- Node3 -->
<g id="node3" class="node"><title>Node3</title>
<g id="a_node3"><a xlink:href="../../de/d46/enumerator_8c.html#ad5e5630a24456b25b519860dcdf747d2" target="_top" xlink:title="enumerate_single">
<polygon fill="none" stroke="black" points="260.5,-38.5 260.5,-57.5 353.5,-57.5 353.5,-38.5 260.5,-38.5"/>
<text text-anchor="middle" x="307" y="-45.5" font-family="Helvetica,sans-Serif" font-size="10.00">enumerate_single</text>
</a>
</g>
</g>
<!-- Node2&#45;&gt;Node3 -->
<g id="edge2" class="edge"><title>Node2&#45;&gt;Node3</title>
<path fill="none" stroke="midnightblue" d="M224.177,-37.2784C232.954,-38.4284 241.916,-39.6027 250.537,-40.7324"/>
<polygon fill="midnightblue" stroke="midnightblue" points="250.099,-44.2049 260.469,-42.0339 251.009,-37.2642 250.099,-44.2049"/>
</g>
<!-- Node4 -->
<g id="node4" class="node"><title>Node4</title>
<g id="a_node4"><a xlink:href="../../de/d46/enumerator_8c.html#a20a484840964bad13c90deb4032f81a5" target="_top" xlink:title="destroy_single">
<polygon fill="none" stroke="black" points="267,-0.5 267,-19.5 347,-19.5 347,-0.5 267,-0.5"/>
<text text-anchor="middle" x="307" y="-7.5" font-family="Helvetica,sans-Serif" font-size="10.00">destroy_single</text>
</a>
</g>
</g>
<!-- Node2&#45;&gt;Node4 -->
<g id="edge3" class="edge"><title>Node2&#45;&gt;Node4</title>
<path fill="none" stroke="midnightblue" d="M224.177,-20.7216C235.053,-19.2966 246.212,-17.8342 256.656,-16.4658"/>
<polygon fill="midnightblue" stroke="midnightblue" points="257.363,-19.9031 266.824,-15.1335 256.454,-12.9624 257.363,-19.9031"/>
</g>
<!-- Node5 -->
<g id="node5" class="node"><title>Node5</title>
<g id="a_node5"><a xlink:href="../../da/dfc/settings__parser_8c.html#af07d89f5ceaea0c7c8252cc41fd75f37" target="_top" xlink:title="free">
<polygon fill="none" stroke="black" points="390.5,-0.5 390.5,-19.5 423.5,-19.5 423.5,-0.5 390.5,-0.5"/>
<text text-anchor="middle" x="407" y="-7.5" font-family="Helvetica,sans-Serif" font-size="10.00">free</text>
</a>
</g>
</g>
<!-- Node4&#45;&gt;Node5 -->
<g id="edge4" class="edge"><title>Node4&#45;&gt;Node5</title>
<path fill="none" stroke="midnightblue" d="M347.014,-10C358.146,-10 369.997,-10 380.133,-10"/>
<polygon fill="midnightblue" stroke="midnightblue" points="380.345,-13.5001 390.345,-10 380.345,-6.5001 380.345,-13.5001"/>
</g>
</g>
</svg>
