<?xml version="1.0" encoding="UTF-8" standalone="no"?>
<!DOCTYPE svg PUBLIC "-//W3C//DTD SVG 1.1//EN"
 "http://www.w3.org/Graphics/SVG/1.1/DTD/svg11.dtd">
<!-- Generated by graphviz version 2.36.0 (20140111.2315)
 -->
<!-- Title: fast_context.h Pages: 1 -->
<svg width="1415pt" height="252pt"
 viewBox="0.00 0.00 1414.75 252.00" xmlns="http://www.w3.org/2000/svg" xmlns:xlink="http://www.w3.org/1999/xlink">
<g id="graph0" class="graph" transform="scale(1 1) rotate(0) translate(4 248)">
<title>fast_context.h</title>
<!-- Node1 -->
<g id="node1" class="node"><title>Node1</title>
<polygon fill="#bfbfbf" stroke="black" points="447.5,-224.5 447.5,-243.5 526.5,-243.5 526.5,-224.5 447.5,-224.5"/>
<text text-anchor="middle" x="487" y="-231.5" font-family="Helvetica,sans-Serif" font-size="10.00">fast_context.h</text>
</g>
<!-- Node2 -->
<g id="node2" class="node"><title>Node2</title>
<g id="a_node2"><a xlink:href="../../d4/d5a/fast__controller_8h.html" target="_top" xlink:title="fast_controller.h">
<polygon fill="none" stroke="black" points="480,-168.5 480,-187.5 566,-187.5 566,-168.5 480,-168.5"/>
<text text-anchor="middle" x="523" y="-175.5" font-family="Helvetica,sans-Serif" font-size="10.00">fast_controller.h</text>
</a>
</g>
</g>
<!-- Node1&#45;&gt;Node2 -->
<g id="edge1" class="edge"><title>Node1&#45;&gt;Node2</title>
<path fill="none" stroke="midnightblue" d="M498.623,-215.566C504.817,-206.275 512.168,-195.248 517.166,-187.751"/>
<polygon fill="midnightblue" stroke="midnightblue" points="495.58,-213.821 492.945,-224.083 501.404,-217.704 495.58,-213.821"/>
</g>
<!-- Node7 -->
<g id="node7" class="node"><title>Node7</title>
<g id="a_node7"><a xlink:href="../../d0/da1/fast__filter_8h.html" target="_top" xlink:title="fast_filter.h">
<polygon fill="none" stroke="black" points="391.5,-112.5 391.5,-131.5 456.5,-131.5 456.5,-112.5 391.5,-112.5"/>
<text text-anchor="middle" x="424" y="-119.5" font-family="Helvetica,sans-Serif" font-size="10.00">fast_filter.h</text>
</a>
</g>
</g>
<!-- Node1&#45;&gt;Node7 -->
<g id="edge36" class="edge"><title>Node1&#45;&gt;Node7</title>
<path fill="none" stroke="midnightblue" d="M477.057,-215.64C463.371,-191.744 439.251,-149.629 428.921,-131.591"/>
<polygon fill="midnightblue" stroke="midnightblue" points="474.049,-217.43 482.056,-224.368 480.124,-213.951 474.049,-217.43"/>
</g>
<!-- Node26 -->
<g id="node26" class="node"><title>Node26</title>
<g id="a_node26"><a xlink:href="../../db/d45/manager_8h.html" target="_top" xlink:title="manager.h">
<polygon fill="none" stroke="black" points="980,-112.5 980,-131.5 1042,-131.5 1042,-112.5 980,-112.5"/>
<text text-anchor="middle" x="1011" y="-119.5" font-family="Helvetica,sans-Serif" font-size="10.00">manager.h</text>
</a>
</g>
</g>
<!-- Node1&#45;&gt;Node26 -->
<g id="edge37" class="edge"><title>Node1&#45;&gt;Node26</title>
<path fill="none" stroke="midnightblue" d="M536.694,-222.568C643.456,-200.156 892.128,-147.954 979.758,-129.558"/>
<polygon fill="midnightblue" stroke="midnightblue" points="535.883,-219.162 526.815,-224.642 537.321,-226.013 535.883,-219.162"/>
</g>
<!-- Node28 -->
<g id="node28" class="node"><title>Node28</title>
<g id="a_node28"><a xlink:href="../../d8/ddb/user_8h.html" target="_top" xlink:title="user.h">
<polygon fill="none" stroke="black" points="183,-168.5 183,-187.5 227,-187.5 227,-168.5 183,-168.5"/>
<text text-anchor="middle" x="205" y="-175.5" font-family="Helvetica,sans-Serif" font-size="10.00">user.h</text>
</a>
</g>
</g>
<!-- Node1&#45;&gt;Node28 -->
<g id="edge45" class="edge"><title>Node1&#45;&gt;Node28</title>
<path fill="none" stroke="midnightblue" d="M437.551,-223.531C375.614,-211.671 272.157,-191.86 227.097,-183.231"/>
<polygon fill="midnightblue" stroke="midnightblue" points="437.012,-226.991 447.492,-225.435 438.329,-220.116 437.012,-226.991"/>
</g>
<!-- Node3 -->
<g id="node3" class="node"><title>Node3</title>
<g id="a_node3"><a xlink:href="../../d3/d51/fast__dispatcher_8h.html" target="_top" xlink:title="fast_dispatcher.h">
<polygon fill="none" stroke="black" points="378,-56.5 378,-75.5 470,-75.5 470,-56.5 378,-56.5"/>
<text text-anchor="middle" x="424" y="-63.5" font-family="Helvetica,sans-Serif" font-size="10.00">fast_dispatcher.h</text>
</a>
</g>
</g>
<!-- Node2&#45;&gt;Node3 -->
<g id="edge2" class="edge"><title>Node2&#45;&gt;Node3</title>
<path fill="none" stroke="midnightblue" d="M508.271,-160.398C496.576,-147.239 479.788,-128.401 465,-112 453.535,-99.2841 440.162,-84.6415 431.887,-75.6027"/>
<polygon fill="midnightblue" stroke="midnightblue" points="505.891,-162.99 515.149,-168.143 511.125,-158.341 505.891,-162.99"/>
</g>
<!-- Node2&#45;&gt;Node7 -->
<g id="edge6" class="edge"><title>Node2&#45;&gt;Node7</title>
<path fill="none" stroke="midnightblue" d="M498.163,-163.453C479.886,-153.483 455.584,-140.228 439.867,-131.655"/>
<polygon fill="midnightblue" stroke="midnightblue" points="496.639,-166.608 507.094,-168.324 499.991,-160.463 496.639,-166.608"/>
</g>
<!-- Node8 -->
<g id="node8" class="node"><title>Node8</title>
<g id="a_node8"><a xlink:href="../../da/d28/fast__session_8h.html" target="_top" xlink:title="fast_session.h">
<polygon fill="none" stroke="black" points="488,-56.5 488,-75.5 568,-75.5 568,-56.5 488,-56.5"/>
<text text-anchor="middle" x="528" y="-63.5" font-family="Helvetica,sans-Serif" font-size="10.00">fast_session.h</text>
</a>
</g>
</g>
<!-- Node2&#45;&gt;Node8 -->
<g id="edge14" class="edge"><title>Node2&#45;&gt;Node8</title>
<path fill="none" stroke="midnightblue" d="M523.848,-158.348C524.943,-134.254 526.804,-93.3079 527.609,-75.5914"/>
<polygon fill="midnightblue" stroke="midnightblue" points="520.35,-158.22 523.392,-168.368 527.343,-158.538 520.35,-158.22"/>
</g>
<!-- Node12 -->
<g id="node12" class="node"><title>Node12</title>
<g id="a_node12"><a xlink:href="../../d6/d39/auth__controller_8h.html" target="_top" xlink:title="auth_controller.h">
<polygon fill="none" stroke="black" points="551.5,-112.5 551.5,-131.5 640.5,-131.5 640.5,-112.5 551.5,-112.5"/>
<text text-anchor="middle" x="596" y="-119.5" font-family="Helvetica,sans-Serif" font-size="10.00">auth_controller.h</text>
</a>
</g>
</g>
<!-- Node2&#45;&gt;Node12 -->
<g id="edge15" class="edge"><title>Node2&#45;&gt;Node12</title>
<path fill="none" stroke="midnightblue" d="M543.142,-162.101C556.279,-152.382 572.982,-140.027 584.058,-131.834"/>
<polygon fill="midnightblue" stroke="midnightblue" points="540.687,-159.563 534.729,-168.324 544.85,-165.191 540.687,-159.563"/>
</g>
<!-- Node14 -->
<g id="node14" class="node"><title>Node14</title>
<g id="a_node14"><a xlink:href="../../d1/db7/config__controller_8h.html" target="_top" xlink:title="config_controller.h">
<polygon fill="none" stroke="black" points="659,-112.5 659,-131.5 755,-131.5 755,-112.5 659,-112.5"/>
<text text-anchor="middle" x="707" y="-119.5" font-family="Helvetica,sans-Serif" font-size="10.00">config_controller.h</text>
</a>
</g>
</g>
<!-- Node2&#45;&gt;Node14 -->
<g id="edge18" class="edge"><title>Node2&#45;&gt;Node14</title>
<path fill="none" stroke="midnightblue" d="M561.954,-165.568C596.665,-155.381 646.677,-140.703 677.981,-131.516"/>
<polygon fill="midnightblue" stroke="midnightblue" points="560.765,-162.269 552.155,-168.444 562.736,-168.986 560.765,-162.269"/>
</g>
<!-- Node16 -->
<g id="node16" class="node"><title>Node16</title>
<g id="a_node16"><a xlink:href="../../de/dd6/control__controller_8h.html" target="_top" xlink:title="control_controller.h">
<polygon fill="none" stroke="black" points="773.5,-112.5 773.5,-131.5 872.5,-131.5 872.5,-112.5 773.5,-112.5"/>
<text text-anchor="middle" x="823" y="-119.5" font-family="Helvetica,sans-Serif" font-size="10.00">control_controller.h</text>
</a>
</g>
</g>
<!-- Node2&#45;&gt;Node16 -->
<g id="edge21" class="edge"><title>Node2&#45;&gt;Node16</title>
<path fill="none" stroke="midnightblue" d="M576.488,-167.372C633.11,-157.18 721.618,-141.249 775.752,-131.505"/>
<polygon fill="midnightblue" stroke="midnightblue" points="575.524,-163.989 566.302,-169.206 576.764,-170.879 575.524,-163.989"/>
</g>
<!-- Node18 -->
<g id="node18" class="node"><title>Node18</title>
<g id="a_node18"><a xlink:href="../../dc/d11/gateway__controller_8h.html" target="_top" xlink:title="gateway_controller.h">
<polygon fill="none" stroke="black" points="1268.5,-112.5 1268.5,-131.5 1375.5,-131.5 1375.5,-112.5 1268.5,-112.5"/>
<text text-anchor="middle" x="1322" y="-119.5" font-family="Helvetica,sans-Serif" font-size="10.00">gateway_controller.h</text>
</a>
</g>
</g>
<!-- Node2&#45;&gt;Node18 -->
<g id="edge24" class="edge"><title>Node2&#45;&gt;Node18</title>
<path fill="none" stroke="midnightblue" d="M576.38,-175.217C697.835,-170.835 1004.07,-157.959 1259,-132 1262.08,-131.687 1265.24,-131.334 1268.42,-130.955"/>
<polygon fill="midnightblue" stroke="midnightblue" points="576.106,-171.724 566.237,-175.578 576.355,-178.72 576.106,-171.724"/>
</g>
<!-- Node20 -->
<g id="node20" class="node"><title>Node20</title>
<g id="a_node20"><a xlink:href="../../d0/d67/ikesa__controller_8h.html" target="_top" xlink:title="ikesa_controller.h">
<polygon fill="none" stroke="black" points="1157.5,-112.5 1157.5,-131.5 1250.5,-131.5 1250.5,-112.5 1157.5,-112.5"/>
<text text-anchor="middle" x="1204" y="-119.5" font-family="Helvetica,sans-Serif" font-size="10.00">ikesa_controller.h</text>
</a>
</g>
</g>
<!-- Node2&#45;&gt;Node20 -->
<g id="edge27" class="edge"><title>Node2&#45;&gt;Node20</title>
<path fill="none" stroke="midnightblue" d="M576.17,-172.784C705.428,-162.534 1034.49,-136.441 1157.05,-126.723"/>
<polygon fill="midnightblue" stroke="midnightblue" points="575.808,-169.301 566.116,-173.581 576.362,-176.28 575.808,-169.301"/>
</g>
<!-- Node22 -->
<g id="node22" class="node"><title>Node22</title>
<g id="a_node22"><a xlink:href="../../d6/d2c/peer__controller_8h.html" target="_top" xlink:title="peer_controller.h">
<polygon fill="none" stroke="black" points="268.5,-112.5 268.5,-131.5 357.5,-131.5 357.5,-112.5 268.5,-112.5"/>
<text text-anchor="middle" x="313" y="-119.5" font-family="Helvetica,sans-Serif" font-size="10.00">peer_controller.h</text>
</a>
</g>
</g>
<!-- Node2&#45;&gt;Node22 -->
<g id="edge30" class="edge"><title>Node2&#45;&gt;Node22</title>
<path fill="none" stroke="midnightblue" d="M479.81,-165.894C440.153,-155.697 382.23,-140.802 346.119,-131.516"/>
<polygon fill="midnightblue" stroke="midnightblue" points="479.168,-169.343 489.725,-168.444 480.912,-162.563 479.168,-169.343"/>
</g>
<!-- Node24 -->
<g id="node24" class="node"><title>Node24</title>
<g id="a_node24"><a xlink:href="../../d4/db7/user__controller_8h.html" target="_top" xlink:title="user_controller.h">
<polygon fill="none" stroke="black" points="160.5,-112.5 160.5,-131.5 249.5,-131.5 249.5,-112.5 160.5,-112.5"/>
<text text-anchor="middle" x="205" y="-119.5" font-family="Helvetica,sans-Serif" font-size="10.00">user_controller.h</text>
</a>
</g>
</g>
<!-- Node2&#45;&gt;Node24 -->
<g id="edge33" class="edge"><title>Node2&#45;&gt;Node24</title>
<path fill="none" stroke="midnightblue" d="M469.854,-167.975C408.156,-157.498 307.49,-140.404 249.661,-130.584"/>
<polygon fill="midnightblue" stroke="midnightblue" points="469.337,-171.437 479.782,-169.661 470.509,-164.536 469.337,-171.437"/>
</g>
<!-- Node4 -->
<g id="node4" class="node"><title>Node4</title>
<g id="a_node4"><a xlink:href="../../db/d01/fast__dispatcher_8c.html" target="_top" xlink:title="fast_dispatcher.c">
<polygon fill="none" stroke="black" points="378,-0.5 378,-19.5 470,-19.5 470,-0.5 378,-0.5"/>
<text text-anchor="middle" x="424" y="-7.5" font-family="Helvetica,sans-Serif" font-size="10.00">fast_dispatcher.c</text>
</a>
</g>
</g>
<!-- Node3&#45;&gt;Node4 -->
<g id="edge3" class="edge"><title>Node3&#45;&gt;Node4</title>
<path fill="none" stroke="midnightblue" d="M424,-45.8045C424,-36.9102 424,-26.7798 424,-19.7511"/>
<polygon fill="midnightblue" stroke="midnightblue" points="420.5,-46.083 424,-56.083 427.5,-46.083 420.5,-46.083"/>
</g>
<!-- Node5 -->
<g id="node5" class="node"><title>Node5</title>
<g id="a_node5"><a xlink:href="../../db/d06/manager_2main_8c.html" target="_top" xlink:title="main.c">
<polygon fill="none" stroke="black" points="649,-0.5 649,-19.5 695,-19.5 695,-0.5 649,-0.5"/>
<text text-anchor="middle" x="672" y="-7.5" font-family="Helvetica,sans-Serif" font-size="10.00">main.c</text>
</a>
</g>
</g>
<!-- Node3&#45;&gt;Node5 -->
<g id="edge4" class="edge"><title>Node3&#45;&gt;Node5</title>
<path fill="none" stroke="midnightblue" d="M473.202,-54.2866C526.429,-42.697 609.011,-24.7153 648.892,-16.0315"/>
<polygon fill="midnightblue" stroke="midnightblue" points="472.323,-50.896 463.296,-56.4435 473.812,-57.7358 472.323,-50.896"/>
</g>
<!-- Node6 -->
<g id="node6" class="node"><title>Node6</title>
<g id="a_node6"><a xlink:href="../../df/dc5/medsrv_2main_8c.html" target="_top" xlink:title="main.c">
<polygon fill="none" stroke="black" points="200,-0.5 200,-19.5 246,-19.5 246,-0.5 200,-0.5"/>
<text text-anchor="middle" x="223" y="-7.5" font-family="Helvetica,sans-Serif" font-size="10.00">main.c</text>
</a>
</g>
</g>
<!-- Node3&#45;&gt;Node6 -->
<g id="edge5" class="edge"><title>Node3&#45;&gt;Node6</title>
<path fill="none" stroke="midnightblue" d="M382.396,-53.8227C341.162,-42.745 279.49,-26.1763 246.241,-17.2437"/>
<polygon fill="midnightblue" stroke="midnightblue" points="381.585,-57.229 392.151,-56.4435 383.402,-50.4688 381.585,-57.229"/>
</g>
<!-- Node7&#45;&gt;Node3 -->
<g id="edge7" class="edge"><title>Node7&#45;&gt;Node3</title>
<path fill="none" stroke="midnightblue" d="M424,-101.805C424,-92.9102 424,-82.7798 424,-75.7511"/>
<polygon fill="midnightblue" stroke="midnightblue" points="420.5,-102.083 424,-112.083 427.5,-102.083 420.5,-102.083"/>
</g>
<!-- Node7&#45;&gt;Node8 -->
<g id="edge8" class="edge"><title>Node7&#45;&gt;Node8</title>
<path fill="none" stroke="midnightblue" d="M449.828,-107.59C469.057,-97.6052 494.745,-84.2672 511.332,-75.6545"/>
<polygon fill="midnightblue" stroke="midnightblue" points="447.971,-104.61 440.709,-112.324 451.197,-110.822 447.971,-104.61"/>
</g>
<!-- Node10 -->
<g id="node10" class="node"><title>Node10</title>
<g id="a_node10"><a xlink:href="../../d0/d97/auth__filter_8h.html" target="_top" xlink:title="auth_filter.h">
<polygon fill="none" stroke="black" points="0,-56.5 0,-75.5 68,-75.5 68,-56.5 0,-56.5"/>
<text text-anchor="middle" x="34" y="-63.5" font-family="Helvetica,sans-Serif" font-size="10.00">auth_filter.h</text>
</a>
</g>
</g>
<!-- Node7&#45;&gt;Node10 -->
<g id="edge11" class="edge"><title>Node7&#45;&gt;Node10</title>
<path fill="none" stroke="midnightblue" d="M380.976,-114.177C375.93,-113.42 370.854,-112.679 366,-112 237.81,-94.0742 204.676,-97.2765 77,-76 74.1411,-75.5236 71.1836,-74.9903 68.2196,-74.4275"/>
<polygon fill="midnightblue" stroke="midnightblue" points="380.792,-117.689 391.205,-115.735 381.846,-110.769 380.792,-117.689"/>
</g>
<!-- Node8&#45;&gt;Node4 -->
<g id="edge9" class="edge"><title>Node8&#45;&gt;Node4</title>
<path fill="none" stroke="midnightblue" d="M502.172,-51.5895C482.943,-41.6052 457.255,-28.2672 440.668,-19.6545"/>
<polygon fill="midnightblue" stroke="midnightblue" points="500.803,-54.822 511.291,-56.324 504.029,-48.6095 500.803,-54.822"/>
</g>
<!-- Node9 -->
<g id="node9" class="node"><title>Node9</title>
<g id="a_node9"><a xlink:href="../../d9/d66/fast__session_8c.html" target="_top" xlink:title="fast_session.c">
<polygon fill="none" stroke="black" points="488,-0.5 488,-19.5 568,-19.5 568,-0.5 488,-0.5"/>
<text text-anchor="middle" x="528" y="-7.5" font-family="Helvetica,sans-Serif" font-size="10.00">fast_session.c</text>
</a>
</g>
</g>
<!-- Node8&#45;&gt;Node9 -->
<g id="edge10" class="edge"><title>Node8&#45;&gt;Node9</title>
<path fill="none" stroke="midnightblue" d="M528,-45.8045C528,-36.9102 528,-26.7798 528,-19.7511"/>
<polygon fill="midnightblue" stroke="midnightblue" points="524.5,-46.083 528,-56.083 531.5,-46.083 524.5,-46.083"/>
</g>
<!-- Node10&#45;&gt;Node6 -->
<g id="edge13" class="edge"><title>Node10&#45;&gt;Node6</title>
<path fill="none" stroke="midnightblue" d="M73.719,-53.6517C111.912,-42.7393 168.341,-26.6168 199.746,-17.6439"/>
<polygon fill="midnightblue" stroke="midnightblue" points="72.6013,-50.3309 63.9476,-56.4435 74.5244,-57.0616 72.6013,-50.3309"/>
</g>
<!-- Node11 -->
<g id="node11" class="node"><title>Node11</title>
<g id="a_node11"><a xlink:href="../../d3/dbc/auth__filter_8c.html" target="_top" xlink:title="auth_filter.c">
<polygon fill="none" stroke="black" points="0,-0.5 0,-19.5 68,-19.5 68,-0.5 0,-0.5"/>
<text text-anchor="middle" x="34" y="-7.5" font-family="Helvetica,sans-Serif" font-size="10.00">auth_filter.c</text>
</a>
</g>
</g>
<!-- Node10&#45;&gt;Node11 -->
<g id="edge12" class="edge"><title>Node10&#45;&gt;Node11</title>
<path fill="none" stroke="midnightblue" d="M34,-45.8045C34,-36.9102 34,-26.7798 34,-19.7511"/>
<polygon fill="midnightblue" stroke="midnightblue" points="30.5001,-46.083 34,-56.083 37.5001,-46.083 30.5001,-46.083"/>
</g>
<!-- Node12&#45;&gt;Node5 -->
<g id="edge17" class="edge"><title>Node12&#45;&gt;Node5</title>
<path fill="none" stroke="midnightblue" d="M607.775,-103.957C624.245,-80.1184 653.547,-37.7088 666.064,-19.5914"/>
<polygon fill="midnightblue" stroke="midnightblue" points="604.768,-102.152 601.964,-112.368 610.528,-106.131 604.768,-102.152"/>
</g>
<!-- Node13 -->
<g id="node13" class="node"><title>Node13</title>
<g id="a_node13"><a xlink:href="../../de/d8d/auth__controller_8c.html" target="_top" xlink:title="auth_controller.c">
<polygon fill="none" stroke="black" points="700.5,-56.5 700.5,-75.5 789.5,-75.5 789.5,-56.5 700.5,-56.5"/>
<text text-anchor="middle" x="745" y="-63.5" font-family="Helvetica,sans-Serif" font-size="10.00">auth_controller.c</text>
</a>
</g>
</g>
<!-- Node12&#45;&gt;Node13 -->
<g id="edge16" class="edge"><title>Node12&#45;&gt;Node13</title>
<path fill="none" stroke="midnightblue" d="M629.371,-108.906C657.384,-98.7536 696.696,-84.5063 721.501,-75.5164"/>
<polygon fill="midnightblue" stroke="midnightblue" points="627.819,-105.746 619.609,-112.444 630.204,-112.327 627.819,-105.746"/>
</g>
<!-- Node14&#45;&gt;Node5 -->
<g id="edge20" class="edge"><title>Node14&#45;&gt;Node5</title>
<path fill="none" stroke="midnightblue" d="M683.904,-106.354C673.958,-98.6586 663.39,-88.268 658,-76 649.642,-56.9767 659.959,-32.5699 666.821,-19.755"/>
<polygon fill="midnightblue" stroke="midnightblue" points="682.172,-109.419 692.339,-112.402 686.252,-103.73 682.172,-109.419"/>
</g>
<!-- Node15 -->
<g id="node15" class="node"><title>Node15</title>
<g id="a_node15"><a xlink:href="../../db/deb/config__controller_8c.html" target="_top" xlink:title="config_controller.c">
<polygon fill="none" stroke="black" points="808,-56.5 808,-75.5 904,-75.5 904,-56.5 808,-56.5"/>
<text text-anchor="middle" x="856" y="-63.5" font-family="Helvetica,sans-Serif" font-size="10.00">config_controller.c</text>
</a>
</g>
</g>
<!-- Node14&#45;&gt;Node15 -->
<g id="edge19" class="edge"><title>Node14&#45;&gt;Node15</title>
<path fill="none" stroke="midnightblue" d="M740.371,-108.906C768.384,-98.7536 807.696,-84.5063 832.501,-75.5164"/>
<polygon fill="midnightblue" stroke="midnightblue" points="738.819,-105.746 730.609,-112.444 741.204,-112.327 738.819,-105.746"/>
</g>
<!-- Node16&#45;&gt;Node5 -->
<g id="edge23" class="edge"><title>Node16&#45;&gt;Node5</title>
<path fill="none" stroke="midnightblue" d="M775.984,-109.865C743.11,-101.196 703.021,-88.5644 691,-76 676.045,-60.3693 672.772,-33.6286 672.114,-19.8234"/>
<polygon fill="midnightblue" stroke="midnightblue" points="775.359,-113.318 785.916,-112.423 777.105,-106.539 775.359,-113.318"/>
</g>
<!-- Node17 -->
<g id="node17" class="node"><title>Node17</title>
<g id="a_node17"><a xlink:href="../../dc/d98/control__controller_8c.html" target="_top" xlink:title="control_controller.c">
<polygon fill="none" stroke="black" points="922.5,-56.5 922.5,-75.5 1021.5,-75.5 1021.5,-56.5 922.5,-56.5"/>
<text text-anchor="middle" x="972" y="-63.5" font-family="Helvetica,sans-Serif" font-size="10.00">control_controller.c</text>
</a>
</g>
</g>
<!-- Node16&#45;&gt;Node17 -->
<g id="edge22" class="edge"><title>Node16&#45;&gt;Node17</title>
<path fill="none" stroke="midnightblue" d="M856.371,-108.906C884.384,-98.7536 923.696,-84.5063 948.501,-75.5164"/>
<polygon fill="midnightblue" stroke="midnightblue" points="854.819,-105.746 846.609,-112.444 857.204,-112.327 854.819,-105.746"/>
</g>
<!-- Node18&#45;&gt;Node5 -->
<g id="edge26" class="edge"><title>Node18&#45;&gt;Node5</title>
<path fill="none" stroke="midnightblue" d="M1356.5,-108.629C1385.77,-96.3313 1420.18,-76.4033 1401,-56 1376.25,-29.6704 817.333,-14.5458 695.367,-11.5523"/>
<polygon fill="midnightblue" stroke="midnightblue" points="1354.83,-105.526 1346.86,-112.497 1357.44,-112.023 1354.83,-105.526"/>
</g>
<!-- Node19 -->
<g id="node19" class="node"><title>Node19</title>
<g id="a_node19"><a xlink:href="../../d5/df6/gateway__controller_8c.html" target="_top" xlink:title="gateway_controller.c">
<polygon fill="none" stroke="black" points="1268.5,-56.5 1268.5,-75.5 1375.5,-75.5 1375.5,-56.5 1268.5,-56.5"/>
<text text-anchor="middle" x="1322" y="-63.5" font-family="Helvetica,sans-Serif" font-size="10.00">gateway_controller.c</text>
</a>
</g>
</g>
<!-- Node18&#45;&gt;Node19 -->
<g id="edge25" class="edge"><title>Node18&#45;&gt;Node19</title>
<path fill="none" stroke="midnightblue" d="M1322,-101.805C1322,-92.9102 1322,-82.7798 1322,-75.7511"/>
<polygon fill="midnightblue" stroke="midnightblue" points="1318.5,-102.083 1322,-112.083 1325.5,-102.083 1318.5,-102.083"/>
</g>
<!-- Node20&#45;&gt;Node5 -->
<g id="edge29" class="edge"><title>Node20&#45;&gt;Node5</title>
<path fill="none" stroke="midnightblue" d="M1260.28,-110.519C1310.14,-100.665 1376.21,-85.9763 1384,-76 1389.47,-68.9937 1390.08,-62.4806 1384,-56 1359.87,-30.2926 815.144,-14.7099 695.216,-11.5839"/>
<polygon fill="midnightblue" stroke="midnightblue" points="1259.38,-107.13 1250.23,-112.484 1260.72,-114 1259.38,-107.13"/>
</g>
<!-- Node21 -->
<g id="node21" class="node"><title>Node21</title>
<g id="a_node21"><a xlink:href="../../de/da8/ikesa__controller_8c.html" target="_top" xlink:title="ikesa_controller.c">
<polygon fill="none" stroke="black" points="1157.5,-56.5 1157.5,-75.5 1250.5,-75.5 1250.5,-56.5 1157.5,-56.5"/>
<text text-anchor="middle" x="1204" y="-63.5" font-family="Helvetica,sans-Serif" font-size="10.00">ikesa_controller.c</text>
</a>
</g>
</g>
<!-- Node20&#45;&gt;Node21 -->
<g id="edge28" class="edge"><title>Node20&#45;&gt;Node21</title>
<path fill="none" stroke="midnightblue" d="M1204,-101.805C1204,-92.9102 1204,-82.7798 1204,-75.7511"/>
<polygon fill="midnightblue" stroke="midnightblue" points="1200.5,-102.083 1204,-112.083 1207.5,-102.083 1200.5,-102.083"/>
</g>
<!-- Node22&#45;&gt;Node6 -->
<g id="edge32" class="edge"><title>Node22&#45;&gt;Node6</title>
<path fill="none" stroke="midnightblue" d="M292.792,-106.103C282.529,-97.9266 270.298,-87.192 261,-76 245.797,-57.7008 233.004,-32.5677 226.879,-19.5666"/>
<polygon fill="midnightblue" stroke="midnightblue" points="290.79,-108.979 300.843,-112.323 295.07,-103.439 290.79,-108.979"/>
</g>
<!-- Node23 -->
<g id="node23" class="node"><title>Node23</title>
<g id="a_node23"><a xlink:href="../../d7/d8e/peer__controller_8c.html" target="_top" xlink:title="peer_controller.c">
<polygon fill="none" stroke="black" points="270.5,-56.5 270.5,-75.5 359.5,-75.5 359.5,-56.5 270.5,-56.5"/>
<text text-anchor="middle" x="315" y="-63.5" font-family="Helvetica,sans-Serif" font-size="10.00">peer_controller.c</text>
</a>
</g>
</g>
<!-- Node22&#45;&gt;Node23 -->
<g id="edge31" class="edge"><title>Node22&#45;&gt;Node23</title>
<path fill="none" stroke="midnightblue" d="M313.711,-101.805C314.04,-92.9102 314.416,-82.7798 314.676,-75.7511"/>
<polygon fill="midnightblue" stroke="midnightblue" points="310.203,-101.96 313.33,-112.083 317.198,-102.219 310.203,-101.96"/>
</g>
<!-- Node24&#45;&gt;Node6 -->
<g id="edge35" class="edge"><title>Node24&#45;&gt;Node6</title>
<path fill="none" stroke="midnightblue" d="M208.052,-102.348C211.995,-78.2538 218.695,-37.3079 221.594,-19.5914"/>
<polygon fill="midnightblue" stroke="midnightblue" points="204.573,-101.934 206.412,-112.368 211.481,-103.065 204.573,-101.934"/>
</g>
<!-- Node25 -->
<g id="node25" class="node"><title>Node25</title>
<g id="a_node25"><a xlink:href="../../d1/d16/user__controller_8c.html" target="_top" xlink:title="user_controller.c">
<polygon fill="none" stroke="black" points="86.5,-56.5 86.5,-75.5 175.5,-75.5 175.5,-56.5 86.5,-56.5"/>
<text text-anchor="middle" x="131" y="-63.5" font-family="Helvetica,sans-Serif" font-size="10.00">user_controller.c</text>
</a>
</g>
</g>
<!-- Node24&#45;&gt;Node25 -->
<g id="edge34" class="edge"><title>Node24&#45;&gt;Node25</title>
<path fill="none" stroke="midnightblue" d="M184.966,-106.38C171.591,-96.6204 154.441,-84.1057 143.106,-75.8339"/>
<polygon fill="midnightblue" stroke="midnightblue" points="182.97,-109.257 193.111,-112.324 187.096,-103.602 182.97,-109.257"/>
</g>
<!-- Node26&#45;&gt;Node5 -->
<g id="edge43" class="edge"><title>Node26&#45;&gt;Node5</title>
<path fill="none" stroke="midnightblue" d="M1023.91,-103.867C1033.03,-89.5187 1041.74,-69.3076 1030,-56 1007.75,-30.78 770.906,-16.2061 695.157,-12.1642"/>
<polygon fill="midnightblue" stroke="midnightblue" points="1020.87,-102.102 1018.06,-112.317 1026.63,-106.084 1020.87,-102.102"/>
</g>
<!-- Node26&#45;&gt;Node13 -->
<g id="edge38" class="edge"><title>Node26&#45;&gt;Node13</title>
<path fill="none" stroke="midnightblue" d="M969.91,-112.658C920.3,-102.587 837.301,-85.7378 787.199,-75.5667"/>
<polygon fill="midnightblue" stroke="midnightblue" points="969.469,-116.14 979.966,-114.7 970.862,-109.28 969.469,-116.14"/>
</g>
<!-- Node26&#45;&gt;Node15 -->
<g id="edge39" class="edge"><title>Node26&#45;&gt;Node15</title>
<path fill="none" stroke="midnightblue" d="M976.668,-109.039C947.503,-98.8786 906.363,-84.5457 880.445,-75.5164"/>
<polygon fill="midnightblue" stroke="midnightblue" points="975.845,-112.459 986.44,-112.444 978.148,-105.848 975.845,-112.459"/>
</g>
<!-- Node26&#45;&gt;Node17 -->
<g id="edge40" class="edge"><title>Node26&#45;&gt;Node17</title>
<path fill="none" stroke="midnightblue" d="M998.618,-103.855C991.865,-94.5048 983.791,-83.3265 978.32,-75.7511"/>
<polygon fill="midnightblue" stroke="midnightblue" points="995.868,-106.025 1004.56,-112.083 1001.54,-101.927 995.868,-106.025"/>
</g>
<!-- Node26&#45;&gt;Node19 -->
<g id="edge41" class="edge"><title>Node26&#45;&gt;Node19</title>
<path fill="none" stroke="midnightblue" d="M1052.35,-113.821C1109.41,-103.912 1212.15,-86.0741 1273,-75.5081"/>
<polygon fill="midnightblue" stroke="midnightblue" points="1051.5,-110.416 1042.24,-115.575 1052.7,-117.313 1051.5,-110.416"/>
</g>
<!-- Node26&#45;&gt;Node21 -->
<g id="edge42" class="edge"><title>Node26&#45;&gt;Node21</title>
<path fill="none" stroke="midnightblue" d="M1051.39,-109.699C1087.82,-99.507 1140.59,-84.7429 1173.56,-75.5164"/>
<polygon fill="midnightblue" stroke="midnightblue" points="1050.27,-106.378 1041.58,-112.444 1052.15,-113.12 1050.27,-106.378"/>
</g>
<!-- Node27 -->
<g id="node27" class="node"><title>Node27</title>
<g id="a_node27"><a xlink:href="../../d4/d10/manager_8c.html" target="_top" xlink:title="manager.c">
<polygon fill="none" stroke="black" points="1078,-56.5 1078,-75.5 1140,-75.5 1140,-56.5 1078,-56.5"/>
<text text-anchor="middle" x="1109" y="-63.5" font-family="Helvetica,sans-Serif" font-size="10.00">manager.c</text>
</a>
</g>
</g>
<!-- Node26&#45;&gt;Node27 -->
<g id="edge44" class="edge"><title>Node26&#45;&gt;Node27</title>
<path fill="none" stroke="midnightblue" d="M1035.59,-107.453C1053.68,-97.4835 1077.73,-84.2279 1093.29,-75.6545"/>
<polygon fill="midnightblue" stroke="midnightblue" points="1033.81,-104.432 1026.75,-112.324 1037.19,-110.563 1033.81,-104.432"/>
</g>
<!-- Node28&#45;&gt;Node10 -->
<g id="edge48" class="edge"><title>Node28&#45;&gt;Node10</title>
<path fill="none" stroke="midnightblue" d="M185.221,-162.427C166.622,-148.905 137.852,-128.448 112,-112 90.8956,-98.5725 65.7029,-84.3513 49.7763,-75.5736"/>
<polygon fill="midnightblue" stroke="midnightblue" points="183.337,-165.386 193.476,-168.46 187.467,-159.734 183.337,-165.386"/>
</g>
<!-- Node28&#45;&gt;Node22 -->
<g id="edge46" class="edge"><title>Node28&#45;&gt;Node22</title>
<path fill="none" stroke="midnightblue" d="M231.548,-163.726C251.546,-153.727 278.387,-140.307 295.691,-131.655"/>
<polygon fill="midnightblue" stroke="midnightblue" points="229.731,-160.721 222.352,-168.324 232.862,-166.982 229.731,-160.721"/>
</g>
<!-- Node28&#45;&gt;Node24 -->
<g id="edge47" class="edge"><title>Node28&#45;&gt;Node24</title>
<path fill="none" stroke="midnightblue" d="M205,-157.805C205,-148.91 205,-138.78 205,-131.751"/>
<polygon fill="midnightblue" stroke="midnightblue" points="201.5,-158.083 205,-168.083 208.5,-158.083 201.5,-158.083"/>
</g>
<!-- Node29 -->
<g id="node29" class="node"><title>Node29</title>
<g id="a_node29"><a xlink:href="../../d3/d8d/user_8c.html" target="_top" xlink:title="user.c">
<polygon fill="none" stroke="black" points="60,-112.5 60,-131.5 104,-131.5 104,-112.5 60,-112.5"/>
<text text-anchor="middle" x="82" y="-119.5" font-family="Helvetica,sans-Serif" font-size="10.00">user.c</text>
</a>
</g>
</g>
<!-- Node28&#45;&gt;Node29 -->
<g id="edge49" class="edge"><title>Node28&#45;&gt;Node29</title>
<path fill="none" stroke="midnightblue" d="M176.227,-164.368C153.193,-154.255 121.516,-140.349 101.399,-131.516"/>
<polygon fill="midnightblue" stroke="midnightblue" points="174.947,-167.628 185.51,-168.444 177.761,-161.219 174.947,-167.628"/>
</g>
</g>
</svg>
