<?xml version="1.0" encoding="UTF-8" standalone="no"?>
<!DOCTYPE svg PUBLIC "-//W3C//DTD SVG 1.1//EN"
 "http://www.w3.org/Graphics/SVG/1.1/DTD/svg11.dtd">
<!-- Generated by graphviz version 2.36.0 (20140111.2315)
 -->
<!-- Title: settings_types.h Pages: 1 -->
<svg width="1908pt" height="376pt"
 viewBox="0.00 0.00 1908.00 376.00" xmlns="http://www.w3.org/2000/svg" xmlns:xlink="http://www.w3.org/1999/xlink">
<g id="graph0" class="graph" transform="scale(1 1) rotate(0) translate(4 372)">
<title>settings_types.h</title>
<!-- Node1 -->
<g id="node1" class="node"><title>Node1</title>
<polygon fill="#bfbfbf" stroke="black" points="810.5,-348.5 810.5,-367.5 899.5,-367.5 899.5,-348.5 810.5,-348.5"/>
<text text-anchor="middle" x="855" y="-355.5" font-family="Helvetica,sans-Serif" font-size="10.00">settings_types.h</text>
</g>
<!-- Node2 -->
<g id="node2" class="node"><title>Node2</title>
<g id="a_node2"><a xlink:href="../../db/d63/array_8h.html" target="_top" xlink:title="collections/array.h">
<polygon fill="none" stroke="black" points="807,-292.5 807,-311.5 903,-311.5 903,-292.5 807,-292.5"/>
<text text-anchor="middle" x="855" y="-299.5" font-family="Helvetica,sans-Serif" font-size="10.00">collections/array.h</text>
</a>
</g>
</g>
<!-- Node1&#45;&gt;Node2 -->
<g id="edge1" class="edge"><title>Node1&#45;&gt;Node2</title>
<path fill="none" stroke="midnightblue" d="M855,-348.083C855,-341.006 855,-330.861 855,-321.986"/>
<polygon fill="midnightblue" stroke="midnightblue" points="858.5,-321.751 855,-311.751 851.5,-321.751 858.5,-321.751"/>
</g>
<!-- Node3 -->
<g id="node3" class="node"><title>Node3</title>
<g id="a_node3"><a xlink:href="../../d1/d47/enumerator_8h.html" target="_top" xlink:title="collections/enumerator.h">
<polygon fill="none" stroke="black" points="793.5,-236.5 793.5,-255.5 916.5,-255.5 916.5,-236.5 793.5,-236.5"/>
<text text-anchor="middle" x="855" y="-243.5" font-family="Helvetica,sans-Serif" font-size="10.00">collections/enumerator.h</text>
</a>
</g>
</g>
<!-- Node2&#45;&gt;Node3 -->
<g id="edge2" class="edge"><title>Node2&#45;&gt;Node3</title>
<path fill="none" stroke="midnightblue" d="M855,-292.083C855,-285.006 855,-274.861 855,-265.986"/>
<polygon fill="midnightblue" stroke="midnightblue" points="858.5,-265.751 855,-255.751 851.5,-265.751 858.5,-265.751"/>
</g>
<!-- Node4 -->
<g id="node4" class="node"><title>Node4</title>
<g id="a_node4"><a xlink:href="../../d5/d60/utils_8h.html" target="_top" xlink:title="utils/utils.h">
<polygon fill="none" stroke="black" points="823,-180.5 823,-199.5 887,-199.5 887,-180.5 823,-180.5"/>
<text text-anchor="middle" x="855" y="-187.5" font-family="Helvetica,sans-Serif" font-size="10.00">utils/utils.h</text>
</a>
</g>
</g>
<!-- Node3&#45;&gt;Node4 -->
<g id="edge3" class="edge"><title>Node3&#45;&gt;Node4</title>
<path fill="none" stroke="midnightblue" d="M855,-236.083C855,-229.006 855,-218.861 855,-209.986"/>
<polygon fill="midnightblue" stroke="midnightblue" points="858.5,-209.751 855,-199.751 851.5,-209.751 858.5,-209.751"/>
</g>
<!-- Node5 -->
<g id="node5" class="node"><title>Node5</title>
<polygon fill="none" stroke="#bfbfbf" points="0,-124.5 0,-143.5 68,-143.5 68,-124.5 0,-124.5"/>
<text text-anchor="middle" x="34" y="-131.5" font-family="Helvetica,sans-Serif" font-size="10.00">sys/types.h</text>
</g>
<!-- Node4&#45;&gt;Node5 -->
<g id="edge4" class="edge"><title>Node4&#45;&gt;Node5</title>
<path fill="none" stroke="midnightblue" d="M822.838,-188.591C716.675,-186.928 367.881,-178.979 82,-144 80.7219,-143.844 79.4264,-143.674 78.1202,-143.494"/>
<polygon fill="midnightblue" stroke="midnightblue" points="78.4228,-139.999 68.0053,-141.929 77.3527,-146.917 78.4228,-139.999"/>
</g>
<!-- Node6 -->
<g id="node6" class="node"><title>Node6</title>
<polygon fill="none" stroke="#bfbfbf" points="311,-0.5 311,-19.5 359,-19.5 359,-0.5 311,-0.5"/>
<text text-anchor="middle" x="335" y="-7.5" font-family="Helvetica,sans-Serif" font-size="10.00">stdlib.h</text>
</g>
<!-- Node4&#45;&gt;Node6 -->
<g id="edge5" class="edge"><title>Node4&#45;&gt;Node6</title>
<path fill="none" stroke="midnightblue" d="M822.975,-188.263C684.073,-184.915 139.615,-170.157 115,-144 53.5077,-78.6547 224.281,-33.918 300.436,-17.7219"/>
<polygon fill="midnightblue" stroke="midnightblue" points="301.441,-21.0879 310.52,-15.6268 300.017,-14.2343 301.441,-21.0879"/>
</g>
<!-- Node7 -->
<g id="node7" class="node"><title>Node7</title>
<polygon fill="none" stroke="#bfbfbf" points="124,-124.5 124,-143.5 176,-143.5 176,-124.5 124,-124.5"/>
<text text-anchor="middle" x="150" y="-131.5" font-family="Helvetica,sans-Serif" font-size="10.00">stddef.h</text>
</g>
<!-- Node4&#45;&gt;Node7 -->
<g id="edge6" class="edge"><title>Node4&#45;&gt;Node7</title>
<path fill="none" stroke="midnightblue" d="M822.684,-188.936C726.82,-188.303 435.683,-183.177 186.238,-143.901"/>
<polygon fill="midnightblue" stroke="midnightblue" points="186.69,-140.428 176.264,-142.308 185.587,-147.341 186.69,-140.428"/>
</g>
<!-- Node8 -->
<g id="node8" class="node"><title>Node8</title>
<polygon fill="none" stroke="#bfbfbf" points="194,-124.5 194,-143.5 256,-143.5 256,-124.5 194,-124.5"/>
<text text-anchor="middle" x="225" y="-131.5" font-family="Helvetica,sans-Serif" font-size="10.00">sys/time.h</text>
</g>
<!-- Node4&#45;&gt;Node8 -->
<g id="edge7" class="edge"><title>Node4&#45;&gt;Node8</title>
<path fill="none" stroke="midnightblue" d="M822.839,-188.186C735.084,-185.619 484.07,-175.959 266.375,-143.998"/>
<polygon fill="midnightblue" stroke="midnightblue" points="266.768,-140.518 256.362,-142.508 265.738,-147.442 266.768,-140.518"/>
</g>
<!-- Node9 -->
<g id="node9" class="node"><title>Node9</title>
<g id="a_node9"><a xlink:href="../../da/d66/string_8h.html" target="_top" xlink:title="string.h">
<polygon fill="none" stroke="black" points="274.5,-124.5 274.5,-143.5 323.5,-143.5 323.5,-124.5 274.5,-124.5"/>
<text text-anchor="middle" x="299" y="-131.5" font-family="Helvetica,sans-Serif" font-size="10.00">string.h</text>
</a>
</g>
</g>
<!-- Node4&#45;&gt;Node9 -->
<g id="edge8" class="edge"><title>Node4&#45;&gt;Node9</title>
<path fill="none" stroke="midnightblue" d="M822.976,-188.162C742.331,-185.644 524.329,-176.312 333.691,-143.804"/>
<polygon fill="midnightblue" stroke="midnightblue" points="334.223,-140.344 323.773,-142.087 333.029,-147.241 334.223,-140.344"/>
</g>
<!-- Node10 -->
<g id="node10" class="node"><title>Node10</title>
<polygon fill="none" stroke="#bfbfbf" points="342,-124.5 342,-143.5 404,-143.5 404,-124.5 342,-124.5"/>
<text text-anchor="middle" x="373" y="-131.5" font-family="Helvetica,sans-Serif" font-size="10.00">arpa/inet.h</text>
</g>
<!-- Node4&#45;&gt;Node10 -->
<g id="edge9" class="edge"><title>Node4&#45;&gt;Node10</title>
<path fill="none" stroke="midnightblue" d="M822.934,-187.058C751.349,-182.441 572.968,-169.371 414.312,-144.04"/>
<polygon fill="midnightblue" stroke="midnightblue" points="414.804,-140.574 404.374,-142.432 413.687,-147.484 414.804,-140.574"/>
</g>
<!-- Node11 -->
<g id="node11" class="node"><title>Node11</title>
<polygon fill="none" stroke="#bfbfbf" points="422.5,-124.5 422.5,-143.5 495.5,-143.5 495.5,-124.5 422.5,-124.5"/>
<text text-anchor="middle" x="459" y="-131.5" font-family="Helvetica,sans-Serif" font-size="10.00">sys/socket.h</text>
</g>
<!-- Node4&#45;&gt;Node11 -->
<g id="edge10" class="edge"><title>Node4&#45;&gt;Node11</title>
<path fill="none" stroke="midnightblue" d="M822.95,-185.65C762.722,-179.191 628.343,-164.007 505.733,-144.197"/>
<polygon fill="midnightblue" stroke="midnightblue" points="506.232,-140.732 495.799,-142.577 505.105,-147.641 506.232,-140.732"/>
</g>
<!-- Node12 -->
<g id="node12" class="node"><title>Node12</title>
<polygon fill="none" stroke="#bfbfbf" points="513.5,-124.5 513.5,-143.5 562.5,-143.5 562.5,-124.5 513.5,-124.5"/>
<text text-anchor="middle" x="538" y="-131.5" font-family="Helvetica,sans-Serif" font-size="10.00">netdb.h</text>
</g>
<!-- Node4&#45;&gt;Node12 -->
<g id="edge11" class="edge"><title>Node4&#45;&gt;Node12</title>
<path fill="none" stroke="midnightblue" d="M822.846,-185.068C771.737,-178.568 668.676,-164.437 572.66,-144.182"/>
<polygon fill="midnightblue" stroke="midnightblue" points="573.306,-140.741 562.795,-142.074 571.843,-147.587 573.306,-140.741"/>
</g>
<!-- Node13 -->
<g id="node13" class="node"><title>Node13</title>
<polygon fill="none" stroke="#bfbfbf" points="580.5,-124.5 580.5,-143.5 645.5,-143.5 645.5,-124.5 580.5,-124.5"/>
<text text-anchor="middle" x="613" y="-131.5" font-family="Helvetica,sans-Serif" font-size="10.00">netinet/in.h</text>
</g>
<!-- Node4&#45;&gt;Node13 -->
<g id="edge12" class="edge"><title>Node4&#45;&gt;Node13</title>
<path fill="none" stroke="midnightblue" d="M822.864,-181.829C779.862,-172.234 703.488,-155.191 655.691,-144.526"/>
<polygon fill="midnightblue" stroke="midnightblue" points="656.178,-141.049 645.656,-142.287 654.654,-147.881 656.178,-141.049"/>
</g>
<!-- Node14 -->
<g id="node14" class="node"><title>Node14</title>
<polygon fill="none" stroke="#bfbfbf" points="663.5,-124.5 663.5,-143.5 714.5,-143.5 714.5,-124.5 663.5,-124.5"/>
<text text-anchor="middle" x="689" y="-131.5" font-family="Helvetica,sans-Serif" font-size="10.00">sched.h</text>
</g>
<!-- Node4&#45;&gt;Node14 -->
<g id="edge13" class="edge"><title>Node4&#45;&gt;Node14</title>
<path fill="none" stroke="midnightblue" d="M828.697,-180.444C800.484,-171.266 755.53,-156.642 724.266,-146.472"/>
<polygon fill="midnightblue" stroke="midnightblue" points="725.227,-143.104 714.635,-143.339 723.061,-149.761 725.227,-143.104"/>
</g>
<!-- Node15 -->
<g id="node15" class="node"><title>Node15</title>
<polygon fill="none" stroke="#bfbfbf" points="733,-124.5 733,-143.5 773,-143.5 773,-124.5 733,-124.5"/>
<text text-anchor="middle" x="753" y="-131.5" font-family="Helvetica,sans-Serif" font-size="10.00">poll.h</text>
</g>
<!-- Node4&#45;&gt;Node15 -->
<g id="edge14" class="edge"><title>Node4&#45;&gt;Node15</title>
<path fill="none" stroke="midnightblue" d="M838.612,-180.324C822.329,-171.703 797.133,-158.364 778.284,-148.386"/>
<polygon fill="midnightblue" stroke="midnightblue" points="779.823,-145.24 769.347,-143.655 776.548,-151.427 779.823,-145.24"/>
</g>
<!-- Node16 -->
<g id="node16" class="node"><title>Node16</title>
<polygon fill="none" stroke="#bfbfbf" points="791,-124.5 791,-143.5 841,-143.5 841,-124.5 791,-124.5"/>
<text text-anchor="middle" x="816" y="-131.5" font-family="Helvetica,sans-Serif" font-size="10.00">signal.h</text>
</g>
<!-- Node4&#45;&gt;Node16 -->
<g id="edge15" class="edge"><title>Node4&#45;&gt;Node16</title>
<path fill="none" stroke="midnightblue" d="M848.56,-180.083C843.051,-172.455 834.969,-161.264 828.235,-151.941"/>
<polygon fill="midnightblue" stroke="midnightblue" points="831.013,-149.809 822.32,-143.751 825.338,-153.907 831.013,-149.809"/>
</g>
<!-- Node17 -->
<g id="node17" class="node"><title>Node17</title>
<g id="a_node17"><a xlink:href="../../d9/d49/types_8h.html" target="_top" xlink:title="utils/types.h">
<polygon fill="none" stroke="black" points="859,-124.5 859,-143.5 929,-143.5 929,-124.5 859,-124.5"/>
<text text-anchor="middle" x="894" y="-131.5" font-family="Helvetica,sans-Serif" font-size="10.00">utils/types.h</text>
</a>
</g>
</g>
<!-- Node4&#45;&gt;Node17 -->
<g id="edge16" class="edge"><title>Node4&#45;&gt;Node17</title>
<path fill="none" stroke="midnightblue" d="M861.44,-180.083C866.949,-172.455 875.031,-161.264 881.765,-151.941"/>
<polygon fill="midnightblue" stroke="midnightblue" points="884.662,-153.907 887.68,-143.751 878.987,-149.809 884.662,-153.907"/>
</g>
<!-- Node18 -->
<g id="node18" class="node"><title>Node18</title>
<g id="a_node18"><a xlink:href="../../d0/d9b/enum_8h.html" target="_top" xlink:title="enum.h">
<polygon fill="none" stroke="black" points="947.5,-124.5 947.5,-143.5 996.5,-143.5 996.5,-124.5 947.5,-124.5"/>
<text text-anchor="middle" x="972" y="-131.5" font-family="Helvetica,sans-Serif" font-size="10.00">enum.h</text>
</a>
</g>
</g>
<!-- Node4&#45;&gt;Node18 -->
<g id="edge17" class="edge"><title>Node4&#45;&gt;Node18</title>
<path fill="none" stroke="midnightblue" d="M873.539,-180.444C892.623,-171.636 922.575,-157.812 944.436,-147.722"/>
<polygon fill="midnightblue" stroke="midnightblue" points="945.935,-150.885 953.548,-143.516 943.001,-144.529 945.935,-150.885"/>
</g>
<!-- Node20 -->
<g id="node20" class="node"><title>Node20</title>
<g id="a_node20"><a xlink:href="../../d8/d19/atomics_8h.html" target="_top" xlink:title="utils/atomics.h">
<polygon fill="none" stroke="black" points="1015,-124.5 1015,-143.5 1095,-143.5 1095,-124.5 1015,-124.5"/>
<text text-anchor="middle" x="1055" y="-131.5" font-family="Helvetica,sans-Serif" font-size="10.00">utils/atomics.h</text>
</a>
</g>
</g>
<!-- Node4&#45;&gt;Node20 -->
<g id="edge20" class="edge"><title>Node4&#45;&gt;Node20</title>
<path fill="none" stroke="midnightblue" d="M886.691,-180.444C921.068,-171.162 976.077,-156.309 1013.79,-146.127"/>
<polygon fill="midnightblue" stroke="midnightblue" points="1014.72,-149.502 1023.46,-143.516 1012.89,-142.744 1014.72,-149.502"/>
</g>
<!-- Node21 -->
<g id="node21" class="node"><title>Node21</title>
<g id="a_node21"><a xlink:href="../../d1/ddf/align_8h.html" target="_top" xlink:title="utils/align.h">
<polygon fill="none" stroke="black" points="1113,-124.5 1113,-143.5 1179,-143.5 1179,-124.5 1113,-124.5"/>
<text text-anchor="middle" x="1146" y="-131.5" font-family="Helvetica,sans-Serif" font-size="10.00">utils/align.h</text>
</a>
</g>
</g>
<!-- Node4&#45;&gt;Node21 -->
<g id="edge21" class="edge"><title>Node4&#45;&gt;Node21</title>
<path fill="none" stroke="midnightblue" d="M887.295,-183.507C933.027,-175.653 1019.51,-160.527 1102.69,-144.213"/>
<polygon fill="midnightblue" stroke="midnightblue" points="1103.41,-147.637 1112.55,-142.27 1102.06,-140.769 1103.41,-147.637"/>
</g>
<!-- Node22 -->
<g id="node22" class="node"><title>Node22</title>
<g id="a_node22"><a xlink:href="../../d5/d17/byteorder_8h.html" target="_top" xlink:title="utils/byteorder.h">
<polygon fill="none" stroke="black" points="1197,-124.5 1197,-143.5 1283,-143.5 1283,-124.5 1197,-124.5"/>
<text text-anchor="middle" x="1240" y="-131.5" font-family="Helvetica,sans-Serif" font-size="10.00">utils/byteorder.h</text>
</a>
</g>
</g>
<!-- Node4&#45;&gt;Node22 -->
<g id="edge22" class="edge"><title>Node4&#45;&gt;Node22</title>
<path fill="none" stroke="midnightblue" d="M887.203,-185.051C945.025,-177.874 1070.5,-161.904 1186.75,-144.145"/>
<polygon fill="midnightblue" stroke="midnightblue" points="1187.54,-147.565 1196.89,-142.588 1186.47,-140.647 1187.54,-147.565"/>
</g>
<!-- Node23 -->
<g id="node23" class="node"><title>Node23</title>
<g id="a_node23"><a xlink:href="../../dc/d18/memory_8h.html" target="_top" xlink:title="utils/memory.h">
<polygon fill="none" stroke="black" points="1301.5,-124.5 1301.5,-143.5 1382.5,-143.5 1382.5,-124.5 1301.5,-124.5"/>
<text text-anchor="middle" x="1342" y="-131.5" font-family="Helvetica,sans-Serif" font-size="10.00">utils/memory.h</text>
</a>
</g>
</g>
<!-- Node4&#45;&gt;Node23 -->
<g id="edge23" class="edge"><title>Node4&#45;&gt;Node23</title>
<path fill="none" stroke="midnightblue" d="M887.174,-186.524C958.094,-180.887 1133.4,-165.972 1291.03,-144.031"/>
<polygon fill="midnightblue" stroke="midnightblue" points="1291.97,-147.433 1301.38,-142.576 1290.99,-140.502 1291.97,-147.433"/>
</g>
<!-- Node24 -->
<g id="node24" class="node"><title>Node24</title>
<g id="a_node24"><a xlink:href="../../d9/dd1/strerror_8h.html" target="_top" xlink:title="utils/strerror.h">
<polygon fill="none" stroke="black" points="1400.5,-124.5 1400.5,-143.5 1477.5,-143.5 1477.5,-124.5 1400.5,-124.5"/>
<text text-anchor="middle" x="1439" y="-131.5" font-family="Helvetica,sans-Serif" font-size="10.00">utils/strerror.h</text>
</a>
</g>
</g>
<!-- Node4&#45;&gt;Node24 -->
<g id="edge24" class="edge"><title>Node4&#45;&gt;Node24</title>
<path fill="none" stroke="midnightblue" d="M887.144,-187.443C969.199,-183.225 1193.23,-170.186 1390.32,-143.949"/>
<polygon fill="midnightblue" stroke="midnightblue" points="1390.84,-147.411 1400.28,-142.609 1389.9,-140.474 1390.84,-147.411"/>
</g>
<!-- Node25 -->
<g id="node25" class="node"><title>Node25</title>
<g id="a_node25"><a xlink:href="../../d1/d13/status_8h.html" target="_top" xlink:title="utils/status.h">
<polygon fill="none" stroke="black" points="1495.5,-124.5 1495.5,-143.5 1568.5,-143.5 1568.5,-124.5 1495.5,-124.5"/>
<text text-anchor="middle" x="1532" y="-131.5" font-family="Helvetica,sans-Serif" font-size="10.00">utils/status.h</text>
</a>
</g>
</g>
<!-- Node4&#45;&gt;Node25 -->
<g id="edge25" class="edge"><title>Node4&#45;&gt;Node25</title>
<path fill="none" stroke="midnightblue" d="M887.318,-188.087C979.234,-185.197 1250.1,-174.635 1485.3,-143.914"/>
<polygon fill="midnightblue" stroke="midnightblue" points="1485.95,-147.357 1495.41,-142.577 1485.04,-140.418 1485.95,-147.357"/>
</g>
<!-- Node26 -->
<g id="node26" class="node"><title>Node26</title>
<g id="a_node26"><a xlink:href="../../de/d10/object_8h.html" target="_top" xlink:title="utils/object.h">
<polygon fill="none" stroke="black" points="1587,-124.5 1587,-143.5 1659,-143.5 1659,-124.5 1587,-124.5"/>
<text text-anchor="middle" x="1623" y="-131.5" font-family="Helvetica,sans-Serif" font-size="10.00">utils/object.h</text>
</a>
</g>
</g>
<!-- Node4&#45;&gt;Node26 -->
<g id="edge26" class="edge"><title>Node4&#45;&gt;Node26</title>
<path fill="none" stroke="midnightblue" d="M887.167,-188.495C988.803,-186.58 1311.98,-178.036 1577,-144 1577.1,-143.987 1577.2,-143.974 1577.3,-143.961"/>
<polygon fill="midnightblue" stroke="midnightblue" points="1577.54,-147.464 1586.91,-142.524 1576.51,-140.541 1577.54,-147.464"/>
</g>
<!-- Node27 -->
<g id="node27" class="node"><title>Node27</title>
<g id="a_node27"><a xlink:href="../../d7/dd4/path_8h.html" target="_top" xlink:title="utils/path.h">
<polygon fill="none" stroke="black" points="1677.5,-124.5 1677.5,-143.5 1742.5,-143.5 1742.5,-124.5 1677.5,-124.5"/>
<text text-anchor="middle" x="1710" y="-131.5" font-family="Helvetica,sans-Serif" font-size="10.00">utils/path.h</text>
</a>
</g>
</g>
<!-- Node4&#45;&gt;Node27 -->
<g id="edge27" class="edge"><title>Node4&#45;&gt;Node27</title>
<path fill="none" stroke="midnightblue" d="M887.317,-189.014C996.033,-188.682 1358.51,-184.5 1667.04,-143.899"/>
<polygon fill="midnightblue" stroke="midnightblue" points="1667.62,-147.353 1677.07,-142.563 1666.7,-140.414 1667.62,-147.353"/>
</g>
<!-- Node28 -->
<g id="node28" class="node"><title>Node28</title>
<g id="a_node28"><a xlink:href="../../de/df7/time_8h.html" target="_top" xlink:title="utils/time.h">
<polygon fill="none" stroke="black" points="1760.5,-124.5 1760.5,-143.5 1825.5,-143.5 1825.5,-124.5 1760.5,-124.5"/>
<text text-anchor="middle" x="1793" y="-131.5" font-family="Helvetica,sans-Serif" font-size="10.00">utils/time.h</text>
</a>
</g>
</g>
<!-- Node4&#45;&gt;Node28 -->
<g id="edge28" class="edge"><title>Node4&#45;&gt;Node28</title>
<path fill="none" stroke="midnightblue" d="M887.313,-189.249C1003.02,-189.747 1407.51,-188.111 1749.96,-143.9"/>
<polygon fill="midnightblue" stroke="midnightblue" points="1750.61,-147.345 1760.07,-142.58 1749.7,-140.404 1750.61,-147.345"/>
</g>
<!-- Node29 -->
<g id="node29" class="node"><title>Node29</title>
<g id="a_node29"><a xlink:href="../../dd/d71/tty_8h.html" target="_top" xlink:title="utils/tty.h">
<polygon fill="none" stroke="black" points="1843.5,-124.5 1843.5,-143.5 1900.5,-143.5 1900.5,-124.5 1843.5,-124.5"/>
<text text-anchor="middle" x="1872" y="-131.5" font-family="Helvetica,sans-Serif" font-size="10.00">utils/tty.h</text>
</a>
</g>
</g>
<!-- Node4&#45;&gt;Node29 -->
<g id="edge29" class="edge"><title>Node4&#45;&gt;Node29</title>
<path fill="none" stroke="midnightblue" d="M887.229,-188.328C1032.18,-185.182 1625.31,-170.976 1833.56,-143.709"/>
<polygon fill="midnightblue" stroke="midnightblue" points="1834.04,-147.176 1843.47,-142.359 1833.09,-140.24 1834.04,-147.176"/>
</g>
<!-- Node19 -->
<g id="node19" class="node"><title>Node19</title>
<g id="a_node19"><a xlink:href="../../dc/d6a/printf__hook_8h.html" target="_top" xlink:title="utils/printf_hook/printf\l_hook.h">
<polygon fill="none" stroke="black" points="520,-57 520,-87 630,-87 630,-57 520,-57"/>
<text text-anchor="start" x="528" y="-75" font-family="Helvetica,sans-Serif" font-size="10.00">utils/printf_hook/printf</text>
<text text-anchor="middle" x="575" y="-64" font-family="Helvetica,sans-Serif" font-size="10.00">_hook.h</text>
</a>
</g>
</g>
<!-- Node18&#45;&gt;Node19 -->
<g id="edge18" class="edge"><title>Node18&#45;&gt;Node19</title>
<path fill="none" stroke="midnightblue" d="M947.198,-126.069C944.113,-125.316 940.993,-124.604 938,-124 834.63,-103.134 712.99,-87.9128 640.042,-79.771"/>
<polygon fill="midnightblue" stroke="midnightblue" points="640.403,-76.2896 630.078,-78.6692 639.633,-83.2472 640.403,-76.2896"/>
</g>
<!-- Node19&#45;&gt;Node6 -->
<g id="edge19" class="edge"><title>Node19&#45;&gt;Node6</title>
<path fill="none" stroke="midnightblue" d="M519.939,-57.2348C473.443,-45.6108 408.333,-29.3333 369.06,-19.515"/>
<polygon fill="midnightblue" stroke="midnightblue" points="369.732,-16.0755 359.182,-17.0455 368.035,-22.8664 369.732,-16.0755"/>
</g>
</g>
</svg>
