<?xml version="1.0" encoding="UTF-8" standalone="no"?>
<!DOCTYPE svg PUBLIC "-//W3C//DTD SVG 1.1//EN"
 "http://www.w3.org/Graphics/SVG/1.1/DTD/svg11.dtd">
<!-- Generated by graphviz version 2.36.0 (20140111.2315)
 -->
<!-- Title: iface_create Pages: 1 -->
<svg width="290pt" height="142pt"
 viewBox="0.00 0.00 290.00 142.00" xmlns="http://www.w3.org/2000/svg" xmlns:xlink="http://www.w3.org/1999/xlink">
<g id="graph0" class="graph" transform="scale(1 1) rotate(0) translate(4 138)">
<title>iface_create</title>
<!-- Node1 -->
<g id="node1" class="node"><title>Node1</title>
<polygon fill="#bfbfbf" stroke="black" points="0,-57.5 0,-76.5 70,-76.5 70,-57.5 0,-57.5"/>
<text text-anchor="middle" x="35" y="-64.5" font-family="Helvetica,sans-Serif" font-size="10.00">iface_create</text>
</g>
<!-- Node2 -->
<g id="node2" class="node"><title>Node2</title>
<g id="a_node2"><a xlink:href="../../dd/da2/iface_8c.html#a756b9af290f693a714648811dfa490d1" target="_top" xlink:title="create_tap">
<polygon fill="none" stroke="black" points="109,-114.5 109,-133.5 171,-133.5 171,-114.5 109,-114.5"/>
<text text-anchor="middle" x="140" y="-121.5" font-family="Helvetica,sans-Serif" font-size="10.00">create_tap</text>
</a>
</g>
</g>
<!-- Node1&#45;&gt;Node2 -->
<g id="edge1" class="edge"><title>Node1&#45;&gt;Node2</title>
<path fill="none" stroke="midnightblue" d="M53.4725,-76.6693C69.7737,-85.6903 94.3076,-99.2673 112.924,-109.57"/>
<polygon fill="midnightblue" stroke="midnightblue" points="111.341,-112.694 121.785,-114.474 114.731,-106.569 111.341,-112.694"/>
</g>
<!-- Node3 -->
<g id="node3" class="node"><title>Node3</title>
<g id="a_node3"><a xlink:href="../../dd/da2/iface_8c.html#aec9c5e87dea3a245d63a6eb2dc6e8168" target="_top" xlink:title="destroy_tap">
<polygon fill="none" stroke="black" points="106,-76.5 106,-95.5 174,-95.5 174,-76.5 106,-76.5"/>
<text text-anchor="middle" x="140" y="-83.5" font-family="Helvetica,sans-Serif" font-size="10.00">destroy_tap</text>
</a>
</g>
</g>
<!-- Node1&#45;&gt;Node3 -->
<g id="edge2" class="edge"><title>Node1&#45;&gt;Node3</title>
<path fill="none" stroke="midnightblue" d="M70.0115,-73.274C78.2663,-74.7967 87.2014,-76.4449 95.8175,-78.0343"/>
<polygon fill="midnightblue" stroke="midnightblue" points="95.2565,-81.4898 105.726,-79.862 96.5264,-74.6059 95.2565,-81.4898"/>
</g>
<!-- Node4 -->
<g id="node4" class="node"><title>Node4</title>
<g id="a_node4"><a xlink:href="../../dd/da2/iface_8c.html#a317e3e47ec4861b011dad60b3dcbe8f8" target="_top" xlink:title="iface_control">
<polygon fill="none" stroke="black" points="210,-57.5 210,-76.5 282,-76.5 282,-57.5 210,-57.5"/>
<text text-anchor="middle" x="246" y="-64.5" font-family="Helvetica,sans-Serif" font-size="10.00">iface_control</text>
</a>
</g>
</g>
<!-- Node1&#45;&gt;Node4 -->
<g id="edge5" class="edge"><title>Node1&#45;&gt;Node4</title>
<path fill="none" stroke="midnightblue" d="M70.0446,-67C105.403,-67 160.904,-67 199.893,-67"/>
<polygon fill="midnightblue" stroke="midnightblue" points="199.923,-70.5001 209.923,-67 199.923,-63.5001 199.923,-70.5001"/>
</g>
<!-- Node5 -->
<g id="node5" class="node"><title>Node5</title>
<g id="a_node5"><a xlink:href="../../da/dfc/settings__parser_8c.html#af07d89f5ceaea0c7c8252cc41fd75f37" target="_top" xlink:title="free">
<polygon fill="none" stroke="black" points="123.5,-0.5 123.5,-19.5 156.5,-19.5 156.5,-0.5 123.5,-0.5"/>
<text text-anchor="middle" x="140" y="-7.5" font-family="Helvetica,sans-Serif" font-size="10.00">free</text>
</a>
</g>
</g>
<!-- Node1&#45;&gt;Node5 -->
<g id="edge4" class="edge"><title>Node1&#45;&gt;Node5</title>
<path fill="none" stroke="midnightblue" d="M53.4725,-57.3307C70.2647,-48.038 95.793,-33.9107 114.59,-23.5083"/>
<polygon fill="midnightblue" stroke="midnightblue" points="116.412,-26.5006 123.467,-18.5962 113.022,-20.3759 116.412,-26.5006"/>
</g>
<!-- Node3&#45;&gt;Node4 -->
<g id="edge3" class="edge"><title>Node3&#45;&gt;Node4</title>
<path fill="none" stroke="midnightblue" d="M174.192,-79.936C182.396,-78.4373 191.321,-76.8067 199.983,-75.2242"/>
<polygon fill="midnightblue" stroke="midnightblue" points="200.763,-78.6397 209.972,-73.3994 199.505,-71.7537 200.763,-78.6397"/>
</g>
</g>
</svg>
