<?xml version="1.0" encoding="UTF-8" standalone="no"?>
<!DOCTYPE svg PUBLIC "-//W3C//DTD SVG 1.1//EN"
 "http://www.w3.org/Graphics/SVG/1.1/DTD/svg11.dtd">
<!-- Generated by graphviz version 2.36.0 (20140111.2315)
 -->
<!-- Title: dnskey_public_key_load Pages: 1 -->
<svg width="994pt" height="159pt"
 viewBox="0.00 0.00 994.00 159.49" xmlns="http://www.w3.org/2000/svg" xmlns:xlink="http://www.w3.org/1999/xlink">
<g id="graph0" class="graph" transform="scale(1 1) rotate(0) translate(4 155.492)">
<title>dnskey_public_key_load</title>
<!-- Node1 -->
<g id="node1" class="node"><title>Node1</title>
<polygon fill="#bfbfbf" stroke="black" points="0.5,-49.9919 0.5,-68.9919 123.5,-68.9919 123.5,-49.9919 0.5,-49.9919"/>
<text text-anchor="middle" x="62" y="-56.9919" font-family="Helvetica,sans-Serif" font-size="10.00">dnskey_public_key_load</text>
</g>
<!-- Node2 -->
<g id="node2" class="node"><title>Node2</title>
<g id="a_node2"><a xlink:href="../../d7/d2c/dnskey__builder_8c.html#af6b0b612fd76cc932c45c090f2e214b0" target="_top" xlink:title="parse_public_key">
<polygon fill="none" stroke="black" points="170,-30.9919 170,-49.9919 262,-49.9919 262,-30.9919 170,-30.9919"/>
<text text-anchor="middle" x="216" y="-37.9919" font-family="Helvetica,sans-Serif" font-size="10.00">parse_public_key</text>
</a>
</g>
</g>
<!-- Node1&#45;&gt;Node2 -->
<g id="edge1" class="edge"><title>Node1&#45;&gt;Node2</title>
<path fill="none" stroke="midnightblue" d="M123.511,-51.928C135.421,-50.4392 147.861,-48.8842 159.593,-47.4178"/>
<polygon fill="midnightblue" stroke="midnightblue" points="160.201,-50.8691 169.689,-46.1557 159.332,-43.9232 160.201,-50.8691"/>
</g>
<!-- Node14 -->
<g id="node14" class="node"><title>Node14</title>
<g id="a_node14"><a xlink:href="../../d7/d2c/dnskey__builder_8c.html#adf18d642e4506f659318e6af7fd1ed44" target="_top" xlink:title="parse_rsa_public_key">
<polygon fill="none" stroke="black" points="160.5,-68.9919 160.5,-87.9919 271.5,-87.9919 271.5,-68.9919 160.5,-68.9919"/>
<text text-anchor="middle" x="216" y="-75.9919" font-family="Helvetica,sans-Serif" font-size="10.00">parse_rsa_public_key</text>
</a>
</g>
</g>
<!-- Node1&#45;&gt;Node14 -->
<g id="edge15" class="edge"><title>Node1&#45;&gt;Node14</title>
<path fill="none" stroke="midnightblue" d="M123.511,-67.0558C132.199,-68.1417 141.168,-69.2629 149.94,-70.3593"/>
<polygon fill="midnightblue" stroke="midnightblue" points="149.759,-73.8639 160.116,-71.6314 150.627,-66.918 149.759,-73.8639"/>
</g>
<!-- Node3 -->
<g id="node3" class="node"><title>Node3</title>
<g id="a_node3"><a xlink:href="../../d4/d87/group__chunk.html#gaaabd31666a00f250bb4a339c82373be8" target="_top" xlink:title="chunk_skip">
<polygon fill="none" stroke="black" points="308,-68.9919 308,-87.9919 374,-87.9919 374,-68.9919 308,-68.9919"/>
<text text-anchor="middle" x="341" y="-75.9919" font-family="Helvetica,sans-Serif" font-size="10.00">chunk_skip</text>
</a>
</g>
</g>
<!-- Node2&#45;&gt;Node3 -->
<g id="edge2" class="edge"><title>Node2&#45;&gt;Node3</title>
<path fill="none" stroke="midnightblue" d="M248.038,-50.0809C263.479,-54.8513 282.348,-60.6806 298.966,-65.8147"/>
<polygon fill="midnightblue" stroke="midnightblue" points="298.384,-69.2981 308.972,-68.9059 300.451,-62.61 298.384,-69.2981"/>
</g>
<!-- Node4 -->
<g id="node4" class="node"><title>Node4</title>
<g id="a_node4"><a xlink:href="../../d9/d7b/settings__lexer_8c.html#a33e91cd0cef6786e9e3a27ac67707207" target="_top" xlink:title="if">
<polygon fill="none" stroke="black" points="326.5,-30.9919 326.5,-49.9919 355.5,-49.9919 355.5,-30.9919 326.5,-30.9919"/>
<text text-anchor="middle" x="341" y="-37.9919" font-family="Helvetica,sans-Serif" font-size="10.00">if</text>
</a>
</g>
</g>
<!-- Node2&#45;&gt;Node4 -->
<g id="edge3" class="edge"><title>Node2&#45;&gt;Node4</title>
<path fill="none" stroke="midnightblue" d="M262.102,-40.4919C280.419,-40.4919 300.83,-40.4919 316.162,-40.4919"/>
<polygon fill="midnightblue" stroke="midnightblue" points="316.326,-43.992 326.326,-40.4919 316.326,-36.992 316.326,-43.992"/>
</g>
<!-- Node5 -->
<g id="node5" class="node"><title>Node5</title>
<g id="a_node5"><a xlink:href="../../d9/d7b/settings__lexer_8c.html#a7ae01c54e2bcf9fd7a55137fbb2a80ed" target="_top" xlink:title="settings_parser__create\l_buffer">
<polygon fill="none" stroke="black" points="410.5,-74.4919 410.5,-104.492 531.5,-104.492 531.5,-74.4919 410.5,-74.4919"/>
<text text-anchor="start" x="418.5" y="-92.4919" font-family="Helvetica,sans-Serif" font-size="10.00">settings_parser__create</text>
<text text-anchor="middle" x="471" y="-81.4919" font-family="Helvetica,sans-Serif" font-size="10.00">_buffer</text>
</a>
</g>
</g>
<!-- Node4&#45;&gt;Node5 -->
<g id="edge4" class="edge"><title>Node4&#45;&gt;Node5</title>
<path fill="none" stroke="midnightblue" d="M355.698,-45.7357C371.286,-51.703 397.629,-61.7873 421.099,-70.7719"/>
<polygon fill="midnightblue" stroke="midnightblue" points="420.01,-74.1027 430.6,-74.4092 422.513,-67.5654 420.01,-74.1027"/>
</g>
<!-- Node9 -->
<g id="node9" class="node"><title>Node9</title>
<g id="a_node9"><a xlink:href="../../d9/d7b/settings__lexer_8c.html#a33d4f53352a864e4f156061745955b95" target="_top" xlink:title="settings_parser__load\l_buffer_state">
<polygon fill="none" stroke="black" points="874,-31.4919 874,-61.4919 986,-61.4919 986,-31.4919 874,-31.4919"/>
<text text-anchor="start" x="882" y="-49.4919" font-family="Helvetica,sans-Serif" font-size="10.00">settings_parser__load</text>
<text text-anchor="middle" x="930" y="-38.4919" font-family="Helvetica,sans-Serif" font-size="10.00">_buffer_state</text>
</a>
</g>
</g>
<!-- Node4&#45;&gt;Node9 -->
<g id="edge11" class="edge"><title>Node4&#45;&gt;Node9</title>
<path fill="none" stroke="midnightblue" d="M355.664,-33.8371C369.117,-27.6813 390.434,-18.9746 410,-15.4919 597.463,17.8764 649.142,-10.2363 838,-34.4919 846.293,-35.557 855.009,-36.6895 863.627,-37.8172"/>
<polygon fill="midnightblue" stroke="midnightblue" points="863.296,-41.3037 873.667,-39.1344 864.207,-34.3632 863.296,-41.3037"/>
</g>
<!-- Node12 -->
<g id="node12" class="node"><title>Node12</title>
<g id="a_node12"><a xlink:href="../../d9/d7b/settings__lexer_8c.html#a929da0caf3950387991ecbd5e8eef08e" target="_top" xlink:title="settings_parser_ensure\l_buffer_stack">
<polygon fill="none" stroke="black" points="412,-25.4919 412,-55.4919 530,-55.4919 530,-25.4919 412,-25.4919"/>
<text text-anchor="start" x="420" y="-43.4919" font-family="Helvetica,sans-Serif" font-size="10.00">settings_parser_ensure</text>
<text text-anchor="middle" x="471" y="-32.4919" font-family="Helvetica,sans-Serif" font-size="10.00">_buffer_stack</text>
</a>
</g>
</g>
<!-- Node4&#45;&gt;Node12 -->
<g id="edge12" class="edge"><title>Node4&#45;&gt;Node12</title>
<path fill="none" stroke="midnightblue" d="M355.698,-40.4919C367.02,-40.4919 384.015,-40.4919 401.462,-40.4919"/>
<polygon fill="midnightblue" stroke="midnightblue" points="401.747,-43.992 411.747,-40.4919 401.747,-36.992 401.747,-43.992"/>
</g>
<!-- Node6 -->
<g id="node6" class="node"><title>Node6</title>
<g id="a_node6"><a xlink:href="../../d9/d7b/settings__lexer_8c.html#a4386e14dca16b9ec4faef188ba2d8d87" target="_top" xlink:title="settings_parser__init\l_buffer">
<polygon fill="none" stroke="black" points="573.5,-101.492 573.5,-131.492 680.5,-131.492 680.5,-101.492 573.5,-101.492"/>
<text text-anchor="start" x="581.5" y="-119.492" font-family="Helvetica,sans-Serif" font-size="10.00">settings_parser__init</text>
<text text-anchor="middle" x="627" y="-108.492" font-family="Helvetica,sans-Serif" font-size="10.00">_buffer</text>
</a>
</g>
</g>
<!-- Node5&#45;&gt;Node6 -->
<g id="edge5" class="edge"><title>Node5&#45;&gt;Node6</title>
<path fill="none" stroke="midnightblue" d="M531.54,-99.9308C541.931,-101.753 552.77,-103.653 563.244,-105.489"/>
<polygon fill="midnightblue" stroke="midnightblue" points="562.694,-108.946 573.148,-107.226 563.903,-102.051 562.694,-108.946"/>
</g>
<!-- Node10 -->
<g id="node10" class="node"><title>Node10</title>
<g id="a_node10"><a xlink:href="../../d9/d7b/settings__lexer_8c.html#a41352d68c36dd7a4a1aac4cb7517274d" target="_top" xlink:title="settings_parser_alloc">
<polygon fill="none" stroke="black" points="572.5,-62.9919 572.5,-81.9919 681.5,-81.9919 681.5,-62.9919 572.5,-62.9919"/>
<text text-anchor="middle" x="627" y="-69.9919" font-family="Helvetica,sans-Serif" font-size="10.00">settings_parser_alloc</text>
</a>
</g>
</g>
<!-- Node5&#45;&gt;Node10 -->
<g id="edge9" class="edge"><title>Node5&#45;&gt;Node10</title>
<path fill="none" stroke="midnightblue" d="M531.54,-82.9192C541.57,-81.812 552.017,-80.6588 562.151,-79.5401"/>
<polygon fill="midnightblue" stroke="midnightblue" points="562.598,-83.0122 572.153,-78.436 561.83,-76.0544 562.598,-83.0122"/>
</g>
<!-- Node7 -->
<g id="node7" class="node"><title>Node7</title>
<g id="a_node7"><a xlink:href="../../d9/d7b/settings__lexer_8c.html#ab4155ffea05dab2dafae68fd88a0517f" target="_top" xlink:title="isatty">
<polygon fill="none" stroke="black" points="759.5,-131.992 759.5,-150.992 800.5,-150.992 800.5,-131.992 759.5,-131.992"/>
<text text-anchor="middle" x="780" y="-138.992" font-family="Helvetica,sans-Serif" font-size="10.00">isatty</text>
</a>
</g>
</g>
<!-- Node6&#45;&gt;Node7 -->
<g id="edge6" class="edge"><title>Node6&#45;&gt;Node7</title>
<path fill="none" stroke="midnightblue" d="M680.812,-125.236C703.775,-129.037 729.824,-133.35 749.319,-136.578"/>
<polygon fill="midnightblue" stroke="midnightblue" points="748.977,-140.069 759.414,-138.249 750.12,-133.163 748.977,-140.069"/>
</g>
<!-- Node8 -->
<g id="node8" class="node"><title>Node8</title>
<g id="a_node8"><a xlink:href="../../d9/d7b/settings__lexer_8c.html#abb6474cb0d8cf8c06c5f0570a0bfe36d" target="_top" xlink:title="settings_parser__flush\l_buffer">
<polygon fill="none" stroke="black" points="722.5,-82.4919 722.5,-112.492 837.5,-112.492 837.5,-82.4919 722.5,-82.4919"/>
<text text-anchor="start" x="730.5" y="-100.492" font-family="Helvetica,sans-Serif" font-size="10.00">settings_parser__flush</text>
<text text-anchor="middle" x="780" y="-89.4919" font-family="Helvetica,sans-Serif" font-size="10.00">_buffer</text>
</a>
</g>
</g>
<!-- Node6&#45;&gt;Node8 -->
<g id="edge7" class="edge"><title>Node6&#45;&gt;Node8</title>
<path fill="none" stroke="midnightblue" d="M680.812,-109.847C690.996,-108.565 701.786,-107.208 712.342,-105.879"/>
<polygon fill="midnightblue" stroke="midnightblue" points="712.879,-109.339 722.364,-104.618 712.005,-102.394 712.879,-109.339"/>
</g>
<!-- Node8&#45;&gt;Node9 -->
<g id="edge8" class="edge"><title>Node8&#45;&gt;Node9</title>
<path fill="none" stroke="midnightblue" d="M824.604,-82.466C840.642,-76.9396 858.985,-70.6188 875.775,-64.8331"/>
<polygon fill="midnightblue" stroke="midnightblue" points="877.138,-68.0654 885.452,-61.4984 874.857,-61.4473 877.138,-68.0654"/>
</g>
<!-- Node11 -->
<g id="node11" class="node"><title>Node11</title>
<g id="a_node11"><a xlink:href="../../da/dfc/settings__parser_8c.html#a5faf6a2d99f50a4655dd390199a8db7b" target="_top" xlink:title="malloc">
<polygon fill="none" stroke="black" points="757.5,-43.9919 757.5,-62.9919 802.5,-62.9919 802.5,-43.9919 757.5,-43.9919"/>
<text text-anchor="middle" x="780" y="-50.9919" font-family="Helvetica,sans-Serif" font-size="10.00">malloc</text>
</a>
</g>
</g>
<!-- Node10&#45;&gt;Node11 -->
<g id="edge10" class="edge"><title>Node10&#45;&gt;Node11</title>
<path fill="none" stroke="midnightblue" d="M681.662,-65.7397C703.691,-62.9678 728.435,-59.8544 747.462,-57.4603"/>
<polygon fill="midnightblue" stroke="midnightblue" points="747.906,-60.9321 757.39,-56.211 747.032,-53.9869 747.906,-60.9321"/>
</g>
<!-- Node12&#45;&gt;Node10 -->
<g id="edge13" class="edge"><title>Node12&#45;&gt;Node10</title>
<path fill="none" stroke="midnightblue" d="M530.221,-52.5897C543.259,-55.299 557.063,-58.1673 570.009,-60.8573"/>
<polygon fill="midnightblue" stroke="midnightblue" points="569.673,-64.3623 580.176,-62.97 571.097,-57.5087 569.673,-64.3623"/>
</g>
<!-- Node13 -->
<g id="node13" class="node"><title>Node13</title>
<g id="a_node13"><a xlink:href="../../d9/d7b/settings__lexer_8c.html#ab2f0df9a05dd8b94f35a272bf269ca2a" target="_top" xlink:title="settings_parser_realloc">
<polygon fill="none" stroke="black" points="568.5,-24.9919 568.5,-43.9919 685.5,-43.9919 685.5,-24.9919 568.5,-24.9919"/>
<text text-anchor="middle" x="627" y="-31.9919" font-family="Helvetica,sans-Serif" font-size="10.00">settings_parser_realloc</text>
</a>
</g>
</g>
<!-- Node12&#45;&gt;Node13 -->
<g id="edge14" class="edge"><title>Node12&#45;&gt;Node13</title>
<path fill="none" stroke="midnightblue" d="M530.221,-38.2235C539.416,-37.8653 548.991,-37.4922 558.378,-37.1265"/>
<polygon fill="midnightblue" stroke="midnightblue" points="558.607,-40.6203 568.463,-36.7336 558.334,-33.6256 558.607,-40.6203"/>
</g>
<!-- Node14&#45;&gt;Node3 -->
<g id="edge16" class="edge"><title>Node14&#45;&gt;Node3</title>
<path fill="none" stroke="midnightblue" d="M271.666,-78.4919C280.328,-78.4919 289.172,-78.4919 297.502,-78.4919"/>
<polygon fill="midnightblue" stroke="midnightblue" points="297.723,-81.992 307.723,-78.4919 297.723,-74.992 297.723,-81.992"/>
</g>
</g>
</svg>
