<?xml version="1.0" encoding="UTF-8" standalone="no"?>
<!DOCTYPE svg PUBLIC "-//W3C//DTD SVG 1.1//EN"
 "http://www.w3.org/Graphics/SVG/1.1/DTD/svg11.dtd">
<!-- Generated by graphviz version 2.36.0 (20140111.2315)
 -->
<!-- Title: swid_inventory.h Pages: 1 -->
<!--zoomable 164 -->
<svg id="main" version="1.1" xmlns="http://www.w3.org/2000/svg" xmlns:xlink="http://www.w3.org/1999/xlink" xml:space="preserve" onload="init(evt)">
<style type="text/css"><![CDATA[
.edge:hover path { stroke: red; }
.edge:hover polygon { stroke: red; fill: red; }
]]></style>
<script type="text/javascript"><![CDATA[
var edges = document.getElementsByTagName('g');
if (edges && edges.length) {
  for (var i=0;i<edges.length;i++) {
    if (edges[i].id.substr(0,4)=='edge') {
      edges[i].setAttribute('class','edge');
    }
  }
}
]]></script>
        <defs>
                <circle id="rim" cx="0" cy="0" r="7"/>
                <circle id="rim2" cx="0" cy="0" r="3.5"/>
                <g id="zoomPlus">
                        <use xlink:href="#rim" fill="#404040">
                                <set attributeName="fill" to="#808080" begin="zoomplus.mouseover" end="zoomplus.mouseout"/>
                        </use>
                        <path d="M-4,0h8M0,-4v8" fill="none" stroke="white" stroke-width="1.5" pointer-events="none"/>
                </g>
                <g id="zoomMin">
                        <use xlink:href="#rim" fill="#404040">
                                <set attributeName="fill" to="#808080" begin="zoomminus.mouseover" end="zoomminus.mouseout"/>
                        </use>
                        <path d="M-4,0h8" fill="none" stroke="white" stroke-width="1.5" pointer-events="none"/>
                </g>
                <g id="dirArrow">
                        <path fill="none" stroke="white" stroke-width="1.5" d="M0,-3.0v7 M-2.5,-0.5L0,-3.0L2.5,-0.5"/>
                </g>
               <g id="resetDef">
                       <use xlink:href="#rim2" fill="#404040">
                               <set attributeName="fill" to="#808080" begin="reset.mouseover" end="reset.mouseout"/>
                       </use>
               </g>
        </defs>

<script type="text/javascript">
var viewWidth = 803;
var viewHeight = 164;
var sectionId = 'dynsection-1';
</script>
<script xlink:href="../../svgpan.js"/>
<svg id="graph" class="graph">
<g id="viewport">
<title>swid_inventory.h</title>
<!-- Node1 -->
<g id="node1" class="node"><title>Node1</title>
<polygon fill="#bfbfbf" stroke="black" points="441,-136.5 441,-155.5 531,-155.5 531,-136.5 441,-136.5"/>
<text text-anchor="middle" x="486" y="-143.5" font-family="Helvetica,sans-Serif" font-size="10.00">swid_inventory.h</text>
</g>
<!-- Node2 -->
<g id="node2" class="node"><title>Node2</title>
<g id="a_node2"><a xlink:href="../../d3/de6/imc__swid_8c.html" target="_top" xlink:title="imc_swid.c">
<polygon fill="none" stroke="black" points="138,-6.5 138,-25.5 204,-25.5 204,-6.5 138,-6.5"/>
<text text-anchor="middle" x="171" y="-13.5" font-family="Helvetica,sans-Serif" font-size="10.00">imc_swid.c</text>
</a>
</g>
</g>
<!-- Node1&#45;&gt;Node2 -->
<g id="edge1" class="edge"><title>Node1&#45;&gt;Node2</title>
<path fill="none" stroke="midnightblue" d="M430.961,-145.644C348.03,-145.305 197.076,-139.153 163,-100 144.562,-78.8155 158.663,-42.0735 166.575,-25.5192"/>
<polygon fill="midnightblue" stroke="midnightblue" points="430.965,-149.144 440.97,-145.658 430.975,-142.144 430.965,-149.144"/>
</g>
<!-- Node3 -->
<g id="node3" class="node"><title>Node3</title>
<g id="a_node3"><a xlink:href="../../d4/d2e/imv__swid__state_8h.html" target="_top" xlink:title="imv_swid_state.h">
<polygon fill="none" stroke="black" points="593.5,-74.5 593.5,-93.5 686.5,-93.5 686.5,-74.5 593.5,-74.5"/>
<text text-anchor="middle" x="640" y="-81.5" font-family="Helvetica,sans-Serif" font-size="10.00">imv_swid_state.h</text>
</a>
</g>
</g>
<!-- Node1&#45;&gt;Node3 -->
<g id="edge2" class="edge"><title>Node1&#45;&gt;Node3</title>
<path fill="none" stroke="midnightblue" d="M517.622,-132.68C547.549,-121.02 591.693,-103.821 617.976,-93.5806"/>
<polygon fill="midnightblue" stroke="midnightblue" points="516.112,-129.512 508.064,-136.403 518.653,-136.034 516.112,-129.512"/>
</g>
<!-- Node4 -->
<g id="node4" class="node"><title>Node4</title>
<g id="a_node4"><a xlink:href="../../db/d4a/imv__swid__agent_8c.html" target="_top" xlink:title="imv_swid_agent.c">
<polygon fill="none" stroke="black" points="543.5,-6.5 543.5,-25.5 638.5,-25.5 638.5,-6.5 543.5,-6.5"/>
<text text-anchor="middle" x="591" y="-13.5" font-family="Helvetica,sans-Serif" font-size="10.00">imv_swid_agent.c</text>
</a>
</g>
</g>
<!-- Node1&#45;&gt;Node4 -->
<g id="edge5" class="edge"><title>Node1&#45;&gt;Node4</title>
<path fill="none" stroke="midnightblue" d="M508.919,-130.835C520.679,-122.796 534.663,-111.962 545,-100 565.574,-76.191 581.054,-41.7071 587.588,-25.7306"/>
<polygon fill="midnightblue" stroke="midnightblue" points="506.883,-127.986 500.458,-136.41 510.734,-133.831 506.883,-127.986"/>
</g>
<!-- Node6 -->
<g id="node6" class="node"><title>Node6</title>
<g id="a_node6"><a xlink:href="../../df/de7/swid__inventory_8c.html" target="_top" xlink:title="swid_inventory.c">
<polygon fill="none" stroke="black" points="705,-74.5 705,-93.5 795,-93.5 795,-74.5 705,-74.5"/>
<text text-anchor="middle" x="750" y="-81.5" font-family="Helvetica,sans-Serif" font-size="10.00">swid_inventory.c</text>
</a>
</g>
</g>
<!-- Node1&#45;&gt;Node6 -->
<g id="edge6" class="edge"><title>Node1&#45;&gt;Node6</title>
<path fill="none" stroke="midnightblue" d="M538.802,-134.456C581.166,-125.798 642.087,-112.902 695,-100 703.077,-98.0306 711.775,-95.7386 719.817,-93.5477"/>
<polygon fill="midnightblue" stroke="midnightblue" points="538.086,-131.03 528.985,-136.454 539.482,-137.889 538.086,-131.03"/>
</g>
<!-- Node7 -->
<g id="node7" class="node"><title>Node7</title>
<g id="a_node7"><a xlink:href="../../d1/d8a/tcg__swid__attr__req_8h.html" target="_top" xlink:title="tcg_swid_attr_req.h">
<polygon fill="none" stroke="black" points="435,-74.5 435,-93.5 537,-93.5 537,-74.5 435,-74.5"/>
<text text-anchor="middle" x="486" y="-81.5" font-family="Helvetica,sans-Serif" font-size="10.00">tcg_swid_attr_req.h</text>
</a>
</g>
</g>
<!-- Node1&#45;&gt;Node7 -->
<g id="edge7" class="edge"><title>Node1&#45;&gt;Node7</title>
<path fill="none" stroke="midnightblue" d="M486,-126.16C486,-115.248 486,-102.04 486,-93.5806"/>
<polygon fill="midnightblue" stroke="midnightblue" points="482.5,-126.403 486,-136.403 489.5,-126.403 482.5,-126.403"/>
</g>
<!-- Node10 -->
<g id="node10" class="node"><title>Node10</title>
<g id="a_node10"><a xlink:href="../../d1/d15/tcg__swid__attr__tag__id__inv_8h.html" target="_top" xlink:title="tcg_swid_attr_tag_id\l_inv.h">
<polygon fill="none" stroke="black" points="310.5,-69 310.5,-99 417.5,-99 417.5,-69 310.5,-69"/>
<text text-anchor="start" x="318.5" y="-87" font-family="Helvetica,sans-Serif" font-size="10.00">tcg_swid_attr_tag_id</text>
<text text-anchor="middle" x="364" y="-76" font-family="Helvetica,sans-Serif" font-size="10.00">_inv.h</text>
</a>
</g>
</g>
<!-- Node1&#45;&gt;Node10 -->
<g id="edge12" class="edge"><title>Node1&#45;&gt;Node10</title>
<path fill="none" stroke="midnightblue" d="M459.487,-131.961C439.795,-122.276 412.961,-109.079 392.753,-99.1408"/>
<polygon fill="midnightblue" stroke="midnightblue" points="458.002,-135.131 468.52,-136.403 461.092,-128.849 458.002,-135.131"/>
</g>
<!-- Node12 -->
<g id="node12" class="node"><title>Node12</title>
<g id="a_node12"><a xlink:href="../../d7/d9d/tcg__swid__attr__tag__inv_8h.html" target="_top" xlink:title="tcg_swid_attr_tag_inv.h">
<polygon fill="none" stroke="black" points="172,-74.5 172,-93.5 292,-93.5 292,-74.5 172,-74.5"/>
<text text-anchor="middle" x="232" y="-81.5" font-family="Helvetica,sans-Serif" font-size="10.00">tcg_swid_attr_tag_inv.h</text>
</a>
</g>
</g>
<!-- Node1&#45;&gt;Node12 -->
<g id="edge17" class="edge"><title>Node1&#45;&gt;Node12</title>
<path fill="none" stroke="midnightblue" d="M440.089,-134.155C390.694,-122.487 313.17,-104.174 267.998,-93.5034"/>
<polygon fill="midnightblue" stroke="midnightblue" points="439.341,-137.574 449.878,-136.467 440.95,-130.762 439.341,-137.574"/>
</g>
<!-- Node3&#45;&gt;Node4 -->
<g id="edge3" class="edge"><title>Node3&#45;&gt;Node4</title>
<path fill="none" stroke="midnightblue" d="M627.609,-66.3101C618.057,-53.4437 605.224,-36.1583 597.564,-25.8411"/>
<polygon fill="midnightblue" stroke="midnightblue" points="624.823,-68.4289 633.594,-74.3717 630.443,-64.2562 624.823,-68.4289"/>
</g>
<!-- Node5 -->
<g id="node5" class="node"><title>Node5</title>
<g id="a_node5"><a xlink:href="../../d9/d80/imv__swid__state_8c.html" target="_top" xlink:title="imv_swid_state.c">
<polygon fill="none" stroke="black" points="656.5,-6.5 656.5,-25.5 749.5,-25.5 749.5,-6.5 656.5,-6.5"/>
<text text-anchor="middle" x="703" y="-13.5" font-family="Helvetica,sans-Serif" font-size="10.00">imv_swid_state.c</text>
</a>
</g>
</g>
<!-- Node3&#45;&gt;Node5 -->
<g id="edge4" class="edge"><title>Node3&#45;&gt;Node5</title>
<path fill="none" stroke="midnightblue" d="M655.227,-67.0474C667.576,-54.1111 684.523,-36.3567 694.561,-25.8411"/>
<polygon fill="midnightblue" stroke="midnightblue" points="652.609,-64.7214 648.236,-74.3717 657.673,-69.5547 652.609,-64.7214"/>
</g>
<!-- Node7&#45;&gt;Node2 -->
<g id="edge8" class="edge"><title>Node7&#45;&gt;Node2</title>
<path fill="none" stroke="midnightblue" d="M443.839,-72.0231C437.867,-70.5958 431.79,-69.2112 426,-68 332.025,-48.3424 305.899,-56.2391 213,-32 206.257,-30.2407 199.064,-27.8645 192.571,-25.5225"/>
<polygon fill="midnightblue" stroke="midnightblue" points="443.176,-75.464 453.722,-74.4423 444.841,-68.6648 443.176,-75.464"/>
</g>
<!-- Node7&#45;&gt;Node4 -->
<g id="edge9" class="edge"><title>Node7&#45;&gt;Node4</title>
<path fill="none" stroke="midnightblue" d="M508.291,-68.9883C529.18,-55.8584 559.739,-36.6498 577.27,-25.6305"/>
<polygon fill="midnightblue" stroke="midnightblue" points="506.331,-66.0867 499.727,-74.3717 510.056,-72.0131 506.331,-66.0867"/>
</g>
<!-- Node8 -->
<g id="node8" class="node"><title>Node8</title>
<g id="a_node8"><a xlink:href="../../df/df7/tcg__swid__attr__req_8c.html" target="_top" xlink:title="tcg_swid_attr_req.c">
<polygon fill="none" stroke="black" points="423,-6.5 423,-25.5 525,-25.5 525,-6.5 423,-6.5"/>
<text text-anchor="middle" x="474" y="-13.5" font-family="Helvetica,sans-Serif" font-size="10.00">tcg_swid_attr_req.c</text>
</a>
</g>
</g>
<!-- Node7&#45;&gt;Node8 -->
<g id="edge10" class="edge"><title>Node7&#45;&gt;Node8</title>
<path fill="none" stroke="midnightblue" d="M482.623,-64.425C480.327,-51.7978 477.393,-35.6623 475.607,-25.8411"/>
<polygon fill="midnightblue" stroke="midnightblue" points="479.199,-65.1591 484.431,-74.3717 486.086,-63.9068 479.199,-65.1591"/>
</g>
<!-- Node9 -->
<g id="node9" class="node"><title>Node9</title>
<g id="a_node9"><a xlink:href="../../dd/d54/tcg__attr_8c.html" target="_top" xlink:title="tcg_attr.c">
<polygon fill="none" stroke="black" points="347,-6.5 347,-25.5 405,-25.5 405,-6.5 347,-6.5"/>
<text text-anchor="middle" x="376" y="-13.5" font-family="Helvetica,sans-Serif" font-size="10.00">tcg_attr.c</text>
</a>
</g>
</g>
<!-- Node7&#45;&gt;Node9 -->
<g id="edge11" class="edge"><title>Node7&#45;&gt;Node9</title>
<path fill="none" stroke="midnightblue" d="M462.941,-69.1646C441.051,-56.0309 408.832,-36.6993 390.384,-25.6305"/>
<polygon fill="midnightblue" stroke="midnightblue" points="461.244,-72.2279 471.619,-74.3717 464.845,-66.2254 461.244,-72.2279"/>
</g>
<!-- Node10&#45;&gt;Node2 -->
<g id="edge13" class="edge"><title>Node10&#45;&gt;Node2</title>
<path fill="none" stroke="midnightblue" d="M312.057,-65.7029C282.899,-55.9316 245.876,-43.4218 213,-32 207.149,-29.9672 200.853,-27.7401 194.962,-25.6386"/>
<polygon fill="midnightblue" stroke="midnightblue" points="311.032,-69.0508 321.626,-68.9062 313.254,-62.4128 311.032,-69.0508"/>
</g>
<!-- Node10&#45;&gt;Node4 -->
<g id="edge14" class="edge"><title>Node10&#45;&gt;Node4</title>
<path fill="none" stroke="midnightblue" d="M422.27,-66.0581C466.903,-53.0811 526.603,-35.7233 561.718,-25.5138"/>
<polygon fill="midnightblue" stroke="midnightblue" points="421.044,-62.7695 412.419,-68.9223 422.998,-69.4912 421.044,-62.7695"/>
</g>
<!-- Node10&#45;&gt;Node9 -->
<g id="edge16" class="edge"><title>Node10&#45;&gt;Node9</title>
<path fill="none" stroke="midnightblue" d="M368.413,-58.7287C370.502,-47.2363 372.869,-34.222 374.395,-25.8283"/>
<polygon fill="midnightblue" stroke="midnightblue" points="364.949,-58.2142 366.604,-68.679 371.836,-59.4664 364.949,-58.2142"/>
</g>
<!-- Node11 -->
<g id="node11" class="node"><title>Node11</title>
<g id="a_node11"><a xlink:href="../../df/d33/tcg__swid__attr__tag__id__inv_8c.html" target="_top" xlink:title="tcg_swid_attr_tag_id\l_inv.c">
<polygon fill="none" stroke="black" points="222.5,-1 222.5,-31 329.5,-31 329.5,-1 222.5,-1"/>
<text text-anchor="start" x="230.5" y="-19" font-family="Helvetica,sans-Serif" font-size="10.00">tcg_swid_attr_tag_id</text>
<text text-anchor="middle" x="276" y="-8" font-family="Helvetica,sans-Serif" font-size="10.00">_inv.c</text>
</a>
</g>
</g>
<!-- Node10&#45;&gt;Node11 -->
<g id="edge15" class="edge"><title>Node10&#45;&gt;Node11</title>
<path fill="none" stroke="midnightblue" d="M336.799,-62.5994C323.162,-52.3712 306.99,-40.2428 294.755,-31.0663"/>
<polygon fill="midnightblue" stroke="midnightblue" points="334.805,-65.479 344.905,-68.679 339.005,-59.8789 334.805,-65.479"/>
</g>
<!-- Node12&#45;&gt;Node2 -->
<g id="edge18" class="edge"><title>Node12&#45;&gt;Node2</title>
<path fill="none" stroke="midnightblue" d="M216.916,-66.68C204.991,-53.7768 188.799,-36.2575 179.171,-25.8411"/>
<polygon fill="midnightblue" stroke="midnightblue" points="214.668,-69.4035 224.025,-74.3717 219.808,-64.6523 214.668,-69.4035"/>
</g>
<!-- Node12&#45;&gt;Node4 -->
<g id="edge19" class="edge"><title>Node12&#45;&gt;Node4</title>
<path fill="none" stroke="midnightblue" d="M279.015,-72.3837C286.359,-70.8399 293.874,-69.3262 301,-68 403.584,-48.9084 430.808,-53.089 533,-32 541.964,-30.1502 551.618,-27.7996 560.43,-25.5112"/>
<polygon fill="midnightblue" stroke="midnightblue" points="278.205,-68.9778 269.159,-74.493 279.67,-75.8228 278.205,-68.9778"/>
</g>
<!-- Node12&#45;&gt;Node9 -->
<g id="edge21" class="edge"><title>Node12&#45;&gt;Node9</title>
<path fill="none" stroke="midnightblue" d="M260.288,-70.0346C288.95,-56.898 332.481,-36.9463 357.17,-25.6305"/>
<polygon fill="midnightblue" stroke="midnightblue" points="258.458,-67.0233 250.825,-74.3717 261.374,-73.3868 258.458,-67.0233"/>
</g>
<!-- Node13 -->
<g id="node13" class="node"><title>Node13</title>
<g id="a_node13"><a xlink:href="../../d8/d3b/tcg__swid__attr__tag__inv_8c.html" target="_top" xlink:title="tcg_swid_attr_tag_inv.c">
<polygon fill="none" stroke="black" points="0,-6.5 0,-25.5 120,-25.5 120,-6.5 0,-6.5"/>
<text text-anchor="middle" x="60" y="-13.5" font-family="Helvetica,sans-Serif" font-size="10.00">tcg_swid_attr_tag_inv.c</text>
</a>
</g>
</g>
<!-- Node12&#45;&gt;Node13 -->
<g id="edge20" class="edge"><title>Node12&#45;&gt;Node13</title>
<path fill="none" stroke="midnightblue" d="M199.961,-70.7059C165.667,-57.5466 112.165,-37.0166 82.219,-25.5259"/>
<polygon fill="midnightblue" stroke="midnightblue" points="198.924,-74.0568 209.514,-74.3717 201.432,-67.5214 198.924,-74.0568"/>
</g>
</g>
</svg>
        <g id="navigator" transform="translate(0 0)" fill="#404254">
                <rect fill="#f2f5e9" fill-opacity="0.5" stroke="#606060" stroke-width=".5" x="0" y="0" width="60" height="60"/>
                <use id="zoomplus" xlink:href="#zoomPlus" x="17" y="9" onmousedown="handleZoom(evt,'in')"/>
                <use id="zoomminus" xlink:href="#zoomMin" x="42" y="9" onmousedown="handleZoom(evt,'out')"/>
                <use id="reset" xlink:href="#resetDef" x="30" y="36" onmousedown="handleReset()"/>
                <g id="arrowUp" xlink:href="#dirArrow" transform="translate(30 24)" onmousedown="handlePan(0,-1)">
                  <use xlink:href="#rim" fill="#404040">
                        <set attributeName="fill" to="#808080" begin="arrowUp.mouseover" end="arrowUp.mouseout"/>
                  </use>
                  <path fill="none" stroke="white" stroke-width="1.5" d="M0,-3.0v7 M-2.5,-0.5L0,-3.0L2.5,-0.5"/>
                </g>
                <g id="arrowRight" xlink:href="#dirArrow" transform="rotate(90) translate(36 -43)" onmousedown="handlePan(1,0)">
                  <use xlink:href="#rim" fill="#404040">
                        <set attributeName="fill" to="#808080" begin="arrowRight.mouseover" end="arrowRight.mouseout"/>
                  </use>
                  <path fill="none" stroke="white" stroke-width="1.5" d="M0,-3.0v7 M-2.5,-0.5L0,-3.0L2.5,-0.5"/>
                </g>
                <g id="arrowDown" xlink:href="#dirArrow" transform="rotate(180) translate(-30 -48)" onmousedown="handlePan(0,1)">
                  <use xlink:href="#rim" fill="#404040">
                        <set attributeName="fill" to="#808080" begin="arrowDown.mouseover" end="arrowDown.mouseout"/>
                  </use>
                  <path fill="none" stroke="white" stroke-width="1.5" d="M0,-3.0v7 M-2.5,-0.5L0,-3.0L2.5,-0.5"/>
                </g>
                <g id="arrowLeft" xlink:href="#dirArrow" transform="rotate(270) translate(-36 17)" onmousedown="handlePan(-1,0)">
                  <use xlink:href="#rim" fill="#404040">
                        <set attributeName="fill" to="#808080" begin="arrowLeft.mouseover" end="arrowLeft.mouseout"/>
                  </use>
                  <path fill="none" stroke="white" stroke-width="1.5" d="M0,-3.0v7 M-2.5,-0.5L0,-3.0L2.5,-0.5"/>
                </g>
        </g>
        <svg viewBox="0 0 15 15" width="100%" height="30px" preserveAspectRatio="xMaxYMin meet">
         <g id="arrow_out" transform="scale(0.3 0.3)">
          <a xlink:href="swid__inventory_8h__dep__incl_org.svg" target="_base">
           <rect id="button" ry="5" rx="5" y="6" x="6" height="38" width="38"
                fill="#f2f5e9" fill-opacity="0.5" stroke="#606060" stroke-width="1.0"/>
           <path id="arrow"
             d="M 11.500037,31.436501 C 11.940474,20.09759 22.043105,11.32322 32.158766,21.979434 L 37.068811,17.246167 C 37.068811,17.246167 37.088388,32 37.088388,32 L 22.160133,31.978069 C 22.160133,31.978069 26.997745,27.140456 26.997745,27.140456 C 18.528582,18.264221 13.291696,25.230495 11.500037,31.436501 z"
             style="fill:#404040;"/>
          </a>
         </g>
        </svg>
</svg>
