<?xml version="1.0" encoding="UTF-8" standalone="no"?>
<!DOCTYPE svg PUBLIC "-//W3C//DTD SVG 1.1//EN"
 "http://www.w3.org/Graphics/SVG/1.1/DTD/svg11.dtd">
<!-- Generated by graphviz version 2.36.0 (20140111.2315)
 -->
<!-- Title: ocsp_request.h Pages: 1 -->
<svg width="286pt" height="140pt"
 viewBox="0.00 0.00 286.00 140.00" xmlns="http://www.w3.org/2000/svg" xmlns:xlink="http://www.w3.org/1999/xlink">
<g id="graph0" class="graph" transform="scale(1 1) rotate(0) translate(4 136)">
<title>ocsp_request.h</title>
<!-- Node1 -->
<g id="node1" class="node"><title>Node1</title>
<polygon fill="#bfbfbf" stroke="black" points="77.5,-112.5 77.5,-131.5 160.5,-131.5 160.5,-112.5 77.5,-112.5"/>
<text text-anchor="middle" x="119" y="-119.5" font-family="Helvetica,sans-Serif" font-size="10.00">ocsp_request.h</text>
</g>
<!-- Node2 -->
<g id="node2" class="node"><title>Node2</title>
<g id="a_node2"><a xlink:href="../../d1/d74/revocation__validator_8c.html" target="_top" xlink:title="revocation_validator.c">
<polygon fill="none" stroke="black" points="-1,-56.5 -1,-75.5 111,-75.5 111,-56.5 -1,-56.5"/>
<text text-anchor="middle" x="55" y="-63.5" font-family="Helvetica,sans-Serif" font-size="10.00">revocation_validator.c</text>
</a>
</g>
</g>
<!-- Node1&#45;&gt;Node2 -->
<g id="edge1" class="edge"><title>Node1&#45;&gt;Node2</title>
<path fill="none" stroke="midnightblue" d="M101.009,-105.82C89.5424,-96.1452 75.0867,-83.9481 65.4698,-75.8339"/>
<polygon fill="midnightblue" stroke="midnightblue" points="98.8173,-108.55 108.717,-112.324 103.331,-103.2 98.8173,-108.55"/>
</g>
<!-- Node3 -->
<g id="node3" class="node"><title>Node3</title>
<g id="a_node3"><a xlink:href="../../d7/df0/x509__ocsp__request_8h.html" target="_top" xlink:title="x509_ocsp_request.h">
<polygon fill="none" stroke="black" points="129,-56.5 129,-75.5 239,-75.5 239,-56.5 129,-56.5"/>
<text text-anchor="middle" x="184" y="-63.5" font-family="Helvetica,sans-Serif" font-size="10.00">x509_ocsp_request.h</text>
</a>
</g>
</g>
<!-- Node1&#45;&gt;Node3 -->
<g id="edge2" class="edge"><title>Node1&#45;&gt;Node3</title>
<path fill="none" stroke="midnightblue" d="M137.273,-105.82C148.918,-96.1452 163.599,-83.9481 173.367,-75.8339"/>
<polygon fill="midnightblue" stroke="midnightblue" points="134.899,-103.242 129.443,-112.324 139.372,-108.626 134.899,-103.242"/>
</g>
<!-- Node4 -->
<g id="node4" class="node"><title>Node4</title>
<g id="a_node4"><a xlink:href="../../dc/d4c/x509__ocsp__request_8c.html" target="_top" xlink:title="x509_ocsp_request.c">
<polygon fill="none" stroke="black" points="73,-0.5 73,-19.5 183,-19.5 183,-0.5 73,-0.5"/>
<text text-anchor="middle" x="128" y="-7.5" font-family="Helvetica,sans-Serif" font-size="10.00">x509_ocsp_request.c</text>
</a>
</g>
</g>
<!-- Node3&#45;&gt;Node4 -->
<g id="edge3" class="edge"><title>Node3&#45;&gt;Node4</title>
<path fill="none" stroke="midnightblue" d="M167.67,-49.2533C157.735,-39.6731 145.412,-27.7906 137.161,-19.8339"/>
<polygon fill="midnightblue" stroke="midnightblue" points="165.375,-51.902 175.003,-56.324 170.234,-46.8631 165.375,-51.902"/>
</g>
<!-- Node5 -->
<g id="node5" class="node"><title>Node5</title>
<g id="a_node5"><a xlink:href="../../da/d4d/x509__plugin_8c.html" target="_top" xlink:title="x509_plugin.c">
<polygon fill="none" stroke="black" points="201.5,-0.5 201.5,-19.5 278.5,-19.5 278.5,-0.5 201.5,-0.5"/>
<text text-anchor="middle" x="240" y="-7.5" font-family="Helvetica,sans-Serif" font-size="10.00">x509_plugin.c</text>
</a>
</g>
</g>
<!-- Node3&#45;&gt;Node5 -->
<g id="edge4" class="edge"><title>Node3&#45;&gt;Node5</title>
<path fill="none" stroke="midnightblue" d="M200.33,-49.2533C210.265,-39.6731 222.588,-27.7906 230.839,-19.8339"/>
<polygon fill="midnightblue" stroke="midnightblue" points="197.766,-46.8631 192.997,-56.324 202.625,-51.902 197.766,-46.8631"/>
</g>
</g>
</svg>
