<?xml version="1.0" encoding="UTF-8" standalone="no"?>
<!DOCTYPE svg PUBLIC "-//W3C//DTD SVG 1.1//EN"
 "http://www.w3.org/Graphics/SVG/1.1/DTD/svg11.dtd">
<!-- Generated by graphviz version 2.36.0 (20140111.2315)
 -->
<!-- Title: create_iface_enumerator Pages: 1 -->
<svg width="484pt" height="104pt"
 viewBox="0.00 0.00 484.00 104.00" xmlns="http://www.w3.org/2000/svg" xmlns:xlink="http://www.w3.org/1999/xlink">
<g id="graph0" class="graph" transform="scale(1 1) rotate(0) translate(4 100)">
<title>create_iface_enumerator</title>
<!-- Node1 -->
<g id="node1" class="node"><title>Node1</title>
<polygon fill="#bfbfbf" stroke="black" points="0,-19.5 0,-38.5 124,-38.5 124,-19.5 0,-19.5"/>
<text text-anchor="middle" x="62" y="-26.5" font-family="Helvetica,sans-Serif" font-size="10.00">create_iface_enumerator</text>
</g>
<!-- Node2 -->
<g id="node2" class="node"><title>Node2</title>
<g id="a_node2"><a xlink:href="../../d3/de6/group__enumerator.html#ga7e32271ea79eb88b576ca6eb1c582751" target="_top" xlink:title="enumerator_create_filter">
<polygon fill="none" stroke="black" points="160,-38.5 160,-57.5 282,-57.5 282,-38.5 160,-38.5"/>
<text text-anchor="middle" x="221" y="-45.5" font-family="Helvetica,sans-Serif" font-size="10.00">enumerator_create_filter</text>
</a>
</g>
</g>
<!-- Node1&#45;&gt;Node2 -->
<g id="edge1" class="edge"><title>Node1&#45;&gt;Node2</title>
<path fill="none" stroke="midnightblue" d="M124.15,-36.4003C132.566,-37.4188 141.262,-38.4712 149.825,-39.5075"/>
<polygon fill="midnightblue" stroke="midnightblue" points="149.443,-42.9867 159.791,-40.7135 150.284,-36.0374 149.443,-42.9867"/>
</g>
<!-- Node7 -->
<g id="node7" class="node"><title>Node7</title>
<g id="a_node7"><a xlink:href="../../d5/d90/kernel__netlink__net_8c.html#a3c9211dfde703e3fab766d8ac1d27c8e" target="_top" xlink:title="filter_addresses">
<polygon fill="none" stroke="black" points="178,-0.5 178,-19.5 264,-19.5 264,-0.5 178,-0.5"/>
<text text-anchor="middle" x="221" y="-7.5" font-family="Helvetica,sans-Serif" font-size="10.00">filter_addresses</text>
</a>
</g>
</g>
<!-- Node1&#45;&gt;Node7 -->
<g id="edge7" class="edge"><title>Node1&#45;&gt;Node7</title>
<path fill="none" stroke="midnightblue" d="M124.15,-21.5997C138.421,-19.8726 153.497,-18.0481 167.362,-16.3702"/>
<polygon fill="midnightblue" stroke="midnightblue" points="168.187,-19.7959 177.695,-15.1198 167.346,-12.8466 168.187,-19.7959"/>
</g>
<!-- Node3 -->
<g id="node3" class="node"><title>Node3</title>
<g id="a_node3"><a xlink:href="../../de/d46/enumerator_8c.html#a801ada63221011518bb6957f3ef2c747" target="_top" xlink:title="enumerate_filter">
<polygon fill="none" stroke="black" points="318,-76.5 318,-95.5 404,-95.5 404,-76.5 318,-76.5"/>
<text text-anchor="middle" x="361" y="-83.5" font-family="Helvetica,sans-Serif" font-size="10.00">enumerate_filter</text>
</a>
</g>
</g>
<!-- Node2&#45;&gt;Node3 -->
<g id="edge2" class="edge"><title>Node2&#45;&gt;Node3</title>
<path fill="none" stroke="midnightblue" d="M256.823,-57.589C274.638,-62.4944 296.518,-68.5196 315.539,-73.7571"/>
<polygon fill="midnightblue" stroke="midnightblue" points="314.618,-77.1336 325.188,-76.4141 316.476,-70.3848 314.618,-77.1336"/>
</g>
<!-- Node4 -->
<g id="node4" class="node"><title>Node4</title>
<g id="a_node4"><a xlink:href="../../dd/df8/x509__crl_8c.html#a39e3ce1a2351f3e2d5414c75a694290c" target="_top" xlink:title="filter">
<polygon fill="none" stroke="black" points="440.5,-57.5 440.5,-76.5 475.5,-76.5 475.5,-57.5 440.5,-57.5"/>
<text text-anchor="middle" x="458" y="-64.5" font-family="Helvetica,sans-Serif" font-size="10.00">filter</text>
</a>
</g>
</g>
<!-- Node2&#45;&gt;Node4 -->
<g id="edge6" class="edge"><title>Node2&#45;&gt;Node4</title>
<path fill="none" stroke="midnightblue" d="M282.213,-52.8683C330.031,-56.7344 394.607,-61.9555 430.371,-64.847"/>
<polygon fill="midnightblue" stroke="midnightblue" points="430.245,-68.3481 440.494,-65.6655 430.809,-61.3709 430.245,-68.3481"/>
</g>
<!-- Node5 -->
<g id="node5" class="node"><title>Node5</title>
<g id="a_node5"><a xlink:href="../../de/d46/enumerator_8c.html#a01c799700a22a2e067044a03731d13bc" target="_top" xlink:title="destroy_filter">
<polygon fill="none" stroke="black" points="324.5,-0.5 324.5,-19.5 397.5,-19.5 397.5,-0.5 324.5,-0.5"/>
<text text-anchor="middle" x="361" y="-7.5" font-family="Helvetica,sans-Serif" font-size="10.00">destroy_filter</text>
</a>
</g>
</g>
<!-- Node2&#45;&gt;Node5 -->
<g id="edge4" class="edge"><title>Node2&#45;&gt;Node5</title>
<path fill="none" stroke="midnightblue" d="M256.823,-38.411C274.638,-33.5056 296.518,-27.4804 315.539,-22.2429"/>
<polygon fill="midnightblue" stroke="midnightblue" points="316.476,-25.6152 325.188,-19.5859 314.618,-18.8664 316.476,-25.6152"/>
</g>
<!-- Node3&#45;&gt;Node4 -->
<g id="edge3" class="edge"><title>Node3&#45;&gt;Node4</title>
<path fill="none" stroke="midnightblue" d="M404.222,-77.5557C413.042,-75.7915 422.109,-73.9782 430.184,-72.3631"/>
<polygon fill="midnightblue" stroke="midnightblue" points="431.006,-75.7682 440.125,-70.3749 429.633,-68.9041 431.006,-75.7682"/>
</g>
<!-- Node6 -->
<g id="node6" class="node"><title>Node6</title>
<g id="a_node6"><a xlink:href="../../da/dfc/settings__parser_8c.html#af07d89f5ceaea0c7c8252cc41fd75f37" target="_top" xlink:title="free">
<polygon fill="none" stroke="black" points="441.5,-0.5 441.5,-19.5 474.5,-19.5 474.5,-0.5 441.5,-0.5"/>
<text text-anchor="middle" x="458" y="-7.5" font-family="Helvetica,sans-Serif" font-size="10.00">free</text>
</a>
</g>
</g>
<!-- Node5&#45;&gt;Node6 -->
<g id="edge5" class="edge"><title>Node5&#45;&gt;Node6</title>
<path fill="none" stroke="midnightblue" d="M397.645,-10C408.82,-10 420.932,-10 431.282,-10"/>
<polygon fill="midnightblue" stroke="midnightblue" points="431.317,-13.5001 441.317,-10 431.317,-6.5001 431.317,-13.5001"/>
</g>
</g>
</svg>
