<?xml version="1.0" encoding="UTF-8" standalone="no"?>
<!DOCTYPE svg PUBLIC "-//W3C//DTD SVG 1.1//EN"
 "http://www.w3.org/Graphics/SVG/1.1/DTD/svg11.dtd">
<!-- Generated by graphviz version 2.36.0 (20140111.2315)
 -->
<!-- Title: set_led Pages: 1 -->
<svg width="414pt" height="142pt"
 viewBox="0.00 0.00 414.00 142.00" xmlns="http://www.w3.org/2000/svg" xmlns:xlink="http://www.w3.org/1999/xlink">
<g id="graph0" class="graph" transform="scale(1 1) rotate(0) translate(4 138)">
<title>set_led</title>
<!-- Node1 -->
<g id="node1" class="node"><title>Node1</title>
<polygon fill="#bfbfbf" stroke="black" points="0,-57.5 0,-76.5 48,-76.5 48,-57.5 0,-57.5"/>
<text text-anchor="middle" x="24" y="-64.5" font-family="Helvetica,sans-Serif" font-size="10.00">set_led</text>
</g>
<!-- Node2 -->
<g id="node2" class="node"><title>Node2</title>
<g id="a_node2"><a xlink:href="../../da/da7/led__listener_8c.html#a392a4216ee39c3f9570a191b8681c4d0" target="_top" xlink:title="blink_activity">
<polygon fill="none" stroke="black" points="227,-38.5 227,-57.5 301,-57.5 301,-38.5 227,-38.5"/>
<text text-anchor="middle" x="264" y="-45.5" font-family="Helvetica,sans-Serif" font-size="10.00">blink_activity</text>
</a>
</g>
</g>
<!-- Node1&#45;&gt;Node2 -->
<g id="edge1" class="edge"><title>Node1&#45;&gt;Node2</title>
<path fill="none" stroke="midnightblue" d="M58.3422,-69.2137C90.2116,-70.8077 139.551,-71.912 182,-67 198.07,-65.1405 215.583,-61.2713 230.2,-57.5069"/>
<polygon fill="midnightblue" stroke="midnightblue" points="58.4151,-65.7126 48.2392,-68.6624 58.0336,-72.7022 58.4151,-65.7126"/>
</g>
<!-- Node4 -->
<g id="node4" class="node"><title>Node4</title>
<g id="a_node4"><a xlink:href="../../df/dd5/group__led__listener.html#gac686b50b24480596942641df17c5ade9" target="_top" xlink:title="led_listener_create">
<polygon fill="none" stroke="black" points="84,-114.5 84,-133.5 182,-133.5 182,-114.5 84,-114.5"/>
<text text-anchor="middle" x="133" y="-121.5" font-family="Helvetica,sans-Serif" font-size="10.00">led_listener_create</text>
</a>
</g>
</g>
<!-- Node1&#45;&gt;Node4 -->
<g id="edge3" class="edge"><title>Node1&#45;&gt;Node4</title>
<path fill="none" stroke="midnightblue" d="M50.5829,-81.6485C60.9038,-87.4691 72.9609,-94.157 84,-100 93.2227,-104.882 103.563,-110.086 112.278,-114.395"/>
<polygon fill="midnightblue" stroke="midnightblue" points="52.0969,-78.4836 41.6715,-76.596 48.6444,-84.5729 52.0969,-78.4836"/>
</g>
<!-- Node6 -->
<g id="node6" class="node"><title>Node6</title>
<g id="a_node6"><a xlink:href="../../da/da7/led__listener_8c.html#aae24b1e0f8ea7e43e3028814196e52a6" target="_top" xlink:title="METHOD">
<polygon fill="none" stroke="black" points="103,-38.5 103,-57.5 163,-57.5 163,-38.5 103,-38.5"/>
<text text-anchor="middle" x="133" y="-45.5" font-family="Helvetica,sans-Serif" font-size="10.00">METHOD</text>
</a>
</g>
</g>
<!-- Node1&#45;&gt;Node6 -->
<g id="edge5" class="edge"><title>Node1&#45;&gt;Node6</title>
<path fill="none" stroke="midnightblue" d="M58.1248,-61.118C72.3797,-58.5868 88.9034,-55.6527 102.704,-53.202"/>
<polygon fill="midnightblue" stroke="midnightblue" points="57.4514,-57.6828 48.2174,-62.8773 58.6753,-64.5749 57.4514,-57.6828"/>
</g>
<!-- Node7 -->
<g id="node7" class="node"><title>Node7</title>
<g id="a_node7"><a xlink:href="../../da/da7/led__listener_8c.html#af567f342876afafb686094366e53e912" target="_top" xlink:title="reset_activity_led">
<polygon fill="none" stroke="black" points="86.5,-0.5 86.5,-19.5 179.5,-19.5 179.5,-0.5 86.5,-0.5"/>
<text text-anchor="middle" x="133" y="-7.5" font-family="Helvetica,sans-Serif" font-size="10.00">reset_activity_led</text>
</a>
</g>
</g>
<!-- Node1&#45;&gt;Node7 -->
<g id="edge6" class="edge"><title>Node1&#45;&gt;Node7</title>
<path fill="none" stroke="midnightblue" d="M46.5947,-51.6449C57.5054,-44.2654 71.1306,-35.6111 84,-29 90.6965,-25.56 98.1664,-22.3318 105.181,-19.5468"/>
<polygon fill="midnightblue" stroke="midnightblue" points="44.3906,-48.9132 38.1444,-57.4709 48.364,-54.6762 44.3906,-48.9132"/>
</g>
<!-- Node3 -->
<g id="node3" class="node"><title>Node3</title>
<g id="a_node3"><a xlink:href="../../da/da7/led__listener_8c.html#a028afb3017490724558479f80ca21c15" target="_top" xlink:title="METHOD">
<polygon fill="none" stroke="black" points="346,-38.5 346,-57.5 406,-57.5 406,-38.5 346,-38.5"/>
<text text-anchor="middle" x="376" y="-45.5" font-family="Helvetica,sans-Serif" font-size="10.00">METHOD</text>
</a>
</g>
</g>
<!-- Node2&#45;&gt;Node3 -->
<g id="edge2" class="edge"><title>Node2&#45;&gt;Node3</title>
<path fill="none" stroke="midnightblue" d="M311.153,-48C322.912,-48 335.224,-48 345.865,-48"/>
<polygon fill="midnightblue" stroke="midnightblue" points="311.018,-44.5001 301.018,-48 311.018,-51.5001 311.018,-44.5001"/>
</g>
<!-- Node5 -->
<g id="node5" class="node"><title>Node5</title>
<g id="a_node5"><a xlink:href="../../d7/d82/led__plugin_8c.html#a90e0548f603c251330534f765f25eb79" target="_top" xlink:title="led_plugin_create">
<polygon fill="none" stroke="black" points="218,-114.5 218,-133.5 310,-133.5 310,-114.5 218,-114.5"/>
<text text-anchor="middle" x="264" y="-121.5" font-family="Helvetica,sans-Serif" font-size="10.00">led_plugin_create</text>
</a>
</g>
</g>
<!-- Node4&#45;&gt;Node5 -->
<g id="edge4" class="edge"><title>Node4&#45;&gt;Node5</title>
<path fill="none" stroke="midnightblue" d="M192.095,-124C200.757,-124 209.575,-124 217.916,-124"/>
<polygon fill="midnightblue" stroke="midnightblue" points="192.035,-120.5 182.035,-124 192.035,-127.5 192.035,-120.5"/>
</g>
<!-- Node7&#45;&gt;Node2 -->
<g id="edge7" class="edge"><title>Node7&#45;&gt;Node2</title>
<path fill="none" stroke="midnightblue" d="M176.554,-22.5353C194.103,-27.7048 214.113,-33.5991 230.458,-38.4141"/>
<polygon fill="midnightblue" stroke="midnightblue" points="177.134,-19.0574 166.552,-19.589 175.156,-25.7721 177.134,-19.0574"/>
</g>
</g>
</svg>
