<?xml version="1.0" encoding="UTF-8" standalone="no"?>
<!DOCTYPE svg PUBLIC "-//W3C//DTD SVG 1.1//EN"
 "http://www.w3.org/Graphics/SVG/1.1/DTD/svg11.dtd">
<!-- Generated by graphviz version 2.36.0 (20140111.2315)
 -->
<!-- Title: offset2host Pages: 1 -->
<!--zoomable 85 -->
<svg id="main" version="1.1" xmlns="http://www.w3.org/2000/svg" xmlns:xlink="http://www.w3.org/1999/xlink" xml:space="preserve" onload="init(evt)">
<style type="text/css"><![CDATA[
.edge:hover path { stroke: red; }
.edge:hover polygon { stroke: red; fill: red; }
]]></style>
<script type="text/javascript"><![CDATA[
var edges = document.getElementsByTagName('g');
if (edges && edges.length) {
  for (var i=0;i<edges.length;i++) {
    if (edges[i].id.substr(0,4)=='edge') {
      edges[i].setAttribute('class','edge');
    }
  }
}
]]></script>
        <defs>
                <circle id="rim" cx="0" cy="0" r="7"/>
                <circle id="rim2" cx="0" cy="0" r="3.5"/>
                <g id="zoomPlus">
                        <use xlink:href="#rim" fill="#404040">
                                <set attributeName="fill" to="#808080" begin="zoomplus.mouseover" end="zoomplus.mouseout"/>
                        </use>
                        <path d="M-4,0h8M0,-4v8" fill="none" stroke="white" stroke-width="1.5" pointer-events="none"/>
                </g>
                <g id="zoomMin">
                        <use xlink:href="#rim" fill="#404040">
                                <set attributeName="fill" to="#808080" begin="zoomminus.mouseover" end="zoomminus.mouseout"/>
                        </use>
                        <path d="M-4,0h8" fill="none" stroke="white" stroke-width="1.5" pointer-events="none"/>
                </g>
                <g id="dirArrow">
                        <path fill="none" stroke="white" stroke-width="1.5" d="M0,-3.0v7 M-2.5,-0.5L0,-3.0L2.5,-0.5"/>
                </g>
               <g id="resetDef">
                       <use xlink:href="#rim2" fill="#404040">
                               <set attributeName="fill" to="#808080" begin="reset.mouseover" end="reset.mouseout"/>
                       </use>
               </g>
        </defs>

<script type="text/javascript">
var viewWidth = 632;
var viewHeight = 85;
var sectionId = 'dynsection-11';
</script>
<script xlink:href="../../svgpan.js"/>
<svg id="graph" class="graph">
<g id="viewport">
<title>offset2host</title>
<!-- Node1 -->
<g id="node1" class="node"><title>Node1</title>
<polygon fill="#bfbfbf" stroke="black" points="0.5,-38.5 0.5,-57.5 65.5,-57.5 65.5,-38.5 0.5,-38.5"/>
<text text-anchor="middle" x="33" y="-45.5" font-family="Helvetica,sans-Serif" font-size="10.00">offset2host</text>
</g>
<!-- Node2 -->
<g id="node2" class="node"><title>Node2</title>
<g id="a_node2"><a xlink:href="../../da/dfc/settings__parser_8c.html#af07d89f5ceaea0c7c8252cc41fd75f37" target="_top" xlink:title="free">
<polygon fill="none" stroke="black" points="147.5,-57.5 147.5,-76.5 180.5,-76.5 180.5,-57.5 147.5,-57.5"/>
<text text-anchor="middle" x="164" y="-64.5" font-family="Helvetica,sans-Serif" font-size="10.00">free</text>
</a>
</g>
</g>
<!-- Node1&#45;&gt;Node2 -->
<g id="edge1" class="edge"><title>Node1&#45;&gt;Node2</title>
<path fill="none" stroke="midnightblue" d="M65.557,-52.6479C87.6613,-55.9036 116.822,-60.1986 137.465,-63.2391"/>
<polygon fill="midnightblue" stroke="midnightblue" points="136.998,-66.708 147.401,-64.7025 138.018,-59.7827 136.998,-66.708"/>
</g>
<!-- Node3 -->
<g id="node3" class="node"><title>Node3</title>
<g id="a_node3"><a xlink:href="../../d7/df1/group__host.html#gaf40fcca3c58e789ff4f82bbf875727e4" target="_top" xlink:title="host_create_from_chunk">
<polygon fill="none" stroke="black" points="102,-19.5 102,-38.5 226,-38.5 226,-19.5 102,-19.5"/>
<text text-anchor="middle" x="164" y="-26.5" font-family="Helvetica,sans-Serif" font-size="10.00">host_create_from_chunk</text>
</a>
</g>
</g>
<!-- Node1&#45;&gt;Node3 -->
<g id="edge2" class="edge"><title>Node1&#45;&gt;Node3</title>
<path fill="none" stroke="midnightblue" d="M65.557,-43.3521C73.6092,-42.1661 82.5978,-40.8422 91.77,-39.4912"/>
<polygon fill="midnightblue" stroke="midnightblue" points="92.3759,-42.9398 101.759,-38.02 91.3558,-36.0146 92.3759,-42.9398"/>
</g>
<!-- Node4 -->
<g id="node4" class="node"><title>Node4</title>
<g id="a_node4"><a xlink:href="../../df/da9/host_8c.html#ac3854e66d5a7563cae9608acbcad6eb5" target="_top" xlink:title="host_create_empty">
<polygon fill="none" stroke="black" points="262,-38.5 262,-57.5 362,-57.5 362,-38.5 262,-38.5"/>
<text text-anchor="middle" x="312" y="-45.5" font-family="Helvetica,sans-Serif" font-size="10.00">host_create_empty</text>
</a>
</g>
</g>
<!-- Node3&#45;&gt;Node4 -->
<g id="edge3" class="edge"><title>Node3&#45;&gt;Node4</title>
<path fill="none" stroke="midnightblue" d="M226.071,-36.9476C234.515,-38.0465 243.178,-39.1739 251.591,-40.2687"/>
<polygon fill="midnightblue" stroke="midnightblue" points="251.33,-43.7642 261.698,-41.584 252.234,-36.8227 251.33,-43.7642"/>
</g>
<!-- Node8 -->
<g id="node8" class="node"><title>Node8</title>
<g id="a_node8"><a xlink:href="../../df/da9/host_8c.html#a1fb6a6590d2576c32709b890623cad8c" target="_top" xlink:title="update_sa_len">
<polygon fill="none" stroke="black" points="272,-0.5 272,-19.5 352,-19.5 352,-0.5 272,-0.5"/>
<text text-anchor="middle" x="312" y="-7.5" font-family="Helvetica,sans-Serif" font-size="10.00">update_sa_len</text>
</a>
</g>
</g>
<!-- Node3&#45;&gt;Node8 -->
<g id="edge8" class="edge"><title>Node3&#45;&gt;Node8</title>
<path fill="none" stroke="midnightblue" d="M226.071,-21.0524C237.917,-19.5108 250.193,-17.9132 261.607,-16.4279"/>
<polygon fill="midnightblue" stroke="midnightblue" points="262.344,-19.8615 271.809,-15.1002 261.441,-12.9201 262.344,-19.8615"/>
</g>
<!-- Node5 -->
<g id="node5" class="node"><title>Node5</title>
<g id="a_node5"><a xlink:href="../../df/da9/host_8c.html#a0ea5fbf16ec81f3c5eaf6dc5da8d452a" target="_top" xlink:title="ip_equals">
<polygon fill="none" stroke="black" points="480,-38.5 480,-57.5 538,-57.5 538,-38.5 480,-38.5"/>
<text text-anchor="middle" x="509" y="-45.5" font-family="Helvetica,sans-Serif" font-size="10.00">ip_equals</text>
</a>
</g>
</g>
<!-- Node4&#45;&gt;Node5 -->
<g id="edge4" class="edge"><title>Node4&#45;&gt;Node5</title>
<path fill="none" stroke="midnightblue" d="M362.207,-48C395.513,-48 438.877,-48 469.63,-48"/>
<polygon fill="midnightblue" stroke="midnightblue" points="469.945,-51.5001 479.945,-48 469.944,-44.5001 469.945,-51.5001"/>
</g>
<!-- Node7 -->
<g id="node7" class="node"><title>Node7</title>
<g id="a_node7"><a xlink:href="../../df/da9/host_8c.html#a809d5cf7574c1f5e27758950d53653f4" target="_top" xlink:title="equals">
<polygon fill="none" stroke="black" points="398.5,-19.5 398.5,-38.5 443.5,-38.5 443.5,-19.5 398.5,-19.5"/>
<text text-anchor="middle" x="421" y="-26.5" font-family="Helvetica,sans-Serif" font-size="10.00">equals</text>
</a>
</g>
</g>
<!-- Node4&#45;&gt;Node7 -->
<g id="edge6" class="edge"><title>Node4&#45;&gt;Node7</title>
<path fill="none" stroke="midnightblue" d="M362.116,-39.2785C371.078,-37.6872 380.205,-36.0665 388.482,-34.5967"/>
<polygon fill="midnightblue" stroke="midnightblue" points="389.201,-38.0237 398.435,-32.8292 387.978,-31.1316 389.201,-38.0237"/>
</g>
<!-- Node6 -->
<g id="node6" class="node"><title>Node6</title>
<g id="a_node6"><a xlink:href="../../dd/d74/group__memory__i.html#ga46d7935db00fd7092430dbf4f36c2850" target="_top" xlink:title="memeq">
<polygon fill="none" stroke="black" points="574.5,-38.5 574.5,-57.5 623.5,-57.5 623.5,-38.5 574.5,-38.5"/>
<text text-anchor="middle" x="599" y="-45.5" font-family="Helvetica,sans-Serif" font-size="10.00">memeq</text>
</a>
</g>
</g>
<!-- Node5&#45;&gt;Node6 -->
<g id="edge5" class="edge"><title>Node5&#45;&gt;Node6</title>
<path fill="none" stroke="midnightblue" d="M538.328,-48C546.615,-48 555.756,-48 564.34,-48"/>
<polygon fill="midnightblue" stroke="midnightblue" points="564.439,-51.5001 574.439,-48 564.439,-44.5001 564.439,-51.5001"/>
</g>
<!-- Node7&#45;&gt;Node5 -->
<g id="edge7" class="edge"><title>Node7&#45;&gt;Node5</title>
<path fill="none" stroke="midnightblue" d="M443.701,-33.7945C451.655,-35.5517 460.91,-37.5963 469.877,-39.5775"/>
<polygon fill="midnightblue" stroke="midnightblue" points="469.276,-43.0291 479.796,-41.7688 470.786,-36.1939 469.276,-43.0291"/>
</g>
</g>
</svg>
        <g id="navigator" transform="translate(0 0)" fill="#404254">
                <rect fill="#f2f5e9" fill-opacity="0.5" stroke="#606060" stroke-width=".5" x="0" y="0" width="60" height="60"/>
                <use id="zoomplus" xlink:href="#zoomPlus" x="17" y="9" onmousedown="handleZoom(evt,'in')"/>
                <use id="zoomminus" xlink:href="#zoomMin" x="42" y="9" onmousedown="handleZoom(evt,'out')"/>
                <use id="reset" xlink:href="#resetDef" x="30" y="36" onmousedown="handleReset()"/>
                <g id="arrowUp" xlink:href="#dirArrow" transform="translate(30 24)" onmousedown="handlePan(0,-1)">
                  <use xlink:href="#rim" fill="#404040">
                        <set attributeName="fill" to="#808080" begin="arrowUp.mouseover" end="arrowUp.mouseout"/>
                  </use>
                  <path fill="none" stroke="white" stroke-width="1.5" d="M0,-3.0v7 M-2.5,-0.5L0,-3.0L2.5,-0.5"/>
                </g>
                <g id="arrowRight" xlink:href="#dirArrow" transform="rotate(90) translate(36 -43)" onmousedown="handlePan(1,0)">
                  <use xlink:href="#rim" fill="#404040">
                        <set attributeName="fill" to="#808080" begin="arrowRight.mouseover" end="arrowRight.mouseout"/>
                  </use>
                  <path fill="none" stroke="white" stroke-width="1.5" d="M0,-3.0v7 M-2.5,-0.5L0,-3.0L2.5,-0.5"/>
                </g>
                <g id="arrowDown" xlink:href="#dirArrow" transform="rotate(180) translate(-30 -48)" onmousedown="handlePan(0,1)">
                  <use xlink:href="#rim" fill="#404040">
                        <set attributeName="fill" to="#808080" begin="arrowDown.mouseover" end="arrowDown.mouseout"/>
                  </use>
                  <path fill="none" stroke="white" stroke-width="1.5" d="M0,-3.0v7 M-2.5,-0.5L0,-3.0L2.5,-0.5"/>
                </g>
                <g id="arrowLeft" xlink:href="#dirArrow" transform="rotate(270) translate(-36 17)" onmousedown="handlePan(-1,0)">
                  <use xlink:href="#rim" fill="#404040">
                        <set attributeName="fill" to="#808080" begin="arrowLeft.mouseover" end="arrowLeft.mouseout"/>
                  </use>
                  <path fill="none" stroke="white" stroke-width="1.5" d="M0,-3.0v7 M-2.5,-0.5L0,-3.0L2.5,-0.5"/>
                </g>
        </g>
        <svg viewBox="0 0 15 15" width="100%" height="30px" preserveAspectRatio="xMaxYMin meet">
         <g id="arrow_out" transform="scale(0.3 0.3)">
          <a xlink:href="ha__attribute_8c_a1dad9f9fe5ed051005660cf29676bbf1_cgraph_org.svg" target="_base">
           <rect id="button" ry="5" rx="5" y="6" x="6" height="38" width="38"
                fill="#f2f5e9" fill-opacity="0.5" stroke="#606060" stroke-width="1.0"/>
           <path id="arrow"
             d="M 11.500037,31.436501 C 11.940474,20.09759 22.043105,11.32322 32.158766,21.979434 L 37.068811,17.246167 C 37.068811,17.246167 37.088388,32 37.088388,32 L 22.160133,31.978069 C 22.160133,31.978069 26.997745,27.140456 26.997745,27.140456 C 18.528582,18.264221 13.291696,25.230495 11.500037,31.436501 z"
             style="fill:#404040;"/>
          </a>
         </g>
        </svg>
</svg>
