<?xml version="1.0" encoding="UTF-8" standalone="no"?>
<!DOCTYPE svg PUBLIC "-//W3C//DTD SVG 1.1//EN"
 "http://www.w3.org/Graphics/SVG/1.1/DTD/svg11.dtd">
<!-- Generated by graphviz version 2.36.0 (20140111.2315)
 -->
<!-- Title: tcg_attr_create_from_data Pages: 1 -->
<svg width="512pt" height="142pt"
 viewBox="0.00 0.00 512.00 142.00" xmlns="http://www.w3.org/2000/svg" xmlns:xlink="http://www.w3.org/1999/xlink">
<g id="graph0" class="graph" transform="scale(1 1) rotate(0) translate(4 138)">
<title>tcg_attr_create_from_data</title>
<!-- Node1 -->
<g id="node1" class="node"><title>Node1</title>
<polygon fill="#bfbfbf" stroke="black" points="0.5,-57.5 0.5,-76.5 131.5,-76.5 131.5,-57.5 0.5,-57.5"/>
<text text-anchor="middle" x="66" y="-64.5" font-family="Helvetica,sans-Serif" font-size="10.00">tcg_attr_create_from_data</text>
</g>
<!-- Node2 -->
<g id="node2" class="node"><title>Node2</title>
<g id="a_node2"><a xlink:href="../../d0/d9e/group__libimcv.html#ga1a2bc69328f409c080b8814e28972ecf" target="_top" xlink:title="libimcv_init">
<polygon fill="none" stroke="black" points="168.5,-57.5 168.5,-76.5 233.5,-76.5 233.5,-57.5 168.5,-57.5"/>
<text text-anchor="middle" x="201" y="-64.5" font-family="Helvetica,sans-Serif" font-size="10.00">libimcv_init</text>
</a>
</g>
</g>
<!-- Node1&#45;&gt;Node2 -->
<g id="edge1" class="edge"><title>Node1&#45;&gt;Node2</title>
<path fill="none" stroke="midnightblue" d="M141.768,-67C151.136,-67 160.281,-67 168.445,-67"/>
<polygon fill="midnightblue" stroke="midnightblue" points="141.552,-63.5001 131.552,-67 141.552,-70.5001 141.552,-63.5001"/>
</g>
<!-- Node3 -->
<g id="node3" class="node"><title>Node3</title>
<g id="a_node3"><a xlink:href="../../da/df6/group__imc__agent__t.html#ga4e3d8335be0a5db3f9057bbe23ce97e1" target="_top" xlink:title="imc_agent_create">
<polygon fill="none" stroke="black" points="270,-114.5 270,-133.5 364,-133.5 364,-114.5 270,-114.5"/>
<text text-anchor="middle" x="317" y="-121.5" font-family="Helvetica,sans-Serif" font-size="10.00">imc_agent_create</text>
</a>
</g>
</g>
<!-- Node2&#45;&gt;Node3 -->
<g id="edge2" class="edge"><title>Node2&#45;&gt;Node3</title>
<path fill="none" stroke="midnightblue" d="M226.591,-81.6653C239.351,-89.0372 255.306,-97.8903 270,-105 276.845,-108.312 284.419,-111.592 291.413,-114.471"/>
<polygon fill="midnightblue" stroke="midnightblue" points="228.329,-78.6268 217.928,-76.6054 224.798,-84.6713 228.329,-78.6268"/>
</g>
<!-- Node5 -->
<g id="node5" class="node"><title>Node5</title>
<g id="a_node5"><a xlink:href="../../dd/dd4/group__imv__agent__t.html#ga207ef25d8bf8c613ac61d089d0874d9b" target="_top" xlink:title="imv_agent_create">
<polygon fill="none" stroke="black" points="270,-76.5 270,-95.5 364,-95.5 364,-76.5 270,-76.5"/>
<text text-anchor="middle" x="317" y="-83.5" font-family="Helvetica,sans-Serif" font-size="10.00">imv_agent_create</text>
</a>
</g>
</g>
<!-- Node2&#45;&gt;Node5 -->
<g id="edge4" class="edge"><title>Node2&#45;&gt;Node5</title>
<path fill="none" stroke="midnightblue" d="M243.82,-73.9701C252.315,-75.3858 261.295,-76.8825 269.927,-78.3212"/>
<polygon fill="midnightblue" stroke="midnightblue" points="244.195,-70.4843 233.755,-72.2926 243.044,-77.389 244.195,-70.4843"/>
</g>
<!-- Node6 -->
<g id="node6" class="node"><title>Node6</title>
<g id="a_node6"><a xlink:href="../../da/d03/attest_8c.html#a0ddf1224851353fc92bfbff6f499fa97" target="_top" xlink:title="main">
<polygon fill="none" stroke="black" points="298,-38.5 298,-57.5 336,-57.5 336,-38.5 298,-38.5"/>
<text text-anchor="middle" x="317" y="-45.5" font-family="Helvetica,sans-Serif" font-size="10.00">main</text>
</a>
</g>
</g>
<!-- Node2&#45;&gt;Node6 -->
<g id="edge5" class="edge"><title>Node2&#45;&gt;Node6</title>
<path fill="none" stroke="midnightblue" d="M243.804,-60.0327C262.424,-56.9294 283.377,-53.4371 297.895,-51.0175"/>
<polygon fill="midnightblue" stroke="midnightblue" points="243.044,-56.611 233.755,-61.7074 244.195,-63.5157 243.044,-56.611"/>
</g>
<!-- Node7 -->
<g id="node7" class="node"><title>Node7</title>
<g id="a_node7"><a xlink:href="../../df/da3/test__imcv__seg_8c.html#ac72d7ad0385a61efdaf1d769d5b7da2b" target="_top" xlink:title="START_TEST">
<polygon fill="none" stroke="black" points="277,-0.5 277,-19.5 357,-19.5 357,-0.5 277,-0.5"/>
<text text-anchor="middle" x="317" y="-7.5" font-family="Helvetica,sans-Serif" font-size="10.00">START_TEST</text>
</a>
</g>
</g>
<!-- Node2&#45;&gt;Node7 -->
<g id="edge6" class="edge"><title>Node2&#45;&gt;Node7</title>
<path fill="none" stroke="midnightblue" d="M226.591,-52.3347C239.351,-44.9628 255.306,-36.1097 270,-29 276.845,-25.6882 284.419,-22.4082 291.413,-19.5294"/>
<polygon fill="midnightblue" stroke="midnightblue" points="224.798,-49.3287 217.928,-57.3946 228.329,-55.3732 224.798,-49.3287"/>
</g>
<!-- Node4 -->
<g id="node4" class="node"><title>Node4</title>
<g id="a_node4"><a xlink:href="../../de/d10/group__tncifimc.html#ga6a4653276d3fc1d46b7703d41a2dc5b5" target="_top" xlink:title="TNC_IMC_Initialize">
<polygon fill="none" stroke="black" points="400.5,-114.5 400.5,-133.5 503.5,-133.5 503.5,-114.5 400.5,-114.5"/>
<text text-anchor="middle" x="452" y="-121.5" font-family="Helvetica,sans-Serif" font-size="10.00">TNC_IMC_Initialize</text>
</a>
</g>
</g>
<!-- Node3&#45;&gt;Node4 -->
<g id="edge3" class="edge"><title>Node3&#45;&gt;Node4</title>
<path fill="none" stroke="midnightblue" d="M374.203,-124C382.898,-124 391.833,-124 400.395,-124"/>
<polygon fill="midnightblue" stroke="midnightblue" points="374.144,-120.5 364.144,-124 374.144,-127.5 374.144,-120.5"/>
</g>
</g>
</svg>
