<?xml version="1.0" encoding="UTF-8" standalone="no"?>
<!DOCTYPE svg PUBLIC "-//W3C//DTD SVG 1.1//EN"
 "http://www.w3.org/Graphics/SVG/1.1/DTD/svg11.dtd">
<!-- Generated by graphviz version 2.36.0 (20140111.2315)
 -->
<!-- Title: has_version Pages: 1 -->
<svg width="742pt" height="203pt"
 viewBox="0.00 0.00 742.00 203.00" xmlns="http://www.w3.org/2000/svg" xmlns:xlink="http://www.w3.org/1999/xlink">
<g id="graph0" class="graph" transform="scale(1 1) rotate(0) translate(4 199)">
<title>has_version</title>
<!-- Node1 -->
<g id="node1" class="node"><title>Node1</title>
<polygon fill="#bfbfbf" stroke="black" points="0.5,-93.5 0.5,-112.5 69.5,-112.5 69.5,-93.5 0.5,-93.5"/>
<text text-anchor="middle" x="35" y="-100.5" font-family="Helvetica,sans-Serif" font-size="10.00">has_version</text>
</g>
<!-- Node2 -->
<g id="node2" class="node"><title>Node2</title>
<g id="a_node2"><a xlink:href="../../d7/dde/pkcs11__library_8c.html#a72bfda939bcf075c6900a49a9d456af0" target="_top" xlink:title="check_features">
<polygon fill="none" stroke="black" points="106.5,-93.5 106.5,-112.5 189.5,-112.5 189.5,-93.5 106.5,-93.5"/>
<text text-anchor="middle" x="148" y="-100.5" font-family="Helvetica,sans-Serif" font-size="10.00">check_features</text>
</a>
</g>
</g>
<!-- Node1&#45;&gt;Node2 -->
<g id="edge1" class="edge"><title>Node1&#45;&gt;Node2</title>
<path fill="none" stroke="midnightblue" d="M79.7083,-103C88.5261,-103 97.7603,-103 106.464,-103"/>
<polygon fill="midnightblue" stroke="midnightblue" points="79.6049,-99.5001 69.6049,-103 79.6049,-106.5 79.6049,-99.5001"/>
</g>
<!-- Node3 -->
<g id="node3" class="node"><title>Node3</title>
<g id="a_node3"><a xlink:href="../../d7/dde/pkcs11__library_8c.html#a67272368d8aeabb35052c07f39b89bc3" target="_top" xlink:title="initialize">
<polygon fill="none" stroke="black" points="226,-93.5 226,-112.5 278,-112.5 278,-93.5 226,-93.5"/>
<text text-anchor="middle" x="252" y="-100.5" font-family="Helvetica,sans-Serif" font-size="10.00">initialize</text>
</a>
</g>
</g>
<!-- Node2&#45;&gt;Node3 -->
<g id="edge2" class="edge"><title>Node2&#45;&gt;Node3</title>
<path fill="none" stroke="midnightblue" d="M199.758,-103C208.807,-103 217.867,-103 225.797,-103"/>
<polygon fill="midnightblue" stroke="midnightblue" points="199.606,-99.5001 189.606,-103 199.606,-106.5 199.606,-99.5001"/>
</g>
<!-- Node4 -->
<g id="node4" class="node"><title>Node4</title>
<g id="a_node4"><a xlink:href="../../db/d7a/group__pkcs11__library.html#ga713597e8717962912713e6e0c603b21e" target="_top" xlink:title="pkcs11_library_create">
<polygon fill="none" stroke="black" points="314,-175.5 314,-194.5 426,-194.5 426,-175.5 314,-175.5"/>
<text text-anchor="middle" x="370" y="-182.5" font-family="Helvetica,sans-Serif" font-size="10.00">pkcs11_library_create</text>
</a>
</g>
</g>
<!-- Node3&#45;&gt;Node4 -->
<g id="edge3" class="edge"><title>Node3&#45;&gt;Node4</title>
<path fill="none" stroke="midnightblue" d="M266.399,-120.884C277.716,-134.885 295.071,-153.945 314,-166 319.88,-169.744 326.585,-172.851 333.245,-175.391"/>
<polygon fill="midnightblue" stroke="midnightblue" points="269.091,-118.645 260.172,-112.928 263.579,-122.96 269.091,-118.645"/>
</g>
<!-- Node7 -->
<g id="node7" class="node"><title>Node7</title>
<g id="a_node7"><a xlink:href="../../db/d29/group__tnc__imc__t.html#gaa118d2c187654fd19e5205e364216732" target="_top" xlink:title="tnc_imc_create">
<polygon fill="none" stroke="black" points="328.5,-137.5 328.5,-156.5 411.5,-156.5 411.5,-137.5 328.5,-137.5"/>
<text text-anchor="middle" x="370" y="-144.5" font-family="Helvetica,sans-Serif" font-size="10.00">tnc_imc_create</text>
</a>
</g>
</g>
<!-- Node3&#45;&gt;Node7 -->
<g id="edge6" class="edge"><title>Node3&#45;&gt;Node7</title>
<path fill="none" stroke="midnightblue" d="M286.355,-116.305C295.314,-119.829 305.011,-123.598 314,-127 323.217,-130.488 333.346,-134.205 342.372,-137.475"/>
<polygon fill="midnightblue" stroke="midnightblue" points="287.577,-113.024 276.991,-112.606 285.006,-119.535 287.577,-113.024"/>
</g>
<!-- Node9 -->
<g id="node9" class="node"><title>Node9</title>
<g id="a_node9"><a xlink:href="../../db/d29/group__tnc__imc__t.html#ga1aadfae10874fbf9639d364adb86f501" target="_top" xlink:title="tnc_imc_create_from\l_functions">
<polygon fill="none" stroke="black" points="316,-88 316,-118 424,-118 424,-88 316,-88"/>
<text text-anchor="start" x="324" y="-106" font-family="Helvetica,sans-Serif" font-size="10.00">tnc_imc_create_from</text>
<text text-anchor="middle" x="370" y="-95" font-family="Helvetica,sans-Serif" font-size="10.00">_functions</text>
</a>
</g>
</g>
<!-- Node3&#45;&gt;Node9 -->
<g id="edge8" class="edge"><title>Node3&#45;&gt;Node9</title>
<path fill="none" stroke="midnightblue" d="M288.293,-103C296.972,-103 306.457,-103 315.777,-103"/>
<polygon fill="midnightblue" stroke="midnightblue" points="288.17,-99.5001 278.17,-103 288.17,-106.5 288.17,-99.5001"/>
</g>
<!-- Node11 -->
<g id="node11" class="node"><title>Node11</title>
<g id="a_node11"><a xlink:href="../../df/df4/group__tnc__imv__t.html#ga172b64fb82d78a3e59e686ee11798786" target="_top" xlink:title="tnc_imv_create">
<polygon fill="none" stroke="black" points="328.5,-49.5 328.5,-68.5 411.5,-68.5 411.5,-49.5 328.5,-49.5"/>
<text text-anchor="middle" x="370" y="-56.5" font-family="Helvetica,sans-Serif" font-size="10.00">tnc_imv_create</text>
</a>
</g>
</g>
<!-- Node3&#45;&gt;Node11 -->
<g id="edge10" class="edge"><title>Node3&#45;&gt;Node11</title>
<path fill="none" stroke="midnightblue" d="M284.821,-89.5627C294.179,-85.7189 304.463,-81.5984 314,-78 322.507,-74.7904 331.83,-71.4892 340.344,-68.5575"/>
<polygon fill="midnightblue" stroke="midnightblue" points="283.375,-86.3735 275.476,-93.4346 286.054,-92.8404 283.375,-86.3735"/>
</g>
<!-- Node13 -->
<g id="node13" class="node"><title>Node13</title>
<g id="a_node13"><a xlink:href="../../df/df4/group__tnc__imv__t.html#ga83085ac061561ba131b79f151fdc0a2f" target="_top" xlink:title="tnc_imv_create_from\l_functions">
<polygon fill="none" stroke="black" points="316,-0 316,-30 424,-30 424,-0 316,-0"/>
<text text-anchor="start" x="324" y="-18" font-family="Helvetica,sans-Serif" font-size="10.00">tnc_imv_create_from</text>
<text text-anchor="middle" x="370" y="-7" font-family="Helvetica,sans-Serif" font-size="10.00">_functions</text>
</a>
</g>
</g>
<!-- Node3&#45;&gt;Node13 -->
<g id="edge12" class="edge"><title>Node3&#45;&gt;Node13</title>
<path fill="none" stroke="midnightblue" d="M266.716,-85.5892C278.214,-71.8583 295.658,-52.931 314,-40 319.229,-36.3134 325.089,-32.9642 330.982,-30.001"/>
<polygon fill="midnightblue" stroke="midnightblue" points="263.98,-83.4062 260.369,-93.367 269.403,-87.8316 263.98,-83.4062"/>
</g>
<!-- Node5 -->
<g id="node5" class="node"><title>Node5</title>
<g id="a_node5"><a xlink:href="../../de/dc4/group__pkcs11__manager.html#ga5f57b5de769280411ba58f204d4ac145" target="_top" xlink:title="pkcs11_manager_create">
<polygon fill="none" stroke="black" points="462.5,-175.5 462.5,-194.5 585.5,-194.5 585.5,-175.5 462.5,-175.5"/>
<text text-anchor="middle" x="524" y="-182.5" font-family="Helvetica,sans-Serif" font-size="10.00">pkcs11_manager_create</text>
</a>
</g>
</g>
<!-- Node4&#45;&gt;Node5 -->
<g id="edge4" class="edge"><title>Node4&#45;&gt;Node5</title>
<path fill="none" stroke="midnightblue" d="M436.33,-185C444.967,-185 453.79,-185 462.344,-185"/>
<polygon fill="midnightblue" stroke="midnightblue" points="436.306,-181.5 426.305,-185 436.305,-188.5 436.306,-181.5"/>
</g>
<!-- Node6 -->
<g id="node6" class="node"><title>Node6</title>
<g id="a_node6"><a xlink:href="../../d5/da4/pkcs11__plugin_8c.html#a72409a3834b3c33ca44e2e35755183c0" target="_top" xlink:title="pkcs11_plugin_create">
<polygon fill="none" stroke="black" points="622.5,-175.5 622.5,-194.5 733.5,-194.5 733.5,-175.5 622.5,-175.5"/>
<text text-anchor="middle" x="678" y="-182.5" font-family="Helvetica,sans-Serif" font-size="10.00">pkcs11_plugin_create</text>
</a>
</g>
</g>
<!-- Node5&#45;&gt;Node6 -->
<g id="edge5" class="edge"><title>Node5&#45;&gt;Node6</title>
<path fill="none" stroke="midnightblue" d="M595.522,-185C604.451,-185 613.481,-185 622.116,-185"/>
<polygon fill="midnightblue" stroke="midnightblue" points="595.511,-181.5 585.511,-185 595.511,-188.5 595.511,-181.5"/>
</g>
<!-- Node8 -->
<g id="node8" class="node"><title>Node8</title>
<g id="a_node8"><a xlink:href="../../dd/d14/tnc__imc__manager_8c.html#a651f12379ad8d0fa9486450e77141537" target="_top" xlink:title="METHOD">
<polygon fill="none" stroke="black" points="494,-137.5 494,-156.5 554,-156.5 554,-137.5 494,-137.5"/>
<text text-anchor="middle" x="524" y="-144.5" font-family="Helvetica,sans-Serif" font-size="10.00">METHOD</text>
</a>
</g>
</g>
<!-- Node7&#45;&gt;Node8 -->
<g id="edge7" class="edge"><title>Node7&#45;&gt;Node8</title>
<path fill="none" stroke="midnightblue" d="M422.045,-147C445.897,-147 473.439,-147 493.724,-147"/>
<polygon fill="midnightblue" stroke="midnightblue" points="421.733,-143.5 411.733,-147 421.733,-150.5 421.733,-143.5"/>
</g>
<!-- Node10 -->
<g id="node10" class="node"><title>Node10</title>
<g id="a_node10"><a xlink:href="../../dd/d14/tnc__imc__manager_8c.html#ae93e556cd1f432e126a533002156aca9" target="_top" xlink:title="METHOD">
<polygon fill="none" stroke="black" points="494,-93.5 494,-112.5 554,-112.5 554,-93.5 494,-93.5"/>
<text text-anchor="middle" x="524" y="-100.5" font-family="Helvetica,sans-Serif" font-size="10.00">METHOD</text>
</a>
</g>
</g>
<!-- Node9&#45;&gt;Node10 -->
<g id="edge9" class="edge"><title>Node9&#45;&gt;Node10</title>
<path fill="none" stroke="midnightblue" d="M434.22,-103C454.979,-103 477.049,-103 493.991,-103"/>
<polygon fill="midnightblue" stroke="midnightblue" points="434.162,-99.5001 424.162,-103 434.162,-106.5 434.162,-99.5001"/>
</g>
<!-- Node12 -->
<g id="node12" class="node"><title>Node12</title>
<g id="a_node12"><a xlink:href="../../d6/d24/tnc__imv__manager_8c.html#a7e167780c0a6346fb985af83e1f0e24e" target="_top" xlink:title="METHOD">
<polygon fill="none" stroke="black" points="494,-49.5 494,-68.5 554,-68.5 554,-49.5 494,-49.5"/>
<text text-anchor="middle" x="524" y="-56.5" font-family="Helvetica,sans-Serif" font-size="10.00">METHOD</text>
</a>
</g>
</g>
<!-- Node11&#45;&gt;Node12 -->
<g id="edge11" class="edge"><title>Node11&#45;&gt;Node12</title>
<path fill="none" stroke="midnightblue" d="M422.045,-59C445.897,-59 473.439,-59 493.724,-59"/>
<polygon fill="midnightblue" stroke="midnightblue" points="421.733,-55.5001 411.733,-59 421.733,-62.5001 421.733,-55.5001"/>
</g>
<!-- Node14 -->
<g id="node14" class="node"><title>Node14</title>
<g id="a_node14"><a xlink:href="../../d6/d24/tnc__imv__manager_8c.html#ae48e4e9ae50c2f8a57d0c4dc3b5bee5a" target="_top" xlink:title="METHOD">
<polygon fill="none" stroke="black" points="494,-5.5 494,-24.5 554,-24.5 554,-5.5 494,-5.5"/>
<text text-anchor="middle" x="524" y="-12.5" font-family="Helvetica,sans-Serif" font-size="10.00">METHOD</text>
</a>
</g>
</g>
<!-- Node13&#45;&gt;Node14 -->
<g id="edge13" class="edge"><title>Node13&#45;&gt;Node14</title>
<path fill="none" stroke="midnightblue" d="M434.22,-15C454.979,-15 477.049,-15 493.991,-15"/>
<polygon fill="midnightblue" stroke="midnightblue" points="434.162,-11.5001 424.162,-15 434.162,-18.5001 434.162,-11.5001"/>
</g>
</g>
</svg>
