<?xml version="1.0" encoding="UTF-8" standalone="no"?>
<!DOCTYPE svg PUBLIC "-//W3C//DTD SVG 1.1//EN"
 "http://www.w3.org/Graphics/SVG/1.1/DTD/svg11.dtd">
<!-- Generated by graphviz version 2.36.0 (20140111.2315)
 -->
<!-- Title: LockMutex Pages: 1 -->
<svg width="618pt" height="203pt"
 viewBox="0.00 0.00 618.00 203.00" xmlns="http://www.w3.org/2000/svg" xmlns:xlink="http://www.w3.org/1999/xlink">
<g id="graph0" class="graph" transform="scale(1 1) rotate(0) translate(4 199)">
<title>LockMutex</title>
<!-- Node1 -->
<g id="node1" class="node"><title>Node1</title>
<polygon fill="#bfbfbf" stroke="black" points="0.5,-93.5 0.5,-112.5 65.5,-112.5 65.5,-93.5 0.5,-93.5"/>
<text text-anchor="middle" x="33" y="-100.5" font-family="Helvetica,sans-Serif" font-size="10.00">LockMutex</text>
</g>
<!-- Node2 -->
<g id="node2" class="node"><title>Node2</title>
<g id="a_node2"><a xlink:href="../../d7/dde/pkcs11__library_8c.html#a67272368d8aeabb35052c07f39b89bc3" target="_top" xlink:title="initialize">
<polygon fill="none" stroke="black" points="102,-93.5 102,-112.5 154,-112.5 154,-93.5 102,-93.5"/>
<text text-anchor="middle" x="128" y="-100.5" font-family="Helvetica,sans-Serif" font-size="10.00">initialize</text>
</a>
</g>
</g>
<!-- Node1&#45;&gt;Node2 -->
<g id="edge1" class="edge"><title>Node1&#45;&gt;Node2</title>
<path fill="none" stroke="midnightblue" d="M75.9476,-103C84.7914,-103 93.857,-103 101.848,-103"/>
<polygon fill="midnightblue" stroke="midnightblue" points="75.7452,-99.5001 65.7452,-103 75.7452,-106.5 75.7452,-99.5001"/>
</g>
<!-- Node3 -->
<g id="node3" class="node"><title>Node3</title>
<g id="a_node3"><a xlink:href="../../db/d7a/group__pkcs11__library.html#ga713597e8717962912713e6e0c603b21e" target="_top" xlink:title="pkcs11_library_create">
<polygon fill="none" stroke="black" points="190,-175.5 190,-194.5 302,-194.5 302,-175.5 190,-175.5"/>
<text text-anchor="middle" x="246" y="-182.5" font-family="Helvetica,sans-Serif" font-size="10.00">pkcs11_library_create</text>
</a>
</g>
</g>
<!-- Node2&#45;&gt;Node3 -->
<g id="edge2" class="edge"><title>Node2&#45;&gt;Node3</title>
<path fill="none" stroke="midnightblue" d="M142.399,-120.884C153.716,-134.885 171.071,-153.945 190,-166 195.88,-169.744 202.585,-172.851 209.245,-175.391"/>
<polygon fill="midnightblue" stroke="midnightblue" points="145.091,-118.645 136.172,-112.928 139.579,-122.96 145.091,-118.645"/>
</g>
<!-- Node6 -->
<g id="node6" class="node"><title>Node6</title>
<g id="a_node6"><a xlink:href="../../db/d29/group__tnc__imc__t.html#gaa118d2c187654fd19e5205e364216732" target="_top" xlink:title="tnc_imc_create">
<polygon fill="none" stroke="black" points="204.5,-137.5 204.5,-156.5 287.5,-156.5 287.5,-137.5 204.5,-137.5"/>
<text text-anchor="middle" x="246" y="-144.5" font-family="Helvetica,sans-Serif" font-size="10.00">tnc_imc_create</text>
</a>
</g>
</g>
<!-- Node2&#45;&gt;Node6 -->
<g id="edge5" class="edge"><title>Node2&#45;&gt;Node6</title>
<path fill="none" stroke="midnightblue" d="M162.355,-116.305C171.314,-119.829 181.011,-123.598 190,-127 199.217,-130.488 209.346,-134.205 218.372,-137.475"/>
<polygon fill="midnightblue" stroke="midnightblue" points="163.577,-113.024 152.991,-112.606 161.006,-119.535 163.577,-113.024"/>
</g>
<!-- Node8 -->
<g id="node8" class="node"><title>Node8</title>
<g id="a_node8"><a xlink:href="../../db/d29/group__tnc__imc__t.html#ga1aadfae10874fbf9639d364adb86f501" target="_top" xlink:title="tnc_imc_create_from\l_functions">
<polygon fill="none" stroke="black" points="192,-88 192,-118 300,-118 300,-88 192,-88"/>
<text text-anchor="start" x="200" y="-106" font-family="Helvetica,sans-Serif" font-size="10.00">tnc_imc_create_from</text>
<text text-anchor="middle" x="246" y="-95" font-family="Helvetica,sans-Serif" font-size="10.00">_functions</text>
</a>
</g>
</g>
<!-- Node2&#45;&gt;Node8 -->
<g id="edge7" class="edge"><title>Node2&#45;&gt;Node8</title>
<path fill="none" stroke="midnightblue" d="M164.293,-103C172.972,-103 182.457,-103 191.777,-103"/>
<polygon fill="midnightblue" stroke="midnightblue" points="164.17,-99.5001 154.17,-103 164.17,-106.5 164.17,-99.5001"/>
</g>
<!-- Node10 -->
<g id="node10" class="node"><title>Node10</title>
<g id="a_node10"><a xlink:href="../../df/df4/group__tnc__imv__t.html#ga172b64fb82d78a3e59e686ee11798786" target="_top" xlink:title="tnc_imv_create">
<polygon fill="none" stroke="black" points="204.5,-49.5 204.5,-68.5 287.5,-68.5 287.5,-49.5 204.5,-49.5"/>
<text text-anchor="middle" x="246" y="-56.5" font-family="Helvetica,sans-Serif" font-size="10.00">tnc_imv_create</text>
</a>
</g>
</g>
<!-- Node2&#45;&gt;Node10 -->
<g id="edge9" class="edge"><title>Node2&#45;&gt;Node10</title>
<path fill="none" stroke="midnightblue" d="M160.821,-89.5627C170.179,-85.7189 180.463,-81.5984 190,-78 198.507,-74.7904 207.83,-71.4892 216.344,-68.5575"/>
<polygon fill="midnightblue" stroke="midnightblue" points="159.375,-86.3735 151.476,-93.4346 162.054,-92.8404 159.375,-86.3735"/>
</g>
<!-- Node12 -->
<g id="node12" class="node"><title>Node12</title>
<g id="a_node12"><a xlink:href="../../df/df4/group__tnc__imv__t.html#ga83085ac061561ba131b79f151fdc0a2f" target="_top" xlink:title="tnc_imv_create_from\l_functions">
<polygon fill="none" stroke="black" points="192,-0 192,-30 300,-30 300,-0 192,-0"/>
<text text-anchor="start" x="200" y="-18" font-family="Helvetica,sans-Serif" font-size="10.00">tnc_imv_create_from</text>
<text text-anchor="middle" x="246" y="-7" font-family="Helvetica,sans-Serif" font-size="10.00">_functions</text>
</a>
</g>
</g>
<!-- Node2&#45;&gt;Node12 -->
<g id="edge11" class="edge"><title>Node2&#45;&gt;Node12</title>
<path fill="none" stroke="midnightblue" d="M142.716,-85.5892C154.214,-71.8583 171.658,-52.931 190,-40 195.229,-36.3134 201.089,-32.9642 206.982,-30.001"/>
<polygon fill="midnightblue" stroke="midnightblue" points="139.98,-83.4062 136.369,-93.367 145.403,-87.8316 139.98,-83.4062"/>
</g>
<!-- Node4 -->
<g id="node4" class="node"><title>Node4</title>
<g id="a_node4"><a xlink:href="../../de/dc4/group__pkcs11__manager.html#ga5f57b5de769280411ba58f204d4ac145" target="_top" xlink:title="pkcs11_manager_create">
<polygon fill="none" stroke="black" points="338.5,-175.5 338.5,-194.5 461.5,-194.5 461.5,-175.5 338.5,-175.5"/>
<text text-anchor="middle" x="400" y="-182.5" font-family="Helvetica,sans-Serif" font-size="10.00">pkcs11_manager_create</text>
</a>
</g>
</g>
<!-- Node3&#45;&gt;Node4 -->
<g id="edge3" class="edge"><title>Node3&#45;&gt;Node4</title>
<path fill="none" stroke="midnightblue" d="M312.33,-185C320.967,-185 329.79,-185 338.344,-185"/>
<polygon fill="midnightblue" stroke="midnightblue" points="312.306,-181.5 302.305,-185 312.305,-188.5 312.306,-181.5"/>
</g>
<!-- Node5 -->
<g id="node5" class="node"><title>Node5</title>
<g id="a_node5"><a xlink:href="../../d5/da4/pkcs11__plugin_8c.html#a72409a3834b3c33ca44e2e35755183c0" target="_top" xlink:title="pkcs11_plugin_create">
<polygon fill="none" stroke="black" points="498.5,-175.5 498.5,-194.5 609.5,-194.5 609.5,-175.5 498.5,-175.5"/>
<text text-anchor="middle" x="554" y="-182.5" font-family="Helvetica,sans-Serif" font-size="10.00">pkcs11_plugin_create</text>
</a>
</g>
</g>
<!-- Node4&#45;&gt;Node5 -->
<g id="edge4" class="edge"><title>Node4&#45;&gt;Node5</title>
<path fill="none" stroke="midnightblue" d="M471.522,-185C480.451,-185 489.481,-185 498.116,-185"/>
<polygon fill="midnightblue" stroke="midnightblue" points="471.511,-181.5 461.511,-185 471.511,-188.5 471.511,-181.5"/>
</g>
<!-- Node7 -->
<g id="node7" class="node"><title>Node7</title>
<g id="a_node7"><a xlink:href="../../dd/d14/tnc__imc__manager_8c.html#a651f12379ad8d0fa9486450e77141537" target="_top" xlink:title="METHOD">
<polygon fill="none" stroke="black" points="370,-137.5 370,-156.5 430,-156.5 430,-137.5 370,-137.5"/>
<text text-anchor="middle" x="400" y="-144.5" font-family="Helvetica,sans-Serif" font-size="10.00">METHOD</text>
</a>
</g>
</g>
<!-- Node6&#45;&gt;Node7 -->
<g id="edge6" class="edge"><title>Node6&#45;&gt;Node7</title>
<path fill="none" stroke="midnightblue" d="M298.045,-147C321.897,-147 349.439,-147 369.724,-147"/>
<polygon fill="midnightblue" stroke="midnightblue" points="297.733,-143.5 287.733,-147 297.733,-150.5 297.733,-143.5"/>
</g>
<!-- Node9 -->
<g id="node9" class="node"><title>Node9</title>
<g id="a_node9"><a xlink:href="../../dd/d14/tnc__imc__manager_8c.html#ae93e556cd1f432e126a533002156aca9" target="_top" xlink:title="METHOD">
<polygon fill="none" stroke="black" points="370,-93.5 370,-112.5 430,-112.5 430,-93.5 370,-93.5"/>
<text text-anchor="middle" x="400" y="-100.5" font-family="Helvetica,sans-Serif" font-size="10.00">METHOD</text>
</a>
</g>
</g>
<!-- Node8&#45;&gt;Node9 -->
<g id="edge8" class="edge"><title>Node8&#45;&gt;Node9</title>
<path fill="none" stroke="midnightblue" d="M310.22,-103C330.979,-103 353.049,-103 369.991,-103"/>
<polygon fill="midnightblue" stroke="midnightblue" points="310.162,-99.5001 300.162,-103 310.162,-106.5 310.162,-99.5001"/>
</g>
<!-- Node11 -->
<g id="node11" class="node"><title>Node11</title>
<g id="a_node11"><a xlink:href="../../d6/d24/tnc__imv__manager_8c.html#a7e167780c0a6346fb985af83e1f0e24e" target="_top" xlink:title="METHOD">
<polygon fill="none" stroke="black" points="370,-49.5 370,-68.5 430,-68.5 430,-49.5 370,-49.5"/>
<text text-anchor="middle" x="400" y="-56.5" font-family="Helvetica,sans-Serif" font-size="10.00">METHOD</text>
</a>
</g>
</g>
<!-- Node10&#45;&gt;Node11 -->
<g id="edge10" class="edge"><title>Node10&#45;&gt;Node11</title>
<path fill="none" stroke="midnightblue" d="M298.045,-59C321.897,-59 349.439,-59 369.724,-59"/>
<polygon fill="midnightblue" stroke="midnightblue" points="297.733,-55.5001 287.733,-59 297.733,-62.5001 297.733,-55.5001"/>
</g>
<!-- Node13 -->
<g id="node13" class="node"><title>Node13</title>
<g id="a_node13"><a xlink:href="../../d6/d24/tnc__imv__manager_8c.html#ae48e4e9ae50c2f8a57d0c4dc3b5bee5a" target="_top" xlink:title="METHOD">
<polygon fill="none" stroke="black" points="370,-5.5 370,-24.5 430,-24.5 430,-5.5 370,-5.5"/>
<text text-anchor="middle" x="400" y="-12.5" font-family="Helvetica,sans-Serif" font-size="10.00">METHOD</text>
</a>
</g>
</g>
<!-- Node12&#45;&gt;Node13 -->
<g id="edge12" class="edge"><title>Node12&#45;&gt;Node13</title>
<path fill="none" stroke="midnightblue" d="M310.22,-15C330.979,-15 353.049,-15 369.991,-15"/>
<polygon fill="midnightblue" stroke="midnightblue" points="310.162,-11.5001 300.162,-15 310.162,-18.5001 310.162,-11.5001"/>
</g>
</g>
</svg>
