<?xml version="1.0" encoding="UTF-8" standalone="no"?>
<!DOCTYPE svg PUBLIC "-//W3C//DTD SVG 1.1//EN"
 "http://www.w3.org/Graphics/SVG/1.1/DTD/svg11.dtd">
<!-- Generated by graphviz version 2.36.0 (20140111.2315)
 -->
<!-- Title: private_vici_config_t Pages: 1 -->
<svg width="477pt" height="164pt"
 viewBox="0.00 0.00 476.64 164.00" xmlns="http://www.w3.org/2000/svg" xmlns:xlink="http://www.w3.org/1999/xlink">
<g id="graph0" class="graph" transform="scale(1 1) rotate(0) translate(4 160)">
<title>private_vici_config_t</title>
<!-- Node1 -->
<g id="node1" class="node"><title>Node1</title>
<polygon fill="#bfbfbf" stroke="black" points="119.641,-0.5 119.641,-19.5 225.641,-19.5 225.641,-0.5 119.641,-0.5"/>
<text text-anchor="middle" x="172.641" y="-7.5" font-family="Helvetica,sans-Serif" font-size="10.00">private_vici_config_t</text>
</g>
<!-- Node2 -->
<g id="node2" class="node"><title>Node2</title>
<g id="a_node2"><a xlink:href="../../d6/dfa/structvici__authority__t.html" target="_top" xlink:title="vici_authority_t">
<polygon fill="none" stroke="black" points="45.1406,-68.5 45.1406,-87.5 128.141,-87.5 128.141,-68.5 45.1406,-68.5"/>
<text text-anchor="middle" x="86.6406" y="-75.5" font-family="Helvetica,sans-Serif" font-size="10.00">vici_authority_t</text>
</a>
</g>
</g>
<!-- Node2&#45;&gt;Node1 -->
<g id="edge1" class="edge"><title>Node2&#45;&gt;Node1</title>
<path fill="none" stroke="#9a32cd" stroke-dasharray="5,2" d="M101.872,-60.9629C109.298,-53.5595 118.569,-44.9022 127.641,-38 136.632,-31.1592 147.47,-24.6107 156.258,-19.6764"/>
<polygon fill="#9a32cd" stroke="#9a32cd" points="99.1252,-58.7657 94.6348,-68.362 104.129,-63.6605 99.1252,-58.7657"/>
<text text-anchor="middle" x="148.141" y="-41.5" font-family="Helvetica,sans-Serif" font-size="10.00"> authority</text>
</g>
<!-- Node3 -->
<g id="node3" class="node"><title>Node3</title>
<polygon fill="none" stroke="#bfbfbf" points="0.14063,-136.5 0.14063,-155.5 41.1406,-155.5 41.1406,-136.5 0.14063,-136.5"/>
<text text-anchor="middle" x="20.6406" y="-143.5" font-family="Helvetica,sans-Serif" font-size="10.00">struct</text>
</g>
<!-- Node3&#45;&gt;Node1 -->
<g id="edge4" class="edge"><title>Node3&#45;&gt;Node1</title>
<path fill="none" stroke="#9a32cd" stroke-dasharray="5,2" d="M10.471,-127.259C2.35498,-110.498 -5.78143,-85.3994 6.64063,-68 32.0476,-32.4128 81.1303,-18.8121 119.363,-13.7308"/>
<polygon fill="#9a32cd" stroke="#9a32cd" points="7.57282,-129.266 15.3377,-136.475 13.7626,-125.997 7.57282,-129.266"/>
<text text-anchor="middle" x="21.1406" y="-75.5" font-family="Helvetica,sans-Serif" font-size="10.00"> public</text>
</g>
<!-- Node3&#45;&gt;Node2 -->
<g id="edge2" class="edge"><title>Node3&#45;&gt;Node2</title>
<path fill="none" stroke="#9a32cd" stroke-dasharray="5,2" d="M36.5932,-129.047C49.5295,-116.111 67.2839,-98.3567 77.7995,-87.8411"/>
<polygon fill="#9a32cd" stroke="#9a32cd" points="33.8652,-126.826 29.269,-136.372 38.815,-131.775 33.8652,-126.826"/>
<text text-anchor="middle" x="68.1406" y="-109.5" font-family="Helvetica,sans-Serif" font-size="10.00"> set</text>
</g>
<!-- Node4 -->
<g id="node4" class="node"><title>Node4</title>
<g id="a_node4"><a xlink:href="../../db/d86/structrwlock__t.html" target="_top" xlink:title="rwlock_t">
<polygon fill="none" stroke="black" points="146.141,-68.5 146.141,-87.5 199.141,-87.5 199.141,-68.5 146.141,-68.5"/>
<text text-anchor="middle" x="172.641" y="-75.5" font-family="Helvetica,sans-Serif" font-size="10.00">rwlock_t</text>
</a>
</g>
</g>
<!-- Node4&#45;&gt;Node1 -->
<g id="edge3" class="edge"><title>Node4&#45;&gt;Node1</title>
<path fill="none" stroke="#9a32cd" stroke-dasharray="5,2" d="M172.641,-58.0413C172.641,-45.4724 172.641,-29.5631 172.641,-19.8411"/>
<polygon fill="#9a32cd" stroke="#9a32cd" points="169.141,-58.3716 172.641,-68.3717 176.141,-58.3717 169.141,-58.3716"/>
<text text-anchor="middle" x="183.641" y="-41.5" font-family="Helvetica,sans-Serif" font-size="10.00"> lock</text>
</g>
<!-- Node5 -->
<g id="node5" class="node"><title>Node5</title>
<g id="a_node5"><a xlink:href="../../dc/de6/structlinked__list__t.html" target="_top" xlink:title="linked_list_t">
<polygon fill="none" stroke="black" points="217.641,-68.5 217.641,-87.5 285.641,-87.5 285.641,-68.5 217.641,-68.5"/>
<text text-anchor="middle" x="251.641" y="-75.5" font-family="Helvetica,sans-Serif" font-size="10.00">linked_list_t</text>
</a>
</g>
</g>
<!-- Node5&#45;&gt;Node1 -->
<g id="edge5" class="edge"><title>Node5&#45;&gt;Node1</title>
<path fill="none" stroke="#9a32cd" stroke-dasharray="5,2" d="M233.368,-61.7343C217.719,-48.6606 195.747,-30.3039 182.971,-19.6305"/>
<polygon fill="#9a32cd" stroke="#9a32cd" points="231.394,-64.6462 241.313,-68.3717 235.882,-59.2742 231.394,-64.6462"/>
<text text-anchor="middle" x="234.641" y="-41.5" font-family="Helvetica,sans-Serif" font-size="10.00"> conns</text>
</g>
<!-- Node5&#45;&gt;Node5 -->
<g id="edge6" class="edge"><title>Node5&#45;&gt;Node5</title>
<path fill="none" stroke="#9a32cd" stroke-dasharray="5,2" d="M295.788,-83.333C300.565,-82.3094 303.641,-80.5317 303.641,-78 303.641,-73.9492 295.767,-71.8289 285.649,-71.639"/>
<polygon fill="#9a32cd" stroke="#9a32cd" points="295.245,-79.87 285.649,-84.361 295.951,-86.8343 295.245,-79.87"/>
<text text-anchor="middle" x="332.141" y="-75.5" font-family="Helvetica,sans-Serif" font-size="10.00"> clone_offset</text>
</g>
<!-- Node6 -->
<g id="node6" class="node"><title>Node6</title>
<g id="a_node6"><a xlink:href="../../db/dd3/structenumerator__t.html" target="_top" xlink:title="enumerator_t">
<polygon fill="none" stroke="black" points="214.641,-136.5 214.641,-155.5 288.641,-155.5 288.641,-136.5 214.641,-136.5"/>
<text text-anchor="middle" x="251.641" y="-143.5" font-family="Helvetica,sans-Serif" font-size="10.00">enumerator_t</text>
</a>
</g>
</g>
<!-- Node6&#45;&gt;Node5 -->
<g id="edge7" class="edge"><title>Node6&#45;&gt;Node5</title>
<path fill="none" stroke="#9a32cd" stroke-dasharray="5,2" d="M251.641,-126.041C251.641,-113.472 251.641,-97.5631 251.641,-87.8411"/>
<polygon fill="#9a32cd" stroke="#9a32cd" points="248.141,-126.372 251.641,-136.372 255.141,-126.372 248.141,-126.372"/>
<text text-anchor="middle" x="294.141" y="-109.5" font-family="Helvetica,sans-Serif" font-size="10.00"> create_enumerator</text>
</g>
<!-- Node7 -->
<g id="node7" class="node"><title>Node7</title>
<g id="a_node7"><a xlink:href="../../d2/d7f/structvici__dispatcher__t.html" target="_top" xlink:title="vici_dispatcher_t">
<polygon fill="none" stroke="black" points="378.641,-68.5 378.641,-87.5 468.641,-87.5 468.641,-68.5 378.641,-68.5"/>
<text text-anchor="middle" x="423.641" y="-75.5" font-family="Helvetica,sans-Serif" font-size="10.00">vici_dispatcher_t</text>
</a>
</g>
</g>
<!-- Node7&#45;&gt;Node1 -->
<g id="edge8" class="edge"><title>Node7&#45;&gt;Node1</title>
<path fill="none" stroke="#9a32cd" stroke-dasharray="5,2" d="M381.278,-65.861C331.546,-52.784 250.155,-31.3823 205.139,-19.5455"/>
<polygon fill="#9a32cd" stroke="#9a32cd" points="380.523,-69.2811 391.084,-68.4393 382.303,-62.5113 380.523,-69.2811"/>
<text text-anchor="middle" x="345.141" y="-41.5" font-family="Helvetica,sans-Serif" font-size="10.00"> dispatcher</text>
</g>
</g>
</svg>
