<?xml version="1.0" encoding="UTF-8" standalone="no"?>
<!DOCTYPE svg PUBLIC "-//W3C//DTD SVG 1.1//EN"
 "http://www.w3.org/Graphics/SVG/1.1/DTD/svg11.dtd">
<!-- Generated by graphviz version 2.36.0 (20140111.2315)
 -->
<!-- Title: parser_create Pages: 1 -->
<svg width="1230pt" height="721pt"
 viewBox="0.00 0.00 1230.00 721.00" xmlns="http://www.w3.org/2000/svg" xmlns:xlink="http://www.w3.org/1999/xlink">
<g id="graph0" class="graph" transform="scale(1 1) rotate(0) translate(4 717)">
<title>parser_create</title>
<!-- Node1 -->
<g id="node1" class="node"><title>Node1</title>
<polygon fill="#bfbfbf" stroke="black" points="0,-272.5 0,-291.5 76,-291.5 76,-272.5 0,-272.5"/>
<text text-anchor="middle" x="38" y="-279.5" font-family="Helvetica,sans-Serif" font-size="10.00">parser_create</text>
</g>
<!-- Node2 -->
<g id="node2" class="node"><title>Node2</title>
<g id="a_node2"><a xlink:href="../../de/d9a/group__message.html#ga2c4a060592f02346b2dbf3d1df2e6e3c" target="_top" xlink:title="message_create_from\l_packet">
<polygon fill="none" stroke="black" points="112.5,-337 112.5,-367 225.5,-367 225.5,-337 112.5,-337"/>
<text text-anchor="start" x="120.5" y="-355" font-family="Helvetica,sans-Serif" font-size="10.00">message_create_from</text>
<text text-anchor="middle" x="169" y="-344" font-family="Helvetica,sans-Serif" font-size="10.00">_packet</text>
</a>
</g>
</g>
<!-- Node1&#45;&gt;Node2 -->
<g id="edge1" class="edge"><title>Node1&#45;&gt;Node2</title>
<path fill="none" stroke="midnightblue" d="M65.6885,-296.482C87.4522,-308.292 118.094,-324.919 140.163,-336.895"/>
<polygon fill="midnightblue" stroke="midnightblue" points="67.1251,-293.28 56.6664,-291.586 63.7865,-299.432 67.1251,-293.28"/>
</g>
<!-- Node45 -->
<g id="node45" class="node"><title>Node45</title>
<g id="a_node45"><a xlink:href="../../d0/d6d/message_8c.html#a25aa04281d47a67d202211b65f200c49" target="_top" xlink:title="METHOD">
<polygon fill="none" stroke="black" points="139,-272.5 139,-291.5 199,-291.5 199,-272.5 139,-272.5"/>
<text text-anchor="middle" x="169" y="-279.5" font-family="Helvetica,sans-Serif" font-size="10.00">METHOD</text>
</a>
</g>
</g>
<!-- Node1&#45;&gt;Node45 -->
<g id="edge52" class="edge"><title>Node1&#45;&gt;Node45</title>
<path fill="none" stroke="midnightblue" d="M86.4264,-282C104.038,-282 123.48,-282 138.964,-282"/>
<polygon fill="midnightblue" stroke="midnightblue" points="86.3122,-278.5 76.3121,-282 86.3121,-285.5 86.3122,-278.5"/>
</g>
<!-- Node46 -->
<g id="node46" class="node"><title>Node46</title>
<g id="a_node46"><a xlink:href="../../d3/da3/encrypted__payload_8c.html#ae784c541b1c9d8fadba319a4376822c2" target="_top" xlink:title="parse">
<polygon fill="none" stroke="black" points="148.5,-190.5 148.5,-209.5 189.5,-209.5 189.5,-190.5 148.5,-190.5"/>
<text text-anchor="middle" x="169" y="-197.5" font-family="Helvetica,sans-Serif" font-size="10.00">parse</text>
</a>
</g>
</g>
<!-- Node1&#45;&gt;Node46 -->
<g id="edge53" class="edge"><title>Node1&#45;&gt;Node46</title>
<path fill="none" stroke="midnightblue" d="M62.6749,-266.951C89.0428,-250.19 130.867,-223.604 153.045,-209.506"/>
<polygon fill="midnightblue" stroke="midnightblue" points="60.6121,-264.115 54.0504,-272.433 64.3673,-270.022 60.6121,-264.115"/>
</g>
<!-- Node3 -->
<g id="node3" class="node"><title>Node3</title>
<g id="a_node3"><a xlink:href="../../de/d9a/group__message.html#gac4bba880d7840360ecb8e4137526420b" target="_top" xlink:title="message_create">
<polygon fill="none" stroke="black" points="262.5,-494.5 262.5,-513.5 351.5,-513.5 351.5,-494.5 262.5,-494.5"/>
<text text-anchor="middle" x="307" y="-501.5" font-family="Helvetica,sans-Serif" font-size="10.00">message_create</text>
</a>
</g>
</g>
<!-- Node2&#45;&gt;Node3 -->
<g id="edge2" class="edge"><title>Node2&#45;&gt;Node3</title>
<path fill="none" stroke="midnightblue" d="M190.28,-374.666C220.47,-408.408 275.966,-470.433 297.315,-494.293"/>
<polygon fill="midnightblue" stroke="midnightblue" points="192.814,-372.249 183.537,-367.13 187.597,-376.916 192.814,-372.249"/>
</g>
<!-- Node38 -->
<g id="node38" class="node"><title>Node38</title>
<g id="a_node38"><a xlink:href="../../d0/d09/receiver_8c.html#a9bccfc7693a6ed7598f9d95d8f9d8c8c" target="_top" xlink:title="receive_packets">
<polygon fill="none" stroke="black" points="736,-228.5 736,-247.5 824,-247.5 824,-228.5 736,-228.5"/>
<text text-anchor="middle" x="780" y="-235.5" font-family="Helvetica,sans-Serif" font-size="10.00">receive_packets</text>
</a>
</g>
</g>
<!-- Node2&#45;&gt;Node38 -->
<g id="edge51" class="edge"><title>Node2&#45;&gt;Node38</title>
<path fill="none" stroke="midnightblue" d="M235.779,-338.232C244.589,-336.442 253.51,-334.657 262,-333 437.335,-298.79 646.814,-261.352 735.705,-245.625"/>
<polygon fill="midnightblue" stroke="midnightblue" points="235.007,-334.818 225.91,-340.249 236.408,-341.676 235.007,-334.818"/>
</g>
<!-- Node43 -->
<g id="node43" class="node"><title>Node43</title>
<g id="a_node43"><a xlink:href="../../d6/d0b/sender_8c.html#a4490fe122117f34951d46fe327899084" target="_top" xlink:title="METHOD">
<polygon fill="none" stroke="black" points="277,-342.5 277,-361.5 337,-361.5 337,-342.5 277,-342.5"/>
<text text-anchor="middle" x="307" y="-349.5" font-family="Helvetica,sans-Serif" font-size="10.00">METHOD</text>
</a>
</g>
</g>
<!-- Node2&#45;&gt;Node43 -->
<g id="edge48" class="edge"><title>Node2&#45;&gt;Node43</title>
<path fill="none" stroke="midnightblue" d="M236.031,-352C250.283,-352 264.651,-352 276.627,-352"/>
<polygon fill="midnightblue" stroke="midnightblue" points="235.709,-348.5 225.709,-352 235.709,-355.5 235.709,-348.5"/>
</g>
<!-- Node44 -->
<g id="node44" class="node"><title>Node44</title>
<g id="a_node44"><a xlink:href="../../dd/d65/task__manager__v1_8c.html#aa255c4363c0ecb4f720d433d77047290" target="_top" xlink:title="queue_message">
<polygon fill="none" stroke="black" points="263,-627.5 263,-646.5 351,-646.5 351,-627.5 263,-627.5"/>
<text text-anchor="middle" x="307" y="-634.5" font-family="Helvetica,sans-Serif" font-size="10.00">queue_message</text>
</a>
</g>
</g>
<!-- Node2&#45;&gt;Node44 -->
<g id="edge49" class="edge"><title>Node2&#45;&gt;Node44</title>
<path fill="none" stroke="midnightblue" d="M181.645,-376.403C210.127,-436.089 282.363,-587.466 301.363,-627.282"/>
<polygon fill="midnightblue" stroke="midnightblue" points="184.778,-374.841 177.312,-367.323 178.46,-377.855 184.778,-374.841"/>
</g>
<!-- Node4 -->
<g id="node4" class="node"><title>Node4</title>
<g id="a_node4"><a xlink:href="../../dd/d65/task__manager__v1_8c.html#a4e51f0d370b0cb7eb17fdddf8ea4e8ce" target="_top" xlink:title="build_response">
<polygon fill="none" stroke="black" points="423,-570.5 423,-589.5 505,-589.5 505,-570.5 423,-570.5"/>
<text text-anchor="middle" x="464" y="-577.5" font-family="Helvetica,sans-Serif" font-size="10.00">build_response</text>
</a>
</g>
</g>
<!-- Node3&#45;&gt;Node4 -->
<g id="edge3" class="edge"><title>Node3&#45;&gt;Node4</title>
<path fill="none" stroke="midnightblue" d="M326.316,-520.083C341.78,-532.884 365.019,-550.36 388,-561 398.848,-566.023 411.219,-569.849 422.741,-572.705"/>
<polygon fill="midnightblue" stroke="midnightblue" points="328.468,-517.319 318.575,-513.526 323.943,-522.66 328.468,-517.319"/>
</g>
<!-- Node7 -->
<g id="node7" class="node"><title>Node7</title>
<g id="a_node7"><a xlink:href="../../d0/d6d/message_8c.html#a6551c49d481314545330368807cdc222" target="_top" xlink:title="clone_message">
<polygon fill="none" stroke="black" points="421.5,-532.5 421.5,-551.5 506.5,-551.5 506.5,-532.5 421.5,-532.5"/>
<text text-anchor="middle" x="464" y="-539.5" font-family="Helvetica,sans-Serif" font-size="10.00">clone_message</text>
</a>
</g>
</g>
<!-- Node3&#45;&gt;Node7 -->
<g id="edge6" class="edge"><title>Node3&#45;&gt;Node7</title>
<path fill="none" stroke="midnightblue" d="M357.111,-516.04C378.765,-521.349 403.85,-527.499 424.168,-532.48"/>
<polygon fill="midnightblue" stroke="midnightblue" points="357.659,-512.571 347.113,-513.589 355.992,-519.37 357.659,-512.571"/>
</g>
<!-- Node13 -->
<g id="node13" class="node"><title>Node13</title>
<g id="a_node13"><a xlink:href="../../dc/de4/force__cookie_8c.html#ae43af9385cfeba20b42ede2692874d76" target="_top" xlink:title="METHOD">
<polygon fill="none" stroke="black" points="434,-494.5 434,-513.5 494,-513.5 494,-494.5 434,-494.5"/>
<text text-anchor="middle" x="464" y="-501.5" font-family="Helvetica,sans-Serif" font-size="10.00">METHOD</text>
</a>
</g>
</g>
<!-- Node3&#45;&gt;Node13 -->
<g id="edge13" class="edge"><title>Node3&#45;&gt;Node13</title>
<path fill="none" stroke="midnightblue" d="M361.734,-504C385.97,-504 413.639,-504 433.924,-504"/>
<polygon fill="midnightblue" stroke="midnightblue" points="361.589,-500.5 351.589,-504 361.589,-507.5 361.589,-500.5"/>
</g>
<!-- Node14 -->
<g id="node14" class="node"><title>Node14</title>
<g id="a_node14"><a xlink:href="../../de/dc6/ike__auth_8c.html#a41d91702aee00e57d8ff741fac8b3c5b" target="_top" xlink:title="send_auth_failed_informational">
<polygon fill="none" stroke="black" points="388.5,-456.5 388.5,-475.5 539.5,-475.5 539.5,-456.5 388.5,-456.5"/>
<text text-anchor="middle" x="464" y="-463.5" font-family="Helvetica,sans-Serif" font-size="10.00">send_auth_failed_informational</text>
</a>
</g>
</g>
<!-- Node3&#45;&gt;Node14 -->
<g id="edge14" class="edge"><title>Node3&#45;&gt;Node14</title>
<path fill="none" stroke="midnightblue" d="M357.111,-491.96C378.765,-486.651 403.85,-480.501 424.168,-475.52"/>
<polygon fill="midnightblue" stroke="midnightblue" points="355.992,-488.63 347.113,-494.411 357.659,-495.429 355.992,-488.63"/>
</g>
<!-- Node16 -->
<g id="node16" class="node"><title>Node16</title>
<g id="a_node16"><a xlink:href="../../d9/d32/connect__manager_8c.html#a84c6b0f36d7353c32bb874be21759a5f" target="_top" xlink:title="send_check">
<polygon fill="none" stroke="black" points="429.5,-418.5 429.5,-437.5 498.5,-437.5 498.5,-418.5 429.5,-418.5"/>
<text text-anchor="middle" x="464" y="-425.5" font-family="Helvetica,sans-Serif" font-size="10.00">send_check</text>
</a>
</g>
</g>
<!-- Node3&#45;&gt;Node16 -->
<g id="edge16" class="edge"><title>Node3&#45;&gt;Node16</title>
<path fill="none" stroke="midnightblue" d="M326.316,-487.917C341.78,-475.116 365.019,-457.64 388,-447 400.921,-441.018 416,-436.732 429.235,-433.764"/>
<polygon fill="midnightblue" stroke="midnightblue" points="323.943,-485.34 318.575,-494.474 328.468,-490.681 323.943,-485.34"/>
</g>
<!-- Node36 -->
<g id="node36" class="node"><title>Node36</title>
<g id="a_node36"><a xlink:href="../../d0/d09/receiver_8c.html#ad3115b21019007f295f02d2177ff9db8" target="_top" xlink:title="send_notify">
<polygon fill="none" stroke="black" points="430.5,-323.5 430.5,-342.5 497.5,-342.5 497.5,-323.5 430.5,-323.5"/>
<text text-anchor="middle" x="464" y="-330.5" font-family="Helvetica,sans-Serif" font-size="10.00">send_notify</text>
</a>
</g>
</g>
<!-- Node3&#45;&gt;Node36 -->
<g id="edge38" class="edge"><title>Node3&#45;&gt;Node36</title>
<path fill="none" stroke="midnightblue" d="M322.119,-486.405C337.799,-467.064 364.062,-435.251 388,-409 410.483,-384.344 438.428,-356.787 453.039,-342.599"/>
<polygon fill="midnightblue" stroke="midnightblue" points="319.264,-484.369 315.706,-494.349 324.711,-488.766 319.264,-484.369"/>
</g>
<!-- Node39 -->
<g id="node39" class="node"><title>Node39</title>
<g id="a_node39"><a xlink:href="../../d3/d0b/task__manager__v2_8c.html#a74e5cd12eb5215879f3169a7cd803627" target="_top" xlink:title="send_notify_response">
<polygon fill="none" stroke="black" points="408,-646.5 408,-665.5 520,-665.5 520,-646.5 408,-646.5"/>
<text text-anchor="middle" x="464" y="-653.5" font-family="Helvetica,sans-Serif" font-size="10.00">send_notify_response</text>
</a>
</g>
</g>
<!-- Node3&#45;&gt;Node39 -->
<g id="edge43" class="edge"><title>Node3&#45;&gt;Node39</title>
<path fill="none" stroke="midnightblue" d="M314.22,-523.308C324.651,-552.527 348.501,-607.672 388,-637 393.931,-641.404 400.776,-644.793 407.868,-647.399"/>
<polygon fill="midnightblue" stroke="midnightblue" points="317.522,-522.146 310.98,-513.812 310.897,-524.406 317.522,-522.146"/>
</g>
<!-- Node42 -->
<g id="node42" class="node"><title>Node42</title>
<g id="a_node42"><a xlink:href="../../db/d47/test__message__chapoly_8c.html#ae6d484e31103dc216ae07b97049f3609" target="_top" xlink:title="START_TEST">
<polygon fill="none" stroke="black" points="424,-608.5 424,-627.5 504,-627.5 504,-608.5 424,-608.5"/>
<text text-anchor="middle" x="464" y="-615.5" font-family="Helvetica,sans-Serif" font-size="10.00">START_TEST</text>
</a>
</g>
</g>
<!-- Node3&#45;&gt;Node42 -->
<g id="edge47" class="edge"><title>Node3&#45;&gt;Node42</title>
<path fill="none" stroke="midnightblue" d="M318.509,-522.385C331.858,-544.048 356.94,-579.548 388,-599 398.701,-605.702 411.655,-610.043 423.766,-612.855"/>
<polygon fill="midnightblue" stroke="midnightblue" points="321.347,-520.311 313.221,-513.513 315.334,-523.895 321.347,-520.311"/>
</g>
<!-- Node5 -->
<g id="node5" class="node"><title>Node5</title>
<g id="a_node5"><a xlink:href="../../dd/d65/task__manager__v1_8c.html#a59c7285b6e10f3a3ac399f08a50bc59d" target="_top" xlink:title="process_request">
<polygon fill="none" stroke="black" points="735.5,-598.5 735.5,-617.5 824.5,-617.5 824.5,-598.5 735.5,-598.5"/>
<text text-anchor="middle" x="780" y="-605.5" font-family="Helvetica,sans-Serif" font-size="10.00">process_request</text>
</a>
</g>
</g>
<!-- Node4&#45;&gt;Node5 -->
<g id="edge4" class="edge"><title>Node4&#45;&gt;Node5</title>
<path fill="none" stroke="midnightblue" d="M515.226,-584.479C576.09,-589.906 677.643,-598.962 735.373,-604.11"/>
<polygon fill="midnightblue" stroke="midnightblue" points="515.359,-580.977 505.087,-583.575 514.737,-587.949 515.359,-580.977"/>
</g>
<!-- Node6 -->
<g id="node6" class="node"><title>Node6</title>
<g id="a_node6"><a xlink:href="../../dd/d65/task__manager__v1_8c.html#a07ec61bf95a7a5b12b888a1945587189" target="_top" xlink:title="METHOD">
<polygon fill="none" stroke="black" points="1045,-598.5 1045,-617.5 1105,-617.5 1105,-598.5 1045,-598.5"/>
<text text-anchor="middle" x="1075" y="-605.5" font-family="Helvetica,sans-Serif" font-size="10.00">METHOD</text>
</a>
</g>
</g>
<!-- Node5&#45;&gt;Node6 -->
<g id="edge5" class="edge"><title>Node5&#45;&gt;Node6</title>
<path fill="none" stroke="midnightblue" d="M834.896,-608C896.778,-608 996.02,-608 1044.89,-608"/>
<polygon fill="midnightblue" stroke="midnightblue" points="834.549,-604.5 824.549,-608 834.549,-611.5 834.549,-604.5"/>
</g>
<!-- Node8 -->
<g id="node8" class="node"><title>Node8</title>
<g id="a_node8"><a xlink:href="../../d0/d6d/message_8c.html#a0a563e9cfc9b0287af285158f9e2f2be" target="_top" xlink:title="create_fragment">
<polygon fill="none" stroke="black" points="593.5,-513.5 593.5,-532.5 680.5,-532.5 680.5,-513.5 593.5,-513.5"/>
<text text-anchor="middle" x="637" y="-520.5" font-family="Helvetica,sans-Serif" font-size="10.00">create_fragment</text>
</a>
</g>
</g>
<!-- Node7&#45;&gt;Node8 -->
<g id="edge7" class="edge"><title>Node7&#45;&gt;Node8</title>
<path fill="none" stroke="midnightblue" d="M517.018,-536.22C541.476,-533.503 570.275,-530.303 593.413,-527.732"/>
<polygon fill="midnightblue" stroke="midnightblue" points="516.384,-532.769 506.831,-537.352 517.157,-539.726 516.384,-532.769"/>
</g>
<!-- Node10 -->
<g id="node10" class="node"><title>Node10</title>
<g id="a_node10"><a xlink:href="../../de/d9a/group__message.html#gad469345a21ee03ddd0d65b76931f06d7" target="_top" xlink:title="message_create_defrag">
<polygon fill="none" stroke="black" points="576.5,-551.5 576.5,-570.5 697.5,-570.5 697.5,-551.5 576.5,-551.5"/>
<text text-anchor="middle" x="637" y="-558.5" font-family="Helvetica,sans-Serif" font-size="10.00">message_create_defrag</text>
</a>
</g>
</g>
<!-- Node7&#45;&gt;Node10 -->
<g id="edge9" class="edge"><title>Node7&#45;&gt;Node10</title>
<path fill="none" stroke="midnightblue" d="M516.93,-547.77C535.629,-549.848 556.876,-552.208 576.193,-554.355"/>
<polygon fill="midnightblue" stroke="midnightblue" points="517.157,-544.274 506.831,-546.648 516.384,-551.231 517.157,-544.274"/>
</g>
<!-- Node9 -->
<g id="node9" class="node"><title>Node9</title>
<g id="a_node9"><a xlink:href="../../d0/d6d/message_8c.html#ac43eddb961afe2dff86eac30d38cdac9" target="_top" xlink:title="METHOD">
<polygon fill="none" stroke="black" points="750,-522.5 750,-541.5 810,-541.5 810,-522.5 750,-522.5"/>
<text text-anchor="middle" x="780" y="-529.5" font-family="Helvetica,sans-Serif" font-size="10.00">METHOD</text>
</a>
</g>
</g>
<!-- Node8&#45;&gt;Node9 -->
<g id="edge8" class="edge"><title>Node8&#45;&gt;Node9</title>
<path fill="none" stroke="midnightblue" d="M690.907,-526.377C710.87,-527.651 732.844,-529.054 749.852,-530.139"/>
<polygon fill="midnightblue" stroke="midnightblue" points="690.89,-522.869 680.687,-525.725 690.444,-529.855 690.89,-522.869"/>
</g>
<!-- Node11 -->
<g id="node11" class="node"><title>Node11</title>
<g id="a_node11"><a xlink:href="../../dd/d65/task__manager__v1_8c.html#ae30bdf672fcbc7a11b77f9468c842417" target="_top" xlink:title="handle_fragment">
<polygon fill="none" stroke="black" points="735.5,-560.5 735.5,-579.5 824.5,-579.5 824.5,-560.5 735.5,-560.5"/>
<text text-anchor="middle" x="780" y="-567.5" font-family="Helvetica,sans-Serif" font-size="10.00">handle_fragment</text>
</a>
</g>
</g>
<!-- Node10&#45;&gt;Node11 -->
<g id="edge10" class="edge"><title>Node10&#45;&gt;Node11</title>
<path fill="none" stroke="midnightblue" d="M707.913,-565.463C717.269,-566.06 726.64,-566.658 735.364,-567.215"/>
<polygon fill="midnightblue" stroke="midnightblue" points="707.999,-561.961 697.797,-564.817 707.553,-568.947 707.999,-561.961"/>
</g>
<!-- Node12 -->
<g id="node12" class="node"><title>Node12</title>
<g id="a_node12"><a xlink:href="../../dd/d65/task__manager__v1_8c.html#aee412dfc19defc0f6cd76bf6dc347f9e" target="_top" xlink:title="parse_message">
<polygon fill="none" stroke="black" points="882,-560.5 882,-579.5 968,-579.5 968,-560.5 882,-560.5"/>
<text text-anchor="middle" x="925" y="-567.5" font-family="Helvetica,sans-Serif" font-size="10.00">parse_message</text>
</a>
</g>
</g>
<!-- Node11&#45;&gt;Node12 -->
<g id="edge11" class="edge"><title>Node11&#45;&gt;Node12</title>
<path fill="none" stroke="midnightblue" d="M835.104,-570C850.478,-570 866.993,-570 881.567,-570"/>
<polygon fill="midnightblue" stroke="midnightblue" points="834.682,-566.5 824.682,-570 834.682,-573.5 834.682,-566.5"/>
</g>
<!-- Node12&#45;&gt;Node6 -->
<g id="edge12" class="edge"><title>Node12&#45;&gt;Node6</title>
<path fill="none" stroke="midnightblue" d="M973.109,-582.096C996.562,-588.117 1024.19,-595.21 1044.59,-600.45"/>
<polygon fill="midnightblue" stroke="midnightblue" points="973.903,-578.686 963.347,-579.589 972.162,-585.466 973.903,-578.686"/>
</g>
<!-- Node15 -->
<g id="node15" class="node"><title>Node15</title>
<g id="a_node15"><a xlink:href="../../de/dc6/ike__auth_8c.html#a129c4c8404312b9fa8a1b1f5b16c0cc6" target="_top" xlink:title="METHOD">
<polygon fill="none" stroke="black" points="607,-475.5 607,-494.5 667,-494.5 667,-475.5 607,-475.5"/>
<text text-anchor="middle" x="637" y="-482.5" font-family="Helvetica,sans-Serif" font-size="10.00">METHOD</text>
</a>
</g>
</g>
<!-- Node14&#45;&gt;Node15 -->
<g id="edge15" class="edge"><title>Node14&#45;&gt;Node15</title>
<path fill="none" stroke="midnightblue" d="M549.577,-475.397C570.147,-477.683 590.788,-479.976 606.738,-481.749"/>
<polygon fill="midnightblue" stroke="midnightblue" points="549.831,-471.904 539.506,-474.278 549.058,-478.861 549.831,-471.904"/>
</g>
<!-- Node17 -->
<g id="node17" class="node"><title>Node17</title>
<g id="a_node17"><a xlink:href="../../d9/d32/connect__manager_8c.html#a596ec077ad11e4d472e8046683b85beb" target="_top" xlink:title="process_request">
<polygon fill="none" stroke="black" points="592.5,-437.5 592.5,-456.5 681.5,-456.5 681.5,-437.5 592.5,-437.5"/>
<text text-anchor="middle" x="637" y="-444.5" font-family="Helvetica,sans-Serif" font-size="10.00">process_request</text>
</a>
</g>
</g>
<!-- Node16&#45;&gt;Node17 -->
<g id="edge17" class="edge"><title>Node16&#45;&gt;Node17</title>
<path fill="none" stroke="midnightblue" d="M508.95,-432.883C534.532,-435.726 566.67,-439.297 592.222,-442.136"/>
<polygon fill="midnightblue" stroke="midnightblue" points="509.109,-429.38 498.784,-431.754 508.336,-436.337 509.109,-429.38"/>
</g>
<!-- Node19 -->
<g id="node19" class="node"><title>Node19</title>
<g id="a_node19"><a xlink:href="../../d9/d32/connect__manager_8c.html#a3b4dd773d88779165dc7243cb4e4fbee" target="_top" xlink:title="sender">
<polygon fill="none" stroke="black" points="614,-399.5 614,-418.5 660,-418.5 660,-399.5 614,-399.5"/>
<text text-anchor="middle" x="637" y="-406.5" font-family="Helvetica,sans-Serif" font-size="10.00">sender</text>
</a>
</g>
</g>
<!-- Node16&#45;&gt;Node19 -->
<g id="edge19" class="edge"><title>Node16&#45;&gt;Node19</title>
<path fill="none" stroke="midnightblue" d="M508.825,-423.131C542.464,-419.393 587.496,-414.389 613.963,-411.449"/>
<polygon fill="midnightblue" stroke="midnightblue" points="508.336,-419.663 498.784,-424.246 509.109,-426.62 508.336,-419.663"/>
</g>
<!-- Node18 -->
<g id="node18" class="node"><title>Node18</title>
<g id="a_node18"><a xlink:href="../../d9/d32/connect__manager_8c.html#ace3ca9e4598a81261e1e2722c52b6899" target="_top" xlink:title="METHOD">
<polygon fill="none" stroke="black" points="750,-484.5 750,-503.5 810,-503.5 810,-484.5 750,-484.5"/>
<text text-anchor="middle" x="780" y="-491.5" font-family="Helvetica,sans-Serif" font-size="10.00">METHOD</text>
</a>
</g>
</g>
<!-- Node17&#45;&gt;Node18 -->
<g id="edge18" class="edge"><title>Node17&#45;&gt;Node18</title>
<path fill="none" stroke="midnightblue" d="M678.128,-459.547C684.775,-461.672 691.588,-463.877 698,-466 716.08,-471.986 736.33,-478.986 752.06,-484.49"/>
<polygon fill="midnightblue" stroke="midnightblue" points="679.164,-456.204 668.573,-456.512 677.044,-462.875 679.164,-456.204"/>
</g>
<!-- Node20 -->
<g id="node20" class="node"><title>Node20</title>
<g id="a_node20"><a xlink:href="../../dc/d21/daemon_8c.html#a1e824dfeaa337e709772cb0c8e6c8dcc" target="_top" xlink:title="destroy">
<polygon fill="none" stroke="red" points="755.5,-266.5 755.5,-285.5 804.5,-285.5 804.5,-266.5 755.5,-266.5"/>
<text text-anchor="middle" x="780" y="-273.5" font-family="Helvetica,sans-Serif" font-size="10.00">destroy</text>
</a>
</g>
</g>
<!-- Node19&#45;&gt;Node20 -->
<g id="edge20" class="edge"><title>Node19&#45;&gt;Node20</title>
<path fill="none" stroke="midnightblue" d="M655.702,-392.303C685.464,-364.229 744.621,-308.428 768.571,-285.837"/>
<polygon fill="midnightblue" stroke="midnightblue" points="653.013,-390.027 648.14,-399.435 657.816,-395.119 653.013,-390.027"/>
</g>
<!-- Node33 -->
<g id="node33" class="node"><title>Node33</title>
<g id="a_node33"><a xlink:href="../../dc/d21/daemon_8c.html#a9855945718e95854c7188893dba56359" target="_top" xlink:title="sender_receiver_cb">
<polygon fill="none" stroke="black" points="1024.5,-228.5 1024.5,-247.5 1125.5,-247.5 1125.5,-228.5 1024.5,-228.5"/>
<text text-anchor="middle" x="1075" y="-235.5" font-family="Helvetica,sans-Serif" font-size="10.00">sender_receiver_cb</text>
</a>
</g>
</g>
<!-- Node19&#45;&gt;Node33 -->
<g id="edge37" class="edge"><title>Node19&#45;&gt;Node33</title>
<path fill="none" stroke="midnightblue" d="M670.218,-417.665C746.664,-437.422 936.469,-481.519 988,-447 1058.74,-399.614 1071.35,-282.391 1073.55,-247.775"/>
<polygon fill="midnightblue" stroke="midnightblue" points="670.769,-414.192 660.209,-415.049 668.999,-420.964 670.769,-414.192"/>
</g>
<!-- Node35 -->
<g id="node35" class="node"><title>Node35</title>
<g id="a_node35"><a xlink:href="../../d9/d32/connect__manager_8c.html#ab04c347706d661bcbd52ba901be05697" target="_top" xlink:title="schedule_checks">
<polygon fill="none" stroke="red" points="734,-399.5 734,-418.5 826,-418.5 826,-399.5 734,-399.5"/>
<text text-anchor="middle" x="780" y="-406.5" font-family="Helvetica,sans-Serif" font-size="10.00">schedule_checks</text>
</a>
</g>
</g>
<!-- Node19&#45;&gt;Node35 -->
<g id="edge35" class="edge"><title>Node19&#45;&gt;Node35</title>
<path fill="none" stroke="midnightblue" d="M670.175,-403.229C689.01,-402.158 713.088,-401.966 733.805,-402.652"/>
<polygon fill="midnightblue" stroke="midnightblue" points="669.763,-399.749 660.031,-403.938 670.251,-406.732 669.763,-399.749"/>
</g>
<!-- Node21 -->
<g id="node21" class="node"><title>Node21</title>
<g id="a_node21"><a xlink:href="../../d1/d5e/certexpire__export_8c.html#a85842a4e35d1b6f4d520ad9c27740745" target="_top" xlink:title="add_local_certs">
<polygon fill="none" stroke="red" points="882.5,-304.5 882.5,-323.5 967.5,-323.5 967.5,-304.5 882.5,-304.5"/>
<text text-anchor="middle" x="925" y="-311.5" font-family="Helvetica,sans-Serif" font-size="10.00">add_local_certs</text>
</a>
</g>
</g>
<!-- Node20&#45;&gt;Node21 -->
<g id="edge21" class="edge"><title>Node20&#45;&gt;Node21</title>
<path fill="none" stroke="midnightblue" d="M814.535,-284.911C836.602,-290.775 865.465,-298.445 888.013,-304.437"/>
<polygon fill="midnightblue" stroke="midnightblue" points="815.177,-281.461 804.614,-282.275 813.379,-288.226 815.177,-281.461"/>
</g>
<!-- Node22 -->
<g id="node22" class="node"><title>Node22</title>
<g id="a_node22"><a xlink:href="../../d5/d28/aesni__plugin_8c.html#afdb69fee0f5b8bf4cf2893dc98670599" target="_top" xlink:title="aesni_plugin_create">
<polygon fill="none" stroke="black" points="873.5,-266.5 873.5,-285.5 976.5,-285.5 976.5,-266.5 873.5,-266.5"/>
<text text-anchor="middle" x="925" y="-273.5" font-family="Helvetica,sans-Serif" font-size="10.00">aesni_plugin_create</text>
</a>
</g>
</g>
<!-- Node20&#45;&gt;Node22 -->
<g id="edge22" class="edge"><title>Node20&#45;&gt;Node22</title>
<path fill="none" stroke="midnightblue" d="M814.881,-276C832.33,-276 853.96,-276 873.348,-276"/>
<polygon fill="midnightblue" stroke="midnightblue" points="814.614,-272.5 804.614,-276 814.614,-279.5 814.614,-272.5"/>
</g>
<!-- Node23 -->
<g id="node23" class="node"><title>Node23</title>
<g id="a_node23"><a xlink:href="../../d9/df3/group__af__alg__ops.html#ga58d4d12cb191659f66407d38532f19e3" target="_top" xlink:title="af_alg_ops_create">
<polygon fill="none" stroke="red" points="877,-228.5 877,-247.5 973,-247.5 973,-228.5 877,-228.5"/>
<text text-anchor="middle" x="925" y="-235.5" font-family="Helvetica,sans-Serif" font-size="10.00">af_alg_ops_create</text>
</a>
</g>
</g>
<!-- Node20&#45;&gt;Node23 -->
<g id="edge23" class="edge"><title>Node20&#45;&gt;Node23</title>
<path fill="none" stroke="midnightblue" d="M814.535,-267.089C836.602,-261.225 865.465,-253.555 888.013,-247.563"/>
<polygon fill="midnightblue" stroke="midnightblue" points="813.379,-263.774 804.614,-269.725 815.177,-270.539 813.379,-263.774"/>
</g>
<!-- Node24 -->
<g id="node24" class="node"><title>Node24</title>
<g id="a_node24"><a xlink:href="../../da/d8f/group__agent__private__key.html#ga894ae16895862d5baf8afc02a5d07d73" target="_top" xlink:title="agent_private_key_open">
<polygon fill="none" stroke="red" points="864,-190.5 864,-209.5 986,-209.5 986,-190.5 864,-190.5"/>
<text text-anchor="middle" x="925" y="-197.5" font-family="Helvetica,sans-Serif" font-size="10.00">agent_private_key_open</text>
</a>
</g>
</g>
<!-- Node20&#45;&gt;Node24 -->
<g id="edge24" class="edge"><title>Node20&#45;&gt;Node24</title>
<path fill="none" stroke="midnightblue" d="M813.999,-263.957C818.183,-261.891 822.293,-259.569 826,-257 845.122,-243.75 842.226,-231.257 862,-219 868.22,-215.145 875.278,-212.022 882.348,-209.509"/>
<polygon fill="midnightblue" stroke="midnightblue" points="812.534,-260.778 804.846,-268.069 815.403,-267.163 812.534,-260.778"/>
</g>
<!-- Node25 -->
<g id="node25" class="node"><title>Node25</title>
<g id="a_node25"><a xlink:href="../../d1/d0e/group__array.html#ga58c74ec30d19f124535db5b5b94a1abc" target="_top" xlink:title="array_create_enumerator">
<polygon fill="none" stroke="red" points="862.5,-152.5 862.5,-171.5 987.5,-171.5 987.5,-152.5 862.5,-152.5"/>
<text text-anchor="middle" x="925" y="-159.5" font-family="Helvetica,sans-Serif" font-size="10.00">array_create_enumerator</text>
</a>
</g>
</g>
<!-- Node20&#45;&gt;Node25 -->
<g id="edge25" class="edge"><title>Node20&#45;&gt;Node25</title>
<path fill="none" stroke="midnightblue" d="M814.318,-265.284C818.561,-262.993 822.601,-260.256 826,-257 852.989,-231.144 833.726,-205.445 862,-181 866.514,-177.098 871.816,-173.997 877.387,-171.533"/>
<polygon fill="midnightblue" stroke="midnightblue" points="812.506,-262.264 804.873,-269.612 815.422,-268.628 812.506,-262.264"/>
</g>
<!-- Node26 -->
<g id="node26" class="node"><title>Node26</title>
<g id="a_node26"><a xlink:href="../../d9/dd3/group__attest__db__t.html#gadc4b5f286474edc4478a41e43c9badf7" target="_top" xlink:title="attest_db_create">
<polygon fill="none" stroke="red" points="880.5,-114.5 880.5,-133.5 969.5,-133.5 969.5,-114.5 880.5,-114.5"/>
<text text-anchor="middle" x="925" y="-121.5" font-family="Helvetica,sans-Serif" font-size="10.00">attest_db_create</text>
</a>
</g>
</g>
<!-- Node20&#45;&gt;Node26 -->
<g id="edge26" class="edge"><title>Node20&#45;&gt;Node26</title>
<path fill="none" stroke="midnightblue" d="M814.132,-266.034C818.541,-263.62 822.678,-260.649 826,-257 861.771,-217.712 824.27,-180.41 862,-143 867.116,-137.927 873.55,-134.203 880.321,-131.47"/>
<polygon fill="midnightblue" stroke="midnightblue" points="812.527,-262.919 804.871,-270.244 815.423,-269.292 812.527,-262.919"/>
</g>
<!-- Node27 -->
<g id="node27" class="node"><title>Node27</title>
<g id="a_node27"><a xlink:href="../../d6/d3e/stroke__attribute_8c.html#aecb223504c103fac982b505ab299950b" target="_top" xlink:title="attributes_destroy">
<polygon fill="none" stroke="red" points="877.5,-76.5 877.5,-95.5 972.5,-95.5 972.5,-76.5 877.5,-76.5"/>
<text text-anchor="middle" x="925" y="-83.5" font-family="Helvetica,sans-Serif" font-size="10.00">attributes_destroy</text>
</a>
</g>
</g>
<!-- Node20&#45;&gt;Node27 -->
<g id="edge27" class="edge"><title>Node20&#45;&gt;Node27</title>
<path fill="none" stroke="midnightblue" d="M814.107,-266.397C818.585,-263.928 822.749,-260.845 826,-257 870.826,-203.987 814.526,-155.655 862,-105 866.311,-100.4 871.703,-96.9033 877.496,-94.2473"/>
<polygon fill="midnightblue" stroke="midnightblue" points="812.347,-263.35 804.665,-270.646 815.221,-269.734 812.347,-263.35"/>
</g>
<!-- Node28 -->
<g id="node28" class="node"><title>Node28</title>
<g id="a_node28"><a xlink:href="../../db/d95/group__auth__cfg__wrapper.html#ga607ad3dadcfd48a50fb2545df93ddf56" target="_top" xlink:title="auth_cfg_wrapper_create">
<polygon fill="none" stroke="red" points="862,-38.5 862,-57.5 988,-57.5 988,-38.5 862,-38.5"/>
<text text-anchor="middle" x="925" y="-45.5" font-family="Helvetica,sans-Serif" font-size="10.00">auth_cfg_wrapper_create</text>
</a>
</g>
</g>
<!-- Node20&#45;&gt;Node28 -->
<g id="edge28" class="edge"><title>Node20&#45;&gt;Node28</title>
<path fill="none" stroke="midnightblue" d="M814.263,-266.525C818.72,-264.04 822.837,-260.918 826,-257 879.994,-190.13 804.663,-131.026 862,-67 865.455,-63.1422 869.67,-60.0573 874.26,-57.5921"/>
<polygon fill="midnightblue" stroke="midnightblue" points="812.505,-263.479 804.83,-270.783 815.385,-269.859 812.505,-263.479"/>
</g>
<!-- Node29 -->
<g id="node29" class="node"><title>Node29</title>
<g id="a_node29"><a xlink:href="../../d4/def/vici__authority_8c.html#af84fe304f7804880ba7f74eb7f65c5a8" target="_top" xlink:title="authority_destroy">
<polygon fill="none" stroke="red" points="879,-418.5 879,-437.5 971,-437.5 971,-418.5 879,-418.5"/>
<text text-anchor="middle" x="925" y="-425.5" font-family="Helvetica,sans-Serif" font-size="10.00">authority_destroy</text>
</a>
</g>
</g>
<!-- Node20&#45;&gt;Node29 -->
<g id="edge29" class="edge"><title>Node20&#45;&gt;Node29</title>
<path fill="none" stroke="midnightblue" d="M787.692,-295.453C798.658,-324.457 823.193,-378.847 862,-409 866.978,-412.868 872.745,-415.953 878.718,-418.413"/>
<polygon fill="midnightblue" stroke="midnightblue" points="790.85,-293.893 784.153,-285.684 784.268,-296.278 790.85,-293.893"/>
</g>
<!-- Node30 -->
<g id="node30" class="node"><title>Node30</title>
<g id="a_node30"><a xlink:href="../../db/d74/group__bliss__private__key.html#ga9824d75b75befd39dafc31674573d643" target="_top" xlink:title="bliss_private_key_gen">
<polygon fill="none" stroke="red" points="868.5,-380.5 868.5,-399.5 981.5,-399.5 981.5,-380.5 868.5,-380.5"/>
<text text-anchor="middle" x="925" y="-387.5" font-family="Helvetica,sans-Serif" font-size="10.00">bliss_private_key_gen</text>
</a>
</g>
</g>
<!-- Node20&#45;&gt;Node30 -->
<g id="edge30" class="edge"><title>Node20&#45;&gt;Node30</title>
<path fill="none" stroke="midnightblue" d="M791.888,-294.164C805.629,-315.575 831.226,-350.791 862,-371 867.834,-374.831 874.479,-377.921 881.2,-380.404"/>
<polygon fill="midnightblue" stroke="midnightblue" points="794.847,-292.295 786.588,-285.659 788.906,-295.998 794.847,-292.295"/>
</g>
<!-- Node31 -->
<g id="node31" class="node"><title>Node31</title>
<g id="a_node31"><a xlink:href="../../db/d74/group__bliss__private__key.html#ga1daa52fbb7d6bdbbcebe0fbd89d621e0" target="_top" xlink:title="bliss_private_key_load">
<polygon fill="none" stroke="red" points="867,-342.5 867,-361.5 983,-361.5 983,-342.5 867,-342.5"/>
<text text-anchor="middle" x="925" y="-349.5" font-family="Helvetica,sans-Serif" font-size="10.00">bliss_private_key_load</text>
</a>
</g>
</g>
<!-- Node20&#45;&gt;Node31 -->
<g id="edge31" class="edge"><title>Node20&#45;&gt;Node31</title>
<path fill="none" stroke="midnightblue" d="M799.991,-291.988C815.751,-304.587 839.196,-321.835 862,-333 869.482,-336.663 877.819,-339.796 885.892,-342.4"/>
<polygon fill="midnightblue" stroke="midnightblue" points="802.04,-289.142 792.079,-285.534 797.616,-294.567 802.04,-289.142"/>
</g>
<!-- Node32 -->
<g id="node32" class="node"><title>Node32</title>
<g id="a_node32"><a xlink:href="../../dc/d58/group__receiver.html#ga88db4d8a5ab4b6eff4136669e6a0a4c3" target="_top" xlink:title="receiver_create">
<polygon fill="none" stroke="black" points="883.5,-0.5 883.5,-19.5 966.5,-19.5 966.5,-0.5 883.5,-0.5"/>
<text text-anchor="middle" x="925" y="-7.5" font-family="Helvetica,sans-Serif" font-size="10.00">receiver_create</text>
</a>
</g>
</g>
<!-- Node20&#45;&gt;Node32 -->
<g id="edge32" class="edge"><title>Node20&#45;&gt;Node32</title>
<path fill="none" stroke="midnightblue" d="M814.37,-266.61C818.813,-264.114 822.897,-260.966 826,-257 889.218,-176.204 794.74,-106.463 862,-29 867.61,-22.5395 875.353,-18.2403 883.469,-15.3886"/>
<polygon fill="midnightblue" stroke="midnightblue" points="812.613,-263.563 804.943,-270.873 815.497,-269.941 812.613,-263.563"/>
</g>
<!-- Node32&#45;&gt;Node33 -->
<g id="edge33" class="edge"><title>Node32&#45;&gt;Node33</title>
<path fill="none" stroke="midnightblue" d="M975.985,-20.84C980.344,-23.0701 984.442,-25.7587 988,-29 1050.65,-86.0774 1068.8,-195.627 1072.95,-228.467"/>
<polygon fill="midnightblue" stroke="midnightblue" points="977.329,-17.6084 966.76,-16.8762 974.566,-24.0398 977.329,-17.6084"/>
</g>
<!-- Node34 -->
<g id="node34" class="node"><title>Node34</title>
<g id="a_node34"><a xlink:href="../../dc/d21/daemon_8c.html#aa753a05efc444c05cc5028b3a9a29a86" target="_top" xlink:title="METHOD">
<polygon fill="none" stroke="black" points="1162,-228.5 1162,-247.5 1222,-247.5 1222,-228.5 1162,-228.5"/>
<text text-anchor="middle" x="1192" y="-235.5" font-family="Helvetica,sans-Serif" font-size="10.00">METHOD</text>
</a>
</g>
</g>
<!-- Node33&#45;&gt;Node34 -->
<g id="edge34" class="edge"><title>Node33&#45;&gt;Node34</title>
<path fill="none" stroke="midnightblue" d="M1135.89,-238C1144.87,-238 1153.76,-238 1161.71,-238"/>
<polygon fill="midnightblue" stroke="midnightblue" points="1135.77,-234.5 1125.77,-238 1135.77,-241.5 1135.77,-234.5"/>
</g>
<!-- Node35&#45;&gt;Node19 -->
<g id="edge36" class="edge"><title>Node35&#45;&gt;Node19</title>
<path fill="none" stroke="midnightblue" d="M723.758,-415.607C701.491,-416.029 677.092,-415.514 660.031,-414.062"/>
<polygon fill="midnightblue" stroke="midnightblue" points="723.899,-419.105 733.805,-415.348 723.718,-412.107 723.899,-419.105"/>
</g>
<!-- Node37 -->
<g id="node37" class="node"><title>Node37</title>
<g id="a_node37"><a xlink:href="../../d0/d09/receiver_8c.html#a53a4f891a2364137d8bfe014a4197ce7" target="_top" xlink:title="drop_ike_sa_init">
<polygon fill="none" stroke="black" points="593.5,-285.5 593.5,-304.5 680.5,-304.5 680.5,-285.5 593.5,-285.5"/>
<text text-anchor="middle" x="637" y="-292.5" font-family="Helvetica,sans-Serif" font-size="10.00">drop_ike_sa_init</text>
</a>
</g>
</g>
<!-- Node36&#45;&gt;Node37 -->
<g id="edge39" class="edge"><title>Node36&#45;&gt;Node37</title>
<path fill="none" stroke="midnightblue" d="M507.555,-323.543C533.68,-317.738 567.031,-310.326 593.201,-304.511"/>
<polygon fill="midnightblue" stroke="midnightblue" points="506.569,-320.177 497.566,-325.763 508.087,-327.01 506.569,-320.177"/>
</g>
<!-- Node36&#45;&gt;Node38 -->
<g id="edge42" class="edge"><title>Node36&#45;&gt;Node38</title>
<path fill="none" stroke="midnightblue" d="M507.951,-340.322C557.51,-346.459 639.657,-349.324 698,-314 723.631,-298.481 711.151,-276.383 734,-257 738.398,-253.27 743.634,-250.18 748.953,-247.655"/>
<polygon fill="midnightblue" stroke="midnightblue" points="508.266,-336.833 497.89,-338.975 507.337,-343.771 508.266,-336.833"/>
</g>
<!-- Node37&#45;&gt;Node38 -->
<g id="edge40" class="edge"><title>Node37&#45;&gt;Node38</title>
<path fill="none" stroke="midnightblue" d="M671.392,-281.687C680.061,-278.219 689.383,-274.479 698,-271 717.431,-263.156 739.451,-254.179 755.622,-247.57"/>
<polygon fill="midnightblue" stroke="midnightblue" points="669.942,-278.497 661.955,-285.458 672.54,-284.997 669.942,-278.497"/>
</g>
<!-- Node38&#45;&gt;Node32 -->
<g id="edge41" class="edge"><title>Node38&#45;&gt;Node32</title>
<path fill="none" stroke="midnightblue" d="M782.945,-218.407C788.081,-177.256 805.742,-81.3272 862,-29 868.018,-23.4028 875.645,-19.4528 883.474,-16.6657"/>
<polygon fill="midnightblue" stroke="midnightblue" points="779.452,-218.15 781.807,-228.48 786.408,-218.936 779.452,-218.15"/>
</g>
<!-- Node40 -->
<g id="node40" class="node"><title>Node40</title>
<g id="a_node40"><a xlink:href="../../d3/d0b/task__manager__v2_8c.html#a07ec61bf95a7a5b12b888a1945587189" target="_top" xlink:title="METHOD">
<polygon fill="none" stroke="black" points="750,-651.5 750,-670.5 810,-670.5 810,-651.5 750,-651.5"/>
<text text-anchor="middle" x="780" y="-658.5" font-family="Helvetica,sans-Serif" font-size="10.00">METHOD</text>
</a>
</g>
</g>
<!-- Node39&#45;&gt;Node40 -->
<g id="edge44" class="edge"><title>Node39&#45;&gt;Node40</title>
<path fill="none" stroke="midnightblue" d="M530.381,-654.924C577.093,-654.418 641.428,-654.256 698,-656 715.181,-656.53 734.382,-657.69 749.776,-658.76"/>
<polygon fill="midnightblue" stroke="midnightblue" points="530.054,-651.427 520.095,-655.044 530.135,-658.427 530.054,-651.427"/>
</g>
<!-- Node41 -->
<g id="node41" class="node"><title>Node41</title>
<g id="a_node41"><a xlink:href="../../d3/d0b/task__manager__v2_8c.html#aee412dfc19defc0f6cd76bf6dc347f9e" target="_top" xlink:title="parse_message">
<polygon fill="none" stroke="black" points="594,-665.5 594,-684.5 680,-684.5 680,-665.5 594,-665.5"/>
<text text-anchor="middle" x="637" y="-672.5" font-family="Helvetica,sans-Serif" font-size="10.00">parse_message</text>
</a>
</g>
</g>
<!-- Node39&#45;&gt;Node41 -->
<g id="edge45" class="edge"><title>Node39&#45;&gt;Node41</title>
<path fill="none" stroke="midnightblue" d="M530.04,-663.227C551.409,-665.601 574.589,-668.177 593.804,-670.312"/>
<polygon fill="midnightblue" stroke="midnightblue" points="530.372,-659.742 520.047,-662.116 529.599,-666.699 530.372,-659.742"/>
</g>
<!-- Node41&#45;&gt;Node40 -->
<g id="edge46" class="edge"><title>Node41&#45;&gt;Node40</title>
<path fill="none" stroke="midnightblue" d="M690.262,-669.811C710.335,-667.818 732.525,-665.615 749.694,-663.91"/>
<polygon fill="midnightblue" stroke="midnightblue" points="689.91,-666.329 680.305,-670.8 690.602,-673.294 689.91,-666.329"/>
</g>
<!-- Node44&#45;&gt;Node6 -->
<g id="edge50" class="edge"><title>Node44&#45;&gt;Node6</title>
<path fill="none" stroke="midnightblue" d="M333.464,-651.446C348.813,-659.55 369.01,-669.173 388,-675 494.602,-707.713 524.491,-713 636,-713 636,-713 636,-713 781,-713 893.665,-713 1017.17,-643.35 1059.12,-617.503"/>
<polygon fill="midnightblue" stroke="midnightblue" points="335.048,-648.323 324.587,-646.644 331.717,-654.48 335.048,-648.323"/>
</g>
<!-- Node47 -->
<g id="node47" class="node"><title>Node47</title>
<g id="a_node47"><a xlink:href="../../d3/da3/encrypted__payload_8c.html#abdc8677f00931fa8eb26eadfb98860af" target="_top" xlink:title="METHOD">
<polygon fill="none" stroke="black" points="277,-171.5 277,-190.5 337,-190.5 337,-171.5 277,-171.5"/>
<text text-anchor="middle" x="307" y="-178.5" font-family="Helvetica,sans-Serif" font-size="10.00">METHOD</text>
</a>
</g>
</g>
<!-- Node46&#45;&gt;Node47 -->
<g id="edge54" class="edge"><title>Node46&#45;&gt;Node47</title>
<path fill="none" stroke="midnightblue" d="M199.948,-195.816C222.848,-192.617 254.239,-188.231 276.92,-185.063"/>
<polygon fill="midnightblue" stroke="midnightblue" points="199.195,-192.387 189.776,-197.237 200.164,-199.32 199.195,-192.387"/>
</g>
<!-- Node48 -->
<g id="node48" class="node"><title>Node48</title>
<g id="a_node48"><a xlink:href="../../d4/def/vici__authority_8c.html#a428f3ae0cf4c06e8285a48f166da85c6" target="_top" xlink:title="parse_rules">
<polygon fill="none" stroke="black" points="273.5,-133.5 273.5,-152.5 340.5,-152.5 340.5,-133.5 273.5,-133.5"/>
<text text-anchor="middle" x="307" y="-140.5" font-family="Helvetica,sans-Serif" font-size="10.00">parse_rules</text>
</a>
</g>
</g>
<!-- Node46&#45;&gt;Node48 -->
<g id="edge55" class="edge"><title>Node46&#45;&gt;Node48</title>
<path fill="none" stroke="midnightblue" d="M199.147,-187.784C224.225,-177.273 259.914,-162.316 283.016,-152.633"/>
<polygon fill="midnightblue" stroke="midnightblue" points="197.645,-184.618 189.776,-191.712 200.351,-191.074 197.645,-184.618"/>
</g>
<!-- Node50 -->
<g id="node50" class="node"><title>Node50</title>
<g id="a_node50"><a xlink:href="../../d9/d7a/test__message_8c.html#a130d68f5a75b11c826c34d0ed8f3d0b9" target="_top" xlink:title="START_TEST">
<polygon fill="none" stroke="black" points="267,-209.5 267,-228.5 347,-228.5 347,-209.5 267,-209.5"/>
<text text-anchor="middle" x="307" y="-216.5" font-family="Helvetica,sans-Serif" font-size="10.00">START_TEST</text>
</a>
</g>
</g>
<!-- Node46&#45;&gt;Node50 -->
<g id="edge57" class="edge"><title>Node46&#45;&gt;Node50</title>
<path fill="none" stroke="midnightblue" d="M199.711,-204.151C219.398,-206.901 245.437,-210.539 266.815,-213.526"/>
<polygon fill="midnightblue" stroke="midnightblue" points="200.164,-200.68 189.776,-202.763 199.195,-207.613 200.164,-200.68"/>
</g>
<!-- Node49 -->
<g id="node49" class="node"><title>Node49</title>
<g id="a_node49"><a xlink:href="../../d4/def/vici__authority_8c.html#a65ffd4874e61e0d16da79d4520b45525" target="_top" xlink:title="CALLBACK">
<polygon fill="none" stroke="black" points="429.5,-133.5 429.5,-152.5 498.5,-152.5 498.5,-133.5 429.5,-133.5"/>
<text text-anchor="middle" x="464" y="-140.5" font-family="Helvetica,sans-Serif" font-size="10.00">CALLBACK</text>
</a>
</g>
</g>
<!-- Node48&#45;&gt;Node49 -->
<g id="edge56" class="edge"><title>Node48&#45;&gt;Node49</title>
<path fill="none" stroke="midnightblue" d="M351.074,-143C375.811,-143 406.42,-143 429.373,-143"/>
<polygon fill="midnightblue" stroke="midnightblue" points="350.872,-139.5 340.872,-143 350.871,-146.5 350.872,-139.5"/>
</g>
</g>
</svg>
