<?xml version="1.0" encoding="UTF-8" standalone="no"?>
<!DOCTYPE svg PUBLIC "-//W3C//DTD SVG 1.1//EN"
 "http://www.w3.org/Graphics/SVG/1.1/DTD/svg11.dtd">
<!-- Generated by graphviz version 2.36.0 (20140111.2315)
 -->
<!-- Title: private_tcg_pts_attr_file_meas_t Pages: 1 -->
<svg width="195pt" height="208pt"
 viewBox="0.00 0.00 195.00 208.00" xmlns="http://www.w3.org/2000/svg" xmlns:xlink="http://www.w3.org/1999/xlink">
<g id="graph0" class="graph" transform="scale(1 1) rotate(0) translate(4 204)">
<title>private_tcg_pts_attr_file_meas_t</title>
<!-- Node1 -->
<g id="node1" class="node"><title>Node1</title>
<polygon fill="#bfbfbf" stroke="black" points="4.5,-1 4.5,-31 107.5,-31 107.5,-1 4.5,-1"/>
<text text-anchor="start" x="12.5" y="-19" font-family="Helvetica,sans-Serif" font-size="10.00">private_tcg_pts_attr</text>
<text text-anchor="middle" x="56" y="-8" font-family="Helvetica,sans-Serif" font-size="10.00">_file_meas_t</text>
</g>
<!-- Node2 -->
<g id="node2" class="node"><title>Node2</title>
<polygon fill="none" stroke="#bfbfbf" points="-0.5,-112.5 -0.5,-131.5 40.5,-131.5 40.5,-112.5 -0.5,-112.5"/>
<text text-anchor="middle" x="20" y="-119.5" font-family="Helvetica,sans-Serif" font-size="10.00">struct</text>
</g>
<!-- Node2&#45;&gt;Node1 -->
<g id="edge1" class="edge"><title>Node2&#45;&gt;Node1</title>
<path fill="none" stroke="#9a32cd" stroke-dasharray="5,2" d="M20.0091,-101.95C20.6386,-87.2259 22.9019,-66.6208 30,-50 32.9219,-43.1582 37.6429,-36.5296 42.2656,-31.0305"/>
<polygon fill="#9a32cd" stroke="#9a32cd" points="16.5024,-102.238 19.7934,-112.309 23.5009,-102.384 16.5024,-102.238"/>
<text text-anchor="middle" x="50.5" y="-86" font-family="Helvetica,sans-Serif" font-size="10.00"> segment</text>
<text text-anchor="middle" x="50.5" y="-75" font-family="Helvetica,sans-Serif" font-size="10.00">public</text>
<text text-anchor="middle" x="50.5" y="-64" font-family="Helvetica,sans-Serif" font-size="10.00">value</text>
<text text-anchor="middle" x="50.5" y="-53" font-family="Helvetica,sans-Serif" font-size="10.00">type</text>
</g>
<!-- Node3 -->
<g id="node3" class="node"><title>Node3</title>
<g id="a_node3"><a xlink:href="../../d8/de3/structpts__file__meas__t.html" target="_top" xlink:title="pts_file_meas_t">
<polygon fill="none" stroke="black" points="59,-112.5 59,-131.5 145,-131.5 145,-112.5 59,-112.5"/>
<text text-anchor="middle" x="102" y="-119.5" font-family="Helvetica,sans-Serif" font-size="10.00">pts_file_meas_t</text>
</a>
</g>
</g>
<!-- Node3&#45;&gt;Node1 -->
<g id="edge2" class="edge"><title>Node3&#45;&gt;Node1</title>
<path fill="none" stroke="#9a32cd" stroke-dasharray="5,2" d="M94.2326,-103.008C88.0067,-88.6357 79.0168,-67.9929 71,-50 68.2338,-43.7916 65.132,-36.9483 62.4699,-31.1107"/>
<polygon fill="#9a32cd" stroke="#9a32cd" points="91.0421,-104.448 98.224,-112.237 97.467,-101.669 91.0421,-104.448"/>
<text text-anchor="middle" x="124" y="-69.5" font-family="Helvetica,sans-Serif" font-size="10.00"> measurements</text>
</g>
<!-- Node4 -->
<g id="node4" class="node"><title>Node4</title>
<g id="a_node4"><a xlink:href="../../db/dd3/structenumerator__t.html" target="_top" xlink:title="enumerator_t">
<polygon fill="none" stroke="black" points="65,-180.5 65,-199.5 139,-199.5 139,-180.5 65,-180.5"/>
<text text-anchor="middle" x="102" y="-187.5" font-family="Helvetica,sans-Serif" font-size="10.00">enumerator_t</text>
</a>
</g>
</g>
<!-- Node4&#45;&gt;Node3 -->
<g id="edge3" class="edge"><title>Node4&#45;&gt;Node3</title>
<path fill="none" stroke="#9a32cd" stroke-dasharray="5,2" d="M102,-170.041C102,-157.472 102,-141.563 102,-131.841"/>
<polygon fill="#9a32cd" stroke="#9a32cd" points="98.5001,-170.372 102,-180.372 105.5,-170.372 98.5001,-170.372"/>
<text text-anchor="middle" x="144.5" y="-153.5" font-family="Helvetica,sans-Serif" font-size="10.00"> create_enumerator</text>
</g>
</g>
</svg>
