<?xml version="1.0" encoding="UTF-8" standalone="no"?>
<!DOCTYPE svg PUBLIC "-//W3C//DTD SVG 1.1//EN"
 "http://www.w3.org/Graphics/SVG/1.1/DTD/svg11.dtd">
<!-- Generated by graphviz version 2.36.0 (20140111.2315)
 -->
<!-- Title: terminate Pages: 1 -->
<svg width="498pt" height="28pt"
 viewBox="0.00 0.00 498.00 28.00" xmlns="http://www.w3.org/2000/svg" xmlns:xlink="http://www.w3.org/1999/xlink">
<g id="graph0" class="graph" transform="scale(1 1) rotate(0) translate(4 24)">
<title>terminate</title>
<!-- Node1 -->
<g id="node1" class="node"><title>Node1</title>
<polygon fill="#bfbfbf" stroke="black" points="0.5,-0.5 0.5,-19.5 57.5,-19.5 57.5,-0.5 0.5,-0.5"/>
<text text-anchor="middle" x="29" y="-7.5" font-family="Helvetica,sans-Serif" font-size="10.00">terminate</text>
</g>
<!-- Node2 -->
<g id="node2" class="node"><title>Node2</title>
<g id="a_node2"><a xlink:href="../../d4/d07/uci__control_8c.html#a7991be914ecd741cd22ea080bb7d1a2f" target="_top" xlink:title="process">
<polygon fill="none" stroke="black" points="94.5,-0.5 94.5,-19.5 145.5,-19.5 145.5,-0.5 94.5,-0.5"/>
<text text-anchor="middle" x="120" y="-7.5" font-family="Helvetica,sans-Serif" font-size="10.00">process</text>
</a>
</g>
</g>
<!-- Node1&#45;&gt;Node2 -->
<g id="edge1" class="edge"><title>Node1&#45;&gt;Node2</title>
<path fill="none" stroke="midnightblue" d="M67.9201,-10C76.8679,-10 86.1785,-10 94.3618,-10"/>
<polygon fill="midnightblue" stroke="midnightblue" points="67.6723,-6.5001 57.6723,-10 67.6723,-13.5001 67.6723,-6.5001"/>
</g>
<!-- Node3 -->
<g id="node3" class="node"><title>Node3</title>
<g id="a_node3"><a xlink:href="../../d4/d07/uci__control_8c.html#a9513515899cf5c24b192d857a52411aa" target="_top" xlink:title="receive">
<polygon fill="none" stroke="black" points="182,-0.5 182,-19.5 230,-19.5 230,-0.5 182,-0.5"/>
<text text-anchor="middle" x="206" y="-7.5" font-family="Helvetica,sans-Serif" font-size="10.00">receive</text>
</a>
</g>
</g>
<!-- Node2&#45;&gt;Node3 -->
<g id="edge2" class="edge"><title>Node2&#45;&gt;Node3</title>
<path fill="none" stroke="midnightblue" d="M155.778,-10C164.573,-10 173.805,-10 181.866,-10"/>
<polygon fill="midnightblue" stroke="midnightblue" points="155.748,-6.5001 145.748,-10 155.748,-13.5001 155.748,-6.5001"/>
</g>
<!-- Node4 -->
<g id="node4" class="node"><title>Node4</title>
<g id="a_node4"><a xlink:href="../../d5/df4/group__uci__control__t.html#ga66651aca294b20fd09939dcc48b385aa" target="_top" xlink:title="uci_control_create">
<polygon fill="none" stroke="black" points="266,-0.5 266,-19.5 362,-19.5 362,-0.5 266,-0.5"/>
<text text-anchor="middle" x="314" y="-7.5" font-family="Helvetica,sans-Serif" font-size="10.00">uci_control_create</text>
</a>
</g>
</g>
<!-- Node3&#45;&gt;Node4 -->
<g id="edge3" class="edge"><title>Node3&#45;&gt;Node4</title>
<path fill="none" stroke="midnightblue" d="M240.145,-10C248.237,-10 257.051,-10 265.663,-10"/>
<polygon fill="midnightblue" stroke="midnightblue" points="240,-6.5001 230,-10 240,-13.5001 240,-6.5001"/>
</g>
<!-- Node5 -->
<g id="node5" class="node"><title>Node5</title>
<g id="a_node5"><a xlink:href="../../d0/d8b/uci__plugin_8c.html#a9132499a3a5ed364f14edc9eea2d9477" target="_top" xlink:title="uci_plugin_create">
<polygon fill="none" stroke="black" points="398,-0.5 398,-19.5 490,-19.5 490,-0.5 398,-0.5"/>
<text text-anchor="middle" x="444" y="-7.5" font-family="Helvetica,sans-Serif" font-size="10.00">uci_plugin_create</text>
</a>
</g>
</g>
<!-- Node4&#45;&gt;Node5 -->
<g id="edge4" class="edge"><title>Node4&#45;&gt;Node5</title>
<path fill="none" stroke="midnightblue" d="M372.459,-10C380.883,-10 389.46,-10 397.598,-10"/>
<polygon fill="midnightblue" stroke="midnightblue" points="372.299,-6.5001 362.299,-10 372.299,-13.5001 372.299,-6.5001"/>
</g>
</g>
</svg>
