<?xml version="1.0" encoding="UTF-8" standalone="no"?>
<!DOCTYPE svg PUBLIC "-//W3C//DTD SVG 1.1//EN"
 "http://www.w3.org/Graphics/SVG/1.1/DTD/svg11.dtd">
<!-- Generated by graphviz version 2.36.0 (20140111.2315)
 -->
<!-- Title: write_fifo Pages: 1 -->
<svg width="590pt" height="142pt"
 viewBox="0.00 0.00 590.00 142.00" xmlns="http://www.w3.org/2000/svg" xmlns:xlink="http://www.w3.org/1999/xlink">
<g id="graph0" class="graph" transform="scale(1 1) rotate(0) translate(4 138)">
<title>write_fifo</title>
<!-- Node1 -->
<g id="node1" class="node"><title>Node1</title>
<polygon fill="#bfbfbf" stroke="black" points="0,-57.5 0,-76.5 56,-76.5 56,-57.5 0,-57.5"/>
<text text-anchor="middle" x="28" y="-64.5" font-family="Helvetica,sans-Serif" font-size="10.00">write_fifo</text>
</g>
<!-- Node2 -->
<g id="node2" class="node"><title>Node2</title>
<g id="a_node2"><a xlink:href="../../d4/d07/uci__control_8c.html#a831bdfc29748a5ab28392d8f5a5d3347" target="_top" xlink:title="initiate">
<polygon fill="none" stroke="black" points="98.5,-114.5 98.5,-133.5 143.5,-133.5 143.5,-114.5 98.5,-114.5"/>
<text text-anchor="middle" x="121" y="-121.5" font-family="Helvetica,sans-Serif" font-size="10.00">initiate</text>
</a>
</g>
</g>
<!-- Node1&#45;&gt;Node2 -->
<g id="edge1" class="edge"><title>Node1&#45;&gt;Node2</title>
<path fill="none" stroke="midnightblue" d="M52.9802,-82.0206C69.3942,-92.3018 90.6626,-105.624 104.791,-114.474"/>
<polygon fill="midnightblue" stroke="midnightblue" points="54.7696,-79.0115 44.4369,-76.6693 51.0537,-84.9438 54.7696,-79.0115"/>
</g>
<!-- Node3 -->
<g id="node3" class="node"><title>Node3</title>
<g id="a_node3"><a xlink:href="../../d4/d07/uci__control_8c.html#a7991be914ecd741cd22ea080bb7d1a2f" target="_top" xlink:title="process">
<polygon fill="none" stroke="black" points="186.5,-57.5 186.5,-76.5 237.5,-76.5 237.5,-57.5 186.5,-57.5"/>
<text text-anchor="middle" x="212" y="-64.5" font-family="Helvetica,sans-Serif" font-size="10.00">process</text>
</a>
</g>
</g>
<!-- Node1&#45;&gt;Node3 -->
<g id="edge6" class="edge"><title>Node1&#45;&gt;Node3</title>
<path fill="none" stroke="midnightblue" d="M66.3469,-67C102.296,-67 155.623,-67 186.487,-67"/>
<polygon fill="midnightblue" stroke="midnightblue" points="66.2473,-63.5001 56.2472,-67 66.2472,-70.5001 66.2473,-63.5001"/>
</g>
<!-- Node7 -->
<g id="node7" class="node"><title>Node7</title>
<g id="a_node7"><a xlink:href="../../d4/d07/uci__control_8c.html#a81f1fe392ee590473d5a33de9032f295" target="_top" xlink:title="status">
<polygon fill="none" stroke="black" points="99,-38.5 99,-57.5 143,-57.5 143,-38.5 99,-38.5"/>
<text text-anchor="middle" x="121" y="-45.5" font-family="Helvetica,sans-Serif" font-size="10.00">status</text>
</a>
</g>
</g>
<!-- Node1&#45;&gt;Node7 -->
<g id="edge7" class="edge"><title>Node1&#45;&gt;Node7</title>
<path fill="none" stroke="midnightblue" d="M66.2232,-59.2281C77.3196,-56.9113 89.0955,-54.4526 98.7901,-52.4284"/>
<polygon fill="midnightblue" stroke="midnightblue" points="65.3765,-55.8293 56.303,-61.2994 66.8073,-62.6816 65.3765,-55.8293"/>
</g>
<!-- Node8 -->
<g id="node8" class="node"><title>Node8</title>
<g id="a_node8"><a xlink:href="../../d4/d07/uci__control_8c.html#a0bd0bb47a73f96f73a667e68ccadfa25" target="_top" xlink:title="terminate">
<polygon fill="none" stroke="black" points="92.5,-0.5 92.5,-19.5 149.5,-19.5 149.5,-0.5 92.5,-0.5"/>
<text text-anchor="middle" x="121" y="-7.5" font-family="Helvetica,sans-Serif" font-size="10.00">terminate</text>
</a>
</g>
</g>
<!-- Node1&#45;&gt;Node8 -->
<g id="edge9" class="edge"><title>Node1&#45;&gt;Node8</title>
<path fill="none" stroke="midnightblue" d="M52.9802,-51.9794C69.3942,-41.6982 90.6626,-28.3762 104.791,-19.5265"/>
<polygon fill="midnightblue" stroke="midnightblue" points="51.0537,-49.0562 44.4369,-57.3307 54.7696,-54.9885 51.0537,-49.0562"/>
</g>
<!-- Node2&#45;&gt;Node3 -->
<g id="edge2" class="edge"><title>Node2&#45;&gt;Node3</title>
<path fill="none" stroke="midnightblue" d="M145.9,-108.693C161.891,-98.4518 182.435,-85.2942 196.125,-76.5265"/>
<polygon fill="midnightblue" stroke="midnightblue" points="143.631,-105.99 137.098,-114.331 147.406,-111.885 143.631,-105.99"/>
</g>
<!-- Node4 -->
<g id="node4" class="node"><title>Node4</title>
<g id="a_node4"><a xlink:href="../../d4/d07/uci__control_8c.html#a9513515899cf5c24b192d857a52411aa" target="_top" xlink:title="receive">
<polygon fill="none" stroke="black" points="274,-57.5 274,-76.5 322,-76.5 322,-57.5 274,-57.5"/>
<text text-anchor="middle" x="298" y="-64.5" font-family="Helvetica,sans-Serif" font-size="10.00">receive</text>
</a>
</g>
</g>
<!-- Node3&#45;&gt;Node4 -->
<g id="edge3" class="edge"><title>Node3&#45;&gt;Node4</title>
<path fill="none" stroke="midnightblue" d="M247.778,-67C256.573,-67 265.805,-67 273.866,-67"/>
<polygon fill="midnightblue" stroke="midnightblue" points="247.748,-63.5001 237.748,-67 247.748,-70.5001 247.748,-63.5001"/>
</g>
<!-- Node5 -->
<g id="node5" class="node"><title>Node5</title>
<g id="a_node5"><a xlink:href="../../d5/df4/group__uci__control__t.html#ga66651aca294b20fd09939dcc48b385aa" target="_top" xlink:title="uci_control_create">
<polygon fill="none" stroke="black" points="358,-57.5 358,-76.5 454,-76.5 454,-57.5 358,-57.5"/>
<text text-anchor="middle" x="406" y="-64.5" font-family="Helvetica,sans-Serif" font-size="10.00">uci_control_create</text>
</a>
</g>
</g>
<!-- Node4&#45;&gt;Node5 -->
<g id="edge4" class="edge"><title>Node4&#45;&gt;Node5</title>
<path fill="none" stroke="midnightblue" d="M332.145,-67C340.237,-67 349.051,-67 357.663,-67"/>
<polygon fill="midnightblue" stroke="midnightblue" points="332,-63.5001 322,-67 332,-70.5001 332,-63.5001"/>
</g>
<!-- Node6 -->
<g id="node6" class="node"><title>Node6</title>
<g id="a_node6"><a xlink:href="../../d0/d8b/uci__plugin_8c.html#a9132499a3a5ed364f14edc9eea2d9477" target="_top" xlink:title="uci_plugin_create">
<polygon fill="none" stroke="black" points="490,-57.5 490,-76.5 582,-76.5 582,-57.5 490,-57.5"/>
<text text-anchor="middle" x="536" y="-64.5" font-family="Helvetica,sans-Serif" font-size="10.00">uci_plugin_create</text>
</a>
</g>
</g>
<!-- Node5&#45;&gt;Node6 -->
<g id="edge5" class="edge"><title>Node5&#45;&gt;Node6</title>
<path fill="none" stroke="midnightblue" d="M464.459,-67C472.883,-67 481.46,-67 489.598,-67"/>
<polygon fill="midnightblue" stroke="midnightblue" points="464.299,-63.5001 454.299,-67 464.299,-70.5001 464.299,-63.5001"/>
</g>
<!-- Node7&#45;&gt;Node3 -->
<g id="edge8" class="edge"><title>Node7&#45;&gt;Node3</title>
<path fill="none" stroke="midnightblue" d="M153.058,-54.6304C163.931,-56.9516 175.986,-59.525 186.271,-61.7208"/>
<polygon fill="midnightblue" stroke="midnightblue" points="153.602,-51.1677 143.092,-52.5027 152.141,-58.0135 153.602,-51.1677"/>
</g>
<!-- Node8&#45;&gt;Node3 -->
<g id="edge10" class="edge"><title>Node8&#45;&gt;Node3</title>
<path fill="none" stroke="midnightblue" d="M145.9,-25.3069C161.891,-35.5482 182.435,-48.7058 196.125,-57.4735"/>
<polygon fill="midnightblue" stroke="midnightblue" points="147.406,-22.1152 137.098,-19.6693 143.631,-28.0099 147.406,-22.1152"/>
</g>
</g>
</svg>
