<?xml version="1.0" encoding="UTF-8" standalone="no"?>
<!DOCTYPE svg PUBLIC "-//W3C//DTD SVG 1.1//EN"
 "http://www.w3.org/Graphics/SVG/1.1/DTD/svg11.dtd">
<!-- Generated by graphviz version 2.36.0 (20140111.2315)
 -->
<!-- Title: destroy_entry Pages: 1 -->
<svg width="286pt" height="104pt"
 viewBox="0.00 0.00 286.00 104.00" xmlns="http://www.w3.org/2000/svg" xmlns:xlink="http://www.w3.org/1999/xlink">
<g id="graph0" class="graph" transform="scale(1 1) rotate(0) translate(4 100)">
<title>destroy_entry</title>
<!-- Node1 -->
<g id="node1" class="node"><title>Node1</title>
<polygon fill="#bfbfbf" stroke="black" points="0,-38.5 0,-57.5 76,-57.5 76,-38.5 0,-38.5"/>
<text text-anchor="middle" x="38" y="-45.5" font-family="Helvetica,sans-Serif" font-size="10.00">destroy_entry</text>
</g>
<!-- Node2 -->
<g id="node2" class="node"><title>Node2</title>
<g id="a_node2"><a xlink:href="../../d0/d8f/vici__socket_8c.html#a70dfefbaa1c5cbafa7d0b7dbfc7e22d0" target="_top" xlink:title="CALLBACK">
<polygon fill="none" stroke="black" points="112.5,-76.5 112.5,-95.5 181.5,-95.5 181.5,-76.5 112.5,-76.5"/>
<text text-anchor="middle" x="147" y="-83.5" font-family="Helvetica,sans-Serif" font-size="10.00">CALLBACK</text>
</a>
</g>
</g>
<!-- Node1&#45;&gt;Node2 -->
<g id="edge1" class="edge"><title>Node1&#45;&gt;Node2</title>
<path fill="none" stroke="midnightblue" d="M75.5258,-60.9718C89.7812,-66.0344 105.83,-71.7341 119.008,-76.4141"/>
<polygon fill="midnightblue" stroke="midnightblue" points="76.5953,-57.6375 66.0006,-57.589 74.2527,-64.2339 76.5953,-57.6375"/>
</g>
<!-- Node3 -->
<g id="node3" class="node"><title>Node3</title>
<g id="a_node3"><a xlink:href="../../d1/dd0/eap__radius__accounting_8c.html#a43b8d7b2e08ddb1752dd02d1d303aab5" target="_top" xlink:title="METHOD">
<polygon fill="none" stroke="black" points="117,-38.5 117,-57.5 177,-57.5 177,-38.5 117,-38.5"/>
<text text-anchor="middle" x="147" y="-45.5" font-family="Helvetica,sans-Serif" font-size="10.00">METHOD</text>
</a>
</g>
</g>
<!-- Node1&#45;&gt;Node3 -->
<g id="edge2" class="edge"><title>Node1&#45;&gt;Node3</title>
<path fill="none" stroke="midnightblue" d="M86.3035,-48C96.6465,-48 107.303,-48 116.698,-48"/>
<polygon fill="midnightblue" stroke="midnightblue" points="86.1231,-44.5001 76.1231,-48 86.1231,-51.5001 86.1231,-44.5001"/>
</g>
<!-- Node4 -->
<g id="node4" class="node"><title>Node4</title>
<g id="a_node4"><a xlink:href="../../d1/dd0/eap__radius__accounting_8c.html#ae370423a364793ed03011a2ca7a2a3bd" target="_top" xlink:title="send_stop">
<polygon fill="none" stroke="black" points="116,-0.5 116,-19.5 178,-19.5 178,-0.5 116,-0.5"/>
<text text-anchor="middle" x="147" y="-7.5" font-family="Helvetica,sans-Serif" font-size="10.00">send_stop</text>
</a>
</g>
</g>
<!-- Node1&#45;&gt;Node4 -->
<g id="edge3" class="edge"><title>Node1&#45;&gt;Node4</title>
<path fill="none" stroke="midnightblue" d="M75.5258,-35.0282C89.7812,-29.9656 105.83,-24.2659 119.008,-19.5859"/>
<polygon fill="midnightblue" stroke="midnightblue" points="74.2527,-31.7661 66.0006,-38.411 76.5953,-38.3625 74.2527,-31.7661"/>
</g>
<!-- Node5 -->
<g id="node5" class="node"><title>Node5</title>
<g id="a_node5"><a xlink:href="../../d1/dd0/eap__radius__accounting_8c.html#a1058467d052355d8fa61a6ed123c03f1" target="_top" xlink:title="METHOD">
<polygon fill="none" stroke="black" points="218,-0.5 218,-19.5 278,-19.5 278,-0.5 218,-0.5"/>
<text text-anchor="middle" x="248" y="-7.5" font-family="Helvetica,sans-Serif" font-size="10.00">METHOD</text>
</a>
</g>
</g>
<!-- Node4&#45;&gt;Node5 -->
<g id="edge4" class="edge"><title>Node4&#45;&gt;Node5</title>
<path fill="none" stroke="midnightblue" d="M188.33,-10C198.255,-10 208.689,-10 217.961,-10"/>
<polygon fill="midnightblue" stroke="midnightblue" points="188.241,-6.5001 178.241,-10 188.241,-13.5001 188.241,-6.5001"/>
</g>
</g>
</svg>
