<?xml version="1.0" encoding="UTF-8" standalone="no"?>
<!DOCTYPE svg PUBLIC "-//W3C//DTD SVG 1.1//EN"
 "http://www.w3.org/Graphics/SVG/1.1/DTD/svg11.dtd">
<!-- Generated by graphviz version 2.36.0 (20140111.2315)
 -->
<!-- Title: equals Pages: 1 -->
<svg width="396pt" height="38pt"
 viewBox="0.00 0.00 396.00 38.00" xmlns="http://www.w3.org/2000/svg" xmlns:xlink="http://www.w3.org/1999/xlink">
<g id="graph0" class="graph" transform="scale(1 1) rotate(0) translate(4 34)">
<title>equals</title>
<!-- Node1 -->
<g id="node1" class="node"><title>Node1</title>
<polygon fill="#bfbfbf" stroke="black" points="0.5,-5.5 0.5,-24.5 45.5,-24.5 45.5,-5.5 0.5,-5.5"/>
<text text-anchor="middle" x="23" y="-12.5" font-family="Helvetica,sans-Serif" font-size="10.00">equals</text>
</g>
<!-- Node2 -->
<g id="node2" class="node"><title>Node2</title>
<g id="a_node2"><a xlink:href="../../dd/d4e/group__eap__radius__accounting.html#gaab34449cb6da06bcab58819a8b61725d" target="_top" xlink:title="eap_radius_accounting\l_create">
<polygon fill="none" stroke="black" points="82,-0 82,-30 198,-30 198,-0 82,-0"/>
<text text-anchor="start" x="90" y="-18" font-family="Helvetica,sans-Serif" font-size="10.00">eap_radius_accounting</text>
<text text-anchor="middle" x="140" y="-7" font-family="Helvetica,sans-Serif" font-size="10.00">_create</text>
</a>
</g>
</g>
<!-- Node1&#45;&gt;Node2 -->
<g id="edge1" class="edge"><title>Node1&#45;&gt;Node2</title>
<path fill="none" stroke="midnightblue" d="M55.6644,-15C63.7267,-15 72.6446,-15 81.5605,-15"/>
<polygon fill="midnightblue" stroke="midnightblue" points="55.6307,-11.5001 45.6306,-15 55.6306,-18.5001 55.6307,-11.5001"/>
</g>
<!-- Node3 -->
<g id="node3" class="node"><title>Node3</title>
<g id="a_node3"><a xlink:href="../../d3/de7/eap__radius__plugin_8c.html#abd3973b01f8d04957f7a3fc8e88fd716" target="_top" xlink:title="plugin_cb">
<polygon fill="none" stroke="black" points="234,-5.5 234,-24.5 292,-24.5 292,-5.5 234,-5.5"/>
<text text-anchor="middle" x="263" y="-12.5" font-family="Helvetica,sans-Serif" font-size="10.00">plugin_cb</text>
</a>
</g>
</g>
<!-- Node2&#45;&gt;Node3 -->
<g id="edge2" class="edge"><title>Node2&#45;&gt;Node3</title>
<path fill="none" stroke="midnightblue" d="M208.43,-15C217.354,-15 226.073,-15 233.799,-15"/>
<polygon fill="midnightblue" stroke="midnightblue" points="208.311,-11.5001 198.311,-15 208.311,-18.5001 208.311,-11.5001"/>
</g>
<!-- Node4 -->
<g id="node4" class="node"><title>Node4</title>
<g id="a_node4"><a xlink:href="../../d3/de7/eap__radius__plugin_8c.html#a45ad894365a8157f1d82bb26f26f5f8e" target="_top" xlink:title="METHOD">
<polygon fill="none" stroke="black" points="328,-5.5 328,-24.5 388,-24.5 388,-5.5 328,-5.5"/>
<text text-anchor="middle" x="358" y="-12.5" font-family="Helvetica,sans-Serif" font-size="10.00">METHOD</text>
</a>
</g>
</g>
<!-- Node3&#45;&gt;Node4 -->
<g id="edge3" class="edge"><title>Node3&#45;&gt;Node4</title>
<path fill="none" stroke="midnightblue" d="M302.337,-15C310.905,-15 319.856,-15 327.975,-15"/>
<polygon fill="midnightblue" stroke="midnightblue" points="302.155,-11.5001 292.155,-15 302.155,-18.5001 302.155,-11.5001"/>
</g>
</g>
</svg>
