<?xml version="1.0" encoding="UTF-8" standalone="no"?>
<!DOCTYPE svg PUBLIC "-//W3C//DTD SVG 1.1//EN"
 "http://www.w3.org/Graphics/SVG/1.1/DTD/svg11.dtd">
<!-- Generated by graphviz version 2.36.0 (20140111.2315)
 -->
<!-- Title: build_signature_auth_data Pages: 1 -->
<svg width="374pt" height="28pt"
 viewBox="0.00 0.00 374.00 28.00" xmlns="http://www.w3.org/2000/svg" xmlns:xlink="http://www.w3.org/1999/xlink">
<g id="graph0" class="graph" transform="scale(1 1) rotate(0) translate(4 24)">
<title>build_signature_auth_data</title>
<!-- Node1 -->
<g id="node1" class="node"><title>Node1</title>
<polygon fill="#bfbfbf" stroke="black" points="0,-0.5 0,-19.5 130,-19.5 130,-0.5 0,-0.5"/>
<text text-anchor="middle" x="65" y="-7.5" font-family="Helvetica,sans-Serif" font-size="10.00">build_signature_auth_data</text>
</g>
<!-- Node2 -->
<g id="node2" class="node"><title>Node2</title>
<g id="a_node2"><a xlink:href="../../d4/d9a/pubkey__authenticator_8c.html#a44eb470fd1ca4a1efe6006300ba941c4" target="_top" xlink:title="sign_signature_auth">
<polygon fill="none" stroke="black" points="166,-0.5 166,-19.5 270,-19.5 270,-0.5 166,-0.5"/>
<text text-anchor="middle" x="218" y="-7.5" font-family="Helvetica,sans-Serif" font-size="10.00">sign_signature_auth</text>
</a>
</g>
</g>
<!-- Node1&#45;&gt;Node2 -->
<g id="edge1" class="edge"><title>Node1&#45;&gt;Node2</title>
<path fill="none" stroke="midnightblue" d="M140.14,-10C148.779,-10 157.441,-10 165.674,-10"/>
<polygon fill="midnightblue" stroke="midnightblue" points="140.038,-6.5001 130.038,-10 140.038,-13.5001 140.038,-6.5001"/>
</g>
<!-- Node3 -->
<g id="node3" class="node"><title>Node3</title>
<g id="a_node3"><a xlink:href="../../d4/d9a/pubkey__authenticator_8c.html#a79593792af177faa44b5efec7e63b7c7" target="_top" xlink:title="METHOD">
<polygon fill="none" stroke="black" points="306,-0.5 306,-19.5 366,-19.5 366,-0.5 306,-0.5"/>
<text text-anchor="middle" x="336" y="-7.5" font-family="Helvetica,sans-Serif" font-size="10.00">METHOD</text>
</a>
</g>
</g>
<!-- Node2&#45;&gt;Node3 -->
<g id="edge2" class="edge"><title>Node2&#45;&gt;Node3</title>
<path fill="none" stroke="midnightblue" d="M280.32,-10C289.27,-10 298.113,-10 305.995,-10"/>
<polygon fill="midnightblue" stroke="midnightblue" points="280.217,-6.5001 270.217,-10 280.217,-13.5001 280.217,-6.5001"/>
</g>
</g>
</svg>
