<?xml version="1.0" encoding="UTF-8" standalone="no"?>
<!DOCTYPE svg PUBLIC "-//W3C//DTD SVG 1.1//EN"
 "http://www.w3.org/Graphics/SVG/1.1/DTD/svg11.dtd">
<!-- Generated by graphviz version 2.36.0 (20140111.2315)
 -->
<!-- Title: settings_section_extend Pages: 1 -->
<svg width="784pt" height="180pt"
 viewBox="0.00 0.00 784.00 180.00" xmlns="http://www.w3.org/2000/svg" xmlns:xlink="http://www.w3.org/1999/xlink">
<g id="graph0" class="graph" transform="scale(1 1) rotate(0) translate(4 176)">
<title>settings_section_extend</title>
<!-- Node1 -->
<g id="node1" class="node"><title>Node1</title>
<polygon fill="#bfbfbf" stroke="black" points="0,-85.5 0,-104.5 122,-104.5 122,-85.5 0,-85.5"/>
<text text-anchor="middle" x="61" y="-92.5" font-family="Helvetica,sans-Serif" font-size="10.00">settings_section_extend</text>
</g>
<!-- Node2 -->
<g id="node2" class="node"><title>Node2</title>
<g id="a_node2"><a xlink:href="../../d5/d08/settings__types_8c.html#a4c7fbd820478c8ccd4f288b47dd9b35a" target="_top" xlink:title="add_section">
<polygon fill="none" stroke="black" points="159.5,-85.5 159.5,-104.5 228.5,-104.5 228.5,-85.5 159.5,-85.5"/>
<text text-anchor="middle" x="194" y="-92.5" font-family="Helvetica,sans-Serif" font-size="10.00">add_section</text>
</a>
</g>
</g>
<!-- Node1&#45;&gt;Node2 -->
<g id="edge1" class="edge"><title>Node1&#45;&gt;Node2</title>
<path fill="none" stroke="midnightblue" d="M132.337,-88.2664C141.728,-88.3301 150.985,-88.5797 159.331,-89.0152"/>
<polygon fill="midnightblue" stroke="midnightblue" points="132.131,-84.7664 122.132,-88.2702 132.134,-91.7664 132.131,-84.7664"/>
</g>
<!-- Node15 -->
<g id="node15" class="node"><title>Node15</title>
<g id="a_node15"><a xlink:href="../../d3/d6a/settings_8c.html#aa948d357c53715b200263977574d1244" target="_top" xlink:title="load_internal">
<polygon fill="none" stroke="black" points="158.5,-47.5 158.5,-66.5 229.5,-66.5 229.5,-47.5 158.5,-47.5"/>
<text text-anchor="middle" x="194" y="-54.5" font-family="Helvetica,sans-Serif" font-size="10.00">load_internal</text>
</a>
</g>
</g>
<!-- Node1&#45;&gt;Node15 -->
<g id="edge16" class="edge"><title>Node1&#45;&gt;Node15</title>
<path fill="none" stroke="midnightblue" d="M104.715,-82.6094C122.655,-77.4055 143.2,-71.4459 159.954,-66.5859"/>
<polygon fill="midnightblue" stroke="midnightblue" points="103.686,-79.2636 95.0568,-85.411 105.636,-85.9864 103.686,-79.2636"/>
</g>
<!-- Node2&#45;&gt;Node1 -->
<g id="edge15" class="edge"><title>Node2&#45;&gt;Node1</title>
<path fill="none" stroke="midnightblue" d="M149.099,-101.413C140.442,-101.693 131.218,-101.798 122.132,-101.73"/>
<polygon fill="midnightblue" stroke="midnightblue" points="149.486,-104.9 159.331,-100.985 149.193,-97.9057 149.486,-104.9"/>
</g>
<!-- Node3 -->
<g id="node3" class="node"><title>Node3</title>
<g id="a_node3"><a xlink:href="../../d4/d9d/group__settings__types.html#gad9743c761f0ce6a1bc4da4ce1a7cd03d" target="_top" xlink:title="settings_section_add">
<polygon fill="none" stroke="black" points="266.5,-85.5 266.5,-104.5 375.5,-104.5 375.5,-85.5 266.5,-85.5"/>
<text text-anchor="middle" x="321" y="-92.5" font-family="Helvetica,sans-Serif" font-size="10.00">settings_section_add</text>
</a>
</g>
</g>
<!-- Node2&#45;&gt;Node3 -->
<g id="edge2" class="edge"><title>Node2&#45;&gt;Node3</title>
<path fill="none" stroke="midnightblue" d="M238.936,-95C247.804,-95 257.22,-95 266.377,-95"/>
<polygon fill="midnightblue" stroke="midnightblue" points="238.827,-91.5001 228.827,-95 238.827,-98.5001 238.827,-91.5001"/>
</g>
<!-- Node4 -->
<g id="node4" class="node"><title>Node4</title>
<g id="a_node4"><a xlink:href="../../da/dfc/settings__parser_8c.html#a2399640719197394fd7f06465e538857" target="_top" xlink:title="add_section">
<polygon fill="none" stroke="black" points="432.5,-142.5 432.5,-161.5 501.5,-161.5 501.5,-142.5 432.5,-142.5"/>
<text text-anchor="middle" x="467" y="-149.5" font-family="Helvetica,sans-Serif" font-size="10.00">add_section</text>
</a>
</g>
</g>
<!-- Node3&#45;&gt;Node4 -->
<g id="edge3" class="edge"><title>Node3&#45;&gt;Node4</title>
<path fill="none" stroke="midnightblue" d="M355.703,-108.341C382.114,-118.795 418.221,-133.087 441.819,-142.428"/>
<polygon fill="midnightblue" stroke="midnightblue" points="356.689,-104.967 346.102,-104.541 354.112,-111.475 356.689,-104.967"/>
</g>
<!-- Node6 -->
<g id="node6" class="node"><title>Node6</title>
<g id="a_node6"><a xlink:href="../../d3/d6a/settings_8c.html#afa8073d4dd6e47b3cd35ceb7e2b60185" target="_top" xlink:title="find_section_buffered">
<polygon fill="none" stroke="black" points="412,-85.5 412,-104.5 522,-104.5 522,-85.5 412,-85.5"/>
<text text-anchor="middle" x="467" y="-92.5" font-family="Helvetica,sans-Serif" font-size="10.00">find_section_buffered</text>
</a>
</g>
</g>
<!-- Node3&#45;&gt;Node6 -->
<g id="edge5" class="edge"><title>Node3&#45;&gt;Node6</title>
<path fill="none" stroke="midnightblue" d="M385.743,-95C394.457,-95 403.334,-95 411.855,-95"/>
<polygon fill="midnightblue" stroke="midnightblue" points="385.62,-91.5001 375.62,-95 385.62,-98.5001 385.62,-91.5001"/>
</g>
<!-- Node10 -->
<g id="node10" class="node"><title>Node10</title>
<g id="a_node10"><a xlink:href="../../d3/d6a/settings_8c.html#a926f487adf1adcdb88bac2d83bf24256" target="_top" xlink:title="find_value_buffered">
<polygon fill="none" stroke="black" points="416.5,-38.5 416.5,-57.5 517.5,-57.5 517.5,-38.5 416.5,-38.5"/>
<text text-anchor="middle" x="467" y="-45.5" font-family="Helvetica,sans-Serif" font-size="10.00">find_value_buffered</text>
</a>
</g>
</g>
<!-- Node3&#45;&gt;Node10 -->
<g id="edge10" class="edge"><title>Node3&#45;&gt;Node10</title>
<path fill="none" stroke="midnightblue" d="M360.907,-82.3012C384.67,-74.5452 414.58,-64.783 436.409,-57.6583"/>
<polygon fill="midnightblue" stroke="midnightblue" points="359.561,-79.0587 351.141,-85.4888 361.733,-85.7132 359.561,-79.0587"/>
</g>
<!-- Node5 -->
<g id="node5" class="node"><title>Node5</title>
<g id="a_node5"><a xlink:href="../../da/dfc/settings__parser_8c.html#a36f4ac5b11f5d30cd26b5f3d1e4cdadc" target="_top" xlink:title="yyparse">
<polygon fill="none" stroke="black" points="593.5,-152.5 593.5,-171.5 644.5,-171.5 644.5,-152.5 593.5,-152.5"/>
<text text-anchor="middle" x="619" y="-159.5" font-family="Helvetica,sans-Serif" font-size="10.00">yyparse</text>
</a>
</g>
</g>
<!-- Node4&#45;&gt;Node5 -->
<g id="edge4" class="edge"><title>Node4&#45;&gt;Node5</title>
<path fill="none" stroke="midnightblue" d="M511.855,-154.924C538.39,-156.693 571.249,-158.883 593.319,-160.355"/>
<polygon fill="midnightblue" stroke="midnightblue" points="511.874,-151.417 501.663,-154.244 511.408,-158.402 511.874,-151.417"/>
</g>
<!-- Node7 -->
<g id="node7" class="node"><title>Node7</title>
<g id="a_node7"><a xlink:href="../../d3/d6a/settings_8c.html#a4c945b3b7f3dce3ce3582953c90a0666" target="_top" xlink:title="add_fallback_to_section">
<polygon fill="none" stroke="black" points="558,-114.5 558,-133.5 680,-133.5 680,-114.5 558,-114.5"/>
<text text-anchor="middle" x="619" y="-121.5" font-family="Helvetica,sans-Serif" font-size="10.00">add_fallback_to_section</text>
</a>
</g>
</g>
<!-- Node6&#45;&gt;Node7 -->
<g id="edge6" class="edge"><title>Node6&#45;&gt;Node7</title>
<path fill="none" stroke="midnightblue" d="M527.366,-106.478C541.089,-109.131 555.542,-111.925 568.776,-114.483"/>
<polygon fill="midnightblue" stroke="midnightblue" points="528.014,-103.038 517.531,-104.576 526.685,-109.911 528.014,-103.038"/>
</g>
<!-- Node9 -->
<g id="node9" class="node"><title>Node9</title>
<g id="a_node9"><a xlink:href="../../d3/d6a/settings_8c.html#abe0b110cd85e763416ffd9f0fc06901e" target="_top" xlink:title="ensure_section">
<polygon fill="none" stroke="black" points="577.5,-76.5 577.5,-95.5 660.5,-95.5 660.5,-76.5 577.5,-76.5"/>
<text text-anchor="middle" x="619" y="-83.5" font-family="Helvetica,sans-Serif" font-size="10.00">ensure_section</text>
</a>
</g>
</g>
<!-- Node6&#45;&gt;Node9 -->
<g id="edge8" class="edge"><title>Node6&#45;&gt;Node9</title>
<path fill="none" stroke="midnightblue" d="M532.504,-91.1297C547.635,-90.2219 563.347,-89.2792 577.111,-88.4533"/>
<polygon fill="midnightblue" stroke="midnightblue" points="531.926,-87.6581 522.153,-91.7508 532.345,-94.6455 531.926,-87.6581"/>
</g>
<!-- Node8 -->
<g id="node8" class="node"><title>Node8</title>
<g id="a_node8"><a xlink:href="../../d3/d6a/settings_8c.html#a775e1834574961647f07db9301e52763" target="_top" xlink:title="METHOD">
<polygon fill="none" stroke="black" points="716,-95.5 716,-114.5 776,-114.5 776,-95.5 716,-95.5"/>
<text text-anchor="middle" x="746" y="-102.5" font-family="Helvetica,sans-Serif" font-size="10.00">METHOD</text>
</a>
</g>
</g>
<!-- Node7&#45;&gt;Node8 -->
<g id="edge7" class="edge"><title>Node7&#45;&gt;Node8</title>
<path fill="none" stroke="midnightblue" d="M690.429,-113.295C699.351,-111.939 708.054,-110.616 715.794,-109.439"/>
<polygon fill="midnightblue" stroke="midnightblue" points="689.664,-109.871 680.303,-114.834 690.716,-116.791 689.664,-109.871"/>
</g>
<!-- Node9&#45;&gt;Node8 -->
<g id="edge9" class="edge"><title>Node9&#45;&gt;Node8</title>
<path fill="none" stroke="midnightblue" d="M670.495,-93.6752C685.859,-96.0106 702.23,-98.4989 715.7,-100.546"/>
<polygon fill="midnightblue" stroke="midnightblue" points="670.996,-90.2113 660.584,-92.1688 669.944,-97.1318 670.996,-90.2113"/>
</g>
<!-- Node11 -->
<g id="node11" class="node"><title>Node11</title>
<g id="a_node11"><a xlink:href="../../d3/d6a/settings_8c.html#aaecad16983c68299d4fb4cbe01652073" target="_top" xlink:title="find_value">
<polygon fill="none" stroke="black" points="588.5,-38.5 588.5,-57.5 649.5,-57.5 649.5,-38.5 588.5,-38.5"/>
<text text-anchor="middle" x="619" y="-45.5" font-family="Helvetica,sans-Serif" font-size="10.00">find_value</text>
</a>
</g>
</g>
<!-- Node10&#45;&gt;Node11 -->
<g id="edge11" class="edge"><title>Node10&#45;&gt;Node11</title>
<path fill="none" stroke="midnightblue" d="M527.588,-48C548.406,-48 570.879,-48 588.212,-48"/>
<polygon fill="midnightblue" stroke="midnightblue" points="527.531,-44.5001 517.531,-48 527.531,-51.5001 527.531,-44.5001"/>
</g>
<!-- Node13 -->
<g id="node13" class="node"><title>Node13</title>
<g id="a_node13"><a xlink:href="../../d3/d6a/settings_8c.html#ad5a4f4780ae52591100608f9156cc646" target="_top" xlink:title="set_value">
<polygon fill="none" stroke="black" points="589.5,-0.5 589.5,-19.5 648.5,-19.5 648.5,-0.5 589.5,-0.5"/>
<text text-anchor="middle" x="619" y="-7.5" font-family="Helvetica,sans-Serif" font-size="10.00">set_value</text>
</a>
</g>
</g>
<!-- Node10&#45;&gt;Node13 -->
<g id="edge13" class="edge"><title>Node10&#45;&gt;Node13</title>
<path fill="none" stroke="midnightblue" d="M515.562,-35.951C539.741,-29.8257 568.332,-22.5825 589.156,-17.3071"/>
<polygon fill="midnightblue" stroke="midnightblue" points="514.686,-32.5623 505.851,-38.411 516.405,-39.348 514.686,-32.5623"/>
</g>
<!-- Node12 -->
<g id="node12" class="node"><title>Node12</title>
<g id="a_node12"><a xlink:href="../../d3/d6a/settings_8c.html#afca924ff620e92c9d359a9257adab70e" target="_top" xlink:title="METHOD">
<polygon fill="none" stroke="black" points="716,-38.5 716,-57.5 776,-57.5 776,-38.5 716,-38.5"/>
<text text-anchor="middle" x="746" y="-45.5" font-family="Helvetica,sans-Serif" font-size="10.00">METHOD</text>
</a>
</g>
</g>
<!-- Node11&#45;&gt;Node12 -->
<g id="edge12" class="edge"><title>Node11&#45;&gt;Node12</title>
<path fill="none" stroke="midnightblue" d="M659.625,-48C677.767,-48 698.892,-48 715.589,-48"/>
<polygon fill="midnightblue" stroke="midnightblue" points="659.623,-44.5001 649.623,-48 659.623,-51.5001 659.623,-44.5001"/>
</g>
<!-- Node14 -->
<g id="node14" class="node"><title>Node14</title>
<g id="a_node14"><a xlink:href="../../d3/d6a/settings_8c.html#a461d0dc55fff9769a0a92a6893f039d7" target="_top" xlink:title="METHOD">
<polygon fill="none" stroke="black" points="716,-0.5 716,-19.5 776,-19.5 776,-0.5 716,-0.5"/>
<text text-anchor="middle" x="746" y="-7.5" font-family="Helvetica,sans-Serif" font-size="10.00">METHOD</text>
</a>
</g>
</g>
<!-- Node13&#45;&gt;Node14 -->
<g id="edge14" class="edge"><title>Node13&#45;&gt;Node14</title>
<path fill="none" stroke="midnightblue" d="M658.762,-10C677.094,-10 698.625,-10 715.588,-10"/>
<polygon fill="midnightblue" stroke="midnightblue" points="658.678,-6.5001 648.678,-10 658.677,-13.5001 658.678,-6.5001"/>
</g>
<!-- Node16 -->
<g id="node16" class="node"><title>Node16</title>
<g id="a_node16"><a xlink:href="../../d3/d6a/settings_8c.html#a9e187d059223d386f6258d3870f3cebd" target="_top" xlink:title="METHOD">
<polygon fill="none" stroke="black" points="291,-47.5 291,-66.5 351,-66.5 351,-47.5 291,-47.5"/>
<text text-anchor="middle" x="321" y="-54.5" font-family="Helvetica,sans-Serif" font-size="10.00">METHOD</text>
</a>
</g>
</g>
<!-- Node15&#45;&gt;Node16 -->
<g id="edge17" class="edge"><title>Node15&#45;&gt;Node16</title>
<path fill="none" stroke="midnightblue" d="M240.066,-57C256.986,-57 275.759,-57 290.858,-57"/>
<polygon fill="midnightblue" stroke="midnightblue" points="239.82,-53.5001 229.819,-57 239.819,-60.5001 239.82,-53.5001"/>
</g>
</g>
</svg>
