<?xml version="1.0" encoding="UTF-8" standalone="no"?>
<!DOCTYPE svg PUBLIC "-//W3C//DTD SVG 1.1//EN"
 "http://www.w3.org/Graphics/SVG/1.1/DTD/svg11.dtd">
<!-- Generated by graphviz version 2.36.0 (20140111.2315)
 -->
<!-- Title: keys Pages: 1 -->
<svg width="144pt" height="223pt"
 viewBox="0.00 0.00 144.00 223.00" xmlns="http://www.w3.org/2000/svg" xmlns:xlink="http://www.w3.org/1999/xlink">
<g id="graph0" class="graph" transform="scale(1 1) rotate(0) translate(4 219)">
<title>keys</title>
<g id="clust1" class="cluster"><title>clusterdir_ee3a696134e5e60f0b6121e45e5020bf</title>
<g id="a_clust1"><a xlink:href="dir_ee3a696134e5e60f0b6121e45e5020bf.html" target="_top" xlink:title="credentials">
<polygon fill="#ddddee" stroke="black" points="31,-136 31,-207 101,-207 101,-136 31,-136"/>
<text text-anchor="middle" x="66" y="-195" font-family="Helvetica,sans-Serif" font-size="10.00">credentials</text>
</a>
</g>
</g>
<!-- dir_4e84f57be2184613cc1f24df62c8fa14 -->
<g id="node1" class="node"><title>dir_4e84f57be2184613cc1f24df62c8fa14</title>
<g id="a_node1"><a xlink:href="dir_4e84f57be2184613cc1f24df62c8fa14.html" target="_top" xlink:title="keys">
<polygon fill="#eeeeff" stroke="black" points="93,-180 39,-180 39,-144 93,-144 93,-180"/>
<text text-anchor="middle" x="66" y="-159.5" font-family="Helvetica,sans-Serif" font-size="10.00">keys</text>
</a>
</g>
</g>
<!-- dir_60defd0ad67143a9a0fc00b986d15334 -->
<g id="node2" class="node"><title>dir_60defd0ad67143a9a0fc00b986d15334</title>
<g id="a_node2"><a xlink:href="dir_60defd0ad67143a9a0fc00b986d15334.html" target="_top" xlink:title="utils">
<polygon fill="none" stroke="red" points="93,-108 39,-108 39,-72 93,-72 93,-108"/>
<text text-anchor="middle" x="66" y="-87.5" font-family="Helvetica,sans-Serif" font-size="10.00">utils</text>
</a>
</g>
</g>
<!-- dir_4e84f57be2184613cc1f24df62c8fa14&#45;&gt;dir_60defd0ad67143a9a0fc00b986d15334 -->
<g id="edge4" class="edge"><title>dir_4e84f57be2184613cc1f24df62c8fa14&#45;&gt;dir_60defd0ad67143a9a0fc00b986d15334</title>
<path fill="none" stroke="black" d="M66,-143.697C66,-135.983 66,-126.712 66,-118.112"/>
<polygon fill="black" stroke="black" points="69.5001,-118.104 66,-108.104 62.5001,-118.104 69.5001,-118.104"/>
<g id="a_edge4&#45;headlabel"><a xlink:href="dir_000233_000036.html" target="_top" xlink:title="2">
<text text-anchor="middle" x="72.3393" y="-119.199" font-family="Helvetica,sans-Serif" font-size="10.00">2</text>
</a>
</g>
</g>
<!-- dir_b8658a859b45a86285213f971a45f665 -->
<g id="node3" class="node"><title>dir_b8658a859b45a86285213f971a45f665</title>
<g id="a_node3"><a xlink:href="dir_b8658a859b45a86285213f971a45f665.html" target="_top" xlink:title="asn1">
<polygon fill="none" stroke="black" points="54,-36 0,-36 0,-0 54,-0 54,-36"/>
<text text-anchor="middle" x="27" y="-15.5" font-family="Helvetica,sans-Serif" font-size="10.00">asn1</text>
</a>
</g>
</g>
<!-- dir_4e84f57be2184613cc1f24df62c8fa14&#45;&gt;dir_b8658a859b45a86285213f971a45f665 -->
<g id="edge5" class="edge"><title>dir_4e84f57be2184613cc1f24df62c8fa14&#45;&gt;dir_b8658a859b45a86285213f971a45f665</title>
<path fill="none" stroke="black" d="M50.5668,-143.718C42.8555,-133.958 34.2756,-121.113 30,-108 23.5005,-88.0656 23.0455,-64.2741 24.0547,-46.3069"/>
<polygon fill="black" stroke="black" points="27.5537,-46.4499 24.8073,-36.2172 20.5731,-45.9291 27.5537,-46.4499"/>
<g id="a_edge5&#45;headlabel"><a xlink:href="dir_000233_000043.html" target="_top" xlink:title="1">
<text text-anchor="middle" x="30.1178" y="-47.7457" font-family="Helvetica,sans-Serif" font-size="10.00">1</text>
</a>
</g>
</g>
<!-- dir_cd8d7c6656dc4ad948ae78f969e6820f -->
<g id="node4" class="node"><title>dir_cd8d7c6656dc4ad948ae78f969e6820f</title>
<g id="a_node4"><a xlink:href="dir_cd8d7c6656dc4ad948ae78f969e6820f.html" target="_top" xlink:title="collections">
<polygon fill="none" stroke="black" points="135.25,-36 72.75,-36 72.75,-0 135.25,-0 135.25,-36"/>
<text text-anchor="middle" x="104" y="-15.5" font-family="Helvetica,sans-Serif" font-size="10.00">collections</text>
</a>
</g>
</g>
<!-- dir_4e84f57be2184613cc1f24df62c8fa14&#45;&gt;dir_cd8d7c6656dc4ad948ae78f969e6820f -->
<g id="edge6" class="edge"><title>dir_4e84f57be2184613cc1f24df62c8fa14&#45;&gt;dir_cd8d7c6656dc4ad948ae78f969e6820f</title>
<path fill="none" stroke="black" d="M81.492,-143.737C89.2205,-133.983 97.7981,-121.137 102,-108 108.386,-88.0357 108.567,-64.246 107.325,-46.2871"/>
<polygon fill="black" stroke="black" points="110.801,-45.858 106.438,-36.203 103.828,-46.4711 110.801,-45.858"/>
<g id="a_edge6&#45;headlabel"><a xlink:href="dir_000233_000042.html" target="_top" xlink:title="1">
<text text-anchor="middle" x="113.944" y="-46.6902" font-family="Helvetica,sans-Serif" font-size="10.00">1</text>
</a>
</g>
</g>
<!-- dir_60defd0ad67143a9a0fc00b986d15334&#45;&gt;dir_b8658a859b45a86285213f971a45f665 -->
<g id="edge1" class="edge"><title>dir_60defd0ad67143a9a0fc00b986d15334&#45;&gt;dir_b8658a859b45a86285213f971a45f665</title>
<path fill="none" stroke="black" d="M50.4438,-71.6966C45.1825,-63.7284 39.6032,-54.0995 35.0733,-45.2641"/>
<polygon fill="black" stroke="black" points="38.1451,-43.577 30.6345,-36.1043 31.8458,-46.6297 38.1451,-43.577"/>
<g id="a_edge1&#45;headlabel"><a xlink:href="dir_000036_000043.html" target="_top" xlink:title="2">
<text text-anchor="middle" x="42.2677" y="-43.0737" font-family="Helvetica,sans-Serif" font-size="10.00">2</text>
</a>
</g>
</g>
<!-- dir_60defd0ad67143a9a0fc00b986d15334&#45;&gt;dir_cd8d7c6656dc4ad948ae78f969e6820f -->
<g id="edge2" class="edge"><title>dir_60defd0ad67143a9a0fc00b986d15334&#45;&gt;dir_cd8d7c6656dc4ad948ae78f969e6820f</title>
<path fill="none" stroke="black" d="M69.4775,-71.6966C73.0558,-63.5589 78.2077,-53.689 83.5142,-44.7013"/>
<polygon fill="black" stroke="black" points="86.5464,-46.4524 88.8198,-36.1043 80.5894,-42.7761 86.5464,-46.4524"/>
<g id="a_edge2&#45;headlabel"><a xlink:href="dir_000036_000042.html" target="_top" xlink:title="7">
<text text-anchor="middle" x="87.0748" y="-48.5025" font-family="Helvetica,sans-Serif" font-size="10.00">7</text>
</a>
</g>
</g>
<!-- dir_b8658a859b45a86285213f971a45f665&#45;&gt;dir_60defd0ad67143a9a0fc00b986d15334 -->
<g id="edge3" class="edge"><title>dir_b8658a859b45a86285213f971a45f665&#45;&gt;dir_60defd0ad67143a9a0fc00b986d15334</title>
<path fill="none" stroke="black" d="M42.4246,-36.1043C47.6806,-44.0447 53.2658,-53.6661 57.8131,-62.5146"/>
<polygon fill="black" stroke="black" points="54.7564,-64.2323 62.2753,-71.6966 61.0523,-61.1726 54.7564,-64.2323"/>
<g id="a_edge3&#45;headlabel"><a xlink:href="dir_000043_000036.html" target="_top" xlink:title="7">
<text text-anchor="middle" x="50.6315" y="-59.7402" font-family="Helvetica,sans-Serif" font-size="10.00">7</text>
</a>
</g>
</g>
<!-- dir_cd8d7c6656dc4ad948ae78f969e6820f&#45;&gt;dir_60defd0ad67143a9a0fc00b986d15334 -->
<g id="edge7" class="edge"><title>dir_cd8d7c6656dc4ad948ae78f969e6820f&#45;&gt;dir_60defd0ad67143a9a0fc00b986d15334</title>
<path fill="none" stroke="black" d="M100.61,-36.1043C97.0574,-44.2136 91.9197,-54.0763 86.6158,-63.0783"/>
<polygon fill="black" stroke="black" points="83.572,-61.3463 81.309,-71.6966 89.5326,-65.0166 83.572,-61.3463"/>
<g id="a_edge7&#45;headlabel"><a xlink:href="dir_000042_000036.html" target="_top" xlink:title="4">
<text text-anchor="middle" x="83.039" y="-54.2967" font-family="Helvetica,sans-Serif" font-size="10.00">4</text>
</a>
</g>
</g>
</g>
</svg>
