<?xml version="1.0" encoding="UTF-8" standalone="no"?>
<!DOCTYPE svg PUBLIC "-//W3C//DTD SVG 1.1//EN"
 "http://www.w3.org/Graphics/SVG/1.1/DTD/svg11.dtd">
<!-- Generated by graphviz version 2.36.0 (20140111.2315)
 -->
<!-- Title: tasks Pages: 1 -->
<svg width="342pt" height="439pt"
 viewBox="0.00 0.00 342.00 439.00" xmlns="http://www.w3.org/2000/svg" xmlns:xlink="http://www.w3.org/1999/xlink">
<g id="graph0" class="graph" transform="scale(1 1) rotate(0) translate(4 435)">
<title>tasks</title>
<g id="clust1" class="cluster"><title>clusterdir_497dede802388b0f27af6c80d3a1ed61</title>
<g id="a_clust1"><a xlink:href="dir_497dede802388b0f27af6c80d3a1ed61.html" target="_top" xlink:title="ikev2">
<polygon fill="#ddddee" stroke="black" points="139,-352 139,-423 209,-423 209,-352 139,-352"/>
<text text-anchor="middle" x="174" y="-411" font-family="Helvetica,sans-Serif" font-size="10.00">ikev2</text>
</a>
</g>
</g>
<!-- dir_be432bdd9df79e13ce9b7fd1e5810a57 -->
<g id="node1" class="node"><title>dir_be432bdd9df79e13ce9b7fd1e5810a57</title>
<g id="a_node1"><a xlink:href="dir_be432bdd9df79e13ce9b7fd1e5810a57.html" target="_top" xlink:title="tasks">
<polygon fill="#eeeeff" stroke="black" points="201,-396 147,-396 147,-360 201,-360 201,-396"/>
<text text-anchor="middle" x="174" y="-375.5" font-family="Helvetica,sans-Serif" font-size="10.00">tasks</text>
</a>
</g>
</g>
<!-- dir_73119018be5f26f02e04a63bed71364a -->
<g id="node2" class="node"><title>dir_73119018be5f26f02e04a63bed71364a</title>
<g id="a_node2"><a xlink:href="dir_73119018be5f26f02e04a63bed71364a.html" target="_top" xlink:title="authenticators">
<polygon fill="none" stroke="black" points="78,-324 0,-324 0,-288 78,-288 78,-324"/>
<text text-anchor="middle" x="39" y="-303.5" font-family="Helvetica,sans-Serif" font-size="10.00">authenticators</text>
</a>
</g>
</g>
<!-- dir_be432bdd9df79e13ce9b7fd1e5810a57&#45;&gt;dir_73119018be5f26f02e04a63bed71364a -->
<g id="edge3" class="edge"><title>dir_be432bdd9df79e13ce9b7fd1e5810a57&#45;&gt;dir_73119018be5f26f02e04a63bed71364a</title>
<path fill="none" stroke="black" d="M146.681,-362.834C127.805,-353.047 102.337,-339.841 80.9085,-328.73"/>
<polygon fill="black" stroke="black" points="82.4918,-325.609 72.0031,-324.113 79.2695,-331.823 82.4918,-325.609"/>
<g id="a_edge3&#45;headlabel"><a xlink:href="dir_000077_000102.html" target="_top" xlink:title="1">
<text text-anchor="middle" x="86.9899" y="-322.243" font-family="Helvetica,sans-Serif" font-size="10.00">1</text>
</a>
</g>
</g>
<!-- dir_a9dfada9bf5d01dff4c8ef164d31466d -->
<g id="node3" class="node"><title>dir_a9dfada9bf5d01dff4c8ef164d31466d</title>
<g id="a_node3"><a xlink:href="dir_a9dfada9bf5d01dff4c8ef164d31466d.html" target="_top" xlink:title="config">
<polygon fill="none" stroke="black" points="192,-180 138,-180 138,-144 192,-144 192,-180"/>
<text text-anchor="middle" x="165" y="-159.5" font-family="Helvetica,sans-Serif" font-size="10.00">config</text>
</a>
</g>
</g>
<!-- dir_be432bdd9df79e13ce9b7fd1e5810a57&#45;&gt;dir_a9dfada9bf5d01dff4c8ef164d31466d -->
<g id="edge4" class="edge"><title>dir_be432bdd9df79e13ce9b7fd1e5810a57&#45;&gt;dir_a9dfada9bf5d01dff4c8ef164d31466d</title>
<path fill="none" stroke="black" d="M169.536,-359.953C167.065,-349.63 164.248,-336.153 163,-324 158.203,-277.281 160.564,-222.541 162.753,-190.429"/>
<polygon fill="black" stroke="black" points="166.244,-190.678 163.479,-180.451 159.263,-190.171 166.244,-190.678"/>
<g id="a_edge4&#45;headlabel"><a xlink:href="dir_000077_000056.html" target="_top" xlink:title="3">
<text text-anchor="middle" x="168.816" y="-191.969" font-family="Helvetica,sans-Serif" font-size="10.00">3</text>
</a>
</g>
</g>
<!-- dir_01cb0b2e878b9d228bff90b1955627e8 -->
<g id="node4" class="node"><title>dir_01cb0b2e878b9d228bff90b1955627e8</title>
<g id="a_node4"><a xlink:href="dir_01cb0b2e878b9d228bff90b1955627e8.html" target="_top" xlink:title="encoding">
<polygon fill="none" stroke="red" points="115.5,-252 60.5,-252 60.5,-216 115.5,-216 115.5,-252"/>
<text text-anchor="middle" x="88" y="-231.5" font-family="Helvetica,sans-Serif" font-size="10.00">encoding</text>
</a>
</g>
</g>
<!-- dir_be432bdd9df79e13ce9b7fd1e5810a57&#45;&gt;dir_01cb0b2e878b9d228bff90b1955627e8 -->
<g id="edge5" class="edge"><title>dir_be432bdd9df79e13ce9b7fd1e5810a57&#45;&gt;dir_01cb0b2e878b9d228bff90b1955627e8</title>
<path fill="none" stroke="black" d="M157.745,-359.713C148.877,-349.749 138.092,-336.711 130,-324 117.304,-304.056 106.062,-279.67 98.4112,-261.47"/>
<polygon fill="black" stroke="black" points="101.584,-259.982 94.5441,-252.063 95.1093,-262.643 101.584,-259.982"/>
<g id="a_edge5&#45;headlabel"><a xlink:href="dir_000077_000054.html" target="_top" xlink:title="30">
<text text-anchor="middle" x="105.576" y="-259.727" font-family="Helvetica,sans-Serif" font-size="10.00">30</text>
</a>
</g>
</g>
<!-- dir_0c96bf3061e49db820f4fd61efe724b9 -->
<g id="node5" class="node"><title>dir_0c96bf3061e49db820f4fd61efe724b9</title>
<g id="a_node5"><a xlink:href="dir_0c96bf3061e49db820f4fd61efe724b9.html" target="_top" xlink:title="libstrongswan">
<polygon fill="none" stroke="red" points="230.25,-36 153.75,-36 153.75,-0 230.25,-0 230.25,-36"/>
<text text-anchor="middle" x="192" y="-15.5" font-family="Helvetica,sans-Serif" font-size="10.00">libstrongswan</text>
</a>
</g>
</g>
<!-- dir_be432bdd9df79e13ce9b7fd1e5810a57&#45;&gt;dir_0c96bf3061e49db820f4fd61efe724b9 -->
<g id="edge6" class="edge"><title>dir_be432bdd9df79e13ce9b7fd1e5810a57&#45;&gt;dir_0c96bf3061e49db820f4fd61efe724b9</title>
<path fill="none" stroke="black" d="M201.142,-367.336C246.791,-349.141 334,-305.194 334,-235 334,-235 334,-235 334,-161 334,-105.62 279.329,-64.2945 237.833,-40.9038"/>
<polygon fill="black" stroke="black" points="239.392,-37.7674 228.938,-36.0461 236.037,-43.911 239.392,-37.7674"/>
<g id="a_edge6&#45;headlabel"><a xlink:href="dir_000077_000001.html" target="_top" xlink:title="35">
<text text-anchor="middle" x="243.908" y="-34.4984" font-family="Helvetica,sans-Serif" font-size="10.00">35</text>
</a>
</g>
</g>
<!-- dir_82c90c717abcdae037b83b25b0f5f01f -->
<g id="node6" class="node"><title>dir_82c90c717abcdae037b83b25b0f5f01f</title>
<g id="a_node6"><a xlink:href="dir_82c90c717abcdae037b83b25b0f5f01f.html" target="_top" xlink:title="processing">
<polygon fill="none" stroke="red" points="236,-324 172,-324 172,-288 236,-288 236,-324"/>
<text text-anchor="middle" x="204" y="-303.5" font-family="Helvetica,sans-Serif" font-size="10.00">processing</text>
</a>
</g>
</g>
<!-- dir_be432bdd9df79e13ce9b7fd1e5810a57&#45;&gt;dir_82c90c717abcdae037b83b25b0f5f01f -->
<g id="edge7" class="edge"><title>dir_be432bdd9df79e13ce9b7fd1e5810a57&#45;&gt;dir_82c90c717abcdae037b83b25b0f5f01f</title>
<path fill="none" stroke="black" d="M181.416,-359.697C184.794,-351.813 188.87,-342.304 192.623,-333.546"/>
<polygon fill="black" stroke="black" points="195.947,-334.675 196.67,-324.104 189.513,-331.917 195.947,-334.675"/>
<g id="a_edge7&#45;headlabel"><a xlink:href="dir_000077_000017.html" target="_top" xlink:title="9">
<text text-anchor="middle" x="197.141" y="-336.597" font-family="Helvetica,sans-Serif" font-size="10.00">9</text>
</a>
</g>
</g>
<!-- dir_6f63d64429d786849a1d5a9c3466ac82 -->
<g id="node7" class="node"><title>dir_6f63d64429d786849a1d5a9c3466ac82</title>
<g id="a_node7"><a xlink:href="dir_6f63d64429d786849a1d5a9c3466ac82.html" target="_top" xlink:title="libhydra">
<polygon fill="none" stroke="red" points="247,-108 193,-108 193,-72 247,-72 247,-108"/>
<text text-anchor="middle" x="220" y="-87.5" font-family="Helvetica,sans-Serif" font-size="10.00">libhydra</text>
</a>
</g>
</g>
<!-- dir_be432bdd9df79e13ce9b7fd1e5810a57&#45;&gt;dir_6f63d64429d786849a1d5a9c3466ac82 -->
<g id="edge8" class="edge"><title>dir_be432bdd9df79e13ce9b7fd1e5810a57&#45;&gt;dir_6f63d64429d786849a1d5a9c3466ac82</title>
<path fill="none" stroke="black" d="M201.07,-364.717C217.025,-355.879 235.83,-342.288 245,-324 279.161,-255.871 249.939,-162.684 231.805,-117.594"/>
<polygon fill="black" stroke="black" points="234.98,-116.114 227.913,-108.22 228.515,-118.798 234.98,-116.114"/>
<g id="a_edge8&#45;headlabel"><a xlink:href="dir_000077_000143.html" target="_top" xlink:title="4">
<text text-anchor="middle" x="238.981" y="-115.845" font-family="Helvetica,sans-Serif" font-size="10.00">4</text>
</a>
</g>
</g>
<!-- dir_73119018be5f26f02e04a63bed71364a&#45;&gt;dir_01cb0b2e878b9d228bff90b1955627e8 -->
<g id="edge1" class="edge"><title>dir_73119018be5f26f02e04a63bed71364a&#45;&gt;dir_01cb0b2e878b9d228bff90b1955627e8</title>
<path fill="none" stroke="black" d="M51.1124,-287.697C56.8681,-279.474 63.8617,-269.483 70.2055,-260.421"/>
<polygon fill="black" stroke="black" points="73.1596,-262.304 76.027,-252.104 67.425,-258.29 73.1596,-262.304"/>
<g id="a_edge1&#45;headlabel"><a xlink:href="dir_000102_000054.html" target="_top" xlink:title="4">
<text text-anchor="middle" x="73.4243" y="-264.377" font-family="Helvetica,sans-Serif" font-size="10.00">4</text>
</a>
</g>
</g>
<!-- dir_73119018be5f26f02e04a63bed71364a&#45;&gt;dir_0c96bf3061e49db820f4fd61efe724b9 -->
<g id="edge2" class="edge"><title>dir_73119018be5f26f02e04a63bed71364a&#45;&gt;dir_0c96bf3061e49db820f4fd61efe724b9</title>
<path fill="none" stroke="black" d="M39.7463,-287.946C40.8975,-269.788 43.7913,-240.37 51,-216 71.0761,-148.13 73.8389,-126.496 119,-72 128.489,-60.5496 140.982,-50.3019 152.945,-41.94"/>
<polygon fill="black" stroke="black" points="155.156,-44.6712 161.511,-36.1942 151.257,-38.8577 155.156,-44.6712"/>
<g id="a_edge2&#45;headlabel"><a xlink:href="dir_000102_000001.html" target="_top" xlink:title="3">
<text text-anchor="middle" x="153.752" y="-46.5315" font-family="Helvetica,sans-Serif" font-size="10.00">3</text>
</a>
</g>
</g>
<!-- dir_a9dfada9bf5d01dff4c8ef164d31466d&#45;&gt;dir_0c96bf3061e49db820f4fd61efe724b9 -->
<g id="edge9" class="edge"><title>dir_a9dfada9bf5d01dff4c8ef164d31466d&#45;&gt;dir_0c96bf3061e49db820f4fd61efe724b9</title>
<path fill="none" stroke="black" d="M168.257,-143.871C172.858,-119.67 181.312,-75.2108 186.791,-46.3932"/>
<polygon fill="black" stroke="black" points="190.302,-46.6671 188.732,-36.1893 183.425,-45.3594 190.302,-46.6671"/>
<g id="a_edge9&#45;headlabel"><a xlink:href="dir_000056_000001.html" target="_top" xlink:title="40">
<text text-anchor="middle" x="192.42" y="-48.2287" font-family="Helvetica,sans-Serif" font-size="10.00">40</text>
</a>
</g>
</g>
<!-- dir_a9dfada9bf5d01dff4c8ef164d31466d&#45;&gt;dir_6f63d64429d786849a1d5a9c3466ac82 -->
<g id="edge10" class="edge"><title>dir_a9dfada9bf5d01dff4c8ef164d31466d&#45;&gt;dir_6f63d64429d786849a1d5a9c3466ac82</title>
<path fill="none" stroke="black" d="M178.596,-143.697C185.123,-135.389 193.068,-125.277 200.247,-116.141"/>
<polygon fill="black" stroke="black" points="203.135,-118.13 206.561,-108.104 197.631,-113.805 203.135,-118.13"/>
<g id="a_edge10&#45;headlabel"><a xlink:href="dir_000056_000143.html" target="_top" xlink:title="1">
<text text-anchor="middle" x="203.147" y="-120.211" font-family="Helvetica,sans-Serif" font-size="10.00">1</text>
</a>
</g>
</g>
<!-- dir_01cb0b2e878b9d228bff90b1955627e8&#45;&gt;dir_a9dfada9bf5d01dff4c8ef164d31466d -->
<g id="edge11" class="edge"><title>dir_01cb0b2e878b9d228bff90b1955627e8&#45;&gt;dir_a9dfada9bf5d01dff4c8ef164d31466d</title>
<path fill="none" stroke="black" d="M107.034,-215.697C116.545,-207.05 128.207,-196.449 138.57,-187.027"/>
<polygon fill="black" stroke="black" points="141.14,-189.421 146.185,-180.104 136.431,-184.241 141.14,-189.421"/>
<g id="a_edge11&#45;headlabel"><a xlink:href="dir_000054_000056.html" target="_top" xlink:title="2">
<text text-anchor="middle" x="140.39" y="-191.44" font-family="Helvetica,sans-Serif" font-size="10.00">2</text>
</a>
</g>
</g>
<!-- dir_01cb0b2e878b9d228bff90b1955627e8&#45;&gt;dir_0c96bf3061e49db820f4fd61efe724b9 -->
<g id="edge12" class="edge"><title>dir_01cb0b2e878b9d228bff90b1955627e8&#45;&gt;dir_0c96bf3061e49db820f4fd61efe724b9</title>
<path fill="none" stroke="black" d="M88.6077,-215.977C89.7731,-197.589 93.1623,-167.74 103,-144 118.943,-105.527 148.603,-67.4285 169.282,-43.5943"/>
<polygon fill="black" stroke="black" points="171.923,-45.8911 175.918,-36.0782 166.675,-41.2582 171.923,-45.8911"/>
<g id="a_edge12&#45;headlabel"><a xlink:href="dir_000054_000001.html" target="_top" xlink:title="79">
<text text-anchor="middle" x="171.672" y="-47.9649" font-family="Helvetica,sans-Serif" font-size="10.00">79</text>
</a>
</g>
</g>
<!-- dir_01cb0b2e878b9d228bff90b1955627e8&#45;&gt;dir_6f63d64429d786849a1d5a9c3466ac82 -->
<g id="edge13" class="edge"><title>dir_01cb0b2e878b9d228bff90b1955627e8&#45;&gt;dir_6f63d64429d786849a1d5a9c3466ac82</title>
<path fill="none" stroke="black" d="M92.4933,-215.833C98.2683,-196.494 109.895,-165.027 129,-144 143.972,-127.522 165.291,-114.728 183.53,-105.842"/>
<polygon fill="black" stroke="black" points="185.152,-108.948 192.738,-101.553 182.196,-102.603 185.152,-108.948"/>
<g id="a_edge13&#45;headlabel"><a xlink:href="dir_000054_000143.html" target="_top" xlink:title="2">
<text text-anchor="middle" x="183.092" y="-110.54" font-family="Helvetica,sans-Serif" font-size="10.00">2</text>
</a>
</g>
</g>
<!-- dir_82c90c717abcdae037b83b25b0f5f01f&#45;&gt;dir_a9dfada9bf5d01dff4c8ef164d31466d -->
<g id="edge14" class="edge"><title>dir_82c90c717abcdae037b83b25b0f5f01f&#45;&gt;dir_a9dfada9bf5d01dff4c8ef164d31466d</title>
<path fill="none" stroke="black" d="M199.296,-287.871C192.62,-263.564 180.33,-218.819 172.419,-190.013"/>
<polygon fill="black" stroke="black" points="175.744,-188.905 169.721,-180.189 168.994,-190.759 175.744,-188.905"/>
<g id="a_edge14&#45;headlabel"><a xlink:href="dir_000017_000056.html" target="_top" xlink:title="4">
<text text-anchor="middle" x="179.434" y="-189.12" font-family="Helvetica,sans-Serif" font-size="10.00">4</text>
</a>
</g>
</g>
<!-- dir_82c90c717abcdae037b83b25b0f5f01f&#45;&gt;dir_01cb0b2e878b9d228bff90b1955627e8 -->
<g id="edge15" class="edge"><title>dir_82c90c717abcdae037b83b25b0f5f01f&#45;&gt;dir_01cb0b2e878b9d228bff90b1955627e8</title>
<path fill="none" stroke="black" d="M175.623,-287.876C160.23,-278.587 141.031,-267.001 124.531,-257.045"/>
<polygon fill="black" stroke="black" points="126.054,-253.876 115.684,-251.706 122.437,-259.869 126.054,-253.876"/>
<g id="a_edge15&#45;headlabel"><a xlink:href="dir_000017_000054.html" target="_top" xlink:title="2">
<text text-anchor="middle" x="130.598" y="-250.802" font-family="Helvetica,sans-Serif" font-size="10.00">2</text>
</a>
</g>
</g>
<!-- dir_82c90c717abcdae037b83b25b0f5f01f&#45;&gt;dir_0c96bf3061e49db820f4fd61efe724b9 -->
<g id="edge16" class="edge"><title>dir_82c90c717abcdae037b83b25b0f5f01f&#45;&gt;dir_0c96bf3061e49db820f4fd61efe724b9</title>
<path fill="none" stroke="black" d="M215.078,-287.796C239.177,-248.031 291.452,-147.388 256,-72 250.478,-60.2566 240.934,-50.2222 230.877,-42.1457"/>
<polygon fill="black" stroke="black" points="232.876,-39.2702 222.769,-36.0931 228.689,-44.8798 232.876,-39.2702"/>
<g id="a_edge16&#45;headlabel"><a xlink:href="dir_000017_000001.html" target="_top" xlink:title="46">
<text text-anchor="middle" x="237.455" y="-36.6452" font-family="Helvetica,sans-Serif" font-size="10.00">46</text>
</a>
</g>
</g>
<!-- dir_82c90c717abcdae037b83b25b0f5f01f&#45;&gt;dir_6f63d64429d786849a1d5a9c3466ac82 -->
<g id="edge17" class="edge"><title>dir_82c90c717abcdae037b83b25b0f5f01f&#45;&gt;dir_6f63d64429d786849a1d5a9c3466ac82</title>
<path fill="none" stroke="black" d="M205.282,-287.849C208.05,-250.832 214.603,-163.181 217.952,-118.386"/>
<polygon fill="black" stroke="black" points="221.456,-118.466 218.712,-108.232 214.476,-117.944 221.456,-118.466"/>
<g id="a_edge17&#45;headlabel"><a xlink:href="dir_000017_000143.html" target="_top" xlink:title="2">
<text text-anchor="middle" x="224.02" y="-119.762" font-family="Helvetica,sans-Serif" font-size="10.00">2</text>
</a>
</g>
</g>
<!-- dir_6f63d64429d786849a1d5a9c3466ac82&#45;&gt;dir_0c96bf3061e49db820f4fd61efe724b9 -->
<g id="edge18" class="edge"><title>dir_6f63d64429d786849a1d5a9c3466ac82&#45;&gt;dir_0c96bf3061e49db820f4fd61efe724b9</title>
<path fill="none" stroke="black" d="M213.079,-71.6966C209.925,-63.8132 206.122,-54.3042 202.619,-45.5464"/>
<polygon fill="black" stroke="black" points="205.805,-44.0892 198.842,-36.1043 199.306,-46.689 205.805,-44.0892"/>
<g id="a_edge18&#45;headlabel"><a xlink:href="dir_000143_000001.html" target="_top" xlink:title="64">
<text text-anchor="middle" x="209.777" y="-43.8723" font-family="Helvetica,sans-Serif" font-size="10.00">64</text>
</a>
</g>
</g>
</g>
</svg>
