<?xml version="1.0" encoding="UTF-8" standalone="no"?>
<!DOCTYPE svg PUBLIC "-//W3C//DTD SVG 1.1//EN"
 "http://www.w3.org/Graphics/SVG/1.1/DTD/svg11.dtd">
<!-- Generated by graphviz version 2.36.0 (20140111.2315)
 -->
<!-- Title: x509 Pages: 1 -->
<svg width="321pt" height="367pt"
 viewBox="0.00 0.00 320.52 367.00" xmlns="http://www.w3.org/2000/svg" xmlns:xlink="http://www.w3.org/1999/xlink">
<g id="graph0" class="graph" transform="scale(1 1) rotate(0) translate(4 363)">
<title>x509</title>
<g id="clust1" class="cluster"><title>clusterdir_543318d4cb4ae2b9ee218267fffbdf91</title>
<g id="a_clust1"><a xlink:href="dir_543318d4cb4ae2b9ee218267fffbdf91.html" target="_top" xlink:title="plugins">
<polygon fill="#ddddee" stroke="black" points="136.974,-280 136.974,-351 206.974,-351 206.974,-280 136.974,-280"/>
<text text-anchor="middle" x="171.974" y="-339" font-family="Helvetica,sans-Serif" font-size="10.00">plugins</text>
</a>
</g>
</g>
<!-- dir_98cb329b7453099edd9d29f54e817263 -->
<g id="node1" class="node"><title>dir_98cb329b7453099edd9d29f54e817263</title>
<g id="a_node1"><a xlink:href="dir_98cb329b7453099edd9d29f54e817263.html" target="_top" xlink:title="x509">
<polygon fill="#eeeeff" stroke="black" points="198.974,-324 144.974,-324 144.974,-288 198.974,-288 198.974,-324"/>
<text text-anchor="middle" x="171.974" y="-303.5" font-family="Helvetica,sans-Serif" font-size="10.00">x509</text>
</a>
</g>
</g>
<!-- dir_e0b0ad0fe10f0da5c5f86127486889c1 -->
<g id="node2" class="node"><title>dir_e0b0ad0fe10f0da5c5f86127486889c1</title>
<g id="a_node2"><a xlink:href="dir_e0b0ad0fe10f0da5c5f86127486889c1.html" target="_top" xlink:title="crypto">
<polygon fill="none" stroke="red" points="156.974,-252 102.974,-252 102.974,-216 156.974,-216 156.974,-252"/>
<text text-anchor="middle" x="129.974" y="-231.5" font-family="Helvetica,sans-Serif" font-size="10.00">crypto</text>
</a>
</g>
</g>
<!-- dir_98cb329b7453099edd9d29f54e817263&#45;&gt;dir_e0b0ad0fe10f0da5c5f86127486889c1 -->
<g id="edge5" class="edge"><title>dir_98cb329b7453099edd9d29f54e817263&#45;&gt;dir_e0b0ad0fe10f0da5c5f86127486889c1</title>
<path fill="none" stroke="black" d="M161.592,-287.697C156.71,-279.559 150.788,-269.689 145.395,-260.701"/>
<polygon fill="black" stroke="black" points="148.383,-258.879 140.237,-252.104 142.381,-262.48 148.383,-258.879"/>
<g id="a_edge5&#45;headlabel"><a xlink:href="dir_000309_000026.html" target="_top" xlink:title="1">
<text text-anchor="middle" x="152.667" y="-258" font-family="Helvetica,sans-Serif" font-size="10.00">1</text>
</a>
</g>
</g>
<!-- dir_5fce8e6ef3c89cee8e174676c47d0c19 -->
<g id="node3" class="node"><title>dir_5fce8e6ef3c89cee8e174676c47d0c19</title>
<g id="a_node3"><a xlink:href="dir_5fce8e6ef3c89cee8e174676c47d0c19.html" target="_top" xlink:title="selectors">
<polygon fill="none" stroke="black" points="298.474,-180 243.474,-180 243.474,-144 298.474,-144 298.474,-180"/>
<text text-anchor="middle" x="270.974" y="-159.5" font-family="Helvetica,sans-Serif" font-size="10.00">selectors</text>
</a>
</g>
</g>
<!-- dir_98cb329b7453099edd9d29f54e817263&#45;&gt;dir_5fce8e6ef3c89cee8e174676c47d0c19 -->
<g id="edge6" class="edge"><title>dir_98cb329b7453099edd9d29f54e817263&#45;&gt;dir_5fce8e6ef3c89cee8e174676c47d0c19</title>
<path fill="none" stroke="black" d="M194.2,-287.812C205.623,-278.176 219.164,-265.417 228.974,-252 243.013,-232.799 254.204,-208.161 261.493,-189.677"/>
<polygon fill="black" stroke="black" points="264.846,-190.707 265.134,-180.116 258.304,-188.216 264.846,-190.707"/>
<g id="a_edge6&#45;headlabel"><a xlink:href="dir_000309_000302.html" target="_top" xlink:title="1">
<text text-anchor="middle" x="266.22" y="-192.577" font-family="Helvetica,sans-Serif" font-size="10.00">1</text>
</a>
</g>
</g>
<!-- dir_60defd0ad67143a9a0fc00b986d15334 -->
<g id="node4" class="node"><title>dir_60defd0ad67143a9a0fc00b986d15334</title>
<g id="a_node4"><a xlink:href="dir_60defd0ad67143a9a0fc00b986d15334.html" target="_top" xlink:title="utils">
<polygon fill="none" stroke="red" points="156.974,-108 102.974,-108 102.974,-72 156.974,-72 156.974,-108"/>
<text text-anchor="middle" x="129.974" y="-87.5" font-family="Helvetica,sans-Serif" font-size="10.00">utils</text>
</a>
</g>
</g>
<!-- dir_98cb329b7453099edd9d29f54e817263&#45;&gt;dir_60defd0ad67143a9a0fc00b986d15334 -->
<g id="edge7" class="edge"><title>dir_98cb329b7453099edd9d29f54e817263&#45;&gt;dir_60defd0ad67143a9a0fc00b986d15334</title>
<path fill="none" stroke="black" d="M171.911,-287.675C171.368,-257.732 168.309,-194.642 152.974,-144 150.3,-135.168 146.577,-125.839 142.905,-117.511"/>
<polygon fill="black" stroke="black" points="146.027,-115.921 138.684,-108.284 139.661,-118.834 146.027,-115.921"/>
<g id="a_edge7&#45;headlabel"><a xlink:href="dir_000309_000036.html" target="_top" xlink:title="16">
<text text-anchor="middle" x="150.104" y="-115.509" font-family="Helvetica,sans-Serif" font-size="10.00">16</text>
</a>
</g>
</g>
<!-- dir_b8658a859b45a86285213f971a45f665 -->
<g id="node5" class="node"><title>dir_b8658a859b45a86285213f971a45f665</title>
<g id="a_node5"><a xlink:href="dir_b8658a859b45a86285213f971a45f665.html" target="_top" xlink:title="asn1">
<polygon fill="none" stroke="black" points="63.9743,-36 9.97428,-36 9.97428,-0 63.9743,-0 63.9743,-36"/>
<text text-anchor="middle" x="36.9743" y="-15.5" font-family="Helvetica,sans-Serif" font-size="10.00">asn1</text>
</a>
</g>
</g>
<!-- dir_98cb329b7453099edd9d29f54e817263&#45;&gt;dir_b8658a859b45a86285213f971a45f665 -->
<g id="edge8" class="edge"><title>dir_98cb329b7453099edd9d29f54e817263&#45;&gt;dir_b8658a859b45a86285213f971a45f665</title>
<path fill="none" stroke="black" d="M144.779,-295.385C103.84,-279.133 28.5533,-241.822 3.97428,-180 -0.471574,-168.818 -2.36275,-97.6564 4.97428,-72 7.70886,-62.4376 12.6473,-52.8636 17.8391,-44.5357"/>
<polygon fill="black" stroke="black" points="20.8601,-46.3135 23.48,-36.0476 15.0301,-42.439 20.8601,-46.3135"/>
<g id="a_edge8&#45;headlabel"><a xlink:href="dir_000309_000043.html" target="_top" xlink:title="17">
<text text-anchor="middle" x="21.2353" y="-48.3787" font-family="Helvetica,sans-Serif" font-size="10.00">17</text>
</a>
</g>
</g>
<!-- dir_ee3a696134e5e60f0b6121e45e5020bf -->
<g id="node6" class="node"><title>dir_ee3a696134e5e60f0b6121e45e5020bf</title>
<g id="a_node6"><a xlink:href="dir_ee3a696134e5e60f0b6121e45e5020bf.html" target="_top" xlink:title="credentials">
<polygon fill="none" stroke="red" points="92.9743,-180 28.9743,-180 28.9743,-144 92.9743,-144 92.9743,-180"/>
<text text-anchor="middle" x="60.9743" y="-159.5" font-family="Helvetica,sans-Serif" font-size="10.00">credentials</text>
</a>
</g>
</g>
<!-- dir_98cb329b7453099edd9d29f54e817263&#45;&gt;dir_ee3a696134e5e60f0b6121e45e5020bf -->
<g id="edge9" class="edge"><title>dir_98cb329b7453099edd9d29f54e817263&#45;&gt;dir_ee3a696134e5e60f0b6121e45e5020bf</title>
<path fill="none" stroke="black" d="M144.932,-292.129C128.24,-282.982 107.503,-269.27 93.9743,-252 79.7404,-233.83 71.2036,-208.901 66.3906,-190.048"/>
<polygon fill="black" stroke="black" points="69.7892,-189.211 64.0874,-180.281 62.9761,-190.817 69.7892,-189.211"/>
<g id="a_edge9&#45;headlabel"><a xlink:href="dir_000309_000012.html" target="_top" xlink:title="22">
<text text-anchor="middle" x="73.3776" y="-189.558" font-family="Helvetica,sans-Serif" font-size="10.00">22</text>
</a>
</g>
</g>
<!-- dir_cd8d7c6656dc4ad948ae78f969e6820f -->
<g id="node7" class="node"><title>dir_cd8d7c6656dc4ad948ae78f969e6820f</title>
<g id="a_node7"><a xlink:href="dir_cd8d7c6656dc4ad948ae78f969e6820f.html" target="_top" xlink:title="collections">
<polygon fill="none" stroke="black" points="188.224,-36 125.724,-36 125.724,-0 188.224,-0 188.224,-36"/>
<text text-anchor="middle" x="156.974" y="-15.5" font-family="Helvetica,sans-Serif" font-size="10.00">collections</text>
</a>
</g>
</g>
<!-- dir_98cb329b7453099edd9d29f54e817263&#45;&gt;dir_cd8d7c6656dc4ad948ae78f969e6820f -->
<g id="edge10" class="edge"><title>dir_98cb329b7453099edd9d29f54e817263&#45;&gt;dir_cd8d7c6656dc4ad948ae78f969e6820f</title>
<path fill="none" stroke="black" d="M199.108,-291.459C246.119,-265.986 335.12,-207.734 306.974,-144 285.513,-95.4024 234.113,-59.4601 197.473,-38.8911"/>
<polygon fill="black" stroke="black" points="198.958,-35.714 188.503,-33.9946 195.604,-41.8582 198.958,-35.714"/>
<g id="a_edge10&#45;headlabel"><a xlink:href="dir_000309_000042.html" target="_top" xlink:title="6">
<text text-anchor="middle" x="203.473" y="-32.4441" font-family="Helvetica,sans-Serif" font-size="10.00">6</text>
</a>
</g>
</g>
<!-- dir_e0b0ad0fe10f0da5c5f86127486889c1&#45;&gt;dir_60defd0ad67143a9a0fc00b986d15334 -->
<g id="edge1" class="edge"><title>dir_e0b0ad0fe10f0da5c5f86127486889c1&#45;&gt;dir_60defd0ad67143a9a0fc00b986d15334</title>
<path fill="none" stroke="black" d="M125.39,-215.871C122.831,-191.67 122.54,-147.211 124.515,-118.393"/>
<polygon fill="black" stroke="black" points="128.023,-118.45 125.383,-108.189 121.048,-117.857 128.023,-118.45"/>
<g id="a_edge1&#45;headlabel"><a xlink:href="dir_000026_000036.html" target="_top" xlink:title="12">
<text text-anchor="middle" x="130.547" y="-119.772" font-family="Helvetica,sans-Serif" font-size="10.00">12</text>
</a>
</g>
</g>
<!-- dir_e0b0ad0fe10f0da5c5f86127486889c1&#45;&gt;dir_b8658a859b45a86285213f971a45f665 -->
<g id="edge2" class="edge"><title>dir_e0b0ad0fe10f0da5c5f86127486889c1&#45;&gt;dir_b8658a859b45a86285213f971a45f665</title>
<path fill="none" stroke="black" d="M102.781,-228.347C76.4747,-222.243 38.0165,-208.72 19.9743,-180 -6.01713,-138.626 11.1301,-79.2018 24.8137,-45.3205"/>
<polygon fill="black" stroke="black" points="28.0518,-46.6493 28.7198,-36.0756 21.6037,-43.9249 28.0518,-46.6493"/>
<g id="a_edge2&#45;headlabel"><a xlink:href="dir_000026_000043.html" target="_top" xlink:title="5">
<text text-anchor="middle" x="29.2682" y="-48.5655" font-family="Helvetica,sans-Serif" font-size="10.00">5</text>
</a>
</g>
</g>
<!-- dir_e0b0ad0fe10f0da5c5f86127486889c1&#45;&gt;dir_ee3a696134e5e60f0b6121e45e5020bf -->
<g id="edge3" class="edge"><title>dir_e0b0ad0fe10f0da5c5f86127486889c1&#45;&gt;dir_ee3a696134e5e60f0b6121e45e5020bf</title>
<path fill="none" stroke="black" d="M107.002,-215.697C97.7722,-207.22 87.3769,-196.864 78.7288,-187.583"/>
<polygon fill="black" stroke="black" points="81.2525,-185.155 71.9392,-180.104 76.0698,-189.861 81.2525,-185.155"/>
<g id="a_edge3&#45;headlabel"><a xlink:href="dir_000026_000012.html" target="_top" xlink:title="2">
<text text-anchor="middle" x="85.7709" y="-183.408" font-family="Helvetica,sans-Serif" font-size="10.00">2</text>
</a>
</g>
</g>
<!-- dir_e0b0ad0fe10f0da5c5f86127486889c1&#45;&gt;dir_cd8d7c6656dc4ad948ae78f969e6820f -->
<g id="edge4" class="edge"><title>dir_e0b0ad0fe10f0da5c5f86127486889c1&#45;&gt;dir_cd8d7c6656dc4ad948ae78f969e6820f</title>
<path fill="none" stroke="black" d="M138.684,-215.716C143.503,-205.538 149.253,-192.288 152.974,-180 166.986,-133.728 170.036,-120.176 165.974,-72 165.258,-63.4991 163.905,-54.3119 162.463,-46.0122"/>
<polygon fill="black" stroke="black" points="165.888,-45.2892 160.628,-36.0925 159.005,-46.5623 165.888,-45.2892"/>
<g id="a_edge4&#45;headlabel"><a xlink:href="dir_000026_000042.html" target="_top" xlink:title="5">
<text text-anchor="middle" x="169.334" y="-45.8075" font-family="Helvetica,sans-Serif" font-size="10.00">5</text>
</a>
</g>
</g>
<!-- dir_5fce8e6ef3c89cee8e174676c47d0c19&#45;&gt;dir_60defd0ad67143a9a0fc00b986d15334 -->
<g id="edge11" class="edge"><title>dir_5fce8e6ef3c89cee8e174676c47d0c19&#45;&gt;dir_60defd0ad67143a9a0fc00b986d15334</title>
<path fill="none" stroke="black" d="M243.453,-147.337C221.52,-136.448 190.613,-121.104 166.591,-109.178"/>
<polygon fill="black" stroke="black" points="167.939,-105.94 157.426,-104.628 164.826,-112.21 167.939,-105.94"/>
<g id="a_edge11&#45;headlabel"><a xlink:href="dir_000302_000036.html" target="_top" xlink:title="4">
<text text-anchor="middle" x="172.421" y="-102.495" font-family="Helvetica,sans-Serif" font-size="10.00">4</text>
</a>
</g>
</g>
<!-- dir_5fce8e6ef3c89cee8e174676c47d0c19&#45;&gt;dir_cd8d7c6656dc4ad948ae78f969e6820f -->
<g id="edge12" class="edge"><title>dir_5fce8e6ef3c89cee8e174676c47d0c19&#45;&gt;dir_cd8d7c6656dc4ad948ae78f969e6820f</title>
<path fill="none" stroke="black" d="M257.223,-143.871C237.28,-119.031 200.203,-72.8464 177.158,-44.1415"/>
<polygon fill="black" stroke="black" points="179.764,-41.7961 170.774,-36.1893 174.305,-46.1784 179.764,-41.7961"/>
<g id="a_edge12&#45;headlabel"><a xlink:href="dir_000302_000042.html" target="_top" xlink:title="1">
<text text-anchor="middle" x="184.228" y="-40.3217" font-family="Helvetica,sans-Serif" font-size="10.00">1</text>
</a>
</g>
</g>
<!-- dir_60defd0ad67143a9a0fc00b986d15334&#45;&gt;dir_e0b0ad0fe10f0da5c5f86127486889c1 -->
<g id="edge13" class="edge"><title>dir_60defd0ad67143a9a0fc00b986d15334&#45;&gt;dir_e0b0ad0fe10f0da5c5f86127486889c1</title>
<path fill="none" stroke="black" d="M134.565,-108.189C137.12,-132.424 137.407,-176.888 135.428,-205.679"/>
<polygon fill="black" stroke="black" points="131.922,-205.61 134.559,-215.871 138.896,-206.205 131.922,-205.61"/>
<g id="a_edge13&#45;headlabel"><a xlink:href="dir_000036_000026.html" target="_top" xlink:title="1">
<text text-anchor="middle" x="129.398" y="-199.287" font-family="Helvetica,sans-Serif" font-size="10.00">1</text>
</a>
</g>
</g>
<!-- dir_60defd0ad67143a9a0fc00b986d15334&#45;&gt;dir_b8658a859b45a86285213f971a45f665 -->
<g id="edge14" class="edge"><title>dir_60defd0ad67143a9a0fc00b986d15334&#45;&gt;dir_b8658a859b45a86285213f971a45f665</title>
<path fill="none" stroke="black" d="M102.857,-72.9406C89.8673,-63.9344 74.5086,-52.5337 61.8263,-42.536"/>
<polygon fill="black" stroke="black" points="63.9225,-39.7307 53.9304,-36.208 59.5448,-45.193 63.9225,-39.7307"/>
<g id="a_edge14&#45;headlabel"><a xlink:href="dir_000036_000043.html" target="_top" xlink:title="2">
<text text-anchor="middle" x="68.5031" y="-37.2631" font-family="Helvetica,sans-Serif" font-size="10.00">2</text>
</a>
</g>
</g>
<!-- dir_60defd0ad67143a9a0fc00b986d15334&#45;&gt;dir_cd8d7c6656dc4ad948ae78f969e6820f -->
<g id="edge15" class="edge"><title>dir_60defd0ad67143a9a0fc00b986d15334&#45;&gt;dir_cd8d7c6656dc4ad948ae78f969e6820f</title>
<path fill="none" stroke="black" d="M130.733,-71.6966C132.984,-63.7284 136.484,-54.0995 140.284,-45.2641"/>
<polygon fill="black" stroke="black" points="143.498,-46.6534 144.482,-36.1043 137.134,-43.7371 143.498,-46.6534"/>
<g id="a_edge15&#45;headlabel"><a xlink:href="dir_000036_000042.html" target="_top" xlink:title="7">
<text text-anchor="middle" x="144.581" y="-48.604" font-family="Helvetica,sans-Serif" font-size="10.00">7</text>
</a>
</g>
</g>
<!-- dir_b8658a859b45a86285213f971a45f665&#45;&gt;dir_60defd0ad67143a9a0fc00b986d15334 -->
<g id="edge16" class="edge"><title>dir_b8658a859b45a86285213f971a45f665&#45;&gt;dir_60defd0ad67143a9a0fc00b986d15334</title>
<path fill="none" stroke="black" d="M64.214,-35.1446C77.1485,-44.117 92.4103,-55.4461 105.036,-65.3959"/>
<polygon fill="black" stroke="black" points="102.908,-68.1761 112.901,-71.6966 107.285,-62.7129 102.908,-68.1761"/>
<g id="a_edge16&#45;headlabel"><a xlink:href="dir_000043_000036.html" target="_top" xlink:title="7">
<text text-anchor="middle" x="98.3278" y="-65.6447" font-family="Helvetica,sans-Serif" font-size="10.00">7</text>
</a>
</g>
</g>
<!-- dir_ee3a696134e5e60f0b6121e45e5020bf&#45;&gt;dir_e0b0ad0fe10f0da5c5f86127486889c1 -->
<g id="edge17" class="edge"><title>dir_ee3a696134e5e60f0b6121e45e5020bf&#45;&gt;dir_e0b0ad0fe10f0da5c5f86127486889c1</title>
<path fill="none" stroke="black" d="M83.7293,-180.104C92.941,-188.552 103.341,-198.901 112.016,-208.199"/>
<polygon fill="black" stroke="black" points="109.517,-210.653 118.834,-215.697 114.696,-205.943 109.517,-210.653"/>
<g id="a_edge17&#45;headlabel"><a xlink:href="dir_000012_000026.html" target="_top" xlink:title="1">
<text text-anchor="middle" x="104.998" y="-207.403" font-family="Helvetica,sans-Serif" font-size="10.00">1</text>
</a>
</g>
</g>
<!-- dir_ee3a696134e5e60f0b6121e45e5020bf&#45;&gt;dir_60defd0ad67143a9a0fc00b986d15334 -->
<g id="edge18" class="edge"><title>dir_ee3a696134e5e60f0b6121e45e5020bf&#45;&gt;dir_60defd0ad67143a9a0fc00b986d15334</title>
<path fill="none" stroke="black" d="M78.0305,-143.697C86.4697,-135.135 96.7988,-124.656 106.017,-115.304"/>
<polygon fill="black" stroke="black" points="108.587,-117.683 113.114,-108.104 103.602,-112.769 108.587,-117.683"/>
<g id="a_edge18&#45;headlabel"><a xlink:href="dir_000012_000036.html" target="_top" xlink:title="14">
<text text-anchor="middle" x="108.086" y="-119.736" font-family="Helvetica,sans-Serif" font-size="10.00">14</text>
</a>
</g>
</g>
<!-- dir_ee3a696134e5e60f0b6121e45e5020bf&#45;&gt;dir_b8658a859b45a86285213f971a45f665 -->
<g id="edge19" class="edge"><title>dir_ee3a696134e5e60f0b6121e45e5020bf&#45;&gt;dir_b8658a859b45a86285213f971a45f665</title>
<path fill="none" stroke="black" d="M58.0793,-143.871C53.989,-119.67 46.4747,-75.2108 41.6041,-46.3932"/>
<polygon fill="black" stroke="black" points="44.9971,-45.4661 39.8795,-36.1893 38.095,-46.6327 44.9971,-45.4661"/>
<g id="a_edge19&#45;headlabel"><a xlink:href="dir_000012_000043.html" target="_top" xlink:title="1">
<text text-anchor="middle" x="48.3957" y="-46.0373" font-family="Helvetica,sans-Serif" font-size="10.00">1</text>
</a>
</g>
</g>
<!-- dir_ee3a696134e5e60f0b6121e45e5020bf&#45;&gt;dir_cd8d7c6656dc4ad948ae78f969e6820f -->
<g id="edge20" class="edge"><title>dir_ee3a696134e5e60f0b6121e45e5020bf&#45;&gt;dir_cd8d7c6656dc4ad948ae78f969e6820f</title>
<path fill="none" stroke="black" d="M64.5872,-143.687C69.1401,-124.781 78.3255,-94.2365 93.9743,-72 101.763,-60.9321 112.409,-50.801 122.733,-42.4277"/>
<polygon fill="black" stroke="black" points="125.127,-45.0002 130.883,-36.1051 120.836,-39.4694 125.127,-45.0002"/>
<g id="a_edge20&#45;headlabel"><a xlink:href="dir_000012_000042.html" target="_top" xlink:title="14">
<text text-anchor="middle" x="124.027" y="-46.9469" font-family="Helvetica,sans-Serif" font-size="10.00">14</text>
</a>
</g>
</g>
<!-- dir_cd8d7c6656dc4ad948ae78f969e6820f&#45;&gt;dir_60defd0ad67143a9a0fc00b986d15334 -->
<g id="edge21" class="edge"><title>dir_cd8d7c6656dc4ad948ae78f969e6820f&#45;&gt;dir_60defd0ad67143a9a0fc00b986d15334</title>
<path fill="none" stroke="black" d="M156.272,-36.1043C154.041,-44.0447 150.555,-53.6661 146.759,-62.5146"/>
<polygon fill="black" stroke="black" points="143.536,-61.1465 142.564,-71.6966 149.903,-64.0555 143.536,-61.1465"/>
<g id="a_edge21&#45;headlabel"><a xlink:href="dir_000042_000036.html" target="_top" xlink:title="4">
<text text-anchor="middle" x="142.448" y="-54.1971" font-family="Helvetica,sans-Serif" font-size="10.00">4</text>
</a>
</g>
</g>
</g>
</svg>
