<?xml version="1.0" encoding="UTF-8" standalone="no"?>
<!DOCTYPE svg PUBLIC "-//W3C//DTD SVG 1.1//EN"
 "http://www.w3.org/Graphics/SVG/1.1/DTD/svg11.dtd">
<!-- Generated by graphviz version 2.36.0 (20140111.2315)
 -->
<!-- Title: libtnccs Pages: 1 -->
<svg width="213pt" height="303pt"
 viewBox="0.00 0.00 213.00 303.00" xmlns="http://www.w3.org/2000/svg" xmlns:xlink="http://www.w3.org/1999/xlink">
<g id="graph0" class="graph" transform="scale(1 1) rotate(0) translate(4 299)">
<title>libtnccs</title>
<g id="clust1" class="cluster"><title>clusterdir_68267d1309a1af8e8297ef4c3efbcdba</title>
<g id="a_clust1"><a xlink:href="dir_68267d1309a1af8e8297ef4c3efbcdba.html" target="_top" xlink:title="src">
<polygon fill="#ddddee" stroke="black" points="39,-128 39,-287 197,-287 197,-128 39,-128"/>
<text text-anchor="middle" x="118" y="-275" font-family="Helvetica,sans-Serif" font-size="10.00">src</text>
</a>
</g>
</g>
<g id="clust2" class="cluster"><title>clusterdir_9e788dd9eeadb8af92ff6058b213658e</title>
<g id="a_clust2"><a xlink:href="dir_9e788dd9eeadb8af92ff6058b213658e.html" target="_top">
<polygon fill="#eeeeff" stroke="black" points="47,-136 47,-260 189,-260 189,-136 47,-136"/>
</a>
</g>
</g>
<!-- dir_9e788dd9eeadb8af92ff6058b213658e -->
<g id="node1" class="node"><title>dir_9e788dd9eeadb8af92ff6058b213658e</title>
<text text-anchor="middle" x="154" y="-231.5" font-family="Helvetica,sans-Serif" font-size="10.00">libtnccs</text>
</g>
<!-- dir_2a299d2b0754ac8eaab5da4f8152df6c -->
<g id="node2" class="node"><title>dir_2a299d2b0754ac8eaab5da4f8152df6c</title>
<g id="a_node2"><a xlink:href="dir_2a299d2b0754ac8eaab5da4f8152df6c.html" target="_top" xlink:title="plugins">
<polygon fill="white" stroke="red" points="109,-252 55,-252 55,-216 109,-216 109,-252"/>
<text text-anchor="middle" x="82" y="-231.5" font-family="Helvetica,sans-Serif" font-size="10.00">plugins</text>
</a>
</g>
</g>
<!-- dir_08c7d3b18fc2dc63e59d50f862a6d805 -->
<g id="node3" class="node"><title>dir_08c7d3b18fc2dc63e59d50f862a6d805</title>
<g id="a_node3"><a xlink:href="dir_08c7d3b18fc2dc63e59d50f862a6d805.html" target="_top" xlink:title="tnc">
<polygon fill="white" stroke="red" points="109,-180 55,-180 55,-144 109,-144 109,-180"/>
<text text-anchor="middle" x="82" y="-159.5" font-family="Helvetica,sans-Serif" font-size="10.00">tnc</text>
</a>
</g>
</g>
<!-- dir_2a299d2b0754ac8eaab5da4f8152df6c&#45;&gt;dir_08c7d3b18fc2dc63e59d50f862a6d805 -->
<g id="edge5" class="edge"><title>dir_2a299d2b0754ac8eaab5da4f8152df6c&#45;&gt;dir_08c7d3b18fc2dc63e59d50f862a6d805</title>
<path fill="none" stroke="black" d="M82,-215.697C82,-207.983 82,-198.712 82,-190.112"/>
<polygon fill="black" stroke="black" points="85.5001,-190.104 82,-180.104 78.5001,-190.104 85.5001,-190.104"/>
<g id="a_edge5&#45;headlabel"><a xlink:href="dir_000154_000149.html" target="_top" xlink:title="47">
<text text-anchor="middle" x="88.3393" y="-191.199" font-family="Helvetica,sans-Serif" font-size="10.00">47</text>
</a>
</g>
</g>
<!-- dir_0c96bf3061e49db820f4fd61efe724b9 -->
<g id="node4" class="node"><title>dir_0c96bf3061e49db820f4fd61efe724b9</title>
<g id="a_node4"><a xlink:href="dir_0c96bf3061e49db820f4fd61efe724b9.html" target="_top" xlink:title="libstrongswan">
<polygon fill="none" stroke="red" points="147.25,-36 70.75,-36 70.75,-0 147.25,-0 147.25,-36"/>
<text text-anchor="middle" x="109" y="-15.5" font-family="Helvetica,sans-Serif" font-size="10.00">libstrongswan</text>
</a>
</g>
</g>
<!-- dir_2a299d2b0754ac8eaab5da4f8152df6c&#45;&gt;dir_0c96bf3061e49db820f4fd61efe724b9 -->
<g id="edge2" class="edge"><title>dir_2a299d2b0754ac8eaab5da4f8152df6c&#45;&gt;dir_0c96bf3061e49db820f4fd61efe724b9</title>
<path fill="none" stroke="black" d="M104.694,-215.925C116.339,-206.321 130.114,-193.556 140,-180 160.741,-151.558 165.494,-142.391 173,-108 176.412,-92.368 179.809,-86.479 173,-72 167.478,-60.2566 157.934,-50.2222 147.877,-42.1457"/>
<polygon fill="black" stroke="black" points="149.876,-39.2702 139.769,-36.0931 145.689,-44.8798 149.876,-39.2702"/>
<g id="a_edge2&#45;headlabel"><a xlink:href="dir_000154_000001.html" target="_top" xlink:title="108">
<text text-anchor="middle" x="154.455" y="-36.6452" font-family="Helvetica,sans-Serif" font-size="10.00">108</text>
</a>
</g>
</g>
<!-- dir_3ab2caec36bc41377bca8a7e4f84eae9 -->
<g id="node5" class="node"><title>dir_3ab2caec36bc41377bca8a7e4f84eae9</title>
<g id="a_node5"><a xlink:href="dir_3ab2caec36bc41377bca8a7e4f84eae9.html" target="_top" xlink:title="libtncif">
<polygon fill="none" stroke="black" points="54,-108 0,-108 0,-72 54,-72 54,-108"/>
<text text-anchor="middle" x="27" y="-87.5" font-family="Helvetica,sans-Serif" font-size="10.00">libtncif</text>
</a>
</g>
</g>
<!-- dir_2a299d2b0754ac8eaab5da4f8152df6c&#45;&gt;dir_3ab2caec36bc41377bca8a7e4f84eae9 -->
<g id="edge3" class="edge"><title>dir_2a299d2b0754ac8eaab5da4f8152df6c&#45;&gt;dir_3ab2caec36bc41377bca8a7e4f84eae9</title>
<path fill="none" stroke="black" d="M67.8353,-215.851C60.3098,-205.93 51.5029,-192.89 46,-180 37.5868,-160.293 32.7553,-136.488 30.0717,-118.458"/>
<polygon fill="black" stroke="black" points="33.5097,-117.764 28.6972,-108.326 26.5733,-118.705 33.5097,-117.764"/>
<g id="a_edge3&#45;headlabel"><a xlink:href="dir_000154_000301.html" target="_top" xlink:title="20">
<text text-anchor="middle" x="36.8063" y="-118.445" font-family="Helvetica,sans-Serif" font-size="10.00">20</text>
</a>
</g>
</g>
<!-- dir_e222e764d3cfb05ba74b1a6a5205e9a6 -->
<g id="node6" class="node"><title>dir_e222e764d3cfb05ba74b1a6a5205e9a6</title>
<g id="a_node6"><a xlink:href="dir_e222e764d3cfb05ba74b1a6a5205e9a6.html" target="_top" xlink:title="libtls">
<polygon fill="none" stroke="red" points="164,-108 110,-108 110,-72 164,-72 164,-108"/>
<text text-anchor="middle" x="137" y="-87.5" font-family="Helvetica,sans-Serif" font-size="10.00">libtls</text>
</a>
</g>
</g>
<!-- dir_2a299d2b0754ac8eaab5da4f8152df6c&#45;&gt;dir_e222e764d3cfb05ba74b1a6a5205e9a6 -->
<g id="edge4" class="edge"><title>dir_2a299d2b0754ac8eaab5da4f8152df6c&#45;&gt;dir_e222e764d3cfb05ba74b1a6a5205e9a6</title>
<path fill="none" stroke="black" d="M96.1647,-215.851C103.69,-205.93 112.497,-192.89 118,-180 126.413,-160.293 131.245,-136.488 133.928,-118.458"/>
<polygon fill="black" stroke="black" points="137.427,-118.705 135.303,-108.326 130.49,-117.764 137.427,-118.705"/>
<g id="a_edge4&#45;headlabel"><a xlink:href="dir_000154_000289.html" target="_top" xlink:title="1">
<text text-anchor="middle" x="139.757" y="-120.149" font-family="Helvetica,sans-Serif" font-size="10.00">1</text>
</a>
</g>
</g>
<!-- dir_08c7d3b18fc2dc63e59d50f862a6d805&#45;&gt;dir_0c96bf3061e49db820f4fd61efe724b9 -->
<g id="edge7" class="edge"><title>dir_08c7d3b18fc2dc63e59d50f862a6d805&#45;&gt;dir_0c96bf3061e49db820f4fd61efe724b9</title>
<path fill="none" stroke="black" d="M85.2568,-143.871C89.8585,-119.67 98.312,-75.2108 103.791,-46.3932"/>
<polygon fill="black" stroke="black" points="107.302,-46.6671 105.732,-36.1893 100.425,-45.3594 107.302,-46.6671"/>
<g id="a_edge7&#45;headlabel"><a xlink:href="dir_000149_000001.html" target="_top" xlink:title="12">
<text text-anchor="middle" x="109.42" y="-48.2287" font-family="Helvetica,sans-Serif" font-size="10.00">12</text>
</a>
</g>
</g>
<!-- dir_08c7d3b18fc2dc63e59d50f862a6d805&#45;&gt;dir_3ab2caec36bc41377bca8a7e4f84eae9 -->
<g id="edge8" class="edge"><title>dir_08c7d3b18fc2dc63e59d50f862a6d805&#45;&gt;dir_3ab2caec36bc41377bca8a7e4f84eae9</title>
<path fill="none" stroke="black" d="M68.4045,-143.697C61.8773,-135.389 53.932,-125.277 46.7534,-116.141"/>
<polygon fill="black" stroke="black" points="49.3695,-113.805 40.4391,-108.104 43.8653,-118.13 49.3695,-113.805"/>
<g id="a_edge8&#45;headlabel"><a xlink:href="dir_000149_000301.html" target="_top" xlink:title="6">
<text text-anchor="middle" x="53.8229" y="-112.377" font-family="Helvetica,sans-Serif" font-size="10.00">6</text>
</a>
</g>
</g>
<!-- dir_08c7d3b18fc2dc63e59d50f862a6d805&#45;&gt;dir_e222e764d3cfb05ba74b1a6a5205e9a6 -->
<g id="edge9" class="edge"><title>dir_08c7d3b18fc2dc63e59d50f862a6d805&#45;&gt;dir_e222e764d3cfb05ba74b1a6a5205e9a6</title>
<path fill="none" stroke="black" d="M95.5955,-143.697C102.123,-135.389 110.068,-125.277 117.247,-116.141"/>
<polygon fill="black" stroke="black" points="120.135,-118.13 123.561,-108.104 114.631,-113.805 120.135,-118.13"/>
<g id="a_edge9&#45;headlabel"><a xlink:href="dir_000149_000289.html" target="_top" xlink:title="1">
<text text-anchor="middle" x="120.147" y="-120.211" font-family="Helvetica,sans-Serif" font-size="10.00">1</text>
</a>
</g>
</g>
<!-- dir_3ab2caec36bc41377bca8a7e4f84eae9&#45;&gt;dir_0c96bf3061e49db820f4fd61efe724b9 -->
<g id="edge1" class="edge"><title>dir_3ab2caec36bc41377bca8a7e4f84eae9&#45;&gt;dir_0c96bf3061e49db820f4fd61efe724b9</title>
<path fill="none" stroke="black" d="M47.2697,-71.6966C57.4976,-62.9655 70.0611,-52.2405 81.1782,-42.7503"/>
<polygon fill="black" stroke="black" points="83.6303,-45.259 88.9635,-36.1043 79.0854,-39.935 83.6303,-45.259"/>
<g id="a_edge1&#45;headlabel"><a xlink:href="dir_000301_000001.html" target="_top" xlink:title="11">
<text text-anchor="middle" x="82.7398" y="-47.2522" font-family="Helvetica,sans-Serif" font-size="10.00">11</text>
</a>
</g>
</g>
<!-- dir_e222e764d3cfb05ba74b1a6a5205e9a6&#45;&gt;dir_0c96bf3061e49db820f4fd61efe724b9 -->
<g id="edge6" class="edge"><title>dir_e222e764d3cfb05ba74b1a6a5205e9a6&#45;&gt;dir_0c96bf3061e49db820f4fd61efe724b9</title>
<path fill="none" stroke="black" d="M130.079,-71.6966C126.925,-63.8132 123.122,-54.3042 119.619,-45.5464"/>
<polygon fill="black" stroke="black" points="122.805,-44.0892 115.842,-36.1043 116.306,-46.689 122.805,-44.0892"/>
<g id="a_edge6&#45;headlabel"><a xlink:href="dir_000289_000001.html" target="_top" xlink:title="44">
<text text-anchor="middle" x="126.777" y="-43.8723" font-family="Helvetica,sans-Serif" font-size="10.00">44</text>
</a>
</g>
</g>
</g>
</svg>
