<?xml version="1.0" encoding="UTF-8" standalone="no"?>
<!DOCTYPE svg PUBLIC "-//W3C//DTD SVG 1.1//EN"
 "http://www.w3.org/Graphics/SVG/1.1/DTD/svg11.dtd">
<!-- Generated by graphviz version 2.36.0 (20140111.2315)
 -->
<!-- Title: jobs Pages: 1 -->
<svg width="209pt" height="439pt"
 viewBox="0.00 0.00 208.83 439.00" xmlns="http://www.w3.org/2000/svg" xmlns:xlink="http://www.w3.org/1999/xlink">
<g id="graph0" class="graph" transform="scale(1 1) rotate(0) translate(4 435)">
<title>jobs</title>
<g id="clust1" class="cluster"><title>clusterdir_82c90c717abcdae037b83b25b0f5f01f</title>
<g id="a_clust1"><a xlink:href="dir_82c90c717abcdae037b83b25b0f5f01f.html" target="_top" xlink:title="processing">
<polygon fill="#ddddee" stroke="black" points="57,-352 57,-423 127,-423 127,-352 57,-352"/>
<text text-anchor="middle" x="92" y="-411" font-family="Helvetica,sans-Serif" font-size="10.00">processing</text>
</a>
</g>
</g>
<!-- dir_b37e4211a39693c4513998326a7f18c4 -->
<g id="node1" class="node"><title>dir_b37e4211a39693c4513998326a7f18c4</title>
<g id="a_node1"><a xlink:href="dir_b37e4211a39693c4513998326a7f18c4.html" target="_top" xlink:title="jobs">
<polygon fill="#eeeeff" stroke="black" points="119,-396 65,-396 65,-360 119,-360 119,-396"/>
<text text-anchor="middle" x="92" y="-375.5" font-family="Helvetica,sans-Serif" font-size="10.00">jobs</text>
</a>
</g>
</g>
<!-- dir_a9dfada9bf5d01dff4c8ef164d31466d -->
<g id="node2" class="node"><title>dir_a9dfada9bf5d01dff4c8ef164d31466d</title>
<g id="a_node2"><a xlink:href="dir_a9dfada9bf5d01dff4c8ef164d31466d.html" target="_top" xlink:title="config">
<polygon fill="none" stroke="black" points="120,-180 66,-180 66,-144 120,-144 120,-180"/>
<text text-anchor="middle" x="93" y="-159.5" font-family="Helvetica,sans-Serif" font-size="10.00">config</text>
</a>
</g>
</g>
<!-- dir_b37e4211a39693c4513998326a7f18c4&#45;&gt;dir_a9dfada9bf5d01dff4c8ef164d31466d -->
<g id="edge12" class="edge"><title>dir_b37e4211a39693c4513998326a7f18c4&#45;&gt;dir_a9dfada9bf5d01dff4c8ef164d31466d</title>
<path fill="none" stroke="black" d="M82.5578,-359.836C67.4788,-330.135 41.1939,-267.401 57,-216 60.0089,-206.215 65.507,-196.616 71.3157,-188.334"/>
<polygon fill="black" stroke="black" points="74.1948,-190.328 77.3901,-180.226 68.5928,-186.131 74.1948,-190.328"/>
<g id="a_edge12&#45;headlabel"><a xlink:href="dir_000018_000056.html" target="_top" xlink:title="4">
<text text-anchor="middle" x="74.3117" y="-192.407" font-family="Helvetica,sans-Serif" font-size="10.00">4</text>
</a>
</g>
</g>
<!-- dir_01cb0b2e878b9d228bff90b1955627e8 -->
<g id="node3" class="node"><title>dir_01cb0b2e878b9d228bff90b1955627e8</title>
<g id="a_node3"><a xlink:href="dir_01cb0b2e878b9d228bff90b1955627e8.html" target="_top" xlink:title="encoding">
<polygon fill="none" stroke="red" points="175.5,-324 120.5,-324 120.5,-288 175.5,-288 175.5,-324"/>
<text text-anchor="middle" x="148" y="-303.5" font-family="Helvetica,sans-Serif" font-size="10.00">encoding</text>
</a>
</g>
</g>
<!-- dir_b37e4211a39693c4513998326a7f18c4&#45;&gt;dir_01cb0b2e878b9d228bff90b1955627e8 -->
<g id="edge13" class="edge"><title>dir_b37e4211a39693c4513998326a7f18c4&#45;&gt;dir_01cb0b2e878b9d228bff90b1955627e8</title>
<path fill="none" stroke="black" d="M105.843,-359.697C112.489,-351.389 120.578,-341.277 127.887,-332.141"/>
<polygon fill="black" stroke="black" points="130.803,-334.099 134.317,-324.104 125.336,-329.727 130.803,-334.099"/>
<g id="a_edge13&#45;headlabel"><a xlink:href="dir_000018_000054.html" target="_top" xlink:title="2">
<text text-anchor="middle" x="130.774" y="-336.18" font-family="Helvetica,sans-Serif" font-size="10.00">2</text>
</a>
</g>
</g>
<!-- dir_0c96bf3061e49db820f4fd61efe724b9 -->
<g id="node4" class="node"><title>dir_0c96bf3061e49db820f4fd61efe724b9</title>
<g id="a_node4"><a xlink:href="dir_0c96bf3061e49db820f4fd61efe724b9.html" target="_top" xlink:title="libstrongswan">
<polygon fill="none" stroke="red" points="131.25,-36 54.75,-36 54.75,-0 131.25,-0 131.25,-36"/>
<text text-anchor="middle" x="93" y="-15.5" font-family="Helvetica,sans-Serif" font-size="10.00">libstrongswan</text>
</a>
</g>
</g>
<!-- dir_b37e4211a39693c4513998326a7f18c4&#45;&gt;dir_0c96bf3061e49db820f4fd61efe724b9 -->
<g id="edge14" class="edge"><title>dir_b37e4211a39693c4513998326a7f18c4&#45;&gt;dir_0c96bf3061e49db820f4fd61efe724b9</title>
<path fill="none" stroke="black" d="M71.1238,-359.632C43.9799,-334.972 0,-286.993 0,-235 0,-235 0,-235 0,-161 0,-113.322 37.1451,-69.1915 64.4847,-43.1679"/>
<polygon fill="black" stroke="black" points="66.9267,-45.6769 71.8969,-36.3201 62.1766,-40.5352 66.9267,-45.6769"/>
<g id="a_edge14&#45;headlabel"><a xlink:href="dir_000018_000001.html" target="_top" xlink:title="46">
<text text-anchor="middle" x="66.2131" y="-47.7016" font-family="Helvetica,sans-Serif" font-size="10.00">46</text>
</a>
</g>
</g>
<!-- dir_969456d8bdfa9adca7af79bd87eb5a35 -->
<g id="node5" class="node"><title>dir_969456d8bdfa9adca7af79bd87eb5a35</title>
<g id="a_node5"><a xlink:href="dir_969456d8bdfa9adca7af79bd87eb5a35.html" target="_top" xlink:title="sa">
<polygon fill="none" stroke="red" points="120,-252 66,-252 66,-216 120,-216 120,-252"/>
<text text-anchor="middle" x="93" y="-231.5" font-family="Helvetica,sans-Serif" font-size="10.00">sa</text>
</a>
</g>
</g>
<!-- dir_b37e4211a39693c4513998326a7f18c4&#45;&gt;dir_969456d8bdfa9adca7af79bd87eb5a35 -->
<g id="edge15" class="edge"><title>dir_b37e4211a39693c4513998326a7f18c4&#45;&gt;dir_969456d8bdfa9adca7af79bd87eb5a35</title>
<path fill="none" stroke="black" d="M92.1206,-359.871C92.2911,-335.67 92.6041,-291.211 92.8071,-262.393"/>
<polygon fill="black" stroke="black" points="96.3083,-262.214 92.8789,-252.189 89.3085,-262.164 96.3083,-262.214"/>
<g id="a_edge15&#45;headlabel"><a xlink:href="dir_000018_000032.html" target="_top" xlink:title="21">
<text text-anchor="middle" x="99.1223" y="-263.328" font-family="Helvetica,sans-Serif" font-size="10.00">21</text>
</a>
</g>
</g>
<!-- dir_6f63d64429d786849a1d5a9c3466ac82 -->
<g id="node6" class="node"><title>dir_6f63d64429d786849a1d5a9c3466ac82</title>
<g id="a_node6"><a xlink:href="dir_6f63d64429d786849a1d5a9c3466ac82.html" target="_top" xlink:title="libhydra">
<polygon fill="none" stroke="red" points="175,-108 121,-108 121,-72 175,-72 175,-108"/>
<text text-anchor="middle" x="148" y="-87.5" font-family="Helvetica,sans-Serif" font-size="10.00">libhydra</text>
</a>
</g>
</g>
<!-- dir_b37e4211a39693c4513998326a7f18c4&#45;&gt;dir_6f63d64429d786849a1d5a9c3466ac82 -->
<g id="edge16" class="edge"><title>dir_b37e4211a39693c4513998326a7f18c4&#45;&gt;dir_6f63d64429d786849a1d5a9c3466ac82</title>
<path fill="none" stroke="black" d="M119.141,-369.577C140.956,-362.02 170.164,-347.939 184,-324 222.546,-257.309 184.965,-162.756 162.352,-117.345"/>
<polygon fill="black" stroke="black" points="165.328,-115.476 157.653,-108.173 159.098,-118.668 165.328,-115.476"/>
<g id="a_edge16&#45;headlabel"><a xlink:href="dir_000018_000143.html" target="_top" xlink:title="2">
<text text-anchor="middle" x="169.494" y="-114.88" font-family="Helvetica,sans-Serif" font-size="10.00">2</text>
</a>
</g>
</g>
<!-- dir_a9dfada9bf5d01dff4c8ef164d31466d&#45;&gt;dir_0c96bf3061e49db820f4fd61efe724b9 -->
<g id="edge1" class="edge"><title>dir_a9dfada9bf5d01dff4c8ef164d31466d&#45;&gt;dir_0c96bf3061e49db820f4fd61efe724b9</title>
<path fill="none" stroke="black" d="M93,-143.871C93,-119.67 93,-75.2108 93,-46.3932"/>
<polygon fill="black" stroke="black" points="96.5001,-46.1892 93,-36.1893 89.5001,-46.1893 96.5001,-46.1892"/>
<g id="a_edge1&#45;headlabel"><a xlink:href="dir_000056_000001.html" target="_top" xlink:title="40">
<text text-anchor="middle" x="99.3393" y="-47.2839" font-family="Helvetica,sans-Serif" font-size="10.00">40</text>
</a>
</g>
</g>
<!-- dir_a9dfada9bf5d01dff4c8ef164d31466d&#45;&gt;dir_6f63d64429d786849a1d5a9c3466ac82 -->
<g id="edge2" class="edge"><title>dir_a9dfada9bf5d01dff4c8ef164d31466d&#45;&gt;dir_6f63d64429d786849a1d5a9c3466ac82</title>
<path fill="none" stroke="black" d="M106.596,-143.697C113.123,-135.389 121.068,-125.277 128.247,-116.141"/>
<polygon fill="black" stroke="black" points="131.135,-118.13 134.561,-108.104 125.631,-113.805 131.135,-118.13"/>
<g id="a_edge2&#45;headlabel"><a xlink:href="dir_000056_000143.html" target="_top" xlink:title="1">
<text text-anchor="middle" x="131.147" y="-120.211" font-family="Helvetica,sans-Serif" font-size="10.00">1</text>
</a>
</g>
</g>
<!-- dir_01cb0b2e878b9d228bff90b1955627e8&#45;&gt;dir_a9dfada9bf5d01dff4c8ef164d31466d -->
<g id="edge3" class="edge"><title>dir_01cb0b2e878b9d228bff90b1955627e8&#45;&gt;dir_a9dfada9bf5d01dff4c8ef164d31466d</title>
<path fill="none" stroke="black" d="M146.303,-287.674C144.05,-269.29 139.112,-239.685 129,-216 124.916,-206.433 119.012,-196.784 113.162,-188.388"/>
<polygon fill="black" stroke="black" points="115.88,-186.174 107.165,-180.149 110.22,-190.294 115.88,-186.174"/>
<g id="a_edge3&#45;headlabel"><a xlink:href="dir_000054_000056.html" target="_top" xlink:title="2">
<text text-anchor="middle" x="120.291" y="-184.909" font-family="Helvetica,sans-Serif" font-size="10.00">2</text>
</a>
</g>
</g>
<!-- dir_01cb0b2e878b9d228bff90b1955627e8&#45;&gt;dir_0c96bf3061e49db820f4fd61efe724b9 -->
<g id="edge4" class="edge"><title>dir_01cb0b2e878b9d228bff90b1955627e8&#45;&gt;dir_0c96bf3061e49db820f4fd61efe724b9</title>
<path fill="none" stroke="black" d="M157.63,-287.84C178.969,-247.311 225.205,-143.682 184,-72 174.467,-55.4162 157.527,-43.5352 140.826,-35.283"/>
<polygon fill="black" stroke="black" points="142.17,-32.0489 131.621,-31.0649 139.254,-38.4126 142.17,-32.0489"/>
<g id="a_edge4&#45;headlabel"><a xlink:href="dir_000054_000001.html" target="_top" xlink:title="79">
<text text-anchor="middle" x="146.62" y="-28.4651" font-family="Helvetica,sans-Serif" font-size="10.00">79</text>
</a>
</g>
</g>
<!-- dir_01cb0b2e878b9d228bff90b1955627e8&#45;&gt;dir_969456d8bdfa9adca7af79bd87eb5a35 -->
<g id="edge5" class="edge"><title>dir_01cb0b2e878b9d228bff90b1955627e8&#45;&gt;dir_969456d8bdfa9adca7af79bd87eb5a35</title>
<path fill="none" stroke="black" d="M128.489,-287.697C121.18,-279.474 113.129,-269.483 106.453,-260.421"/>
<polygon fill="black" stroke="black" points="109.189,-258.229 100.544,-252.104 103.483,-262.283 109.189,-258.229"/>
<g id="a_edge5&#45;headlabel"><a xlink:href="dir_000054_000032.html" target="_top" xlink:title="6">
<text text-anchor="middle" x="113.586" y="-257.014" font-family="Helvetica,sans-Serif" font-size="10.00">6</text>
</a>
</g>
</g>
<!-- dir_01cb0b2e878b9d228bff90b1955627e8&#45;&gt;dir_6f63d64429d786849a1d5a9c3466ac82 -->
<g id="edge6" class="edge"><title>dir_01cb0b2e878b9d228bff90b1955627e8&#45;&gt;dir_6f63d64429d786849a1d5a9c3466ac82</title>
<path fill="none" stroke="black" d="M148.406,-287.815C148.631,-277.444 148.887,-263.963 149,-252 149.453,-204.002 149.453,-191.998 149,-144 148.922,-135.682 148.774,-126.63 148.616,-118.4"/>
<polygon fill="black" stroke="black" points="152.11,-118.111 148.406,-108.185 145.112,-118.254 152.11,-118.111"/>
<g id="a_edge6&#45;headlabel"><a xlink:href="dir_000054_000143.html" target="_top" xlink:title="2">
<text text-anchor="middle" x="155.023" y="-119.147" font-family="Helvetica,sans-Serif" font-size="10.00">2</text>
</a>
</g>
</g>
<!-- dir_969456d8bdfa9adca7af79bd87eb5a35&#45;&gt;dir_a9dfada9bf5d01dff4c8ef164d31466d -->
<g id="edge7" class="edge"><title>dir_969456d8bdfa9adca7af79bd87eb5a35&#45;&gt;dir_a9dfada9bf5d01dff4c8ef164d31466d</title>
<path fill="none" stroke="black" d="M93,-215.697C93,-207.983 93,-198.712 93,-190.112"/>
<polygon fill="black" stroke="black" points="96.5001,-190.104 93,-180.104 89.5001,-190.104 96.5001,-190.104"/>
<g id="a_edge7&#45;headlabel"><a xlink:href="dir_000032_000056.html" target="_top" xlink:title="13">
<text text-anchor="middle" x="99.3393" y="-191.199" font-family="Helvetica,sans-Serif" font-size="10.00">13</text>
</a>
</g>
</g>
<!-- dir_969456d8bdfa9adca7af79bd87eb5a35&#45;&gt;dir_01cb0b2e878b9d228bff90b1955627e8 -->
<g id="edge8" class="edge"><title>dir_969456d8bdfa9adca7af79bd87eb5a35&#45;&gt;dir_01cb0b2e878b9d228bff90b1955627e8</title>
<path fill="none" stroke="black" d="M112.334,-252.104C119.631,-260.298 127.687,-270.282 134.385,-279.359"/>
<polygon fill="black" stroke="black" points="131.669,-281.58 140.32,-287.697 137.372,-277.52 131.669,-281.58"/>
<g id="a_edge8&#45;headlabel"><a xlink:href="dir_000032_000054.html" target="_top" xlink:title="82">
<text text-anchor="middle" x="127.271" y="-277.799" font-family="Helvetica,sans-Serif" font-size="10.00">82</text>
</a>
</g>
</g>
<!-- dir_969456d8bdfa9adca7af79bd87eb5a35&#45;&gt;dir_0c96bf3061e49db820f4fd61efe724b9 -->
<g id="edge9" class="edge"><title>dir_969456d8bdfa9adca7af79bd87eb5a35&#45;&gt;dir_0c96bf3061e49db820f4fd61efe724b9</title>
<path fill="none" stroke="black" d="M77.3901,-215.774C69.6271,-206.03 61.0541,-193.184 57,-180 42.657,-133.357 63.3507,-77.4874 78.7982,-45.3315"/>
<polygon fill="black" stroke="black" points="82.0465,-46.6606 83.3792,-36.1499 75.7828,-43.5354 82.0465,-46.6606"/>
<g id="a_edge9&#45;headlabel"><a xlink:href="dir_000032_000001.html" target="_top" xlink:title="131">
<text text-anchor="middle" x="82.9823" y="-48.6446" font-family="Helvetica,sans-Serif" font-size="10.00">131</text>
</a>
</g>
</g>
<!-- dir_969456d8bdfa9adca7af79bd87eb5a35&#45;&gt;dir_6f63d64429d786849a1d5a9c3466ac82 -->
<g id="edge10" class="edge"><title>dir_969456d8bdfa9adca7af79bd87eb5a35&#45;&gt;dir_6f63d64429d786849a1d5a9c3466ac82</title>
<path fill="none" stroke="black" d="M107.165,-215.851C114.69,-205.93 123.497,-192.89 129,-180 137.413,-160.293 142.245,-136.488 144.928,-118.458"/>
<polygon fill="black" stroke="black" points="148.427,-118.705 146.303,-108.326 141.49,-117.764 148.427,-118.705"/>
<g id="a_edge10&#45;headlabel"><a xlink:href="dir_000032_000143.html" target="_top" xlink:title="10">
<text text-anchor="middle" x="150.757" y="-120.149" font-family="Helvetica,sans-Serif" font-size="10.00">10</text>
</a>
</g>
</g>
<!-- dir_6f63d64429d786849a1d5a9c3466ac82&#45;&gt;dir_0c96bf3061e49db820f4fd61efe724b9 -->
<g id="edge11" class="edge"><title>dir_6f63d64429d786849a1d5a9c3466ac82&#45;&gt;dir_0c96bf3061e49db820f4fd61efe724b9</title>
<path fill="none" stroke="black" d="M134.404,-71.6966C127.877,-63.3893 119.932,-53.2771 112.753,-44.1407"/>
<polygon fill="black" stroke="black" points="115.369,-41.8051 106.439,-36.1043 109.865,-46.1299 115.369,-41.8051"/>
<g id="a_edge11&#45;headlabel"><a xlink:href="dir_000143_000001.html" target="_top" xlink:title="64">
<text text-anchor="middle" x="119.823" y="-40.3775" font-family="Helvetica,sans-Serif" font-size="10.00">64</text>
</a>
</g>
</g>
</g>
</svg>
