<?xml version="1.0" encoding="UTF-8" standalone="no"?>
<!DOCTYPE svg PUBLIC "-//W3C//DTD SVG 1.1//EN"
 "http://www.w3.org/Graphics/SVG/1.1/DTD/svg11.dtd">
<!-- Generated by graphviz version 2.36.0 (20140111.2315)
 -->
<!-- Title: systime_fix Pages: 1 -->
<svg width="120pt" height="223pt"
 viewBox="0.00 0.00 120.00 223.00" xmlns="http://www.w3.org/2000/svg" xmlns:xlink="http://www.w3.org/1999/xlink">
<g id="graph0" class="graph" transform="scale(1 1) rotate(0) translate(4 219)">
<title>systime_fix</title>
<g id="clust1" class="cluster"><title>clusterdir_e95fbb61b3ca66c999b17ff93fb55178</title>
<g id="a_clust1"><a xlink:href="dir_e95fbb61b3ca66c999b17ff93fb55178.html" target="_top" xlink:title="plugins">
<polygon fill="#ddddee" stroke="black" points="8,-136 8,-207 92,-207 92,-136 8,-136"/>
<text text-anchor="middle" x="50" y="-195" font-family="Helvetica,sans-Serif" font-size="10.00">plugins</text>
</a>
</g>
</g>
<!-- dir_38742e50ff191a536bb187ee0de29c04 -->
<g id="node1" class="node"><title>dir_38742e50ff191a536bb187ee0de29c04</title>
<g id="a_node1"><a xlink:href="dir_38742e50ff191a536bb187ee0de29c04.html" target="_top" xlink:title="systime_fix">
<polygon fill="#eeeeff" stroke="black" points="83.25,-180 16.75,-180 16.75,-144 83.25,-144 83.25,-180"/>
<text text-anchor="middle" x="50" y="-159.5" font-family="Helvetica,sans-Serif" font-size="10.00">systime_fix</text>
</a>
</g>
</g>
<!-- dir_0c96bf3061e49db820f4fd61efe724b9 -->
<g id="node2" class="node"><title>dir_0c96bf3061e49db820f4fd61efe724b9</title>
<g id="a_node2"><a xlink:href="dir_0c96bf3061e49db820f4fd61efe724b9.html" target="_top" xlink:title="libstrongswan">
<polygon fill="none" stroke="red" points="88.25,-36 11.75,-36 11.75,-0 88.25,-0 88.25,-36"/>
<text text-anchor="middle" x="50" y="-15.5" font-family="Helvetica,sans-Serif" font-size="10.00">libstrongswan</text>
</a>
</g>
</g>
<!-- dir_38742e50ff191a536bb187ee0de29c04&#45;&gt;dir_0c96bf3061e49db820f4fd61efe724b9 -->
<g id="edge1" class="edge"><title>dir_38742e50ff191a536bb187ee0de29c04&#45;&gt;dir_0c96bf3061e49db820f4fd61efe724b9</title>
<path fill="none" stroke="black" d="M45.5358,-143.953C43.065,-133.63 40.2478,-120.153 39,-108 37.3657,-92.0837 37.3657,-87.9163 39,-72 39.8774,-63.455 41.5306,-54.2552 43.2938,-45.9576"/>
<polygon fill="black" stroke="black" points="46.743,-46.5728 45.5358,-36.0469 39.9155,-45.0282 46.743,-46.5728"/>
<g id="a_edge1&#45;headlabel"><a xlink:href="dir_000273_000001.html" target="_top" xlink:title="5">
<text text-anchor="middle" x="48.7192" y="-48.2052" font-family="Helvetica,sans-Serif" font-size="10.00">5</text>
</a>
</g>
</g>
<!-- dir_82c90c717abcdae037b83b25b0f5f01f -->
<g id="node3" class="node"><title>dir_82c90c717abcdae037b83b25b0f5f01f</title>
<g id="a_node3"><a xlink:href="dir_82c90c717abcdae037b83b25b0f5f01f.html" target="_top" xlink:title="processing">
<polygon fill="none" stroke="red" points="112,-108 48,-108 48,-72 112,-72 112,-108"/>
<text text-anchor="middle" x="80" y="-87.5" font-family="Helvetica,sans-Serif" font-size="10.00">processing</text>
</a>
</g>
</g>
<!-- dir_38742e50ff191a536bb187ee0de29c04&#45;&gt;dir_82c90c717abcdae037b83b25b0f5f01f -->
<g id="edge2" class="edge"><title>dir_38742e50ff191a536bb187ee0de29c04&#45;&gt;dir_82c90c717abcdae037b83b25b0f5f01f</title>
<path fill="none" stroke="black" d="M57.4157,-143.697C60.7944,-135.813 64.8696,-126.304 68.623,-117.546"/>
<polygon fill="black" stroke="black" points="71.9473,-118.675 72.6696,-108.104 65.5133,-115.917 71.9473,-118.675"/>
<g id="a_edge2&#45;headlabel"><a xlink:href="dir_000273_000017.html" target="_top" xlink:title="2">
<text text-anchor="middle" x="73.1411" y="-120.597" font-family="Helvetica,sans-Serif" font-size="10.00">2</text>
</a>
</g>
</g>
<!-- dir_82c90c717abcdae037b83b25b0f5f01f&#45;&gt;dir_0c96bf3061e49db820f4fd61efe724b9 -->
<g id="edge3" class="edge"><title>dir_82c90c717abcdae037b83b25b0f5f01f&#45;&gt;dir_0c96bf3061e49db820f4fd61efe724b9</title>
<path fill="none" stroke="black" d="M72.5843,-71.6966C69.2056,-63.8132 65.1304,-54.3042 61.377,-45.5464"/>
<polygon fill="black" stroke="black" points="64.4867,-43.9171 57.3304,-36.1043 58.0527,-46.6745 64.4867,-43.9171"/>
<g id="a_edge3&#45;headlabel"><a xlink:href="dir_000017_000001.html" target="_top" xlink:title="46">
<text text-anchor="middle" x="68.5123" y="-43.6026" font-family="Helvetica,sans-Serif" font-size="10.00">46</text>
</a>
</g>
</g>
</g>
</svg>
