<?xml version="1.0" encoding="UTF-8" standalone="no"?>
<!DOCTYPE svg PUBLIC "-//W3C//DTD SVG 1.1//EN"
 "http://www.w3.org/Graphics/SVG/1.1/DTD/svg11.dtd">
<!-- Generated by graphviz version 2.36.0 (20140111.2315)
 -->
<!-- Title: eap_simaka_sql Pages: 1 -->
<svg width="128pt" height="223pt"
 viewBox="0.00 0.00 128.00 223.00" xmlns="http://www.w3.org/2000/svg" xmlns:xlink="http://www.w3.org/1999/xlink">
<g id="graph0" class="graph" transform="scale(1 1) rotate(0) translate(4 219)">
<title>eap_simaka_sql</title>
<g id="clust1" class="cluster"><title>clusterdir_e95fbb61b3ca66c999b17ff93fb55178</title>
<g id="a_clust1"><a xlink:href="dir_e95fbb61b3ca66c999b17ff93fb55178.html" target="_top" xlink:title="plugins">
<polygon fill="#ddddee" stroke="black" points="8,-136 8,-207 112,-207 112,-136 8,-136"/>
<text text-anchor="middle" x="60" y="-195" font-family="Helvetica,sans-Serif" font-size="10.00">plugins</text>
</a>
</g>
</g>
<!-- dir_424549d755d118a17aa53e08070a6bbc -->
<g id="node1" class="node"><title>dir_424549d755d118a17aa53e08070a6bbc</title>
<g id="a_node1"><a xlink:href="dir_424549d755d118a17aa53e08070a6bbc.html" target="_top" xlink:title="eap_simaka_sql">
<polygon fill="#eeeeff" stroke="black" points="103.25,-180 16.75,-180 16.75,-144 103.25,-144 103.25,-180"/>
<text text-anchor="middle" x="60" y="-159.5" font-family="Helvetica,sans-Serif" font-size="10.00">eap_simaka_sql</text>
</a>
</g>
</g>
<!-- dir_7253414b8bf8342e47dda48dbb90c3a8 -->
<g id="node2" class="node"><title>dir_7253414b8bf8342e47dda48dbb90c3a8</title>
<g id="a_node2"><a xlink:href="dir_7253414b8bf8342e47dda48dbb90c3a8.html" target="_top" xlink:title="libsimaka">
<polygon fill="none" stroke="black" points="60.5,-108 3.5,-108 3.5,-72 60.5,-72 60.5,-108"/>
<text text-anchor="middle" x="32" y="-87.5" font-family="Helvetica,sans-Serif" font-size="10.00">libsimaka</text>
</a>
</g>
</g>
<!-- dir_424549d755d118a17aa53e08070a6bbc&#45;&gt;dir_7253414b8bf8342e47dda48dbb90c3a8 -->
<g id="edge2" class="edge"><title>dir_424549d755d118a17aa53e08070a6bbc&#45;&gt;dir_7253414b8bf8342e47dda48dbb90c3a8</title>
<path fill="none" stroke="black" d="M53.0786,-143.697C49.9253,-135.813 46.1217,-126.304 42.6186,-117.546"/>
<polygon fill="black" stroke="black" points="45.8054,-116.089 38.8417,-108.104 39.306,-118.689 45.8054,-116.089"/>
<g id="a_edge2&#45;headlabel"><a xlink:href="dir_000116_000259.html" target="_top" xlink:title="2">
<text text-anchor="middle" x="49.7765" y="-115.872" font-family="Helvetica,sans-Serif" font-size="10.00">2</text>
</a>
</g>
</g>
<!-- dir_0c96bf3061e49db820f4fd61efe724b9 -->
<g id="node3" class="node"><title>dir_0c96bf3061e49db820f4fd61efe724b9</title>
<g id="a_node3"><a xlink:href="dir_0c96bf3061e49db820f4fd61efe724b9.html" target="_top" xlink:title="libstrongswan">
<polygon fill="none" stroke="red" points="98.25,-36 21.75,-36 21.75,-0 98.25,-0 98.25,-36"/>
<text text-anchor="middle" x="60" y="-15.5" font-family="Helvetica,sans-Serif" font-size="10.00">libstrongswan</text>
</a>
</g>
</g>
<!-- dir_424549d755d118a17aa53e08070a6bbc&#45;&gt;dir_0c96bf3061e49db820f4fd61efe724b9 -->
<g id="edge3" class="edge"><title>dir_424549d755d118a17aa53e08070a6bbc&#45;&gt;dir_0c96bf3061e49db820f4fd61efe724b9</title>
<path fill="none" stroke="black" d="M63.6538,-143.908C65.6758,-133.569 67.9808,-120.09 69,-108 70.3441,-92.0566 70.3441,-87.9434 69,-72 68.2834,-63.4991 66.9311,-54.3119 65.4884,-46.0122"/>
<polygon fill="black" stroke="black" points="68.9142,-45.2892 63.6538,-36.0925 62.0309,-46.5623 68.9142,-45.2892"/>
<g id="a_edge3&#45;headlabel"><a xlink:href="dir_000116_000001.html" target="_top" xlink:title="5">
<text text-anchor="middle" x="72.3597" y="-45.8075" font-family="Helvetica,sans-Serif" font-size="10.00">5</text>
</a>
</g>
</g>
<!-- dir_7253414b8bf8342e47dda48dbb90c3a8&#45;&gt;dir_0c96bf3061e49db820f4fd61efe724b9 -->
<g id="edge1" class="edge"><title>dir_7253414b8bf8342e47dda48dbb90c3a8&#45;&gt;dir_0c96bf3061e49db820f4fd61efe724b9</title>
<path fill="none" stroke="black" d="M38.9214,-71.6966C42.0747,-63.8132 45.8783,-54.3042 49.3814,-45.5464"/>
<polygon fill="black" stroke="black" points="52.694,-46.689 53.1583,-36.1043 46.1946,-44.0892 52.694,-46.689"/>
<g id="a_edge1&#45;headlabel"><a xlink:href="dir_000259_000001.html" target="_top" xlink:title="15">
<text text-anchor="middle" x="53.9952" y="-48.581" font-family="Helvetica,sans-Serif" font-size="10.00">15</text>
</a>
</g>
</g>
</g>
</svg>
