<?xml version="1.0" encoding="UTF-8" standalone="no"?>
<!DOCTYPE svg PUBLIC "-//W3C//DTD SVG 1.1//EN"
 "http://www.w3.org/Graphics/SVG/1.1/DTD/svg11.dtd">
<!-- Generated by graphviz version 2.36.0 (20140111.2315)
 -->
<!-- Title: pkcs12 Pages: 1 -->
<svg width="143pt" height="295pt"
 viewBox="0.00 0.00 143.00 295.00" xmlns="http://www.w3.org/2000/svg" xmlns:xlink="http://www.w3.org/1999/xlink">
<g id="graph0" class="graph" transform="scale(1 1) rotate(0) translate(4 291)">
<title>pkcs12</title>
<g id="clust1" class="cluster"><title>clusterdir_543318d4cb4ae2b9ee218267fffbdf91</title>
<g id="a_clust1"><a xlink:href="dir_543318d4cb4ae2b9ee218267fffbdf91.html" target="_top" xlink:title="plugins">
<polygon fill="#ddddee" stroke="black" points="8,-208 8,-279 78,-279 78,-208 8,-208"/>
<text text-anchor="middle" x="43" y="-267" font-family="Helvetica,sans-Serif" font-size="10.00">plugins</text>
</a>
</g>
</g>
<!-- dir_d071977ee71a52bae73093877054ae2a -->
<g id="node1" class="node"><title>dir_d071977ee71a52bae73093877054ae2a</title>
<g id="a_node1"><a xlink:href="dir_d071977ee71a52bae73093877054ae2a.html" target="_top" xlink:title="pkcs12">
<polygon fill="#eeeeff" stroke="black" points="70,-252 16,-252 16,-216 70,-216 70,-252"/>
<text text-anchor="middle" x="43" y="-231.5" font-family="Helvetica,sans-Serif" font-size="10.00">pkcs12</text>
</a>
</g>
</g>
<!-- dir_60defd0ad67143a9a0fc00b986d15334 -->
<g id="node2" class="node"><title>dir_60defd0ad67143a9a0fc00b986d15334</title>
<g id="a_node2"><a xlink:href="dir_60defd0ad67143a9a0fc00b986d15334.html" target="_top" xlink:title="utils">
<polygon fill="none" stroke="red" points="81,-108 27,-108 27,-72 81,-72 81,-108"/>
<text text-anchor="middle" x="54" y="-87.5" font-family="Helvetica,sans-Serif" font-size="10.00">utils</text>
</a>
</g>
</g>
<!-- dir_d071977ee71a52bae73093877054ae2a&#45;&gt;dir_60defd0ad67143a9a0fc00b986d15334 -->
<g id="edge1" class="edge"><title>dir_d071977ee71a52bae73093877054ae2a&#45;&gt;dir_60defd0ad67143a9a0fc00b986d15334</title>
<path fill="none" stroke="black" d="M44.3269,-215.871C46.2016,-191.67 49.6456,-147.211 51.878,-118.393"/>
<polygon fill="black" stroke="black" points="55.3856,-118.43 52.6684,-108.189 48.4065,-117.889 55.3856,-118.43"/>
<g id="a_edge1&#45;headlabel"><a xlink:href="dir_000227_000036.html" target="_top" xlink:title="1">
<text text-anchor="middle" x="57.9388" y="-119.733" font-family="Helvetica,sans-Serif" font-size="10.00">1</text>
</a>
</g>
</g>
<!-- dir_b8658a859b45a86285213f971a45f665 -->
<g id="node3" class="node"><title>dir_b8658a859b45a86285213f971a45f665</title>
<g id="a_node3"><a xlink:href="dir_b8658a859b45a86285213f971a45f665.html" target="_top" xlink:title="asn1">
<polygon fill="none" stroke="black" points="81,-36 27,-36 27,-0 81,-0 81,-36"/>
<text text-anchor="middle" x="54" y="-15.5" font-family="Helvetica,sans-Serif" font-size="10.00">asn1</text>
</a>
</g>
</g>
<!-- dir_d071977ee71a52bae73093877054ae2a&#45;&gt;dir_b8658a859b45a86285213f971a45f665 -->
<g id="edge2" class="edge"><title>dir_d071977ee71a52bae73093877054ae2a&#45;&gt;dir_b8658a859b45a86285213f971a45f665</title>
<path fill="none" stroke="black" d="M35.3368,-215.715C23.179,-185.831 2.36957,-122.829 18,-72 21.0089,-62.2153 26.507,-52.6161 32.3157,-44.3336"/>
<polygon fill="black" stroke="black" points="35.1948,-46.3279 38.3901,-36.2264 29.5928,-42.1306 35.1948,-46.3279"/>
<g id="a_edge2&#45;headlabel"><a xlink:href="dir_000227_000043.html" target="_top" xlink:title="3">
<text text-anchor="middle" x="35.3117" y="-48.4071" font-family="Helvetica,sans-Serif" font-size="10.00">3</text>
</a>
</g>
</g>
<!-- dir_ee3a696134e5e60f0b6121e45e5020bf -->
<g id="node4" class="node"><title>dir_ee3a696134e5e60f0b6121e45e5020bf</title>
<g id="a_node4"><a xlink:href="dir_ee3a696134e5e60f0b6121e45e5020bf.html" target="_top" xlink:title="credentials">
<polygon fill="none" stroke="red" points="135,-180 71,-180 71,-144 135,-144 135,-180"/>
<text text-anchor="middle" x="103" y="-159.5" font-family="Helvetica,sans-Serif" font-size="10.00">credentials</text>
</a>
</g>
</g>
<!-- dir_d071977ee71a52bae73093877054ae2a&#45;&gt;dir_ee3a696134e5e60f0b6121e45e5020bf -->
<g id="edge3" class="edge"><title>dir_d071977ee71a52bae73093877054ae2a&#45;&gt;dir_ee3a696134e5e60f0b6121e45e5020bf</title>
<path fill="none" stroke="black" d="M57.8315,-215.697C65.0247,-207.305 73.7967,-197.07 81.6903,-187.861"/>
<polygon fill="black" stroke="black" points="84.4886,-189.975 88.3391,-180.104 79.1738,-185.419 84.4886,-189.975"/>
<g id="a_edge3&#45;headlabel"><a xlink:href="dir_000227_000012.html" target="_top" xlink:title="3">
<text text-anchor="middle" x="84.305" y="-192.052" font-family="Helvetica,sans-Serif" font-size="10.00">3</text>
</a>
</g>
</g>
<!-- dir_60defd0ad67143a9a0fc00b986d15334&#45;&gt;dir_b8658a859b45a86285213f971a45f665 -->
<g id="edge4" class="edge"><title>dir_60defd0ad67143a9a0fc00b986d15334&#45;&gt;dir_b8658a859b45a86285213f971a45f665</title>
<path fill="none" stroke="black" d="M48.0843,-71.6966C47.2886,-63.9827 47.0621,-54.7125 47.4047,-46.1124"/>
<polygon fill="black" stroke="black" points="50.8984,-46.3243 48.105,-36.1043 43.9154,-45.8356 50.8984,-46.3243"/>
<g id="a_edge4&#45;headlabel"><a xlink:href="dir_000036_000043.html" target="_top" xlink:title="2">
<text text-anchor="middle" x="53.4799" y="-47.6083" font-family="Helvetica,sans-Serif" font-size="10.00">2</text>
</a>
</g>
</g>
<!-- dir_b8658a859b45a86285213f971a45f665&#45;&gt;dir_60defd0ad67143a9a0fc00b986d15334 -->
<g id="edge5" class="edge"><title>dir_b8658a859b45a86285213f971a45f665&#45;&gt;dir_60defd0ad67143a9a0fc00b986d15334</title>
<path fill="none" stroke="black" d="M59.895,-36.1043C60.7005,-43.7913 60.9369,-53.0537 60.604,-61.6651"/>
<polygon fill="black" stroke="black" points="57.1085,-61.4805 59.9157,-71.6966 64.0921,-61.9597 57.1085,-61.4805"/>
<g id="a_edge5&#45;headlabel"><a xlink:href="dir_000043_000036.html" target="_top" xlink:title="7">
<text text-anchor="middle" x="54.5219" y="-55.2" font-family="Helvetica,sans-Serif" font-size="10.00">7</text>
</a>
</g>
</g>
<!-- dir_ee3a696134e5e60f0b6121e45e5020bf&#45;&gt;dir_60defd0ad67143a9a0fc00b986d15334 -->
<g id="edge6" class="edge"><title>dir_ee3a696134e5e60f0b6121e45e5020bf&#45;&gt;dir_60defd0ad67143a9a0fc00b986d15334</title>
<path fill="none" stroke="black" d="M90.8876,-143.697C85.1319,-135.474 78.1383,-125.483 71.7945,-116.421"/>
<polygon fill="black" stroke="black" points="74.575,-114.29 65.973,-108.104 68.8404,-118.304 74.575,-114.29"/>
<g id="a_edge6&#45;headlabel"><a xlink:href="dir_000012_000036.html" target="_top" xlink:title="14">
<text text-anchor="middle" x="78.9624" y="-113.106" font-family="Helvetica,sans-Serif" font-size="10.00">14</text>
</a>
</g>
</g>
<!-- dir_ee3a696134e5e60f0b6121e45e5020bf&#45;&gt;dir_b8658a859b45a86285213f971a45f665 -->
<g id="edge7" class="edge"><title>dir_ee3a696134e5e60f0b6121e45e5020bf&#45;&gt;dir_b8658a859b45a86285213f971a45f665</title>
<path fill="none" stroke="black" d="M102.752,-143.689C101.972,-125.318 99.2244,-95.7227 90,-72 86.2302,-62.3051 80.4107,-52.6209 74.5421,-44.2332"/>
<polygon fill="black" stroke="black" points="77.2396,-41.9936 68.4924,-36.0155 71.6024,-46.1437 77.2396,-41.9936"/>
<g id="a_edge7&#45;headlabel"><a xlink:href="dir_000012_000043.html" target="_top" xlink:title="1">
<text text-anchor="middle" x="81.6571" y="-40.7051" font-family="Helvetica,sans-Serif" font-size="10.00">1</text>
</a>
</g>
</g>
</g>
</svg>
