<?xml version="1.0" encoding="UTF-8" standalone="no"?>
<!DOCTYPE svg PUBLIC "-//W3C//DTD SVG 1.1//EN"
 "http://www.w3.org/Graphics/SVG/1.1/DTD/svg11.dtd">
<!-- Generated by graphviz version 2.36.0 (20140111.2315)
 -->
<!-- Title: kernel_pfkey Pages: 1 -->
<svg width="142pt" height="295pt"
 viewBox="0.00 0.00 142.00 295.00" xmlns="http://www.w3.org/2000/svg" xmlns:xlink="http://www.w3.org/1999/xlink">
<g id="graph0" class="graph" transform="scale(1 1) rotate(0) translate(4 291)">
<title>kernel_pfkey</title>
<g id="clust1" class="cluster"><title>clusterdir_7c70a566b2094371eadbb944cfcc5aa1</title>
<g id="a_clust1"><a xlink:href="dir_7c70a566b2094371eadbb944cfcc5aa1.html" target="_top" xlink:title="plugins">
<polygon fill="#ddddee" stroke="black" points="38,-208 38,-279 126,-279 126,-208 38,-208"/>
<text text-anchor="middle" x="82" y="-267" font-family="Helvetica,sans-Serif" font-size="10.00">plugins</text>
</a>
</g>
</g>
<!-- dir_e1a2b844bcff130390ec4530ee66f56b -->
<g id="node1" class="node"><title>dir_e1a2b844bcff130390ec4530ee66f56b</title>
<g id="a_node1"><a xlink:href="dir_e1a2b844bcff130390ec4530ee66f56b.html" target="_top" xlink:title="kernel_pfkey">
<polygon fill="#eeeeff" stroke="black" points="118,-252 46,-252 46,-216 118,-216 118,-252"/>
<text text-anchor="middle" x="82" y="-231.5" font-family="Helvetica,sans-Serif" font-size="10.00">kernel_pfkey</text>
</a>
</g>
</g>
<!-- dir_58344c3472a5037d508f44048dc0e27f -->
<g id="node2" class="node"><title>dir_58344c3472a5037d508f44048dc0e27f</title>
<g id="a_node2"><a xlink:href="dir_58344c3472a5037d508f44048dc0e27f.html" target="_top" xlink:title="kernel">
<polygon fill="none" stroke="black" points="54,-180 0,-180 0,-144 54,-144 54,-180"/>
<text text-anchor="middle" x="27" y="-159.5" font-family="Helvetica,sans-Serif" font-size="10.00">kernel</text>
</a>
</g>
</g>
<!-- dir_e1a2b844bcff130390ec4530ee66f56b&#45;&gt;dir_58344c3472a5037d508f44048dc0e27f -->
<g id="edge3" class="edge"><title>dir_e1a2b844bcff130390ec4530ee66f56b&#45;&gt;dir_58344c3472a5037d508f44048dc0e27f</title>
<path fill="none" stroke="black" d="M68.4045,-215.697C61.8773,-207.389 53.932,-197.277 46.7534,-188.141"/>
<polygon fill="black" stroke="black" points="49.3695,-185.805 40.4391,-180.104 43.8653,-190.13 49.3695,-185.805"/>
<g id="a_edge3&#45;headlabel"><a xlink:href="dir_000185_000180.html" target="_top" xlink:title="1">
<text text-anchor="middle" x="53.8229" y="-184.377" font-family="Helvetica,sans-Serif" font-size="10.00">1</text>
</a>
</g>
</g>
<!-- dir_0c96bf3061e49db820f4fd61efe724b9 -->
<g id="node3" class="node"><title>dir_0c96bf3061e49db820f4fd61efe724b9</title>
<g id="a_node3"><a xlink:href="dir_0c96bf3061e49db820f4fd61efe724b9.html" target="_top" xlink:title="libstrongswan">
<polygon fill="none" stroke="red" points="91.25,-108 14.75,-108 14.75,-72 91.25,-72 91.25,-108"/>
<text text-anchor="middle" x="53" y="-87.5" font-family="Helvetica,sans-Serif" font-size="10.00">libstrongswan</text>
</a>
</g>
</g>
<!-- dir_e1a2b844bcff130390ec4530ee66f56b&#45;&gt;dir_0c96bf3061e49db820f4fd61efe724b9 -->
<g id="edge4" class="edge"><title>dir_e1a2b844bcff130390ec4530ee66f56b&#45;&gt;dir_0c96bf3061e49db820f4fd61efe724b9</title>
<path fill="none" stroke="black" d="M78.5019,-215.871C73.5376,-191.564 64.3996,-146.819 58.5168,-118.013"/>
<polygon fill="black" stroke="black" points="61.9407,-117.287 56.5105,-108.189 55.0823,-118.687 61.9407,-117.287"/>
<g id="a_edge4&#45;headlabel"><a xlink:href="dir_000185_000001.html" target="_top" xlink:title="7">
<text text-anchor="middle" x="65.4418" y="-117.74" font-family="Helvetica,sans-Serif" font-size="10.00">7</text>
</a>
</g>
</g>
<!-- dir_b0856f6b0d80ccb263b2f415c91f9e17 -->
<g id="node4" class="node"><title>dir_b0856f6b0d80ccb263b2f415c91f9e17</title>
<g id="a_node4"><a xlink:href="dir_b0856f6b0d80ccb263b2f415c91f9e17.html" target="_top" xlink:title="include">
<polygon fill="none" stroke="red" points="113,-36 59,-36 59,-0 113,-0 113,-36"/>
<text text-anchor="middle" x="86" y="-15.5" font-family="Helvetica,sans-Serif" font-size="10.00">include</text>
</a>
</g>
</g>
<!-- dir_e1a2b844bcff130390ec4530ee66f56b&#45;&gt;dir_b0856f6b0d80ccb263b2f415c91f9e17 -->
<g id="edge5" class="edge"><title>dir_e1a2b844bcff130390ec4530ee66f56b&#45;&gt;dir_b0856f6b0d80ccb263b2f415c91f9e17</title>
<path fill="none" stroke="black" d="M86.694,-215.584C94.0463,-186.023 106.772,-124.157 100,-72 98.8971,-63.506 96.8393,-54.4338 94.6344,-46.2397"/>
<polygon fill="black" stroke="black" points="97.945,-45.0872 91.8235,-36.4397 91.2163,-47.0172 97.945,-45.0872"/>
<g id="a_edge5&#45;headlabel"><a xlink:href="dir_000185_000146.html" target="_top" xlink:title="2">
<text text-anchor="middle" x="101.665" y="-45.2597" font-family="Helvetica,sans-Serif" font-size="10.00">2</text>
</a>
</g>
</g>
<!-- dir_58344c3472a5037d508f44048dc0e27f&#45;&gt;dir_0c96bf3061e49db820f4fd61efe724b9 -->
<g id="edge1" class="edge"><title>dir_58344c3472a5037d508f44048dc0e27f&#45;&gt;dir_0c96bf3061e49db820f4fd61efe724b9</title>
<path fill="none" stroke="black" d="M33.427,-143.697C36.3551,-135.813 39.887,-126.304 43.1399,-117.546"/>
<polygon fill="black" stroke="black" points="46.446,-118.697 46.647,-108.104 39.884,-116.26 46.446,-118.697"/>
<g id="a_edge1&#45;headlabel"><a xlink:href="dir_000180_000001.html" target="_top" xlink:title="17">
<text text-anchor="middle" x="47.8561" y="-120.556" font-family="Helvetica,sans-Serif" font-size="10.00">17</text>
</a>
</g>
</g>
<!-- dir_0c96bf3061e49db820f4fd61efe724b9&#45;&gt;dir_b0856f6b0d80ccb263b2f415c91f9e17 -->
<g id="edge2" class="edge"><title>dir_0c96bf3061e49db820f4fd61efe724b9&#45;&gt;dir_b0856f6b0d80ccb263b2f415c91f9e17</title>
<path fill="none" stroke="black" d="M61.1573,-71.6966C64.9138,-63.7284 69.4531,-54.0995 73.6183,-45.2641"/>
<polygon fill="black" stroke="black" points="76.8381,-46.6421 77.9365,-36.1043 70.5064,-43.6571 76.8381,-46.6421"/>
<g id="a_edge2&#45;headlabel"><a xlink:href="dir_000001_000146.html" target="_top" xlink:title="2">
<text text-anchor="middle" x="77.8736" y="-48.6042" font-family="Helvetica,sans-Serif" font-size="10.00">2</text>
</a>
</g>
</g>
</g>
</svg>
