<?xml version="1.0" encoding="UTF-8" standalone="no"?>
<!DOCTYPE svg PUBLIC "-//W3C//DTD SVG 1.1//EN"
 "http://www.w3.org/Graphics/SVG/1.1/DTD/svg11.dtd">
<!-- Generated by graphviz version 2.36.0 (20140111.2315)
 -->
<!-- Title: METHOD Pages: 1 -->
<svg width="264pt" height="142pt"
 viewBox="0.00 0.00 264.00 142.00" xmlns="http://www.w3.org/2000/svg" xmlns:xlink="http://www.w3.org/1999/xlink">
<g id="graph0" class="graph" transform="scale(1 1) rotate(0) translate(4 138)">
<title>METHOD</title>
<!-- Node1 -->
<g id="node1" class="node"><title>Node1</title>
<polygon fill="#bfbfbf" stroke="black" points="0,-57.5 0,-76.5 60,-76.5 60,-57.5 0,-57.5"/>
<text text-anchor="middle" x="30" y="-64.5" font-family="Helvetica,sans-Serif" font-size="10.00">METHOD</text>
</g>
<!-- Node2 -->
<g id="node2" class="node"><title>Node2</title>
<g id="a_node2"><a xlink:href="../../dd/df8/x509__crl_8c.html#a4537e68f96deab79e340ac3d5bf18f6e" target="_top" xlink:title="cdp_destroy">
<polygon fill="none" stroke="black" points="106,-114.5 106,-133.5 176,-133.5 176,-114.5 106,-114.5"/>
<text text-anchor="middle" x="141" y="-121.5" font-family="Helvetica,sans-Serif" font-size="10.00">cdp_destroy</text>
</a>
</g>
</g>
<!-- Node1&#45;&gt;Node2 -->
<g id="edge1" class="edge"><title>Node1&#45;&gt;Node2</title>
<path fill="none" stroke="midnightblue" d="M49.4904,-76.6693C66.8199,-85.7315 92.9414,-99.3914 112.675,-109.711"/>
<polygon fill="midnightblue" stroke="midnightblue" points="111.299,-112.941 121.783,-114.474 114.543,-106.738 111.299,-112.941"/>
</g>
<!-- Node3 -->
<g id="node3" class="node"><title>Node3</title>
<g id="a_node3"><a xlink:href="../../da/dfc/settings__parser_8c.html#af07d89f5ceaea0c7c8252cc41fd75f37" target="_top" xlink:title="free">
<polygon fill="none" stroke="black" points="222.5,-76.5 222.5,-95.5 255.5,-95.5 255.5,-76.5 222.5,-76.5"/>
<text text-anchor="middle" x="239" y="-83.5" font-family="Helvetica,sans-Serif" font-size="10.00">free</text>
</a>
</g>
</g>
<!-- Node1&#45;&gt;Node3 -->
<g id="edge3" class="edge"><title>Node1&#45;&gt;Node3</title>
<path fill="none" stroke="midnightblue" d="M60.219,-69.6819C100.69,-73.3967 173.189,-80.0511 211.921,-83.6063"/>
<polygon fill="midnightblue" stroke="midnightblue" points="212.063,-87.134 222.341,-84.5627 212.703,-80.1633 212.063,-87.134"/>
</g>
<!-- Node4 -->
<g id="node4" class="node"><title>Node4</title>
<g id="a_node4"><a xlink:href="../../d0/de0/group__atomics__i.html#gaddce2b430444b26bf77138b37bba5eab" target="_top" xlink:title="ref_put">
<polygon fill="none" stroke="black" points="117.5,-38.5 117.5,-57.5 164.5,-57.5 164.5,-38.5 117.5,-38.5"/>
<text text-anchor="middle" x="141" y="-45.5" font-family="Helvetica,sans-Serif" font-size="10.00">ref_put</text>
</a>
</g>
</g>
<!-- Node1&#45;&gt;Node4 -->
<g id="edge4" class="edge"><title>Node1&#45;&gt;Node4</title>
<path fill="none" stroke="midnightblue" d="M60.21,-61.9083C74.7613,-59.3719 92.4031,-56.2967 107.394,-53.6836"/>
<polygon fill="midnightblue" stroke="midnightblue" points="108.028,-57.1259 117.279,-51.9606 106.826,-50.2299 108.028,-57.1259"/>
</g>
<!-- Node5 -->
<g id="node5" class="node"><title>Node5</title>
<g id="a_node5"><a xlink:href="../../dd/df8/x509__crl_8c.html#a55b78e99daf165f460a06df3ba0ae55f" target="_top" xlink:title="revoked_destroy">
<polygon fill="none" stroke="black" points="96.5,-0.5 96.5,-19.5 185.5,-19.5 185.5,-0.5 96.5,-0.5"/>
<text text-anchor="middle" x="141" y="-7.5" font-family="Helvetica,sans-Serif" font-size="10.00">revoked_destroy</text>
</a>
</g>
</g>
<!-- Node1&#45;&gt;Node5 -->
<g id="edge5" class="edge"><title>Node1&#45;&gt;Node5</title>
<path fill="none" stroke="midnightblue" d="M46.2045,-57.4025C59.195,-49.3758 78.5038,-37.8508 96,-29 99.5731,-27.1925 103.358,-25.3931 107.148,-23.6626"/>
<polygon fill="midnightblue" stroke="midnightblue" points="108.738,-26.7866 116.465,-19.5379 105.904,-20.3859 108.738,-26.7866"/>
</g>
<!-- Node2&#45;&gt;Node3 -->
<g id="edge2" class="edge"><title>Node2&#45;&gt;Node3</title>
<path fill="none" stroke="midnightblue" d="M166.225,-114.411C180.486,-108.766 198.493,-101.638 212.904,-95.934"/>
<polygon fill="midnightblue" stroke="midnightblue" points="214.205,-99.1832 222.215,-92.2483 211.629,-92.6745 214.205,-99.1832"/>
</g>
<!-- Node5&#45;&gt;Node3 -->
<g id="edge6" class="edge"><title>Node5&#45;&gt;Node3</title>
<path fill="none" stroke="midnightblue" d="M169.032,-19.5254C174.882,-22.1626 180.851,-25.3286 186,-29 201.271,-39.8888 215.392,-55.9176 225.054,-68.2066"/>
<polygon fill="midnightblue" stroke="midnightblue" points="222.417,-70.5215 231.253,-76.367 227.991,-66.2869 222.417,-70.5215"/>
</g>
</g>
</svg>
