<?xml version="1.0" encoding="UTF-8" standalone="no"?>
<!DOCTYPE svg PUBLIC "-//W3C//DTD SVG 1.1//EN"
 "http://www.w3.org/Graphics/SVG/1.1/DTD/svg11.dtd">
<!-- Generated by graphviz version 2.36.0 (20140111.2315)
 -->
<!-- Title: METHOD Pages: 1 -->
<svg width="928pt" height="829pt"
 viewBox="0.00 0.00 928.00 828.56" xmlns="http://www.w3.org/2000/svg" xmlns:xlink="http://www.w3.org/1999/xlink">
<g id="graph0" class="graph" transform="scale(1 1) rotate(0) translate(4 824.557)">
<title>METHOD</title>
<!-- Node1 -->
<g id="node1" class="node"><title>Node1</title>
<polygon fill="#bfbfbf" stroke="black" points="0,-285.5 0,-304.5 60,-304.5 60,-285.5 0,-285.5"/>
<text text-anchor="middle" x="30" y="-292.5" font-family="Helvetica,sans-Serif" font-size="10.00">METHOD</text>
</g>
<!-- Node2 -->
<g id="node2" class="node"><title>Node2</title>
<g id="a_node2"><a xlink:href="../../dc/d4a/group__kernel__ipsec.html#ga251778a06d74b35776677db38abe79c6" target="_top" xlink:title="kernel_ipsec_register">
<polygon fill="none" stroke="black" points="104.5,-304.5 104.5,-323.5 213.5,-323.5 213.5,-304.5 104.5,-304.5"/>
<text text-anchor="middle" x="159" y="-311.5" font-family="Helvetica,sans-Serif" font-size="10.00">kernel_ipsec_register</text>
</a>
</g>
</g>
<!-- Node1&#45;&gt;Node2 -->
<g id="edge1" class="edge"><title>Node1&#45;&gt;Node2</title>
<path fill="none" stroke="midnightblue" d="M60.1364,-299.359C70.3774,-300.891 82.3249,-302.679 94.2826,-304.467"/>
<polygon fill="midnightblue" stroke="midnightblue" points="93.8845,-307.947 104.292,-305.965 94.9202,-301.024 93.8845,-307.947"/>
</g>
<!-- Node3 -->
<g id="node3" class="node"><title>Node3</title>
<g id="a_node3"><a xlink:href="../../da/d60/group__kernel__wfp__ipsec.html#ga406325dc4fe3d10bc493ade0c15780ac" target="_top" xlink:title="kernel_wfp_ipsec_create">
<polygon fill="none" stroke="black" points="96.5,-266.5 96.5,-285.5 221.5,-285.5 221.5,-266.5 96.5,-266.5"/>
<text text-anchor="middle" x="159" y="-273.5" font-family="Helvetica,sans-Serif" font-size="10.00">kernel_wfp_ipsec_create</text>
</a>
</g>
</g>
<!-- Node1&#45;&gt;Node3 -->
<g id="edge2" class="edge"><title>Node1&#45;&gt;Node3</title>
<path fill="none" stroke="midnightblue" d="M60.1364,-290.641C68.0958,-289.45 77.0859,-288.105 86.3106,-286.725"/>
<polygon fill="midnightblue" stroke="midnightblue" points="87.0026,-290.161 96.3746,-285.22 85.9668,-283.238 87.0026,-290.161"/>
</g>
<!-- Node4 -->
<g id="node4" class="node"><title>Node4</title>
<g id="a_node4"><a xlink:href="../../d0/d04/group__mutex.html#gacbf89470b1f7a4a0d621faeeb8b485c5" target="_top" xlink:title="mutex_create">
<polygon fill="none" stroke="black" points="275,-527.5 275,-546.5 351,-546.5 351,-527.5 275,-527.5"/>
<text text-anchor="middle" x="313" y="-534.5" font-family="Helvetica,sans-Serif" font-size="10.00">mutex_create</text>
</a>
</g>
</g>
<!-- Node3&#45;&gt;Node4 -->
<g id="edge3" class="edge"><title>Node3&#45;&gt;Node4</title>
<path fill="none" stroke="midnightblue" d="M210.144,-285.661C214.598,-288.117 218.672,-291.18 222,-295 287.952,-370.692 193.612,-440.973 258,-518 260.301,-520.752 263.026,-523.106 266.011,-525.119"/>
<polygon fill="midnightblue" stroke="midnightblue" points="264.506,-528.284 274.971,-529.938 267.821,-522.119 264.506,-528.284"/>
</g>
<!-- Node5 -->
<g id="node5" class="node"><title>Node5</title>
<g id="a_node5"><a xlink:href="../../d1/d0e/group__array.html#ga9acc78bc2e06102ff37133b5aa0e0a4f" target="_top" xlink:title="array_create">
<polygon fill="none" stroke="black" points="277.5,-489.5 277.5,-508.5 348.5,-508.5 348.5,-489.5 277.5,-489.5"/>
<text text-anchor="middle" x="313" y="-496.5" font-family="Helvetica,sans-Serif" font-size="10.00">array_create</text>
</a>
</g>
</g>
<!-- Node3&#45;&gt;Node5 -->
<g id="edge4" class="edge"><title>Node3&#45;&gt;Node5</title>
<path fill="none" stroke="midnightblue" d="M209.679,-285.647C214.281,-288.102 218.515,-291.169 222,-295 275.435,-353.738 210.552,-406.328 258,-470 262.415,-475.925 268.408,-480.769 274.798,-484.683"/>
<polygon fill="midnightblue" stroke="midnightblue" points="273.184,-487.789 283.647,-489.458 276.508,-481.629 273.184,-487.789"/>
</g>
<!-- Node8 -->
<g id="node8" class="node"><title>Node8</title>
<g id="a_node8"><a xlink:href="../../db/dcc/group__hashtable.html#gae6df65038e6d4d725832e59eff4c1d90" target="_top" xlink:title="hashtable_create">
<polygon fill="none" stroke="black" points="267.5,-399.5 267.5,-418.5 358.5,-418.5 358.5,-399.5 267.5,-399.5"/>
<text text-anchor="middle" x="313" y="-406.5" font-family="Helvetica,sans-Serif" font-size="10.00">hashtable_create</text>
</a>
</g>
</g>
<!-- Node3&#45;&gt;Node8 -->
<g id="edge7" class="edge"><title>Node3&#45;&gt;Node8</title>
<path fill="none" stroke="midnightblue" d="M207.85,-285.632C213.025,-288.08 217.893,-291.151 222,-295 254.946,-325.875 225.693,-358.456 258,-390 259.618,-391.58 261.374,-393.028 263.233,-394.357"/>
<polygon fill="midnightblue" stroke="midnightblue" points="261.517,-397.408 271.913,-399.449 265.058,-391.37 261.517,-397.408"/>
</g>
<!-- Node19 -->
<g id="node19" class="node"><title>Node19</title>
<g id="a_node19"><a xlink:href="../../dc/d21/daemon_8c.html#a1e824dfeaa337e709772cb0c8e6c8dcc" target="_top" xlink:title="destroy">
<polygon fill="none" stroke="black" points="428.5,-456.5 428.5,-475.5 477.5,-475.5 477.5,-456.5 428.5,-456.5"/>
<text text-anchor="middle" x="453" y="-463.5" font-family="Helvetica,sans-Serif" font-size="10.00">destroy</text>
</a>
</g>
</g>
<!-- Node3&#45;&gt;Node19 -->
<g id="edge57" class="edge"><title>Node3&#45;&gt;Node19</title>
<path fill="none" stroke="midnightblue" d="M208.837,-285.555C213.714,-288.021 218.243,-291.116 222,-295 264.581,-339.011 213.19,-386.26 258,-428 301.525,-468.543 375.033,-471.607 417.978,-469.357"/>
<polygon fill="midnightblue" stroke="midnightblue" points="418.451,-472.834 428.201,-468.69 417.995,-465.848 418.451,-472.834"/>
</g>
<!-- Node33 -->
<g id="node33" class="node"><title>Node33</title>
<g id="a_node33"><a xlink:href="../../db/dcc/group__hashtable.html#ga5d67f24221afa38fc171188808c6b30a" target="_top" xlink:title="hashtable_hash_ptr">
<polygon fill="none" stroke="black" points="262.5,-209.5 262.5,-228.5 363.5,-228.5 363.5,-209.5 262.5,-209.5"/>
<text text-anchor="middle" x="313" y="-216.5" font-family="Helvetica,sans-Serif" font-size="10.00">hashtable_hash_ptr</text>
</a>
</g>
</g>
<!-- Node3&#45;&gt;Node33 -->
<g id="edge39" class="edge"><title>Node3&#45;&gt;Node33</title>
<path fill="none" stroke="midnightblue" d="M184.084,-266.417C203.872,-258.602 232.668,-247.365 258,-238 263.302,-236.04 268.913,-234.013 274.435,-232.046"/>
<polygon fill="midnightblue" stroke="midnightblue" points="275.93,-235.23 284.191,-228.596 273.596,-228.63 275.93,-235.23"/>
</g>
<!-- Node38 -->
<g id="node38" class="node"><title>Node38</title>
<g id="a_node38"><a xlink:href="../../db/dcc/group__hashtable.html#gab59fa0d194a4242b850ce16f61b81a5a" target="_top" xlink:title="hashtable_equals_ptr">
<polygon fill="none" stroke="black" points="258.5,-323.5 258.5,-342.5 367.5,-342.5 367.5,-323.5 258.5,-323.5"/>
<text text-anchor="middle" x="313" y="-330.5" font-family="Helvetica,sans-Serif" font-size="10.00">hashtable_equals_ptr</text>
</a>
</g>
</g>
<!-- Node3&#45;&gt;Node38 -->
<g id="edge44" class="edge"><title>Node3&#45;&gt;Node38</title>
<path fill="none" stroke="midnightblue" d="M195.165,-285.519C204.039,-288.262 213.467,-291.478 222,-295 238.723,-301.903 241.422,-306.756 258,-314 262.717,-316.061 267.736,-318.066 272.741,-319.953"/>
<polygon fill="midnightblue" stroke="midnightblue" points="271.674,-323.289 282.268,-323.421 274.068,-316.711 271.674,-323.289"/>
</g>
<!-- Node39 -->
<g id="node39" class="node"><title>Node39</title>
<g id="a_node39"><a xlink:href="../../d0/d8e/kernel__wfp__ipsec_8c.html#a4669110e2b65c3e36b6ab1b19028c592" target="_top" xlink:title="hash_sa">
<polygon fill="none" stroke="black" points="286.5,-285.5 286.5,-304.5 339.5,-304.5 339.5,-285.5 286.5,-285.5"/>
<text text-anchor="middle" x="313" y="-292.5" font-family="Helvetica,sans-Serif" font-size="10.00">hash_sa</text>
</a>
</g>
</g>
<!-- Node3&#45;&gt;Node39 -->
<g id="edge45" class="edge"><title>Node3&#45;&gt;Node39</title>
<path fill="none" stroke="midnightblue" d="M221.824,-283.728C240.298,-286.037 259.93,-288.491 276.144,-290.518"/>
<polygon fill="midnightblue" stroke="midnightblue" points="275.901,-294.015 286.258,-291.782 276.77,-287.069 275.901,-294.015"/>
</g>
<!-- Node41 -->
<g id="node41" class="node"><title>Node41</title>
<g id="a_node41"><a xlink:href="../../d0/d8e/kernel__wfp__ipsec_8c.html#aa1899fe9abd2e24f4646f747e34a5968" target="_top" xlink:title="equals_sa">
<polygon fill="none" stroke="black" points="282.5,-247.5 282.5,-266.5 343.5,-266.5 343.5,-247.5 282.5,-247.5"/>
<text text-anchor="middle" x="313" y="-254.5" font-family="Helvetica,sans-Serif" font-size="10.00">equals_sa</text>
</a>
</g>
</g>
<!-- Node3&#45;&gt;Node41 -->
<g id="edge49" class="edge"><title>Node3&#45;&gt;Node41</title>
<path fill="none" stroke="midnightblue" d="M221.824,-268.272C238.786,-266.152 256.725,-263.909 272.098,-261.988"/>
<polygon fill="midnightblue" stroke="midnightblue" points="272.798,-265.428 282.287,-260.714 271.93,-258.482 272.798,-265.428"/>
</g>
<!-- Node42 -->
<g id="node42" class="node"><title>Node42</title>
<g id="a_node42"><a xlink:href="../../d0/d8e/kernel__wfp__ipsec_8c.html#ab9969f2a5e75ee44210d1d6e4b96a69c" target="_top" xlink:title="hash_route">
<polygon fill="none" stroke="black" points="280.5,-361.5 280.5,-380.5 345.5,-380.5 345.5,-361.5 280.5,-361.5"/>
<text text-anchor="middle" x="313" y="-368.5" font-family="Helvetica,sans-Serif" font-size="10.00">hash_route</text>
</a>
</g>
</g>
<!-- Node3&#45;&gt;Node42 -->
<g id="edge50" class="edge"><title>Node3&#45;&gt;Node42</title>
<path fill="none" stroke="midnightblue" d="M204.904,-285.531C210.999,-288.001 216.901,-291.104 222,-295 245.809,-313.191 234.568,-333.325 258,-352 261.876,-355.089 266.292,-357.696 270.889,-359.891"/>
<polygon fill="midnightblue" stroke="midnightblue" points="269.888,-363.264 280.468,-363.841 272.557,-356.793 269.888,-363.264"/>
</g>
<!-- Node43 -->
<g id="node43" class="node"><title>Node43</title>
<g id="a_node43"><a xlink:href="../../d0/d8e/kernel__wfp__ipsec_8c.html#a67437949d04230e3ff92069466735c69" target="_top" xlink:title="equals_route">
<polygon fill="none" stroke="black" points="277,-171.5 277,-190.5 349,-190.5 349,-171.5 277,-171.5"/>
<text text-anchor="middle" x="313" y="-178.5" font-family="Helvetica,sans-Serif" font-size="10.00">equals_route</text>
</a>
</g>
</g>
<!-- Node3&#45;&gt;Node43 -->
<g id="edge52" class="edge"><title>Node3&#45;&gt;Node43</title>
<path fill="none" stroke="midnightblue" d="M170.087,-266.359C187.036,-250.6 222.836,-219.164 258,-200 261.78,-197.94 265.826,-196.033 269.941,-194.287"/>
<polygon fill="midnightblue" stroke="midnightblue" points="271.543,-197.418 279.573,-190.506 268.985,-190.902 271.543,-197.418"/>
</g>
<!-- Node44 -->
<g id="node44" class="node"><title>Node44</title>
<g id="a_node44"><a xlink:href="../../d0/d8e/kernel__wfp__ipsec_8c.html#ad03f26048d75c4bdf50daf47bab20015" target="_top" xlink:title="hash_trap">
<polygon fill="none" stroke="black" points="283.5,-133.5 283.5,-152.5 342.5,-152.5 342.5,-133.5 283.5,-133.5"/>
<text text-anchor="middle" x="313" y="-140.5" font-family="Helvetica,sans-Serif" font-size="10.00">hash_trap</text>
</a>
</g>
</g>
<!-- Node3&#45;&gt;Node44 -->
<g id="edge53" class="edge"><title>Node3&#45;&gt;Node44</title>
<path fill="none" stroke="midnightblue" d="M165.83,-266.25C179.331,-244.466 214.904,-191.453 258,-162 262.888,-158.659 268.426,-155.844 274.047,-153.491"/>
<polygon fill="midnightblue" stroke="midnightblue" points="275.346,-156.742 283.483,-149.956 272.89,-150.187 275.346,-156.742"/>
</g>
<!-- Node45 -->
<g id="node45" class="node"><title>Node45</title>
<g id="a_node45"><a xlink:href="../../d0/d8e/kernel__wfp__ipsec_8c.html#acfe6cf7a2d1448ba63c0a2a4263e7b31" target="_top" xlink:title="equals_trap">
<polygon fill="none" stroke="black" points="279.5,-95.5 279.5,-114.5 346.5,-114.5 346.5,-95.5 279.5,-95.5"/>
<text text-anchor="middle" x="313" y="-102.5" font-family="Helvetica,sans-Serif" font-size="10.00">equals_trap</text>
</a>
</g>
</g>
<!-- Node3&#45;&gt;Node45 -->
<g id="edge55" class="edge"><title>Node3&#45;&gt;Node45</title>
<path fill="none" stroke="midnightblue" d="M163.637,-266.24C174.082,-239.518 206.738,-164.465 258,-124 261.608,-121.152 265.675,-118.713 269.917,-116.628"/>
<polygon fill="midnightblue" stroke="midnightblue" points="271.54,-119.741 279.374,-112.608 268.801,-113.299 271.54,-119.741"/>
</g>
<!-- Node46 -->
<g id="node46" class="node"><title>Node46</title>
<g id="a_node46"><a xlink:href="../../d0/d8e/kernel__wfp__ipsec_8c.html#ace5f85707e10bc46b050ee659b589c26" target="_top" xlink:title="init_spi">
<polygon fill="none" stroke="black" points="289.5,-57.5 289.5,-76.5 336.5,-76.5 336.5,-57.5 289.5,-57.5"/>
<text text-anchor="middle" x="313" y="-64.5" font-family="Helvetica,sans-Serif" font-size="10.00">init_spi</text>
</a>
</g>
</g>
<!-- Node3&#45;&gt;Node46 -->
<g id="edge56" class="edge"><title>Node3&#45;&gt;Node46</title>
<path fill="none" stroke="midnightblue" d="M162.32,-266.113C170.129,-234.973 198.381,-137.918 258,-86 264.166,-80.6307 271.945,-76.7503 279.664,-73.9562"/>
<polygon fill="midnightblue" stroke="midnightblue" points="280.772,-77.277 289.284,-70.9677 278.696,-70.5922 280.772,-77.277"/>
</g>
<!-- Node47 -->
<g id="node47" class="node"><title>Node47</title>
<g id="a_node47"><a xlink:href="../../d0/d8e/kernel__wfp__ipsec_8c.html#aaf9e8029a793ce029a10f0e2a14fe1ff" target="_top" xlink:title="register_events">
<polygon fill="none" stroke="black" points="271.5,-19.5 271.5,-38.5 354.5,-38.5 354.5,-19.5 271.5,-19.5"/>
<text text-anchor="middle" x="313" y="-26.5" font-family="Helvetica,sans-Serif" font-size="10.00">register_events</text>
</a>
</g>
</g>
<!-- Node3&#45;&gt;Node47 -->
<g id="edge58" class="edge"><title>Node3&#45;&gt;Node47</title>
<path fill="none" stroke="midnightblue" d="M161.374,-266.182C166.772,-231.273 189.692,-111.838 258,-48 259.681,-46.4286 261.5,-44.9861 263.418,-43.6619"/>
<polygon fill="midnightblue" stroke="midnightblue" points="265.383,-46.5709 272.342,-38.5818 261.92,-40.4876 265.383,-46.5709"/>
</g>
<!-- Node6 -->
<g id="node6" class="node"><title>Node6</title>
<g id="a_node6"><a xlink:href="../../da/dfc/settings__parser_8c.html#a5faf6a2d99f50a4655dd390199a8db7b" target="_top" xlink:title="malloc">
<polygon fill="none" stroke="black" points="430.5,-494.5 430.5,-513.5 475.5,-513.5 475.5,-494.5 430.5,-494.5"/>
<text text-anchor="middle" x="453" y="-501.5" font-family="Helvetica,sans-Serif" font-size="10.00">malloc</text>
</a>
</g>
</g>
<!-- Node5&#45;&gt;Node6 -->
<g id="edge5" class="edge"><title>Node5&#45;&gt;Node6</title>
<path fill="none" stroke="midnightblue" d="M348.823,-500.262C370.681,-501.054 398.661,-502.067 419.967,-502.839"/>
<polygon fill="midnightblue" stroke="midnightblue" points="420.013,-506.343 430.133,-503.208 420.267,-499.348 420.013,-506.343"/>
</g>
<!-- Node7 -->
<g id="node7" class="node"><title>Node7</title>
<g id="a_node7"><a xlink:href="../../dc/dcc/array_8c.html#a1814774789ffaf948b25734a7dd0f3ed" target="_top" xlink:title="get_size">
<polygon fill="none" stroke="black" points="426.5,-532.5 426.5,-551.5 479.5,-551.5 479.5,-532.5 426.5,-532.5"/>
<text text-anchor="middle" x="453" y="-539.5" font-family="Helvetica,sans-Serif" font-size="10.00">get_size</text>
</a>
</g>
</g>
<!-- Node5&#45;&gt;Node7 -->
<g id="edge6" class="edge"><title>Node5&#45;&gt;Node7</title>
<path fill="none" stroke="midnightblue" d="M344.627,-508.543C365.836,-515.152 394.137,-523.97 416.359,-530.894"/>
<polygon fill="midnightblue" stroke="midnightblue" points="415.505,-534.294 426.094,-533.928 417.588,-527.611 415.505,-534.294"/>
</g>
<!-- Node9 -->
<g id="node9" class="node"><title>Node9</title>
<g id="a_node9"><a xlink:href="../../d3/d7e/crypto__factory_8c.html#a232a78e6f892cf38a9a97e311c44ed89" target="_top" xlink:title="create_enumerator">
<polygon fill="none" stroke="black" points="404,-294.5 404,-313.5 502,-313.5 502,-294.5 404,-294.5"/>
<text text-anchor="middle" x="453" y="-301.5" font-family="Helvetica,sans-Serif" font-size="10.00">create_enumerator</text>
</a>
</g>
</g>
<!-- Node8&#45;&gt;Node9 -->
<g id="edge8" class="edge"><title>Node8&#45;&gt;Node9</title>
<path fill="none" stroke="midnightblue" d="M348.807,-399.409C355.439,-396.857 362.135,-393.741 368,-390 397.146,-371.411 423.74,-340.876 438.884,-321.634"/>
<polygon fill="midnightblue" stroke="midnightblue" points="441.685,-323.733 445.004,-313.672 436.135,-319.467 441.685,-323.733"/>
</g>
<!-- Node8&#45;&gt;Node19 -->
<g id="edge20" class="edge"><title>Node8&#45;&gt;Node19</title>
<path fill="none" stroke="midnightblue" d="M336.134,-418.51C354.316,-426.282 380.766,-437.498 404,-447 408.752,-448.943 413.78,-450.968 418.724,-452.941"/>
<polygon fill="midnightblue" stroke="midnightblue" points="417.444,-456.199 428.03,-456.635 420.027,-449.693 417.444,-456.199"/>
</g>
<!-- Node30 -->
<g id="node30" class="node"><title>Node30</title>
<g id="a_node30"><a xlink:href="../../d5/dea/openssl__plugin_8c.html#aa87fbc0aaf3d4f1344dae1a9b326d120" target="_top" xlink:title="destroy_function">
<polygon fill="none" stroke="black" points="408.5,-418.5 408.5,-437.5 497.5,-437.5 497.5,-418.5 408.5,-418.5"/>
<text text-anchor="middle" x="453" y="-425.5" font-family="Helvetica,sans-Serif" font-size="10.00">destroy_function</text>
</a>
</g>
</g>
<!-- Node8&#45;&gt;Node30 -->
<g id="edge35" class="edge"><title>Node8&#45;&gt;Node30</title>
<path fill="none" stroke="midnightblue" d="M358.805,-415.169C371.349,-416.896 385.115,-418.791 398.126,-420.583"/>
<polygon fill="midnightblue" stroke="midnightblue" points="397.977,-424.095 408.361,-421.992 398.932,-417.16 397.977,-424.095"/>
</g>
<!-- Node31 -->
<g id="node31" class="node"><title>Node31</title>
<g id="a_node31"><a xlink:href="../../d8/de9/hashtable_8c.html#a053c183893f9804d2487335c70840dba" target="_top" xlink:title="init_hashtable">
<polygon fill="none" stroke="black" points="414.5,-380.5 414.5,-399.5 491.5,-399.5 491.5,-380.5 414.5,-380.5"/>
<text text-anchor="middle" x="453" y="-387.5" font-family="Helvetica,sans-Serif" font-size="10.00">init_hashtable</text>
</a>
</g>
</g>
<!-- Node8&#45;&gt;Node31 -->
<g id="edge37" class="edge"><title>Node8&#45;&gt;Node31</title>
<path fill="none" stroke="midnightblue" d="M358.805,-402.831C373.384,-400.824 389.614,-398.589 404.391,-396.555"/>
<polygon fill="midnightblue" stroke="midnightblue" points="404.922,-400.015 414.351,-395.184 403.967,-393.08 404.922,-400.015"/>
</g>
<!-- Node10 -->
<g id="node10" class="node"><title>Node10</title>
<g id="a_node10"><a xlink:href="../../d3/de6/group__enumerator.html#ga7e32271ea79eb88b576ca6eb1c582751" target="_top" xlink:title="enumerator_create_filter">
<polygon fill="none" stroke="black" points="538,-323.5 538,-342.5 660,-342.5 660,-323.5 538,-323.5"/>
<text text-anchor="middle" x="599" y="-330.5" font-family="Helvetica,sans-Serif" font-size="10.00">enumerator_create_filter</text>
</a>
</g>
</g>
<!-- Node9&#45;&gt;Node10 -->
<g id="edge9" class="edge"><title>Node9&#45;&gt;Node10</title>
<path fill="none" stroke="midnightblue" d="M501.55,-313.576C513.961,-316.076 527.472,-318.796 540.346,-321.389"/>
<polygon fill="midnightblue" stroke="midnightblue" points="540.006,-324.891 550.5,-323.434 541.388,-318.029 540.006,-324.891"/>
</g>
<!-- Node12 -->
<g id="node12" class="node"><title>Node12</title>
<g id="a_node12"><a xlink:href="../../dd/df8/x509__crl_8c.html#a39e3ce1a2351f3e2d5414c75a694290c" target="_top" xlink:title="filter">
<polygon fill="none" stroke="black" points="866.5,-304.5 866.5,-323.5 901.5,-323.5 901.5,-304.5 866.5,-304.5"/>
<text text-anchor="middle" x="884" y="-311.5" font-family="Helvetica,sans-Serif" font-size="10.00">filter</text>
</a>
</g>
</g>
<!-- Node9&#45;&gt;Node12 -->
<g id="edge15" class="edge"><title>Node9&#45;&gt;Node12</title>
<path fill="none" stroke="midnightblue" d="M502.378,-305.128C592.859,-307.237 784.952,-311.714 855.916,-313.369"/>
<polygon fill="midnightblue" stroke="midnightblue" points="856.152,-316.875 866.231,-313.609 856.315,-309.877 856.152,-316.875"/>
</g>
<!-- Node15 -->
<g id="node15" class="node"><title>Node15</title>
<g id="a_node15"><a xlink:href="../../d3/dc0/group__linked__list.html#ga15bb4333e53dbef32d196e4388f43fdf" target="_top" xlink:title="linked_list_create">
<polygon fill="none" stroke="black" points="553,-228.5 553,-247.5 645,-247.5 645,-228.5 553,-228.5"/>
<text text-anchor="middle" x="599" y="-235.5" font-family="Helvetica,sans-Serif" font-size="10.00">linked_list_create</text>
</a>
</g>
</g>
<!-- Node9&#45;&gt;Node15 -->
<g id="edge16" class="edge"><title>Node9&#45;&gt;Node15</title>
<path fill="none" stroke="midnightblue" d="M480.81,-294.437C487.825,-291.652 495.297,-288.428 502,-285 518.904,-276.355 521.111,-270.675 538,-262 545.45,-258.173 553.656,-254.538 561.545,-251.307"/>
<polygon fill="midnightblue" stroke="midnightblue" points="562.933,-254.522 570.938,-247.582 560.352,-248.015 562.933,-254.522"/>
</g>
<!-- Node17 -->
<g id="node17" class="node"><title>Node17</title>
<g id="a_node17"><a xlink:href="../../d3/d7e/crypto__factory_8c.html#a4e4b3de361576a5459952730cc042ca5" target="_top" xlink:title="unique_check">
<polygon fill="none" stroke="black" points="560.5,-190.5 560.5,-209.5 637.5,-209.5 637.5,-190.5 560.5,-190.5"/>
<text text-anchor="middle" x="599" y="-197.5" font-family="Helvetica,sans-Serif" font-size="10.00">unique_check</text>
</a>
</g>
</g>
<!-- Node9&#45;&gt;Node17 -->
<g id="edge18" class="edge"><title>Node9&#45;&gt;Node17</title>
<path fill="none" stroke="midnightblue" d="M487.25,-294.382C492.555,-291.888 497.704,-288.8 502,-285 527.028,-262.863 512.21,-240.245 538,-219 541.806,-215.865 546.134,-213.245 550.682,-211.056"/>
<polygon fill="midnightblue" stroke="midnightblue" points="552.307,-214.172 560.231,-207.14 549.65,-207.696 552.307,-214.172"/>
</g>
<!-- Node11 -->
<g id="node11" class="node"><title>Node11</title>
<g id="a_node11"><a xlink:href="../../de/d46/enumerator_8c.html#a801ada63221011518bb6957f3ef2c747" target="_top" xlink:title="enumerate_filter">
<polygon fill="none" stroke="black" points="711,-342.5 711,-361.5 797,-361.5 797,-342.5 711,-342.5"/>
<text text-anchor="middle" x="754" y="-349.5" font-family="Helvetica,sans-Serif" font-size="10.00">enumerate_filter</text>
</a>
</g>
</g>
<!-- Node10&#45;&gt;Node11 -->
<g id="edge10" class="edge"><title>Node10&#45;&gt;Node11</title>
<path fill="none" stroke="midnightblue" d="M660.031,-340.455C673.374,-342.112 687.42,-343.856 700.438,-345.473"/>
<polygon fill="midnightblue" stroke="midnightblue" points="700.269,-348.978 710.624,-346.738 701.131,-342.032 700.269,-348.978"/>
</g>
<!-- Node10&#45;&gt;Node12 -->
<g id="edge14" class="edge"><title>Node10&#45;&gt;Node12</title>
<path fill="none" stroke="midnightblue" d="M660.017,-328.971C720.723,-324.895 811.782,-318.781 856.414,-315.785"/>
<polygon fill="midnightblue" stroke="midnightblue" points="856.721,-319.272 866.464,-315.11 856.252,-312.288 856.721,-319.272"/>
</g>
<!-- Node13 -->
<g id="node13" class="node"><title>Node13</title>
<g id="a_node13"><a xlink:href="../../de/d46/enumerator_8c.html#a01c799700a22a2e067044a03731d13bc" target="_top" xlink:title="destroy_filter">
<polygon fill="none" stroke="black" points="717.5,-380.5 717.5,-399.5 790.5,-399.5 790.5,-380.5 717.5,-380.5"/>
<text text-anchor="middle" x="754" y="-387.5" font-family="Helvetica,sans-Serif" font-size="10.00">destroy_filter</text>
</a>
</g>
</g>
<!-- Node10&#45;&gt;Node13 -->
<g id="edge12" class="edge"><title>Node10&#45;&gt;Node13</title>
<path fill="none" stroke="midnightblue" d="M623.141,-342.575C642.501,-350.486 670.905,-361.859 696,-371 701.651,-373.058 707.648,-375.153 713.548,-377.164"/>
<polygon fill="midnightblue" stroke="midnightblue" points="712.714,-380.576 723.308,-380.447 714.946,-373.942 712.714,-380.576"/>
</g>
<!-- Node11&#45;&gt;Node12 -->
<g id="edge11" class="edge"><title>Node11&#45;&gt;Node12</title>
<path fill="none" stroke="midnightblue" d="M787.3,-342.411C808.743,-336.045 836.537,-327.794 856.642,-321.825"/>
<polygon fill="midnightblue" stroke="midnightblue" points="857.791,-325.135 866.381,-318.934 855.798,-318.425 857.791,-325.135"/>
</g>
<!-- Node14 -->
<g id="node14" class="node"><title>Node14</title>
<g id="a_node14"><a xlink:href="../../da/dfc/settings__parser_8c.html#af07d89f5ceaea0c7c8252cc41fd75f37" target="_top" xlink:title="free">
<polygon fill="none" stroke="black" points="867.5,-456.5 867.5,-475.5 900.5,-475.5 900.5,-456.5 867.5,-456.5"/>
<text text-anchor="middle" x="884" y="-463.5" font-family="Helvetica,sans-Serif" font-size="10.00">free</text>
</a>
</g>
</g>
<!-- Node13&#45;&gt;Node14 -->
<g id="edge13" class="edge"><title>Node13&#45;&gt;Node14</title>
<path fill="none" stroke="midnightblue" d="M781.145,-399.515C791.054,-403.504 802.283,-408.497 812,-414 830.496,-424.476 849.858,-438.923 863.682,-449.932"/>
<polygon fill="midnightblue" stroke="midnightblue" points="861.542,-452.702 871.516,-456.275 865.947,-447.262 861.542,-452.702"/>
</g>
<!-- Node16 -->
<g id="node16" class="node"><title>Node16</title>
<g id="a_node16"><a xlink:href="../../d9/d78/duplicheck__listener_8c.html#a42e92cbe3b8fa821d53d1fdb7db5a639" target="_top" xlink:title="remove_first">
<polygon fill="none" stroke="red" points="718.5,-228.5 718.5,-247.5 789.5,-247.5 789.5,-228.5 718.5,-228.5"/>
<text text-anchor="middle" x="754" y="-235.5" font-family="Helvetica,sans-Serif" font-size="10.00">remove_first</text>
</a>
</g>
</g>
<!-- Node15&#45;&gt;Node16 -->
<g id="edge17" class="edge"><title>Node15&#45;&gt;Node16</title>
<path fill="none" stroke="midnightblue" d="M645.078,-238C665.044,-238 688.467,-238 708.381,-238"/>
<polygon fill="midnightblue" stroke="midnightblue" points="708.437,-241.5 718.437,-238 708.437,-234.5 708.437,-241.5"/>
</g>
<!-- Node18 -->
<g id="node18" class="node"><title>Node18</title>
<g id="a_node18"><a xlink:href="../../d3/d7e/crypto__factory_8c.html#a1bec9a4fd91abbb0271d27bb5ab69bd4" target="_top" xlink:title="entry_match">
<polygon fill="none" stroke="black" points="718.5,-190.5 718.5,-209.5 789.5,-209.5 789.5,-190.5 718.5,-190.5"/>
<text text-anchor="middle" x="754" y="-197.5" font-family="Helvetica,sans-Serif" font-size="10.00">entry_match</text>
</a>
</g>
</g>
<!-- Node17&#45;&gt;Node18 -->
<g id="edge19" class="edge"><title>Node17&#45;&gt;Node18</title>
<path fill="none" stroke="midnightblue" d="M637.82,-200C659.134,-200 685.884,-200 708.238,-200"/>
<polygon fill="midnightblue" stroke="midnightblue" points="708.489,-203.5 718.489,-200 708.489,-196.5 708.489,-203.5"/>
</g>
<!-- Node19&#45;&gt;Node14 -->
<g id="edge21" class="edge"><title>Node19&#45;&gt;Node14</title>
<path fill="none" stroke="midnightblue" d="M477.676,-466C551.843,-466 779.34,-466 856.831,-466"/>
<polygon fill="midnightblue" stroke="midnightblue" points="857.14,-469.5 867.14,-466 857.14,-462.5 857.14,-469.5"/>
</g>
<!-- Node20 -->
<g id="node20" class="node"><title>Node20</title>
<g id="a_node20"><a xlink:href="../../dc/d21/daemon_8c.html#a1b7023117168a75858bd535a56e709e2" target="_top" xlink:title="logger_entry_destroy">
<polygon fill="none" stroke="black" points="545.5,-750.5 545.5,-769.5 652.5,-769.5 652.5,-750.5 545.5,-750.5"/>
<text text-anchor="middle" x="599" y="-757.5" font-family="Helvetica,sans-Serif" font-size="10.00">logger_entry_destroy</text>
</a>
</g>
</g>
<!-- Node19&#45;&gt;Node20 -->
<g id="edge22" class="edge"><title>Node19&#45;&gt;Node20</title>
<path fill="none" stroke="midnightblue" d="M477.831,-470.435C486.607,-473.22 495.887,-477.727 502,-485 552.811,-545.454 509.441,-585.374 538,-659 550.034,-690.025 571.101,-722.53 584.798,-742.025"/>
<polygon fill="midnightblue" stroke="midnightblue" points="582.02,-744.157 590.686,-750.252 587.712,-740.083 582.02,-744.157"/>
</g>
<!-- Node21 -->
<g id="node21" class="node"><title>Node21</title>
<g id="a_node21"><a xlink:href="../../d9/d32/connect__manager_8c.html#a3b4dd773d88779165dc7243cb4e4fbee" target="_top" xlink:title="sender">
<polygon fill="none" stroke="black" points="576,-630.5 576,-649.5 622,-649.5 622,-630.5 576,-630.5"/>
<text text-anchor="middle" x="599" y="-637.5" font-family="Helvetica,sans-Serif" font-size="10.00">sender</text>
</a>
</g>
</g>
<!-- Node19&#45;&gt;Node21 -->
<g id="edge24" class="edge"><title>Node19&#45;&gt;Node21</title>
<path fill="none" stroke="midnightblue" d="M477.599,-471.987C485.944,-474.927 494.988,-479.135 502,-485 547.371,-522.952 577.658,-588.091 590.706,-620.501"/>
<polygon fill="midnightblue" stroke="midnightblue" points="587.574,-622.105 594.467,-630.151 594.097,-619.563 587.574,-622.105"/>
</g>
<!-- Node20&#45;&gt;Node14 -->
<g id="edge23" class="edge"><title>Node20&#45;&gt;Node14</title>
<path fill="none" stroke="midnightblue" d="M614.236,-769.645C651.288,-793.442 752,-849.617 812,-801 861.676,-760.749 877.997,-551.657 881.946,-485.851"/>
<polygon fill="midnightblue" stroke="midnightblue" points="885.454,-485.797 882.528,-475.615 878.466,-485.4 885.454,-485.797"/>
</g>
<!-- Node22 -->
<g id="node22" class="node"><title>Node22</title>
<g id="a_node22"><a xlink:href="../../d9/d32/connect__manager_8c.html#ad295327b74b1c4e19a7096ad2979765b" target="_top" xlink:title="check_create">
<polygon fill="none" stroke="black" points="716.5,-696.5 716.5,-715.5 791.5,-715.5 791.5,-696.5 716.5,-696.5"/>
<text text-anchor="middle" x="754" y="-703.5" font-family="Helvetica,sans-Serif" font-size="10.00">check_create</text>
</a>
</g>
</g>
<!-- Node21&#45;&gt;Node22 -->
<g id="edge25" class="edge"><title>Node21&#45;&gt;Node22</title>
<path fill="none" stroke="midnightblue" d="M618.489,-649.605C637.623,-659.366 668.504,-674.628 696,-686 701.851,-688.42 708.113,-690.811 714.266,-693.052"/>
<polygon fill="midnightblue" stroke="midnightblue" points="713.176,-696.379 723.771,-696.432 715.522,-689.784 713.176,-696.379"/>
</g>
<!-- Node23 -->
<g id="node23" class="node"><title>Node23</title>
<g id="a_node23"><a xlink:href="../../d9/d32/connect__manager_8c.html#a204f99a4a38f8c08c42cd120bcf1b9f7" target="_top" xlink:title="check_destroy">
<polygon fill="none" stroke="red" points="714,-494.5 714,-513.5 794,-513.5 794,-494.5 714,-494.5"/>
<text text-anchor="middle" x="754" y="-501.5" font-family="Helvetica,sans-Serif" font-size="10.00">check_destroy</text>
</a>
</g>
</g>
<!-- Node21&#45;&gt;Node23 -->
<g id="edge26" class="edge"><title>Node21&#45;&gt;Node23</title>
<path fill="none" stroke="midnightblue" d="M605.365,-630.265C618.124,-607.991 652.493,-552.938 696,-523 698.88,-521.018 701.983,-519.23 705.201,-517.618"/>
<polygon fill="midnightblue" stroke="midnightblue" points="706.745,-520.762 714.486,-513.529 703.923,-514.356 706.745,-520.762"/>
</g>
<!-- Node24 -->
<g id="node24" class="node"><title>Node24</title>
<g id="a_node24"><a xlink:href="../../d7/d87/group__endpoint__notify.html#ga89474ccd935bd6aeb2db5ae84c2fcbcf" target="_top" xlink:title="endpoint_notify_create\l_from_host">
<polygon fill="none" stroke="red" points="696.5,-647 696.5,-677 811.5,-677 811.5,-647 696.5,-647"/>
<text text-anchor="start" x="704.5" y="-665" font-family="Helvetica,sans-Serif" font-size="10.00">endpoint_notify_create</text>
<text text-anchor="middle" x="754" y="-654" font-family="Helvetica,sans-Serif" font-size="10.00">_from_host</text>
</a>
</g>
</g>
<!-- Node21&#45;&gt;Node24 -->
<g id="edge28" class="edge"><title>Node21&#45;&gt;Node24</title>
<path fill="none" stroke="midnightblue" d="M622.248,-643.199C639.141,-645.628 663.308,-649.103 686.278,-652.406"/>
<polygon fill="midnightblue" stroke="midnightblue" points="685.973,-655.898 696.37,-653.857 686.97,-648.969 685.973,-655.898"/>
</g>
<!-- Node25 -->
<g id="node25" class="node"><title>Node25</title>
<g id="a_node25"><a xlink:href="../../d9/d32/connect__manager_8c.html#a7f4c528dceb6dc21cbeeb405365db27d" target="_top" xlink:title="get_checklist_by_id">
<polygon fill="none" stroke="red" points="702.5,-608.5 702.5,-627.5 805.5,-627.5 805.5,-608.5 702.5,-608.5"/>
<text text-anchor="middle" x="754" y="-615.5" font-family="Helvetica,sans-Serif" font-size="10.00">get_checklist_by_id</text>
</a>
</g>
</g>
<!-- Node21&#45;&gt;Node25 -->
<g id="edge29" class="edge"><title>Node21&#45;&gt;Node25</title>
<path fill="none" stroke="midnightblue" d="M622.248,-636.801C640.604,-634.162 667.547,-630.287 692.212,-626.741"/>
<polygon fill="midnightblue" stroke="midnightblue" points="692.849,-630.185 702.249,-625.298 691.853,-623.256 692.849,-630.185"/>
</g>
<!-- Node26 -->
<g id="node26" class="node"><title>Node26</title>
<g id="a_node26"><a xlink:href="../../d9/d32/connect__manager_8c.html#a0c6f96218c9be021da288127130acaea" target="_top" xlink:title="get_triggered_pair">
<polygon fill="none" stroke="black" points="707,-570.5 707,-589.5 801,-589.5 801,-570.5 707,-570.5"/>
<text text-anchor="middle" x="754" y="-577.5" font-family="Helvetica,sans-Serif" font-size="10.00">get_triggered_pair</text>
</a>
</g>
</g>
<!-- Node21&#45;&gt;Node26 -->
<g id="edge30" class="edge"><title>Node21&#45;&gt;Node26</title>
<path fill="none" stroke="midnightblue" d="M621.149,-630.376C640.466,-621.728 669.906,-608.902 696,-599 701.56,-596.89 707.471,-594.777 713.301,-592.768"/>
<polygon fill="midnightblue" stroke="midnightblue" points="714.607,-596.021 722.959,-589.502 712.365,-589.39 714.607,-596.021"/>
</g>
<!-- Node27 -->
<g id="node27" class="node"><title>Node27</title>
<g id="a_node27"><a xlink:href="../../d9/d32/connect__manager_8c.html#a7bcdfc183dd5ea52c1db9112000121eb" target="_top" xlink:title="match_waiting_pair">
<polygon fill="none" stroke="black" points="703.5,-532.5 703.5,-551.5 804.5,-551.5 804.5,-532.5 703.5,-532.5"/>
<text text-anchor="middle" x="754" y="-539.5" font-family="Helvetica,sans-Serif" font-size="10.00">match_waiting_pair</text>
</a>
</g>
</g>
<!-- Node21&#45;&gt;Node27 -->
<g id="edge31" class="edge"><title>Node21&#45;&gt;Node27</title>
<path fill="none" stroke="midnightblue" d="M609.205,-630.396C625.362,-614.038 660.49,-580.638 696,-561 699.748,-558.927 703.761,-557.03 707.856,-555.307"/>
<polygon fill="midnightblue" stroke="midnightblue" points="709.406,-558.46 717.477,-551.597 706.887,-551.929 709.406,-558.46"/>
</g>
<!-- Node28 -->
<g id="node28" class="node"><title>Node28</title>
<g id="a_node28"><a xlink:href="../../d9/d32/connect__manager_8c.html#ab04c347706d661bcbd52ba901be05697" target="_top" xlink:title="schedule_checks">
<polygon fill="none" stroke="red" points="708,-772.5 708,-791.5 800,-791.5 800,-772.5 708,-772.5"/>
<text text-anchor="middle" x="754" y="-779.5" font-family="Helvetica,sans-Serif" font-size="10.00">schedule_checks</text>
</a>
</g>
</g>
<!-- Node21&#45;&gt;Node28 -->
<g id="edge32" class="edge"><title>Node21&#45;&gt;Node28</title>
<path fill="none" stroke="midnightblue" d="M607.917,-649.771C622.128,-672.058 654.402,-724.622 696,-754 705.685,-760.84 718.008,-765.352 728.716,-769.042"/>
<polygon fill="midnightblue" stroke="midnightblue" points="727.754,-772.413 738.349,-772.378 730.045,-765.799 727.754,-772.413"/>
</g>
<!-- Node29 -->
<g id="node29" class="node"><title>Node29</title>
<g id="a_node29"><a xlink:href="../../d9/d32/connect__manager_8c.html#a84c6b0f36d7353c32bb874be21759a5f" target="_top" xlink:title="send_check">
<polygon fill="none" stroke="red" points="719.5,-734.5 719.5,-753.5 788.5,-753.5 788.5,-734.5 719.5,-734.5"/>
<text text-anchor="middle" x="754" y="-741.5" font-family="Helvetica,sans-Serif" font-size="10.00">send_check</text>
</a>
</g>
</g>
<!-- Node21&#45;&gt;Node29 -->
<g id="edge34" class="edge"><title>Node21&#45;&gt;Node29</title>
<path fill="none" stroke="midnightblue" d="M608.301,-649.548C623.858,-666.896 659.17,-703.755 696,-725 700.405,-727.541 705.199,-729.803 710.075,-731.801"/>
<polygon fill="midnightblue" stroke="midnightblue" points="708.878,-735.09 719.47,-735.319 711.333,-728.534 708.878,-735.09"/>
</g>
<!-- Node23&#45;&gt;Node14 -->
<g id="edge27" class="edge"><title>Node23&#45;&gt;Node14</title>
<path fill="none" stroke="midnightblue" d="M787.3,-494.411C809.121,-487.933 837.52,-479.502 857.7,-473.511"/>
<polygon fill="midnightblue" stroke="midnightblue" points="858.834,-476.825 867.425,-470.624 856.842,-470.115 858.834,-476.825"/>
</g>
<!-- Node28&#45;&gt;Node21 -->
<g id="edge33" class="edge"><title>Node28&#45;&gt;Node21</title>
<path fill="none" stroke="midnightblue" d="M707.893,-778.759C703.705,-776.842 699.664,-774.588 696,-772 653.631,-742.077 620.935,-688.102 607.145,-659.031"/>
<polygon fill="midnightblue" stroke="midnightblue" points="610.19,-657.262 602.938,-649.538 603.79,-660.098 610.19,-657.262"/>
</g>
<!-- Node30&#45;&gt;Node14 -->
<g id="edge36" class="edge"><title>Node30&#45;&gt;Node14</title>
<path fill="none" stroke="midnightblue" d="M497.894,-431.888C586.882,-439.77 786.114,-457.418 857.193,-463.714"/>
<polygon fill="midnightblue" stroke="midnightblue" points="857.194,-467.228 867.464,-464.624 857.812,-460.255 857.194,-467.228"/>
</g>
<!-- Node32 -->
<g id="node32" class="node"><title>Node32</title>
<g id="a_node32"><a xlink:href="../../d8/de9/hashtable_8c.html#adc1f54b2244040a4e4de073db4ed27fa" target="_top" xlink:title="get_nearest_powerof2">
<polygon fill="none" stroke="black" points="542.5,-380.5 542.5,-399.5 655.5,-399.5 655.5,-380.5 542.5,-380.5"/>
<text text-anchor="middle" x="599" y="-387.5" font-family="Helvetica,sans-Serif" font-size="10.00">get_nearest_powerof2</text>
</a>
</g>
</g>
<!-- Node31&#45;&gt;Node32 -->
<g id="edge38" class="edge"><title>Node31&#45;&gt;Node32</title>
<path fill="none" stroke="midnightblue" d="M491.834,-390C504.239,-390 518.406,-390 532.261,-390"/>
<polygon fill="midnightblue" stroke="midnightblue" points="532.265,-393.5 542.265,-390 532.265,-386.5 532.265,-393.5"/>
</g>
<!-- Node34 -->
<g id="node34" class="node"><title>Node34</title>
<g id="a_node34"><a xlink:href="../../d4/d87/group__chunk.html#ga714bd1cb9e1f743523c2a58a49f1b6a4" target="_top" xlink:title="chunk_hash">
<polygon fill="none" stroke="black" points="418.5,-171.5 418.5,-190.5 487.5,-190.5 487.5,-171.5 418.5,-171.5"/>
<text text-anchor="middle" x="453" y="-178.5" font-family="Helvetica,sans-Serif" font-size="10.00">chunk_hash</text>
</a>
</g>
</g>
<!-- Node33&#45;&gt;Node34 -->
<g id="edge40" class="edge"><title>Node33&#45;&gt;Node34</title>
<path fill="none" stroke="midnightblue" d="M348.823,-209.411C366.91,-204.431 389.188,-198.296 408.408,-193.004"/>
<polygon fill="midnightblue" stroke="midnightblue" points="409.43,-196.353 418.142,-190.323 407.572,-189.604 409.43,-196.353"/>
</g>
<!-- Node35 -->
<g id="node35" class="node"><title>Node35</title>
<g id="a_node35"><a xlink:href="../../d4/d87/group__chunk.html#gac5619cf208f72c56bf142cbc4378e388" target="_top" xlink:title="chunk_mac">
<polygon fill="none" stroke="black" points="565.5,-114.5 565.5,-133.5 632.5,-133.5 632.5,-114.5 565.5,-114.5"/>
<text text-anchor="middle" x="599" y="-121.5" font-family="Helvetica,sans-Serif" font-size="10.00">chunk_mac</text>
</a>
</g>
</g>
<!-- Node34&#45;&gt;Node35 -->
<g id="edge41" class="edge"><title>Node34&#45;&gt;Node35</title>
<path fill="none" stroke="midnightblue" d="M478.102,-171.459C501.673,-162.13 537.777,-147.838 564.209,-137.376"/>
<polygon fill="midnightblue" stroke="midnightblue" points="565.809,-140.507 573.819,-133.572 563.233,-133.998 565.809,-140.507"/>
</g>
<!-- Node36 -->
<g id="node36" class="node"><title>Node36</title>
<g id="a_node36"><a xlink:href="../../d8/d39/chunk_8c.html#a09c1163fbcb7fd5f8dc5652c9083511a" target="_top" xlink:title="chunk_mac_inc">
<polygon fill="none" stroke="red" points="711.5,-133.5 711.5,-152.5 796.5,-152.5 796.5,-133.5 711.5,-133.5"/>
<text text-anchor="middle" x="754" y="-140.5" font-family="Helvetica,sans-Serif" font-size="10.00">chunk_mac_inc</text>
</a>
</g>
</g>
<!-- Node35&#45;&gt;Node36 -->
<g id="edge42" class="edge"><title>Node35&#45;&gt;Node36</title>
<path fill="none" stroke="midnightblue" d="M632.822,-128.076C652.772,-130.553 678.681,-133.771 701.333,-136.584"/>
<polygon fill="midnightblue" stroke="midnightblue" points="701.123,-140.085 711.478,-137.844 701.985,-133.138 701.123,-140.085"/>
</g>
<!-- Node37 -->
<g id="node37" class="node"><title>Node37</title>
<g id="a_node37"><a xlink:href="../../d8/d39/chunk_8c.html#ab5aaa633967a7323bfda1d3b7773374e" target="_top" xlink:title="sipcompress">
<polygon fill="none" stroke="red" points="848,-133.5 848,-152.5 920,-152.5 920,-133.5 848,-133.5"/>
<text text-anchor="middle" x="884" y="-140.5" font-family="Helvetica,sans-Serif" font-size="10.00">sipcompress</text>
</a>
</g>
</g>
<!-- Node36&#45;&gt;Node37 -->
<g id="edge43" class="edge"><title>Node36&#45;&gt;Node37</title>
<path fill="none" stroke="midnightblue" d="M796.558,-143C809.576,-143 824.012,-143 837.299,-143"/>
<polygon fill="midnightblue" stroke="midnightblue" points="837.659,-146.5 847.659,-143 837.659,-139.5 837.659,-146.5"/>
</g>
<!-- Node39&#45;&gt;Node34 -->
<g id="edge46" class="edge"><title>Node39&#45;&gt;Node34</title>
<path fill="none" stroke="midnightblue" d="M339.71,-288.878C349.109,-285.909 359.509,-281.717 368,-276 399.021,-255.115 425.858,-220.12 440.406,-198.935"/>
<polygon fill="midnightblue" stroke="midnightblue" points="443.379,-200.785 446.031,-190.527 437.561,-196.892 443.379,-200.785"/>
</g>
<!-- Node40 -->
<g id="node40" class="node"><title>Node40</title>
<g id="a_node40"><a xlink:href="../../d4/d87/group__chunk.html#ga59c607182e7cb24bb0ef4e6eae302bd9" target="_top" xlink:title="chunk_hash_inc">
<polygon fill="none" stroke="black" points="409.5,-256.5 409.5,-275.5 496.5,-275.5 496.5,-256.5 409.5,-256.5"/>
<text text-anchor="middle" x="453" y="-263.5" font-family="Helvetica,sans-Serif" font-size="10.00">chunk_hash_inc</text>
</a>
</g>
</g>
<!-- Node39&#45;&gt;Node40 -->
<g id="edge47" class="edge"><title>Node39&#45;&gt;Node40</title>
<path fill="none" stroke="midnightblue" d="M339.633,-289.613C356.447,-286.08 379.037,-281.333 399.553,-277.022"/>
<polygon fill="midnightblue" stroke="midnightblue" points="400.357,-280.429 409.423,-274.947 398.917,-273.579 400.357,-280.429"/>
</g>
<!-- Node40&#45;&gt;Node36 -->
<g id="edge48" class="edge"><title>Node40&#45;&gt;Node36</title>
<path fill="none" stroke="midnightblue" d="M460.315,-256.47C472.804,-238.467 502.541,-199.601 538,-181 589.227,-154.127 655.784,-145.79 701.189,-143.438"/>
<polygon fill="midnightblue" stroke="midnightblue" points="701.56,-146.926 711.397,-142.992 701.254,-139.932 701.56,-146.926"/>
</g>
<!-- Node42&#45;&gt;Node40 -->
<g id="edge51" class="edge"><title>Node42&#45;&gt;Node40</title>
<path fill="none" stroke="midnightblue" d="M345.504,-364.247C353.474,-361.434 361.583,-357.494 368,-352 393.679,-330.016 378.75,-307.476 404,-285 405.741,-283.451 407.623,-282.02 409.6,-280.7"/>
<polygon fill="midnightblue" stroke="midnightblue" points="411.709,-283.53 418.73,-275.596 408.294,-277.42 411.709,-283.53"/>
</g>
<!-- Node44&#45;&gt;Node34 -->
<g id="edge54" class="edge"><title>Node44&#45;&gt;Node34</title>
<path fill="none" stroke="midnightblue" d="M342.594,-150.874C361.609,-156.11 386.945,-163.086 408.447,-169.007"/>
<polygon fill="midnightblue" stroke="midnightblue" points="407.763,-172.449 418.334,-171.73 409.622,-165.7 407.763,-172.449"/>
</g>
<!-- Node48 -->
<g id="node48" class="node"><title>Node48</title>
<g id="a_node48"><a xlink:href="../../d0/d8e/kernel__wfp__ipsec_8c.html#ab48cc4d33c538fd630aedbe3c0ca1638" target="_top" xlink:title="event_callback">
<polygon fill="none" stroke="black" points="412,-19.5 412,-38.5 494,-38.5 494,-19.5 412,-19.5"/>
<text text-anchor="middle" x="453" y="-26.5" font-family="Helvetica,sans-Serif" font-size="10.00">event_callback</text>
</a>
</g>
</g>
<!-- Node47&#45;&gt;Node48 -->
<g id="edge59" class="edge"><title>Node47&#45;&gt;Node48</title>
<path fill="none" stroke="midnightblue" d="M354.658,-29C369.257,-29 385.905,-29 401.255,-29"/>
<polygon fill="midnightblue" stroke="midnightblue" points="401.632,-32.5001 411.632,-29 401.632,-25.5001 401.632,-32.5001"/>
</g>
<!-- Node49 -->
<g id="node49" class="node"><title>Node49</title>
<g id="a_node49"><a xlink:href="../../d0/d8e/kernel__wfp__ipsec_8c.html#ab855f29001f16f7422904b704693182c" target="_top" xlink:title="acquire">
<polygon fill="none" stroke="black" points="575,-0.5 575,-19.5 623,-19.5 623,-0.5 575,-0.5"/>
<text text-anchor="middle" x="599" y="-7.5" font-family="Helvetica,sans-Serif" font-size="10.00">acquire</text>
</a>
</g>
</g>
<!-- Node48&#45;&gt;Node49 -->
<g id="edge60" class="edge"><title>Node48&#45;&gt;Node49</title>
<path fill="none" stroke="midnightblue" d="M494.112,-23.7074C516.324,-20.7767 543.61,-17.1765 564.643,-14.4013"/>
<polygon fill="midnightblue" stroke="midnightblue" points="565.258,-17.8506 574.714,-13.0725 564.342,-10.9107 565.258,-17.8506"/>
</g>
<!-- Node50 -->
<g id="node50" class="node"><title>Node50</title>
<g id="a_node50"><a xlink:href="../../d0/d8e/kernel__wfp__ipsec_8c.html#abbde35e33c74e0ca706612b10d04b419" target="_top" xlink:title="addr2ts">
<polygon fill="none" stroke="red" points="574.5,-38.5 574.5,-57.5 623.5,-57.5 623.5,-38.5 574.5,-38.5"/>
<text text-anchor="middle" x="599" y="-45.5" font-family="Helvetica,sans-Serif" font-size="10.00">addr2ts</text>
</a>
</g>
</g>
<!-- Node48&#45;&gt;Node50 -->
<g id="edge61" class="edge"><title>Node48&#45;&gt;Node50</title>
<path fill="none" stroke="midnightblue" d="M494.112,-34.2926C516.181,-37.2045 543.26,-40.7774 564.238,-43.5453"/>
<polygon fill="midnightblue" stroke="midnightblue" points="563.923,-47.0339 574.294,-44.8722 564.838,-40.0941 563.923,-47.0339"/>
</g>
</g>
</svg>
