<?xml version="1.0" encoding="UTF-8" standalone="no"?>
<!DOCTYPE svg PUBLIC "-//W3C//DTD SVG 1.1//EN"
 "http://www.w3.org/Graphics/SVG/1.1/DTD/svg11.dtd">
<!-- Generated by graphviz version 2.36.0 (20140111.2315)
 -->
<!-- Title: led_listener_create Pages: 1 -->
<svg width="218pt" height="104pt"
 viewBox="0.00 0.00 218.00 104.00" xmlns="http://www.w3.org/2000/svg" xmlns:xlink="http://www.w3.org/1999/xlink">
<g id="graph0" class="graph" transform="scale(1 1) rotate(0) translate(4 100)">
<title>led_listener_create</title>
<!-- Node1 -->
<g id="node1" class="node"><title>Node1</title>
<polygon fill="#bfbfbf" stroke="black" points="0,-38.5 0,-57.5 98,-57.5 98,-38.5 0,-38.5"/>
<text text-anchor="middle" x="49" y="-45.5" font-family="Helvetica,sans-Serif" font-size="10.00">led_listener_create</text>
</g>
<!-- Node2 -->
<g id="node2" class="node"><title>Node2</title>
<g id="a_node2"><a xlink:href="../../d0/d04/group__mutex.html#gacbf89470b1f7a4a0d621faeeb8b485c5" target="_top" xlink:title="mutex_create">
<polygon fill="none" stroke="black" points="134,-76.5 134,-95.5 210,-95.5 210,-76.5 134,-76.5"/>
<text text-anchor="middle" x="172" y="-83.5" font-family="Helvetica,sans-Serif" font-size="10.00">mutex_create</text>
</a>
</g>
</g>
<!-- Node1&#45;&gt;Node2 -->
<g id="edge1" class="edge"><title>Node1&#45;&gt;Node2</title>
<path fill="none" stroke="midnightblue" d="M80.5334,-57.589C95.7234,-62.3594 114.285,-68.1888 130.633,-73.3229"/>
<polygon fill="midnightblue" stroke="midnightblue" points="129.887,-76.757 140.476,-76.4141 131.984,-70.0786 129.887,-76.757"/>
</g>
<!-- Node3 -->
<g id="node3" class="node"><title>Node3</title>
<g id="a_node3"><a xlink:href="../../da/da7/led__listener_8c.html#a3ec81bc048d73c3a0dcce57813f30a7b" target="_top" xlink:title="open_led">
<polygon fill="none" stroke="black" points="144,-38.5 144,-57.5 200,-57.5 200,-38.5 144,-38.5"/>
<text text-anchor="middle" x="172" y="-45.5" font-family="Helvetica,sans-Serif" font-size="10.00">open_led</text>
</a>
</g>
</g>
<!-- Node1&#45;&gt;Node3 -->
<g id="edge2" class="edge"><title>Node1&#45;&gt;Node3</title>
<path fill="none" stroke="midnightblue" d="M98.1701,-48C109.957,-48 122.395,-48 133.592,-48"/>
<polygon fill="midnightblue" stroke="midnightblue" points="133.885,-51.5001 143.885,-48 133.885,-44.5001 133.885,-51.5001"/>
</g>
<!-- Node4 -->
<g id="node4" class="node"><title>Node4</title>
<g id="a_node4"><a xlink:href="../../da/da7/led__listener_8c.html#a3f154eec80a8cac62e5c2e0e34e46bc3" target="_top" xlink:title="set_led">
<polygon fill="none" stroke="black" points="148,-0.5 148,-19.5 196,-19.5 196,-0.5 148,-0.5"/>
<text text-anchor="middle" x="172" y="-7.5" font-family="Helvetica,sans-Serif" font-size="10.00">set_led</text>
</a>
</g>
</g>
<!-- Node1&#45;&gt;Node4 -->
<g id="edge3" class="edge"><title>Node1&#45;&gt;Node4</title>
<path fill="none" stroke="midnightblue" d="M80.5334,-38.411C98.0551,-32.9083 120.063,-25.9967 137.985,-20.3684"/>
<polygon fill="midnightblue" stroke="midnightblue" points="139.241,-23.6426 147.733,-17.3071 137.143,-16.9642 139.241,-23.6426"/>
</g>
</g>
</svg>
