<?xml version="1.0" encoding="UTF-8" standalone="no"?>
<!DOCTYPE svg PUBLIC "-//W3C//DTD SVG 1.1//EN"
 "http://www.w3.org/Graphics/SVG/1.1/DTD/svg11.dtd">
<!-- Generated by graphviz version 2.36.0 (20140111.2315)
 -->
<!-- Title: build_response Pages: 1 -->
<svg width="698pt" height="1066pt"
 viewBox="0.00 0.00 698.00 1066.00" xmlns="http://www.w3.org/2000/svg" xmlns:xlink="http://www.w3.org/1999/xlink">
<g id="graph0" class="graph" transform="scale(1 1) rotate(0) translate(4 1062)">
<title>build_response</title>
<!-- Node1 -->
<g id="node1" class="node"><title>Node1</title>
<polygon fill="#bfbfbf" stroke="black" points="0,-540.5 0,-559.5 82,-559.5 82,-540.5 0,-540.5"/>
<text text-anchor="middle" x="41" y="-547.5" font-family="Helvetica,sans-Serif" font-size="10.00">build_response</text>
</g>
<!-- Node2 -->
<g id="node2" class="node"><title>Node2</title>
<g id="a_node2"><a xlink:href="../../dd/d65/task__manager__v1_8c.html#a76d247fe71749f76b4fe9c7aff18f28c" target="_top" xlink:title="clear_packets">
<polygon fill="none" stroke="black" points="129.5,-769.5 129.5,-788.5 206.5,-788.5 206.5,-769.5 129.5,-769.5"/>
<text text-anchor="middle" x="168" y="-776.5" font-family="Helvetica,sans-Serif" font-size="10.00">clear_packets</text>
</a>
</g>
</g>
<!-- Node1&#45;&gt;Node2 -->
<g id="edge1" class="edge"><title>Node1&#45;&gt;Node2</title>
<path fill="none" stroke="midnightblue" d="M47.212,-559.548C66.1526,-594.248 131.549,-714.054 156.873,-760.447"/>
<polygon fill="midnightblue" stroke="midnightblue" points="153.902,-762.31 161.766,-769.411 160.047,-758.957 153.902,-762.31"/>
</g>
<!-- Node9 -->
<g id="node9" class="node"><title>Node9</title>
<g id="a_node9"><a xlink:href="../../dd/d65/task__manager__v1_8c.html#a7062e59ff0a1af956240ed019a0eae96" target="_top" xlink:title="generate_message">
<polygon fill="none" stroke="black" points="118.5,-913.5 118.5,-932.5 217.5,-932.5 217.5,-913.5 118.5,-913.5"/>
<text text-anchor="middle" x="168" y="-920.5" font-family="Helvetica,sans-Serif" font-size="10.00">generate_message</text>
</a>
</g>
</g>
<!-- Node1&#45;&gt;Node9 -->
<g id="edge9" class="edge"><title>Node1&#45;&gt;Node9</title>
<path fill="none" stroke="midnightblue" d="M44.6411,-559.545C53.8874,-592.743 85.9771,-706.153 118,-798 131.236,-835.962 148.879,-879.511 158.982,-903.887"/>
<polygon fill="midnightblue" stroke="midnightblue" points="155.856,-905.485 162.934,-913.369 162.318,-902.792 155.856,-905.485"/>
</g>
<!-- Node13 -->
<g id="node13" class="node"><title>Node13</title>
<g id="a_node13"><a xlink:href="../../d7/d9c/cmd__connection_8c.html#a1ef10a08acb2689e03be939316fb0a76" target="_top" xlink:title="initiate">
<polygon fill="none" stroke="black" points="145.5,-633.5 145.5,-652.5 190.5,-652.5 190.5,-633.5 145.5,-633.5"/>
<text text-anchor="middle" x="168" y="-640.5" font-family="Helvetica,sans-Serif" font-size="10.00">initiate</text>
</a>
</g>
</g>
<!-- Node1&#45;&gt;Node13 -->
<g id="edge14" class="edge"><title>Node1&#45;&gt;Node13</title>
<path fill="none" stroke="midnightblue" d="M54.9064,-559.602C76.4266,-575.613 119.84,-607.913 145.872,-627.281"/>
<polygon fill="midnightblue" stroke="midnightblue" points="143.864,-630.149 153.977,-633.311 148.043,-624.533 143.864,-630.149"/>
</g>
<!-- Node28 -->
<g id="node28" class="node"><title>Node28</title>
<g id="a_node28"><a xlink:href="../../de/d9a/group__message.html#gac4bba880d7840360ecb8e4137526420b" target="_top" xlink:title="message_create">
<polygon fill="none" stroke="black" points="123.5,-448.5 123.5,-467.5 212.5,-467.5 212.5,-448.5 123.5,-448.5"/>
<text text-anchor="middle" x="168" y="-455.5" font-family="Helvetica,sans-Serif" font-size="10.00">message_create</text>
</a>
</g>
</g>
<!-- Node1&#45;&gt;Node28 -->
<g id="edge34" class="edge"><title>Node1&#45;&gt;Node28</title>
<path fill="none" stroke="midnightblue" d="M55.3772,-540.154C76.9927,-524.245 119.785,-492.75 145.651,-473.713"/>
<polygon fill="midnightblue" stroke="midnightblue" points="147.74,-476.521 153.719,-467.775 143.591,-470.884 147.74,-476.521"/>
</g>
<!-- Node33 -->
<g id="node33" class="node"><title>Node33</title>
<g id="a_node33"><a xlink:href="../../d9/d32/connect__manager_8c.html#a13543d329388560c587b6f8b6a014329" target="_top" xlink:title="retransmit">
<polygon fill="none" stroke="black" points="138,-285.5 138,-304.5 198,-304.5 198,-285.5 138,-285.5"/>
<text text-anchor="middle" x="168" y="-292.5" font-family="Helvetica,sans-Serif" font-size="10.00">retransmit</text>
</a>
</g>
</g>
<!-- Node1&#45;&gt;Node33 -->
<g id="edge40" class="edge"><title>Node1&#45;&gt;Node33</title>
<path fill="none" stroke="midnightblue" d="M46.7475,-540.315C65.2716,-502.526 132.889,-364.587 157.749,-313.873"/>
<polygon fill="midnightblue" stroke="midnightblue" points="160.989,-315.214 162.248,-304.695 154.703,-312.133 160.989,-315.214"/>
</g>
<!-- Node49 -->
<g id="node49" class="node"><title>Node49</title>
<g id="a_node49"><a xlink:href="../../dd/d65/task__manager__v1_8c.html#a185b110fc35f1d74366c0e2a68cbc093" target="_top" xlink:title="send_packets">
<polygon fill="none" stroke="black" points="129.5,-171.5 129.5,-190.5 206.5,-190.5 206.5,-171.5 129.5,-171.5"/>
<text text-anchor="middle" x="168" y="-178.5" font-family="Helvetica,sans-Serif" font-size="10.00">send_packets</text>
</a>
</g>
</g>
<!-- Node1&#45;&gt;Node49 -->
<g id="edge60" class="edge"><title>Node1&#45;&gt;Node49</title>
<path fill="none" stroke="midnightblue" d="M43.9317,-540.304C51.234,-504.441 78.7448,-376.202 118,-276 128.837,-248.337 145.283,-218.12 156.084,-199.362"/>
<polygon fill="midnightblue" stroke="midnightblue" points="159.139,-201.072 161.159,-190.672 153.094,-197.543 159.139,-201.072"/>
</g>
<!-- Node3 -->
<g id="node3" class="node"><title>Node3</title>
<g id="a_node3"><a xlink:href="../../d1/d0e/group__array.html#ga55955a8b760f395c97d9ba0e24ed1f16" target="_top" xlink:title="array_remove">
<polygon fill="none" stroke="black" points="279,-867.5 279,-886.5 355,-886.5 355,-867.5 279,-867.5"/>
<text text-anchor="middle" x="317" y="-874.5" font-family="Helvetica,sans-Serif" font-size="10.00">array_remove</text>
</a>
</g>
</g>
<!-- Node2&#45;&gt;Node3 -->
<g id="edge2" class="edge"><title>Node2&#45;&gt;Node3</title>
<path fill="none" stroke="midnightblue" d="M183.363,-788.575C208.875,-805.583 262.293,-841.195 292.985,-861.657"/>
<polygon fill="midnightblue" stroke="midnightblue" points="291.099,-864.606 301.361,-867.241 294.982,-858.782 291.099,-864.606"/>
</g>
<!-- Node4 -->
<g id="node4" class="node"><title>Node4</title>
<g id="a_node4"><a xlink:href="../../d1/d0e/group__array.html#ga8f49cd8981e317a31801562481a983fe" target="_top" xlink:title="array_get">
<polygon fill="none" stroke="red" points="460.5,-810.5 460.5,-829.5 517.5,-829.5 517.5,-810.5 460.5,-810.5"/>
<text text-anchor="middle" x="489" y="-817.5" font-family="Helvetica,sans-Serif" font-size="10.00">array_get</text>
</a>
</g>
</g>
<!-- Node3&#45;&gt;Node4 -->
<g id="edge3" class="edge"><title>Node3&#45;&gt;Node4</title>
<path fill="none" stroke="midnightblue" d="M340.708,-867.361C360.406,-859.201 389.792,-847.51 416,-839 427.109,-835.393 439.344,-831.966 450.527,-829.04"/>
<polygon fill="midnightblue" stroke="midnightblue" points="451.618,-832.374 460.438,-826.504 449.883,-825.592 451.618,-832.374"/>
</g>
<!-- Node5 -->
<g id="node5" class="node"><title>Node5</title>
<g id="a_node5"><a xlink:href="../../d1/d0e/group__array.html#ga37bb7fb1dde90d6fb84dac0027bb3606" target="_top" xlink:title="array_count">
<polygon fill="none" stroke="black" points="610,-924.5 610,-943.5 678,-943.5 678,-924.5 610,-924.5"/>
<text text-anchor="middle" x="644" y="-931.5" font-family="Helvetica,sans-Serif" font-size="10.00">array_count</text>
</a>
</g>
</g>
<!-- Node3&#45;&gt;Node5 -->
<g id="edge5" class="edge"><title>Node3&#45;&gt;Node5</title>
<path fill="none" stroke="midnightblue" d="M337.738,-886.594C357.16,-895.563 387.906,-908.519 416,-915 478.743,-929.473 553.498,-933.222 599.606,-934.033"/>
<polygon fill="midnightblue" stroke="midnightblue" points="599.794,-937.536 609.84,-934.173 599.889,-930.537 599.794,-937.536"/>
</g>
<!-- Node6 -->
<g id="node6" class="node"><title>Node6</title>
<g id="a_node6"><a xlink:href="../../dc/dcc/array_8c.html#ab6b79352671c52c64680b40ec8f4b564" target="_top" xlink:title="remove_tail">
<polygon fill="none" stroke="red" points="455.5,-962.5 455.5,-981.5 522.5,-981.5 522.5,-962.5 455.5,-962.5"/>
<text text-anchor="middle" x="489" y="-969.5" font-family="Helvetica,sans-Serif" font-size="10.00">remove_tail</text>
</a>
</g>
</g>
<!-- Node3&#45;&gt;Node6 -->
<g id="edge6" class="edge"><title>Node3&#45;&gt;Node6</title>
<path fill="none" stroke="midnightblue" d="M329.018,-886.743C346.416,-901.703 381.797,-930.438 416,-948 425.231,-952.74 435.595,-956.834 445.523,-960.232"/>
<polygon fill="midnightblue" stroke="midnightblue" points="444.655,-963.63 455.247,-963.396 446.821,-956.974 444.655,-963.63"/>
</g>
<!-- Node7 -->
<g id="node7" class="node"><title>Node7</title>
<g id="a_node7"><a xlink:href="../../dc/dcc/array_8c.html#adf752ea38951fc12706edf7f731b5417" target="_top" xlink:title="remove_head">
<polygon fill="none" stroke="red" points="451.5,-886.5 451.5,-905.5 526.5,-905.5 526.5,-886.5 451.5,-886.5"/>
<text text-anchor="middle" x="489" y="-893.5" font-family="Helvetica,sans-Serif" font-size="10.00">remove_head</text>
</a>
</g>
</g>
<!-- Node3&#45;&gt;Node7 -->
<g id="edge7" class="edge"><title>Node3&#45;&gt;Node7</title>
<path fill="none" stroke="midnightblue" d="M355.307,-881.17C380.614,-883.998 414.26,-887.758 441.339,-890.785"/>
<polygon fill="midnightblue" stroke="midnightblue" points="441.037,-894.273 451.364,-891.905 441.815,-887.316 441.037,-894.273"/>
</g>
<!-- Node8 -->
<g id="node8" class="node"><title>Node8</title>
<g id="a_node8"><a xlink:href="../../d1/d0e/group__array.html#ga26cb748cd8a50b54dfa0b21dca9deff8" target="_top" xlink:title="array_compress">
<polygon fill="none" stroke="red" points="446,-848.5 446,-867.5 532,-867.5 532,-848.5 446,-848.5"/>
<text text-anchor="middle" x="489" y="-855.5" font-family="Helvetica,sans-Serif" font-size="10.00">array_compress</text>
</a>
</g>
</g>
<!-- Node3&#45;&gt;Node8 -->
<g id="edge8" class="edge"><title>Node3&#45;&gt;Node8</title>
<path fill="none" stroke="midnightblue" d="M355.307,-872.83C378.949,-870.188 409.87,-866.732 435.914,-863.821"/>
<polygon fill="midnightblue" stroke="midnightblue" points="436.45,-867.283 446,-862.694 435.673,-860.327 436.45,-867.283"/>
</g>
<!-- Node4&#45;&gt;Node5 -->
<g id="edge4" class="edge"><title>Node4&#45;&gt;Node5</title>
<path fill="none" stroke="midnightblue" d="M517.555,-823.266C531.671,-825.895 548.649,-830.604 562,-839 593.166,-858.6 618.635,-894.015 632.245,-915.629"/>
<polygon fill="midnightblue" stroke="midnightblue" points="629.292,-917.508 637.489,-924.221 635.267,-913.862 629.292,-917.508"/>
</g>
<!-- Node10 -->
<g id="node10" class="node"><title>Node10</title>
<g id="a_node10"><a xlink:href="../../d1/d0e/group__array.html#gad2155c6672a55d685efbd8737b7873f8" target="_top" xlink:title="array_insert_create">
<polygon fill="none" stroke="black" points="267,-1000.5 267,-1019.5 367,-1019.5 367,-1000.5 267,-1000.5"/>
<text text-anchor="middle" x="317" y="-1007.5" font-family="Helvetica,sans-Serif" font-size="10.00">array_insert_create</text>
</a>
</g>
</g>
<!-- Node9&#45;&gt;Node10 -->
<g id="edge10" class="edge"><title>Node9&#45;&gt;Node10</title>
<path fill="none" stroke="midnightblue" d="M185.293,-932.643C210.901,-947.798 260.753,-977.303 290.944,-995.171"/>
<polygon fill="midnightblue" stroke="midnightblue" points="289.245,-998.233 299.634,-1000.31 292.811,-992.209 289.245,-998.233"/>
</g>
<!-- Node11 -->
<g id="node11" class="node"><title>Node11</title>
<g id="a_node11"><a xlink:href="../../d1/d0e/group__array.html#ga9acc78bc2e06102ff37133b5aa0e0a4f" target="_top" xlink:title="array_create">
<polygon fill="none" stroke="red" points="453.5,-1000.5 453.5,-1019.5 524.5,-1019.5 524.5,-1000.5 453.5,-1000.5"/>
<text text-anchor="middle" x="489" y="-1007.5" font-family="Helvetica,sans-Serif" font-size="10.00">array_create</text>
</a>
</g>
</g>
<!-- Node10&#45;&gt;Node11 -->
<g id="edge11" class="edge"><title>Node10&#45;&gt;Node11</title>
<path fill="none" stroke="midnightblue" d="M367.171,-1010C391.26,-1010 420.047,-1010 443.48,-1010"/>
<polygon fill="midnightblue" stroke="midnightblue" points="443.499,-1013.5 453.499,-1010 443.499,-1006.5 443.499,-1013.5"/>
</g>
<!-- Node12 -->
<g id="node12" class="node"><title>Node12</title>
<g id="a_node12"><a xlink:href="../../d1/d0e/group__array.html#ga47238d69e35235b059ea47cdd82120e2" target="_top" xlink:title="array_insert">
<polygon fill="none" stroke="red" points="455,-1038.5 455,-1057.5 523,-1057.5 523,-1038.5 455,-1038.5"/>
<text text-anchor="middle" x="489" y="-1045.5" font-family="Helvetica,sans-Serif" font-size="10.00">array_insert</text>
</a>
</g>
</g>
<!-- Node10&#45;&gt;Node12 -->
<g id="edge12" class="edge"><title>Node10&#45;&gt;Node12</title>
<path fill="none" stroke="midnightblue" d="M360.898,-1019.59C386.601,-1025.33 419.176,-1032.62 444.913,-1038.37"/>
<polygon fill="midnightblue" stroke="midnightblue" points="444.245,-1041.81 454.768,-1040.57 445.773,-1034.97 444.245,-1041.81"/>
</g>
<!-- Node12&#45;&gt;Node5 -->
<g id="edge13" class="edge"><title>Node12&#45;&gt;Node5</title>
<path fill="none" stroke="midnightblue" d="M523.242,-1043.59C536.062,-1040.81 550.4,-1036.3 562,-1029 593.166,-1009.4 618.635,-973.985 632.245,-952.371"/>
<polygon fill="midnightblue" stroke="midnightblue" points="635.267,-954.138 637.489,-943.779 629.292,-950.492 635.267,-954.138"/>
</g>
<!-- Node14 -->
<g id="node14" class="node"><title>Node14</title>
<g id="a_node14"><a xlink:href="../../d7/d9c/cmd__connection_8c.html#a69a2225da93d04a822cb999d15797b13" target="_top" xlink:title="add_auth_cfgs">
<polygon fill="none" stroke="black" points="277,-750.5 277,-769.5 357,-769.5 357,-750.5 277,-750.5"/>
<text text-anchor="middle" x="317" y="-757.5" font-family="Helvetica,sans-Serif" font-size="10.00">add_auth_cfgs</text>
</a>
</g>
</g>
<!-- Node13&#45;&gt;Node14 -->
<g id="edge15" class="edge"><title>Node13&#45;&gt;Node14</title>
<path fill="none" stroke="midnightblue" d="M178.795,-652.619C194.205,-667.547 225.314,-696.878 254,-719 265.934,-728.203 279.882,-737.542 291.523,-744.977"/>
<polygon fill="midnightblue" stroke="midnightblue" points="289.955,-748.126 300.282,-750.493 293.685,-742.202 289.955,-748.126"/>
</g>
<!-- Node16 -->
<g id="node16" class="node"><title>Node16</title>
<g id="a_node16"><a xlink:href="../../d6/d29/group__controller__i.html#ga398ce0ca01023bf1e6d115ff666f1509" target="_top" xlink:title="controller_cb_empty">
<polygon fill="none" stroke="black" points="265,-652.5 265,-671.5 369,-671.5 369,-652.5 265,-652.5"/>
<text text-anchor="middle" x="317" y="-659.5" font-family="Helvetica,sans-Serif" font-size="10.00">controller_cb_empty</text>
</a>
</g>
</g>
<!-- Node13&#45;&gt;Node16 -->
<g id="edge17" class="edge"><title>Node13&#45;&gt;Node16</title>
<path fill="none" stroke="midnightblue" d="M190.69,-645.804C207.665,-647.998 232.142,-651.161 254.966,-654.111"/>
<polygon fill="midnightblue" stroke="midnightblue" points="254.594,-657.592 264.96,-655.403 255.492,-650.65 254.594,-657.592"/>
</g>
<!-- Node17 -->
<g id="node17" class="node"><title>Node17</title>
<g id="a_node17"><a xlink:href="../../d7/d9c/cmd__connection_8c.html#a1f336f506c2809aaa13a8a7dc31b25ff" target="_top" xlink:title="create_child_cfg">
<polygon fill="none" stroke="black" points="273,-576.5 273,-595.5 361,-595.5 361,-576.5 273,-576.5"/>
<text text-anchor="middle" x="317" y="-583.5" font-family="Helvetica,sans-Serif" font-size="10.00">create_child_cfg</text>
</a>
</g>
</g>
<!-- Node13&#45;&gt;Node17 -->
<g id="edge18" class="edge"><title>Node13&#45;&gt;Node17</title>
<path fill="none" stroke="midnightblue" d="M188.635,-633.393C205.68,-625.253 231.147,-613.573 254,-605 259.949,-602.768 266.288,-600.597 272.557,-598.568"/>
<polygon fill="midnightblue" stroke="midnightblue" points="273.793,-601.849 282.282,-595.509 271.693,-595.171 273.793,-601.849"/>
</g>
<!-- Node24 -->
<g id="node24" class="node"><title>Node24</title>
<g id="a_node24"><a xlink:href="../../d7/d9c/cmd__connection_8c.html#ad383141d47fae75523014ef65e04c018" target="_top" xlink:title="create_peer_cfg">
<polygon fill="none" stroke="black" points="274,-690.5 274,-709.5 360,-709.5 360,-690.5 274,-690.5"/>
<text text-anchor="middle" x="317" y="-697.5" font-family="Helvetica,sans-Serif" font-size="10.00">create_peer_cfg</text>
</a>
</g>
</g>
<!-- Node13&#45;&gt;Node24 -->
<g id="edge25" class="edge"><title>Node13&#45;&gt;Node24</title>
<path fill="none" stroke="midnightblue" d="M188.635,-652.607C205.68,-660.747 231.147,-672.427 254,-681 259.949,-683.232 266.288,-685.403 272.557,-687.432"/>
<polygon fill="midnightblue" stroke="midnightblue" points="271.693,-690.829 282.282,-690.491 273.793,-684.151 271.693,-690.829"/>
</g>
<!-- Node27 -->
<g id="node27" class="node"><title>Node27</title>
<g id="a_node27"><a xlink:href="../../d7/d9c/cmd__connection_8c.html#a7673aa078775c7307b184332c8d97086" target="_top" xlink:title="terminate">
<polygon fill="none" stroke="black" points="288.5,-614.5 288.5,-633.5 345.5,-633.5 345.5,-614.5 288.5,-614.5"/>
<text text-anchor="middle" x="317" y="-621.5" font-family="Helvetica,sans-Serif" font-size="10.00">terminate</text>
</a>
</g>
</g>
<!-- Node13&#45;&gt;Node27 -->
<g id="edge33" class="edge"><title>Node13&#45;&gt;Node27</title>
<path fill="none" stroke="midnightblue" d="M190.69,-640.196C213.706,-637.222 250.512,-632.464 278.292,-628.874"/>
<polygon fill="midnightblue" stroke="midnightblue" points="278.981,-632.314 288.45,-627.561 278.084,-625.372 278.981,-632.314"/>
</g>
<!-- Node15 -->
<g id="node15" class="node"><title>Node15</title>
<g id="a_node15"><a xlink:href="../../d7/d9c/cmd__connection_8c.html#a7060a5910fc55f3ab1d4c3f6f2d01330" target="_top" xlink:title="add_auth_cfg">
<polygon fill="none" stroke="red" points="606.5,-753.5 606.5,-772.5 681.5,-772.5 681.5,-753.5 606.5,-753.5"/>
<text text-anchor="middle" x="644" y="-760.5" font-family="Helvetica,sans-Serif" font-size="10.00">add_auth_cfg</text>
</a>
</g>
</g>
<!-- Node14&#45;&gt;Node15 -->
<g id="edge16" class="edge"><title>Node14&#45;&gt;Node15</title>
<path fill="none" stroke="midnightblue" d="M357.098,-761.471C375.041,-762.076 396.597,-762.703 416,-763 478.33,-763.954 550.299,-763.729 596.199,-763.418"/>
<polygon fill="midnightblue" stroke="midnightblue" points="596.459,-766.916 606.434,-763.344 596.409,-759.916 596.459,-766.916"/>
</g>
<!-- Node18 -->
<g id="node18" class="node"><title>Node18</title>
<g id="a_node18"><a xlink:href="../../de/dc5/group__child__cfg.html#ga890fe7c007e4d598eb602ecd9c695d96" target="_top" xlink:title="child_cfg_create">
<polygon fill="none" stroke="red" points="445,-494.5 445,-513.5 533,-513.5 533,-494.5 445,-494.5"/>
<text text-anchor="middle" x="489" y="-501.5" font-family="Helvetica,sans-Serif" font-size="10.00">child_cfg_create</text>
</a>
</g>
</g>
<!-- Node17&#45;&gt;Node18 -->
<g id="edge19" class="edge"><title>Node17&#45;&gt;Node18</title>
<path fill="none" stroke="midnightblue" d="M330.271,-576.289C348.153,-562.576 382.863,-537.587 416,-523 422.121,-520.305 428.709,-517.924 435.325,-515.839"/>
<polygon fill="midnightblue" stroke="midnightblue" points="436.381,-519.177 444.986,-512.995 434.405,-512.461 436.381,-519.177"/>
</g>
<!-- Node20 -->
<g id="node20" class="node"><title>Node20</title>
<g id="a_node20"><a xlink:href="../../d7/df1/group__host.html#gad1ee7d1c0d17eee7f6e204e22ea2c206" target="_top" xlink:title="host_create_from_string">
<polygon fill="none" stroke="red" points="428,-532.5 428,-551.5 550,-551.5 550,-532.5 428,-532.5"/>
<text text-anchor="middle" x="489" y="-539.5" font-family="Helvetica,sans-Serif" font-size="10.00">host_create_from_string</text>
</a>
</g>
</g>
<!-- Node17&#45;&gt;Node20 -->
<g id="edge21" class="edge"><title>Node17&#45;&gt;Node20</title>
<path fill="none" stroke="midnightblue" d="M354.887,-576.453C380.283,-569.88 414.223,-561.095 441.475,-554.042"/>
<polygon fill="midnightblue" stroke="midnightblue" points="442.381,-557.423 451.185,-551.529 440.627,-550.646 442.381,-557.423"/>
</g>
<!-- Node21 -->
<g id="node21" class="node"><title>Node21</title>
<g id="a_node21"><a xlink:href="../../dd/d64/group__proposal.html#ga92ce9c8faeb31edb2410d7182bf22c86" target="_top" xlink:title="proposal_create_default">
<polygon fill="none" stroke="red" points="429,-658.5 429,-677.5 549,-677.5 549,-658.5 429,-658.5"/>
<text text-anchor="middle" x="489" y="-665.5" font-family="Helvetica,sans-Serif" font-size="10.00">proposal_create_default</text>
</a>
</g>
</g>
<!-- Node17&#45;&gt;Node21 -->
<g id="edge22" class="edge"><title>Node17&#45;&gt;Node21</title>
<path fill="none" stroke="midnightblue" d="M361.192,-595.615C367.794,-598.09 374.298,-601.172 380,-605 400.978,-619.083 394.749,-635.332 416,-649 419.177,-651.043 422.567,-652.868 426.079,-654.496"/>
<polygon fill="midnightblue" stroke="midnightblue" points="425.02,-657.844 435.602,-658.367 427.656,-651.359 425.02,-657.844"/>
</g>
<!-- Node22 -->
<g id="node22" class="node"><title>Node22</title>
<g id="a_node22"><a xlink:href="../../dd/d64/group__proposal.html#ga1f322ca715b0c2bd794d031e64c6fc43" target="_top" xlink:title="proposal_create_default_aead">
<polygon fill="none" stroke="red" points="416,-620.5 416,-639.5 562,-639.5 562,-620.5 416,-620.5"/>
<text text-anchor="middle" x="489" y="-627.5" font-family="Helvetica,sans-Serif" font-size="10.00">proposal_create_default_aead</text>
</a>
</g>
</g>
<!-- Node17&#45;&gt;Node22 -->
<g id="edge23" class="edge"><title>Node17&#45;&gt;Node22</title>
<path fill="none" stroke="midnightblue" d="M354.887,-595.547C380.283,-602.12 414.223,-610.905 441.475,-617.958"/>
<polygon fill="midnightblue" stroke="midnightblue" points="440.627,-621.354 451.185,-620.471 442.381,-614.577 440.627,-621.354"/>
</g>
<!-- Node23 -->
<g id="node23" class="node"><title>Node23</title>
<g id="a_node23"><a xlink:href="../../d7/dff/group__traffic__selector.html#gae04e03c03653d99fb1a0900507a16549" target="_top" xlink:title="traffic_selector_create\l_from_string">
<polygon fill="none" stroke="red" points="432.5,-571 432.5,-601 545.5,-601 545.5,-571 432.5,-571"/>
<text text-anchor="start" x="440.5" y="-589" font-family="Helvetica,sans-Serif" font-size="10.00">traffic_selector_create</text>
<text text-anchor="middle" x="489" y="-578" font-family="Helvetica,sans-Serif" font-size="10.00">_from_string</text>
</a>
</g>
</g>
<!-- Node17&#45;&gt;Node23 -->
<g id="edge24" class="edge"><title>Node17&#45;&gt;Node23</title>
<path fill="none" stroke="midnightblue" d="M361.338,-586C379.768,-586 401.669,-586 422.034,-586"/>
<polygon fill="midnightblue" stroke="midnightblue" points="422.2,-589.5 432.2,-586 422.2,-582.5 422.2,-589.5"/>
</g>
<!-- Node19 -->
<g id="node19" class="node"><title>Node19</title>
<g id="a_node19"><a xlink:href="../../d3/dc0/group__linked__list.html#ga15bb4333e53dbef32d196e4388f43fdf" target="_top" xlink:title="linked_list_create">
<polygon fill="none" stroke="red" points="598,-595.5 598,-614.5 690,-614.5 690,-595.5 598,-595.5"/>
<text text-anchor="middle" x="644" y="-602.5" font-family="Helvetica,sans-Serif" font-size="10.00">linked_list_create</text>
</a>
</g>
</g>
<!-- Node18&#45;&gt;Node19 -->
<g id="edge20" class="edge"><title>Node18&#45;&gt;Node19</title>
<path fill="none" stroke="midnightblue" d="M533.364,-511.456C543.18,-514.211 553.273,-517.948 562,-523 590.405,-539.444 615.663,-568.479 630.146,-587.219"/>
<polygon fill="midnightblue" stroke="midnightblue" points="627.38,-589.365 636.186,-595.258 632.977,-585.16 627.38,-589.365"/>
</g>
<!-- Node24&#45;&gt;Node21 -->
<g id="edge31" class="edge"><title>Node24&#45;&gt;Node21</title>
<path fill="none" stroke="midnightblue" d="M360.022,-692.09C380.316,-688.27 405.044,-683.615 427.334,-679.419"/>
<polygon fill="midnightblue" stroke="midnightblue" points="428.199,-682.818 437.379,-677.529 426.904,-675.939 428.199,-682.818"/>
</g>
<!-- Node24&#45;&gt;Node22 -->
<g id="edge32" class="edge"><title>Node24&#45;&gt;Node22</title>
<path fill="none" stroke="midnightblue" d="M358.076,-690.489C365.603,-687.94 373.228,-684.806 380,-681 398.662,-670.512 397.135,-659.119 416,-649 420.262,-646.714 424.815,-644.691 429.484,-642.902"/>
<polygon fill="midnightblue" stroke="midnightblue" points="430.867,-646.127 439.173,-639.55 428.579,-639.511 430.867,-646.127"/>
</g>
<!-- Node25 -->
<g id="node25" class="node"><title>Node25</title>
<g id="a_node25"><a xlink:href="../../dd/d6e/group__ike__cfg.html#gaee966bb5aa578e493a2ab9093ba7daa1" target="_top" xlink:title="ike_cfg_create">
<polygon fill="none" stroke="red" points="449,-696.5 449,-715.5 529,-715.5 529,-696.5 449,-696.5"/>
<text text-anchor="middle" x="489" y="-703.5" font-family="Helvetica,sans-Serif" font-size="10.00">ike_cfg_create</text>
</a>
</g>
</g>
<!-- Node24&#45;&gt;Node25 -->
<g id="edge26" class="edge"><title>Node24&#45;&gt;Node25</title>
<path fill="none" stroke="midnightblue" d="M360.022,-701.483C383.874,-702.325 413.852,-703.383 438.797,-704.263"/>
<polygon fill="midnightblue" stroke="midnightblue" points="438.675,-707.761 448.792,-704.616 438.921,-700.766 438.675,-707.761"/>
</g>
<!-- Node26 -->
<g id="node26" class="node"><title>Node26</title>
<g id="a_node26"><a xlink:href="../../db/d07/group__peer__cfg.html#ga6c9fa5c7aa3d701f979c28d6766e7742" target="_top" xlink:title="peer_cfg_create">
<polygon fill="none" stroke="red" points="446,-734.5 446,-753.5 532,-753.5 532,-734.5 446,-734.5"/>
<text text-anchor="middle" x="489" y="-741.5" font-family="Helvetica,sans-Serif" font-size="10.00">peer_cfg_create</text>
</a>
</g>
</g>
<!-- Node24&#45;&gt;Node26 -->
<g id="edge28" class="edge"><title>Node24&#45;&gt;Node26</title>
<path fill="none" stroke="midnightblue" d="M354.887,-709.547C380.283,-716.12 414.223,-724.905 441.475,-731.958"/>
<polygon fill="midnightblue" stroke="midnightblue" points="440.627,-735.354 451.185,-734.471 442.381,-728.577 440.627,-735.354"/>
</g>
<!-- Node25&#45;&gt;Node19 -->
<g id="edge27" class="edge"><title>Node25&#45;&gt;Node19</title>
<path fill="none" stroke="midnightblue" d="M529.232,-699.652C540.306,-696.817 552.042,-692.765 562,-687 590.405,-670.556 615.663,-641.521 630.146,-622.781"/>
<polygon fill="midnightblue" stroke="midnightblue" points="632.977,-624.84 636.186,-614.742 627.38,-620.635 632.977,-624.84"/>
</g>
<!-- Node26&#45;&gt;Node15 -->
<g id="edge29" class="edge"><title>Node26&#45;&gt;Node15</title>
<path fill="none" stroke="midnightblue" d="M532.213,-749.242C552.113,-751.713 575.917,-754.669 596.351,-757.207"/>
<polygon fill="midnightblue" stroke="midnightblue" points="596.029,-760.694 606.384,-758.453 596.891,-753.747 596.029,-760.694"/>
</g>
<!-- Node26&#45;&gt;Node19 -->
<g id="edge30" class="edge"><title>Node26&#45;&gt;Node19</title>
<path fill="none" stroke="midnightblue" d="M532.217,-738.209C542.607,-735.394 553.252,-731.213 562,-725 598.726,-698.918 623.727,-650.546 635.422,-623.873"/>
<polygon fill="midnightblue" stroke="midnightblue" points="638.713,-625.076 639.371,-614.502 632.262,-622.357 638.713,-625.076"/>
</g>
<!-- Node29 -->
<g id="node29" class="node"><title>Node29</title>
<g id="a_node29"><a xlink:href="../../de/d9a/group__message.html#ga2c4a060592f02346b2dbf3d1df2e6e3c" target="_top" xlink:title="message_create_from\l_packet">
<polygon fill="none" stroke="black" points="260.5,-443 260.5,-473 373.5,-473 373.5,-443 260.5,-443"/>
<text text-anchor="start" x="268.5" y="-461" font-family="Helvetica,sans-Serif" font-size="10.00">message_create_from</text>
<text text-anchor="middle" x="317" y="-450" font-family="Helvetica,sans-Serif" font-size="10.00">_packet</text>
</a>
</g>
</g>
<!-- Node28&#45;&gt;Node29 -->
<g id="edge35" class="edge"><title>Node28&#45;&gt;Node29</title>
<path fill="none" stroke="midnightblue" d="M212.707,-458C224.527,-458 237.584,-458 250.325,-458"/>
<polygon fill="midnightblue" stroke="midnightblue" points="250.444,-461.5 260.444,-458 250.444,-454.5 250.444,-461.5"/>
</g>
<!-- Node31 -->
<g id="node31" class="node"><title>Node31</title>
<g id="a_node31"><a xlink:href="../../db/dd9/group__packet.html#ga860fd5eabb20eac45cf95ab30dc56a34" target="_top" xlink:title="packet_create">
<polygon fill="none" stroke="black" points="278,-388.5 278,-407.5 356,-407.5 356,-388.5 278,-388.5"/>
<text text-anchor="middle" x="317" y="-395.5" font-family="Helvetica,sans-Serif" font-size="10.00">packet_create</text>
</a>
</g>
</g>
<!-- Node28&#45;&gt;Node31 -->
<g id="edge38" class="edge"><title>Node28&#45;&gt;Node31</title>
<path fill="none" stroke="midnightblue" d="M192.293,-448.493C216.663,-438.546 255.14,-422.841 282.712,-411.587"/>
<polygon fill="midnightblue" stroke="midnightblue" points="284.394,-414.681 292.33,-407.661 281.748,-408.2 284.394,-414.681"/>
</g>
<!-- Node29&#45;&gt;Node19 -->
<g id="edge36" class="edge"><title>Node29&#45;&gt;Node19</title>
<path fill="none" stroke="midnightblue" d="M373.556,-451.463C425.936,-448.076 504.733,-450.39 562,-485 600.741,-508.414 625.061,-558.273 636.077,-585.782"/>
<polygon fill="midnightblue" stroke="midnightblue" points="632.928,-587.346 639.764,-595.441 639.468,-584.85 632.928,-587.346"/>
</g>
<!-- Node30 -->
<g id="node30" class="node"><title>Node30</title>
<g id="a_node30"><a xlink:href="../../dd/da8/group__parser.html#ga4f907e86ca85c0c5c10ad1d70a2db48b" target="_top" xlink:title="parser_create">
<polygon fill="none" stroke="black" points="451,-418.5 451,-437.5 527,-437.5 527,-418.5 451,-418.5"/>
<text text-anchor="middle" x="489" y="-425.5" font-family="Helvetica,sans-Serif" font-size="10.00">parser_create</text>
</a>
</g>
</g>
<!-- Node29&#45;&gt;Node30 -->
<g id="edge37" class="edge"><title>Node29&#45;&gt;Node30</title>
<path fill="none" stroke="midnightblue" d="M373.664,-448.177C395.467,-444.329 420.205,-439.964 441.08,-436.28"/>
<polygon fill="midnightblue" stroke="midnightblue" points="441.749,-439.716 450.988,-434.532 440.532,-432.823 441.749,-439.716"/>
</g>
<!-- Node32 -->
<g id="node32" class="node"><title>Node32</title>
<g id="a_node32"><a xlink:href="../../db/dd9/group__packet.html#ga09772f9176b3dc9c958bc821f515be79" target="_top" xlink:title="packet_create_from_data">
<polygon fill="none" stroke="black" points="425.5,-380.5 425.5,-399.5 552.5,-399.5 552.5,-380.5 425.5,-380.5"/>
<text text-anchor="middle" x="489" y="-387.5" font-family="Helvetica,sans-Serif" font-size="10.00">packet_create_from_data</text>
</a>
</g>
</g>
<!-- Node31&#45;&gt;Node32 -->
<g id="edge39" class="edge"><title>Node31&#45;&gt;Node32</title>
<path fill="none" stroke="midnightblue" d="M356.151,-396.205C373.57,-395.385 394.807,-394.386 415.103,-393.43"/>
<polygon fill="midnightblue" stroke="midnightblue" points="415.462,-396.918 425.287,-392.951 415.133,-389.925 415.462,-396.918"/>
</g>
<!-- Node34 -->
<g id="node34" class="node"><title>Node34</title>
<g id="a_node34"><a xlink:href="../../d9/d32/connect__manager_8c.html#a9dcaddd1fa6089a78bc2c65fde83817a" target="_top" xlink:title="finish_checks">
<polygon fill="none" stroke="black" points="278.5,-228.5 278.5,-247.5 355.5,-247.5 355.5,-228.5 278.5,-228.5"/>
<text text-anchor="middle" x="317" y="-235.5" font-family="Helvetica,sans-Serif" font-size="10.00">finish_checks</text>
</a>
</g>
</g>
<!-- Node33&#45;&gt;Node34 -->
<g id="edge41" class="edge"><title>Node33&#45;&gt;Node34</title>
<path fill="none" stroke="midnightblue" d="M193.604,-285.459C217.772,-276.088 254.847,-261.712 281.861,-251.238"/>
<polygon fill="midnightblue" stroke="midnightblue" points="283.257,-254.45 291.315,-247.572 280.726,-247.924 283.257,-254.45"/>
</g>
<!-- Node42 -->
<g id="node42" class="node"><title>Node42</title>
<g id="a_node42"><a xlink:href="../../d9/d32/connect__manager_8c.html#a7f4c528dceb6dc21cbeeb405365db27d" target="_top" xlink:title="get_checklist_by_id">
<polygon fill="none" stroke="black" points="265.5,-190.5 265.5,-209.5 368.5,-209.5 368.5,-190.5 265.5,-190.5"/>
<text text-anchor="middle" x="317" y="-197.5" font-family="Helvetica,sans-Serif" font-size="10.00">get_checklist_by_id</text>
</a>
</g>
</g>
<!-- Node33&#45;&gt;Node42 -->
<g id="edge49" class="edge"><title>Node33&#45;&gt;Node42</title>
<path fill="none" stroke="midnightblue" d="M177.169,-285.376C191.264,-269.354 221.756,-237.183 254,-219 257.855,-216.826 261.988,-214.872 266.223,-213.121"/>
<polygon fill="midnightblue" stroke="midnightblue" points="267.455,-216.397 275.588,-209.607 264.996,-209.843 267.455,-216.397"/>
</g>
<!-- Node44 -->
<g id="node44" class="node"><title>Node44</title>
<g id="a_node44"><a xlink:href="../../d9/d32/connect__manager_8c.html#ad3444748ac94a8c84f02bee5d2050580" target="_top" xlink:title="get_pair_by_id">
<polygon fill="none" stroke="black" points="277,-152.5 277,-171.5 357,-171.5 357,-152.5 277,-152.5"/>
<text text-anchor="middle" x="317" y="-159.5" font-family="Helvetica,sans-Serif" font-size="10.00">get_pair_by_id</text>
</a>
</g>
</g>
<!-- Node33&#45;&gt;Node44 -->
<g id="edge51" class="edge"><title>Node33&#45;&gt;Node44</title>
<path fill="none" stroke="midnightblue" d="M173.467,-285.432C184.169,-263.558 213.434,-209.579 254,-181 258.15,-178.076 262.762,-175.593 267.544,-173.486"/>
<polygon fill="midnightblue" stroke="midnightblue" points="268.808,-176.75 276.873,-169.88 266.284,-170.22 268.808,-176.75"/>
</g>
<!-- Node46 -->
<g id="node46" class="node"><title>Node46</title>
<g id="a_node46"><a xlink:href="../../d9/d32/connect__manager_8c.html#a78416603d2ebd2bb0dcf49e3ccd4ae9c" target="_top" xlink:title="queue_retransmission">
<polygon fill="none" stroke="red" points="261,-285.5 261,-304.5 373,-304.5 373,-285.5 261,-285.5"/>
<text text-anchor="middle" x="317" y="-292.5" font-family="Helvetica,sans-Serif" font-size="10.00">queue_retransmission</text>
</a>
</g>
</g>
<!-- Node33&#45;&gt;Node46 -->
<g id="edge53" class="edge"><title>Node33&#45;&gt;Node46</title>
<path fill="none" stroke="midnightblue" d="M198.042,-289.496C213.151,-288.521 232.273,-288.118 250.699,-288.287"/>
<polygon fill="midnightblue" stroke="midnightblue" points="250.783,-291.789 260.835,-288.44 250.889,-284.79 250.783,-291.789"/>
</g>
<!-- Node48 -->
<g id="node48" class="node"><title>Node48</title>
<g id="a_node48"><a xlink:href="../../d9/d32/connect__manager_8c.html#ac98deeff0f6b21552e296f73f8aeac5a" target="_top" xlink:title="update_checklist_state">
<polygon fill="none" stroke="red" points="258.5,-323.5 258.5,-342.5 375.5,-342.5 375.5,-323.5 258.5,-323.5"/>
<text text-anchor="middle" x="317" y="-330.5" font-family="Helvetica,sans-Serif" font-size="10.00">update_checklist_state</text>
</a>
</g>
</g>
<!-- Node33&#45;&gt;Node48 -->
<g id="edge57" class="edge"><title>Node33&#45;&gt;Node48</title>
<path fill="none" stroke="midnightblue" d="M198.042,-302.508C218.396,-307.769 246.035,-314.914 269.442,-320.965"/>
<polygon fill="midnightblue" stroke="midnightblue" points="268.624,-324.368 279.181,-323.482 270.376,-317.591 268.624,-324.368"/>
</g>
<!-- Node35 -->
<g id="node35" class="node"><title>Node35</title>
<g id="a_node35"><a xlink:href="../../d0/d8f/group__callback__job.html#ga6934f856d27d82413610263e27a5cfa1" target="_top" xlink:title="callback_job_create">
<polygon fill="none" stroke="red" points="437.5,-304.5 437.5,-323.5 540.5,-323.5 540.5,-304.5 437.5,-304.5"/>
<text text-anchor="middle" x="489" y="-311.5" font-family="Helvetica,sans-Serif" font-size="10.00">callback_job_create</text>
</a>
</g>
</g>
<!-- Node34&#45;&gt;Node35 -->
<g id="edge42" class="edge"><title>Node34&#45;&gt;Node35</title>
<path fill="none" stroke="midnightblue" d="M333.302,-247.581C356.432,-261.945 399.359,-288.113 416,-295 421.879,-297.433 428.159,-299.633 434.469,-301.6"/>
<polygon fill="midnightblue" stroke="midnightblue" points="433.773,-305.043 444.354,-304.497 435.742,-298.326 433.773,-305.043"/>
</g>
<!-- Node36 -->
<g id="node36" class="node"><title>Node36</title>
<g id="a_node36"><a xlink:href="../../d9/d32/connect__manager_8c.html#a252718c2e4d5f1bbe3108c6e6a78089d" target="_top" xlink:title="get_initiated_by_ids">
<polygon fill="none" stroke="red" points="437.5,-266.5 437.5,-285.5 540.5,-285.5 540.5,-266.5 437.5,-266.5"/>
<text text-anchor="middle" x="489" y="-273.5" font-family="Helvetica,sans-Serif" font-size="10.00">get_initiated_by_ids</text>
</a>
</g>
</g>
<!-- Node34&#45;&gt;Node36 -->
<g id="edge43" class="edge"><title>Node34&#45;&gt;Node36</title>
<path fill="none" stroke="midnightblue" d="M355.729,-246.433C379.131,-251.665 409.543,-258.463 435.305,-264.221"/>
<polygon fill="midnightblue" stroke="midnightblue" points="434.768,-267.687 445.29,-266.453 436.295,-260.856 434.768,-267.687"/>
</g>
<!-- Node37 -->
<g id="node37" class="node"><title>Node37</title>
<g id="a_node37"><a xlink:href="../../d9/d32/connect__manager_8c.html#a8559cb19d0de88fdf10609a877eff37b" target="_top" xlink:title="initiate_data_create">
<polygon fill="none" stroke="black" points="438.5,-228.5 438.5,-247.5 539.5,-247.5 539.5,-228.5 438.5,-228.5"/>
<text text-anchor="middle" x="489" y="-235.5" font-family="Helvetica,sans-Serif" font-size="10.00">initiate_data_create</text>
</a>
</g>
</g>
<!-- Node34&#45;&gt;Node37 -->
<g id="edge44" class="edge"><title>Node34&#45;&gt;Node37</title>
<path fill="none" stroke="midnightblue" d="M355.729,-238C377.041,-238 404.167,-238 428.299,-238"/>
<polygon fill="midnightblue" stroke="midnightblue" points="428.433,-241.5 438.433,-238 428.433,-234.5 428.433,-241.5"/>
</g>
<!-- Node38 -->
<g id="node38" class="node"><title>Node38</title>
<g id="a_node38"><a xlink:href="../../d9/d32/connect__manager_8c.html#a0d29eaeb694f6f1788cfc3d61d071c40" target="_top" xlink:title="initiate_data_destroy">
<polygon fill="none" stroke="red" points="435.5,-190.5 435.5,-209.5 542.5,-209.5 542.5,-190.5 435.5,-190.5"/>
<text text-anchor="middle" x="489" y="-197.5" font-family="Helvetica,sans-Serif" font-size="10.00">initiate_data_destroy</text>
</a>
</g>
</g>
<!-- Node34&#45;&gt;Node38 -->
<g id="edge45" class="edge"><title>Node34&#45;&gt;Node38</title>
<path fill="none" stroke="midnightblue" d="M355.729,-229.567C379.131,-224.335 409.543,-217.537 435.305,-211.779"/>
<polygon fill="midnightblue" stroke="midnightblue" points="436.295,-215.144 445.29,-209.547 434.768,-208.313 436.295,-215.144"/>
</g>
<!-- Node39 -->
<g id="node39" class="node"><title>Node39</title>
<g id="a_node39"><a xlink:href="../../d9/d32/connect__manager_8c.html#afdb47aae9398372e2388293318af306d" target="_top" xlink:title="initiate_mediated">
<polygon fill="none" stroke="red" points="444,-152.5 444,-171.5 534,-171.5 534,-152.5 444,-152.5"/>
<text text-anchor="middle" x="489" y="-159.5" font-family="Helvetica,sans-Serif" font-size="10.00">initiate_mediated</text>
</a>
</g>
</g>
<!-- Node34&#45;&gt;Node39 -->
<g id="edge46" class="edge"><title>Node34&#45;&gt;Node39</title>
<path fill="none" stroke="midnightblue" d="M355.74,-229.821C364.087,-227.106 372.632,-223.567 380,-219 399.774,-206.743 395.989,-192.865 416,-181 421.546,-177.711 427.664,-174.983 433.921,-172.722"/>
<polygon fill="midnightblue" stroke="midnightblue" points="435.358,-175.936 443.804,-169.538 433.212,-169.273 435.358,-175.936"/>
</g>
<!-- Node40 -->
<g id="node40" class="node"><title>Node40</title>
<g id="a_node40"><a xlink:href="../../d9/d32/connect__manager_8c.html#a71a2ee0ed91e3afbeb8131393d883cb6" target="_top" xlink:title="remove_checklist">
<polygon fill="none" stroke="black" points="442.5,-114.5 442.5,-133.5 535.5,-133.5 535.5,-114.5 442.5,-114.5"/>
<text text-anchor="middle" x="489" y="-121.5" font-family="Helvetica,sans-Serif" font-size="10.00">remove_checklist</text>
</a>
</g>
</g>
<!-- Node34&#45;&gt;Node40 -->
<g id="edge47" class="edge"><title>Node34&#45;&gt;Node40</title>
<path fill="none" stroke="midnightblue" d="M355.636,-231.864C364.362,-229.056 373.102,-224.964 380,-219 408.274,-194.555 387.251,-166.884 416,-143 420.96,-138.88 426.72,-135.644 432.78,-133.104"/>
<polygon fill="midnightblue" stroke="midnightblue" points="434.227,-136.304 442.478,-129.659 431.884,-129.708 434.227,-136.304"/>
</g>
<!-- Node41 -->
<g id="node41" class="node"><title>Node41</title>
<g id="a_node41"><a xlink:href="../../d9/d32/connect__manager_8c.html#aa4bec40c6319b65a56f13c6ac927e2a6" target="_top" xlink:title="remove_initiated">
<polygon fill="none" stroke="black" points="445,-76.5 445,-95.5 533,-95.5 533,-76.5 445,-76.5"/>
<text text-anchor="middle" x="489" y="-83.5" font-family="Helvetica,sans-Serif" font-size="10.00">remove_initiated</text>
</a>
</g>
</g>
<!-- Node34&#45;&gt;Node41 -->
<g id="edge48" class="edge"><title>Node34&#45;&gt;Node41</title>
<path fill="none" stroke="midnightblue" d="M355.583,-232.71C364.515,-229.889 373.365,-225.579 380,-219 417.73,-181.59 377.541,-141.661 416,-105 421.404,-99.8487 428.034,-96.0546 435.062,-93.2676"/>
<polygon fill="midnightblue" stroke="midnightblue" points="436.409,-96.509 444.814,-90.0584 434.221,-89.8598 436.409,-96.509"/>
</g>
<!-- Node43 -->
<g id="node43" class="node"><title>Node43</title>
<g id="a_node43"><a xlink:href="../../d9/d32/connect__manager_8c.html#a48e6c7d1bc525dc1f2627c117ec8fcdf" target="_top" xlink:title="match_checklist_by_id">
<polygon fill="none" stroke="red" points="431,-38.5 431,-57.5 547,-57.5 547,-38.5 431,-38.5"/>
<text text-anchor="middle" x="489" y="-45.5" font-family="Helvetica,sans-Serif" font-size="10.00">match_checklist_by_id</text>
</a>
</g>
</g>
<!-- Node42&#45;&gt;Node43 -->
<g id="edge50" class="edge"><title>Node42&#45;&gt;Node43</title>
<path fill="none" stroke="midnightblue" d="M366.372,-190.44C371.394,-187.977 376.083,-184.884 380,-181 417.73,-143.59 377.541,-103.661 416,-67 417.883,-65.2048 419.915,-63.5745 422.061,-62.0942"/>
<polygon fill="midnightblue" stroke="midnightblue" points="423.874,-65.0897 430.828,-57.0968 420.407,-59.0083 423.874,-65.0897"/>
</g>
<!-- Node45 -->
<g id="node45" class="node"><title>Node45</title>
<g id="a_node45"><a xlink:href="../../d9/d32/connect__manager_8c.html#a400f08f0e05fafddf2c8309abade7b68" target="_top" xlink:title="match_pair_by_id">
<polygon fill="none" stroke="black" points="442.5,-0.5 442.5,-19.5 535.5,-19.5 535.5,-0.5 442.5,-0.5"/>
<text text-anchor="middle" x="489" y="-7.5" font-family="Helvetica,sans-Serif" font-size="10.00">match_pair_by_id</text>
</a>
</g>
</g>
<!-- Node44&#45;&gt;Node45 -->
<g id="edge52" class="edge"><title>Node44&#45;&gt;Node45</title>
<path fill="none" stroke="midnightblue" d="M357.196,-156.184C365.573,-153.362 373.764,-149.183 380,-143 417.73,-105.59 377.541,-65.6607 416,-29 420.729,-24.4926 426.396,-21.0243 432.446,-18.3606"/>
<polygon fill="midnightblue" stroke="midnightblue" points="433.998,-21.5203 442.191,-14.8033 431.597,-14.9447 433.998,-21.5203"/>
</g>
<!-- Node46&#45;&gt;Node33 -->
<g id="edge56" class="edge"><title>Node46&#45;&gt;Node33</title>
<path fill="none" stroke="midnightblue" d="M260.835,-301.56C243.328,-301.93 224.339,-301.76 208.196,-301.049"/>
<polygon fill="midnightblue" stroke="midnightblue" points="208.216,-297.545 198.042,-300.504 207.84,-304.535 208.216,-297.545"/>
</g>
<!-- Node46&#45;&gt;Node35 -->
<g id="edge55" class="edge"><title>Node46&#45;&gt;Node35</title>
<path fill="none" stroke="midnightblue" d="M373.194,-301.169C390.457,-303.098 409.597,-305.237 427.222,-307.207"/>
<polygon fill="midnightblue" stroke="midnightblue" points="427.071,-310.712 437.398,-308.344 427.849,-303.755 427.071,-310.712"/>
</g>
<!-- Node47 -->
<g id="node47" class="node"><title>Node47</title>
<g id="a_node47"><a xlink:href="../../d9/d32/connect__manager_8c.html#a4674a63e69fa1940f68b6d6d4532d1dc" target="_top" xlink:title="callback_data_destroy">
<polygon fill="none" stroke="red" points="432,-342.5 432,-361.5 546,-361.5 546,-342.5 432,-342.5"/>
<text text-anchor="middle" x="489" y="-349.5" font-family="Helvetica,sans-Serif" font-size="10.00">callback_data_destroy</text>
</a>
</g>
</g>
<!-- Node46&#45;&gt;Node47 -->
<g id="edge54" class="edge"><title>Node46&#45;&gt;Node47</title>
<path fill="none" stroke="midnightblue" d="M353.165,-304.519C362.039,-307.262 371.467,-310.478 380,-314 396.723,-320.903 399.145,-326.427 416,-333 422.231,-335.43 428.884,-337.654 435.534,-339.655"/>
<polygon fill="midnightblue" stroke="midnightblue" points="434.649,-343.042 445.226,-342.427 436.574,-336.312 434.649,-343.042"/>
</g>
<!-- Node48&#45;&gt;Node35 -->
<g id="edge59" class="edge"><title>Node48&#45;&gt;Node35</title>
<path fill="none" stroke="midnightblue" d="M375.554,-326.567C392.146,-324.713 410.301,-322.684 427.089,-320.808"/>
<polygon fill="midnightblue" stroke="midnightblue" points="427.79,-324.251 437.34,-319.662 427.013,-317.295 427.79,-324.251"/>
</g>
<!-- Node48&#45;&gt;Node47 -->
<g id="edge58" class="edge"><title>Node48&#45;&gt;Node47</title>
<path fill="none" stroke="midnightblue" d="M375.554,-339.433C390.346,-341.086 406.38,-342.878 421.581,-344.577"/>
<polygon fill="midnightblue" stroke="midnightblue" points="421.619,-348.103 431.946,-345.735 422.396,-341.146 421.619,-348.103"/>
</g>
<!-- Node50 -->
<g id="node50" class="node"><title>Node50</title>
<g id="a_node50"><a xlink:href="../../d1/d0e/group__array.html#ga58c74ec30d19f124535db5b5b94a1abc" target="_top" xlink:title="array_create_enumerator">
<polygon fill="none" stroke="red" points="254.5,-114.5 254.5,-133.5 379.5,-133.5 379.5,-114.5 254.5,-114.5"/>
<text text-anchor="middle" x="317" y="-121.5" font-family="Helvetica,sans-Serif" font-size="10.00">array_create_enumerator</text>
</a>
</g>
</g>
<!-- Node49&#45;&gt;Node50 -->
<g id="edge61" class="edge"><title>Node49&#45;&gt;Node50</title>
<path fill="none" stroke="midnightblue" d="M188.635,-171.393C205.68,-163.253 231.147,-151.573 254,-143 259.949,-140.768 266.288,-138.597 272.557,-136.568"/>
<polygon fill="midnightblue" stroke="midnightblue" points="273.793,-139.849 282.282,-133.509 271.693,-133.171 273.793,-139.849"/>
</g>
</g>
</svg>
