<?xml version="1.0" encoding="UTF-8" standalone="no"?>
<!DOCTYPE svg PUBLIC "-//W3C//DTD SVG 1.1//EN"
 "http://www.w3.org/Graphics/SVG/1.1/DTD/svg11.dtd">
<!-- Generated by graphviz version 2.36.0 (20140111.2315)
 -->
<!-- Title: memstr Pages: 1 -->
<svg width="790pt" height="85pt"
 viewBox="0.00 0.00 790.00 85.00" xmlns="http://www.w3.org/2000/svg" xmlns:xlink="http://www.w3.org/1999/xlink">
<g id="graph0" class="graph" transform="scale(1 1) rotate(0) translate(4 81)">
<title>memstr</title>
<!-- Node1 -->
<g id="node1" class="node"><title>Node1</title>
<polygon fill="#bfbfbf" stroke="black" points="0,-19.5 0,-38.5 50,-38.5 50,-19.5 0,-19.5"/>
<text text-anchor="middle" x="25" y="-26.5" font-family="Helvetica,sans-Serif" font-size="10.00">memstr</text>
</g>
<!-- Node2 -->
<g id="node2" class="node"><title>Node2</title>
<g id="a_node2"><a xlink:href="../../d0/db8/group__lexparser.html#ga8856796f54e45db62fe903c7dc2182b2" target="_top" xlink:title="extract_token_str">
<polygon fill="none" stroke="black" points="86,-38.5 86,-57.5 178,-57.5 178,-38.5 86,-38.5"/>
<text text-anchor="middle" x="132" y="-45.5" font-family="Helvetica,sans-Serif" font-size="10.00">extract_token_str</text>
</a>
</g>
</g>
<!-- Node1&#45;&gt;Node2 -->
<g id="edge1" class="edge"><title>Node1&#45;&gt;Node2</title>
<path fill="none" stroke="midnightblue" d="M60.0974,-35.17C68.3497,-36.6633 77.2965,-38.2822 85.966,-39.851"/>
<polygon fill="midnightblue" stroke="midnightblue" points="60.5526,-31.6956 50.0891,-33.359 59.3061,-38.5837 60.5526,-31.6956"/>
</g>
<!-- Node9 -->
<g id="node9" class="node"><title>Node9</title>
<g id="a_node9"><a xlink:href="../../d9/dbe/test__utils_8c.html#aafc5852ac43cdbce965eea8667210474" target="_top" xlink:title="START_TEST">
<polygon fill="none" stroke="black" points="92,-0.5 92,-19.5 172,-19.5 172,-0.5 92,-0.5"/>
<text text-anchor="middle" x="132" y="-7.5" font-family="Helvetica,sans-Serif" font-size="10.00">START_TEST</text>
</a>
</g>
</g>
<!-- Node1&#45;&gt;Node9 -->
<g id="edge8" class="edge"><title>Node1&#45;&gt;Node9</title>
<path fill="none" stroke="midnightblue" d="M60.1662,-22.8175C70.2675,-20.9897 81.4043,-18.9745 91.7969,-17.0939"/>
<polygon fill="midnightblue" stroke="midnightblue" points="59.3061,-19.4163 50.0891,-24.641 60.5526,-26.3044 59.3061,-19.4163"/>
</g>
<!-- Node3 -->
<g id="node3" class="node"><title>Node3</title>
<g id="a_node3"><a xlink:href="../../d8/db1/stroke__cred_8c.html#a5d1f52721e54438ad930da40c5c991d7" target="_top" xlink:title="load_secrets">
<polygon fill="none" stroke="black" points="214,-38.5 214,-57.5 286,-57.5 286,-38.5 214,-38.5"/>
<text text-anchor="middle" x="250" y="-45.5" font-family="Helvetica,sans-Serif" font-size="10.00">load_secrets</text>
</a>
</g>
</g>
<!-- Node2&#45;&gt;Node3 -->
<g id="edge2" class="edge"><title>Node2&#45;&gt;Node3</title>
<path fill="none" stroke="midnightblue" d="M188.295,-48C196.983,-48 205.752,-48 213.82,-48"/>
<polygon fill="midnightblue" stroke="midnightblue" points="188.181,-44.5001 178.181,-48 188.181,-51.5001 188.181,-44.5001"/>
</g>
<!-- Node4 -->
<g id="node4" class="node"><title>Node4</title>
<g id="a_node4"><a xlink:href="../../d8/db1/stroke__cred_8c.html#ac707a0aa93f26613e2ae29b1970c4798" target="_top" xlink:title="METHOD">
<polygon fill="none" stroke="black" points="342,-57.5 342,-76.5 402,-76.5 402,-57.5 342,-57.5"/>
<text text-anchor="middle" x="372" y="-64.5" font-family="Helvetica,sans-Serif" font-size="10.00">METHOD</text>
</a>
</g>
</g>
<!-- Node3&#45;&gt;Node4 -->
<g id="edge3" class="edge"><title>Node3&#45;&gt;Node4</title>
<path fill="none" stroke="midnightblue" d="M296.313,-55.1746C311.552,-57.5873 328.136,-60.2132 341.798,-62.3764"/>
<polygon fill="midnightblue" stroke="midnightblue" points="296.456,-51.6537 286.032,-53.5467 295.361,-58.5675 296.456,-51.6537"/>
</g>
<!-- Node5 -->
<g id="node5" class="node"><title>Node5</title>
<g id="a_node5"><a xlink:href="../../d4/ddf/group__stroke__cred.html#ga54afc73bedd2dda57cfbeb130062849a" target="_top" xlink:title="stroke_cred_create">
<polygon fill="none" stroke="black" points="322,-19.5 322,-38.5 422,-38.5 422,-19.5 322,-19.5"/>
<text text-anchor="middle" x="372" y="-26.5" font-family="Helvetica,sans-Serif" font-size="10.00">stroke_cred_create</text>
</a>
</g>
</g>
<!-- Node3&#45;&gt;Node5 -->
<g id="edge4" class="edge"><title>Node3&#45;&gt;Node5</title>
<path fill="none" stroke="midnightblue" d="M296.056,-40.8661C304.485,-39.5315 313.334,-38.1304 321.879,-36.7775"/>
<polygon fill="midnightblue" stroke="midnightblue" points="295.361,-37.4325 286.032,-42.4533 296.456,-44.3463 295.361,-37.4325"/>
</g>
<!-- Node6 -->
<g id="node6" class="node"><title>Node6</title>
<g id="a_node6"><a xlink:href="../../d3/d5b/group__stroke__socket.html#gad1f5f8940280e2e2b5066540a33f75af" target="_top" xlink:title="stroke_socket_create">
<polygon fill="none" stroke="black" points="458,-19.5 458,-38.5 568,-38.5 568,-19.5 458,-19.5"/>
<text text-anchor="middle" x="513" y="-26.5" font-family="Helvetica,sans-Serif" font-size="10.00">stroke_socket_create</text>
</a>
</g>
</g>
<!-- Node5&#45;&gt;Node6 -->
<g id="edge5" class="edge"><title>Node5&#45;&gt;Node6</title>
<path fill="none" stroke="midnightblue" d="M432.211,-29C440.691,-29 449.38,-29 457.758,-29"/>
<polygon fill="midnightblue" stroke="midnightblue" points="432.006,-25.5001 422.006,-29 432.006,-32.5001 432.006,-25.5001"/>
</g>
<!-- Node7 -->
<g id="node7" class="node"><title>Node7</title>
<g id="a_node7"><a xlink:href="../../d0/d10/stroke__plugin_8c.html#a6fec94fe501805d572fe2fb64018d91a" target="_top" xlink:title="register_stroke">
<polygon fill="none" stroke="black" points="604.5,-19.5 604.5,-38.5 685.5,-38.5 685.5,-19.5 604.5,-19.5"/>
<text text-anchor="middle" x="645" y="-26.5" font-family="Helvetica,sans-Serif" font-size="10.00">register_stroke</text>
</a>
</g>
</g>
<!-- Node6&#45;&gt;Node7 -->
<g id="edge6" class="edge"><title>Node6&#45;&gt;Node7</title>
<path fill="none" stroke="midnightblue" d="M578.042,-29C586.975,-29 595.932,-29 604.238,-29"/>
<polygon fill="midnightblue" stroke="midnightblue" points="578.002,-25.5001 568.002,-29 578.002,-32.5001 578.002,-25.5001"/>
</g>
<!-- Node8 -->
<g id="node8" class="node"><title>Node8</title>
<g id="a_node8"><a xlink:href="../../d0/d10/stroke__plugin_8c.html#a5df13da493d5d6ff660fcf6f2eca38ca" target="_top" xlink:title="METHOD">
<polygon fill="none" stroke="black" points="722,-19.5 722,-38.5 782,-38.5 782,-19.5 722,-19.5"/>
<text text-anchor="middle" x="752" y="-26.5" font-family="Helvetica,sans-Serif" font-size="10.00">METHOD</text>
</a>
</g>
</g>
<!-- Node7&#45;&gt;Node8 -->
<g id="edge7" class="edge"><title>Node7&#45;&gt;Node8</title>
<path fill="none" stroke="midnightblue" d="M695.954,-29C704.782,-29 713.705,-29 721.723,-29"/>
<polygon fill="midnightblue" stroke="midnightblue" points="695.696,-25.5001 685.696,-29 695.696,-32.5001 695.696,-25.5001"/>
</g>
</g>
</svg>
