<?xml version="1.0" encoding="UTF-8" standalone="no"?>
<!DOCTYPE svg PUBLIC "-//W3C//DTD SVG 1.1//EN"
 "http://www.w3.org/Graphics/SVG/1.1/DTD/svg11.dtd">
<!-- Generated by graphviz version 2.36.0 (20140111.2315)
 -->
<!-- Title: METHOD Pages: 1 -->
<!--zoomable 434 -->
<svg id="main" version="1.1" xmlns="http://www.w3.org/2000/svg" xmlns:xlink="http://www.w3.org/1999/xlink" xml:space="preserve" onload="init(evt)">
<style type="text/css"><![CDATA[
.edge:hover path { stroke: red; }
.edge:hover polygon { stroke: red; fill: red; }
]]></style>
<script type="text/javascript"><![CDATA[
var edges = document.getElementsByTagName('g');
if (edges && edges.length) {
  for (var i=0;i<edges.length;i++) {
    if (edges[i].id.substr(0,4)=='edge') {
      edges[i].setAttribute('class','edge');
    }
  }
}
]]></script>
        <defs>
                <circle id="rim" cx="0" cy="0" r="7"/>
                <circle id="rim2" cx="0" cy="0" r="3.5"/>
                <g id="zoomPlus">
                        <use xlink:href="#rim" fill="#404040">
                                <set attributeName="fill" to="#808080" begin="zoomplus.mouseover" end="zoomplus.mouseout"/>
                        </use>
                        <path d="M-4,0h8M0,-4v8" fill="none" stroke="white" stroke-width="1.5" pointer-events="none"/>
                </g>
                <g id="zoomMin">
                        <use xlink:href="#rim" fill="#404040">
                                <set attributeName="fill" to="#808080" begin="zoomminus.mouseover" end="zoomminus.mouseout"/>
                        </use>
                        <path d="M-4,0h8" fill="none" stroke="white" stroke-width="1.5" pointer-events="none"/>
                </g>
                <g id="dirArrow">
                        <path fill="none" stroke="white" stroke-width="1.5" d="M0,-3.0v7 M-2.5,-0.5L0,-3.0L2.5,-0.5"/>
                </g>
               <g id="resetDef">
                       <use xlink:href="#rim2" fill="#404040">
                               <set attributeName="fill" to="#808080" begin="reset.mouseover" end="reset.mouseout"/>
                       </use>
               </g>
        </defs>

<script type="text/javascript">
var viewWidth = 616;
var viewHeight = 434;
var sectionId = 'dynsection-22';
</script>
<script xlink:href="../../svgpan.js"/>
<svg id="graph" class="graph">
<g id="viewport">
<title>METHOD</title>
<!-- Node1 -->
<g id="node1" class="node"><title>Node1</title>
<polygon fill="#bfbfbf" stroke="black" points="0,-169.653 0,-188.653 60,-188.653 60,-169.653 0,-169.653"/>
<text text-anchor="middle" x="30" y="-176.653" font-family="Helvetica,sans-Serif" font-size="10.00">METHOD</text>
</g>
<!-- Node2 -->
<g id="node2" class="node"><title>Node2</title>
<g id="a_node2"><a xlink:href="../../de/d62/crypto__tester_8c.html#a552c64a3cdea02b427ad7881ff4898b8" target="_top" xlink:title="bench_dh">
<polygon fill="none" stroke="black" points="105.5,-207.653 105.5,-226.653 164.5,-226.653 164.5,-207.653 105.5,-207.653"/>
<text text-anchor="middle" x="135" y="-214.653" font-family="Helvetica,sans-Serif" font-size="10.00">bench_dh</text>
</a>
</g>
</g>
<!-- Node1&#45;&gt;Node2 -->
<g id="edge1" class="edge"><title>Node1&#45;&gt;Node2</title>
<path fill="none" stroke="midnightblue" d="M56.9912,-188.742C69.5557,-193.377 84.8301,-199.013 98.4523,-204.038"/>
<polygon fill="midnightblue" stroke="midnightblue" points="97.4237,-207.389 108.017,-207.567 99.8467,-200.822 97.4237,-207.389"/>
</g>
<!-- Node3 -->
<g id="node3" class="node"><title>Node3</title>
<g id="a_node3"><a xlink:href="../../d4/d87/group__chunk.html#gaa86c84493369a4254d5801cdca20d458" target="_top" xlink:title="chunk_free">
<polygon fill="none" stroke="black" points="210.5,-169.653 210.5,-188.653 275.5,-188.653 275.5,-169.653 210.5,-169.653"/>
<text text-anchor="middle" x="243" y="-176.653" font-family="Helvetica,sans-Serif" font-size="10.00">chunk_free</text>
</a>
</g>
</g>
<!-- Node1&#45;&gt;Node3 -->
<g id="edge31" class="edge"><title>Node1&#45;&gt;Node3</title>
<path fill="none" stroke="midnightblue" d="M60.3386,-179.153C96.6663,-179.153 158.791,-179.153 200.123,-179.153"/>
<polygon fill="midnightblue" stroke="midnightblue" points="200.154,-182.653 210.154,-179.153 200.154,-175.653 200.154,-182.653"/>
</g>
<!-- Node13 -->
<g id="node13" class="node"><title>Node13</title>
<g id="a_node13"><a xlink:href="../../d4/d87/group__chunk.html#gad94ca029616a107e89eaa618408fd7b6" target="_top" xlink:title="chunk_create">
<polygon fill="none" stroke="black" points="532.5,-283.653 532.5,-302.653 607.5,-302.653 607.5,-283.653 532.5,-283.653"/>
<text text-anchor="middle" x="570" y="-290.653" font-family="Helvetica,sans-Serif" font-size="10.00">chunk_create</text>
</a>
</g>
</g>
<!-- Node1&#45;&gt;Node13 -->
<g id="edge28" class="edge"><title>Node1&#45;&gt;Node13</title>
<path fill="none" stroke="midnightblue" d="M33.8558,-188.836C47.9782,-234.502 114.822,-426.153 242,-426.153 242,-426.153 242,-426.153 341,-426.153 414.399,-426.153 434.701,-409.525 496,-369.153 515.429,-356.357 515.885,-347.932 532,-331.153 538.548,-324.336 545.794,-316.875 552.125,-310.384"/>
<polygon fill="midnightblue" stroke="midnightblue" points="555.049,-312.4 559.535,-302.801 550.043,-307.507 555.049,-312.4"/>
</g>
<!-- Node17 -->
<g id="node17" class="node"><title>Node17</title>
<g id="a_node17"><a xlink:href="../../d4/d87/group__chunk.html#gae6aabf03218cda073ab2173e02bff4ba" target="_top" xlink:title="chunk_equals">
<polygon fill="none" stroke="black" points="96.5,-131.653 96.5,-150.653 173.5,-150.653 173.5,-131.653 96.5,-131.653"/>
<text text-anchor="middle" x="135" y="-138.653" font-family="Helvetica,sans-Serif" font-size="10.00">chunk_equals</text>
</a>
</g>
</g>
<!-- Node1&#45;&gt;Node17 -->
<g id="edge29" class="edge"><title>Node1&#45;&gt;Node17</title>
<path fill="none" stroke="midnightblue" d="M56.9912,-169.564C69.5557,-164.929 84.8301,-159.293 98.4523,-154.268"/>
<polygon fill="midnightblue" stroke="midnightblue" points="99.8467,-157.484 108.017,-150.739 97.4237,-150.917 99.8467,-157.484"/>
</g>
<!-- Node19 -->
<g id="node19" class="node"><title>Node19</title>
<g id="a_node19"><a xlink:href="../../de/d62/crypto__tester_8c.html#a982ea43835a1cd2ac8689a462adb57e6" target="_top" xlink:title="get_name">
<polygon fill="none" stroke="black" points="105.5,-93.653 105.5,-112.653 164.5,-112.653 164.5,-93.653 105.5,-93.653"/>
<text text-anchor="middle" x="135" y="-100.653" font-family="Helvetica,sans-Serif" font-size="10.00">get_name</text>
</a>
</g>
</g>
<!-- Node1&#45;&gt;Node19 -->
<g id="edge32" class="edge"><title>Node1&#45;&gt;Node19</title>
<path fill="none" stroke="midnightblue" d="M40.4818,-169.421C52.5974,-157.334 74.5744,-136.554 96,-122.153 98.4104,-120.533 100.978,-118.962 103.598,-117.463"/>
<polygon fill="midnightblue" stroke="midnightblue" points="105.382,-120.478 112.553,-112.678 102.083,-114.304 105.382,-120.478"/>
</g>
<!-- Node2&#45;&gt;Node3 -->
<g id="edge2" class="edge"><title>Node2&#45;&gt;Node3</title>
<path fill="none" stroke="midnightblue" d="M162.748,-207.564C175.804,-202.884 191.703,-197.184 205.825,-192.121"/>
<polygon fill="midnightblue" stroke="midnightblue" points="207.028,-195.408 215.26,-188.739 204.666,-188.819 207.028,-195.408"/>
</g>
<!-- Node5 -->
<g id="node5" class="node"><title>Node5</title>
<g id="a_node5"><a xlink:href="../../d8/db6/pub_8c.html#a251303441b8fd13c8fe80aab8c4a6ecd" target="_top" xlink:title="pub">
<polygon fill="none" stroke="black" points="227,-207.653 227,-226.653 259,-226.653 259,-207.653 227,-207.653"/>
<text text-anchor="middle" x="243" y="-214.653" font-family="Helvetica,sans-Serif" font-size="10.00">pub</text>
</a>
</g>
</g>
<!-- Node2&#45;&gt;Node5 -->
<g id="edge4" class="edge"><title>Node2&#45;&gt;Node5</title>
<path fill="none" stroke="midnightblue" d="M164.685,-217.153C180.925,-217.153 201.055,-217.153 216.702,-217.153"/>
<polygon fill="midnightblue" stroke="midnightblue" points="216.717,-220.653 226.717,-217.153 216.717,-213.653 216.717,-220.653"/>
</g>
<!-- Node4 -->
<g id="node4" class="node"><title>Node4</title>
<g id="a_node4"><a xlink:href="../../da/dfc/settings__parser_8c.html#af07d89f5ceaea0c7c8252cc41fd75f37" target="_top" xlink:title="free">
<polygon fill="none" stroke="black" points="553.5,-112.653 553.5,-131.653 586.5,-131.653 586.5,-112.653 553.5,-112.653"/>
<text text-anchor="middle" x="570" y="-119.653" font-family="Helvetica,sans-Serif" font-size="10.00">free</text>
</a>
</g>
</g>
<!-- Node3&#45;&gt;Node4 -->
<g id="edge3" class="edge"><title>Node3&#45;&gt;Node4</title>
<path fill="none" stroke="midnightblue" d="M265.441,-169.536C269.397,-166.961 273.168,-163.843 276,-160.153 311.979,-113.272 264.894,-67.8378 312,-32.153 377.185,17.228 422.174,3.02367 496,-32.153 526.87,-46.8622 548.928,-81.7128 560.267,-103.475"/>
<polygon fill="midnightblue" stroke="midnightblue" points="557.134,-105.034 564.716,-112.434 563.403,-101.921 557.134,-105.034"/>
</g>
<!-- Node5&#45;&gt;Node4 -->
<g id="edge25" class="edge"><title>Node5&#45;&gt;Node4</title>
<path fill="none" stroke="midnightblue" d="M259.247,-210.825C265.147,-207.739 271.539,-203.519 276,-198.153 305.662,-162.47 279.378,-133.152 312,-100.153 342.756,-69.0415 360.973,-73.0611 404,-65.153 444.215,-57.7618 457.337,-51.8465 496,-65.153 518.877,-73.0267 540.081,-91.3365 553.675,-105.094"/>
<polygon fill="midnightblue" stroke="midnightblue" points="551.332,-107.71 560.755,-112.555 556.41,-102.892 551.332,-107.71"/>
</g>
<!-- Node6 -->
<g id="node6" class="node"><title>Node6</title>
<g id="a_node6"><a xlink:href="../../db/dab/keyid_8c.html#a049bbdebc2be4da80632f9b3af6fc046" target="_top" xlink:title="keyid">
<polygon fill="none" stroke="black" points="320,-188.653 320,-207.653 360,-207.653 360,-188.653 320,-188.653"/>
<text text-anchor="middle" x="340" y="-195.653" font-family="Helvetica,sans-Serif" font-size="10.00">keyid</text>
</a>
</g>
</g>
<!-- Node5&#45;&gt;Node6 -->
<g id="edge5" class="edge"><title>Node5&#45;&gt;Node6</title>
<path fill="none" stroke="midnightblue" d="M259.263,-214.1C272.902,-211.373 293.254,-207.302 309.983,-203.956"/>
<polygon fill="midnightblue" stroke="midnightblue" points="310.718,-207.379 319.838,-201.985 309.346,-200.515 310.718,-207.379"/>
</g>
<!-- Node7 -->
<g id="node7" class="node"><title>Node7</title>
<g id="a_node7"><a xlink:href="../../dc/d53/group__command.html#ga5cf2c6b41420f51c7d7db9dfbd699f6b" target="_top" xlink:title="command_getopt">
<polygon fill="none" stroke="black" points="404,-150.653 404,-169.653 496,-169.653 496,-150.653 404,-150.653"/>
<text text-anchor="middle" x="450" y="-157.653" font-family="Helvetica,sans-Serif" font-size="10.00">command_getopt</text>
</a>
</g>
</g>
<!-- Node5&#45;&gt;Node7 -->
<g id="edge15" class="edge"><title>Node5&#45;&gt;Node7</title>
<path fill="none" stroke="midnightblue" d="M259.06,-208.346C277.35,-197.713 306.455,-181.013 312,-179.153 338.111,-170.393 368.326,-165.668 393.725,-163.122"/>
<polygon fill="midnightblue" stroke="midnightblue" points="394.287,-166.585 403.926,-162.188 393.649,-159.614 394.287,-166.585"/>
</g>
<!-- Node8 -->
<g id="node8" class="node"><title>Node8</title>
<g id="a_node8"><a xlink:href="../../dc/d53/group__command.html#gac550624edb43a63d97310c54962c8f66" target="_top" xlink:title="command_usage">
<polygon fill="none" stroke="black" points="404.5,-112.653 404.5,-131.653 495.5,-131.653 495.5,-112.653 404.5,-112.653"/>
<text text-anchor="middle" x="450" y="-119.653" font-family="Helvetica,sans-Serif" font-size="10.00">command_usage</text>
</a>
</g>
</g>
<!-- Node5&#45;&gt;Node8 -->
<g id="edge16" class="edge"><title>Node5&#45;&gt;Node8</title>
<path fill="none" stroke="midnightblue" d="M259.159,-209.188C264.659,-206.034 270.796,-202.197 276,-198.153 293.867,-184.269 292.531,-173.684 312,-162.153 337.237,-147.205 368.428,-137.529 394.67,-131.444"/>
<polygon fill="midnightblue" stroke="midnightblue" points="395.451,-134.856 404.463,-129.285 393.944,-128.021 395.451,-134.856"/>
</g>
<!-- Node9 -->
<g id="node9" class="node"><title>Node9</title>
<g id="a_node9"><a xlink:href="../../d4/d40/group__string__i.html#ga65c3d08890165aaa4663c72d07f93bb7" target="_top" xlink:title="streq">
<polygon fill="none" stroke="black" points="431,-302.653 431,-321.653 469,-321.653 469,-302.653 431,-302.653"/>
<text text-anchor="middle" x="450" y="-309.653" font-family="Helvetica,sans-Serif" font-size="10.00">streq</text>
</a>
</g>
</g>
<!-- Node5&#45;&gt;Node9 -->
<g id="edge17" class="edge"><title>Node5&#45;&gt;Node9</title>
<path fill="none" stroke="midnightblue" d="M246.306,-226.818C252.398,-249.904 271.32,-308.051 312,-331.153 330.071,-341.416 386.338,-329.114 420.887,-320.07"/>
<polygon fill="midnightblue" stroke="midnightblue" points="422.095,-323.369 430.845,-317.396 420.28,-316.609 422.095,-323.369"/>
</g>
<!-- Node10 -->
<g id="node10" class="node"><title>Node10</title>
<g id="a_node10"><a xlink:href="../../df/d1e/group__pki.html#ga63674711f2657b283b42d2c0bd0b78f3" target="_top" xlink:title="set_file_mode">
<polygon fill="none" stroke="black" points="411.5,-74.653 411.5,-93.653 488.5,-93.653 488.5,-74.653 411.5,-74.653"/>
<text text-anchor="middle" x="450" y="-81.653" font-family="Helvetica,sans-Serif" font-size="10.00">set_file_mode</text>
</a>
</g>
</g>
<!-- Node5&#45;&gt;Node10 -->
<g id="edge26" class="edge"><title>Node5&#45;&gt;Node10</title>
<path fill="none" stroke="midnightblue" d="M259.138,-210.257C264.886,-207.133 271.198,-203.036 276,-198.153 298.613,-175.16 287.418,-156.027 312,-135.153 337.525,-113.478 373.132,-100.598 401.647,-93.205"/>
<polygon fill="midnightblue" stroke="midnightblue" points="402.529,-96.5924 411.409,-90.8133 400.864,-89.7934 402.529,-96.5924"/>
</g>
<!-- Node11 -->
<g id="node11" class="node"><title>Node11</title>
<g id="a_node11"><a xlink:href="../../d4/d87/group__chunk.html#ga207cbb568ad9c4bc26ac74a6dfd61355" target="_top" xlink:title="chunk_from_fd">
<polygon fill="none" stroke="black" points="409.5,-226.653 409.5,-245.653 490.5,-245.653 490.5,-226.653 409.5,-226.653"/>
<text text-anchor="middle" x="450" y="-233.653" font-family="Helvetica,sans-Serif" font-size="10.00">chunk_from_fd</text>
</a>
</g>
</g>
<!-- Node5&#45;&gt;Node11 -->
<g id="edge27" class="edge"><title>Node5&#45;&gt;Node11</title>
<path fill="none" stroke="midnightblue" d="M259.074,-218.55C288.216,-221.251 353.445,-227.297 399.293,-231.546"/>
<polygon fill="midnightblue" stroke="midnightblue" points="399.058,-235.039 409.338,-232.477 399.704,-228.069 399.058,-235.039"/>
</g>
<!-- Node5&#45;&gt;Node13 -->
<g id="edge24" class="edge"><title>Node5&#45;&gt;Node13</title>
<path fill="none" stroke="midnightblue" d="M259.256,-222.601C272.948,-227.367 293.654,-234.272 312,-239.153 384.699,-258.493 470.447,-275.335 522.223,-284.865"/>
<polygon fill="midnightblue" stroke="midnightblue" points="521.645,-288.317 532.111,-286.672 522.904,-281.431 521.645,-288.317"/>
</g>
<!-- Node14 -->
<g id="node14" class="node"><title>Node14</title>
<g id="a_node14"><a xlink:href="../../df/d1e/group__pki.html#gacca3264c8cdf13c62511ec17dd7780d5" target="_top" xlink:title="get_form">
<polygon fill="none" stroke="black" points="312.5,-302.653 312.5,-321.653 367.5,-321.653 367.5,-302.653 312.5,-302.653"/>
<text text-anchor="middle" x="340" y="-309.653" font-family="Helvetica,sans-Serif" font-size="10.00">get_form</text>
</a>
</g>
</g>
<!-- Node5&#45;&gt;Node14 -->
<g id="edge18" class="edge"><title>Node5&#45;&gt;Node14</title>
<path fill="none" stroke="midnightblue" d="M252.998,-227.04C265.793,-240.982 290.122,-267.074 312,-288.153 314.608,-290.666 317.414,-293.267 320.195,-295.787"/>
<polygon fill="midnightblue" stroke="midnightblue" points="317.986,-298.507 327.783,-302.541 322.64,-293.278 317.986,-298.507"/>
</g>
<!-- Node15 -->
<g id="node15" class="node"><title>Node15</title>
<g id="a_node15"><a xlink:href="../../d4/d87/group__chunk.html#gaadc119e547e9a456a8c2c6271290b584" target="_top" xlink:title="chunk_from_hex">
<polygon fill="none" stroke="black" points="405.5,-340.653 405.5,-359.653 494.5,-359.653 494.5,-340.653 405.5,-340.653"/>
<text text-anchor="middle" x="450" y="-347.653" font-family="Helvetica,sans-Serif" font-size="10.00">chunk_from_hex</text>
</a>
</g>
</g>
<!-- Node5&#45;&gt;Node15 -->
<g id="edge20" class="edge"><title>Node5&#45;&gt;Node15</title>
<path fill="none" stroke="midnightblue" d="M245.704,-226.836C250.68,-251.846 267.742,-318.564 312,-346.153 336.441,-361.389 368.395,-363.112 395.295,-360.694"/>
<polygon fill="midnightblue" stroke="midnightblue" points="395.776,-364.162 405.331,-359.584 395.007,-357.204 395.776,-364.162"/>
</g>
<!-- Node6&#45;&gt;Node4 -->
<g id="edge14" class="edge"><title>Node6&#45;&gt;Node4</title>
<path fill="none" stroke="midnightblue" d="M360.44,-199.028C390.651,-199.684 450.159,-198.128 496,-179.153 518.107,-170.002 539.177,-152.232 552.947,-138.954"/>
<polygon fill="midnightblue" stroke="midnightblue" points="555.557,-141.295 560.164,-131.755 550.613,-136.339 555.557,-141.295"/>
</g>
<!-- Node6&#45;&gt;Node7 -->
<g id="edge6" class="edge"><title>Node6&#45;&gt;Node7</title>
<path fill="none" stroke="midnightblue" d="M360.06,-191.447C374.335,-186.424 394.319,-179.393 411.729,-173.267"/>
<polygon fill="midnightblue" stroke="midnightblue" points="413.348,-176.408 421.619,-169.787 411.025,-169.804 413.348,-176.408"/>
</g>
<!-- Node6&#45;&gt;Node8 -->
<g id="edge7" class="edge"><title>Node6&#45;&gt;Node8</title>
<path fill="none" stroke="midnightblue" d="M349.589,-188.601C361.031,-176.323 382.358,-154.948 404,-141.153 406.789,-139.375 409.773,-137.698 412.827,-136.133"/>
<polygon fill="midnightblue" stroke="midnightblue" points="414.519,-139.204 422.077,-131.78 411.538,-132.871 414.519,-139.204"/>
</g>
<!-- Node6&#45;&gt;Node9 -->
<g id="edge8" class="edge"><title>Node6&#45;&gt;Node9</title>
<path fill="none" stroke="midnightblue" d="M350.208,-207.873C368.54,-227.223 409.809,-270.785 432.785,-295.037"/>
<polygon fill="midnightblue" stroke="midnightblue" points="430.397,-297.606 439.815,-302.458 435.479,-292.791 430.397,-297.606"/>
</g>
<!-- Node6&#45;&gt;Node10 -->
<g id="edge9" class="edge"><title>Node6&#45;&gt;Node10</title>
<path fill="none" stroke="midnightblue" d="M345.096,-188.448C353.506,-169.581 374.448,-127.662 404,-103.153 405.999,-101.495 408.164,-99.962 410.426,-98.5475"/>
<polygon fill="midnightblue" stroke="midnightblue" points="412.345,-101.49 419.49,-93.6668 409.026,-95.3263 412.345,-101.49"/>
</g>
<!-- Node6&#45;&gt;Node11 -->
<g id="edge10" class="edge"><title>Node6&#45;&gt;Node11</title>
<path fill="none" stroke="midnightblue" d="M360.06,-204.859C374.335,-209.882 394.319,-216.913 411.729,-223.039"/>
<polygon fill="midnightblue" stroke="midnightblue" points="411.025,-226.502 421.619,-226.519 413.348,-219.898 411.025,-226.502"/>
</g>
<!-- Node11&#45;&gt;Node4 -->
<g id="edge12" class="edge"><title>Node11&#45;&gt;Node4</title>
<path fill="none" stroke="midnightblue" d="M473.155,-226.554C480.809,-222.681 489.169,-217.787 496,-212.153 521.476,-191.142 544.294,-160.075 557.389,-140.485"/>
<polygon fill="midnightblue" stroke="midnightblue" points="560.468,-142.171 563.005,-131.884 554.607,-138.344 560.468,-142.171"/>
</g>
<!-- Node12 -->
<g id="node12" class="node"><title>Node12</title>
<g id="a_node12"><a xlink:href="../../da/dfc/settings__parser_8c.html#a5faf6a2d99f50a4655dd390199a8db7b" target="_top" xlink:title="malloc">
<polygon fill="none" stroke="black" points="547.5,-235.653 547.5,-254.653 592.5,-254.653 592.5,-235.653 547.5,-235.653"/>
<text text-anchor="middle" x="570" y="-242.653" font-family="Helvetica,sans-Serif" font-size="10.00">malloc</text>
</a>
</g>
</g>
<!-- Node11&#45;&gt;Node12 -->
<g id="edge11" class="edge"><title>Node11&#45;&gt;Node12</title>
<path fill="none" stroke="midnightblue" d="M490.621,-239.175C505.666,-240.322 522.604,-241.614 536.873,-242.703"/>
<polygon fill="midnightblue" stroke="midnightblue" points="536.953,-246.219 547.19,-243.49 537.486,-239.239 536.953,-246.219"/>
</g>
<!-- Node11&#45;&gt;Node13 -->
<g id="edge13" class="edge"><title>Node11&#45;&gt;Node13</title>
<path fill="none" stroke="midnightblue" d="M470.751,-245.694C489.725,-254.859 518.611,-268.813 540.158,-279.221"/>
<polygon fill="midnightblue" stroke="midnightblue" points="538.658,-282.383 549.185,-283.581 541.703,-276.08 538.658,-282.383"/>
</g>
<!-- Node14&#45;&gt;Node9 -->
<g id="edge19" class="edge"><title>Node14&#45;&gt;Node9</title>
<path fill="none" stroke="midnightblue" d="M367.697,-312.153C383.786,-312.153 404.264,-312.153 420.643,-312.153"/>
<polygon fill="midnightblue" stroke="midnightblue" points="420.727,-315.653 430.727,-312.153 420.727,-308.653 420.727,-315.653"/>
</g>
<!-- Node15&#45;&gt;Node12 -->
<g id="edge21" class="edge"><title>Node15&#45;&gt;Node12</title>
<path fill="none" stroke="midnightblue" d="M481.047,-340.498C486.366,-337.973 491.602,-334.883 496,-331.153 518.849,-311.77 511.915,-296.387 532,-274.153 536.206,-269.497 541.222,-265.023 546.183,-261.04"/>
<polygon fill="midnightblue" stroke="midnightblue" points="548.478,-263.692 554.327,-254.857 544.245,-258.117 548.478,-263.692"/>
</g>
<!-- Node15&#45;&gt;Node13 -->
<g id="edge23" class="edge"><title>Node15&#45;&gt;Node13</title>
<path fill="none" stroke="midnightblue" d="M474.514,-340.645C481.482,-337.715 489.094,-334.402 496,-331.153 511.652,-323.79 528.825,-314.892 542.581,-307.559"/>
<polygon fill="midnightblue" stroke="midnightblue" points="544.344,-310.585 551.498,-302.769 541.032,-304.418 544.344,-310.585"/>
</g>
<!-- Node16 -->
<g id="node16" class="node"><title>Node16</title>
<g id="a_node16"><a xlink:href="../../d8/d39/chunk_8c.html#a0674de9b4dc86d182ca6a08b9595279f" target="_top" xlink:title="hex2bin">
<polygon fill="none" stroke="black" points="545,-340.653 545,-359.653 595,-359.653 595,-340.653 545,-340.653"/>
<text text-anchor="middle" x="570" y="-347.653" font-family="Helvetica,sans-Serif" font-size="10.00">hex2bin</text>
</a>
</g>
</g>
<!-- Node15&#45;&gt;Node16 -->
<g id="edge22" class="edge"><title>Node15&#45;&gt;Node16</title>
<path fill="none" stroke="midnightblue" d="M494.604,-350.153C507.837,-350.153 522.181,-350.153 534.71,-350.153"/>
<polygon fill="midnightblue" stroke="midnightblue" points="534.744,-353.653 544.744,-350.153 534.744,-346.653 534.744,-353.653"/>
</g>
<!-- Node18 -->
<g id="node18" class="node"><title>Node18</title>
<g id="a_node18"><a xlink:href="../../dd/d74/group__memory__i.html#ga46d7935db00fd7092430dbf4f36c2850" target="_top" xlink:title="memeq">
<polygon fill="none" stroke="black" points="218.5,-131.653 218.5,-150.653 267.5,-150.653 267.5,-131.653 218.5,-131.653"/>
<text text-anchor="middle" x="243" y="-138.653" font-family="Helvetica,sans-Serif" font-size="10.00">memeq</text>
</a>
</g>
</g>
<!-- Node17&#45;&gt;Node18 -->
<g id="edge30" class="edge"><title>Node17&#45;&gt;Node18</title>
<path fill="none" stroke="midnightblue" d="M173.67,-141.153C184.944,-141.153 197.23,-141.153 208.236,-141.153"/>
<polygon fill="midnightblue" stroke="midnightblue" points="208.321,-144.653 218.321,-141.153 208.321,-137.653 208.321,-144.653"/>
</g>
</g>
</svg>
        <g id="navigator" transform="translate(0 0)" fill="#404254">
                <rect fill="#f2f5e9" fill-opacity="0.5" stroke="#606060" stroke-width=".5" x="0" y="0" width="60" height="60"/>
                <use id="zoomplus" xlink:href="#zoomPlus" x="17" y="9" onmousedown="handleZoom(evt,'in')"/>
                <use id="zoomminus" xlink:href="#zoomMin" x="42" y="9" onmousedown="handleZoom(evt,'out')"/>
                <use id="reset" xlink:href="#resetDef" x="30" y="36" onmousedown="handleReset()"/>
                <g id="arrowUp" xlink:href="#dirArrow" transform="translate(30 24)" onmousedown="handlePan(0,-1)">
                  <use xlink:href="#rim" fill="#404040">
                        <set attributeName="fill" to="#808080" begin="arrowUp.mouseover" end="arrowUp.mouseout"/>
                  </use>
                  <path fill="none" stroke="white" stroke-width="1.5" d="M0,-3.0v7 M-2.5,-0.5L0,-3.0L2.5,-0.5"/>
                </g>
                <g id="arrowRight" xlink:href="#dirArrow" transform="rotate(90) translate(36 -43)" onmousedown="handlePan(1,0)">
                  <use xlink:href="#rim" fill="#404040">
                        <set attributeName="fill" to="#808080" begin="arrowRight.mouseover" end="arrowRight.mouseout"/>
                  </use>
                  <path fill="none" stroke="white" stroke-width="1.5" d="M0,-3.0v7 M-2.5,-0.5L0,-3.0L2.5,-0.5"/>
                </g>
                <g id="arrowDown" xlink:href="#dirArrow" transform="rotate(180) translate(-30 -48)" onmousedown="handlePan(0,1)">
                  <use xlink:href="#rim" fill="#404040">
                        <set attributeName="fill" to="#808080" begin="arrowDown.mouseover" end="arrowDown.mouseout"/>
                  </use>
                  <path fill="none" stroke="white" stroke-width="1.5" d="M0,-3.0v7 M-2.5,-0.5L0,-3.0L2.5,-0.5"/>
                </g>
                <g id="arrowLeft" xlink:href="#dirArrow" transform="rotate(270) translate(-36 17)" onmousedown="handlePan(-1,0)">
                  <use xlink:href="#rim" fill="#404040">
                        <set attributeName="fill" to="#808080" begin="arrowLeft.mouseover" end="arrowLeft.mouseout"/>
                  </use>
                  <path fill="none" stroke="white" stroke-width="1.5" d="M0,-3.0v7 M-2.5,-0.5L0,-3.0L2.5,-0.5"/>
                </g>
        </g>
        <svg viewBox="0 0 15 15" width="100%" height="30px" preserveAspectRatio="xMaxYMin meet">
         <g id="arrow_out" transform="scale(0.3 0.3)">
          <a xlink:href="crypto__tester_8c_a398b3779ea8e3ceea97e144832b4a52a_cgraph_org.svg" target="_base">
           <rect id="button" ry="5" rx="5" y="6" x="6" height="38" width="38"
                fill="#f2f5e9" fill-opacity="0.5" stroke="#606060" stroke-width="1.0"/>
           <path id="arrow"
             d="M 11.500037,31.436501 C 11.940474,20.09759 22.043105,11.32322 32.158766,21.979434 L 37.068811,17.246167 C 37.068811,17.246167 37.088388,32 37.088388,32 L 22.160133,31.978069 C 22.160133,31.978069 26.997745,27.140456 26.997745,27.140456 C 18.528582,18.264221 13.291696,25.230495 11.500037,31.436501 z"
             style="fill:#404040;"/>
          </a>
         </g>
        </svg>
</svg>
