<?xml version="1.0" encoding="UTF-8" standalone="no"?>
<!DOCTYPE svg PUBLIC "-//W3C//DTD SVG 1.1//EN"
 "http://www.w3.org/Graphics/SVG/1.1/DTD/svg11.dtd">
<!-- Generated by graphviz version 2.36.0 (20140111.2315)
 -->
<!-- Title: storage.h Pages: 1 -->
<svg width="713pt" height="140pt"
 viewBox="0.00 0.00 713.00 140.00" xmlns="http://www.w3.org/2000/svg" xmlns:xlink="http://www.w3.org/1999/xlink">
<g id="graph0" class="graph" transform="scale(1 1) rotate(0) translate(4 136)">
<title>storage.h</title>
<!-- Node1 -->
<g id="node1" class="node"><title>Node1</title>
<polygon fill="#bfbfbf" stroke="black" points="591.5,-112.5 591.5,-131.5 648.5,-131.5 648.5,-112.5 591.5,-112.5"/>
<text text-anchor="middle" x="620" y="-119.5" font-family="Helvetica,sans-Serif" font-size="10.00">storage.h</text>
</g>
<!-- Node2 -->
<g id="node2" class="node"><title>Node2</title>
<g id="a_node2"><a xlink:href="../../db/d45/manager_8h.html" target="_top" xlink:title="manager.h">
<polygon fill="none" stroke="black" points="417,-56.5 417,-75.5 479,-75.5 479,-56.5 417,-56.5"/>
<text text-anchor="middle" x="448" y="-63.5" font-family="Helvetica,sans-Serif" font-size="10.00">manager.h</text>
</a>
</g>
</g>
<!-- Node1&#45;&gt;Node2 -->
<g id="edge1" class="edge"><title>Node1&#45;&gt;Node2</title>
<path fill="none" stroke="midnightblue" d="M583.168,-109.436C550.738,-99.2551 504.263,-84.664 475.126,-75.5164"/>
<polygon fill="midnightblue" stroke="midnightblue" points="582.157,-112.787 592.746,-112.444 584.254,-106.109 582.157,-112.787"/>
</g>
<!-- Node8 -->
<g id="node8" class="node"><title>Node8</title>
<g id="a_node8"><a xlink:href="../../db/d06/manager_2main_8c.html" target="_top" xlink:title="main.c">
<polygon fill="none" stroke="black" points="654,-0.5 654,-19.5 700,-19.5 700,-0.5 654,-0.5"/>
<text text-anchor="middle" x="677" y="-7.5" font-family="Helvetica,sans-Serif" font-size="10.00">main.c</text>
</a>
</g>
</g>
<!-- Node1&#45;&gt;Node8 -->
<g id="edge9" class="edge"><title>Node1&#45;&gt;Node8</title>
<path fill="none" stroke="midnightblue" d="M623.734,-102.204C626.878,-88.7949 632.137,-70.6236 640,-56 647.568,-41.9249 659.888,-28.0824 668.212,-19.5468"/>
<polygon fill="midnightblue" stroke="midnightblue" points="620.273,-101.651 621.58,-112.164 627.115,-103.13 620.273,-101.651"/>
</g>
<!-- Node10 -->
<g id="node10" class="node"><title>Node10</title>
<g id="a_node10"><a xlink:href="../../d2/dd2/storage_8c.html" target="_top" xlink:title="storage.c">
<polygon fill="none" stroke="black" points="648.5,-56.5 648.5,-75.5 705.5,-75.5 705.5,-56.5 648.5,-56.5"/>
<text text-anchor="middle" x="677" y="-63.5" font-family="Helvetica,sans-Serif" font-size="10.00">storage.c</text>
</a>
</g>
</g>
<!-- Node1&#45;&gt;Node10 -->
<g id="edge10" class="edge"><title>Node1&#45;&gt;Node10</title>
<path fill="none" stroke="midnightblue" d="M636.621,-105.253C646.734,-95.6731 659.277,-83.7906 667.675,-75.8339"/>
<polygon fill="midnightblue" stroke="midnightblue" points="634.01,-102.906 629.158,-112.324 638.825,-107.987 634.01,-102.906"/>
</g>
<!-- Node3 -->
<g id="node3" class="node"><title>Node3</title>
<g id="a_node3"><a xlink:href="../../de/d8d/auth__controller_8c.html" target="_top" xlink:title="auth_controller.c">
<polygon fill="none" stroke="black" points="-0.5,-0.5 -0.5,-19.5 88.5,-19.5 88.5,-0.5 -0.5,-0.5"/>
<text text-anchor="middle" x="44" y="-7.5" font-family="Helvetica,sans-Serif" font-size="10.00">auth_controller.c</text>
</a>
</g>
</g>
<!-- Node2&#45;&gt;Node3 -->
<g id="edge2" class="edge"><title>Node2&#45;&gt;Node3</title>
<path fill="none" stroke="midnightblue" d="M406.632,-60.1876C341.072,-52.4469 209.321,-36.4272 98,-20 94.9912,-19.556 91.8909,-19.0824 88.7689,-18.5935"/>
<polygon fill="midnightblue" stroke="midnightblue" points="406.231,-63.6645 416.572,-61.3576 407.05,-56.7125 406.231,-63.6645"/>
</g>
<!-- Node4 -->
<g id="node4" class="node"><title>Node4</title>
<g id="a_node4"><a xlink:href="../../db/deb/config__controller_8c.html" target="_top" xlink:title="config_controller.c">
<polygon fill="none" stroke="black" points="107,-0.5 107,-19.5 203,-19.5 203,-0.5 107,-0.5"/>
<text text-anchor="middle" x="155" y="-7.5" font-family="Helvetica,sans-Serif" font-size="10.00">config_controller.c</text>
</a>
</g>
</g>
<!-- Node2&#45;&gt;Node4 -->
<g id="edge3" class="edge"><title>Node2&#45;&gt;Node4</title>
<path fill="none" stroke="midnightblue" d="M406.993,-57.4424C352.903,-47.4735 257.96,-29.9755 201.332,-19.5389"/>
<polygon fill="midnightblue" stroke="midnightblue" points="406.452,-60.9016 416.921,-59.2722 407.721,-54.0176 406.452,-60.9016"/>
</g>
<!-- Node5 -->
<g id="node5" class="node"><title>Node5</title>
<g id="a_node5"><a xlink:href="../../dc/d98/control__controller_8c.html" target="_top" xlink:title="control_controller.c">
<polygon fill="none" stroke="black" points="221.5,-0.5 221.5,-19.5 320.5,-19.5 320.5,-0.5 221.5,-0.5"/>
<text text-anchor="middle" x="271" y="-7.5" font-family="Helvetica,sans-Serif" font-size="10.00">control_controller.c</text>
</a>
</g>
</g>
<!-- Node2&#45;&gt;Node5 -->
<g id="edge4" class="edge"><title>Node2&#45;&gt;Node5</title>
<path fill="none" stroke="midnightblue" d="M410.097,-53.4363C376.725,-43.2551 328.899,-28.664 298.915,-19.5164"/>
<polygon fill="midnightblue" stroke="midnightblue" points="409.368,-56.8731 419.954,-56.4435 411.41,-50.1777 409.368,-56.8731"/>
</g>
<!-- Node6 -->
<g id="node6" class="node"><title>Node6</title>
<g id="a_node6"><a xlink:href="../../d5/df6/gateway__controller_8c.html" target="_top" xlink:title="gateway_controller.c">
<polygon fill="none" stroke="black" points="338.5,-0.5 338.5,-19.5 445.5,-19.5 445.5,-0.5 338.5,-0.5"/>
<text text-anchor="middle" x="392" y="-7.5" font-family="Helvetica,sans-Serif" font-size="10.00">gateway_controller.c</text>
</a>
</g>
</g>
<!-- Node2&#45;&gt;Node6 -->
<g id="edge5" class="edge"><title>Node2&#45;&gt;Node6</title>
<path fill="none" stroke="midnightblue" d="M431.67,-49.2533C421.735,-39.6731 409.412,-27.7906 401.161,-19.8339"/>
<polygon fill="midnightblue" stroke="midnightblue" points="429.375,-51.902 439.003,-56.324 434.234,-46.8631 429.375,-51.902"/>
</g>
<!-- Node7 -->
<g id="node7" class="node"><title>Node7</title>
<g id="a_node7"><a xlink:href="../../de/da8/ikesa__controller_8c.html" target="_top" xlink:title="ikesa_controller.c">
<polygon fill="none" stroke="black" points="463.5,-0.5 463.5,-19.5 556.5,-19.5 556.5,-0.5 463.5,-0.5"/>
<text text-anchor="middle" x="510" y="-7.5" font-family="Helvetica,sans-Serif" font-size="10.00">ikesa_controller.c</text>
</a>
</g>
</g>
<!-- Node2&#45;&gt;Node7 -->
<g id="edge6" class="edge"><title>Node2&#45;&gt;Node7</title>
<path fill="none" stroke="midnightblue" d="M465.754,-49.5372C476.808,-39.9087 490.631,-27.8694 499.857,-19.8339"/>
<polygon fill="midnightblue" stroke="midnightblue" points="463.203,-47.1168 457.961,-56.324 467.801,-52.3954 463.203,-47.1168"/>
</g>
<!-- Node2&#45;&gt;Node8 -->
<g id="edge7" class="edge"><title>Node2&#45;&gt;Node8</title>
<path fill="none" stroke="midnightblue" d="M489.18,-56.055C528.922,-47.3023 590.732,-33.3728 644,-20 647.225,-19.1903 650.619,-18.3041 653.952,-17.4137"/>
<polygon fill="midnightblue" stroke="midnightblue" points="488.341,-52.6559 479.324,-58.2192 489.842,-59.493 488.341,-52.6559"/>
</g>
<!-- Node9 -->
<g id="node9" class="node"><title>Node9</title>
<g id="a_node9"><a xlink:href="../../d4/d10/manager_8c.html" target="_top" xlink:title="manager.c">
<polygon fill="none" stroke="black" points="574,-0.5 574,-19.5 636,-19.5 636,-0.5 574,-0.5"/>
<text text-anchor="middle" x="605" y="-7.5" font-family="Helvetica,sans-Serif" font-size="10.00">manager.c</text>
</a>
</g>
</g>
<!-- Node2&#45;&gt;Node9 -->
<g id="edge8" class="edge"><title>Node2&#45;&gt;Node9</title>
<path fill="none" stroke="midnightblue" d="M482.389,-53.172C511.952,-43.0039 553.873,-28.5852 580.239,-19.5164"/>
<polygon fill="midnightblue" stroke="midnightblue" points="481.195,-49.8813 472.877,-56.4435 483.472,-56.5007 481.195,-49.8813"/>
</g>
</g>
</svg>
