<?xml version="1.0" encoding="UTF-8" standalone="no"?>
<!DOCTYPE svg PUBLIC "-//W3C//DTD SVG 1.1//EN"
 "http://www.w3.org/Graphics/SVG/1.1/DTD/svg11.dtd">
<!-- Generated by graphviz version 2.36.0 (20140111.2315)
 -->
<!-- Title: METHOD Pages: 1 -->
<svg width="368pt" height="123pt"
 viewBox="0.00 0.00 368.00 123.00" xmlns="http://www.w3.org/2000/svg" xmlns:xlink="http://www.w3.org/1999/xlink">
<g id="graph0" class="graph" transform="scale(1 1) rotate(0) translate(4 119)">
<title>METHOD</title>
<!-- Node1 -->
<g id="node1" class="node"><title>Node1</title>
<polygon fill="#bfbfbf" stroke="black" points="0,-38.5 0,-57.5 60,-57.5 60,-38.5 0,-38.5"/>
<text text-anchor="middle" x="30" y="-45.5" font-family="Helvetica,sans-Serif" font-size="10.00">METHOD</text>
</g>
<!-- Node2 -->
<g id="node2" class="node"><title>Node2</title>
<g id="a_node2"><a xlink:href="../../dc/d29/mysql__database_8c.html#af72c89f68bd3140d670c1ad41ea1a06a" target="_top" xlink:title="conn_get">
<polygon fill="none" stroke="black" points="105,-76.5 105,-95.5 161,-95.5 161,-76.5 105,-76.5"/>
<text text-anchor="middle" x="133" y="-83.5" font-family="Helvetica,sans-Serif" font-size="10.00">conn_get</text>
</a>
</g>
</g>
<!-- Node1&#45;&gt;Node2 -->
<g id="edge1" class="edge"><title>Node1&#45;&gt;Node2</title>
<path fill="none" stroke="midnightblue" d="M56.4866,-57.589C68.807,-62.2244 83.7849,-67.8596 97.1426,-72.8853"/>
<polygon fill="midnightblue" stroke="midnightblue" points="95.9296,-76.1684 106.522,-76.4141 98.3946,-69.6168 95.9296,-76.1684"/>
</g>
<!-- Node6 -->
<g id="node6" class="node"><title>Node6</title>
<g id="a_node6"><a xlink:href="../../dc/d29/mysql__database_8c.html#af5d393a941d7763953f9e664024723c6" target="_top" xlink:title="conn_release">
<polygon fill="none" stroke="black" points="96,-38.5 96,-57.5 170,-57.5 170,-38.5 96,-38.5"/>
<text text-anchor="middle" x="133" y="-45.5" font-family="Helvetica,sans-Serif" font-size="10.00">conn_release</text>
</a>
</g>
</g>
<!-- Node1&#45;&gt;Node6 -->
<g id="edge5" class="edge"><title>Node1&#45;&gt;Node6</title>
<path fill="none" stroke="midnightblue" d="M60.2134,-48C68.1695,-48 76.9885,-48 85.644,-48"/>
<polygon fill="midnightblue" stroke="midnightblue" points="85.6683,-51.5001 95.6682,-48 85.6682,-44.5001 85.6683,-51.5001"/>
</g>
<!-- Node7 -->
<g id="node7" class="node"><title>Node7</title>
<g id="a_node7"><a xlink:href="../../dc/d29/mysql__database_8c.html#ad033a5d90c0457cba4b2e893ea9c931e" target="_top" xlink:title="run">
<polygon fill="none" stroke="black" points="118,-0.5 118,-19.5 148,-19.5 148,-0.5 118,-0.5"/>
<text text-anchor="middle" x="133" y="-7.5" font-family="Helvetica,sans-Serif" font-size="10.00">run</text>
</a>
</g>
</g>
<!-- Node1&#45;&gt;Node7 -->
<g id="edge6" class="edge"><title>Node1&#45;&gt;Node7</title>
<path fill="none" stroke="midnightblue" d="M56.4866,-38.411C72.4019,-32.4231 92.7516,-24.7667 108.315,-18.9111"/>
<polygon fill="midnightblue" stroke="midnightblue" points="109.63,-22.1561 117.757,-15.3589 107.165,-15.6045 109.63,-22.1561"/>
</g>
<!-- Node3 -->
<g id="node3" class="node"><title>Node3</title>
<g id="a_node3"><a xlink:href="../../dc/d29/mysql__database_8c.html#af8abf634cb7d2a861f9f0185cdc31486" target="_top" xlink:title="conn_destroy">
<polygon fill="none" stroke="black" points="210.5,-95.5 210.5,-114.5 285.5,-114.5 285.5,-95.5 210.5,-95.5"/>
<text text-anchor="middle" x="248" y="-102.5" font-family="Helvetica,sans-Serif" font-size="10.00">conn_destroy</text>
</a>
</g>
</g>
<!-- Node2&#45;&gt;Node3 -->
<g id="edge2" class="edge"><title>Node2&#45;&gt;Node3</title>
<path fill="none" stroke="midnightblue" d="M161.066,-90.551C172.825,-92.5281 186.944,-94.9021 200.308,-97.1491"/>
<polygon fill="midnightblue" stroke="midnightblue" points="199.886,-100.627 210.328,-98.8339 201.047,-93.7241 199.886,-100.627"/>
</g>
<!-- Node5 -->
<g id="node5" class="node"><title>Node5</title>
<g id="a_node5"><a xlink:href="../../dc/d29/mysql__database_8c.html#ad536e0427d92a74db979af2320010b54" target="_top" xlink:title="thread_initialize">
<polygon fill="none" stroke="black" points="206,-57.5 206,-76.5 290,-76.5 290,-57.5 206,-57.5"/>
<text text-anchor="middle" x="248" y="-64.5" font-family="Helvetica,sans-Serif" font-size="10.00">thread_initialize</text>
</a>
</g>
</g>
<!-- Node2&#45;&gt;Node5 -->
<g id="edge4" class="edge"><title>Node2&#45;&gt;Node5</title>
<path fill="none" stroke="midnightblue" d="M161.066,-81.449C171.472,-79.6993 183.727,-77.6389 195.67,-75.6307"/>
<polygon fill="midnightblue" stroke="midnightblue" points="196.301,-79.0738 205.582,-73.9641 195.14,-72.1707 196.301,-79.0738"/>
</g>
<!-- Node4 -->
<g id="node4" class="node"><title>Node4</title>
<g id="a_node4"><a xlink:href="../../da/dfc/settings__parser_8c.html#af07d89f5ceaea0c7c8252cc41fd75f37" target="_top" xlink:title="free">
<polygon fill="none" stroke="black" points="326.5,-95.5 326.5,-114.5 359.5,-114.5 359.5,-95.5 326.5,-95.5"/>
<text text-anchor="middle" x="343" y="-102.5" font-family="Helvetica,sans-Serif" font-size="10.00">free</text>
</a>
</g>
</g>
<!-- Node3&#45;&gt;Node4 -->
<g id="edge3" class="edge"><title>Node3&#45;&gt;Node4</title>
<path fill="none" stroke="midnightblue" d="M285.756,-105C295.828,-105 306.538,-105 315.88,-105"/>
<polygon fill="midnightblue" stroke="midnightblue" points="316.099,-108.5 326.099,-105 316.099,-101.5 316.099,-108.5"/>
</g>
</g>
</svg>
