<?xml version="1.0" encoding="UTF-8" standalone="no"?>
<!DOCTYPE svg PUBLIC "-//W3C//DTD SVG 1.1//EN"
 "http://www.w3.org/Graphics/SVG/1.1/DTD/svg11.dtd">
<!-- Generated by graphviz version 2.36.0 (20140111.2315)
 -->
<!-- Title: pem_encode Pages: 1 -->
<svg width="322pt" height="104pt"
 viewBox="0.00 0.00 322.00 104.00" xmlns="http://www.w3.org/2000/svg" xmlns:xlink="http://www.w3.org/1999/xlink">
<g id="graph0" class="graph" transform="scale(1 1) rotate(0) translate(4 100)">
<title>pem_encode</title>
<!-- Node1 -->
<g id="node1" class="node"><title>Node1</title>
<polygon fill="#bfbfbf" stroke="black" points="0,-38.5 0,-57.5 72,-57.5 72,-38.5 0,-38.5"/>
<text text-anchor="middle" x="36" y="-45.5" font-family="Helvetica,sans-Serif" font-size="10.00">pem_encode</text>
</g>
<!-- Node2 -->
<g id="node2" class="node"><title>Node2</title>
<g id="a_node2"><a xlink:href="../../d4/d87/group__chunk.html#ga7aad3a3d9985c020b0a97a25b8d32daa" target="_top" xlink:title="chunk_to_base64">
<polygon fill="none" stroke="black" points="108.5,-38.5 108.5,-57.5 201.5,-57.5 201.5,-38.5 108.5,-38.5"/>
<text text-anchor="middle" x="155" y="-45.5" font-family="Helvetica,sans-Serif" font-size="10.00">chunk_to_base64</text>
</a>
</g>
</g>
<!-- Node1&#45;&gt;Node2 -->
<g id="edge1" class="edge"><title>Node1&#45;&gt;Node2</title>
<path fill="none" stroke="midnightblue" d="M72.1039,-48C80.2316,-48 89.0808,-48 97.859,-48"/>
<polygon fill="midnightblue" stroke="midnightblue" points="98.0839,-51.5001 108.084,-48 98.0838,-44.5001 98.0839,-51.5001"/>
</g>
<!-- Node3 -->
<g id="node3" class="node"><title>Node3</title>
<g id="a_node3"><a xlink:href="../../da/dfc/settings__parser_8c.html#a5faf6a2d99f50a4655dd390199a8db7b" target="_top" xlink:title="malloc">
<polygon fill="none" stroke="black" points="253.5,-76.5 253.5,-95.5 298.5,-95.5 298.5,-76.5 253.5,-76.5"/>
<text text-anchor="middle" x="276" y="-83.5" font-family="Helvetica,sans-Serif" font-size="10.00">malloc</text>
</a>
</g>
</g>
<!-- Node1&#45;&gt;Node3 -->
<g id="edge5" class="edge"><title>Node1&#45;&gt;Node3</title>
<path fill="none" stroke="midnightblue" d="M68.5779,-57.526C80.7993,-60.9286 94.9618,-64.5279 108,-67 154.695,-75.8536 209.571,-81.1323 243.317,-83.8012"/>
<polygon fill="midnightblue" stroke="midnightblue" points="243.257,-87.3067 253.494,-84.5772 243.789,-80.3269 243.257,-87.3067"/>
</g>
<!-- Node5 -->
<g id="node5" class="node"><title>Node5</title>
<g id="a_node5"><a xlink:href="../../da/dfc/settings__parser_8c.html#af07d89f5ceaea0c7c8252cc41fd75f37" target="_top" xlink:title="free">
<polygon fill="none" stroke="black" points="138.5,-0.5 138.5,-19.5 171.5,-19.5 171.5,-0.5 138.5,-0.5"/>
<text text-anchor="middle" x="155" y="-7.5" font-family="Helvetica,sans-Serif" font-size="10.00">free</text>
</a>
</g>
</g>
<!-- Node1&#45;&gt;Node5 -->
<g id="edge4" class="edge"><title>Node1&#45;&gt;Node5</title>
<path fill="none" stroke="midnightblue" d="M66.524,-38.411C85.7407,-32.1697 110.538,-24.1158 128.821,-18.1778"/>
<polygon fill="midnightblue" stroke="midnightblue" points="130.056,-21.4567 138.486,-15.0387 127.894,-14.799 130.056,-21.4567"/>
</g>
<!-- Node2&#45;&gt;Node3 -->
<g id="edge2" class="edge"><title>Node2&#45;&gt;Node3</title>
<path fill="none" stroke="midnightblue" d="M186.029,-57.589C203.526,-63.1764 225.572,-70.2164 243.342,-75.8906"/>
<polygon fill="midnightblue" stroke="midnightblue" points="242.652,-79.3444 253.243,-79.0523 244.781,-72.6762 242.652,-79.3444"/>
</g>
<!-- Node4 -->
<g id="node4" class="node"><title>Node4</title>
<g id="a_node4"><a xlink:href="../../d4/d87/group__chunk.html#gad94ca029616a107e89eaa618408fd7b6" target="_top" xlink:title="chunk_create">
<polygon fill="none" stroke="black" points="238.5,-38.5 238.5,-57.5 313.5,-57.5 313.5,-38.5 238.5,-38.5"/>
<text text-anchor="middle" x="276" y="-45.5" font-family="Helvetica,sans-Serif" font-size="10.00">chunk_create</text>
</a>
</g>
</g>
<!-- Node2&#45;&gt;Node4 -->
<g id="edge3" class="edge"><title>Node2&#45;&gt;Node4</title>
<path fill="none" stroke="midnightblue" d="M201.668,-48C210.431,-48 219.617,-48 228.408,-48"/>
<polygon fill="midnightblue" stroke="midnightblue" points="228.498,-51.5001 238.497,-48 228.497,-44.5001 228.498,-51.5001"/>
</g>
</g>
</svg>
