<?xml version="1.0" encoding="UTF-8" standalone="no"?>
<!DOCTYPE svg PUBLIC "-//W3C//DTD SVG 1.1//EN"
 "http://www.w3.org/Graphics/SVG/1.1/DTD/svg11.dtd">
<!-- Generated by graphviz version 2.36.0 (20140111.2315)
 -->
<!-- Title: build_certs Pages: 1 -->
<svg width="422pt" height="28pt"
 viewBox="0.00 0.00 422.00 28.00" xmlns="http://www.w3.org/2000/svg" xmlns:xlink="http://www.w3.org/1999/xlink">
<g id="graph0" class="graph" transform="scale(1 1) rotate(0) translate(4 24)">
<title>build_certs</title>
<!-- Node1 -->
<g id="node1" class="node"><title>Node1</title>
<polygon fill="#bfbfbf" stroke="black" points="0,-0.5 0,-19.5 64,-19.5 64,-0.5 0,-0.5"/>
<text text-anchor="middle" x="32" y="-7.5" font-family="Helvetica,sans-Serif" font-size="10.00">build_certs</text>
</g>
<!-- Node2 -->
<g id="node2" class="node"><title>Node2</title>
<g id="a_node2"><a xlink:href="../../d3/db3/pretend__auth_8c.html#a61639781dc82606b8b8f146fc0030b6f" target="_top" xlink:title="build_auth">
<polygon fill="none" stroke="black" points="100.5,-0.5 100.5,-19.5 161.5,-19.5 161.5,-0.5 100.5,-0.5"/>
<text text-anchor="middle" x="131" y="-7.5" font-family="Helvetica,sans-Serif" font-size="10.00">build_auth</text>
</a>
</g>
</g>
<!-- Node1&#45;&gt;Node2 -->
<g id="edge1" class="edge"><title>Node1&#45;&gt;Node2</title>
<path fill="none" stroke="midnightblue" d="M74.329,-10C83.1224,-10 92.2374,-10 100.483,-10"/>
<polygon fill="midnightblue" stroke="midnightblue" points="74.2254,-6.5001 64.2253,-10 74.2253,-13.5001 74.2254,-6.5001"/>
</g>
<!-- Node3 -->
<g id="node3" class="node"><title>Node3</title>
<g id="a_node3"><a xlink:href="../../d3/db3/pretend__auth_8c.html#a4495356dc82b4163d98ed5adcfd5cac8" target="_top" xlink:title="process_auth_response">
<polygon fill="none" stroke="black" points="198,-0.5 198,-19.5 318,-19.5 318,-0.5 198,-0.5"/>
<text text-anchor="middle" x="258" y="-7.5" font-family="Helvetica,sans-Serif" font-size="10.00">process_auth_response</text>
</a>
</g>
</g>
<!-- Node2&#45;&gt;Node3 -->
<g id="edge2" class="edge"><title>Node2&#45;&gt;Node3</title>
<path fill="none" stroke="midnightblue" d="M171.772,-10C180.089,-10 189.028,-10 197.876,-10"/>
<polygon fill="midnightblue" stroke="midnightblue" points="171.623,-6.5001 161.623,-10 171.623,-13.5001 171.623,-6.5001"/>
</g>
<!-- Node4 -->
<g id="node4" class="node"><title>Node4</title>
<g id="a_node4"><a xlink:href="../../d3/db3/pretend__auth_8c.html#aadf45f2afe23f71e2c042730808ae155" target="_top" xlink:title="METHOD">
<polygon fill="none" stroke="black" points="354,-0.5 354,-19.5 414,-19.5 414,-0.5 354,-0.5"/>
<text text-anchor="middle" x="384" y="-7.5" font-family="Helvetica,sans-Serif" font-size="10.00">METHOD</text>
</a>
</g>
</g>
<!-- Node3&#45;&gt;Node4 -->
<g id="edge3" class="edge"><title>Node3&#45;&gt;Node4</title>
<path fill="none" stroke="midnightblue" d="M328.322,-10C337.339,-10 346.146,-10 353.967,-10"/>
<polygon fill="midnightblue" stroke="midnightblue" points="328.095,-6.5001 318.095,-10 328.095,-13.5001 328.095,-6.5001"/>
</g>
</g>
</svg>
