<?xml version="1.0" encoding="UTF-8" standalone="no"?>
<!DOCTYPE svg PUBLIC "-//W3C//DTD SVG 1.1//EN"
 "http://www.w3.org/Graphics/SVG/1.1/DTD/svg11.dtd">
<!-- Generated by graphviz version 2.36.0 (20140111.2315)
 -->
<!-- Title: load_imcvs_from_config Pages: 1 -->
<svg width="1278pt" height="433pt"
 viewBox="0.00 0.00 1278.00 433.19" xmlns="http://www.w3.org/2000/svg" xmlns:xlink="http://www.w3.org/1999/xlink">
<g id="graph0" class="graph" transform="scale(1 1) rotate(0) translate(4 429.192)">
<title>load_imcvs_from_config</title>
<!-- Node1 -->
<g id="node1" class="node"><title>Node1</title>
<polygon fill="#bfbfbf" stroke="black" points="0,-171.5 0,-190.5 122,-190.5 122,-171.5 0,-171.5"/>
<text text-anchor="middle" x="61" y="-178.5" font-family="Helvetica,sans-Serif" font-size="10.00">load_imcvs_from_config</text>
</g>
<!-- Node2 -->
<g id="node2" class="node"><title>Node2</title>
<g id="a_node2"><a xlink:href="../../d4/d87/group__chunk.html#gacf27867de490f5002ea59616f97e4bfb" target="_top" xlink:title="chunk_map">
<polygon fill="none" stroke="black" points="167.5,-304.5 167.5,-323.5 234.5,-323.5 234.5,-304.5 167.5,-304.5"/>
<text text-anchor="middle" x="201" y="-311.5" font-family="Helvetica,sans-Serif" font-size="10.00">chunk_map</text>
</a>
</g>
</g>
<!-- Node1&#45;&gt;Node2 -->
<g id="edge1" class="edge"><title>Node1&#45;&gt;Node2</title>
<path fill="none" stroke="midnightblue" d="M71.9246,-190.565C95.0855,-212.887 152.96,-268.664 182.32,-296.961"/>
<polygon fill="midnightblue" stroke="midnightblue" points="180.164,-299.743 189.793,-304.163 185.021,-294.703 180.164,-299.743"/>
</g>
<!-- Node3 -->
<g id="node3" class="node"><title>Node3</title>
<g id="a_node3"><a xlink:href="../../da/dfc/settings__parser_8c.html#af07d89f5ceaea0c7c8252cc41fd75f37" target="_top" xlink:title="free">
<polygon fill="none" stroke="black" points="941.5,-228.5 941.5,-247.5 974.5,-247.5 974.5,-228.5 941.5,-228.5"/>
<text text-anchor="middle" x="958" y="-235.5" font-family="Helvetica,sans-Serif" font-size="10.00">free</text>
</a>
</g>
</g>
<!-- Node1&#45;&gt;Node3 -->
<g id="edge15" class="edge"><title>Node1&#45;&gt;Node3</title>
<path fill="none" stroke="midnightblue" d="M122.051,-187.565C177.508,-193.057 262.21,-200 336,-200 336,-200 336,-200 644,-200 751.543,-200 878.367,-222.381 931.538,-232.79"/>
<polygon fill="midnightblue" stroke="midnightblue" points="930.958,-236.243 941.448,-234.76 932.323,-229.378 930.958,-236.243"/>
</g>
<!-- Node4 -->
<g id="node4" class="node"><title>Node4</title>
<g id="a_node4"><a xlink:href="../../d4/d87/group__chunk.html#ga23adb71a767a9ab767166ee2a8362860" target="_top" xlink:title="chunk_unmap">
<polygon fill="none" stroke="black" points="298.5,-380.5 298.5,-399.5 375.5,-399.5 375.5,-380.5 298.5,-380.5"/>
<text text-anchor="middle" x="337" y="-387.5" font-family="Helvetica,sans-Serif" font-size="10.00">chunk_unmap</text>
</a>
</g>
</g>
<!-- Node1&#45;&gt;Node4 -->
<g id="edge10" class="edge"><title>Node1&#45;&gt;Node4</title>
<path fill="none" stroke="midnightblue" d="M65.4448,-190.836C75.3732,-217.755 106.662,-293.264 158,-333 196.159,-362.536 250.051,-376.991 288.52,-383.92"/>
<polygon fill="midnightblue" stroke="midnightblue" points="287.996,-387.381 298.441,-385.603 289.167,-380.48 287.996,-387.381"/>
</g>
<!-- Node8 -->
<g id="node8" class="node"><title>Node8</title>
<g id="a_node8"><a xlink:href="../../d0/db8/group__lexparser.html#ga4da3380f1b944891f23ad0da34f7c7c3" target="_top" xlink:title="eat_whitespace">
<polygon fill="none" stroke="black" points="158.5,-114.5 158.5,-133.5 243.5,-133.5 243.5,-114.5 158.5,-114.5"/>
<text text-anchor="middle" x="201" y="-121.5" font-family="Helvetica,sans-Serif" font-size="10.00">eat_whitespace</text>
</a>
</g>
</g>
<!-- Node1&#45;&gt;Node8 -->
<g id="edge11" class="edge"><title>Node1&#45;&gt;Node8</title>
<path fill="none" stroke="midnightblue" d="M85.0981,-171.459C107.587,-162.171 141.981,-147.964 167.281,-137.514"/>
<polygon fill="midnightblue" stroke="midnightblue" points="168.92,-140.624 176.827,-133.572 166.248,-134.154 168.92,-140.624"/>
</g>
<!-- Node9 -->
<g id="node9" class="node"><title>Node9</title>
<g id="a_node9"><a xlink:href="../../d0/db8/group__lexparser.html#gae6bcaffd6c19a8aebed778e10ded6f17" target="_top" xlink:title="extract_token">
<polygon fill="none" stroke="black" points="299,-57.5 299,-76.5 375,-76.5 375,-57.5 299,-57.5"/>
<text text-anchor="middle" x="337" y="-64.5" font-family="Helvetica,sans-Serif" font-size="10.00">extract_token</text>
</a>
</g>
</g>
<!-- Node1&#45;&gt;Node9 -->
<g id="edge12" class="edge"><title>Node1&#45;&gt;Node9</title>
<path fill="none" stroke="midnightblue" d="M71.0685,-171.365C87.0179,-155.03 121.843,-122.021 158,-105 199.812,-85.3165 251.945,-75.7208 288.96,-71.111"/>
<polygon fill="midnightblue" stroke="midnightblue" points="289.452,-74.5773 298.978,-69.9387 288.639,-67.6247 289.452,-74.5773"/>
</g>
<!-- Node10 -->
<g id="node10" class="node"><title>Node10</title>
<g id="a_node10"><a xlink:href="../../d0/db8/group__lexparser.html#ga59a9f859bf7db596649f95eba0954fff" target="_top" xlink:title="fetchline">
<polygon fill="none" stroke="black" points="174.5,-38.5 174.5,-57.5 227.5,-57.5 227.5,-38.5 174.5,-38.5"/>
<text text-anchor="middle" x="201" y="-45.5" font-family="Helvetica,sans-Serif" font-size="10.00">fetchline</text>
</a>
</g>
</g>
<!-- Node1&#45;&gt;Node10 -->
<g id="edge13" class="edge"><title>Node1&#45;&gt;Node10</title>
<path fill="none" stroke="midnightblue" d="M68.8115,-171.301C83.4029,-151.015 119.496,-103.388 158,-72 162.046,-68.7017 166.603,-65.5903 171.185,-62.7694"/>
<polygon fill="midnightblue" stroke="midnightblue" points="172.994,-65.7665 179.898,-57.73 169.489,-59.707 172.994,-65.7665"/>
</g>
<!-- Node11 -->
<g id="node11" class="node"><title>Node11</title>
<g id="a_node11"><a xlink:href="../../d4/d7b/ike__cfg_8c.html#afd2ad039e594563627520b9a6908b6c5" target="_top" xlink:title="match">
<polygon fill="none" stroke="black" points="179,-152.5 179,-171.5 223,-171.5 223,-152.5 179,-152.5"/>
<text text-anchor="middle" x="201" y="-159.5" font-family="Helvetica,sans-Serif" font-size="10.00">match</text>
</a>
</g>
</g>
<!-- Node1&#45;&gt;Node11 -->
<g id="edge16" class="edge"><title>Node1&#45;&gt;Node11</title>
<path fill="none" stroke="midnightblue" d="M122.127,-172.722C138.218,-170.506 154.963,-168.201 168.784,-166.298"/>
<polygon fill="midnightblue" stroke="midnightblue" points="169.294,-169.761 178.723,-164.929 168.339,-162.826 169.294,-169.761"/>
</g>
<!-- Node25 -->
<g id="node25" class="node"><title>Node25</title>
<g id="a_node25"><a xlink:href="../../da/d9b/group__windows.html#ga8b860ba32fef12da8acd4507c059e509" target="_top" xlink:title="strndup">
<polygon fill="none" stroke="black" points="312.5,-228.5 312.5,-247.5 361.5,-247.5 361.5,-228.5 312.5,-228.5"/>
<text text-anchor="middle" x="337" y="-235.5" font-family="Helvetica,sans-Serif" font-size="10.00">strndup</text>
</a>
</g>
</g>
<!-- Node1&#45;&gt;Node25 -->
<g id="edge36" class="edge"><title>Node1&#45;&gt;Node25</title>
<path fill="none" stroke="midnightblue" d="M85.6802,-190.606C104.879,-198.035 132.79,-208.029 158,-214 207.572,-225.741 266.367,-232.271 302.423,-235.459"/>
<polygon fill="midnightblue" stroke="midnightblue" points="302.145,-238.948 312.406,-236.307 302.738,-231.973 302.145,-238.948"/>
</g>
<!-- Node2&#45;&gt;Node3 -->
<g id="edge2" class="edge"><title>Node2&#45;&gt;Node3</title>
<path fill="none" stroke="midnightblue" d="M234.64,-321.148C287.844,-332.155 396.698,-352 490,-352 490,-352 490,-352 644,-352 758.604,-352 883.334,-283.69 933.841,-252.826"/>
<polygon fill="midnightblue" stroke="midnightblue" points="935.736,-255.769 942.389,-247.523 932.046,-249.821 935.736,-255.769"/>
</g>
<!-- Node2&#45;&gt;Node4 -->
<g id="edge3" class="edge"><title>Node2&#45;&gt;Node4</title>
<path fill="none" stroke="midnightblue" d="M214.791,-323.593C229.88,-334.652 255.959,-352.977 280,-366 286.778,-369.672 294.235,-373.198 301.435,-376.363"/>
<polygon fill="midnightblue" stroke="midnightblue" points="300.434,-379.741 311.006,-380.437 303.176,-373.3 300.434,-379.741"/>
</g>
<!-- Node5 -->
<g id="node5" class="node"><title>Node5</title>
<g id="a_node5"><a xlink:href="../../d4/d87/group__chunk.html#gad94ca029616a107e89eaa618408fd7b6" target="_top" xlink:title="chunk_create">
<polygon fill="none" stroke="black" points="453.5,-304.5 453.5,-323.5 528.5,-323.5 528.5,-304.5 453.5,-304.5"/>
<text text-anchor="middle" x="491" y="-311.5" font-family="Helvetica,sans-Serif" font-size="10.00">chunk_create</text>
</a>
</g>
</g>
<!-- Node2&#45;&gt;Node5 -->
<g id="edge5" class="edge"><title>Node2&#45;&gt;Node5</title>
<path fill="none" stroke="midnightblue" d="M234.757,-314C285.799,-314 384.52,-314 443.101,-314"/>
<polygon fill="midnightblue" stroke="midnightblue" points="443.199,-317.5 453.199,-314 443.199,-310.5 443.199,-317.5"/>
</g>
<!-- Node6 -->
<g id="node6" class="node"><title>Node6</title>
<g id="a_node6"><a xlink:href="../../d4/d87/group__chunk.html#ga207cbb568ad9c4bc26ac74a6dfd61355" target="_top" xlink:title="chunk_from_fd">
<polygon fill="none" stroke="black" points="296.5,-266.5 296.5,-285.5 377.5,-285.5 377.5,-266.5 296.5,-266.5"/>
<text text-anchor="middle" x="337" y="-273.5" font-family="Helvetica,sans-Serif" font-size="10.00">chunk_from_fd</text>
</a>
</g>
</g>
<!-- Node2&#45;&gt;Node6 -->
<g id="edge6" class="edge"><title>Node2&#45;&gt;Node6</title>
<path fill="none" stroke="midnightblue" d="M234.78,-304.704C252.119,-299.787 273.637,-293.685 292.37,-288.373"/>
<polygon fill="midnightblue" stroke="midnightblue" points="293.493,-291.692 302.159,-285.597 291.584,-284.958 293.493,-291.692"/>
</g>
<!-- Node4&#45;&gt;Node3 -->
<g id="edge4" class="edge"><title>Node4&#45;&gt;Node3</title>
<path fill="none" stroke="midnightblue" d="M375.763,-399.191C467.735,-419.398 707.823,-458.862 872,-366 914.599,-341.905 939.797,-286.603 950.655,-257.2"/>
<polygon fill="midnightblue" stroke="midnightblue" points="954,-258.24 954.013,-247.645 947.396,-255.919 954,-258.24"/>
</g>
<!-- Node6&#45;&gt;Node3 -->
<g id="edge8" class="edge"><title>Node6&#45;&gt;Node3</title>
<path fill="none" stroke="midnightblue" d="M377.663,-273.565C494.439,-266.396 834.851,-245.499 931.275,-239.579"/>
<polygon fill="midnightblue" stroke="midnightblue" points="931.543,-243.069 941.31,-238.963 931.114,-236.083 931.543,-243.069"/>
</g>
<!-- Node6&#45;&gt;Node5 -->
<g id="edge9" class="edge"><title>Node6&#45;&gt;Node5</title>
<path fill="none" stroke="midnightblue" d="M376.356,-285.589C396.779,-290.695 422.055,-297.014 443.579,-302.395"/>
<polygon fill="midnightblue" stroke="midnightblue" points="442.939,-305.842 453.489,-304.872 444.637,-299.051 442.939,-305.842"/>
</g>
<!-- Node7 -->
<g id="node7" class="node"><title>Node7</title>
<g id="a_node7"><a xlink:href="../../da/dfc/settings__parser_8c.html#a5faf6a2d99f50a4655dd390199a8db7b" target="_top" xlink:title="malloc">
<polygon fill="none" stroke="black" points="468.5,-228.5 468.5,-247.5 513.5,-247.5 513.5,-228.5 468.5,-228.5"/>
<text text-anchor="middle" x="491" y="-235.5" font-family="Helvetica,sans-Serif" font-size="10.00">malloc</text>
</a>
</g>
</g>
<!-- Node6&#45;&gt;Node7 -->
<g id="edge7" class="edge"><title>Node6&#45;&gt;Node7</title>
<path fill="none" stroke="midnightblue" d="M376.356,-266.411C401.637,-260.091 434.354,-251.912 458.187,-245.953"/>
<polygon fill="midnightblue" stroke="midnightblue" points="459.279,-249.288 468.131,-243.467 457.581,-242.497 459.279,-249.288"/>
</g>
<!-- Node10&#45;&gt;Node9 -->
<g id="edge14" class="edge"><title>Node10&#45;&gt;Node9</title>
<path fill="none" stroke="midnightblue" d="M227.52,-51.6185C244.799,-54.0685 268.147,-57.3791 288.756,-60.3013"/>
<polygon fill="midnightblue" stroke="midnightblue" points="288.533,-63.8045 298.925,-61.7431 289.516,-56.8738 288.533,-63.8045"/>
</g>
<!-- Node12 -->
<g id="node12" class="node"><title>Node12</title>
<g id="a_node12"><a xlink:href="../../d7/df1/group__host.html#gaa0dc359dc1c8e327bb484e3e12df59d7" target="_top" xlink:title="host_create_from_dns">
<polygon fill="none" stroke="black" points="280.5,-152.5 280.5,-171.5 393.5,-171.5 393.5,-152.5 280.5,-152.5"/>
<text text-anchor="middle" x="337" y="-159.5" font-family="Helvetica,sans-Serif" font-size="10.00">host_create_from_dns</text>
</a>
</g>
</g>
<!-- Node11&#45;&gt;Node12 -->
<g id="edge17" class="edge"><title>Node11&#45;&gt;Node12</title>
<path fill="none" stroke="midnightblue" d="M223.233,-162C236.126,-162 253.351,-162 270.449,-162"/>
<polygon fill="midnightblue" stroke="midnightblue" points="270.469,-165.5 280.469,-162 270.468,-158.5 270.469,-165.5"/>
</g>
<!-- Node13 -->
<g id="node13" class="node"><title>Node13</title>
<g id="a_node13"><a xlink:href="../../d7/df1/group__host.html#ga75f9b1e7905a80d69bc3cc7a7c3775a5" target="_top" xlink:title="host_create_from_string\l_and_family">
<polygon fill="none" stroke="black" points="430,-71 430,-101 552,-101 552,-71 430,-71"/>
<text text-anchor="start" x="438" y="-89" font-family="Helvetica,sans-Serif" font-size="10.00">host_create_from_string</text>
<text text-anchor="middle" x="491" y="-78" font-family="Helvetica,sans-Serif" font-size="10.00">_and_family</text>
</a>
</g>
</g>
<!-- Node12&#45;&gt;Node13 -->
<g id="edge18" class="edge"><title>Node12&#45;&gt;Node13</title>
<path fill="none" stroke="midnightblue" d="M357.251,-152.375C380.707,-140.646 420.919,-120.54 450.954,-105.523"/>
<polygon fill="midnightblue" stroke="midnightblue" points="452.54,-108.643 459.919,-101.041 449.409,-102.382 452.54,-108.643"/>
</g>
<!-- Node22 -->
<g id="node22" class="node"><title>Node22</title>
<g id="a_node22"><a xlink:href="../../d9/dbc/kernel__pfkey__ipsec_8c.html#a5da61ec055ea1dffbb84ffe3caddb7dc" target="_top" xlink:title="set_port">
<polygon fill="none" stroke="black" points="777,-152.5 777,-171.5 829,-171.5 829,-152.5 777,-152.5"/>
<text text-anchor="middle" x="803" y="-159.5" font-family="Helvetica,sans-Serif" font-size="10.00">set_port</text>
</a>
</g>
</g>
<!-- Node12&#45;&gt;Node22 -->
<g id="edge35" class="edge"><title>Node12&#45;&gt;Node22</title>
<path fill="none" stroke="midnightblue" d="M393.508,-162C490.197,-162 686.836,-162 766.899,-162"/>
<polygon fill="midnightblue" stroke="midnightblue" points="766.958,-165.5 776.958,-162 766.958,-158.5 766.958,-165.5"/>
</g>
<!-- Node14 -->
<g id="node14" class="node"><title>Node14</title>
<g id="a_node14"><a xlink:href="../../d4/d40/group__string__i.html#ga65c3d08890165aaa4663c72d07f93bb7" target="_top" xlink:title="streq">
<polygon fill="none" stroke="black" points="624,-38.5 624,-57.5 662,-57.5 662,-38.5 624,-38.5"/>
<text text-anchor="middle" x="643" y="-45.5" font-family="Helvetica,sans-Serif" font-size="10.00">streq</text>
</a>
</g>
</g>
<!-- Node13&#45;&gt;Node14 -->
<g id="edge19" class="edge"><title>Node13&#45;&gt;Node14</title>
<path fill="none" stroke="midnightblue" d="M551.284,-70.9814C572.714,-65.5526 595.935,-59.6697 613.519,-55.2151"/>
<polygon fill="midnightblue" stroke="midnightblue" points="614.838,-58.4916 623.673,-52.6429 613.119,-51.7059 614.838,-58.4916"/>
</g>
<!-- Node15 -->
<g id="node15" class="node"><title>Node15</title>
<g id="a_node15"><a xlink:href="../../df/da9/host_8c.html#a2670c8aac87ed6960c4e45f42f843b73" target="_top" xlink:title="host_create_any_port">
<polygon fill="none" stroke="black" points="588,-114.5 588,-133.5 698,-133.5 698,-114.5 588,-114.5"/>
<text text-anchor="middle" x="643" y="-121.5" font-family="Helvetica,sans-Serif" font-size="10.00">host_create_any_port</text>
</a>
</g>
</g>
<!-- Node13&#45;&gt;Node15 -->
<g id="edge20" class="edge"><title>Node13&#45;&gt;Node15</title>
<path fill="none" stroke="midnightblue" d="M551.284,-101.019C565.649,-104.658 580.82,-108.501 594.558,-111.981"/>
<polygon fill="midnightblue" stroke="midnightblue" points="593.722,-115.38 604.276,-114.443 595.442,-108.595 593.722,-115.38"/>
</g>
<!-- Node23 -->
<g id="node23" class="node"><title>Node23</title>
<g id="a_node23"><a xlink:href="../../da/d9b/group__windows.html#ga7fb1f8a8f40e09fa09e625d2a09dc04e" target="_top" xlink:title="inet_pton">
<polygon fill="none" stroke="black" points="615,-0.5 615,-19.5 671,-19.5 671,-0.5 615,-0.5"/>
<text text-anchor="middle" x="643" y="-7.5" font-family="Helvetica,sans-Serif" font-size="10.00">inet_pton</text>
</a>
</g>
</g>
<!-- Node13&#45;&gt;Node23 -->
<g id="edge30" class="edge"><title>Node13&#45;&gt;Node23</title>
<path fill="none" stroke="midnightblue" d="M514.58,-70.8577C533.606,-58.5285 561.834,-41.2248 588,-29 593.48,-26.4398 599.406,-24.0231 605.257,-21.8263"/>
<polygon fill="midnightblue" stroke="midnightblue" points="606.71,-25.0233 614.94,-18.3504 604.345,-18.4349 606.71,-25.0233"/>
</g>
<!-- Node24 -->
<g id="node24" class="node"><title>Node24</title>
<g id="a_node24"><a xlink:href="../../d7/df1/group__host.html#ga3183b60055297ceaa19b4a5996496830" target="_top" xlink:title="host_create_from_sockaddr">
<polygon fill="none" stroke="black" points="734.5,-76.5 734.5,-95.5 871.5,-95.5 871.5,-76.5 734.5,-76.5"/>
<text text-anchor="middle" x="803" y="-83.5" font-family="Helvetica,sans-Serif" font-size="10.00">host_create_from_sockaddr</text>
</a>
</g>
</g>
<!-- Node13&#45;&gt;Node24 -->
<g id="edge31" class="edge"><title>Node13&#45;&gt;Node24</title>
<path fill="none" stroke="midnightblue" d="M552.139,-86C601.266,-86 671.052,-86 724.391,-86"/>
<polygon fill="midnightblue" stroke="midnightblue" points="724.489,-89.5001 734.489,-86 724.489,-82.5001 724.489,-89.5001"/>
</g>
<!-- Node16 -->
<g id="node16" class="node"><title>Node16</title>
<g id="a_node16"><a xlink:href="../../d7/df1/group__host.html#ga5f2c94740339664ce118776e13829cd0" target="_top" xlink:title="host_create_any">
<polygon fill="none" stroke="black" points="758.5,-114.5 758.5,-133.5 847.5,-133.5 847.5,-114.5 758.5,-114.5"/>
<text text-anchor="middle" x="803" y="-121.5" font-family="Helvetica,sans-Serif" font-size="10.00">host_create_any</text>
</a>
</g>
</g>
<!-- Node15&#45;&gt;Node16 -->
<g id="edge21" class="edge"><title>Node15&#45;&gt;Node16</title>
<path fill="none" stroke="midnightblue" d="M698.375,-124C714.484,-124 732.112,-124 748.186,-124"/>
<polygon fill="midnightblue" stroke="midnightblue" points="748.493,-127.5 758.493,-124 748.493,-120.5 748.493,-127.5"/>
</g>
<!-- Node15&#45;&gt;Node22 -->
<g id="edge29" class="edge"><title>Node15&#45;&gt;Node22</title>
<path fill="none" stroke="midnightblue" d="M683.87,-133.589C709.467,-139.745 742.397,-147.665 766.984,-153.578"/>
<polygon fill="midnightblue" stroke="midnightblue" points="766.423,-157.043 776.964,-155.979 768.06,-150.237 766.423,-157.043"/>
</g>
<!-- Node16&#45;&gt;Node3 -->
<g id="edge28" class="edge"><title>Node16&#45;&gt;Node3</title>
<path fill="none" stroke="midnightblue" d="M847.633,-132.222C856.09,-134.892 864.611,-138.402 872,-143 903.917,-162.863 930.901,-198.192 945.447,-219.718"/>
<polygon fill="midnightblue" stroke="midnightblue" points="942.649,-221.834 951.063,-228.273 948.501,-217.992 942.649,-221.834"/>
</g>
<!-- Node17 -->
<g id="node17" class="node"><title>Node17</title>
<g id="a_node17"><a xlink:href="../../df/da9/host_8c.html#ac3854e66d5a7563cae9608acbcad6eb5" target="_top" xlink:title="host_create_empty">
<polygon fill="none" stroke="black" points="908,-76.5 908,-95.5 1008,-95.5 1008,-76.5 908,-76.5"/>
<text text-anchor="middle" x="958" y="-83.5" font-family="Helvetica,sans-Serif" font-size="10.00">host_create_empty</text>
</a>
</g>
</g>
<!-- Node16&#45;&gt;Node17 -->
<g id="edge22" class="edge"><title>Node16&#45;&gt;Node17</title>
<path fill="none" stroke="midnightblue" d="M842.608,-114.411C862.707,-109.419 887.475,-103.268 908.819,-97.9666"/>
<polygon fill="midnightblue" stroke="midnightblue" points="909.808,-101.327 918.669,-95.5201 908.12,-94.5338 909.808,-101.327"/>
</g>
<!-- Node21 -->
<g id="node21" class="node"><title>Node21</title>
<g id="a_node21"><a xlink:href="../../df/da9/host_8c.html#a1fb6a6590d2576c32709b890623cad8c" target="_top" xlink:title="update_sa_len">
<polygon fill="none" stroke="black" points="918,-114.5 918,-133.5 998,-133.5 998,-114.5 918,-114.5"/>
<text text-anchor="middle" x="958" y="-121.5" font-family="Helvetica,sans-Serif" font-size="10.00">update_sa_len</text>
</a>
</g>
</g>
<!-- Node16&#45;&gt;Node21 -->
<g id="edge27" class="edge"><title>Node16&#45;&gt;Node21</title>
<path fill="none" stroke="midnightblue" d="M847.844,-124C866.556,-124 888.478,-124 907.747,-124"/>
<polygon fill="midnightblue" stroke="midnightblue" points="907.845,-127.5 917.845,-124 907.845,-120.5 907.845,-127.5"/>
</g>
<!-- Node18 -->
<g id="node18" class="node"><title>Node18</title>
<g id="a_node18"><a xlink:href="../../df/da9/host_8c.html#a809d5cf7574c1f5e27758950d53653f4" target="_top" xlink:title="equals">
<polygon fill="none" stroke="black" points="1044.5,-57.5 1044.5,-76.5 1089.5,-76.5 1089.5,-57.5 1044.5,-57.5"/>
<text text-anchor="middle" x="1067" y="-64.5" font-family="Helvetica,sans-Serif" font-size="10.00">equals</text>
</a>
</g>
</g>
<!-- Node17&#45;&gt;Node18 -->
<g id="edge23" class="edge"><title>Node17&#45;&gt;Node18</title>
<path fill="none" stroke="midnightblue" d="M1008.12,-77.2785C1017.08,-75.6872 1026.2,-74.0665 1034.48,-72.5967"/>
<polygon fill="midnightblue" stroke="midnightblue" points="1035.2,-76.0237 1044.44,-70.8292 1033.98,-69.1316 1035.2,-76.0237"/>
</g>
<!-- Node19 -->
<g id="node19" class="node"><title>Node19</title>
<g id="a_node19"><a xlink:href="../../df/da9/host_8c.html#a0ea5fbf16ec81f3c5eaf6dc5da8d452a" target="_top" xlink:title="ip_equals">
<polygon fill="none" stroke="black" points="1126,-76.5 1126,-95.5 1184,-95.5 1184,-76.5 1126,-76.5"/>
<text text-anchor="middle" x="1155" y="-83.5" font-family="Helvetica,sans-Serif" font-size="10.00">ip_equals</text>
</a>
</g>
</g>
<!-- Node17&#45;&gt;Node19 -->
<g id="edge26" class="edge"><title>Node17&#45;&gt;Node19</title>
<path fill="none" stroke="midnightblue" d="M1008.21,-86C1041.51,-86 1084.88,-86 1115.63,-86"/>
<polygon fill="midnightblue" stroke="midnightblue" points="1115.94,-89.5001 1125.94,-86 1115.94,-82.5001 1115.94,-89.5001"/>
</g>
<!-- Node18&#45;&gt;Node19 -->
<g id="edge24" class="edge"><title>Node18&#45;&gt;Node19</title>
<path fill="none" stroke="midnightblue" d="M1089.7,-71.7945C1097.66,-73.5517 1106.91,-75.5963 1115.88,-77.5775"/>
<polygon fill="midnightblue" stroke="midnightblue" points="1115.28,-81.0291 1125.8,-79.7688 1116.79,-74.1939 1115.28,-81.0291"/>
</g>
<!-- Node20 -->
<g id="node20" class="node"><title>Node20</title>
<g id="a_node20"><a xlink:href="../../dd/d74/group__memory__i.html#ga46d7935db00fd7092430dbf4f36c2850" target="_top" xlink:title="memeq">
<polygon fill="none" stroke="black" points="1220.5,-76.5 1220.5,-95.5 1269.5,-95.5 1269.5,-76.5 1220.5,-76.5"/>
<text text-anchor="middle" x="1245" y="-83.5" font-family="Helvetica,sans-Serif" font-size="10.00">memeq</text>
</a>
</g>
</g>
<!-- Node19&#45;&gt;Node20 -->
<g id="edge25" class="edge"><title>Node19&#45;&gt;Node20</title>
<path fill="none" stroke="midnightblue" d="M1184.33,-86C1192.62,-86 1201.76,-86 1210.34,-86"/>
<polygon fill="midnightblue" stroke="midnightblue" points="1210.44,-89.5001 1220.44,-86 1210.44,-82.5001 1210.44,-89.5001"/>
</g>
<!-- Node24&#45;&gt;Node3 -->
<g id="edge34" class="edge"><title>Node24&#45;&gt;Node3</title>
<path fill="none" stroke="midnightblue" d="M854.613,-95.602C860.805,-98.055 866.779,-101.134 872,-105 892.957,-120.516 929.731,-186.466 947.222,-219.288"/>
<polygon fill="midnightblue" stroke="midnightblue" points="944.227,-221.112 951.993,-228.319 950.417,-217.842 944.227,-221.112"/>
</g>
<!-- Node24&#45;&gt;Node17 -->
<g id="edge32" class="edge"><title>Node24&#45;&gt;Node17</title>
<path fill="none" stroke="midnightblue" d="M871.553,-86C880.204,-86 889.009,-86 897.519,-86"/>
<polygon fill="midnightblue" stroke="midnightblue" points="897.721,-89.5001 907.721,-86 897.721,-82.5001 897.721,-89.5001"/>
</g>
<!-- Node24&#45;&gt;Node21 -->
<g id="edge33" class="edge"><title>Node24&#45;&gt;Node21</title>
<path fill="none" stroke="midnightblue" d="M842.608,-95.589C862.707,-100.581 887.475,-106.732 908.819,-112.033"/>
<polygon fill="midnightblue" stroke="midnightblue" points="908.12,-115.466 918.669,-114.48 909.808,-108.673 908.12,-115.466"/>
</g>
<!-- Node25&#45;&gt;Node7 -->
<g id="edge37" class="edge"><title>Node25&#45;&gt;Node7</title>
<path fill="none" stroke="midnightblue" d="M361.75,-238C387.663,-238 429.284,-238 458.048,-238"/>
<polygon fill="midnightblue" stroke="midnightblue" points="458.384,-241.5 468.384,-238 458.383,-234.5 458.384,-241.5"/>
</g>
</g>
</svg>
