<?xml version="1.0" encoding="UTF-8" standalone="no"?>
<!DOCTYPE svg PUBLIC "-//W3C//DTD SVG 1.1//EN"
 "http://www.w3.org/Graphics/SVG/1.1/DTD/svg11.dtd">
<!-- Generated by graphviz version 2.36.0 (20140111.2315)
 -->
<!-- Title: private_mode_config_t Pages: 1 -->
<!--zoomable 808 -->
<svg id="main" version="1.1" xmlns="http://www.w3.org/2000/svg" xmlns:xlink="http://www.w3.org/1999/xlink" xml:space="preserve" onload="init(evt)">
<style type="text/css"><![CDATA[
.edge:hover path { stroke: red; }
.edge:hover polygon { stroke: red; fill: red; }
]]></style>
<script type="text/javascript"><![CDATA[
var edges = document.getElementsByTagName('g');
if (edges && edges.length) {
  for (var i=0;i<edges.length;i++) {
    if (edges[i].id.substr(0,4)=='edge') {
      edges[i].setAttribute('class','edge');
    }
  }
}
]]></script>
        <defs>
                <circle id="rim" cx="0" cy="0" r="7"/>
                <circle id="rim2" cx="0" cy="0" r="3.5"/>
                <g id="zoomPlus">
                        <use xlink:href="#rim" fill="#404040">
                                <set attributeName="fill" to="#808080" begin="zoomplus.mouseover" end="zoomplus.mouseout"/>
                        </use>
                        <path d="M-4,0h8M0,-4v8" fill="none" stroke="white" stroke-width="1.5" pointer-events="none"/>
                </g>
                <g id="zoomMin">
                        <use xlink:href="#rim" fill="#404040">
                                <set attributeName="fill" to="#808080" begin="zoomminus.mouseover" end="zoomminus.mouseout"/>
                        </use>
                        <path d="M-4,0h8" fill="none" stroke="white" stroke-width="1.5" pointer-events="none"/>
                </g>
                <g id="dirArrow">
                        <path fill="none" stroke="white" stroke-width="1.5" d="M0,-3.0v7 M-2.5,-0.5L0,-3.0L2.5,-0.5"/>
                </g>
               <g id="resetDef">
                       <use xlink:href="#rim2" fill="#404040">
                               <set attributeName="fill" to="#808080" begin="reset.mouseover" end="reset.mouseout"/>
                       </use>
               </g>
        </defs>

<script type="text/javascript">
var viewWidth = 1134;
var viewHeight = 808;
var sectionId = 'dynsection-0';
</script>
<script xlink:href="../../svgpan.js"/>
<svg id="graph" class="graph">
<g id="viewport">
<title>private_mode_config_t</title>
<!-- Node1 -->
<g id="node1" class="node"><title>Node1</title>
<polygon fill="#bfbfbf" stroke="black" points="1010.5,-77.5 1010.5,-96.5 1125.5,-96.5 1125.5,-77.5 1010.5,-77.5"/>
<text text-anchor="middle" x="1068" y="-84.5" font-family="Helvetica,sans-Serif" font-size="10.00">private_mode_config_t</text>
</g>
<!-- Node2 -->
<g id="node2" class="node"><title>Node2</title>
<g id="a_node2"><a xlink:href="../../d9/d7d/structike__sa__t.html" target="_top" xlink:title="ike_sa_t">
<polygon fill="none" stroke="black" points="888.5,-437.5 888.5,-456.5 941.5,-456.5 941.5,-437.5 888.5,-437.5"/>
<text text-anchor="middle" x="915" y="-444.5" font-family="Helvetica,sans-Serif" font-size="10.00">ike_sa_t</text>
</a>
</g>
</g>
<!-- Node2&#45;&gt;Node1 -->
<g id="edge1" class="edge"><title>Node2&#45;&gt;Node1</title>
<path fill="none" stroke="#9a32cd" stroke-dasharray="5,2" d="M924.054,-427.798C951.74,-361.791 1042.43,-145.584 1062.88,-96.8276"/>
<polygon fill="#9a32cd" stroke="#9a32cd" points="920.679,-426.795 920.039,-437.371 927.134,-429.503 920.679,-426.795"/>
<text text-anchor="middle" x="976" y="-343" font-family="Helvetica,sans-Serif" font-size="10.00"> ike_sa</text>
</g>
<!-- Node3 -->
<g id="node3" class="node"><title>Node3</title>
<g id="a_node3"><a xlink:href="../../d8/d4a/structchild__sa__t.html" target="_top" xlink:title="child_sa_t">
<polygon fill="none" stroke="black" points="728.5,-266.5 728.5,-285.5 789.5,-285.5 789.5,-266.5 728.5,-266.5"/>
<text text-anchor="middle" x="759" y="-273.5" font-family="Helvetica,sans-Serif" font-size="10.00">child_sa_t</text>
</a>
</g>
</g>
<!-- Node3&#45;&gt;Node2 -->
<g id="edge2" class="edge"><title>Node3&#45;&gt;Node2</title>
<path fill="none" stroke="#9a32cd" stroke-dasharray="5,2" d="M799.483,-280.8C822.807,-285.575 851.332,-295.085 870,-314 905.023,-349.486 912.169,-413.425 913.627,-437.493"/>
<polygon fill="#9a32cd" stroke="#9a32cd" points="799.986,-277.333 789.519,-278.975 798.726,-284.219 799.986,-277.333"/>
<text text-anchor="middle" x="840" y="-317" font-family="Helvetica,sans-Serif" font-size="10.00"> get_child_sa</text>
</g>
<!-- Node4 -->
<g id="node4" class="node"><title>Node4</title>
<g id="a_node4"><a xlink:href="../../d8/dd6/structchild__cfg__t.html" target="_top" xlink:title="child_cfg_t">
<polygon fill="none" stroke="black" points="501,-160.5 501,-179.5 565,-179.5 565,-160.5 501,-160.5"/>
<text text-anchor="middle" x="533" y="-167.5" font-family="Helvetica,sans-Serif" font-size="10.00">child_cfg_t</text>
</a>
</g>
</g>
<!-- Node4&#45;&gt;Node3 -->
<g id="edge3" class="edge"><title>Node4&#45;&gt;Node3</title>
<path fill="none" stroke="#9a32cd" stroke-dasharray="5,2" d="M566.916,-183.285C583.84,-189.898 604.879,-197.786 624,-204 660.812,-215.964 674.433,-207.724 708,-227 725.707,-237.168 741.707,-255.093 750.614,-266.215"/>
<polygon fill="#9a32cd" stroke="#9a32cd" points="568.058,-179.973 557.472,-179.56 565.49,-186.485 568.058,-179.973"/>
<text text-anchor="middle" x="666" y="-230" font-family="Helvetica,sans-Serif" font-size="10.00"> get_config</text>
</g>
<!-- Node4&#45;&gt;Node4 -->
<g id="edge4" class="edge"><title>Node4&#45;&gt;Node4</title>
<path fill="none" stroke="#9a32cd" stroke-dasharray="5,2" d="M508.447,-189.029C509.786,-194.128 517.97,-198 533,-198 556.461,-198 563.243,-188.565 553.345,-179.757"/>
<polygon fill="#9a32cd" stroke="#9a32cd" points="511.709,-190.31 512.655,-179.757 505.335,-187.416 511.709,-190.31"/>
<text text-anchor="middle" x="533" y="-201" font-family="Helvetica,sans-Serif" font-size="10.00"> get_ref</text>
</g>
<!-- Node19 -->
<g id="node19" class="node"><title>Node19</title>
<g id="a_node19"><a xlink:href="../../d9/d16/structpeer__cfg__t.html" target="_top" xlink:title="peer_cfg_t">
<polygon fill="none" stroke="black" points="728,-165.5 728,-184.5 790,-184.5 790,-165.5 728,-165.5"/>
<text text-anchor="middle" x="759" y="-172.5" font-family="Helvetica,sans-Serif" font-size="10.00">peer_cfg_t</text>
</a>
</g>
</g>
<!-- Node4&#45;&gt;Node19 -->
<g id="edge29" class="edge"><title>Node4&#45;&gt;Node19</title>
<path fill="none" stroke="#9a32cd" stroke-dasharray="5,2" d="M575.272,-162.369C610.675,-157.02 662.952,-151.968 708,-159 716.465,-160.321 725.455,-162.83 733.443,-165.475"/>
<polygon fill="#9a32cd" stroke="#9a32cd" points="574.633,-158.927 565.305,-163.951 575.73,-165.841 574.633,-158.927"/>
<text text-anchor="middle" x="666" y="-162" font-family="Helvetica,sans-Serif" font-size="10.00"> select_child_cfg</text>
</g>
<!-- Node5 -->
<g id="node5" class="node"><title>Node5</title>
<g id="a_node5"><a xlink:href="../../da/dbc/structmark__t.html" target="_top" xlink:title="mark_t">
<polygon fill="none" stroke="black" points="232.5,-246.5 232.5,-265.5 279.5,-265.5 279.5,-246.5 232.5,-246.5"/>
<text text-anchor="middle" x="256" y="-253.5" font-family="Helvetica,sans-Serif" font-size="10.00">mark_t</text>
</a>
</g>
</g>
<!-- Node5&#45;&gt;Node3 -->
<g id="edge14" class="edge"><title>Node5&#45;&gt;Node3</title>
<path fill="none" stroke="#9a32cd" stroke-dasharray="5,2" d="M289.859,-255.866C370.725,-255.57 575.076,-255.03 606,-257 648.73,-259.722 697.833,-266.535 728.393,-271.217"/>
<polygon fill="#9a32cd" stroke="#9a32cd" points="289.727,-252.367 279.74,-255.905 289.753,-259.367 289.727,-252.367"/>
<text text-anchor="middle" x="533" y="-260" font-family="Helvetica,sans-Serif" font-size="10.00"> get_mark</text>
</g>
<!-- Node5&#45;&gt;Node4 -->
<g id="edge5" class="edge"><title>Node5&#45;&gt;Node4</title>
<path fill="none" stroke="#9a32cd" stroke-dasharray="5,2" d="M289.741,-248.933C297.672,-247.269 306.132,-245.535 314,-244 370.731,-232.934 387.639,-240.639 442,-221 470.883,-210.566 501.337,-191.316 518.376,-179.683"/>
<polygon fill="#9a32cd" stroke="#9a32cd" points="288.771,-245.561 279.713,-251.057 290.221,-252.409 288.771,-245.561"/>
<text text-anchor="middle" x="378" y="-247" font-family="Helvetica,sans-Serif" font-size="10.00"> get_mark</text>
</g>
<!-- Node6 -->
<g id="node6" class="node"><title>Node6</title>
<g id="a_node6"><a xlink:href="../../df/d06/structproposal__t.html" target="_top" xlink:title="proposal_t">
<polygon fill="none" stroke="black" points="225,-351.5 225,-370.5 287,-370.5 287,-351.5 225,-351.5"/>
<text text-anchor="middle" x="256" y="-358.5" font-family="Helvetica,sans-Serif" font-size="10.00">proposal_t</text>
</a>
</g>
</g>
<!-- Node6&#45;&gt;Node2 -->
<g id="edge39" class="edge"><title>Node6&#45;&gt;Node2</title>
<path fill="none" stroke="#9a32cd" stroke-dasharray="5,2" d="M297.091,-369.886C302.754,-371.011 308.514,-372.086 314,-373 535.292,-409.872 805.34,-436.761 888.449,-444.631"/>
<polygon fill="#9a32cd" stroke="#9a32cd" points="297.583,-366.414 287.083,-367.831 296.175,-373.271 297.583,-366.414"/>
<text text-anchor="middle" x="666" y="-428" font-family="Helvetica,sans-Serif" font-size="10.00"> get_proposal</text>
</g>
<!-- Node6&#45;&gt;Node3 -->
<g id="edge15" class="edge"><title>Node6&#45;&gt;Node3</title>
<path fill="none" stroke="#9a32cd" stroke-dasharray="5,2" d="M297.66,-361.891C363.368,-362.461 496.59,-360.004 606,-335 655.672,-323.648 710.639,-299.091 738.898,-285.511"/>
<polygon fill="#9a32cd" stroke="#9a32cd" points="297.37,-358.388 287.33,-361.771 297.288,-365.387 297.37,-358.388"/>
<text text-anchor="middle" x="533" y="-358" font-family="Helvetica,sans-Serif" font-size="10.00"> get_proposal</text>
</g>
<!-- Node6&#45;&gt;Node4 -->
<g id="edge6" class="edge"><title>Node6&#45;&gt;Node4</title>
<path fill="none" stroke="#9a32cd" stroke-dasharray="5,2" d="M269.705,-343.502C280.222,-330.157 296.27,-312.216 314,-301 364.599,-268.991 395.986,-297.307 442,-259 454.84,-248.311 449.179,-238.729 460,-226 476.411,-206.695 500.433,-189.647 516.142,-179.575"/>
<polygon fill="#9a32cd" stroke="#9a32cd" points="266.897,-341.413 263.631,-351.492 272.469,-345.65 266.897,-341.413"/>
<text text-anchor="middle" x="378" y="-304" font-family="Helvetica,sans-Serif" font-size="10.00"> select_proposal</text>
</g>
<!-- Node6&#45;&gt;Node6 -->
<g id="edge7" class="edge"><title>Node6&#45;&gt;Node6</title>
<path fill="none" stroke="#9a32cd" stroke-dasharray="5,2" d="M235.631,-380.4C236.991,-385.315 243.781,-389 256,-389 275.551,-389 281.202,-379.565 272.954,-370.757"/>
<polygon fill="#9a32cd" stroke="#9a32cd" points="239.007,-381.352 239.046,-370.757 232.408,-379.015 239.007,-381.352"/>
<text text-anchor="middle" x="256" y="-403" font-family="Helvetica,sans-Serif" font-size="10.00"> clone</text>
<text text-anchor="middle" x="256" y="-392" font-family="Helvetica,sans-Serif" font-size="10.00">select</text>
</g>
<!-- Node20 -->
<g id="node20" class="node"><title>Node20</title>
<g id="a_node20"><a xlink:href="../../d6/d8d/structike__cfg__t.html" target="_top" xlink:title="ike_cfg_t">
<polygon fill="none" stroke="black" points="505,-277.5 505,-296.5 561,-296.5 561,-277.5 505,-277.5"/>
<text text-anchor="middle" x="533" y="-284.5" font-family="Helvetica,sans-Serif" font-size="10.00">ike_cfg_t</text>
</a>
</g>
</g>
<!-- Node6&#45;&gt;Node20 -->
<g id="edge32" class="edge"><title>Node6&#45;&gt;Node20</title>
<path fill="none" stroke="#9a32cd" stroke-dasharray="5,2" d="M285.82,-347.41C294.708,-343.617 304.626,-339.779 314,-337 369.417,-320.574 385.784,-327.437 442,-314 463.26,-308.918 486.923,-301.759 504.647,-296.089"/>
<polygon fill="#9a32cd" stroke="#9a32cd" points="284.389,-344.216 276.654,-351.456 287.216,-350.62 284.389,-344.216"/>
<text text-anchor="middle" x="378" y="-340" font-family="Helvetica,sans-Serif" font-size="10.00"> select_proposal</text>
</g>
<!-- Node7 -->
<g id="node7" class="node"><title>Node7</title>
<g id="a_node7"><a xlink:href="../../db/dd3/structenumerator__t.html" target="_top" xlink:title="enumerator_t">
<polygon fill="none" stroke="black" points="0,-429.5 0,-448.5 74,-448.5 74,-429.5 0,-429.5"/>
<text text-anchor="middle" x="37" y="-436.5" font-family="Helvetica,sans-Serif" font-size="10.00">enumerator_t</text>
</a>
</g>
</g>
<!-- Node7&#45;&gt;Node2 -->
<g id="edge45" class="edge"><title>Node7&#45;&gt;Node2</title>
<path fill="none" stroke="#9a32cd" stroke-dasharray="5,2" d="M74.6925,-451.675C117.444,-465.292 190.469,-485 255,-485 255,-485 255,-485 760,-485 807.365,-485 860.602,-467.846 890.438,-456.589"/>
<polygon fill="#9a32cd" stroke="#9a32cd" points="75.6063,-448.292 65.0142,-448.531 73.4435,-454.95 75.6063,-448.292"/>
<text text-anchor="middle" x="533" y="-543" font-family="Helvetica,sans-Serif" font-size="10.00"> create_auth_cfg_enumerator</text>
<text text-anchor="middle" x="533" y="-532" font-family="Helvetica,sans-Serif" font-size="10.00">create_child_sa_enumerator</text>
<text text-anchor="middle" x="533" y="-521" font-family="Helvetica,sans-Serif" font-size="10.00">create_peer_address_enumerator</text>
<text text-anchor="middle" x="533" y="-510" font-family="Helvetica,sans-Serif" font-size="10.00">create_task_enumerator</text>
<text text-anchor="middle" x="533" y="-499" font-family="Helvetica,sans-Serif" font-size="10.00">create_attribute_enumerator</text>
<text text-anchor="middle" x="533" y="-488" font-family="Helvetica,sans-Serif" font-size="10.00">create_virtual_ip_enumerator</text>
</g>
<!-- Node7&#45;&gt;Node3 -->
<g id="edge16" class="edge"><title>Node7&#45;&gt;Node3</title>
<path fill="none" stroke="#9a32cd" stroke-dasharray="5,2" d="M84.4549,-438.047C182.569,-435.02 417.386,-422.414 606,-370 653.075,-356.918 671.691,-361.693 708,-329 720.706,-317.559 714.209,-307.382 726,-295 729.386,-291.444 733.582,-288.325 737.809,-285.696"/>
<polygon fill="#9a32cd" stroke="#9a32cd" points="84.1778,-434.553 74.2832,-438.341 84.3802,-441.55 84.1778,-434.553"/>
<text text-anchor="middle" x="378" y="-435" font-family="Helvetica,sans-Serif" font-size="10.00"> create_policy_enumerator</text>
<text text-anchor="middle" x="378" y="-424" font-family="Helvetica,sans-Serif" font-size="10.00">create_ts_enumerator</text>
</g>
<!-- Node7&#45;&gt;Node6 -->
<g id="edge8" class="edge"><title>Node7&#45;&gt;Node6</title>
<path fill="none" stroke="#9a32cd" stroke-dasharray="5,2" d="M66.3977,-425.082C74.5757,-421.285 83.5672,-417.309 92,-414 137.567,-396.118 191.877,-379.333 224.879,-369.619"/>
<polygon fill="#9a32cd" stroke="#9a32cd" points="64.797,-421.967 57.2533,-429.406 67.7897,-428.295 64.797,-421.967"/>
<text text-anchor="middle" x="145" y="-417" font-family="Helvetica,sans-Serif" font-size="10.00"> create_enumerator</text>
</g>
<!-- Node8 -->
<g id="node8" class="node"><title>Node8</title>
<g id="a_node8"><a xlink:href="../../dc/de6/structlinked__list__t.html" target="_top" xlink:title="linked_list_t">
<polygon fill="none" stroke="black" points="222,-158.5 222,-177.5 290,-177.5 290,-158.5 222,-158.5"/>
<text text-anchor="middle" x="256" y="-165.5" font-family="Helvetica,sans-Serif" font-size="10.00">linked_list_t</text>
</a>
</g>
</g>
<!-- Node7&#45;&gt;Node8 -->
<g id="edge11" class="edge"><title>Node7&#45;&gt;Node8</title>
<path fill="none" stroke="#9a32cd" stroke-dasharray="5,2" d="M50.3274,-420.812C61.0277,-405.231 77.1007,-382.317 92,-363 148.592,-289.629 222.022,-205.414 246.584,-177.519"/>
<polygon fill="#9a32cd" stroke="#9a32cd" points="47.1659,-419.235 44.4177,-429.467 52.947,-423.182 47.1659,-419.235"/>
<text text-anchor="middle" x="145" y="-366" font-family="Helvetica,sans-Serif" font-size="10.00"> create_enumerator</text>
</g>
<!-- Node16 -->
<g id="node16" class="node"><title>Node16</title>
<g id="a_node16"><a xlink:href="../../d6/d02/structidentification__t.html" target="_top" xlink:title="identification_t">
<polygon fill="none" stroke="black" points="216,-565.5 216,-584.5 296,-584.5 296,-565.5 216,-565.5"/>
<text text-anchor="middle" x="256" y="-572.5" font-family="Helvetica,sans-Serif" font-size="10.00">identification_t</text>
</a>
</g>
</g>
<!-- Node7&#45;&gt;Node16 -->
<g id="edge25" class="edge"><title>Node7&#45;&gt;Node16</title>
<path fill="none" stroke="#9a32cd" stroke-dasharray="5,2" d="M42.1181,-458.692C48.3848,-483.449 62.8078,-525.327 92,-547 111.135,-561.206 173.991,-568.762 215.822,-572.319"/>
<polygon fill="#9a32cd" stroke="#9a32cd" points="45.4591,-457.605 39.789,-448.655 38.6403,-459.188 45.4591,-457.605"/>
<text text-anchor="middle" x="145" y="-573" font-family="Helvetica,sans-Serif" font-size="10.00"> create_part_enumerator</text>
</g>
<!-- Node7&#45;&gt;Node19 -->
<g id="edge38" class="edge"><title>Node7&#45;&gt;Node19</title>
<path fill="none" stroke="#9a32cd" stroke-dasharray="5,2" d="M37.6451,-419.289C36.8402,-349.03 38.2256,-112.55 92,-66 127.619,-35.1661 150.921,-64.2658 198,-66 427.711,-74.4614 491.346,-75.1888 708,-152 718.627,-155.768 730.08,-160.949 739.34,-165.439"/>
<polygon fill="#9a32cd" stroke="#9a32cd" points="34.1472,-419.468 37.7912,-429.417 41.1465,-419.367 34.1472,-419.468"/>
<text text-anchor="middle" x="378" y="-118" font-family="Helvetica,sans-Serif" font-size="10.00"> create_auth_cfg_enumerator</text>
<text text-anchor="middle" x="378" y="-107" font-family="Helvetica,sans-Serif" font-size="10.00">create_child_cfg_enumerator</text>
<text text-anchor="middle" x="378" y="-96" font-family="Helvetica,sans-Serif" font-size="10.00">create_pool_enumerator</text>
<text text-anchor="middle" x="378" y="-85" font-family="Helvetica,sans-Serif" font-size="10.00">create_virtual_ip_enumerator</text>
</g>
<!-- Node22 -->
<g id="node22" class="node"><title>Node22</title>
<g id="a_node22"><a xlink:href="../../db/db6/structauth__cfg__t.html" target="_top" xlink:title="auth_cfg_t">
<polygon fill="none" stroke="black" points="347,-549.5 347,-568.5 409,-568.5 409,-549.5 347,-549.5"/>
<text text-anchor="middle" x="378" y="-556.5" font-family="Helvetica,sans-Serif" font-size="10.00">auth_cfg_t</text>
</a>
</g>
</g>
<!-- Node7&#45;&gt;Node22 -->
<g id="edge43" class="edge"><title>Node7&#45;&gt;Node22</title>
<path fill="none" stroke="#9a32cd" stroke-dasharray="5,2" d="M49.7975,-457.442C59.485,-471.046 74.4387,-488.881 92,-499 135.483,-524.055 282.884,-546.329 346.906,-555.071"/>
<polygon fill="#9a32cd" stroke="#9a32cd" points="52.4763,-455.157 43.9648,-448.847 46.6841,-459.087 52.4763,-455.157"/>
<text text-anchor="middle" x="145" y="-532" font-family="Helvetica,sans-Serif" font-size="10.00"> create_enumerator</text>
</g>
<!-- Node8&#45;&gt;Node1 -->
<g id="edge47" class="edge"><title>Node8&#45;&gt;Node1</title>
<path fill="none" stroke="#9a32cd" stroke-dasharray="5,2" d="M284.162,-153.05C288.228,-150.509 292.295,-147.786 296,-145 304.794,-138.386 304.028,-132.653 314,-128 456.33,-61.5911 507.939,-87 665,-87 665,-87 665,-87 916,-87 947.196,-87 982.018,-87 1010.35,-87"/>
<polygon fill="#9a32cd" stroke="#9a32cd" points="282.197,-150.147 275.403,-158.276 285.784,-156.158 282.197,-150.147"/>
<text text-anchor="middle" x="759" y="-101" font-family="Helvetica,sans-Serif" font-size="10.00"> attributes</text>
<text text-anchor="middle" x="759" y="-90" font-family="Helvetica,sans-Serif" font-size="10.00">vips</text>
</g>
<!-- Node8&#45;&gt;Node4 -->
<g id="edge9" class="edge"><title>Node8&#45;&gt;Node4</title>
<path fill="none" stroke="#9a32cd" stroke-dasharray="5,2" d="M300.222,-165.486C304.871,-165.287 309.533,-165.117 314,-165 370.869,-163.504 385.133,-163.422 442,-165 461.554,-165.543 483.47,-166.748 500.779,-167.838"/>
<polygon fill="#9a32cd" stroke="#9a32cd" points="299.967,-161.994 290.143,-165.961 300.297,-168.986 299.967,-161.994"/>
<text text-anchor="middle" x="378" y="-179" font-family="Helvetica,sans-Serif" font-size="10.00"> get_proposals</text>
<text text-anchor="middle" x="378" y="-168" font-family="Helvetica,sans-Serif" font-size="10.00">get_traffic_selectors</text>
</g>
<!-- Node8&#45;&gt;Node8 -->
<g id="edge10" class="edge"><title>Node8&#45;&gt;Node8</title>
<path fill="none" stroke="#9a32cd" stroke-dasharray="5,2" d="M235.631,-187.4C236.991,-192.315 243.781,-196 256,-196 275.551,-196 281.202,-186.565 272.954,-177.757"/>
<polygon fill="#9a32cd" stroke="#9a32cd" points="239.007,-188.352 239.046,-177.757 232.408,-186.015 239.007,-188.352"/>
<text text-anchor="middle" x="256" y="-199" font-family="Helvetica,sans-Serif" font-size="10.00"> clone_offset</text>
</g>
<!-- Node8&#45;&gt;Node20 -->
<g id="edge36" class="edge"><title>Node8&#45;&gt;Node20</title>
<path fill="none" stroke="#9a32cd" stroke-dasharray="5,2" d="M292.768,-180.886C299.751,-183.128 307.06,-185.286 314,-187 369.967,-200.826 398.227,-170.485 442,-208 461.529,-224.737 441.863,-244.763 460,-263 471.893,-274.958 489.893,-280.958 504.92,-283.969"/>
<polygon fill="#9a32cd" stroke="#9a32cd" points="293.444,-177.422 282.85,-177.585 291.233,-184.064 293.444,-177.422"/>
<text text-anchor="middle" x="378" y="-211" font-family="Helvetica,sans-Serif" font-size="10.00"> get_proposals</text>
</g>
<!-- Node9 -->
<g id="node9" class="node"><title>Node9</title>
<g id="a_node9"><a xlink:href="../../db/d18/structlifetime__cfg__t.html" target="_top" xlink:title="lifetime_cfg_t">
<polygon fill="none" stroke="black" points="218.5,-116.5 218.5,-135.5 293.5,-135.5 293.5,-116.5 218.5,-116.5"/>
<text text-anchor="middle" x="256" y="-123.5" font-family="Helvetica,sans-Serif" font-size="10.00">lifetime_cfg_t</text>
</a>
</g>
</g>
<!-- Node9&#45;&gt;Node4 -->
<g id="edge12" class="edge"><title>Node9&#45;&gt;Node4</title>
<path fill="none" stroke="#9a32cd" stroke-dasharray="5,2" d="M303.806,-130.439C341.33,-134.329 395.255,-140.665 442,-149 461.744,-152.521 483.665,-157.61 500.929,-161.897"/>
<polygon fill="#9a32cd" stroke="#9a32cd" points="303.98,-126.939 293.677,-129.407 303.271,-133.903 303.98,-126.939"/>
<text text-anchor="middle" x="378" y="-152" font-family="Helvetica,sans-Serif" font-size="10.00"> get_lifetime</text>
</g>
<!-- Node10 -->
<g id="node10" class="node"><title>Node10</title>
<polygon fill="none" stroke="#bfbfbf" points="16.5,-39.5 16.5,-58.5 57.5,-58.5 57.5,-39.5 16.5,-39.5"/>
<text text-anchor="middle" x="37" y="-46.5" font-family="Helvetica,sans-Serif" font-size="10.00">struct</text>
</g>
<!-- Node10&#45;&gt;Node1 -->
<g id="edge46" class="edge"><title>Node10&#45;&gt;Node1</title>
<path fill="none" stroke="#9a32cd" stroke-dasharray="5,2" d="M67.1262,-38.0856C108.339,-23.6461 186.316,-0 255,-0 255,-0 255,-0 916,-0 977.418,-0 1036.38,-54.7056 1058.16,-77.3571"/>
<polygon fill="#9a32cd" stroke="#9a32cd" points="65.9466,-34.7903 57.7075,-41.4511 68.3021,-41.3821 65.9466,-34.7903"/>
<text text-anchor="middle" x="666" y="-3" font-family="Helvetica,sans-Serif" font-size="10.00"> public</text>
</g>
<!-- Node10&#45;&gt;Node9 -->
<g id="edge13" class="edge"><title>Node10&#45;&gt;Node9</title>
<path fill="none" stroke="#9a32cd" stroke-dasharray="5,2" d="M67.0887,-59.3218C109.384,-74.3297 187.265,-101.965 228.22,-116.497"/>
<polygon fill="#9a32cd" stroke="#9a32cd" points="68.2348,-56.0147 57.64,-55.969 65.8939,-62.6117 68.2348,-56.0147"/>
<text text-anchor="middle" x="145" y="-131" font-family="Helvetica,sans-Serif" font-size="10.00"> bytes</text>
<text text-anchor="middle" x="145" y="-120" font-family="Helvetica,sans-Serif" font-size="10.00">packets</text>
<text text-anchor="middle" x="145" y="-109" font-family="Helvetica,sans-Serif" font-size="10.00">time</text>
</g>
<!-- Node11 -->
<g id="node11" class="node"><title>Node11</title>
<g id="a_node11"><a xlink:href="../../d2/d63/structkeymat__t.html" target="_top" xlink:title="keymat_t">
<polygon fill="none" stroke="black" points="730.5,-725.5 730.5,-744.5 787.5,-744.5 787.5,-725.5 730.5,-725.5"/>
<text text-anchor="middle" x="759" y="-732.5" font-family="Helvetica,sans-Serif" font-size="10.00">keymat_t</text>
</a>
</g>
</g>
<!-- Node11&#45;&gt;Node2 -->
<g id="edge17" class="edge"><title>Node11&#45;&gt;Node2</title>
<path fill="none" stroke="#9a32cd" stroke-dasharray="5,2" d="M797.514,-728.081C821.844,-721.609 852.218,-709.43 870,-687 899.211,-650.154 910.848,-496.729 913.424,-456.626"/>
<polygon fill="#9a32cd" stroke="#9a32cd" points="796.398,-724.75 787.511,-730.518 798.055,-731.551 796.398,-724.75"/>
<text text-anchor="middle" x="840" y="-727" font-family="Helvetica,sans-Serif" font-size="10.00"> get_keymat</text>
</g>
<!-- Node12 -->
<g id="node12" class="node"><title>Node12</title>
<g id="a_node12"><a xlink:href="../../dc/d1a/structnonce__gen__t.html" target="_top" xlink:title="nonce_gen_t">
<polygon fill="none" stroke="black" points="497,-742.5 497,-761.5 569,-761.5 569,-742.5 497,-742.5"/>
<text text-anchor="middle" x="533" y="-749.5" font-family="Helvetica,sans-Serif" font-size="10.00">nonce_gen_t</text>
</a>
</g>
</g>
<!-- Node12&#45;&gt;Node11 -->
<g id="edge18" class="edge"><title>Node12&#45;&gt;Node11</title>
<path fill="none" stroke="#9a32cd" stroke-dasharray="5,2" d="M579.637,-748.536C624.914,-745.1 692.823,-739.946 730.44,-737.092"/>
<polygon fill="#9a32cd" stroke="#9a32cd" points="579.2,-745.059 569.493,-749.306 579.73,-752.039 579.2,-745.059"/>
<text text-anchor="middle" x="666" y="-748" font-family="Helvetica,sans-Serif" font-size="10.00"> create_nonce_gen</text>
</g>
<!-- Node13 -->
<g id="node13" class="node"><title>Node13</title>
<g id="a_node13"><a xlink:href="../../d7/d7d/structaead__t.html" target="_top" xlink:title="aead_t">
<polygon fill="none" stroke="black" points="510,-704.5 510,-723.5 556,-723.5 556,-704.5 510,-704.5"/>
<text text-anchor="middle" x="533" y="-711.5" font-family="Helvetica,sans-Serif" font-size="10.00">aead_t</text>
</a>
</g>
</g>
<!-- Node13&#45;&gt;Node11 -->
<g id="edge19" class="edge"><title>Node13&#45;&gt;Node11</title>
<path fill="none" stroke="#9a32cd" stroke-dasharray="5,2" d="M566.198,-714.32C601.236,-715.025 658.832,-717.223 708,-724 715.308,-725.007 723.133,-726.518 730.372,-728.099"/>
<polygon fill="#9a32cd" stroke="#9a32cd" points="566.142,-710.819 556.083,-714.146 566.021,-717.818 566.142,-710.819"/>
<text text-anchor="middle" x="666" y="-727" font-family="Helvetica,sans-Serif" font-size="10.00"> get_aead</text>
</g>
<!-- Node14 -->
<g id="node14" class="node"><title>Node14</title>
<g id="a_node14"><a xlink:href="../../db/d66/structiv__gen__t.html" target="_top" xlink:title="iv_gen_t">
<polygon fill="none" stroke="black" points="229.5,-704.5 229.5,-723.5 282.5,-723.5 282.5,-704.5 229.5,-704.5"/>
<text text-anchor="middle" x="256" y="-711.5" font-family="Helvetica,sans-Serif" font-size="10.00">iv_gen_t</text>
</a>
</g>
</g>
<!-- Node14&#45;&gt;Node13 -->
<g id="edge20" class="edge"><title>Node14&#45;&gt;Node13</title>
<path fill="none" stroke="#9a32cd" stroke-dasharray="5,2" d="M293.004,-714C350.777,-714 462.497,-714 509.886,-714"/>
<polygon fill="#9a32cd" stroke="#9a32cd" points="292.871,-710.5 282.871,-714 292.871,-717.5 292.871,-710.5"/>
<text text-anchor="middle" x="378" y="-717" font-family="Helvetica,sans-Serif" font-size="10.00"> get_iv_gen</text>
</g>
<!-- Node15 -->
<g id="node15" class="node"><title>Node15</title>
<g id="a_node15"><a xlink:href="../../d1/dd3/structdiffie__hellman__t.html" target="_top" xlink:title="diffie_hellman_t">
<polygon fill="none" stroke="black" points="490.5,-780.5 490.5,-799.5 575.5,-799.5 575.5,-780.5 490.5,-780.5"/>
<text text-anchor="middle" x="533" y="-787.5" font-family="Helvetica,sans-Serif" font-size="10.00">diffie_hellman_t</text>
</a>
</g>
</g>
<!-- Node15&#45;&gt;Node11 -->
<g id="edge21" class="edge"><title>Node15&#45;&gt;Node11</title>
<path fill="none" stroke="#9a32cd" stroke-dasharray="5,2" d="M585.641,-785.111C620.774,-780.818 667.973,-773.14 708,-760 719.803,-756.125 732.303,-749.875 741.852,-744.594"/>
<polygon fill="#9a32cd" stroke="#9a32cd" points="585.133,-781.647 575.608,-786.286 585.947,-788.599 585.133,-781.647"/>
<text text-anchor="middle" x="666" y="-781" font-family="Helvetica,sans-Serif" font-size="10.00"> create_dh</text>
</g>
<!-- Node16&#45;&gt;Node2 -->
<g id="edge22" class="edge"><title>Node16&#45;&gt;Node2</title>
<path fill="none" stroke="#9a32cd" stroke-dasharray="5,2" d="M280.604,-589.61C290.531,-594.94 302.444,-600.315 314,-603 391.92,-621.105 678.829,-587.264 708,-582 782.828,-568.496 812.992,-577.316 870,-527 892.342,-507.281 905.599,-473.38 911.065,-456.761"/>
<polygon fill="#9a32cd" stroke="#9a32cd" points="282.196,-586.49 271.771,-584.604 278.745,-592.58 282.196,-586.49"/>
<text text-anchor="middle" x="666" y="-617" font-family="Helvetica,sans-Serif" font-size="10.00"> get_my_id</text>
<text text-anchor="middle" x="666" y="-606" font-family="Helvetica,sans-Serif" font-size="10.00">get_other_id</text>
<text text-anchor="middle" x="666" y="-595" font-family="Helvetica,sans-Serif" font-size="10.00">get_other_eap_id</text>
</g>
<!-- Node16&#45;&gt;Node16 -->
<g id="edge23" class="edge"><title>Node16&#45;&gt;Node16</title>
<path fill="none" stroke="#9a32cd" stroke-dasharray="5,2" d="M235.631,-594.4C236.991,-599.315 243.781,-603 256,-603 275.551,-603 281.202,-593.565 272.954,-584.757"/>
<polygon fill="#9a32cd" stroke="#9a32cd" points="239.007,-595.352 239.046,-584.757 232.408,-593.015 239.007,-595.352"/>
<text text-anchor="middle" x="256" y="-606" font-family="Helvetica,sans-Serif" font-size="10.00"> clone</text>
</g>
<!-- Node17 -->
<g id="node17" class="node"><title>Node17</title>
<g id="a_node17"><a xlink:href="../../d0/d14/structchunk__t.html" target="_top" xlink:title="chunk_t">
<polygon fill="none" stroke="black" points="11.5,-613.5 11.5,-632.5 62.5,-632.5 62.5,-613.5 11.5,-613.5"/>
<text text-anchor="middle" x="37" y="-620.5" font-family="Helvetica,sans-Serif" font-size="10.00">chunk_t</text>
</a>
</g>
</g>
<!-- Node17&#45;&gt;Node16 -->
<g id="edge24" class="edge"><title>Node17&#45;&gt;Node16</title>
<path fill="none" stroke="#9a32cd" stroke-dasharray="5,2" d="M72.7437,-615.315C111.775,-606.681 174.987,-592.699 215.766,-583.679"/>
<polygon fill="#9a32cd" stroke="#9a32cd" points="71.9007,-611.917 62.8927,-617.494 73.4126,-618.751 71.9007,-611.917"/>
<text text-anchor="middle" x="145" y="-613" font-family="Helvetica,sans-Serif" font-size="10.00"> get_encoding</text>
</g>
<!-- Node21 -->
<g id="node21" class="node"><title>Node21</title>
<g id="a_node21"><a xlink:href="../../d5/dcf/structhost__t.html" target="_top" xlink:title="host_t">
<polygon fill="none" stroke="black" points="234,-632.5 234,-651.5 278,-651.5 278,-632.5 234,-632.5"/>
<text text-anchor="middle" x="256" y="-639.5" font-family="Helvetica,sans-Serif" font-size="10.00">host_t</text>
</a>
</g>
</g>
<!-- Node17&#45;&gt;Node21 -->
<g id="edge34" class="edge"><title>Node17&#45;&gt;Node21</title>
<path fill="none" stroke="#9a32cd" stroke-dasharray="5,2" d="M72.8974,-626.056C118.405,-630.04 196.594,-636.886 233.943,-640.156"/>
<polygon fill="#9a32cd" stroke="#9a32cd" points="73.1599,-622.565 62.8927,-625.18 72.5492,-629.539 73.1599,-622.565"/>
<text text-anchor="middle" x="145" y="-639" font-family="Helvetica,sans-Serif" font-size="10.00"> get_address</text>
</g>
<!-- Node18 -->
<g id="node18" class="node"><title>Node18</title>
<g id="a_node18"><a xlink:href="../../dc/da6/structike__sa__id__t.html" target="_top" xlink:title="ike_sa_id_t">
<polygon fill="none" stroke="black" points="726,-304.5 726,-323.5 792,-323.5 792,-304.5 726,-304.5"/>
<text text-anchor="middle" x="759" y="-311.5" font-family="Helvetica,sans-Serif" font-size="10.00">ike_sa_id_t</text>
</a>
</g>
</g>
<!-- Node18&#45;&gt;Node2 -->
<g id="edge26" class="edge"><title>Node18&#45;&gt;Node2</title>
<path fill="none" stroke="#9a32cd" stroke-dasharray="5,2" d="M801.697,-325.68C824.043,-333.602 850.836,-345.968 870,-364 892.449,-385.123 905.733,-420.297 911.149,-437.261"/>
<polygon fill="#9a32cd" stroke="#9a32cd" points="802.703,-322.325 792.109,-322.45 800.468,-328.959 802.703,-322.325"/>
<text text-anchor="middle" x="840" y="-367" font-family="Helvetica,sans-Serif" font-size="10.00"> get_id</text>
</g>
<!-- Node18&#45;&gt;Node18 -->
<g id="edge27" class="edge"><title>Node18&#45;&gt;Node18</title>
<path fill="none" stroke="#9a32cd" stroke-dasharray="5,2" d="M744.268,-333.766C745.425,-338.497 750.335,-342 759,-342 773.219,-342 777.329,-332.565 771.33,-323.757"/>
<polygon fill="#9a32cd" stroke="#9a32cd" points="747.739,-334.298 746.67,-323.757 740.933,-332.664 747.739,-334.298"/>
<text text-anchor="middle" x="759" y="-345" font-family="Helvetica,sans-Serif" font-size="10.00"> clone</text>
</g>
<!-- Node19&#45;&gt;Node2 -->
<g id="edge28" class="edge"><title>Node19&#45;&gt;Node2</title>
<path fill="none" stroke="#9a32cd" stroke-dasharray="5,2" d="M785.762,-189.985C811.071,-206.058 848.875,-233.927 870,-268 905.412,-325.116 912.334,-408.978 913.679,-437.271"/>
<polygon fill="#9a32cd" stroke="#9a32cd" points="787.404,-186.885 777.057,-184.607 783.725,-192.841 787.404,-186.885"/>
<text text-anchor="middle" x="840" y="-271" font-family="Helvetica,sans-Serif" font-size="10.00"> get_peer_cfg</text>
</g>
<!-- Node19&#45;&gt;Node19 -->
<g id="edge30" class="edge"><title>Node19&#45;&gt;Node19</title>
<path fill="none" stroke="#9a32cd" stroke-dasharray="5,2" d="M744.268,-194.766C745.425,-199.497 750.335,-203 759,-203 773.219,-203 777.329,-193.565 771.33,-184.757"/>
<polygon fill="#9a32cd" stroke="#9a32cd" points="747.739,-195.298 746.67,-184.757 740.933,-193.664 747.739,-195.298"/>
<text text-anchor="middle" x="759" y="-206" font-family="Helvetica,sans-Serif" font-size="10.00"> get_ref</text>
</g>
<!-- Node20&#45;&gt;Node2 -->
<g id="edge44" class="edge"><title>Node20&#45;&gt;Node2</title>
<path fill="none" stroke="#9a32cd" stroke-dasharray="5,2" d="M566.033,-300.487C640.923,-332.02 826.028,-409.959 891.005,-437.318"/>
<polygon fill="#9a32cd" stroke="#9a32cd" points="567.207,-297.184 556.633,-296.53 564.491,-303.636 567.207,-297.184"/>
<text text-anchor="middle" x="759" y="-396" font-family="Helvetica,sans-Serif" font-size="10.00"> get_ike_cfg</text>
</g>
<!-- Node20&#45;&gt;Node19 -->
<g id="edge31" class="edge"><title>Node20&#45;&gt;Node19</title>
<path fill="none" stroke="#9a32cd" stroke-dasharray="5,2" d="M570.983,-282.078C583.638,-278.65 596.887,-272.841 606,-263 628.412,-238.798 599.253,-212.807 624,-191 638.941,-177.834 693.13,-175.098 727.852,-174.746"/>
<polygon fill="#9a32cd" stroke="#9a32cd" points="570.02,-278.708 561.051,-284.348 571.58,-285.532 570.02,-278.708"/>
<text text-anchor="middle" x="666" y="-194" font-family="Helvetica,sans-Serif" font-size="10.00"> get_ike_cfg</text>
</g>
<!-- Node20&#45;&gt;Node20 -->
<g id="edge37" class="edge"><title>Node20&#45;&gt;Node20</title>
<path fill="none" stroke="#9a32cd" stroke-dasharray="5,2" d="M508.447,-306.029C509.786,-311.128 517.97,-315 533,-315 556.461,-315 563.243,-305.565 553.345,-296.757"/>
<polygon fill="#9a32cd" stroke="#9a32cd" points="511.709,-307.31 512.655,-296.757 505.335,-304.416 511.709,-307.31"/>
<text text-anchor="middle" x="533" y="-318" font-family="Helvetica,sans-Serif" font-size="10.00"> get_ref</text>
</g>
<!-- Node21&#45;&gt;Node2 -->
<g id="edge40" class="edge"><title>Node21&#45;&gt;Node2</title>
<path fill="none" stroke="#9a32cd" stroke-dasharray="5,2" d="M288.047,-645.078C361.912,-651.546 553.48,-663.285 708,-629 784.572,-612.01 815.476,-615.383 870,-559 898.9,-529.114 909.457,-478.014 912.726,-456.74"/>
<polygon fill="#9a32cd" stroke="#9a32cd" points="288.297,-641.586 278.022,-644.168 287.664,-648.558 288.297,-641.586"/>
<text text-anchor="middle" x="666" y="-657" font-family="Helvetica,sans-Serif" font-size="10.00"> get_other_host</text>
<text text-anchor="middle" x="666" y="-646" font-family="Helvetica,sans-Serif" font-size="10.00">get_my_host</text>
</g>
<!-- Node21&#45;&gt;Node20 -->
<g id="edge33" class="edge"><title>Node21&#45;&gt;Node20</title>
<path fill="none" stroke="#9a32cd" stroke-dasharray="5,2" d="M287.045,-631.205C290.46,-628.939 293.578,-626.229 296,-623 324.413,-585.125 284.45,-554.994 314,-518 352.429,-469.891 404.218,-513.619 442,-465 476.441,-420.68 431.16,-388.153 460,-340 471.883,-320.159 494.324,-305.46 511.008,-296.639"/>
<polygon fill="#9a32cd" stroke="#9a32cd" points="285.325,-628.156 278.168,-635.968 288.635,-634.324 285.325,-628.156"/>
<text text-anchor="middle" x="378" y="-532" font-family="Helvetica,sans-Serif" font-size="10.00"> resolve_me</text>
<text text-anchor="middle" x="378" y="-521" font-family="Helvetica,sans-Serif" font-size="10.00">resolve_other</text>
</g>
<!-- Node21&#45;&gt;Node21 -->
<g id="edge35" class="edge"><title>Node21&#45;&gt;Node21</title>
<path fill="none" stroke="#9a32cd" stroke-dasharray="5,2" d="M235.631,-661.4C236.991,-666.315 243.781,-670 256,-670 275.551,-670 281.202,-660.565 272.954,-651.757"/>
<polygon fill="#9a32cd" stroke="#9a32cd" points="239.007,-662.352 239.046,-651.757 232.408,-660.015 239.007,-662.352"/>
<text text-anchor="middle" x="256" y="-673" font-family="Helvetica,sans-Serif" font-size="10.00"> clone</text>
</g>
<!-- Node22&#45;&gt;Node2 -->
<g id="edge41" class="edge"><title>Node22&#45;&gt;Node2</title>
<path fill="none" stroke="#9a32cd" stroke-dasharray="5,2" d="M419.163,-564.419C507.652,-574.284 723.201,-586.753 870,-499 887.459,-488.563 901.32,-468.677 908.536,-456.751"/>
<polygon fill="#9a32cd" stroke="#9a32cd" points="419.353,-560.918 409.015,-563.236 418.543,-567.871 419.353,-560.918"/>
<text text-anchor="middle" x="666" y="-570" font-family="Helvetica,sans-Serif" font-size="10.00"> get_auth_cfg</text>
</g>
<!-- Node22&#45;&gt;Node22 -->
<g id="edge42" class="edge"><title>Node22&#45;&gt;Node22</title>
<path fill="none" stroke="#9a32cd" stroke-dasharray="5,2" d="M355.307,-578.029C356.544,-583.128 364.109,-587 378,-587 399.684,-587 405.952,-577.565 396.804,-568.757"/>
<polygon fill="#9a32cd" stroke="#9a32cd" points="358.555,-579.332 359.196,-568.757 352.1,-576.625 358.555,-579.332"/>
<text text-anchor="middle" x="378" y="-590" font-family="Helvetica,sans-Serif" font-size="10.00"> clone</text>
</g>
</g>
</svg>
        <g id="navigator" transform="translate(0 0)" fill="#404254">
                <rect fill="#f2f5e9" fill-opacity="0.5" stroke="#606060" stroke-width=".5" x="0" y="0" width="60" height="60"/>
                <use id="zoomplus" xlink:href="#zoomPlus" x="17" y="9" onmousedown="handleZoom(evt,'in')"/>
                <use id="zoomminus" xlink:href="#zoomMin" x="42" y="9" onmousedown="handleZoom(evt,'out')"/>
                <use id="reset" xlink:href="#resetDef" x="30" y="36" onmousedown="handleReset()"/>
                <g id="arrowUp" xlink:href="#dirArrow" transform="translate(30 24)" onmousedown="handlePan(0,-1)">
                  <use xlink:href="#rim" fill="#404040">
                        <set attributeName="fill" to="#808080" begin="arrowUp.mouseover" end="arrowUp.mouseout"/>
                  </use>
                  <path fill="none" stroke="white" stroke-width="1.5" d="M0,-3.0v7 M-2.5,-0.5L0,-3.0L2.5,-0.5"/>
                </g>
                <g id="arrowRight" xlink:href="#dirArrow" transform="rotate(90) translate(36 -43)" onmousedown="handlePan(1,0)">
                  <use xlink:href="#rim" fill="#404040">
                        <set attributeName="fill" to="#808080" begin="arrowRight.mouseover" end="arrowRight.mouseout"/>
                  </use>
                  <path fill="none" stroke="white" stroke-width="1.5" d="M0,-3.0v7 M-2.5,-0.5L0,-3.0L2.5,-0.5"/>
                </g>
                <g id="arrowDown" xlink:href="#dirArrow" transform="rotate(180) translate(-30 -48)" onmousedown="handlePan(0,1)">
                  <use xlink:href="#rim" fill="#404040">
                        <set attributeName="fill" to="#808080" begin="arrowDown.mouseover" end="arrowDown.mouseout"/>
                  </use>
                  <path fill="none" stroke="white" stroke-width="1.5" d="M0,-3.0v7 M-2.5,-0.5L0,-3.0L2.5,-0.5"/>
                </g>
                <g id="arrowLeft" xlink:href="#dirArrow" transform="rotate(270) translate(-36 17)" onmousedown="handlePan(-1,0)">
                  <use xlink:href="#rim" fill="#404040">
                        <set attributeName="fill" to="#808080" begin="arrowLeft.mouseover" end="arrowLeft.mouseout"/>
                  </use>
                  <path fill="none" stroke="white" stroke-width="1.5" d="M0,-3.0v7 M-2.5,-0.5L0,-3.0L2.5,-0.5"/>
                </g>
        </g>
        <svg viewBox="0 0 15 15" width="100%" height="30px" preserveAspectRatio="xMaxYMin meet">
         <g id="arrow_out" transform="scale(0.3 0.3)">
          <a xlink:href="structprivate__mode__config__t__coll__graph_org.svg" target="_base">
           <rect id="button" ry="5" rx="5" y="6" x="6" height="38" width="38"
                fill="#f2f5e9" fill-opacity="0.5" stroke="#606060" stroke-width="1.0"/>
           <path id="arrow"
             d="M 11.500037,31.436501 C 11.940474,20.09759 22.043105,11.32322 32.158766,21.979434 L 37.068811,17.246167 C 37.068811,17.246167 37.088388,32 37.088388,32 L 22.160133,31.978069 C 22.160133,31.978069 26.997745,27.140456 26.997745,27.140456 C 18.528582,18.264221 13.291696,25.230495 11.500037,31.436501 z"
             style="fill:#404040;"/>
          </a>
         </g>
        </svg>
</svg>
