<?xml version="1.0" encoding="UTF-8" standalone="no"?>
<!DOCTYPE svg PUBLIC "-//W3C//DTD SVG 1.1//EN"
 "http://www.w3.org/Graphics/SVG/1.1/DTD/svg11.dtd">
<!-- Generated by graphviz version 2.36.0 (20140111.2315)
 -->
<!-- Title: merge Pages: 1 -->
<!--zoomable 914 -->
<svg id="main" version="1.1" xmlns="http://www.w3.org/2000/svg" xmlns:xlink="http://www.w3.org/1999/xlink" xml:space="preserve" onload="init(evt)">
<style type="text/css"><![CDATA[
.edge:hover path { stroke: red; }
.edge:hover polygon { stroke: red; fill: red; }
]]></style>
<script type="text/javascript"><![CDATA[
var edges = document.getElementsByTagName('g');
if (edges && edges.length) {
  for (var i=0;i<edges.length;i++) {
    if (edges[i].id.substr(0,4)=='edge') {
      edges[i].setAttribute('class','edge');
    }
  }
}
]]></script>
        <defs>
                <circle id="rim" cx="0" cy="0" r="7"/>
                <circle id="rim2" cx="0" cy="0" r="3.5"/>
                <g id="zoomPlus">
                        <use xlink:href="#rim" fill="#404040">
                                <set attributeName="fill" to="#808080" begin="zoomplus.mouseover" end="zoomplus.mouseout"/>
                        </use>
                        <path d="M-4,0h8M0,-4v8" fill="none" stroke="white" stroke-width="1.5" pointer-events="none"/>
                </g>
                <g id="zoomMin">
                        <use xlink:href="#rim" fill="#404040">
                                <set attributeName="fill" to="#808080" begin="zoomminus.mouseover" end="zoomminus.mouseout"/>
                        </use>
                        <path d="M-4,0h8" fill="none" stroke="white" stroke-width="1.5" pointer-events="none"/>
                </g>
                <g id="dirArrow">
                        <path fill="none" stroke="white" stroke-width="1.5" d="M0,-3.0v7 M-2.5,-0.5L0,-3.0L2.5,-0.5"/>
                </g>
               <g id="resetDef">
                       <use xlink:href="#rim2" fill="#404040">
                               <set attributeName="fill" to="#808080" begin="reset.mouseover" end="reset.mouseout"/>
                       </use>
               </g>
        </defs>

<script type="text/javascript">
var viewWidth = 812;
var viewHeight = 914;
var sectionId = 'dynsection-18';
</script>
<script xlink:href="../../svgpan.js"/>
<svg id="graph" class="graph">
<g id="viewport">
<title>merge</title>
<!-- Node1 -->
<g id="node1" class="node"><title>Node1</title>
<polygon fill="#bfbfbf" stroke="black" points="0,-402.5 0,-421.5 44,-421.5 44,-402.5 0,-402.5"/>
<text text-anchor="middle" x="22" y="-409.5" font-family="Helvetica,sans-Serif" font-size="10.00">merge</text>
</g>
<!-- Node2 -->
<g id="node2" class="node"><title>Node2</title>
<g id="a_node2"><a xlink:href="../../d0/db5/group__auth__cfg.html#ga57b30fedc7ad3f8720f12fc99390cccc" target="_top" xlink:title="auth_cfg_create">
<polygon fill="none" stroke="black" points="80,-402.5 80,-421.5 166,-421.5 166,-402.5 80,-402.5"/>
<text text-anchor="middle" x="123" y="-409.5" font-family="Helvetica,sans-Serif" font-size="10.00">auth_cfg_create</text>
</a>
</g>
</g>
<!-- Node1&#45;&gt;Node2 -->
<g id="edge1" class="edge"><title>Node1&#45;&gt;Node2</title>
<path fill="none" stroke="midnightblue" d="M54.5348,-412C62.5676,-412 71.3307,-412 79.802,-412"/>
<polygon fill="midnightblue" stroke="midnightblue" points="54.4816,-408.5 44.4815,-412 54.4815,-415.5 54.4816,-408.5"/>
</g>
<!-- Node3 -->
<g id="node3" class="node"><title>Node3</title>
<g id="a_node3"><a xlink:href="../../df/d31/auth__cfg_8c.html#a53a713324ead633914a9c706af131547" target="_top" xlink:title="METHOD">
<polygon fill="none" stroke="black" points="230,-886.5 230,-905.5 290,-905.5 290,-886.5 230,-886.5"/>
<text text-anchor="middle" x="260" y="-893.5" font-family="Helvetica,sans-Serif" font-size="10.00">METHOD</text>
</a>
</g>
</g>
<!-- Node2&#45;&gt;Node3 -->
<g id="edge2" class="edge"><title>Node2&#45;&gt;Node3</title>
<path fill="none" stroke="midnightblue" d="M124.876,-431.886C128.726,-510.929 146.498,-801.961 202,-872 208.935,-880.752 219.643,-886.354 229.913,-889.921"/>
<polygon fill="midnightblue" stroke="midnightblue" points="128.369,-431.64 124.406,-421.814 121.376,-431.966 128.369,-431.64"/>
</g>
<!-- Node4 -->
<g id="node4" class="node"><title>Node4</title>
<g id="a_node4"><a xlink:href="../../d7/d9c/cmd__connection_8c.html#a7060a5910fc55f3ab1d4c3f6f2d01330" target="_top" xlink:title="add_auth_cfg">
<polygon fill="none" stroke="black" points="222.5,-620.5 222.5,-639.5 297.5,-639.5 297.5,-620.5 222.5,-620.5"/>
<text text-anchor="middle" x="260" y="-627.5" font-family="Helvetica,sans-Serif" font-size="10.00">add_auth_cfg</text>
</a>
</g>
</g>
<!-- Node2&#45;&gt;Node4 -->
<g id="edge3" class="edge"><title>Node2&#45;&gt;Node4</title>
<path fill="none" stroke="midnightblue" d="M126.832,-431.873C133.31,-470.395 152.644,-555.836 202,-606 208.1,-612.2 216.046,-616.879 224.059,-620.379"/>
<polygon fill="midnightblue" stroke="midnightblue" points="130.278,-431.255 125.273,-421.916 123.362,-432.338 130.278,-431.255"/>
</g>
<!-- Node8 -->
<g id="node8" class="node"><title>Node8</title>
<g id="a_node8"><a xlink:href="../../d3/d95/config_8c.html#a209dd231bf733f9f8fd289c94214ff08" target="_top" xlink:title="load_peer_config">
<polygon fill="none" stroke="black" points="534,-848.5 534,-867.5 624,-867.5 624,-848.5 534,-848.5"/>
<text text-anchor="middle" x="579" y="-855.5" font-family="Helvetica,sans-Serif" font-size="10.00">load_peer_config</text>
</a>
</g>
</g>
<!-- Node2&#45;&gt;Node8 -->
<g id="edge22" class="edge"><title>Node2&#45;&gt;Node8</title>
<path fill="none" stroke="midnightblue" d="M124.817,-431.929C128.295,-506.29 144.443,-766.043 202,-820 295.22,-907.389 464.209,-883.809 539.737,-867.523"/>
<polygon fill="midnightblue" stroke="midnightblue" points="128.3,-431.482 124.363,-421.646 121.307,-431.791 128.3,-431.482"/>
</g>
<!-- Node10 -->
<g id="node10" class="node"><title>Node10</title>
<g id="a_node10"><a xlink:href="../../df/d4e/ha__tunnel_8c.html#a2e0ef9846224769ecaaba2b8abf57f4f" target="_top" xlink:title="setup_tunnel">
<polygon fill="none" stroke="black" points="543,-810.5 543,-829.5 615,-829.5 615,-810.5 543,-810.5"/>
<text text-anchor="middle" x="579" y="-817.5" font-family="Helvetica,sans-Serif" font-size="10.00">setup_tunnel</text>
</a>
</g>
</g>
<!-- Node2&#45;&gt;Node10 -->
<g id="edge32" class="edge"><title>Node2&#45;&gt;Node10</title>
<path fill="none" stroke="midnightblue" d="M125.049,-431.961C129.229,-503.121 147.218,-742.719 202,-791 251.855,-834.938 459.072,-827.428 542.735,-822.436"/>
<polygon fill="midnightblue" stroke="midnightblue" points="128.528,-431.493 124.475,-421.704 121.539,-431.884 128.528,-431.493"/>
</g>
<!-- Node13 -->
<g id="node13" class="node"><title>Node13</title>
<g id="a_node13"><a xlink:href="../../d7/d79/maemo__service_8c.html#af04d210533a8ac5ccf2f1b3f396210a5" target="_top" xlink:title="initiate_connection">
<polygon fill="none" stroke="black" points="530,-734.5 530,-753.5 628,-753.5 628,-734.5 530,-734.5"/>
<text text-anchor="middle" x="579" y="-741.5" font-family="Helvetica,sans-Serif" font-size="10.00">initiate_connection</text>
</a>
</g>
</g>
<!-- Node2&#45;&gt;Node13 -->
<g id="edge41" class="edge"><title>Node2&#45;&gt;Node13</title>
<path fill="none" stroke="midnightblue" d="M123.765,-431.812C124.295,-480.848 132.63,-608.958 202,-679 289.173,-767.018 449.62,-761.13 529.777,-751.562"/>
<polygon fill="midnightblue" stroke="midnightblue" points="127.265,-431.613 123.761,-421.615 120.265,-431.616 127.265,-431.613"/>
</g>
<!-- Node15 -->
<g id="node15" class="node"><title>Node15</title>
<g id="a_node15"><a xlink:href="../../d0/d53/nm__service_8c.html#ac66aab0554b998f65f088b4e8a33cb1e" target="_top" xlink:title="connect_">
<polygon fill="none" stroke="black" points="551,-674.5 551,-693.5 607,-693.5 607,-674.5 551,-674.5"/>
<text text-anchor="middle" x="579" y="-681.5" font-family="Helvetica,sans-Serif" font-size="10.00">connect_</text>
</a>
</g>
</g>
<!-- Node2&#45;&gt;Node15 -->
<g id="edge42" class="edge"><title>Node2&#45;&gt;Node15</title>
<path fill="none" stroke="midnightblue" d="M123.814,-431.984C124.576,-478.56 133.607,-594.499 202,-649 255.771,-691.849 473.842,-687.978 550.882,-685.181"/>
<polygon fill="midnightblue" stroke="midnightblue" points="127.313,-431.7 123.768,-421.716 120.313,-431.732 127.313,-431.7"/>
</g>
<!-- Node18 -->
<g id="node18" class="node"><title>Node18</title>
<g id="a_node18"><a xlink:href="../../de/d0b/sql__config_8c.html#ab613aa8a44d2efd07999ea6c4076d34d" target="_top" xlink:title="build_peer_cfg">
<polygon fill="none" stroke="black" points="539,-582.5 539,-601.5 619,-601.5 619,-582.5 539,-582.5"/>
<text text-anchor="middle" x="579" y="-589.5" font-family="Helvetica,sans-Serif" font-size="10.00">build_peer_cfg</text>
</a>
</g>
</g>
<!-- Node2&#45;&gt;Node18 -->
<g id="edge47" class="edge"><title>Node2&#45;&gt;Node18</title>
<path fill="none" stroke="midnightblue" d="M127.67,-431.594C135.1,-465.172 155.36,-533.075 202,-564 256.351,-600.038 453.871,-596.94 538.773,-593.795"/>
<polygon fill="midnightblue" stroke="midnightblue" points="131.063,-430.716 125.622,-421.625 124.206,-432.125 131.063,-430.716"/>
</g>
<!-- Node22 -->
<g id="node22" class="node"><title>Node22</title>
<g id="a_node22"><a xlink:href="../../d1/d05/credential__manager_8c.html#aa098d9c3d720931db110a78a12b628d0" target="_top" xlink:title="verify_trust_chain">
<polygon fill="none" stroke="black" points="213,-535.5 213,-554.5 307,-554.5 307,-535.5 213,-535.5"/>
<text text-anchor="middle" x="260" y="-542.5" font-family="Helvetica,sans-Serif" font-size="10.00">verify_trust_chain</text>
</a>
</g>
</g>
<!-- Node2&#45;&gt;Node22 -->
<g id="edge23" class="edge"><title>Node2&#45;&gt;Node22</title>
<path fill="none" stroke="midnightblue" d="M136.276,-429.972C150.587,-450.142 175.658,-483.155 202,-507 214.256,-518.094 230.007,-528.344 241.845,-535.395"/>
<polygon fill="midnightblue" stroke="midnightblue" points="139.086,-427.884 130.492,-421.688 133.347,-431.891 139.086,-427.884"/>
</g>
<!-- Node24 -->
<g id="node24" class="node"><title>Node24</title>
<g id="a_node24"><a xlink:href="../../d1/d05/credential__manager_8c.html#a30d37cb53c5ea5446e6653fadf630186" target="_top" xlink:title="build_trustchain">
<polygon fill="none" stroke="black" points="217.5,-478.5 217.5,-497.5 302.5,-497.5 302.5,-478.5 217.5,-478.5"/>
<text text-anchor="middle" x="260" y="-485.5" font-family="Helvetica,sans-Serif" font-size="10.00">build_trustchain</text>
</a>
</g>
</g>
<!-- Node2&#45;&gt;Node24 -->
<g id="edge25" class="edge"><title>Node2&#45;&gt;Node24</title>
<path fill="none" stroke="midnightblue" d="M148.529,-426.877C163.804,-436.039 183.92,-447.919 202,-458 214.697,-465.08 229.197,-472.706 240.395,-478.497"/>
<polygon fill="midnightblue" stroke="midnightblue" points="150.078,-423.724 139.706,-421.565 146.467,-429.721 150.078,-423.724"/>
</g>
<!-- Node26 -->
<g id="node26" class="node"><title>Node26</title>
<g id="a_node26"><a xlink:href="../../dd/deb/eap__mschapv2_8c.html#aaef18c3a3936b2654f04ebd2bb9933a7" target="_top" xlink:title="eap_mschapv2_create\l_generic">
<polygon fill="none" stroke="black" points="202.5,-419 202.5,-449 317.5,-449 317.5,-419 202.5,-419"/>
<text text-anchor="start" x="210.5" y="-437" font-family="Helvetica,sans-Serif" font-size="10.00">eap_mschapv2_create</text>
<text text-anchor="middle" x="260" y="-426" font-family="Helvetica,sans-Serif" font-size="10.00">_generic</text>
</a>
</g>
</g>
<!-- Node2&#45;&gt;Node26 -->
<g id="edge27" class="edge"><title>Node2&#45;&gt;Node26</title>
<path fill="none" stroke="midnightblue" d="M176.232,-420.512C184.821,-421.912 193.759,-423.368 202.448,-424.784"/>
<polygon fill="midnightblue" stroke="midnightblue" points="176.777,-417.055 166.344,-418.901 175.651,-423.964 176.777,-417.055"/>
</g>
<!-- Node29 -->
<g id="node29" class="node"><title>Node29</title>
<g id="a_node29"><a xlink:href="../../de/dfc/ha__dispatcher_8c.html#a6d9ea04a1332974e7da99b6920974dfc" target="_top" xlink:title="process_ike_update">
<polygon fill="none" stroke="black" points="208,-380.5 208,-399.5 312,-399.5 312,-380.5 208,-380.5"/>
<text text-anchor="middle" x="260" y="-387.5" font-family="Helvetica,sans-Serif" font-size="10.00">process_ike_update</text>
</a>
</g>
</g>
<!-- Node2&#45;&gt;Node29 -->
<g id="edge30" class="edge"><title>Node2&#45;&gt;Node29</title>
<path fill="none" stroke="midnightblue" d="M176.444,-403.454C186.746,-401.775 197.541,-400.016 207.801,-398.343"/>
<polygon fill="midnightblue" stroke="midnightblue" points="175.651,-400.036 166.344,-405.099 176.777,-406.945 175.651,-400.036"/>
</g>
<!-- Node31 -->
<g id="node31" class="node"><title>Node31</title>
<g id="a_node31"><a xlink:href="../../de/dc6/ike__auth_8c.html#a2ffce99943bccd45e66d96024f05cdb6" target="_top" xlink:title="apply_auth_cfg">
<polygon fill="none" stroke="black" points="218.5,-304.5 218.5,-323.5 301.5,-323.5 301.5,-304.5 218.5,-304.5"/>
<text text-anchor="middle" x="260" y="-311.5" font-family="Helvetica,sans-Serif" font-size="10.00">apply_auth_cfg</text>
</a>
</g>
</g>
<!-- Node2&#45;&gt;Node31 -->
<g id="edge33" class="edge"><title>Node2&#45;&gt;Node31</title>
<path fill="none" stroke="midnightblue" d="M137.22,-394.398C151.429,-376.606 175.563,-349.455 202,-333 208.11,-329.197 215.068,-326.063 221.972,-323.515"/>
<polygon fill="midnightblue" stroke="midnightblue" points="134.455,-392.251 131.075,-402.292 139.979,-396.551 134.455,-392.251"/>
</g>
<!-- Node33 -->
<g id="node33" class="node"><title>Node33</title>
<g id="a_node33"><a xlink:href="../../d0/dce/group__ike__sa.html#gae60a0b9f30836a1de42076ba7fef3995" target="_top" xlink:title="ike_sa_create">
<polygon fill="none" stroke="black" points="221.5,-342.5 221.5,-361.5 298.5,-361.5 298.5,-342.5 221.5,-342.5"/>
<text text-anchor="middle" x="260" y="-349.5" font-family="Helvetica,sans-Serif" font-size="10.00">ike_sa_create</text>
</a>
</g>
</g>
<!-- Node2&#45;&gt;Node33 -->
<g id="edge35" class="edge"><title>Node2&#45;&gt;Node33</title>
<path fill="none" stroke="midnightblue" d="M149.073,-397.489C164.124,-389.117 183.818,-378.748 202,-371 210.061,-367.565 218.969,-364.338 227.3,-361.553"/>
<polygon fill="midnightblue" stroke="midnightblue" points="147.35,-394.443 140.357,-402.402 150.787,-400.541 147.35,-394.443"/>
</g>
<!-- Node36 -->
<g id="node36" class="node"><title>Node36</title>
<g id="a_node36"><a xlink:href="../../d2/d03/load__tester__config_8c.html#a38d37aad93f1b6c408f38f08f86c1d5f" target="_top" xlink:title="generate_auth_cfg">
<polygon fill="none" stroke="black" points="375.5,-772.5 375.5,-791.5 472.5,-791.5 472.5,-772.5 375.5,-772.5"/>
<text text-anchor="middle" x="424" y="-779.5" font-family="Helvetica,sans-Serif" font-size="10.00">generate_auth_cfg</text>
</a>
</g>
</g>
<!-- Node2&#45;&gt;Node36 -->
<g id="edge39" class="edge"><title>Node2&#45;&gt;Node36</title>
<path fill="none" stroke="midnightblue" d="M125.52,-431.893C131.058,-498.776 152.49,-713.816 202,-758 248.935,-799.887 325.697,-798.163 375.275,-791.383"/>
<polygon fill="midnightblue" stroke="midnightblue" points="129.001,-431.524 124.716,-421.835 122.024,-432.082 129.001,-431.524"/>
</g>
<!-- Node37 -->
<g id="node37" class="node"><title>Node37</title>
<g id="a_node37"><a xlink:href="../../d8/d42/phase1_8c.html#aaa2c562305a8d23fd62a1dd0ed70ffcc" target="_top" xlink:title="save_auth_cfg">
<polygon fill="none" stroke="black" points="220,-266.5 220,-285.5 300,-285.5 300,-266.5 220,-266.5"/>
<text text-anchor="middle" x="260" y="-273.5" font-family="Helvetica,sans-Serif" font-size="10.00">save_auth_cfg</text>
</a>
</g>
</g>
<!-- Node2&#45;&gt;Node37 -->
<g id="edge43" class="edge"><title>Node2&#45;&gt;Node37</title>
<path fill="none" stroke="midnightblue" d="M131.956,-392.795C143.612,-366.943 167.726,-321.178 202,-295 207.305,-290.948 213.521,-287.734 219.859,-285.193"/>
<polygon fill="midnightblue" stroke="midnightblue" points="128.626,-391.677 127.854,-402.244 135.047,-394.465 128.626,-391.677"/>
</g>
<!-- Node39 -->
<g id="node39" class="node"><title>Node39</title>
<g id="a_node39"><a xlink:href="../../d3/db3/pretend__auth_8c.html#a61639781dc82606b8b8f146fc0030b6f" target="_top" xlink:title="build_auth">
<polygon fill="none" stroke="black" points="229.5,-228.5 229.5,-247.5 290.5,-247.5 290.5,-228.5 229.5,-228.5"/>
<text text-anchor="middle" x="260" y="-235.5" font-family="Helvetica,sans-Serif" font-size="10.00">build_auth</text>
</a>
</g>
</g>
<!-- Node2&#45;&gt;Node39 -->
<g id="edge45" class="edge"><title>Node2&#45;&gt;Node39</title>
<path fill="none" stroke="midnightblue" d="M128.665,-392.299C137.424,-359.543 159.405,-293.847 202,-257 209.731,-250.312 219.896,-245.96 229.499,-243.136"/>
<polygon fill="midnightblue" stroke="midnightblue" points="125.167,-391.857 126.107,-402.41 131.953,-393.574 125.167,-391.857"/>
</g>
<!-- Node41 -->
<g id="node41" class="node"><title>Node41</title>
<g id="a_node41"><a xlink:href="../../d5/dd9/stroke__config_8c.html#ad911a8d20cc5d388cdfb12cc587a397e" target="_top" xlink:title="build_auth_cfg">
<polygon fill="none" stroke="black" points="220,-190.5 220,-209.5 300,-209.5 300,-190.5 220,-190.5"/>
<text text-anchor="middle" x="260" y="-197.5" font-family="Helvetica,sans-Serif" font-size="10.00">build_auth_cfg</text>
</a>
</g>
</g>
<!-- Node2&#45;&gt;Node41 -->
<g id="edge48" class="edge"><title>Node2&#45;&gt;Node41</title>
<path fill="none" stroke="midnightblue" d="M126.448,-392.433C132.31,-353.777 150.699,-267.199 202,-219 207.093,-214.215 213.425,-210.632 219.998,-207.952"/>
<polygon fill="midnightblue" stroke="midnightblue" points="122.973,-392.009 125.058,-402.396 129.906,-392.975 122.973,-392.009"/>
</g>
<!-- Node43 -->
<g id="node43" class="node"><title>Node43</title>
<g id="a_node43"><a xlink:href="../../dc/d65/group__tls__peer.html#ga05389d14b46126dbc8186fb9585ff300" target="_top" xlink:title="tls_peer_create">
<polygon fill="none" stroke="black" points="218.5,-152.5 218.5,-171.5 301.5,-171.5 301.5,-152.5 218.5,-152.5"/>
<text text-anchor="middle" x="260" y="-159.5" font-family="Helvetica,sans-Serif" font-size="10.00">tls_peer_create</text>
</a>
</g>
</g>
<!-- Node2&#45;&gt;Node43 -->
<g id="edge50" class="edge"><title>Node2&#45;&gt;Node43</title>
<path fill="none" stroke="midnightblue" d="M124.972,-392.001C128.205,-347.725 142.135,-240.633 202,-181 206.582,-176.436 212.288,-172.968 218.305,-170.333"/>
<polygon fill="midnightblue" stroke="midnightblue" points="121.474,-391.866 124.348,-402.063 128.461,-392.299 121.474,-391.866"/>
</g>
<!-- Node45 -->
<g id="node45" class="node"><title>Node45</title>
<g id="a_node45"><a xlink:href="../../d8/dde/tls__server_8c.html#aa2a8b9dde041494ba9574be361ddbda3" target="_top" xlink:title="select_suite_and_key">
<polygon fill="none" stroke="black" points="204.5,-76.5 204.5,-95.5 315.5,-95.5 315.5,-76.5 204.5,-76.5"/>
<text text-anchor="middle" x="260" y="-83.5" font-family="Helvetica,sans-Serif" font-size="10.00">select_suite_and_key</text>
</a>
</g>
</g>
<!-- Node2&#45;&gt;Node45 -->
<g id="edge52" class="edge"><title>Node2&#45;&gt;Node45</title>
<path fill="none" stroke="midnightblue" d="M126.566,-391.968C134.784,-330.759 162.253,-147.758 202,-105 205.622,-101.104 210.063,-98.0056 214.853,-95.5426"/>
<polygon fill="midnightblue" stroke="midnightblue" points="123.053,-391.844 125.219,-402.215 129.993,-392.757 123.053,-391.844"/>
</g>
<!-- Node47 -->
<g id="node47" class="node"><title>Node47</title>
<g id="a_node47"><a xlink:href="../../d3/ddf/group__tls__server.html#gaad4bd34e0f65a49ab6c583edc678149f" target="_top" xlink:title="tls_server_create">
<polygon fill="none" stroke="black" points="214,-114.5 214,-133.5 306,-133.5 306,-114.5 214,-114.5"/>
<text text-anchor="middle" x="260" y="-121.5" font-family="Helvetica,sans-Serif" font-size="10.00">tls_server_create</text>
</a>
</g>
</g>
<!-- Node2&#45;&gt;Node47 -->
<g id="edge54" class="edge"><title>Node2&#45;&gt;Node47</title>
<path fill="none" stroke="midnightblue" d="M123.837,-392.162C124.531,-343.04 133.213,-214.561 202,-143 205.759,-139.089 210.343,-135.984 215.261,-133.517"/>
<polygon fill="midnightblue" stroke="midnightblue" points="120.336,-392.362 123.797,-402.375 127.336,-392.389 120.336,-392.362"/>
</g>
<!-- Node48 -->
<g id="node48" class="node"><title>Node48</title>
<g id="a_node48"><a xlink:href="../../df/dfc/tnc__ifmap__soap_8c.html#a01805baad8c2dd46c29277f5784f4c56" target="_top" xlink:title="soap_init">
<polygon fill="none" stroke="black" points="232,-38.5 232,-57.5 288,-57.5 288,-38.5 232,-38.5"/>
<text text-anchor="middle" x="260" y="-45.5" font-family="Helvetica,sans-Serif" font-size="10.00">soap_init</text>
</a>
</g>
</g>
<!-- Node2&#45;&gt;Node48 -->
<g id="edge56" class="edge"><title>Node2&#45;&gt;Node48</title>
<path fill="none" stroke="midnightblue" d="M125.944,-392.132C132.773,-326.185 157.681,-115.959 202,-67 209.63,-58.5708 221.097,-53.875 231.749,-51.2616"/>
<polygon fill="midnightblue" stroke="midnightblue" points="122.431,-392.083 124.909,-402.384 129.396,-392.786 122.431,-392.083"/>
</g>
<!-- Node50 -->
<g id="node50" class="node"><title>Node50</title>
<g id="a_node50"><a xlink:href="../../da/de3/vici__config_8c.html#ae177789a90ba0b5b62c4b4eb791af98d" target="_top" xlink:title="CALLBACK">
<polygon fill="none" stroke="black" points="225.5,-0.5 225.5,-19.5 294.5,-19.5 294.5,-0.5 225.5,-0.5"/>
<text text-anchor="middle" x="260" y="-7.5" font-family="Helvetica,sans-Serif" font-size="10.00">CALLBACK</text>
</a>
</g>
</g>
<!-- Node2&#45;&gt;Node50 -->
<g id="edge58" class="edge"><title>Node2&#45;&gt;Node50</title>
<path fill="none" stroke="midnightblue" d="M125.449,-392.267C130.999,-321.853 153.088,-84.211 202,-29 208.087,-22.1291 216.725,-17.7368 225.44,-14.931"/>
<polygon fill="midnightblue" stroke="midnightblue" points="121.946,-392.174 124.675,-402.411 128.926,-392.707 121.946,-392.174"/>
</g>
<!-- Node5 -->
<g id="node5" class="node"><title>Node5</title>
<g id="a_node5"><a xlink:href="../../d7/d9c/cmd__connection_8c.html#a69a2225da93d04a822cb999d15797b13" target="_top" xlink:title="add_auth_cfgs">
<polygon fill="none" stroke="black" points="384,-620.5 384,-639.5 464,-639.5 464,-620.5 384,-620.5"/>
<text text-anchor="middle" x="424" y="-627.5" font-family="Helvetica,sans-Serif" font-size="10.00">add_auth_cfgs</text>
</a>
</g>
</g>
<!-- Node4&#45;&gt;Node5 -->
<g id="edge4" class="edge"><title>Node4&#45;&gt;Node5</title>
<path fill="none" stroke="midnightblue" d="M308.079,-630C332.122,-630 361.032,-630 383.841,-630"/>
<polygon fill="midnightblue" stroke="midnightblue" points="307.76,-626.5 297.76,-630 307.76,-633.5 307.76,-626.5"/>
</g>
<!-- Node7 -->
<g id="node7" class="node"><title>Node7</title>
<g id="a_node7"><a xlink:href="../../db/d07/group__peer__cfg.html#ga6c9fa5c7aa3d701f979c28d6766e7742" target="_top" xlink:title="peer_cfg_create">
<polygon fill="none" stroke="red" points="381,-696.5 381,-715.5 467,-715.5 467,-696.5 381,-696.5"/>
<text text-anchor="middle" x="424" y="-703.5" font-family="Helvetica,sans-Serif" font-size="10.00">peer_cfg_create</text>
</a>
</g>
</g>
<!-- Node4&#45;&gt;Node7 -->
<g id="edge6" class="edge"><title>Node4&#45;&gt;Node7</title>
<path fill="none" stroke="midnightblue" d="M290.967,-644.059C323.479,-659.311 374.499,-683.246 402.649,-696.453"/>
<polygon fill="midnightblue" stroke="midnightblue" points="292.057,-640.704 281.517,-639.625 289.084,-647.041 292.057,-640.704"/>
</g>
<!-- Node6 -->
<g id="node6" class="node"><title>Node6</title>
<g id="a_node6"><a xlink:href="../../d7/d9c/cmd__connection_8c.html#a1ef10a08acb2689e03be939316fb0a76" target="_top" xlink:title="initiate">
<polygon fill="none" stroke="red" points="556.5,-620.5 556.5,-639.5 601.5,-639.5 601.5,-620.5 556.5,-620.5"/>
<text text-anchor="middle" x="579" y="-627.5" font-family="Helvetica,sans-Serif" font-size="10.00">initiate</text>
</a>
</g>
</g>
<!-- Node5&#45;&gt;Node6 -->
<g id="edge5" class="edge"><title>Node5&#45;&gt;Node6</title>
<path fill="none" stroke="midnightblue" d="M474.271,-630C501.845,-630 534.847,-630 556.103,-630"/>
<polygon fill="midnightblue" stroke="midnightblue" points="474.004,-626.5 464.004,-630 474.004,-633.5 474.004,-626.5"/>
</g>
<!-- Node7&#45;&gt;Node8 -->
<g id="edge7" class="edge"><title>Node7&#45;&gt;Node8</title>
<path fill="none" stroke="midnightblue" d="M448.582,-721.46C463.09,-731.871 481.276,-746.651 494,-763 516.956,-792.495 502.721,-813.451 530,-839 534.056,-842.798 538.962,-845.872 544.07,-848.348"/>
<polygon fill="midnightblue" stroke="midnightblue" points="450.315,-718.402 440.106,-715.567 446.319,-724.149 450.315,-718.402"/>
</g>
<!-- Node7&#45;&gt;Node10 -->
<g id="edge9" class="edge"><title>Node7&#45;&gt;Node10</title>
<path fill="none" stroke="midnightblue" d="M445.641,-721.965C459.65,-733.06 478.392,-748.418 494,-763 511,-778.882 510.729,-787.967 530,-801 535.494,-804.716 541.822,-807.871 548.044,-810.479"/>
<polygon fill="midnightblue" stroke="midnightblue" points="447.627,-719.074 437.6,-715.652 443.304,-724.58 447.627,-719.074"/>
</g>
<!-- Node12 -->
<g id="node12" class="node"><title>Node12</title>
<g id="a_node12"><a xlink:href="../../d2/d03/load__tester__config_8c.html#a33052fc4f22344addc501a8e232bc665" target="_top" xlink:title="generate_config">
<polygon fill="none" stroke="red" points="536,-772.5 536,-791.5 622,-791.5 622,-772.5 536,-772.5"/>
<text text-anchor="middle" x="579" y="-779.5" font-family="Helvetica,sans-Serif" font-size="10.00">generate_config</text>
</a>
</g>
</g>
<!-- Node7&#45;&gt;Node12 -->
<g id="edge11" class="edge"><title>Node7&#45;&gt;Node12</title>
<path fill="none" stroke="midnightblue" d="M449.956,-720.654C470.959,-732.718 501.971,-749.903 530,-763 537.064,-766.301 544.871,-769.553 552.099,-772.407"/>
<polygon fill="midnightblue" stroke="midnightblue" points="451.465,-717.484 441.056,-715.505 447.959,-723.543 451.465,-717.484"/>
</g>
<!-- Node7&#45;&gt;Node13 -->
<g id="edge12" class="edge"><title>Node7&#45;&gt;Node13</title>
<path fill="none" stroke="midnightblue" d="M473.477,-718.04C494.852,-723.349 519.613,-729.499 539.669,-734.48"/>
<polygon fill="midnightblue" stroke="midnightblue" points="474.157,-714.603 463.608,-715.589 472.47,-721.396 474.157,-714.603"/>
</g>
<!-- Node7&#45;&gt;Node15 -->
<g id="edge14" class="edge"><title>Node7&#45;&gt;Node15</title>
<path fill="none" stroke="midnightblue" d="M477.195,-698.495C501.943,-694.936 530.478,-690.833 550.857,-687.903"/>
<polygon fill="midnightblue" stroke="midnightblue" points="476.613,-695.042 467.213,-699.93 477.609,-701.971 476.613,-695.042"/>
</g>
<!-- Node7&#45;&gt;Node18 -->
<g id="edge17" class="edge"><title>Node7&#45;&gt;Node18</title>
<path fill="none" stroke="midnightblue" d="M445.641,-690.035C459.65,-678.94 478.392,-663.582 494,-649 511,-633.118 510.729,-624.033 530,-611 535.494,-607.284 541.822,-604.129 548.044,-601.521"/>
<polygon fill="midnightblue" stroke="midnightblue" points="443.304,-687.42 437.6,-696.348 447.627,-692.926 443.304,-687.42"/>
</g>
<!-- Node9 -->
<g id="node9" class="node"><title>Node9</title>
<g id="a_node9"><a xlink:href="../../d3/d95/config_8c.html#a492679e9382000ca562915367ac8c779" target="_top" xlink:title="METHOD">
<polygon fill="none" stroke="black" points="704,-848.5 704,-867.5 764,-867.5 764,-848.5 704,-848.5"/>
<text text-anchor="middle" x="734" y="-855.5" font-family="Helvetica,sans-Serif" font-size="10.00">METHOD</text>
</a>
</g>
</g>
<!-- Node8&#45;&gt;Node9 -->
<g id="edge8" class="edge"><title>Node8&#45;&gt;Node9</title>
<path fill="none" stroke="midnightblue" d="M634.414,-858C657.817,-858 684.236,-858 703.831,-858"/>
<polygon fill="midnightblue" stroke="midnightblue" points="634.254,-854.5 624.254,-858 634.254,-861.5 634.254,-854.5"/>
</g>
<!-- Node11 -->
<g id="node11" class="node"><title>Node11</title>
<g id="a_node11"><a xlink:href="../../d9/d9f/group__ha__.html#ga3cf24f88395df3f2c6a84eec9f35ce04" target="_top" xlink:title="ha_tunnel_create">
<polygon fill="none" stroke="red" points="688.5,-810.5 688.5,-829.5 779.5,-829.5 779.5,-810.5 688.5,-810.5"/>
<text text-anchor="middle" x="734" y="-817.5" font-family="Helvetica,sans-Serif" font-size="10.00">ha_tunnel_create</text>
</a>
</g>
</g>
<!-- Node10&#45;&gt;Node11 -->
<g id="edge10" class="edge"><title>Node10&#45;&gt;Node11</title>
<path fill="none" stroke="midnightblue" d="M625.192,-820C645.159,-820 668.565,-820 688.456,-820"/>
<polygon fill="midnightblue" stroke="midnightblue" points="625.101,-816.5 615.101,-820 625.101,-823.5 625.101,-816.5"/>
</g>
<!-- Node14 -->
<g id="node14" class="node"><title>Node14</title>
<g id="a_node14"><a xlink:href="../../d7/d79/maemo__service_8c.html#a82aca93fce2dd44e6e05704c2ab6b179" target="_top" xlink:title="dbus_req_handler">
<polygon fill="none" stroke="red" points="687.5,-734.5 687.5,-753.5 780.5,-753.5 780.5,-734.5 687.5,-734.5"/>
<text text-anchor="middle" x="734" y="-741.5" font-family="Helvetica,sans-Serif" font-size="10.00">dbus_req_handler</text>
</a>
</g>
</g>
<!-- Node13&#45;&gt;Node14 -->
<g id="edge13" class="edge"><title>Node13&#45;&gt;Node14</title>
<path fill="none" stroke="midnightblue" d="M638.78,-744C654.851,-744 672.025,-744 687.25,-744"/>
<polygon fill="midnightblue" stroke="midnightblue" points="638.41,-740.5 628.41,-744 638.41,-747.5 638.41,-740.5"/>
</g>
<!-- Node16 -->
<g id="node16" class="node"><title>Node16</title>
<g id="a_node16"><a xlink:href="../../d0/d53/nm__service_8c.html#ac2ec8a8e03309ad7aa5a4f053bad05a3" target="_top" xlink:title="nm_strongswan_plugin\l_class_init">
<polygon fill="none" stroke="black" points="676,-679 676,-709 792,-709 792,-679 676,-679"/>
<text text-anchor="start" x="684" y="-697" font-family="Helvetica,sans-Serif" font-size="10.00">nm_strongswan_plugin</text>
<text text-anchor="middle" x="734" y="-686" font-family="Helvetica,sans-Serif" font-size="10.00">_class_init</text>
</a>
</g>
</g>
<!-- Node15&#45;&gt;Node16 -->
<g id="edge15" class="edge"><title>Node15&#45;&gt;Node16</title>
<path fill="none" stroke="midnightblue" d="M617.407,-686.445C634.981,-687.594 656.318,-688.988 675.853,-690.265"/>
<polygon fill="midnightblue" stroke="midnightblue" points="617.208,-682.925 607.001,-685.765 616.752,-689.91 617.208,-682.925"/>
</g>
<!-- Node17 -->
<g id="node17" class="node"><title>Node17</title>
<g id="a_node17"><a xlink:href="../../da/d80/group__vici__dispatcher.html#ga6a79fafdbb49a69b40e48449ff7252c4" target="_top" xlink:title="vici_dispatcher_create">
<polygon fill="none" stroke="red" points="677,-640.5 677,-659.5 791,-659.5 791,-640.5 677,-640.5"/>
<text text-anchor="middle" x="734" y="-647.5" font-family="Helvetica,sans-Serif" font-size="10.00">vici_dispatcher_create</text>
</a>
</g>
</g>
<!-- Node15&#45;&gt;Node17 -->
<g id="edge16" class="edge"><title>Node15&#45;&gt;Node17</title>
<path fill="none" stroke="midnightblue" d="M616.973,-675.784C639.01,-670.887 667.081,-664.649 690.092,-659.535"/>
<polygon fill="midnightblue" stroke="midnightblue" points="616.004,-672.414 607.001,-678 617.522,-679.247 616.004,-672.414"/>
</g>
<!-- Node19 -->
<g id="node19" class="node"><title>Node19</title>
<g id="a_node19"><a xlink:href="../../de/d0b/sql__config_8c.html#aa57726e496f822dfc20afa5039bb92ce" target="_top" xlink:title="get_peer_cfg_by_id">
<polygon fill="none" stroke="black" points="683.5,-589.5 683.5,-608.5 784.5,-608.5 784.5,-589.5 683.5,-589.5"/>
<text text-anchor="middle" x="734" y="-596.5" font-family="Helvetica,sans-Serif" font-size="10.00">get_peer_cfg_by_id</text>
</a>
</g>
</g>
<!-- Node18&#45;&gt;Node19 -->
<g id="edge18" class="edge"><title>Node18&#45;&gt;Node19</title>
<path fill="none" stroke="midnightblue" d="M629.441,-587.902C646.701,-588.174 666.07,-589.058 683.348,-590.362"/>
<polygon fill="midnightblue" stroke="midnightblue" points="629.033,-584.399 619.004,-587.814 628.974,-591.399 629.033,-584.399"/>
</g>
<!-- Node20 -->
<g id="node20" class="node"><title>Node20</title>
<g id="a_node20"><a xlink:href="../../de/d0b/sql__config_8c.html#ab8a4c85114d17aa7387ccac04fd464dd" target="_top" xlink:title="METHOD">
<polygon fill="none" stroke="black" points="704,-551.5 704,-570.5 764,-570.5 764,-551.5 704,-551.5"/>
<text text-anchor="middle" x="734" y="-558.5" font-family="Helvetica,sans-Serif" font-size="10.00">METHOD</text>
</a>
</g>
</g>
<!-- Node18&#45;&gt;Node20 -->
<g id="edge20" class="edge"><title>Node18&#45;&gt;Node20</title>
<path fill="none" stroke="midnightblue" d="M628.904,-582.091C653.542,-577.099 682.589,-571.214 703.731,-566.93"/>
<polygon fill="midnightblue" stroke="midnightblue" points="628.11,-578.681 619.004,-584.097 629.5,-585.542 628.11,-578.681"/>
</g>
<!-- Node21 -->
<g id="node21" class="node"><title>Node21</title>
<g id="a_node21"><a xlink:href="../../de/d0b/sql__config_8c.html#ab851d028c29985d80230a64b629471f3" target="_top" xlink:title="peer_enumerator_enumerate">
<polygon fill="none" stroke="red" points="664,-513.5 664,-532.5 804,-532.5 804,-513.5 664,-513.5"/>
<text text-anchor="middle" x="734" y="-520.5" font-family="Helvetica,sans-Serif" font-size="10.00">peer_enumerator_enumerate</text>
</a>
</g>
</g>
<!-- Node18&#45;&gt;Node21 -->
<g id="edge21" class="edge"><title>Node18&#45;&gt;Node21</title>
<path fill="none" stroke="midnightblue" d="M601.741,-576.842C618.214,-565.918 641.737,-551.486 664,-542 672.573,-538.347 682.045,-535.204 691.154,-532.585"/>
<polygon fill="midnightblue" stroke="midnightblue" points="599.697,-573.999 593.368,-582.496 603.614,-579.8 599.697,-573.999"/>
</g>
<!-- Node19&#45;&gt;Node18 -->
<g id="edge19" class="edge"><title>Node19&#45;&gt;Node18</title>
<path fill="none" stroke="midnightblue" d="M673.119,-602.867C654.936,-602.354 635.437,-601.25 619.004,-599.755"/>
<polygon fill="midnightblue" stroke="midnightblue" points="673.272,-606.371 683.348,-603.094 673.428,-599.373 673.272,-606.371"/>
</g>
<!-- Node23 -->
<g id="node23" class="node"><title>Node23</title>
<g id="a_node23"><a xlink:href="../../d1/d05/credential__manager_8c.html#a92547815f311eca21fe0cdf141623649" target="_top" xlink:title="METHOD">
<polygon fill="none" stroke="black" points="394,-544.5 394,-563.5 454,-563.5 454,-544.5 394,-544.5"/>
<text text-anchor="middle" x="424" y="-551.5" font-family="Helvetica,sans-Serif" font-size="10.00">METHOD</text>
</a>
</g>
</g>
<!-- Node22&#45;&gt;Node23 -->
<g id="edge24" class="edge"><title>Node22&#45;&gt;Node23</title>
<path fill="none" stroke="midnightblue" d="M317.467,-548.137C343.245,-549.569 372.684,-551.205 393.908,-552.384"/>
<polygon fill="midnightblue" stroke="midnightblue" points="317.601,-544.639 307.423,-547.579 317.213,-551.628 317.601,-544.639"/>
</g>
<!-- Node25 -->
<g id="node25" class="node"><title>Node25</title>
<g id="a_node25"><a xlink:href="../../d1/d05/credential__manager_8c.html#ac11ba2d48486bd2d00fdbef8bdd6518f" target="_top" xlink:title="METHOD">
<polygon fill="none" stroke="black" points="394,-506.5 394,-525.5 454,-525.5 454,-506.5 394,-506.5"/>
<text text-anchor="middle" x="424" y="-513.5" font-family="Helvetica,sans-Serif" font-size="10.00">METHOD</text>
</a>
</g>
</g>
<!-- Node24&#45;&gt;Node25 -->
<g id="edge26" class="edge"><title>Node24&#45;&gt;Node25</title>
<path fill="none" stroke="midnightblue" d="M312.705,-496.937C339.466,-501.562 371.157,-507.039 393.686,-510.933"/>
<polygon fill="midnightblue" stroke="midnightblue" points="313.169,-493.465 302.719,-495.211 311.977,-500.363 313.169,-493.465"/>
</g>
<!-- Node27 -->
<g id="node27" class="node"><title>Node27</title>
<g id="a_node27"><a xlink:href="../../db/d8d/group__eap__mschapv2__i.html#ga79f5fcea05e2649a2b0f7c8a89238c86" target="_top" xlink:title="eap_mschapv2_create\l_server">
<polygon fill="none" stroke="red" points="366.5,-457 366.5,-487 481.5,-487 481.5,-457 366.5,-457"/>
<text text-anchor="start" x="374.5" y="-475" font-family="Helvetica,sans-Serif" font-size="10.00">eap_mschapv2_create</text>
<text text-anchor="middle" x="424" y="-464" font-family="Helvetica,sans-Serif" font-size="10.00">_server</text>
</a>
</g>
</g>
<!-- Node26&#45;&gt;Node27 -->
<g id="edge28" class="edge"><title>Node26&#45;&gt;Node27</title>
<path fill="none" stroke="midnightblue" d="M327.424,-449.581C340.353,-452.614 353.795,-455.767 366.372,-458.717"/>
<polygon fill="midnightblue" stroke="midnightblue" points="328.195,-446.167 317.66,-447.291 326.596,-452.982 328.195,-446.167"/>
</g>
<!-- Node28 -->
<g id="node28" class="node"><title>Node28</title>
<g id="a_node28"><a xlink:href="../../db/d8d/group__eap__mschapv2__i.html#ga2bcd472e714bb3bb679944da32bf60f9" target="_top" xlink:title="eap_mschapv2_create_peer">
<polygon fill="none" stroke="red" points="354.5,-418.5 354.5,-437.5 493.5,-437.5 493.5,-418.5 354.5,-418.5"/>
<text text-anchor="middle" x="424" y="-425.5" font-family="Helvetica,sans-Serif" font-size="10.00">eap_mschapv2_create_peer</text>
</a>
</g>
</g>
<!-- Node26&#45;&gt;Node28 -->
<g id="edge29" class="edge"><title>Node26&#45;&gt;Node28</title>
<path fill="none" stroke="midnightblue" d="M327.824,-431.525C336.595,-431.2 345.594,-430.867 354.393,-430.541"/>
<polygon fill="midnightblue" stroke="midnightblue" points="327.523,-428.034 317.66,-431.901 327.782,-435.029 327.523,-428.034"/>
</g>
<!-- Node30 -->
<g id="node30" class="node"><title>Node30</title>
<g id="a_node30"><a xlink:href="../../de/dfc/ha__dispatcher_8c.html#a6e7484c8904d89575d90aed033fcf771" target="_top" xlink:title="dispatch">
<polygon fill="none" stroke="red" points="552.5,-361.5 552.5,-380.5 605.5,-380.5 605.5,-361.5 552.5,-361.5"/>
<text text-anchor="middle" x="579" y="-368.5" font-family="Helvetica,sans-Serif" font-size="10.00">dispatch</text>
</a>
</g>
</g>
<!-- Node29&#45;&gt;Node30 -->
<g id="edge31" class="edge"><title>Node29&#45;&gt;Node30</title>
<path fill="none" stroke="midnightblue" d="M322.694,-386.302C392.461,-382.121 502.786,-375.508 552.373,-372.536"/>
<polygon fill="midnightblue" stroke="midnightblue" points="322.056,-382.834 312.284,-386.926 322.475,-389.822 322.056,-382.834"/>
</g>
<!-- Node32 -->
<g id="node32" class="node"><title>Node32</title>
<g id="a_node32"><a xlink:href="../../de/dc6/ike__auth_8c.html#a4e687eb1af4d66691763df5dcadee3a5" target="_top" xlink:title="METHOD">
<polygon fill="none" stroke="black" points="394,-266.5 394,-285.5 454,-285.5 454,-266.5 394,-266.5"/>
<text text-anchor="middle" x="424" y="-273.5" font-family="Helvetica,sans-Serif" font-size="10.00">METHOD</text>
</a>
</g>
</g>
<!-- Node31&#45;&gt;Node32 -->
<g id="edge34" class="edge"><title>Node31&#45;&gt;Node32</title>
<path fill="none" stroke="midnightblue" d="M311.942,-302.051C338.94,-295.718 371.13,-288.167 393.886,-282.829"/>
<polygon fill="midnightblue" stroke="midnightblue" points="310.816,-298.72 301.879,-304.411 312.415,-305.535 310.816,-298.72"/>
</g>
<!-- Node34 -->
<g id="node34" class="node"><title>Node34</title>
<g id="a_node34"><a xlink:href="../../de/dfc/ha__dispatcher_8c.html#a0bfbdd320c96c4c169e64a6acb923a3d" target="_top" xlink:title="process_ike_add">
<polygon fill="none" stroke="black" points="379,-342.5 379,-361.5 469,-361.5 469,-342.5 379,-342.5"/>
<text text-anchor="middle" x="424" y="-349.5" font-family="Helvetica,sans-Serif" font-size="10.00">process_ike_add</text>
</a>
</g>
</g>
<!-- Node33&#45;&gt;Node34 -->
<g id="edge36" class="edge"><title>Node33&#45;&gt;Node34</title>
<path fill="none" stroke="midnightblue" d="M308.756,-352C330.895,-352 357.043,-352 378.733,-352"/>
<polygon fill="midnightblue" stroke="midnightblue" points="308.573,-348.5 298.573,-352 308.573,-355.5 308.573,-348.5"/>
</g>
<!-- Node35 -->
<g id="node35" class="node"><title>Node35</title>
<g id="a_node35"><a xlink:href="../../d0/df4/ike__sa__manager_8c.html#ae7b6b733f256a45cc4b4d9aa25447f60" target="_top" xlink:title="METHOD">
<polygon fill="none" stroke="black" points="394,-304.5 394,-323.5 454,-323.5 454,-304.5 394,-304.5"/>
<text text-anchor="middle" x="424" y="-311.5" font-family="Helvetica,sans-Serif" font-size="10.00">METHOD</text>
</a>
</g>
</g>
<!-- Node33&#45;&gt;Node35 -->
<g id="edge38" class="edge"><title>Node33&#45;&gt;Node35</title>
<path fill="none" stroke="midnightblue" d="M308.461,-340.867C336.163,-334.369 370.222,-326.38 393.968,-320.81"/>
<polygon fill="midnightblue" stroke="midnightblue" points="307.51,-337.495 298.573,-343.187 309.108,-344.31 307.51,-337.495"/>
</g>
<!-- Node34&#45;&gt;Node30 -->
<g id="edge37" class="edge"><title>Node34&#45;&gt;Node30</title>
<path fill="none" stroke="midnightblue" d="M479.322,-358.746C504.23,-361.839 532.57,-365.358 552.469,-367.83"/>
<polygon fill="midnightblue" stroke="midnightblue" points="479.609,-355.255 469.254,-357.496 478.746,-362.201 479.609,-355.255"/>
</g>
<!-- Node36&#45;&gt;Node12 -->
<g id="edge40" class="edge"><title>Node36&#45;&gt;Node12</title>
<path fill="none" stroke="midnightblue" d="M482.771,-782C500.424,-782 519.494,-782 535.9,-782"/>
<polygon fill="midnightblue" stroke="midnightblue" points="482.572,-778.5 472.571,-782 482.571,-785.5 482.572,-778.5"/>
</g>
<!-- Node38 -->
<g id="node38" class="node"><title>Node38</title>
<g id="a_node38"><a xlink:href="../../d8/d42/phase1_8c.html#a028a51eeed4268cefb174086310f3532" target="_top" xlink:title="METHOD">
<polygon fill="none" stroke="black" points="394,-228.5 394,-247.5 454,-247.5 454,-228.5 394,-228.5"/>
<text text-anchor="middle" x="424" y="-235.5" font-family="Helvetica,sans-Serif" font-size="10.00">METHOD</text>
</a>
</g>
</g>
<!-- Node37&#45;&gt;Node38 -->
<g id="edge44" class="edge"><title>Node37&#45;&gt;Node38</title>
<path fill="none" stroke="midnightblue" d="M310,-264.506C337.347,-258.091 370.493,-250.316 393.792,-244.851"/>
<polygon fill="midnightblue" stroke="midnightblue" points="309.152,-261.11 300.216,-266.801 310.751,-267.925 309.152,-261.11"/>
</g>
<!-- Node40 -->
<g id="node40" class="node"><title>Node40</title>
<g id="a_node40"><a xlink:href="../../d3/db3/pretend__auth_8c.html#a4495356dc82b4163d98ed5adcfd5cac8" target="_top" xlink:title="process_auth_response">
<polygon fill="none" stroke="red" points="364,-190.5 364,-209.5 484,-209.5 484,-190.5 364,-190.5"/>
<text text-anchor="middle" x="424" y="-197.5" font-family="Helvetica,sans-Serif" font-size="10.00">process_auth_response</text>
</a>
</g>
</g>
<!-- Node39&#45;&gt;Node40 -->
<g id="edge46" class="edge"><title>Node39&#45;&gt;Node40</title>
<path fill="none" stroke="midnightblue" d="M300.551,-228.723C325.426,-222.888 357.439,-215.379 382.493,-209.502"/>
<polygon fill="midnightblue" stroke="midnightblue" points="299.65,-225.339 290.713,-231.03 301.248,-232.154 299.65,-225.339"/>
</g>
<!-- Node42 -->
<g id="node42" class="node"><title>Node42</title>
<g id="a_node42"><a xlink:href="../../d5/dd9/stroke__config_8c.html#a2ac6ce90df9a75b6da9dac8ec9360129" target="_top" xlink:title="build_peer_cfg">
<polygon fill="none" stroke="red" points="384,-152.5 384,-171.5 464,-171.5 464,-152.5 384,-152.5"/>
<text text-anchor="middle" x="424" y="-159.5" font-family="Helvetica,sans-Serif" font-size="10.00">build_peer_cfg</text>
</a>
</g>
</g>
<!-- Node41&#45;&gt;Node42 -->
<g id="edge49" class="edge"><title>Node41&#45;&gt;Node42</title>
<path fill="none" stroke="midnightblue" d="M310.056,-188.493C333.702,-182.946 361.674,-176.385 383.865,-171.18"/>
<polygon fill="midnightblue" stroke="midnightblue" points="309.152,-185.11 300.216,-190.801 310.751,-191.925 309.152,-185.11"/>
</g>
<!-- Node44 -->
<g id="node44" class="node"><title>Node44</title>
<g id="a_node44"><a xlink:href="../../db/db4/group__tls.html#ga427bf0181bb1a0c0ed41970d853b3717" target="_top" xlink:title="tls_create">
<polygon fill="none" stroke="red" points="394.5,-114.5 394.5,-133.5 453.5,-133.5 453.5,-114.5 394.5,-114.5"/>
<text text-anchor="middle" x="424" y="-121.5" font-family="Helvetica,sans-Serif" font-size="10.00">tls_create</text>
</a>
</g>
</g>
<!-- Node43&#45;&gt;Node44 -->
<g id="edge51" class="edge"><title>Node43&#45;&gt;Node44</title>
<path fill="none" stroke="midnightblue" d="M311.651,-150.119C338.907,-143.725 371.524,-136.075 394.387,-130.712"/>
<polygon fill="midnightblue" stroke="midnightblue" points="310.816,-146.72 301.879,-152.411 312.415,-153.535 310.816,-146.72"/>
</g>
<!-- Node46 -->
<g id="node46" class="node"><title>Node46</title>
<g id="a_node46"><a xlink:href="../../d8/dde/tls__server_8c.html#a7369ecabb007afde173b98c703902fa8" target="_top" xlink:title="process_client_hello">
<polygon fill="none" stroke="red" points="371.5,-76.5 371.5,-95.5 476.5,-95.5 476.5,-76.5 371.5,-76.5"/>
<text text-anchor="middle" x="424" y="-83.5" font-family="Helvetica,sans-Serif" font-size="10.00">process_client_hello</text>
</a>
</g>
</g>
<!-- Node45&#45;&gt;Node46 -->
<g id="edge53" class="edge"><title>Node45&#45;&gt;Node46</title>
<path fill="none" stroke="midnightblue" d="M326.142,-86C341.23,-86 357.082,-86 371.492,-86"/>
<polygon fill="midnightblue" stroke="midnightblue" points="325.846,-82.5001 315.846,-86 325.846,-89.5001 325.846,-82.5001"/>
</g>
<!-- Node47&#45;&gt;Node44 -->
<g id="edge55" class="edge"><title>Node47&#45;&gt;Node44</title>
<path fill="none" stroke="midnightblue" d="M316.337,-124C342.586,-124 372.845,-124 394.413,-124"/>
<polygon fill="midnightblue" stroke="midnightblue" points="316.126,-120.5 306.126,-124 316.126,-127.5 316.126,-120.5"/>
</g>
<!-- Node49 -->
<g id="node49" class="node"><title>Node49</title>
<g id="a_node49"><a xlink:href="../../df/df9/group__tnc__ifmap__soap.html#ga010bdf08f257b1a09b98af95e1c0fcb0" target="_top" xlink:title="tnc_ifmap_soap_create">
<polygon fill="none" stroke="red" points="365,-38.5 365,-57.5 483,-57.5 483,-38.5 365,-38.5"/>
<text text-anchor="middle" x="424" y="-45.5" font-family="Helvetica,sans-Serif" font-size="10.00">tnc_ifmap_soap_create</text>
</a>
</g>
</g>
<!-- Node48&#45;&gt;Node49 -->
<g id="edge57" class="edge"><title>Node48&#45;&gt;Node49</title>
<path fill="none" stroke="midnightblue" d="M298.232,-48C317.967,-48 342.655,-48 364.85,-48"/>
<polygon fill="midnightblue" stroke="midnightblue" points="298.115,-44.5001 288.115,-48 298.115,-51.5001 298.115,-44.5001"/>
</g>
</g>
</svg>
        <g id="navigator" transform="translate(0 0)" fill="#404254">
                <rect fill="#f2f5e9" fill-opacity="0.5" stroke="#606060" stroke-width=".5" x="0" y="0" width="60" height="60"/>
                <use id="zoomplus" xlink:href="#zoomPlus" x="17" y="9" onmousedown="handleZoom(evt,'in')"/>
                <use id="zoomminus" xlink:href="#zoomMin" x="42" y="9" onmousedown="handleZoom(evt,'out')"/>
                <use id="reset" xlink:href="#resetDef" x="30" y="36" onmousedown="handleReset()"/>
                <g id="arrowUp" xlink:href="#dirArrow" transform="translate(30 24)" onmousedown="handlePan(0,-1)">
                  <use xlink:href="#rim" fill="#404040">
                        <set attributeName="fill" to="#808080" begin="arrowUp.mouseover" end="arrowUp.mouseout"/>
                  </use>
                  <path fill="none" stroke="white" stroke-width="1.5" d="M0,-3.0v7 M-2.5,-0.5L0,-3.0L2.5,-0.5"/>
                </g>
                <g id="arrowRight" xlink:href="#dirArrow" transform="rotate(90) translate(36 -43)" onmousedown="handlePan(1,0)">
                  <use xlink:href="#rim" fill="#404040">
                        <set attributeName="fill" to="#808080" begin="arrowRight.mouseover" end="arrowRight.mouseout"/>
                  </use>
                  <path fill="none" stroke="white" stroke-width="1.5" d="M0,-3.0v7 M-2.5,-0.5L0,-3.0L2.5,-0.5"/>
                </g>
                <g id="arrowDown" xlink:href="#dirArrow" transform="rotate(180) translate(-30 -48)" onmousedown="handlePan(0,1)">
                  <use xlink:href="#rim" fill="#404040">
                        <set attributeName="fill" to="#808080" begin="arrowDown.mouseover" end="arrowDown.mouseout"/>
                  </use>
                  <path fill="none" stroke="white" stroke-width="1.5" d="M0,-3.0v7 M-2.5,-0.5L0,-3.0L2.5,-0.5"/>
                </g>
                <g id="arrowLeft" xlink:href="#dirArrow" transform="rotate(270) translate(-36 17)" onmousedown="handlePan(-1,0)">
                  <use xlink:href="#rim" fill="#404040">
                        <set attributeName="fill" to="#808080" begin="arrowLeft.mouseover" end="arrowLeft.mouseout"/>
                  </use>
                  <path fill="none" stroke="white" stroke-width="1.5" d="M0,-3.0v7 M-2.5,-0.5L0,-3.0L2.5,-0.5"/>
                </g>
        </g>
        <svg viewBox="0 0 15 15" width="100%" height="30px" preserveAspectRatio="xMaxYMin meet">
         <g id="arrow_out" transform="scale(0.3 0.3)">
          <a xlink:href="auth__cfg_8c_a4eb2034f5f7e4f16c61e8ed9da86f3c5_icgraph_org.svg" target="_base">
           <rect id="button" ry="5" rx="5" y="6" x="6" height="38" width="38"
                fill="#f2f5e9" fill-opacity="0.5" stroke="#606060" stroke-width="1.0"/>
           <path id="arrow"
             d="M 11.500037,31.436501 C 11.940474,20.09759 22.043105,11.32322 32.158766,21.979434 L 37.068811,17.246167 C 37.068811,17.246167 37.088388,32 37.088388,32 L 22.160133,31.978069 C 22.160133,31.978069 26.997745,27.140456 26.997745,27.140456 C 18.528582,18.264221 13.291696,25.230495 11.500037,31.436501 z"
             style="fill:#404040;"/>
          </a>
         </g>
        </svg>
</svg>
