<?xml version="1.0" encoding="UTF-8" standalone="no"?>
<!DOCTYPE svg PUBLIC "-//W3C//DTD SVG 1.1//EN"
 "http://www.w3.org/Graphics/SVG/1.1/DTD/svg11.dtd">
<!-- Generated by graphviz version 2.36.0 (20140111.2315)
 -->
<!-- Title: entry_equals Pages: 1 -->
<!--zoomable 909 -->
<svg id="main" version="1.1" xmlns="http://www.w3.org/2000/svg" xmlns:xlink="http://www.w3.org/1999/xlink" xml:space="preserve" onload="init(evt)">
<style type="text/css"><![CDATA[
.edge:hover path { stroke: red; }
.edge:hover polygon { stroke: red; fill: red; }
]]></style>
<script type="text/javascript"><![CDATA[
var edges = document.getElementsByTagName('g');
if (edges && edges.length) {
  for (var i=0;i<edges.length;i++) {
    if (edges[i].id.substr(0,4)=='edge') {
      edges[i].setAttribute('class','edge');
    }
  }
}
]]></script>
        <defs>
                <circle id="rim" cx="0" cy="0" r="7"/>
                <circle id="rim2" cx="0" cy="0" r="3.5"/>
                <g id="zoomPlus">
                        <use xlink:href="#rim" fill="#404040">
                                <set attributeName="fill" to="#808080" begin="zoomplus.mouseover" end="zoomplus.mouseout"/>
                        </use>
                        <path d="M-4,0h8M0,-4v8" fill="none" stroke="white" stroke-width="1.5" pointer-events="none"/>
                </g>
                <g id="zoomMin">
                        <use xlink:href="#rim" fill="#404040">
                                <set attributeName="fill" to="#808080" begin="zoomminus.mouseover" end="zoomminus.mouseout"/>
                        </use>
                        <path d="M-4,0h8" fill="none" stroke="white" stroke-width="1.5" pointer-events="none"/>
                </g>
                <g id="dirArrow">
                        <path fill="none" stroke="white" stroke-width="1.5" d="M0,-3.0v7 M-2.5,-0.5L0,-3.0L2.5,-0.5"/>
                </g>
               <g id="resetDef">
                       <use xlink:href="#rim2" fill="#404040">
                               <set attributeName="fill" to="#808080" begin="reset.mouseover" end="reset.mouseout"/>
                       </use>
               </g>
        </defs>

<script type="text/javascript">
var viewWidth = 1046;
var viewHeight = 909;
var sectionId = 'dynsection-10';
</script>
<script xlink:href="../../svgpan.js"/>
<svg id="graph" class="graph">
<g id="viewport">
<title>entry_equals</title>
<!-- Node1 -->
<g id="node1" class="node"><title>Node1</title>
<polygon fill="#bfbfbf" stroke="black" points="0,-402.5 0,-421.5 72,-421.5 72,-402.5 0,-402.5"/>
<text text-anchor="middle" x="36" y="-409.5" font-family="Helvetica,sans-Serif" font-size="10.00">entry_equals</text>
</g>
<!-- Node2 -->
<g id="node2" class="node"><title>Node2</title>
<g id="a_node2"><a xlink:href="../../df/d31/auth__cfg_8c.html#af903327aef3963bc479e9a0cf0024d94" target="_top" xlink:title="auth_cfg_equals">
<polygon fill="none" stroke="black" points="108,-402.5 108,-421.5 196,-421.5 196,-402.5 108,-402.5"/>
<text text-anchor="middle" x="152" y="-409.5" font-family="Helvetica,sans-Serif" font-size="10.00">auth_cfg_equals</text>
</a>
</g>
</g>
<!-- Node1&#45;&gt;Node2 -->
<g id="edge1" class="edge"><title>Node1&#45;&gt;Node2</title>
<path fill="none" stroke="midnightblue" d="M82.1755,-412C90.5972,-412 99.3791,-412 107.741,-412"/>
<polygon fill="midnightblue" stroke="midnightblue" points="82.134,-408.5 72.134,-412 82.1339,-415.5 82.134,-408.5"/>
</g>
<!-- Node3 -->
<g id="node3" class="node"><title>Node3</title>
<g id="a_node3"><a xlink:href="../../df/d31/auth__cfg_8c.html#a68ff30de4c01e72c16dbfb2c9896cfa2" target="_top" xlink:title="equals">
<polygon fill="none" stroke="black" points="232.5,-402.5 232.5,-421.5 277.5,-421.5 277.5,-402.5 232.5,-402.5"/>
<text text-anchor="middle" x="255" y="-409.5" font-family="Helvetica,sans-Serif" font-size="10.00">equals</text>
</a>
</g>
</g>
<!-- Node2&#45;&gt;Node3 -->
<g id="edge2" class="edge"><title>Node2&#45;&gt;Node3</title>
<path fill="none" stroke="midnightblue" d="M206.195,-412C215.486,-412 224.654,-412 232.438,-412"/>
<polygon fill="midnightblue" stroke="midnightblue" points="206.126,-408.5 196.126,-412 206.126,-415.5 206.126,-408.5"/>
</g>
<!-- Node4 -->
<g id="node4" class="node"><title>Node4</title>
<g id="a_node4"><a xlink:href="../../d0/db5/group__auth__cfg.html#ga57b30fedc7ad3f8720f12fc99390cccc" target="_top" xlink:title="auth_cfg_create">
<polygon fill="none" stroke="black" points="314,-402.5 314,-421.5 400,-421.5 400,-402.5 314,-402.5"/>
<text text-anchor="middle" x="357" y="-409.5" font-family="Helvetica,sans-Serif" font-size="10.00">auth_cfg_create</text>
</a>
</g>
</g>
<!-- Node3&#45;&gt;Node4 -->
<g id="edge3" class="edge"><title>Node3&#45;&gt;Node4</title>
<path fill="none" stroke="midnightblue" d="M287.971,-412C296.181,-412 305.14,-412 313.781,-412"/>
<polygon fill="midnightblue" stroke="midnightblue" points="287.699,-408.5 277.699,-412 287.698,-415.5 287.699,-408.5"/>
</g>
<!-- Node5 -->
<g id="node5" class="node"><title>Node5</title>
<g id="a_node5"><a xlink:href="../../df/d31/auth__cfg_8c.html#a53a713324ead633914a9c706af131547" target="_top" xlink:title="METHOD">
<polygon fill="none" stroke="black" points="464,-881.5 464,-900.5 524,-900.5 524,-881.5 464,-881.5"/>
<text text-anchor="middle" x="494" y="-888.5" font-family="Helvetica,sans-Serif" font-size="10.00">METHOD</text>
</a>
</g>
</g>
<!-- Node4&#45;&gt;Node5 -->
<g id="edge4" class="edge"><title>Node4&#45;&gt;Node5</title>
<path fill="none" stroke="midnightblue" d="M358.931,-432.155C362.945,-511.041 381.134,-797.893 436,-867 442.943,-875.746 453.652,-881.346 463.922,-884.914"/>
<polygon fill="midnightblue" stroke="midnightblue" points="362.404,-431.526 358.422,-421.708 355.413,-431.867 362.404,-431.526"/>
</g>
<!-- Node6 -->
<g id="node6" class="node"><title>Node6</title>
<g id="a_node6"><a xlink:href="../../d7/d9c/cmd__connection_8c.html#a7060a5910fc55f3ab1d4c3f6f2d01330" target="_top" xlink:title="add_auth_cfg">
<polygon fill="none" stroke="black" points="456.5,-691.5 456.5,-710.5 531.5,-710.5 531.5,-691.5 456.5,-691.5"/>
<text text-anchor="middle" x="494" y="-698.5" font-family="Helvetica,sans-Serif" font-size="10.00">add_auth_cfg</text>
</a>
</g>
</g>
<!-- Node4&#45;&gt;Node6 -->
<g id="edge5" class="edge"><title>Node4&#45;&gt;Node6</title>
<path fill="none" stroke="midnightblue" d="M358.298,-431.865C360.067,-480.013 371.052,-604.319 436,-677 441.58,-683.245 449.052,-687.912 456.744,-691.384"/>
<polygon fill="midnightblue" stroke="midnightblue" points="361.789,-431.483 358.023,-421.58 354.791,-431.67 361.789,-431.483"/>
</g>
<!-- Node9 -->
<g id="node9" class="node"><title>Node9</title>
<g id="a_node9"><a xlink:href="../../d3/d95/config_8c.html#a209dd231bf733f9f8fd289c94214ff08" target="_top" xlink:title="load_peer_config">
<polygon fill="none" stroke="black" points="768,-838.5 768,-857.5 858,-857.5 858,-838.5 768,-838.5"/>
<text text-anchor="middle" x="813" y="-845.5" font-family="Helvetica,sans-Serif" font-size="10.00">load_peer_config</text>
</a>
</g>
</g>
<!-- Node4&#45;&gt;Node9 -->
<g id="edge23" class="edge"><title>Node4&#45;&gt;Node9</title>
<path fill="none" stroke="midnightblue" d="M359.191,-431.826C363.907,-503.635 383.64,-748.739 436,-803 524.564,-894.78 694.828,-873.298 772.104,-857.51"/>
<polygon fill="midnightblue" stroke="midnightblue" points="362.663,-431.267 358.54,-421.508 355.677,-431.708 362.663,-431.267"/>
</g>
<!-- Node11 -->
<g id="node11" class="node"><title>Node11</title>
<g id="a_node11"><a xlink:href="../../df/d4e/ha__tunnel_8c.html#a2e0ef9846224769ecaaba2b8abf57f4f" target="_top" xlink:title="setup_tunnel">
<polygon fill="none" stroke="black" points="777,-795.5 777,-814.5 849,-814.5 849,-795.5 777,-795.5"/>
<text text-anchor="middle" x="813" y="-802.5" font-family="Helvetica,sans-Serif" font-size="10.00">setup_tunnel</text>
</a>
</g>
</g>
<!-- Node4&#45;&gt;Node11 -->
<g id="edge33" class="edge"><title>Node4&#45;&gt;Node11</title>
<path fill="none" stroke="midnightblue" d="M359.716,-431.781C365.885,-498.322 389.105,-712.535 436,-760 527.489,-852.599 702.381,-828.878 776.933,-813.377"/>
<polygon fill="midnightblue" stroke="midnightblue" points="363.198,-431.422 358.815,-421.777 356.226,-432.05 363.198,-431.422"/>
</g>
<!-- Node14 -->
<g id="node14" class="node"><title>Node14</title>
<g id="a_node14"><a xlink:href="../../d7/d79/maemo__service_8c.html#af04d210533a8ac5ccf2f1b3f396210a5" target="_top" xlink:title="initiate_connection">
<polygon fill="none" stroke="black" points="764,-691.5 764,-710.5 862,-710.5 862,-691.5 764,-691.5"/>
<text text-anchor="middle" x="813" y="-698.5" font-family="Helvetica,sans-Serif" font-size="10.00">initiate_connection</text>
</a>
</g>
</g>
<!-- Node4&#45;&gt;Node14 -->
<g id="edge42" class="edge"><title>Node4&#45;&gt;Node14</title>
<path fill="none" stroke="midnightblue" d="M359.555,-432.016C363.864,-473.106 379.682,-567.205 436,-616 536.558,-703.125 598.224,-652.657 728,-682 741.563,-685.067 756.357,-688.413 769.698,-691.43"/>
<polygon fill="midnightblue" stroke="midnightblue" points="363.026,-431.549 358.62,-421.914 356.056,-432.194 363.026,-431.549"/>
</g>
<!-- Node16 -->
<g id="node16" class="node"><title>Node16</title>
<g id="a_node16"><a xlink:href="../../d0/d53/nm__service_8c.html#ac66aab0554b998f65f088b4e8a33cb1e" target="_top" xlink:title="connect_">
<polygon fill="none" stroke="black" points="785,-634.5 785,-653.5 841,-653.5 841,-634.5 785,-634.5"/>
<text text-anchor="middle" x="813" y="-641.5" font-family="Helvetica,sans-Serif" font-size="10.00">connect_</text>
</a>
</g>
</g>
<!-- Node4&#45;&gt;Node16 -->
<g id="edge43" class="edge"><title>Node4&#45;&gt;Node16</title>
<path fill="none" stroke="midnightblue" d="M360.793,-431.704C367.082,-468.236 385.93,-546.275 436,-585 490.816,-627.395 708.22,-639.926 784.985,-643.07"/>
<polygon fill="midnightblue" stroke="midnightblue" points="364.244,-431.118 359.224,-421.788 357.33,-432.212 364.244,-431.118"/>
</g>
<!-- Node19 -->
<g id="node19" class="node"><title>Node19</title>
<g id="a_node19"><a xlink:href="../../de/d0b/sql__config_8c.html#ab613aa8a44d2efd07999ea6c4076d34d" target="_top" xlink:title="build_peer_cfg">
<polygon fill="none" stroke="black" points="773,-577.5 773,-596.5 853,-596.5 853,-577.5 773,-577.5"/>
<text text-anchor="middle" x="813" y="-584.5" font-family="Helvetica,sans-Serif" font-size="10.00">build_peer_cfg</text>
</a>
</g>
</g>
<!-- Node4&#45;&gt;Node19 -->
<g id="edge48" class="edge"><title>Node4&#45;&gt;Node19</title>
<path fill="none" stroke="midnightblue" d="M363.048,-431.598C372.062,-462.265 394.038,-520.978 436,-549 540.76,-618.959 699.88,-605.355 772.892,-594.18"/>
<polygon fill="midnightblue" stroke="midnightblue" points="366.343,-430.381 360.301,-421.678 359.597,-432.249 366.343,-430.381"/>
</g>
<!-- Node23 -->
<g id="node23" class="node"><title>Node23</title>
<g id="a_node23"><a xlink:href="../../d1/d05/credential__manager_8c.html#aa098d9c3d720931db110a78a12b628d0" target="_top" xlink:title="verify_trust_chain">
<polygon fill="none" stroke="black" points="447,-520.5 447,-539.5 541,-539.5 541,-520.5 447,-520.5"/>
<text text-anchor="middle" x="494" y="-527.5" font-family="Helvetica,sans-Serif" font-size="10.00">verify_trust_chain</text>
</a>
</g>
</g>
<!-- Node4&#45;&gt;Node23 -->
<g id="edge24" class="edge"><title>Node4&#45;&gt;Node23</title>
<path fill="none" stroke="midnightblue" d="M370.127,-429.869C384.163,-449.52 408.856,-481.078 436,-502 445.693,-509.471 457.697,-515.727 468.185,-520.418"/>
<polygon fill="midnightblue" stroke="midnightblue" points="372.888,-427.711 364.292,-421.518 367.15,-431.72 372.888,-427.711"/>
</g>
<!-- Node25 -->
<g id="node25" class="node"><title>Node25</title>
<g id="a_node25"><a xlink:href="../../d1/d05/credential__manager_8c.html#a30d37cb53c5ea5446e6653fadf630186" target="_top" xlink:title="build_trustchain">
<polygon fill="none" stroke="black" points="451.5,-473.5 451.5,-492.5 536.5,-492.5 536.5,-473.5 451.5,-473.5"/>
<text text-anchor="middle" x="494" y="-480.5" font-family="Helvetica,sans-Serif" font-size="10.00">build_trustchain</text>
</a>
</g>
</g>
<!-- Node4&#45;&gt;Node25 -->
<g id="edge26" class="edge"><title>Node4&#45;&gt;Node25</title>
<path fill="none" stroke="midnightblue" d="M381.713,-426.986C396.961,-436.37 417.341,-448.45 436,-458 446.773,-463.514 459.03,-468.989 469.41,-473.403"/>
<polygon fill="midnightblue" stroke="midnightblue" points="383.285,-423.842 372.944,-421.538 379.591,-429.788 383.285,-423.842"/>
</g>
<!-- Node27 -->
<g id="node27" class="node"><title>Node27</title>
<g id="a_node27"><a xlink:href="../../dd/deb/eap__mschapv2_8c.html#aaef18c3a3936b2654f04ebd2bb9933a7" target="_top" xlink:title="eap_mschapv2_create\l_generic">
<polygon fill="none" stroke="black" points="436.5,-419 436.5,-449 551.5,-449 551.5,-419 436.5,-419"/>
<text text-anchor="start" x="444.5" y="-437" font-family="Helvetica,sans-Serif" font-size="10.00">eap_mschapv2_create</text>
<text text-anchor="middle" x="494" y="-426" font-family="Helvetica,sans-Serif" font-size="10.00">_generic</text>
</a>
</g>
</g>
<!-- Node4&#45;&gt;Node27 -->
<g id="edge28" class="edge"><title>Node4&#45;&gt;Node27</title>
<path fill="none" stroke="midnightblue" d="M410.232,-420.512C418.821,-421.912 427.759,-423.368 436.448,-424.784"/>
<polygon fill="midnightblue" stroke="midnightblue" points="410.777,-417.055 400.344,-418.901 409.651,-423.964 410.777,-417.055"/>
</g>
<!-- Node30 -->
<g id="node30" class="node"><title>Node30</title>
<g id="a_node30"><a xlink:href="../../de/dfc/ha__dispatcher_8c.html#a6d9ea04a1332974e7da99b6920974dfc" target="_top" xlink:title="process_ike_update">
<polygon fill="none" stroke="black" points="606,-375.5 606,-394.5 710,-394.5 710,-375.5 606,-375.5"/>
<text text-anchor="middle" x="658" y="-382.5" font-family="Helvetica,sans-Serif" font-size="10.00">process_ike_update</text>
</a>
</g>
</g>
<!-- Node4&#45;&gt;Node30 -->
<g id="edge31" class="edge"><title>Node4&#45;&gt;Node30</title>
<path fill="none" stroke="midnightblue" d="M410.433,-407.265C465.404,-402.301 551.218,-394.552 605.744,-389.628"/>
<polygon fill="midnightblue" stroke="midnightblue" points="409.85,-403.804 400.205,-408.189 410.48,-410.775 409.85,-403.804"/>
</g>
<!-- Node32 -->
<g id="node32" class="node"><title>Node32</title>
<g id="a_node32"><a xlink:href="../../de/dc6/ike__auth_8c.html#a2ffce99943bccd45e66d96024f05cdb6" target="_top" xlink:title="apply_auth_cfg">
<polygon fill="none" stroke="black" points="452.5,-304.5 452.5,-323.5 535.5,-323.5 535.5,-304.5 452.5,-304.5"/>
<text text-anchor="middle" x="494" y="-311.5" font-family="Helvetica,sans-Serif" font-size="10.00">apply_auth_cfg</text>
</a>
</g>
</g>
<!-- Node4&#45;&gt;Node32 -->
<g id="edge34" class="edge"><title>Node4&#45;&gt;Node32</title>
<path fill="none" stroke="midnightblue" d="M371.22,-394.398C385.429,-376.606 409.563,-349.455 436,-333 442.11,-329.197 449.068,-326.063 455.972,-323.515"/>
<polygon fill="midnightblue" stroke="midnightblue" points="368.455,-392.251 365.075,-402.292 373.979,-396.551 368.455,-392.251"/>
</g>
<!-- Node34 -->
<g id="node34" class="node"><title>Node34</title>
<g id="a_node34"><a xlink:href="../../d0/dce/group__ike__sa.html#gae60a0b9f30836a1de42076ba7fef3995" target="_top" xlink:title="ike_sa_create">
<polygon fill="none" stroke="black" points="455.5,-342.5 455.5,-361.5 532.5,-361.5 532.5,-342.5 455.5,-342.5"/>
<text text-anchor="middle" x="494" y="-349.5" font-family="Helvetica,sans-Serif" font-size="10.00">ike_sa_create</text>
</a>
</g>
</g>
<!-- Node4&#45;&gt;Node34 -->
<g id="edge36" class="edge"><title>Node4&#45;&gt;Node34</title>
<path fill="none" stroke="midnightblue" d="M387.175,-398.25C401.782,-391.438 419.769,-383.16 436,-376 447.101,-371.103 459.508,-365.853 469.905,-361.516"/>
<polygon fill="midnightblue" stroke="midnightblue" points="385.691,-395.08 378.117,-402.488 388.658,-401.42 385.691,-395.08"/>
</g>
<!-- Node37 -->
<g id="node37" class="node"><title>Node37</title>
<g id="a_node37"><a xlink:href="../../d2/d03/load__tester__config_8c.html#a38d37aad93f1b6c408f38f08f86c1d5f" target="_top" xlink:title="generate_auth_cfg">
<polygon fill="none" stroke="black" points="609.5,-767.5 609.5,-786.5 706.5,-786.5 706.5,-767.5 609.5,-767.5"/>
<text text-anchor="middle" x="658" y="-774.5" font-family="Helvetica,sans-Serif" font-size="10.00">generate_auth_cfg</text>
</a>
</g>
</g>
<!-- Node4&#45;&gt;Node37 -->
<g id="edge40" class="edge"><title>Node4&#45;&gt;Node37</title>
<path fill="none" stroke="midnightblue" d="M360.378,-431.811C368.132,-493.166 394.593,-678.411 436,-720 481.709,-765.91 559.178,-776.428 609.194,-778.034"/>
<polygon fill="midnightblue" stroke="midnightblue" points="363.812,-431.059 359.113,-421.564 356.864,-431.917 363.812,-431.059"/>
</g>
<!-- Node38 -->
<g id="node38" class="node"><title>Node38</title>
<g id="a_node38"><a xlink:href="../../d8/d42/phase1_8c.html#aaa2c562305a8d23fd62a1dd0ed70ffcc" target="_top" xlink:title="save_auth_cfg">
<polygon fill="none" stroke="black" points="454,-266.5 454,-285.5 534,-285.5 534,-266.5 454,-266.5"/>
<text text-anchor="middle" x="494" y="-273.5" font-family="Helvetica,sans-Serif" font-size="10.00">save_auth_cfg</text>
</a>
</g>
</g>
<!-- Node4&#45;&gt;Node38 -->
<g id="edge44" class="edge"><title>Node4&#45;&gt;Node38</title>
<path fill="none" stroke="midnightblue" d="M365.956,-392.795C377.612,-366.943 401.726,-321.178 436,-295 441.305,-290.948 447.521,-287.734 453.859,-285.193"/>
<polygon fill="midnightblue" stroke="midnightblue" points="362.626,-391.677 361.854,-402.244 369.047,-394.465 362.626,-391.677"/>
</g>
<!-- Node40 -->
<g id="node40" class="node"><title>Node40</title>
<g id="a_node40"><a xlink:href="../../d3/db3/pretend__auth_8c.html#a61639781dc82606b8b8f146fc0030b6f" target="_top" xlink:title="build_auth">
<polygon fill="none" stroke="black" points="463.5,-228.5 463.5,-247.5 524.5,-247.5 524.5,-228.5 463.5,-228.5"/>
<text text-anchor="middle" x="494" y="-235.5" font-family="Helvetica,sans-Serif" font-size="10.00">build_auth</text>
</a>
</g>
</g>
<!-- Node4&#45;&gt;Node40 -->
<g id="edge46" class="edge"><title>Node4&#45;&gt;Node40</title>
<path fill="none" stroke="midnightblue" d="M362.665,-392.299C371.424,-359.543 393.405,-293.847 436,-257 443.731,-250.312 453.896,-245.96 463.499,-243.136"/>
<polygon fill="midnightblue" stroke="midnightblue" points="359.167,-391.857 360.107,-402.41 365.953,-393.574 359.167,-391.857"/>
</g>
<!-- Node42 -->
<g id="node42" class="node"><title>Node42</title>
<g id="a_node42"><a xlink:href="../../d5/dd9/stroke__config_8c.html#ad911a8d20cc5d388cdfb12cc587a397e" target="_top" xlink:title="build_auth_cfg">
<polygon fill="none" stroke="black" points="454,-190.5 454,-209.5 534,-209.5 534,-190.5 454,-190.5"/>
<text text-anchor="middle" x="494" y="-197.5" font-family="Helvetica,sans-Serif" font-size="10.00">build_auth_cfg</text>
</a>
</g>
</g>
<!-- Node4&#45;&gt;Node42 -->
<g id="edge49" class="edge"><title>Node4&#45;&gt;Node42</title>
<path fill="none" stroke="midnightblue" d="M360.448,-392.433C366.31,-353.777 384.699,-267.199 436,-219 441.093,-214.215 447.425,-210.632 453.998,-207.952"/>
<polygon fill="midnightblue" stroke="midnightblue" points="356.973,-392.009 359.058,-402.396 363.906,-392.975 356.973,-392.009"/>
</g>
<!-- Node44 -->
<g id="node44" class="node"><title>Node44</title>
<g id="a_node44"><a xlink:href="../../dc/d65/group__tls__peer.html#ga05389d14b46126dbc8186fb9585ff300" target="_top" xlink:title="tls_peer_create">
<polygon fill="none" stroke="black" points="452.5,-152.5 452.5,-171.5 535.5,-171.5 535.5,-152.5 452.5,-152.5"/>
<text text-anchor="middle" x="494" y="-159.5" font-family="Helvetica,sans-Serif" font-size="10.00">tls_peer_create</text>
</a>
</g>
</g>
<!-- Node4&#45;&gt;Node44 -->
<g id="edge51" class="edge"><title>Node4&#45;&gt;Node44</title>
<path fill="none" stroke="midnightblue" d="M358.972,-392.001C362.205,-347.725 376.135,-240.633 436,-181 440.582,-176.436 446.288,-172.968 452.305,-170.333"/>
<polygon fill="midnightblue" stroke="midnightblue" points="355.474,-391.866 358.348,-402.063 362.461,-392.299 355.474,-391.866"/>
</g>
<!-- Node46 -->
<g id="node46" class="node"><title>Node46</title>
<g id="a_node46"><a xlink:href="../../d8/dde/tls__server_8c.html#aa2a8b9dde041494ba9574be361ddbda3" target="_top" xlink:title="select_suite_and_key">
<polygon fill="none" stroke="black" points="438.5,-76.5 438.5,-95.5 549.5,-95.5 549.5,-76.5 438.5,-76.5"/>
<text text-anchor="middle" x="494" y="-83.5" font-family="Helvetica,sans-Serif" font-size="10.00">select_suite_and_key</text>
</a>
</g>
</g>
<!-- Node4&#45;&gt;Node46 -->
<g id="edge53" class="edge"><title>Node4&#45;&gt;Node46</title>
<path fill="none" stroke="midnightblue" d="M360.566,-391.968C368.784,-330.759 396.253,-147.758 436,-105 439.622,-101.104 444.063,-98.0056 448.853,-95.5426"/>
<polygon fill="midnightblue" stroke="midnightblue" points="357.053,-391.844 359.219,-402.215 363.993,-392.757 357.053,-391.844"/>
</g>
<!-- Node48 -->
<g id="node48" class="node"><title>Node48</title>
<g id="a_node48"><a xlink:href="../../d3/ddf/group__tls__server.html#gaad4bd34e0f65a49ab6c583edc678149f" target="_top" xlink:title="tls_server_create">
<polygon fill="none" stroke="black" points="448,-114.5 448,-133.5 540,-133.5 540,-114.5 448,-114.5"/>
<text text-anchor="middle" x="494" y="-121.5" font-family="Helvetica,sans-Serif" font-size="10.00">tls_server_create</text>
</a>
</g>
</g>
<!-- Node4&#45;&gt;Node48 -->
<g id="edge55" class="edge"><title>Node4&#45;&gt;Node48</title>
<path fill="none" stroke="midnightblue" d="M357.837,-392.162C358.531,-343.04 367.213,-214.561 436,-143 439.759,-139.089 444.343,-135.984 449.261,-133.517"/>
<polygon fill="midnightblue" stroke="midnightblue" points="354.336,-392.362 357.797,-402.375 361.336,-392.389 354.336,-392.362"/>
</g>
<!-- Node49 -->
<g id="node49" class="node"><title>Node49</title>
<g id="a_node49"><a xlink:href="../../df/dfc/tnc__ifmap__soap_8c.html#a01805baad8c2dd46c29277f5784f4c56" target="_top" xlink:title="soap_init">
<polygon fill="none" stroke="red" points="466,-38.5 466,-57.5 522,-57.5 522,-38.5 466,-38.5"/>
<text text-anchor="middle" x="494" y="-45.5" font-family="Helvetica,sans-Serif" font-size="10.00">soap_init</text>
</a>
</g>
</g>
<!-- Node4&#45;&gt;Node49 -->
<g id="edge57" class="edge"><title>Node4&#45;&gt;Node49</title>
<path fill="none" stroke="midnightblue" d="M359.944,-392.132C366.773,-326.185 391.681,-115.959 436,-67 443.63,-58.5708 455.097,-53.875 465.749,-51.2616"/>
<polygon fill="midnightblue" stroke="midnightblue" points="356.431,-392.083 358.909,-402.384 363.396,-392.786 356.431,-392.083"/>
</g>
<!-- Node50 -->
<g id="node50" class="node"><title>Node50</title>
<g id="a_node50"><a xlink:href="../../da/de3/vici__config_8c.html#ae177789a90ba0b5b62c4b4eb791af98d" target="_top" xlink:title="CALLBACK">
<polygon fill="none" stroke="black" points="459.5,-0.5 459.5,-19.5 528.5,-19.5 528.5,-0.5 459.5,-0.5"/>
<text text-anchor="middle" x="494" y="-7.5" font-family="Helvetica,sans-Serif" font-size="10.00">CALLBACK</text>
</a>
</g>
</g>
<!-- Node4&#45;&gt;Node50 -->
<g id="edge58" class="edge"><title>Node4&#45;&gt;Node50</title>
<path fill="none" stroke="midnightblue" d="M359.449,-392.267C364.999,-321.853 387.088,-84.211 436,-29 442.087,-22.1291 450.725,-17.7368 459.44,-14.931"/>
<polygon fill="midnightblue" stroke="midnightblue" points="355.946,-392.174 358.675,-402.411 362.926,-392.707 355.946,-392.174"/>
</g>
<!-- Node7 -->
<g id="node7" class="node"><title>Node7</title>
<g id="a_node7"><a xlink:href="../../d7/d9c/cmd__connection_8c.html#a69a2225da93d04a822cb999d15797b13" target="_top" xlink:title="add_auth_cfgs">
<polygon fill="none" stroke="red" points="618,-729.5 618,-748.5 698,-748.5 698,-729.5 618,-729.5"/>
<text text-anchor="middle" x="658" y="-736.5" font-family="Helvetica,sans-Serif" font-size="10.00">add_auth_cfgs</text>
</a>
</g>
</g>
<!-- Node6&#45;&gt;Node7 -->
<g id="edge6" class="edge"><title>Node6&#45;&gt;Node7</title>
<path fill="none" stroke="midnightblue" d="M541.756,-711.967C565.863,-717.622 594.93,-724.44 617.841,-729.815"/>
<polygon fill="midnightblue" stroke="midnightblue" points="542.295,-708.499 531.76,-709.623 540.697,-715.314 542.295,-708.499"/>
</g>
<!-- Node8 -->
<g id="node8" class="node"><title>Node8</title>
<g id="a_node8"><a xlink:href="../../db/d07/group__peer__cfg.html#ga6c9fa5c7aa3d701f979c28d6766e7742" target="_top" xlink:title="peer_cfg_create">
<polygon fill="none" stroke="red" points="615,-691.5 615,-710.5 701,-710.5 701,-691.5 615,-691.5"/>
<text text-anchor="middle" x="658" y="-698.5" font-family="Helvetica,sans-Serif" font-size="10.00">peer_cfg_create</text>
</a>
</g>
</g>
<!-- Node6&#45;&gt;Node8 -->
<g id="edge7" class="edge"><title>Node6&#45;&gt;Node8</title>
<path fill="none" stroke="midnightblue" d="M542.003,-701C565.058,-701 592.602,-701 614.953,-701"/>
<polygon fill="midnightblue" stroke="midnightblue" points="541.76,-697.5 531.76,-701 541.76,-704.5 541.76,-697.5"/>
</g>
<!-- Node8&#45;&gt;Node9 -->
<g id="edge8" class="edge"><title>Node8&#45;&gt;Node9</title>
<path fill="none" stroke="midnightblue" d="M710.795,-709.187C717.113,-711.858 723.067,-715.375 728,-720 763.685,-753.453 731.74,-787.233 764,-824 769.285,-830.023 776.436,-834.708 783.603,-838.274"/>
<polygon fill="midnightblue" stroke="midnightblue" points="711.949,-705.883 701.355,-705.848 709.615,-712.482 711.949,-705.883"/>
</g>
<!-- Node8&#45;&gt;Node11 -->
<g id="edge10" class="edge"><title>Node8&#45;&gt;Node11</title>
<path fill="none" stroke="midnightblue" d="M710.785,-710.657C716.918,-713.101 722.826,-716.163 728,-720 752.067,-737.848 742.443,-756.19 764,-777 771.635,-784.371 781.571,-790.577 790.421,-795.258"/>
<polygon fill="midnightblue" stroke="midnightblue" points="711.63,-707.247 701.036,-707.303 709.353,-713.866 711.63,-707.247"/>
</g>
<!-- Node13 -->
<g id="node13" class="node"><title>Node13</title>
<g id="a_node13"><a xlink:href="../../d2/d03/load__tester__config_8c.html#a33052fc4f22344addc501a8e232bc665" target="_top" xlink:title="generate_config">
<polygon fill="none" stroke="red" points="770,-748.5 770,-767.5 856,-767.5 856,-748.5 770,-748.5"/>
<text text-anchor="middle" x="813" y="-755.5" font-family="Helvetica,sans-Serif" font-size="10.00">generate_config</text>
</a>
</g>
</g>
<!-- Node8&#45;&gt;Node13 -->
<g id="edge12" class="edge"><title>Node8&#45;&gt;Node13</title>
<path fill="none" stroke="midnightblue" d="M707.644,-713.366C714.532,-715.415 721.484,-717.645 728,-720 750.881,-728.269 776.204,-740.115 793.003,-748.375"/>
<polygon fill="midnightblue" stroke="midnightblue" points="708.233,-709.894 697.656,-710.502 706.303,-716.623 708.233,-709.894"/>
</g>
<!-- Node8&#45;&gt;Node14 -->
<g id="edge13" class="edge"><title>Node8&#45;&gt;Node14</title>
<path fill="none" stroke="midnightblue" d="M711.543,-701C728.554,-701 747.322,-701 763.987,-701"/>
<polygon fill="midnightblue" stroke="midnightblue" points="711.213,-697.5 701.213,-701 711.213,-704.5 711.213,-697.5"/>
</g>
<!-- Node8&#45;&gt;Node16 -->
<g id="edge15" class="edge"><title>Node8&#45;&gt;Node16</title>
<path fill="none" stroke="midnightblue" d="M694.07,-687.935C722.194,-677.457 761.014,-662.995 786.308,-653.572"/>
<polygon fill="midnightblue" stroke="midnightblue" points="692.758,-684.689 684.609,-691.459 695.201,-691.248 692.758,-684.689"/>
</g>
<!-- Node8&#45;&gt;Node19 -->
<g id="edge18" class="edge"><title>Node8&#45;&gt;Node19</title>
<path fill="none" stroke="midnightblue" d="M680.038,-685.325C712.143,-661.403 772.425,-616.488 798.931,-596.738"/>
<polygon fill="midnightblue" stroke="midnightblue" points="677.709,-682.695 671.782,-691.477 681.892,-688.308 677.709,-682.695"/>
</g>
<!-- Node10 -->
<g id="node10" class="node"><title>Node10</title>
<g id="a_node10"><a xlink:href="../../d3/d95/config_8c.html#a492679e9382000ca562915367ac8c779" target="_top" xlink:title="METHOD">
<polygon fill="none" stroke="black" points="938,-838.5 938,-857.5 998,-857.5 998,-838.5 938,-838.5"/>
<text text-anchor="middle" x="968" y="-845.5" font-family="Helvetica,sans-Serif" font-size="10.00">METHOD</text>
</a>
</g>
</g>
<!-- Node9&#45;&gt;Node10 -->
<g id="edge9" class="edge"><title>Node9&#45;&gt;Node10</title>
<path fill="none" stroke="midnightblue" d="M868.414,-848C891.817,-848 918.236,-848 937.831,-848"/>
<polygon fill="midnightblue" stroke="midnightblue" points="868.254,-844.5 858.254,-848 868.254,-851.5 868.254,-844.5"/>
</g>
<!-- Node12 -->
<g id="node12" class="node"><title>Node12</title>
<g id="a_node12"><a xlink:href="../../d9/d9f/group__ha__.html#ga3cf24f88395df3f2c6a84eec9f35ce04" target="_top" xlink:title="ha_tunnel_create">
<polygon fill="none" stroke="red" points="922.5,-795.5 922.5,-814.5 1013.5,-814.5 1013.5,-795.5 922.5,-795.5"/>
<text text-anchor="middle" x="968" y="-802.5" font-family="Helvetica,sans-Serif" font-size="10.00">ha_tunnel_create</text>
</a>
</g>
</g>
<!-- Node11&#45;&gt;Node12 -->
<g id="edge11" class="edge"><title>Node11&#45;&gt;Node12</title>
<path fill="none" stroke="midnightblue" d="M859.192,-805C879.159,-805 902.565,-805 922.456,-805"/>
<polygon fill="midnightblue" stroke="midnightblue" points="859.101,-801.5 849.101,-805 859.101,-808.5 859.101,-801.5"/>
</g>
<!-- Node15 -->
<g id="node15" class="node"><title>Node15</title>
<g id="a_node15"><a xlink:href="../../d7/d79/maemo__service_8c.html#a82aca93fce2dd44e6e05704c2ab6b179" target="_top" xlink:title="dbus_req_handler">
<polygon fill="none" stroke="red" points="921.5,-703.5 921.5,-722.5 1014.5,-722.5 1014.5,-703.5 921.5,-703.5"/>
<text text-anchor="middle" x="968" y="-710.5" font-family="Helvetica,sans-Serif" font-size="10.00">dbus_req_handler</text>
</a>
</g>
</g>
<!-- Node14&#45;&gt;Node15 -->
<g id="edge14" class="edge"><title>Node14&#45;&gt;Node15</title>
<path fill="none" stroke="midnightblue" d="M872.78,-705.61C888.851,-706.871 906.025,-708.218 921.25,-709.412"/>
<polygon fill="midnightblue" stroke="midnightblue" points="872.653,-702.09 862.41,-704.797 872.106,-709.068 872.653,-702.09"/>
</g>
<!-- Node17 -->
<g id="node17" class="node"><title>Node17</title>
<g id="a_node17"><a xlink:href="../../d0/d53/nm__service_8c.html#ac2ec8a8e03309ad7aa5a4f053bad05a3" target="_top" xlink:title="nm_strongswan_plugin\l_class_init">
<polygon fill="none" stroke="black" points="910,-654 910,-684 1026,-684 1026,-654 910,-654"/>
<text text-anchor="start" x="918" y="-672" font-family="Helvetica,sans-Serif" font-size="10.00">nm_strongswan_plugin</text>
<text text-anchor="middle" x="968" y="-661" font-family="Helvetica,sans-Serif" font-size="10.00">_class_init</text>
</a>
</g>
</g>
<!-- Node16&#45;&gt;Node17 -->
<g id="edge16" class="edge"><title>Node16&#45;&gt;Node17</title>
<path fill="none" stroke="midnightblue" d="M850.911,-650.031C868.578,-652.918 890.134,-656.44 909.853,-659.662"/>
<polygon fill="midnightblue" stroke="midnightblue" points="851.435,-646.57 841.001,-648.412 850.306,-653.479 851.435,-646.57"/>
</g>
<!-- Node18 -->
<g id="node18" class="node"><title>Node18</title>
<g id="a_node18"><a xlink:href="../../da/d80/group__vici__dispatcher.html#ga6a79fafdbb49a69b40e48449ff7252c4" target="_top" xlink:title="vici_dispatcher_create">
<polygon fill="none" stroke="red" points="911,-615.5 911,-634.5 1025,-634.5 1025,-615.5 911,-615.5"/>
<text text-anchor="middle" x="968" y="-622.5" font-family="Helvetica,sans-Serif" font-size="10.00">vici_dispatcher_create</text>
</a>
</g>
</g>
<!-- Node16&#45;&gt;Node18 -->
<g id="edge17" class="edge"><title>Node16&#45;&gt;Node18</title>
<path fill="none" stroke="midnightblue" d="M851.051,-639.399C868.978,-637.173 890.884,-634.452 910.808,-631.978"/>
<polygon fill="midnightblue" stroke="midnightblue" points="850.494,-635.941 841.001,-640.647 851.356,-642.888 850.494,-635.941"/>
</g>
<!-- Node20 -->
<g id="node20" class="node"><title>Node20</title>
<g id="a_node20"><a xlink:href="../../de/d0b/sql__config_8c.html#aa57726e496f822dfc20afa5039bb92ce" target="_top" xlink:title="get_peer_cfg_by_id">
<polygon fill="none" stroke="black" points="917.5,-577.5 917.5,-596.5 1018.5,-596.5 1018.5,-577.5 917.5,-577.5"/>
<text text-anchor="middle" x="968" y="-584.5" font-family="Helvetica,sans-Serif" font-size="10.00">get_peer_cfg_by_id</text>
</a>
</g>
</g>
<!-- Node19&#45;&gt;Node20 -->
<g id="edge19" class="edge"><title>Node19&#45;&gt;Node20</title>
<path fill="none" stroke="midnightblue" d="M863.441,-580.64C880.701,-580.122 900.07,-580.12 917.348,-580.634"/>
<polygon fill="midnightblue" stroke="midnightblue" points="862.867,-577.159 853.004,-581.03 863.128,-584.154 862.867,-577.159"/>
</g>
<!-- Node21 -->
<g id="node21" class="node"><title>Node21</title>
<g id="a_node21"><a xlink:href="../../de/d0b/sql__config_8c.html#ab8a4c85114d17aa7387ccac04fd464dd" target="_top" xlink:title="METHOD">
<polygon fill="none" stroke="black" points="938,-539.5 938,-558.5 998,-558.5 998,-539.5 938,-539.5"/>
<text text-anchor="middle" x="968" y="-546.5" font-family="Helvetica,sans-Serif" font-size="10.00">METHOD</text>
</a>
</g>
</g>
<!-- Node19&#45;&gt;Node21 -->
<g id="edge21" class="edge"><title>Node19&#45;&gt;Node21</title>
<path fill="none" stroke="midnightblue" d="M862.513,-574.951C887.175,-568.826 916.339,-561.583 937.579,-556.307"/>
<polygon fill="midnightblue" stroke="midnightblue" points="861.47,-571.604 852.608,-577.411 863.157,-578.397 861.47,-571.604"/>
</g>
<!-- Node22 -->
<g id="node22" class="node"><title>Node22</title>
<g id="a_node22"><a xlink:href="../../de/d0b/sql__config_8c.html#ab851d028c29985d80230a64b629471f3" target="_top" xlink:title="peer_enumerator_enumerate">
<polygon fill="none" stroke="red" points="898,-501.5 898,-520.5 1038,-520.5 1038,-501.5 898,-501.5"/>
<text text-anchor="middle" x="968" y="-508.5" font-family="Helvetica,sans-Serif" font-size="10.00">peer_enumerator_enumerate</text>
</a>
</g>
</g>
<!-- Node19&#45;&gt;Node22 -->
<g id="edge22" class="edge"><title>Node19&#45;&gt;Node22</title>
<path fill="none" stroke="midnightblue" d="M833.706,-570.874C850.056,-558.194 874.373,-540.906 898,-530 906.122,-526.251 915.134,-523.108 923.892,-520.526"/>
<polygon fill="midnightblue" stroke="midnightblue" points="831.164,-568.422 825.497,-577.374 835.509,-573.91 831.164,-568.422"/>
</g>
<!-- Node20&#45;&gt;Node19 -->
<g id="edge20" class="edge"><title>Node20&#45;&gt;Node19</title>
<path fill="none" stroke="midnightblue" d="M907.119,-593.606C888.936,-593.925 869.437,-593.713 853.004,-592.97"/>
<polygon fill="midnightblue" stroke="midnightblue" points="907.433,-597.1 917.348,-593.366 907.268,-590.102 907.433,-597.1"/>
</g>
<!-- Node24 -->
<g id="node24" class="node"><title>Node24</title>
<g id="a_node24"><a xlink:href="../../d1/d05/credential__manager_8c.html#a92547815f311eca21fe0cdf141623649" target="_top" xlink:title="METHOD">
<polygon fill="none" stroke="black" points="628,-539.5 628,-558.5 688,-558.5 688,-539.5 628,-539.5"/>
<text text-anchor="middle" x="658" y="-546.5" font-family="Helvetica,sans-Serif" font-size="10.00">METHOD</text>
</a>
</g>
</g>
<!-- Node23&#45;&gt;Node24 -->
<g id="edge25" class="edge"><title>Node23&#45;&gt;Node24</title>
<path fill="none" stroke="midnightblue" d="M551.467,-536.623C577.245,-539.646 606.684,-543.099 627.908,-545.588"/>
<polygon fill="midnightblue" stroke="midnightblue" points="551.762,-533.133 541.423,-535.445 550.947,-540.086 551.762,-533.133"/>
</g>
<!-- Node26 -->
<g id="node26" class="node"><title>Node26</title>
<g id="a_node26"><a xlink:href="../../d1/d05/credential__manager_8c.html#ac11ba2d48486bd2d00fdbef8bdd6518f" target="_top" xlink:title="METHOD">
<polygon fill="none" stroke="black" points="628,-501.5 628,-520.5 688,-520.5 688,-501.5 628,-501.5"/>
<text text-anchor="middle" x="658" y="-508.5" font-family="Helvetica,sans-Serif" font-size="10.00">METHOD</text>
</a>
</g>
</g>
<!-- Node25&#45;&gt;Node26 -->
<g id="edge27" class="edge"><title>Node25&#45;&gt;Node26</title>
<path fill="none" stroke="midnightblue" d="M546.705,-491.937C573.466,-496.562 605.157,-502.039 627.686,-505.933"/>
<polygon fill="midnightblue" stroke="midnightblue" points="547.169,-488.465 536.719,-490.211 545.977,-495.363 547.169,-488.465"/>
</g>
<!-- Node28 -->
<g id="node28" class="node"><title>Node28</title>
<g id="a_node28"><a xlink:href="../../db/d8d/group__eap__mschapv2__i.html#ga79f5fcea05e2649a2b0f7c8a89238c86" target="_top" xlink:title="eap_mschapv2_create\l_server">
<polygon fill="none" stroke="red" points="600.5,-414 600.5,-444 715.5,-444 715.5,-414 600.5,-414"/>
<text text-anchor="start" x="608.5" y="-432" font-family="Helvetica,sans-Serif" font-size="10.00">eap_mschapv2_create</text>
<text text-anchor="middle" x="658" y="-421" font-family="Helvetica,sans-Serif" font-size="10.00">_server</text>
</a>
</g>
</g>
<!-- Node27&#45;&gt;Node28 -->
<g id="edge29" class="edge"><title>Node27&#45;&gt;Node28</title>
<path fill="none" stroke="midnightblue" d="M561.805,-431.938C574.617,-431.543 587.918,-431.132 600.372,-430.748"/>
<polygon fill="midnightblue" stroke="midnightblue" points="561.547,-428.444 551.66,-432.251 561.763,-435.441 561.547,-428.444"/>
</g>
<!-- Node29 -->
<g id="node29" class="node"><title>Node29</title>
<g id="a_node29"><a xlink:href="../../db/d8d/group__eap__mschapv2__i.html#ga2bcd472e714bb3bb679944da32bf60f9" target="_top" xlink:title="eap_mschapv2_create_peer">
<polygon fill="none" stroke="red" points="588.5,-463.5 588.5,-482.5 727.5,-482.5 727.5,-463.5 588.5,-463.5"/>
<text text-anchor="middle" x="658" y="-470.5" font-family="Helvetica,sans-Serif" font-size="10.00">eap_mschapv2_create_peer</text>
</a>
</g>
</g>
<!-- Node27&#45;&gt;Node29 -->
<g id="edge30" class="edge"><title>Node27&#45;&gt;Node29</title>
<path fill="none" stroke="midnightblue" d="M561.477,-450.004C580.487,-454.58 600.6,-459.422 617.442,-463.477"/>
<polygon fill="midnightblue" stroke="midnightblue" points="562.201,-446.578 551.66,-447.64 560.563,-453.384 562.201,-446.578"/>
</g>
<!-- Node31 -->
<g id="node31" class="node"><title>Node31</title>
<g id="a_node31"><a xlink:href="../../de/dfc/ha__dispatcher_8c.html#a6e7484c8904d89575d90aed033fcf771" target="_top" xlink:title="dispatch">
<polygon fill="none" stroke="red" points="786.5,-337.5 786.5,-356.5 839.5,-356.5 839.5,-337.5 786.5,-337.5"/>
<text text-anchor="middle" x="813" y="-344.5" font-family="Helvetica,sans-Serif" font-size="10.00">dispatch</text>
</a>
</g>
</g>
<!-- Node30&#45;&gt;Node31 -->
<g id="edge32" class="edge"><title>Node30&#45;&gt;Node31</title>
<path fill="none" stroke="midnightblue" d="M707.368,-372.987C733.566,-366.48 764.879,-358.703 786.38,-353.363"/>
<polygon fill="midnightblue" stroke="midnightblue" points="706.47,-369.604 697.608,-375.411 708.157,-376.397 706.47,-369.604"/>
</g>
<!-- Node33 -->
<g id="node33" class="node"><title>Node33</title>
<g id="a_node33"><a xlink:href="../../de/dc6/ike__auth_8c.html#a4e687eb1af4d66691763df5dcadee3a5" target="_top" xlink:title="METHOD">
<polygon fill="none" stroke="black" points="628,-261.5 628,-280.5 688,-280.5 688,-261.5 628,-261.5"/>
<text text-anchor="middle" x="658" y="-268.5" font-family="Helvetica,sans-Serif" font-size="10.00">METHOD</text>
</a>
</g>
</g>
<!-- Node32&#45;&gt;Node33 -->
<g id="edge35" class="edge"><title>Node32&#45;&gt;Node33</title>
<path fill="none" stroke="midnightblue" d="M540.904,-301.816C568.852,-294.397 603.71,-285.145 627.9,-278.724"/>
<polygon fill="midnightblue" stroke="midnightblue" points="539.72,-298.508 530.953,-304.457 541.516,-305.274 539.72,-298.508"/>
</g>
<!-- Node35 -->
<g id="node35" class="node"><title>Node35</title>
<g id="a_node35"><a xlink:href="../../de/dfc/ha__dispatcher_8c.html#a0bfbdd320c96c4c169e64a6acb923a3d" target="_top" xlink:title="process_ike_add">
<polygon fill="none" stroke="black" points="613,-299.5 613,-318.5 703,-318.5 703,-299.5 613,-299.5"/>
<text text-anchor="middle" x="658" y="-306.5" font-family="Helvetica,sans-Serif" font-size="10.00">process_ike_add</text>
</a>
</g>
</g>
<!-- Node34&#45;&gt;Node35 -->
<g id="edge37" class="edge"><title>Node34&#45;&gt;Node35</title>
<path fill="none" stroke="midnightblue" d="M540.759,-339.854C566.227,-333.094 597.469,-324.802 621.147,-318.516"/>
<polygon fill="midnightblue" stroke="midnightblue" points="539.72,-336.508 530.953,-342.457 541.516,-343.274 539.72,-336.508"/>
</g>
<!-- Node36 -->
<g id="node36" class="node"><title>Node36</title>
<g id="a_node36"><a xlink:href="../../d0/df4/ike__sa__manager_8c.html#ae7b6b733f256a45cc4b4d9aa25447f60" target="_top" xlink:title="METHOD">
<polygon fill="none" stroke="black" points="628,-337.5 628,-356.5 688,-356.5 688,-337.5 628,-337.5"/>
<text text-anchor="middle" x="658" y="-344.5" font-family="Helvetica,sans-Serif" font-size="10.00">METHOD</text>
</a>
</g>
</g>
<!-- Node34&#45;&gt;Node36 -->
<g id="edge39" class="edge"><title>Node34&#45;&gt;Node36</title>
<path fill="none" stroke="midnightblue" d="M542.826,-350.524C570.462,-349.671 604.326,-348.626 627.968,-347.896"/>
<polygon fill="midnightblue" stroke="midnightblue" points="542.46,-347.033 532.573,-350.84 542.676,-354.03 542.46,-347.033"/>
</g>
<!-- Node35&#45;&gt;Node31 -->
<g id="edge38" class="edge"><title>Node35&#45;&gt;Node31</title>
<path fill="none" stroke="midnightblue" d="M707.368,-321.013C733.566,-327.52 764.879,-335.297 786.38,-340.637"/>
<polygon fill="midnightblue" stroke="midnightblue" points="708.157,-317.603 697.608,-318.589 706.47,-324.396 708.157,-317.603"/>
</g>
<!-- Node37&#45;&gt;Node13 -->
<g id="edge41" class="edge"><title>Node37&#45;&gt;Node13</title>
<path fill="none" stroke="midnightblue" d="M716.771,-769.826C734.424,-767.634 753.494,-765.265 769.9,-763.228"/>
<polygon fill="midnightblue" stroke="midnightblue" points="716.064,-766.387 706.571,-771.092 716.927,-773.333 716.064,-766.387"/>
</g>
<!-- Node39 -->
<g id="node39" class="node"><title>Node39</title>
<g id="a_node39"><a xlink:href="../../d8/d42/phase1_8c.html#a028a51eeed4268cefb174086310f3532" target="_top" xlink:title="METHOD">
<polygon fill="none" stroke="black" points="628,-223.5 628,-242.5 688,-242.5 688,-223.5 628,-223.5"/>
<text text-anchor="middle" x="658" y="-230.5" font-family="Helvetica,sans-Serif" font-size="10.00">METHOD</text>
</a>
</g>
</g>
<!-- Node38&#45;&gt;Node39 -->
<g id="edge45" class="edge"><title>Node38&#45;&gt;Node39</title>
<path fill="none" stroke="midnightblue" d="M540.904,-263.816C568.852,-256.397 603.71,-247.145 627.9,-240.724"/>
<polygon fill="midnightblue" stroke="midnightblue" points="539.72,-260.508 530.953,-266.457 541.516,-267.274 539.72,-260.508"/>
</g>
<!-- Node41 -->
<g id="node41" class="node"><title>Node41</title>
<g id="a_node41"><a xlink:href="../../d3/db3/pretend__auth_8c.html#a4495356dc82b4163d98ed5adcfd5cac8" target="_top" xlink:title="process_auth_response">
<polygon fill="none" stroke="red" points="598,-185.5 598,-204.5 718,-204.5 718,-185.5 598,-185.5"/>
<text text-anchor="middle" x="658" y="-192.5" font-family="Helvetica,sans-Serif" font-size="10.00">process_auth_response</text>
</a>
</g>
</g>
<!-- Node40&#45;&gt;Node41 -->
<g id="edge47" class="edge"><title>Node40&#45;&gt;Node41</title>
<path fill="none" stroke="midnightblue" d="M534.4,-227.542C560.799,-220.535 595.29,-211.38 620.962,-204.566"/>
<polygon fill="midnightblue" stroke="midnightblue" points="533.481,-224.165 524.713,-230.113 535.277,-230.93 533.481,-224.165"/>
</g>
<!-- Node43 -->
<g id="node43" class="node"><title>Node43</title>
<g id="a_node43"><a xlink:href="../../d5/dd9/stroke__config_8c.html#a2ac6ce90df9a75b6da9dac8ec9360129" target="_top" xlink:title="build_peer_cfg">
<polygon fill="none" stroke="red" points="618,-147.5 618,-166.5 698,-166.5 698,-147.5 618,-147.5"/>
<text text-anchor="middle" x="658" y="-154.5" font-family="Helvetica,sans-Serif" font-size="10.00">build_peer_cfg</text>
</a>
</g>
</g>
<!-- Node42&#45;&gt;Node43 -->
<g id="edge50" class="edge"><title>Node42&#45;&gt;Node43</title>
<path fill="none" stroke="midnightblue" d="M540.759,-187.854C566.227,-181.094 597.469,-172.802 621.147,-166.516"/>
<polygon fill="midnightblue" stroke="midnightblue" points="539.72,-184.508 530.953,-190.457 541.516,-191.274 539.72,-184.508"/>
</g>
<!-- Node45 -->
<g id="node45" class="node"><title>Node45</title>
<g id="a_node45"><a xlink:href="../../db/db4/group__tls.html#ga427bf0181bb1a0c0ed41970d853b3717" target="_top" xlink:title="tls_create">
<polygon fill="none" stroke="red" points="628.5,-109.5 628.5,-128.5 687.5,-128.5 687.5,-109.5 628.5,-109.5"/>
<text text-anchor="middle" x="658" y="-116.5" font-family="Helvetica,sans-Serif" font-size="10.00">tls_create</text>
</a>
</g>
</g>
<!-- Node44&#45;&gt;Node45 -->
<g id="edge52" class="edge"><title>Node44&#45;&gt;Node45</title>
<path fill="none" stroke="midnightblue" d="M540.97,-149.798C569.107,-142.329 604.23,-133.007 628.419,-126.586"/>
<polygon fill="midnightblue" stroke="midnightblue" points="539.72,-146.508 530.953,-152.457 541.516,-153.274 539.72,-146.508"/>
</g>
<!-- Node47 -->
<g id="node47" class="node"><title>Node47</title>
<g id="a_node47"><a xlink:href="../../d8/dde/tls__server_8c.html#a7369ecabb007afde173b98c703902fa8" target="_top" xlink:title="process_client_hello">
<polygon fill="none" stroke="red" points="605.5,-71.5 605.5,-90.5 710.5,-90.5 710.5,-71.5 605.5,-71.5"/>
<text text-anchor="middle" x="658" y="-78.5" font-family="Helvetica,sans-Serif" font-size="10.00">process_client_hello</text>
</a>
</g>
</g>
<!-- Node46&#45;&gt;Node47 -->
<g id="edge54" class="edge"><title>Node46&#45;&gt;Node47</title>
<path fill="none" stroke="midnightblue" d="M560.142,-83.9894C575.23,-83.5238 591.082,-83.0345 605.492,-82.5898"/>
<polygon fill="midnightblue" stroke="midnightblue" points="559.733,-80.5003 549.846,-84.3072 559.949,-87.497 559.733,-80.5003"/>
</g>
<!-- Node48&#45;&gt;Node45 -->
<g id="edge56" class="edge"><title>Node48&#45;&gt;Node45</title>
<path fill="none" stroke="midnightblue" d="M550.337,-122.292C576.586,-121.482 606.845,-120.548 628.413,-119.882"/>
<polygon fill="midnightblue" stroke="midnightblue" points="550.013,-118.8 540.126,-122.607 550.229,-125.797 550.013,-118.8"/>
</g>
</g>
</svg>
        <g id="navigator" transform="translate(0 0)" fill="#404254">
                <rect fill="#f2f5e9" fill-opacity="0.5" stroke="#606060" stroke-width=".5" x="0" y="0" width="60" height="60"/>
                <use id="zoomplus" xlink:href="#zoomPlus" x="17" y="9" onmousedown="handleZoom(evt,'in')"/>
                <use id="zoomminus" xlink:href="#zoomMin" x="42" y="9" onmousedown="handleZoom(evt,'out')"/>
                <use id="reset" xlink:href="#resetDef" x="30" y="36" onmousedown="handleReset()"/>
                <g id="arrowUp" xlink:href="#dirArrow" transform="translate(30 24)" onmousedown="handlePan(0,-1)">
                  <use xlink:href="#rim" fill="#404040">
                        <set attributeName="fill" to="#808080" begin="arrowUp.mouseover" end="arrowUp.mouseout"/>
                  </use>
                  <path fill="none" stroke="white" stroke-width="1.5" d="M0,-3.0v7 M-2.5,-0.5L0,-3.0L2.5,-0.5"/>
                </g>
                <g id="arrowRight" xlink:href="#dirArrow" transform="rotate(90) translate(36 -43)" onmousedown="handlePan(1,0)">
                  <use xlink:href="#rim" fill="#404040">
                        <set attributeName="fill" to="#808080" begin="arrowRight.mouseover" end="arrowRight.mouseout"/>
                  </use>
                  <path fill="none" stroke="white" stroke-width="1.5" d="M0,-3.0v7 M-2.5,-0.5L0,-3.0L2.5,-0.5"/>
                </g>
                <g id="arrowDown" xlink:href="#dirArrow" transform="rotate(180) translate(-30 -48)" onmousedown="handlePan(0,1)">
                  <use xlink:href="#rim" fill="#404040">
                        <set attributeName="fill" to="#808080" begin="arrowDown.mouseover" end="arrowDown.mouseout"/>
                  </use>
                  <path fill="none" stroke="white" stroke-width="1.5" d="M0,-3.0v7 M-2.5,-0.5L0,-3.0L2.5,-0.5"/>
                </g>
                <g id="arrowLeft" xlink:href="#dirArrow" transform="rotate(270) translate(-36 17)" onmousedown="handlePan(-1,0)">
                  <use xlink:href="#rim" fill="#404040">
                        <set attributeName="fill" to="#808080" begin="arrowLeft.mouseover" end="arrowLeft.mouseout"/>
                  </use>
                  <path fill="none" stroke="white" stroke-width="1.5" d="M0,-3.0v7 M-2.5,-0.5L0,-3.0L2.5,-0.5"/>
                </g>
        </g>
        <svg viewBox="0 0 15 15" width="100%" height="30px" preserveAspectRatio="xMaxYMin meet">
         <g id="arrow_out" transform="scale(0.3 0.3)">
          <a xlink:href="auth__cfg_8c_a2436d4235ddcee9dff362bf4e63d254c_icgraph_org.svg" target="_base">
           <rect id="button" ry="5" rx="5" y="6" x="6" height="38" width="38"
                fill="#f2f5e9" fill-opacity="0.5" stroke="#606060" stroke-width="1.0"/>
           <path id="arrow"
             d="M 11.500037,31.436501 C 11.940474,20.09759 22.043105,11.32322 32.158766,21.979434 L 37.068811,17.246167 C 37.068811,17.246167 37.088388,32 37.088388,32 L 22.160133,31.978069 C 22.160133,31.978069 26.997745,27.140456 26.997745,27.140456 C 18.528582,18.264221 13.291696,25.230495 11.500037,31.436501 z"
             style="fill:#404040;"/>
          </a>
         </g>
        </svg>
</svg>
