<?xml version="1.0" encoding="UTF-8" standalone="no"?>
<!DOCTYPE svg PUBLIC "-//W3C//DTD SVG 1.1//EN"
 "http://www.w3.org/Graphics/SVG/1.1/DTD/svg11.dtd">
<!-- Generated by graphviz version 2.36.0 (20140111.2315)
 -->
<!-- Title: openssl_crl.h Pages: 1 -->
<svg width="2302pt" height="704pt"
 viewBox="0.00 0.00 2302.00 704.00" xmlns="http://www.w3.org/2000/svg" xmlns:xlink="http://www.w3.org/1999/xlink">
<g id="graph0" class="graph" transform="scale(1 1) rotate(0) translate(4 700)">
<title>openssl_crl.h</title>
<!-- Node1 -->
<g id="node1" class="node"><title>Node1</title>
<polygon fill="#bfbfbf" stroke="black" points="1727,-676.5 1727,-695.5 1801,-695.5 1801,-676.5 1727,-676.5"/>
<text text-anchor="middle" x="1764" y="-683.5" font-family="Helvetica,sans-Serif" font-size="10.00">openssl_crl.h</text>
</g>
<!-- Node2 -->
<g id="node2" class="node"><title>Node2</title>
<g id="a_node2"><a xlink:href="../../d3/d69/crl_8h.html" target="_top" xlink:title="credentials/certificates\l/crl.h">
<polygon fill="none" stroke="black" points="1706.5,-609 1706.5,-639 1821.5,-639 1821.5,-609 1706.5,-609"/>
<text text-anchor="start" x="1714.5" y="-627" font-family="Helvetica,sans-Serif" font-size="10.00">credentials/certificates</text>
<text text-anchor="middle" x="1764" y="-616" font-family="Helvetica,sans-Serif" font-size="10.00">/crl.h</text>
</a>
</g>
</g>
<!-- Node1&#45;&gt;Node2 -->
<g id="edge1" class="edge"><title>Node1&#45;&gt;Node2</title>
<path fill="none" stroke="midnightblue" d="M1764,-676.403C1764,-669.341 1764,-658.975 1764,-649.399"/>
<polygon fill="midnightblue" stroke="midnightblue" points="1767.5,-649.141 1764,-639.141 1760.5,-649.141 1767.5,-649.141"/>
</g>
<!-- Node3 -->
<g id="node3" class="node"><title>Node3</title>
<g id="a_node3"><a xlink:href="../../dd/d08/library_8h.html" target="_top" xlink:title="library.h">
<polygon fill="none" stroke="black" points="1247.5,-552.5 1247.5,-571.5 1298.5,-571.5 1298.5,-552.5 1247.5,-552.5"/>
<text text-anchor="middle" x="1273" y="-559.5" font-family="Helvetica,sans-Serif" font-size="10.00">library.h</text>
</a>
</g>
</g>
<!-- Node2&#45;&gt;Node3 -->
<g id="edge2" class="edge"><title>Node2&#45;&gt;Node3</title>
<path fill="none" stroke="midnightblue" d="M1706.23,-615.941C1603.64,-603.404 1392.57,-577.611 1308.6,-567.35"/>
<polygon fill="midnightblue" stroke="midnightblue" points="1308.89,-563.859 1298.54,-566.121 1308.04,-570.808 1308.89,-563.859"/>
</g>
<!-- Node43 -->
<g id="node43" class="node"><title>Node43</title>
<g id="a_node43"><a xlink:href="../../d0/dc9/certificate_8h.html" target="_top" xlink:title="credentials/certificates\l/certificate.h">
<polygon fill="none" stroke="black" points="1954.5,-417 1954.5,-447 2069.5,-447 2069.5,-417 1954.5,-417"/>
<text text-anchor="start" x="1962.5" y="-435" font-family="Helvetica,sans-Serif" font-size="10.00">credentials/certificates</text>
<text text-anchor="middle" x="2012" y="-424" font-family="Helvetica,sans-Serif" font-size="10.00">/certificate.h</text>
</a>
</g>
</g>
<!-- Node2&#45;&gt;Node43 -->
<g id="edge75" class="edge"><title>Node2&#45;&gt;Node43</title>
<path fill="none" stroke="midnightblue" d="M1821.66,-615.186C1917.6,-600.872 2103.33,-567.136 2142,-516 2165.05,-485.521 2122,-463.231 2079.39,-449.471"/>
<polygon fill="midnightblue" stroke="midnightblue" points="2080.34,-446.103 2069.76,-446.496 2078.28,-452.791 2080.34,-446.103"/>
</g>
<!-- Node4 -->
<g id="node4" class="node"><title>Node4</title>
<g id="a_node4"><a xlink:href="../../dc/d6a/printf__hook_8h.html" target="_top" xlink:title="utils/printf_hook/printf\l_hook.h">
<polygon fill="none" stroke="black" points="1822,-57 1822,-87 1932,-87 1932,-57 1822,-57"/>
<text text-anchor="start" x="1830" y="-75" font-family="Helvetica,sans-Serif" font-size="10.00">utils/printf_hook/printf</text>
<text text-anchor="middle" x="1877" y="-64" font-family="Helvetica,sans-Serif" font-size="10.00">_hook.h</text>
</a>
</g>
</g>
<!-- Node3&#45;&gt;Node4 -->
<g id="edge3" class="edge"><title>Node3&#45;&gt;Node4</title>
<path fill="none" stroke="midnightblue" d="M1298.57,-560.802C1439.52,-559.574 2118.46,-551.828 2204,-516 2254.19,-494.98 2294,-487.413 2294,-433 2294,-433 2294,-433 2294,-189 2294,-116.969 2060.14,-87.7676 1942.68,-77.6441"/>
<polygon fill="midnightblue" stroke="midnightblue" points="1942.63,-74.1278 1932.37,-76.779 1942.05,-81.1033 1942.63,-74.1278"/>
</g>
<!-- Node6 -->
<g id="node6" class="node"><title>Node6</title>
<g id="a_node6"><a xlink:href="../../d5/d60/utils_8h.html" target="_top" xlink:title="utils/utils.h">
<polygon fill="none" stroke="red" points="1201,-180.5 1201,-199.5 1265,-199.5 1265,-180.5 1201,-180.5"/>
<text text-anchor="middle" x="1233" y="-187.5" font-family="Helvetica,sans-Serif" font-size="10.00">utils/utils.h</text>
</a>
</g>
</g>
<!-- Node3&#45;&gt;Node6 -->
<g id="edge5" class="edge"><title>Node3&#45;&gt;Node6</title>
<path fill="none" stroke="midnightblue" d="M1268.49,-552.266C1258.43,-531.929 1235,-479.593 1235,-433 1235,-433 1235,-433 1235,-301 1235,-268.943 1234.14,-231.639 1233.55,-209.747"/>
<polygon fill="midnightblue" stroke="midnightblue" points="1237.04,-209.454 1233.26,-199.557 1230.04,-209.651 1237.04,-209.454"/>
</g>
<!-- Node29 -->
<g id="node29" class="node"><title>Node29</title>
<g id="a_node29"><a xlink:href="../../d2/d0c/host__resolver_8h.html" target="_top" xlink:title="networking/host_resolver.h">
<polygon fill="none" stroke="red" points="1842,-490.5 1842,-509.5 1976,-509.5 1976,-490.5 1842,-490.5"/>
<text text-anchor="middle" x="1909" y="-497.5" font-family="Helvetica,sans-Serif" font-size="10.00">networking/host_resolver.h</text>
</a>
</g>
</g>
<!-- Node3&#45;&gt;Node29 -->
<g id="edge30" class="edge"><title>Node3&#45;&gt;Node29</title>
<path fill="none" stroke="midnightblue" d="M1298.74,-559.956C1378.35,-556.506 1627.51,-544.059 1832,-516 1840.92,-514.776 1850.37,-513.184 1859.48,-511.495"/>
<polygon fill="midnightblue" stroke="midnightblue" points="1860.41,-514.88 1869.57,-509.562 1859.09,-508.005 1860.41,-514.88"/>
</g>
<!-- Node30 -->
<g id="node30" class="node"><title>Node30</title>
<g id="a_node30"><a xlink:href="../../d7/d82/stream__manager_8h.html" target="_top" xlink:title="networking/streams\l/stream_manager.h">
<polygon fill="none" stroke="red" points="2032,-485 2032,-515 2134,-515 2134,-485 2032,-485"/>
<text text-anchor="start" x="2040" y="-503" font-family="Helvetica,sans-Serif" font-size="10.00">networking/streams</text>
<text text-anchor="middle" x="2083" y="-492" font-family="Helvetica,sans-Serif" font-size="10.00">/stream_manager.h</text>
</a>
</g>
</g>
<!-- Node3&#45;&gt;Node30 -->
<g id="edge31" class="edge"><title>Node3&#45;&gt;Node30</title>
<path fill="none" stroke="midnightblue" d="M1298.66,-560.977C1393.63,-560.529 1732.64,-555.951 2009,-516 2013.13,-515.403 2017.38,-514.678 2021.66,-513.872"/>
<polygon fill="midnightblue" stroke="midnightblue" points="2022.56,-517.262 2031.68,-511.867 2021.18,-510.398 2022.56,-517.262"/>
</g>
<!-- Node31 -->
<g id="node31" class="node"><title>Node31</title>
<g id="a_node31"><a xlink:href="../../d9/d99/processor_8h.html" target="_top" xlink:title="processing/processor.h">
<polygon fill="none" stroke="red" points="0,-422.5 0,-441.5 118,-441.5 118,-422.5 0,-422.5"/>
<text text-anchor="middle" x="59" y="-429.5" font-family="Helvetica,sans-Serif" font-size="10.00">processing/processor.h</text>
</a>
</g>
</g>
<!-- Node3&#45;&gt;Node31 -->
<g id="edge33" class="edge"><title>Node3&#45;&gt;Node31</title>
<path fill="none" stroke="midnightblue" d="M1247.23,-561.057C1073.07,-561.345 75.5453,-561.165 32,-516 14.8604,-498.223 27.8502,-468.183 41.4031,-449.533"/>
<polygon fill="midnightblue" stroke="midnightblue" points="44.2254,-451.609 47.7672,-441.623 38.7715,-447.221 44.2254,-451.609"/>
</g>
<!-- Node32 -->
<g id="node32" class="node"><title>Node32</title>
<g id="a_node32"><a xlink:href="../../d2/dd8/scheduler_8h.html" target="_top" xlink:title="processing/scheduler.h">
<polygon fill="none" stroke="red" points="50.5,-490.5 50.5,-509.5 167.5,-509.5 167.5,-490.5 50.5,-490.5"/>
<text text-anchor="middle" x="109" y="-497.5" font-family="Helvetica,sans-Serif" font-size="10.00">processing/scheduler.h</text>
</a>
</g>
</g>
<!-- Node3&#45;&gt;Node32 -->
<g id="edge37" class="edge"><title>Node3&#45;&gt;Node32</title>
<path fill="none" stroke="midnightblue" d="M1247.07,-560.598C1101.44,-558.14 385.89,-544.281 168,-516 159.908,-514.95 151.355,-513.41 143.313,-511.713"/>
<polygon fill="midnightblue" stroke="midnightblue" points="143.995,-508.279 133.472,-509.503 142.462,-515.109 143.995,-508.279"/>
</g>
<!-- Node33 -->
<g id="node33" class="node"><title>Node33</title>
<g id="a_node33"><a xlink:href="../../dd/d33/watcher_8h.html" target="_top" xlink:title="processing/watcher.h">
<polygon fill="none" stroke="black" points="186,-490.5 186,-509.5 296,-509.5 296,-490.5 186,-490.5"/>
<text text-anchor="middle" x="241" y="-497.5" font-family="Helvetica,sans-Serif" font-size="10.00">processing/watcher.h</text>
</a>
</g>
</g>
<!-- Node3&#45;&gt;Node33 -->
<g id="edge39" class="edge"><title>Node3&#45;&gt;Node33</title>
<path fill="none" stroke="midnightblue" d="M1247.22,-560.5C1112.19,-557.644 486.999,-542.592 296,-516 288.701,-514.984 281.013,-513.526 273.74,-511.914"/>
<polygon fill="midnightblue" stroke="midnightblue" points="274.357,-508.463 263.819,-509.562 272.742,-515.274 274.357,-508.463"/>
</g>
<!-- Node34 -->
<g id="node34" class="node"><title>Node34</title>
<g id="a_node34"><a xlink:href="../../d4/d1b/crypto__factory_8h.html" target="_top" xlink:title="crypto/crypto_factory.h">
<polygon fill="none" stroke="red" points="314.5,-490.5 314.5,-509.5 431.5,-509.5 431.5,-490.5 314.5,-490.5"/>
<text text-anchor="middle" x="373" y="-497.5" font-family="Helvetica,sans-Serif" font-size="10.00">crypto/crypto_factory.h</text>
</a>
</g>
</g>
<!-- Node3&#45;&gt;Node34 -->
<g id="edge41" class="edge"><title>Node3&#45;&gt;Node34</title>
<path fill="none" stroke="midnightblue" d="M1247.25,-561.153C1143.8,-561.52 750.22,-560.044 431,-516 423.282,-514.935 415.138,-513.436 407.438,-511.794"/>
<polygon fill="midnightblue" stroke="midnightblue" points="408.171,-508.372 397.645,-509.578 406.626,-515.199 408.171,-508.372"/>
</g>
<!-- Node35 -->
<g id="node35" class="node"><title>Node35</title>
<g id="a_node35"><a xlink:href="../../d3/dc3/proposal__keywords_8h.html" target="_top" xlink:title="crypto/proposal/proposal\l_keywords.h">
<polygon fill="none" stroke="red" points="449.5,-485 449.5,-515 572.5,-515 572.5,-485 449.5,-485"/>
<text text-anchor="start" x="457.5" y="-503" font-family="Helvetica,sans-Serif" font-size="10.00">crypto/proposal/proposal</text>
<text text-anchor="middle" x="511" y="-492" font-family="Helvetica,sans-Serif" font-size="10.00">_keywords.h</text>
</a>
</g>
</g>
<!-- Node3&#45;&gt;Node35 -->
<g id="edge43" class="edge"><title>Node3&#45;&gt;Node35</title>
<path fill="none" stroke="midnightblue" d="M1247.45,-560.734C1156.55,-559.466 841.878,-552.536 575.882,-516.457"/>
<polygon fill="midnightblue" stroke="midnightblue" points="576.029,-512.944 565.645,-515.05 575.076,-519.879 576.029,-512.944"/>
</g>
<!-- Node36 -->
<g id="node36" class="node"><title>Node36</title>
<g id="a_node36"><a xlink:href="../../d3/db8/fetcher__manager_8h.html" target="_top" xlink:title="fetcher/fetcher_manager.h">
<polygon fill="none" stroke="red" points="590.5,-490.5 590.5,-509.5 721.5,-509.5 721.5,-490.5 590.5,-490.5"/>
<text text-anchor="middle" x="656" y="-497.5" font-family="Helvetica,sans-Serif" font-size="10.00">fetcher/fetcher_manager.h</text>
</a>
</g>
</g>
<!-- Node3&#45;&gt;Node36 -->
<g id="edge45" class="edge"><title>Node3&#45;&gt;Node36</title>
<path fill="none" stroke="midnightblue" d="M1247.49,-559.922C1169.69,-556.411 928.743,-543.89 731,-516 722.307,-514.774 713.101,-513.181 704.227,-511.491"/>
<polygon fill="midnightblue" stroke="midnightblue" points="704.883,-508.053 694.395,-509.558 703.532,-514.922 704.883,-508.053"/>
</g>
<!-- Node37 -->
<g id="node37" class="node"><title>Node37</title>
<g id="a_node37"><a xlink:href="../../d0/d65/resolver__manager_8h.html" target="_top" xlink:title="resolver/resolver_manager.h">
<polygon fill="none" stroke="red" points="740,-490.5 740,-509.5 880,-509.5 880,-490.5 740,-490.5"/>
<text text-anchor="middle" x="810" y="-497.5" font-family="Helvetica,sans-Serif" font-size="10.00">resolver/resolver_manager.h</text>
</a>
</g>
</g>
<!-- Node3&#45;&gt;Node37 -->
<g id="edge46" class="edge"><title>Node3&#45;&gt;Node37</title>
<path fill="none" stroke="midnightblue" d="M1247.3,-558.625C1185.43,-552.767 1023.35,-536.601 889,-516 880.277,-514.663 871.046,-513.071 862.089,-511.433"/>
<polygon fill="midnightblue" stroke="midnightblue" points="862.606,-507.969 852.134,-509.574 861.321,-514.85 862.606,-507.969"/>
</g>
<!-- Node38 -->
<g id="node38" class="node"><title>Node38</title>
<g id="a_node38"><a xlink:href="../../d7/db6/database__factory_8h.html" target="_top" xlink:title="database/database_factory.h">
<polygon fill="none" stroke="red" points="898.5,-490.5 898.5,-509.5 1041.5,-509.5 1041.5,-490.5 898.5,-490.5"/>
<text text-anchor="middle" x="970" y="-497.5" font-family="Helvetica,sans-Serif" font-size="10.00">database/database_factory.h</text>
</a>
</g>
</g>
<!-- Node3&#45;&gt;Node38 -->
<g id="edge47" class="edge"><title>Node3&#45;&gt;Node38</title>
<path fill="none" stroke="midnightblue" d="M1247.43,-555.936C1198.13,-546.175 1089.03,-524.57 1023.29,-511.552"/>
<polygon fill="midnightblue" stroke="midnightblue" points="1023.61,-508.049 1013.12,-509.539 1022.25,-514.915 1023.61,-508.049"/>
</g>
<!-- Node39 -->
<g id="node39" class="node"><title>Node39</title>
<g id="a_node39"><a xlink:href="../../d3/dc9/credential__factory_8h.html" target="_top" xlink:title="credentials/credential\l_factory.h">
<polygon fill="none" stroke="red" points="1059.5,-485 1059.5,-515 1168.5,-515 1168.5,-485 1059.5,-485"/>
<text text-anchor="start" x="1067.5" y="-503" font-family="Helvetica,sans-Serif" font-size="10.00">credentials/credential</text>
<text text-anchor="middle" x="1114" y="-492" font-family="Helvetica,sans-Serif" font-size="10.00">_factory.h</text>
</a>
</g>
</g>
<!-- Node3&#45;&gt;Node39 -->
<g id="edge48" class="edge"><title>Node3&#45;&gt;Node39</title>
<path fill="none" stroke="midnightblue" d="M1250.22,-552.403C1227,-543.641 1190.3,-529.794 1160.85,-518.679"/>
<polygon fill="midnightblue" stroke="midnightblue" points="1161.76,-515.281 1151.17,-515.025 1159.29,-521.831 1161.76,-515.281"/>
</g>
<!-- Node40 -->
<g id="node40" class="node"><title>Node40</title>
<g id="a_node40"><a xlink:href="../../d1/db3/credential__manager_8h.html" target="_top" xlink:title="credentials/credential\l_manager.h">
<polygon fill="none" stroke="red" points="1714.5,-485 1714.5,-515 1823.5,-515 1823.5,-485 1714.5,-485"/>
<text text-anchor="start" x="1722.5" y="-503" font-family="Helvetica,sans-Serif" font-size="10.00">credentials/credential</text>
<text text-anchor="middle" x="1769" y="-492" font-family="Helvetica,sans-Serif" font-size="10.00">_manager.h</text>
</a>
</g>
</g>
<!-- Node3&#45;&gt;Node40 -->
<g id="edge49" class="edge"><title>Node3&#45;&gt;Node40</title>
<path fill="none" stroke="midnightblue" d="M1298.64,-559.278C1365.18,-554.598 1548.76,-540.334 1700,-516 1701.48,-515.763 1702.97,-515.514 1704.47,-515.255"/>
<polygon fill="midnightblue" stroke="midnightblue" points="1705.28,-518.665 1714.49,-513.425 1704.02,-511.779 1705.28,-518.665"/>
</g>
<!-- Node42 -->
<g id="node42" class="node"><title>Node42</title>
<g id="a_node42"><a xlink:href="../../dd/dd5/chunk_8h.html" target="_top" xlink:title="utils/chunk.h">
<polygon fill="none" stroke="red" points="1918,-236.5 1918,-255.5 1990,-255.5 1990,-236.5 1918,-236.5"/>
<text text-anchor="middle" x="1954" y="-243.5" font-family="Helvetica,sans-Serif" font-size="10.00">utils/chunk.h</text>
</a>
</g>
</g>
<!-- Node3&#45;&gt;Node42 -->
<g id="edge65" class="edge"><title>Node3&#45;&gt;Node42</title>
<path fill="none" stroke="midnightblue" d="M1298.88,-561.213C1438.52,-562.165 2098.43,-564.078 2174,-516 2209.23,-493.588 2218,-474.752 2218,-433 2218,-433 2218,-433 2218,-363 2218,-329.83 2219.91,-313.898 2195,-292 2166.67,-267.097 2062.04,-255.107 2000.35,-250.086"/>
<polygon fill="midnightblue" stroke="midnightblue" points="2000.34,-246.574 1990.09,-249.283 1999.79,-253.553 2000.34,-246.574"/>
</g>
<!-- Node45 -->
<g id="node45" class="node"><title>Node45</title>
<g id="a_node45"><a xlink:href="../../d6/d2f/cred__encoding_8h.html" target="_top" xlink:title="credentials/cred_encoding.h">
<polygon fill="none" stroke="black" points="2048,-292.5 2048,-311.5 2186,-311.5 2186,-292.5 2048,-292.5"/>
<text text-anchor="middle" x="2117" y="-299.5" font-family="Helvetica,sans-Serif" font-size="10.00">credentials/cred_encoding.h</text>
</a>
</g>
</g>
<!-- Node3&#45;&gt;Node45 -->
<g id="edge64" class="edge"><title>Node3&#45;&gt;Node45</title>
<path fill="none" stroke="midnightblue" d="M1298.67,-560.616C1438.67,-558.5 2103.39,-547.188 2133,-516 2184.42,-461.854 2139.93,-361.829 2122.58,-321.033"/>
<polygon fill="midnightblue" stroke="midnightblue" points="2125.81,-319.689 2118.74,-311.796 2119.34,-322.373 2125.81,-319.689"/>
</g>
<!-- Node46 -->
<g id="node46" class="node"><title>Node46</title>
<g id="a_node46"><a xlink:href="../../d8/d14/capabilities_8h.html" target="_top" xlink:title="utils/capabilities.h">
<polygon fill="none" stroke="black" points="1301.5,-490.5 1301.5,-509.5 1396.5,-509.5 1396.5,-490.5 1301.5,-490.5"/>
<text text-anchor="middle" x="1349" y="-497.5" font-family="Helvetica,sans-Serif" font-size="10.00">utils/capabilities.h</text>
</a>
</g>
</g>
<!-- Node3&#45;&gt;Node46 -->
<g id="edge66" class="edge"><title>Node3&#45;&gt;Node46</title>
<path fill="none" stroke="midnightblue" d="M1278.99,-552.403C1289.1,-542.78 1308.73,-527.024 1324.77,-515.489"/>
<polygon fill="midnightblue" stroke="midnightblue" points="1327.04,-518.176 1333.23,-509.581 1323.03,-512.437 1327.04,-518.176"/>
</g>
<!-- Node47 -->
<g id="node47" class="node"><title>Node47</title>
<g id="a_node47"><a xlink:href="../../df/d43/integrity__checker_8h.html" target="_top" xlink:title="utils/integrity_checker.h">
<polygon fill="none" stroke="black" points="1263,-354.5 1263,-373.5 1383,-373.5 1383,-354.5 1263,-354.5"/>
<text text-anchor="middle" x="1323" y="-361.5" font-family="Helvetica,sans-Serif" font-size="10.00">utils/integrity_checker.h</text>
</a>
</g>
</g>
<!-- Node3&#45;&gt;Node47 -->
<g id="edge68" class="edge"><title>Node3&#45;&gt;Node47</title>
<path fill="none" stroke="midnightblue" d="M1275.07,-552.445C1278.53,-538.224 1285.7,-508.824 1292,-484 1301.02,-448.432 1311.9,-406.983 1318.08,-383.583"/>
<polygon fill="midnightblue" stroke="midnightblue" points="1321.53,-384.213 1320.71,-373.65 1314.77,-382.424 1321.53,-384.213"/>
</g>
<!-- Node48 -->
<g id="node48" class="node"><title>Node48</title>
<g id="a_node48"><a xlink:href="../../de/d86/leak__detective_8h.html" target="_top" xlink:title="utils/leak_detective.h">
<polygon fill="none" stroke="red" points="1414.5,-490.5 1414.5,-509.5 1523.5,-509.5 1523.5,-490.5 1414.5,-490.5"/>
<text text-anchor="middle" x="1469" y="-497.5" font-family="Helvetica,sans-Serif" font-size="10.00">utils/leak_detective.h</text>
</a>
</g>
</g>
<!-- Node3&#45;&gt;Node48 -->
<g id="edge70" class="edge"><title>Node3&#45;&gt;Node48</title>
<path fill="none" stroke="midnightblue" d="M1296.18,-552.403C1328.26,-541.889 1386.34,-524.054 1426.32,-512.402"/>
<polygon fill="midnightblue" stroke="midnightblue" points="1427.44,-515.722 1436.07,-509.581 1425.49,-508.998 1427.44,-515.722"/>
</g>
<!-- Node49 -->
<g id="node49" class="node"><title>Node49</title>
<g id="a_node49"><a xlink:href="../../de/db6/plugin__loader_8h.html" target="_top" xlink:title="plugins/plugin_loader.h">
<polygon fill="none" stroke="red" points="1542,-490.5 1542,-509.5 1658,-509.5 1658,-490.5 1542,-490.5"/>
<text text-anchor="middle" x="1600" y="-497.5" font-family="Helvetica,sans-Serif" font-size="10.00">plugins/plugin_loader.h</text>
</a>
</g>
</g>
<!-- Node3&#45;&gt;Node49 -->
<g id="edge72" class="edge"><title>Node3&#45;&gt;Node49</title>
<path fill="none" stroke="midnightblue" d="M1298.8,-556.912C1345.46,-549.433 1446.92,-532.766 1532,-516 1538.69,-514.681 1545.74,-513.214 1552.66,-511.729"/>
<polygon fill="midnightblue" stroke="midnightblue" points="1553.62,-515.102 1562.65,-509.556 1552.14,-508.262 1553.62,-515.102"/>
</g>
<!-- Node50 -->
<g id="node50" class="node"><title>Node50</title>
<g id="a_node50"><a xlink:href="../../de/d60/settings_8h.html" target="_top" xlink:title="settings/settings.h">
<polygon fill="none" stroke="red" points="1109.5,-236.5 1109.5,-255.5 1206.5,-255.5 1206.5,-236.5 1109.5,-236.5"/>
<text text-anchor="middle" x="1158" y="-243.5" font-family="Helvetica,sans-Serif" font-size="10.00">settings/settings.h</text>
</a>
</g>
</g>
<!-- Node3&#45;&gt;Node50 -->
<g id="edge73" class="edge"><title>Node3&#45;&gt;Node50</title>
<path fill="none" stroke="midnightblue" d="M1259.07,-552.321C1247.28,-544.282 1230.78,-531.283 1221,-516 1200.3,-483.66 1197,-471.4 1197,-433 1197,-433 1197,-433 1197,-363 1197,-326.519 1179.46,-286.791 1167.9,-264.583"/>
<polygon fill="midnightblue" stroke="midnightblue" points="1170.93,-262.824 1163.1,-255.687 1164.77,-266.149 1170.93,-262.824"/>
</g>
<!-- Node5 -->
<g id="node5" class="node"><title>Node5</title>
<polygon fill="none" stroke="#bfbfbf" points="1546,-0.5 1546,-19.5 1594,-19.5 1594,-0.5 1546,-0.5"/>
<text text-anchor="middle" x="1570" y="-7.5" font-family="Helvetica,sans-Serif" font-size="10.00">stdlib.h</text>
</g>
<!-- Node4&#45;&gt;Node5 -->
<g id="edge4" class="edge"><title>Node4&#45;&gt;Node5</title>
<path fill="none" stroke="midnightblue" d="M1821.76,-60.2039C1758.48,-47.8364 1656.76,-27.9571 1604.08,-17.6613"/>
<polygon fill="midnightblue" stroke="midnightblue" points="1604.71,-14.2182 1594.23,-15.735 1603.37,-21.0882 1604.71,-14.2182"/>
</g>
<!-- Node6&#45;&gt;Node5 -->
<g id="edge7" class="edge"><title>Node6&#45;&gt;Node5</title>
<path fill="none" stroke="midnightblue" d="M1265.24,-189.144C1337.93,-188.756 1511.35,-183.598 1551,-144 1581.31,-113.735 1577.91,-58.4588 1573.57,-29.6233"/>
<polygon fill="midnightblue" stroke="midnightblue" points="1577,-28.9259 1571.87,-19.6582 1570.1,-30.1048 1577,-28.9259"/>
</g>
<!-- Node7 -->
<g id="node7" class="node"><title>Node7</title>
<polygon fill="none" stroke="#bfbfbf" points="1920,-124.5 1920,-143.5 1988,-143.5 1988,-124.5 1920,-124.5"/>
<text text-anchor="middle" x="1954" y="-131.5" font-family="Helvetica,sans-Serif" font-size="10.00">sys/types.h</text>
</g>
<!-- Node6&#45;&gt;Node7 -->
<g id="edge6" class="edge"><title>Node6&#45;&gt;Node7</title>
<path fill="none" stroke="midnightblue" d="M1265.22,-188.405C1362.78,-186.271 1663.39,-177.261 1910,-144 1910.1,-143.986 1910.2,-143.973 1910.3,-143.959"/>
<polygon fill="midnightblue" stroke="midnightblue" points="1910.64,-147.45 1919.97,-142.435 1909.54,-140.535 1910.64,-147.45"/>
</g>
<!-- Node8 -->
<g id="node8" class="node"><title>Node8</title>
<polygon fill="none" stroke="#bfbfbf" points="961,-124.5 961,-143.5 1013,-143.5 1013,-124.5 961,-124.5"/>
<text text-anchor="middle" x="987" y="-131.5" font-family="Helvetica,sans-Serif" font-size="10.00">stddef.h</text>
</g>
<!-- Node6&#45;&gt;Node8 -->
<g id="edge8" class="edge"><title>Node6&#45;&gt;Node8</title>
<path fill="none" stroke="midnightblue" d="M1200.73,-182.553C1161.21,-174.56 1091.96,-160.252 1023.44,-144.269"/>
<polygon fill="midnightblue" stroke="midnightblue" points="1023.88,-140.776 1013.34,-141.899 1022.28,-147.591 1023.88,-140.776"/>
</g>
<!-- Node9 -->
<g id="node9" class="node"><title>Node9</title>
<polygon fill="none" stroke="#bfbfbf" points="1031,-124.5 1031,-143.5 1093,-143.5 1093,-124.5 1031,-124.5"/>
<text text-anchor="middle" x="1062" y="-131.5" font-family="Helvetica,sans-Serif" font-size="10.00">sys/time.h</text>
</g>
<!-- Node6&#45;&gt;Node9 -->
<g id="edge9" class="edge"><title>Node6&#45;&gt;Node9</title>
<path fill="none" stroke="midnightblue" d="M1205.9,-180.444C1177.01,-171.32 1131.08,-156.813 1098.89,-146.651"/>
<polygon fill="midnightblue" stroke="midnightblue" points="1099.56,-143.19 1088.97,-143.516 1097.45,-149.865 1099.56,-143.19"/>
</g>
<!-- Node10 -->
<g id="node10" class="node"><title>Node10</title>
<g id="a_node10"><a xlink:href="../../da/d66/string_8h.html" target="_top" xlink:title="string.h">
<polygon fill="none" stroke="black" points="2006.5,-124.5 2006.5,-143.5 2055.5,-143.5 2055.5,-124.5 2006.5,-124.5"/>
<text text-anchor="middle" x="2031" y="-131.5" font-family="Helvetica,sans-Serif" font-size="10.00">string.h</text>
</a>
</g>
</g>
<!-- Node6&#45;&gt;Node10 -->
<g id="edge10" class="edge"><title>Node6&#45;&gt;Node10</title>
<path fill="none" stroke="midnightblue" d="M1265.27,-189.395C1369.76,-190.19 1708.18,-188.993 1996.02,-143.793"/>
<polygon fill="midnightblue" stroke="midnightblue" points="1996.92,-147.195 2006.24,-142.166 1995.81,-140.282 1996.92,-147.195"/>
</g>
<!-- Node11 -->
<g id="node11" class="node"><title>Node11</title>
<polygon fill="none" stroke="#bfbfbf" points="1111,-124.5 1111,-143.5 1173,-143.5 1173,-124.5 1111,-124.5"/>
<text text-anchor="middle" x="1142" y="-131.5" font-family="Helvetica,sans-Serif" font-size="10.00">arpa/inet.h</text>
</g>
<!-- Node6&#45;&gt;Node11 -->
<g id="edge11" class="edge"><title>Node6&#45;&gt;Node11</title>
<path fill="none" stroke="midnightblue" d="M1218.38,-180.324C1204.05,-171.822 1181.99,-158.729 1165.25,-148.797"/>
<polygon fill="midnightblue" stroke="midnightblue" points="1166.97,-145.748 1156.58,-143.655 1163.4,-151.768 1166.97,-145.748"/>
</g>
<!-- Node12 -->
<g id="node12" class="node"><title>Node12</title>
<polygon fill="none" stroke="#bfbfbf" points="1191.5,-124.5 1191.5,-143.5 1264.5,-143.5 1264.5,-124.5 1191.5,-124.5"/>
<text text-anchor="middle" x="1228" y="-131.5" font-family="Helvetica,sans-Serif" font-size="10.00">sys/socket.h</text>
</g>
<!-- Node6&#45;&gt;Node12 -->
<g id="edge12" class="edge"><title>Node6&#45;&gt;Node12</title>
<path fill="none" stroke="midnightblue" d="M1232.17,-180.083C1231.52,-173.006 1230.58,-162.861 1229.76,-153.986"/>
<polygon fill="midnightblue" stroke="midnightblue" points="1233.22,-153.386 1228.81,-143.751 1226.25,-154.031 1233.22,-153.386"/>
</g>
<!-- Node13 -->
<g id="node13" class="node"><title>Node13</title>
<polygon fill="none" stroke="#bfbfbf" points="1282.5,-124.5 1282.5,-143.5 1331.5,-143.5 1331.5,-124.5 1282.5,-124.5"/>
<text text-anchor="middle" x="1307" y="-131.5" font-family="Helvetica,sans-Serif" font-size="10.00">netdb.h</text>
</g>
<!-- Node6&#45;&gt;Node13 -->
<g id="edge13" class="edge"><title>Node6&#45;&gt;Node13</title>
<path fill="none" stroke="midnightblue" d="M1244.89,-180.324C1256.15,-172.107 1273.29,-159.602 1286.71,-149.807"/>
<polygon fill="midnightblue" stroke="midnightblue" points="1288.88,-152.556 1294.89,-143.834 1284.75,-146.901 1288.88,-152.556"/>
</g>
<!-- Node14 -->
<g id="node14" class="node"><title>Node14</title>
<polygon fill="none" stroke="#bfbfbf" points="1349.5,-124.5 1349.5,-143.5 1414.5,-143.5 1414.5,-124.5 1349.5,-124.5"/>
<text text-anchor="middle" x="1382" y="-131.5" font-family="Helvetica,sans-Serif" font-size="10.00">netinet/in.h</text>
</g>
<!-- Node6&#45;&gt;Node14 -->
<g id="edge14" class="edge"><title>Node6&#45;&gt;Node14</title>
<path fill="none" stroke="midnightblue" d="M1256.61,-180.444C1281.46,-171.438 1320.77,-157.189 1348.75,-147.049"/>
<polygon fill="midnightblue" stroke="midnightblue" points="1350.29,-150.214 1358.5,-143.516 1347.91,-143.633 1350.29,-150.214"/>
</g>
<!-- Node15 -->
<g id="node15" class="node"><title>Node15</title>
<polygon fill="none" stroke="#bfbfbf" points="1432.5,-124.5 1432.5,-143.5 1483.5,-143.5 1483.5,-124.5 1432.5,-124.5"/>
<text text-anchor="middle" x="1458" y="-131.5" font-family="Helvetica,sans-Serif" font-size="10.00">sched.h</text>
</g>
<!-- Node6&#45;&gt;Node15 -->
<g id="edge15" class="edge"><title>Node6&#45;&gt;Node15</title>
<path fill="none" stroke="midnightblue" d="M1265.32,-181.544C1301.24,-173.213 1361.22,-159.173 1422.55,-144.075"/>
<polygon fill="midnightblue" stroke="midnightblue" points="1423.53,-147.438 1432.4,-141.643 1421.85,-140.642 1423.53,-147.438"/>
</g>
<!-- Node16 -->
<g id="node16" class="node"><title>Node16</title>
<polygon fill="none" stroke="#bfbfbf" points="1502,-124.5 1502,-143.5 1542,-143.5 1542,-124.5 1502,-124.5"/>
<text text-anchor="middle" x="1522" y="-131.5" font-family="Helvetica,sans-Serif" font-size="10.00">poll.h</text>
</g>
<!-- Node6&#45;&gt;Node16 -->
<g id="edge16" class="edge"><title>Node6&#45;&gt;Node16</title>
<path fill="none" stroke="midnightblue" d="M1265.15,-184.676C1314.36,-177.774 1411.16,-163.077 1492,-144 1492.1,-143.977 1492.2,-143.953 1492.3,-143.929"/>
<polygon fill="midnightblue" stroke="midnightblue" points="1492.98,-147.369 1501.76,-141.431 1491.19,-140.601 1492.98,-147.369"/>
</g>
<!-- Node17 -->
<g id="node17" class="node"><title>Node17</title>
<polygon fill="none" stroke="#bfbfbf" points="1598,-124.5 1598,-143.5 1648,-143.5 1648,-124.5 1598,-124.5"/>
<text text-anchor="middle" x="1623" y="-131.5" font-family="Helvetica,sans-Serif" font-size="10.00">signal.h</text>
</g>
<!-- Node6&#45;&gt;Node17 -->
<g id="edge17" class="edge"><title>Node6&#45;&gt;Node17</title>
<path fill="none" stroke="midnightblue" d="M1265.1,-185.962C1327.05,-179.862 1467.28,-164.896 1584,-144 1585.27,-143.773 1586.56,-143.531 1587.86,-143.278"/>
<polygon fill="midnightblue" stroke="midnightblue" points="1588.83,-146.652 1597.9,-141.178 1587.4,-139.8 1588.83,-146.652"/>
</g>
<!-- Node18 -->
<g id="node18" class="node"><title>Node18</title>
<g id="a_node18"><a xlink:href="../../d9/d49/types_8h.html" target="_top" xlink:title="utils/types.h">
<polygon fill="none" stroke="black" points="1666,-124.5 1666,-143.5 1736,-143.5 1736,-124.5 1666,-124.5"/>
<text text-anchor="middle" x="1701" y="-131.5" font-family="Helvetica,sans-Serif" font-size="10.00">utils/types.h</text>
</a>
</g>
</g>
<!-- Node6&#45;&gt;Node18 -->
<g id="edge18" class="edge"><title>Node6&#45;&gt;Node18</title>
<path fill="none" stroke="midnightblue" d="M1265.05,-186.656C1334.44,-181.354 1503.94,-167.186 1656,-144.016"/>
<polygon fill="midnightblue" stroke="midnightblue" points="1656.64,-147.459 1665.99,-142.477 1655.57,-140.541 1656.64,-147.459"/>
</g>
<!-- Node19 -->
<g id="node19" class="node"><title>Node19</title>
<g id="a_node19"><a xlink:href="../../d0/d9b/enum_8h.html" target="_top" xlink:title="enum.h">
<polygon fill="none" stroke="black" points="1852.5,-124.5 1852.5,-143.5 1901.5,-143.5 1901.5,-124.5 1852.5,-124.5"/>
<text text-anchor="middle" x="1877" y="-131.5" font-family="Helvetica,sans-Serif" font-size="10.00">enum.h</text>
</a>
</g>
</g>
<!-- Node6&#45;&gt;Node19 -->
<g id="edge19" class="edge"><title>Node6&#45;&gt;Node19</title>
<path fill="none" stroke="midnightblue" d="M1265,-188.719C1354.72,-187.494 1616.3,-180.914 1842.18,-143.799"/>
<polygon fill="midnightblue" stroke="midnightblue" points="1842.95,-147.22 1852.23,-142.123 1841.79,-140.315 1842.95,-147.22"/>
</g>
<!-- Node20 -->
<g id="node20" class="node"><title>Node20</title>
<g id="a_node20"><a xlink:href="../../d8/d19/atomics_8h.html" target="_top" xlink:title="utils/atomics.h">
<polygon fill="none" stroke="black" points="1754,-124.5 1754,-143.5 1834,-143.5 1834,-124.5 1754,-124.5"/>
<text text-anchor="middle" x="1794" y="-131.5" font-family="Helvetica,sans-Serif" font-size="10.00">utils/atomics.h</text>
</a>
</g>
</g>
<!-- Node6&#45;&gt;Node20 -->
<g id="edge21" class="edge"><title>Node6&#45;&gt;Node20</title>
<path fill="none" stroke="midnightblue" d="M1265.17,-187.226C1344.64,-182.62 1556.76,-168.96 1743.92,-144.025"/>
<polygon fill="midnightblue" stroke="midnightblue" points="1744.49,-147.478 1753.94,-142.675 1743.56,-140.541 1744.49,-147.478"/>
</g>
<!-- Node21 -->
<g id="node21" class="node"><title>Node21</title>
<g id="a_node21"><a xlink:href="../../d1/ddf/align_8h.html" target="_top" xlink:title="utils/align.h">
<polygon fill="none" stroke="black" points="230,-124.5 230,-143.5 296,-143.5 296,-124.5 230,-124.5"/>
<text text-anchor="middle" x="263" y="-131.5" font-family="Helvetica,sans-Serif" font-size="10.00">utils/align.h</text>
</a>
</g>
</g>
<!-- Node6&#45;&gt;Node21 -->
<g id="edge22" class="edge"><title>Node6&#45;&gt;Node21</title>
<path fill="none" stroke="midnightblue" d="M1200.78,-189.328C1082.57,-190.134 661.589,-189.517 306.348,-143.958"/>
<polygon fill="midnightblue" stroke="midnightblue" points="306.753,-140.481 296.386,-142.666 305.852,-147.423 306.753,-140.481"/>
</g>
<!-- Node22 -->
<g id="node22" class="node"><title>Node22</title>
<g id="a_node22"><a xlink:href="../../d5/d17/byteorder_8h.html" target="_top" xlink:title="utils/byteorder.h">
<polygon fill="none" stroke="black" points="314,-124.5 314,-143.5 400,-143.5 400,-124.5 314,-124.5"/>
<text text-anchor="middle" x="357" y="-131.5" font-family="Helvetica,sans-Serif" font-size="10.00">utils/byteorder.h</text>
</a>
</g>
</g>
<!-- Node6&#45;&gt;Node22 -->
<g id="edge23" class="edge"><title>Node6&#45;&gt;Node22</title>
<path fill="none" stroke="midnightblue" d="M1200.69,-188.591C1091.16,-186.918 723.785,-178.977 410.268,-144.003"/>
<polygon fill="midnightblue" stroke="midnightblue" points="410.404,-140.496 400.074,-142.854 409.62,-147.452 410.404,-140.496"/>
</g>
<!-- Node23 -->
<g id="node23" class="node"><title>Node23</title>
<g id="a_node23"><a xlink:href="../../dc/d18/memory_8h.html" target="_top" xlink:title="utils/memory.h">
<polygon fill="none" stroke="black" points="418.5,-124.5 418.5,-143.5 499.5,-143.5 499.5,-124.5 418.5,-124.5"/>
<text text-anchor="middle" x="459" y="-131.5" font-family="Helvetica,sans-Serif" font-size="10.00">utils/memory.h</text>
</a>
</g>
</g>
<!-- Node6&#45;&gt;Node23 -->
<g id="edge24" class="edge"><title>Node6&#45;&gt;Node23</title>
<path fill="none" stroke="midnightblue" d="M1200.72,-188.372C1099.95,-186.123 782.198,-176.834 509.667,-144.066"/>
<polygon fill="midnightblue" stroke="midnightblue" points="509.934,-140.573 499.584,-142.841 509.089,-147.522 509.934,-140.573"/>
</g>
<!-- Node24 -->
<g id="node24" class="node"><title>Node24</title>
<g id="a_node24"><a xlink:href="../../d9/dd1/strerror_8h.html" target="_top" xlink:title="utils/strerror.h">
<polygon fill="none" stroke="black" points="517.5,-124.5 517.5,-143.5 594.5,-143.5 594.5,-124.5 517.5,-124.5"/>
<text text-anchor="middle" x="556" y="-131.5" font-family="Helvetica,sans-Serif" font-size="10.00">utils/strerror.h</text>
</a>
</g>
</g>
<!-- Node6&#45;&gt;Node24 -->
<g id="edge25" class="edge"><title>Node6&#45;&gt;Node24</title>
<path fill="none" stroke="midnightblue" d="M1200.74,-188.039C1108.98,-185.02 838.583,-174.152 604.724,-144.087"/>
<polygon fill="midnightblue" stroke="midnightblue" points="605.038,-140.598 594.67,-142.779 604.135,-147.54 605.038,-140.598"/>
</g>
<!-- Node25 -->
<g id="node25" class="node"><title>Node25</title>
<g id="a_node25"><a xlink:href="../../d1/d13/status_8h.html" target="_top" xlink:title="utils/status.h">
<polygon fill="none" stroke="black" points="612.5,-124.5 612.5,-143.5 685.5,-143.5 685.5,-124.5 612.5,-124.5"/>
<text text-anchor="middle" x="649" y="-131.5" font-family="Helvetica,sans-Serif" font-size="10.00">utils/status.h</text>
</a>
</g>
</g>
<!-- Node6&#45;&gt;Node25 -->
<g id="edge26" class="edge"><title>Node6&#45;&gt;Node25</title>
<path fill="none" stroke="midnightblue" d="M1200.72,-187.538C1118.33,-183.543 893.408,-170.986 695.592,-143.92"/>
<polygon fill="midnightblue" stroke="midnightblue" points="695.983,-140.44 685.597,-142.536 695.023,-147.374 695.983,-140.44"/>
</g>
<!-- Node26 -->
<g id="node26" class="node"><title>Node26</title>
<g id="a_node26"><a xlink:href="../../de/d10/object_8h.html" target="_top" xlink:title="utils/object.h">
<polygon fill="none" stroke="black" points="704,-124.5 704,-143.5 776,-143.5 776,-124.5 704,-124.5"/>
<text text-anchor="middle" x="740" y="-131.5" font-family="Helvetica,sans-Serif" font-size="10.00">utils/object.h</text>
</a>
</g>
</g>
<!-- Node6&#45;&gt;Node26 -->
<g id="edge27" class="edge"><title>Node6&#45;&gt;Node26</title>
<path fill="none" stroke="midnightblue" d="M1200.82,-186.847C1128.53,-181.781 947.621,-167.817 786.396,-144.078"/>
<polygon fill="midnightblue" stroke="midnightblue" points="786.703,-140.585 776.296,-142.574 785.672,-147.509 786.703,-140.585"/>
</g>
<!-- Node27 -->
<g id="node27" class="node"><title>Node27</title>
<g id="a_node27"><a xlink:href="../../d7/dd4/path_8h.html" target="_top" xlink:title="utils/path.h">
<polygon fill="none" stroke="black" points="794.5,-124.5 794.5,-143.5 859.5,-143.5 859.5,-124.5 794.5,-124.5"/>
<text text-anchor="middle" x="827" y="-131.5" font-family="Helvetica,sans-Serif" font-size="10.00">utils/path.h</text>
</a>
</g>
</g>
<!-- Node6&#45;&gt;Node27 -->
<g id="edge28" class="edge"><title>Node6&#45;&gt;Node27</title>
<path fill="none" stroke="midnightblue" d="M1200.63,-186.034C1138.37,-180.11 997.486,-165.639 869.588,-144.143"/>
<polygon fill="midnightblue" stroke="midnightblue" points="870.065,-140.674 859.62,-142.448 868.892,-147.575 870.065,-140.674"/>
</g>
<!-- Node28 -->
<g id="node28" class="node"><title>Node28</title>
<g id="a_node28"><a xlink:href="../../de/df7/time_8h.html" target="_top" xlink:title="utils/time.h">
<polygon fill="none" stroke="black" points="877.5,-124.5 877.5,-143.5 942.5,-143.5 942.5,-124.5 877.5,-124.5"/>
<text text-anchor="middle" x="910" y="-131.5" font-family="Helvetica,sans-Serif" font-size="10.00">utils/time.h</text>
</a>
</g>
</g>
<!-- Node6&#45;&gt;Node28 -->
<g id="edge29" class="edge"><title>Node6&#45;&gt;Node28</title>
<path fill="none" stroke="midnightblue" d="M1200.88,-184.414C1150.32,-177.076 1048.87,-161.862 952.441,-143.995"/>
<polygon fill="midnightblue" stroke="midnightblue" points="952.998,-140.539 942.526,-142.145 951.714,-147.42 952.998,-140.539"/>
</g>
<!-- Node19&#45;&gt;Node4 -->
<g id="edge20" class="edge"><title>Node19&#45;&gt;Node4</title>
<path fill="none" stroke="midnightblue" d="M1877,-124.403C1877,-117.341 1877,-106.975 1877,-97.399"/>
<polygon fill="midnightblue" stroke="midnightblue" points="1880.5,-97.1408 1877,-87.1408 1873.5,-97.1408 1880.5,-97.1408"/>
</g>
<!-- Node30&#45;&gt;Node3 -->
<g id="edge32" class="edge"><title>Node30&#45;&gt;Node3</title>
<path fill="none" stroke="midnightblue" d="M2033.27,-515.015C2031.16,-515.371 2029.06,-515.702 2027,-516 1753.03,-555.605 1417.49,-560.447 1308.71,-560.965"/>
<polygon fill="midnightblue" stroke="midnightblue" points="1308.6,-557.465 1298.61,-561.003 1308.63,-564.465 1308.6,-557.465"/>
</g>
<!-- Node31&#45;&gt;Node3 -->
<g id="edge36" class="edge"><title>Node31&#45;&gt;Node3</title>
<path fill="none" stroke="midnightblue" d="M57.9337,-441.623C50.7203,-458.36 30.146,-495.408 50,-516 92.4167,-559.994 1040,-561.306 1237.27,-561.077"/>
<polygon fill="midnightblue" stroke="midnightblue" points="1237.39,-564.577 1247.39,-561.064 1237.38,-557.577 1237.39,-564.577"/>
</g>
<!-- Node31&#45;&gt;Node5 -->
<g id="edge35" class="edge"><title>Node31&#45;&gt;Node5</title>
<path fill="none" stroke="midnightblue" d="M72.6265,-422.242C99.5542,-403.745 157,-357.855 157,-303 157,-303 157,-303 157,-133 157,-61.5316 1319.53,-19.3397 1535.65,-12.1138"/>
<polygon fill="midnightblue" stroke="midnightblue" points="1535.89,-15.6076 1545.77,-11.7777 1535.66,-8.61144 1535.89,-15.6076"/>
</g>
<!-- Node31&#45;&gt;Node6 -->
<g id="edge34" class="edge"><title>Node31&#45;&gt;Node6</title>
<path fill="none" stroke="midnightblue" d="M100.783,-422.458C283.097,-385.188 1007.97,-237.003 1190.9,-199.606"/>
<polygon fill="midnightblue" stroke="midnightblue" points="1191.84,-202.987 1200.94,-197.555 1190.44,-196.129 1191.84,-202.987"/>
</g>
<!-- Node32&#45;&gt;Node3 -->
<g id="edge38" class="edge"><title>Node32&#45;&gt;Node3</title>
<path fill="none" stroke="midnightblue" d="M150.522,-509.503C162.051,-512.023 174.491,-514.506 186,-516 396.899,-543.374 1074.04,-557.236 1237.37,-560.326"/>
<polygon fill="midnightblue" stroke="midnightblue" points="1237.31,-563.826 1247.38,-560.514 1237.44,-556.827 1237.31,-563.826"/>
</g>
<!-- Node33&#45;&gt;Node3 -->
<g id="edge40" class="edge"><title>Node33&#45;&gt;Node3</title>
<path fill="none" stroke="midnightblue" d="M280.899,-509.562C291.68,-512.054 303.262,-514.505 314,-516 498.082,-541.629 1085.47,-556.539 1237.09,-560.142"/>
<polygon fill="midnightblue" stroke="midnightblue" points="1237.16,-563.644 1247.24,-560.381 1237.33,-556.646 1237.16,-563.644"/>
</g>
<!-- Node34&#45;&gt;Node3 -->
<g id="edge42" class="edge"><title>Node34&#45;&gt;Node3</title>
<path fill="none" stroke="midnightblue" d="M414.754,-509.578C425.919,-512.039 437.9,-514.469 449,-516 751.948,-557.799 1121.87,-561.259 1237.11,-561.189"/>
<polygon fill="midnightblue" stroke="midnightblue" points="1237.16,-564.689 1247.15,-561.173 1237.15,-557.689 1237.16,-564.689"/>
</g>
<!-- Node35&#45;&gt;Node3 -->
<g id="edge44" class="edge"><title>Node35&#45;&gt;Node3</title>
<path fill="none" stroke="midnightblue" d="M572.548,-513.133C578.449,-514.225 584.337,-515.213 590,-516 836.18,-550.194 1135.33,-558.503 1237.2,-560.438"/>
<polygon fill="midnightblue" stroke="midnightblue" points="1237.2,-563.939 1247.26,-560.62 1237.33,-556.94 1237.2,-563.939"/>
</g>
<!-- Node41 -->
<g id="node41" class="node"><title>Node41</title>
<g id="a_node41"><a xlink:href="../../d1/d5e/identification_8h.html" target="_top" xlink:title="utils/identification.h">
<polygon fill="none" stroke="red" points="1900.5,-292.5 1900.5,-311.5 2001.5,-311.5 2001.5,-292.5 1900.5,-292.5"/>
<text text-anchor="middle" x="1951" y="-299.5" font-family="Helvetica,sans-Serif" font-size="10.00">utils/identification.h</text>
</a>
</g>
</g>
<!-- Node40&#45;&gt;Node41 -->
<g id="edge50" class="edge"><title>Node40&#45;&gt;Node41</title>
<path fill="none" stroke="midnightblue" d="M1782.09,-484.904C1814.98,-449.488 1900.93,-356.924 1935.89,-319.277"/>
<polygon fill="midnightblue" stroke="midnightblue" points="1938.66,-321.436 1942.9,-311.727 1933.53,-316.673 1938.66,-321.436"/>
</g>
<!-- Node40&#45;&gt;Node43 -->
<g id="edge55" class="edge"><title>Node40&#45;&gt;Node43</title>
<path fill="none" stroke="midnightblue" d="M1820.83,-484.922C1858.82,-474.605 1910.53,-460.56 1950.59,-449.679"/>
<polygon fill="midnightblue" stroke="midnightblue" points="1951.52,-453.055 1960.25,-447.056 1949.68,-446.3 1951.52,-453.055"/>
</g>
<!-- Node41&#45;&gt;Node42 -->
<g id="edge51" class="edge"><title>Node41&#45;&gt;Node42</title>
<path fill="none" stroke="midnightblue" d="M1951.5,-292.083C1951.89,-285.006 1952.45,-274.861 1952.95,-265.986"/>
<polygon fill="midnightblue" stroke="midnightblue" points="1956.45,-265.93 1953.51,-255.751 1949.46,-265.542 1956.45,-265.93"/>
</g>
<!-- Node42&#45;&gt;Node6 -->
<g id="edge54" class="edge"><title>Node42&#45;&gt;Node6</title>
<path fill="none" stroke="midnightblue" d="M1917.75,-242.285C1796.51,-233.205 1405.5,-203.919 1275.48,-194.182"/>
<polygon fill="midnightblue" stroke="midnightblue" points="1275.38,-190.664 1265.15,-193.408 1274.86,-197.645 1275.38,-190.664"/>
</g>
<!-- Node42&#45;&gt;Node7 -->
<g id="edge53" class="edge"><title>Node42&#45;&gt;Node7</title>
<path fill="none" stroke="midnightblue" d="M1954,-236.368C1954,-218.617 1954,-177.666 1954,-153.597"/>
<polygon fill="midnightblue" stroke="midnightblue" points="1957.5,-153.591 1954,-143.591 1950.5,-153.591 1957.5,-153.591"/>
</g>
<!-- Node42&#45;&gt;Node10 -->
<g id="edge52" class="edge"><title>Node42&#45;&gt;Node10</title>
<path fill="none" stroke="midnightblue" d="M1960.04,-236.368C1972.75,-218.215 2002.44,-175.802 2019.11,-151.99"/>
<polygon fill="midnightblue" stroke="midnightblue" points="2022.12,-153.791 2024.99,-143.591 2016.38,-149.777 2022.12,-153.791"/>
</g>
<!-- Node43&#45;&gt;Node3 -->
<g id="edge56" class="edge"><title>Node43&#45;&gt;Node3</title>
<path fill="none" stroke="midnightblue" d="M2011.93,-447.138C2010.99,-466.177 2006.19,-499.562 1985,-516 1931.28,-557.666 1446,-560.963 1308.92,-561.057"/>
<polygon fill="midnightblue" stroke="midnightblue" points="1308.56,-557.557 1298.56,-561.058 1308.56,-564.557 1308.56,-557.557"/>
</g>
<!-- Node43&#45;&gt;Node41 -->
<g id="edge57" class="edge"><title>Node43&#45;&gt;Node41</title>
<path fill="none" stroke="midnightblue" d="M1991.87,-416.825C1980.53,-407.682 1967.23,-394.761 1960,-380 1951.04,-361.717 1949.53,-338.153 1949.79,-321.934"/>
<polygon fill="midnightblue" stroke="midnightblue" points="1953.3,-321.738 1950.21,-311.603 1946.3,-321.451 1953.3,-321.738"/>
</g>
<!-- Node44 -->
<g id="node44" class="node"><title>Node44</title>
<g id="a_node44"><a xlink:href="../../da/d10/public__key_8h.html" target="_top" xlink:title="credentials/keys/public\l_key.h">
<polygon fill="none" stroke="black" points="1969,-349 1969,-379 2085,-379 2085,-349 1969,-349"/>
<text text-anchor="start" x="1977" y="-367" font-family="Helvetica,sans-Serif" font-size="10.00">credentials/keys/public</text>
<text text-anchor="middle" x="2027" y="-356" font-family="Helvetica,sans-Serif" font-size="10.00">_key.h</text>
</a>
</g>
</g>
<!-- Node43&#45;&gt;Node44 -->
<g id="edge58" class="edge"><title>Node43&#45;&gt;Node44</title>
<path fill="none" stroke="midnightblue" d="M2015.25,-416.679C2017.08,-408.636 2019.41,-398.385 2021.51,-389.137"/>
<polygon fill="midnightblue" stroke="midnightblue" points="2024.95,-389.82 2023.75,-379.293 2018.12,-388.269 2024.95,-389.82"/>
</g>
<!-- Node43&#45;&gt;Node45 -->
<g id="edge63" class="edge"><title>Node43&#45;&gt;Node45</title>
<path fill="none" stroke="midnightblue" d="M2045.19,-416.919C2061.67,-408.408 2080.64,-396.072 2093,-380 2106.18,-362.864 2112.19,-338.395 2114.89,-321.668"/>
<polygon fill="midnightblue" stroke="midnightblue" points="2118.39,-321.891 2116.27,-311.51 2111.45,-320.945 2118.39,-321.891"/>
</g>
<!-- Node44&#45;&gt;Node3 -->
<g id="edge59" class="edge"><title>Node44&#45;&gt;Node3</title>
<path fill="none" stroke="midnightblue" d="M1973.88,-379.012C1908.3,-397.564 1794.59,-433.879 1706,-484 1686.18,-495.211 1687.02,-507.252 1666,-516 1601.78,-542.728 1393.09,-555.334 1308.8,-559.431"/>
<polygon fill="midnightblue" stroke="midnightblue" points="1308.51,-555.941 1298.69,-559.911 1308.84,-562.933 1308.51,-555.941"/>
</g>
<!-- Node44&#45;&gt;Node41 -->
<g id="edge60" class="edge"><title>Node44&#45;&gt;Node41</title>
<path fill="none" stroke="midnightblue" d="M2008.99,-348.781C1997.26,-339.523 1981.98,-327.462 1970.06,-318.044"/>
<polygon fill="midnightblue" stroke="midnightblue" points="1972.08,-315.18 1962.06,-311.731 1967.74,-320.674 1972.08,-315.18"/>
</g>
<!-- Node44&#45;&gt;Node45 -->
<g id="edge61" class="edge"><title>Node44&#45;&gt;Node45</title>
<path fill="none" stroke="midnightblue" d="M2048.33,-348.781C2062.57,-339.286 2081.23,-326.843 2095.51,-317.327"/>
<polygon fill="midnightblue" stroke="midnightblue" points="2097.79,-320.015 2104.17,-311.556 2093.9,-314.191 2097.79,-320.015"/>
</g>
<!-- Node45&#45;&gt;Node3 -->
<g id="edge62" class="edge"><title>Node45&#45;&gt;Node3</title>
<path fill="none" stroke="midnightblue" d="M2125.63,-311.796C2149.46,-344.067 2206.89,-457.14 2151,-516 2121.7,-546.855 1470.77,-558.256 1309.05,-560.546"/>
<polygon fill="midnightblue" stroke="midnightblue" points="1308.64,-557.051 1298.69,-560.689 1308.73,-564.05 1308.64,-557.051"/>
</g>
<!-- Node46&#45;&gt;Node3 -->
<g id="edge67" class="edge"><title>Node46&#45;&gt;Node3</title>
<path fill="none" stroke="midnightblue" d="M1343.03,-509.581C1332.93,-519.198 1313.3,-534.952 1297.25,-546.492"/>
<polygon fill="midnightblue" stroke="midnightblue" points="1294.98,-543.808 1288.79,-552.403 1298.99,-549.547 1294.98,-543.808"/>
</g>
<!-- Node47&#45;&gt;Node6 -->
<g id="edge69" class="edge"><title>Node47&#45;&gt;Node6</title>
<path fill="none" stroke="midnightblue" d="M1318.41,-354.234C1304.27,-327.202 1261.14,-244.773 1242.14,-208.475"/>
<polygon fill="midnightblue" stroke="midnightblue" points="1245.21,-206.782 1237.47,-199.544 1239.01,-210.027 1245.21,-206.782"/>
</g>
<!-- Node48&#45;&gt;Node3 -->
<g id="edge71" class="edge"><title>Node48&#45;&gt;Node3</title>
<path fill="none" stroke="midnightblue" d="M1445.97,-509.548C1411.91,-520.716 1348.32,-540.199 1308.37,-551.718"/>
<polygon fill="midnightblue" stroke="midnightblue" points="1307.4,-548.352 1298.75,-554.465 1309.33,-555.083 1307.4,-548.352"/>
</g>
<!-- Node50&#45;&gt;Node6 -->
<g id="edge74" class="edge"><title>Node50&#45;&gt;Node6</title>
<path fill="none" stroke="midnightblue" d="M1170.05,-236.324C1181.46,-228.107 1198.83,-215.602 1212.43,-205.807"/>
<polygon fill="midnightblue" stroke="midnightblue" points="1214.66,-208.517 1220.73,-199.834 1210.57,-202.837 1214.66,-208.517"/>
</g>
</g>
</svg>
