<?xml version="1.0" encoding="UTF-8" standalone="no"?>
<!DOCTYPE svg PUBLIC "-//W3C//DTD SVG 1.1//EN"
 "http://www.w3.org/Graphics/SVG/1.1/DTD/svg11.dtd">
<!-- Generated by graphviz version 2.36.0 (20140111.2315)
 -->
<!-- Title: process_coa Pages: 1 -->
<!--zoomable 142 -->
<svg id="main" version="1.1" xmlns="http://www.w3.org/2000/svg" xmlns:xlink="http://www.w3.org/1999/xlink" xml:space="preserve" onload="init(evt)">
<style type="text/css"><![CDATA[
.edge:hover path { stroke: red; }
.edge:hover polygon { stroke: red; fill: red; }
]]></style>
<script type="text/javascript"><![CDATA[
var edges = document.getElementsByTagName('g');
if (edges && edges.length) {
  for (var i=0;i<edges.length;i++) {
    if (edges[i].id.substr(0,4)=='edge') {
      edges[i].setAttribute('class','edge');
    }
  }
}
]]></script>
        <defs>
                <circle id="rim" cx="0" cy="0" r="7"/>
                <circle id="rim2" cx="0" cy="0" r="3.5"/>
                <g id="zoomPlus">
                        <use xlink:href="#rim" fill="#404040">
                                <set attributeName="fill" to="#808080" begin="zoomplus.mouseover" end="zoomplus.mouseout"/>
                        </use>
                        <path d="M-4,0h8M0,-4v8" fill="none" stroke="white" stroke-width="1.5" pointer-events="none"/>
                </g>
                <g id="zoomMin">
                        <use xlink:href="#rim" fill="#404040">
                                <set attributeName="fill" to="#808080" begin="zoomminus.mouseover" end="zoomminus.mouseout"/>
                        </use>
                        <path d="M-4,0h8" fill="none" stroke="white" stroke-width="1.5" pointer-events="none"/>
                </g>
                <g id="dirArrow">
                        <path fill="none" stroke="white" stroke-width="1.5" d="M0,-3.0v7 M-2.5,-0.5L0,-3.0L2.5,-0.5"/>
                </g>
               <g id="resetDef">
                       <use xlink:href="#rim2" fill="#404040">
                               <set attributeName="fill" to="#808080" begin="reset.mouseover" end="reset.mouseout"/>
                       </use>
               </g>
        </defs>

<script type="text/javascript">
var viewWidth = 520;
var viewHeight = 142;
var sectionId = 'dynsection-11';
</script>
<script xlink:href="../../svgpan.js"/>
<svg id="graph" class="graph">
<g id="viewport">
<title>process_coa</title>
<!-- Node1 -->
<g id="node1" class="node"><title>Node1</title>
<polygon fill="#bfbfbf" stroke="black" points="0,-57.5 0,-76.5 72,-76.5 72,-57.5 0,-57.5"/>
<text text-anchor="middle" x="36" y="-64.5" font-family="Helvetica,sans-Serif" font-size="10.00">process_coa</text>
</g>
<!-- Node2 -->
<g id="node2" class="node"><title>Node2</title>
<g id="a_node2"><a xlink:href="../../d1/d52/eap__radius__dae_8c.html#a197338cad946b2dd3c3e6d751ee66bf8" target="_top" xlink:title="receive">
<polygon fill="none" stroke="black" points="108,-57.5 108,-76.5 156,-76.5 156,-57.5 108,-57.5"/>
<text text-anchor="middle" x="132" y="-64.5" font-family="Helvetica,sans-Serif" font-size="10.00">receive</text>
</a>
</g>
</g>
<!-- Node1&#45;&gt;Node2 -->
<g id="edge1" class="edge"><title>Node1&#45;&gt;Node2</title>
<path fill="none" stroke="midnightblue" d="M82.0315,-67C91.0128,-67 100.09,-67 107.949,-67"/>
<polygon fill="midnightblue" stroke="midnightblue" points="82.0022,-63.5001 72.0021,-67 82.0021,-70.5001 82.0022,-63.5001"/>
</g>
<!-- Node3 -->
<g id="node3" class="node"><title>Node3</title>
<g id="a_node3"><a xlink:href="../../d7/d9c/dhcp__socket_8c.html#aabce5046a77a10beebdeb94f019d7171" target="_top" xlink:title="METHOD">
<polygon fill="none" stroke="black" points="221,-114.5 221,-133.5 281,-133.5 281,-114.5 221,-114.5"/>
<text text-anchor="middle" x="251" y="-121.5" font-family="Helvetica,sans-Serif" font-size="10.00">METHOD</text>
</a>
</g>
</g>
<!-- Node2&#45;&gt;Node3 -->
<g id="edge2" class="edge"><title>Node2&#45;&gt;Node3</title>
<path fill="none" stroke="midnightblue" d="M154.428,-82.6925C165.298,-90.1541 178.937,-98.7801 192,-105 201.089,-109.327 211.419,-113.06 220.818,-116.042"/>
<polygon fill="midnightblue" stroke="midnightblue" points="156.214,-79.6697 146.022,-76.777 152.185,-85.3944 156.214,-79.6697"/>
</g>
<!-- Node4 -->
<g id="node4" class="node"><title>Node4</title>
<g id="a_node4"><a xlink:href="../../d5/dcb/group__dhcp__socket.html#ga9a7544edfbcbc54c6890592fcd674504" target="_top" xlink:title="dhcp_socket_create">
<polygon fill="none" stroke="black" points="199,-76.5 199,-95.5 303,-95.5 303,-76.5 199,-76.5"/>
<text text-anchor="middle" x="251" y="-83.5" font-family="Helvetica,sans-Serif" font-size="10.00">dhcp_socket_create</text>
</a>
</g>
</g>
<!-- Node2&#45;&gt;Node4 -->
<g id="edge3" class="edge"><title>Node2&#45;&gt;Node4</title>
<path fill="none" stroke="midnightblue" d="M166.187,-72.3893C176.355,-74.0406 187.788,-75.8972 198.863,-77.6957"/>
<polygon fill="midnightblue" stroke="midnightblue" points="166.547,-68.9021 156.115,-70.7538 165.425,-75.8115 166.547,-68.9021"/>
</g>
<!-- Node7 -->
<g id="node7" class="node"><title>Node7</title>
<g id="a_node7"><a xlink:href="../../d1/db7/group__eap__radius__dae.html#ga194870382a0fc028739b146d5e59627a" target="_top" xlink:title="eap_radius_dae_create">
<polygon fill="none" stroke="black" points="192.5,-38.5 192.5,-57.5 309.5,-57.5 309.5,-38.5 192.5,-38.5"/>
<text text-anchor="middle" x="251" y="-45.5" font-family="Helvetica,sans-Serif" font-size="10.00">eap_radius_dae_create</text>
</a>
</g>
</g>
<!-- Node2&#45;&gt;Node7 -->
<g id="edge6" class="edge"><title>Node2&#45;&gt;Node7</title>
<path fill="none" stroke="midnightblue" d="M166.207,-61.6073C174.286,-60.2955 183.16,-58.8543 192.02,-57.4156"/>
<polygon fill="midnightblue" stroke="midnightblue" points="165.425,-58.1885 156.115,-63.2462 166.547,-65.0979 165.425,-58.1885"/>
</g>
<!-- Node10 -->
<g id="node10" class="node"><title>Node10</title>
<g id="a_node10"><a xlink:href="../../d1/d74/revocation__validator_8c.html#a2fb04f8dee889356b88a31c221a092ea" target="_top" xlink:title="fetch_ocsp">
<polygon fill="none" stroke="black" points="218.5,-0.5 218.5,-19.5 283.5,-19.5 283.5,-0.5 218.5,-0.5"/>
<text text-anchor="middle" x="251" y="-7.5" font-family="Helvetica,sans-Serif" font-size="10.00">fetch_ocsp</text>
</a>
</g>
</g>
<!-- Node2&#45;&gt;Node10 -->
<g id="edge9" class="edge"><title>Node2&#45;&gt;Node10</title>
<path fill="none" stroke="midnightblue" d="M154.428,-51.3075C165.298,-43.8459 178.937,-35.2199 192,-29 200.323,-25.037 209.688,-21.5732 218.425,-18.727"/>
<polygon fill="midnightblue" stroke="midnightblue" points="152.185,-48.6056 146.022,-57.223 156.214,-54.3303 152.185,-48.6056"/>
</g>
<!-- Node5 -->
<g id="node5" class="node"><title>Node5</title>
<g id="a_node5"><a xlink:href="../../df/da0/dhcp__plugin_8c.html#a4d463038ce5b1946f5e7f959ec9420cd" target="_top" xlink:title="plugin_cb">
<polygon fill="none" stroke="black" points="352,-76.5 352,-95.5 410,-95.5 410,-76.5 352,-76.5"/>
<text text-anchor="middle" x="381" y="-83.5" font-family="Helvetica,sans-Serif" font-size="10.00">plugin_cb</text>
</a>
</g>
</g>
<!-- Node4&#45;&gt;Node5 -->
<g id="edge4" class="edge"><title>Node4&#45;&gt;Node5</title>
<path fill="none" stroke="midnightblue" d="M313.519,-86C326.938,-86 340.502,-86 351.848,-86"/>
<polygon fill="midnightblue" stroke="midnightblue" points="313.325,-82.5001 303.325,-86 313.325,-89.5001 313.325,-82.5001"/>
</g>
<!-- Node6 -->
<g id="node6" class="node"><title>Node6</title>
<g id="a_node6"><a xlink:href="../../df/da0/dhcp__plugin_8c.html#aba3f8ed40ce4bb383ee09193bc544dac" target="_top" xlink:title="METHOD">
<polygon fill="none" stroke="black" points="452,-76.5 452,-95.5 512,-95.5 512,-76.5 452,-76.5"/>
<text text-anchor="middle" x="482" y="-83.5" font-family="Helvetica,sans-Serif" font-size="10.00">METHOD</text>
</a>
</g>
</g>
<!-- Node5&#45;&gt;Node6 -->
<g id="edge5" class="edge"><title>Node5&#45;&gt;Node6</title>
<path fill="none" stroke="midnightblue" d="M420.265,-86C430.736,-86 441.915,-86 451.79,-86"/>
<polygon fill="midnightblue" stroke="midnightblue" points="420.105,-82.5001 410.105,-86 420.105,-89.5001 420.105,-82.5001"/>
</g>
<!-- Node8 -->
<g id="node8" class="node"><title>Node8</title>
<g id="a_node8"><a xlink:href="../../d3/de7/eap__radius__plugin_8c.html#abd3973b01f8d04957f7a3fc8e88fd716" target="_top" xlink:title="plugin_cb">
<polygon fill="none" stroke="black" points="352,-38.5 352,-57.5 410,-57.5 410,-38.5 352,-38.5"/>
<text text-anchor="middle" x="381" y="-45.5" font-family="Helvetica,sans-Serif" font-size="10.00">plugin_cb</text>
</a>
</g>
</g>
<!-- Node7&#45;&gt;Node8 -->
<g id="edge7" class="edge"><title>Node7&#45;&gt;Node8</title>
<path fill="none" stroke="midnightblue" d="M319.933,-48C331.14,-48 342.186,-48 351.689,-48"/>
<polygon fill="midnightblue" stroke="midnightblue" points="319.634,-44.5001 309.634,-48 319.634,-51.5001 319.634,-44.5001"/>
</g>
<!-- Node9 -->
<g id="node9" class="node"><title>Node9</title>
<g id="a_node9"><a xlink:href="../../d3/de7/eap__radius__plugin_8c.html#a45ad894365a8157f1d82bb26f26f5f8e" target="_top" xlink:title="METHOD">
<polygon fill="none" stroke="black" points="452,-38.5 452,-57.5 512,-57.5 512,-38.5 452,-38.5"/>
<text text-anchor="middle" x="482" y="-45.5" font-family="Helvetica,sans-Serif" font-size="10.00">METHOD</text>
</a>
</g>
</g>
<!-- Node8&#45;&gt;Node9 -->
<g id="edge8" class="edge"><title>Node8&#45;&gt;Node9</title>
<path fill="none" stroke="midnightblue" d="M420.265,-48C430.736,-48 441.915,-48 451.79,-48"/>
<polygon fill="midnightblue" stroke="midnightblue" points="420.105,-44.5001 410.105,-48 420.105,-51.5001 420.105,-44.5001"/>
</g>
<!-- Node11 -->
<g id="node11" class="node"><title>Node11</title>
<g id="a_node11"><a xlink:href="../../d1/d74/revocation__validator_8c.html#ae83d089d797a1ee3cc4040c6af2a008b" target="_top" xlink:title="check_ocsp">
<polygon fill="none" stroke="black" points="346.5,-0.5 346.5,-19.5 415.5,-19.5 415.5,-0.5 346.5,-0.5"/>
<text text-anchor="middle" x="381" y="-7.5" font-family="Helvetica,sans-Serif" font-size="10.00">check_ocsp</text>
</a>
</g>
</g>
<!-- Node10&#45;&gt;Node11 -->
<g id="edge10" class="edge"><title>Node10&#45;&gt;Node11</title>
<path fill="none" stroke="midnightblue" d="M293.9,-10C310.956,-10 330.398,-10 346.487,-10"/>
<polygon fill="midnightblue" stroke="midnightblue" points="293.64,-6.5001 283.64,-10 293.64,-13.5001 293.64,-6.5001"/>
</g>
<!-- Node12 -->
<g id="node12" class="node"><title>Node12</title>
<g id="a_node12"><a xlink:href="../../d1/d74/revocation__validator_8c.html#a1072f3fa297c4b025acb50c7aea35d3f" target="_top" xlink:title="METHOD">
<polygon fill="none" stroke="black" points="452,-0.5 452,-19.5 512,-19.5 512,-0.5 452,-0.5"/>
<text text-anchor="middle" x="482" y="-7.5" font-family="Helvetica,sans-Serif" font-size="10.00">METHOD</text>
</a>
</g>
</g>
<!-- Node11&#45;&gt;Node12 -->
<g id="edge11" class="edge"><title>Node11&#45;&gt;Node12</title>
<path fill="none" stroke="midnightblue" d="M425.708,-10C434.547,-10 443.634,-10 451.824,-10"/>
<polygon fill="midnightblue" stroke="midnightblue" points="425.517,-6.5001 415.517,-10 425.517,-13.5001 425.517,-6.5001"/>
</g>
</g>
</svg>
        <g id="navigator" transform="translate(0 0)" fill="#404254">
                <rect fill="#f2f5e9" fill-opacity="0.5" stroke="#606060" stroke-width=".5" x="0" y="0" width="60" height="60"/>
                <use id="zoomplus" xlink:href="#zoomPlus" x="17" y="9" onmousedown="handleZoom(evt,'in')"/>
                <use id="zoomminus" xlink:href="#zoomMin" x="42" y="9" onmousedown="handleZoom(evt,'out')"/>
                <use id="reset" xlink:href="#resetDef" x="30" y="36" onmousedown="handleReset()"/>
                <g id="arrowUp" xlink:href="#dirArrow" transform="translate(30 24)" onmousedown="handlePan(0,-1)">
                  <use xlink:href="#rim" fill="#404040">
                        <set attributeName="fill" to="#808080" begin="arrowUp.mouseover" end="arrowUp.mouseout"/>
                  </use>
                  <path fill="none" stroke="white" stroke-width="1.5" d="M0,-3.0v7 M-2.5,-0.5L0,-3.0L2.5,-0.5"/>
                </g>
                <g id="arrowRight" xlink:href="#dirArrow" transform="rotate(90) translate(36 -43)" onmousedown="handlePan(1,0)">
                  <use xlink:href="#rim" fill="#404040">
                        <set attributeName="fill" to="#808080" begin="arrowRight.mouseover" end="arrowRight.mouseout"/>
                  </use>
                  <path fill="none" stroke="white" stroke-width="1.5" d="M0,-3.0v7 M-2.5,-0.5L0,-3.0L2.5,-0.5"/>
                </g>
                <g id="arrowDown" xlink:href="#dirArrow" transform="rotate(180) translate(-30 -48)" onmousedown="handlePan(0,1)">
                  <use xlink:href="#rim" fill="#404040">
                        <set attributeName="fill" to="#808080" begin="arrowDown.mouseover" end="arrowDown.mouseout"/>
                  </use>
                  <path fill="none" stroke="white" stroke-width="1.5" d="M0,-3.0v7 M-2.5,-0.5L0,-3.0L2.5,-0.5"/>
                </g>
                <g id="arrowLeft" xlink:href="#dirArrow" transform="rotate(270) translate(-36 17)" onmousedown="handlePan(-1,0)">
                  <use xlink:href="#rim" fill="#404040">
                        <set attributeName="fill" to="#808080" begin="arrowLeft.mouseover" end="arrowLeft.mouseout"/>
                  </use>
                  <path fill="none" stroke="white" stroke-width="1.5" d="M0,-3.0v7 M-2.5,-0.5L0,-3.0L2.5,-0.5"/>
                </g>
        </g>
        <svg viewBox="0 0 15 15" width="100%" height="30px" preserveAspectRatio="xMaxYMin meet">
         <g id="arrow_out" transform="scale(0.3 0.3)">
          <a xlink:href="eap__radius__dae_8c_a55f6ff41898fd7c9dc3dcc70bf15f1af_icgraph_org.svg" target="_base">
           <rect id="button" ry="5" rx="5" y="6" x="6" height="38" width="38"
                fill="#f2f5e9" fill-opacity="0.5" stroke="#606060" stroke-width="1.0"/>
           <path id="arrow"
             d="M 11.500037,31.436501 C 11.940474,20.09759 22.043105,11.32322 32.158766,21.979434 L 37.068811,17.246167 C 37.068811,17.246167 37.088388,32 37.088388,32 L 22.160133,31.978069 C 22.160133,31.978069 26.997745,27.140456 26.997745,27.140456 C 18.528582,18.264221 13.291696,25.230495 11.500037,31.436501 z"
             style="fill:#404040;"/>
          </a>
         </g>
        </svg>
</svg>
