<?xml version="1.0" encoding="UTF-8" standalone="no"?>
<!DOCTYPE svg PUBLIC "-//W3C//DTD SVG 1.1//EN"
 "http://www.w3.org/Graphics/SVG/1.1/DTD/svg11.dtd">
<!-- Generated by graphviz version 2.36.0 (20140111.2315)
 -->
<!-- Title: open_socket Pages: 1 -->
<svg width="424pt" height="28pt"
 viewBox="0.00 0.00 424.00 28.00" xmlns="http://www.w3.org/2000/svg" xmlns:xlink="http://www.w3.org/1999/xlink">
<g id="graph0" class="graph" transform="scale(1 1) rotate(0) translate(4 24)">
<title>open_socket</title>
<!-- Node1 -->
<g id="node1" class="node"><title>Node1</title>
<polygon fill="#bfbfbf" stroke="black" points="0,-0.5 0,-19.5 72,-19.5 72,-0.5 0,-0.5"/>
<text text-anchor="middle" x="36" y="-7.5" font-family="Helvetica,sans-Serif" font-size="10.00">open_socket</text>
</g>
<!-- Node2 -->
<g id="node2" class="node"><title>Node2</title>
<g id="a_node2"><a xlink:href="../../d1/db7/group__eap__radius__dae.html#ga194870382a0fc028739b146d5e59627a" target="_top" xlink:title="eap_radius_dae_create">
<polygon fill="none" stroke="black" points="108.5,-0.5 108.5,-19.5 225.5,-19.5 225.5,-0.5 108.5,-0.5"/>
<text text-anchor="middle" x="167" y="-7.5" font-family="Helvetica,sans-Serif" font-size="10.00">eap_radius_dae_create</text>
</a>
</g>
</g>
<!-- Node1&#45;&gt;Node2 -->
<g id="edge1" class="edge"><title>Node1&#45;&gt;Node2</title>
<path fill="none" stroke="midnightblue" d="M82.2827,-10C90.7415,-10 99.6856,-10 108.456,-10"/>
<polygon fill="midnightblue" stroke="midnightblue" points="82.2499,-6.5001 72.2498,-10 82.2498,-13.5001 82.2499,-6.5001"/>
</g>
<!-- Node3 -->
<g id="node3" class="node"><title>Node3</title>
<g id="a_node3"><a xlink:href="../../d3/de7/eap__radius__plugin_8c.html#abd3973b01f8d04957f7a3fc8e88fd716" target="_top" xlink:title="plugin_cb">
<polygon fill="none" stroke="black" points="262,-0.5 262,-19.5 320,-19.5 320,-0.5 262,-0.5"/>
<text text-anchor="middle" x="291" y="-7.5" font-family="Helvetica,sans-Serif" font-size="10.00">plugin_cb</text>
</a>
</g>
</g>
<!-- Node2&#45;&gt;Node3 -->
<g id="edge2" class="edge"><title>Node2&#45;&gt;Node3</title>
<path fill="none" stroke="midnightblue" d="M235.795,-10C244.982,-10 253.961,-10 261.884,-10"/>
<polygon fill="midnightblue" stroke="midnightblue" points="235.785,-6.5001 225.785,-10 235.784,-13.5001 235.785,-6.5001"/>
</g>
<!-- Node4 -->
<g id="node4" class="node"><title>Node4</title>
<g id="a_node4"><a xlink:href="../../d3/de7/eap__radius__plugin_8c.html#a45ad894365a8157f1d82bb26f26f5f8e" target="_top" xlink:title="METHOD">
<polygon fill="none" stroke="black" points="356,-0.5 356,-19.5 416,-19.5 416,-0.5 356,-0.5"/>
<text text-anchor="middle" x="386" y="-7.5" font-family="Helvetica,sans-Serif" font-size="10.00">METHOD</text>
</a>
</g>
</g>
<!-- Node3&#45;&gt;Node4 -->
<g id="edge3" class="edge"><title>Node3&#45;&gt;Node4</title>
<path fill="none" stroke="midnightblue" d="M330.337,-10C338.905,-10 347.856,-10 355.975,-10"/>
<polygon fill="midnightblue" stroke="midnightblue" points="330.155,-6.5001 320.155,-10 330.155,-13.5001 330.155,-6.5001"/>
</g>
</g>
</svg>
