<?xml version="1.0" encoding="UTF-8" standalone="no"?>
<!DOCTYPE svg PUBLIC "-//W3C//DTD SVG 1.1//EN"
 "http://www.w3.org/Graphics/SVG/1.1/DTD/svg11.dtd">
<!-- Generated by graphviz version 2.36.0 (20140111.2315)
 -->
<!-- Title: METHOD Pages: 1 -->
<svg width="284pt" height="47pt"
 viewBox="0.00 0.00 284.00 47.00" xmlns="http://www.w3.org/2000/svg" xmlns:xlink="http://www.w3.org/1999/xlink">
<g id="graph0" class="graph" transform="scale(1 1) rotate(0) translate(4 43)">
<title>METHOD</title>
<!-- Node1 -->
<g id="node1" class="node"><title>Node1</title>
<polygon fill="#bfbfbf" stroke="black" points="0,-19.5 0,-38.5 60,-38.5 60,-19.5 0,-19.5"/>
<text text-anchor="middle" x="30" y="-26.5" font-family="Helvetica,sans-Serif" font-size="10.00">METHOD</text>
</g>
<!-- Node2 -->
<g id="node2" class="node"><title>Node2</title>
<g id="a_node2"><a xlink:href="../../da/dfc/settings__parser_8c.html#af07d89f5ceaea0c7c8252cc41fd75f37" target="_top" xlink:title="free">
<polygon fill="none" stroke="black" points="242.5,-19.5 242.5,-38.5 275.5,-38.5 275.5,-19.5 242.5,-19.5"/>
<text text-anchor="middle" x="259" y="-26.5" font-family="Helvetica,sans-Serif" font-size="10.00">free</text>
</a>
</g>
</g>
<!-- Node1&#45;&gt;Node2 -->
<g id="edge1" class="edge"><title>Node1&#45;&gt;Node2</title>
<path fill="none" stroke="midnightblue" d="M60.2116,-29C104.935,-29 189.658,-29 232.225,-29"/>
<polygon fill="midnightblue" stroke="midnightblue" points="232.329,-32.5001 242.329,-29 232.329,-25.5001 232.329,-32.5001"/>
</g>
<!-- Node3 -->
<g id="node3" class="node"><title>Node3</title>
<g id="a_node3"><a xlink:href="../../df/d59/pts__component__manager_8c.html#aaa132cebf3ab18ceeb34779fbfce21c8" target="_top" xlink:title="vendor_entry_destroy">
<polygon fill="none" stroke="black" points="96,-0.5 96,-19.5 206,-19.5 206,-0.5 96,-0.5"/>
<text text-anchor="middle" x="151" y="-7.5" font-family="Helvetica,sans-Serif" font-size="10.00">vendor_entry_destroy</text>
</a>
</g>
</g>
<!-- Node1&#45;&gt;Node3 -->
<g id="edge2" class="edge"><title>Node1&#45;&gt;Node3</title>
<path fill="none" stroke="midnightblue" d="M60.1107,-24.3521C67.9097,-23.1069 76.6608,-21.7096 85.5604,-20.2887"/>
<polygon fill="midnightblue" stroke="midnightblue" points="86.3054,-23.7141 95.6285,-18.6812 85.2017,-16.8017 86.3054,-23.7141"/>
</g>
<!-- Node3&#45;&gt;Node2 -->
<g id="edge3" class="edge"><title>Node3&#45;&gt;Node2</title>
<path fill="none" stroke="midnightblue" d="M205.311,-19.5557C214.774,-21.252 224.224,-22.9459 232.455,-24.4211"/>
<polygon fill="midnightblue" stroke="midnightblue" points="232.009,-27.8969 242.47,-26.2163 233.244,-21.0067 232.009,-27.8969"/>
</g>
</g>
</svg>
