<?xml version="1.0" encoding="UTF-8" standalone="no"?>
<!DOCTYPE svg PUBLIC "-//W3C//DTD SVG 1.1//EN"
 "http://www.w3.org/Graphics/SVG/1.1/DTD/svg11.dtd">
<!-- Generated by graphviz version 2.36.0 (20140111.2315)
 -->
<!-- Title: add_transform_substructure Pages: 1 -->
<!--zoomable 234 -->
<svg id="main" version="1.1" xmlns="http://www.w3.org/2000/svg" xmlns:xlink="http://www.w3.org/1999/xlink" xml:space="preserve" onload="init(evt)">
<style type="text/css"><![CDATA[
.edge:hover path { stroke: red; }
.edge:hover polygon { stroke: red; fill: red; }
]]></style>
<script type="text/javascript"><![CDATA[
var edges = document.getElementsByTagName('g');
if (edges && edges.length) {
  for (var i=0;i<edges.length;i++) {
    if (edges[i].id.substr(0,4)=='edge') {
      edges[i].setAttribute('class','edge');
    }
  }
}
]]></script>
        <defs>
                <circle id="rim" cx="0" cy="0" r="7"/>
                <circle id="rim2" cx="0" cy="0" r="3.5"/>
                <g id="zoomPlus">
                        <use xlink:href="#rim" fill="#404040">
                                <set attributeName="fill" to="#808080" begin="zoomplus.mouseover" end="zoomplus.mouseout"/>
                        </use>
                        <path d="M-4,0h8M0,-4v8" fill="none" stroke="white" stroke-width="1.5" pointer-events="none"/>
                </g>
                <g id="zoomMin">
                        <use xlink:href="#rim" fill="#404040">
                                <set attributeName="fill" to="#808080" begin="zoomminus.mouseover" end="zoomminus.mouseout"/>
                        </use>
                        <path d="M-4,0h8" fill="none" stroke="white" stroke-width="1.5" pointer-events="none"/>
                </g>
                <g id="dirArrow">
                        <path fill="none" stroke="white" stroke-width="1.5" d="M0,-3.0v7 M-2.5,-0.5L0,-3.0L2.5,-0.5"/>
                </g>
               <g id="resetDef">
                       <use xlink:href="#rim2" fill="#404040">
                               <set attributeName="fill" to="#808080" begin="reset.mouseover" end="reset.mouseout"/>
                       </use>
               </g>
        </defs>

<script type="text/javascript">
var viewWidth = 1072;
var viewHeight = 234;
var sectionId = 'dynsection-7';
</script>
<script xlink:href="../../svgpan.js"/>
<svg id="graph" class="graph">
<g id="viewport">
<title>add_transform_substructure</title>
<!-- Node1 -->
<g id="node1" class="node"><title>Node1</title>
<polygon fill="#bfbfbf" stroke="black" points="0,-106.5 0,-125.5 138,-125.5 138,-106.5 0,-106.5"/>
<text text-anchor="middle" x="69" y="-113.5" font-family="Helvetica,sans-Serif" font-size="10.00">add_transform_substructure</text>
</g>
<!-- Node2 -->
<g id="node2" class="node"><title>Node2</title>
<g id="a_node2"><a xlink:href="../../d6/d71/group__proposal__substructure.html#gaedb90af1501afa61e185a695d78fd558" target="_top" xlink:title="proposal_substructure\l_create_for_ipcomp_v1">
<polygon fill="none" stroke="black" points="349,-196 349,-226 467,-226 467,-196 349,-196"/>
<text text-anchor="start" x="357" y="-214" font-family="Helvetica,sans-Serif" font-size="10.00">proposal_substructure</text>
<text text-anchor="middle" x="408" y="-203" font-family="Helvetica,sans-Serif" font-size="10.00">_create_for_ipcomp_v1</text>
</a>
</g>
</g>
<!-- Node1&#45;&gt;Node2 -->
<g id="edge1" class="edge"><title>Node1&#45;&gt;Node2</title>
<path fill="none" stroke="midnightblue" d="M103.114,-129.16C123.391,-136.953 149.975,-146.697 174,-154 232.77,-171.866 301.166,-188.067 348.587,-198.59"/>
<polygon fill="midnightblue" stroke="midnightblue" points="104.294,-125.864 93.705,-125.511 101.763,-132.391 104.294,-125.864"/>
</g>
<!-- Node7 -->
<g id="node7" class="node"><title>Node7</title>
<g id="a_node7"><a xlink:href="../../d6/dba/proposal__substructure_8c.html#ad62e30a446eafd79f2ae081d086e2b68" target="_top" xlink:title="set_from_proposal_v1">
<polygon fill="none" stroke="black" points="183.5,-125.5 183.5,-144.5 296.5,-144.5 296.5,-125.5 183.5,-125.5"/>
<text text-anchor="middle" x="240" y="-132.5" font-family="Helvetica,sans-Serif" font-size="10.00">set_from_proposal_v1</text>
</a>
</g>
</g>
<!-- Node1&#45;&gt;Node7 -->
<g id="edge6" class="edge"><title>Node1&#45;&gt;Node7</title>
<path fill="none" stroke="midnightblue" d="M148.192,-124.791C160.098,-126.129 172.173,-127.487 183.462,-128.756"/>
<polygon fill="midnightblue" stroke="midnightblue" points="148.58,-121.312 138.252,-123.673 147.798,-128.269 148.58,-121.312"/>
</g>
<!-- Node10 -->
<g id="node10" class="node"><title>Node10</title>
<g id="a_node10"><a xlink:href="../../d6/dba/proposal__substructure_8c.html#a263fc9d286d8a9a188ff50f268be1794" target="_top" xlink:title="set_from_proposal_v1_ike">
<polygon fill="none" stroke="black" points="174.5,-87.5 174.5,-106.5 305.5,-106.5 305.5,-87.5 174.5,-87.5"/>
<text text-anchor="middle" x="240" y="-94.5" font-family="Helvetica,sans-Serif" font-size="10.00">set_from_proposal_v1_ike</text>
</a>
</g>
</g>
<!-- Node1&#45;&gt;Node10 -->
<g id="edge11" class="edge"><title>Node1&#45;&gt;Node10</title>
<path fill="none" stroke="midnightblue" d="M148.384,-107.188C157.068,-106.211 165.839,-105.225 174.326,-104.271"/>
<polygon fill="midnightblue" stroke="midnightblue" points="147.798,-103.731 138.252,-108.327 148.58,-110.688 147.798,-103.731"/>
</g>
<!-- Node11 -->
<g id="node11" class="node"><title>Node11</title>
<g id="a_node11"><a xlink:href="../../d6/dba/proposal__substructure_8c.html#a8d594a989e97fa06af96164fbc33a47d" target="_top" xlink:title="set_from_proposal_v2">
<polygon fill="none" stroke="black" points="183.5,-43.5 183.5,-62.5 296.5,-62.5 296.5,-43.5 183.5,-43.5"/>
<text text-anchor="middle" x="240" y="-50.5" font-family="Helvetica,sans-Serif" font-size="10.00">set_from_proposal_v2</text>
</a>
</g>
</g>
<!-- Node1&#45;&gt;Node11 -->
<g id="edge14" class="edge"><title>Node1&#45;&gt;Node11</title>
<path fill="none" stroke="midnightblue" d="M105.175,-102.888C137.455,-90.854 184.513,-73.3116 213.368,-62.555"/>
<polygon fill="midnightblue" stroke="midnightblue" points="103.815,-99.6591 95.6675,-106.432 106.26,-106.218 103.815,-99.6591"/>
</g>
<!-- Node3 -->
<g id="node3" class="node"><title>Node3</title>
<g id="a_node3"><a xlink:href="../../d4/dbd/group__sa__payload.html#gabd529a337812595ae4509418464308c5" target="_top" xlink:title="sa_payload_create_from\l_proposals_v1">
<polygon fill="none" stroke="black" points="684.5,-152 684.5,-182 807.5,-182 807.5,-152 684.5,-152"/>
<text text-anchor="start" x="692.5" y="-170" font-family="Helvetica,sans-Serif" font-size="10.00">sa_payload_create_from</text>
<text text-anchor="middle" x="746" y="-159" font-family="Helvetica,sans-Serif" font-size="10.00">_proposals_v1</text>
</a>
</g>
</g>
<!-- Node2&#45;&gt;Node3 -->
<g id="edge2" class="edge"><title>Node2&#45;&gt;Node3</title>
<path fill="none" stroke="midnightblue" d="M477.407,-202.042C538.186,-194.083 626.18,-182.56 684.453,-174.929"/>
<polygon fill="midnightblue" stroke="midnightblue" points="476.604,-198.617 467.143,-203.386 477.513,-205.558 476.604,-198.617"/>
</g>
<!-- Node4 -->
<g id="node4" class="node"><title>Node4</title>
<g id="a_node4"><a xlink:href="../../d4/d06/aggressive__mode_8c.html#a5178090ea23be753e0843747ae480bea" target="_top" xlink:title="METHOD">
<polygon fill="none" stroke="black" points="876,-170.5 876,-189.5 936,-189.5 936,-170.5 876,-170.5"/>
<text text-anchor="middle" x="906" y="-177.5" font-family="Helvetica,sans-Serif" font-size="10.00">METHOD</text>
</a>
</g>
</g>
<!-- Node3&#45;&gt;Node4 -->
<g id="edge3" class="edge"><title>Node3&#45;&gt;Node4</title>
<path fill="none" stroke="midnightblue" d="M817.863,-172.83C838.217,-174.505 859.3,-176.24 875.629,-177.583"/>
<polygon fill="midnightblue" stroke="midnightblue" points="817.888,-169.321 807.635,-171.989 817.314,-176.297 817.888,-169.321"/>
</g>
<!-- Node5 -->
<g id="node5" class="node"><title>Node5</title>
<g id="a_node5"><a xlink:href="../../d4/dbd/group__sa__payload.html#ga187ee4a192a063e17782dda1875d2f19" target="_top" xlink:title="sa_payload_create_from\l_proposal_v1">
<polygon fill="none" stroke="black" points="844.5,-121 844.5,-151 967.5,-151 967.5,-121 844.5,-121"/>
<text text-anchor="start" x="852.5" y="-139" font-family="Helvetica,sans-Serif" font-size="10.00">sa_payload_create_from</text>
<text text-anchor="middle" x="906" y="-128" font-family="Helvetica,sans-Serif" font-size="10.00">_proposal_v1</text>
</a>
</g>
</g>
<!-- Node3&#45;&gt;Node5 -->
<g id="edge4" class="edge"><title>Node3&#45;&gt;Node5</title>
<path fill="none" stroke="midnightblue" d="M817.597,-153.149C826.495,-151.403 835.538,-149.629 844.266,-147.916"/>
<polygon fill="midnightblue" stroke="midnightblue" points="816.774,-149.743 807.635,-155.103 818.122,-156.612 816.774,-149.743"/>
</g>
<!-- Node6 -->
<g id="node6" class="node"><title>Node6</title>
<g id="a_node6"><a xlink:href="../../d4/d06/aggressive__mode_8c.html#a0377242dc1c48939ace7fd3178a26fa6" target="_top" xlink:title="METHOD">
<polygon fill="none" stroke="black" points="1004,-126.5 1004,-145.5 1064,-145.5 1064,-126.5 1004,-126.5"/>
<text text-anchor="middle" x="1034" y="-133.5" font-family="Helvetica,sans-Serif" font-size="10.00">METHOD</text>
</a>
</g>
</g>
<!-- Node5&#45;&gt;Node6 -->
<g id="edge5" class="edge"><title>Node5&#45;&gt;Node6</title>
<path fill="none" stroke="midnightblue" d="M977.802,-136C986.987,-136 995.947,-136 1003.89,-136"/>
<polygon fill="midnightblue" stroke="midnightblue" points="977.786,-132.5 967.786,-136 977.786,-139.5 977.786,-132.5"/>
</g>
<!-- Node8 -->
<g id="node8" class="node"><title>Node8</title>
<g id="a_node8"><a xlink:href="../../d6/d71/group__proposal__substructure.html#ga00bb12c5883ff1c6a5b7ca88cba0d5ac" target="_top" xlink:title="proposal_substructure\l_create_from_proposal_v1">
<polygon fill="none" stroke="black" points="342.5,-108 342.5,-138 473.5,-138 473.5,-108 342.5,-108"/>
<text text-anchor="start" x="350.5" y="-126" font-family="Helvetica,sans-Serif" font-size="10.00">proposal_substructure</text>
<text text-anchor="middle" x="408" y="-115" font-family="Helvetica,sans-Serif" font-size="10.00">_create_from_proposal_v1</text>
</a>
</g>
</g>
<!-- Node7&#45;&gt;Node8 -->
<g id="edge7" class="edge"><title>Node7&#45;&gt;Node8</title>
<path fill="none" stroke="midnightblue" d="M306.831,-130.241C318.483,-129.399 330.606,-128.522 342.229,-127.682"/>
<polygon fill="midnightblue" stroke="midnightblue" points="306.459,-126.759 296.737,-130.971 306.964,-133.741 306.459,-126.759"/>
</g>
<!-- Node9 -->
<g id="node9" class="node"><title>Node9</title>
<g id="a_node9"><a xlink:href="../../d6/d71/group__proposal__substructure.html#gafa5c12125229b25b10320d21f6ed8877" target="_top" xlink:title="proposal_substructure\l_create_from_proposals_v1">
<polygon fill="none" stroke="black" points="510.5,-120 510.5,-150 647.5,-150 647.5,-120 510.5,-120"/>
<text text-anchor="start" x="518.5" y="-138" font-family="Helvetica,sans-Serif" font-size="10.00">proposal_substructure</text>
<text text-anchor="middle" x="579" y="-127" font-family="Helvetica,sans-Serif" font-size="10.00">_create_from_proposals_v1</text>
</a>
</g>
</g>
<!-- Node7&#45;&gt;Node9 -->
<g id="edge10" class="edge"><title>Node7&#45;&gt;Node9</title>
<path fill="none" stroke="midnightblue" d="M306.865,-143.964C318.548,-145.229 330.616,-146.326 342,-147 400.564,-150.467 415.43,-150.368 474,-147 485.794,-146.322 498.304,-145.214 510.406,-143.939"/>
<polygon fill="midnightblue" stroke="midnightblue" points="307.055,-140.463 296.725,-142.816 306.268,-147.419 307.055,-140.463"/>
</g>
<!-- Node8&#45;&gt;Node9 -->
<g id="edge8" class="edge"><title>Node8&#45;&gt;Node9</title>
<path fill="none" stroke="midnightblue" d="M484.018,-128.327C492.746,-128.946 501.612,-129.576 510.235,-130.188"/>
<polygon fill="midnightblue" stroke="midnightblue" points="484.079,-124.822 473.856,-127.605 483.583,-131.805 484.079,-124.822"/>
</g>
<!-- Node9&#45;&gt;Node3 -->
<g id="edge9" class="edge"><title>Node9&#45;&gt;Node3</title>
<path fill="none" stroke="midnightblue" d="M657.668,-150.063C666.645,-151.804 675.698,-153.56 684.401,-155.247"/>
<polygon fill="midnightblue" stroke="midnightblue" points="658.071,-146.576 647.588,-148.108 656.739,-153.448 658.071,-146.576"/>
</g>
<!-- Node10&#45;&gt;Node8 -->
<g id="edge12" class="edge"><title>Node10&#45;&gt;Node8</title>
<path fill="none" stroke="midnightblue" d="M311.851,-108.097C321.937,-109.677 332.268,-111.295 342.23,-112.855"/>
<polygon fill="midnightblue" stroke="midnightblue" points="312.291,-104.623 301.87,-106.534 311.208,-111.539 312.291,-104.623"/>
</g>
<!-- Node10&#45;&gt;Node9 -->
<g id="edge13" class="edge"><title>Node10&#45;&gt;Node9</title>
<path fill="none" stroke="midnightblue" d="M315.978,-90.9603C361.932,-88.8275 421.765,-88.8696 474,-98 498.353,-102.257 524.57,-111.619 544.59,-119.86"/>
<polygon fill="midnightblue" stroke="midnightblue" points="315.608,-87.4745 305.799,-91.4785 315.964,-94.4655 315.608,-87.4745"/>
</g>
<!-- Node12 -->
<g id="node12" class="node"><title>Node12</title>
<g id="a_node12"><a xlink:href="../../d6/d71/group__proposal__substructure.html#ga1429e5b3f5fdd5e37228391b0dd00dd1" target="_top" xlink:title="proposal_substructure\l_create_from_proposal_v2">
<polygon fill="none" stroke="black" points="342.5,-20 342.5,-50 473.5,-50 473.5,-20 342.5,-20"/>
<text text-anchor="start" x="350.5" y="-38" font-family="Helvetica,sans-Serif" font-size="10.00">proposal_substructure</text>
<text text-anchor="middle" x="408" y="-27" font-family="Helvetica,sans-Serif" font-size="10.00">_create_from_proposal_v2</text>
</a>
</g>
</g>
<!-- Node11&#45;&gt;Node12 -->
<g id="edge15" class="edge"><title>Node11&#45;&gt;Node12</title>
<path fill="none" stroke="midnightblue" d="M306.831,-45.8617C318.483,-44.5983 330.606,-43.2836 342.229,-42.0234"/>
<polygon fill="midnightblue" stroke="midnightblue" points="306.302,-42.3985 296.737,-46.9562 307.056,-49.3577 306.302,-42.3985"/>
</g>
<!-- Node13 -->
<g id="node13" class="node"><title>Node13</title>
<g id="a_node13"><a xlink:href="../../dd/d1a/sa__payload_8c.html#a643df09ada5e1b994fad313821209a71" target="_top" xlink:title="add_proposal_v2">
<polygon fill="none" stroke="black" points="534,-25.5 534,-44.5 624,-44.5 624,-25.5 534,-25.5"/>
<text text-anchor="middle" x="579" y="-32.5" font-family="Helvetica,sans-Serif" font-size="10.00">add_proposal_v2</text>
</a>
</g>
</g>
<!-- Node12&#45;&gt;Node13 -->
<g id="edge16" class="edge"><title>Node12&#45;&gt;Node13</title>
<path fill="none" stroke="midnightblue" d="M483.858,-35C500.986,-35 518.649,-35 533.983,-35"/>
<polygon fill="midnightblue" stroke="midnightblue" points="483.857,-31.5001 473.856,-35 483.856,-38.5001 483.857,-31.5001"/>
</g>
<!-- Node14 -->
<g id="node14" class="node"><title>Node14</title>
<g id="a_node14"><a xlink:href="../../d4/dbd/group__sa__payload.html#gaf5d9c95f4d29f78b945d7566f3123641" target="_top" xlink:title="sa_payload_create_from\l_proposals_v2">
<polygon fill="none" stroke="black" points="684.5,-57 684.5,-87 807.5,-87 807.5,-57 684.5,-57"/>
<text text-anchor="start" x="692.5" y="-75" font-family="Helvetica,sans-Serif" font-size="10.00">sa_payload_create_from</text>
<text text-anchor="middle" x="746" y="-64" font-family="Helvetica,sans-Serif" font-size="10.00">_proposals_v2</text>
</a>
</g>
</g>
<!-- Node13&#45;&gt;Node14 -->
<g id="edge17" class="edge"><title>Node13&#45;&gt;Node14</title>
<path fill="none" stroke="midnightblue" d="M632.487,-46.7698C648.97,-50.4659 667.303,-54.577 684.305,-58.3896"/>
<polygon fill="midnightblue" stroke="midnightblue" points="633.015,-43.3014 622.492,-44.5284 631.483,-50.1318 633.015,-43.3014"/>
</g>
<!-- Node18 -->
<g id="node18" class="node"><title>Node18</title>
<g id="a_node18"><a xlink:href="../../d4/dbd/group__sa__payload.html#ga91f50537186f1da3536c93ba068e7191" target="_top" xlink:title="sa_payload_create_from\l_proposal_v2">
<polygon fill="none" stroke="black" points="684.5,-8 684.5,-38 807.5,-38 807.5,-8 684.5,-8"/>
<text text-anchor="start" x="692.5" y="-26" font-family="Helvetica,sans-Serif" font-size="10.00">sa_payload_create_from</text>
<text text-anchor="middle" x="746" y="-15" font-family="Helvetica,sans-Serif" font-size="10.00">_proposal_v2</text>
</a>
</g>
</g>
<!-- Node13&#45;&gt;Node18 -->
<g id="edge21" class="edge"><title>Node13&#45;&gt;Node18</title>
<path fill="none" stroke="midnightblue" d="M634.436,-31.041C650.379,-29.8815 667.91,-28.6066 684.221,-27.4203"/>
<polygon fill="midnightblue" stroke="midnightblue" points="633.937,-27.568 624.217,-31.7842 634.445,-34.5496 633.937,-27.568"/>
</g>
<!-- Node15 -->
<g id="node15" class="node"><title>Node15</title>
<g id="a_node15"><a xlink:href="../../dc/d9a/child__create_8c.html#aa23c9fc9c750a07512ca2400fbcfc8d7" target="_top" xlink:title="build_payloads">
<polygon fill="none" stroke="black" points="865.5,-38.5 865.5,-57.5 946.5,-57.5 946.5,-38.5 865.5,-38.5"/>
<text text-anchor="middle" x="906" y="-45.5" font-family="Helvetica,sans-Serif" font-size="10.00">build_payloads</text>
</a>
</g>
</g>
<!-- Node14&#45;&gt;Node15 -->
<g id="edge18" class="edge"><title>Node14&#45;&gt;Node15</title>
<path fill="none" stroke="midnightblue" d="M817.709,-61.2594C834.028,-58.7806 850.824,-56.2293 865.27,-54.0349"/>
<polygon fill="midnightblue" stroke="midnightblue" points="816.996,-57.8275 807.635,-62.7896 818.047,-64.7481 816.996,-57.8275"/>
</g>
<!-- Node17 -->
<g id="node17" class="node"><title>Node17</title>
<g id="a_node17"><a xlink:href="../../d4/dd1/custom__proposal_8c.html#abd7713d1fc23312b57b966afcdce30e2" target="_top" xlink:title="METHOD">
<polygon fill="none" stroke="black" points="876,-76.5 876,-95.5 936,-95.5 936,-76.5 876,-76.5"/>
<text text-anchor="middle" x="906" y="-83.5" font-family="Helvetica,sans-Serif" font-size="10.00">METHOD</text>
</a>
</g>
</g>
<!-- Node14&#45;&gt;Node17 -->
<g id="edge20" class="edge"><title>Node14&#45;&gt;Node17</title>
<path fill="none" stroke="midnightblue" d="M817.863,-78.279C838.217,-80.0825 859.3,-81.9506 875.629,-83.3975"/>
<polygon fill="midnightblue" stroke="midnightblue" points="817.905,-74.7691 807.635,-77.3727 817.287,-81.7418 817.905,-74.7691"/>
</g>
<!-- Node16 -->
<g id="node16" class="node"><title>Node16</title>
<g id="a_node16"><a xlink:href="../../dc/d9a/child__create_8c.html#aed56efb904bf815eb7b0c4fb3aa7e2c1" target="_top" xlink:title="METHOD">
<polygon fill="none" stroke="black" points="1004,-38.5 1004,-57.5 1064,-57.5 1064,-38.5 1004,-38.5"/>
<text text-anchor="middle" x="1034" y="-45.5" font-family="Helvetica,sans-Serif" font-size="10.00">METHOD</text>
</a>
</g>
</g>
<!-- Node15&#45;&gt;Node16 -->
<g id="edge19" class="edge"><title>Node15&#45;&gt;Node16</title>
<path fill="none" stroke="midnightblue" d="M956.741,-48C972.618,-48 989.672,-48 1003.62,-48"/>
<polygon fill="midnightblue" stroke="midnightblue" points="956.522,-44.5001 946.521,-48 956.521,-51.5001 956.522,-44.5001"/>
</g>
<!-- Node18&#45;&gt;Node15 -->
<g id="edge22" class="edge"><title>Node18&#45;&gt;Node15</title>
<path fill="none" stroke="midnightblue" d="M817.709,-34.1881C834.028,-36.7702 850.824,-39.4278 865.27,-41.7136"/>
<polygon fill="midnightblue" stroke="midnightblue" points="818.059,-30.7001 807.635,-32.5942 816.965,-37.6141 818.059,-30.7001"/>
</g>
<!-- Node19 -->
<g id="node19" class="node"><title>Node19</title>
<g id="a_node19"><a xlink:href="../../d3/db3/pretend__auth_8c.html#a4495356dc82b4163d98ed5adcfd5cac8" target="_top" xlink:title="process_auth_response">
<polygon fill="none" stroke="black" points="846,-0.5 846,-19.5 966,-19.5 966,-0.5 846,-0.5"/>
<text text-anchor="middle" x="906" y="-7.5" font-family="Helvetica,sans-Serif" font-size="10.00">process_auth_response</text>
</a>
</g>
</g>
<!-- Node18&#45;&gt;Node19 -->
<g id="edge23" class="edge"><title>Node18&#45;&gt;Node19</title>
<path fill="none" stroke="midnightblue" d="M817.734,-17.1801C827.121,-16.4078 836.666,-15.6225 845.83,-14.8685"/>
<polygon fill="midnightblue" stroke="midnightblue" points="817.314,-13.7027 807.635,-18.011 817.888,-20.6791 817.314,-13.7027"/>
</g>
<!-- Node20 -->
<g id="node20" class="node"><title>Node20</title>
<g id="a_node20"><a xlink:href="../../d3/db3/pretend__auth_8c.html#aadf45f2afe23f71e2c042730808ae155" target="_top" xlink:title="METHOD">
<polygon fill="none" stroke="black" points="1004,-0.5 1004,-19.5 1064,-19.5 1064,-0.5 1004,-0.5"/>
<text text-anchor="middle" x="1034" y="-7.5" font-family="Helvetica,sans-Serif" font-size="10.00">METHOD</text>
</a>
</g>
</g>
<!-- Node19&#45;&gt;Node20 -->
<g id="edge24" class="edge"><title>Node19&#45;&gt;Node20</title>
<path fill="none" stroke="midnightblue" d="M976.385,-10C986.02,-10 995.453,-10 1003.77,-10"/>
<polygon fill="midnightblue" stroke="midnightblue" points="976.311,-6.5001 966.31,-10 976.31,-13.5001 976.311,-6.5001"/>
</g>
</g>
</svg>
        <g id="navigator" transform="translate(0 0)" fill="#404254">
                <rect fill="#f2f5e9" fill-opacity="0.5" stroke="#606060" stroke-width=".5" x="0" y="0" width="60" height="60"/>
                <use id="zoomplus" xlink:href="#zoomPlus" x="17" y="9" onmousedown="handleZoom(evt,'in')"/>
                <use id="zoomminus" xlink:href="#zoomMin" x="42" y="9" onmousedown="handleZoom(evt,'out')"/>
                <use id="reset" xlink:href="#resetDef" x="30" y="36" onmousedown="handleReset()"/>
                <g id="arrowUp" xlink:href="#dirArrow" transform="translate(30 24)" onmousedown="handlePan(0,-1)">
                  <use xlink:href="#rim" fill="#404040">
                        <set attributeName="fill" to="#808080" begin="arrowUp.mouseover" end="arrowUp.mouseout"/>
                  </use>
                  <path fill="none" stroke="white" stroke-width="1.5" d="M0,-3.0v7 M-2.5,-0.5L0,-3.0L2.5,-0.5"/>
                </g>
                <g id="arrowRight" xlink:href="#dirArrow" transform="rotate(90) translate(36 -43)" onmousedown="handlePan(1,0)">
                  <use xlink:href="#rim" fill="#404040">
                        <set attributeName="fill" to="#808080" begin="arrowRight.mouseover" end="arrowRight.mouseout"/>
                  </use>
                  <path fill="none" stroke="white" stroke-width="1.5" d="M0,-3.0v7 M-2.5,-0.5L0,-3.0L2.5,-0.5"/>
                </g>
                <g id="arrowDown" xlink:href="#dirArrow" transform="rotate(180) translate(-30 -48)" onmousedown="handlePan(0,1)">
                  <use xlink:href="#rim" fill="#404040">
                        <set attributeName="fill" to="#808080" begin="arrowDown.mouseover" end="arrowDown.mouseout"/>
                  </use>
                  <path fill="none" stroke="white" stroke-width="1.5" d="M0,-3.0v7 M-2.5,-0.5L0,-3.0L2.5,-0.5"/>
                </g>
                <g id="arrowLeft" xlink:href="#dirArrow" transform="rotate(270) translate(-36 17)" onmousedown="handlePan(-1,0)">
                  <use xlink:href="#rim" fill="#404040">
                        <set attributeName="fill" to="#808080" begin="arrowLeft.mouseover" end="arrowLeft.mouseout"/>
                  </use>
                  <path fill="none" stroke="white" stroke-width="1.5" d="M0,-3.0v7 M-2.5,-0.5L0,-3.0L2.5,-0.5"/>
                </g>
        </g>
        <svg viewBox="0 0 15 15" width="100%" height="30px" preserveAspectRatio="xMaxYMin meet">
         <g id="arrow_out" transform="scale(0.3 0.3)">
          <a xlink:href="proposal__substructure_8c_a011b033eaf1ade0daff600bb549716c2_icgraph_org.svg" target="_base">
           <rect id="button" ry="5" rx="5" y="6" x="6" height="38" width="38"
                fill="#f2f5e9" fill-opacity="0.5" stroke="#606060" stroke-width="1.0"/>
           <path id="arrow"
             d="M 11.500037,31.436501 C 11.940474,20.09759 22.043105,11.32322 32.158766,21.979434 L 37.068811,17.246167 C 37.068811,17.246167 37.088388,32 37.088388,32 L 22.160133,31.978069 C 22.160133,31.978069 26.997745,27.140456 26.997745,27.140456 C 18.528582,18.264221 13.291696,25.230495 11.500037,31.436501 z"
             style="fill:#404040;"/>
          </a>
         </g>
        </svg>
</svg>
