<?xml version="1.0" encoding="UTF-8" standalone="no"?>
<!DOCTYPE svg PUBLIC "-//W3C//DTD SVG 1.1//EN"
 "http://www.w3.org/Graphics/SVG/1.1/DTD/svg11.dtd">
<!-- Generated by graphviz version 2.36.0 (20140111.2315)
 -->
<!-- Title: encryption_algorithm_from_oid Pages: 1 -->
<!--zoomable 104 -->
<svg id="main" version="1.1" xmlns="http://www.w3.org/2000/svg" xmlns:xlink="http://www.w3.org/1999/xlink" xml:space="preserve" onload="init(evt)">
<style type="text/css"><![CDATA[
.edge:hover path { stroke: red; }
.edge:hover polygon { stroke: red; fill: red; }
]]></style>
<script type="text/javascript"><![CDATA[
var edges = document.getElementsByTagName('g');
if (edges && edges.length) {
  for (var i=0;i<edges.length;i++) {
    if (edges[i].id.substr(0,4)=='edge') {
      edges[i].setAttribute('class','edge');
    }
  }
}
]]></script>
        <defs>
                <circle id="rim" cx="0" cy="0" r="7"/>
                <circle id="rim2" cx="0" cy="0" r="3.5"/>
                <g id="zoomPlus">
                        <use xlink:href="#rim" fill="#404040">
                                <set attributeName="fill" to="#808080" begin="zoomplus.mouseover" end="zoomplus.mouseout"/>
                        </use>
                        <path d="M-4,0h8M0,-4v8" fill="none" stroke="white" stroke-width="1.5" pointer-events="none"/>
                </g>
                <g id="zoomMin">
                        <use xlink:href="#rim" fill="#404040">
                                <set attributeName="fill" to="#808080" begin="zoomminus.mouseover" end="zoomminus.mouseout"/>
                        </use>
                        <path d="M-4,0h8" fill="none" stroke="white" stroke-width="1.5" pointer-events="none"/>
                </g>
                <g id="dirArrow">
                        <path fill="none" stroke="white" stroke-width="1.5" d="M0,-3.0v7 M-2.5,-0.5L0,-3.0L2.5,-0.5"/>
                </g>
               <g id="resetDef">
                       <use xlink:href="#rim2" fill="#404040">
                               <set attributeName="fill" to="#808080" begin="reset.mouseover" end="reset.mouseout"/>
                       </use>
               </g>
        </defs>

<script type="text/javascript">
var viewWidth = 1172;
var viewHeight = 104;
var sectionId = 'dynsection-1';
</script>
<script xlink:href="../../svgpan.js"/>
<svg id="graph" class="graph">
<g id="viewport">
<title>encryption_algorithm_from_oid</title>
<!-- Node1 -->
<g id="node1" class="node"><title>Node1</title>
<polygon fill="#bfbfbf" stroke="black" points="0.5,-33 0.5,-63 107.5,-63 107.5,-33 0.5,-33"/>
<text text-anchor="start" x="8.5" y="-51" font-family="Helvetica,sans-Serif" font-size="10.00">encryption_algorithm</text>
<text text-anchor="middle" x="54" y="-40" font-family="Helvetica,sans-Serif" font-size="10.00">_from_oid</text>
</g>
<!-- Node2 -->
<g id="node2" class="node"><title>Node2</title>
<g id="a_node2"><a xlink:href="../../d0/ddf/pkcs7__enveloped__data_8c.html#ae1444bc8f8af028dab5a79d77963f46e" target="_top" xlink:title="decrypt">
<polygon fill="none" stroke="black" points="174.5,-76.5 174.5,-95.5 223.5,-95.5 223.5,-76.5 174.5,-76.5"/>
<text text-anchor="middle" x="199" y="-83.5" font-family="Helvetica,sans-Serif" font-size="10.00">decrypt</text>
</a>
</g>
</g>
<!-- Node1&#45;&gt;Node2 -->
<g id="edge1" class="edge"><title>Node1&#45;&gt;Node2</title>
<path fill="none" stroke="midnightblue" d="M117.643,-64.6463C137.823,-70.0088 158.959,-75.6254 174.487,-79.7517"/>
<polygon fill="midnightblue" stroke="midnightblue" points="118.405,-61.2275 107.842,-62.0418 116.607,-67.9927 118.405,-61.2275"/>
</g>
<!-- Node8 -->
<g id="node8" class="node"><title>Node8</title>
<g id="a_node8"><a xlink:href="../../dc/db8/pkcs5_8c.html#a2e41c64106cce0134f65a584da37aa6a" target="_top" xlink:title="parse_pbes2_params">
<polygon fill="none" stroke="black" points="144,-38.5 144,-57.5 254,-57.5 254,-38.5 144,-38.5"/>
<text text-anchor="middle" x="199" y="-45.5" font-family="Helvetica,sans-Serif" font-size="10.00">parse_pbes2_params</text>
</a>
</g>
</g>
<!-- Node1&#45;&gt;Node8 -->
<g id="edge7" class="edge"><title>Node1&#45;&gt;Node8</title>
<path fill="none" stroke="midnightblue" d="M117.918,-48C126.595,-48 135.443,-48 143.941,-48"/>
<polygon fill="midnightblue" stroke="midnightblue" points="117.842,-44.5001 107.842,-48 117.842,-51.5001 117.842,-44.5001"/>
</g>
<!-- Node15 -->
<g id="node15" class="node"><title>Node15</title>
<g id="a_node15"><a xlink:href="../../d5/dfd/test__crypter_8c.html#ae1de64de52c1abd9a257c9065c24f052" target="_top" xlink:title="START_TEST">
<polygon fill="none" stroke="black" points="159,-0.5 159,-19.5 239,-19.5 239,-0.5 159,-0.5"/>
<text text-anchor="middle" x="199" y="-7.5" font-family="Helvetica,sans-Serif" font-size="10.00">START_TEST</text>
</a>
</g>
</g>
<!-- Node1&#45;&gt;Node15 -->
<g id="edge15" class="edge"><title>Node1&#45;&gt;Node15</title>
<path fill="none" stroke="midnightblue" d="M117.669,-31.3466C132.786,-27.3296 148.437,-23.1705 161.865,-19.6024"/>
<polygon fill="midnightblue" stroke="midnightblue" points="116.607,-28.0073 107.842,-33.9582 118.405,-34.7725 116.607,-28.0073"/>
</g>
<!-- Node3 -->
<g id="node3" class="node"><title>Node3</title>
<g id="a_node3"><a xlink:href="../../d0/ddf/pkcs7__enveloped__data_8c.html#ad1b96c7e42b21a94f65a03ab4a63d0ca" target="_top" xlink:title="parse">
<polygon fill="none" stroke="black" points="344.5,-76.5 344.5,-95.5 385.5,-95.5 385.5,-76.5 344.5,-76.5"/>
<text text-anchor="middle" x="365" y="-83.5" font-family="Helvetica,sans-Serif" font-size="10.00">parse</text>
</a>
</g>
</g>
<!-- Node2&#45;&gt;Node3 -->
<g id="edge2" class="edge"><title>Node2&#45;&gt;Node3</title>
<path fill="none" stroke="midnightblue" d="M234.043,-86C267.359,-86 316.961,-86 344.242,-86"/>
<polygon fill="midnightblue" stroke="midnightblue" points="233.847,-82.5001 223.847,-86 233.847,-89.5001 233.847,-82.5001"/>
</g>
<!-- Node4 -->
<g id="node4" class="node"><title>Node4</title>
<g id="a_node4"><a xlink:href="../../d6/ddd/group__pkcs7__enveloped__data.html#ga6a8ec4d6ab2c974814d65f66033672ed" target="_top" xlink:title="pkcs7_enveloped_data_load">
<polygon fill="none" stroke="black" points="656,-76.5 656,-95.5 796,-95.5 796,-76.5 656,-76.5"/>
<text text-anchor="middle" x="726" y="-83.5" font-family="Helvetica,sans-Serif" font-size="10.00">pkcs7_enveloped_data_load</text>
</a>
</g>
</g>
<!-- Node3&#45;&gt;Node4 -->
<g id="edge3" class="edge"><title>Node3&#45;&gt;Node4</title>
<path fill="none" stroke="midnightblue" d="M395.626,-86C452.27,-86 577.284,-86 655.967,-86"/>
<polygon fill="midnightblue" stroke="midnightblue" points="395.556,-82.5001 385.556,-86 395.556,-89.5001 395.556,-82.5001"/>
</g>
<!-- Node5 -->
<g id="node5" class="node"><title>Node5</title>
<g id="a_node5"><a xlink:href="../../dc/d90/pkcs7__generic_8c.html#a0f97774c6213da4efc62d8632116c977" target="_top" xlink:title="parse_contentInfo">
<polygon fill="none" stroke="black" points="832.5,-57.5 832.5,-76.5 927.5,-76.5 927.5,-57.5 832.5,-57.5"/>
<text text-anchor="middle" x="880" y="-64.5" font-family="Helvetica,sans-Serif" font-size="10.00">parse_contentInfo</text>
</a>
</g>
</g>
<!-- Node4&#45;&gt;Node5 -->
<g id="edge4" class="edge"><title>Node4&#45;&gt;Node5</title>
<path fill="none" stroke="midnightblue" d="M806.374,-76.0783C815.271,-74.9661 824.106,-73.8617 832.391,-72.8261"/>
<polygon fill="midnightblue" stroke="midnightblue" points="805.817,-72.6206 796.328,-77.334 806.685,-79.5665 805.817,-72.6206"/>
</g>
<!-- Node6 -->
<g id="node6" class="node"><title>Node6</title>
<g id="a_node6"><a xlink:href="../../d2/d7c/group__pkcs7__generic.html#ga5191a312cd744f5c0d836c33a8a12cc6" target="_top" xlink:title="pkcs7_generic_load">
<polygon fill="none" stroke="black" points="964.5,-57.5 964.5,-76.5 1067.5,-76.5 1067.5,-57.5 964.5,-57.5"/>
<text text-anchor="middle" x="1016" y="-64.5" font-family="Helvetica,sans-Serif" font-size="10.00">pkcs7_generic_load</text>
</a>
</g>
</g>
<!-- Node5&#45;&gt;Node6 -->
<g id="edge5" class="edge"><title>Node5&#45;&gt;Node6</title>
<path fill="none" stroke="midnightblue" d="M937.981,-67C946.719,-67 955.69,-67 964.281,-67"/>
<polygon fill="midnightblue" stroke="midnightblue" points="937.867,-63.5001 927.867,-67 937.867,-70.5001 937.867,-63.5001"/>
</g>
<!-- Node7 -->
<g id="node7" class="node"><title>Node7</title>
<g id="a_node7"><a xlink:href="../../da/d07/pkcs7__plugin_8c.html#a26022c3058197bb6b288cddc37aff7be" target="_top" xlink:title="METHOD">
<polygon fill="none" stroke="black" points="1104,-57.5 1104,-76.5 1164,-76.5 1164,-57.5 1104,-57.5"/>
<text text-anchor="middle" x="1134" y="-64.5" font-family="Helvetica,sans-Serif" font-size="10.00">METHOD</text>
</a>
</g>
</g>
<!-- Node6&#45;&gt;Node7 -->
<g id="edge6" class="edge"><title>Node6&#45;&gt;Node7</title>
<path fill="none" stroke="midnightblue" d="M1077.82,-67C1086.92,-67 1095.94,-67 1103.96,-67"/>
<polygon fill="midnightblue" stroke="midnightblue" points="1077.54,-63.5001 1067.54,-67 1077.54,-70.5001 1077.54,-63.5001"/>
</g>
<!-- Node9 -->
<g id="node9" class="node"><title>Node9</title>
<g id="a_node9"><a xlink:href="../../de/d63/group__pkcs5.html#gac60df05f4e44ca22323dad16158975f8" target="_top" xlink:title="pkcs5_from_algorithmIdentifier">
<polygon fill="none" stroke="black" points="290,-38.5 290,-57.5 440,-57.5 440,-38.5 290,-38.5"/>
<text text-anchor="middle" x="365" y="-45.5" font-family="Helvetica,sans-Serif" font-size="10.00">pkcs5_from_algorithmIdentifier</text>
</a>
</g>
</g>
<!-- Node8&#45;&gt;Node9 -->
<g id="edge8" class="edge"><title>Node8&#45;&gt;Node9</title>
<path fill="none" stroke="midnightblue" d="M264.287,-48C272.722,-48 281.42,-48 290,-48"/>
<polygon fill="midnightblue" stroke="midnightblue" points="264.154,-44.5001 254.154,-48 264.154,-51.5001 264.154,-44.5001"/>
</g>
<!-- Node10 -->
<g id="node10" class="node"><title>Node10</title>
<g id="a_node10"><a xlink:href="../../dc/deb/pkcs7__encrypted__data_8c.html#a7b33c4ee8ecaa12c947f29389050e0b1" target="_top" xlink:title="parse">
<polygon fill="none" stroke="black" points="527.5,-38.5 527.5,-57.5 568.5,-57.5 568.5,-38.5 527.5,-38.5"/>
<text text-anchor="middle" x="548" y="-45.5" font-family="Helvetica,sans-Serif" font-size="10.00">parse</text>
</a>
</g>
</g>
<!-- Node9&#45;&gt;Node10 -->
<g id="edge9" class="edge"><title>Node9&#45;&gt;Node10</title>
<path fill="none" stroke="midnightblue" d="M450.223,-48C478.878,-48 508.377,-48 527.153,-48"/>
<polygon fill="midnightblue" stroke="midnightblue" points="450.142,-44.5001 440.142,-48 450.142,-51.5001 450.142,-44.5001"/>
</g>
<!-- Node12 -->
<g id="node12" class="node"><title>Node12</title>
<g id="a_node12"><a xlink:href="../../de/db8/pkcs8__builder_8c.html#a1ce987a15d2afab2ab839b12676c382f" target="_top" xlink:title="parse_encrypted_private_key">
<polygon fill="none" stroke="black" points="476,-0.5 476,-19.5 620,-19.5 620,-0.5 476,-0.5"/>
<text text-anchor="middle" x="548" y="-7.5" font-family="Helvetica,sans-Serif" font-size="10.00">parse_encrypted_private_key</text>
</a>
</g>
</g>
<!-- Node9&#45;&gt;Node12 -->
<g id="edge12" class="edge"><title>Node9&#45;&gt;Node12</title>
<path fill="none" stroke="midnightblue" d="M421.638,-36.319C447.307,-30.9301 477.391,-24.6139 501.654,-19.5201"/>
<polygon fill="midnightblue" stroke="midnightblue" points="420.741,-32.9309 411.674,-38.411 422.18,-39.7816 420.741,-32.9309"/>
</g>
<!-- Node11 -->
<g id="node11" class="node"><title>Node11</title>
<g id="a_node11"><a xlink:href="../../d4/dbc/group__pkcs7__encrypted__data.html#gafedd0b90472a2f6693517a23d9889fe8" target="_top" xlink:title="pkcs7_encrypted_data_load">
<polygon fill="none" stroke="black" points="657,-38.5 657,-57.5 795,-57.5 795,-38.5 657,-38.5"/>
<text text-anchor="middle" x="726" y="-45.5" font-family="Helvetica,sans-Serif" font-size="10.00">pkcs7_encrypted_data_load</text>
</a>
</g>
</g>
<!-- Node10&#45;&gt;Node11 -->
<g id="edge10" class="edge"><title>Node10&#45;&gt;Node11</title>
<path fill="none" stroke="midnightblue" d="M578.568,-48C599.94,-48 629.702,-48 656.816,-48"/>
<polygon fill="midnightblue" stroke="midnightblue" points="578.508,-44.5001 568.508,-48 578.508,-51.5001 578.508,-44.5001"/>
</g>
<!-- Node11&#45;&gt;Node5 -->
<g id="edge11" class="edge"><title>Node11&#45;&gt;Node5</title>
<path fill="none" stroke="midnightblue" d="M805.394,-57.7993C814.574,-58.9467 823.707,-60.0884 832.257,-61.1571"/>
<polygon fill="midnightblue" stroke="midnightblue" points="805.798,-54.3226 795.441,-56.5551 804.929,-61.2685 805.798,-54.3226"/>
</g>
<!-- Node13 -->
<g id="node13" class="node"><title>Node13</title>
<g id="a_node13"><a xlink:href="../../da/ddc/group__pkcs8__builder.html#gaef6da126fbf2c9b34a212ec848dd6639" target="_top" xlink:title="pkcs8_private_key_load">
<polygon fill="none" stroke="black" points="665,-0.5 665,-19.5 787,-19.5 787,-0.5 665,-0.5"/>
<text text-anchor="middle" x="726" y="-7.5" font-family="Helvetica,sans-Serif" font-size="10.00">pkcs8_private_key_load</text>
</a>
</g>
</g>
<!-- Node12&#45;&gt;Node13 -->
<g id="edge13" class="edge"><title>Node12&#45;&gt;Node13</title>
<path fill="none" stroke="midnightblue" d="M630.277,-10C641.952,-10 653.786,-10 664.95,-10"/>
<polygon fill="midnightblue" stroke="midnightblue" points="630.079,-6.5001 620.079,-10 630.079,-13.5001 630.079,-6.5001"/>
</g>
<!-- Node14 -->
<g id="node14" class="node"><title>Node14</title>
<g id="a_node14"><a xlink:href="../../d9/d79/pkcs8__plugin_8c.html#ae25a07a9f412f4c5df24f6fee255db31" target="_top" xlink:title="METHOD">
<polygon fill="none" stroke="black" points="850,-0.5 850,-19.5 910,-19.5 910,-0.5 850,-0.5"/>
<text text-anchor="middle" x="880" y="-7.5" font-family="Helvetica,sans-Serif" font-size="10.00">METHOD</text>
</a>
</g>
</g>
<!-- Node13&#45;&gt;Node14 -->
<g id="edge14" class="edge"><title>Node13&#45;&gt;Node14</title>
<path fill="none" stroke="midnightblue" d="M797.291,-10C815.816,-10 834.795,-10 849.794,-10"/>
<polygon fill="midnightblue" stroke="midnightblue" points="797.074,-6.5001 787.074,-10 797.074,-13.5001 797.074,-6.5001"/>
</g>
</g>
</svg>
        <g id="navigator" transform="translate(0 0)" fill="#404254">
                <rect fill="#f2f5e9" fill-opacity="0.5" stroke="#606060" stroke-width=".5" x="0" y="0" width="60" height="60"/>
                <use id="zoomplus" xlink:href="#zoomPlus" x="17" y="9" onmousedown="handleZoom(evt,'in')"/>
                <use id="zoomminus" xlink:href="#zoomMin" x="42" y="9" onmousedown="handleZoom(evt,'out')"/>
                <use id="reset" xlink:href="#resetDef" x="30" y="36" onmousedown="handleReset()"/>
                <g id="arrowUp" xlink:href="#dirArrow" transform="translate(30 24)" onmousedown="handlePan(0,-1)">
                  <use xlink:href="#rim" fill="#404040">
                        <set attributeName="fill" to="#808080" begin="arrowUp.mouseover" end="arrowUp.mouseout"/>
                  </use>
                  <path fill="none" stroke="white" stroke-width="1.5" d="M0,-3.0v7 M-2.5,-0.5L0,-3.0L2.5,-0.5"/>
                </g>
                <g id="arrowRight" xlink:href="#dirArrow" transform="rotate(90) translate(36 -43)" onmousedown="handlePan(1,0)">
                  <use xlink:href="#rim" fill="#404040">
                        <set attributeName="fill" to="#808080" begin="arrowRight.mouseover" end="arrowRight.mouseout"/>
                  </use>
                  <path fill="none" stroke="white" stroke-width="1.5" d="M0,-3.0v7 M-2.5,-0.5L0,-3.0L2.5,-0.5"/>
                </g>
                <g id="arrowDown" xlink:href="#dirArrow" transform="rotate(180) translate(-30 -48)" onmousedown="handlePan(0,1)">
                  <use xlink:href="#rim" fill="#404040">
                        <set attributeName="fill" to="#808080" begin="arrowDown.mouseover" end="arrowDown.mouseout"/>
                  </use>
                  <path fill="none" stroke="white" stroke-width="1.5" d="M0,-3.0v7 M-2.5,-0.5L0,-3.0L2.5,-0.5"/>
                </g>
                <g id="arrowLeft" xlink:href="#dirArrow" transform="rotate(270) translate(-36 17)" onmousedown="handlePan(-1,0)">
                  <use xlink:href="#rim" fill="#404040">
                        <set attributeName="fill" to="#808080" begin="arrowLeft.mouseover" end="arrowLeft.mouseout"/>
                  </use>
                  <path fill="none" stroke="white" stroke-width="1.5" d="M0,-3.0v7 M-2.5,-0.5L0,-3.0L2.5,-0.5"/>
                </g>
        </g>
        <svg viewBox="0 0 15 15" width="100%" height="30px" preserveAspectRatio="xMaxYMin meet">
         <g id="arrow_out" transform="scale(0.3 0.3)">
          <a xlink:href="group__crypter_gad57a5392774780be7f229745e8601cd2_icgraph_org.svg" target="_base">
           <rect id="button" ry="5" rx="5" y="6" x="6" height="38" width="38"
                fill="#f2f5e9" fill-opacity="0.5" stroke="#606060" stroke-width="1.0"/>
           <path id="arrow"
             d="M 11.500037,31.436501 C 11.940474,20.09759 22.043105,11.32322 32.158766,21.979434 L 37.068811,17.246167 C 37.068811,17.246167 37.088388,32 37.088388,32 L 22.160133,31.978069 C 22.160133,31.978069 26.997745,27.140456 26.997745,27.140456 C 18.528582,18.264221 13.291696,25.230495 11.500037,31.436501 z"
             style="fill:#404040;"/>
          </a>
         </g>
        </svg>
</svg>
