<?xml version="1.0" encoding="UTF-8" standalone="no"?>
<!DOCTYPE svg PUBLIC "-//W3C//DTD SVG 1.1//EN"
 "http://www.w3.org/Graphics/SVG/1.1/DTD/svg11.dtd">
<!-- Generated by graphviz version 2.36.0 (20140111.2315)
 -->
<!-- Title: ike_init_t Pages: 1 -->
<svg width="155pt" height="96pt"
 viewBox="0.00 0.00 155.00 96.00" xmlns="http://www.w3.org/2000/svg" xmlns:xlink="http://www.w3.org/1999/xlink">
<g id="graph0" class="graph" transform="scale(1 1) rotate(0) translate(4 92)">
<title>ike_init_t</title>
<!-- Node1 -->
<g id="node1" class="node"><title>Node1</title>
<polygon fill="#bfbfbf" stroke="black" points="24,-0.5 24,-19.5 80,-19.5 80,-0.5 24,-0.5"/>
<text text-anchor="middle" x="52" y="-7.5" font-family="Helvetica,sans-Serif" font-size="10.00">ike_init_t</text>
</g>
<!-- Node2 -->
<g id="node2" class="node"><title>Node2</title>
<polygon fill="none" stroke="#bfbfbf" points="-0.5,-68.5 -0.5,-87.5 40.5,-87.5 40.5,-68.5 -0.5,-68.5"/>
<text text-anchor="middle" x="20" y="-75.5" font-family="Helvetica,sans-Serif" font-size="10.00">struct</text>
</g>
<!-- Node2&#45;&gt;Node1 -->
<g id="edge1" class="edge"><title>Node2&#45;&gt;Node1</title>
<path fill="none" stroke="#9a32cd" stroke-dasharray="5,2" d="M28.6371,-59.1859C34.811,-46.4523 42.8554,-29.8607 47.7134,-19.8411"/>
<polygon fill="#9a32cd" stroke="#9a32cd" points="25.3969,-57.8465 24.1834,-68.3717 31.6956,-60.9005 25.3969,-57.8465"/>
<text text-anchor="middle" x="50" y="-41.5" font-family="Helvetica,sans-Serif" font-size="10.00"> task</text>
</g>
<!-- Node3 -->
<g id="node3" class="node"><title>Node3</title>
<g id="a_node3"><a xlink:href="../../d0/d14/structchunk__t.html" target="_top" xlink:title="chunk_t">
<polygon fill="none" stroke="black" points="58.5,-68.5 58.5,-87.5 109.5,-87.5 109.5,-68.5 58.5,-68.5"/>
<text text-anchor="middle" x="84" y="-75.5" font-family="Helvetica,sans-Serif" font-size="10.00">chunk_t</text>
</a>
</g>
</g>
<!-- Node3&#45;&gt;Node1 -->
<g id="edge2" class="edge"><title>Node3&#45;&gt;Node1</title>
<path fill="none" stroke="#9a32cd" stroke-dasharray="5,2" d="M75.3629,-59.1859C69.189,-46.4523 61.1446,-29.8607 56.2866,-19.8411"/>
<polygon fill="#9a32cd" stroke="#9a32cd" points="72.3044,-60.9005 79.8166,-68.3717 78.6031,-57.8465 72.3044,-60.9005"/>
<text text-anchor="middle" x="108.5" y="-41.5" font-family="Helvetica,sans-Serif" font-size="10.00"> get_lower_nonce</text>
</g>
</g>
</svg>
