<?xml version="1.0" encoding="UTF-8" standalone="no"?>
<!DOCTYPE svg PUBLIC "-//W3C//DTD SVG 1.1//EN"
 "http://www.w3.org/Graphics/SVG/1.1/DTD/svg11.dtd">
<!-- Generated by graphviz version 2.36.0 (20140111.2315)
 -->
<!-- Title: ha_socket_create Pages: 1 -->
<svg width="412pt" height="28pt"
 viewBox="0.00 0.00 412.00 28.00" xmlns="http://www.w3.org/2000/svg" xmlns:xlink="http://www.w3.org/1999/xlink">
<g id="graph0" class="graph" transform="scale(1 1) rotate(0) translate(4 24)">
<title>ha_socket_create</title>
<!-- Node1 -->
<g id="node1" class="node"><title>Node1</title>
<polygon fill="#bfbfbf" stroke="black" points="0,-0.5 0,-19.5 94,-19.5 94,-0.5 0,-0.5"/>
<text text-anchor="middle" x="47" y="-7.5" font-family="Helvetica,sans-Serif" font-size="10.00">ha_socket_create</text>
</g>
<!-- Node2 -->
<g id="node2" class="node"><title>Node2</title>
<g id="a_node2"><a xlink:href="../../d2/dbc/ha__plugin_8c.html#ac3b62ac20197d1c242926fae531a3bfa" target="_top" xlink:title="initialize_plugin">
<polygon fill="none" stroke="black" points="130.5,-0.5 130.5,-19.5 213.5,-19.5 213.5,-0.5 130.5,-0.5"/>
<text text-anchor="middle" x="172" y="-7.5" font-family="Helvetica,sans-Serif" font-size="10.00">initialize_plugin</text>
</a>
</g>
</g>
<!-- Node1&#45;&gt;Node2 -->
<g id="edge1" class="edge"><title>Node1&#45;&gt;Node2</title>
<path fill="none" stroke="midnightblue" d="M104.309,-10C113.054,-10 121.939,-10 130.252,-10"/>
<polygon fill="midnightblue" stroke="midnightblue" points="104.151,-6.5001 94.1506,-10 104.151,-13.5001 104.151,-6.5001"/>
</g>
<!-- Node3 -->
<g id="node3" class="node"><title>Node3</title>
<g id="a_node3"><a xlink:href="../../d2/dbc/ha__plugin_8c.html#ac04b0147cc74be4316f3db3a9aa6b4a6" target="_top" xlink:title="plugin_cb">
<polygon fill="none" stroke="black" points="250,-0.5 250,-19.5 308,-19.5 308,-0.5 250,-0.5"/>
<text text-anchor="middle" x="279" y="-7.5" font-family="Helvetica,sans-Serif" font-size="10.00">plugin_cb</text>
</a>
</g>
</g>
<!-- Node2&#45;&gt;Node3 -->
<g id="edge2" class="edge"><title>Node2&#45;&gt;Node3</title>
<path fill="none" stroke="midnightblue" d="M223.681,-10C232.69,-10 241.771,-10 249.861,-10"/>
<polygon fill="midnightblue" stroke="midnightblue" points="223.596,-6.5001 213.596,-10 223.596,-13.5001 223.596,-6.5001"/>
</g>
<!-- Node4 -->
<g id="node4" class="node"><title>Node4</title>
<g id="a_node4"><a xlink:href="../../d2/dbc/ha__plugin_8c.html#ab76e28aa86319749526a5d4a267616e2" target="_top" xlink:title="METHOD">
<polygon fill="none" stroke="black" points="344,-0.5 344,-19.5 404,-19.5 404,-0.5 344,-0.5"/>
<text text-anchor="middle" x="374" y="-7.5" font-family="Helvetica,sans-Serif" font-size="10.00">METHOD</text>
</a>
</g>
</g>
<!-- Node3&#45;&gt;Node4 -->
<g id="edge3" class="edge"><title>Node3&#45;&gt;Node4</title>
<path fill="none" stroke="midnightblue" d="M318.337,-10C326.905,-10 335.856,-10 343.975,-10"/>
<polygon fill="midnightblue" stroke="midnightblue" points="318.155,-6.5001 308.155,-10 318.155,-13.5001 318.155,-6.5001"/>
</g>
</g>
</svg>
