<?xml version="1.0" encoding="UTF-8" standalone="no"?>
<!DOCTYPE svg PUBLIC "-//W3C//DTD SVG 1.1//EN"
 "http://www.w3.org/Graphics/SVG/1.1/DTD/svg11.dtd">
<!-- Generated by graphviz version 2.36.0 (20140111.2315)
 -->
<!-- Title: METHOD Pages: 1 -->
<svg width="1160pt" height="713pt"
 viewBox="0.00 0.00 1160.00 713.00" xmlns="http://www.w3.org/2000/svg" xmlns:xlink="http://www.w3.org/1999/xlink">
<g id="graph0" class="graph" transform="scale(1 1) rotate(0) translate(4 709)">
<title>METHOD</title>
<!-- Node1 -->
<g id="node1" class="node"><title>Node1</title>
<polygon fill="#bfbfbf" stroke="black" points="0,-367.5 0,-386.5 60,-386.5 60,-367.5 0,-367.5"/>
<text text-anchor="middle" x="30" y="-374.5" font-family="Helvetica,sans-Serif" font-size="10.00">METHOD</text>
</g>
<!-- Node2 -->
<g id="node2" class="node"><title>Node2</title>
<g id="a_node2"><a xlink:href="../../d7/d58/quick__mode_8c.html#aee746a3945fc8a384a559990b5a8e27b" target="_top" xlink:title="apply_lifetimes">
<polygon fill="none" stroke="black" points="96,-481.5 96,-500.5 178,-500.5 178,-481.5 96,-481.5"/>
<text text-anchor="middle" x="137" y="-488.5" font-family="Helvetica,sans-Serif" font-size="10.00">apply_lifetimes</text>
</a>
</g>
</g>
<!-- Node1&#45;&gt;Node2 -->
<g id="edge1" class="edge"><title>Node1&#45;&gt;Node2</title>
<path fill="none" stroke="midnightblue" d="M36.1993,-386.644C46.0484,-404.256 68.8858,-442.099 96,-467 99.6125,-470.318 103.754,-473.409 107.973,-476.195"/>
<polygon fill="midnightblue" stroke="midnightblue" points="106.237,-479.235 116.595,-481.46 109.885,-473.261 106.237,-479.235"/>
</g>
<!-- Node3 -->
<g id="node3" class="node"><title>Node3</title>
<g id="a_node3"><a xlink:href="../../dc/d21/daemon_8c.html#a1e824dfeaa337e709772cb0c8e6c8dcc" target="_top" xlink:title="destroy">
<polygon fill="none" stroke="black" points="246.5,-455.5 246.5,-474.5 295.5,-474.5 295.5,-455.5 246.5,-455.5"/>
<text text-anchor="middle" x="271" y="-462.5" font-family="Helvetica,sans-Serif" font-size="10.00">destroy</text>
</a>
</g>
</g>
<!-- Node1&#45;&gt;Node3 -->
<g id="edge2" class="edge"><title>Node1&#45;&gt;Node3</title>
<path fill="none" stroke="midnightblue" d="M39.1007,-386.867C50.3975,-399.905 72.1922,-422.555 96,-434 141.306,-455.78 199.884,-462.379 236.193,-464.308"/>
<polygon fill="midnightblue" stroke="midnightblue" points="236.116,-467.808 246.261,-464.753 236.425,-460.815 236.116,-467.808"/>
</g>
<!-- Node26 -->
<g id="node26" class="node"><title>Node26</title>
<g id="a_node26"><a xlink:href="../../d7/d58/quick__mode_8c.html#a2dc4d12287849a47a15bcb9740d14d90" target="_top" xlink:title="get_ke">
<polygon fill="none" stroke="black" points="114,-405.5 114,-424.5 160,-424.5 160,-405.5 114,-405.5"/>
<text text-anchor="middle" x="137" y="-412.5" font-family="Helvetica,sans-Serif" font-size="10.00">get_ke</text>
</a>
</g>
</g>
<!-- Node1&#45;&gt;Node26 -->
<g id="edge34" class="edge"><title>Node1&#45;&gt;Node26</title>
<path fill="none" stroke="midnightblue" d="M57.4959,-386.589C71.6133,-391.698 89.087,-398.022 103.962,-403.405"/>
<polygon fill="midnightblue" stroke="midnightblue" points="103.178,-406.844 113.772,-406.956 105.56,-400.261 103.178,-406.844"/>
</g>
<!-- Node27 -->
<g id="node27" class="node"><title>Node27</title>
<g id="a_node27"><a xlink:href="../../d7/d58/quick__mode_8c.html#a87cc981fc621672bd2e57deb47a12f15" target="_top" xlink:title="get_nonce">
<polygon fill="none" stroke="black" points="106,-367.5 106,-386.5 168,-386.5 168,-367.5 106,-367.5"/>
<text text-anchor="middle" x="137" y="-374.5" font-family="Helvetica,sans-Serif" font-size="10.00">get_nonce</text>
</a>
</g>
</g>
<!-- Node1&#45;&gt;Node27 -->
<g id="edge35" class="edge"><title>Node1&#45;&gt;Node27</title>
<path fill="none" stroke="midnightblue" d="M60.2484,-377C71.2307,-377 83.9141,-377 95.7238,-377"/>
<polygon fill="midnightblue" stroke="midnightblue" points="95.8123,-380.5 105.812,-377 95.8123,-373.5 95.8123,-380.5"/>
</g>
<!-- Node28 -->
<g id="node28" class="node"><title>Node28</title>
<g id="a_node28"><a xlink:href="../../d7/d58/quick__mode_8c.html#acf11ea987c12f6d1480eff581461eb89" target="_top" xlink:title="get_ts">
<polygon fill="none" stroke="black" points="115,-329.5 115,-348.5 159,-348.5 159,-329.5 115,-329.5"/>
<text text-anchor="middle" x="137" y="-336.5" font-family="Helvetica,sans-Serif" font-size="10.00">get_ts</text>
</a>
</g>
</g>
<!-- Node1&#45;&gt;Node28 -->
<g id="edge36" class="edge"><title>Node1&#45;&gt;Node28</title>
<path fill="none" stroke="midnightblue" d="M57.4959,-367.411C72.0481,-362.144 90.1664,-355.587 105.329,-350.1"/>
<polygon fill="midnightblue" stroke="midnightblue" points="106.587,-353.367 114.799,-346.673 104.205,-346.785 106.587,-353.367"/>
</g>
<!-- Node32 -->
<g id="node32" class="node"><title>Node32</title>
<g id="a_node32"><a xlink:href="../../d7/d58/quick__mode_8c.html#a31e06d75bdbfbe09ac1c0d6ec017e294" target="_top" xlink:title="install">
<polygon fill="none" stroke="black" points="116,-268.5 116,-287.5 158,-287.5 158,-268.5 116,-268.5"/>
<text text-anchor="middle" x="137" y="-275.5" font-family="Helvetica,sans-Serif" font-size="10.00">install</text>
</a>
</g>
</g>
<!-- Node1&#45;&gt;Node32 -->
<g id="edge41" class="edge"><title>Node1&#45;&gt;Node32</title>
<path fill="none" stroke="midnightblue" d="M41.4517,-367.146C59.4691,-350.158 96.5547,-315.191 118.544,-294.458"/>
<polygon fill="midnightblue" stroke="midnightblue" points="121.025,-296.93 125.899,-287.523 116.222,-291.837 121.025,-296.93"/>
</g>
<!-- Node43 -->
<g id="node43" class="node"><title>Node43</title>
<g id="a_node43"><a xlink:href="../../d7/d58/quick__mode_8c.html#aa07381b601b0c2cfae2a010f5aa5f17f" target="_top" xlink:title="send_notify">
<polygon fill="none" stroke="black" points="538.5,-68.5 538.5,-87.5 605.5,-87.5 605.5,-68.5 538.5,-68.5"/>
<text text-anchor="middle" x="572" y="-75.5" font-family="Helvetica,sans-Serif" font-size="10.00">send_notify</text>
</a>
</g>
</g>
<!-- Node1&#45;&gt;Node43 -->
<g id="edge57" class="edge"><title>Node1&#45;&gt;Node43</title>
<path fill="none" stroke="midnightblue" d="M34.9144,-367.466C43.7944,-346.503 66.9676,-295.378 96,-259 139.79,-204.13 151.47,-185.909 214,-154 318.556,-100.644 458.722,-84.7115 528.218,-79.9802"/>
<polygon fill="midnightblue" stroke="midnightblue" points="528.59,-83.4637 538.348,-79.3366 528.146,-76.4778 528.59,-83.4637"/>
</g>
<!-- Node4 -->
<g id="node4" class="node"><title>Node4</title>
<g id="a_node4"><a xlink:href="../../da/dfc/settings__parser_8c.html#af07d89f5ceaea0c7c8252cc41fd75f37" target="_top" xlink:title="free">
<polygon fill="none" stroke="black" points="1118.5,-353.5 1118.5,-372.5 1151.5,-372.5 1151.5,-353.5 1118.5,-353.5"/>
<text text-anchor="middle" x="1135" y="-360.5" font-family="Helvetica,sans-Serif" font-size="10.00">free</text>
</a>
</g>
</g>
<!-- Node3&#45;&gt;Node4 -->
<g id="edge3" class="edge"><title>Node3&#45;&gt;Node4</title>
<path fill="none" stroke="midnightblue" d="M275.864,-474.81C286.358,-500.33 317.74,-569.604 364,-610 440.247,-676.582 469.774,-705 571,-705 571,-705 571,-705 886,-705 1046.47,-705 1113.8,-455.184 1129.98,-382.571"/>
<polygon fill="midnightblue" stroke="midnightblue" points="1133.46,-383.016 1132.14,-372.504 1126.62,-381.545 1133.46,-383.016"/>
</g>
<!-- Node5 -->
<g id="node5" class="node"><title>Node5</title>
<g id="a_node5"><a xlink:href="../../dc/d21/daemon_8c.html#a1b7023117168a75858bd535a56e709e2" target="_top" xlink:title="logger_entry_destroy">
<polygon fill="none" stroke="black" points="831.5,-543.5 831.5,-562.5 938.5,-562.5 938.5,-543.5 831.5,-543.5"/>
<text text-anchor="middle" x="885" y="-550.5" font-family="Helvetica,sans-Serif" font-size="10.00">logger_entry_destroy</text>
</a>
</g>
</g>
<!-- Node3&#45;&gt;Node5 -->
<g id="edge4" class="edge"><title>Node3&#45;&gt;Node5</title>
<path fill="none" stroke="midnightblue" d="M280.372,-474.806C308.917,-507.384 406.633,-611.975 514,-648 642.913,-691.254 802.667,-604.286 861.17,-567.942"/>
<polygon fill="midnightblue" stroke="midnightblue" points="863.086,-570.871 869.67,-562.571 859.347,-564.954 863.086,-570.871"/>
</g>
<!-- Node6 -->
<g id="node6" class="node"><title>Node6</title>
<g id="a_node6"><a xlink:href="../../d9/d32/connect__manager_8c.html#a3b4dd773d88779165dc7243cb4e4fbee" target="_top" xlink:title="sender">
<polygon fill="none" stroke="black" points="398,-455.5 398,-474.5 444,-474.5 444,-455.5 398,-455.5"/>
<text text-anchor="middle" x="421" y="-462.5" font-family="Helvetica,sans-Serif" font-size="10.00">sender</text>
</a>
</g>
</g>
<!-- Node3&#45;&gt;Node6 -->
<g id="edge6" class="edge"><title>Node3&#45;&gt;Node6</title>
<path fill="none" stroke="midnightblue" d="M295.779,-465C320.593,-465 359.674,-465 387.367,-465"/>
<polygon fill="midnightblue" stroke="midnightblue" points="387.733,-468.5 397.733,-465 387.733,-461.5 387.733,-468.5"/>
</g>
<!-- Node5&#45;&gt;Node4 -->
<g id="edge5" class="edge"><title>Node5&#45;&gt;Node4</title>
<path fill="none" stroke="midnightblue" d="M898.639,-543.317C938.772,-512.57 1063.59,-416.945 1113.28,-378.873"/>
<polygon fill="midnightblue" stroke="midnightblue" points="1115.58,-381.524 1121.39,-372.664 1111.32,-375.967 1115.58,-381.524"/>
</g>
<!-- Node7 -->
<g id="node7" class="node"><title>Node7</title>
<g id="a_node7"><a xlink:href="../../d9/d32/connect__manager_8c.html#ad295327b74b1c4e19a7096ad2979765b" target="_top" xlink:title="check_create">
<polygon fill="none" stroke="black" points="534.5,-619.5 534.5,-638.5 609.5,-638.5 609.5,-619.5 534.5,-619.5"/>
<text text-anchor="middle" x="572" y="-626.5" font-family="Helvetica,sans-Serif" font-size="10.00">check_create</text>
</a>
</g>
</g>
<!-- Node6&#45;&gt;Node7 -->
<g id="edge7" class="edge"><title>Node6&#45;&gt;Node7</title>
<path fill="none" stroke="midnightblue" d="M425.887,-474.55C436.437,-499.378 467.944,-566.68 514,-605 518.706,-608.916 524.143,-612.277 529.752,-615.138"/>
<polygon fill="midnightblue" stroke="midnightblue" points="528.706,-618.509 539.256,-619.488 531.62,-612.144 528.706,-618.509"/>
</g>
<!-- Node8 -->
<g id="node8" class="node"><title>Node8</title>
<g id="a_node8"><a xlink:href="../../d9/d32/connect__manager_8c.html#a204f99a4a38f8c08c42cd120bcf1b9f7" target="_top" xlink:title="check_destroy">
<polygon fill="none" stroke="black" points="845,-391.5 845,-410.5 925,-410.5 925,-391.5 845,-391.5"/>
<text text-anchor="middle" x="885" y="-398.5" font-family="Helvetica,sans-Serif" font-size="10.00">check_destroy</text>
</a>
</g>
</g>
<!-- Node6&#45;&gt;Node8 -->
<g id="edge8" class="edge"><title>Node6&#45;&gt;Node8</title>
<path fill="none" stroke="midnightblue" d="M426.754,-474.741C438.166,-496.856 469.506,-550.525 514,-571 570.121,-596.826 738.968,-603.688 792,-572 820.751,-554.82 860.296,-461.289 876.558,-420.282"/>
<polygon fill="midnightblue" stroke="midnightblue" points="879.863,-421.44 880.253,-410.852 873.346,-418.886 879.863,-421.44"/>
</g>
<!-- Node10 -->
<g id="node10" class="node"><title>Node10</title>
<g id="a_node10"><a xlink:href="../../d7/d87/group__endpoint__notify.html#ga89474ccd935bd6aeb2db5ae84c2fcbcf" target="_top" xlink:title="endpoint_notify_create\l_from_host">
<polygon fill="none" stroke="black" points="514.5,-532 514.5,-562 629.5,-562 629.5,-532 514.5,-532"/>
<text text-anchor="start" x="522.5" y="-550" font-family="Helvetica,sans-Serif" font-size="10.00">endpoint_notify_create</text>
<text text-anchor="middle" x="572" y="-539" font-family="Helvetica,sans-Serif" font-size="10.00">_from_host</text>
</a>
</g>
</g>
<!-- Node6&#45;&gt;Node10 -->
<g id="edge12" class="edge"><title>Node6&#45;&gt;Node10</title>
<path fill="none" stroke="midnightblue" d="M435.976,-474.526C453.697,-486.4 485.394,-506.962 514,-522 517.658,-523.923 521.496,-525.83 525.378,-527.682"/>
<polygon fill="midnightblue" stroke="midnightblue" points="523.907,-530.858 534.452,-531.887 526.85,-524.507 523.907,-530.858"/>
</g>
<!-- Node12 -->
<g id="node12" class="node"><title>Node12</title>
<g id="a_node12"><a xlink:href="../../d9/d32/connect__manager_8c.html#a7f4c528dceb6dc21cbeeb405365db27d" target="_top" xlink:title="get_checklist_by_id">
<polygon fill="none" stroke="black" points="520.5,-493.5 520.5,-512.5 623.5,-512.5 623.5,-493.5 520.5,-493.5"/>
<text text-anchor="middle" x="572" y="-500.5" font-family="Helvetica,sans-Serif" font-size="10.00">get_checklist_by_id</text>
</a>
</g>
</g>
<!-- Node6&#45;&gt;Node12 -->
<g id="edge14" class="edge"><title>Node6&#45;&gt;Node12</title>
<path fill="none" stroke="midnightblue" d="M444.307,-470.689C465.183,-476.013 497.048,-484.14 523.597,-490.911"/>
<polygon fill="midnightblue" stroke="midnightblue" points="522.923,-494.351 533.478,-493.431 524.653,-487.568 522.923,-494.351"/>
</g>
<!-- Node14 -->
<g id="node14" class="node"><title>Node14</title>
<g id="a_node14"><a xlink:href="../../d9/d32/connect__manager_8c.html#a0c6f96218c9be021da288127130acaea" target="_top" xlink:title="get_triggered_pair">
<polygon fill="none" stroke="black" points="525,-455.5 525,-474.5 619,-474.5 619,-455.5 525,-455.5"/>
<text text-anchor="middle" x="572" y="-462.5" font-family="Helvetica,sans-Serif" font-size="10.00">get_triggered_pair</text>
</a>
</g>
</g>
<!-- Node6&#45;&gt;Node14 -->
<g id="edge16" class="edge"><title>Node6&#45;&gt;Node14</title>
<path fill="none" stroke="midnightblue" d="M444.307,-465C462.847,-465 490.054,-465 514.508,-465"/>
<polygon fill="midnightblue" stroke="midnightblue" points="514.786,-468.5 524.786,-465 514.786,-461.5 514.786,-468.5"/>
</g>
<!-- Node15 -->
<g id="node15" class="node"><title>Node15</title>
<g id="a_node15"><a xlink:href="../../d9/d32/connect__manager_8c.html#a7bcdfc183dd5ea52c1db9112000121eb" target="_top" xlink:title="match_waiting_pair">
<polygon fill="none" stroke="black" points="521.5,-417.5 521.5,-436.5 622.5,-436.5 622.5,-417.5 521.5,-417.5"/>
<text text-anchor="middle" x="572" y="-424.5" font-family="Helvetica,sans-Serif" font-size="10.00">match_waiting_pair</text>
</a>
</g>
</g>
<!-- Node6&#45;&gt;Node15 -->
<g id="edge17" class="edge"><title>Node6&#45;&gt;Node15</title>
<path fill="none" stroke="midnightblue" d="M444.307,-459.311C465.183,-453.987 497.048,-445.86 523.597,-439.089"/>
<polygon fill="midnightblue" stroke="midnightblue" points="524.653,-442.432 533.478,-436.569 522.923,-435.649 524.653,-442.432"/>
</g>
<!-- Node16 -->
<g id="node16" class="node"><title>Node16</title>
<g id="a_node16"><a xlink:href="../../d9/d32/connect__manager_8c.html#ab04c347706d661bcbd52ba901be05697" target="_top" xlink:title="schedule_checks">
<polygon fill="none" stroke="black" points="526,-379.5 526,-398.5 618,-398.5 618,-379.5 526,-379.5"/>
<text text-anchor="middle" x="572" y="-386.5" font-family="Helvetica,sans-Serif" font-size="10.00">schedule_checks</text>
</a>
</g>
</g>
<!-- Node6&#45;&gt;Node16 -->
<g id="edge18" class="edge"><title>Node6&#45;&gt;Node16</title>
<path fill="none" stroke="midnightblue" d="M428.84,-455.143C443.7,-440.251 480.312,-414.786 514,-399 514.826,-398.613 515.663,-398.23 516.508,-397.851"/>
<polygon fill="midnightblue" stroke="midnightblue" points="517.905,-401.061 525.809,-394.006 515.231,-394.592 517.905,-401.061"/>
</g>
<!-- Node21 -->
<g id="node21" class="node"><title>Node21</title>
<g id="a_node21"><a xlink:href="../../d9/d32/connect__manager_8c.html#a84c6b0f36d7353c32bb874be21759a5f" target="_top" xlink:title="send_check">
<polygon fill="none" stroke="black" points="537.5,-315.5 537.5,-334.5 606.5,-334.5 606.5,-315.5 537.5,-315.5"/>
<text text-anchor="middle" x="572" y="-322.5" font-family="Helvetica,sans-Serif" font-size="10.00">send_check</text>
</a>
</g>
</g>
<!-- Node6&#45;&gt;Node21 -->
<g id="edge26" class="edge"><title>Node6&#45;&gt;Node21</title>
<path fill="none" stroke="midnightblue" d="M434.11,-455.201C445.826,-445.492 463.838,-429.95 478,-415 495.614,-396.406 495.831,-388.052 514,-370 524.727,-359.342 537.914,-348.793 548.902,-340.591"/>
<polygon fill="midnightblue" stroke="midnightblue" points="551.146,-343.286 557.153,-334.558 547.014,-337.635 551.146,-343.286"/>
</g>
<!-- Node8&#45;&gt;Node4 -->
<g id="edge11" class="edge"><title>Node8&#45;&gt;Node4</title>
<path fill="none" stroke="midnightblue" d="M925.302,-397.831C965.058,-394.242 1028.16,-387.489 1082,-377 1090.74,-375.297 1100.18,-372.922 1108.58,-370.612"/>
<polygon fill="midnightblue" stroke="midnightblue" points="1109.54,-373.978 1118.21,-367.876 1107.63,-367.245 1109.54,-373.978"/>
</g>
<!-- Node9 -->
<g id="node9" class="node"><title>Node9</title>
<g id="a_node9"><a xlink:href="../../d4/d87/group__chunk.html#gaa86c84493369a4254d5801cdca20d458" target="_top" xlink:title="chunk_free">
<polygon fill="none" stroke="black" points="997.5,-315.5 997.5,-334.5 1062.5,-334.5 1062.5,-315.5 997.5,-315.5"/>
<text text-anchor="middle" x="1030" y="-322.5" font-family="Helvetica,sans-Serif" font-size="10.00">chunk_free</text>
</a>
</g>
</g>
<!-- Node8&#45;&gt;Node9 -->
<g id="edge9" class="edge"><title>Node8&#45;&gt;Node9</title>
<path fill="none" stroke="midnightblue" d="M918.837,-391.408C926.586,-388.724 934.709,-385.554 942,-382 966.051,-370.277 991.406,-353.029 1008.5,-340.579"/>
<polygon fill="midnightblue" stroke="midnightblue" points="1010.68,-343.322 1016.63,-334.561 1006.51,-337.695 1010.68,-343.322"/>
</g>
<!-- Node9&#45;&gt;Node4 -->
<g id="edge10" class="edge"><title>Node9&#45;&gt;Node4</title>
<path fill="none" stroke="midnightblue" d="M1056.99,-334.589C1072.83,-340.433 1092.98,-347.865 1108.69,-353.662"/>
<polygon fill="midnightblue" stroke="midnightblue" points="1107.69,-357.025 1118.29,-357.203 1110.12,-350.458 1107.69,-357.025"/>
</g>
<!-- Node11 -->
<g id="node11" class="node"><title>Node11</title>
<g id="a_node11"><a xlink:href="../../da/d0c/endpoint__notify_8c.html#a55fdd0651a0e929c599c0ffd77626082" target="_top" xlink:title="endpoint_notify_create">
<polygon fill="none" stroke="black" points="671.5,-543.5 671.5,-562.5 786.5,-562.5 786.5,-543.5 671.5,-543.5"/>
<text text-anchor="middle" x="729" y="-550.5" font-family="Helvetica,sans-Serif" font-size="10.00">endpoint_notify_create</text>
</a>
</g>
</g>
<!-- Node10&#45;&gt;Node11 -->
<g id="edge13" class="edge"><title>Node10&#45;&gt;Node11</title>
<path fill="none" stroke="midnightblue" d="M629.836,-549.2C640.01,-549.594 650.696,-550.008 661.121,-550.411"/>
<polygon fill="midnightblue" stroke="midnightblue" points="661.302,-553.921 671.43,-550.81 661.573,-546.926 661.302,-553.921"/>
</g>
<!-- Node13 -->
<g id="node13" class="node"><title>Node13</title>
<g id="a_node13"><a xlink:href="../../d9/d32/connect__manager_8c.html#a48e6c7d1bc525dc1f2627c117ec8fcdf" target="_top" xlink:title="match_checklist_by_id">
<polygon fill="none" stroke="red" points="671,-505.5 671,-524.5 787,-524.5 787,-505.5 671,-505.5"/>
<text text-anchor="middle" x="729" y="-512.5" font-family="Helvetica,sans-Serif" font-size="10.00">match_checklist_by_id</text>
</a>
</g>
</g>
<!-- Node12&#45;&gt;Node13 -->
<g id="edge15" class="edge"><title>Node12&#45;&gt;Node13</title>
<path fill="none" stroke="midnightblue" d="M623.753,-506.929C635.548,-507.842 648.285,-508.829 660.67,-509.787"/>
<polygon fill="midnightblue" stroke="midnightblue" points="660.721,-513.302 670.961,-510.584 661.261,-506.323 660.721,-513.302"/>
</g>
<!-- Node16&#45;&gt;Node6 -->
<g id="edge25" class="edge"><title>Node16&#45;&gt;Node6</title>
<path fill="none" stroke="midnightblue" d="M559.778,-398.623C548.063,-404.126 529.302,-409.83 514,-417 492.702,-426.98 470.235,-440.829 452.835,-451.325"/>
<polygon fill="midnightblue" stroke="midnightblue" points="451.017,-448.333 444.231,-456.469 454.61,-454.341 451.017,-448.333"/>
</g>
<!-- Node17 -->
<g id="node17" class="node"><title>Node17</title>
<g id="a_node17"><a xlink:href="../../d9/d32/connect__manager_8c.html#a77eb11570d14635d5e6f46bc56b6efcf" target="_top" xlink:title="callback_data_create">
<polygon fill="none" stroke="black" points="674.5,-467.5 674.5,-486.5 783.5,-486.5 783.5,-467.5 674.5,-467.5"/>
<text text-anchor="middle" x="729" y="-474.5" font-family="Helvetica,sans-Serif" font-size="10.00">callback_data_create</text>
</a>
</g>
</g>
<!-- Node16&#45;&gt;Node17 -->
<g id="edge19" class="edge"><title>Node16&#45;&gt;Node17</title>
<path fill="none" stroke="midnightblue" d="M611.853,-398.588C618.223,-401.085 624.524,-404.182 630,-408 651.009,-422.65 645.345,-437.855 666,-453 671.566,-457.081 677.914,-460.565 684.376,-463.509"/>
<polygon fill="midnightblue" stroke="midnightblue" points="683.269,-466.838 693.847,-467.44 685.953,-460.373 683.269,-466.838"/>
</g>
<!-- Node18 -->
<g id="node18" class="node"><title>Node18</title>
<g id="a_node18"><a xlink:href="../../d9/d32/connect__manager_8c.html#a4674a63e69fa1940f68b6d6d4532d1dc" target="_top" xlink:title="callback_data_destroy">
<polygon fill="none" stroke="black" points="828,-353.5 828,-372.5 942,-372.5 942,-353.5 828,-353.5"/>
<text text-anchor="middle" x="885" y="-360.5" font-family="Helvetica,sans-Serif" font-size="10.00">callback_data_destroy</text>
</a>
</g>
</g>
<!-- Node16&#45;&gt;Node18 -->
<g id="edge20" class="edge"><title>Node16&#45;&gt;Node18</title>
<path fill="none" stroke="midnightblue" d="M599.853,-398.608C618.211,-404.652 643.245,-411.879 666,-415 721.481,-422.609 739.809,-435.301 792,-415 812.229,-407.131 809.323,-393.057 828,-382 831.578,-379.882 835.425,-377.958 839.368,-376.221"/>
<polygon fill="midnightblue" stroke="midnightblue" points="840.674,-379.468 848.655,-372.501 838.071,-372.97 840.674,-379.468"/>
</g>
<!-- Node19 -->
<g id="node19" class="node"><title>Node19</title>
<g id="a_node19"><a xlink:href="../../d0/d8f/group__callback__job.html#ga6934f856d27d82413610263e27a5cfa1" target="_top" xlink:title="callback_job_create">
<polygon fill="none" stroke="black" points="833.5,-315.5 833.5,-334.5 936.5,-334.5 936.5,-315.5 833.5,-315.5"/>
<text text-anchor="middle" x="885" y="-322.5" font-family="Helvetica,sans-Serif" font-size="10.00">callback_job_create</text>
</a>
</g>
</g>
<!-- Node16&#45;&gt;Node19 -->
<g id="edge23" class="edge"><title>Node16&#45;&gt;Node19</title>
<path fill="none" stroke="midnightblue" d="M618.012,-397.191C663.916,-403.394 736.133,-407.095 792,-382 813.222,-372.467 808.411,-356.55 828,-344 831.123,-341.999 834.48,-340.185 837.942,-338.544"/>
<polygon fill="midnightblue" stroke="midnightblue" points="839.421,-341.719 847.265,-334.598 836.692,-335.273 839.421,-341.719"/>
</g>
<!-- Node18&#45;&gt;Node4 -->
<g id="edge22" class="edge"><title>Node18&#45;&gt;Node4</title>
<path fill="none" stroke="midnightblue" d="M942.275,-363C994.285,-363 1069.22,-363 1108.22,-363"/>
<polygon fill="midnightblue" stroke="midnightblue" points="1108.44,-366.5 1118.44,-363 1108.44,-359.5 1108.44,-366.5"/>
</g>
<!-- Node18&#45;&gt;Node9 -->
<g id="edge21" class="edge"><title>Node18&#45;&gt;Node9</title>
<path fill="none" stroke="midnightblue" d="M922.085,-353.411C941.994,-348.12 966.804,-341.527 987.512,-336.025"/>
<polygon fill="midnightblue" stroke="midnightblue" points="988.542,-339.373 997.308,-333.422 986.745,-332.607 988.542,-339.373"/>
</g>
<!-- Node20 -->
<g id="node20" class="node"><title>Node20</title>
<g id="a_node20"><a xlink:href="../../d0/d8f/group__callback__job.html#gadfa6801d50c2e34bb3f9e1c98efe02d0" target="_top" xlink:title="callback_job_create\l_with_prio">
<polygon fill="none" stroke="red" points="978.5,-253 978.5,-283 1081.5,-283 1081.5,-253 978.5,-253"/>
<text text-anchor="start" x="986.5" y="-271" font-family="Helvetica,sans-Serif" font-size="10.00">callback_job_create</text>
<text text-anchor="middle" x="1030" y="-260" font-family="Helvetica,sans-Serif" font-size="10.00">_with_prio</text>
</a>
</g>
</g>
<!-- Node19&#45;&gt;Node20 -->
<g id="edge24" class="edge"><title>Node19&#45;&gt;Node20</title>
<path fill="none" stroke="midnightblue" d="M915.813,-315.407C924.325,-312.527 933.575,-309.262 942,-306 956.736,-300.294 972.637,-293.532 986.763,-287.305"/>
<polygon fill="midnightblue" stroke="midnightblue" points="988.508,-290.36 996.224,-283.1 985.664,-283.964 988.508,-290.36"/>
</g>
<!-- Node22 -->
<g id="node22" class="node"><title>Node22</title>
<g id="a_node22"><a xlink:href="../../d9/d32/connect__manager_8c.html#aedcaf4b4ca6bc58701b4c01f1e6c3b54" target="_top" xlink:title="build_signature">
<polygon fill="none" stroke="black" points="844,-277.5 844,-296.5 926,-296.5 926,-277.5 844,-277.5"/>
<text text-anchor="middle" x="885" y="-284.5" font-family="Helvetica,sans-Serif" font-size="10.00">build_signature</text>
</a>
</g>
</g>
<!-- Node21&#45;&gt;Node22 -->
<g id="edge27" class="edge"><title>Node21&#45;&gt;Node22</title>
<path fill="none" stroke="midnightblue" d="M606.848,-317.113C624.411,-313.267 646.267,-308.866 666,-306 723.082,-297.709 789.135,-292.57 833.441,-289.76"/>
<polygon fill="midnightblue" stroke="midnightblue" points="833.896,-293.238 843.661,-289.128 833.464,-286.251 833.896,-293.238"/>
</g>
<!-- Node23 -->
<g id="node23" class="node"><title>Node23</title>
<g id="a_node23"><a xlink:href="../../d1/d7f/group__ike__sa__id.html#gaa080d65d35119ab2dd69b73309c14566" target="_top" xlink:title="ike_sa_id_create">
<polygon fill="none" stroke="black" points="684,-239.5 684,-258.5 774,-258.5 774,-239.5 684,-239.5"/>
<text text-anchor="middle" x="729" y="-246.5" font-family="Helvetica,sans-Serif" font-size="10.00">ike_sa_id_create</text>
</a>
</g>
</g>
<!-- Node21&#45;&gt;Node23 -->
<g id="edge29" class="edge"><title>Node21&#45;&gt;Node23</title>
<path fill="none" stroke="midnightblue" d="M599.804,-315.403C609.581,-311.469 620.549,-306.535 630,-301 647.491,-290.757 648.361,-282.987 666,-273 673.062,-269.001 680.922,-265.389 688.609,-262.252"/>
<polygon fill="midnightblue" stroke="midnightblue" points="690.122,-265.419 698.18,-258.539 687.591,-258.893 690.122,-265.419"/>
</g>
<!-- Node24 -->
<g id="node24" class="node"><title>Node24</title>
<g id="a_node24"><a xlink:href="../../de/d9a/group__message.html#gac4bba880d7840360ecb8e4137526420b" target="_top" xlink:title="message_create">
<polygon fill="none" stroke="red" points="684.5,-353.5 684.5,-372.5 773.5,-372.5 773.5,-353.5 684.5,-353.5"/>
<text text-anchor="middle" x="729" y="-360.5" font-family="Helvetica,sans-Serif" font-size="10.00">message_create</text>
</a>
</g>
</g>
<!-- Node21&#45;&gt;Node24 -->
<g id="edge30" class="edge"><title>Node21&#45;&gt;Node24</title>
<path fill="none" stroke="midnightblue" d="M606.633,-333.245C627.901,-338.46 655.742,-345.285 679.393,-351.084"/>
<polygon fill="midnightblue" stroke="midnightblue" points="678.696,-354.516 689.242,-353.498 680.363,-347.717 678.696,-354.516"/>
</g>
<!-- Node25 -->
<g id="node25" class="node"><title>Node25</title>
<g id="a_node25"><a xlink:href="../../d9/d32/connect__manager_8c.html#a78416603d2ebd2bb0dcf49e3ccd4ae9c" target="_top" xlink:title="queue_retransmission">
<polygon fill="none" stroke="red" points="673,-315.5 673,-334.5 785,-334.5 785,-315.5 673,-315.5"/>
<text text-anchor="middle" x="729" y="-322.5" font-family="Helvetica,sans-Serif" font-size="10.00">queue_retransmission</text>
</a>
</g>
</g>
<!-- Node21&#45;&gt;Node25 -->
<g id="edge31" class="edge"><title>Node21&#45;&gt;Node25</title>
<path fill="none" stroke="midnightblue" d="M606.633,-325C623.01,-325 643.285,-325 662.542,-325"/>
<polygon fill="midnightblue" stroke="midnightblue" points="662.799,-328.5 672.799,-325 662.799,-321.5 662.799,-328.5"/>
</g>
<!-- Node22&#45;&gt;Node9 -->
<g id="edge28" class="edge"><title>Node22&#45;&gt;Node9</title>
<path fill="none" stroke="midnightblue" d="M922.085,-296.589C941.994,-301.88 966.804,-308.473 987.512,-313.975"/>
<polygon fill="midnightblue" stroke="midnightblue" points="986.745,-317.393 997.308,-316.578 988.542,-310.627 986.745,-317.393"/>
</g>
<!-- Node25&#45;&gt;Node18 -->
<g id="edge32" class="edge"><title>Node25&#45;&gt;Node18</title>
<path fill="none" stroke="midnightblue" d="M768.861,-334.589C789.091,-339.581 814.021,-345.732 835.504,-351.033"/>
<polygon fill="midnightblue" stroke="midnightblue" points="834.871,-354.482 845.419,-353.48 836.548,-347.686 834.871,-354.482"/>
</g>
<!-- Node25&#45;&gt;Node19 -->
<g id="edge33" class="edge"><title>Node25&#45;&gt;Node19</title>
<path fill="none" stroke="midnightblue" d="M785.163,-325C797.434,-325 810.513,-325 823.003,-325"/>
<polygon fill="midnightblue" stroke="midnightblue" points="823.326,-328.5 833.326,-325 823.326,-321.5 823.326,-328.5"/>
</g>
<!-- Node29 -->
<g id="node29" class="node"><title>Node29</title>
<g id="a_node29"><a xlink:href="../../d7/dff/group__traffic__selector.html#gabbed5b326fa118c23b508ebb34b17543" target="_top" xlink:title="traffic_selector_create\l_from_subnet">
<polygon fill="none" stroke="black" points="214.5,-349 214.5,-379 327.5,-379 327.5,-349 214.5,-349"/>
<text text-anchor="start" x="222.5" y="-367" font-family="Helvetica,sans-Serif" font-size="10.00">traffic_selector_create</text>
<text text-anchor="middle" x="271" y="-356" font-family="Helvetica,sans-Serif" font-size="10.00">_from_subnet</text>
</a>
</g>
</g>
<!-- Node28&#45;&gt;Node29 -->
<g id="edge37" class="edge"><title>Node28&#45;&gt;Node29</title>
<path fill="none" stroke="midnightblue" d="M159.208,-343.017C171.58,-345.36 187.928,-348.456 204.256,-351.548"/>
<polygon fill="midnightblue" stroke="midnightblue" points="203.907,-355.044 214.383,-353.467 205.209,-348.167 203.907,-355.044"/>
</g>
<!-- Node29&#45;&gt;Node4 -->
<g id="edge39" class="edge"><title>Node29&#45;&gt;Node4</title>
<path fill="none" stroke="midnightblue" d="M306.749,-379.065C350.33,-395.43 425.67,-415.116 478,-382 509.583,-362.013 485.962,-330.715 514,-306 554.697,-270.126 584.165,-297.024 630,-268 649.655,-255.554 644.629,-239.192 666,-230 717.443,-207.873 736.014,-228.746 792,-230 920.986,-232.89 975.761,-169.795 1082,-243 1115.52,-266.099 1127.6,-315.705 1131.82,-343.358"/>
<polygon fill="midnightblue" stroke="midnightblue" points="1128.37,-343.959 1133.16,-353.411 1135.31,-343.037 1128.37,-343.959"/>
</g>
<!-- Node30 -->
<g id="node30" class="node"><title>Node30</title>
<g id="a_node30"><a xlink:href="../../d3/d58/traffic__selector_8c.html#a33ffa864c84fe38606daac30bff2a0b0" target="_top" xlink:title="traffic_selector_create">
<polygon fill="none" stroke="black" points="364.5,-353.5 364.5,-372.5 477.5,-372.5 477.5,-353.5 364.5,-353.5"/>
<text text-anchor="middle" x="421" y="-360.5" font-family="Helvetica,sans-Serif" font-size="10.00">traffic_selector_create</text>
</a>
</g>
</g>
<!-- Node29&#45;&gt;Node30 -->
<g id="edge38" class="edge"><title>Node29&#45;&gt;Node30</title>
<path fill="none" stroke="midnightblue" d="M327.531,-363.625C336.138,-363.567 345.101,-363.506 353.913,-363.447"/>
<polygon fill="midnightblue" stroke="midnightblue" points="354.182,-366.945 364.158,-363.377 354.134,-359.945 354.182,-366.945"/>
</g>
<!-- Node31 -->
<g id="node31" class="node"><title>Node31</title>
<g id="a_node31"><a xlink:href="../../d3/d58/traffic__selector_8c.html#a66ba09aae4797862904231be831f2eb0" target="_top" xlink:title="calc_range">
<polygon fill="none" stroke="black" points="389,-315.5 389,-334.5 453,-334.5 453,-315.5 389,-315.5"/>
<text text-anchor="middle" x="421" y="-322.5" font-family="Helvetica,sans-Serif" font-size="10.00">calc_range</text>
</a>
</g>
</g>
<!-- Node29&#45;&gt;Node31 -->
<g id="edge40" class="edge"><title>Node29&#45;&gt;Node31</title>
<path fill="none" stroke="midnightblue" d="M327.531,-349.367C344.486,-344.899 362.824,-340.067 378.664,-335.893"/>
<polygon fill="midnightblue" stroke="midnightblue" points="379.894,-339.188 388.672,-333.255 378.111,-332.419 379.894,-339.188"/>
</g>
<!-- Node32&#45;&gt;Node3 -->
<g id="edge48" class="edge"><title>Node32&#45;&gt;Node3</title>
<path fill="none" stroke="midnightblue" d="M148.702,-287.66C157.284,-295.757 169.293,-307.905 178,-320 197.979,-347.753 195.898,-358.988 214,-388 227.166,-409.101 244.201,-431.998 256.009,-447.291"/>
<polygon fill="midnightblue" stroke="midnightblue" points="253.379,-449.61 262.288,-455.345 258.9,-445.306 253.379,-449.61"/>
</g>
<!-- Node33 -->
<g id="node33" class="node"><title>Node33</title>
<g id="a_node33"><a xlink:href="../../d4/d87/group__chunk.html#gaaa5a9811df1bd2ae5e331748f7fbaf75" target="_top" xlink:title="chunk_clear">
<polygon fill="none" stroke="black" points="236.5,-163.5 236.5,-182.5 305.5,-182.5 305.5,-163.5 236.5,-163.5"/>
<text text-anchor="middle" x="271" y="-170.5" font-family="Helvetica,sans-Serif" font-size="10.00">chunk_clear</text>
</a>
</g>
</g>
<!-- Node32&#45;&gt;Node33 -->
<g id="edge42" class="edge"><title>Node32&#45;&gt;Node33</title>
<path fill="none" stroke="midnightblue" d="M144.083,-268.26C155.604,-250.578 182.315,-213.081 214,-192 218.009,-189.332 222.43,-187.005 226.975,-184.981"/>
<polygon fill="midnightblue" stroke="midnightblue" points="228.387,-188.187 236.391,-181.246 225.805,-181.68 228.387,-188.187"/>
</g>
<!-- Node37 -->
<g id="node37" class="node"><title>Node37</title>
<g id="a_node37"><a xlink:href="../../d3/dc0/group__linked__list.html#ga0908cf2701fe28985cd8042f5224c9a0" target="_top" xlink:title="linked_list_create\l_from_enumerator">
<polygon fill="none" stroke="black" points="223.5,-300 223.5,-330 318.5,-330 318.5,-300 223.5,-300"/>
<text text-anchor="start" x="231.5" y="-318" font-family="Helvetica,sans-Serif" font-size="10.00">linked_list_create</text>
<text text-anchor="middle" x="271" y="-307" font-family="Helvetica,sans-Serif" font-size="10.00">_from_enumerator</text>
</a>
</g>
</g>
<!-- Node32&#45;&gt;Node37 -->
<g id="edge49" class="edge"><title>Node32&#45;&gt;Node37</title>
<path fill="none" stroke="midnightblue" d="M158.048,-283.62C172.856,-287.77 193.79,-293.638 213.555,-299.178"/>
<polygon fill="midnightblue" stroke="midnightblue" points="212.865,-302.62 223.439,-301.949 214.754,-295.879 212.865,-302.62"/>
</g>
<!-- Node39 -->
<g id="node39" class="node"><title>Node39</title>
<g id="a_node39"><a xlink:href="../../d3/dc0/group__linked__list.html#gae3fdcd3b6c0e9fe153974e23ba094a70" target="_top" xlink:title="linked_list_create\l_with_items">
<polygon fill="none" stroke="black" points="225,-251 225,-281 317,-281 317,-251 225,-251"/>
<text text-anchor="start" x="233" y="-269" font-family="Helvetica,sans-Serif" font-size="10.00">linked_list_create</text>
<text text-anchor="middle" x="271" y="-258" font-family="Helvetica,sans-Serif" font-size="10.00">_with_items</text>
</a>
</g>
</g>
<!-- Node32&#45;&gt;Node39 -->
<g id="edge51" class="edge"><title>Node32&#45;&gt;Node39</title>
<path fill="none" stroke="midnightblue" d="M158.048,-276.177C173.164,-274.803 194.664,-272.849 214.789,-271.019"/>
<polygon fill="midnightblue" stroke="midnightblue" points="215.192,-274.497 224.834,-270.106 214.558,-267.526 215.192,-274.497"/>
</g>
<!-- Node40 -->
<g id="node40" class="node"><title>Node40</title>
<g id="a_node40"><a xlink:href="../../d7/d58/quick__mode_8c.html#a7b4c32a222624bd03a2d522166c64dab" target="_top" xlink:title="schedule_inactivity\l_timeout">
<polygon fill="none" stroke="black" points="221,-202 221,-232 321,-232 321,-202 221,-202"/>
<text text-anchor="start" x="229" y="-220" font-family="Helvetica,sans-Serif" font-size="10.00">schedule_inactivity</text>
<text text-anchor="middle" x="271" y="-209" font-family="Helvetica,sans-Serif" font-size="10.00">_timeout</text>
</a>
</g>
</g>
<!-- Node32&#45;&gt;Node40 -->
<g id="edge53" class="edge"><title>Node32&#45;&gt;Node40</title>
<path fill="none" stroke="midnightblue" d="M156.932,-268.469C172.235,-260.841 194.382,-249.973 214,-241 217.424,-239.434 220.978,-237.84 224.56,-236.255"/>
<polygon fill="midnightblue" stroke="midnightblue" points="226.279,-239.323 234.038,-232.109 223.473,-232.91 226.279,-239.323"/>
</g>
<!-- Node33&#45;&gt;Node9 -->
<g id="edge47" class="edge"><title>Node33&#45;&gt;Node9</title>
<path fill="none" stroke="midnightblue" d="M305.917,-165.047C323.217,-161.233 344.642,-156.878 364,-154 455.382,-140.414 478.613,-135 571,-135 571,-135 571,-135 730,-135 860.453,-135 870.8,-217.663 978,-292 986.748,-298.066 996.526,-304.479 1005.16,-310.022"/>
<polygon fill="midnightblue" stroke="midnightblue" points="1003.34,-313.012 1013.66,-315.432 1007.1,-307.108 1003.34,-313.012"/>
</g>
<!-- Node34 -->
<g id="node34" class="node"><title>Node34</title>
<g id="a_node34"><a xlink:href="../../dd/d74/group__memory__i.html#ga6d5ce21860b55e0c54353999c4f4f077" target="_top" xlink:title="memwipe">
<polygon fill="none" stroke="black" points="391.5,-163.5 391.5,-182.5 450.5,-182.5 450.5,-163.5 391.5,-163.5"/>
<text text-anchor="middle" x="421" y="-170.5" font-family="Helvetica,sans-Serif" font-size="10.00">memwipe</text>
</a>
</g>
</g>
<!-- Node33&#45;&gt;Node34 -->
<g id="edge43" class="edge"><title>Node33&#45;&gt;Node34</title>
<path fill="none" stroke="midnightblue" d="M305.583,-173C327.919,-173 357.341,-173 380.756,-173"/>
<polygon fill="midnightblue" stroke="midnightblue" points="381.044,-176.5 391.044,-173 381.044,-169.5 381.044,-176.5"/>
</g>
<!-- Node35 -->
<g id="node35" class="node"><title>Node35</title>
<g id="a_node35"><a xlink:href="../../dd/d74/group__memory__i.html#ga4d6f7708d6b8ea1ec0fbe97b3885ce1e" target="_top" xlink:title="memwipe_inline">
<polygon fill="none" stroke="black" points="686,-163.5 686,-182.5 772,-182.5 772,-163.5 686,-163.5"/>
<text text-anchor="middle" x="729" y="-170.5" font-family="Helvetica,sans-Serif" font-size="10.00">memwipe_inline</text>
</a>
</g>
</g>
<!-- Node34&#45;&gt;Node35 -->
<g id="edge44" class="edge"><title>Node34&#45;&gt;Node35</title>
<path fill="none" stroke="midnightblue" d="M450.513,-173C501.917,-173 610.816,-173 675.859,-173"/>
<polygon fill="midnightblue" stroke="midnightblue" points="675.905,-176.5 685.905,-173 675.905,-169.5 675.905,-176.5"/>
</g>
<!-- Node36 -->
<g id="node36" class="node"><title>Node36</title>
<g id="a_node36"><a xlink:href="../../dd/d74/group__memory__i.html#gabf6fa8b701d6f2052a551333b3694063" target="_top" xlink:title="memwipe_noinline">
<polygon fill="none" stroke="black" points="523.5,-201.5 523.5,-220.5 620.5,-220.5 620.5,-201.5 523.5,-201.5"/>
<text text-anchor="middle" x="572" y="-208.5" font-family="Helvetica,sans-Serif" font-size="10.00">memwipe_noinline</text>
</a>
</g>
</g>
<!-- Node34&#45;&gt;Node36 -->
<g id="edge45" class="edge"><title>Node34&#45;&gt;Node36</title>
<path fill="none" stroke="midnightblue" d="M450.729,-180.327C471.373,-185.592 499.674,-192.809 523.636,-198.921"/>
<polygon fill="midnightblue" stroke="midnightblue" points="523.051,-202.383 533.605,-201.463 524.78,-195.6 523.051,-202.383"/>
</g>
<!-- Node36&#45;&gt;Node35 -->
<g id="edge46" class="edge"><title>Node36&#45;&gt;Node35</title>
<path fill="none" stroke="midnightblue" d="M612.113,-201.411C632.475,-196.419 657.566,-190.268 679.189,-184.967"/>
<polygon fill="midnightblue" stroke="midnightblue" points="680.289,-188.301 689.168,-182.52 678.622,-181.502 680.289,-188.301"/>
</g>
<!-- Node38 -->
<g id="node38" class="node"><title>Node38</title>
<g id="a_node38"><a xlink:href="../../d3/dc0/group__linked__list.html#ga15bb4333e53dbef32d196e4388f43fdf" target="_top" xlink:title="linked_list_create">
<polygon fill="none" stroke="red" points="375,-277.5 375,-296.5 467,-296.5 467,-277.5 375,-277.5"/>
<text text-anchor="middle" x="421" y="-284.5" font-family="Helvetica,sans-Serif" font-size="10.00">linked_list_create</text>
</a>
</g>
</g>
<!-- Node37&#45;&gt;Node38 -->
<g id="edge50" class="edge"><title>Node37&#45;&gt;Node38</title>
<path fill="none" stroke="midnightblue" d="M318.828,-306.141C333.415,-303.381 349.638,-300.312 364.746,-297.454"/>
<polygon fill="midnightblue" stroke="midnightblue" points="365.817,-300.813 374.992,-295.515 364.516,-293.935 365.817,-300.813"/>
</g>
<!-- Node39&#45;&gt;Node38 -->
<g id="edge52" class="edge"><title>Node39&#45;&gt;Node38</title>
<path fill="none" stroke="midnightblue" d="M317.209,-272.415C332.202,-274.542 349.062,-276.935 364.725,-279.157"/>
<polygon fill="midnightblue" stroke="midnightblue" points="364.42,-282.649 374.813,-280.588 365.404,-275.718 364.42,-282.649"/>
</g>
<!-- Node41 -->
<g id="node41" class="node"><title>Node41</title>
<g id="a_node41"><a xlink:href="../../d1/d9c/actions_8c.html#a9fb694ab68343b20d49dcc6d2627e8dd" target="_top" xlink:title="close_ike">
<polygon fill="none" stroke="red" points="543,-239.5 543,-258.5 601,-258.5 601,-239.5 543,-239.5"/>
<text text-anchor="middle" x="572" y="-246.5" font-family="Helvetica,sans-Serif" font-size="10.00">close_ike</text>
</a>
</g>
</g>
<!-- Node40&#45;&gt;Node41 -->
<g id="edge54" class="edge"><title>Node40&#45;&gt;Node41</title>
<path fill="none" stroke="midnightblue" d="M321.121,-224.393C334.97,-226.355 350.06,-228.376 364,-230 422.821,-236.851 491.285,-242.726 532.861,-246.061"/>
<polygon fill="midnightblue" stroke="midnightblue" points="532.584,-249.55 542.83,-246.853 533.139,-242.572 532.584,-249.55"/>
</g>
<!-- Node42 -->
<g id="node42" class="node"><title>Node42</title>
<g id="a_node42"><a xlink:href="../../d6/df4/group__inactivity__job.html#ga78dac09fec9887d9d08026c130cd868d" target="_top" xlink:title="inactivity_job_create">
<polygon fill="none" stroke="black" points="368,-201.5 368,-220.5 474,-220.5 474,-201.5 368,-201.5"/>
<text text-anchor="middle" x="421" y="-208.5" font-family="Helvetica,sans-Serif" font-size="10.00">inactivity_job_create</text>
</a>
</g>
</g>
<!-- Node40&#45;&gt;Node42 -->
<g id="edge55" class="edge"><title>Node40&#45;&gt;Node42</title>
<path fill="none" stroke="midnightblue" d="M321.282,-215.002C332.975,-214.528 345.599,-214.016 357.786,-213.522"/>
<polygon fill="midnightblue" stroke="midnightblue" points="358.039,-217.015 367.889,-213.113 357.755,-210.021 358.039,-217.015"/>
</g>
<!-- Node42&#45;&gt;Node41 -->
<g id="edge56" class="edge"><title>Node42&#45;&gt;Node41</title>
<path fill="none" stroke="midnightblue" d="M459.599,-220.589C482.027,-226.309 510.425,-233.551 532.935,-239.292"/>
<polygon fill="midnightblue" stroke="midnightblue" points="532.266,-242.734 542.821,-241.813 533.996,-235.951 532.266,-242.734"/>
</g>
<!-- Node44 -->
<g id="node44" class="node"><title>Node44</title>
<g id="a_node44"><a xlink:href="../../d4/da5/watcher_8c.html#a8f0e10b20c0f4d75132f5af69278c063" target="_top" xlink:title="notify">
<polygon fill="none" stroke="black" points="864.5,-87.5 864.5,-106.5 905.5,-106.5 905.5,-87.5 864.5,-87.5"/>
<text text-anchor="middle" x="885" y="-94.5" font-family="Helvetica,sans-Serif" font-size="10.00">notify</text>
</a>
</g>
</g>
<!-- Node43&#45;&gt;Node44 -->
<g id="edge58" class="edge"><title>Node43&#45;&gt;Node44</title>
<path fill="none" stroke="midnightblue" d="M605.695,-79.9974C666.476,-83.7108 795.986,-91.6229 854.37,-95.1898"/>
<polygon fill="midnightblue" stroke="midnightblue" points="854.216,-98.6869 864.411,-95.8033 854.643,-91.6999 854.216,-98.6869"/>
</g>
<!-- Node48 -->
<g id="node48" class="node"><title>Node48</title>
<g id="a_node48"><a xlink:href="../../da/d2c/group__notify__payload.html#gae3a572f0ba134d27da08405414346f96" target="_top" xlink:title="notify_payload_create\l_from_protocol_and_type">
<polygon fill="none" stroke="black" points="666,-0 666,-30 792,-30 792,-0 666,-0"/>
<text text-anchor="start" x="674" y="-18" font-family="Helvetica,sans-Serif" font-size="10.00">notify_payload_create</text>
<text text-anchor="middle" x="729" y="-7" font-family="Helvetica,sans-Serif" font-size="10.00">_from_protocol_and_type</text>
</a>
</g>
</g>
<!-- Node43&#45;&gt;Node48 -->
<g id="edge64" class="edge"><title>Node43&#45;&gt;Node48</title>
<path fill="none" stroke="midnightblue" d="M596.302,-68.444C615.105,-60.7413 642.243,-49.6431 666,-40 670.849,-38.0316 675.914,-35.981 680.968,-33.9381"/>
<polygon fill="midnightblue" stroke="midnightblue" points="682.651,-37.0329 690.613,-30.043 680.03,-30.5422 682.651,-37.0329"/>
</g>
<!-- Node50 -->
<g id="node50" class="node"><title>Node50</title>
<g id="a_node50"><a xlink:href="../../da/d01/group__informational.html#ga166d577452820151f081da51f4f76206" target="_top" xlink:title="informational_create">
<polygon fill="none" stroke="black" points="677,-49.5 677,-68.5 781,-68.5 781,-49.5 677,-49.5"/>
<text text-anchor="middle" x="729" y="-56.5" font-family="Helvetica,sans-Serif" font-size="10.00">informational_create</text>
</a>
</g>
</g>
<!-- Node43&#45;&gt;Node50 -->
<g id="edge66" class="edge"><title>Node43&#45;&gt;Node50</title>
<path fill="none" stroke="midnightblue" d="M605.872,-73.9706C623.589,-71.7988 646.027,-69.0483 666.822,-66.4992"/>
<polygon fill="midnightblue" stroke="midnightblue" points="667.372,-69.9582 676.871,-65.2674 666.52,-63.0102 667.372,-69.9582"/>
</g>
<!-- Node44&#45;&gt;Node20 -->
<g id="edge59" class="edge"><title>Node44&#45;&gt;Node20</title>
<path fill="none" stroke="midnightblue" d="M905.569,-102.038C917.169,-105.786 931.589,-111.857 942,-121 952.425,-130.155 994.1,-204.48 1015.77,-243.802"/>
<polygon fill="midnightblue" stroke="midnightblue" points="1012.93,-245.906 1020.81,-252.984 1019.06,-242.534 1012.93,-245.906"/>
</g>
<!-- Node45 -->
<g id="node45" class="node"><title>Node45</title>
<g id="a_node45"><a xlink:href="../../d4/da5/watcher_8c.html#aa9f8d5f98b20ea9cea8adaa68b6e4ab5" target="_top" xlink:title="notify_async">
<polygon fill="none" stroke="red" points="994,-106.5 994,-125.5 1066,-125.5 1066,-106.5 994,-106.5"/>
<text text-anchor="middle" x="1030" y="-113.5" font-family="Helvetica,sans-Serif" font-size="10.00">notify_async</text>
</a>
</g>
</g>
<!-- Node44&#45;&gt;Node45 -->
<g id="edge60" class="edge"><title>Node44&#45;&gt;Node45</title>
<path fill="none" stroke="midnightblue" d="M905.584,-99.602C925.572,-102.258 957.305,-106.474 983.588,-109.966"/>
<polygon fill="midnightblue" stroke="midnightblue" points="983.352,-113.466 993.726,-111.313 984.274,-106.527 983.352,-113.466"/>
</g>
<!-- Node46 -->
<g id="node46" class="node"><title>Node46</title>
<g id="a_node46"><a xlink:href="../../d4/da5/watcher_8c.html#aa35392aaf7997cfd0f06e6bbe86feb73" target="_top" xlink:title="notify_end">
<polygon fill="none" stroke="red" points="999,-68.5 999,-87.5 1061,-87.5 1061,-68.5 999,-68.5"/>
<text text-anchor="middle" x="1030" y="-75.5" font-family="Helvetica,sans-Serif" font-size="10.00">notify_end</text>
</a>
</g>
</g>
<!-- Node44&#45;&gt;Node46 -->
<g id="edge61" class="edge"><title>Node44&#45;&gt;Node46</title>
<path fill="none" stroke="midnightblue" d="M905.584,-94.398C926.949,-91.5592 961.734,-86.9375 988.937,-83.323"/>
<polygon fill="midnightblue" stroke="midnightblue" points="989.496,-86.7796 998.948,-81.9929 988.574,-79.8406 989.496,-86.7796"/>
</g>
<!-- Node47 -->
<g id="node47" class="node"><title>Node47</title>
<g id="a_node47"><a xlink:href="../../d6/d87/group__utils__i.html#ga9336a4d5728eb7ed977aacaeb8fd2c41" target="_top" xlink:title="return_false">
<polygon fill="none" stroke="black" points="996,-144.5 996,-163.5 1064,-163.5 1064,-144.5 996,-144.5"/>
<text text-anchor="middle" x="1030" y="-151.5" font-family="Helvetica,sans-Serif" font-size="10.00">return_false</text>
</a>
</g>
</g>
<!-- Node44&#45;&gt;Node47 -->
<g id="edge63" class="edge"><title>Node44&#45;&gt;Node47</title>
<path fill="none" stroke="midnightblue" d="M905.66,-105.355C924.233,-113.191 952.907,-125.147 978,-135 982.877,-136.915 988.034,-138.892 993.121,-140.814"/>
<polygon fill="midnightblue" stroke="midnightblue" points="992.133,-144.181 1002.73,-144.412 994.589,-137.626 992.133,-144.181"/>
</g>
<!-- Node46&#45;&gt;Node4 -->
<g id="edge62" class="edge"><title>Node46&#45;&gt;Node4</title>
<path fill="none" stroke="midnightblue" d="M1061.11,-83.6168C1068.91,-86.4335 1076.62,-90.6599 1082,-97 1113.83,-134.517 1128.36,-288.245 1132.61,-343.284"/>
<polygon fill="midnightblue" stroke="midnightblue" points="1129.13,-343.74 1133.36,-353.454 1136.11,-343.223 1129.13,-343.74"/>
</g>
<!-- Node49 -->
<g id="node49" class="node"><title>Node49</title>
<g id="a_node49"><a xlink:href="../../da/d2c/group__notify__payload.html#ga3fbf18951a2b31fadb0cb192cfb035dd" target="_top" xlink:title="notify_payload_create">
<polygon fill="none" stroke="red" points="829,-5.5 829,-24.5 941,-24.5 941,-5.5 829,-5.5"/>
<text text-anchor="middle" x="885" y="-12.5" font-family="Helvetica,sans-Serif" font-size="10.00">notify_payload_create</text>
</a>
</g>
</g>
<!-- Node48&#45;&gt;Node49 -->
<g id="edge65" class="edge"><title>Node48&#45;&gt;Node49</title>
<path fill="none" stroke="midnightblue" d="M792.194,-15C800.834,-15 809.732,-15 818.431,-15"/>
<polygon fill="midnightblue" stroke="midnightblue" points="818.525,-18.5001 828.525,-15 818.525,-11.5001 818.525,-18.5001"/>
</g>
<!-- Node50&#45;&gt;Node44 -->
<g id="edge67" class="edge"><title>Node50&#45;&gt;Node44</title>
<path fill="none" stroke="midnightblue" d="M768.861,-68.589C795.525,-75.1685 830.353,-83.7624 854.693,-89.7683"/>
<polygon fill="midnightblue" stroke="midnightblue" points="853.88,-93.1727 864.427,-92.1704 855.557,-86.3766 853.88,-93.1727"/>
</g>
</g>
</svg>
