<?xml version="1.0" encoding="UTF-8" standalone="no"?>
<!DOCTYPE svg PUBLIC "-//W3C//DTD SVG 1.1//EN"
 "http://www.w3.org/Graphics/SVG/1.1/DTD/svg11.dtd">
<!-- Generated by graphviz version 2.36.0 (20140111.2315)
 -->
<!-- Title: mediation_job_create_empty Pages: 1 -->
<svg width="360pt" height="77pt"
 viewBox="0.00 0.00 360.00 77.00" xmlns="http://www.w3.org/2000/svg" xmlns:xlink="http://www.w3.org/1999/xlink">
<g id="graph0" class="graph" transform="scale(1 1) rotate(0) translate(4 73)">
<title>mediation_job_create_empty</title>
<!-- Node1 -->
<g id="node1" class="node"><title>Node1</title>
<polygon fill="#bfbfbf" stroke="black" points="0.5,-17 0.5,-47 109.5,-47 109.5,-17 0.5,-17"/>
<text text-anchor="start" x="8.5" y="-35" font-family="Helvetica,sans-Serif" font-size="10.00">mediation_job_create</text>
<text text-anchor="middle" x="55" y="-24" font-family="Helvetica,sans-Serif" font-size="10.00">_empty</text>
</g>
<!-- Node2 -->
<g id="node2" class="node"><title>Node2</title>
<g id="a_node2"><a xlink:href="../../df/d6b/group__mediation__job.html#ga8f525b3cbfe90edeab2f4808035f2131" target="_top" xlink:title="mediation_callback\l_job_create">
<polygon fill="none" stroke="black" points="151,-39 151,-69 251,-69 251,-39 151,-39"/>
<text text-anchor="start" x="159" y="-57" font-family="Helvetica,sans-Serif" font-size="10.00">mediation_callback</text>
<text text-anchor="middle" x="201" y="-46" font-family="Helvetica,sans-Serif" font-size="10.00">_job_create</text>
</a>
</g>
</g>
<!-- Node1&#45;&gt;Node2 -->
<g id="edge1" class="edge"><title>Node1&#45;&gt;Node2</title>
<path fill="none" stroke="midnightblue" d="M119.513,-41.7033C129.938,-43.2961 140.604,-44.9256 150.62,-46.4558"/>
<polygon fill="midnightblue" stroke="midnightblue" points="120.034,-38.2425 109.62,-40.192 118.977,-45.1622 120.034,-38.2425"/>
</g>
<!-- Node4 -->
<g id="node4" class="node"><title>Node4</title>
<g id="a_node4"><a xlink:href="../../df/d6b/group__mediation__job.html#ga242545a88f7952b7188ef708acfe057a" target="_top" xlink:title="mediation_job_create">
<polygon fill="none" stroke="black" points="146.5,-0.5 146.5,-19.5 255.5,-19.5 255.5,-0.5 146.5,-0.5"/>
<text text-anchor="middle" x="201" y="-7.5" font-family="Helvetica,sans-Serif" font-size="10.00">mediation_job_create</text>
</a>
</g>
</g>
<!-- Node1&#45;&gt;Node4 -->
<g id="edge3" class="edge"><title>Node1&#45;&gt;Node4</title>
<path fill="none" stroke="midnightblue" d="M119.593,-22.2844C128.519,-20.9207 137.619,-19.5305 146.335,-18.1988"/>
<polygon fill="midnightblue" stroke="midnightblue" points="118.977,-18.8378 109.62,-23.808 120.034,-25.7575 118.977,-18.8378"/>
</g>
<!-- Node3 -->
<g id="node3" class="node"><title>Node3</title>
<g id="a_node3"><a xlink:href="../../de/d43/mediation__manager_8c.html#a1b89f904325f5a61c4e89cdd2c7da391" target="_top" xlink:title="METHOD">
<polygon fill="none" stroke="black" points="292,-44.5 292,-63.5 352,-63.5 352,-44.5 292,-44.5"/>
<text text-anchor="middle" x="322" y="-51.5" font-family="Helvetica,sans-Serif" font-size="10.00">METHOD</text>
</a>
</g>
</g>
<!-- Node2&#45;&gt;Node3 -->
<g id="edge2" class="edge"><title>Node2&#45;&gt;Node3</title>
<path fill="none" stroke="midnightblue" d="M261.229,-54C271.854,-54 282.491,-54 291.785,-54"/>
<polygon fill="midnightblue" stroke="midnightblue" points="261.089,-50.5001 251.089,-54 261.089,-57.5001 261.089,-50.5001"/>
</g>
<!-- Node5 -->
<g id="node5" class="node"><title>Node5</title>
<g id="a_node5"><a xlink:href="../../d4/de0/ike__me_8c.html#a9354ea7cf1b788553766aaa2c49a7eff" target="_top" xlink:title="METHOD">
<polygon fill="none" stroke="black" points="292,-0.5 292,-19.5 352,-19.5 352,-0.5 292,-0.5"/>
<text text-anchor="middle" x="322" y="-7.5" font-family="Helvetica,sans-Serif" font-size="10.00">METHOD</text>
</a>
</g>
</g>
<!-- Node4&#45;&gt;Node5 -->
<g id="edge4" class="edge"><title>Node4&#45;&gt;Node5</title>
<path fill="none" stroke="midnightblue" d="M265.837,-10C274.91,-10 283.848,-10 291.8,-10"/>
<polygon fill="midnightblue" stroke="midnightblue" points="265.582,-6.5001 255.582,-10 265.582,-13.5001 265.582,-6.5001"/>
</g>
</g>
</svg>
