<?xml version="1.0" encoding="UTF-8" standalone="no"?>
<!DOCTYPE svg PUBLIC "-//W3C//DTD SVG 1.1//EN"
 "http://www.w3.org/Graphics/SVG/1.1/DTD/svg11.dtd">
<!-- Generated by graphviz version 2.36.0 (20140111.2315)
 -->
<!-- Title: find_reqid Pages: 1 -->
<svg width="274pt" height="28pt"
 viewBox="0.00 0.00 274.00 28.00" xmlns="http://www.w3.org/2000/svg" xmlns:xlink="http://www.w3.org/1999/xlink">
<g id="graph0" class="graph" transform="scale(1 1) rotate(0) translate(4 24)">
<title>find_reqid</title>
<!-- Node1 -->
<g id="node1" class="node"><title>Node1</title>
<polygon fill="#bfbfbf" stroke="black" points="0.5,-0.5 0.5,-19.5 59.5,-19.5 59.5,-0.5 0.5,-0.5"/>
<text text-anchor="middle" x="30" y="-7.5" font-family="Helvetica,sans-Serif" font-size="10.00">find_reqid</text>
</g>
<!-- Node2 -->
<g id="node2" class="node"><title>Node2</title>
<g id="a_node2"><a xlink:href="../../d9/da6/stroke__control_8c.html#a5a3ba2605ab33e36e9f4cd789f013e68" target="_top" xlink:title="charon_route">
<polygon fill="none" stroke="black" points="96.5,-0.5 96.5,-19.5 169.5,-19.5 169.5,-0.5 96.5,-0.5"/>
<text text-anchor="middle" x="133" y="-7.5" font-family="Helvetica,sans-Serif" font-size="10.00">charon_route</text>
</a>
</g>
</g>
<!-- Node1&#45;&gt;Node2 -->
<g id="edge1" class="edge"><title>Node1&#45;&gt;Node2</title>
<path fill="none" stroke="midnightblue" d="M69.6868,-10C78.474,-10 87.7667,-10 96.4178,-10"/>
<polygon fill="midnightblue" stroke="midnightblue" points="69.6724,-6.5001 59.6724,-10 69.6724,-13.5001 69.6724,-6.5001"/>
</g>
<!-- Node3 -->
<g id="node3" class="node"><title>Node3</title>
<g id="a_node3"><a xlink:href="../../d9/da6/stroke__control_8c.html#acd323477f06b8a920aae3bc7df8eb9bf" target="_top" xlink:title="METHOD">
<polygon fill="none" stroke="black" points="206,-0.5 206,-19.5 266,-19.5 266,-0.5 206,-0.5"/>
<text text-anchor="middle" x="236" y="-7.5" font-family="Helvetica,sans-Serif" font-size="10.00">METHOD</text>
</a>
</g>
</g>
<!-- Node2&#45;&gt;Node3 -->
<g id="edge2" class="edge"><title>Node2&#45;&gt;Node3</title>
<path fill="none" stroke="midnightblue" d="M179.795,-10C188.602,-10 197.602,-10 205.71,-10"/>
<polygon fill="midnightblue" stroke="midnightblue" points="179.609,-6.5001 169.609,-10 179.609,-13.5001 179.609,-6.5001"/>
</g>
</g>
</svg>
