<?xml version="1.0" encoding="UTF-8" standalone="no"?>
<!DOCTYPE svg PUBLIC "-//W3C//DTD SVG 1.1//EN"
 "http://www.w3.org/Graphics/SVG/1.1/DTD/svg11.dtd">
<!-- Generated by graphviz version 2.36.0 (20140111.2315)
 -->
<!-- Title: private_key_belongs_to Pages: 1 -->
<svg width="556pt" height="355pt"
 viewBox="0.00 0.00 556.00 355.00" xmlns="http://www.w3.org/2000/svg" xmlns:xlink="http://www.w3.org/1999/xlink">
<g id="graph0" class="graph" transform="scale(1 1) rotate(0) translate(4 351)">
<title>private_key_belongs_to</title>
<!-- Node1 -->
<g id="node1" class="node"><title>Node1</title>
<polygon fill="#bfbfbf" stroke="black" points="0.5,-179.5 0.5,-198.5 119.5,-198.5 119.5,-179.5 0.5,-179.5"/>
<text text-anchor="middle" x="60" y="-186.5" font-family="Helvetica,sans-Serif" font-size="10.00">private_key_belongs_to</text>
</g>
<!-- Node2 -->
<g id="node2" class="node"><title>Node2</title>
<g id="a_node2"><a xlink:href="../../da/d8f/group__agent__private__key.html#ga894ae16895862d5baf8afc02a5d07d73" target="_top" xlink:title="agent_private_key_open">
<polygon fill="none" stroke="black" points="324,-327.5 324,-346.5 446,-346.5 446,-327.5 324,-327.5"/>
<text text-anchor="middle" x="385" y="-334.5" font-family="Helvetica,sans-Serif" font-size="10.00">agent_private_key_open</text>
</a>
</g>
</g>
<!-- Node1&#45;&gt;Node2 -->
<g id="edge1" class="edge"><title>Node1&#45;&gt;Node2</title>
<path fill="none" stroke="midnightblue" d="M68.8291,-208.203C81.964,-237.637 111.454,-293.107 156,-318 207.317,-346.677 275.503,-348.547 323.901,-345.02"/>
<polygon fill="midnightblue" stroke="midnightblue" points="71.888,-206.455 64.7324,-198.642 65.4538,-209.212 71.888,-206.455"/>
</g>
<!-- Node4 -->
<g id="node4" class="node"><title>Node4</title>
<g id="a_node4"><a xlink:href="../../df/d6a/bliss__private__key_8c.html#a33df73a4da5f215e215bf180e4df5661" target="_top" xlink:title="bliss_private_key_create\l_empty">
<polygon fill="none" stroke="black" points="156.5,-240 156.5,-270 281.5,-270 281.5,-240 156.5,-240"/>
<text text-anchor="start" x="164.5" y="-258" font-family="Helvetica,sans-Serif" font-size="10.00">bliss_private_key_create</text>
<text text-anchor="middle" x="219" y="-247" font-family="Helvetica,sans-Serif" font-size="10.00">_empty</text>
</a>
</g>
</g>
<!-- Node1&#45;&gt;Node4 -->
<g id="edge3" class="edge"><title>Node1&#45;&gt;Node4</title>
<path fill="none" stroke="midnightblue" d="M93.1799,-202.528C119.018,-213.39 155.279,-228.633 182.063,-239.893"/>
<polygon fill="midnightblue" stroke="midnightblue" points="94.4041,-199.246 83.8291,-198.597 91.6913,-205.699 94.4041,-199.246"/>
</g>
<!-- Node8 -->
<g id="node8" class="node"><title>Node8</title>
<g id="a_node8"><a xlink:href="../../de/df3/gcrypt__rsa__private__key_8c.html#a8d40cb434d9af6f3c322137b94958292" target="_top" xlink:title="create_empty">
<polygon fill="none" stroke="black" points="181,-179.5 181,-198.5 257,-198.5 257,-179.5 181,-179.5"/>
<text text-anchor="middle" x="219" y="-186.5" font-family="Helvetica,sans-Serif" font-size="10.00">create_empty</text>
</a>
</g>
</g>
<!-- Node1&#45;&gt;Node8 -->
<g id="edge8" class="edge"><title>Node1&#45;&gt;Node8</title>
<path fill="none" stroke="midnightblue" d="M130.054,-189C147.455,-189 165.484,-189 180.655,-189"/>
<polygon fill="midnightblue" stroke="midnightblue" points="129.908,-185.5 119.908,-189 129.908,-192.5 129.908,-185.5"/>
</g>
<!-- Node12 -->
<g id="node12" class="node"><title>Node12</title>
<g id="a_node12"><a xlink:href="../../d3/d71/gmp__rsa__private__key_8c.html#a02908c462bb320fe1464e7254999cf12" target="_top" xlink:title="gmp_rsa_private_key\l_create_empty">
<polygon fill="none" stroke="black" points="164,-109 164,-139 274,-139 274,-109 164,-109"/>
<text text-anchor="start" x="172" y="-127" font-family="Helvetica,sans-Serif" font-size="10.00">gmp_rsa_private_key</text>
<text text-anchor="middle" x="219" y="-116" font-family="Helvetica,sans-Serif" font-size="10.00">_create_empty</text>
</a>
</g>
</g>
<!-- Node1&#45;&gt;Node12 -->
<g id="edge13" class="edge"><title>Node1&#45;&gt;Node12</title>
<path fill="none" stroke="midnightblue" d="M93.4694,-175.557C119.147,-164.926 154.986,-150.089 181.627,-139.059"/>
<polygon fill="midnightblue" stroke="midnightblue" points="92.0665,-172.35 84.1659,-179.409 94.7442,-178.818 92.0665,-172.35"/>
</g>
<!-- Node16 -->
<g id="node16" class="node"><title>Node16</title>
<g id="a_node16"><a xlink:href="../../d0/d51/group__pkcs11__private__key.html#gab93b383fcef30b2a74405b4d604f3055" target="_top" xlink:title="pkcs11_private_key\l_connect">
<polygon fill="none" stroke="black" points="167,-55 167,-85 271,-85 271,-55 167,-55"/>
<text text-anchor="start" x="175" y="-73" font-family="Helvetica,sans-Serif" font-size="10.00">pkcs11_private_key</text>
<text text-anchor="middle" x="219" y="-62" font-family="Helvetica,sans-Serif" font-size="10.00">_connect</text>
</a>
</g>
</g>
<!-- Node1&#45;&gt;Node16 -->
<g id="edge18" class="edge"><title>Node1&#45;&gt;Node16</title>
<path fill="none" stroke="midnightblue" d="M76.0529,-171.718C93.7226,-152.198 124.618,-120.375 156,-99 163.562,-93.849 172.185,-89.1731 180.545,-85.1524"/>
<polygon fill="midnightblue" stroke="midnightblue" points="73.3679,-169.471 69.327,-179.264 78.5935,-174.128 73.3679,-169.471"/>
</g>
<!-- Node18 -->
<g id="node18" class="node"><title>Node18</title>
<g id="a_node18"><a xlink:href="../../df/d50/agent__private__key_8c.html#a5c9378d4288771005f9826c3b1cf812e" target="_top" xlink:title="read_key">
<polygon fill="none" stroke="black" points="191,-289.5 191,-308.5 247,-308.5 247,-289.5 191,-289.5"/>
<text text-anchor="middle" x="219" y="-296.5" font-family="Helvetica,sans-Serif" font-size="10.00">read_key</text>
</a>
</g>
</g>
<!-- Node1&#45;&gt;Node18 -->
<g id="edge20" class="edge"><title>Node1&#45;&gt;Node18</title>
<path fill="none" stroke="midnightblue" d="M75.0533,-206.378C92.1965,-226.516 122.998,-259.432 156,-279 166.701,-285.345 179.653,-289.93 190.946,-293.096"/>
<polygon fill="midnightblue" stroke="midnightblue" points="77.6668,-204.047 68.5759,-198.606 72.2895,-208.529 77.6668,-204.047"/>
</g>
<!-- Node19 -->
<g id="node19" class="node"><title>Node19</title>
<g id="a_node19"><a xlink:href="../../dc/dc6/group__tkm-privkey.html#ga091ffcc15fb23254bf8a4630fdcca127" target="_top" xlink:title="tkm_private_key_init">
<polygon fill="none" stroke="black" points="165.5,-6.5 165.5,-25.5 272.5,-25.5 272.5,-6.5 165.5,-6.5"/>
<text text-anchor="middle" x="219" y="-13.5" font-family="Helvetica,sans-Serif" font-size="10.00">tkm_private_key_init</text>
</a>
</g>
</g>
<!-- Node1&#45;&gt;Node19 -->
<g id="edge22" class="edge"><title>Node1&#45;&gt;Node19</title>
<path fill="none" stroke="midnightblue" d="M69.3588,-169.919C83.375,-139.831 114.238,-81.0822 156,-45 165.621,-36.6872 178.031,-30.2572 189.217,-25.5883"/>
<polygon fill="midnightblue" stroke="midnightblue" points="66.0554,-168.73 65.1135,-179.282 72.4307,-171.62 66.0554,-168.73"/>
</g>
<!-- Node3 -->
<g id="node3" class="node"><title>Node3</title>
<g id="a_node3"><a xlink:href="../../dd/db5/agent__plugin_8c.html#a04e5b9f44103f3b1326c210d986aacc1" target="_top" xlink:title="METHOD">
<polygon fill="none" stroke="black" points="488,-327.5 488,-346.5 548,-346.5 548,-327.5 488,-327.5"/>
<text text-anchor="middle" x="518" y="-334.5" font-family="Helvetica,sans-Serif" font-size="10.00">METHOD</text>
</a>
</g>
</g>
<!-- Node2&#45;&gt;Node3 -->
<g id="edge2" class="edge"><title>Node2&#45;&gt;Node3</title>
<path fill="none" stroke="midnightblue" d="M456.369,-337C467.498,-337 478.439,-337 487.896,-337"/>
<polygon fill="midnightblue" stroke="midnightblue" points="456.132,-333.5 446.132,-337 456.132,-340.5 456.132,-333.5"/>
</g>
<!-- Node5 -->
<g id="node5" class="node"><title>Node5</title>
<g id="a_node5"><a xlink:href="../../db/d74/group__bliss__private__key.html#ga9824d75b75befd39dafc31674573d643" target="_top" xlink:title="bliss_private_key_gen">
<polygon fill="none" stroke="black" points="328.5,-289.5 328.5,-308.5 441.5,-308.5 441.5,-289.5 328.5,-289.5"/>
<text text-anchor="middle" x="385" y="-296.5" font-family="Helvetica,sans-Serif" font-size="10.00">bliss_private_key_gen</text>
</a>
</g>
</g>
<!-- Node4&#45;&gt;Node5 -->
<g id="edge4" class="edge"><title>Node4&#45;&gt;Node5</title>
<path fill="none" stroke="midnightblue" d="M285.672,-272.619C307.049,-278.355 329.97,-284.504 348.299,-289.422"/>
<polygon fill="midnightblue" stroke="midnightblue" points="286.546,-269.23 275.981,-270.019 284.732,-275.991 286.546,-269.23"/>
</g>
<!-- Node7 -->
<g id="node7" class="node"><title>Node7</title>
<g id="a_node7"><a xlink:href="../../db/d74/group__bliss__private__key.html#ga1daa52fbb7d6bdbbcebe0fbd89d621e0" target="_top" xlink:title="bliss_private_key_load">
<polygon fill="none" stroke="black" points="327,-251.5 327,-270.5 443,-270.5 443,-251.5 327,-251.5"/>
<text text-anchor="middle" x="385" y="-258.5" font-family="Helvetica,sans-Serif" font-size="10.00">bliss_private_key_load</text>
</a>
</g>
</g>
<!-- Node4&#45;&gt;Node7 -->
<g id="edge6" class="edge"><title>Node4&#45;&gt;Node7</title>
<path fill="none" stroke="midnightblue" d="M291.789,-257.626C303.57,-258.057 315.637,-258.499 326.997,-258.915"/>
<polygon fill="midnightblue" stroke="midnightblue" points="291.655,-254.119 281.534,-257.251 291.399,-261.115 291.655,-254.119"/>
</g>
<!-- Node6 -->
<g id="node6" class="node"><title>Node6</title>
<g id="a_node6"><a xlink:href="../../d9/def/bliss__plugin_8c.html#a6e7caee2f2d5ad8c1b363e2175e6bdcb" target="_top" xlink:title="METHOD">
<polygon fill="none" stroke="black" points="488,-270.5 488,-289.5 548,-289.5 548,-270.5 488,-270.5"/>
<text text-anchor="middle" x="518" y="-277.5" font-family="Helvetica,sans-Serif" font-size="10.00">METHOD</text>
</a>
</g>
</g>
<!-- Node5&#45;&gt;Node6 -->
<g id="edge5" class="edge"><title>Node5&#45;&gt;Node6</title>
<path fill="none" stroke="midnightblue" d="M451.688,-289.473C464.364,-287.634 477.031,-285.797 487.79,-284.237"/>
<polygon fill="midnightblue" stroke="midnightblue" points="450.95,-286.043 441.556,-290.942 451.955,-292.971 450.95,-286.043"/>
</g>
<!-- Node7&#45;&gt;Node6 -->
<g id="edge7" class="edge"><title>Node7&#45;&gt;Node6</title>
<path fill="none" stroke="midnightblue" d="M453.267,-270.756C465.419,-272.519 477.49,-274.27 487.805,-275.766"/>
<polygon fill="midnightblue" stroke="midnightblue" points="453.476,-267.25 443.077,-269.278 452.471,-274.178 453.476,-267.25"/>
</g>
<!-- Node9 -->
<g id="node9" class="node"><title>Node9</title>
<g id="a_node9"><a xlink:href="../../d2/d19/group__gcrypt__rsa__private__key.html#ga38981032950c41cd4bece5fc9986fac0" target="_top" xlink:title="gcrypt_rsa_private\l_key_gen">
<polygon fill="none" stroke="black" points="336.5,-202 336.5,-232 433.5,-232 433.5,-202 336.5,-202"/>
<text text-anchor="start" x="344.5" y="-220" font-family="Helvetica,sans-Serif" font-size="10.00">gcrypt_rsa_private</text>
<text text-anchor="middle" x="385" y="-209" font-family="Helvetica,sans-Serif" font-size="10.00">_key_gen</text>
</a>
</g>
</g>
<!-- Node8&#45;&gt;Node9 -->
<g id="edge9" class="edge"><title>Node8&#45;&gt;Node9</title>
<path fill="none" stroke="midnightblue" d="M267.191,-197.057C288.887,-200.761 314.576,-205.147 336.33,-208.861"/>
<polygon fill="midnightblue" stroke="midnightblue" points="267.661,-193.587 257.214,-195.354 266.482,-200.487 267.661,-193.587"/>
</g>
<!-- Node11 -->
<g id="node11" class="node"><title>Node11</title>
<g id="a_node11"><a xlink:href="../../d2/d19/group__gcrypt__rsa__private__key.html#ga5ed6128c25d1dd7ff92d9836e31abee8" target="_top" xlink:title="gcrypt_rsa_private\l_key_load">
<polygon fill="none" stroke="black" points="336.5,-153 336.5,-183 433.5,-183 433.5,-153 336.5,-153"/>
<text text-anchor="start" x="344.5" y="-171" font-family="Helvetica,sans-Serif" font-size="10.00">gcrypt_rsa_private</text>
<text text-anchor="middle" x="385" y="-160" font-family="Helvetica,sans-Serif" font-size="10.00">_key_load</text>
</a>
</g>
</g>
<!-- Node8&#45;&gt;Node11 -->
<g id="edge11" class="edge"><title>Node8&#45;&gt;Node11</title>
<path fill="none" stroke="midnightblue" d="M267.191,-182.957C288.887,-180.179 314.576,-176.89 336.33,-174.104"/>
<polygon fill="midnightblue" stroke="midnightblue" points="266.689,-179.493 257.214,-184.235 267.578,-186.436 266.689,-179.493"/>
</g>
<!-- Node10 -->
<g id="node10" class="node"><title>Node10</title>
<g id="a_node10"><a xlink:href="../../dd/dbf/gcrypt__plugin_8c.html#ab1cd342491263f553aae075e8954fc20" target="_top" xlink:title="METHOD">
<polygon fill="none" stroke="black" points="488,-182.5 488,-201.5 548,-201.5 548,-182.5 488,-182.5"/>
<text text-anchor="middle" x="518" y="-189.5" font-family="Helvetica,sans-Serif" font-size="10.00">METHOD</text>
</a>
</g>
</g>
<!-- Node9&#45;&gt;Node10 -->
<g id="edge10" class="edge"><title>Node9&#45;&gt;Node10</title>
<path fill="none" stroke="midnightblue" d="M443.6,-206.008C458.902,-203.087 474.788,-200.056 487.851,-197.563"/>
<polygon fill="midnightblue" stroke="midnightblue" points="442.831,-202.591 433.665,-207.904 444.143,-209.467 442.831,-202.591"/>
</g>
<!-- Node11&#45;&gt;Node10 -->
<g id="edge12" class="edge"><title>Node11&#45;&gt;Node10</title>
<path fill="none" stroke="midnightblue" d="M443.6,-178.553C458.902,-181.356 474.788,-184.266 487.851,-186.66"/>
<polygon fill="midnightblue" stroke="midnightblue" points="444.132,-175.092 433.665,-176.732 442.87,-181.977 444.132,-175.092"/>
</g>
<!-- Node13 -->
<g id="node13" class="node"><title>Node13</title>
<g id="a_node13"><a xlink:href="../../d3/d72/group__gmp__rsa__private__key.html#ga830bf6f55da77f29618a375e4d2b3ef7" target="_top" xlink:title="gmp_rsa_private_key_gen">
<polygon fill="none" stroke="black" points="319.5,-114.5 319.5,-133.5 450.5,-133.5 450.5,-114.5 319.5,-114.5"/>
<text text-anchor="middle" x="385" y="-121.5" font-family="Helvetica,sans-Serif" font-size="10.00">gmp_rsa_private_key_gen</text>
</a>
</g>
</g>
<!-- Node12&#45;&gt;Node13 -->
<g id="edge14" class="edge"><title>Node12&#45;&gt;Node13</title>
<path fill="none" stroke="midnightblue" d="M284.161,-124C295.721,-124 307.779,-124 319.353,-124"/>
<polygon fill="midnightblue" stroke="midnightblue" points="284.154,-120.5 274.154,-124 284.154,-127.5 284.154,-120.5"/>
</g>
<!-- Node15 -->
<g id="node15" class="node"><title>Node15</title>
<g id="a_node15"><a xlink:href="../../d3/d72/group__gmp__rsa__private__key.html#ga3732dfc965a8dcedb44737d85308788d" target="_top" xlink:title="gmp_rsa_private_key_load">
<polygon fill="none" stroke="black" points="318.5,-76.5 318.5,-95.5 451.5,-95.5 451.5,-76.5 318.5,-76.5"/>
<text text-anchor="middle" x="385" y="-83.5" font-family="Helvetica,sans-Serif" font-size="10.00">gmp_rsa_private_key_load</text>
</a>
</g>
</g>
<!-- Node12&#45;&gt;Node15 -->
<g id="edge16" class="edge"><title>Node12&#45;&gt;Node15</title>
<path fill="none" stroke="midnightblue" d="M284.037,-109.162C303.829,-104.576 325.09,-99.6499 342.894,-95.5246"/>
<polygon fill="midnightblue" stroke="midnightblue" points="283.106,-105.785 274.154,-111.452 284.686,-112.604 283.106,-105.785"/>
</g>
<!-- Node14 -->
<g id="node14" class="node"><title>Node14</title>
<g id="a_node14"><a xlink:href="../../d1/d34/gmp__plugin_8c.html#a4bd9edf81354e3fa3ce5654d812ee046" target="_top" xlink:title="METHOD">
<polygon fill="none" stroke="black" points="488,-95.5 488,-114.5 548,-114.5 548,-95.5 488,-95.5"/>
<text text-anchor="middle" x="518" y="-102.5" font-family="Helvetica,sans-Serif" font-size="10.00">METHOD</text>
</a>
</g>
</g>
<!-- Node13&#45;&gt;Node14 -->
<g id="edge15" class="edge"><title>Node13&#45;&gt;Node14</title>
<path fill="none" stroke="midnightblue" d="M460.776,-113.155C470.354,-111.765 479.662,-110.415 487.858,-109.227"/>
<polygon fill="midnightblue" stroke="midnightblue" points="460.126,-109.712 450.732,-114.611 461.131,-116.64 460.126,-109.712"/>
</g>
<!-- Node15&#45;&gt;Node14 -->
<g id="edge17" class="edge"><title>Node15&#45;&gt;Node14</title>
<path fill="none" stroke="midnightblue" d="M461.898,-97.008C471.058,-98.3366 479.939,-99.6248 487.801,-100.765"/>
<polygon fill="midnightblue" stroke="midnightblue" points="462.283,-93.5274 451.884,-95.5557 461.278,-100.455 462.283,-93.5274"/>
</g>
<!-- Node17 -->
<g id="node17" class="node"><title>Node17</title>
<g id="a_node17"><a xlink:href="../../d5/da4/pkcs11__plugin_8c.html#a9ecaf3b3c4c947e3f53aec6d193afbb9" target="_top" xlink:title="METHOD">
<polygon fill="none" stroke="black" points="355,-38.5 355,-57.5 415,-57.5 415,-38.5 355,-38.5"/>
<text text-anchor="middle" x="385" y="-45.5" font-family="Helvetica,sans-Serif" font-size="10.00">METHOD</text>
</a>
</g>
</g>
<!-- Node16&#45;&gt;Node17 -->
<g id="edge19" class="edge"><title>Node16&#45;&gt;Node17</title>
<path fill="none" stroke="midnightblue" d="M281.613,-61.7349C306.661,-58.3747 334.419,-54.6511 354.707,-51.9296"/>
<polygon fill="midnightblue" stroke="midnightblue" points="280.887,-58.3009 271.441,-63.0994 281.817,-65.2387 280.887,-58.3009"/>
</g>
<!-- Node18&#45;&gt;Node2 -->
<g id="edge21" class="edge"><title>Node18&#45;&gt;Node2</title>
<path fill="none" stroke="midnightblue" d="M257.093,-307.595C282.567,-313.497 316.401,-321.337 342.728,-327.437"/>
<polygon fill="midnightblue" stroke="midnightblue" points="257.613,-304.123 247.081,-305.275 256.033,-310.942 257.613,-304.123"/>
</g>
<!-- Node20 -->
<g id="node20" class="node"><title>Node20</title>
<g id="a_node20"><a xlink:href="../../d1/d08/tkm__cred_8c.html#a43d771706aaae4437835353e63f03dec" target="_top" xlink:title="METHOD">
<polygon fill="none" stroke="black" points="355,-0.5 355,-19.5 415,-19.5 415,-0.5 355,-0.5"/>
<text text-anchor="middle" x="385" y="-7.5" font-family="Helvetica,sans-Serif" font-size="10.00">METHOD</text>
</a>
</g>
</g>
<!-- Node19&#45;&gt;Node20 -->
<g id="edge23" class="edge"><title>Node19&#45;&gt;Node20</title>
<path fill="none" stroke="midnightblue" d="M282.849,-13.7006C307.578,-12.7959 334.768,-11.8012 354.724,-11.0711"/>
<polygon fill="midnightblue" stroke="midnightblue" points="282.659,-10.2052 272.793,-14.0685 282.915,-17.2005 282.659,-10.2052"/>
</g>
</g>
</svg>
