<?xml version="1.0" encoding="UTF-8" standalone="no"?>
<!DOCTYPE svg PUBLIC "-//W3C//DTD SVG 1.1//EN"
 "http://www.w3.org/Graphics/SVG/1.1/DTD/svg11.dtd">
<!-- Generated by graphviz version 2.36.0 (20140111.2315)
 -->
<!-- Title: imc_os_info_t Pages: 1 -->
<svg width="233pt" height="118pt"
 viewBox="0.00 0.00 233.00 118.00" xmlns="http://www.w3.org/2000/svg" xmlns:xlink="http://www.w3.org/1999/xlink">
<g id="graph0" class="graph" transform="scale(1 1) rotate(0) translate(4 114)">
<title>imc_os_info_t</title>
<!-- Node1 -->
<g id="node1" class="node"><title>Node1</title>
<polygon fill="#bfbfbf" stroke="black" points="26.5,-0.5 26.5,-19.5 103.5,-19.5 103.5,-0.5 26.5,-0.5"/>
<text text-anchor="middle" x="65" y="-7.5" font-family="Helvetica,sans-Serif" font-size="10.00">imc_os_info_t</text>
</g>
<!-- Node2 -->
<g id="node2" class="node"><title>Node2</title>
<g id="a_node2"><a xlink:href="../../d0/d14/structchunk__t.html" target="_top" xlink:title="chunk_t">
<polygon fill="none" stroke="black" points="-0.5,-90.5 -0.5,-109.5 50.5,-109.5 50.5,-90.5 -0.5,-90.5"/>
<text text-anchor="middle" x="25" y="-97.5" font-family="Helvetica,sans-Serif" font-size="10.00">chunk_t</text>
</a>
</g>
</g>
<!-- Node2&#45;&gt;Node1 -->
<g id="edge1" class="edge"><title>Node2&#45;&gt;Node1</title>
<path fill="none" stroke="#9a32cd" stroke-dasharray="5,2" d="M22.7215,-79.8038C22.1164,-67.1877 23.086,-50.7238 30,-38 34.1771,-30.3129 41.5746,-24.1179 48.496,-19.6105"/>
<polygon fill="#9a32cd" stroke="#9a32cd" points="19.2613,-80.4224 23.5946,-90.0905 26.2363,-79.8303 19.2613,-80.4224"/>
<text text-anchor="middle" x="57" y="-63.5" font-family="Helvetica,sans-Serif" font-size="10.00"> get_version</text>
<text text-anchor="middle" x="57" y="-52.5" font-family="Helvetica,sans-Serif" font-size="10.00">get_setting</text>
<text text-anchor="middle" x="57" y="-41.5" font-family="Helvetica,sans-Serif" font-size="10.00">get_name</text>
</g>
<!-- Node3 -->
<g id="node3" class="node"><title>Node3</title>
<g id="a_node3"><a xlink:href="../../db/dd3/structenumerator__t.html" target="_top" xlink:title="enumerator_t">
<polygon fill="none" stroke="black" points="69,-90.5 69,-109.5 143,-109.5 143,-90.5 69,-90.5"/>
<text text-anchor="middle" x="106" y="-97.5" font-family="Helvetica,sans-Serif" font-size="10.00">enumerator_t</text>
</a>
</g>
</g>
<!-- Node3&#45;&gt;Node1 -->
<g id="edge2" class="edge"><title>Node3&#45;&gt;Node1</title>
<path fill="none" stroke="#9a32cd" stroke-dasharray="5,2" d="M100.829,-80.7633C96.9748,-68.3527 91.1526,-51.7499 84,-38 80.6142,-31.4913 75.8642,-24.7413 71.9607,-19.6185"/>
<polygon fill="#9a32cd" stroke="#9a32cd" points="97.4922,-81.8226 103.693,-90.4133 104.203,-79.8307 97.4922,-81.8226"/>
<text text-anchor="middle" x="161.5" y="-52.5" font-family="Helvetica,sans-Serif" font-size="10.00"> create_package_enumerator</text>
</g>
</g>
</svg>
