<?xml version="1.0" encoding="UTF-8" standalone="no"?>
<!DOCTYPE svg PUBLIC "-//W3C//DTD SVG 1.1//EN"
 "http://www.w3.org/Graphics/SVG/1.1/DTD/svg11.dtd">
<!-- Generated by graphviz version 2.36.0 (20140111.2315)
 -->
<!-- Title: iv_gen_rand.h Pages: 1 -->
<svg width="404pt" height="84pt"
 viewBox="0.00 0.00 404.00 84.00" xmlns="http://www.w3.org/2000/svg" xmlns:xlink="http://www.w3.org/1999/xlink">
<g id="graph0" class="graph" transform="scale(1 1) rotate(0) translate(4 80)">
<title>iv_gen_rand.h</title>
<!-- Node1 -->
<g id="node1" class="node"><title>Node1</title>
<polygon fill="#bfbfbf" stroke="black" points="135.5,-56.5 135.5,-75.5 212.5,-75.5 212.5,-56.5 135.5,-56.5"/>
<text text-anchor="middle" x="174" y="-63.5" font-family="Helvetica,sans-Serif" font-size="10.00">iv_gen_rand.h</text>
</g>
<!-- Node2 -->
<g id="node2" class="node"><title>Node2</title>
<g id="a_node2"><a xlink:href="../../de/df6/aead_8c.html" target="_top" xlink:title="aead.c">
<polygon fill="none" stroke="black" points="0,-0.5 0,-19.5 46,-19.5 46,-0.5 0,-0.5"/>
<text text-anchor="middle" x="23" y="-7.5" font-family="Helvetica,sans-Serif" font-size="10.00">aead.c</text>
</a>
</g>
</g>
<!-- Node1&#45;&gt;Node2 -->
<g id="edge1" class="edge"><title>Node1&#45;&gt;Node2</title>
<path fill="none" stroke="midnightblue" d="M140.495,-53.018C111.9,-42.7919 71.5181,-28.3508 46.3183,-19.339"/>
<polygon fill="midnightblue" stroke="midnightblue" points="139.479,-56.3718 150.074,-56.4435 141.836,-49.7806 139.479,-56.3718"/>
</g>
<!-- Node3 -->
<g id="node3" class="node"><title>Node3</title>
<g id="a_node3"><a xlink:href="../../d6/d67/iv__gen_8c.html" target="_top" xlink:title="iv_gen.c">
<polygon fill="none" stroke="black" points="64.5,-0.5 64.5,-19.5 117.5,-19.5 117.5,-0.5 64.5,-0.5"/>
<text text-anchor="middle" x="91" y="-7.5" font-family="Helvetica,sans-Serif" font-size="10.00">iv_gen.c</text>
</a>
</g>
</g>
<!-- Node1&#45;&gt;Node3 -->
<g id="edge2" class="edge"><title>Node1&#45;&gt;Node3</title>
<path fill="none" stroke="midnightblue" d="M151.901,-50.6221C136.738,-40.7574 117.117,-27.9919 104.302,-19.6545"/>
<polygon fill="midnightblue" stroke="midnightblue" points="150.374,-53.8042 160.665,-56.324 154.191,-47.9367 150.374,-53.8042"/>
</g>
<!-- Node4 -->
<g id="node4" class="node"><title>Node4</title>
<g id="a_node4"><a xlink:href="../../df/d6e/iv__gen__rand_8c.html" target="_top" xlink:title="iv_gen_rand.c">
<polygon fill="none" stroke="black" points="135.5,-0.5 135.5,-19.5 212.5,-19.5 212.5,-0.5 135.5,-0.5"/>
<text text-anchor="middle" x="174" y="-7.5" font-family="Helvetica,sans-Serif" font-size="10.00">iv_gen_rand.c</text>
</a>
</g>
</g>
<!-- Node1&#45;&gt;Node4 -->
<g id="edge3" class="edge"><title>Node1&#45;&gt;Node4</title>
<path fill="none" stroke="midnightblue" d="M174,-45.8045C174,-36.9102 174,-26.7798 174,-19.7511"/>
<polygon fill="midnightblue" stroke="midnightblue" points="170.5,-46.083 174,-56.083 177.5,-46.083 170.5,-46.083"/>
</g>
<!-- Node5 -->
<g id="node5" class="node"><title>Node5</title>
<g id="a_node5"><a xlink:href="../../de/df3/tls__aead_8c.html" target="_top" xlink:title="tls_aead.c">
<polygon fill="none" stroke="black" points="231,-0.5 231,-19.5 293,-19.5 293,-0.5 231,-0.5"/>
<text text-anchor="middle" x="262" y="-7.5" font-family="Helvetica,sans-Serif" font-size="10.00">tls_aead.c</text>
</a>
</g>
</g>
<!-- Node1&#45;&gt;Node5 -->
<g id="edge4" class="edge"><title>Node1&#45;&gt;Node5</title>
<path fill="none" stroke="midnightblue" d="M196.977,-50.9005C213.113,-40.9986 234.181,-28.0705 247.896,-19.6545"/>
<polygon fill="midnightblue" stroke="midnightblue" points="194.831,-48.1106 188.139,-56.324 198.493,-54.0769 194.831,-48.1106"/>
</g>
<!-- Node6 -->
<g id="node6" class="node"><title>Node6</title>
<g id="a_node6"><a xlink:href="../../d1/d4d/tls__aead__expl_8c.html" target="_top" xlink:title="tls_aead_expl.c">
<polygon fill="none" stroke="black" points="311.5,-0.5 311.5,-19.5 396.5,-19.5 396.5,-0.5 311.5,-0.5"/>
<text text-anchor="middle" x="354" y="-7.5" font-family="Helvetica,sans-Serif" font-size="10.00">tls_aead_expl.c</text>
</a>
</g>
</g>
<!-- Node1&#45;&gt;Node6 -->
<g id="edge5" class="edge"><title>Node1&#45;&gt;Node6</title>
<path fill="none" stroke="midnightblue" d="M212.108,-53.5677C246.063,-43.381 294.989,-28.7034 325.612,-19.5164"/>
<polygon fill="midnightblue" stroke="midnightblue" points="211.094,-50.2176 202.522,-56.4435 213.106,-56.9224 211.094,-50.2176"/>
</g>
</g>
</svg>
