<?xml version="1.0" encoding="UTF-8" standalone="no"?>
<!DOCTYPE svg PUBLIC "-//W3C//DTD SVG 1.1//EN"
 "http://www.w3.org/Graphics/SVG/1.1/DTD/svg11.dtd">
<!-- Generated by graphviz version 2.36.0 (20140111.2315)
 -->
<!-- Title: get_nt_hash Pages: 1 -->
<svg width="338pt" height="66pt"
 viewBox="0.00 0.00 338.00 66.00" xmlns="http://www.w3.org/2000/svg" xmlns:xlink="http://www.w3.org/1999/xlink">
<g id="graph0" class="graph" transform="scale(1 1) rotate(0) translate(4 62)">
<title>get_nt_hash</title>
<!-- Node1 -->
<g id="node1" class="node"><title>Node1</title>
<polygon fill="#bfbfbf" stroke="black" points="0,-19.5 0,-38.5 70,-38.5 70,-19.5 0,-19.5"/>
<text text-anchor="middle" x="35" y="-26.5" font-family="Helvetica,sans-Serif" font-size="10.00">get_nt_hash</text>
</g>
<!-- Node2 -->
<g id="node2" class="node"><title>Node2</title>
<g id="a_node2"><a xlink:href="../../dd/deb/eap__mschapv2_8c.html#a60dfa5e980425ef1d00506c539b31e9c" target="_top" xlink:title="process_peer_challenge">
<polygon fill="none" stroke="black" points="109,-38.5 109,-57.5 231,-57.5 231,-38.5 109,-38.5"/>
<text text-anchor="middle" x="170" y="-45.5" font-family="Helvetica,sans-Serif" font-size="10.00">process_peer_challenge</text>
</a>
</g>
</g>
<!-- Node1&#45;&gt;Node2 -->
<g id="edge1" class="edge"><title>Node1&#45;&gt;Node2</title>
<path fill="none" stroke="midnightblue" d="M80.2668,-35.3238C89.4151,-36.6307 99.1979,-38.0283 108.804,-39.4005"/>
<polygon fill="midnightblue" stroke="midnightblue" points="80.6453,-31.8424 70.2508,-33.893 79.6553,-38.7721 80.6453,-31.8424"/>
</g>
<!-- Node4 -->
<g id="node4" class="node"><title>Node4</title>
<g id="a_node4"><a xlink:href="../../dd/deb/eap__mschapv2_8c.html#a90ed1e1ef192db6c1ba6eb28fea324bf" target="_top" xlink:title="process_server_response">
<polygon fill="none" stroke="black" points="106,-0.5 106,-19.5 234,-19.5 234,-0.5 106,-0.5"/>
<text text-anchor="middle" x="170" y="-7.5" font-family="Helvetica,sans-Serif" font-size="10.00">process_server_response</text>
</a>
</g>
</g>
<!-- Node1&#45;&gt;Node4 -->
<g id="edge3" class="edge"><title>Node1&#45;&gt;Node4</title>
<path fill="none" stroke="midnightblue" d="M80.3459,-22.6649C88.5659,-21.4906 97.2958,-20.2435 105.948,-19.0075"/>
<polygon fill="midnightblue" stroke="midnightblue" points="79.6553,-19.2279 70.2508,-24.107 80.6453,-26.1576 79.6553,-19.2279"/>
</g>
<!-- Node3 -->
<g id="node3" class="node"><title>Node3</title>
<g id="a_node3"><a xlink:href="../../dd/deb/eap__mschapv2_8c.html#a32055f61ba20707369bce59ea5cfcb91" target="_top" xlink:title="METHOD">
<polygon fill="none" stroke="black" points="270,-38.5 270,-57.5 330,-57.5 330,-38.5 270,-38.5"/>
<text text-anchor="middle" x="300" y="-45.5" font-family="Helvetica,sans-Serif" font-size="10.00">METHOD</text>
</a>
</g>
</g>
<!-- Node2&#45;&gt;Node3 -->
<g id="edge2" class="edge"><title>Node2&#45;&gt;Node3</title>
<path fill="none" stroke="midnightblue" d="M241.371,-48C251.458,-48 261.33,-48 269.975,-48"/>
<polygon fill="midnightblue" stroke="midnightblue" points="241.252,-44.5001 231.252,-48 241.252,-51.5001 241.252,-44.5001"/>
</g>
<!-- Node5 -->
<g id="node5" class="node"><title>Node5</title>
<g id="a_node5"><a xlink:href="../../dd/deb/eap__mschapv2_8c.html#af3bf3fb3bb9d003f63e10bb3e692b10e" target="_top" xlink:title="METHOD">
<polygon fill="none" stroke="black" points="270,-0.5 270,-19.5 330,-19.5 330,-0.5 270,-0.5"/>
<text text-anchor="middle" x="300" y="-7.5" font-family="Helvetica,sans-Serif" font-size="10.00">METHOD</text>
</a>
</g>
</g>
<!-- Node4&#45;&gt;Node5 -->
<g id="edge4" class="edge"><title>Node4&#45;&gt;Node5</title>
<path fill="none" stroke="midnightblue" d="M244.45,-10C253.423,-10 262.143,-10 269.882,-10"/>
<polygon fill="midnightblue" stroke="midnightblue" points="244.25,-6.5001 234.25,-10 244.25,-13.5001 244.25,-6.5001"/>
</g>
</g>
</svg>
