<?xml version="1.0" encoding="UTF-8" standalone="no"?>
<!DOCTYPE svg PUBLIC "-//W3C//DTD SVG 1.1//EN"
 "http://www.w3.org/Graphics/SVG/1.1/DTD/svg11.dtd">
<!-- Generated by graphviz version 2.36.0 (20140111.2315)
 -->
<!-- Title: GenerateStuff Pages: 1 -->
<svg width="346pt" height="66pt"
 viewBox="0.00 0.00 346.00 66.00" xmlns="http://www.w3.org/2000/svg" xmlns:xlink="http://www.w3.org/1999/xlink">
<g id="graph0" class="graph" transform="scale(1 1) rotate(0) translate(4 62)">
<title>GenerateStuff</title>
<!-- Node1 -->
<g id="node1" class="node"><title>Node1</title>
<polygon fill="#bfbfbf" stroke="black" points="0.5,-19.5 0.5,-38.5 77.5,-38.5 77.5,-19.5 0.5,-19.5"/>
<text text-anchor="middle" x="39" y="-26.5" font-family="Helvetica,sans-Serif" font-size="10.00">GenerateStuff</text>
</g>
<!-- Node2 -->
<g id="node2" class="node"><title>Node2</title>
<g id="a_node2"><a xlink:href="../../dd/deb/eap__mschapv2_8c.html#a60dfa5e980425ef1d00506c539b31e9c" target="_top" xlink:title="process_peer_challenge">
<polygon fill="none" stroke="black" points="117,-38.5 117,-57.5 239,-57.5 239,-38.5 117,-38.5"/>
<text text-anchor="middle" x="178" y="-45.5" font-family="Helvetica,sans-Serif" font-size="10.00">process_peer_challenge</text>
</a>
</g>
</g>
<!-- Node1&#45;&gt;Node2 -->
<g id="edge1" class="edge"><title>Node1&#45;&gt;Node2</title>
<path fill="none" stroke="midnightblue" d="M87.7586,-35.6235C97.1821,-36.9304 107.184,-38.3175 116.953,-39.6723"/>
<polygon fill="midnightblue" stroke="midnightblue" points="88.1845,-32.1491 77.7985,-34.2421 87.2229,-39.0827 88.1845,-32.1491"/>
</g>
<!-- Node4 -->
<g id="node4" class="node"><title>Node4</title>
<g id="a_node4"><a xlink:href="../../dd/deb/eap__mschapv2_8c.html#a90ed1e1ef192db6c1ba6eb28fea324bf" target="_top" xlink:title="process_server_response">
<polygon fill="none" stroke="black" points="114,-0.5 114,-19.5 242,-19.5 242,-0.5 114,-0.5"/>
<text text-anchor="middle" x="178" y="-7.5" font-family="Helvetica,sans-Serif" font-size="10.00">process_server_response</text>
</a>
</g>
</g>
<!-- Node1&#45;&gt;Node4 -->
<g id="edge3" class="edge"><title>Node1&#45;&gt;Node4</title>
<path fill="none" stroke="midnightblue" d="M87.7881,-22.3725C96.1964,-21.2063 105.064,-19.9765 113.816,-18.7628"/>
<polygon fill="midnightblue" stroke="midnightblue" points="87.2229,-18.9173 77.7985,-23.7579 88.1845,-25.8509 87.2229,-18.9173"/>
</g>
<!-- Node3 -->
<g id="node3" class="node"><title>Node3</title>
<g id="a_node3"><a xlink:href="../../dd/deb/eap__mschapv2_8c.html#a32055f61ba20707369bce59ea5cfcb91" target="_top" xlink:title="METHOD">
<polygon fill="none" stroke="black" points="278,-38.5 278,-57.5 338,-57.5 338,-38.5 278,-38.5"/>
<text text-anchor="middle" x="308" y="-45.5" font-family="Helvetica,sans-Serif" font-size="10.00">METHOD</text>
</a>
</g>
</g>
<!-- Node2&#45;&gt;Node3 -->
<g id="edge2" class="edge"><title>Node2&#45;&gt;Node3</title>
<path fill="none" stroke="midnightblue" d="M249.371,-48C259.458,-48 269.33,-48 277.975,-48"/>
<polygon fill="midnightblue" stroke="midnightblue" points="249.252,-44.5001 239.252,-48 249.252,-51.5001 249.252,-44.5001"/>
</g>
<!-- Node5 -->
<g id="node5" class="node"><title>Node5</title>
<g id="a_node5"><a xlink:href="../../dd/deb/eap__mschapv2_8c.html#af3bf3fb3bb9d003f63e10bb3e692b10e" target="_top" xlink:title="METHOD">
<polygon fill="none" stroke="black" points="278,-0.5 278,-19.5 338,-19.5 338,-0.5 278,-0.5"/>
<text text-anchor="middle" x="308" y="-7.5" font-family="Helvetica,sans-Serif" font-size="10.00">METHOD</text>
</a>
</g>
</g>
<!-- Node4&#45;&gt;Node5 -->
<g id="edge4" class="edge"><title>Node4&#45;&gt;Node5</title>
<path fill="none" stroke="midnightblue" d="M252.45,-10C261.423,-10 270.143,-10 277.882,-10"/>
<polygon fill="midnightblue" stroke="midnightblue" points="252.25,-6.5001 242.25,-10 252.25,-13.5001 252.25,-6.5001"/>
</g>
</g>
</svg>
