<?xml version="1.0" encoding="UTF-8" standalone="no"?>
<!DOCTYPE svg PUBLIC "-//W3C//DTD SVG 1.1//EN"
 "http://www.w3.org/Graphics/SVG/1.1/DTD/svg11.dtd">
<!-- Generated by graphviz version 2.36.0 (20140111.2315)
 -->
<!-- Title: ascii_to_unicode Pages: 1 -->
<svg width="464pt" height="66pt"
 viewBox="0.00 0.00 464.00 66.00" xmlns="http://www.w3.org/2000/svg" xmlns:xlink="http://www.w3.org/1999/xlink">
<g id="graph0" class="graph" transform="scale(1 1) rotate(0) translate(4 62)">
<title>ascii_to_unicode</title>
<!-- Node1 -->
<g id="node1" class="node"><title>Node1</title>
<polygon fill="#bfbfbf" stroke="black" points="0.5,-19.5 0.5,-38.5 89.5,-38.5 89.5,-19.5 0.5,-19.5"/>
<text text-anchor="middle" x="45" y="-26.5" font-family="Helvetica,sans-Serif" font-size="10.00">ascii_to_unicode</text>
</g>
<!-- Node2 -->
<g id="node2" class="node"><title>Node2</title>
<g id="a_node2"><a xlink:href="../../dd/deb/eap__mschapv2_8c.html#a41d7704135383c82a0fd98750ec51c48" target="_top" xlink:title="get_nt_hash">
<polygon fill="none" stroke="black" points="126,-19.5 126,-38.5 196,-38.5 196,-19.5 126,-19.5"/>
<text text-anchor="middle" x="161" y="-26.5" font-family="Helvetica,sans-Serif" font-size="10.00">get_nt_hash</text>
</a>
</g>
</g>
<!-- Node1&#45;&gt;Node2 -->
<g id="edge1" class="edge"><title>Node1&#45;&gt;Node2</title>
<path fill="none" stroke="midnightblue" d="M99.9599,-29C108.738,-29 117.613,-29 125.748,-29"/>
<polygon fill="midnightblue" stroke="midnightblue" points="99.7494,-25.5001 89.7493,-29 99.7493,-32.5001 99.7494,-25.5001"/>
</g>
<!-- Node3 -->
<g id="node3" class="node"><title>Node3</title>
<g id="a_node3"><a xlink:href="../../dd/deb/eap__mschapv2_8c.html#a60dfa5e980425ef1d00506c539b31e9c" target="_top" xlink:title="process_peer_challenge">
<polygon fill="none" stroke="black" points="235,-38.5 235,-57.5 357,-57.5 357,-38.5 235,-38.5"/>
<text text-anchor="middle" x="296" y="-45.5" font-family="Helvetica,sans-Serif" font-size="10.00">process_peer_challenge</text>
</a>
</g>
</g>
<!-- Node2&#45;&gt;Node3 -->
<g id="edge2" class="edge"><title>Node2&#45;&gt;Node3</title>
<path fill="none" stroke="midnightblue" d="M206.267,-35.3238C215.415,-36.6307 225.198,-38.0283 234.804,-39.4005"/>
<polygon fill="midnightblue" stroke="midnightblue" points="206.645,-31.8424 196.251,-33.893 205.655,-38.7721 206.645,-31.8424"/>
</g>
<!-- Node5 -->
<g id="node5" class="node"><title>Node5</title>
<g id="a_node5"><a xlink:href="../../dd/deb/eap__mschapv2_8c.html#a90ed1e1ef192db6c1ba6eb28fea324bf" target="_top" xlink:title="process_server_response">
<polygon fill="none" stroke="black" points="232,-0.5 232,-19.5 360,-19.5 360,-0.5 232,-0.5"/>
<text text-anchor="middle" x="296" y="-7.5" font-family="Helvetica,sans-Serif" font-size="10.00">process_server_response</text>
</a>
</g>
</g>
<!-- Node2&#45;&gt;Node5 -->
<g id="edge4" class="edge"><title>Node2&#45;&gt;Node5</title>
<path fill="none" stroke="midnightblue" d="M206.346,-22.6649C214.566,-21.4906 223.296,-20.2435 231.948,-19.0075"/>
<polygon fill="midnightblue" stroke="midnightblue" points="205.655,-19.2279 196.251,-24.107 206.645,-26.1576 205.655,-19.2279"/>
</g>
<!-- Node4 -->
<g id="node4" class="node"><title>Node4</title>
<g id="a_node4"><a xlink:href="../../dd/deb/eap__mschapv2_8c.html#a32055f61ba20707369bce59ea5cfcb91" target="_top" xlink:title="METHOD">
<polygon fill="none" stroke="black" points="396,-38.5 396,-57.5 456,-57.5 456,-38.5 396,-38.5"/>
<text text-anchor="middle" x="426" y="-45.5" font-family="Helvetica,sans-Serif" font-size="10.00">METHOD</text>
</a>
</g>
</g>
<!-- Node3&#45;&gt;Node4 -->
<g id="edge3" class="edge"><title>Node3&#45;&gt;Node4</title>
<path fill="none" stroke="midnightblue" d="M367.371,-48C377.458,-48 387.33,-48 395.975,-48"/>
<polygon fill="midnightblue" stroke="midnightblue" points="367.252,-44.5001 357.252,-48 367.252,-51.5001 367.252,-44.5001"/>
</g>
<!-- Node6 -->
<g id="node6" class="node"><title>Node6</title>
<g id="a_node6"><a xlink:href="../../dd/deb/eap__mschapv2_8c.html#af3bf3fb3bb9d003f63e10bb3e692b10e" target="_top" xlink:title="METHOD">
<polygon fill="none" stroke="black" points="396,-0.5 396,-19.5 456,-19.5 456,-0.5 396,-0.5"/>
<text text-anchor="middle" x="426" y="-7.5" font-family="Helvetica,sans-Serif" font-size="10.00">METHOD</text>
</a>
</g>
</g>
<!-- Node5&#45;&gt;Node6 -->
<g id="edge5" class="edge"><title>Node5&#45;&gt;Node6</title>
<path fill="none" stroke="midnightblue" d="M370.45,-10C379.423,-10 388.143,-10 395.882,-10"/>
<polygon fill="midnightblue" stroke="midnightblue" points="370.25,-6.5001 360.25,-10 370.25,-13.5001 370.25,-6.5001"/>
</g>
</g>
</svg>
