<?xml version="1.0" encoding="UTF-8" standalone="no"?>
<!DOCTYPE svg PUBLIC "-//W3C//DTD SVG 1.1//EN"
 "http://www.w3.org/Graphics/SVG/1.1/DTD/svg11.dtd">
<!-- Generated by graphviz version 2.36.0 (20140111.2315)
 -->
<!-- Title: settings_parser_error Pages: 1 -->
<svg width="278pt" height="66pt"
 viewBox="0.00 0.00 278.00 66.00" xmlns="http://www.w3.org/2000/svg" xmlns:xlink="http://www.w3.org/1999/xlink">
<g id="graph0" class="graph" transform="scale(1 1) rotate(0) translate(4 62)">
<title>settings_parser_error</title>
<!-- Node1 -->
<g id="node1" class="node"><title>Node1</title>
<polygon fill="#bfbfbf" stroke="black" points="0,-19.5 0,-38.5 108,-38.5 108,-19.5 0,-19.5"/>
<text text-anchor="middle" x="54" y="-26.5" font-family="Helvetica,sans-Serif" font-size="10.00">settings_parser_error</text>
</g>
<!-- Node2 -->
<g id="node2" class="node"><title>Node2</title>
<g id="a_node2"><a xlink:href="../../da/dfc/settings__parser_8c.html#a60bc0c60643ba15b34ad0fb0f70460d5" target="_top" xlink:title="settings_parser_get_leng">
<polygon fill="none" stroke="black" points="144.5,-38.5 144.5,-57.5 269.5,-57.5 269.5,-38.5 144.5,-38.5"/>
<text text-anchor="middle" x="207" y="-45.5" font-family="Helvetica,sans-Serif" font-size="10.00">settings_parser_get_leng</text>
</a>
</g>
</g>
<!-- Node1&#45;&gt;Node2 -->
<g id="edge1" class="edge"><title>Node1&#45;&gt;Node2</title>
<path fill="none" stroke="midnightblue" d="M108.237,-35.6987C116.75,-36.7699 125.679,-37.8934 134.533,-39.0075"/>
<polygon fill="midnightblue" stroke="midnightblue" points="134.113,-42.4822 144.472,-40.2581 134.987,-35.5369 134.113,-42.4822"/>
</g>
<!-- Node3 -->
<g id="node3" class="node"><title>Node3</title>
<g id="a_node3"><a xlink:href="../../da/dfc/settings__parser_8c.html#ac5753266db8032958f108facccef8e50" target="_top" xlink:title="settings_parser_get_text">
<polygon fill="none" stroke="black" points="145,-0.5 145,-19.5 269,-19.5 269,-0.5 145,-0.5"/>
<text text-anchor="middle" x="207" y="-7.5" font-family="Helvetica,sans-Serif" font-size="10.00">settings_parser_get_text</text>
</a>
</g>
</g>
<!-- Node1&#45;&gt;Node3 -->
<g id="edge2" class="edge"><title>Node1&#45;&gt;Node3</title>
<path fill="none" stroke="midnightblue" d="M108.237,-22.3013C116.874,-21.2145 125.938,-20.0741 134.918,-18.9441"/>
<polygon fill="midnightblue" stroke="midnightblue" points="135.509,-22.3974 144.994,-17.6763 134.635,-15.4522 135.509,-22.3974"/>
</g>
</g>
</svg>
