<?xml version="1.0" encoding="UTF-8" standalone="no"?>
<!DOCTYPE svg PUBLIC "-//W3C//DTD SVG 1.1//EN"
 "http://www.w3.org/Graphics/SVG/1.1/DTD/svg11.dtd">
<!-- Generated by graphviz version 2.36.0 (20140111.2315)
 -->
<!-- Title: settings_parser_load_string Pages: 1 -->
<svg width="1120pt" height="147pt"
 viewBox="0.00 0.00 1120.00 147.00" xmlns="http://www.w3.org/2000/svg" xmlns:xlink="http://www.w3.org/1999/xlink">
<g id="graph0" class="graph" transform="scale(1 1) rotate(0) translate(4 143)">
<title>settings_parser_load_string</title>
<!-- Node1 -->
<g id="node1" class="node"><title>Node1</title>
<polygon fill="#bfbfbf" stroke="black" points="0.5,-0 0.5,-30 107.5,-30 107.5,-0 0.5,-0"/>
<text text-anchor="start" x="8.5" y="-18" font-family="Helvetica,sans-Serif" font-size="10.00">settings_parser_load</text>
<text text-anchor="middle" x="54" y="-7" font-family="Helvetica,sans-Serif" font-size="10.00">_string</text>
</g>
<!-- Node2 -->
<g id="node2" class="node"><title>Node2</title>
<g id="a_node2"><a xlink:href="../../d9/d7b/settings__lexer_8c.html#ad0bfdd6bf60ef07706f045445aeaf45e" target="_top" xlink:title="settings_parser__scan\l_string">
<polygon fill="none" stroke="black" points="144.5,-0 144.5,-30 259.5,-30 259.5,-0 144.5,-0"/>
<text text-anchor="start" x="152.5" y="-18" font-family="Helvetica,sans-Serif" font-size="10.00">settings_parser__scan</text>
<text text-anchor="middle" x="202" y="-7" font-family="Helvetica,sans-Serif" font-size="10.00">_string</text>
</a>
</g>
</g>
<!-- Node1&#45;&gt;Node2 -->
<g id="edge1" class="edge"><title>Node1&#45;&gt;Node2</title>
<path fill="none" stroke="midnightblue" d="M107.709,-15C116.374,-15 125.452,-15 134.402,-15"/>
<polygon fill="midnightblue" stroke="midnightblue" points="134.422,-18.5001 144.422,-15 134.422,-11.5001 134.422,-18.5001"/>
</g>
<!-- Node3 -->
<g id="node3" class="node"><title>Node3</title>
<g id="a_node3"><a xlink:href="../../d9/d7b/settings__lexer_8c.html#ad7f9540667da78877ec1cdb52ca31178" target="_top" xlink:title="settings_parser__scan\l_bytes">
<polygon fill="none" stroke="black" points="296.5,-0 296.5,-30 411.5,-30 411.5,-0 296.5,-0"/>
<text text-anchor="start" x="304.5" y="-18" font-family="Helvetica,sans-Serif" font-size="10.00">settings_parser__scan</text>
<text text-anchor="middle" x="354" y="-7" font-family="Helvetica,sans-Serif" font-size="10.00">_bytes</text>
</a>
</g>
</g>
<!-- Node2&#45;&gt;Node3 -->
<g id="edge2" class="edge"><title>Node2&#45;&gt;Node3</title>
<path fill="none" stroke="midnightblue" d="M259.709,-15C268.295,-15 277.223,-15 286.002,-15"/>
<polygon fill="midnightblue" stroke="midnightblue" points="286.211,-18.5001 296.211,-15 286.211,-11.5001 286.211,-18.5001"/>
</g>
<!-- Node4 -->
<g id="node4" class="node"><title>Node4</title>
<g id="a_node4"><a xlink:href="../../d9/d7b/settings__lexer_8c.html#ae8aefec6559dd5a1b0c206651a254261" target="_top" xlink:title="settings_parser__scan\l_buffer">
<polygon fill="none" stroke="black" points="448.5,-22 448.5,-52 563.5,-52 563.5,-22 448.5,-22"/>
<text text-anchor="start" x="456.5" y="-40" font-family="Helvetica,sans-Serif" font-size="10.00">settings_parser__scan</text>
<text text-anchor="middle" x="506" y="-29" font-family="Helvetica,sans-Serif" font-size="10.00">_buffer</text>
</a>
</g>
</g>
<!-- Node3&#45;&gt;Node4 -->
<g id="edge3" class="edge"><title>Node3&#45;&gt;Node4</title>
<path fill="none" stroke="midnightblue" d="M411.709,-23.3173C420.389,-24.5903 429.417,-25.9145 438.288,-27.2156"/>
<polygon fill="midnightblue" stroke="midnightblue" points="437.809,-30.6827 448.211,-28.671 438.825,-23.7568 437.809,-30.6827"/>
</g>
<!-- Node8 -->
<g id="node8" class="node"><title>Node8</title>
<g id="a_node8"><a xlink:href="../../d9/d7b/settings__lexer_8c.html#a41352d68c36dd7a4a1aac4cb7517274d" target="_top" xlink:title="settings_parser_alloc">
<polygon fill="none" stroke="black" points="916.5,-21.5 916.5,-40.5 1025.5,-40.5 1025.5,-21.5 916.5,-21.5"/>
<text text-anchor="middle" x="971" y="-28.5" font-family="Helvetica,sans-Serif" font-size="10.00">settings_parser_alloc</text>
</a>
</g>
</g>
<!-- Node3&#45;&gt;Node8 -->
<g id="edge11" class="edge"><title>Node3&#45;&gt;Node8</title>
<path fill="none" stroke="midnightblue" d="M411.55,-12.8842C423.58,-12.5158 436.209,-12.1901 448,-12 499.549,-11.1688 512.459,-10.7946 564,-12 684.848,-14.8262 825.764,-22.378 905.774,-27.0654"/>
<polygon fill="midnightblue" stroke="midnightblue" points="905.987,-30.5839 916.176,-27.6788 906.399,-23.5961 905.987,-30.5839"/>
</g>
<!-- Node5 -->
<g id="node5" class="node"><title>Node5</title>
<g id="a_node5"><a xlink:href="../../d9/d7b/settings__lexer_8c.html#a8fc76c8ad90809e46071d1be99e7fb37" target="_top" xlink:title="settings_parser__switch\l_to_buffer">
<polygon fill="none" stroke="black" points="600,-60 600,-90 722,-90 722,-60 600,-60"/>
<text text-anchor="start" x="608" y="-78" font-family="Helvetica,sans-Serif" font-size="10.00">settings_parser__switch</text>
<text text-anchor="middle" x="661" y="-67" font-family="Helvetica,sans-Serif" font-size="10.00">_to_buffer</text>
</a>
</g>
</g>
<!-- Node4&#45;&gt;Node5 -->
<g id="edge4" class="edge"><title>Node4&#45;&gt;Node5</title>
<path fill="none" stroke="midnightblue" d="M563.537,-51.0418C572.134,-53.177 581.092,-55.402 589.936,-57.5984"/>
<polygon fill="midnightblue" stroke="midnightblue" points="589.296,-61.0459 599.845,-60.0596 590.984,-54.2523 589.296,-61.0459"/>
</g>
<!-- Node4&#45;&gt;Node8 -->
<g id="edge10" class="edge"><title>Node4&#45;&gt;Node8</title>
<path fill="none" stroke="midnightblue" d="M563.773,-36.2643C650.5,-35.1404 815.447,-33.0029 906.198,-31.8268"/>
<polygon fill="midnightblue" stroke="midnightblue" points="906.397,-35.3246 916.351,-31.6952 906.306,-28.3252 906.397,-35.3246"/>
</g>
<!-- Node6 -->
<g id="node6" class="node"><title>Node6</title>
<g id="a_node6"><a xlink:href="../../d9/d7b/settings__lexer_8c.html#a33d4f53352a864e4f156061745955b95" target="_top" xlink:title="settings_parser__load\l_buffer_state">
<polygon fill="none" stroke="black" points="761,-109 761,-139 873,-139 873,-109 761,-109"/>
<text text-anchor="start" x="769" y="-127" font-family="Helvetica,sans-Serif" font-size="10.00">settings_parser__load</text>
<text text-anchor="middle" x="817" y="-116" font-family="Helvetica,sans-Serif" font-size="10.00">_buffer_state</text>
</a>
</g>
</g>
<!-- Node5&#45;&gt;Node6 -->
<g id="edge5" class="edge"><title>Node5&#45;&gt;Node6</title>
<path fill="none" stroke="midnightblue" d="M709.462,-90.1014C725.05,-95.0615 742.543,-100.627 758.778,-105.793"/>
<polygon fill="midnightblue" stroke="midnightblue" points="758.105,-109.252 768.695,-108.948 760.227,-102.581 758.105,-109.252"/>
</g>
<!-- Node7 -->
<g id="node7" class="node"><title>Node7</title>
<g id="a_node7"><a xlink:href="../../d9/d7b/settings__lexer_8c.html#a929da0caf3950387991ecbd5e8eef08e" target="_top" xlink:title="settings_parser_ensure\l_buffer_stack">
<polygon fill="none" stroke="black" points="758,-60 758,-90 876,-90 876,-60 758,-60"/>
<text text-anchor="start" x="766" y="-78" font-family="Helvetica,sans-Serif" font-size="10.00">settings_parser_ensure</text>
<text text-anchor="middle" x="817" y="-67" font-family="Helvetica,sans-Serif" font-size="10.00">_buffer_stack</text>
</a>
</g>
</g>
<!-- Node5&#45;&gt;Node7 -->
<g id="edge6" class="edge"><title>Node5&#45;&gt;Node7</title>
<path fill="none" stroke="midnightblue" d="M722.423,-75C730.69,-75 739.225,-75 747.621,-75"/>
<polygon fill="midnightblue" stroke="midnightblue" points="747.767,-78.5001 757.767,-75 747.767,-71.5001 747.767,-78.5001"/>
</g>
<!-- Node7&#45;&gt;Node8 -->
<g id="edge7" class="edge"><title>Node7&#45;&gt;Node8</title>
<path fill="none" stroke="midnightblue" d="M869.885,-59.9808C888.433,-54.6115 909.119,-48.6234 926.851,-43.4905"/>
<polygon fill="midnightblue" stroke="midnightblue" points="928.279,-46.7209 936.911,-40.5783 926.333,-39.997 928.279,-46.7209"/>
</g>
<!-- Node10 -->
<g id="node10" class="node"><title>Node10</title>
<g id="a_node10"><a xlink:href="../../d9/d7b/settings__lexer_8c.html#ab2f0df9a05dd8b94f35a272bf269ca2a" target="_top" xlink:title="settings_parser_realloc">
<polygon fill="none" stroke="black" points="912.5,-65.5 912.5,-84.5 1029.5,-84.5 1029.5,-65.5 912.5,-65.5"/>
<text text-anchor="middle" x="971" y="-72.5" font-family="Helvetica,sans-Serif" font-size="10.00">settings_parser_realloc</text>
</a>
</g>
</g>
<!-- Node7&#45;&gt;Node10 -->
<g id="edge9" class="edge"><title>Node7&#45;&gt;Node10</title>
<path fill="none" stroke="midnightblue" d="M876.332,-75C884.817,-75 893.613,-75 902.264,-75"/>
<polygon fill="midnightblue" stroke="midnightblue" points="902.325,-78.5001 912.325,-75 902.325,-71.5001 902.325,-78.5001"/>
</g>
<!-- Node9 -->
<g id="node9" class="node"><title>Node9</title>
<g id="a_node9"><a xlink:href="../../da/dfc/settings__parser_8c.html#a5faf6a2d99f50a4655dd390199a8db7b" target="_top" xlink:title="malloc">
<polygon fill="none" stroke="black" points="1066.5,-21.5 1066.5,-40.5 1111.5,-40.5 1111.5,-21.5 1066.5,-21.5"/>
<text text-anchor="middle" x="1089" y="-28.5" font-family="Helvetica,sans-Serif" font-size="10.00">malloc</text>
</a>
</g>
</g>
<!-- Node8&#45;&gt;Node9 -->
<g id="edge8" class="edge"><title>Node8&#45;&gt;Node9</title>
<path fill="none" stroke="midnightblue" d="M1025.59,-31C1036.02,-31 1046.65,-31 1056.11,-31"/>
<polygon fill="midnightblue" stroke="midnightblue" points="1056.22,-34.5001 1066.22,-31 1056.22,-27.5001 1056.22,-34.5001"/>
</g>
</g>
</svg>
