<?xml version="1.0" encoding="UTF-8" standalone="no"?>
<!DOCTYPE svg PUBLIC "-//W3C//DTD SVG 1.1//EN"
 "http://www.w3.org/Graphics/SVG/1.1/DTD/svg11.dtd">
<!-- Generated by graphviz version 2.36.0 (20140111.2315)
 -->
<!-- Title: dnskey Pages: 1 -->
<svg width="276pt" height="104pt"
 viewBox="0.00 0.00 276.00 104.00" xmlns="http://www.w3.org/2000/svg" xmlns:xlink="http://www.w3.org/1999/xlink">
<g id="graph0" class="graph" transform="scale(1 1) rotate(0) translate(4 100)">
<title>dnskey</title>
<!-- Node0 -->
<g id="node1" class="node"><title>Node0</title>
<polygon fill="#bfbfbf" stroke="black" points="84,-38.5 84,-57.5 132,-57.5 132,-38.5 84,-38.5"/>
<text text-anchor="middle" x="108" y="-45.5" font-family="Helvetica,sans-Serif" font-size="10.00">dnskey</text>
</g>
<!-- Node3 -->
<g id="node2" class="node"><title>Node3</title>
<g id="a_node2"><a xlink:href="../../dc/d20/group__dnskey__encoder.html" target="_top" xlink:title="dnskey_encoder">
<polygon fill="none" stroke="black" points="174,-76.5 174,-95.5 262,-95.5 262,-76.5 174,-76.5"/>
<text text-anchor="middle" x="218" y="-83.5" font-family="Helvetica,sans-Serif" font-size="10.00">dnskey_encoder</text>
</a>
</g>
</g>
<!-- Node0&#45;&gt;Node3 -->
<g id="edge3" class="edge"><title>Node0&#45;&gt;Node3</title>
<path fill="none" stroke="midnightblue" d="M141.776,-59.5322C157.087,-64.9195 175.105,-71.2593 189.669,-76.3834"/>
<polygon fill="midnightblue" stroke="midnightblue" points="142.764,-56.1695 132.169,-56.152 140.44,-62.7727 142.764,-56.1695"/>
</g>
<!-- Node2 -->
<g id="node3" class="node"><title>Node2</title>
<g id="a_node3"><a xlink:href="../../db/df8/group__dnskey__public__key.html" target="_top" xlink:title="dnskey_public_key">
<polygon fill="none" stroke="black" points="168,-38.5 168,-57.5 268,-57.5 268,-38.5 168,-38.5"/>
<text text-anchor="middle" x="218" y="-45.5" font-family="Helvetica,sans-Serif" font-size="10.00">dnskey_public_key</text>
</a>
</g>
</g>
<!-- Node0&#45;&gt;Node2 -->
<g id="edge2" class="edge"><title>Node0&#45;&gt;Node2</title>
<path fill="none" stroke="midnightblue" d="M142.253,-48C150.298,-48 159.067,-48 167.677,-48"/>
<polygon fill="midnightblue" stroke="midnightblue" points="142.169,-44.5001 132.169,-48 142.169,-51.5001 142.169,-44.5001"/>
</g>
<!-- Node4 -->
<g id="node4" class="node"><title>Node4</title>
<g id="a_node4"><a xlink:href="../../dc/d64/group__dnskey__plugin.html" target="_top" xlink:title="dnskey_plugin">
<polygon fill="none" stroke="black" points="178.5,-0.5 178.5,-19.5 257.5,-19.5 257.5,-0.5 178.5,-0.5"/>
<text text-anchor="middle" x="218" y="-7.5" font-family="Helvetica,sans-Serif" font-size="10.00">dnskey_plugin</text>
</a>
</g>
</g>
<!-- Node0&#45;&gt;Node4 -->
<g id="edge4" class="edge"><title>Node0&#45;&gt;Node4</title>
<path fill="none" stroke="midnightblue" d="M141.776,-36.4678C157.087,-31.0805 175.105,-24.7407 189.669,-19.6166"/>
<polygon fill="midnightblue" stroke="midnightblue" points="140.44,-33.2273 132.169,-39.848 142.764,-39.8305 140.44,-33.2273"/>
</g>
<!-- Node1 -->
<g id="node5" class="node"><title>Node1</title>
<g id="a_node5"><a xlink:href="../../d1/d29/group__plugins.html" target="_top" xlink:title="plugins">
<polygon fill="none" stroke="black" points="0.5,-38.5 0.5,-57.5 47.5,-57.5 47.5,-38.5 0.5,-38.5"/>
<text text-anchor="middle" x="24" y="-45.5" font-family="Helvetica,sans-Serif" font-size="10.00">plugins</text>
</a>
</g>
</g>
<!-- Node1&#45;&gt;Node0 -->
<g id="edge1" class="edge"><title>Node1&#45;&gt;Node0</title>
<path fill="none" stroke="midnightblue" d="M58.0876,-48C66.7786,-48 75.9626,-48 83.9965,-48"/>
<polygon fill="midnightblue" stroke="midnightblue" points="57.8416,-44.5001 47.8416,-48 57.8415,-51.5001 57.8416,-44.5001"/>
</g>
</g>
</svg>
