<?xml version="1.0" encoding="UTF-8" standalone="no"?>
<!DOCTYPE svg PUBLIC "-//W3C//DTD SVG 1.1//EN"
 "http://www.w3.org/Graphics/SVG/1.1/DTD/svg11.dtd">
<!-- Generated by graphviz version 2.36.0 (20140111.2315)
 -->
<!-- Title: chunk_hash Pages: 1 -->
<svg width="592pt" height="142pt"
 viewBox="0.00 0.00 592.00 142.00" xmlns="http://www.w3.org/2000/svg" xmlns:xlink="http://www.w3.org/1999/xlink">
<g id="graph0" class="graph" transform="scale(1 1) rotate(0) translate(4 138)">
<title>chunk_hash</title>
<!-- Node1 -->
<g id="node1" class="node"><title>Node1</title>
<polygon fill="#bfbfbf" stroke="black" points="0.5,-57.5 0.5,-76.5 69.5,-76.5 69.5,-57.5 0.5,-57.5"/>
<text text-anchor="middle" x="35" y="-64.5" font-family="Helvetica,sans-Serif" font-size="10.00">chunk_hash</text>
</g>
<!-- Node2 -->
<g id="node2" class="node"><title>Node2</title>
<g id="a_node2"><a xlink:href="../../d4/d87/group__chunk.html#gac5619cf208f72c56bf142cbc4378e388" target="_top" xlink:title="chunk_mac">
<polygon fill="none" stroke="black" points="106.5,-57.5 106.5,-76.5 173.5,-76.5 173.5,-57.5 106.5,-57.5"/>
<text text-anchor="middle" x="140" y="-64.5" font-family="Helvetica,sans-Serif" font-size="10.00">chunk_mac</text>
</a>
</g>
</g>
<!-- Node1&#45;&gt;Node2 -->
<g id="edge1" class="edge"><title>Node1&#45;&gt;Node2</title>
<path fill="none" stroke="midnightblue" d="M69.7261,-67C78.1599,-67 87.3186,-67 96.1303,-67"/>
<polygon fill="midnightblue" stroke="midnightblue" points="96.251,-70.5001 106.251,-67 96.2509,-63.5001 96.251,-70.5001"/>
</g>
<!-- Node3 -->
<g id="node3" class="node"><title>Node3</title>
<g id="a_node3"><a xlink:href="../../d8/d39/chunk_8c.html#a09c1163fbcb7fd5f8dc5652c9083511a" target="_top" xlink:title="chunk_mac_inc">
<polygon fill="none" stroke="black" points="210.5,-57.5 210.5,-76.5 295.5,-76.5 295.5,-57.5 210.5,-57.5"/>
<text text-anchor="middle" x="253" y="-64.5" font-family="Helvetica,sans-Serif" font-size="10.00">chunk_mac_inc</text>
</a>
</g>
</g>
<!-- Node2&#45;&gt;Node3 -->
<g id="edge2" class="edge"><title>Node2&#45;&gt;Node3</title>
<path fill="none" stroke="midnightblue" d="M173.703,-67C182.067,-67 191.266,-67 200.329,-67"/>
<polygon fill="midnightblue" stroke="midnightblue" points="200.451,-70.5001 210.451,-67 200.451,-63.5001 200.451,-70.5001"/>
</g>
<!-- Node4 -->
<g id="node4" class="node"><title>Node4</title>
<g id="a_node4"><a xlink:href="../../d8/d39/chunk_8c.html#ab5aaa633967a7323bfda1d3b7773374e" target="_top" xlink:title="sipcompress">
<polygon fill="none" stroke="black" points="332,-114.5 332,-133.5 404,-133.5 404,-114.5 332,-114.5"/>
<text text-anchor="middle" x="368" y="-121.5" font-family="Helvetica,sans-Serif" font-size="10.00">sipcompress</text>
</a>
</g>
</g>
<!-- Node3&#45;&gt;Node4 -->
<g id="edge3" class="edge"><title>Node3&#45;&gt;Node4</title>
<path fill="none" stroke="midnightblue" d="M272.914,-76.5405C290.921,-85.6239 318.251,-99.4096 338.823,-109.787"/>
<polygon fill="midnightblue" stroke="midnightblue" points="337.52,-113.05 348.025,-114.428 340.673,-106.8 337.52,-113.05"/>
</g>
<!-- Node5 -->
<g id="node5" class="node"><title>Node5</title>
<g id="a_node5"><a xlink:href="../../d8/d39/chunk_8c.html#a9ef077ebff7df5d4b102da51b511e597" target="_top" xlink:title="sipround">
<polygon fill="none" stroke="black" points="440.5,-95.5 440.5,-114.5 493.5,-114.5 493.5,-95.5 440.5,-95.5"/>
<text text-anchor="middle" x="467" y="-102.5" font-family="Helvetica,sans-Serif" font-size="10.00">sipround</text>
</a>
</g>
</g>
<!-- Node3&#45;&gt;Node5 -->
<g id="edge8" class="edge"><title>Node3&#45;&gt;Node5</title>
<path fill="none" stroke="midnightblue" d="M295.631,-74.4622C334.981,-81.5155 393.377,-91.9827 430.557,-98.6471"/>
<polygon fill="midnightblue" stroke="midnightblue" points="429.987,-102.101 440.448,-100.42 431.222,-95.2104 429.987,-102.101"/>
</g>
<!-- Node7 -->
<g id="node7" class="node"><title>Node7</title>
<g id="a_node7"><a xlink:href="../../d8/d39/chunk_8c.html#a740b095c15858f572fbedfe727233276" target="_top" xlink:title="sipget">
<polygon fill="none" stroke="black" points="346.5,-38.5 346.5,-57.5 389.5,-57.5 389.5,-38.5 346.5,-38.5"/>
<text text-anchor="middle" x="368" y="-45.5" font-family="Helvetica,sans-Serif" font-size="10.00">sipget</text>
</a>
</g>
</g>
<!-- Node3&#45;&gt;Node7 -->
<g id="edge6" class="edge"><title>Node3&#45;&gt;Node7</title>
<path fill="none" stroke="midnightblue" d="M295.756,-59.9791C309.214,-57.7162 323.872,-55.2516 336.374,-53.1494"/>
<polygon fill="midnightblue" stroke="midnightblue" points="337.014,-56.591 346.296,-51.4813 335.854,-49.6879 337.014,-56.591"/>
</g>
<!-- Node8 -->
<g id="node8" class="node"><title>Node8</title>
<g id="a_node8"><a xlink:href="../../d8/d39/chunk_8c.html#a16bb91c5f20c585526fb6f76b5ffc6d3" target="_top" xlink:title="siplast">
<polygon fill="none" stroke="black" points="345.5,-0.5 345.5,-19.5 390.5,-19.5 390.5,-0.5 345.5,-0.5"/>
<text text-anchor="middle" x="368" y="-7.5" font-family="Helvetica,sans-Serif" font-size="10.00">siplast</text>
</a>
</g>
</g>
<!-- Node3&#45;&gt;Node8 -->
<g id="edge7" class="edge"><title>Node3&#45;&gt;Node8</title>
<path fill="none" stroke="midnightblue" d="M272.914,-57.4595C290.921,-48.3761 318.251,-34.5904 338.823,-24.2133"/>
<polygon fill="midnightblue" stroke="midnightblue" points="340.673,-27.2004 348.025,-19.5716 337.52,-20.9505 340.673,-27.2004"/>
</g>
<!-- Node4&#45;&gt;Node5 -->
<g id="edge4" class="edge"><title>Node4&#45;&gt;Node5</title>
<path fill="none" stroke="midnightblue" d="M404.019,-117.141C412.678,-115.444 421.96,-113.626 430.635,-111.927"/>
<polygon fill="midnightblue" stroke="midnightblue" points="431.326,-115.358 440.467,-110.001 429.981,-108.489 431.326,-115.358"/>
</g>
<!-- Node6 -->
<g id="node6" class="node"><title>Node6</title>
<g id="a_node6"><a xlink:href="../../d8/d39/chunk_8c.html#a63c97c2d77838dbe2e7876ad6933d602" target="_top" xlink:title="siprotate">
<polygon fill="none" stroke="black" points="530,-95.5 530,-114.5 584,-114.5 584,-95.5 530,-95.5"/>
<text text-anchor="middle" x="557" y="-102.5" font-family="Helvetica,sans-Serif" font-size="10.00">siprotate</text>
</a>
</g>
</g>
<!-- Node5&#45;&gt;Node6 -->
<g id="edge5" class="edge"><title>Node5&#45;&gt;Node6</title>
<path fill="none" stroke="midnightblue" d="M493.927,-105C502.001,-105 511.057,-105 519.704,-105"/>
<polygon fill="midnightblue" stroke="midnightblue" points="519.954,-108.5 529.954,-105 519.954,-101.5 519.954,-108.5"/>
</g>
</g>
</svg>
