<?xml version="1.0" encoding="UTF-8" standalone="no"?>
<!DOCTYPE svg PUBLIC "-//W3C//DTD SVG 1.1//EN"
 "http://www.w3.org/Graphics/SVG/1.1/DTD/svg11.dtd">
<!-- Generated by graphviz version 2.36.0 (20140111.2315)
 -->
<!-- Title: chunk_clear Pages: 1 -->
<svg width="436pt" height="104pt"
 viewBox="0.00 0.00 436.00 104.00" xmlns="http://www.w3.org/2000/svg" xmlns:xlink="http://www.w3.org/1999/xlink">
<g id="graph0" class="graph" transform="scale(1 1) rotate(0) translate(4 100)">
<title>chunk_clear</title>
<!-- Node1 -->
<g id="node1" class="node"><title>Node1</title>
<polygon fill="#bfbfbf" stroke="black" points="0.5,-57.5 0.5,-76.5 69.5,-76.5 69.5,-57.5 0.5,-57.5"/>
<text text-anchor="middle" x="35" y="-64.5" font-family="Helvetica,sans-Serif" font-size="10.00">chunk_clear</text>
</g>
<!-- Node2 -->
<g id="node2" class="node"><title>Node2</title>
<g id="a_node2"><a xlink:href="../../d4/d87/group__chunk.html#gaa86c84493369a4254d5801cdca20d458" target="_top" xlink:title="chunk_free">
<polygon fill="none" stroke="black" points="106.5,-76.5 106.5,-95.5 171.5,-95.5 171.5,-76.5 106.5,-76.5"/>
<text text-anchor="middle" x="139" y="-83.5" font-family="Helvetica,sans-Serif" font-size="10.00">chunk_free</text>
</a>
</g>
</g>
<!-- Node1&#45;&gt;Node2 -->
<g id="edge1" class="edge"><title>Node1&#45;&gt;Node2</title>
<path fill="none" stroke="midnightblue" d="M69.6813,-73.274C78.2821,-74.8761 87.6287,-76.6171 96.5684,-78.2823"/>
<polygon fill="midnightblue" stroke="midnightblue" points="95.9554,-81.7283 106.427,-80.1188 97.2373,-74.8467 95.9554,-81.7283"/>
</g>
<!-- Node4 -->
<g id="node4" class="node"><title>Node4</title>
<g id="a_node4"><a xlink:href="../../dd/d74/group__memory__i.html#ga6d5ce21860b55e0c54353999c4f4f077" target="_top" xlink:title="memwipe">
<polygon fill="none" stroke="black" points="109.5,-38.5 109.5,-57.5 168.5,-57.5 168.5,-38.5 109.5,-38.5"/>
<text text-anchor="middle" x="139" y="-45.5" font-family="Helvetica,sans-Serif" font-size="10.00">memwipe</text>
</a>
</g>
</g>
<!-- Node1&#45;&gt;Node4 -->
<g id="edge3" class="edge"><title>Node1&#45;&gt;Node4</title>
<path fill="none" stroke="midnightblue" d="M69.6813,-60.726C79.2423,-58.9451 89.7248,-56.9924 99.5456,-55.1631"/>
<polygon fill="midnightblue" stroke="midnightblue" points="100.284,-58.5858 109.474,-53.3137 99.0021,-51.7042 100.284,-58.5858"/>
</g>
<!-- Node3 -->
<g id="node3" class="node"><title>Node3</title>
<g id="a_node3"><a xlink:href="../../da/dfc/settings__parser_8c.html#af07d89f5ceaea0c7c8252cc41fd75f37" target="_top" xlink:title="free">
<polygon fill="none" stroke="black" points="240.5,-76.5 240.5,-95.5 273.5,-95.5 273.5,-76.5 240.5,-76.5"/>
<text text-anchor="middle" x="257" y="-83.5" font-family="Helvetica,sans-Serif" font-size="10.00">free</text>
</a>
</g>
</g>
<!-- Node2&#45;&gt;Node3 -->
<g id="edge2" class="edge"><title>Node2&#45;&gt;Node3</title>
<path fill="none" stroke="midnightblue" d="M171.698,-86C189.967,-86 212.653,-86 229.888,-86"/>
<polygon fill="midnightblue" stroke="midnightblue" points="230.326,-89.5001 240.326,-86 230.326,-82.5001 230.326,-89.5001"/>
</g>
<!-- Node5 -->
<g id="node5" class="node"><title>Node5</title>
<g id="a_node5"><a xlink:href="../../dd/d74/group__memory__i.html#ga4d6f7708d6b8ea1ec0fbe97b3885ce1e" target="_top" xlink:title="memwipe_inline">
<polygon fill="none" stroke="black" points="342,-19.5 342,-38.5 428,-38.5 428,-19.5 342,-19.5"/>
<text text-anchor="middle" x="385" y="-26.5" font-family="Helvetica,sans-Serif" font-size="10.00">memwipe_inline</text>
</a>
</g>
</g>
<!-- Node4&#45;&gt;Node5 -->
<g id="edge4" class="edge"><title>Node4&#45;&gt;Node5</title>
<path fill="none" stroke="midnightblue" d="M168.948,-45.7458C208.901,-42.6348 281.631,-36.9713 331.352,-33.0997"/>
<polygon fill="midnightblue" stroke="midnightblue" points="331.894,-36.5681 341.592,-32.3023 331.351,-29.5892 331.894,-36.5681"/>
</g>
<!-- Node6 -->
<g id="node6" class="node"><title>Node6</title>
<g id="a_node6"><a xlink:href="../../dd/d74/group__memory__i.html#gabf6fa8b701d6f2052a551333b3694063" target="_top" xlink:title="memwipe_noinline">
<polygon fill="none" stroke="black" points="208.5,-0.5 208.5,-19.5 305.5,-19.5 305.5,-0.5 208.5,-0.5"/>
<text text-anchor="middle" x="257" y="-7.5" font-family="Helvetica,sans-Serif" font-size="10.00">memwipe_noinline</text>
</a>
</g>
</g>
<!-- Node4&#45;&gt;Node6 -->
<g id="edge5" class="edge"><title>Node4&#45;&gt;Node6</title>
<path fill="none" stroke="midnightblue" d="M168.674,-38.6067C183.342,-33.8017 201.406,-27.8843 217.291,-22.6806"/>
<polygon fill="midnightblue" stroke="midnightblue" points="218.436,-25.9884 226.85,-19.5491 216.257,-19.3362 218.436,-25.9884"/>
</g>
<!-- Node6&#45;&gt;Node5 -->
<g id="edge6" class="edge"><title>Node6&#45;&gt;Node5</title>
<path fill="none" stroke="midnightblue" d="M305.635,-17.1831C314.15,-18.4671 323.064,-19.8113 331.702,-21.1138"/>
<polygon fill="midnightblue" stroke="midnightblue" points="331.264,-24.5872 341.674,-22.6175 332.308,-17.6655 331.264,-24.5872"/>
</g>
</g>
</svg>
