<?xml version="1.0" encoding="UTF-8" standalone="no"?>
<!DOCTYPE svg PUBLIC "-//W3C//DTD SVG 1.1//EN"
 "http://www.w3.org/Graphics/SVG/1.1/DTD/svg11.dtd">
<!-- Generated by graphviz version 2.36.0 (20140111.2315)
 -->
<!-- Title: chunk_compare Pages: 1 -->
<svg width="750pt" height="155pt"
 viewBox="0.00 0.00 750.00 155.16" xmlns="http://www.w3.org/2000/svg" xmlns:xlink="http://www.w3.org/1999/xlink">
<g id="graph0" class="graph" transform="scale(1 1) rotate(0) translate(4 151.163)">
<title>chunk_compare</title>
<!-- Node1 -->
<g id="node1" class="node"><title>Node1</title>
<polygon fill="#bfbfbf" stroke="black" points="0,-38.5 0,-57.5 86,-57.5 86,-38.5 0,-38.5"/>
<text text-anchor="middle" x="43" y="-45.5" font-family="Helvetica,sans-Serif" font-size="10.00">chunk_compare</text>
</g>
<!-- Node2 -->
<g id="node2" class="node"><title>Node2</title>
<g id="a_node2"><a xlink:href="../../d4/dde/group__crl.html#gae3012cb1c195a41035515daf001ff24c" target="_top" xlink:title="crl_is_newer">
<polygon fill="none" stroke="black" points="141.5,-76.5 141.5,-95.5 212.5,-95.5 212.5,-76.5 141.5,-76.5"/>
<text text-anchor="middle" x="177" y="-83.5" font-family="Helvetica,sans-Serif" font-size="10.00">crl_is_newer</text>
</a>
</g>
</g>
<!-- Node1&#45;&gt;Node2 -->
<g id="edge1" class="edge"><title>Node1&#45;&gt;Node2</title>
<path fill="none" stroke="midnightblue" d="M87.0409,-60.3906C105.118,-65.5945 125.819,-71.5541 142.701,-76.4141"/>
<polygon fill="midnightblue" stroke="midnightblue" points="87.8872,-56.9921 77.3092,-57.589 85.9506,-63.7189 87.8872,-56.9921"/>
</g>
<!-- Node9 -->
<g id="node9" class="node"><title>Node9</title>
<g id="a_node9"><a xlink:href="../../db/d71/vici__attribute_8c.html#a3686576c62bf506ff1df862ad00414df" target="_top" xlink:title="have_vips_from_pool">
<polygon fill="none" stroke="black" points="122.5,-38.5 122.5,-57.5 231.5,-57.5 231.5,-38.5 122.5,-38.5"/>
<text text-anchor="middle" x="177" y="-45.5" font-family="Helvetica,sans-Serif" font-size="10.00">have_vips_from_pool</text>
</a>
</g>
</g>
<!-- Node1&#45;&gt;Node9 -->
<g id="edge11" class="edge"><title>Node1&#45;&gt;Node9</title>
<path fill="none" stroke="midnightblue" d="M96.3121,-48C104.823,-48 113.652,-48 122.198,-48"/>
<polygon fill="midnightblue" stroke="midnightblue" points="96.1286,-44.5001 86.1285,-48 96.1285,-51.5001 96.1286,-44.5001"/>
</g>
<!-- Node11 -->
<g id="node11" class="node"><title>Node11</title>
<g id="a_node11"><a xlink:href="../../d8/dd2/test__chunk_8c.html#ae59ebb38622bddb566166d4534f0dd90" target="_top" xlink:title="START_TEST">
<polygon fill="none" stroke="black" points="137,-0.5 137,-19.5 217,-19.5 217,-0.5 137,-0.5"/>
<text text-anchor="middle" x="177" y="-7.5" font-family="Helvetica,sans-Serif" font-size="10.00">START_TEST</text>
</a>
</g>
</g>
<!-- Node1&#45;&gt;Node11 -->
<g id="edge13" class="edge"><title>Node1&#45;&gt;Node11</title>
<path fill="none" stroke="midnightblue" d="M87.0409,-35.6094C105.118,-30.4055 125.819,-24.4459 142.701,-19.5859"/>
<polygon fill="midnightblue" stroke="midnightblue" points="85.9506,-32.2811 77.3092,-38.411 87.8872,-39.0079 85.9506,-32.2811"/>
</g>
<!-- Node3 -->
<g id="node3" class="node"><title>Node3</title>
<g id="a_node3"><a xlink:href="../../d1/d74/revocation__validator_8c.html#a5411220d2b37bd5348d97f10afac9cff" target="_top" xlink:title="get_better_crl">
<polygon fill="none" stroke="black" points="268,-114.5 268,-133.5 344,-133.5 344,-114.5 268,-114.5"/>
<text text-anchor="middle" x="306" y="-121.5" font-family="Helvetica,sans-Serif" font-size="10.00">get_better_crl</text>
</a>
</g>
</g>
<!-- Node2&#45;&gt;Node3 -->
<g id="edge2" class="edge"><title>Node2&#45;&gt;Node3</title>
<path fill="none" stroke="midnightblue" d="M219.894,-98.5353C237.171,-103.705 256.871,-109.599 272.963,-114.414"/>
<polygon fill="midnightblue" stroke="midnightblue" points="220.631,-95.1025 210.047,-95.589 218.624,-101.809 220.631,-95.1025"/>
</g>
<!-- Node8 -->
<g id="node8" class="node"><title>Node8</title>
<g id="a_node8"><a xlink:href="../../d9/d89/mem__cred_8c.html#af1d2796db0932ff518b684de85fee5eb" target="_top" xlink:title="METHOD">
<polygon fill="none" stroke="black" points="276,-76.5 276,-95.5 336,-95.5 336,-76.5 276,-76.5"/>
<text text-anchor="middle" x="306" y="-83.5" font-family="Helvetica,sans-Serif" font-size="10.00">METHOD</text>
</a>
</g>
</g>
<!-- Node2&#45;&gt;Node8 -->
<g id="edge10" class="edge"><title>Node2&#45;&gt;Node8</title>
<path fill="none" stroke="midnightblue" d="M222.8,-86C240.443,-86 260.201,-86 275.923,-86"/>
<polygon fill="midnightblue" stroke="midnightblue" points="222.703,-82.5001 212.703,-86 222.703,-89.5001 222.703,-82.5001"/>
</g>
<!-- Node4 -->
<g id="node4" class="node"><title>Node4</title>
<g id="a_node4"><a xlink:href="../../d1/d74/revocation__validator_8c.html#ad4f7c2935da2f674c7415beb3f3749b5" target="_top" xlink:title="check_crl">
<polygon fill="none" stroke="black" points="586.5,-114.5 586.5,-133.5 645.5,-133.5 645.5,-114.5 586.5,-114.5"/>
<text text-anchor="middle" x="616" y="-121.5" font-family="Helvetica,sans-Serif" font-size="10.00">check_crl</text>
</a>
</g>
</g>
<!-- Node3&#45;&gt;Node4 -->
<g id="edge3" class="edge"><title>Node3&#45;&gt;Node4</title>
<path fill="none" stroke="midnightblue" d="M354.225,-133.813C403.333,-142.587 482.344,-152.686 550,-143 563.035,-141.134 577.106,-137.264 588.811,-133.501"/>
<polygon fill="midnightblue" stroke="midnightblue" points="354.683,-130.338 344.214,-131.968 353.414,-137.223 354.683,-130.338"/>
</g>
<!-- Node6 -->
<g id="node6" class="node"><title>Node6</title>
<g id="a_node6"><a xlink:href="../../d1/d74/revocation__validator_8c.html#ace9795458003f4328c0f352ee053581a" target="_top" xlink:title="check_delta_crl">
<polygon fill="none" stroke="black" points="464.5,-114.5 464.5,-133.5 549.5,-133.5 549.5,-114.5 464.5,-114.5"/>
<text text-anchor="middle" x="507" y="-121.5" font-family="Helvetica,sans-Serif" font-size="10.00">check_delta_crl</text>
</a>
</g>
</g>
<!-- Node3&#45;&gt;Node6 -->
<g id="edge5" class="edge"><title>Node3&#45;&gt;Node6</title>
<path fill="none" stroke="midnightblue" d="M354.86,-124C388.231,-124 432.324,-124 464.266,-124"/>
<polygon fill="midnightblue" stroke="midnightblue" points="354.43,-120.5 344.43,-124 354.43,-127.5 354.43,-120.5"/>
</g>
<!-- Node7 -->
<g id="node7" class="node"><title>Node7</title>
<g id="a_node7"><a xlink:href="../../d1/d74/revocation__validator_8c.html#a3a2dca1edd57fc29a9395643c03232b0" target="_top" xlink:title="find_crl">
<polygon fill="none" stroke="black" points="380,-76.5 380,-95.5 428,-95.5 428,-76.5 380,-76.5"/>
<text text-anchor="middle" x="404" y="-83.5" font-family="Helvetica,sans-Serif" font-size="10.00">find_crl</text>
</a>
</g>
</g>
<!-- Node3&#45;&gt;Node7 -->
<g id="edge7" class="edge"><title>Node3&#45;&gt;Node7</title>
<path fill="none" stroke="midnightblue" d="M340.731,-110.648C353.64,-105.538 368.064,-99.8288 379.776,-95.1927"/>
<polygon fill="midnightblue" stroke="midnightblue" points="339.235,-107.476 331.225,-114.411 341.811,-113.985 339.235,-107.476"/>
</g>
<!-- Node5 -->
<g id="node5" class="node"><title>Node5</title>
<g id="a_node5"><a xlink:href="../../d1/d74/revocation__validator_8c.html#a1072f3fa297c4b025acb50c7aea35d3f" target="_top" xlink:title="METHOD">
<polygon fill="none" stroke="black" points="682,-114.5 682,-133.5 742,-133.5 742,-114.5 682,-114.5"/>
<text text-anchor="middle" x="712" y="-121.5" font-family="Helvetica,sans-Serif" font-size="10.00">METHOD</text>
</a>
</g>
</g>
<!-- Node4&#45;&gt;Node5 -->
<g id="edge4" class="edge"><title>Node4&#45;&gt;Node5</title>
<path fill="none" stroke="midnightblue" d="M655.988,-124C664.629,-124 673.643,-124 681.813,-124"/>
<polygon fill="midnightblue" stroke="midnightblue" points="655.714,-120.5 645.714,-124 655.714,-127.5 655.714,-120.5"/>
</g>
<!-- Node6&#45;&gt;Node4 -->
<g id="edge6" class="edge"><title>Node6&#45;&gt;Node4</title>
<path fill="none" stroke="midnightblue" d="M559.924,-124C569.076,-124 578.289,-124 586.491,-124"/>
<polygon fill="midnightblue" stroke="midnightblue" points="559.675,-120.5 549.675,-124 559.675,-127.5 559.675,-120.5"/>
</g>
<!-- Node7&#45;&gt;Node4 -->
<g id="edge8" class="edge"><title>Node7&#45;&gt;Node4</title>
<path fill="none" stroke="midnightblue" d="M438.219,-88.8835C467.768,-91.7963 512.051,-97.017 550,-105 562.08,-107.541 575.186,-111.194 586.443,-114.619"/>
<polygon fill="midnightblue" stroke="midnightblue" points="438.325,-85.3778 428.038,-87.914 437.661,-92.3463 438.325,-85.3778"/>
</g>
<!-- Node7&#45;&gt;Node6 -->
<g id="edge9" class="edge"><title>Node7&#45;&gt;Node6</title>
<path fill="none" stroke="midnightblue" d="M437.817,-98.3468C451.651,-103.552 467.513,-109.52 480.454,-114.389"/>
<polygon fill="midnightblue" stroke="midnightblue" points="438.763,-94.9636 428.171,-94.718 436.298,-101.515 438.763,-94.9636"/>
</g>
<!-- Node10 -->
<g id="node10" class="node"><title>Node10</title>
<g id="a_node10"><a xlink:href="../../db/d71/vici__attribute_8c.html#acb79db892701d47ddd235b5b9d8e5944" target="_top" xlink:title="METHOD">
<polygon fill="none" stroke="black" points="276,-38.5 276,-57.5 336,-57.5 336,-38.5 276,-38.5"/>
<text text-anchor="middle" x="306" y="-45.5" font-family="Helvetica,sans-Serif" font-size="10.00">METHOD</text>
</a>
</g>
</g>
<!-- Node9&#45;&gt;Node10 -->
<g id="edge12" class="edge"><title>Node9&#45;&gt;Node10</title>
<path fill="none" stroke="midnightblue" d="M241.868,-48C253.822,-48 265.758,-48 275.983,-48"/>
<polygon fill="midnightblue" stroke="midnightblue" points="241.859,-44.5001 231.859,-48 241.859,-51.5001 241.859,-44.5001"/>
</g>
</g>
</svg>
