<?xml version="1.0" encoding="UTF-8" standalone="no"?>
<!DOCTYPE svg PUBLIC "-//W3C//DTD SVG 1.1//EN"
 "http://www.w3.org/Graphics/SVG/1.1/DTD/svg11.dtd">
<!-- Generated by graphviz version 2.36.0 (20140111.2315)
 -->
<!-- Title: rsavp1 Pages: 1 -->
<svg width="332pt" height="28pt"
 viewBox="0.00 0.00 332.00 28.00" xmlns="http://www.w3.org/2000/svg" xmlns:xlink="http://www.w3.org/1999/xlink">
<g id="graph0" class="graph" transform="scale(1 1) rotate(0) translate(4 24)">
<title>rsavp1</title>
<!-- Node1 -->
<g id="node1" class="node"><title>Node1</title>
<polygon fill="#bfbfbf" stroke="black" points="0,-0.5 0,-19.5 46,-19.5 46,-0.5 0,-0.5"/>
<text text-anchor="middle" x="23" y="-7.5" font-family="Helvetica,sans-Serif" font-size="10.00">rsavp1</text>
</g>
<!-- Node2 -->
<g id="node2" class="node"><title>Node2</title>
<g id="a_node2"><a xlink:href="../../d8/df5/gmp__rsa__public__key_8c.html#ad61515aa65fddb270958c9a79ccc5535" target="_top" xlink:title="verify_emsa_pkcs1_signature">
<polygon fill="none" stroke="black" points="82,-0.5 82,-19.5 228,-19.5 228,-0.5 82,-0.5"/>
<text text-anchor="middle" x="155" y="-7.5" font-family="Helvetica,sans-Serif" font-size="10.00">verify_emsa_pkcs1_signature</text>
</a>
</g>
</g>
<!-- Node1&#45;&gt;Node2 -->
<g id="edge1" class="edge"><title>Node1&#45;&gt;Node2</title>
<path fill="none" stroke="midnightblue" d="M56.235,-10C64.1486,-10 72.9397,-10 81.9131,-10"/>
<polygon fill="midnightblue" stroke="midnightblue" points="56.0528,-6.5001 46.0527,-10 56.0527,-13.5001 56.0528,-6.5001"/>
</g>
<!-- Node3 -->
<g id="node3" class="node"><title>Node3</title>
<g id="a_node3"><a xlink:href="../../d8/df5/gmp__rsa__public__key_8c.html#a644a2adbf8602e3597a990b74ea3cdf3" target="_top" xlink:title="METHOD">
<polygon fill="none" stroke="black" points="264,-0.5 264,-19.5 324,-19.5 324,-0.5 264,-0.5"/>
<text text-anchor="middle" x="294" y="-7.5" font-family="Helvetica,sans-Serif" font-size="10.00">METHOD</text>
</a>
</g>
</g>
<!-- Node2&#45;&gt;Node3 -->
<g id="edge2" class="edge"><title>Node2&#45;&gt;Node3</title>
<path fill="none" stroke="midnightblue" d="M238.112,-10C247.237,-10 256.026,-10 263.796,-10"/>
<polygon fill="midnightblue" stroke="midnightblue" points="238.111,-6.5001 228.111,-10 238.111,-13.5001 238.111,-6.5001"/>
</g>
</g>
</svg>
