<?xml version="1.0" encoding="UTF-8" standalone="no"?>
<!DOCTYPE svg PUBLIC "-//W3C//DTD SVG 1.1//EN"
 "http://www.w3.org/Graphics/SVG/1.1/DTD/svg11.dtd">
<!-- Generated by graphviz version 2.36.0 (20140111.2315)
 -->
<!-- Title: pgp_cert.h Pages: 1 -->
<svg width="159pt" height="84pt"
 viewBox="0.00 0.00 159.00 84.00" xmlns="http://www.w3.org/2000/svg" xmlns:xlink="http://www.w3.org/1999/xlink">
<g id="graph0" class="graph" transform="scale(1 1) rotate(0) translate(4 80)">
<title>pgp_cert.h</title>
<!-- Node1 -->
<g id="node1" class="node"><title>Node1</title>
<polygon fill="#bfbfbf" stroke="black" points="42,-56.5 42,-75.5 104,-75.5 104,-56.5 42,-56.5"/>
<text text-anchor="middle" x="73" y="-63.5" font-family="Helvetica,sans-Serif" font-size="10.00">pgp_cert.h</text>
</g>
<!-- Node2 -->
<g id="node2" class="node"><title>Node2</title>
<g id="a_node2"><a xlink:href="../../d5/d95/pgp__cert_8c.html" target="_top" xlink:title="pgp_cert.c">
<polygon fill="none" stroke="black" points="0,-0.5 0,-19.5 62,-19.5 62,-0.5 0,-0.5"/>
<text text-anchor="middle" x="31" y="-7.5" font-family="Helvetica,sans-Serif" font-size="10.00">pgp_cert.c</text>
</a>
</g>
</g>
<!-- Node1&#45;&gt;Node2 -->
<g id="edge1" class="edge"><title>Node1&#45;&gt;Node2</title>
<path fill="none" stroke="midnightblue" d="M59.8898,-48.144C52.5722,-38.7357 43.7591,-27.4046 37.8064,-19.7511"/>
<polygon fill="midnightblue" stroke="midnightblue" points="57.1624,-50.3383 66.0646,-56.083 62.6878,-46.0406 57.1624,-50.3383"/>
</g>
<!-- Node3 -->
<g id="node3" class="node"><title>Node3</title>
<g id="a_node3"><a xlink:href="../../da/d2d/pgp__plugin_8c.html" target="_top" xlink:title="pgp_plugin.c">
<polygon fill="none" stroke="black" points="80.5,-0.5 80.5,-19.5 151.5,-19.5 151.5,-0.5 80.5,-0.5"/>
<text text-anchor="middle" x="116" y="-7.5" font-family="Helvetica,sans-Serif" font-size="10.00">pgp_plugin.c</text>
</a>
</g>
</g>
<!-- Node1&#45;&gt;Node3 -->
<g id="edge2" class="edge"><title>Node1&#45;&gt;Node3</title>
<path fill="none" stroke="midnightblue" d="M86.4224,-48.144C93.9142,-38.7357 102.937,-27.4046 109.032,-19.7511"/>
<polygon fill="midnightblue" stroke="midnightblue" points="83.5919,-46.0799 80.1006,-56.083 89.0679,-50.4404 83.5919,-46.0799"/>
</g>
</g>
</svg>
