<?xml version="1.0" encoding="UTF-8" standalone="no"?>
<!DOCTYPE svg PUBLIC "-//W3C//DTD SVG 1.1//EN"
 "http://www.w3.org/Graphics/SVG/1.1/DTD/svg11.dtd">
<!-- Generated by graphviz version 2.36.0 (20140111.2315)
 -->
<!-- Title: METHOD Pages: 1 -->
<svg width="178pt" height="66pt"
 viewBox="0.00 0.00 178.00 66.00" xmlns="http://www.w3.org/2000/svg" xmlns:xlink="http://www.w3.org/1999/xlink">
<g id="graph0" class="graph" transform="scale(1 1) rotate(0) translate(4 62)">
<title>METHOD</title>
<!-- Node1 -->
<g id="node1" class="node"><title>Node1</title>
<polygon fill="#bfbfbf" stroke="black" points="0,-19.5 0,-38.5 60,-38.5 60,-19.5 0,-19.5"/>
<text text-anchor="middle" x="30" y="-26.5" font-family="Helvetica,sans-Serif" font-size="10.00">METHOD</text>
</g>
<!-- Node2 -->
<g id="node2" class="node"><title>Node2</title>
<g id="a_node2"><a xlink:href="../../d8/d6d/bliss__fft_8c.html#a1092540535db627a6e6092e13f9e1918" target="_top" xlink:title="butterfly">
<polygon fill="none" stroke="black" points="107,-38.5 107,-57.5 159,-57.5 159,-38.5 107,-38.5"/>
<text text-anchor="middle" x="133" y="-45.5" font-family="Helvetica,sans-Serif" font-size="10.00">butterfly</text>
</a>
</g>
</g>
<!-- Node1&#45;&gt;Node2 -->
<g id="edge1" class="edge"><title>Node1&#45;&gt;Node2</title>
<path fill="none" stroke="midnightblue" d="M60.2134,-34.4956C71.6588,-36.6487 84.8897,-39.1377 96.8509,-41.3878"/>
<polygon fill="midnightblue" stroke="midnightblue" points="96.484,-44.8801 106.959,-43.2893 97.7782,-38.0008 96.484,-44.8801"/>
</g>
<!-- Node3 -->
<g id="node3" class="node"><title>Node3</title>
<g id="a_node3"><a xlink:href="../../d8/d6d/bliss__fft_8c.html#ac16271678ae079e221d30c32497f9023" target="_top" xlink:title="butterfly_last">
<polygon fill="none" stroke="black" points="96.5,-0.5 96.5,-19.5 169.5,-19.5 169.5,-0.5 96.5,-0.5"/>
<text text-anchor="middle" x="133" y="-7.5" font-family="Helvetica,sans-Serif" font-size="10.00">butterfly_last</text>
</a>
</g>
</g>
<!-- Node1&#45;&gt;Node3 -->
<g id="edge2" class="edge"><title>Node1&#45;&gt;Node3</title>
<path fill="none" stroke="midnightblue" d="M60.2134,-23.5044C68.4253,-21.9596 77.5565,-20.2419 86.4783,-18.5635"/>
<polygon fill="midnightblue" stroke="midnightblue" points="87.2218,-21.9851 96.4023,-16.6966 85.9276,-15.1058 87.2218,-21.9851"/>
</g>
</g>
</svg>
