<?xml version="1.0" encoding="UTF-8" standalone="no"?>
<!DOCTYPE svg PUBLIC "-//W3C//DTD SVG 1.1//EN"
 "http://www.w3.org/Graphics/SVG/1.1/DTD/svg11.dtd">
<!-- Generated by graphviz version 2.36.0 (20140111.2315)
 -->
<!-- Title: pb_remediation_parameters_msg_t Pages: 1 -->
<svg width="289pt" height="130pt"
 viewBox="0.00 0.00 289.00 130.00" xmlns="http://www.w3.org/2000/svg" xmlns:xlink="http://www.w3.org/1999/xlink">
<g id="graph0" class="graph" transform="scale(1 1) rotate(0) translate(4 126)">
<title>pb_remediation_parameters_msg_t</title>
<!-- Node1 -->
<g id="node1" class="node"><title>Node1</title>
<polygon fill="#bfbfbf" stroke="black" points="31.5,-1 31.5,-31 168.5,-31 168.5,-1 31.5,-1"/>
<text text-anchor="start" x="39.5" y="-19" font-family="Helvetica,sans-Serif" font-size="10.00">pb_remediation_parameters</text>
<text text-anchor="middle" x="100" y="-8" font-family="Helvetica,sans-Serif" font-size="10.00">_msg_t</text>
</g>
<!-- Node2 -->
<g id="node2" class="node"><title>Node2</title>
<polygon fill="none" stroke="#bfbfbf" points="-0.5,-102.5 -0.5,-121.5 40.5,-121.5 40.5,-102.5 -0.5,-102.5"/>
<text text-anchor="middle" x="20" y="-109.5" font-family="Helvetica,sans-Serif" font-size="10.00">struct</text>
</g>
<!-- Node2&#45;&gt;Node1 -->
<g id="edge1" class="edge"><title>Node2&#45;&gt;Node1</title>
<path fill="none" stroke="#9a32cd" stroke-dasharray="5,2" d="M22.1294,-91.9444C24.4299,-78.9204 29.1892,-61.9253 39,-50 45.4257,-42.1894 54.2022,-35.9515 63.0949,-31.0952"/>
<polygon fill="#9a32cd" stroke="#9a32cd" points="18.6223,-91.7462 20.6755,-102.14 25.5522,-92.7345 18.6223,-91.7462"/>
<text text-anchor="middle" x="67.5" y="-64.5" font-family="Helvetica,sans-Serif" font-size="10.00"> pb_interface</text>
</g>
<!-- Node3 -->
<g id="node3" class="node"><title>Node3</title>
<g id="a_node3"><a xlink:href="../../d0/d14/structchunk__t.html" target="_top" xlink:title="chunk_t">
<polygon fill="none" stroke="black" points="74.5,-102.5 74.5,-121.5 125.5,-121.5 125.5,-102.5 74.5,-102.5"/>
<text text-anchor="middle" x="100" y="-109.5" font-family="Helvetica,sans-Serif" font-size="10.00">chunk_t</text>
</a>
</g>
</g>
<!-- Node3&#45;&gt;Node1 -->
<g id="edge2" class="edge"><title>Node3&#45;&gt;Node1</title>
<path fill="none" stroke="#9a32cd" stroke-dasharray="5,2" d="M100,-92.1742C100,-74.1467 100,-47.3541 100,-31.0982"/>
<polygon fill="#9a32cd" stroke="#9a32cd" points="96.5001,-92.3252 100,-102.325 103.5,-92.3252 96.5001,-92.3252"/>
<text text-anchor="middle" x="134" y="-75.5" font-family="Helvetica,sans-Serif" font-size="10.00"> get_string</text>
<text text-anchor="middle" x="134" y="-64.5" font-family="Helvetica,sans-Serif" font-size="10.00">get_parameters</text>
<text text-anchor="middle" x="134" y="-53.5" font-family="Helvetica,sans-Serif" font-size="10.00">get_uri</text>
</g>
<!-- Node4 -->
<g id="node4" class="node"><title>Node4</title>
<g id="a_node4"><a xlink:href="../../d6/db5/structpen__type__t.html" target="_top" xlink:title="pen_type_t">
<polygon fill="none" stroke="black" points="158.5,-102.5 158.5,-121.5 223.5,-121.5 223.5,-102.5 158.5,-102.5"/>
<text text-anchor="middle" x="191" y="-109.5" font-family="Helvetica,sans-Serif" font-size="10.00">pen_type_t</text>
</a>
</g>
</g>
<!-- Node4&#45;&gt;Node1 -->
<g id="edge3" class="edge"><title>Node4&#45;&gt;Node1</title>
<path fill="none" stroke="#9a32cd" stroke-dasharray="5,2" d="M188.189,-92.5887C185.336,-79.3726 179.739,-61.8704 169,-50 161.873,-42.1225 152.462,-35.9458 142.891,-31.1762"/>
<polygon fill="#9a32cd" stroke="#9a32cd" points="184.753,-93.2565 189.994,-102.464 191.639,-91.9982 184.753,-93.2565"/>
<text text-anchor="middle" x="233.5" y="-64.5" font-family="Helvetica,sans-Serif" font-size="10.00"> get_parameters_type</text>
</g>
</g>
</svg>
