<?xml version="1.0" encoding="UTF-8" standalone="no"?>
<!DOCTYPE svg PUBLIC "-//W3C//DTD SVG 1.1//EN"
 "http://www.w3.org/Graphics/SVG/1.1/DTD/svg11.dtd">
<!-- Generated by graphviz version 2.36.0 (20140111.2315)
 -->
<!-- Title: TNC_TNCS_ReportMessageTypesLong Pages: 1 -->
<svg width="468pt" height="28pt"
 viewBox="0.00 0.00 468.00 28.00" xmlns="http://www.w3.org/2000/svg" xmlns:xlink="http://www.w3.org/1999/xlink">
<g id="graph0" class="graph" transform="scale(1 1) rotate(0) translate(4 24)">
<title>TNC_TNCS_ReportMessageTypesLong</title>
<!-- Node1 -->
<g id="node1" class="node"><title>Node1</title>
<polygon fill="#bfbfbf" stroke="black" points="0.5,-0.5 0.5,-19.5 193.5,-19.5 193.5,-0.5 0.5,-0.5"/>
<text text-anchor="middle" x="97" y="-7.5" font-family="Helvetica,sans-Serif" font-size="10.00">TNC_TNCS_ReportMessageTypesLong</text>
</g>
<!-- Node2 -->
<g id="node2" class="node"><title>Node2</title>
<g id="a_node2"><a xlink:href="../../de/dbd/group__tncifimv.html#gad09abcc928fb152cfae6c0631a052f32" target="_top" xlink:title="TNC_TNCS_BindFunction">
<polygon fill="none" stroke="black" points="230.5,-0.5 230.5,-19.5 363.5,-19.5 363.5,-0.5 230.5,-0.5"/>
<text text-anchor="middle" x="297" y="-7.5" font-family="Helvetica,sans-Serif" font-size="10.00">TNC_TNCS_BindFunction</text>
</a>
</g>
</g>
<!-- Node1&#45;&gt;Node2 -->
<g id="edge1" class="edge"><title>Node1&#45;&gt;Node2</title>
<path fill="none" stroke="midnightblue" d="M203.742,-10C212.781,-10 221.745,-10 230.331,-10"/>
<polygon fill="midnightblue" stroke="midnightblue" points="203.52,-6.5001 193.52,-10 203.52,-13.5001 203.52,-6.5001"/>
</g>
<!-- Node3 -->
<g id="node3" class="node"><title>Node3</title>
<g id="a_node3"><a xlink:href="../../d6/d24/tnc__imv__manager_8c.html#ae8940558ff138dcf444ee6e17d3729de" target="_top" xlink:title="METHOD">
<polygon fill="none" stroke="black" points="400,-0.5 400,-19.5 460,-19.5 460,-0.5 400,-0.5"/>
<text text-anchor="middle" x="430" y="-7.5" font-family="Helvetica,sans-Serif" font-size="10.00">METHOD</text>
</a>
</g>
</g>
<!-- Node2&#45;&gt;Node3 -->
<g id="edge2" class="edge"><title>Node2&#45;&gt;Node3</title>
<path fill="none" stroke="midnightblue" d="M373.898,-10C383.058,-10 391.939,-10 399.801,-10"/>
<polygon fill="midnightblue" stroke="midnightblue" points="373.884,-6.5001 363.884,-10 373.884,-13.5001 373.884,-6.5001"/>
</g>
</g>
</svg>
