<?xml version="1.0" encoding="UTF-8" standalone="no"?>
<!DOCTYPE svg PUBLIC "-//W3C//DTD SVG 1.1//EN"
 "http://www.w3.org/Graphics/SVG/1.1/DTD/svg11.dtd">
<!-- Generated by graphviz version 2.36.0 (20140111.2315)
 -->
<!-- Title: TNC_TNCS_GetAttribute Pages: 1 -->
<svg width="402pt" height="28pt"
 viewBox="0.00 0.00 402.00 28.00" xmlns="http://www.w3.org/2000/svg" xmlns:xlink="http://www.w3.org/1999/xlink">
<g id="graph0" class="graph" transform="scale(1 1) rotate(0) translate(4 24)">
<title>TNC_TNCS_GetAttribute</title>
<!-- Node1 -->
<g id="node1" class="node"><title>Node1</title>
<polygon fill="#bfbfbf" stroke="black" points="0,-0.5 0,-19.5 128,-19.5 128,-0.5 0,-0.5"/>
<text text-anchor="middle" x="64" y="-7.5" font-family="Helvetica,sans-Serif" font-size="10.00">TNC_TNCS_GetAttribute</text>
</g>
<!-- Node2 -->
<g id="node2" class="node"><title>Node2</title>
<g id="a_node2"><a xlink:href="../../de/dbd/group__tncifimv.html#gad09abcc928fb152cfae6c0631a052f32" target="_top" xlink:title="TNC_TNCS_BindFunction">
<polygon fill="none" stroke="black" points="164.5,-0.5 164.5,-19.5 297.5,-19.5 297.5,-0.5 164.5,-0.5"/>
<text text-anchor="middle" x="231" y="-7.5" font-family="Helvetica,sans-Serif" font-size="10.00">TNC_TNCS_BindFunction</text>
</a>
</g>
</g>
<!-- Node1&#45;&gt;Node2 -->
<g id="edge1" class="edge"><title>Node1&#45;&gt;Node2</title>
<path fill="none" stroke="midnightblue" d="M138.398,-10C147.055,-10 155.848,-10 164.388,-10"/>
<polygon fill="midnightblue" stroke="midnightblue" points="138.321,-6.5001 128.321,-10 138.321,-13.5001 138.321,-6.5001"/>
</g>
<!-- Node3 -->
<g id="node3" class="node"><title>Node3</title>
<g id="a_node3"><a xlink:href="../../d6/d24/tnc__imv__manager_8c.html#ae8940558ff138dcf444ee6e17d3729de" target="_top" xlink:title="METHOD">
<polygon fill="none" stroke="black" points="334,-0.5 334,-19.5 394,-19.5 394,-0.5 334,-0.5"/>
<text text-anchor="middle" x="364" y="-7.5" font-family="Helvetica,sans-Serif" font-size="10.00">METHOD</text>
</a>
</g>
</g>
<!-- Node2&#45;&gt;Node3 -->
<g id="edge2" class="edge"><title>Node2&#45;&gt;Node3</title>
<path fill="none" stroke="midnightblue" d="M307.898,-10C317.058,-10 325.939,-10 333.801,-10"/>
<polygon fill="midnightblue" stroke="midnightblue" points="307.884,-6.5001 297.884,-10 307.884,-13.5001 307.884,-6.5001"/>
</g>
</g>
</svg>
