<?xml version="1.0" encoding="UTF-8" standalone="no"?>
<!DOCTYPE svg PUBLIC "-//W3C//DTD SVG 1.1//EN"
 "http://www.w3.org/Graphics/SVG/1.1/DTD/svg11.dtd">
<!-- Generated by graphviz version 2.36.0 (20140111.2315)
 -->
<!-- Title: private_stroke_socket_t Pages: 1 -->
<svg width="904pt" height="379pt"
 viewBox="0.00 0.00 904.00 379.00" xmlns="http://www.w3.org/2000/svg" xmlns:xlink="http://www.w3.org/1999/xlink">
<g id="graph0" class="graph" transform="scale(1 1) rotate(0) translate(4 375)">
<title>private_stroke_socket_t</title>
<!-- Node1 -->
<g id="node1" class="node"><title>Node1</title>
<polygon fill="#bfbfbf" stroke="black" points="774.5,-179.5 774.5,-198.5 895.5,-198.5 895.5,-179.5 774.5,-179.5"/>
<text text-anchor="middle" x="835" y="-186.5" font-family="Helvetica,sans-Serif" font-size="10.00">private_stroke_socket_t</text>
</g>
<!-- Node2 -->
<g id="node2" class="node"><title>Node2</title>
<g id="a_node2"><a xlink:href="../../d9/dbf/structstroke__control__t.html" target="_top" xlink:title="stroke_control_t">
<polygon fill="none" stroke="black" points="609,-351.5 609,-370.5 695,-370.5 695,-351.5 609,-351.5"/>
<text text-anchor="middle" x="652" y="-358.5" font-family="Helvetica,sans-Serif" font-size="10.00">stroke_control_t</text>
</a>
</g>
</g>
<!-- Node2&#45;&gt;Node1 -->
<g id="edge1" class="edge"><title>Node2&#45;&gt;Node1</title>
<path fill="none" stroke="#9a32cd" stroke-dasharray="5,2" d="M693.19,-347.896C713.737,-339.71 738.111,-327.545 756,-311 793.096,-276.69 820.024,-221.048 829.883,-198.723"/>
<polygon fill="#9a32cd" stroke="#9a32cd" points="691.857,-344.658 683.757,-351.487 694.348,-351.2 691.857,-344.658"/>
<text text-anchor="middle" x="736" y="-340" font-family="Helvetica,sans-Serif" font-size="10.00"> control</text>
</g>
<!-- Node3 -->
<g id="node3" class="node"><title>Node3</title>
<g id="a_node3"><a xlink:href="../../d0/d85/structstroke__ca__t.html" target="_top" xlink:title="stroke_ca_t">
<polygon fill="none" stroke="black" points="618,-275.5 618,-294.5 686,-294.5 686,-275.5 618,-275.5"/>
<text text-anchor="middle" x="652" y="-282.5" font-family="Helvetica,sans-Serif" font-size="10.00">stroke_ca_t</text>
</a>
</g>
</g>
<!-- Node3&#45;&gt;Node1 -->
<g id="edge2" class="edge"><title>Node3&#45;&gt;Node1</title>
<path fill="none" stroke="#9a32cd" stroke-dasharray="5,2" d="M690.928,-271.808C710.787,-264.339 735.227,-254.251 756,-243 780.62,-229.666 806.938,-210.228 821.842,-198.673"/>
<polygon fill="#9a32cd" stroke="#9a32cd" points="689.465,-268.617 681.295,-275.362 691.888,-275.184 689.465,-268.617"/>
<text text-anchor="middle" x="736" y="-264" font-family="Helvetica,sans-Serif" font-size="10.00"> ca</text>
</g>
<!-- Node4 -->
<g id="node4" class="node"><title>Node4</title>
<g id="a_node4"><a xlink:href="../../d6/d41/structcertificate__t.html" target="_top" xlink:title="certificate_t">
<polygon fill="none" stroke="black" points="446,-295.5 446,-314.5 514,-314.5 514,-295.5 446,-295.5"/>
<text text-anchor="middle" x="480" y="-302.5" font-family="Helvetica,sans-Serif" font-size="10.00">certificate_t</text>
</a>
</g>
</g>
<!-- Node4&#45;&gt;Node3 -->
<g id="edge3" class="edge"><title>Node4&#45;&gt;Node3</title>
<path fill="none" stroke="#9a32cd" stroke-dasharray="5,2" d="M524.472,-299.886C553.559,-296.464 591.247,-292.03 617.902,-288.894"/>
<polygon fill="#9a32cd" stroke="#9a32cd" points="523.704,-296.452 514.181,-301.096 524.522,-303.404 523.704,-296.452"/>
<text text-anchor="middle" x="560" y="-301" font-family="Helvetica,sans-Serif" font-size="10.00"> get_cert_ref</text>
</g>
<!-- Node4&#45;&gt;Node4 -->
<g id="edge4" class="edge"><title>Node4&#45;&gt;Node4</title>
<path fill="none" stroke="#9a32cd" stroke-dasharray="5,2" d="M465.268,-324.766C466.425,-329.497 471.335,-333 480,-333 494.219,-333 498.329,-323.565 492.33,-314.757"/>
<polygon fill="#9a32cd" stroke="#9a32cd" points="468.739,-325.298 467.67,-314.757 461.933,-323.664 468.739,-325.298"/>
<text text-anchor="middle" x="480" y="-336" font-family="Helvetica,sans-Serif" font-size="10.00"> get_ref</text>
</g>
<!-- Node10 -->
<g id="node10" class="node"><title>Node10</title>
<g id="a_node10"><a xlink:href="../../df/d70/structstroke__cred__t.html" target="_top" xlink:title="stroke_cred_t">
<polygon fill="none" stroke="black" points="614,-313.5 614,-332.5 690,-332.5 690,-313.5 614,-313.5"/>
<text text-anchor="middle" x="652" y="-320.5" font-family="Helvetica,sans-Serif" font-size="10.00">stroke_cred_t</text>
</a>
</g>
</g>
<!-- Node4&#45;&gt;Node10 -->
<g id="edge14" class="edge"><title>Node4&#45;&gt;Node10</title>
<path fill="none" stroke="#9a32cd" stroke-dasharray="5,2" d="M523.898,-315.677C526.63,-316.176 529.347,-316.624 532,-317 559.24,-320.859 590.296,-322.328 613.85,-322.848"/>
<polygon fill="#9a32cd" stroke="#9a32cd" points="524.525,-312.233 514.03,-313.687 523.141,-319.095 524.525,-312.233"/>
<text text-anchor="middle" x="560" y="-335" font-family="Helvetica,sans-Serif" font-size="10.00"> load_peer</text>
<text text-anchor="middle" x="560" y="-324" font-family="Helvetica,sans-Serif" font-size="10.00">load_pubkey</text>
</g>
<!-- Node5 -->
<g id="node5" class="node"><title>Node5</title>
<g id="a_node5"><a xlink:href="../../d6/d02/structidentification__t.html" target="_top" xlink:title="identification_t">
<polygon fill="none" stroke="black" points="216,-139.5 216,-158.5 296,-158.5 296,-139.5 216,-139.5"/>
<text text-anchor="middle" x="256" y="-146.5" font-family="Helvetica,sans-Serif" font-size="10.00">identification_t</text>
</a>
</g>
</g>
<!-- Node5&#45;&gt;Node4 -->
<g id="edge5" class="edge"><title>Node5&#45;&gt;Node4</title>
<path fill="none" stroke="#9a32cd" stroke-dasharray="5,2" d="M278.835,-164.343C324.314,-196.302 428.062,-269.206 465.342,-295.403"/>
<polygon fill="#9a32cd" stroke="#9a32cd" points="280.747,-161.409 270.553,-158.524 276.723,-167.137 280.747,-161.409"/>
<text text-anchor="middle" x="371" y="-281" font-family="Helvetica,sans-Serif" font-size="10.00"> get_subject</text>
<text text-anchor="middle" x="371" y="-270" font-family="Helvetica,sans-Serif" font-size="10.00">get_issuer</text>
</g>
<!-- Node5&#45;&gt;Node5 -->
<g id="edge6" class="edge"><title>Node5&#45;&gt;Node5</title>
<path fill="none" stroke="#9a32cd" stroke-dasharray="5,2" d="M235.631,-168.4C236.991,-173.315 243.781,-177 256,-177 275.551,-177 281.202,-167.565 272.954,-158.757"/>
<polygon fill="#9a32cd" stroke="#9a32cd" points="239.007,-169.352 239.046,-158.757 232.408,-167.015 239.007,-169.352"/>
<text text-anchor="middle" x="256" y="-180" font-family="Helvetica,sans-Serif" font-size="10.00"> clone</text>
</g>
<!-- Node6 -->
<g id="node6" class="node"><title>Node6</title>
<g id="a_node6"><a xlink:href="../../d0/d14/structchunk__t.html" target="_top" xlink:title="chunk_t">
<polygon fill="none" stroke="black" points="11.5,-139.5 11.5,-158.5 62.5,-158.5 62.5,-139.5 11.5,-139.5"/>
<text text-anchor="middle" x="37" y="-146.5" font-family="Helvetica,sans-Serif" font-size="10.00">chunk_t</text>
</a>
</g>
</g>
<!-- Node6&#45;&gt;Node5 -->
<g id="edge7" class="edge"><title>Node6&#45;&gt;Node5</title>
<path fill="none" stroke="#9a32cd" stroke-dasharray="5,2" d="M73.2433,-149C112.312,-149 175.16,-149 215.766,-149"/>
<polygon fill="#9a32cd" stroke="#9a32cd" points="72.8927,-145.5 62.8927,-149 72.8926,-152.5 72.8927,-145.5"/>
<text text-anchor="middle" x="145" y="-152" font-family="Helvetica,sans-Serif" font-size="10.00"> get_encoding</text>
</g>
<!-- Node7 -->
<g id="node7" class="node"><title>Node7</title>
<g id="a_node7"><a xlink:href="../../db/dd3/structenumerator__t.html" target="_top" xlink:title="enumerator_t">
<polygon fill="none" stroke="black" points="0,-67.5 0,-86.5 74,-86.5 74,-67.5 0,-67.5"/>
<text text-anchor="middle" x="37" y="-74.5" font-family="Helvetica,sans-Serif" font-size="10.00">enumerator_t</text>
</a>
</g>
</g>
<!-- Node7&#45;&gt;Node5 -->
<g id="edge8" class="edge"><title>Node7&#45;&gt;Node5</title>
<path fill="none" stroke="#9a32cd" stroke-dasharray="5,2" d="M76.3309,-89.7181C119.149,-103.925 187.499,-126.603 226.065,-139.399"/>
<polygon fill="#9a32cd" stroke="#9a32cd" points="77.4094,-86.3883 66.8159,-86.561 75.2049,-93.0322 77.4094,-86.3883"/>
<text text-anchor="middle" x="145" y="-132" font-family="Helvetica,sans-Serif" font-size="10.00"> create_part_enumerator</text>
</g>
<!-- Node16 -->
<g id="node16" class="node"><title>Node16</title>
<g id="a_node16"><a xlink:href="../../dd/d94/structstroke__attribute__t.html" target="_top" xlink:title="stroke_attribute_t">
<polygon fill="none" stroke="black" points="606,-38.5 606,-57.5 698,-57.5 698,-38.5 606,-38.5"/>
<text text-anchor="middle" x="652" y="-45.5" font-family="Helvetica,sans-Serif" font-size="10.00">stroke_attribute_t</text>
</a>
</g>
</g>
<!-- Node7&#45;&gt;Node16 -->
<g id="edge26" class="edge"><title>Node7&#45;&gt;Node16</title>
<path fill="none" stroke="#9a32cd" stroke-dasharray="5,2" d="M84.2087,-74.8139C198.335,-69.4148 492.477,-55.4994 605.672,-50.1444"/>
<polygon fill="#9a32cd" stroke="#9a32cd" points="83.8808,-71.3254 74.0574,-75.2942 84.2116,-78.3176 83.8808,-71.3254"/>
<text text-anchor="middle" x="371" y="-77" font-family="Helvetica,sans-Serif" font-size="10.00"> create_lease_enumerator</text>
<text text-anchor="middle" x="371" y="-66" font-family="Helvetica,sans-Serif" font-size="10.00">create_pool_enumerator</text>
</g>
<!-- Node8 -->
<g id="node8" class="node"><title>Node8</title>
<g id="a_node8"><a xlink:href="../../d0/d6f/structpublic__key__t.html" target="_top" xlink:title="public_key_t">
<polygon fill="none" stroke="black" points="220.5,-295.5 220.5,-314.5 291.5,-314.5 291.5,-295.5 220.5,-295.5"/>
<text text-anchor="middle" x="256" y="-302.5" font-family="Helvetica,sans-Serif" font-size="10.00">public_key_t</text>
</a>
</g>
</g>
<!-- Node8&#45;&gt;Node4 -->
<g id="edge9" class="edge"><title>Node8&#45;&gt;Node4</title>
<path fill="none" stroke="#9a32cd" stroke-dasharray="5,2" d="M301.77,-305C344.32,-305 407.34,-305 445.644,-305"/>
<polygon fill="#9a32cd" stroke="#9a32cd" points="301.688,-301.5 291.688,-305 301.687,-308.5 301.688,-301.5"/>
<text text-anchor="middle" x="371" y="-308" font-family="Helvetica,sans-Serif" font-size="10.00"> get_public_key</text>
</g>
<!-- Node8&#45;&gt;Node8 -->
<g id="edge10" class="edge"><title>Node8&#45;&gt;Node8</title>
<path fill="none" stroke="#9a32cd" stroke-dasharray="5,2" d="M235.631,-324.4C236.991,-329.315 243.781,-333 256,-333 275.551,-333 281.202,-323.565 272.954,-314.757"/>
<polygon fill="#9a32cd" stroke="#9a32cd" points="239.007,-325.352 239.046,-314.757 232.408,-323.015 239.007,-325.352"/>
<text text-anchor="middle" x="256" y="-336" font-family="Helvetica,sans-Serif" font-size="10.00"> get_ref</text>
</g>
<!-- Node9 -->
<g id="node9" class="node"><title>Node9</title>
<polygon fill="none" stroke="#bfbfbf" points="459.5,-160.5 459.5,-179.5 500.5,-179.5 500.5,-160.5 459.5,-160.5"/>
<text text-anchor="middle" x="480" y="-167.5" font-family="Helvetica,sans-Serif" font-size="10.00">struct</text>
</g>
<!-- Node9&#45;&gt;Node1 -->
<g id="edge12" class="edge"><title>Node9&#45;&gt;Node1</title>
<path fill="none" stroke="#9a32cd" stroke-dasharray="5,2" d="M510.819,-170.935C552.66,-172.316 631.165,-175.158 698,-179 723.054,-180.44 750.677,-182.402 774.446,-184.207"/>
<polygon fill="#9a32cd" stroke="#9a32cd" points="510.866,-167.435 500.758,-170.608 510.639,-174.431 510.866,-167.435"/>
<text text-anchor="middle" x="652" y="-182" font-family="Helvetica,sans-Serif" font-size="10.00"> public</text>
</g>
<!-- Node9&#45;&gt;Node3 -->
<g id="edge11" class="edge"><title>Node9&#45;&gt;Node3</title>
<path fill="none" stroke="#9a32cd" stroke-dasharray="5,2" d="M497.196,-186.826C506.701,-196.021 519.309,-207.108 532,-215 554.849,-229.209 567.327,-220.778 588,-238 599.367,-247.469 594.68,-256.475 606,-266 610.412,-269.713 615.656,-272.794 620.977,-275.316"/>
<polygon fill="#9a32cd" stroke="#9a32cd" points="499.561,-184.242 490.008,-179.66 494.619,-189.199 499.561,-184.242"/>
<text text-anchor="middle" x="560" y="-241" font-family="Helvetica,sans-Serif" font-size="10.00"> set</text>
</g>
<!-- Node9&#45;&gt;Node10 -->
<g id="edge15" class="edge"><title>Node9&#45;&gt;Node10</title>
<path fill="none" stroke="#9a32cd" stroke-dasharray="5,2" d="M489.53,-188.859C498.183,-206.282 512.994,-231.971 532,-249 552.725,-267.569 567.139,-258.584 588,-277 598.812,-286.545 594.888,-294.807 606,-304 610.574,-307.784 616.011,-310.919 621.497,-313.477"/>
<polygon fill="#9a32cd" stroke="#9a32cd" points="492.621,-187.209 485.163,-179.684 486.301,-190.217 492.621,-187.209"/>
<text text-anchor="middle" x="560" y="-280" font-family="Helvetica,sans-Serif" font-size="10.00"> set</text>
</g>
<!-- Node12 -->
<g id="node12" class="node"><title>Node12</title>
<g id="a_node12"><a xlink:href="../../d9/d6d/structstroke__config__t.html" target="_top" xlink:title="stroke_config_t">
<polygon fill="none" stroke="black" points="610.5,-114.5 610.5,-133.5 693.5,-133.5 693.5,-114.5 610.5,-114.5"/>
<text text-anchor="middle" x="652" y="-121.5" font-family="Helvetica,sans-Serif" font-size="10.00">stroke_config_t</text>
</a>
</g>
</g>
<!-- Node9&#45;&gt;Node12 -->
<g id="edge18" class="edge"><title>Node9&#45;&gt;Node12</title>
<path fill="none" stroke="#9a32cd" stroke-dasharray="5,2" d="M506.617,-155.698C514.559,-151.745 523.469,-147.782 532,-145 557.43,-136.707 587.048,-131.466 610.373,-128.293"/>
<polygon fill="#9a32cd" stroke="#9a32cd" points="504.76,-152.718 497.5,-160.435 507.988,-158.93 504.76,-152.718"/>
<text text-anchor="middle" x="560" y="-148" font-family="Helvetica,sans-Serif" font-size="10.00"> backend</text>
</g>
<!-- Node13 -->
<g id="node13" class="node"><title>Node13</title>
<g id="a_node13"><a xlink:href="../../d5/d14/structstroke__counter__t.html" target="_top" xlink:title="stroke_counter_t">
<polygon fill="none" stroke="black" points="607.5,-0.5 607.5,-19.5 696.5,-19.5 696.5,-0.5 607.5,-0.5"/>
<text text-anchor="middle" x="652" y="-7.5" font-family="Helvetica,sans-Serif" font-size="10.00">stroke_counter_t</text>
</a>
</g>
</g>
<!-- Node9&#45;&gt;Node13 -->
<g id="edge20" class="edge"><title>Node9&#45;&gt;Node13</title>
<path fill="none" stroke="#9a32cd" stroke-dasharray="5,2" d="M487.834,-150.817C495.906,-130.218 510.947,-97.4341 532,-75 557.291,-48.0498 596.319,-29.7083 622.722,-19.5527"/>
<polygon fill="#9a32cd" stroke="#9a32cd" points="484.49,-149.766 484.254,-160.358 491.044,-152.225 484.49,-149.766"/>
<text text-anchor="middle" x="560" y="-78" font-family="Helvetica,sans-Serif" font-size="10.00"> listener</text>
</g>
<!-- Node15 -->
<g id="node15" class="node"><title>Node15</title>
<g id="a_node15"><a xlink:href="../../d1/d72/structstroke__handler__t.html" target="_top" xlink:title="stroke_handler_t">
<polygon fill="none" stroke="black" points="607.5,-237.5 607.5,-256.5 696.5,-256.5 696.5,-237.5 607.5,-237.5"/>
<text text-anchor="middle" x="652" y="-244.5" font-family="Helvetica,sans-Serif" font-size="10.00">stroke_handler_t</text>
</a>
</g>
</g>
<!-- Node9&#45;&gt;Node15 -->
<g id="edge23" class="edge"><title>Node9&#45;&gt;Node15</title>
<path fill="none" stroke="#9a32cd" stroke-dasharray="5,2" d="M510.601,-177.235C537.708,-184.245 575.458,-195.094 588,-204 598.871,-211.72 595.495,-219.789 606,-228 610.811,-231.76 616.475,-234.908 622.132,-237.491"/>
<polygon fill="#9a32cd" stroke="#9a32cd" points="511.361,-173.817 500.808,-174.748 509.639,-180.602 511.361,-173.817"/>
<text text-anchor="middle" x="560" y="-207" font-family="Helvetica,sans-Serif" font-size="10.00"> handler</text>
</g>
<!-- Node9&#45;&gt;Node16 -->
<g id="edge25" class="edge"><title>Node9&#45;&gt;Node16</title>
<path fill="none" stroke="#9a32cd" stroke-dasharray="5,2" d="M494.944,-152.287C504.513,-140.929 517.976,-126.416 532,-116 554.339,-99.4088 566.067,-105.125 588,-88 597.689,-80.4349 596.073,-74.2506 606,-67 611.068,-63.2986 616.966,-60.1495 622.79,-57.5426"/>
<polygon fill="#9a32cd" stroke="#9a32cd" points="492.063,-150.281 488.441,-160.237 497.482,-154.713 492.063,-150.281"/>
<text text-anchor="middle" x="560" y="-119" font-family="Helvetica,sans-Serif" font-size="10.00"> provider</text>
</g>
<!-- Node10&#45;&gt;Node1 -->
<g id="edge13" class="edge"><title>Node10&#45;&gt;Node1</title>
<path fill="none" stroke="#9a32cd" stroke-dasharray="5,2" d="M685.864,-309.35C689.964,-307.581 694.088,-305.769 698,-304 724.082,-292.207 733.123,-293.205 756,-276 786.804,-252.833 814.849,-216.131 827.262,-198.747"/>
<polygon fill="#9a32cd" stroke="#9a32cd" points="684.28,-306.22 676.453,-313.36 687.024,-312.66 684.28,-306.22"/>
<text text-anchor="middle" x="736" y="-299" font-family="Helvetica,sans-Serif" font-size="10.00"> cred</text>
</g>
<!-- Node11 -->
<g id="node11" class="node"><title>Node11</title>
<g id="a_node11"><a xlink:href="../../d3/d91/structstroke__list__t.html" target="_top" xlink:title="stroke_list_t">
<polygon fill="none" stroke="black" points="617,-199.5 617,-218.5 687,-218.5 687,-199.5 617,-199.5"/>
<text text-anchor="middle" x="652" y="-206.5" font-family="Helvetica,sans-Serif" font-size="10.00">stroke_list_t</text>
</a>
</g>
</g>
<!-- Node11&#45;&gt;Node1 -->
<g id="edge16" class="edge"><title>Node11&#45;&gt;Node1</title>
<path fill="none" stroke="#9a32cd" stroke-dasharray="5,2" d="M697.294,-204.106C720.522,-201.539 749.3,-198.359 774.452,-195.58"/>
<polygon fill="#9a32cd" stroke="#9a32cd" points="696.6,-200.661 687.045,-205.238 697.369,-207.619 696.6,-200.661"/>
<text text-anchor="middle" x="736" y="-204" font-family="Helvetica,sans-Serif" font-size="10.00"> list</text>
</g>
<!-- Node12&#45;&gt;Node1 -->
<g id="edge17" class="edge"><title>Node12&#45;&gt;Node1</title>
<path fill="none" stroke="#9a32cd" stroke-dasharray="5,2" d="M704.143,-131.167C720.975,-134.38 739.576,-138.867 756,-145 779.887,-153.919 805.18,-169.468 820.274,-179.492"/>
<polygon fill="#9a32cd" stroke="#9a32cd" points="704.389,-127.655 693.927,-129.328 703.149,-134.545 704.389,-127.655"/>
<text text-anchor="middle" x="736" y="-148" font-family="Helvetica,sans-Serif" font-size="10.00"> config</text>
</g>
<!-- Node13&#45;&gt;Node1 -->
<g id="edge19" class="edge"><title>Node13&#45;&gt;Node1</title>
<path fill="none" stroke="#9a32cd" stroke-dasharray="5,2" d="M706.613,-22.424C723.785,-28.3498 741.966,-36.883 756,-49 799.383,-86.457 823.453,-154.285 831.201,-179.351"/>
<polygon fill="#9a32cd" stroke="#9a32cd" points="707.249,-18.9523 696.658,-19.2289 705.11,-25.6174 707.249,-18.9523"/>
<text text-anchor="middle" x="736" y="-52" font-family="Helvetica,sans-Serif" font-size="10.00"> counter</text>
</g>
<!-- Node14 -->
<g id="node14" class="node"><title>Node14</title>
<g id="a_node14"><a xlink:href="../../dc/d5e/structstream__service__t.html" target="_top" xlink:title="stream_service_t">
<polygon fill="none" stroke="black" points="606,-76.5 606,-95.5 698,-95.5 698,-76.5 606,-76.5"/>
<text text-anchor="middle" x="652" y="-83.5" font-family="Helvetica,sans-Serif" font-size="10.00">stream_service_t</text>
</a>
</g>
</g>
<!-- Node14&#45;&gt;Node1 -->
<g id="edge21" class="edge"><title>Node14&#45;&gt;Node1</title>
<path fill="none" stroke="#9a32cd" stroke-dasharray="5,2" d="M707.948,-98.2467C724.043,-103.091 741.263,-109.565 756,-118 785.243,-134.737 812.744,-164.093 825.9,-179.282"/>
<polygon fill="#9a32cd" stroke="#9a32cd" points="708.681,-94.8162 698.104,-95.4381 706.76,-101.548 708.681,-94.8162"/>
<text text-anchor="middle" x="736" y="-121" font-family="Helvetica,sans-Serif" font-size="10.00"> service</text>
</g>
<!-- Node15&#45;&gt;Node1 -->
<g id="edge22" class="edge"><title>Node15&#45;&gt;Node1</title>
<path fill="none" stroke="#9a32cd" stroke-dasharray="5,2" d="M695.696,-234.576C714.277,-229.059 736.27,-222.381 756,-216 773.18,-210.444 792.344,-203.816 807.377,-198.518"/>
<polygon fill="#9a32cd" stroke="#9a32cd" points="694.639,-231.238 686.041,-237.429 696.623,-237.951 694.639,-231.238"/>
<text text-anchor="middle" x="736" y="-231" font-family="Helvetica,sans-Serif" font-size="10.00"> handler</text>
</g>
<!-- Node16&#45;&gt;Node1 -->
<g id="edge24" class="edge"><title>Node16&#45;&gt;Node1</title>
<path fill="none" stroke="#9a32cd" stroke-dasharray="5,2" d="M704.79,-60.7289C722.142,-66.5913 740.898,-74.8016 756,-86 791.495,-112.32 818.551,-159.126 829.137,-179.303"/>
<polygon fill="#9a32cd" stroke="#9a32cd" points="705.364,-57.2389 694.773,-57.5437 703.243,-63.9097 705.364,-57.2389"/>
<text text-anchor="middle" x="736" y="-89" font-family="Helvetica,sans-Serif" font-size="10.00"> attribute</text>
</g>
</g>
</svg>
