<?xml version="1.0" encoding="UTF-8" standalone="no"?>
<!DOCTYPE svg PUBLIC "-//W3C//DTD SVG 1.1//EN"
 "http://www.w3.org/Graphics/SVG/1.1/DTD/svg11.dtd">
<!-- Generated by graphviz version 2.36.0 (20140111.2315)
 -->
<!-- Title: command_usage Pages: 1 -->
<svg width="354pt" height="47pt"
 viewBox="0.00 0.00 354.00 47.00" xmlns="http://www.w3.org/2000/svg" xmlns:xlink="http://www.w3.org/1999/xlink">
<g id="graph0" class="graph" transform="scale(1 1) rotate(0) translate(4 43)">
<title>command_usage</title>
<!-- Node1 -->
<g id="node1" class="node"><title>Node1</title>
<polygon fill="#bfbfbf" stroke="black" points="0.5,-0.5 0.5,-19.5 91.5,-19.5 91.5,-0.5 0.5,-0.5"/>
<text text-anchor="middle" x="46" y="-7.5" font-family="Helvetica,sans-Serif" font-size="10.00">command_usage</text>
</g>
<!-- Node2 -->
<g id="node2" class="node"><title>Node2</title>
<g id="a_node2"><a xlink:href="../../d1/d2c/swanctl_2command_8c.html#aedfc5ffe8604f7577626ea8498868298" target="_top" xlink:title="call_command">
<polygon fill="none" stroke="black" points="128,-19.5 128,-38.5 208,-38.5 208,-19.5 128,-19.5"/>
<text text-anchor="middle" x="168" y="-26.5" font-family="Helvetica,sans-Serif" font-size="10.00">call_command</text>
</a>
</g>
</g>
<!-- Node1&#45;&gt;Node2 -->
<g id="edge1" class="edge"><title>Node1&#45;&gt;Node2</title>
<path fill="none" stroke="midnightblue" d="M101.564,-18.6393C110.412,-20.0402 119.419,-21.4663 127.806,-22.7943"/>
<polygon fill="midnightblue" stroke="midnightblue" points="102.108,-15.1819 91.6836,-17.0749 101.013,-22.0958 102.108,-15.1819"/>
</g>
<!-- Node3 -->
<g id="node3" class="node"><title>Node3</title>
<g id="a_node3"><a xlink:href="../../dc/d53/group__command.html#ga8da2ffb2b8e7d61768302a02ed1ec372" target="_top" xlink:title="command_dispatch">
<polygon fill="none" stroke="black" points="244.5,-0.5 244.5,-19.5 345.5,-19.5 345.5,-0.5 244.5,-0.5"/>
<text text-anchor="middle" x="295" y="-7.5" font-family="Helvetica,sans-Serif" font-size="10.00">command_dispatch</text>
</a>
</g>
</g>
<!-- Node1&#45;&gt;Node3 -->
<g id="edge3" class="edge"><title>Node1&#45;&gt;Node3</title>
<path fill="none" stroke="midnightblue" d="M101.908,-10C144.439,-10 202.865,-10 244.082,-10"/>
<polygon fill="midnightblue" stroke="midnightblue" points="101.73,-6.5001 91.7298,-10 101.73,-13.5001 101.73,-6.5001"/>
</g>
<!-- Node2&#45;&gt;Node3 -->
<g id="edge2" class="edge"><title>Node2&#45;&gt;Node3</title>
<path fill="none" stroke="midnightblue" d="M218.121,-21.5336C226.74,-20.2235 235.716,-18.8592 244.35,-17.5468"/>
<polygon fill="midnightblue" stroke="midnightblue" points="217.568,-18.0773 208.208,-23.0404 218.62,-24.9978 217.568,-18.0773"/>
</g>
</g>
</svg>
