<?xml version="1.0" encoding="UTF-8" standalone="no"?>
<!DOCTYPE svg PUBLIC "-//W3C//DTD SVG 1.1//EN"
 "http://www.w3.org/Graphics/SVG/1.1/DTD/svg11.dtd">
<!-- Generated by graphviz version 2.36.0 (20140111.2315)
 -->
<!-- Title: is_contained_in Pages: 1 -->
<svg width="434pt" height="28pt"
 viewBox="0.00 0.00 434.00 28.00" xmlns="http://www.w3.org/2000/svg" xmlns:xlink="http://www.w3.org/1999/xlink">
<g id="graph0" class="graph" transform="scale(1 1) rotate(0) translate(4 24)">
<title>is_contained_in</title>
<!-- Node1 -->
<g id="node1" class="node"><title>Node1</title>
<polygon fill="#bfbfbf" stroke="black" points="0,-0.5 0,-19.5 84,-19.5 84,-0.5 0,-0.5"/>
<text text-anchor="middle" x="42" y="-7.5" font-family="Helvetica,sans-Serif" font-size="10.00">is_contained_in</text>
</g>
<!-- Node2 -->
<g id="node2" class="node"><title>Node2</title>
<g id="a_node2"><a xlink:href="../../d6/dea/conf__parser_8c.html#a7570948b56a9042a6eee73c4c199187e" target="_top" xlink:title="resolve_also_single">
<polygon fill="none" stroke="black" points="120,-0.5 120,-19.5 222,-19.5 222,-0.5 120,-0.5"/>
<text text-anchor="middle" x="171" y="-7.5" font-family="Helvetica,sans-Serif" font-size="10.00">resolve_also_single</text>
</a>
</g>
</g>
<!-- Node1&#45;&gt;Node2 -->
<g id="edge1" class="edge"><title>Node1&#45;&gt;Node2</title>
<path fill="none" stroke="midnightblue" d="M94.2602,-10C102.634,-10 111.303,-10 119.655,-10"/>
<polygon fill="midnightblue" stroke="midnightblue" points="94.2333,-6.5001 84.2333,-10 94.2332,-13.5001 94.2333,-6.5001"/>
</g>
<!-- Node3 -->
<g id="node3" class="node"><title>Node3</title>
<g id="a_node3"><a xlink:href="../../d6/dea/conf__parser_8c.html#a0c2e1ead93c8e15a65620a38275d27bb" target="_top" xlink:title="resolve_also">
<polygon fill="none" stroke="black" points="258.5,-0.5 258.5,-19.5 329.5,-19.5 329.5,-0.5 258.5,-0.5"/>
<text text-anchor="middle" x="294" y="-7.5" font-family="Helvetica,sans-Serif" font-size="10.00">resolve_also</text>
</a>
</g>
</g>
<!-- Node2&#45;&gt;Node3 -->
<g id="edge2" class="edge"><title>Node2&#45;&gt;Node3</title>
<path fill="none" stroke="midnightblue" d="M232.542,-10C241.336,-10 250.128,-10 258.176,-10"/>
<polygon fill="midnightblue" stroke="midnightblue" points="232.264,-6.5001 222.264,-10 232.264,-13.5001 232.264,-6.5001"/>
</g>
<!-- Node4 -->
<g id="node4" class="node"><title>Node4</title>
<g id="a_node4"><a xlink:href="../../d6/dea/conf__parser_8c.html#a512e3569a0766613b708f947f05eb4aa" target="_top" xlink:title="METHOD">
<polygon fill="none" stroke="black" points="366,-0.5 366,-19.5 426,-19.5 426,-0.5 366,-0.5"/>
<text text-anchor="middle" x="396" y="-7.5" font-family="Helvetica,sans-Serif" font-size="10.00">METHOD</text>
</a>
</g>
</g>
<!-- Node3&#45;&gt;Node4 -->
<g id="edge3" class="edge"><title>Node3&#45;&gt;Node4</title>
<path fill="none" stroke="midnightblue" d="M339.824,-10C348.593,-10 357.577,-10 365.681,-10"/>
<polygon fill="midnightblue" stroke="midnightblue" points="339.695,-6.5001 329.695,-10 339.694,-13.5001 339.695,-6.5001"/>
</g>
</g>
</svg>
