<?xml version="1.0" encoding="UTF-8" standalone="no"?>
<!DOCTYPE svg PUBLIC "-//W3C//DTD SVG 1.1//EN"
 "http://www.w3.org/Graphics/SVG/1.1/DTD/svg11.dtd">
<!-- Generated by graphviz version 2.36.0 (20140111.2315)
 -->
<!-- Title: pkcs1_public_key_load Pages: 1 -->
<!--zoomable 123 -->
<svg id="main" version="1.1" xmlns="http://www.w3.org/2000/svg" xmlns:xlink="http://www.w3.org/1999/xlink" xml:space="preserve" onload="init(evt)">
<style type="text/css"><![CDATA[
.edge:hover path { stroke: red; }
.edge:hover polygon { stroke: red; fill: red; }
]]></style>
<script type="text/javascript"><![CDATA[
var edges = document.getElementsByTagName('g');
if (edges && edges.length) {
  for (var i=0;i<edges.length;i++) {
    if (edges[i].id.substr(0,4)=='edge') {
      edges[i].setAttribute('class','edge');
    }
  }
}
]]></script>
        <defs>
                <circle id="rim" cx="0" cy="0" r="7"/>
                <circle id="rim2" cx="0" cy="0" r="3.5"/>
                <g id="zoomPlus">
                        <use xlink:href="#rim" fill="#404040">
                                <set attributeName="fill" to="#808080" begin="zoomplus.mouseover" end="zoomplus.mouseout"/>
                        </use>
                        <path d="M-4,0h8M0,-4v8" fill="none" stroke="white" stroke-width="1.5" pointer-events="none"/>
                </g>
                <g id="zoomMin">
                        <use xlink:href="#rim" fill="#404040">
                                <set attributeName="fill" to="#808080" begin="zoomminus.mouseover" end="zoomminus.mouseout"/>
                        </use>
                        <path d="M-4,0h8" fill="none" stroke="white" stroke-width="1.5" pointer-events="none"/>
                </g>
                <g id="dirArrow">
                        <path fill="none" stroke="white" stroke-width="1.5" d="M0,-3.0v7 M-2.5,-0.5L0,-3.0L2.5,-0.5"/>
                </g>
               <g id="resetDef">
                       <use xlink:href="#rim2" fill="#404040">
                               <set attributeName="fill" to="#808080" begin="reset.mouseover" end="reset.mouseout"/>
                       </use>
               </g>
        </defs>

<script type="text/javascript">
var viewWidth = 598;
var viewHeight = 123;
var sectionId = 'dynsection-3';
</script>
<script xlink:href="../../svgpan.js"/>
<svg id="graph" class="graph">
<g id="viewport">
<title>pkcs1_public_key_load</title>
<!-- Node1 -->
<g id="node1" class="node"><title>Node1</title>
<polygon fill="#bfbfbf" stroke="black" points="0,-23.5 0,-42.5 118,-42.5 118,-23.5 0,-23.5"/>
<text text-anchor="middle" x="59" y="-30.5" font-family="Helvetica,sans-Serif" font-size="10.00">pkcs1_public_key_load</text>
</g>
<!-- Node2 -->
<g id="node2" class="node"><title>Node2</title>
<g id="a_node2"><a xlink:href="../../d1/d12/pkcs1__builder_8c.html#a882d5b31c341a0390987d5f97d1d19b2" target="_top" xlink:title="parse_public_key">
<polygon fill="none" stroke="black" points="164,-47.5 164,-66.5 256,-66.5 256,-47.5 164,-47.5"/>
<text text-anchor="middle" x="210" y="-54.5" font-family="Helvetica,sans-Serif" font-size="10.00">parse_public_key</text>
</a>
</g>
</g>
<!-- Node1&#45;&gt;Node2 -->
<g id="edge1" class="edge"><title>Node1&#45;&gt;Node2</title>
<path fill="none" stroke="midnightblue" d="M118.034,-42.3477C129.789,-44.2412 142.12,-46.2274 153.775,-48.1047"/>
<polygon fill="midnightblue" stroke="midnightblue" points="153.382,-51.5865 163.812,-49.7213 154.496,-44.6756 153.382,-51.5865"/>
</g>
<!-- Node7 -->
<g id="node7" class="node"><title>Node7</title>
<g id="a_node7"><a xlink:href="../../d1/d12/pkcs1__builder_8c.html#a3758cd1f60afcfedaa7fad6cb73e50f0" target="_top" xlink:title="parse_rsa_public_key">
<polygon fill="none" stroke="black" points="154.5,-0.5 154.5,-19.5 265.5,-19.5 265.5,-0.5 154.5,-0.5"/>
<text text-anchor="middle" x="210" y="-7.5" font-family="Helvetica,sans-Serif" font-size="10.00">parse_rsa_public_key</text>
</a>
</g>
</g>
<!-- Node1&#45;&gt;Node7 -->
<g id="edge7" class="edge"><title>Node1&#45;&gt;Node7</title>
<path fill="none" stroke="midnightblue" d="M118.034,-24.0417C126.609,-22.7181 135.49,-21.3472 144.191,-20.004"/>
<polygon fill="midnightblue" stroke="midnightblue" points="144.946,-23.4291 154.295,-18.4444 143.878,-16.5111 144.946,-23.4291"/>
</g>
<!-- Node3 -->
<g id="node3" class="node"><title>Node3</title>
<g id="a_node3"><a xlink:href="../../d0/da0/group__asn1i.html#gaf1c57c55e55ab24f59c66c8458d53cbb" target="_top" xlink:title="asn1_parse_algorithmIdentifier">
<polygon fill="none" stroke="black" points="302.5,-95.5 302.5,-114.5 451.5,-114.5 451.5,-95.5 302.5,-95.5"/>
<text text-anchor="middle" x="377" y="-102.5" font-family="Helvetica,sans-Serif" font-size="10.00">asn1_parse_algorithmIdentifier</text>
</a>
</g>
</g>
<!-- Node2&#45;&gt;Node3 -->
<g id="edge2" class="edge"><title>Node2&#45;&gt;Node3</title>
<path fill="none" stroke="midnightblue" d="M239.562,-66.5643C257.428,-72.4318 280.964,-79.953 302,-86 310.155,-88.3441 318.854,-90.7031 327.318,-92.9232"/>
<polygon fill="midnightblue" stroke="midnightblue" points="326.539,-96.337 337.097,-95.4563 328.294,-89.5606 326.539,-96.337"/>
</g>
<!-- Node4 -->
<g id="node4" class="node"><title>Node4</title>
<g id="a_node4"><a xlink:href="../../d7/d02/group__asn1__parser.html#ga47a3b18337597a4a9623d7b5af35ddcf" target="_top" xlink:title="asn1_parser_create">
<polygon fill="none" stroke="black" points="488,-19.5 488,-38.5 590,-38.5 590,-19.5 488,-19.5"/>
<text text-anchor="middle" x="539" y="-26.5" font-family="Helvetica,sans-Serif" font-size="10.00">asn1_parser_create</text>
</a>
</g>
</g>
<!-- Node2&#45;&gt;Node4 -->
<g id="edge5" class="edge"><title>Node2&#45;&gt;Node4</title>
<path fill="none" stroke="midnightblue" d="M256.346,-52.3509C270.919,-50.9008 287.137,-49.3332 302,-48 361.692,-42.6458 429.942,-37.2273 477.64,-33.5546"/>
<polygon fill="midnightblue" stroke="midnightblue" points="478.093,-37.0302 487.796,-32.775 477.557,-30.0507 478.093,-37.0302"/>
</g>
<!-- Node6 -->
<g id="node6" class="node"><title>Node6</title>
<g id="a_node6"><a xlink:href="../../d4/d87/group__chunk.html#gaaabd31666a00f250bb4a339c82373be8" target="_top" xlink:title="chunk_skip">
<polygon fill="none" stroke="black" points="344,-57.5 344,-76.5 410,-76.5 410,-57.5 344,-57.5"/>
<text text-anchor="middle" x="377" y="-64.5" font-family="Helvetica,sans-Serif" font-size="10.00">chunk_skip</text>
</a>
</g>
</g>
<!-- Node2&#45;&gt;Node6 -->
<g id="edge6" class="edge"><title>Node2&#45;&gt;Node6</title>
<path fill="none" stroke="midnightblue" d="M256.087,-59.7325C280.274,-61.1984 309.904,-62.9942 333.659,-64.4339"/>
<polygon fill="midnightblue" stroke="midnightblue" points="333.589,-67.936 343.782,-65.0474 334.012,-60.9488 333.589,-67.936"/>
</g>
<!-- Node3&#45;&gt;Node4 -->
<g id="edge3" class="edge"><title>Node3&#45;&gt;Node4</title>
<path fill="none" stroke="midnightblue" d="M424.991,-95.4581C434.139,-92.9014 443.516,-89.7717 452,-86 476.392,-75.1564 501.528,-57.622 518.277,-44.8611"/>
<polygon fill="midnightblue" stroke="midnightblue" points="520.476,-47.5848 526.222,-38.6838 516.179,-42.0585 520.476,-47.5848"/>
</g>
<!-- Node5 -->
<g id="node5" class="node"><title>Node5</title>
<g id="a_node5"><a xlink:href="../../d0/da0/group__asn1i.html#ga43e5d526ea5a7032db7f3aa7c011ec10" target="_top" xlink:title="asn1_known_oid">
<polygon fill="none" stroke="black" points="494.5,-95.5 494.5,-114.5 583.5,-114.5 583.5,-95.5 494.5,-95.5"/>
<text text-anchor="middle" x="539" y="-102.5" font-family="Helvetica,sans-Serif" font-size="10.00">asn1_known_oid</text>
</a>
</g>
</g>
<!-- Node3&#45;&gt;Node5 -->
<g id="edge4" class="edge"><title>Node3&#45;&gt;Node5</title>
<path fill="none" stroke="midnightblue" d="M451.911,-105C462.843,-105 473.926,-105 484.339,-105"/>
<polygon fill="midnightblue" stroke="midnightblue" points="484.499,-108.5 494.499,-105 484.499,-101.5 484.499,-108.5"/>
</g>
<!-- Node7&#45;&gt;Node4 -->
<g id="edge8" class="edge"><title>Node7&#45;&gt;Node4</title>
<path fill="none" stroke="midnightblue" d="M265.68,-8.94928C314.606,-8.5288 388.236,-9.17757 452,-15 460.337,-15.7613 469.089,-16.8477 477.686,-18.0832"/>
<polygon fill="midnightblue" stroke="midnightblue" points="477.264,-21.5589 487.674,-19.5913 478.309,-14.6374 477.264,-21.5589"/>
</g>
</g>
</svg>
        <g id="navigator" transform="translate(0 0)" fill="#404254">
                <rect fill="#f2f5e9" fill-opacity="0.5" stroke="#606060" stroke-width=".5" x="0" y="0" width="60" height="60"/>
                <use id="zoomplus" xlink:href="#zoomPlus" x="17" y="9" onmousedown="handleZoom(evt,'in')"/>
                <use id="zoomminus" xlink:href="#zoomMin" x="42" y="9" onmousedown="handleZoom(evt,'out')"/>
                <use id="reset" xlink:href="#resetDef" x="30" y="36" onmousedown="handleReset()"/>
                <g id="arrowUp" xlink:href="#dirArrow" transform="translate(30 24)" onmousedown="handlePan(0,-1)">
                  <use xlink:href="#rim" fill="#404040">
                        <set attributeName="fill" to="#808080" begin="arrowUp.mouseover" end="arrowUp.mouseout"/>
                  </use>
                  <path fill="none" stroke="white" stroke-width="1.5" d="M0,-3.0v7 M-2.5,-0.5L0,-3.0L2.5,-0.5"/>
                </g>
                <g id="arrowRight" xlink:href="#dirArrow" transform="rotate(90) translate(36 -43)" onmousedown="handlePan(1,0)">
                  <use xlink:href="#rim" fill="#404040">
                        <set attributeName="fill" to="#808080" begin="arrowRight.mouseover" end="arrowRight.mouseout"/>
                  </use>
                  <path fill="none" stroke="white" stroke-width="1.5" d="M0,-3.0v7 M-2.5,-0.5L0,-3.0L2.5,-0.5"/>
                </g>
                <g id="arrowDown" xlink:href="#dirArrow" transform="rotate(180) translate(-30 -48)" onmousedown="handlePan(0,1)">
                  <use xlink:href="#rim" fill="#404040">
                        <set attributeName="fill" to="#808080" begin="arrowDown.mouseover" end="arrowDown.mouseout"/>
                  </use>
                  <path fill="none" stroke="white" stroke-width="1.5" d="M0,-3.0v7 M-2.5,-0.5L0,-3.0L2.5,-0.5"/>
                </g>
                <g id="arrowLeft" xlink:href="#dirArrow" transform="rotate(270) translate(-36 17)" onmousedown="handlePan(-1,0)">
                  <use xlink:href="#rim" fill="#404040">
                        <set attributeName="fill" to="#808080" begin="arrowLeft.mouseover" end="arrowLeft.mouseout"/>
                  </use>
                  <path fill="none" stroke="white" stroke-width="1.5" d="M0,-3.0v7 M-2.5,-0.5L0,-3.0L2.5,-0.5"/>
                </g>
        </g>
        <svg viewBox="0 0 15 15" width="100%" height="30px" preserveAspectRatio="xMaxYMin meet">
         <g id="arrow_out" transform="scale(0.3 0.3)">
          <a xlink:href="group__pkcs1__builder_ga5c4fe2dfd774d3868f5ac0aa42ac86c4_cgraph_org.svg" target="_base">
           <rect id="button" ry="5" rx="5" y="6" x="6" height="38" width="38"
                fill="#f2f5e9" fill-opacity="0.5" stroke="#606060" stroke-width="1.0"/>
           <path id="arrow"
             d="M 11.500037,31.436501 C 11.940474,20.09759 22.043105,11.32322 32.158766,21.979434 L 37.068811,17.246167 C 37.068811,17.246167 37.088388,32 37.088388,32 L 22.160133,31.978069 C 22.160133,31.978069 26.997745,27.140456 26.997745,27.140456 C 18.528582,18.264221 13.291696,25.230495 11.500037,31.436501 z"
             style="fill:#404040;"/>
          </a>
         </g>
        </svg>
</svg>
