<?xml version="1.0" encoding="UTF-8" standalone="no"?>
<!DOCTYPE svg PUBLIC "-//W3C//DTD SVG 1.1//EN"
 "http://www.w3.org/Graphics/SVG/1.1/DTD/svg11.dtd">
<!-- Generated by graphviz version 2.36.0 (20140111.2315)
 -->
<!-- Title: have_vips_from_pool Pages: 1 -->
<!--zoomable 243 -->
<svg id="main" version="1.1" xmlns="http://www.w3.org/2000/svg" xmlns:xlink="http://www.w3.org/1999/xlink" xml:space="preserve" onload="init(evt)">
<style type="text/css"><![CDATA[
.edge:hover path { stroke: red; }
.edge:hover polygon { stroke: red; fill: red; }
]]></style>
<script type="text/javascript"><![CDATA[
var edges = document.getElementsByTagName('g');
if (edges && edges.length) {
  for (var i=0;i<edges.length;i++) {
    if (edges[i].id.substr(0,4)=='edge') {
      edges[i].setAttribute('class','edge');
    }
  }
}
]]></script>
        <defs>
                <circle id="rim" cx="0" cy="0" r="7"/>
                <circle id="rim2" cx="0" cy="0" r="3.5"/>
                <g id="zoomPlus">
                        <use xlink:href="#rim" fill="#404040">
                                <set attributeName="fill" to="#808080" begin="zoomplus.mouseover" end="zoomplus.mouseout"/>
                        </use>
                        <path d="M-4,0h8M0,-4v8" fill="none" stroke="white" stroke-width="1.5" pointer-events="none"/>
                </g>
                <g id="zoomMin">
                        <use xlink:href="#rim" fill="#404040">
                                <set attributeName="fill" to="#808080" begin="zoomminus.mouseover" end="zoomminus.mouseout"/>
                        </use>
                        <path d="M-4,0h8" fill="none" stroke="white" stroke-width="1.5" pointer-events="none"/>
                </g>
                <g id="dirArrow">
                        <path fill="none" stroke="white" stroke-width="1.5" d="M0,-3.0v7 M-2.5,-0.5L0,-3.0L2.5,-0.5"/>
                </g>
               <g id="resetDef">
                       <use xlink:href="#rim2" fill="#404040">
                               <set attributeName="fill" to="#808080" begin="reset.mouseover" end="reset.mouseout"/>
                       </use>
               </g>
        </defs>

<script type="text/javascript">
var viewWidth = 918;
var viewHeight = 243;
var sectionId = 'dynsection-17';
</script>
<script xlink:href="../../svgpan.js"/>
<svg id="graph" class="graph">
<g id="viewport">
<title>have_vips_from_pool</title>
<!-- Node1 -->
<g id="node1" class="node"><title>Node1</title>
<polygon fill="#bfbfbf" stroke="black" points="0.5,-57.5 0.5,-76.5 109.5,-76.5 109.5,-57.5 0.5,-57.5"/>
<text text-anchor="middle" x="55" y="-64.5" font-family="Helvetica,sans-Serif" font-size="10.00">have_vips_from_pool</text>
</g>
<!-- Node2 -->
<g id="node2" class="node"><title>Node2</title>
<g id="a_node2"><a xlink:href="../../d4/d87/group__chunk.html#ga6e1d4f9e668eb4d0e98fd1861e6f774b" target="_top" xlink:title="chunk_compare">
<polygon fill="none" stroke="black" points="146,-114.5 146,-133.5 232,-133.5 232,-114.5 146,-114.5"/>
<text text-anchor="middle" x="189" y="-121.5" font-family="Helvetica,sans-Serif" font-size="10.00">chunk_compare</text>
</a>
</g>
</g>
<!-- Node1&#45;&gt;Node2 -->
<g id="edge1" class="edge"><title>Node1&#45;&gt;Node2</title>
<path fill="none" stroke="midnightblue" d="M78.0938,-76.5405C99.5097,-85.7883 132.213,-99.9102 156.382,-110.347"/>
<polygon fill="midnightblue" stroke="midnightblue" points="155.266,-113.677 165.834,-114.428 158.041,-107.251 155.266,-113.677"/>
</g>
<!-- Node13 -->
<g id="node13" class="node"><title>Node13</title>
<g id="a_node13"><a xlink:href="../../da/dfc/settings__parser_8c.html#af07d89f5ceaea0c7c8252cc41fd75f37" target="_top" xlink:title="free">
<polygon fill="none" stroke="black" points="172.5,-76.5 172.5,-95.5 205.5,-95.5 205.5,-76.5 172.5,-76.5"/>
<text text-anchor="middle" x="189" y="-83.5" font-family="Helvetica,sans-Serif" font-size="10.00">free</text>
</a>
</g>
</g>
<!-- Node1&#45;&gt;Node13 -->
<g id="edge14" class="edge"><title>Node1&#45;&gt;Node13</title>
<path fill="none" stroke="midnightblue" d="M109.689,-74.728C127.839,-77.3405 147.277,-80.1383 162.246,-82.293"/>
<polygon fill="midnightblue" stroke="midnightblue" points="161.878,-85.7759 172.274,-83.7364 162.875,-78.8473 161.878,-85.7759"/>
</g>
<!-- Node14 -->
<g id="node14" class="node"><title>Node14</title>
<g id="a_node14"><a xlink:href="../../da/da5/group__byteorder__i.html#gaae216721dfa593756394194c3bb70d9b" target="_top" xlink:title="htoun32">
<polygon fill="none" stroke="black" points="163.5,-38.5 163.5,-57.5 214.5,-57.5 214.5,-38.5 163.5,-38.5"/>
<text text-anchor="middle" x="189" y="-45.5" font-family="Helvetica,sans-Serif" font-size="10.00">htoun32</text>
</a>
</g>
</g>
<!-- Node1&#45;&gt;Node14 -->
<g id="edge15" class="edge"><title>Node1&#45;&gt;Node14</title>
<path fill="none" stroke="midnightblue" d="M109.689,-59.272C124.333,-57.1642 139.814,-54.9358 153.111,-53.0218"/>
<polygon fill="midnightblue" stroke="midnightblue" points="153.85,-56.4517 163.249,-51.5626 152.853,-49.5231 153.85,-56.4517"/>
</g>
<!-- Node15 -->
<g id="node15" class="node"><title>Node15</title>
<g id="a_node15"><a xlink:href="../../da/da5/group__byteorder__i.html#ga439355baab5e35d632f86318c8330043" target="_top" xlink:title="untoh32">
<polygon fill="none" stroke="black" points="163.5,-0.5 163.5,-19.5 214.5,-19.5 214.5,-0.5 163.5,-0.5"/>
<text text-anchor="middle" x="189" y="-7.5" font-family="Helvetica,sans-Serif" font-size="10.00">untoh32</text>
</a>
</g>
</g>
<!-- Node1&#45;&gt;Node15 -->
<g id="edge16" class="edge"><title>Node1&#45;&gt;Node15</title>
<path fill="none" stroke="midnightblue" d="M78.0938,-57.4595C99.5097,-48.2117 132.213,-34.0898 156.382,-23.6532"/>
<polygon fill="midnightblue" stroke="midnightblue" points="158.041,-26.7493 165.834,-19.5716 155.266,-20.3228 158.041,-26.7493"/>
</g>
<!-- Node3 -->
<g id="node3" class="node"><title>Node3</title>
<g id="a_node3"><a xlink:href="../../d9/d7b/settings__lexer_8c.html#a33e91cd0cef6786e9e3a27ac67707207" target="_top" xlink:title="if">
<polygon fill="none" stroke="black" points="268.5,-114.5 268.5,-133.5 297.5,-133.5 297.5,-114.5 268.5,-114.5"/>
<text text-anchor="middle" x="283" y="-121.5" font-family="Helvetica,sans-Serif" font-size="10.00">if</text>
</a>
</g>
</g>
<!-- Node2&#45;&gt;Node3 -->
<g id="edge2" class="edge"><title>Node2&#45;&gt;Node3</title>
<path fill="none" stroke="midnightblue" d="M232.23,-124C241.194,-124 250.349,-124 258.323,-124"/>
<polygon fill="midnightblue" stroke="midnightblue" points="258.335,-127.5 268.335,-124 258.335,-120.5 258.335,-127.5"/>
</g>
<!-- Node4 -->
<g id="node4" class="node"><title>Node4</title>
<g id="a_node4"><a xlink:href="../../d9/d7b/settings__lexer_8c.html#a7ae01c54e2bcf9fd7a55137fbb2a80ed" target="_top" xlink:title="settings_parser__create\l_buffer">
<polygon fill="none" stroke="black" points="334.5,-158 334.5,-188 455.5,-188 455.5,-158 334.5,-158"/>
<text text-anchor="start" x="342.5" y="-176" font-family="Helvetica,sans-Serif" font-size="10.00">settings_parser__create</text>
<text text-anchor="middle" x="395" y="-165" font-family="Helvetica,sans-Serif" font-size="10.00">_buffer</text>
</a>
</g>
</g>
<!-- Node3&#45;&gt;Node4 -->
<g id="edge3" class="edge"><title>Node3&#45;&gt;Node4</title>
<path fill="none" stroke="midnightblue" d="M297.917,-130.923C307.897,-135.828 321.698,-142.489 334,-148 338.403,-149.972 343.008,-151.983 347.626,-153.964"/>
<polygon fill="midnightblue" stroke="midnightblue" points="346.488,-157.283 357.06,-157.968 349.222,-150.84 346.488,-157.283"/>
</g>
<!-- Node8 -->
<g id="node8" class="node"><title>Node8</title>
<g id="a_node8"><a xlink:href="../../d9/d7b/settings__lexer_8c.html#a33d4f53352a864e4f156061745955b95" target="_top" xlink:title="settings_parser__load\l_buffer_state">
<polygon fill="none" stroke="black" points="798,-115 798,-145 910,-145 910,-115 798,-115"/>
<text text-anchor="start" x="806" y="-133" font-family="Helvetica,sans-Serif" font-size="10.00">settings_parser__load</text>
<text text-anchor="middle" x="854" y="-122" font-family="Helvetica,sans-Serif" font-size="10.00">_buffer_state</text>
</a>
</g>
</g>
<!-- Node3&#45;&gt;Node8 -->
<g id="edge10" class="edge"><title>Node3&#45;&gt;Node8</title>
<path fill="none" stroke="midnightblue" d="M297.824,-115.309C307.535,-109.73 321.053,-102.989 334,-100 519.509,-57.1656 573.161,-93.7469 762,-118 770.293,-119.065 779.009,-120.198 787.627,-121.325"/>
<polygon fill="midnightblue" stroke="midnightblue" points="787.296,-124.812 797.667,-122.643 788.207,-117.871 787.296,-124.812"/>
</g>
<!-- Node11 -->
<g id="node11" class="node"><title>Node11</title>
<g id="a_node11"><a xlink:href="../../d9/d7b/settings__lexer_8c.html#a929da0caf3950387991ecbd5e8eef08e" target="_top" xlink:title="settings_parser_ensure\l_buffer_stack">
<polygon fill="none" stroke="black" points="336,-109 336,-139 454,-139 454,-109 336,-109"/>
<text text-anchor="start" x="344" y="-127" font-family="Helvetica,sans-Serif" font-size="10.00">settings_parser_ensure</text>
<text text-anchor="middle" x="395" y="-116" font-family="Helvetica,sans-Serif" font-size="10.00">_buffer_stack</text>
</a>
</g>
</g>
<!-- Node3&#45;&gt;Node11 -->
<g id="edge11" class="edge"><title>Node3&#45;&gt;Node11</title>
<path fill="none" stroke="midnightblue" d="M297.932,-124C305.379,-124 315.161,-124 325.631,-124"/>
<polygon fill="midnightblue" stroke="midnightblue" points="325.827,-127.5 335.827,-124 325.827,-120.5 325.827,-127.5"/>
</g>
<!-- Node5 -->
<g id="node5" class="node"><title>Node5</title>
<g id="a_node5"><a xlink:href="../../d9/d7b/settings__lexer_8c.html#a4386e14dca16b9ec4faef188ba2d8d87" target="_top" xlink:title="settings_parser__init\l_buffer">
<polygon fill="none" stroke="black" points="497.5,-185 497.5,-215 604.5,-215 604.5,-185 497.5,-185"/>
<text text-anchor="start" x="505.5" y="-203" font-family="Helvetica,sans-Serif" font-size="10.00">settings_parser__init</text>
<text text-anchor="middle" x="551" y="-192" font-family="Helvetica,sans-Serif" font-size="10.00">_buffer</text>
</a>
</g>
</g>
<!-- Node4&#45;&gt;Node5 -->
<g id="edge4" class="edge"><title>Node4&#45;&gt;Node5</title>
<path fill="none" stroke="midnightblue" d="M455.54,-183.439C465.931,-185.261 476.77,-187.161 487.244,-188.997"/>
<polygon fill="midnightblue" stroke="midnightblue" points="486.694,-192.454 497.148,-190.734 487.903,-185.559 486.694,-192.454"/>
</g>
<!-- Node9 -->
<g id="node9" class="node"><title>Node9</title>
<g id="a_node9"><a xlink:href="../../d9/d7b/settings__lexer_8c.html#a41352d68c36dd7a4a1aac4cb7517274d" target="_top" xlink:title="settings_parser_alloc">
<polygon fill="none" stroke="black" points="496.5,-146.5 496.5,-165.5 605.5,-165.5 605.5,-146.5 496.5,-146.5"/>
<text text-anchor="middle" x="551" y="-153.5" font-family="Helvetica,sans-Serif" font-size="10.00">settings_parser_alloc</text>
</a>
</g>
</g>
<!-- Node4&#45;&gt;Node9 -->
<g id="edge8" class="edge"><title>Node4&#45;&gt;Node9</title>
<path fill="none" stroke="midnightblue" d="M455.54,-166.427C465.57,-165.32 476.017,-164.167 486.151,-163.048"/>
<polygon fill="midnightblue" stroke="midnightblue" points="486.598,-166.52 496.153,-161.944 485.83,-159.563 486.598,-166.52"/>
</g>
<!-- Node6 -->
<g id="node6" class="node"><title>Node6</title>
<g id="a_node6"><a xlink:href="../../d9/d7b/settings__lexer_8c.html#ab4155ffea05dab2dafae68fd88a0517f" target="_top" xlink:title="isatty">
<polygon fill="none" stroke="black" points="683.5,-215.5 683.5,-234.5 724.5,-234.5 724.5,-215.5 683.5,-215.5"/>
<text text-anchor="middle" x="704" y="-222.5" font-family="Helvetica,sans-Serif" font-size="10.00">isatty</text>
</a>
</g>
</g>
<!-- Node5&#45;&gt;Node6 -->
<g id="edge5" class="edge"><title>Node5&#45;&gt;Node6</title>
<path fill="none" stroke="midnightblue" d="M604.812,-208.744C627.775,-212.546 653.824,-216.858 673.319,-220.086"/>
<polygon fill="midnightblue" stroke="midnightblue" points="672.977,-223.577 683.414,-221.757 674.12,-216.671 672.977,-223.577"/>
</g>
<!-- Node7 -->
<g id="node7" class="node"><title>Node7</title>
<g id="a_node7"><a xlink:href="../../d9/d7b/settings__lexer_8c.html#abb6474cb0d8cf8c06c5f0570a0bfe36d" target="_top" xlink:title="settings_parser__flush\l_buffer">
<polygon fill="none" stroke="black" points="646.5,-166 646.5,-196 761.5,-196 761.5,-166 646.5,-166"/>
<text text-anchor="start" x="654.5" y="-184" font-family="Helvetica,sans-Serif" font-size="10.00">settings_parser__flush</text>
<text text-anchor="middle" x="704" y="-173" font-family="Helvetica,sans-Serif" font-size="10.00">_buffer</text>
</a>
</g>
</g>
<!-- Node5&#45;&gt;Node7 -->
<g id="edge6" class="edge"><title>Node5&#45;&gt;Node7</title>
<path fill="none" stroke="midnightblue" d="M604.812,-193.355C614.996,-192.073 625.786,-190.716 636.342,-189.387"/>
<polygon fill="midnightblue" stroke="midnightblue" points="636.879,-192.848 646.364,-188.126 636.005,-185.902 636.879,-192.848"/>
</g>
<!-- Node7&#45;&gt;Node8 -->
<g id="edge7" class="edge"><title>Node7&#45;&gt;Node8</title>
<path fill="none" stroke="midnightblue" d="M748.604,-165.974C764.642,-160.448 782.985,-154.127 799.775,-148.341"/>
<polygon fill="midnightblue" stroke="midnightblue" points="801.138,-151.574 809.452,-145.006 798.857,-144.955 801.138,-151.574"/>
</g>
<!-- Node10 -->
<g id="node10" class="node"><title>Node10</title>
<g id="a_node10"><a xlink:href="../../da/dfc/settings__parser_8c.html#a5faf6a2d99f50a4655dd390199a8db7b" target="_top" xlink:title="malloc">
<polygon fill="none" stroke="black" points="681.5,-127.5 681.5,-146.5 726.5,-146.5 726.5,-127.5 681.5,-127.5"/>
<text text-anchor="middle" x="704" y="-134.5" font-family="Helvetica,sans-Serif" font-size="10.00">malloc</text>
</a>
</g>
</g>
<!-- Node9&#45;&gt;Node10 -->
<g id="edge9" class="edge"><title>Node9&#45;&gt;Node10</title>
<path fill="none" stroke="midnightblue" d="M605.662,-149.248C627.691,-146.476 652.435,-143.363 671.462,-140.968"/>
<polygon fill="midnightblue" stroke="midnightblue" points="671.906,-144.44 681.39,-139.719 671.032,-137.495 671.906,-144.44"/>
</g>
<!-- Node11&#45;&gt;Node9 -->
<g id="edge12" class="edge"><title>Node11&#45;&gt;Node9</title>
<path fill="none" stroke="midnightblue" d="M454.221,-136.098C467.259,-138.807 481.063,-141.675 494.009,-144.365"/>
<polygon fill="midnightblue" stroke="midnightblue" points="493.673,-147.87 504.176,-146.478 495.097,-141.017 493.673,-147.87"/>
</g>
<!-- Node12 -->
<g id="node12" class="node"><title>Node12</title>
<g id="a_node12"><a xlink:href="../../d9/d7b/settings__lexer_8c.html#ab2f0df9a05dd8b94f35a272bf269ca2a" target="_top" xlink:title="settings_parser_realloc">
<polygon fill="none" stroke="black" points="492.5,-108.5 492.5,-127.5 609.5,-127.5 609.5,-108.5 492.5,-108.5"/>
<text text-anchor="middle" x="551" y="-115.5" font-family="Helvetica,sans-Serif" font-size="10.00">settings_parser_realloc</text>
</a>
</g>
</g>
<!-- Node11&#45;&gt;Node12 -->
<g id="edge13" class="edge"><title>Node11&#45;&gt;Node12</title>
<path fill="none" stroke="midnightblue" d="M454.221,-121.732C463.416,-121.373 472.991,-121 482.378,-120.635"/>
<polygon fill="midnightblue" stroke="midnightblue" points="482.607,-124.128 492.463,-120.242 482.334,-117.134 482.607,-124.128"/>
</g>
</g>
</svg>
        <g id="navigator" transform="translate(0 0)" fill="#404254">
                <rect fill="#f2f5e9" fill-opacity="0.5" stroke="#606060" stroke-width=".5" x="0" y="0" width="60" height="60"/>
                <use id="zoomplus" xlink:href="#zoomPlus" x="17" y="9" onmousedown="handleZoom(evt,'in')"/>
                <use id="zoomminus" xlink:href="#zoomMin" x="42" y="9" onmousedown="handleZoom(evt,'out')"/>
                <use id="reset" xlink:href="#resetDef" x="30" y="36" onmousedown="handleReset()"/>
                <g id="arrowUp" xlink:href="#dirArrow" transform="translate(30 24)" onmousedown="handlePan(0,-1)">
                  <use xlink:href="#rim" fill="#404040">
                        <set attributeName="fill" to="#808080" begin="arrowUp.mouseover" end="arrowUp.mouseout"/>
                  </use>
                  <path fill="none" stroke="white" stroke-width="1.5" d="M0,-3.0v7 M-2.5,-0.5L0,-3.0L2.5,-0.5"/>
                </g>
                <g id="arrowRight" xlink:href="#dirArrow" transform="rotate(90) translate(36 -43)" onmousedown="handlePan(1,0)">
                  <use xlink:href="#rim" fill="#404040">
                        <set attributeName="fill" to="#808080" begin="arrowRight.mouseover" end="arrowRight.mouseout"/>
                  </use>
                  <path fill="none" stroke="white" stroke-width="1.5" d="M0,-3.0v7 M-2.5,-0.5L0,-3.0L2.5,-0.5"/>
                </g>
                <g id="arrowDown" xlink:href="#dirArrow" transform="rotate(180) translate(-30 -48)" onmousedown="handlePan(0,1)">
                  <use xlink:href="#rim" fill="#404040">
                        <set attributeName="fill" to="#808080" begin="arrowDown.mouseover" end="arrowDown.mouseout"/>
                  </use>
                  <path fill="none" stroke="white" stroke-width="1.5" d="M0,-3.0v7 M-2.5,-0.5L0,-3.0L2.5,-0.5"/>
                </g>
                <g id="arrowLeft" xlink:href="#dirArrow" transform="rotate(270) translate(-36 17)" onmousedown="handlePan(-1,0)">
                  <use xlink:href="#rim" fill="#404040">
                        <set attributeName="fill" to="#808080" begin="arrowLeft.mouseover" end="arrowLeft.mouseout"/>
                  </use>
                  <path fill="none" stroke="white" stroke-width="1.5" d="M0,-3.0v7 M-2.5,-0.5L0,-3.0L2.5,-0.5"/>
                </g>
        </g>
        <svg viewBox="0 0 15 15" width="100%" height="30px" preserveAspectRatio="xMaxYMin meet">
         <g id="arrow_out" transform="scale(0.3 0.3)">
          <a xlink:href="vici__attribute_8c_a3686576c62bf506ff1df862ad00414df_cgraph_org.svg" target="_base">
           <rect id="button" ry="5" rx="5" y="6" x="6" height="38" width="38"
                fill="#f2f5e9" fill-opacity="0.5" stroke="#606060" stroke-width="1.0"/>
           <path id="arrow"
             d="M 11.500037,31.436501 C 11.940474,20.09759 22.043105,11.32322 32.158766,21.979434 L 37.068811,17.246167 C 37.068811,17.246167 37.088388,32 37.088388,32 L 22.160133,31.978069 C 22.160133,31.978069 26.997745,27.140456 26.997745,27.140456 C 18.528582,18.264221 13.291696,25.230495 11.500037,31.436501 z"
             style="fill:#404040;"/>
          </a>
         </g>
        </svg>
</svg>
