<?xml version="1.0" encoding="UTF-8" standalone="no"?>
<!DOCTYPE svg PUBLIC "-//W3C//DTD SVG 1.1//EN"
 "http://www.w3.org/Graphics/SVG/1.1/DTD/svg11.dtd">
<!-- Generated by graphviz version 2.36.0 (20140111.2315)
 -->
<!-- Title: conf_parser_alloc Pages: 1 -->
<!--zoomable 383 -->
<svg id="main" version="1.1" xmlns="http://www.w3.org/2000/svg" xmlns:xlink="http://www.w3.org/1999/xlink" xml:space="preserve" onload="init(evt)">
<style type="text/css"><![CDATA[
.edge:hover path { stroke: red; }
.edge:hover polygon { stroke: red; fill: red; }
]]></style>
<script type="text/javascript"><![CDATA[
var edges = document.getElementsByTagName('g');
if (edges && edges.length) {
  for (var i=0;i<edges.length;i++) {
    if (edges[i].id.substr(0,4)=='edge') {
      edges[i].setAttribute('class','edge');
    }
  }
}
]]></script>
        <defs>
                <circle id="rim" cx="0" cy="0" r="7"/>
                <circle id="rim2" cx="0" cy="0" r="3.5"/>
                <g id="zoomPlus">
                        <use xlink:href="#rim" fill="#404040">
                                <set attributeName="fill" to="#808080" begin="zoomplus.mouseover" end="zoomplus.mouseout"/>
                        </use>
                        <path d="M-4,0h8M0,-4v8" fill="none" stroke="white" stroke-width="1.5" pointer-events="none"/>
                </g>
                <g id="zoomMin">
                        <use xlink:href="#rim" fill="#404040">
                                <set attributeName="fill" to="#808080" begin="zoomminus.mouseover" end="zoomminus.mouseout"/>
                        </use>
                        <path d="M-4,0h8" fill="none" stroke="white" stroke-width="1.5" pointer-events="none"/>
                </g>
                <g id="dirArrow">
                        <path fill="none" stroke="white" stroke-width="1.5" d="M0,-3.0v7 M-2.5,-0.5L0,-3.0L2.5,-0.5"/>
                </g>
               <g id="resetDef">
                       <use xlink:href="#rim2" fill="#404040">
                               <set attributeName="fill" to="#808080" begin="reset.mouseover" end="reset.mouseout"/>
                       </use>
               </g>
        </defs>

<script type="text/javascript">
var viewWidth = 904;
var viewHeight = 383;
var sectionId = 'dynsection-18';
</script>
<script xlink:href="../../svgpan.js"/>
<svg id="graph" class="graph">
<g id="viewport">
<title>conf_parser_alloc</title>
<!-- Node1 -->
<g id="node1" class="node"><title>Node1</title>
<polygon fill="#bfbfbf" stroke="black" points="0.5,-135.897 0.5,-154.897 93.5,-154.897 93.5,-135.897 0.5,-135.897"/>
<text text-anchor="middle" x="47" y="-142.897" font-family="Helvetica,sans-Serif" font-size="10.00">conf_parser_alloc</text>
</g>
<!-- Node2 -->
<g id="node2" class="node"><title>Node2</title>
<g id="a_node2"><a xlink:href="../../d8/d33/lexer_8c.html#a11cff0225010dbaa02fd31b82eac3e09" target="_top" xlink:title="conf_parser__create\l_buffer">
<polygon fill="none" stroke="black" points="130.5,-263.397 130.5,-293.397 235.5,-293.397 235.5,-263.397 130.5,-263.397"/>
<text text-anchor="start" x="138.5" y="-281.397" font-family="Helvetica,sans-Serif" font-size="10.00">conf_parser__create</text>
<text text-anchor="middle" x="183" y="-270.397" font-family="Helvetica,sans-Serif" font-size="10.00">_buffer</text>
</a>
</g>
</g>
<!-- Node1&#45;&gt;Node2 -->
<g id="edge1" class="edge"><title>Node1&#45;&gt;Node2</title>
<path fill="none" stroke="midnightblue" d="M62.0408,-162.916C77.7369,-182.063 104.332,-213.233 130,-237.397 139.71,-246.538 151.297,-255.814 161.066,-263.225"/>
<polygon fill="midnightblue" stroke="midnightblue" points="64.6597,-160.589 55.6385,-155.033 59.226,-165.002 64.6597,-160.589"/>
</g>
<!-- Node11 -->
<g id="node11" class="node"><title>Node11</title>
<g id="a_node11"><a xlink:href="../../d8/d33/lexer_8c.html#a7ba9960cc581611e6fea3d4f3bf41b5f" target="_top" xlink:title="conf_parser__scan_buffer">
<polygon fill="none" stroke="black" points="435.5,-110.897 435.5,-129.897 564.5,-129.897 564.5,-110.897 435.5,-110.897"/>
<text text-anchor="middle" x="500" y="-117.897" font-family="Helvetica,sans-Serif" font-size="10.00">conf_parser__scan_buffer</text>
</a>
</g>
</g>
<!-- Node1&#45;&gt;Node11 -->
<g id="edge12" class="edge"><title>Node1&#45;&gt;Node11</title>
<path fill="none" stroke="midnightblue" d="M103.847,-142.302C187.925,-137.641 346.58,-128.846 435.136,-123.937"/>
<polygon fill="midnightblue" stroke="midnightblue" points="103.517,-138.814 93.7262,-142.863 103.905,-145.804 103.517,-138.814"/>
</g>
<!-- Node12 -->
<g id="node12" class="node"><title>Node12</title>
<g id="a_node12"><a xlink:href="../../d8/d33/lexer_8c.html#a17689b71e42f4a5e155a125ee0fa90de" target="_top" xlink:title="conf_parser__scan_bytes">
<polygon fill="none" stroke="black" points="604,-72.8972 604,-91.8972 732,-91.8972 732,-72.8972 604,-72.8972"/>
<text text-anchor="middle" x="668" y="-79.8972" font-family="Helvetica,sans-Serif" font-size="10.00">conf_parser__scan_bytes</text>
</a>
</g>
</g>
<!-- Node1&#45;&gt;Node12 -->
<g id="edge15" class="edge"><title>Node1&#45;&gt;Node12</title>
<path fill="none" stroke="midnightblue" d="M56.063,-126.208C67.9695,-100.693 92.9238,-56.6953 130,-38.3972 310.976,50.9191 568.322,-41.5632 644.771,-72.8525"/>
<polygon fill="midnightblue" stroke="midnightblue" points="52.7577,-125.027 51.8871,-135.586 59.1523,-127.874 52.7577,-125.027"/>
</g>
<!-- Node14 -->
<g id="node14" class="node"><title>Node14</title>
<g id="a_node14"><a xlink:href="../../d8/d33/lexer_8c.html#a4ca0185431ab494c7fdd119459f18af4" target="_top" xlink:title="conf_parser_ensure\l_buffer_stack">
<polygon fill="none" stroke="black" points="132,-198.397 132,-228.397 234,-228.397 234,-198.397 132,-198.397"/>
<text text-anchor="start" x="140" y="-216.397" font-family="Helvetica,sans-Serif" font-size="10.00">conf_parser_ensure</text>
<text text-anchor="middle" x="183" y="-205.397" font-family="Helvetica,sans-Serif" font-size="10.00">_buffer_stack</text>
</a>
</g>
</g>
<!-- Node1&#45;&gt;Node14 -->
<g id="edge16" class="edge"><title>Node1&#45;&gt;Node14</title>
<path fill="none" stroke="midnightblue" d="M75.8955,-159.553C98.2451,-170.895 129.526,-186.769 152.331,-198.341"/>
<polygon fill="midnightblue" stroke="midnightblue" points="77.4161,-156.4 66.9147,-154.996 74.2484,-162.642 77.4161,-156.4"/>
</g>
<!-- Node17 -->
<g id="node17" class="node"><title>Node17</title>
<g id="a_node17"><a xlink:href="../../d8/d33/lexer_8c.html#a85fa1d9bc88fb5c5423ec27167cf7f0a" target="_top" xlink:title="conf_parser_lex_init">
<polygon fill="none" stroke="black" points="131,-97.8972 131,-116.897 235,-116.897 235,-97.8972 131,-97.8972"/>
<text text-anchor="middle" x="183" y="-104.897" font-family="Helvetica,sans-Serif" font-size="10.00">conf_parser_lex_init</text>
</a>
</g>
</g>
<!-- Node1&#45;&gt;Node17 -->
<g id="edge23" class="edge"><title>Node1&#45;&gt;Node17</title>
<path fill="none" stroke="midnightblue" d="M91.4383,-133.079C109.849,-127.858 130.98,-121.866 148.197,-116.983"/>
<polygon fill="midnightblue" stroke="midnightblue" points="90.4796,-129.713 81.8139,-135.808 92.3894,-136.447 90.4796,-129.713"/>
</g>
<!-- Node18 -->
<g id="node18" class="node"><title>Node18</title>
<g id="a_node18"><a xlink:href="../../d8/d33/lexer_8c.html#a9d9dba0f79fd3dac2a4f8fec6ff64247" target="_top" xlink:title="conf_parser_lex_init\l_extra">
<polygon fill="none" stroke="black" points="131,-48.3972 131,-78.3972 235,-78.3972 235,-48.3972 131,-48.3972"/>
<text text-anchor="start" x="139" y="-66.3972" font-family="Helvetica,sans-Serif" font-size="10.00">conf_parser_lex_init</text>
<text text-anchor="middle" x="183" y="-55.3972" font-family="Helvetica,sans-Serif" font-size="10.00">_extra</text>
</a>
</g>
</g>
<!-- Node1&#45;&gt;Node18 -->
<g id="edge24" class="edge"><title>Node1&#45;&gt;Node18</title>
<path fill="none" stroke="midnightblue" d="M68.5886,-129.714C84.8186,-117.692 108.263,-101.069 130,-88.3972 135.885,-84.9668 142.312,-81.5948 148.579,-78.4923"/>
<polygon fill="midnightblue" stroke="midnightblue" points="66.2792,-127.07 60.3707,-135.865 70.4738,-132.674 66.2792,-127.07"/>
</g>
<!-- Node19 -->
<g id="node19" class="node"><title>Node19</title>
<g id="a_node19"><a xlink:href="../../d8/d33/lexer_8c.html#a08a0ad3cc279c5b2684044df8da9fe9c" target="_top" xlink:title="yy_push_state">
<polygon fill="none" stroke="black" points="460,-355.897 460,-374.897 540,-374.897 540,-355.897 460,-355.897"/>
<text text-anchor="middle" x="500" y="-362.897" font-family="Helvetica,sans-Serif" font-size="10.00">yy_push_state</text>
</a>
</g>
</g>
<!-- Node1&#45;&gt;Node19 -->
<g id="edge25" class="edge"><title>Node1&#45;&gt;Node19</title>
<path fill="none" stroke="midnightblue" d="M52.5379,-164.861C61.3936,-198.355 84.2461,-266.723 130,-302.397 228.403,-379.123 386.764,-376.197 459.794,-369.94"/>
<polygon fill="midnightblue" stroke="midnightblue" points="55.8781,-163.79 50.0584,-154.937 49.0868,-165.487 55.8781,-163.79"/>
</g>
<!-- Node3 -->
<g id="node3" class="node"><title>Node3</title>
<g id="a_node3"><a xlink:href="../../d4/d93/starter_2parser_2parser_8c.html#a6334bdd3f275ac754b7304f93b75d1eb" target="_top" xlink:title="conf_parser_open_next_file">
<polygon fill="none" stroke="black" points="432,-208.897 432,-227.897 568,-227.897 568,-208.897 432,-208.897"/>
<text text-anchor="middle" x="500" y="-215.897" font-family="Helvetica,sans-Serif" font-size="10.00">conf_parser_open_next_file</text>
</a>
</g>
</g>
<!-- Node2&#45;&gt;Node3 -->
<g id="edge2" class="edge"><title>Node2&#45;&gt;Node3</title>
<path fill="none" stroke="midnightblue" d="M220.256,-298.087C264.558,-319.235 340.462,-345.842 396,-314.397 423.062,-299.075 409.496,-275.86 432,-254.397 444.04,-242.914 460.459,-234.014 474.029,-227.936"/>
<polygon fill="midnightblue" stroke="midnightblue" points="221.553,-294.824 211.035,-293.545 218.46,-301.104 221.553,-294.824"/>
</g>
<!-- Node8 -->
<g id="node8" class="node"><title>Node8</title>
<g id="a_node8"><a xlink:href="../../d8/d33/lexer_8c.html#af4e3b27b0745c16f1e3eb9b0a2cbd63a" target="_top" xlink:title="conf_parser_restart">
<polygon fill="none" stroke="black" points="283.5,-247.897 283.5,-266.897 384.5,-266.897 384.5,-247.897 283.5,-247.897"/>
<text text-anchor="middle" x="334" y="-254.897" font-family="Helvetica,sans-Serif" font-size="10.00">conf_parser_restart</text>
</a>
</g>
</g>
<!-- Node2&#45;&gt;Node8 -->
<g id="edge8" class="edge"><title>Node2&#45;&gt;Node8</title>
<path fill="none" stroke="midnightblue" d="M245.647,-269.709C258.226,-267.936 271.31,-266.092 283.405,-264.387"/>
<polygon fill="midnightblue" stroke="midnightblue" points="245.108,-266.25 235.695,-271.111 246.085,-273.181 245.108,-266.25"/>
</g>
<!-- Node10 -->
<g id="node10" class="node"><title>Node10</title>
<g id="a_node10"><a xlink:href="../../d8/d33/lexer_8c.html#a33e91cd0cef6786e9e3a27ac67707207" target="_top" xlink:title="if">
<polygon fill="none" stroke="black" points="319.5,-285.897 319.5,-304.897 348.5,-304.897 348.5,-285.897 319.5,-285.897"/>
<text text-anchor="middle" x="334" y="-292.897" font-family="Helvetica,sans-Serif" font-size="10.00">if</text>
</a>
</g>
</g>
<!-- Node2&#45;&gt;Node10 -->
<g id="edge11" class="edge"><title>Node2&#45;&gt;Node10</title>
<path fill="none" stroke="midnightblue" d="M245.982,-285.469C273.199,-288.574 302.71,-291.941 319.421,-293.848"/>
<polygon fill="midnightblue" stroke="midnightblue" points="246.027,-281.952 235.695,-284.295 245.234,-288.906 246.027,-281.952"/>
</g>
<!-- Node4 -->
<g id="node4" class="node"><title>Node4</title>
<g id="a_node4"><a xlink:href="../../d8/d33/lexer_8c.html#a8fdafe3be7e00ce3d4f0cb50a9a5eb39" target="_top" xlink:title="while">
<polygon fill="none" stroke="black" points="812.5,-265.897 812.5,-284.897 851.5,-284.897 851.5,-265.897 812.5,-265.897"/>
<text text-anchor="middle" x="832" y="-272.897" font-family="Helvetica,sans-Serif" font-size="10.00">while</text>
</a>
</g>
</g>
<!-- Node3&#45;&gt;Node4 -->
<g id="edge3" class="edge"><title>Node3&#45;&gt;Node4</title>
<path fill="none" stroke="midnightblue" d="M561.727,-229.772C575.611,-232.325 590.31,-234.989 604,-237.397 681.33,-251.001 773.689,-266.11 812.445,-272.398"/>
<polygon fill="midnightblue" stroke="midnightblue" points="562.256,-226.311 551.787,-227.938 560.986,-233.194 562.256,-226.311"/>
</g>
<!-- Node5 -->
<g id="node5" class="node"><title>Node5</title>
<g id="a_node5"><a xlink:href="../../d8/d33/lexer_8c.html#ad7836f9633b0d29af4652910119cda91" target="_top" xlink:title="include_files">
<polygon fill="none" stroke="black" points="632.5,-208.897 632.5,-227.897 703.5,-227.897 703.5,-208.897 632.5,-208.897"/>
<text text-anchor="middle" x="668" y="-215.897" font-family="Helvetica,sans-Serif" font-size="10.00">include_files</text>
</a>
</g>
</g>
<!-- Node3&#45;&gt;Node5 -->
<g id="edge4" class="edge"><title>Node3&#45;&gt;Node5</title>
<path fill="none" stroke="midnightblue" d="M578.159,-218.397C597.043,-218.397 616.332,-218.397 632.09,-218.397"/>
<polygon fill="midnightblue" stroke="midnightblue" points="578.04,-214.897 568.04,-218.397 578.04,-221.897 578.04,-214.897"/>
</g>
<!-- Node6 -->
<g id="node6" class="node"><title>Node6</title>
<g id="a_node6"><a xlink:href="../../d4/d93/starter_2parser_2parser_8c.html#abf9497431d6d137c7640f2eb5ac53464" target="_top" xlink:title="conf_parser_parse_file">
<polygon fill="none" stroke="black" points="610.5,-170.897 610.5,-189.897 725.5,-189.897 725.5,-170.897 610.5,-170.897"/>
<text text-anchor="middle" x="668" y="-177.897" font-family="Helvetica,sans-Serif" font-size="10.00">conf_parser_parse_file</text>
</a>
</g>
</g>
<!-- Node3&#45;&gt;Node6 -->
<g id="edge6" class="edge"><title>Node3&#45;&gt;Node6</title>
<path fill="none" stroke="midnightblue" d="M552.653,-206.573C576.056,-201.216 603.357,-194.966 625.412,-189.917"/>
<polygon fill="midnightblue" stroke="midnightblue" points="551.856,-203.165 542.889,-208.808 553.418,-209.988 551.856,-203.165"/>
</g>
<!-- Node5&#45;&gt;Node4 -->
<g id="edge5" class="edge"><title>Node5&#45;&gt;Node4</title>
<path fill="none" stroke="midnightblue" d="M705.922,-231.388C739.119,-243.069 786.519,-259.747 812.393,-268.85"/>
<polygon fill="midnightblue" stroke="midnightblue" points="706.71,-227.955 696.115,-227.938 704.387,-234.558 706.71,-227.955"/>
</g>
<!-- Node7 -->
<g id="node7" class="node"><title>Node7</title>
<g id="a_node7"><a xlink:href="../../d6/dea/conf__parser_8c.html#a512e3569a0766613b708f947f05eb4aa" target="_top" xlink:title="METHOD">
<polygon fill="none" stroke="black" points="802,-170.897 802,-189.897 862,-189.897 862,-170.897 802,-170.897"/>
<text text-anchor="middle" x="832" y="-177.897" font-family="Helvetica,sans-Serif" font-size="10.00">METHOD</text>
</a>
</g>
</g>
<!-- Node6&#45;&gt;Node7 -->
<g id="edge7" class="edge"><title>Node6&#45;&gt;Node7</title>
<path fill="none" stroke="midnightblue" d="M735.765,-180.397C758.819,-180.397 783.462,-180.397 801.903,-180.397"/>
<polygon fill="midnightblue" stroke="midnightblue" points="735.66,-176.897 725.66,-180.397 735.66,-183.897 735.66,-176.897"/>
</g>
<!-- Node9 -->
<g id="node9" class="node"><title>Node9</title>
<g id="a_node9"><a xlink:href="../../d8/d33/lexer_8c.html#a29d30a2c7f7ce166f1198f5a1c1d7757" target="_top" xlink:title="yy_get_next_buffer">
<polygon fill="none" stroke="black" points="450,-263.897 450,-282.897 550,-282.897 550,-263.897 450,-263.897"/>
<text text-anchor="middle" x="500" y="-270.897" font-family="Helvetica,sans-Serif" font-size="10.00">yy_get_next_buffer</text>
</a>
</g>
</g>
<!-- Node8&#45;&gt;Node9 -->
<g id="edge9" class="edge"><title>Node8&#45;&gt;Node9</title>
<path fill="none" stroke="midnightblue" d="M394.794,-263.231C412.869,-264.994 432.501,-266.91 449.801,-268.597"/>
<polygon fill="midnightblue" stroke="midnightblue" points="394.943,-259.729 384.65,-262.241 394.263,-266.696 394.943,-259.729"/>
</g>
<!-- Node9&#45;&gt;Node4 -->
<g id="edge10" class="edge"><title>Node9&#45;&gt;Node4</title>
<path fill="none" stroke="midnightblue" d="M560.436,-273.757C636.585,-274.219 764.444,-274.994 812.231,-275.283"/>
<polygon fill="midnightblue" stroke="midnightblue" points="560.069,-270.255 550.048,-273.695 560.027,-277.255 560.069,-270.255"/>
</g>
<!-- Node11&#45;&gt;Node12 -->
<g id="edge13" class="edge"><title>Node11&#45;&gt;Node12</title>
<path fill="none" stroke="midnightblue" d="M552.653,-108.573C576.056,-103.216 603.357,-96.9661 625.412,-91.9173"/>
<polygon fill="midnightblue" stroke="midnightblue" points="551.856,-105.165 542.889,-110.808 553.418,-111.988 551.856,-105.165"/>
</g>
<!-- Node13 -->
<g id="node13" class="node"><title>Node13</title>
<g id="a_node13"><a xlink:href="../../d8/d33/lexer_8c.html#a673e8f89fd21a7edb219ddf1d0e7a6dc" target="_top" xlink:title="conf_parser__scan_string">
<polygon fill="none" stroke="black" points="768,-72.8972 768,-91.8972 896,-91.8972 896,-72.8972 768,-72.8972"/>
<text text-anchor="middle" x="832" y="-79.8972" font-family="Helvetica,sans-Serif" font-size="10.00">conf_parser__scan_string</text>
</a>
</g>
</g>
<!-- Node12&#45;&gt;Node13 -->
<g id="edge14" class="edge"><title>Node12&#45;&gt;Node13</title>
<path fill="none" stroke="midnightblue" d="M742.374,-82.3972C750.865,-82.3972 759.469,-82.3972 767.808,-82.3972"/>
<polygon fill="midnightblue" stroke="midnightblue" points="742.097,-78.8973 732.097,-82.3972 742.097,-85.8973 742.097,-78.8973"/>
</g>
<!-- Node14&#45;&gt;Node8 -->
<g id="edge18" class="edge"><title>Node14&#45;&gt;Node8</title>
<path fill="none" stroke="midnightblue" d="M243.734,-231.037C263.169,-236.776 284.002,-242.928 300.649,-247.844"/>
<polygon fill="midnightblue" stroke="midnightblue" points="244.611,-227.646 234.029,-228.171 242.629,-234.36 244.611,-227.646"/>
</g>
<!-- Node14&#45;&gt;Node10 -->
<g id="edge17" class="edge"><title>Node14&#45;&gt;Node10</title>
<path fill="none" stroke="midnightblue" d="M211.645,-234.661C232.537,-250.446 259.654,-270.255 272,-276.397 287.492,-284.105 306.755,-289.474 319.44,-292.493"/>
<polygon fill="midnightblue" stroke="midnightblue" points="213.5,-231.675 203.42,-228.412 209.265,-237.249 213.5,-231.675"/>
</g>
<!-- Node15 -->
<g id="node15" class="node"><title>Node15</title>
<g id="a_node15"><a xlink:href="../../d8/d33/lexer_8c.html#ae1dc21d0d64e10feba8c57f8ded2ad2c" target="_top" xlink:title="conf_parser__switch\l_to_buffer">
<polygon fill="none" stroke="black" points="280.5,-149.397 280.5,-179.397 387.5,-179.397 387.5,-149.397 280.5,-149.397"/>
<text text-anchor="start" x="288.5" y="-167.397" font-family="Helvetica,sans-Serif" font-size="10.00">conf_parser__switch</text>
<text text-anchor="middle" x="334" y="-156.397" font-family="Helvetica,sans-Serif" font-size="10.00">_to_buffer</text>
</a>
</g>
</g>
<!-- Node14&#45;&gt;Node15 -->
<g id="edge19" class="edge"><title>Node14&#45;&gt;Node15</title>
<path fill="none" stroke="midnightblue" d="M239.523,-195.138C255.238,-189.97 272.161,-184.405 287.231,-179.449"/>
<polygon fill="midnightblue" stroke="midnightblue" points="238.327,-191.847 229.921,-198.296 240.514,-198.497 238.327,-191.847"/>
</g>
<!-- Node16 -->
<g id="node16" class="node"><title>Node16</title>
<g id="a_node16"><a xlink:href="../../d8/d33/lexer_8c.html#a4e2b81f61e8132edaabdf593e5b3e786" target="_top" xlink:title="conf_parser_push_buffer\l_state">
<polygon fill="none" stroke="black" points="272,-198.397 272,-228.397 396,-228.397 396,-198.397 272,-198.397"/>
<text text-anchor="start" x="280" y="-216.397" font-family="Helvetica,sans-Serif" font-size="10.00">conf_parser_push_buffer</text>
<text text-anchor="middle" x="334" y="-205.397" font-family="Helvetica,sans-Serif" font-size="10.00">_state</text>
</a>
</g>
</g>
<!-- Node14&#45;&gt;Node16 -->
<g id="edge21" class="edge"><title>Node14&#45;&gt;Node16</title>
<path fill="none" stroke="midnightblue" d="M244.205,-213.397C253.358,-213.397 262.81,-213.397 271.98,-213.397"/>
<polygon fill="midnightblue" stroke="midnightblue" points="244.029,-209.897 234.029,-213.397 244.029,-216.897 244.029,-209.897"/>
</g>
<!-- Node15&#45;&gt;Node11 -->
<g id="edge20" class="edge"><title>Node15&#45;&gt;Node11</title>
<path fill="none" stroke="midnightblue" d="M397.533,-147.62C419.826,-141.639 444.156,-135.112 463.402,-129.948"/>
<polygon fill="midnightblue" stroke="midnightblue" points="396.545,-144.261 387.793,-150.233 398.359,-151.022 396.545,-144.261"/>
</g>
<!-- Node16&#45;&gt;Node3 -->
<g id="edge22" class="edge"><title>Node16&#45;&gt;Node3</title>
<path fill="none" stroke="midnightblue" d="M406.303,-215.571C414.778,-215.829 423.407,-216.093 431.822,-216.349"/>
<polygon fill="midnightblue" stroke="midnightblue" points="406.17,-212.066 396.068,-215.259 405.956,-219.062 406.17,-212.066"/>
</g>
<!-- Node19&#45;&gt;Node4 -->
<g id="edge26" class="edge"><title>Node19&#45;&gt;Node4</title>
<path fill="none" stroke="midnightblue" d="M545.861,-353.163C619.078,-333.194 761.214,-294.43 812.216,-280.52"/>
<polygon fill="midnightblue" stroke="midnightblue" points="544.73,-349.843 536.003,-355.851 546.572,-356.596 544.73,-349.843"/>
</g>
</g>
</svg>
        <g id="navigator" transform="translate(0 0)" fill="#404254">
                <rect fill="#f2f5e9" fill-opacity="0.5" stroke="#606060" stroke-width=".5" x="0" y="0" width="60" height="60"/>
                <use id="zoomplus" xlink:href="#zoomPlus" x="17" y="9" onmousedown="handleZoom(evt,'in')"/>
                <use id="zoomminus" xlink:href="#zoomMin" x="42" y="9" onmousedown="handleZoom(evt,'out')"/>
                <use id="reset" xlink:href="#resetDef" x="30" y="36" onmousedown="handleReset()"/>
                <g id="arrowUp" xlink:href="#dirArrow" transform="translate(30 24)" onmousedown="handlePan(0,-1)">
                  <use xlink:href="#rim" fill="#404040">
                        <set attributeName="fill" to="#808080" begin="arrowUp.mouseover" end="arrowUp.mouseout"/>
                  </use>
                  <path fill="none" stroke="white" stroke-width="1.5" d="M0,-3.0v7 M-2.5,-0.5L0,-3.0L2.5,-0.5"/>
                </g>
                <g id="arrowRight" xlink:href="#dirArrow" transform="rotate(90) translate(36 -43)" onmousedown="handlePan(1,0)">
                  <use xlink:href="#rim" fill="#404040">
                        <set attributeName="fill" to="#808080" begin="arrowRight.mouseover" end="arrowRight.mouseout"/>
                  </use>
                  <path fill="none" stroke="white" stroke-width="1.5" d="M0,-3.0v7 M-2.5,-0.5L0,-3.0L2.5,-0.5"/>
                </g>
                <g id="arrowDown" xlink:href="#dirArrow" transform="rotate(180) translate(-30 -48)" onmousedown="handlePan(0,1)">
                  <use xlink:href="#rim" fill="#404040">
                        <set attributeName="fill" to="#808080" begin="arrowDown.mouseover" end="arrowDown.mouseout"/>
                  </use>
                  <path fill="none" stroke="white" stroke-width="1.5" d="M0,-3.0v7 M-2.5,-0.5L0,-3.0L2.5,-0.5"/>
                </g>
                <g id="arrowLeft" xlink:href="#dirArrow" transform="rotate(270) translate(-36 17)" onmousedown="handlePan(-1,0)">
                  <use xlink:href="#rim" fill="#404040">
                        <set attributeName="fill" to="#808080" begin="arrowLeft.mouseover" end="arrowLeft.mouseout"/>
                  </use>
                  <path fill="none" stroke="white" stroke-width="1.5" d="M0,-3.0v7 M-2.5,-0.5L0,-3.0L2.5,-0.5"/>
                </g>
        </g>
        <svg viewBox="0 0 15 15" width="100%" height="30px" preserveAspectRatio="xMaxYMin meet">
         <g id="arrow_out" transform="scale(0.3 0.3)">
          <a xlink:href="lexer_8c_a5c92df5e9b76e083443a5592a8ffa809_icgraph_org.svg" target="_base">
           <rect id="button" ry="5" rx="5" y="6" x="6" height="38" width="38"
                fill="#f2f5e9" fill-opacity="0.5" stroke="#606060" stroke-width="1.0"/>
           <path id="arrow"
             d="M 11.500037,31.436501 C 11.940474,20.09759 22.043105,11.32322 32.158766,21.979434 L 37.068811,17.246167 C 37.068811,17.246167 37.088388,32 37.088388,32 L 22.160133,31.978069 C 22.160133,31.978069 26.997745,27.140456 26.997745,27.140456 C 18.528582,18.264221 13.291696,25.230495 11.500037,31.436501 z"
             style="fill:#404040;"/>
          </a>
         </g>
        </svg>
</svg>
