<?xml version="1.0" encoding="UTF-8" standalone="no"?>
<!DOCTYPE svg PUBLIC "-//W3C//DTD SVG 1.1//EN"
 "http://www.w3.org/Graphics/SVG/1.1/DTD/svg11.dtd">
<!-- Generated by graphviz version 2.36.0 (20140111.2315)
 -->
<!-- Title: padlock Pages: 1 -->
<svg width="290pt" height="142pt"
 viewBox="0.00 0.00 290.00 142.00" xmlns="http://www.w3.org/2000/svg" xmlns:xlink="http://www.w3.org/1999/xlink">
<g id="graph0" class="graph" transform="scale(1 1) rotate(0) translate(4 138)">
<title>padlock</title>
<!-- Node4 -->
<g id="node1" class="node"><title>Node4</title>
<g id="a_node1"><a xlink:href="../../de/dbd/group__padlock__rng.html" target="_top" xlink:title="padlock_rng">
<polygon fill="none" stroke="black" points="191.5,-114.5 191.5,-133.5 260.5,-133.5 260.5,-114.5 191.5,-114.5"/>
<text text-anchor="middle" x="226" y="-121.5" font-family="Helvetica,sans-Serif" font-size="10.00">padlock_rng</text>
</a>
</g>
</g>
<!-- Node2 -->
<g id="node2" class="node"><title>Node2</title>
<g id="a_node2"><a xlink:href="../../dd/d20/group__padlock__aes__crypter.html" target="_top" xlink:title="padlock_aes_crypter">
<polygon fill="none" stroke="black" points="172.5,-76.5 172.5,-95.5 279.5,-95.5 279.5,-76.5 172.5,-76.5"/>
<text text-anchor="middle" x="226" y="-83.5" font-family="Helvetica,sans-Serif" font-size="10.00">padlock_aes_crypter</text>
</a>
</g>
</g>
<!-- Node5 -->
<g id="node3" class="node"><title>Node5</title>
<g id="a_node3"><a xlink:href="../../d0/d18/group__padlock__sha1__hasher.html" target="_top" xlink:title="padlock_sha1_hasher">
<polygon fill="none" stroke="black" points="170.5,-38.5 170.5,-57.5 281.5,-57.5 281.5,-38.5 170.5,-38.5"/>
<text text-anchor="middle" x="226" y="-45.5" font-family="Helvetica,sans-Serif" font-size="10.00">padlock_sha1_hasher</text>
</a>
</g>
</g>
<!-- Node3 -->
<g id="node4" class="node"><title>Node3</title>
<g id="a_node4"><a xlink:href="../../d0/de7/group__padlock__plugin.html" target="_top" xlink:title="padlock_plugin">
<polygon fill="none" stroke="black" points="185.5,-0.5 185.5,-19.5 266.5,-19.5 266.5,-0.5 185.5,-0.5"/>
<text text-anchor="middle" x="226" y="-7.5" font-family="Helvetica,sans-Serif" font-size="10.00">padlock_plugin</text>
</a>
</g>
</g>
<!-- Node0 -->
<g id="node5" class="node"><title>Node0</title>
<polygon fill="#bfbfbf" stroke="black" points="84,-57.5 84,-76.5 134,-76.5 134,-57.5 84,-57.5"/>
<text text-anchor="middle" x="109" y="-64.5" font-family="Helvetica,sans-Serif" font-size="10.00">padlock</text>
</g>
<!-- Node0&#45;&gt;Node4 -->
<g id="edge4" class="edge"><title>Node0&#45;&gt;Node4</title>
<path fill="none" stroke="midnightblue" d="M131.87,-82.5801C142.943,-90.0143 156.807,-98.6498 170,-105 177.373,-108.549 185.587,-111.754 193.371,-114.478"/>
<polygon fill="midnightblue" stroke="midnightblue" points="133.525,-79.4709 123.3,-76.6944 129.562,-85.241 133.525,-79.4709"/>
</g>
<!-- Node0&#45;&gt;Node2 -->
<g id="edge2" class="edge"><title>Node0&#45;&gt;Node2</title>
<path fill="none" stroke="midnightblue" d="M143.98,-72.614C152.791,-74.0699 162.493,-75.6728 172.028,-77.2482"/>
<polygon fill="midnightblue" stroke="midnightblue" points="144.545,-69.16 134.108,-70.983 143.403,-76.0664 144.545,-69.16"/>
</g>
<!-- Node0&#45;&gt;Node5 -->
<g id="edge5" class="edge"><title>Node0&#45;&gt;Node5</title>
<path fill="none" stroke="midnightblue" d="M144.034,-61.3769C152.247,-60.02 161.231,-58.5357 170.131,-57.0653"/>
<polygon fill="midnightblue" stroke="midnightblue" points="143.403,-57.9336 134.108,-63.017 144.545,-64.84 143.403,-57.9336"/>
</g>
<!-- Node0&#45;&gt;Node3 -->
<g id="edge3" class="edge"><title>Node0&#45;&gt;Node3</title>
<path fill="none" stroke="midnightblue" d="M131.87,-51.4199C142.943,-43.9857 156.807,-35.3502 170,-29 177.373,-25.4511 185.587,-22.2458 193.371,-19.522"/>
<polygon fill="midnightblue" stroke="midnightblue" points="129.562,-48.759 123.3,-57.3056 133.525,-54.5291 129.562,-48.759"/>
</g>
<!-- Node1 -->
<g id="node6" class="node"><title>Node1</title>
<g id="a_node6"><a xlink:href="../../d1/d29/group__plugins.html" target="_top" xlink:title="plugins">
<polygon fill="none" stroke="black" points="0.5,-57.5 0.5,-76.5 47.5,-76.5 47.5,-57.5 0.5,-57.5"/>
<text text-anchor="middle" x="24" y="-64.5" font-family="Helvetica,sans-Serif" font-size="10.00">plugins</text>
</a>
</g>
</g>
<!-- Node1&#45;&gt;Node0 -->
<g id="edge1" class="edge"><title>Node1&#45;&gt;Node0</title>
<path fill="none" stroke="midnightblue" d="M57.8966,-67C66.5744,-67 75.7771,-67 83.8954,-67"/>
<polygon fill="midnightblue" stroke="midnightblue" points="57.6801,-63.5001 47.6801,-67 57.6801,-70.5001 57.6801,-63.5001"/>
</g>
</g>
</svg>
