<?xml version="1.0" encoding="UTF-8" standalone="no"?>
<!DOCTYPE svg PUBLIC "-//W3C//DTD SVG 1.1//EN"
 "http://www.w3.org/Graphics/SVG/1.1/DTD/svg11.dtd">
<!-- Generated by graphviz version 2.36.0 (20140111.2315)
 -->
<!-- Title: add_attrs_natural_lang Pages: 1 -->
<svg width="502pt" height="85pt"
 viewBox="0.00 0.00 502.00 85.00" xmlns="http://www.w3.org/2000/svg" xmlns:xlink="http://www.w3.org/1999/xlink">
<g id="graph0" class="graph" transform="scale(1 1) rotate(0) translate(4 81)">
<title>add_attrs_natural_lang</title>
<!-- Node1 -->
<g id="node1" class="node"><title>Node1</title>
<polygon fill="#bfbfbf" stroke="black" points="0.5,-19.5 0.5,-38.5 115.5,-38.5 115.5,-19.5 0.5,-19.5"/>
<text text-anchor="middle" x="58" y="-26.5" font-family="Helvetica,sans-Serif" font-size="10.00">add_attrs_natural_lang</text>
</g>
<!-- Node2 -->
<g id="node2" class="node"><title>Node2</title>
<g id="a_node2"><a xlink:href="../../db/d67/imc__hcd_8c.html#a229947183624681536a133815b79b96e" target="_top" xlink:title="receive_message">
<polygon fill="none" stroke="black" points="176.5,-38.5 176.5,-57.5 269.5,-57.5 269.5,-38.5 176.5,-38.5"/>
<text text-anchor="middle" x="223" y="-45.5" font-family="Helvetica,sans-Serif" font-size="10.00">receive_message</text>
</a>
</g>
</g>
<!-- Node1&#45;&gt;Node2 -->
<g id="edge1" class="edge"><title>Node1&#45;&gt;Node2</title>
<path fill="none" stroke="midnightblue" d="M125.959,-36.8051C142.898,-38.7795 160.703,-40.8549 176.318,-42.6751"/>
<polygon fill="midnightblue" stroke="midnightblue" points="125.89,-33.2734 115.552,-35.592 125.08,-40.2263 125.89,-33.2734"/>
</g>
<!-- Node5 -->
<g id="node5" class="node"><title>Node5</title>
<g id="a_node5"><a xlink:href="../../de/d10/group__tncifimc.html#ga72bb832f2d5fc794ab3c2b9675d9b59e" target="_top" xlink:title="TNC_IMC_BeginHandshake">
<polygon fill="none" stroke="black" points="152.5,-0.5 152.5,-19.5 293.5,-19.5 293.5,-0.5 152.5,-0.5"/>
<text text-anchor="middle" x="223" y="-7.5" font-family="Helvetica,sans-Serif" font-size="10.00">TNC_IMC_BeginHandshake</text>
</a>
</g>
</g>
<!-- Node1&#45;&gt;Node5 -->
<g id="edge4" class="edge"><title>Node1&#45;&gt;Node5</title>
<path fill="none" stroke="midnightblue" d="M125.72,-21.2228C134.496,-20.1999 143.508,-19.1494 152.331,-18.1209"/>
<polygon fill="midnightblue" stroke="midnightblue" points="125.08,-17.7737 115.552,-22.408 125.89,-24.7266 125.08,-17.7737"/>
</g>
<!-- Node3 -->
<g id="node3" class="node"><title>Node3</title>
<g id="a_node3"><a xlink:href="../../de/d10/group__tncifimc.html#gac0904e90c720bf61161ebdcaa848ee28" target="_top" xlink:title="TNC_IMC_ReceiveMessage">
<polygon fill="none" stroke="black" points="340.5,-57.5 340.5,-76.5 483.5,-76.5 483.5,-57.5 340.5,-57.5"/>
<text text-anchor="middle" x="412" y="-64.5" font-family="Helvetica,sans-Serif" font-size="10.00">TNC_IMC_ReceiveMessage</text>
</a>
</g>
</g>
<!-- Node2&#45;&gt;Node3 -->
<g id="edge2" class="edge"><title>Node2&#45;&gt;Node3</title>
<path fill="none" stroke="midnightblue" d="M279.72,-53.6614C298.711,-55.591 320.202,-57.7746 340.216,-59.808"/>
<polygon fill="midnightblue" stroke="midnightblue" points="280.048,-50.1768 269.745,-52.6479 279.34,-57.1409 280.048,-50.1768"/>
</g>
<!-- Node4 -->
<g id="node4" class="node"><title>Node4</title>
<g id="a_node4"><a xlink:href="../../de/d10/group__tncifimc.html#ga5a587fd64b9841c507b9638d218f1aca" target="_top" xlink:title="TNC_IMC_ReceiveMessageLong">
<polygon fill="none" stroke="black" points="330,-19.5 330,-38.5 494,-38.5 494,-19.5 330,-19.5"/>
<text text-anchor="middle" x="412" y="-26.5" font-family="Helvetica,sans-Serif" font-size="10.00">TNC_IMC_ReceiveMessageLong</text>
</a>
</g>
</g>
<!-- Node2&#45;&gt;Node4 -->
<g id="edge3" class="edge"><title>Node2&#45;&gt;Node4</title>
<path fill="none" stroke="midnightblue" d="M279.832,-42.3272C295.594,-40.7258 313.07,-38.9501 329.99,-37.2309"/>
<polygon fill="midnightblue" stroke="midnightblue" points="279.34,-38.8591 269.745,-43.3521 280.048,-45.8232 279.34,-38.8591"/>
</g>
</g>
</svg>
