<?xml version="1.0" encoding="UTF-8" standalone="no"?>
<!DOCTYPE svg PUBLIC "-//W3C//DTD SVG 1.1//EN"
 "http://www.w3.org/Graphics/SVG/1.1/DTD/svg11.dtd">
<!-- Generated by graphviz version 2.36.0 (20140111.2315)
 -->
<!-- Title: xfrm2host Pages: 1 -->
<svg width="562pt" height="142pt"
 viewBox="0.00 0.00 562.00 142.00" xmlns="http://www.w3.org/2000/svg" xmlns:xlink="http://www.w3.org/1999/xlink">
<g id="graph0" class="graph" transform="scale(1 1) rotate(0) translate(4 138)">
<title>xfrm2host</title>
<!-- Node1 -->
<g id="node1" class="node"><title>Node1</title>
<polygon fill="#bfbfbf" stroke="black" points="0,-57.5 0,-76.5 60,-76.5 60,-57.5 0,-57.5"/>
<text text-anchor="middle" x="30" y="-64.5" font-family="Helvetica,sans-Serif" font-size="10.00">xfrm2host</text>
</g>
<!-- Node2 -->
<g id="node2" class="node"><title>Node2</title>
<g id="a_node2"><a xlink:href="../../d5/d47/kernel__netlink__ipsec_8c.html#a657c2bd8dce5b5b7f712c639d9072b91" target="_top" xlink:title="add_policy_internal">
<polygon fill="none" stroke="black" points="96,-114.5 96,-133.5 196,-133.5 196,-114.5 96,-114.5"/>
<text text-anchor="middle" x="146" y="-121.5" font-family="Helvetica,sans-Serif" font-size="10.00">add_policy_internal</text>
</a>
</g>
</g>
<!-- Node1&#45;&gt;Node2 -->
<g id="edge1" class="edge"><title>Node1&#45;&gt;Node2</title>
<path fill="none" stroke="midnightblue" d="M54.4816,-81.9478C66.6238,-89.3611 81.8333,-98.166 96,-105 102.985,-108.37 110.734,-111.596 117.969,-114.403"/>
<polygon fill="midnightblue" stroke="midnightblue" points="56.2061,-78.8989 45.8623,-76.6059 52.5184,-84.8489 56.2061,-78.8989"/>
</g>
<!-- Node4 -->
<g id="node4" class="node"><title>Node4</title>
<g id="a_node4"><a xlink:href="../../d5/d47/kernel__netlink__ipsec_8c.html#a8778a5ea777bf5c8055947dcafab81cd" target="_top" xlink:title="process_expire">
<polygon fill="none" stroke="black" points="104.5,-76.5 104.5,-95.5 187.5,-95.5 187.5,-76.5 104.5,-76.5"/>
<text text-anchor="middle" x="146" y="-83.5" font-family="Helvetica,sans-Serif" font-size="10.00">process_expire</text>
</a>
</g>
</g>
<!-- Node1&#45;&gt;Node4 -->
<g id="edge3" class="edge"><title>Node1&#45;&gt;Node4</title>
<path fill="none" stroke="midnightblue" d="M70.2637,-73.544C81.2823,-75.3804 93.2831,-77.3805 104.379,-79.2298"/>
<polygon fill="midnightblue" stroke="midnightblue" points="70.5013,-70.0354 60.062,-71.8437 69.3505,-76.9401 70.5013,-70.0354"/>
</g>
<!-- Node8 -->
<g id="node8" class="node"><title>Node8</title>
<g id="a_node8"><a xlink:href="../../d5/d47/kernel__netlink__ipsec_8c.html#aa2fac66b71bd83158fa2fd6c3ed70584" target="_top" xlink:title="process_mapping">
<polygon fill="none" stroke="black" points="99.5,-38.5 99.5,-57.5 192.5,-57.5 192.5,-38.5 99.5,-38.5"/>
<text text-anchor="middle" x="146" y="-45.5" font-family="Helvetica,sans-Serif" font-size="10.00">process_mapping</text>
</a>
</g>
</g>
<!-- Node1&#45;&gt;Node8 -->
<g id="edge7" class="edge"><title>Node1&#45;&gt;Node8</title>
<path fill="none" stroke="midnightblue" d="M70.2236,-60.4627C79.543,-58.9095 89.5669,-57.2389 99.1528,-55.6412"/>
<polygon fill="midnightblue" stroke="midnightblue" points="69.3505,-57.0599 60.062,-62.1563 70.5013,-63.9646 69.3505,-57.0599"/>
</g>
<!-- Node9 -->
<g id="node9" class="node"><title>Node9</title>
<g id="a_node9"><a xlink:href="../../d5/d47/kernel__netlink__ipsec_8c.html#ad1503b97631d29bf127d1dc4ac779824" target="_top" xlink:title="process_migrate">
<polygon fill="none" stroke="black" points="101.5,-0.5 101.5,-19.5 190.5,-19.5 190.5,-0.5 101.5,-0.5"/>
<text text-anchor="middle" x="146" y="-7.5" font-family="Helvetica,sans-Serif" font-size="10.00">process_migrate</text>
</a>
</g>
</g>
<!-- Node1&#45;&gt;Node9 -->
<g id="edge9" class="edge"><title>Node1&#45;&gt;Node9</title>
<path fill="none" stroke="midnightblue" d="M54.4816,-52.0522C66.6238,-44.6389 81.8333,-35.834 96,-29 102.985,-25.6304 110.734,-22.4037 117.969,-19.5966"/>
<polygon fill="midnightblue" stroke="midnightblue" points="52.5184,-49.1511 45.8623,-57.3941 56.2061,-55.1011 52.5184,-49.1511"/>
</g>
<!-- Node3 -->
<g id="node3" class="node"><title>Node3</title>
<g id="a_node3"><a xlink:href="../../d5/d47/kernel__netlink__ipsec_8c.html#aefcbaef7956e3d3d311c5e7143c37f76" target="_top" xlink:title="METHOD">
<polygon fill="none" stroke="black" points="244,-114.5 244,-133.5 304,-133.5 304,-114.5 244,-114.5"/>
<text text-anchor="middle" x="274" y="-121.5" font-family="Helvetica,sans-Serif" font-size="10.00">METHOD</text>
</a>
</g>
</g>
<!-- Node2&#45;&gt;Node3 -->
<g id="edge2" class="edge"><title>Node2&#45;&gt;Node3</title>
<path fill="none" stroke="midnightblue" d="M206.437,-124C219.464,-124 232.695,-124 243.893,-124"/>
<polygon fill="midnightblue" stroke="midnightblue" points="206.076,-120.5 196.076,-124 206.076,-127.5 206.076,-120.5"/>
</g>
<!-- Node5 -->
<g id="node5" class="node"><title>Node5</title>
<g id="a_node5"><a xlink:href="../../d5/d47/kernel__netlink__ipsec_8c.html#a84660b36c3e23554b6792929dc691cb9" target="_top" xlink:title="receive_events">
<polygon fill="none" stroke="black" points="232.5,-38.5 232.5,-57.5 315.5,-57.5 315.5,-38.5 232.5,-38.5"/>
<text text-anchor="middle" x="274" y="-45.5" font-family="Helvetica,sans-Serif" font-size="10.00">receive_events</text>
</a>
</g>
</g>
<!-- Node4&#45;&gt;Node5 -->
<g id="edge4" class="edge"><title>Node4&#45;&gt;Node5</title>
<path fill="none" stroke="midnightblue" d="M188.564,-73.4647C205.705,-68.2952 225.25,-62.4009 241.215,-57.5859"/>
<polygon fill="midnightblue" stroke="midnightblue" points="187.359,-70.1726 178.795,-76.411 189.38,-76.8744 187.359,-70.1726"/>
</g>
<!-- Node6 -->
<g id="node6" class="node"><title>Node6</title>
<g id="a_node6"><a xlink:href="../../d6/dd4/group__kernel__netlink__ipsec__i.html#ga007e7cef3af2fab3a400e2f327d2d72d" target="_top" xlink:title="kernel_netlink_ipsec\l_create">
<polygon fill="none" stroke="black" points="352.5,-33 352.5,-63 457.5,-63 457.5,-33 352.5,-33"/>
<text text-anchor="start" x="360.5" y="-51" font-family="Helvetica,sans-Serif" font-size="10.00">kernel_netlink_ipsec</text>
<text text-anchor="middle" x="405" y="-40" font-family="Helvetica,sans-Serif" font-size="10.00">_create</text>
</a>
</g>
</g>
<!-- Node5&#45;&gt;Node6 -->
<g id="edge5" class="edge"><title>Node5&#45;&gt;Node6</title>
<path fill="none" stroke="midnightblue" d="M326.052,-48C334.614,-48 343.506,-48 352.088,-48"/>
<polygon fill="midnightblue" stroke="midnightblue" points="325.816,-44.5001 315.816,-48 325.816,-51.5001 325.816,-44.5001"/>
</g>
<!-- Node7 -->
<g id="node7" class="node"><title>Node7</title>
<g id="a_node7"><a xlink:href="../../da/d4c/kernel__netlink__plugin_8c.html#afff6cb796b37dd206b1f16ec44e924d0" target="_top" xlink:title="METHOD">
<polygon fill="none" stroke="black" points="494,-38.5 494,-57.5 554,-57.5 554,-38.5 494,-38.5"/>
<text text-anchor="middle" x="524" y="-45.5" font-family="Helvetica,sans-Serif" font-size="10.00">METHOD</text>
</a>
</g>
</g>
<!-- Node6&#45;&gt;Node7 -->
<g id="edge6" class="edge"><title>Node6&#45;&gt;Node7</title>
<path fill="none" stroke="midnightblue" d="M467.849,-48C476.875,-48 485.795,-48 493.745,-48"/>
<polygon fill="midnightblue" stroke="midnightblue" points="467.659,-44.5001 457.658,-48 467.658,-51.5001 467.659,-44.5001"/>
</g>
<!-- Node8&#45;&gt;Node5 -->
<g id="edge8" class="edge"><title>Node8&#45;&gt;Node5</title>
<path fill="none" stroke="midnightblue" d="M203.026,-48C212.916,-48 223.038,-48 232.401,-48"/>
<polygon fill="midnightblue" stroke="midnightblue" points="202.845,-44.5001 192.845,-48 202.845,-51.5001 202.845,-44.5001"/>
</g>
<!-- Node9&#45;&gt;Node5 -->
<g id="edge10" class="edge"><title>Node9&#45;&gt;Node5</title>
<path fill="none" stroke="midnightblue" d="M188.564,-22.5353C205.705,-27.7048 225.25,-33.5991 241.215,-38.4141"/>
<polygon fill="midnightblue" stroke="midnightblue" points="189.38,-19.1256 178.795,-19.589 187.359,-25.8274 189.38,-19.1256"/>
</g>
</g>
</svg>
