<?xml version="1.0" encoding="UTF-8" standalone="no"?>
<!DOCTYPE svg PUBLIC "-//W3C//DTD SVG 1.1//EN"
 "http://www.w3.org/Graphics/SVG/1.1/DTD/svg11.dtd">
<!-- Generated by graphviz version 2.36.0 (20140111.2315)
 -->
<!-- Title: remove_padding Pages: 1 -->
<svg width="718pt" height="28pt"
 viewBox="0.00 0.00 718.00 28.00" xmlns="http://www.w3.org/2000/svg" xmlns:xlink="http://www.w3.org/1999/xlink">
<g id="graph0" class="graph" transform="scale(1 1) rotate(0) translate(4 24)">
<title>remove_padding</title>
<!-- Node1 -->
<g id="node1" class="node"><title>Node1</title>
<polygon fill="#bfbfbf" stroke="black" points="0,-0.5 0,-19.5 88,-19.5 88,-0.5 0,-0.5"/>
<text text-anchor="middle" x="44" y="-7.5" font-family="Helvetica,sans-Serif" font-size="10.00">remove_padding</text>
</g>
<!-- Node2 -->
<g id="node2" class="node"><title>Node2</title>
<g id="a_node2"><a xlink:href="../../d0/ddf/pkcs7__enveloped__data_8c.html#ad1b96c7e42b21a94f65a03ab4a63d0ca" target="_top" xlink:title="parse">
<polygon fill="none" stroke="black" points="124.5,-0.5 124.5,-19.5 165.5,-19.5 165.5,-0.5 124.5,-0.5"/>
<text text-anchor="middle" x="145" y="-7.5" font-family="Helvetica,sans-Serif" font-size="10.00">parse</text>
</a>
</g>
</g>
<!-- Node1&#45;&gt;Node2 -->
<g id="edge1" class="edge"><title>Node1&#45;&gt;Node2</title>
<path fill="none" stroke="midnightblue" d="M98.2391,-10C107.545,-10 116.673,-10 124.298,-10"/>
<polygon fill="midnightblue" stroke="midnightblue" points="98.1349,-6.5001 88.1348,-10 98.1348,-13.5001 98.1349,-6.5001"/>
</g>
<!-- Node3 -->
<g id="node3" class="node"><title>Node3</title>
<g id="a_node3"><a xlink:href="../../d6/ddd/group__pkcs7__enveloped__data.html#ga6a8ec4d6ab2c974814d65f66033672ed" target="_top" xlink:title="pkcs7_enveloped_data_load">
<polygon fill="none" stroke="black" points="202,-0.5 202,-19.5 342,-19.5 342,-0.5 202,-0.5"/>
<text text-anchor="middle" x="272" y="-7.5" font-family="Helvetica,sans-Serif" font-size="10.00">pkcs7_enveloped_data_load</text>
</a>
</g>
</g>
<!-- Node2&#45;&gt;Node3 -->
<g id="edge2" class="edge"><title>Node2&#45;&gt;Node3</title>
<path fill="none" stroke="midnightblue" d="M175.693,-10C183.649,-10 192.595,-10 201.737,-10"/>
<polygon fill="midnightblue" stroke="midnightblue" points="175.531,-6.5001 165.531,-10 175.531,-13.5001 175.531,-6.5001"/>
</g>
<!-- Node4 -->
<g id="node4" class="node"><title>Node4</title>
<g id="a_node4"><a xlink:href="../../dc/d90/pkcs7__generic_8c.html#a0f97774c6213da4efc62d8632116c977" target="_top" xlink:title="parse_contentInfo">
<polygon fill="none" stroke="black" points="378.5,-0.5 378.5,-19.5 473.5,-19.5 473.5,-0.5 378.5,-0.5"/>
<text text-anchor="middle" x="426" y="-7.5" font-family="Helvetica,sans-Serif" font-size="10.00">parse_contentInfo</text>
</a>
</g>
</g>
<!-- Node3&#45;&gt;Node4 -->
<g id="edge3" class="edge"><title>Node3&#45;&gt;Node4</title>
<path fill="none" stroke="midnightblue" d="M352.374,-10C361.271,-10 370.106,-10 378.391,-10"/>
<polygon fill="midnightblue" stroke="midnightblue" points="352.328,-6.5001 342.328,-10 352.328,-13.5001 352.328,-6.5001"/>
</g>
<!-- Node5 -->
<g id="node5" class="node"><title>Node5</title>
<g id="a_node5"><a xlink:href="../../d2/d7c/group__pkcs7__generic.html#ga5191a312cd744f5c0d836c33a8a12cc6" target="_top" xlink:title="pkcs7_generic_load">
<polygon fill="none" stroke="black" points="510.5,-0.5 510.5,-19.5 613.5,-19.5 613.5,-0.5 510.5,-0.5"/>
<text text-anchor="middle" x="562" y="-7.5" font-family="Helvetica,sans-Serif" font-size="10.00">pkcs7_generic_load</text>
</a>
</g>
</g>
<!-- Node4&#45;&gt;Node5 -->
<g id="edge4" class="edge"><title>Node4&#45;&gt;Node5</title>
<path fill="none" stroke="midnightblue" d="M483.981,-10C492.719,-10 501.69,-10 510.281,-10"/>
<polygon fill="midnightblue" stroke="midnightblue" points="483.867,-6.5001 473.867,-10 483.867,-13.5001 483.867,-6.5001"/>
</g>
<!-- Node6 -->
<g id="node6" class="node"><title>Node6</title>
<g id="a_node6"><a xlink:href="../../da/d07/pkcs7__plugin_8c.html#a26022c3058197bb6b288cddc37aff7be" target="_top" xlink:title="METHOD">
<polygon fill="none" stroke="black" points="650,-0.5 650,-19.5 710,-19.5 710,-0.5 650,-0.5"/>
<text text-anchor="middle" x="680" y="-7.5" font-family="Helvetica,sans-Serif" font-size="10.00">METHOD</text>
</a>
</g>
</g>
<!-- Node5&#45;&gt;Node6 -->
<g id="edge5" class="edge"><title>Node5&#45;&gt;Node6</title>
<path fill="none" stroke="midnightblue" d="M623.815,-10C632.923,-10 641.937,-10 649.957,-10"/>
<polygon fill="midnightblue" stroke="midnightblue" points="623.542,-6.5001 613.542,-10 623.542,-13.5001 623.542,-6.5001"/>
</g>
</g>
</svg>
