<?xml version="1.0" encoding="UTF-8" standalone="no"?>
<!DOCTYPE svg PUBLIC "-//W3C//DTD SVG 1.1//EN"
 "http://www.w3.org/Graphics/SVG/1.1/DTD/svg11.dtd">
<!-- Generated by graphviz version 2.36.0 (20140111.2315)
 -->
<!-- Title: putenv_cb Pages: 1 -->
<svg width="462pt" height="28pt"
 viewBox="0.00 0.00 462.00 28.00" xmlns="http://www.w3.org/2000/svg" xmlns:xlink="http://www.w3.org/1999/xlink">
<g id="graph0" class="graph" transform="scale(1 1) rotate(0) translate(4 24)">
<title>putenv_cb</title>
<!-- Node1 -->
<g id="node1" class="node"><title>Node1</title>
<polygon fill="#bfbfbf" stroke="black" points="0,-0.5 0,-19.5 62,-19.5 62,-0.5 0,-0.5"/>
<text text-anchor="middle" x="31" y="-7.5" font-family="Helvetica,sans-Serif" font-size="10.00">putenv_cb</text>
</g>
<!-- Node2 -->
<g id="node2" class="node"><title>Node2</title>
<g id="a_node2"><a xlink:href="../../dd/dd2/fast__request_8c.html#a17fb021b480a1f220d2579807fa2e398" target="_top" xlink:title="init">
<polygon fill="none" stroke="black" points="98.5,-0.5 98.5,-19.5 127.5,-19.5 127.5,-0.5 98.5,-0.5"/>
<text text-anchor="middle" x="113" y="-7.5" font-family="Helvetica,sans-Serif" font-size="10.00">init</text>
</a>
</g>
</g>
<!-- Node1&#45;&gt;Node2 -->
<g id="edge1" class="edge"><title>Node1&#45;&gt;Node2</title>
<path fill="none" stroke="midnightblue" d="M72.302,-10C81.6518,-10 90.9796,-10 98.2418,-10"/>
<polygon fill="midnightblue" stroke="midnightblue" points="72.2446,-6.5001 62.2446,-10 72.2445,-13.5001 72.2446,-6.5001"/>
</g>
<!-- Node3 -->
<g id="node3" class="node"><title>Node3</title>
<g id="a_node3"><a xlink:href="../../dc/d90/group__fast__request.html#ga3186aa79b3b6c29163f4a990333da20a" target="_top" xlink:title="fast_request_create">
<polygon fill="none" stroke="black" points="164.5,-0.5 164.5,-19.5 267.5,-19.5 267.5,-0.5 164.5,-0.5"/>
<text text-anchor="middle" x="216" y="-7.5" font-family="Helvetica,sans-Serif" font-size="10.00">fast_request_create</text>
</a>
</g>
</g>
<!-- Node2&#45;&gt;Node3 -->
<g id="edge2" class="edge"><title>Node2&#45;&gt;Node3</title>
<path fill="none" stroke="midnightblue" d="M137.63,-10C145.634,-10 154.909,-10 164.197,-10"/>
<polygon fill="midnightblue" stroke="midnightblue" points="137.621,-6.5001 127.621,-10 137.621,-13.5001 137.621,-6.5001"/>
</g>
<!-- Node4 -->
<g id="node4" class="node"><title>Node4</title>
<g id="a_node4"><a xlink:href="../../db/d01/fast__dispatcher_8c.html#a12498b1ee77efc88b14046db7545d5a2" target="_top" xlink:title="dispatch">
<polygon fill="none" stroke="black" points="304.5,-0.5 304.5,-19.5 357.5,-19.5 357.5,-0.5 304.5,-0.5"/>
<text text-anchor="middle" x="331" y="-7.5" font-family="Helvetica,sans-Serif" font-size="10.00">dispatch</text>
</a>
</g>
</g>
<!-- Node3&#45;&gt;Node4 -->
<g id="edge3" class="edge"><title>Node3&#45;&gt;Node4</title>
<path fill="none" stroke="midnightblue" d="M277.702,-10C287.047,-10 296.237,-10 304.244,-10"/>
<polygon fill="midnightblue" stroke="midnightblue" points="277.551,-6.5001 267.551,-10 277.551,-13.5001 277.551,-6.5001"/>
</g>
<!-- Node5 -->
<g id="node5" class="node"><title>Node5</title>
<g id="a_node5"><a xlink:href="../../db/d01/fast__dispatcher_8c.html#ac99d02b75ac9fccff338429081bff1d3" target="_top" xlink:title="METHOD">
<polygon fill="none" stroke="black" points="394,-0.5 394,-19.5 454,-19.5 454,-0.5 394,-0.5"/>
<text text-anchor="middle" x="424" y="-7.5" font-family="Helvetica,sans-Serif" font-size="10.00">METHOD</text>
</a>
</g>
</g>
<!-- Node4&#45;&gt;Node5 -->
<g id="edge4" class="edge"><title>Node4&#45;&gt;Node5</title>
<path fill="none" stroke="midnightblue" d="M367.995,-10C376.59,-10 385.658,-10 393.898,-10"/>
<polygon fill="midnightblue" stroke="midnightblue" points="367.834,-6.5001 357.834,-10 367.834,-13.5001 367.834,-6.5001"/>
</g>
</g>
</svg>
