<?xml version="1.0" encoding="UTF-8" standalone="no"?>
<!DOCTYPE svg PUBLIC "-//W3C//DTD SVG 1.1//EN"
 "http://www.w3.org/Graphics/SVG/1.1/DTD/svg11.dtd">
<!-- Generated by graphviz version 2.36.0 (20140111.2315)
 -->
<!-- Title: METHOD Pages: 1 -->
<svg width="310pt" height="66pt"
 viewBox="0.00 0.00 310.00 66.00" xmlns="http://www.w3.org/2000/svg" xmlns:xlink="http://www.w3.org/1999/xlink">
<g id="graph0" class="graph" transform="scale(1 1) rotate(0) translate(4 62)">
<title>METHOD</title>
<!-- Node1 -->
<g id="node1" class="node"><title>Node1</title>
<polygon fill="#bfbfbf" stroke="black" points="0,-19.5 0,-38.5 60,-38.5 60,-19.5 0,-19.5"/>
<text text-anchor="middle" x="30" y="-26.5" font-family="Helvetica,sans-Serif" font-size="10.00">METHOD</text>
</g>
<!-- Node2 -->
<g id="node2" class="node"><title>Node2</title>
<g id="a_node2"><a xlink:href="../../dc/d9a/child__create_8c.html#af1731dfc73c821c5f3a388911430d32c" target="_top" xlink:title="get_nonce">
<polygon fill="none" stroke="black" points="113,-38.5 113,-57.5 175,-57.5 175,-38.5 113,-38.5"/>
<text text-anchor="middle" x="144" y="-45.5" font-family="Helvetica,sans-Serif" font-size="10.00">get_nonce</text>
</a>
</g>
</g>
<!-- Node1&#45;&gt;Node2 -->
<g id="edge1" class="edge"><title>Node1&#45;&gt;Node2</title>
<path fill="none" stroke="midnightblue" d="M60.1343,-33.9424C73.1732,-36.1544 88.7587,-38.7983 102.877,-41.1934"/>
<polygon fill="midnightblue" stroke="midnightblue" points="102.395,-44.6616 112.84,-42.8836 103.566,-37.7602 102.395,-44.6616"/>
</g>
<!-- Node3 -->
<g id="node3" class="node"><title>Node3</title>
<g id="a_node3"><a xlink:href="../../dc/d9a/child__create_8c.html#a60fe507c79034f87c0582544fdb892c8" target="_top" xlink:title="process_payloads">
<polygon fill="none" stroke="black" points="96.5,-0.5 96.5,-19.5 191.5,-19.5 191.5,-0.5 96.5,-0.5"/>
<text text-anchor="middle" x="144" y="-7.5" font-family="Helvetica,sans-Serif" font-size="10.00">process_payloads</text>
</a>
</g>
</g>
<!-- Node1&#45;&gt;Node3 -->
<g id="edge2" class="edge"><title>Node1&#45;&gt;Node3</title>
<path fill="none" stroke="midnightblue" d="M60.1343,-24.0576C68.1399,-22.6995 77.1055,-21.1785 86.1021,-19.6523"/>
<polygon fill="midnightblue" stroke="midnightblue" points="86.9493,-23.0587 96.223,-17.9354 85.7785,-16.1573 86.9493,-23.0587"/>
</g>
<!-- Node4 -->
<g id="node4" class="node"><title>Node4</title>
<g id="a_node4"><a xlink:href="../../dc/d9a/child__create_8c.html#afdbf80458e91755ab718d3805efa774f" target="_top" xlink:title="handle_notify">
<polygon fill="none" stroke="black" points="228,-0.5 228,-19.5 302,-19.5 302,-0.5 228,-0.5"/>
<text text-anchor="middle" x="265" y="-7.5" font-family="Helvetica,sans-Serif" font-size="10.00">handle_notify</text>
</a>
</g>
</g>
<!-- Node3&#45;&gt;Node4 -->
<g id="edge3" class="edge"><title>Node3&#45;&gt;Node4</title>
<path fill="none" stroke="midnightblue" d="M191.69,-10C200.208,-10 209.094,-10 217.603,-10"/>
<polygon fill="midnightblue" stroke="midnightblue" points="217.746,-13.5001 227.746,-10 217.746,-6.5001 217.746,-13.5001"/>
</g>
</g>
</svg>
