<?xml version="1.0" encoding="UTF-8" standalone="no"?>
<!DOCTYPE svg PUBLIC "-//W3C//DTD SVG 1.1//EN"
 "http://www.w3.org/Graphics/SVG/1.1/DTD/svg11.dtd">
<!-- Generated by graphviz version 2.36.0 (20140111.2315)
 -->
<!-- Title: private_tkm_private_key_t Pages: 1 -->
<svg width="220pt" height="176pt"
 viewBox="0.00 0.00 220.00 176.00" xmlns="http://www.w3.org/2000/svg" xmlns:xlink="http://www.w3.org/1999/xlink">
<g id="graph0" class="graph" transform="scale(1 1) rotate(0) translate(4 172)">
<title>private_tkm_private_key_t</title>
<!-- Node1 -->
<g id="node1" class="node"><title>Node1</title>
<polygon fill="#bfbfbf" stroke="black" points="109,-1 109,-31 211,-31 211,-1 109,-1"/>
<text text-anchor="start" x="117" y="-19" font-family="Helvetica,sans-Serif" font-size="10.00">private_tkm_private</text>
<text text-anchor="middle" x="160" y="-8" font-family="Helvetica,sans-Serif" font-size="10.00">_key_t</text>
</g>
<!-- Node2 -->
<g id="node2" class="node"><title>Node2</title>
<g id="a_node2"><a xlink:href="../../d6/d02/structidentification__t.html" target="_top" xlink:title="identification_t">
<polygon fill="none" stroke="black" points="27,-80.5 27,-99.5 107,-99.5 107,-80.5 27,-80.5"/>
<text text-anchor="middle" x="67" y="-87.5" font-family="Helvetica,sans-Serif" font-size="10.00">identification_t</text>
</a>
</g>
</g>
<!-- Node2&#45;&gt;Node1 -->
<g id="edge1" class="edge"><title>Node2&#45;&gt;Node1</title>
<path fill="none" stroke="#9a32cd" stroke-dasharray="5,2" d="M86.2683,-74.0826C102.519,-61.5012 125.622,-43.6151 141.618,-31.2316"/>
<polygon fill="#9a32cd" stroke="#9a32cd" points="83.7982,-71.5686 78.0335,-80.4579 88.0834,-77.1037 83.7982,-71.5686"/>
<text text-anchor="middle" x="122.5" y="-53.5" font-family="Helvetica,sans-Serif" font-size="10.00"> id</text>
</g>
<!-- Node2&#45;&gt;Node2 -->
<g id="edge2" class="edge"><title>Node2&#45;&gt;Node2</title>
<path fill="none" stroke="#9a32cd" stroke-dasharray="5,2" d="M117.265,-95.1219C122.005,-94.073 125,-92.3657 125,-90 125,-86.2148 117.332,-84.1153 107.119,-83.7013"/>
<polygon fill="#9a32cd" stroke="#9a32cd" points="116.649,-91.6698 107.119,-96.2987 117.455,-98.6232 116.649,-91.6698"/>
<text text-anchor="middle" x="138.5" y="-87.5" font-family="Helvetica,sans-Serif" font-size="10.00"> clone</text>
</g>
<!-- Node3 -->
<g id="node3" class="node"><title>Node3</title>
<g id="a_node3"><a xlink:href="../../d0/d14/structchunk__t.html" target="_top" xlink:title="chunk_t">
<polygon fill="none" stroke="black" points="-0.5,-148.5 -0.5,-167.5 50.5,-167.5 50.5,-148.5 -0.5,-148.5"/>
<text text-anchor="middle" x="25" y="-155.5" font-family="Helvetica,sans-Serif" font-size="10.00">chunk_t</text>
</a>
</g>
</g>
<!-- Node3&#45;&gt;Node2 -->
<g id="edge3" class="edge"><title>Node3&#45;&gt;Node2</title>
<path fill="none" stroke="#9a32cd" stroke-dasharray="5,2" d="M22.0038,-138.042C21.8181,-131.344 22.671,-123.993 26,-118 30.4697,-109.953 38.4652,-103.891 46.2161,-99.5701"/>
<polygon fill="#9a32cd" stroke="#9a32cd" points="18.5568,-138.745 23.0429,-148.343 25.5215,-138.042 18.5568,-138.745"/>
<text text-anchor="middle" x="56.5" y="-121.5" font-family="Helvetica,sans-Serif" font-size="10.00"> get_encoding</text>
</g>
<!-- Node4 -->
<g id="node4" class="node"><title>Node4</title>
<g id="a_node4"><a xlink:href="../../db/dd3/structenumerator__t.html" target="_top" xlink:title="enumerator_t">
<polygon fill="none" stroke="black" points="72,-148.5 72,-167.5 146,-167.5 146,-148.5 72,-148.5"/>
<text text-anchor="middle" x="109" y="-155.5" font-family="Helvetica,sans-Serif" font-size="10.00">enumerator_t</text>
</a>
</g>
</g>
<!-- Node4&#45;&gt;Node2 -->
<g id="edge4" class="edge"><title>Node4&#45;&gt;Node2</title>
<path fill="none" stroke="#9a32cd" stroke-dasharray="5,2" d="M99.6843,-139.411C95.9263,-132.611 91.4351,-124.835 87,-118 82.9357,-111.736 77.9357,-104.986 73.9518,-99.8022"/>
<polygon fill="#9a32cd" stroke="#9a32cd" points="96.7384,-141.322 104.574,-148.453 102.896,-137.992 96.7384,-141.322"/>
<text text-anchor="middle" x="148" y="-121.5" font-family="Helvetica,sans-Serif" font-size="10.00"> create_part_enumerator</text>
</g>
<!-- Node5 -->
<g id="node5" class="node"><title>Node5</title>
<polygon fill="none" stroke="#bfbfbf" points="170.5,-80.5 170.5,-99.5 211.5,-99.5 211.5,-80.5 170.5,-80.5"/>
<text text-anchor="middle" x="191" y="-87.5" font-family="Helvetica,sans-Serif" font-size="10.00">struct</text>
</g>
<!-- Node5&#45;&gt;Node1 -->
<g id="edge5" class="edge"><title>Node5&#45;&gt;Node1</title>
<path fill="none" stroke="#9a32cd" stroke-dasharray="5,2" d="M183.338,-71.2038C178.032,-58.8816 171.064,-42.6978 166.127,-31.2316"/>
<polygon fill="#9a32cd" stroke="#9a32cd" points="180.153,-72.6572 187.322,-80.4579 186.582,-69.8889 180.153,-72.6572"/>
<text text-anchor="middle" x="194.5" y="-53.5" font-family="Helvetica,sans-Serif" font-size="10.00"> public</text>
</g>
</g>
</svg>
