<?xml version="1.0" encoding="UTF-8" standalone="no"?>
<!DOCTYPE svg PUBLIC "-//W3C//DTD SVG 1.1//EN"
 "http://www.w3.org/Graphics/SVG/1.1/DTD/svg11.dtd">
<!-- Generated by graphviz version 2.36.0 (20140111.2315)
 -->
<!-- Title: bliss_private_key_gen Pages: 1 -->
<svg width="1662pt" height="902pt"
 viewBox="0.00 0.00 1662.00 902.00" xmlns="http://www.w3.org/2000/svg" xmlns:xlink="http://www.w3.org/1999/xlink">
<g id="graph0" class="graph" transform="scale(1 1) rotate(0) translate(4 898)">
<title>bliss_private_key_gen</title>
<!-- Node1 -->
<g id="node1" class="node"><title>Node1</title>
<polygon fill="#bfbfbf" stroke="black" points="0.5,-342.5 0.5,-361.5 113.5,-361.5 113.5,-342.5 0.5,-342.5"/>
<text text-anchor="middle" x="57" y="-349.5" font-family="Helvetica,sans-Serif" font-size="10.00">bliss_private_key_gen</text>
</g>
<!-- Node2 -->
<g id="node2" class="node"><title>Node2</title>
<g id="a_node2"><a xlink:href="../../d2/dce/group__bliss__fft.html#ga922373f5ebb7a51d68e7772e2f2e61d2" target="_top" xlink:title="bliss_fft_create">
<polygon fill="none" stroke="black" points="162.5,-848.5 162.5,-867.5 245.5,-867.5 245.5,-848.5 162.5,-848.5"/>
<text text-anchor="middle" x="204" y="-855.5" font-family="Helvetica,sans-Serif" font-size="10.00">bliss_fft_create</text>
</a>
</g>
</g>
<!-- Node1&#45;&gt;Node2 -->
<g id="edge1" class="edge"><title>Node1&#45;&gt;Node2</title>
<path fill="none" stroke="midnightblue" d="M58.5605,-361.602C62.329,-423.096 85.8019,-761.553 150,-838 151.49,-839.775 153.155,-841.392 154.95,-842.866"/>
<polygon fill="midnightblue" stroke="midnightblue" points="153.225,-845.919 163.512,-848.454 157.051,-840.057 153.225,-845.919"/>
</g>
<!-- Node3 -->
<g id="node3" class="node"><title>Node3</title>
<g id="a_node3"><a xlink:href="../../d1/d07/group__bliss__param__set.html#ga25ef331c5608ca1acc9f1fbe0db3033e" target="_top" xlink:title="bliss_param_set_get\l_by_id">
<polygon fill="none" stroke="black" points="150.5,-799 150.5,-829 257.5,-829 257.5,-799 150.5,-799"/>
<text text-anchor="start" x="158.5" y="-817" font-family="Helvetica,sans-Serif" font-size="10.00">bliss_param_set_get</text>
<text text-anchor="middle" x="204" y="-806" font-family="Helvetica,sans-Serif" font-size="10.00">_by_id</text>
</a>
</g>
</g>
<!-- Node1&#45;&gt;Node3 -->
<g id="edge2" class="edge"><title>Node1&#45;&gt;Node3</title>
<path fill="none" stroke="midnightblue" d="M58.9622,-361.512C64.8614,-418.306 97.6224,-712.58 150,-784 152.394,-787.264 155.257,-790.222 158.395,-792.894"/>
<polygon fill="midnightblue" stroke="midnightblue" points="156.52,-795.859 166.653,-798.954 160.662,-790.216 156.52,-795.859"/>
</g>
<!-- Node4 -->
<g id="node4" class="node"><title>Node4</title>
<g id="a_node4"><a xlink:href="../../df/d6a/bliss__private__key_8c.html#a33df73a4da5f215e215bf180e4df5661" target="_top" xlink:title="bliss_private_key_create\l_empty">
<polygon fill="none" stroke="black" points="996.5,-812 996.5,-842 1121.5,-842 1121.5,-812 996.5,-812"/>
<text text-anchor="start" x="1004.5" y="-830" font-family="Helvetica,sans-Serif" font-size="10.00">bliss_private_key_create</text>
<text text-anchor="middle" x="1059" y="-819" font-family="Helvetica,sans-Serif" font-size="10.00">_empty</text>
</a>
</g>
</g>
<!-- Node1&#45;&gt;Node4 -->
<g id="edge3" class="edge"><title>Node1&#45;&gt;Node4</title>
<path fill="none" stroke="midnightblue" d="M58.7888,-361.703C63.4942,-417.044 89.7201,-692.226 150,-746 219.113,-807.654 264.384,-770 357,-770 357,-770 357,-770 778,-770 857.323,-770 946.792,-792.238 1002.79,-808.933"/>
<polygon fill="midnightblue" stroke="midnightblue" points="1001.92,-812.327 1012.5,-811.875 1003.94,-805.627 1001.92,-812.327"/>
</g>
<!-- Node10 -->
<g id="node10" class="node"><title>Node10</title>
<g id="a_node10"><a xlink:href="../../df/d6a/bliss__private__key_8c.html#a0775d045dc73030738bca2cc81b175bd" target="_top" xlink:title="create_secret">
<polygon fill="none" stroke="black" points="166,-190.5 166,-209.5 242,-209.5 242,-190.5 166,-190.5"/>
<text text-anchor="middle" x="204" y="-197.5" font-family="Helvetica,sans-Serif" font-size="10.00">create_secret</text>
</a>
</g>
</g>
<!-- Node1&#45;&gt;Node10 -->
<g id="edge11" class="edge"><title>Node1&#45;&gt;Node10</title>
<path fill="none" stroke="midnightblue" d="M62.6714,-342.34C74.3569,-319.065 107.027,-259.208 150,-224 154.655,-220.186 160.014,-216.848 165.497,-213.97"/>
<polygon fill="midnightblue" stroke="midnightblue" points="167.222,-217.025 174.739,-209.559 164.207,-210.707 167.222,-217.025"/>
</g>
<!-- Node13 -->
<g id="node13" class="node"><title>Node13</title>
<g id="a_node13"><a xlink:href="../../da/dfc/settings__parser_8c.html#af07d89f5ceaea0c7c8252cc41fd75f37" target="_top" xlink:title="free">
<polygon fill="none" stroke="black" points="1620.5,-361.5 1620.5,-380.5 1653.5,-380.5 1653.5,-361.5 1620.5,-361.5"/>
<text text-anchor="middle" x="1637" y="-368.5" font-family="Helvetica,sans-Serif" font-size="10.00">free</text>
</a>
</g>
</g>
<!-- Node1&#45;&gt;Node13 -->
<g id="edge63" class="edge"><title>Node1&#45;&gt;Node13</title>
<path fill="none" stroke="midnightblue" d="M60.3517,-361.775C75.2949,-421.254 162.665,-732 357,-732 357,-732 357,-732 1388,-732 1478.01,-732 1523.23,-747.397 1584,-681 1623.2,-638.172 1633.16,-452.366 1635.41,-390.857"/>
<polygon fill="midnightblue" stroke="midnightblue" points="1638.91,-390.696 1635.75,-380.585 1631.92,-390.462 1638.91,-390.696"/>
</g>
<!-- Node14 -->
<g id="node14" class="node"><title>Node14</title>
<g id="a_node14"><a xlink:href="../../da/dfc/settings__parser_8c.html#a5faf6a2d99f50a4655dd390199a8db7b" target="_top" xlink:title="malloc">
<polygon fill="none" stroke="black" points="496.5,-228.5 496.5,-247.5 541.5,-247.5 541.5,-228.5 496.5,-228.5"/>
<text text-anchor="middle" x="519" y="-235.5" font-family="Helvetica,sans-Serif" font-size="10.00">malloc</text>
</a>
</g>
</g>
<!-- Node1&#45;&gt;Node14 -->
<g id="edge65" class="edge"><title>Node1&#45;&gt;Node14</title>
<path fill="none" stroke="midnightblue" d="M76.34,-342.398C115.23,-322.543 209.355,-277.146 294,-257 361.17,-241.013 442.479,-238.048 486.306,-237.742"/>
<polygon fill="midnightblue" stroke="midnightblue" points="486.363,-241.242 496.353,-237.715 486.344,-234.242 486.363,-241.242"/>
</g>
<!-- Node17 -->
<g id="node17" class="node"><title>Node17</title>
<g id="a_node17"><a xlink:href="../../dc/d21/daemon_8c.html#a1e824dfeaa337e709772cb0c8e6c8dcc" target="_top" xlink:title="destroy">
<polygon fill="none" stroke="black" points="752.5,-304.5 752.5,-323.5 801.5,-323.5 801.5,-304.5 752.5,-304.5"/>
<text text-anchor="middle" x="777" y="-311.5" font-family="Helvetica,sans-Serif" font-size="10.00">destroy</text>
</a>
</g>
</g>
<!-- Node1&#45;&gt;Node17 -->
<g id="edge62" class="edge"><title>Node1&#45;&gt;Node17</title>
<path fill="none" stroke="midnightblue" d="M113.658,-352C173.704,-352 272.128,-352 357,-352 357,-352 357,-352 520,-352 601.328,-352 621.952,-347.374 702,-333 715.392,-330.595 729.933,-327.067 742.552,-323.702"/>
<polygon fill="midnightblue" stroke="midnightblue" points="743.479,-327.077 752.201,-321.063 741.632,-320.325 743.479,-327.077"/>
</g>
<!-- Node47 -->
<g id="node47" class="node"><title>Node47</title>
<g id="a_node47"><a xlink:href="../../df/d6a/bliss__private__key_8c.html#a2fdcbc7bfcd8b4c772d869651ddc4dd6" target="_top" xlink:title="invert">
<polygon fill="none" stroke="black" points="183.5,-152.5 183.5,-171.5 224.5,-171.5 224.5,-152.5 183.5,-152.5"/>
<text text-anchor="middle" x="204" y="-159.5" font-family="Helvetica,sans-Serif" font-size="10.00">invert</text>
</a>
</g>
</g>
<!-- Node1&#45;&gt;Node47 -->
<g id="edge64" class="edge"><title>Node1&#45;&gt;Node47</title>
<path fill="none" stroke="midnightblue" d="M60.5314,-342.308C68.5483,-313.48 96.0899,-227.404 150,-181 156.689,-175.242 165.252,-171.183 173.536,-168.339"/>
<polygon fill="midnightblue" stroke="midnightblue" points="174.756,-171.629 183.357,-165.442 172.775,-164.915 174.756,-171.629"/>
</g>
<!-- Node48 -->
<g id="node48" class="node"><title>Node48</title>
<g id="a_node48"><a xlink:href="../../dd/d74/group__memory__i.html#ga6d5ce21860b55e0c54353999c4f4f077" target="_top" xlink:title="memwipe">
<polygon fill="none" stroke="black" points="174.5,-38.5 174.5,-57.5 233.5,-57.5 233.5,-38.5 174.5,-38.5"/>
<text text-anchor="middle" x="204" y="-45.5" font-family="Helvetica,sans-Serif" font-size="10.00">memwipe</text>
</a>
</g>
</g>
<!-- Node1&#45;&gt;Node48 -->
<g id="edge66" class="edge"><title>Node1&#45;&gt;Node48</title>
<path fill="none" stroke="midnightblue" d="M61.9005,-342.268C74.0352,-312.195 112.554,-218.244 150,-143 163.543,-115.787 181.006,-85.2423 192.107,-66.3109"/>
<polygon fill="midnightblue" stroke="midnightblue" points="195.209,-67.9398 197.277,-57.5488 189.181,-64.3822 195.209,-67.9398"/>
</g>
<!-- Node5 -->
<g id="node5" class="node"><title>Node5</title>
<g id="a_node5"><a xlink:href="../../d0/d00/group__private__key.html#ga3680f4ed675a04821d8aa225b12205cc" target="_top" xlink:title="private_key_belongs_to">
<polygon fill="none" stroke="black" points="1166.5,-874.5 1166.5,-893.5 1285.5,-893.5 1285.5,-874.5 1166.5,-874.5"/>
<text text-anchor="middle" x="1226" y="-881.5" font-family="Helvetica,sans-Serif" font-size="10.00">private_key_belongs_to</text>
</a>
</g>
</g>
<!-- Node4&#45;&gt;Node5 -->
<g id="edge4" class="edge"><title>Node4&#45;&gt;Node5</title>
<path fill="none" stroke="midnightblue" d="M1096.47,-842.076C1114.78,-849.409 1137.41,-858.105 1158,-865 1164.86,-867.296 1172.17,-869.557 1179.35,-871.673"/>
<polygon fill="midnightblue" stroke="midnightblue" points="1178.42,-875.048 1189,-874.458 1180.36,-868.322 1178.42,-875.048"/>
</g>
<!-- Node8 -->
<g id="node8" class="node"><title>Node8</title>
<g id="a_node8"><a xlink:href="../../d0/d00/group__private__key.html#gad255e51b7aaa080d67b80c68aaceddff" target="_top" xlink:title="private_key_equals">
<polygon fill="none" stroke="black" points="1175.5,-836.5 1175.5,-855.5 1276.5,-855.5 1276.5,-836.5 1175.5,-836.5"/>
<text text-anchor="middle" x="1226" y="-843.5" font-family="Helvetica,sans-Serif" font-size="10.00">private_key_equals</text>
</a>
</g>
</g>
<!-- Node4&#45;&gt;Node8 -->
<g id="edge7" class="edge"><title>Node4&#45;&gt;Node8</title>
<path fill="none" stroke="midnightblue" d="M1121.91,-834.129C1136.11,-835.764 1151.18,-837.5 1165.29,-839.124"/>
<polygon fill="midnightblue" stroke="midnightblue" points="1165.03,-842.617 1175.36,-840.284 1165.83,-835.663 1165.03,-842.617"/>
</g>
<!-- Node9 -->
<g id="node9" class="node"><title>Node9</title>
<g id="a_node9"><a xlink:href="../../d0/d00/group__private__key.html#ga3ebfeb4193435369a74968c527f3768a" target="_top" xlink:title="private_key_has_fingerprint">
<polygon fill="none" stroke="black" points="1158,-798.5 1158,-817.5 1294,-817.5 1294,-798.5 1158,-798.5"/>
<text text-anchor="middle" x="1226" y="-805.5" font-family="Helvetica,sans-Serif" font-size="10.00">private_key_has_fingerprint</text>
</a>
</g>
</g>
<!-- Node4&#45;&gt;Node9 -->
<g id="edge9" class="edge"><title>Node4&#45;&gt;Node9</title>
<path fill="none" stroke="midnightblue" d="M1121.91,-819.871C1130.32,-818.902 1139.04,-817.898 1147.68,-816.903"/>
<polygon fill="midnightblue" stroke="midnightblue" points="1148.24,-820.363 1157.77,-815.742 1147.43,-813.409 1148.24,-820.363"/>
</g>
<!-- Node6 -->
<g id="node6" class="node"><title>Node6</title>
<g id="a_node6"><a xlink:href="../../d4/d87/group__chunk.html#gae6aabf03218cda073ab2173e02bff4ba" target="_top" xlink:title="chunk_equals">
<polygon fill="none" stroke="black" points="1348.5,-817.5 1348.5,-836.5 1425.5,-836.5 1425.5,-817.5 1348.5,-817.5"/>
<text text-anchor="middle" x="1387" y="-824.5" font-family="Helvetica,sans-Serif" font-size="10.00">chunk_equals</text>
</a>
</g>
</g>
<!-- Node5&#45;&gt;Node6 -->
<g id="edge5" class="edge"><title>Node5&#45;&gt;Node6</title>
<path fill="none" stroke="midnightblue" d="M1263.75,-874.403C1273.64,-871.596 1284.29,-868.369 1294,-865 1314.8,-857.782 1337.68,-848.336 1355.43,-840.668"/>
<polygon fill="midnightblue" stroke="midnightblue" points="1356.94,-843.825 1364.71,-836.617 1354.14,-837.41 1356.94,-843.825"/>
</g>
<!-- Node7 -->
<g id="node7" class="node"><title>Node7</title>
<g id="a_node7"><a xlink:href="../../dd/d74/group__memory__i.html#ga46d7935db00fd7092430dbf4f36c2850" target="_top" xlink:title="memeq">
<polygon fill="none" stroke="black" points="1507.5,-817.5 1507.5,-836.5 1556.5,-836.5 1556.5,-817.5 1507.5,-817.5"/>
<text text-anchor="middle" x="1532" y="-824.5" font-family="Helvetica,sans-Serif" font-size="10.00">memeq</text>
</a>
</g>
</g>
<!-- Node6&#45;&gt;Node7 -->
<g id="edge6" class="edge"><title>Node6&#45;&gt;Node7</title>
<path fill="none" stroke="midnightblue" d="M1425.57,-827C1447.66,-827 1475.37,-827 1496.84,-827"/>
<polygon fill="midnightblue" stroke="midnightblue" points="1497.13,-830.5 1507.13,-827 1497.13,-823.5 1497.13,-830.5"/>
</g>
<!-- Node8&#45;&gt;Node6 -->
<g id="edge8" class="edge"><title>Node8&#45;&gt;Node6</title>
<path fill="none" stroke="midnightblue" d="M1276.87,-840.04C1296.48,-837.697 1318.9,-835.019 1338.29,-832.701"/>
<polygon fill="midnightblue" stroke="midnightblue" points="1338.9,-836.153 1348.42,-831.491 1338.07,-829.202 1338.9,-836.153"/>
</g>
<!-- Node9&#45;&gt;Node6 -->
<g id="edge10" class="edge"><title>Node9&#45;&gt;Node6</title>
<path fill="none" stroke="midnightblue" d="M1294.43,-816.058C1309.13,-817.815 1324.4,-819.639 1338.16,-821.283"/>
<polygon fill="midnightblue" stroke="midnightblue" points="1338,-824.789 1348.35,-822.501 1338.83,-817.839 1338,-824.789"/>
</g>
<!-- Node11 -->
<g id="node11" class="node"><title>Node11</title>
<g id="a_node11"><a xlink:href="../../d4/d87/group__chunk.html#gad94ca029616a107e89eaa618408fd7b6" target="_top" xlink:title="chunk_create">
<polygon fill="none" stroke="black" points="320.5,-152.5 320.5,-171.5 395.5,-171.5 395.5,-152.5 320.5,-152.5"/>
<text text-anchor="middle" x="358" y="-159.5" font-family="Helvetica,sans-Serif" font-size="10.00">chunk_create</text>
</a>
</g>
</g>
<!-- Node10&#45;&gt;Node11 -->
<g id="edge12" class="edge"><title>Node10&#45;&gt;Node11</title>
<path fill="none" stroke="midnightblue" d="M242.183,-190.704C262.838,-185.54 288.721,-179.07 310.682,-173.58"/>
<polygon fill="midnightblue" stroke="midnightblue" points="311.611,-176.955 320.463,-171.134 309.913,-170.164 311.611,-176.955"/>
</g>
<!-- Node12 -->
<g id="node12" class="node"><title>Node12</title>
<g id="a_node12"><a xlink:href="../../df/d6a/bliss__private__key_8c.html#a897ee254c4e8e165d694b8ea3c7d39e7" target="_top" xlink:title="create_vector_from_seed">
<polygon fill="none" stroke="black" points="294.5,-266.5 294.5,-285.5 421.5,-285.5 421.5,-266.5 294.5,-266.5"/>
<text text-anchor="middle" x="358" y="-273.5" font-family="Helvetica,sans-Serif" font-size="10.00">create_vector_from_seed</text>
</a>
</g>
</g>
<!-- Node10&#45;&gt;Node12 -->
<g id="edge13" class="edge"><title>Node10&#45;&gt;Node12</title>
<path fill="none" stroke="midnightblue" d="M224.251,-209.625C250.634,-222.817 298.214,-246.607 328.668,-261.834"/>
<polygon fill="midnightblue" stroke="midnightblue" points="327.396,-265.111 337.905,-266.453 330.526,-258.85 327.396,-265.111"/>
</g>
<!-- Node10&#45;&gt;Node13 -->
<g id="edge56" class="edge"><title>Node10&#45;&gt;Node13</title>
<path fill="none" stroke="midnightblue" d="M242.1,-200C300.702,-200 418.286,-200 518,-200 518,-200 518,-200 1388,-200 1476.41,-200 1515.81,-177.73 1584,-234 1619.84,-263.576 1631.01,-320.696 1634.47,-350.995"/>
<polygon fill="midnightblue" stroke="midnightblue" points="1631.01,-351.563 1635.45,-361.18 1637.97,-350.89 1631.01,-351.563"/>
</g>
<!-- Node43 -->
<g id="node43" class="node"><title>Node43</title>
<g id="a_node43"><a xlink:href="../../df/d6a/bliss__private__key_8c.html#a2d6a70a15f1770d067476bcb81ab6963" target="_top" xlink:title="nks_norm">
<polygon fill="none" stroke="black" points="328.5,-76.5 328.5,-95.5 387.5,-95.5 387.5,-76.5 328.5,-76.5"/>
<text text-anchor="middle" x="358" y="-83.5" font-family="Helvetica,sans-Serif" font-size="10.00">nks_norm</text>
</a>
</g>
</g>
<!-- Node10&#45;&gt;Node43 -->
<g id="edge57" class="edge"><title>Node10&#45;&gt;Node43</title>
<path fill="none" stroke="midnightblue" d="M242.076,-190.832C247.827,-188.293 253.382,-185.074 258,-181 284.532,-157.595 267.701,-133.666 294,-110 301.028,-103.675 309.894,-98.9526 318.738,-95.4504"/>
<polygon fill="midnightblue" stroke="midnightblue" points="319.964,-98.7293 328.238,-92.1111 317.643,-92.1254 319.964,-98.7293"/>
</g>
<!-- Node46 -->
<g id="node46" class="node"><title>Node46</title>
<g id="a_node46"><a xlink:href="../../df/d6a/bliss__private__key_8c.html#a8f2fead6667ec5aa64a86f4e0deccbe0" target="_top" xlink:title="wrapped_product">
<polygon fill="none" stroke="black" points="473.5,-114.5 473.5,-133.5 564.5,-133.5 564.5,-114.5 473.5,-114.5"/>
<text text-anchor="middle" x="519" y="-121.5" font-family="Helvetica,sans-Serif" font-size="10.00">wrapped_product</text>
</a>
</g>
</g>
<!-- Node10&#45;&gt;Node46 -->
<g id="edge61" class="edge"><title>Node10&#45;&gt;Node46</title>
<path fill="none" stroke="midnightblue" d="M239.205,-190.408C245.711,-187.855 252.27,-184.74 258,-181 277.481,-168.283 273.037,-153.088 294,-143 347.406,-117.3 416.272,-115.404 463.465,-118.115"/>
<polygon fill="midnightblue" stroke="midnightblue" points="463.279,-121.61 473.488,-118.779 463.741,-114.626 463.279,-121.61"/>
</g>
<!-- Node12&#45;&gt;Node13 -->
<g id="edge14" class="edge"><title>Node12&#45;&gt;Node13</title>
<path fill="none" stroke="midnightblue" d="M360.773,-285.516C372.957,-347.735 450.108,-694 658,-694 658,-694 658,-694 1388,-694 1478.48,-694 1522.7,-705.542 1584,-639 1617.58,-602.552 1631,-446.811 1634.79,-391"/>
<polygon fill="midnightblue" stroke="midnightblue" points="1638.3,-390.89 1635.45,-380.686 1631.31,-390.439 1638.3,-390.89"/>
</g>
<!-- Node12&#45;&gt;Node14 -->
<g id="edge15" class="edge"><title>Node12&#45;&gt;Node14</title>
<path fill="none" stroke="midnightblue" d="M399.122,-266.411C426.29,-259.918 461.666,-251.463 486.743,-245.47"/>
<polygon fill="midnightblue" stroke="midnightblue" points="487.561,-248.873 496.474,-243.145 485.934,-242.065 487.561,-248.873"/>
</g>
<!-- Node15 -->
<g id="node15" class="node"><title>Node15</title>
<g id="a_node15"><a xlink:href="../../d5/db1/group__mgf1__bitspender.html#ga0fd56499411b8c07e8e6abedc61fd9a2" target="_top" xlink:title="mgf1_bitspender_create">
<polygon fill="none" stroke="black" points="458.5,-304.5 458.5,-323.5 579.5,-323.5 579.5,-304.5 458.5,-304.5"/>
<text text-anchor="middle" x="519" y="-311.5" font-family="Helvetica,sans-Serif" font-size="10.00">mgf1_bitspender_create</text>
</a>
</g>
</g>
<!-- Node12&#45;&gt;Node15 -->
<g id="edge16" class="edge"><title>Node12&#45;&gt;Node15</title>
<path fill="none" stroke="midnightblue" d="M399.122,-285.589C420.104,-290.604 445.982,-296.788 468.23,-302.105"/>
<polygon fill="midnightblue" stroke="midnightblue" points="467.626,-305.56 478.166,-304.48 469.254,-298.751 467.626,-305.56"/>
</g>
<!-- Node40 -->
<g id="node40" class="node"><title>Node40</title>
<g id="a_node40"><a xlink:href="../../d2/da7/pkcs7_8c.html#a1a96e3aece70eeff0b7cfe13aa7374c7" target="_top" xlink:title="sign">
<polygon fill="none" stroke="black" points="501.5,-266.5 501.5,-285.5 536.5,-285.5 536.5,-266.5 501.5,-266.5"/>
<text text-anchor="middle" x="519" y="-273.5" font-family="Helvetica,sans-Serif" font-size="10.00">sign</text>
</a>
</g>
</g>
<!-- Node12&#45;&gt;Node40 -->
<g id="edge52" class="edge"><title>Node12&#45;&gt;Node40</title>
<path fill="none" stroke="midnightblue" d="M421.841,-276C445.932,-276 472.159,-276 491.128,-276"/>
<polygon fill="midnightblue" stroke="midnightblue" points="491.388,-279.5 501.388,-276 491.387,-272.5 491.388,-279.5"/>
</g>
<!-- Node16 -->
<g id="node16" class="node"><title>Node16</title>
<g id="a_node16"><a xlink:href="../../d6/d4f/group__mgf1.html#gaf81db5f9eedc0c960d641a61e7870bb8" target="_top" xlink:title="mgf1_create">
<polygon fill="none" stroke="black" points="623.5,-304.5 623.5,-323.5 694.5,-323.5 694.5,-304.5 623.5,-304.5"/>
<text text-anchor="middle" x="659" y="-311.5" font-family="Helvetica,sans-Serif" font-size="10.00">mgf1_create</text>
</a>
</g>
</g>
<!-- Node15&#45;&gt;Node16 -->
<g id="edge17" class="edge"><title>Node15&#45;&gt;Node16</title>
<path fill="none" stroke="midnightblue" d="M579.726,-314C590.871,-314 602.345,-314 612.956,-314"/>
<polygon fill="midnightblue" stroke="midnightblue" points="613.235,-317.5 623.235,-314 613.235,-310.5 613.235,-317.5"/>
</g>
<!-- Node16&#45;&gt;Node17 -->
<g id="edge18" class="edge"><title>Node16&#45;&gt;Node17</title>
<path fill="none" stroke="midnightblue" d="M694.804,-314C709.733,-314 727.116,-314 741.96,-314"/>
<polygon fill="midnightblue" stroke="midnightblue" points="742.248,-317.5 752.248,-314 742.248,-310.5 742.248,-317.5"/>
</g>
<!-- Node17&#45;&gt;Node13 -->
<g id="edge19" class="edge"><title>Node17&#45;&gt;Node13</title>
<path fill="none" stroke="midnightblue" d="M801.786,-306.863C816.193,-302.799 835.01,-297.945 852,-295 942.593,-279.295 966.056,-276 1058,-276 1058,-276 1058,-276 1388,-276 1477.38,-276 1505.38,-278.485 1584,-321 1598.92,-329.07 1612.61,-342.601 1622.2,-353.553"/>
<polygon fill="midnightblue" stroke="midnightblue" points="1619.57,-355.872 1628.68,-361.292 1624.94,-351.378 1619.57,-355.872"/>
</g>
<!-- Node18 -->
<g id="node18" class="node"><title>Node18</title>
<g id="a_node18"><a xlink:href="../../dc/d21/daemon_8c.html#a1b7023117168a75858bd535a56e709e2" target="_top" xlink:title="logger_entry_destroy">
<polygon fill="none" stroke="black" points="852.5,-304.5 852.5,-323.5 959.5,-323.5 959.5,-304.5 852.5,-304.5"/>
<text text-anchor="middle" x="906" y="-311.5" font-family="Helvetica,sans-Serif" font-size="10.00">logger_entry_destroy</text>
</a>
</g>
</g>
<!-- Node17&#45;&gt;Node18 -->
<g id="edge20" class="edge"><title>Node17&#45;&gt;Node18</title>
<path fill="none" stroke="midnightblue" d="M801.59,-314C813.188,-314 827.774,-314 842.304,-314"/>
<polygon fill="midnightblue" stroke="midnightblue" points="842.316,-317.5 852.316,-314 842.316,-310.5 842.316,-317.5"/>
</g>
<!-- Node19 -->
<g id="node19" class="node"><title>Node19</title>
<g id="a_node19"><a xlink:href="../../d9/d32/connect__manager_8c.html#a3b4dd773d88779165dc7243cb4e4fbee" target="_top" xlink:title="sender">
<polygon fill="none" stroke="black" points="883,-487.5 883,-506.5 929,-506.5 929,-487.5 883,-487.5"/>
<text text-anchor="middle" x="906" y="-494.5" font-family="Helvetica,sans-Serif" font-size="10.00">sender</text>
</a>
</g>
</g>
<!-- Node17&#45;&gt;Node19 -->
<g id="edge22" class="edge"><title>Node17&#45;&gt;Node19</title>
<path fill="none" stroke="midnightblue" d="M784.649,-323.581C804.787,-352.598 865.36,-439.881 892.088,-478.394"/>
<polygon fill="midnightblue" stroke="midnightblue" points="889.532,-480.85 898.109,-487.07 895.283,-476.859 889.532,-480.85"/>
</g>
<!-- Node18&#45;&gt;Node13 -->
<g id="edge21" class="edge"><title>Node18&#45;&gt;Node13</title>
<path fill="none" stroke="midnightblue" d="M959.611,-314C1022.68,-314 1131.56,-314 1225,-314 1225,-314 1225,-314 1388,-314 1471.41,-314 1566.67,-345.001 1610.94,-361.277"/>
<polygon fill="midnightblue" stroke="midnightblue" points="1609.74,-364.564 1620.33,-364.791 1612.19,-358.008 1609.74,-364.564"/>
</g>
<!-- Node20 -->
<g id="node20" class="node"><title>Node20</title>
<g id="a_node20"><a xlink:href="../../d9/d32/connect__manager_8c.html#ad295327b74b1c4e19a7096ad2979765b" target="_top" xlink:title="check_create">
<polygon fill="none" stroke="black" points="1021.5,-589.5 1021.5,-608.5 1096.5,-608.5 1096.5,-589.5 1021.5,-589.5"/>
<text text-anchor="middle" x="1059" y="-596.5" font-family="Helvetica,sans-Serif" font-size="10.00">check_create</text>
</a>
</g>
</g>
<!-- Node19&#45;&gt;Node20 -->
<g id="edge23" class="edge"><title>Node19&#45;&gt;Node20</title>
<path fill="none" stroke="midnightblue" d="M914.766,-506.701C929.053,-523.925 961.242,-559.916 996,-580 1000.87,-582.816 1006.21,-585.257 1011.64,-587.362"/>
<polygon fill="midnightblue" stroke="midnightblue" points="1010.84,-590.791 1021.44,-590.796 1013.16,-584.185 1010.84,-590.791"/>
</g>
<!-- Node21 -->
<g id="node21" class="node"><title>Node21</title>
<g id="a_node21"><a xlink:href="../../d9/d32/connect__manager_8c.html#a204f99a4a38f8c08c42cd120bcf1b9f7" target="_top" xlink:title="check_destroy">
<polygon fill="none" stroke="black" points="1347,-361.5 1347,-380.5 1427,-380.5 1427,-361.5 1347,-361.5"/>
<text text-anchor="middle" x="1387" y="-368.5" font-family="Helvetica,sans-Serif" font-size="10.00">check_destroy</text>
</a>
</g>
</g>
<!-- Node19&#45;&gt;Node21 -->
<g id="edge24" class="edge"><title>Node19&#45;&gt;Node21</title>
<path fill="none" stroke="midnightblue" d="M910.253,-487.362C919.234,-462.5 947.011,-396.374 996,-371 1109.55,-312.185 1267.83,-340.153 1343.03,-358.866"/>
<polygon fill="midnightblue" stroke="midnightblue" points="1342.52,-362.349 1353.08,-361.435 1344.26,-355.567 1342.52,-362.349"/>
</g>
<!-- Node23 -->
<g id="node23" class="node"><title>Node23</title>
<g id="a_node23"><a xlink:href="../../d7/d87/group__endpoint__notify.html#ga89474ccd935bd6aeb2db5ae84c2fcbcf" target="_top" xlink:title="endpoint_notify_create\l_from_host">
<polygon fill="none" stroke="black" points="1001.5,-381 1001.5,-411 1116.5,-411 1116.5,-381 1001.5,-381"/>
<text text-anchor="start" x="1009.5" y="-399" font-family="Helvetica,sans-Serif" font-size="10.00">endpoint_notify_create</text>
<text text-anchor="middle" x="1059" y="-388" font-family="Helvetica,sans-Serif" font-size="10.00">_from_host</text>
</a>
</g>
</g>
<!-- Node19&#45;&gt;Node23 -->
<g id="edge28" class="edge"><title>Node19&#45;&gt;Node23</title>
<path fill="none" stroke="midnightblue" d="M916.075,-487.455C931.344,-471.835 963.683,-440.593 996,-421 999.216,-419.05 1002.61,-417.193 1006.09,-415.437"/>
<polygon fill="midnightblue" stroke="midnightblue" points="1007.87,-418.465 1015.42,-411.029 1004.88,-412.136 1007.87,-418.465"/>
</g>
<!-- Node25 -->
<g id="node25" class="node"><title>Node25</title>
<g id="a_node25"><a xlink:href="../../d9/d32/connect__manager_8c.html#a7f4c528dceb6dc21cbeeb405365db27d" target="_top" xlink:title="get_checklist_by_id">
<polygon fill="none" stroke="black" points="1007.5,-640.5 1007.5,-659.5 1110.5,-659.5 1110.5,-640.5 1007.5,-640.5"/>
<text text-anchor="middle" x="1059" y="-647.5" font-family="Helvetica,sans-Serif" font-size="10.00">get_checklist_by_id</text>
</a>
</g>
</g>
<!-- Node19&#45;&gt;Node25 -->
<g id="edge30" class="edge"><title>Node19&#45;&gt;Node25</title>
<path fill="none" stroke="midnightblue" d="M912.038,-506.643C924.003,-528.785 956.132,-583.971 996,-618 1004.38,-625.151 1014.63,-631.26 1024.36,-636.164"/>
<polygon fill="midnightblue" stroke="midnightblue" points="1022.92,-639.356 1033.46,-640.492 1025.93,-633.035 1022.92,-639.356"/>
</g>
<!-- Node27 -->
<g id="node27" class="node"><title>Node27</title>
<g id="a_node27"><a xlink:href="../../d9/d32/connect__manager_8c.html#a0c6f96218c9be021da288127130acaea" target="_top" xlink:title="get_triggered_pair">
<polygon fill="none" stroke="black" points="1012,-468.5 1012,-487.5 1106,-487.5 1106,-468.5 1012,-468.5"/>
<text text-anchor="middle" x="1059" y="-475.5" font-family="Helvetica,sans-Serif" font-size="10.00">get_triggered_pair</text>
</a>
</g>
</g>
<!-- Node19&#45;&gt;Node27 -->
<g id="edge33" class="edge"><title>Node19&#45;&gt;Node27</title>
<path fill="none" stroke="midnightblue" d="M929.281,-494.196C948.316,-491.801 976.534,-488.251 1001.7,-485.084"/>
<polygon fill="midnightblue" stroke="midnightblue" points="1002.42,-488.522 1011.9,-483.801 1001.54,-481.577 1002.42,-488.522"/>
</g>
<!-- Node28 -->
<g id="node28" class="node"><title>Node28</title>
<g id="a_node28"><a xlink:href="../../d9/d32/connect__manager_8c.html#a7bcdfc183dd5ea52c1db9112000121eb" target="_top" xlink:title="match_waiting_pair">
<polygon fill="none" stroke="black" points="1008.5,-430.5 1008.5,-449.5 1109.5,-449.5 1109.5,-430.5 1008.5,-430.5"/>
<text text-anchor="middle" x="1059" y="-437.5" font-family="Helvetica,sans-Serif" font-size="10.00">match_waiting_pair</text>
</a>
</g>
</g>
<!-- Node19&#45;&gt;Node28 -->
<g id="edge34" class="edge"><title>Node19&#45;&gt;Node28</title>
<path fill="none" stroke="midnightblue" d="M927.61,-487.462C945.49,-479.366 972.173,-467.71 996,-459 1002.04,-456.793 1008.46,-454.626 1014.81,-452.59"/>
<polygon fill="midnightblue" stroke="midnightblue" points="1016.14,-455.84 1024.64,-449.512 1014.05,-449.159 1016.14,-455.84"/>
</g>
<!-- Node29 -->
<g id="node29" class="node"><title>Node29</title>
<g id="a_node29"><a xlink:href="../../d9/d32/connect__manager_8c.html#ab04c347706d661bcbd52ba901be05697" target="_top" xlink:title="schedule_checks">
<polygon fill="none" stroke="black" points="1013,-551.5 1013,-570.5 1105,-570.5 1105,-551.5 1013,-551.5"/>
<text text-anchor="middle" x="1059" y="-558.5" font-family="Helvetica,sans-Serif" font-size="10.00">schedule_checks</text>
</a>
</g>
</g>
<!-- Node19&#45;&gt;Node29 -->
<g id="edge35" class="edge"><title>Node19&#45;&gt;Node29</title>
<path fill="none" stroke="midnightblue" d="M929.294,-499.27C947.286,-505.274 973.255,-516.375 996,-526 1010.93,-532.317 1027.91,-539.432 1040.32,-546.056"/>
<polygon fill="midnightblue" stroke="midnightblue" points="1038.77,-549.204 1049.16,-551.24 1042.3,-543.165 1038.77,-549.204"/>
</g>
<!-- Node34 -->
<g id="node34" class="node"><title>Node34</title>
<g id="a_node34"><a xlink:href="../../d9/d32/connect__manager_8c.html#a84c6b0f36d7353c32bb874be21759a5f" target="_top" xlink:title="send_check">
<polygon fill="none" stroke="black" points="1024.5,-506.5 1024.5,-525.5 1093.5,-525.5 1093.5,-506.5 1024.5,-506.5"/>
<text text-anchor="middle" x="1059" y="-513.5" font-family="Helvetica,sans-Serif" font-size="10.00">send_check</text>
</a>
</g>
</g>
<!-- Node19&#45;&gt;Node34 -->
<g id="edge43" class="edge"><title>Node19&#45;&gt;Node34</title>
<path fill="none" stroke="midnightblue" d="M929.281,-499.804C951.54,-502.604 986.358,-506.985 1014.17,-510.485"/>
<polygon fill="midnightblue" stroke="midnightblue" points="1014.09,-514.002 1024.45,-511.778 1014.96,-507.057 1014.09,-514.002"/>
</g>
<!-- Node21&#45;&gt;Node13 -->
<g id="edge27" class="edge"><title>Node21&#45;&gt;Node13</title>
<path fill="none" stroke="midnightblue" d="M1427.02,-371C1478.2,-371 1566.6,-371 1610.18,-371"/>
<polygon fill="midnightblue" stroke="midnightblue" points="1610.24,-374.5 1620.24,-371 1610.24,-367.5 1610.24,-374.5"/>
</g>
<!-- Node22 -->
<g id="node22" class="node"><title>Node22</title>
<g id="a_node22"><a xlink:href="../../d4/d87/group__chunk.html#gaa86c84493369a4254d5801cdca20d458" target="_top" xlink:title="chunk_free">
<polygon fill="none" stroke="black" points="1499.5,-404.5 1499.5,-423.5 1564.5,-423.5 1564.5,-404.5 1499.5,-404.5"/>
<text text-anchor="middle" x="1532" y="-411.5" font-family="Helvetica,sans-Serif" font-size="10.00">chunk_free</text>
</a>
</g>
</g>
<!-- Node21&#45;&gt;Node22 -->
<g id="edge25" class="edge"><title>Node21&#45;&gt;Node22</title>
<path fill="none" stroke="midnightblue" d="M1419.74,-380.543C1440.29,-386.723 1467.26,-394.834 1489.51,-401.523"/>
<polygon fill="midnightblue" stroke="midnightblue" points="1488.77,-404.956 1499.35,-404.484 1490.78,-398.252 1488.77,-404.956"/>
</g>
<!-- Node22&#45;&gt;Node13 -->
<g id="edge26" class="edge"><title>Node22&#45;&gt;Node13</title>
<path fill="none" stroke="midnightblue" d="M1555.86,-404.457C1572.06,-397.695 1593.79,-388.62 1610.54,-381.627"/>
<polygon fill="midnightblue" stroke="midnightblue" points="1612.35,-384.664 1620.23,-377.582 1609.66,-378.205 1612.35,-384.664"/>
</g>
<!-- Node24 -->
<g id="node24" class="node"><title>Node24</title>
<g id="a_node24"><a xlink:href="../../da/d0c/endpoint__notify_8c.html#a55fdd0651a0e929c599c0ffd77626082" target="_top" xlink:title="endpoint_notify_create">
<polygon fill="none" stroke="black" points="1168.5,-380.5 1168.5,-399.5 1283.5,-399.5 1283.5,-380.5 1168.5,-380.5"/>
<text text-anchor="middle" x="1226" y="-387.5" font-family="Helvetica,sans-Serif" font-size="10.00">endpoint_notify_create</text>
</a>
</g>
</g>
<!-- Node23&#45;&gt;Node24 -->
<g id="edge29" class="edge"><title>Node23&#45;&gt;Node24</title>
<path fill="none" stroke="midnightblue" d="M1116.78,-393.935C1130.08,-393.452 1144.37,-392.932 1158.06,-392.434"/>
<polygon fill="midnightblue" stroke="midnightblue" points="1158.53,-395.92 1168.39,-392.058 1158.27,-388.924 1158.53,-395.92"/>
</g>
<!-- Node26 -->
<g id="node26" class="node"><title>Node26</title>
<g id="a_node26"><a xlink:href="../../d9/d32/connect__manager_8c.html#a48e6c7d1bc525dc1f2627c117ec8fcdf" target="_top" xlink:title="match_checklist_by_id">
<polygon fill="none" stroke="black" points="1168,-760.5 1168,-779.5 1284,-779.5 1284,-760.5 1168,-760.5"/>
<text text-anchor="middle" x="1226" y="-767.5" font-family="Helvetica,sans-Serif" font-size="10.00">match_checklist_by_id</text>
</a>
</g>
</g>
<!-- Node25&#45;&gt;Node26 -->
<g id="edge31" class="edge"><title>Node25&#45;&gt;Node26</title>
<path fill="none" stroke="midnightblue" d="M1073.22,-659.617C1101.58,-680.243 1168.49,-728.902 1203.22,-754.162"/>
<polygon fill="midnightblue" stroke="midnightblue" points="1201.57,-757.286 1211.71,-760.337 1205.68,-751.625 1201.57,-757.286"/>
</g>
<!-- Node26&#45;&gt;Node6 -->
<g id="edge32" class="edge"><title>Node26&#45;&gt;Node6</title>
<path fill="none" stroke="midnightblue" d="M1263.75,-779.597C1273.64,-782.404 1284.29,-785.631 1294,-789 1314.8,-796.218 1337.68,-805.664 1355.43,-813.332"/>
<polygon fill="midnightblue" stroke="midnightblue" points="1354.14,-816.59 1364.71,-817.383 1356.94,-810.175 1354.14,-816.59"/>
</g>
<!-- Node29&#45;&gt;Node19 -->
<g id="edge42" class="edge"><title>Node29&#45;&gt;Node19</title>
<path fill="none" stroke="midnightblue" d="M1013.95,-551.486C1007.92,-549.033 1001.8,-546.456 996,-544 971.587,-533.67 943.459,-521.638 925.469,-511.82"/>
<polygon fill="midnightblue" stroke="midnightblue" points="927.001,-508.661 916.606,-506.617 923.458,-514.698 927.001,-508.661"/>
</g>
<!-- Node30 -->
<g id="node30" class="node"><title>Node30</title>
<g id="a_node30"><a xlink:href="../../d9/d32/connect__manager_8c.html#a77eb11570d14635d5e6f46bc56b6efcf" target="_top" xlink:title="callback_data_create">
<polygon fill="none" stroke="black" points="1171.5,-608.5 1171.5,-627.5 1280.5,-627.5 1280.5,-608.5 1171.5,-608.5"/>
<text text-anchor="middle" x="1226" y="-615.5" font-family="Helvetica,sans-Serif" font-size="10.00">callback_data_create</text>
</a>
</g>
</g>
<!-- Node29&#45;&gt;Node30 -->
<g id="edge36" class="edge"><title>Node29&#45;&gt;Node30</title>
<path fill="none" stroke="midnightblue" d="M1092.65,-570.512C1102.16,-573.417 1112.53,-576.714 1122,-580 1138.22,-585.63 1141.92,-587.994 1158,-594 1167.81,-597.664 1178.47,-601.532 1188.34,-605.068"/>
<polygon fill="midnightblue" stroke="midnightblue" points="1187.29,-608.409 1197.88,-608.473 1189.64,-601.816 1187.29,-608.409"/>
</g>
<!-- Node31 -->
<g id="node31" class="node"><title>Node31</title>
<g id="a_node31"><a xlink:href="../../d9/d32/connect__manager_8c.html#a4674a63e69fa1940f68b6d6d4532d1dc" target="_top" xlink:title="callback_data_destroy">
<polygon fill="none" stroke="black" points="1330,-532.5 1330,-551.5 1444,-551.5 1444,-532.5 1330,-532.5"/>
<text text-anchor="middle" x="1387" y="-539.5" font-family="Helvetica,sans-Serif" font-size="10.00">callback_data_destroy</text>
</a>
</g>
</g>
<!-- Node29&#45;&gt;Node31 -->
<g id="edge37" class="edge"><title>Node29&#45;&gt;Node31</title>
<path fill="none" stroke="midnightblue" d="M1105.44,-563.726C1152.68,-565.924 1228.73,-567.669 1294,-561 1308.62,-559.506 1324.35,-556.709 1338.6,-553.712"/>
<polygon fill="midnightblue" stroke="midnightblue" points="1339.65,-557.065 1348.67,-551.509 1338.15,-550.226 1339.65,-557.065"/>
</g>
<!-- Node32 -->
<g id="node32" class="node"><title>Node32</title>
<g id="a_node32"><a xlink:href="../../d0/d8f/group__callback__job.html#ga6934f856d27d82413610263e27a5cfa1" target="_top" xlink:title="callback_job_create">
<polygon fill="none" stroke="black" points="1335.5,-605.5 1335.5,-624.5 1438.5,-624.5 1438.5,-605.5 1335.5,-605.5"/>
<text text-anchor="middle" x="1387" y="-612.5" font-family="Helvetica,sans-Serif" font-size="10.00">callback_job_create</text>
</a>
</g>
</g>
<!-- Node29&#45;&gt;Node32 -->
<g id="edge40" class="edge"><title>Node29&#45;&gt;Node32</title>
<path fill="none" stroke="midnightblue" d="M1104.9,-570.531C1111,-573.001 1116.9,-576.104 1122,-580 1145.81,-598.191 1131.76,-622.537 1158,-637 1221.27,-671.873 1309.56,-646.172 1355.5,-628.307"/>
<polygon fill="midnightblue" stroke="midnightblue" points="1356.93,-631.505 1364.9,-624.528 1354.32,-625.01 1356.93,-631.505"/>
</g>
<!-- Node31&#45;&gt;Node13 -->
<g id="edge39" class="edge"><title>Node31&#45;&gt;Node13</title>
<path fill="none" stroke="midnightblue" d="M1418.73,-532.413C1427.09,-529.435 1436.02,-525.899 1444,-522 1510.24,-489.622 1528.55,-481.594 1584,-433 1599.11,-419.76 1613.56,-401.966 1623.38,-388.837"/>
<polygon fill="midnightblue" stroke="midnightblue" points="1626.32,-390.747 1629.39,-380.606 1620.67,-386.62 1626.32,-390.747"/>
</g>
<!-- Node31&#45;&gt;Node22 -->
<g id="edge38" class="edge"><title>Node31&#45;&gt;Node22</title>
<path fill="none" stroke="midnightblue" d="M1424.11,-532.414C1431.06,-529.675 1438.03,-526.246 1444,-522 1453.2,-515.459 1495.64,-460.511 1517.66,-431.612"/>
<polygon fill="midnightblue" stroke="midnightblue" points="1520.51,-433.641 1523.77,-423.562 1514.94,-429.405 1520.51,-433.641"/>
</g>
<!-- Node33 -->
<g id="node33" class="node"><title>Node33</title>
<g id="a_node33"><a xlink:href="../../d0/d8f/group__callback__job.html#gadfa6801d50c2e34bb3f9e1c98efe02d0" target="_top" xlink:title="callback_job_create\l_with_prio">
<polygon fill="none" stroke="red" points="1480.5,-600 1480.5,-630 1583.5,-630 1583.5,-600 1480.5,-600"/>
<text text-anchor="start" x="1488.5" y="-618" font-family="Helvetica,sans-Serif" font-size="10.00">callback_job_create</text>
<text text-anchor="middle" x="1532" y="-607" font-family="Helvetica,sans-Serif" font-size="10.00">_with_prio</text>
</a>
</g>
</g>
<!-- Node32&#45;&gt;Node33 -->
<g id="edge41" class="edge"><title>Node32&#45;&gt;Node33</title>
<path fill="none" stroke="midnightblue" d="M1438.82,-615C1448.93,-615 1459.65,-615 1470.07,-615"/>
<polygon fill="midnightblue" stroke="midnightblue" points="1470.34,-618.5 1480.34,-615 1470.34,-611.5 1470.34,-618.5"/>
</g>
<!-- Node35 -->
<g id="node35" class="node"><title>Node35</title>
<g id="a_node35"><a xlink:href="../../d9/d32/connect__manager_8c.html#aedcaf4b4ca6bc58701b4c01f1e6c3b54" target="_top" xlink:title="build_signature">
<polygon fill="none" stroke="black" points="1346,-409.5 1346,-428.5 1428,-428.5 1428,-409.5 1346,-409.5"/>
<text text-anchor="middle" x="1387" y="-416.5" font-family="Helvetica,sans-Serif" font-size="10.00">build_signature</text>
</a>
</g>
</g>
<!-- Node34&#45;&gt;Node35 -->
<g id="edge44" class="edge"><title>Node34&#45;&gt;Node35</title>
<path fill="none" stroke="midnightblue" d="M1093.69,-509.936C1103.43,-507.096 1113.67,-502.97 1122,-497 1144.25,-481.043 1134.44,-460.949 1158,-447 1212.47,-414.758 1287.03,-411.732 1335.84,-414.088"/>
<polygon fill="midnightblue" stroke="midnightblue" points="1335.66,-417.584 1345.85,-414.664 1336.07,-410.595 1335.66,-417.584"/>
</g>
<!-- Node36 -->
<g id="node36" class="node"><title>Node36</title>
<g id="a_node36"><a xlink:href="../../d1/d7f/group__ike__sa__id.html#gaa080d65d35119ab2dd69b73309c14566" target="_top" xlink:title="ike_sa_id_create">
<polygon fill="none" stroke="black" points="1181,-456.5 1181,-475.5 1271,-475.5 1271,-456.5 1181,-456.5"/>
<text text-anchor="middle" x="1226" y="-463.5" font-family="Helvetica,sans-Serif" font-size="10.00">ike_sa_id_create</text>
</a>
</g>
</g>
<!-- Node34&#45;&gt;Node36 -->
<g id="edge46" class="edge"><title>Node34&#45;&gt;Node36</title>
<path fill="none" stroke="midnightblue" d="M1091.59,-506.483C1101.35,-503.497 1112.13,-500.155 1122,-497 1138.06,-491.862 1141.88,-489.969 1158,-485 1165.23,-482.771 1172.93,-480.496 1180.44,-478.332"/>
<polygon fill="midnightblue" stroke="midnightblue" points="1181.48,-481.673 1190.14,-475.562 1179.56,-474.942 1181.48,-481.673"/>
</g>
<!-- Node37 -->
<g id="node37" class="node"><title>Node37</title>
<g id="a_node37"><a xlink:href="../../de/d9a/group__message.html#gac4bba880d7840360ecb8e4137526420b" target="_top" xlink:title="message_create">
<polygon fill="none" stroke="red" points="1181.5,-494.5 1181.5,-513.5 1270.5,-513.5 1270.5,-494.5 1181.5,-494.5"/>
<text text-anchor="middle" x="1226" y="-501.5" font-family="Helvetica,sans-Serif" font-size="10.00">message_create</text>
</a>
</g>
</g>
<!-- Node34&#45;&gt;Node37 -->
<g id="edge47" class="edge"><title>Node34&#45;&gt;Node37</title>
<path fill="none" stroke="midnightblue" d="M1093.79,-513.543C1116,-511.928 1145.54,-509.779 1170.97,-507.929"/>
<polygon fill="midnightblue" stroke="midnightblue" points="1171.5,-511.4 1181.22,-507.184 1170.99,-504.419 1171.5,-511.4"/>
</g>
<!-- Node39 -->
<g id="node39" class="node"><title>Node39</title>
<g id="a_node39"><a xlink:href="../../d9/d32/connect__manager_8c.html#a78416603d2ebd2bb0dcf49e3ccd4ae9c" target="_top" xlink:title="queue_retransmission">
<polygon fill="none" stroke="red" points="1170,-532.5 1170,-551.5 1282,-551.5 1282,-532.5 1170,-532.5"/>
<text text-anchor="middle" x="1226" y="-539.5" font-family="Helvetica,sans-Serif" font-size="10.00">queue_retransmission</text>
</a>
</g>
</g>
<!-- Node34&#45;&gt;Node39 -->
<g id="edge49" class="edge"><title>Node34&#45;&gt;Node39</title>
<path fill="none" stroke="midnightblue" d="M1093.79,-521.324C1112.84,-524.327 1137.3,-528.18 1159.92,-531.745"/>
<polygon fill="midnightblue" stroke="midnightblue" points="1159.4,-535.206 1169.82,-533.305 1160.49,-528.291 1159.4,-535.206"/>
</g>
<!-- Node35&#45;&gt;Node22 -->
<g id="edge45" class="edge"><title>Node35&#45;&gt;Node22</title>
<path fill="none" stroke="midnightblue" d="M1428.21,-417.594C1447.17,-416.931 1469.79,-416.14 1488.97,-415.47"/>
<polygon fill="midnightblue" stroke="midnightblue" points="1489.36,-418.958 1499.23,-415.111 1489.11,-411.962 1489.36,-418.958"/>
</g>
<!-- Node38 -->
<g id="node38" class="node"><title>Node38</title>
<g id="a_node38"><a xlink:href="../../de/d9a/group__message.html#ga2c4a060592f02346b2dbf3d1df2e6e3c" target="_top" xlink:title="message_create_from\l_packet">
<polygon fill="none" stroke="red" points="1330.5,-483 1330.5,-513 1443.5,-513 1443.5,-483 1330.5,-483"/>
<text text-anchor="start" x="1338.5" y="-501" font-family="Helvetica,sans-Serif" font-size="10.00">message_create_from</text>
<text text-anchor="middle" x="1387" y="-490" font-family="Helvetica,sans-Serif" font-size="10.00">_packet</text>
</a>
</g>
</g>
<!-- Node37&#45;&gt;Node38 -->
<g id="edge48" class="edge"><title>Node37&#45;&gt;Node38</title>
<path fill="none" stroke="midnightblue" d="M1270.87,-502.345C1286.09,-501.77 1303.51,-501.113 1320.12,-500.486"/>
<polygon fill="midnightblue" stroke="midnightblue" points="1320.47,-503.976 1330.33,-500.101 1320.2,-496.981 1320.47,-503.976"/>
</g>
<!-- Node39&#45;&gt;Node31 -->
<g id="edge50" class="edge"><title>Node39&#45;&gt;Node31</title>
<path fill="none" stroke="midnightblue" d="M1282.16,-542C1294.22,-542 1307.1,-542 1319.54,-542"/>
<polygon fill="midnightblue" stroke="midnightblue" points="1319.86,-545.5 1329.86,-542 1319.86,-538.5 1319.86,-545.5"/>
</g>
<!-- Node39&#45;&gt;Node32 -->
<g id="edge51" class="edge"><title>Node39&#45;&gt;Node32</title>
<path fill="none" stroke="midnightblue" d="M1247.79,-551.543C1275.4,-564.222 1324.37,-586.706 1355.99,-601.224"/>
<polygon fill="midnightblue" stroke="midnightblue" points="1354.66,-604.462 1365.21,-605.454 1357.58,-598.101 1354.66,-604.462"/>
</g>
<!-- Node40&#45;&gt;Node13 -->
<g id="edge53" class="edge"><title>Node40&#45;&gt;Node13</title>
<path fill="none" stroke="midnightblue" d="M536.696,-275.012C581.766,-272.327 709.676,-264.586 816,-257 923.613,-249.322 950.113,-238 1058,-238 1058,-238 1058,-238 1388,-238 1476.91,-238 1512.22,-225.539 1584,-278 1608.91,-296.208 1623.44,-330.176 1630.54,-351.633"/>
<polygon fill="midnightblue" stroke="midnightblue" points="1627.22,-352.773 1633.51,-361.301 1633.91,-350.714 1627.22,-352.773"/>
</g>
<!-- Node41 -->
<g id="node41" class="node"><title>Node41</title>
<g id="a_node41"><a xlink:href="../../d2/da7/pkcs7_8c.html#afbf13bcce5f6688b05f857c090cf7344" target="_top" xlink:title="write_to_stream">
<polygon fill="none" stroke="black" points="616,-228.5 616,-247.5 702,-247.5 702,-228.5 616,-228.5"/>
<text text-anchor="middle" x="659" y="-235.5" font-family="Helvetica,sans-Serif" font-size="10.00">write_to_stream</text>
</a>
</g>
</g>
<!-- Node40&#45;&gt;Node41 -->
<g id="edge54" class="edge"><title>Node40&#45;&gt;Node41</title>
<path fill="none" stroke="midnightblue" d="M536.646,-271.416C555.589,-266.2 587.302,-257.467 613.559,-250.237"/>
<polygon fill="midnightblue" stroke="midnightblue" points="614.605,-253.58 623.317,-247.55 612.747,-246.831 614.605,-253.58"/>
</g>
<!-- Node42 -->
<g id="node42" class="node"><title>Node42</title>
<g id="a_node42"><a xlink:href="../../df/d1e/group__pki.html#ga63674711f2657b283b42d2c0bd0b78f3" target="_top" xlink:title="set_file_mode">
<polygon fill="none" stroke="black" points="738.5,-228.5 738.5,-247.5 815.5,-247.5 815.5,-228.5 738.5,-228.5"/>
<text text-anchor="middle" x="777" y="-235.5" font-family="Helvetica,sans-Serif" font-size="10.00">set_file_mode</text>
</a>
</g>
</g>
<!-- Node41&#45;&gt;Node42 -->
<g id="edge55" class="edge"><title>Node41&#45;&gt;Node42</title>
<path fill="none" stroke="midnightblue" d="M702.207,-238C710.589,-238 719.447,-238 728.005,-238"/>
<polygon fill="midnightblue" stroke="midnightblue" points="728.244,-241.5 738.244,-238 728.244,-234.5 728.244,-241.5"/>
</g>
<!-- Node44 -->
<g id="node44" class="node"><title>Node44</title>
<g id="a_node44"><a xlink:href="../../df/d6a/bliss__private__key_8c.html#aad8e41002d185ba9145447d6682becfb" target="_top" xlink:title="compare">
<polygon fill="none" stroke="black" points="492,-38.5 492,-57.5 546,-57.5 546,-38.5 492,-38.5"/>
<text text-anchor="middle" x="519" y="-45.5" font-family="Helvetica,sans-Serif" font-size="10.00">compare</text>
</a>
</g>
</g>
<!-- Node43&#45;&gt;Node44 -->
<g id="edge58" class="edge"><title>Node43&#45;&gt;Node44</title>
<path fill="none" stroke="midnightblue" d="M387.794,-79.1185C414.175,-72.8134 453.343,-63.4527 481.827,-56.6452"/>
<polygon fill="midnightblue" stroke="midnightblue" points="482.881,-59.9918 491.794,-54.2631 481.254,-53.1835 482.881,-59.9918"/>
</g>
<!-- Node45 -->
<g id="node45" class="node"><title>Node45</title>
<g id="a_node45"><a xlink:href="../../df/d6a/bliss__private__key_8c.html#af38c7715a9a5fd4e3160a3e8a4273aeb" target="_top" xlink:title="wrap">
<polygon fill="none" stroke="black" points="500,-76.5 500,-95.5 538,-95.5 538,-76.5 500,-76.5"/>
<text text-anchor="middle" x="519" y="-83.5" font-family="Helvetica,sans-Serif" font-size="10.00">wrap</text>
</a>
</g>
</g>
<!-- Node43&#45;&gt;Node45 -->
<g id="edge59" class="edge"><title>Node43&#45;&gt;Node45</title>
<path fill="none" stroke="midnightblue" d="M387.794,-86C416.678,-86 460.89,-86 489.625,-86"/>
<polygon fill="midnightblue" stroke="midnightblue" points="489.816,-89.5001 499.816,-86 489.816,-82.5001 489.816,-89.5001"/>
</g>
<!-- Node43&#45;&gt;Node46 -->
<g id="edge60" class="edge"><title>Node43&#45;&gt;Node46</title>
<path fill="none" stroke="midnightblue" d="M387.794,-92.8815C410.171,-98.2296 441.748,-105.776 468.201,-112.098"/>
<polygon fill="midnightblue" stroke="midnightblue" points="467.519,-115.534 478.059,-114.454 469.146,-108.726 467.519,-115.534"/>
</g>
<!-- Node49 -->
<g id="node49" class="node"><title>Node49</title>
<g id="a_node49"><a xlink:href="../../dd/d74/group__memory__i.html#ga4d6f7708d6b8ea1ec0fbe97b3885ce1e" target="_top" xlink:title="memwipe_inline">
<polygon fill="none" stroke="black" points="476,-0.5 476,-19.5 562,-19.5 562,-0.5 476,-0.5"/>
<text text-anchor="middle" x="519" y="-7.5" font-family="Helvetica,sans-Serif" font-size="10.00">memwipe_inline</text>
</a>
</g>
</g>
<!-- Node48&#45;&gt;Node49 -->
<g id="edge67" class="edge"><title>Node48&#45;&gt;Node49</title>
<path fill="none" stroke="midnightblue" d="M233.548,-46.4862C275.148,-44.0573 354.794,-38.5642 422,-29 436.212,-26.9775 451.5,-24.2203 465.606,-21.4337"/>
<polygon fill="midnightblue" stroke="midnightblue" points="466.526,-24.8187 475.636,-19.4096 465.141,-17.9571 466.526,-24.8187"/>
</g>
<!-- Node50 -->
<g id="node50" class="node"><title>Node50</title>
<g id="a_node50"><a xlink:href="../../dd/d74/group__memory__i.html#gabf6fa8b701d6f2052a551333b3694063" target="_top" xlink:title="memwipe_noinline">
<polygon fill="none" stroke="black" points="309.5,-0.5 309.5,-19.5 406.5,-19.5 406.5,-0.5 309.5,-0.5"/>
<text text-anchor="middle" x="358" y="-7.5" font-family="Helvetica,sans-Serif" font-size="10.00">memwipe_noinline</text>
</a>
</g>
</g>
<!-- Node48&#45;&gt;Node50 -->
<g id="edge68" class="edge"><title>Node48&#45;&gt;Node50</title>
<path fill="none" stroke="midnightblue" d="M233.59,-40.8525C254.753,-35.5616 284.083,-28.2292 308.84,-22.04"/>
<polygon fill="midnightblue" stroke="midnightblue" points="309.926,-25.3762 318.779,-19.5553 308.229,-18.5852 309.926,-25.3762"/>
</g>
<!-- Node50&#45;&gt;Node49 -->
<g id="edge69" class="edge"><title>Node50&#45;&gt;Node49</title>
<path fill="none" stroke="midnightblue" d="M406.705,-10C425.392,-10 446.885,-10 465.969,-10"/>
<polygon fill="midnightblue" stroke="midnightblue" points="465.996,-13.5001 475.995,-10 465.995,-6.5001 465.996,-13.5001"/>
</g>
</g>
</svg>
