<?xml version="1.0" encoding="UTF-8" standalone="no"?>
<!DOCTYPE svg PUBLIC "-//W3C//DTD SVG 1.1//EN"
 "http://www.w3.org/Graphics/SVG/1.1/DTD/svg11.dtd">
<!-- Generated by graphviz version 2.36.0 (20140111.2315)
 -->
<!-- Title: private_child_cfg_t Pages: 1 -->
<svg width="210pt" height="196pt"
 viewBox="0.00 0.00 210.00 196.00" xmlns="http://www.w3.org/2000/svg" xmlns:xlink="http://www.w3.org/1999/xlink">
<g id="graph0" class="graph" transform="scale(1 1) rotate(0) translate(4 192)">
<title>private_child_cfg_t</title>
<!-- Node1 -->
<g id="node1" class="node"><title>Node1</title>
<polygon fill="#bfbfbf" stroke="black" points="6,-0.5 6,-19.5 104,-19.5 104,-0.5 6,-0.5"/>
<text text-anchor="middle" x="55" y="-7.5" font-family="Helvetica,sans-Serif" font-size="10.00">private_child_cfg_t</text>
</g>
<!-- Node2 -->
<g id="node2" class="node"><title>Node2</title>
<polygon fill="none" stroke="#bfbfbf" points="-0.5,-100.5 -0.5,-119.5 40.5,-119.5 40.5,-100.5 -0.5,-100.5"/>
<text text-anchor="middle" x="20" y="-107.5" font-family="Helvetica,sans-Serif" font-size="10.00">struct</text>
</g>
<!-- Node2&#45;&gt;Node1 -->
<g id="edge1" class="edge"><title>Node2&#45;&gt;Node1</title>
<path fill="none" stroke="#9a32cd" stroke-dasharray="5,2" d="M17.2077,-90.097C15.8864,-75.184 16.0404,-54.2584 24,-38 27.6403,-30.5643 34.3466,-24.3234 40.5928,-19.7214"/>
<polygon fill="#9a32cd" stroke="#9a32cd" points="13.7469,-90.6343 18.4009,-100.152 20.6981,-89.8094 13.7469,-90.6343"/>
<text text-anchor="middle" x="46" y="-74" font-family="Helvetica,sans-Serif" font-size="10.00"> mark_out</text>
<text text-anchor="middle" x="46" y="-63" font-family="Helvetica,sans-Serif" font-size="10.00">lifetime</text>
<text text-anchor="middle" x="46" y="-52" font-family="Helvetica,sans-Serif" font-size="10.00">public</text>
<text text-anchor="middle" x="46" y="-41" font-family="Helvetica,sans-Serif" font-size="10.00">mark_in</text>
</g>
<!-- Node3 -->
<g id="node3" class="node"><title>Node3</title>
<g id="a_node3"><a xlink:href="../../dc/de6/structlinked__list__t.html" target="_top" xlink:title="linked_list_t">
<polygon fill="none" stroke="black" points="59,-100.5 59,-119.5 127,-119.5 127,-100.5 59,-100.5"/>
<text text-anchor="middle" x="93" y="-107.5" font-family="Helvetica,sans-Serif" font-size="10.00">linked_list_t</text>
</a>
</g>
</g>
<!-- Node3&#45;&gt;Node1 -->
<g id="edge2" class="edge"><title>Node3&#45;&gt;Node1</title>
<path fill="none" stroke="#9a32cd" stroke-dasharray="5,2" d="M87.0778,-90.41C82.3261,-75.9622 75.2695,-55.5034 68,-38 65.4458,-31.85 62.1958,-25.1 59.5844,-19.8875"/>
<polygon fill="#9a32cd" stroke="#9a32cd" points="83.8174,-91.7025 90.2276,-100.138 90.477,-89.5462 83.8174,-91.7025"/>
<text text-anchor="middle" x="108" y="-68.5" font-family="Helvetica,sans-Serif" font-size="10.00"> proposals</text>
<text text-anchor="middle" x="108" y="-57.5" font-family="Helvetica,sans-Serif" font-size="10.00">other_ts</text>
<text text-anchor="middle" x="108" y="-46.5" font-family="Helvetica,sans-Serif" font-size="10.00">my_ts</text>
</g>
<!-- Node3&#45;&gt;Node3 -->
<g id="edge3" class="edge"><title>Node3&#45;&gt;Node3</title>
<path fill="none" stroke="#9a32cd" stroke-dasharray="5,2" d="M137.148,-115.333C141.925,-114.309 145,-112.532 145,-110 145,-105.949 137.127,-103.829 127.008,-103.639"/>
<polygon fill="#9a32cd" stroke="#9a32cd" points="136.604,-111.87 127.008,-116.361 137.311,-118.834 136.604,-111.87"/>
<text text-anchor="middle" x="173.5" y="-107.5" font-family="Helvetica,sans-Serif" font-size="10.00"> clone_offset</text>
</g>
<!-- Node4 -->
<g id="node4" class="node"><title>Node4</title>
<g id="a_node4"><a xlink:href="../../db/dd3/structenumerator__t.html" target="_top" xlink:title="enumerator_t">
<polygon fill="none" stroke="black" points="56,-168.5 56,-187.5 130,-187.5 130,-168.5 56,-168.5"/>
<text text-anchor="middle" x="93" y="-175.5" font-family="Helvetica,sans-Serif" font-size="10.00">enumerator_t</text>
</a>
</g>
</g>
<!-- Node4&#45;&gt;Node3 -->
<g id="edge4" class="edge"><title>Node4&#45;&gt;Node3</title>
<path fill="none" stroke="#9a32cd" stroke-dasharray="5,2" d="M93,-158.041C93,-145.472 93,-129.563 93,-119.841"/>
<polygon fill="#9a32cd" stroke="#9a32cd" points="89.5001,-158.372 93,-168.372 96.5001,-158.372 89.5001,-158.372"/>
<text text-anchor="middle" x="135.5" y="-141.5" font-family="Helvetica,sans-Serif" font-size="10.00"> create_enumerator</text>
</g>
</g>
</svg>
