<?xml version="1.0" encoding="UTF-8" standalone="no"?>
<!DOCTYPE svg PUBLIC "-//W3C//DTD SVG 1.1//EN"
 "http://www.w3.org/Graphics/SVG/1.1/DTD/svg11.dtd">
<!-- Generated by graphviz version 2.36.0 (20140111.2315)
 -->
<!-- Title: parse_digest_info Pages: 1 -->
<svg width="426pt" height="104pt"
 viewBox="0.00 0.00 426.00 104.00" xmlns="http://www.w3.org/2000/svg" xmlns:xlink="http://www.w3.org/1999/xlink">
<g id="graph0" class="graph" transform="scale(1 1) rotate(0) translate(4 100)">
<title>parse_digest_info</title>
<!-- Node1 -->
<g id="node1" class="node"><title>Node1</title>
<polygon fill="#bfbfbf" stroke="black" points="0.5,-38.5 0.5,-57.5 93.5,-57.5 93.5,-38.5 0.5,-38.5"/>
<text text-anchor="middle" x="47" y="-45.5" font-family="Helvetica,sans-Serif" font-size="10.00">parse_digest_info</text>
</g>
<!-- Node2 -->
<g id="node2" class="node"><title>Node2</title>
<g id="a_node2"><a xlink:href="../../d0/da0/group__asn1i.html#gaf1c57c55e55ab24f59c66c8458d53cbb" target="_top" xlink:title="asn1_parse_algorithmIdentifier">
<polygon fill="none" stroke="black" points="130.5,-38.5 130.5,-57.5 279.5,-57.5 279.5,-38.5 130.5,-38.5"/>
<text text-anchor="middle" x="205" y="-45.5" font-family="Helvetica,sans-Serif" font-size="10.00">asn1_parse_algorithmIdentifier</text>
</a>
</g>
</g>
<!-- Node1&#45;&gt;Node2 -->
<g id="edge1" class="edge"><title>Node1&#45;&gt;Node2</title>
<path fill="none" stroke="midnightblue" d="M93.541,-48C101.905,-48 110.875,-48 119.954,-48"/>
<polygon fill="midnightblue" stroke="midnightblue" points="120.226,-51.5001 130.226,-48 120.226,-44.5001 120.226,-51.5001"/>
</g>
<!-- Node3 -->
<g id="node3" class="node"><title>Node3</title>
<g id="a_node3"><a xlink:href="../../d7/d02/group__asn1__parser.html#ga47a3b18337597a4a9623d7b5af35ddcf" target="_top" xlink:title="asn1_parser_create">
<polygon fill="none" stroke="black" points="316,-76.5 316,-95.5 418,-95.5 418,-76.5 316,-76.5"/>
<text text-anchor="middle" x="367" y="-83.5" font-family="Helvetica,sans-Serif" font-size="10.00">asn1_parser_create</text>
</a>
</g>
</g>
<!-- Node1&#45;&gt;Node3 -->
<g id="edge4" class="edge"><title>Node1&#45;&gt;Node3</title>
<path fill="none" stroke="midnightblue" d="M84.1062,-57.5762C98.3185,-61.0269 114.838,-64.6462 130,-67 189.222,-76.1937 257.538,-81.0782 305.379,-83.5798"/>
<polygon fill="midnightblue" stroke="midnightblue" points="305.404,-87.0854 315.568,-84.0927 305.756,-80.0943 305.404,-87.0854"/>
</g>
<!-- Node5 -->
<g id="node5" class="node"><title>Node5</title>
<g id="a_node5"><a xlink:href="../../dd/d1c/group__hasher.html#ga280fc20b8c449b5cf4bab24b5b017d60" target="_top" xlink:title="hasher_algorithm_from_oid">
<polygon fill="none" stroke="black" points="138,-0.5 138,-19.5 272,-19.5 272,-0.5 138,-0.5"/>
<text text-anchor="middle" x="205" y="-7.5" font-family="Helvetica,sans-Serif" font-size="10.00">hasher_algorithm_from_oid</text>
</a>
</g>
</g>
<!-- Node1&#45;&gt;Node5 -->
<g id="edge5" class="edge"><title>Node1&#45;&gt;Node5</title>
<path fill="none" stroke="midnightblue" d="M87.3654,-38.411C107.951,-33.3965 133.34,-27.2119 155.169,-21.8947"/>
<polygon fill="midnightblue" stroke="midnightblue" points="156.03,-25.2874 164.918,-19.5201 154.373,-18.4863 156.03,-25.2874"/>
</g>
<!-- Node2&#45;&gt;Node3 -->
<g id="edge2" class="edge"><title>Node2&#45;&gt;Node3</title>
<path fill="none" stroke="midnightblue" d="M246.375,-57.589C267.488,-62.6035 293.529,-68.7881 315.917,-74.1053"/>
<polygon fill="midnightblue" stroke="midnightblue" points="315.377,-77.5744 325.916,-76.4799 316.995,-70.7639 315.377,-77.5744"/>
</g>
<!-- Node4 -->
<g id="node4" class="node"><title>Node4</title>
<g id="a_node4"><a xlink:href="../../d0/da0/group__asn1i.html#ga43e5d526ea5a7032db7f3aa7c011ec10" target="_top" xlink:title="asn1_known_oid">
<polygon fill="none" stroke="black" points="322.5,-38.5 322.5,-57.5 411.5,-57.5 411.5,-38.5 322.5,-38.5"/>
<text text-anchor="middle" x="367" y="-45.5" font-family="Helvetica,sans-Serif" font-size="10.00">asn1_known_oid</text>
</a>
</g>
</g>
<!-- Node2&#45;&gt;Node4 -->
<g id="edge3" class="edge"><title>Node2&#45;&gt;Node4</title>
<path fill="none" stroke="midnightblue" d="M279.911,-48C290.843,-48 301.926,-48 312.339,-48"/>
<polygon fill="midnightblue" stroke="midnightblue" points="312.499,-51.5001 322.499,-48 312.499,-44.5001 312.499,-51.5001"/>
</g>
</g>
</svg>
