<?xml version="1.0" encoding="UTF-8" standalone="no"?>
<!DOCTYPE svg PUBLIC "-//W3C//DTD SVG 1.1//EN"
 "http://www.w3.org/Graphics/SVG/1.1/DTD/svg11.dtd">
<!-- Generated by graphviz version 2.36.0 (20140111.2315)
 -->
<!-- Title: pkcs12_create Pages: 1 -->
<svg width="1602pt" height="790pt"
 viewBox="0.00 0.00 1602.00 790.00" xmlns="http://www.w3.org/2000/svg" xmlns:xlink="http://www.w3.org/1999/xlink">
<g id="graph0" class="graph" transform="scale(1 1) rotate(0) translate(4 786)">
<title>pkcs12_create</title>
<!-- Node1 -->
<g id="node1" class="node"><title>Node1</title>
<polygon fill="#bfbfbf" stroke="black" points="0,-171.5 0,-190.5 80,-190.5 80,-171.5 0,-171.5"/>
<text text-anchor="middle" x="40" y="-178.5" font-family="Helvetica,sans-Serif" font-size="10.00">pkcs12_create</text>
</g>
<!-- Node2 -->
<g id="node2" class="node"><title>Node2</title>
<g id="a_node2"><a xlink:href="../../dc/d21/daemon_8c.html#a1e824dfeaa337e709772cb0c8e6c8dcc" target="_top" xlink:title="destroy">
<polygon fill="none" stroke="black" points="305.5,-171.5 305.5,-190.5 354.5,-190.5 354.5,-171.5 305.5,-171.5"/>
<text text-anchor="middle" x="330" y="-178.5" font-family="Helvetica,sans-Serif" font-size="10.00">destroy</text>
</a>
</g>
</g>
<!-- Node1&#45;&gt;Node2 -->
<g id="edge1" class="edge"><title>Node1&#45;&gt;Node2</title>
<path fill="none" stroke="midnightblue" d="M80.1407,-181C137.094,-181 241.844,-181 295.459,-181"/>
<polygon fill="midnightblue" stroke="midnightblue" points="295.47,-184.5 305.47,-181 295.47,-177.5 295.47,-184.5"/>
</g>
<!-- Node38 -->
<g id="node38" class="node"><title>Node38</title>
<g id="a_node38"><a xlink:href="../../d3/de6/group__enumerator.html#ga5aeed59a8467a5e682b661872bfefeb3" target="_top" xlink:title="enumerator_create_empty">
<polygon fill="none" stroke="black" points="116,-76.5 116,-95.5 246,-95.5 246,-76.5 116,-76.5"/>
<text text-anchor="middle" x="181" y="-83.5" font-family="Helvetica,sans-Serif" font-size="10.00">enumerator_create_empty</text>
</a>
</g>
</g>
<!-- Node1&#45;&gt;Node38 -->
<g id="edge51" class="edge"><title>Node1&#45;&gt;Node38</title>
<path fill="none" stroke="midnightblue" d="M55.093,-171.368C79.2368,-154.867 128.696,-121.064 157.608,-101.304"/>
<polygon fill="midnightblue" stroke="midnightblue" points="159.589,-104.19 165.87,-95.6574 155.639,-98.4104 159.589,-104.19"/>
</g>
<!-- Node42 -->
<g id="node42" class="node"><title>Node42</title>
<g id="a_node42"><a xlink:href="../../d8/d02/group__mem__cred.html#gaa52fd614922d5b94956113247f386f21" target="_top" xlink:title="mem_cred_create">
<polygon fill="none" stroke="black" points="133.5,-629.5 133.5,-648.5 228.5,-648.5 228.5,-629.5 133.5,-629.5"/>
<text text-anchor="middle" x="181" y="-636.5" font-family="Helvetica,sans-Serif" font-size="10.00">mem_cred_create</text>
</a>
</g>
</g>
<!-- Node1&#45;&gt;Node42 -->
<g id="edge57" class="edge"><title>Node1&#45;&gt;Node42</title>
<path fill="none" stroke="midnightblue" d="M43.9032,-190.566C61.1448,-247.376 150.142,-540.62 174.071,-619.463"/>
<polygon fill="midnightblue" stroke="midnightblue" points="170.859,-620.934 177.113,-629.487 177.558,-618.901 170.859,-620.934"/>
</g>
<!-- Node3 -->
<g id="node3" class="node"><title>Node3</title>
<g id="a_node3"><a xlink:href="../../da/dfc/settings__parser_8c.html#af07d89f5ceaea0c7c8252cc41fd75f37" target="_top" xlink:title="free">
<polygon fill="none" stroke="black" points="1560.5,-240.5 1560.5,-259.5 1593.5,-259.5 1593.5,-240.5 1560.5,-240.5"/>
<text text-anchor="middle" x="1577" y="-247.5" font-family="Helvetica,sans-Serif" font-size="10.00">free</text>
</a>
</g>
</g>
<!-- Node2&#45;&gt;Node3 -->
<g id="edge2" class="edge"><title>Node2&#45;&gt;Node3</title>
<path fill="none" stroke="midnightblue" d="M354.591,-178.278C402.226,-173.024 513.341,-162 607,-162 607,-162 607,-162 1359,-162 1435.08,-162 1515.89,-209.026 1553.86,-234.324"/>
<polygon fill="midnightblue" stroke="midnightblue" points="1552.32,-237.513 1562.56,-240.246 1556.26,-231.726 1552.32,-237.513"/>
</g>
<!-- Node4 -->
<g id="node4" class="node"><title>Node4</title>
<g id="a_node4"><a xlink:href="../../dc/d21/daemon_8c.html#a1b7023117168a75858bd535a56e709e2" target="_top" xlink:title="logger_entry_destroy">
<polygon fill="none" stroke="black" points="1304.5,-114.5 1304.5,-133.5 1411.5,-133.5 1411.5,-114.5 1304.5,-114.5"/>
<text text-anchor="middle" x="1358" y="-121.5" font-family="Helvetica,sans-Serif" font-size="10.00">logger_entry_destroy</text>
</a>
</g>
</g>
<!-- Node2&#45;&gt;Node4 -->
<g id="edge3" class="edge"><title>Node2&#45;&gt;Node4</title>
<path fill="none" stroke="midnightblue" d="M350.983,-171.38C367.502,-163.84 391.769,-153.702 414,-148 497.728,-126.525 520.562,-124 607,-124 607,-124 607,-124 1062,-124 1142.13,-124 1234.49,-124 1294.22,-124"/>
<polygon fill="midnightblue" stroke="midnightblue" points="1294.24,-127.5 1304.24,-124 1294.24,-120.5 1294.24,-127.5"/>
</g>
<!-- Node5 -->
<g id="node5" class="node"><title>Node5</title>
<g id="a_node5"><a xlink:href="../../d9/d32/connect__manager_8c.html#a3b4dd773d88779165dc7243cb4e4fbee" target="_top" xlink:title="sender">
<polygon fill="none" stroke="black" points="441,-370.5 441,-389.5 487,-389.5 487,-370.5 441,-370.5"/>
<text text-anchor="middle" x="464" y="-377.5" font-family="Helvetica,sans-Serif" font-size="10.00">sender</text>
</a>
</g>
</g>
<!-- Node2&#45;&gt;Node5 -->
<g id="edge5" class="edge"><title>Node2&#45;&gt;Node5</title>
<path fill="none" stroke="midnightblue" d="M337.367,-190.598C358.102,-221.858 423.92,-321.083 451.091,-362.046"/>
<polygon fill="midnightblue" stroke="midnightblue" points="448.253,-364.099 456.697,-370.498 454.086,-360.23 448.253,-364.099"/>
</g>
<!-- Node4&#45;&gt;Node3 -->
<g id="edge4" class="edge"><title>Node4&#45;&gt;Node3</title>
<path fill="none" stroke="midnightblue" d="M1411.54,-119.761C1446.45,-119.609 1491.65,-124.812 1524,-148 1551.61,-167.793 1565.54,-206.628 1571.74,-230.252"/>
<polygon fill="midnightblue" stroke="midnightblue" points="1568.39,-231.291 1574.13,-240.196 1575.19,-229.655 1568.39,-231.291"/>
</g>
<!-- Node6 -->
<g id="node6" class="node"><title>Node6</title>
<g id="a_node6"><a xlink:href="../../d9/d32/connect__manager_8c.html#ad295327b74b1c4e19a7096ad2979765b" target="_top" xlink:title="check_create">
<polygon fill="none" stroke="black" points="570.5,-465.5 570.5,-484.5 645.5,-484.5 645.5,-465.5 570.5,-465.5"/>
<text text-anchor="middle" x="608" y="-472.5" font-family="Helvetica,sans-Serif" font-size="10.00">check_create</text>
</a>
</g>
</g>
<!-- Node5&#45;&gt;Node6 -->
<g id="edge6" class="edge"><title>Node5&#45;&gt;Node6</title>
<path fill="none" stroke="midnightblue" d="M473.218,-389.539C487.385,-405.435 517.98,-437.425 550,-456 553.604,-458.09 557.47,-459.991 561.43,-461.71"/>
<polygon fill="midnightblue" stroke="midnightblue" points="560.171,-464.976 570.758,-465.396 562.744,-458.466 560.171,-464.976"/>
</g>
<!-- Node7 -->
<g id="node7" class="node"><title>Node7</title>
<g id="a_node7"><a xlink:href="../../d9/d32/connect__manager_8c.html#a204f99a4a38f8c08c42cd120bcf1b9f7" target="_top" xlink:title="check_destroy">
<polygon fill="none" stroke="black" points="872,-705.5 872,-724.5 952,-724.5 952,-705.5 872,-705.5"/>
<text text-anchor="middle" x="912" y="-712.5" font-family="Helvetica,sans-Serif" font-size="10.00">check_destroy</text>
</a>
</g>
</g>
<!-- Node5&#45;&gt;Node7 -->
<g id="edge7" class="edge"><title>Node5&#45;&gt;Node7</title>
<path fill="none" stroke="midnightblue" d="M467.689,-389.782C475.718,-417.354 501.992,-496.692 550,-543 641.814,-631.563 787.811,-681.604 862.907,-702.795"/>
<polygon fill="midnightblue" stroke="midnightblue" points="862.01,-706.179 872.582,-705.476 863.879,-699.433 862.01,-706.179"/>
</g>
<!-- Node9 -->
<g id="node9" class="node"><title>Node9</title>
<g id="a_node9"><a xlink:href="../../d7/d87/group__endpoint__notify.html#ga89474ccd935bd6aeb2db5ae84c2fcbcf" target="_top" xlink:title="endpoint_notify_create\l_from_host">
<polygon fill="none" stroke="black" points="550.5,-504 550.5,-534 665.5,-534 665.5,-504 550.5,-504"/>
<text text-anchor="start" x="558.5" y="-522" font-family="Helvetica,sans-Serif" font-size="10.00">endpoint_notify_create</text>
<text text-anchor="middle" x="608" y="-511" font-family="Helvetica,sans-Serif" font-size="10.00">_from_host</text>
</a>
</g>
</g>
<!-- Node5&#45;&gt;Node9 -->
<g id="edge11" class="edge"><title>Node5&#45;&gt;Node9</title>
<path fill="none" stroke="midnightblue" d="M469.874,-389.568C481.211,-410.977 511.351,-463.272 550,-494 552.072,-495.648 554.27,-497.209 556.55,-498.685"/>
<polygon fill="midnightblue" stroke="midnightblue" points="555.255,-501.979 565.662,-503.961 558.762,-495.921 555.255,-501.979"/>
</g>
<!-- Node11 -->
<g id="node11" class="node"><title>Node11</title>
<g id="a_node11"><a xlink:href="../../d9/d32/connect__manager_8c.html#a7f4c528dceb6dc21cbeeb405365db27d" target="_top" xlink:title="get_checklist_by_id">
<polygon fill="none" stroke="black" points="1009.5,-447.5 1009.5,-466.5 1112.5,-466.5 1112.5,-447.5 1009.5,-447.5"/>
<text text-anchor="middle" x="1061" y="-454.5" font-family="Helvetica,sans-Serif" font-size="10.00">get_checklist_by_id</text>
</a>
</g>
</g>
<!-- Node5&#45;&gt;Node11 -->
<g id="edge13" class="edge"><title>Node5&#45;&gt;Node11</title>
<path fill="none" stroke="midnightblue" d="M487.145,-383.525C524.317,-389.589 601.53,-402.818 666,-418 734.338,-434.092 757.444,-425.475 818,-461 837.517,-472.45 833.095,-488.341 854,-497 901.631,-516.729 920.231,-510.455 970,-497 987.881,-492.166 989.188,-483.776 1006,-476 1010.45,-473.944 1015.18,-471.976 1019.93,-470.137"/>
<polygon fill="midnightblue" stroke="midnightblue" points="1021.44,-473.31 1029.61,-466.559 1019.01,-466.744 1021.44,-473.31"/>
</g>
<!-- Node15 -->
<g id="node15" class="node"><title>Node15</title>
<g id="a_node15"><a xlink:href="../../d9/d32/connect__manager_8c.html#a0c6f96218c9be021da288127130acaea" target="_top" xlink:title="get_triggered_pair">
<polygon fill="none" stroke="black" points="561,-427.5 561,-446.5 655,-446.5 655,-427.5 561,-427.5"/>
<text text-anchor="middle" x="608" y="-434.5" font-family="Helvetica,sans-Serif" font-size="10.00">get_triggered_pair</text>
</a>
</g>
</g>
<!-- Node5&#45;&gt;Node15 -->
<g id="edge17" class="edge"><title>Node5&#45;&gt;Node15</title>
<path fill="none" stroke="midnightblue" d="M487.188,-388.906C510.391,-398.22 547.075,-412.946 573.744,-423.651"/>
<polygon fill="midnightblue" stroke="midnightblue" points="572.488,-426.918 583.072,-427.395 575.096,-420.422 572.488,-426.918"/>
</g>
<!-- Node16 -->
<g id="node16" class="node"><title>Node16</title>
<g id="a_node16"><a xlink:href="../../d9/d32/connect__manager_8c.html#a7bcdfc183dd5ea52c1db9112000121eb" target="_top" xlink:title="match_waiting_pair">
<polygon fill="none" stroke="black" points="557.5,-351.5 557.5,-370.5 658.5,-370.5 658.5,-351.5 557.5,-351.5"/>
<text text-anchor="middle" x="608" y="-358.5" font-family="Helvetica,sans-Serif" font-size="10.00">match_waiting_pair</text>
</a>
</g>
</g>
<!-- Node5&#45;&gt;Node16 -->
<g id="edge18" class="edge"><title>Node5&#45;&gt;Node16</title>
<path fill="none" stroke="midnightblue" d="M487.188,-377.031C503.349,-374.869 526.05,-371.831 547.351,-368.981"/>
<polygon fill="midnightblue" stroke="midnightblue" points="547.888,-372.441 557.335,-367.645 546.959,-365.502 547.888,-372.441"/>
</g>
<!-- Node17 -->
<g id="node17" class="node"><title>Node17</title>
<g id="a_node17"><a xlink:href="../../d9/d32/connect__manager_8c.html#ab04c347706d661bcbd52ba901be05697" target="_top" xlink:title="schedule_checks">
<polygon fill="none" stroke="black" points="714,-266.5 714,-285.5 806,-285.5 806,-266.5 714,-266.5"/>
<text text-anchor="middle" x="760" y="-273.5" font-family="Helvetica,sans-Serif" font-size="10.00">schedule_checks</text>
</a>
</g>
</g>
<!-- Node5&#45;&gt;Node17 -->
<g id="edge19" class="edge"><title>Node5&#45;&gt;Node17</title>
<path fill="none" stroke="midnightblue" d="M469.059,-370.354C480.176,-351.249 512.777,-312.133 550,-295 598.644,-272.61 659.933,-266.665 703.535,-267.361"/>
<polygon fill="midnightblue" stroke="midnightblue" points="703.569,-270.864 713.666,-267.652 703.77,-263.867 703.569,-270.864"/>
</g>
<!-- Node24 -->
<g id="node24" class="node"><title>Node24</title>
<g id="a_node24"><a xlink:href="../../d9/d32/connect__manager_8c.html#a84c6b0f36d7353c32bb874be21759a5f" target="_top" xlink:title="send_check">
<polygon fill="none" stroke="black" points="573.5,-313.5 573.5,-332.5 642.5,-332.5 642.5,-313.5 573.5,-313.5"/>
<text text-anchor="middle" x="608" y="-320.5" font-family="Helvetica,sans-Serif" font-size="10.00">send_check</text>
</a>
</g>
</g>
<!-- Node5&#45;&gt;Node24 -->
<g id="edge29" class="edge"><title>Node5&#45;&gt;Node24</title>
<path fill="none" stroke="midnightblue" d="M485.029,-370.372C502.105,-362.327 527.404,-350.792 550,-342 555.48,-339.868 561.311,-337.753 567.072,-335.752"/>
<polygon fill="midnightblue" stroke="midnightblue" points="568.284,-339.037 576.628,-332.508 566.034,-332.408 568.284,-339.037"/>
</g>
<!-- Node7&#45;&gt;Node3 -->
<g id="edge10" class="edge"><title>Node7&#45;&gt;Node3</title>
<path fill="none" stroke="midnightblue" d="M952.21,-710.877C1008.83,-705.289 1116.82,-696 1209,-696 1209,-696 1209,-696 1359,-696 1551.43,-696 1573.26,-356.155 1575.7,-269.778"/>
<polygon fill="midnightblue" stroke="midnightblue" points="1579.2,-269.806 1575.93,-259.73 1572.2,-269.649 1579.2,-269.806"/>
</g>
<!-- Node8 -->
<g id="node8" class="node"><title>Node8</title>
<g id="a_node8"><a xlink:href="../../d4/d87/group__chunk.html#gaa86c84493369a4254d5801cdca20d458" target="_top" xlink:title="chunk_free">
<polygon fill="none" stroke="black" points="1028.5,-610.5 1028.5,-629.5 1093.5,-629.5 1093.5,-610.5 1028.5,-610.5"/>
<text text-anchor="middle" x="1061" y="-617.5" font-family="Helvetica,sans-Serif" font-size="10.00">chunk_free</text>
</a>
</g>
</g>
<!-- Node7&#45;&gt;Node8 -->
<g id="edge8" class="edge"><title>Node7&#45;&gt;Node8</title>
<path fill="none" stroke="midnightblue" d="M939.825,-705.438C949.604,-701.508 960.568,-696.567 970,-691 996.954,-675.09 1024.76,-651.933 1042.19,-636.438"/>
<polygon fill="midnightblue" stroke="midnightblue" points="1044.79,-638.808 1049.87,-629.511 1040.1,-633.611 1044.79,-638.808"/>
</g>
<!-- Node8&#45;&gt;Node3 -->
<g id="edge9" class="edge"><title>Node8&#45;&gt;Node3</title>
<path fill="none" stroke="midnightblue" d="M1093.61,-620.208C1177.23,-618.943 1405.93,-603.401 1524,-476 1552.06,-445.727 1568.53,-318.981 1573.97,-269.71"/>
<polygon fill="midnightblue" stroke="midnightblue" points="1577.46,-270.004 1575.05,-259.688 1570.5,-269.259 1577.46,-270.004"/>
</g>
<!-- Node10 -->
<g id="node10" class="node"><title>Node10</title>
<g id="a_node10"><a xlink:href="../../da/d0c/endpoint__notify_8c.html#a55fdd0651a0e929c599c0ffd77626082" target="_top" xlink:title="endpoint_notify_create">
<polygon fill="none" stroke="black" points="702.5,-509.5 702.5,-528.5 817.5,-528.5 817.5,-509.5 702.5,-509.5"/>
<text text-anchor="middle" x="760" y="-516.5" font-family="Helvetica,sans-Serif" font-size="10.00">endpoint_notify_create</text>
</a>
</g>
</g>
<!-- Node9&#45;&gt;Node10 -->
<g id="edge12" class="edge"><title>Node9&#45;&gt;Node10</title>
<path fill="none" stroke="midnightblue" d="M665.709,-519C674.295,-519 683.223,-519 692.002,-519"/>
<polygon fill="midnightblue" stroke="midnightblue" points="692.211,-522.5 702.211,-519 692.211,-515.5 692.211,-522.5"/>
</g>
<!-- Node12 -->
<g id="node12" class="node"><title>Node12</title>
<g id="a_node12"><a xlink:href="../../d9/d32/connect__manager_8c.html#a48e6c7d1bc525dc1f2627c117ec8fcdf" target="_top" xlink:title="match_checklist_by_id">
<polygon fill="none" stroke="black" points="1152,-447.5 1152,-466.5 1268,-466.5 1268,-447.5 1152,-447.5"/>
<text text-anchor="middle" x="1210" y="-454.5" font-family="Helvetica,sans-Serif" font-size="10.00">match_checklist_by_id</text>
</a>
</g>
</g>
<!-- Node11&#45;&gt;Node12 -->
<g id="edge14" class="edge"><title>Node11&#45;&gt;Node12</title>
<path fill="none" stroke="midnightblue" d="M1112.59,-457C1121.96,-457 1131.88,-457 1141.65,-457"/>
<polygon fill="midnightblue" stroke="midnightblue" points="1141.76,-460.5 1151.76,-457 1141.76,-453.5 1141.76,-460.5"/>
</g>
<!-- Node13 -->
<g id="node13" class="node"><title>Node13</title>
<g id="a_node13"><a xlink:href="../../d4/d87/group__chunk.html#gae6aabf03218cda073ab2173e02bff4ba" target="_top" xlink:title="chunk_equals">
<polygon fill="none" stroke="black" points="1319.5,-447.5 1319.5,-466.5 1396.5,-466.5 1396.5,-447.5 1319.5,-447.5"/>
<text text-anchor="middle" x="1358" y="-454.5" font-family="Helvetica,sans-Serif" font-size="10.00">chunk_equals</text>
</a>
</g>
</g>
<!-- Node12&#45;&gt;Node13 -->
<g id="edge15" class="edge"><title>Node12&#45;&gt;Node13</title>
<path fill="none" stroke="midnightblue" d="M1268.28,-457C1281.77,-457 1296.02,-457 1309.05,-457"/>
<polygon fill="midnightblue" stroke="midnightblue" points="1309.2,-460.5 1319.2,-457 1309.2,-453.5 1309.2,-460.5"/>
</g>
<!-- Node14 -->
<g id="node14" class="node"><title>Node14</title>
<g id="a_node14"><a xlink:href="../../dd/d74/group__memory__i.html#ga46d7935db00fd7092430dbf4f36c2850" target="_top" xlink:title="memeq">
<polygon fill="none" stroke="black" points="1461.5,-447.5 1461.5,-466.5 1510.5,-466.5 1510.5,-447.5 1461.5,-447.5"/>
<text text-anchor="middle" x="1486" y="-454.5" font-family="Helvetica,sans-Serif" font-size="10.00">memeq</text>
</a>
</g>
</g>
<!-- Node13&#45;&gt;Node14 -->
<g id="edge16" class="edge"><title>Node13&#45;&gt;Node14</title>
<path fill="none" stroke="midnightblue" d="M1396.8,-457C1414.05,-457 1434.31,-457 1451.06,-457"/>
<polygon fill="midnightblue" stroke="midnightblue" points="1451.49,-460.5 1461.49,-457 1451.49,-453.5 1451.49,-460.5"/>
</g>
<!-- Node17&#45;&gt;Node5 -->
<g id="edge28" class="edge"><title>Node17&#45;&gt;Node5</title>
<path fill="none" stroke="midnightblue" d="M713.666,-281.42C669.841,-283.818 602.543,-288.815 550,-313 524.193,-324.878 500.607,-347.324 484.863,-363.17"/>
<polygon fill="midnightblue" stroke="midnightblue" points="482.318,-360.765 477.788,-370.343 487.302,-365.681 482.318,-360.765"/>
</g>
<!-- Node18 -->
<g id="node18" class="node"><title>Node18</title>
<g id="a_node18"><a xlink:href="../../d9/d32/connect__manager_8c.html#a77eb11570d14635d5e6f46bc56b6efcf" target="_top" xlink:title="callback_data_create">
<polygon fill="none" stroke="black" points="1006.5,-228.5 1006.5,-247.5 1115.5,-247.5 1115.5,-228.5 1006.5,-228.5"/>
<text text-anchor="middle" x="1061" y="-235.5" font-family="Helvetica,sans-Serif" font-size="10.00">callback_data_create</text>
</a>
</g>
</g>
<!-- Node17&#45;&gt;Node18 -->
<g id="edge20" class="edge"><title>Node17&#45;&gt;Node18</title>
<path fill="none" stroke="midnightblue" d="M802.957,-266.412C818.874,-263.042 837.209,-259.482 854,-257 901.493,-249.98 955.554,-245.111 996.375,-242.06"/>
<polygon fill="midnightblue" stroke="midnightblue" points="996.737,-245.543 1006.46,-241.324 996.227,-238.562 996.737,-245.543"/>
</g>
<!-- Node19 -->
<g id="node19" class="node"><title>Node19</title>
<g id="a_node19"><a xlink:href="../../d9/d32/connect__manager_8c.html#a4674a63e69fa1940f68b6d6d4532d1dc" target="_top" xlink:title="callback_data_destroy">
<polygon fill="none" stroke="black" points="855,-342.5 855,-361.5 969,-361.5 969,-342.5 855,-342.5"/>
<text text-anchor="middle" x="912" y="-349.5" font-family="Helvetica,sans-Serif" font-size="10.00">callback_data_destroy</text>
</a>
</g>
</g>
<!-- Node17&#45;&gt;Node19 -->
<g id="edge21" class="edge"><title>Node17&#45;&gt;Node19</title>
<path fill="none" stroke="midnightblue" d="M783.268,-285.542C794.061,-290.513 807.028,-297.008 818,-304 835.327,-315.041 835.969,-323.151 854,-333 857.916,-335.139 862.116,-337.094 866.394,-338.866"/>
<polygon fill="midnightblue" stroke="midnightblue" points="865.216,-342.163 875.807,-342.456 867.71,-335.622 865.216,-342.163"/>
</g>
<!-- Node20 -->
<g id="node20" class="node"><title>Node20</title>
<g id="a_node20"><a xlink:href="../../d0/d8f/group__callback__job.html#ga6934f856d27d82413610263e27a5cfa1" target="_top" xlink:title="callback_job_create">
<polygon fill="none" stroke="black" points="860.5,-266.5 860.5,-285.5 963.5,-285.5 963.5,-266.5 860.5,-266.5"/>
<text text-anchor="middle" x="912" y="-273.5" font-family="Helvetica,sans-Serif" font-size="10.00">callback_job_create</text>
</a>
</g>
</g>
<!-- Node17&#45;&gt;Node20 -->
<g id="edge24" class="edge"><title>Node17&#45;&gt;Node20</title>
<path fill="none" stroke="midnightblue" d="M806.005,-276C819.888,-276 835.412,-276 850.176,-276"/>
<polygon fill="midnightblue" stroke="midnightblue" points="850.246,-279.5 860.246,-276 850.246,-272.5 850.246,-279.5"/>
</g>
<!-- Node19&#45;&gt;Node3 -->
<g id="edge23" class="edge"><title>Node19&#45;&gt;Node3</title>
<path fill="none" stroke="midnightblue" d="M969.162,-348.064C1028.68,-344.238 1125.41,-339 1209,-339 1209,-339 1209,-339 1359,-339 1435.58,-339 1516.75,-290.97 1554.44,-265.477"/>
<polygon fill="midnightblue" stroke="midnightblue" points="1556.82,-268.088 1563.06,-259.525 1552.84,-262.329 1556.82,-268.088"/>
</g>
<!-- Node19&#45;&gt;Node8 -->
<g id="edge22" class="edge"><title>Node19&#45;&gt;Node8</title>
<path fill="none" stroke="midnightblue" d="M957.155,-361.535C961.944,-363.999 966.382,-367.1 970,-371 1014.57,-419.05 982.98,-452.637 1006,-514 1018.02,-546.051 1037.11,-581.035 1049.08,-601.717"/>
<polygon fill="midnightblue" stroke="midnightblue" points="1046.1,-603.544 1054.17,-610.399 1052.13,-600.002 1046.1,-603.544"/>
</g>
<!-- Node21 -->
<g id="node21" class="node"><title>Node21</title>
<g id="a_node21"><a xlink:href="../../d0/d8f/group__callback__job.html#gadfa6801d50c2e34bb3f9e1c98efe02d0" target="_top" xlink:title="callback_job_create\l_with_prio">
<polygon fill="none" stroke="black" points="1009.5,-267 1009.5,-297 1112.5,-297 1112.5,-267 1009.5,-267"/>
<text text-anchor="start" x="1017.5" y="-285" font-family="Helvetica,sans-Serif" font-size="10.00">callback_job_create</text>
<text text-anchor="middle" x="1061" y="-274" font-family="Helvetica,sans-Serif" font-size="10.00">_with_prio</text>
</a>
</g>
</g>
<!-- Node20&#45;&gt;Node21 -->
<g id="edge25" class="edge"><title>Node20&#45;&gt;Node21</title>
<path fill="none" stroke="midnightblue" d="M963.589,-278.065C975.023,-278.532 987.278,-279.032 999.087,-279.514"/>
<polygon fill="midnightblue" stroke="midnightblue" points="999.183,-283.021 1009.32,-279.931 999.469,-276.026 999.183,-283.021"/>
</g>
<!-- Node22 -->
<g id="node22" class="node"><title>Node22</title>
<g id="a_node22"><a xlink:href="../../d1/d14/fetch_8c.html#a17dd1592e9f4ebc44d5126c03a3a9697" target="_top" xlink:title="cb">
<polygon fill="none" stroke="black" points="1195.5,-281.5 1195.5,-300.5 1224.5,-300.5 1224.5,-281.5 1195.5,-281.5"/>
<text text-anchor="middle" x="1210" y="-288.5" font-family="Helvetica,sans-Serif" font-size="10.00">cb</text>
</a>
</g>
</g>
<!-- Node21&#45;&gt;Node22 -->
<g id="edge26" class="edge"><title>Node21&#45;&gt;Node22</title>
<path fill="none" stroke="midnightblue" d="M1112.59,-285.097C1137.14,-286.6 1165.48,-288.336 1185.05,-289.534"/>
<polygon fill="midnightblue" stroke="midnightblue" points="1185.01,-293.038 1195.2,-290.155 1185.44,-286.051 1185.01,-293.038"/>
</g>
<!-- Node23 -->
<g id="node23" class="node"><title>Node23</title>
<g id="a_node23"><a xlink:href="../../d2/dca/nm__backend_8c.html#a22ea158445c16ed72f5ab270e1dc691b" target="_top" xlink:title="cancel">
<polygon fill="none" stroke="black" points="1187.5,-243.5 1187.5,-262.5 1232.5,-262.5 1232.5,-243.5 1187.5,-243.5"/>
<text text-anchor="middle" x="1210" y="-250.5" font-family="Helvetica,sans-Serif" font-size="10.00">cancel</text>
</a>
</g>
</g>
<!-- Node21&#45;&gt;Node23 -->
<g id="edge27" class="edge"><title>Node21&#45;&gt;Node23</title>
<path fill="none" stroke="midnightblue" d="M1112.59,-272.02C1134.17,-267.762 1158.68,-262.926 1177.59,-259.197"/>
<polygon fill="midnightblue" stroke="midnightblue" points="1178.33,-262.618 1187.46,-257.249 1176.97,-255.751 1178.33,-262.618"/>
</g>
<!-- Node25 -->
<g id="node25" class="node"><title>Node25</title>
<g id="a_node25"><a xlink:href="../../d9/d32/connect__manager_8c.html#aedcaf4b4ca6bc58701b4c01f1e6c3b54" target="_top" xlink:title="build_signature">
<polygon fill="none" stroke="black" points="719,-470.5 719,-489.5 801,-489.5 801,-470.5 719,-470.5"/>
<text text-anchor="middle" x="760" y="-477.5" font-family="Helvetica,sans-Serif" font-size="10.00">build_signature</text>
</a>
</g>
</g>
<!-- Node24&#45;&gt;Node25 -->
<g id="edge30" class="edge"><title>Node24&#45;&gt;Node25</title>
<path fill="none" stroke="midnightblue" d="M642.755,-329.314C651.07,-332.124 659.457,-336.172 666,-342 694.211,-367.125 680.843,-387.702 702,-419 713.187,-435.549 728.848,-451.958 740.924,-463.582"/>
<polygon fill="midnightblue" stroke="midnightblue" points="738.577,-466.18 748.259,-470.483 743.374,-461.081 738.577,-466.18"/>
</g>
<!-- Node26 -->
<g id="node26" class="node"><title>Node26</title>
<g id="a_node26"><a xlink:href="../../d1/d7f/group__ike__sa__id.html#gaa080d65d35119ab2dd69b73309c14566" target="_top" xlink:title="ike_sa_id_create">
<polygon fill="none" stroke="black" points="715,-390.5 715,-409.5 805,-409.5 805,-390.5 715,-390.5"/>
<text text-anchor="middle" x="760" y="-397.5" font-family="Helvetica,sans-Serif" font-size="10.00">ike_sa_id_create</text>
</a>
</g>
</g>
<!-- Node24&#45;&gt;Node26 -->
<g id="edge32" class="edge"><title>Node24&#45;&gt;Node26</title>
<path fill="none" stroke="midnightblue" d="M642.542,-331.07C650.59,-333.83 658.903,-337.415 666,-342 685.814,-354.8 682.186,-368.2 702,-381 705.119,-383.015 708.472,-384.836 711.934,-386.48"/>
<polygon fill="midnightblue" stroke="midnightblue" points="710.695,-389.756 721.268,-390.424 713.42,-383.308 710.695,-389.756"/>
</g>
<!-- Node27 -->
<g id="node27" class="node"><title>Node27</title>
<g id="a_node27"><a xlink:href="../../de/d9a/group__message.html#gac4bba880d7840360ecb8e4137526420b" target="_top" xlink:title="message_create">
<polygon fill="none" stroke="black" points="715.5,-352.5 715.5,-371.5 804.5,-371.5 804.5,-352.5 715.5,-352.5"/>
<text text-anchor="middle" x="760" y="-359.5" font-family="Helvetica,sans-Serif" font-size="10.00">message_create</text>
</a>
</g>
</g>
<!-- Node24&#45;&gt;Node27 -->
<g id="edge33" class="edge"><title>Node24&#45;&gt;Node27</title>
<path fill="none" stroke="midnightblue" d="M642.663,-331.752C663.279,-337.113 689.956,-344.049 712.563,-349.926"/>
<polygon fill="midnightblue" stroke="midnightblue" points="711.739,-353.329 722.298,-352.458 713.501,-346.554 711.739,-353.329"/>
</g>
<!-- Node35 -->
<g id="node35" class="node"><title>Node35</title>
<g id="a_node35"><a xlink:href="../../d9/d32/connect__manager_8c.html#a78416603d2ebd2bb0dcf49e3ccd4ae9c" target="_top" xlink:title="queue_retransmission">
<polygon fill="none" stroke="black" points="704,-313.5 704,-332.5 816,-332.5 816,-313.5 704,-313.5"/>
<text text-anchor="middle" x="760" y="-320.5" font-family="Helvetica,sans-Serif" font-size="10.00">queue_retransmission</text>
</a>
</g>
</g>
<!-- Node24&#45;&gt;Node35 -->
<g id="edge43" class="edge"><title>Node24&#45;&gt;Node35</title>
<path fill="none" stroke="midnightblue" d="M642.663,-323C657.754,-323 676.092,-323 693.704,-323"/>
<polygon fill="midnightblue" stroke="midnightblue" points="693.96,-326.5 703.96,-323 693.96,-319.5 693.96,-326.5"/>
</g>
<!-- Node25&#45;&gt;Node8 -->
<g id="edge31" class="edge"><title>Node25&#45;&gt;Node8</title>
<path fill="none" stroke="midnightblue" d="M794.732,-489.598C802.608,-492.442 810.794,-495.911 818,-500 836.115,-510.278 836.28,-519.055 854,-530 909.141,-564.06 979.428,-591.803 1022.01,-607.092"/>
<polygon fill="midnightblue" stroke="midnightblue" points="1020.84,-610.391 1031.43,-610.435 1023.18,-603.794 1020.84,-610.391"/>
</g>
<!-- Node28 -->
<g id="node28" class="node"><title>Node28</title>
<g id="a_node28"><a xlink:href="../../de/d9a/group__message.html#ga2c4a060592f02346b2dbf3d1df2e6e3c" target="_top" xlink:title="message_create_from\l_packet">
<polygon fill="none" stroke="black" points="855.5,-419 855.5,-449 968.5,-449 968.5,-419 855.5,-419"/>
<text text-anchor="start" x="863.5" y="-437" font-family="Helvetica,sans-Serif" font-size="10.00">message_create_from</text>
<text text-anchor="middle" x="912" y="-426" font-family="Helvetica,sans-Serif" font-size="10.00">_packet</text>
</a>
</g>
</g>
<!-- Node27&#45;&gt;Node28 -->
<g id="edge34" class="edge"><title>Node27&#45;&gt;Node28</title>
<path fill="none" stroke="midnightblue" d="M795.845,-371.527C803.354,-374.149 811.102,-377.308 818,-381 835.871,-390.564 836.585,-398.628 854,-409 857.157,-410.88 860.48,-412.702 863.87,-414.447"/>
<polygon fill="midnightblue" stroke="midnightblue" points="862.412,-417.63 872.933,-418.878 865.486,-411.341 862.412,-417.63"/>
</g>
<!-- Node34 -->
<g id="node34" class="node"><title>Node34</title>
<g id="a_node34"><a xlink:href="../../db/dd9/group__packet.html#ga860fd5eabb20eac45cf95ab30dc56a34" target="_top" xlink:title="packet_create">
<polygon fill="none" stroke="red" points="873,-468.5 873,-487.5 951,-487.5 951,-468.5 873,-468.5"/>
<text text-anchor="middle" x="912" y="-475.5" font-family="Helvetica,sans-Serif" font-size="10.00">packet_create</text>
</a>
</g>
</g>
<!-- Node27&#45;&gt;Node34 -->
<g id="edge42" class="edge"><title>Node27&#45;&gt;Node34</title>
<path fill="none" stroke="midnightblue" d="M803.023,-371.557C808.457,-374.02 813.638,-377.115 818,-381 846.211,-406.125 825.987,-432.654 854,-458 856.934,-460.655 860.242,-462.962 863.75,-464.966"/>
<polygon fill="midnightblue" stroke="midnightblue" points="862.255,-468.131 872.78,-469.347 865.311,-461.833 862.255,-468.131"/>
</g>
<!-- Node29 -->
<g id="node29" class="node"><title>Node29</title>
<g id="a_node29"><a xlink:href="../../d3/dc0/group__linked__list.html#ga15bb4333e53dbef32d196e4388f43fdf" target="_top" xlink:title="linked_list_create">
<polygon fill="none" stroke="black" points="1015,-485.5 1015,-504.5 1107,-504.5 1107,-485.5 1015,-485.5"/>
<text text-anchor="middle" x="1061" y="-492.5" font-family="Helvetica,sans-Serif" font-size="10.00">linked_list_create</text>
</a>
</g>
</g>
<!-- Node28&#45;&gt;Node29 -->
<g id="edge35" class="edge"><title>Node28&#45;&gt;Node29</title>
<path fill="none" stroke="midnightblue" d="M947.733,-449.05C955.101,-452.294 962.821,-455.731 970,-459 986.104,-466.332 989.633,-469.277 1006,-476 1011.06,-478.077 1016.43,-480.138 1021.76,-482.095"/>
<polygon fill="midnightblue" stroke="midnightblue" points="1020.61,-485.403 1031.21,-485.485 1022.98,-478.814 1020.61,-485.403"/>
</g>
<!-- Node33 -->
<g id="node33" class="node"><title>Node33</title>
<g id="a_node33"><a xlink:href="../../dd/da8/group__parser.html#ga4f907e86ca85c0c5c10ad1d70a2db48b" target="_top" xlink:title="parser_create">
<polygon fill="none" stroke="black" points="1023,-409.5 1023,-428.5 1099,-428.5 1099,-409.5 1023,-409.5"/>
<text text-anchor="middle" x="1061" y="-416.5" font-family="Helvetica,sans-Serif" font-size="10.00">parser_create</text>
</a>
</g>
</g>
<!-- Node28&#45;&gt;Node33 -->
<g id="edge41" class="edge"><title>Node28&#45;&gt;Node33</title>
<path fill="none" stroke="midnightblue" d="M968.574,-428.329C982.958,-426.861 998.316,-425.294 1012.26,-423.872"/>
<polygon fill="midnightblue" stroke="midnightblue" points="1013.01,-427.313 1022.61,-422.816 1012.3,-420.349 1013.01,-427.313"/>
</g>
<!-- Node30 -->
<g id="node30" class="node"><title>Node30</title>
<g id="a_node30"><a xlink:href="../../d9/d78/duplicheck__listener_8c.html#a42e92cbe3b8fa821d53d1fdb7db5a639" target="_top" xlink:title="remove_first">
<polygon fill="none" stroke="black" points="1174.5,-395.5 1174.5,-414.5 1245.5,-414.5 1245.5,-395.5 1174.5,-395.5"/>
<text text-anchor="middle" x="1210" y="-402.5" font-family="Helvetica,sans-Serif" font-size="10.00">remove_first</text>
</a>
</g>
</g>
<!-- Node29&#45;&gt;Node30 -->
<g id="edge36" class="edge"><title>Node29&#45;&gt;Node30</title>
<path fill="none" stroke="midnightblue" d="M1096.85,-485.48C1103.48,-482.921 1110.16,-479.786 1116,-476 1135.52,-463.341 1133.74,-452.421 1152,-438 1160.68,-431.142 1170.94,-424.754 1180.35,-419.461"/>
<polygon fill="midnightblue" stroke="midnightblue" points="1182.26,-422.404 1189.38,-414.555 1178.92,-416.253 1182.26,-422.404"/>
</g>
<!-- Node31 -->
<g id="node31" class="node"><title>Node31</title>
<g id="a_node31"><a xlink:href="../../d9/d78/duplicheck__listener_8c.html#acaae3ea9f18caab2a2e47637da396ca9" target="_top" xlink:title="remove_if_empty">
<polygon fill="none" stroke="black" points="1312,-381.5 1312,-400.5 1404,-400.5 1404,-381.5 1312,-381.5"/>
<text text-anchor="middle" x="1358" y="-388.5" font-family="Helvetica,sans-Serif" font-size="10.00">remove_if_empty</text>
</a>
</g>
</g>
<!-- Node30&#45;&gt;Node31 -->
<g id="edge37" class="edge"><title>Node30&#45;&gt;Node31</title>
<path fill="none" stroke="midnightblue" d="M1245.6,-401.682C1262.4,-400.071 1282.99,-398.097 1301.87,-396.286"/>
<polygon fill="midnightblue" stroke="midnightblue" points="1302.24,-399.767 1311.86,-395.328 1301.57,-392.799 1302.24,-399.767"/>
</g>
<!-- Node32 -->
<g id="node32" class="node"><title>Node32</title>
<g id="a_node32"><a xlink:href="../../d9/d78/duplicheck__listener_8c.html#aede77291d80d98c60a53f8438d3bd5bd" target="_top" xlink:title="entry_destroy">
<polygon fill="none" stroke="black" points="1448,-240.5 1448,-259.5 1524,-259.5 1524,-240.5 1448,-240.5"/>
<text text-anchor="middle" x="1486" y="-247.5" font-family="Helvetica,sans-Serif" font-size="10.00">entry_destroy</text>
</a>
</g>
</g>
<!-- Node31&#45;&gt;Node32 -->
<g id="edge38" class="edge"><title>Node31&#45;&gt;Node32</title>
<path fill="none" stroke="midnightblue" d="M1367.66,-381.308C1388.7,-357.764 1442.74,-297.292 1469.5,-267.342"/>
<polygon fill="midnightblue" stroke="midnightblue" points="1472.23,-269.548 1476.28,-259.759 1467.01,-264.884 1472.23,-269.548"/>
</g>
<!-- Node32&#45;&gt;Node2 -->
<g id="edge39" class="edge"><title>Node32&#45;&gt;Node2</title>
<path fill="none" stroke="midnightblue" d="M1453.7,-240.478C1403.15,-225.971 1300.21,-200 1211,-200 607,-200 607,-200 607,-200 519.378,-200 416.477,-190.351 364.571,-184.806"/>
<polygon fill="midnightblue" stroke="midnightblue" points="364.91,-181.322 354.591,-183.722 364.155,-188.281 364.91,-181.322"/>
</g>
<!-- Node32&#45;&gt;Node3 -->
<g id="edge40" class="edge"><title>Node32&#45;&gt;Node3</title>
<path fill="none" stroke="midnightblue" d="M1524.23,-250C1532.87,-250 1541.9,-250 1549.94,-250"/>
<polygon fill="midnightblue" stroke="midnightblue" points="1550.18,-253.5 1560.18,-250 1550.18,-246.5 1550.18,-253.5"/>
</g>
<!-- Node35&#45;&gt;Node19 -->
<g id="edge44" class="edge"><title>Node35&#45;&gt;Node19</title>
<path fill="none" stroke="midnightblue" d="M810.531,-332.576C823.784,-335.138 838.241,-337.933 851.952,-340.584"/>
<polygon fill="midnightblue" stroke="midnightblue" points="851.294,-344.022 861.776,-342.483 852.623,-337.149 851.294,-344.022"/>
</g>
<!-- Node35&#45;&gt;Node20 -->
<g id="edge45" class="edge"><title>Node35&#45;&gt;Node20</title>
<path fill="none" stroke="midnightblue" d="M791.355,-313.489C814.254,-306.314 845.883,-296.403 870.87,-288.574"/>
<polygon fill="midnightblue" stroke="midnightblue" points="871.937,-291.908 880.433,-285.578 869.844,-285.228 871.937,-291.908"/>
</g>
<!-- Node36 -->
<g id="node36" class="node"><title>Node36</title>
<g id="a_node36"><a xlink:href="../../d9/d32/connect__manager_8c.html#a13543d329388560c587b6f8b6a014329" target="_top" xlink:title="retransmit">
<polygon fill="none" stroke="red" points="882,-380.5 882,-399.5 942,-399.5 942,-380.5 882,-380.5"/>
<text text-anchor="middle" x="912" y="-387.5" font-family="Helvetica,sans-Serif" font-size="10.00">retransmit</text>
</a>
</g>
</g>
<!-- Node35&#45;&gt;Node36 -->
<g id="edge46" class="edge"><title>Node35&#45;&gt;Node36</title>
<path fill="none" stroke="midnightblue" d="M815.195,-332.52C816.144,-333.005 817.079,-333.498 818,-334 835.796,-343.705 836.129,-352.436 854,-362 865.012,-367.893 878.192,-372.43 889.103,-376.511"/>
<polygon fill="midnightblue" stroke="midnightblue" points="888.138,-379.893 898.724,-380.314 890.711,-373.383 888.138,-379.893"/>
</g>
<!-- Node37 -->
<g id="node37" class="node"><title>Node37</title>
<g id="a_node37"><a xlink:href="../../d9/d32/connect__manager_8c.html#a07f604baaa16961bf7bc5a2df1139e24" target="_top" xlink:title="retransmit_data_create">
<polygon fill="none" stroke="black" points="854,-304.5 854,-323.5 970,-323.5 970,-304.5 854,-304.5"/>
<text text-anchor="middle" x="912" y="-311.5" font-family="Helvetica,sans-Serif" font-size="10.00">retransmit_data_create</text>
</a>
</g>
</g>
<!-- Node35&#45;&gt;Node37 -->
<g id="edge49" class="edge"><title>Node35&#45;&gt;Node37</title>
<path fill="none" stroke="midnightblue" d="M816.003,-319.7C825.09,-319.155 834.601,-318.584 843.945,-318.023"/>
<polygon fill="midnightblue" stroke="midnightblue" points="844.218,-321.513 853.991,-317.421 843.799,-314.526 844.218,-321.513"/>
</g>
<!-- Node36&#45;&gt;Node11 -->
<g id="edge47" class="edge"><title>Node36&#45;&gt;Node11</title>
<path fill="none" stroke="midnightblue" d="M942.25,-397.549C951.424,-400.489 961.395,-404.3 970,-409 988.031,-418.849 988.051,-428.002 1006,-438 1009.71,-440.068 1013.69,-441.974 1017.74,-443.716"/>
<polygon fill="midnightblue" stroke="midnightblue" points="1016.65,-447.05 1027.24,-447.481 1019.23,-440.542 1016.65,-447.05"/>
</g>
<!-- Node36&#45;&gt;Node35 -->
<g id="edge48" class="edge"><title>Node36&#45;&gt;Node35</title>
<path fill="none" stroke="midnightblue" d="M881.797,-390.917C872.627,-388.417 862.645,-384.627 854,-380 836.129,-370.436 835.796,-361.705 818,-352 806.58,-345.772 792.846,-340.885 781.721,-336.477"/>
<polygon fill="midnightblue" stroke="midnightblue" points="782.953,-333.198 772.378,-332.539 780.234,-339.648 782.953,-333.198"/>
</g>
<!-- Node37&#45;&gt;Node18 -->
<g id="edge50" class="edge"><title>Node37&#45;&gt;Node18</title>
<path fill="none" stroke="midnightblue" d="M950.392,-304.474C957.191,-301.937 964.017,-298.81 970,-295 989.623,-282.503 986.481,-269.659 1006,-257 1009.1,-254.989 1012.44,-253.161 1015.88,-251.506"/>
<polygon fill="midnightblue" stroke="midnightblue" points="1017.35,-254.687 1025.15,-247.52 1014.58,-248.257 1017.35,-254.687"/>
</g>
<!-- Node38&#45;&gt;Node2 -->
<g id="edge55" class="edge"><title>Node38&#45;&gt;Node2</title>
<path fill="none" stroke="midnightblue" d="M196.904,-95.6319C222.437,-112.133 274.743,-145.936 305.319,-165.696"/>
<polygon fill="midnightblue" stroke="midnightblue" points="303.758,-168.854 314.056,-171.343 307.557,-162.975 303.758,-168.854"/>
</g>
<!-- Node38&#45;&gt;Node3 -->
<g id="edge56" class="edge"><title>Node38&#45;&gt;Node3</title>
<path fill="none" stroke="midnightblue" d="M246.172,-86C303.127,-86 388.603,-86 463,-86 463,-86 463,-86 1359,-86 1433.7,-86 1466.56,-70.247 1524,-118 1558.28,-146.496 1570.08,-200.671 1574.05,-229.977"/>
<polygon fill="midnightblue" stroke="midnightblue" points="1570.61,-230.691 1575.25,-240.214 1577.56,-229.874 1570.61,-230.691"/>
</g>
<!-- Node39 -->
<g id="node39" class="node"><title>Node39</title>
<g id="a_node39"><a xlink:href="../../df/d31/auth__cfg_8c.html#a9156e9c5006f068c9cf15deb1c2cd52c" target="_top" xlink:title="enumerate">
<polygon fill="none" stroke="black" points="299,-38.5 299,-57.5 361,-57.5 361,-38.5 299,-38.5"/>
<text text-anchor="middle" x="330" y="-45.5" font-family="Helvetica,sans-Serif" font-size="10.00">enumerate</text>
</a>
</g>
</g>
<!-- Node38&#45;&gt;Node39 -->
<g id="edge52" class="edge"><title>Node38&#45;&gt;Node39</title>
<path fill="none" stroke="midnightblue" d="M219.094,-76.411C240.388,-70.9066 267.135,-63.9924 288.911,-58.3631"/>
<polygon fill="midnightblue" stroke="midnightblue" points="290.036,-61.6874 298.842,-55.7959 288.284,-54.9101 290.036,-61.6874"/>
</g>
<!-- Node41 -->
<g id="node41" class="node"><title>Node41</title>
<g id="a_node41"><a xlink:href="../../de/d46/enumerator_8c.html#a64d150ea15c010571cd7c9afd42e72cf" target="_top" xlink:title="enumerate_empty">
<polygon fill="none" stroke="black" points="282.5,-0.5 282.5,-19.5 377.5,-19.5 377.5,-0.5 282.5,-0.5"/>
<text text-anchor="middle" x="330" y="-7.5" font-family="Helvetica,sans-Serif" font-size="10.00">enumerate_empty</text>
</a>
</g>
</g>
<!-- Node38&#45;&gt;Node41 -->
<g id="edge54" class="edge"><title>Node38&#45;&gt;Node41</title>
<path fill="none" stroke="midnightblue" d="M197.243,-76.4566C216.559,-64.5646 251.067,-43.985 282,-29 285.832,-27.1438 289.894,-25.3107 293.962,-23.5582"/>
<polygon fill="midnightblue" stroke="midnightblue" points="295.476,-26.7191 303.36,-19.6424 292.783,-20.2575 295.476,-26.7191"/>
</g>
<!-- Node40 -->
<g id="node40" class="node"><title>Node40</title>
<g id="a_node40"><a xlink:href="../../df/d31/auth__cfg_8c.html#add6d3a66419018d13334e01aaeeabbba" target="_top" xlink:title="is_multi_value_rule">
<polygon fill="none" stroke="black" points="414,-38.5 414,-57.5 514,-57.5 514,-38.5 414,-38.5"/>
<text text-anchor="middle" x="464" y="-45.5" font-family="Helvetica,sans-Serif" font-size="10.00">is_multi_value_rule</text>
</a>
</g>
</g>
<!-- Node39&#45;&gt;Node40 -->
<g id="edge53" class="edge"><title>Node39&#45;&gt;Node40</title>
<path fill="none" stroke="midnightblue" d="M361.283,-48C373.961,-48 389.155,-48 403.887,-48"/>
<polygon fill="midnightblue" stroke="midnightblue" points="403.975,-51.5001 413.975,-48 403.975,-44.5001 403.975,-51.5001"/>
</g>
<!-- Node42&#45;&gt;Node2 -->
<g id="edge68" class="edge"><title>Node42&#45;&gt;Node2</title>
<path fill="none" stroke="midnightblue" d="M185.07,-629.434C203.342,-572.507 297.81,-278.177 322.884,-200.055"/>
<polygon fill="midnightblue" stroke="midnightblue" points="326.223,-201.105 325.947,-190.513 319.558,-198.965 326.223,-201.105"/>
</g>
<!-- Node42&#45;&gt;Node29 -->
<g id="edge69" class="edge"><title>Node42&#45;&gt;Node29</title>
<path fill="none" stroke="midnightblue" d="M228.733,-629.714C245.505,-626.489 264.576,-622.946 282,-620 586.795,-568.472 666.962,-579.016 970,-518 985.158,-514.948 1001.59,-510.956 1016.21,-507.156"/>
<polygon fill="midnightblue" stroke="midnightblue" points="1017.23,-510.507 1026,-504.57 1015.44,-503.739 1017.23,-510.507"/>
</g>
<!-- Node43 -->
<g id="node43" class="node"><title>Node43</title>
<g id="a_node43"><a xlink:href="../../d6/d87/group__utils__i.html#ga9feb7476507383309c8e3ff2648016f3" target="_top" xlink:title="nop">
<polygon fill="none" stroke="black" points="314,-667.5 314,-686.5 346,-686.5 346,-667.5 314,-667.5"/>
<text text-anchor="middle" x="330" y="-674.5" font-family="Helvetica,sans-Serif" font-size="10.00">nop</text>
</a>
</g>
</g>
<!-- Node42&#45;&gt;Node43 -->
<g id="edge58" class="edge"><title>Node42&#45;&gt;Node43</title>
<path fill="none" stroke="midnightblue" d="M219.094,-648.589C245.647,-655.453 280.68,-664.509 303.981,-670.532"/>
<polygon fill="midnightblue" stroke="midnightblue" points="303.23,-673.953 313.788,-673.068 304.982,-667.176 303.23,-673.953"/>
</g>
<!-- Node44 -->
<g id="node44" class="node"><title>Node44</title>
<g id="a_node44"><a xlink:href="../../db/d2f/openssl__pkcs12_8c.html#a7e59abc716b25d5f463f99e73e9cc58a" target="_top" xlink:title="add_cert">
<polygon fill="none" stroke="black" points="437,-667.5 437,-686.5 491,-686.5 491,-667.5 437,-667.5"/>
<text text-anchor="middle" x="464" y="-674.5" font-family="Helvetica,sans-Serif" font-size="10.00">add_cert</text>
</a>
</g>
</g>
<!-- Node42&#45;&gt;Node44 -->
<g id="edge59" class="edge"><title>Node42&#45;&gt;Node44</title>
<path fill="none" stroke="midnightblue" d="M194.014,-648.652C211.917,-662.349 247.23,-686.786 282,-696 331.135,-709.02 389.994,-698.173 426.951,-688.314"/>
<polygon fill="midnightblue" stroke="midnightblue" points="428.074,-691.634 436.768,-685.58 426.196,-684.891 428.074,-691.634"/>
</g>
<!-- Node45 -->
<g id="node45" class="node"><title>Node45</title>
<g id="a_node45"><a xlink:href="../../db/d2f/openssl__pkcs12_8c.html#ae134180ac8cebff7f4f91a70aa2dbb0b" target="_top" xlink:title="add_key">
<polygon fill="none" stroke="black" points="303.5,-743.5 303.5,-762.5 356.5,-762.5 356.5,-743.5 303.5,-743.5"/>
<text text-anchor="middle" x="330" y="-750.5" font-family="Helvetica,sans-Serif" font-size="10.00">add_key</text>
</a>
</g>
</g>
<!-- Node42&#45;&gt;Node45 -->
<g id="edge61" class="edge"><title>Node42&#45;&gt;Node45</title>
<path fill="none" stroke="midnightblue" d="M190.958,-648.571C207.669,-666.063 245.243,-703.719 282,-729 287.029,-732.459 292.624,-735.743 298.15,-738.709"/>
<polygon fill="midnightblue" stroke="midnightblue" points="296.775,-741.937 307.271,-743.375 299.962,-735.705 296.775,-741.937"/>
</g>
<!-- Node50 -->
<g id="node50" class="node"><title>Node50</title>
<g id="a_node50"><a xlink:href="../../db/ded/group__rwlock.html#ga3646a4244d6c3368a3fbb03354974838" target="_top" xlink:title="rwlock_create">
<polygon fill="none" stroke="black" points="291.5,-629.5 291.5,-648.5 368.5,-648.5 368.5,-629.5 291.5,-629.5"/>
<text text-anchor="middle" x="330" y="-636.5" font-family="Helvetica,sans-Serif" font-size="10.00">rwlock_create</text>
</a>
</g>
</g>
<!-- Node42&#45;&gt;Node50 -->
<g id="edge70" class="edge"><title>Node42&#45;&gt;Node50</title>
<path fill="none" stroke="midnightblue" d="M228.512,-639C245.229,-639 264.11,-639 280.956,-639"/>
<polygon fill="midnightblue" stroke="midnightblue" points="281.144,-642.5 291.144,-639 281.144,-635.5 281.144,-642.5"/>
</g>
<!-- Node44&#45;&gt;Node8 -->
<g id="edge60" class="edge"><title>Node44&#45;&gt;Node8</title>
<path fill="none" stroke="midnightblue" d="M491.341,-672.109C508.089,-669.137 530.261,-665.454 550,-663 723.278,-641.459 931.047,-627.651 1018.25,-622.397"/>
<polygon fill="midnightblue" stroke="midnightblue" points="1018.5,-625.888 1028.28,-621.799 1018.09,-618.901 1018.5,-625.888"/>
</g>
<!-- Node46 -->
<g id="node46" class="node"><title>Node46</title>
<g id="a_node46"><a xlink:href="../../d4/d87/group__chunk.html#gaaa5a9811df1bd2ae5e331748f7fbaf75" target="_top" xlink:title="chunk_clear">
<polygon fill="none" stroke="black" points="429.5,-743.5 429.5,-762.5 498.5,-762.5 498.5,-743.5 429.5,-743.5"/>
<text text-anchor="middle" x="464" y="-750.5" font-family="Helvetica,sans-Serif" font-size="10.00">chunk_clear</text>
</a>
</g>
</g>
<!-- Node45&#45;&gt;Node46 -->
<g id="edge62" class="edge"><title>Node45&#45;&gt;Node46</title>
<path fill="none" stroke="midnightblue" d="M356.764,-753C374.479,-753 398.448,-753 419.135,-753"/>
<polygon fill="midnightblue" stroke="midnightblue" points="419.293,-756.5 429.293,-753 419.293,-749.5 419.293,-756.5"/>
</g>
<!-- Node46&#45;&gt;Node8 -->
<g id="edge67" class="edge"><title>Node46&#45;&gt;Node8</title>
<path fill="none" stroke="midnightblue" d="M498.902,-745.35C514.463,-741.857 533.161,-737.686 550,-734 736.488,-693.177 784.381,-688.608 970,-644 985.994,-640.156 1003.49,-635.578 1018.76,-631.456"/>
<polygon fill="midnightblue" stroke="midnightblue" points="1019.71,-634.825 1028.44,-628.825 1017.87,-628.07 1019.71,-634.825"/>
</g>
<!-- Node47 -->
<g id="node47" class="node"><title>Node47</title>
<g id="a_node47"><a xlink:href="../../dd/d74/group__memory__i.html#ga6d5ce21860b55e0c54353999c4f4f077" target="_top" xlink:title="memwipe">
<polygon fill="none" stroke="black" points="578.5,-743.5 578.5,-762.5 637.5,-762.5 637.5,-743.5 578.5,-743.5"/>
<text text-anchor="middle" x="608" y="-750.5" font-family="Helvetica,sans-Serif" font-size="10.00">memwipe</text>
</a>
</g>
</g>
<!-- Node46&#45;&gt;Node47 -->
<g id="edge63" class="edge"><title>Node46&#45;&gt;Node47</title>
<path fill="none" stroke="midnightblue" d="M498.652,-753C519.514,-753 546.391,-753 568.156,-753"/>
<polygon fill="midnightblue" stroke="midnightblue" points="568.382,-756.5 578.382,-753 568.382,-749.5 568.382,-756.5"/>
</g>
<!-- Node48 -->
<g id="node48" class="node"><title>Node48</title>
<g id="a_node48"><a xlink:href="../../dd/d74/group__memory__i.html#ga4d6f7708d6b8ea1ec0fbe97b3885ce1e" target="_top" xlink:title="memwipe_inline">
<polygon fill="none" stroke="black" points="869,-762.5 869,-781.5 955,-781.5 955,-762.5 869,-762.5"/>
<text text-anchor="middle" x="912" y="-769.5" font-family="Helvetica,sans-Serif" font-size="10.00">memwipe_inline</text>
</a>
</g>
</g>
<!-- Node47&#45;&gt;Node48 -->
<g id="edge64" class="edge"><title>Node47&#45;&gt;Node48</title>
<path fill="none" stroke="midnightblue" d="M637.675,-760.417C655.944,-764.753 680.194,-769.795 702,-772 755.195,-777.378 816.395,-776.565 858.761,-774.906"/>
<polygon fill="midnightblue" stroke="midnightblue" points="858.998,-778.4 868.842,-774.482 858.703,-771.406 858.998,-778.4"/>
</g>
<!-- Node49 -->
<g id="node49" class="node"><title>Node49</title>
<g id="a_node49"><a xlink:href="../../dd/d74/group__memory__i.html#gabf6fa8b701d6f2052a551333b3694063" target="_top" xlink:title="memwipe_noinline">
<polygon fill="none" stroke="black" points="711.5,-743.5 711.5,-762.5 808.5,-762.5 808.5,-743.5 711.5,-743.5"/>
<text text-anchor="middle" x="760" y="-750.5" font-family="Helvetica,sans-Serif" font-size="10.00">memwipe_noinline</text>
</a>
</g>
</g>
<!-- Node47&#45;&gt;Node49 -->
<g id="edge65" class="edge"><title>Node47&#45;&gt;Node49</title>
<path fill="none" stroke="midnightblue" d="M637.567,-753C655.545,-753 679.392,-753 701.191,-753"/>
<polygon fill="midnightblue" stroke="midnightblue" points="701.363,-756.5 711.363,-753 701.363,-749.5 701.363,-756.5"/>
</g>
<!-- Node49&#45;&gt;Node48 -->
<g id="edge66" class="edge"><title>Node49&#45;&gt;Node48</title>
<path fill="none" stroke="midnightblue" d="M808.873,-759.064C824.628,-761.06 842.228,-763.289 858.32,-765.327"/>
<polygon fill="midnightblue" stroke="midnightblue" points="858.282,-768.85 868.642,-766.635 859.162,-761.906 858.282,-768.85"/>
</g>
</g>
</svg>
