<?xml version="1.0" encoding="UTF-8" standalone="no"?>
<!DOCTYPE svg PUBLIC "-//W3C//DTD SVG 1.1//EN"
 "http://www.w3.org/Graphics/SVG/1.1/DTD/svg11.dtd">
<!-- Generated by graphviz version 2.36.0 (20140111.2315)
 -->
<!-- Title: vici_message_create_from_enumerator Pages: 1 -->
<svg width="350pt" height="66pt"
 viewBox="0.00 0.00 350.00 66.00" xmlns="http://www.w3.org/2000/svg" xmlns:xlink="http://www.w3.org/1999/xlink">
<g id="graph0" class="graph" transform="scale(1 1) rotate(0) translate(4 62)">
<title>vici_message_create_from_enumerator</title>
<!-- Node1 -->
<g id="node1" class="node"><title>Node1</title>
<polygon fill="#bfbfbf" stroke="black" points="0.5,-14 0.5,-44 109.5,-44 109.5,-14 0.5,-14"/>
<text text-anchor="start" x="8.5" y="-32" font-family="Helvetica,sans-Serif" font-size="10.00">vici_message_create</text>
<text text-anchor="middle" x="55" y="-21" font-family="Helvetica,sans-Serif" font-size="10.00">_from_enumerator</text>
</g>
<!-- Node2 -->
<g id="node2" class="node"><title>Node2</title>
<g id="a_node2"><a xlink:href="../../d6/de4/test__request_8c.html#a6c377d121503a6af8e6b39ff9375c23d" target="_top" xlink:title="echo_cb">
<polygon fill="none" stroke="black" points="159.5,-38.5 159.5,-57.5 212.5,-57.5 212.5,-38.5 159.5,-38.5"/>
<text text-anchor="middle" x="186" y="-45.5" font-family="Helvetica,sans-Serif" font-size="10.00">echo_cb</text>
</a>
</g>
</g>
<!-- Node1&#45;&gt;Node2 -->
<g id="edge1" class="edge"><title>Node1&#45;&gt;Node2</title>
<path fill="none" stroke="midnightblue" d="M119.73,-38.3866C133.723,-40.4476 147.765,-42.5157 159.219,-44.2029"/>
<polygon fill="midnightblue" stroke="midnightblue" points="119.99,-34.8872 109.587,-36.8926 118.97,-41.8125 119.99,-34.8872"/>
</g>
<!-- Node4 -->
<g id="node4" class="node"><title>Node4</title>
<g id="a_node4"><a xlink:href="../../d9/d7a/test__message_8c.html#a130d68f5a75b11c826c34d0ed8f3d0b9" target="_top" xlink:title="START_TEST">
<polygon fill="none" stroke="black" points="146,-0.5 146,-19.5 226,-19.5 226,-0.5 146,-0.5"/>
<text text-anchor="middle" x="186" y="-7.5" font-family="Helvetica,sans-Serif" font-size="10.00">START_TEST</text>
</a>
</g>
</g>
<!-- Node1&#45;&gt;Node4 -->
<g id="edge3" class="edge"><title>Node1&#45;&gt;Node4</title>
<path fill="none" stroke="midnightblue" d="M119.664,-19.6231C128.631,-18.3025 137.618,-16.9787 145.935,-15.7538"/>
<polygon fill="midnightblue" stroke="midnightblue" points="118.97,-16.1875 109.587,-21.1074 119.99,-23.1128 118.97,-16.1875"/>
</g>
<!-- Node3 -->
<g id="node3" class="node"><title>Node3</title>
<g id="a_node3"><a xlink:href="../../d6/de4/test__request_8c.html#ac3091da86c226c6f028b842a7215d78d" target="_top" xlink:title="START_TEST">
<polygon fill="none" stroke="black" points="262,-38.5 262,-57.5 342,-57.5 342,-38.5 262,-38.5"/>
<text text-anchor="middle" x="302" y="-45.5" font-family="Helvetica,sans-Serif" font-size="10.00">START_TEST</text>
</a>
</g>
</g>
<!-- Node2&#45;&gt;Node3 -->
<g id="edge2" class="edge"><title>Node2&#45;&gt;Node3</title>
<path fill="none" stroke="midnightblue" d="M222.932,-48C235.235,-48 249.061,-48 261.621,-48"/>
<polygon fill="midnightblue" stroke="midnightblue" points="222.584,-44.5001 212.584,-48 222.584,-51.5001 222.584,-44.5001"/>
</g>
</g>
</svg>
