<?xml version="1.0" encoding="UTF-8" standalone="no"?>
<!DOCTYPE svg PUBLIC "-//W3C//DTD SVG 1.1//EN"
 "http://www.w3.org/Graphics/SVG/1.1/DTD/svg11.dtd">
<!-- Generated by graphviz version 2.36.0 (20140111.2315)
 -->
<!-- Title: load_pin Pages: 1 -->
<svg width="666pt" height="66pt"
 viewBox="0.00 0.00 666.00 66.00" xmlns="http://www.w3.org/2000/svg" xmlns:xlink="http://www.w3.org/1999/xlink">
<g id="graph0" class="graph" transform="scale(1 1) rotate(0) translate(4 62)">
<title>load_pin</title>
<!-- Node1 -->
<g id="node1" class="node"><title>Node1</title>
<polygon fill="#bfbfbf" stroke="black" points="0.5,-19.5 0.5,-38.5 53.5,-38.5 53.5,-19.5 0.5,-19.5"/>
<text text-anchor="middle" x="27" y="-26.5" font-family="Helvetica,sans-Serif" font-size="10.00">load_pin</text>
</g>
<!-- Node2 -->
<g id="node2" class="node"><title>Node2</title>
<g id="a_node2"><a xlink:href="../../d8/db1/stroke__cred_8c.html#a5d1f52721e54438ad930da40c5c991d7" target="_top" xlink:title="load_secrets">
<polygon fill="none" stroke="black" points="90,-19.5 90,-38.5 162,-38.5 162,-19.5 90,-19.5"/>
<text text-anchor="middle" x="126" y="-26.5" font-family="Helvetica,sans-Serif" font-size="10.00">load_secrets</text>
</a>
</g>
</g>
<!-- Node1&#45;&gt;Node2 -->
<g id="edge1" class="edge"><title>Node1&#45;&gt;Node2</title>
<path fill="none" stroke="midnightblue" d="M63.9887,-29C72.3713,-29 81.2892,-29 89.6442,-29"/>
<polygon fill="midnightblue" stroke="midnightblue" points="63.7396,-25.5001 53.7396,-29 63.7395,-32.5001 63.7396,-25.5001"/>
</g>
<!-- Node3 -->
<g id="node3" class="node"><title>Node3</title>
<g id="a_node3"><a xlink:href="../../d8/db1/stroke__cred_8c.html#ac707a0aa93f26613e2ae29b1970c4798" target="_top" xlink:title="METHOD">
<polygon fill="none" stroke="black" points="218,-38.5 218,-57.5 278,-57.5 278,-38.5 218,-38.5"/>
<text text-anchor="middle" x="248" y="-45.5" font-family="Helvetica,sans-Serif" font-size="10.00">METHOD</text>
</a>
</g>
</g>
<!-- Node2&#45;&gt;Node3 -->
<g id="edge2" class="edge"><title>Node2&#45;&gt;Node3</title>
<path fill="none" stroke="midnightblue" d="M172.313,-36.1746C187.552,-38.5873 204.136,-41.2132 217.798,-43.3764"/>
<polygon fill="midnightblue" stroke="midnightblue" points="172.456,-32.6537 162.032,-34.5467 171.361,-39.5675 172.456,-32.6537"/>
</g>
<!-- Node4 -->
<g id="node4" class="node"><title>Node4</title>
<g id="a_node4"><a xlink:href="../../d4/ddf/group__stroke__cred.html#ga54afc73bedd2dda57cfbeb130062849a" target="_top" xlink:title="stroke_cred_create">
<polygon fill="none" stroke="black" points="198,-0.5 198,-19.5 298,-19.5 298,-0.5 198,-0.5"/>
<text text-anchor="middle" x="248" y="-7.5" font-family="Helvetica,sans-Serif" font-size="10.00">stroke_cred_create</text>
</a>
</g>
</g>
<!-- Node2&#45;&gt;Node4 -->
<g id="edge3" class="edge"><title>Node2&#45;&gt;Node4</title>
<path fill="none" stroke="midnightblue" d="M172.056,-21.8661C180.485,-20.5315 189.334,-19.1304 197.879,-17.7775"/>
<polygon fill="midnightblue" stroke="midnightblue" points="171.361,-18.4325 162.032,-23.4533 172.456,-25.3463 171.361,-18.4325"/>
</g>
<!-- Node5 -->
<g id="node5" class="node"><title>Node5</title>
<g id="a_node5"><a xlink:href="../../d3/d5b/group__stroke__socket.html#gad1f5f8940280e2e2b5066540a33f75af" target="_top" xlink:title="stroke_socket_create">
<polygon fill="none" stroke="black" points="334,-0.5 334,-19.5 444,-19.5 444,-0.5 334,-0.5"/>
<text text-anchor="middle" x="389" y="-7.5" font-family="Helvetica,sans-Serif" font-size="10.00">stroke_socket_create</text>
</a>
</g>
</g>
<!-- Node4&#45;&gt;Node5 -->
<g id="edge4" class="edge"><title>Node4&#45;&gt;Node5</title>
<path fill="none" stroke="midnightblue" d="M308.211,-10C316.691,-10 325.38,-10 333.758,-10"/>
<polygon fill="midnightblue" stroke="midnightblue" points="308.006,-6.5001 298.006,-10 308.006,-13.5001 308.006,-6.5001"/>
</g>
<!-- Node6 -->
<g id="node6" class="node"><title>Node6</title>
<g id="a_node6"><a xlink:href="../../d0/d10/stroke__plugin_8c.html#a6fec94fe501805d572fe2fb64018d91a" target="_top" xlink:title="register_stroke">
<polygon fill="none" stroke="black" points="480.5,-0.5 480.5,-19.5 561.5,-19.5 561.5,-0.5 480.5,-0.5"/>
<text text-anchor="middle" x="521" y="-7.5" font-family="Helvetica,sans-Serif" font-size="10.00">register_stroke</text>
</a>
</g>
</g>
<!-- Node5&#45;&gt;Node6 -->
<g id="edge5" class="edge"><title>Node5&#45;&gt;Node6</title>
<path fill="none" stroke="midnightblue" d="M454.042,-10C462.975,-10 471.932,-10 480.238,-10"/>
<polygon fill="midnightblue" stroke="midnightblue" points="454.002,-6.5001 444.002,-10 454.002,-13.5001 454.002,-6.5001"/>
</g>
<!-- Node7 -->
<g id="node7" class="node"><title>Node7</title>
<g id="a_node7"><a xlink:href="../../d0/d10/stroke__plugin_8c.html#a5df13da493d5d6ff660fcf6f2eca38ca" target="_top" xlink:title="METHOD">
<polygon fill="none" stroke="black" points="598,-0.5 598,-19.5 658,-19.5 658,-0.5 598,-0.5"/>
<text text-anchor="middle" x="628" y="-7.5" font-family="Helvetica,sans-Serif" font-size="10.00">METHOD</text>
</a>
</g>
</g>
<!-- Node6&#45;&gt;Node7 -->
<g id="edge6" class="edge"><title>Node6&#45;&gt;Node7</title>
<path fill="none" stroke="midnightblue" d="M571.954,-10C580.782,-10 589.705,-10 597.723,-10"/>
<polygon fill="midnightblue" stroke="midnightblue" points="571.696,-6.5001 561.696,-10 571.696,-13.5001 571.696,-6.5001"/>
</g>
</g>
</svg>
