<?xml version="1.0" encoding="UTF-8" standalone="no"?>
<!DOCTYPE svg PUBLIC "-//W3C//DTD SVG 1.1//EN"
 "http://www.w3.org/Graphics/SVG/1.1/DTD/svg11.dtd">
<!-- Generated by graphviz version 2.36.0 (20140111.2315)
 -->
<!-- Title: parse_smartcard Pages: 1 -->
<svg width="1048pt" height="142pt"
 viewBox="0.00 0.00 1048.00 142.00" xmlns="http://www.w3.org/2000/svg" xmlns:xlink="http://www.w3.org/1999/xlink">
<g id="graph0" class="graph" transform="scale(1 1) rotate(0) translate(4 138)">
<title>parse_smartcard</title>
<!-- Node1 -->
<g id="node1" class="node"><title>Node1</title>
<polygon fill="#bfbfbf" stroke="black" points="0.5,-38.5 0.5,-57.5 89.5,-57.5 89.5,-38.5 0.5,-38.5"/>
<text text-anchor="middle" x="45" y="-45.5" font-family="Helvetica,sans-Serif" font-size="10.00">parse_smartcard</text>
</g>
<!-- Node2 -->
<g id="node2" class="node"><title>Node2</title>
<g id="a_node2"><a xlink:href="../../d8/db1/stroke__cred_8c.html#a9de70cdcbd0f10bc10f6b1c9754a2014" target="_top" xlink:title="load_ca_cert">
<polygon fill="none" stroke="black" points="126,-76.5 126,-95.5 198,-95.5 198,-76.5 126,-76.5"/>
<text text-anchor="middle" x="162" y="-83.5" font-family="Helvetica,sans-Serif" font-size="10.00">load_ca_cert</text>
</a>
</g>
</g>
<!-- Node1&#45;&gt;Node2 -->
<g id="edge1" class="edge"><title>Node1&#45;&gt;Node2</title>
<path fill="none" stroke="midnightblue" d="M84.8153,-60.8259C100.246,-65.9247 117.691,-71.6891 131.99,-76.4141"/>
<polygon fill="midnightblue" stroke="midnightblue" points="85.6126,-57.4033 75.0194,-57.589 83.4163,-64.0498 85.6126,-57.4033"/>
</g>
<!-- Node13 -->
<g id="node13" class="node"><title>Node13</title>
<g id="a_node13"><a xlink:href="../../d8/db1/stroke__cred_8c.html#a25593b326e244c6344a53cc2c19d5360" target="_top" xlink:title="load_pin">
<polygon fill="none" stroke="black" points="135.5,-38.5 135.5,-57.5 188.5,-57.5 188.5,-38.5 135.5,-38.5"/>
<text text-anchor="middle" x="162" y="-45.5" font-family="Helvetica,sans-Serif" font-size="10.00">load_pin</text>
</a>
</g>
</g>
<!-- Node1&#45;&gt;Node13 -->
<g id="edge12" class="edge"><title>Node1&#45;&gt;Node13</title>
<path fill="none" stroke="midnightblue" d="M100.034,-48C112.331,-48 124.84,-48 135.3,-48"/>
<polygon fill="midnightblue" stroke="midnightblue" points="99.8047,-44.5001 89.8046,-48 99.8046,-51.5001 99.8047,-44.5001"/>
</g>
<!-- Node15 -->
<g id="node15" class="node"><title>Node15</title>
<g id="a_node15"><a xlink:href="../../d8/db1/stroke__cred_8c.html#a83d08de90981f75f189733d4b940e15e" target="_top" xlink:title="METHOD">
<polygon fill="none" stroke="black" points="132,-0.5 132,-19.5 192,-19.5 192,-0.5 132,-0.5"/>
<text text-anchor="middle" x="162" y="-7.5" font-family="Helvetica,sans-Serif" font-size="10.00">METHOD</text>
</a>
</g>
</g>
<!-- Node1&#45;&gt;Node15 -->
<g id="edge16" class="edge"><title>Node1&#45;&gt;Node15</title>
<path fill="none" stroke="midnightblue" d="M84.8153,-35.1741C100.246,-30.0753 117.691,-24.3109 131.99,-19.5859"/>
<polygon fill="midnightblue" stroke="midnightblue" points="83.4163,-31.9502 75.0194,-38.411 85.6126,-38.5967 83.4163,-31.9502"/>
</g>
<!-- Node3 -->
<g id="node3" class="node"><title>Node3</title>
<g id="a_node3"><a xlink:href="../../d8/db1/stroke__cred_8c.html#aa9c723543d25f175d08a3df8a2c90cc5" target="_top" xlink:title="load_x509_ca">
<polygon fill="none" stroke="black" points="247.5,-114.5 247.5,-133.5 324.5,-133.5 324.5,-114.5 247.5,-114.5"/>
<text text-anchor="middle" x="286" y="-121.5" font-family="Helvetica,sans-Serif" font-size="10.00">load_x509_ca</text>
</a>
</g>
</g>
<!-- Node2&#45;&gt;Node3 -->
<g id="edge2" class="edge"><title>Node2&#45;&gt;Node3</title>
<path fill="none" stroke="midnightblue" d="M203.711,-98.6804C220.195,-103.815 238.91,-109.644 254.224,-114.414"/>
<polygon fill="midnightblue" stroke="midnightblue" points="204.374,-95.2213 193.786,-95.589 202.292,-101.905 204.374,-95.2213"/>
</g>
<!-- Node11 -->
<g id="node11" class="node"><title>Node11</title>
<g id="a_node11"><a xlink:href="../../d8/db1/stroke__cred_8c.html#a364d3f45dcbef62e0c8a0f0ccd660f83" target="_top" xlink:title="stroke_load_ca_cert">
<polygon fill="none" stroke="black" points="234,-76.5 234,-95.5 338,-95.5 338,-76.5 234,-76.5"/>
<text text-anchor="middle" x="286" y="-83.5" font-family="Helvetica,sans-Serif" font-size="10.00">stroke_load_ca_cert</text>
</a>
</g>
</g>
<!-- Node2&#45;&gt;Node11 -->
<g id="edge10" class="edge"><title>Node2&#45;&gt;Node11</title>
<path fill="none" stroke="midnightblue" d="M208.509,-86C216.79,-86 225.48,-86 233.91,-86"/>
<polygon fill="midnightblue" stroke="midnightblue" points="208.287,-82.5001 198.287,-86 208.287,-89.5001 208.287,-82.5001"/>
</g>
<!-- Node4 -->
<g id="node4" class="node"><title>Node4</title>
<g id="a_node4"><a xlink:href="../../d8/db1/stroke__cred_8c.html#a5bf51c95808970df218bb2ce2050faf3" target="_top" xlink:title="load_certdir">
<polygon fill="none" stroke="black" points="376.5,-114.5 376.5,-133.5 443.5,-133.5 443.5,-114.5 376.5,-114.5"/>
<text text-anchor="middle" x="410" y="-121.5" font-family="Helvetica,sans-Serif" font-size="10.00">load_certdir</text>
</a>
</g>
</g>
<!-- Node3&#45;&gt;Node4 -->
<g id="edge3" class="edge"><title>Node3&#45;&gt;Node4</title>
<path fill="none" stroke="midnightblue" d="M334.952,-124C348.796,-124 363.58,-124 376.269,-124"/>
<polygon fill="midnightblue" stroke="midnightblue" points="334.6,-120.5 324.6,-124 334.599,-127.5 334.6,-120.5"/>
</g>
<!-- Node5 -->
<g id="node5" class="node"><title>Node5</title>
<g id="a_node5"><a xlink:href="../../d8/db1/stroke__cred_8c.html#acf19df8cc4728b374a21b22f4ca64892" target="_top" xlink:title="load_certs">
<polygon fill="none" stroke="black" points="482,-114.5 482,-133.5 544,-133.5 544,-114.5 482,-114.5"/>
<text text-anchor="middle" x="513" y="-121.5" font-family="Helvetica,sans-Serif" font-size="10.00">load_certs</text>
</a>
</g>
</g>
<!-- Node4&#45;&gt;Node5 -->
<g id="edge4" class="edge"><title>Node4&#45;&gt;Node5</title>
<path fill="none" stroke="midnightblue" d="M453.63,-124C463.152,-124 473.058,-124 481.947,-124"/>
<polygon fill="midnightblue" stroke="midnightblue" points="453.513,-120.5 443.513,-124 453.513,-127.5 453.513,-120.5"/>
</g>
<!-- Node10 -->
<g id="node10" class="node"><title>Node10</title>
<g id="a_node10"><a xlink:href="../../d8/db1/stroke__cred_8c.html#ac707a0aa93f26613e2ae29b1970c4798" target="_top" xlink:title="METHOD">
<polygon fill="none" stroke="black" points="483,-76.5 483,-95.5 543,-95.5 543,-76.5 483,-76.5"/>
<text text-anchor="middle" x="513" y="-83.5" font-family="Helvetica,sans-Serif" font-size="10.00">METHOD</text>
</a>
</g>
</g>
<!-- Node4&#45;&gt;Node10 -->
<g id="edge9" class="edge"><title>Node4&#45;&gt;Node10</title>
<path fill="none" stroke="midnightblue" d="M445.866,-110.882C459.225,-105.856 474.202,-100.221 486.522,-95.5859"/>
<polygon fill="midnightblue" stroke="midnightblue" points="444.614,-107.614 436.487,-114.411 447.079,-114.165 444.614,-107.614"/>
</g>
<!-- Node6 -->
<g id="node6" class="node"><title>Node6</title>
<g id="a_node6"><a xlink:href="../../d4/ddf/group__stroke__cred.html#ga54afc73bedd2dda57cfbeb130062849a" target="_top" xlink:title="stroke_cred_create">
<polygon fill="none" stroke="black" points="580,-76.5 580,-95.5 680,-95.5 680,-76.5 580,-76.5"/>
<text text-anchor="middle" x="630" y="-83.5" font-family="Helvetica,sans-Serif" font-size="10.00">stroke_cred_create</text>
</a>
</g>
</g>
<!-- Node5&#45;&gt;Node6 -->
<g id="edge5" class="edge"><title>Node5&#45;&gt;Node6</title>
<path fill="none" stroke="midnightblue" d="M552.815,-111.174C568.246,-106.075 585.691,-100.311 599.99,-95.5859"/>
<polygon fill="midnightblue" stroke="midnightblue" points="551.416,-107.95 543.019,-114.411 553.613,-114.597 551.416,-107.95"/>
</g>
<!-- Node7 -->
<g id="node7" class="node"><title>Node7</title>
<g id="a_node7"><a xlink:href="../../d3/d5b/group__stroke__socket.html#gad1f5f8940280e2e2b5066540a33f75af" target="_top" xlink:title="stroke_socket_create">
<polygon fill="none" stroke="black" points="716,-76.5 716,-95.5 826,-95.5 826,-76.5 716,-76.5"/>
<text text-anchor="middle" x="771" y="-83.5" font-family="Helvetica,sans-Serif" font-size="10.00">stroke_socket_create</text>
</a>
</g>
</g>
<!-- Node6&#45;&gt;Node7 -->
<g id="edge6" class="edge"><title>Node6&#45;&gt;Node7</title>
<path fill="none" stroke="midnightblue" d="M690.211,-86C698.691,-86 707.38,-86 715.758,-86"/>
<polygon fill="midnightblue" stroke="midnightblue" points="690.006,-82.5001 680.006,-86 690.006,-89.5001 690.006,-82.5001"/>
</g>
<!-- Node8 -->
<g id="node8" class="node"><title>Node8</title>
<g id="a_node8"><a xlink:href="../../d0/d10/stroke__plugin_8c.html#a6fec94fe501805d572fe2fb64018d91a" target="_top" xlink:title="register_stroke">
<polygon fill="none" stroke="black" points="862.5,-76.5 862.5,-95.5 943.5,-95.5 943.5,-76.5 862.5,-76.5"/>
<text text-anchor="middle" x="903" y="-83.5" font-family="Helvetica,sans-Serif" font-size="10.00">register_stroke</text>
</a>
</g>
</g>
<!-- Node7&#45;&gt;Node8 -->
<g id="edge7" class="edge"><title>Node7&#45;&gt;Node8</title>
<path fill="none" stroke="midnightblue" d="M836.042,-86C844.975,-86 853.932,-86 862.238,-86"/>
<polygon fill="midnightblue" stroke="midnightblue" points="836.002,-82.5001 826.002,-86 836.002,-89.5001 836.002,-82.5001"/>
</g>
<!-- Node9 -->
<g id="node9" class="node"><title>Node9</title>
<g id="a_node9"><a xlink:href="../../d0/d10/stroke__plugin_8c.html#a5df13da493d5d6ff660fcf6f2eca38ca" target="_top" xlink:title="METHOD">
<polygon fill="none" stroke="black" points="980,-76.5 980,-95.5 1040,-95.5 1040,-76.5 980,-76.5"/>
<text text-anchor="middle" x="1010" y="-83.5" font-family="Helvetica,sans-Serif" font-size="10.00">METHOD</text>
</a>
</g>
</g>
<!-- Node8&#45;&gt;Node9 -->
<g id="edge8" class="edge"><title>Node8&#45;&gt;Node9</title>
<path fill="none" stroke="midnightblue" d="M953.954,-86C962.782,-86 971.705,-86 979.723,-86"/>
<polygon fill="midnightblue" stroke="midnightblue" points="953.696,-82.5001 943.696,-86 953.696,-89.5001 953.696,-82.5001"/>
</g>
<!-- Node12 -->
<g id="node12" class="node"><title>Node12</title>
<g id="a_node12"><a xlink:href="../../df/d16/stroke__ca_8c.html#a7340bb6e5246c65a8a4fd6615a1de253" target="_top" xlink:title="METHOD">
<polygon fill="none" stroke="black" points="380,-76.5 380,-95.5 440,-95.5 440,-76.5 380,-76.5"/>
<text text-anchor="middle" x="410" y="-83.5" font-family="Helvetica,sans-Serif" font-size="10.00">METHOD</text>
</a>
</g>
</g>
<!-- Node11&#45;&gt;Node12 -->
<g id="edge11" class="edge"><title>Node11&#45;&gt;Node12</title>
<path fill="none" stroke="midnightblue" d="M348.122,-86C359.152,-86 370.177,-86 379.754,-86"/>
<polygon fill="midnightblue" stroke="midnightblue" points="348.032,-82.5001 338.032,-86 348.032,-89.5001 348.032,-82.5001"/>
</g>
<!-- Node14 -->
<g id="node14" class="node"><title>Node14</title>
<g id="a_node14"><a xlink:href="../../d8/db1/stroke__cred_8c.html#a5d1f52721e54438ad930da40c5c991d7" target="_top" xlink:title="load_secrets">
<polygon fill="none" stroke="black" points="374,-38.5 374,-57.5 446,-57.5 446,-38.5 374,-38.5"/>
<text text-anchor="middle" x="410" y="-45.5" font-family="Helvetica,sans-Serif" font-size="10.00">load_secrets</text>
</a>
</g>
</g>
<!-- Node13&#45;&gt;Node14 -->
<g id="edge13" class="edge"><title>Node13&#45;&gt;Node14</title>
<path fill="none" stroke="midnightblue" d="M199.152,-48C246.004,-48 327.177,-48 373.639,-48"/>
<polygon fill="midnightblue" stroke="midnightblue" points="198.861,-44.5001 188.861,-48 198.861,-51.5001 198.861,-44.5001"/>
</g>
<!-- Node14&#45;&gt;Node6 -->
<g id="edge15" class="edge"><title>Node14&#45;&gt;Node6</title>
<path fill="none" stroke="midnightblue" d="M456.349,-53.5866C482.128,-56.9851 514.961,-61.6887 544,-67 558.874,-69.7206 575.098,-73.2149 589.347,-76.4633"/>
<polygon fill="midnightblue" stroke="midnightblue" points="456.492,-50.0758 446.124,-52.258 455.59,-57.0174 456.492,-50.0758"/>
</g>
<!-- Node14&#45;&gt;Node10 -->
<g id="edge14" class="edge"><title>Node14&#45;&gt;Node10</title>
<path fill="none" stroke="midnightblue" d="M445.866,-61.118C459.225,-66.1439 474.202,-71.7791 486.522,-76.4141"/>
<polygon fill="midnightblue" stroke="midnightblue" points="447.079,-57.8346 436.487,-57.589 444.614,-64.3863 447.079,-57.8346"/>
</g>
</g>
</svg>
