<?xml version="1.0" encoding="UTF-8" standalone="no"?>
<!DOCTYPE svg PUBLIC "-//W3C//DTD SVG 1.1//EN"
 "http://www.w3.org/Graphics/SVG/1.1/DTD/svg11.dtd">
<!-- Generated by graphviz version 2.36.0 (20140111.2315)
 -->
<!-- Title: load_certs Pages: 1 -->
<svg width="932pt" height="990pt"
 viewBox="0.00 0.00 932.00 990.00" xmlns="http://www.w3.org/2000/svg" xmlns:xlink="http://www.w3.org/1999/xlink">
<g id="graph0" class="graph" transform="scale(1 1) rotate(0) translate(4 986)">
<title>load_certs</title>
<!-- Node1 -->
<g id="node1" class="node"><title>Node1</title>
<polygon fill="#bfbfbf" stroke="black" points="0,-557.5 0,-576.5 62,-576.5 62,-557.5 0,-557.5"/>
<text text-anchor="middle" x="31" y="-564.5" font-family="Helvetica,sans-Serif" font-size="10.00">load_certs</text>
</g>
<!-- Node2 -->
<g id="node2" class="node"><title>Node2</title>
<g id="a_node2"><a xlink:href="../../d8/db1/stroke__cred_8c.html#a5bf51c95808970df218bb2ce2050faf3" target="_top" xlink:title="load_certdir">
<polygon fill="none" stroke="black" points="112.5,-304.5 112.5,-323.5 179.5,-323.5 179.5,-304.5 112.5,-304.5"/>
<text text-anchor="middle" x="146" y="-311.5" font-family="Helvetica,sans-Serif" font-size="10.00">load_certdir</text>
</a>
</g>
</g>
<!-- Node1&#45;&gt;Node2 -->
<g id="edge1" class="edge"><title>Node1&#45;&gt;Node2</title>
<path fill="none" stroke="midnightblue" d="M36.2917,-557.391C53.0026,-519.977 113.908,-383.612 136.495,-333.041"/>
<polygon fill="midnightblue" stroke="midnightblue" points="139.822,-334.177 140.704,-323.619 133.43,-331.322 139.822,-334.177"/>
</g>
<!-- Node25 -->
<g id="node25" class="node"><title>Node25</title>
<g id="a_node25"><a xlink:href="../../d8/d02/group__mem__cred.html#gaa52fd614922d5b94956113247f386f21" target="_top" xlink:title="mem_cred_create">
<polygon fill="none" stroke="black" points="98.5,-810.5 98.5,-829.5 193.5,-829.5 193.5,-810.5 98.5,-810.5"/>
<text text-anchor="middle" x="146" y="-817.5" font-family="Helvetica,sans-Serif" font-size="10.00">mem_cred_create</text>
</a>
</g>
</g>
<!-- Node1&#45;&gt;Node25 -->
<g id="edge31" class="edge"><title>Node1&#45;&gt;Node25</title>
<path fill="none" stroke="midnightblue" d="M36.2917,-576.609C53.0026,-614.023 113.908,-750.388 136.495,-800.959"/>
<polygon fill="midnightblue" stroke="midnightblue" points="133.43,-802.678 140.704,-810.381 139.822,-799.823 133.43,-802.678"/>
</g>
<!-- Node3 -->
<g id="node3" class="node"><title>Node3</title>
<g id="a_node3"><a xlink:href="../../d3/de6/group__enumerator.html#ga92a12e35d2e39ebd1f316bd818297cc0" target="_top" xlink:title="enumerator_create_directory">
<polygon fill="none" stroke="black" points="358,-380.5 358,-399.5 498,-399.5 498,-380.5 358,-380.5"/>
<text text-anchor="middle" x="428" y="-387.5" font-family="Helvetica,sans-Serif" font-size="10.00">enumerator_create_directory</text>
</a>
</g>
</g>
<!-- Node2&#45;&gt;Node3 -->
<g id="edge2" class="edge"><title>Node2&#45;&gt;Node3</title>
<path fill="none" stroke="midnightblue" d="M157.277,-323.687C172.055,-336.96 200.76,-360.361 230,-371 267.188,-384.531 310.788,-389.733 347.504,-391.361"/>
<polygon fill="midnightblue" stroke="midnightblue" points="347.546,-394.865 357.666,-391.729 347.799,-387.869 347.546,-394.865"/>
</g>
<!-- Node8 -->
<g id="node8" class="node"><title>Node8</title>
<g id="a_node8"><a xlink:href="../../d8/db1/stroke__cred_8c.html#a62b511705679d0254e7cdd614fa47684" target="_top" xlink:title="load_x509">
<polygon fill="none" stroke="black" points="245.5,-228.5 245.5,-247.5 306.5,-247.5 306.5,-228.5 245.5,-228.5"/>
<text text-anchor="middle" x="276" y="-235.5" font-family="Helvetica,sans-Serif" font-size="10.00">load_x509</text>
</a>
</g>
</g>
<!-- Node2&#45;&gt;Node8 -->
<g id="edge8" class="edge"><title>Node2&#45;&gt;Node8</title>
<path fill="none" stroke="midnightblue" d="M159.151,-304.488C174.893,-292.443 203.47,-271.516 230,-257 233.32,-255.184 236.85,-253.423 240.415,-251.754"/>
<polygon fill="midnightblue" stroke="midnightblue" points="242.102,-254.835 249.818,-247.575 239.259,-248.438 242.102,-254.835"/>
</g>
<!-- Node9 -->
<g id="node9" class="node"><title>Node9</title>
<g id="a_node9"><a xlink:href="../../d8/db1/stroke__cred_8c.html#a49fcca1422fafc874f1a800aa7a4ecc1" target="_top" xlink:title="load_x509_aa">
<polygon fill="none" stroke="black" points="237.5,-190.5 237.5,-209.5 314.5,-209.5 314.5,-190.5 237.5,-190.5"/>
<text text-anchor="middle" x="276" y="-197.5" font-family="Helvetica,sans-Serif" font-size="10.00">load_x509_aa</text>
</a>
</g>
</g>
<!-- Node2&#45;&gt;Node9 -->
<g id="edge9" class="edge"><title>Node2&#45;&gt;Node9</title>
<path fill="none" stroke="midnightblue" d="M153.189,-304.364C165.658,-285.617 195.571,-243.898 230,-219 232.463,-217.219 235.119,-215.564 237.864,-214.035"/>
<polygon fill="midnightblue" stroke="midnightblue" points="239.424,-217.168 246.817,-209.579 236.305,-210.901 239.424,-217.168"/>
</g>
<!-- Node10 -->
<g id="node10" class="node"><title>Node10</title>
<g id="a_node10"><a xlink:href="../../d8/db1/stroke__cred_8c.html#a33dcc8c3e7db5f2adf214366f7f567bc" target="_top" xlink:title="load_x509_ac">
<polygon fill="none" stroke="black" points="237.5,-304.5 237.5,-323.5 314.5,-323.5 314.5,-304.5 237.5,-304.5"/>
<text text-anchor="middle" x="276" y="-311.5" font-family="Helvetica,sans-Serif" font-size="10.00">load_x509_ac</text>
</a>
</g>
</g>
<!-- Node2&#45;&gt;Node10 -->
<g id="edge10" class="edge"><title>Node2&#45;&gt;Node10</title>
<path fill="none" stroke="midnightblue" d="M179.631,-314C194.092,-314 211.391,-314 227.262,-314"/>
<polygon fill="midnightblue" stroke="midnightblue" points="227.44,-317.5 237.44,-314 227.44,-310.5 227.44,-317.5"/>
</g>
<!-- Node11 -->
<g id="node11" class="node"><title>Node11</title>
<g id="a_node11"><a xlink:href="../../d8/db1/stroke__cred_8c.html#aa9c723543d25f175d08a3df8a2c90cc5" target="_top" xlink:title="load_x509_ca">
<polygon fill="none" stroke="black" points="237.5,-342.5 237.5,-361.5 314.5,-361.5 314.5,-342.5 237.5,-342.5"/>
<text text-anchor="middle" x="276" y="-349.5" font-family="Helvetica,sans-Serif" font-size="10.00">load_x509_ca</text>
</a>
</g>
</g>
<!-- Node2&#45;&gt;Node11 -->
<g id="edge11" class="edge"><title>Node2&#45;&gt;Node11</title>
<path fill="none" stroke="midnightblue" d="M179.3,-323.589C195.52,-328.404 215.375,-334.299 232.787,-339.468"/>
<polygon fill="midnightblue" stroke="midnightblue" points="232.128,-342.923 242.711,-342.414 234.12,-336.213 232.128,-342.923"/>
</g>
<!-- Node24 -->
<g id="node24" class="node"><title>Node24</title>
<g id="a_node24"><a xlink:href="../../d8/db1/stroke__cred_8c.html#aeb39ff74829b983c2fa64fabbef3ef94" target="_top" xlink:title="load_x509_crl">
<polygon fill="none" stroke="black" points="237.5,-266.5 237.5,-285.5 314.5,-285.5 314.5,-266.5 237.5,-266.5"/>
<text text-anchor="middle" x="276" y="-273.5" font-family="Helvetica,sans-Serif" font-size="10.00">load_x509_crl</text>
</a>
</g>
</g>
<!-- Node2&#45;&gt;Node24 -->
<g id="edge30" class="edge"><title>Node2&#45;&gt;Node24</title>
<path fill="none" stroke="midnightblue" d="M179.3,-304.411C195.52,-299.596 215.375,-293.701 232.787,-288.532"/>
<polygon fill="midnightblue" stroke="midnightblue" points="234.12,-291.787 242.711,-285.586 232.128,-285.077 234.12,-291.787"/>
</g>
<!-- Node4 -->
<g id="node4" class="node"><title>Node4</title>
<g id="a_node4"><a xlink:href="../../de/d46/enumerator_8c.html#ac7dea07bcb773c647b0ea6d615d14e55" target="_top" xlink:title="enumerate_dir_enum">
<polygon fill="none" stroke="black" points="538.5,-342.5 538.5,-361.5 645.5,-361.5 645.5,-342.5 538.5,-342.5"/>
<text text-anchor="middle" x="592" y="-349.5" font-family="Helvetica,sans-Serif" font-size="10.00">enumerate_dir_enum</text>
</a>
</g>
</g>
<!-- Node3&#45;&gt;Node4 -->
<g id="edge3" class="edge"><title>Node3&#45;&gt;Node4</title>
<path fill="none" stroke="midnightblue" d="M469.879,-380.411C491.353,-375.374 517.86,-369.156 540.597,-363.823"/>
<polygon fill="midnightblue" stroke="midnightblue" points="541.478,-367.211 550.415,-361.52 539.879,-360.396 541.478,-367.211"/>
</g>
<!-- Node6 -->
<g id="node6" class="node"><title>Node6</title>
<g id="a_node6"><a xlink:href="../../de/d46/enumerator_8c.html#a9ab314b6f9e59b8cfd5e16f50ae7a347" target="_top" xlink:title="destroy_dir_enum">
<polygon fill="none" stroke="black" points="697,-418.5 697,-437.5 791,-437.5 791,-418.5 697,-418.5"/>
<text text-anchor="middle" x="744" y="-425.5" font-family="Helvetica,sans-Serif" font-size="10.00">destroy_dir_enum</text>
</a>
</g>
</g>
<!-- Node3&#45;&gt;Node6 -->
<g id="edge5" class="edge"><title>Node3&#45;&gt;Node6</title>
<path fill="none" stroke="midnightblue" d="M498.165,-399.404C510.111,-400.976 522.411,-402.562 534,-404 585.733,-410.419 644.748,-417.141 686.844,-421.832"/>
<polygon fill="midnightblue" stroke="midnightblue" points="686.572,-425.323 696.898,-422.95 687.346,-418.366 686.572,-425.323"/>
</g>
<!-- Node7 -->
<g id="node7" class="node"><title>Node7</title>
<g id="a_node7"><a xlink:href="../../da/dfc/settings__parser_8c.html#af07d89f5ceaea0c7c8252cc41fd75f37" target="_top" xlink:title="free">
<polygon fill="none" stroke="black" points="864.5,-418.5 864.5,-437.5 897.5,-437.5 897.5,-418.5 864.5,-418.5"/>
<text text-anchor="middle" x="881" y="-425.5" font-family="Helvetica,sans-Serif" font-size="10.00">free</text>
</a>
</g>
</g>
<!-- Node3&#45;&gt;Node7 -->
<g id="edge7" class="edge"><title>Node3&#45;&gt;Node7</title>
<path fill="none" stroke="midnightblue" d="M498.126,-389.648C573.291,-390.165 696.776,-393.644 802,-409 819.817,-411.6 839.515,-416.415 854.659,-420.546"/>
<polygon fill="midnightblue" stroke="midnightblue" points="853.762,-423.93 864.336,-423.262 855.653,-417.19 853.762,-423.93"/>
</g>
<!-- Node5 -->
<g id="node5" class="node"><title>Node5</title>
<g id="a_node5"><a xlink:href="../../d4/d40/group__string__i.html#ga65c3d08890165aaa4663c72d07f93bb7" target="_top" xlink:title="streq">
<polygon fill="none" stroke="black" points="725,-342.5 725,-361.5 763,-361.5 763,-342.5 725,-342.5"/>
<text text-anchor="middle" x="744" y="-349.5" font-family="Helvetica,sans-Serif" font-size="10.00">streq</text>
</a>
</g>
</g>
<!-- Node4&#45;&gt;Node5 -->
<g id="edge4" class="edge"><title>Node4&#45;&gt;Node5</title>
<path fill="none" stroke="midnightblue" d="M645.884,-352C668.978,-352 695.143,-352 714.492,-352"/>
<polygon fill="midnightblue" stroke="midnightblue" points="714.749,-355.5 724.749,-352 714.749,-348.5 714.749,-355.5"/>
</g>
<!-- Node6&#45;&gt;Node7 -->
<g id="edge6" class="edge"><title>Node6&#45;&gt;Node7</title>
<path fill="none" stroke="midnightblue" d="M791.082,-428C812.209,-428 836.459,-428 854.293,-428"/>
<polygon fill="midnightblue" stroke="midnightblue" points="854.482,-431.5 864.482,-428 854.482,-424.5 854.482,-431.5"/>
</g>
<!-- Node12 -->
<g id="node12" class="node"><title>Node12</title>
<g id="a_node12"><a xlink:href="../../d8/db1/stroke__cred_8c.html#a9de70cdcbd0f10bc10f6b1c9754a2014" target="_top" xlink:title="load_ca_cert">
<polygon fill="none" stroke="black" points="392,-266.5 392,-285.5 464,-285.5 464,-266.5 392,-266.5"/>
<text text-anchor="middle" x="428" y="-273.5" font-family="Helvetica,sans-Serif" font-size="10.00">load_ca_cert</text>
</a>
</g>
</g>
<!-- Node11&#45;&gt;Node12 -->
<g id="edge12" class="edge"><title>Node11&#45;&gt;Node12</title>
<path fill="none" stroke="midnightblue" d="M301.015,-342.372C307.856,-339.492 315.275,-336.235 322,-333 349.717,-319.665 380.555,-302.653 401.598,-290.698"/>
<polygon fill="midnightblue" stroke="midnightblue" points="403.585,-293.594 410.531,-285.593 400.112,-287.516 403.585,-293.594"/>
</g>
<!-- Node13 -->
<g id="node13" class="node"><title>Node13</title>
<g id="a_node13"><a xlink:href="../../db/dab/keyid_8c.html#a049bbdebc2be4da80632f9b3af6fc046" target="_top" xlink:title="keyid">
<polygon fill="none" stroke="black" points="572,-228.5 572,-247.5 612,-247.5 612,-228.5 572,-228.5"/>
<text text-anchor="middle" x="592" y="-235.5" font-family="Helvetica,sans-Serif" font-size="10.00">keyid</text>
</a>
</g>
</g>
<!-- Node12&#45;&gt;Node13 -->
<g id="edge13" class="edge"><title>Node12&#45;&gt;Node13</title>
<path fill="none" stroke="midnightblue" d="M464.152,-267.755C493.362,-260.903 534.434,-251.268 561.844,-244.839"/>
<polygon fill="midnightblue" stroke="midnightblue" points="562.691,-248.235 571.627,-242.544 561.092,-241.42 562.691,-248.235"/>
</g>
<!-- Node19 -->
<g id="node19" class="node"><title>Node19</title>
<g id="a_node19"><a xlink:href="../../d8/db1/stroke__cred_8c.html#a7428ff2ef8c55c5b3171954122565316" target="_top" xlink:title="load_from_smartcard">
<polygon fill="none" stroke="black" points="538,-57.5 538,-76.5 646,-76.5 646,-57.5 538,-57.5"/>
<text text-anchor="middle" x="592" y="-64.5" font-family="Helvetica,sans-Serif" font-size="10.00">load_from_smartcard</text>
</a>
</g>
</g>
<!-- Node12&#45;&gt;Node19 -->
<g id="edge22" class="edge"><title>Node12&#45;&gt;Node19</title>
<path fill="none" stroke="midnightblue" d="M436.382,-266.477C461.577,-233.971 544.437,-127.072 577.349,-84.6118"/>
<polygon fill="midnightblue" stroke="midnightblue" points="580.215,-86.6273 583.575,-76.5793 574.682,-82.3388 580.215,-86.6273"/>
</g>
<!-- Node21 -->
<g id="node21" class="node"><title>Node21</title>
<g id="a_node21"><a xlink:href="../../d8/db1/stroke__cred_8c.html#a6761db1e92793833ee96cb45aa03b90d" target="_top" xlink:title="parse_smartcard">
<polygon fill="none" stroke="black" points="547.5,-266.5 547.5,-285.5 636.5,-285.5 636.5,-266.5 547.5,-266.5"/>
<text text-anchor="middle" x="592" y="-273.5" font-family="Helvetica,sans-Serif" font-size="10.00">parse_smartcard</text>
</a>
</g>
</g>
<!-- Node12&#45;&gt;Node21 -->
<g id="edge27" class="edge"><title>Node12&#45;&gt;Node21</title>
<path fill="none" stroke="midnightblue" d="M464.152,-276C485.485,-276 513.145,-276 537.19,-276"/>
<polygon fill="midnightblue" stroke="midnightblue" points="537.244,-279.5 547.244,-276 537.244,-272.5 537.244,-279.5"/>
</g>
<!-- Node22 -->
<g id="node22" class="node"><title>Node22</title>
<g id="a_node22"><a xlink:href="../../d4/d40/group__string__i.html#gad159dccbbc0d733f2ad32c9db6d292a4" target="_top" xlink:title="strpfx">
<polygon fill="none" stroke="black" points="571.5,-304.5 571.5,-323.5 612.5,-323.5 612.5,-304.5 571.5,-304.5"/>
<text text-anchor="middle" x="592" y="-311.5" font-family="Helvetica,sans-Serif" font-size="10.00">strpfx</text>
</a>
</g>
</g>
<!-- Node12&#45;&gt;Node22 -->
<g id="edge28" class="edge"><title>Node12&#45;&gt;Node22</title>
<path fill="none" stroke="midnightblue" d="M464.152,-284.245C493.197,-291.059 533.971,-300.623 561.379,-307.052"/>
<polygon fill="midnightblue" stroke="midnightblue" points="560.641,-310.474 571.176,-309.35 562.24,-303.659 560.641,-310.474"/>
</g>
<!-- Node13&#45;&gt;Node5 -->
<g id="edge21" class="edge"><title>Node13&#45;&gt;Node5</title>
<path fill="none" stroke="midnightblue" d="M612.101,-240.462C624.186,-242.888 639.46,-247.661 650,-257 677.974,-281.788 658.026,-308.212 686,-333 694.054,-340.137 704.873,-344.607 714.921,-347.401"/>
<polygon fill="midnightblue" stroke="midnightblue" points="714.431,-350.881 724.965,-349.747 716.023,-344.064 714.431,-350.881"/>
</g>
<!-- Node13&#45;&gt;Node7 -->
<g id="edge19" class="edge"><title>Node13&#45;&gt;Node7</title>
<path fill="none" stroke="midnightblue" d="M612.044,-242.326C660.66,-253.492 786.62,-283.227 802,-295 840.638,-324.576 863.732,-379.208 873.876,-408.401"/>
<polygon fill="midnightblue" stroke="midnightblue" points="870.667,-409.847 877.135,-418.239 877.312,-407.646 870.667,-409.847"/>
</g>
<!-- Node14 -->
<g id="node14" class="node"><title>Node14</title>
<g id="a_node14"><a xlink:href="../../d4/d87/group__chunk.html#ga207cbb568ad9c4bc26ac74a6dfd61355" target="_top" xlink:title="chunk_from_fd">
<polygon fill="none" stroke="red" points="703.5,-114.5 703.5,-133.5 784.5,-133.5 784.5,-114.5 703.5,-114.5"/>
<text text-anchor="middle" x="744" y="-121.5" font-family="Helvetica,sans-Serif" font-size="10.00">chunk_from_fd</text>
</a>
</g>
</g>
<!-- Node13&#45;&gt;Node14 -->
<g id="edge14" class="edge"><title>Node13&#45;&gt;Node14</title>
<path fill="none" stroke="midnightblue" d="M599.825,-228.454C613.855,-209.494 647.841,-166.865 686,-143 689.195,-141.002 692.623,-139.189 696.155,-137.55"/>
<polygon fill="midnightblue" stroke="midnightblue" points="697.764,-140.671 705.659,-133.605 695.081,-134.206 697.764,-140.671"/>
</g>
<!-- Node16 -->
<g id="node16" class="node"><title>Node16</title>
<g id="a_node16"><a xlink:href="../../dc/d53/group__command.html#ga5cf2c6b41420f51c7d7db9dfbd699f6b" target="_top" xlink:title="command_getopt">
<polygon fill="none" stroke="black" points="698,-228.5 698,-247.5 790,-247.5 790,-228.5 698,-228.5"/>
<text text-anchor="middle" x="744" y="-235.5" font-family="Helvetica,sans-Serif" font-size="10.00">command_getopt</text>
</a>
</g>
</g>
<!-- Node13&#45;&gt;Node16 -->
<g id="edge17" class="edge"><title>Node13&#45;&gt;Node16</title>
<path fill="none" stroke="midnightblue" d="M612.303,-238C631.303,-238 661.229,-238 687.653,-238"/>
<polygon fill="midnightblue" stroke="midnightblue" points="687.957,-241.5 697.957,-238 687.957,-234.5 687.957,-241.5"/>
</g>
<!-- Node17 -->
<g id="node17" class="node"><title>Node17</title>
<g id="a_node17"><a xlink:href="../../dc/d53/group__command.html#gac550624edb43a63d97310c54962c8f66" target="_top" xlink:title="command_usage">
<polygon fill="none" stroke="black" points="698.5,-190.5 698.5,-209.5 789.5,-209.5 789.5,-190.5 698.5,-190.5"/>
<text text-anchor="middle" x="744" y="-197.5" font-family="Helvetica,sans-Serif" font-size="10.00">command_usage</text>
</a>
</g>
</g>
<!-- Node13&#45;&gt;Node17 -->
<g id="edge18" class="edge"><title>Node13&#45;&gt;Node17</title>
<path fill="none" stroke="midnightblue" d="M612.303,-233.11C633.162,-227.826 667.191,-219.205 695.297,-212.085"/>
<polygon fill="midnightblue" stroke="midnightblue" points="696.514,-215.387 705.348,-209.538 694.795,-208.601 696.514,-215.387"/>
</g>
<!-- Node18 -->
<g id="node18" class="node"><title>Node18</title>
<g id="a_node18"><a xlink:href="../../df/d1e/group__pki.html#ga63674711f2657b283b42d2c0bd0b78f3" target="_top" xlink:title="set_file_mode">
<polygon fill="none" stroke="black" points="705.5,-152.5 705.5,-171.5 782.5,-171.5 782.5,-152.5 705.5,-152.5"/>
<text text-anchor="middle" x="744" y="-159.5" font-family="Helvetica,sans-Serif" font-size="10.00">set_file_mode</text>
</a>
</g>
</g>
<!-- Node13&#45;&gt;Node18 -->
<g id="edge20" class="edge"><title>Node13&#45;&gt;Node18</title>
<path fill="none" stroke="midnightblue" d="M606.318,-228.483C623.9,-216.243 656.129,-194.91 686,-181 690.61,-178.853 695.531,-176.835 700.478,-174.975"/>
<polygon fill="midnightblue" stroke="midnightblue" points="701.703,-178.254 709.947,-171.598 699.352,-171.66 701.703,-178.254"/>
</g>
<!-- Node14&#45;&gt;Node7 -->
<g id="edge15" class="edge"><title>Node14&#45;&gt;Node7</title>
<path fill="none" stroke="midnightblue" d="M784.766,-131.601C791.185,-134.316 797.267,-138.001 802,-143 874.63,-219.708 880.883,-357.419 880.551,-408.358"/>
<polygon fill="midnightblue" stroke="midnightblue" points="877.052,-408.307 880.389,-418.362 884.051,-408.421 877.052,-408.307"/>
</g>
<!-- Node15 -->
<g id="node15" class="node"><title>Node15</title>
<g id="a_node15"><a xlink:href="../../d4/d87/group__chunk.html#gad94ca029616a107e89eaa618408fd7b6" target="_top" xlink:title="chunk_create">
<polygon fill="none" stroke="black" points="843.5,-38.5 843.5,-57.5 918.5,-57.5 918.5,-38.5 843.5,-38.5"/>
<text text-anchor="middle" x="881" y="-45.5" font-family="Helvetica,sans-Serif" font-size="10.00">chunk_create</text>
</a>
</g>
</g>
<!-- Node14&#45;&gt;Node15 -->
<g id="edge16" class="edge"><title>Node14&#45;&gt;Node15</title>
<path fill="none" stroke="midnightblue" d="M762.098,-114.375C785.327,-101.297 827.058,-77.8043 854.131,-62.5634"/>
<polygon fill="midnightblue" stroke="midnightblue" points="856.044,-65.5029 863.041,-57.5473 852.61,-59.4031 856.044,-65.5029"/>
</g>
<!-- Node19&#45;&gt;Node7 -->
<g id="edge26" class="edge"><title>Node19&#45;&gt;Node7</title>
<path fill="none" stroke="midnightblue" d="M646.058,-70.1504C700.424,-74.4802 780.015,-84.2353 802,-105 846.812,-147.324 871.162,-344.063 877.985,-407.924"/>
<polygon fill="midnightblue" stroke="midnightblue" points="874.542,-408.65 879.056,-418.235 881.504,-407.927 874.542,-408.65"/>
</g>
<!-- Node19&#45;&gt;Node15 -->
<g id="edge25" class="edge"><title>Node19&#45;&gt;Node15</title>
<path fill="none" stroke="midnightblue" d="M646.31,-63.4708C699.997,-59.9166 782.007,-54.4873 833.236,-51.0959"/>
<polygon fill="midnightblue" stroke="midnightblue" points="833.62,-54.5782 843.367,-50.4252 833.157,-47.5935 833.62,-54.5782"/>
</g>
<!-- Node20 -->
<g id="node20" class="node"><title>Node20</title>
<g id="a_node20"><a xlink:href="../../d4/d87/group__chunk.html#gaadc119e547e9a456a8c2c6271290b584" target="_top" xlink:title="chunk_from_hex">
<polygon fill="none" stroke="red" points="699.5,-0.5 699.5,-19.5 788.5,-19.5 788.5,-0.5 699.5,-0.5"/>
<text text-anchor="middle" x="744" y="-7.5" font-family="Helvetica,sans-Serif" font-size="10.00">chunk_from_hex</text>
</a>
</g>
</g>
<!-- Node19&#45;&gt;Node20 -->
<g id="edge23" class="edge"><title>Node19&#45;&gt;Node20</title>
<path fill="none" stroke="midnightblue" d="M618.107,-57.4595C642.767,-48.0884 680.599,-33.7124 708.164,-23.2377"/>
<polygon fill="midnightblue" stroke="midnightblue" points="709.707,-26.3956 717.811,-19.5716 707.22,-19.8521 709.707,-26.3956"/>
</g>
<!-- Node20&#45;&gt;Node15 -->
<g id="edge24" class="edge"><title>Node20&#45;&gt;Node15</title>
<path fill="none" stroke="midnightblue" d="M779.066,-19.589C796.413,-24.4719 817.702,-30.4643 836.249,-35.685"/>
<polygon fill="midnightblue" stroke="midnightblue" points="835.37,-39.0735 845.945,-38.4141 837.267,-32.3354 835.37,-39.0735"/>
</g>
<!-- Node23 -->
<g id="node23" class="node"><title>Node23</title>
<g id="a_node23"><a xlink:href="../../d4/d40/group__string__i.html#ga5bb3e529b7dc584688ed2714c5b57e85" target="_top" xlink:title="strneq">
<polygon fill="none" stroke="black" points="722,-304.5 722,-323.5 766,-323.5 766,-304.5 722,-304.5"/>
<text text-anchor="middle" x="744" y="-311.5" font-family="Helvetica,sans-Serif" font-size="10.00">strneq</text>
</a>
</g>
</g>
<!-- Node22&#45;&gt;Node23 -->
<g id="edge29" class="edge"><title>Node22&#45;&gt;Node23</title>
<path fill="none" stroke="midnightblue" d="M612.61,-314C637.789,-314 681.786,-314 711.638,-314"/>
<polygon fill="midnightblue" stroke="midnightblue" points="711.936,-317.5 721.936,-314 711.936,-310.5 711.936,-317.5"/>
</g>
<!-- Node26 -->
<g id="node26" class="node"><title>Node26</title>
<g id="a_node26"><a xlink:href="../../d6/d87/group__utils__i.html#ga9feb7476507383309c8e3ff2648016f3" target="_top" xlink:title="nop">
<polygon fill="none" stroke="black" points="260,-848.5 260,-867.5 292,-867.5 292,-848.5 260,-848.5"/>
<text text-anchor="middle" x="276" y="-855.5" font-family="Helvetica,sans-Serif" font-size="10.00">nop</text>
</a>
</g>
</g>
<!-- Node25&#45;&gt;Node26 -->
<g id="edge32" class="edge"><title>Node25&#45;&gt;Node26</title>
<path fill="none" stroke="midnightblue" d="M179.3,-829.589C201.247,-836.105 229.848,-844.596 250.049,-850.593"/>
<polygon fill="midnightblue" stroke="midnightblue" points="249.184,-853.987 259.767,-853.478 251.176,-847.276 249.184,-853.987"/>
</g>
<!-- Node27 -->
<g id="node27" class="node"><title>Node27</title>
<g id="a_node27"><a xlink:href="../../db/d2f/openssl__pkcs12_8c.html#a7e59abc716b25d5f463f99e73e9cc58a" target="_top" xlink:title="add_cert">
<polygon fill="none" stroke="black" points="401,-886.5 401,-905.5 455,-905.5 455,-886.5 401,-886.5"/>
<text text-anchor="middle" x="428" y="-893.5" font-family="Helvetica,sans-Serif" font-size="10.00">add_cert</text>
</a>
</g>
</g>
<!-- Node25&#45;&gt;Node27 -->
<g id="edge33" class="edge"><title>Node25&#45;&gt;Node27</title>
<path fill="none" stroke="midnightblue" d="M157.277,-829.687C172.055,-842.96 200.76,-866.361 230,-877 283.501,-896.466 350.273,-898.693 390.725,-897.842"/>
<polygon fill="midnightblue" stroke="midnightblue" points="391.015,-901.335 400.91,-897.55 390.814,-894.338 391.015,-901.335"/>
</g>
<!-- Node29 -->
<g id="node29" class="node"><title>Node29</title>
<g id="a_node29"><a xlink:href="../../db/d2f/openssl__pkcs12_8c.html#ae134180ac8cebff7f4f91a70aa2dbb0b" target="_top" xlink:title="add_key">
<polygon fill="none" stroke="black" points="249.5,-924.5 249.5,-943.5 302.5,-943.5 302.5,-924.5 249.5,-924.5"/>
<text text-anchor="middle" x="276" y="-931.5" font-family="Helvetica,sans-Serif" font-size="10.00">add_key</text>
</a>
</g>
</g>
<!-- Node25&#45;&gt;Node29 -->
<g id="edge36" class="edge"><title>Node25&#45;&gt;Node29</title>
<path fill="none" stroke="midnightblue" d="M154.122,-829.659C167.485,-847.295 197.876,-885.177 230,-910 234.466,-913.451 239.499,-916.672 244.539,-919.563"/>
<polygon fill="midnightblue" stroke="midnightblue" points="243.033,-922.728 253.497,-924.389 246.353,-916.565 243.033,-922.728"/>
</g>
<!-- Node34 -->
<g id="node34" class="node"><title>Node34</title>
<g id="a_node34"><a xlink:href="../../dc/d21/daemon_8c.html#a1e824dfeaa337e709772cb0c8e6c8dcc" target="_top" xlink:title="destroy">
<polygon fill="none" stroke="black" points="251.5,-607.5 251.5,-626.5 300.5,-626.5 300.5,-607.5 251.5,-607.5"/>
<text text-anchor="middle" x="276" y="-614.5" font-family="Helvetica,sans-Serif" font-size="10.00">destroy</text>
</a>
</g>
</g>
<!-- Node25&#45;&gt;Node34 -->
<g id="edge43" class="edge"><title>Node25&#45;&gt;Node34</title>
<path fill="none" stroke="midnightblue" d="M153.002,-810.481C172.903,-778.92 236.95,-677.345 263.403,-635.392"/>
<polygon fill="midnightblue" stroke="midnightblue" points="266.489,-637.06 268.862,-626.734 260.568,-633.327 266.489,-637.06"/>
</g>
<!-- Node47 -->
<g id="node47" class="node"><title>Node47</title>
<g id="a_node47"><a xlink:href="../../d3/dc0/group__linked__list.html#ga15bb4333e53dbef32d196e4388f43fdf" target="_top" xlink:title="linked_list_create">
<polygon fill="none" stroke="black" points="230,-810.5 230,-829.5 322,-829.5 322,-810.5 230,-810.5"/>
<text text-anchor="middle" x="276" y="-817.5" font-family="Helvetica,sans-Serif" font-size="10.00">linked_list_create</text>
</a>
</g>
</g>
<!-- Node25&#45;&gt;Node47 -->
<g id="edge61" class="edge"><title>Node25&#45;&gt;Node47</title>
<path fill="none" stroke="midnightblue" d="M193.573,-820C202.102,-820 211.077,-820 219.828,-820"/>
<polygon fill="midnightblue" stroke="midnightblue" points="219.958,-823.5 229.958,-820 219.958,-816.5 219.958,-823.5"/>
</g>
<!-- Node50 -->
<g id="node50" class="node"><title>Node50</title>
<g id="a_node50"><a xlink:href="../../db/ded/group__rwlock.html#ga3646a4244d6c3368a3fbb03354974838" target="_top" xlink:title="rwlock_create">
<polygon fill="none" stroke="black" points="237.5,-772.5 237.5,-791.5 314.5,-791.5 314.5,-772.5 237.5,-772.5"/>
<text text-anchor="middle" x="276" y="-779.5" font-family="Helvetica,sans-Serif" font-size="10.00">rwlock_create</text>
</a>
</g>
</g>
<!-- Node25&#45;&gt;Node50 -->
<g id="edge64" class="edge"><title>Node25&#45;&gt;Node50</title>
<path fill="none" stroke="midnightblue" d="M179.3,-810.411C195.52,-805.596 215.375,-799.701 232.787,-794.532"/>
<polygon fill="midnightblue" stroke="midnightblue" points="234.12,-797.787 242.711,-791.586 232.128,-791.077 234.12,-797.787"/>
</g>
<!-- Node28 -->
<g id="node28" class="node"><title>Node28</title>
<g id="a_node28"><a xlink:href="../../d4/d87/group__chunk.html#gaa86c84493369a4254d5801cdca20d458" target="_top" xlink:title="chunk_free">
<polygon fill="none" stroke="black" points="711.5,-876.5 711.5,-895.5 776.5,-895.5 776.5,-876.5 711.5,-876.5"/>
<text text-anchor="middle" x="744" y="-883.5" font-family="Helvetica,sans-Serif" font-size="10.00">chunk_free</text>
</a>
</g>
</g>
<!-- Node27&#45;&gt;Node28 -->
<g id="edge34" class="edge"><title>Node27&#45;&gt;Node28</title>
<path fill="none" stroke="midnightblue" d="M455.231,-895.165C509.657,-893.431 635.251,-889.431 701.055,-887.336"/>
<polygon fill="midnightblue" stroke="midnightblue" points="701.2,-890.833 711.083,-887.016 700.977,-883.837 701.2,-890.833"/>
</g>
<!-- Node28&#45;&gt;Node7 -->
<g id="edge35" class="edge"><title>Node28&#45;&gt;Node7</title>
<path fill="none" stroke="midnightblue" d="M760.135,-876.385C773.341,-867.16 791.92,-851.998 802,-834 876.463,-701.041 881.064,-509.361 880.466,-447.816"/>
<polygon fill="midnightblue" stroke="midnightblue" points="883.962,-447.532 880.303,-437.589 876.963,-447.644 883.962,-447.532"/>
</g>
<!-- Node30 -->
<g id="node30" class="node"><title>Node30</title>
<g id="a_node30"><a xlink:href="../../d4/d87/group__chunk.html#gaaa5a9811df1bd2ae5e331748f7fbaf75" target="_top" xlink:title="chunk_clear">
<polygon fill="none" stroke="black" points="393.5,-924.5 393.5,-943.5 462.5,-943.5 462.5,-924.5 393.5,-924.5"/>
<text text-anchor="middle" x="428" y="-931.5" font-family="Helvetica,sans-Serif" font-size="10.00">chunk_clear</text>
</a>
</g>
</g>
<!-- Node29&#45;&gt;Node30 -->
<g id="edge37" class="edge"><title>Node29&#45;&gt;Node30</title>
<path fill="none" stroke="midnightblue" d="M302.786,-934C324.896,-934 357.224,-934 383.357,-934"/>
<polygon fill="midnightblue" stroke="midnightblue" points="383.398,-937.5 393.398,-934 383.398,-930.5 383.398,-937.5"/>
</g>
<!-- Node30&#45;&gt;Node28 -->
<g id="edge42" class="edge"><title>Node30&#45;&gt;Node28</title>
<path fill="none" stroke="midnightblue" d="M462.785,-930.013C506.214,-924.751 583.903,-914.874 650,-904 666.772,-901.241 685.161,-897.775 701.127,-894.624"/>
<polygon fill="midnightblue" stroke="midnightblue" points="702.106,-897.998 711.228,-892.609 700.737,-891.133 702.106,-897.998"/>
</g>
<!-- Node31 -->
<g id="node31" class="node"><title>Node31</title>
<g id="a_node31"><a xlink:href="../../dd/d74/group__memory__i.html#ga6d5ce21860b55e0c54353999c4f4f077" target="_top" xlink:title="memwipe">
<polygon fill="none" stroke="black" points="562.5,-962.5 562.5,-981.5 621.5,-981.5 621.5,-962.5 562.5,-962.5"/>
<text text-anchor="middle" x="592" y="-969.5" font-family="Helvetica,sans-Serif" font-size="10.00">memwipe</text>
</a>
</g>
</g>
<!-- Node30&#45;&gt;Node31 -->
<g id="edge38" class="edge"><title>Node30&#45;&gt;Node31</title>
<path fill="none" stroke="midnightblue" d="M462.567,-941.874C488.699,-948.004 525.003,-956.519 552.348,-962.933"/>
<polygon fill="midnightblue" stroke="midnightblue" points="551.814,-966.403 562.349,-965.28 553.413,-959.588 551.814,-966.403"/>
</g>
<!-- Node32 -->
<g id="node32" class="node"><title>Node32</title>
<g id="a_node32"><a xlink:href="../../dd/d74/group__memory__i.html#ga4d6f7708d6b8ea1ec0fbe97b3885ce1e" target="_top" xlink:title="memwipe_inline">
<polygon fill="none" stroke="black" points="838,-952.5 838,-971.5 924,-971.5 924,-952.5 838,-952.5"/>
<text text-anchor="middle" x="881" y="-959.5" font-family="Helvetica,sans-Serif" font-size="10.00">memwipe_inline</text>
</a>
</g>
</g>
<!-- Node31&#45;&gt;Node32 -->
<g id="edge39" class="edge"><title>Node31&#45;&gt;Node32</title>
<path fill="none" stroke="midnightblue" d="M621.568,-971.005C669.551,-969.333 767.01,-965.937 827.576,-963.827"/>
<polygon fill="midnightblue" stroke="midnightblue" points="827.828,-967.32 837.7,-963.474 827.585,-960.324 827.828,-967.32"/>
</g>
<!-- Node33 -->
<g id="node33" class="node"><title>Node33</title>
<g id="a_node33"><a xlink:href="../../dd/d74/group__memory__i.html#gabf6fa8b701d6f2052a551333b3694063" target="_top" xlink:title="memwipe_noinline">
<polygon fill="none" stroke="black" points="695.5,-933.5 695.5,-952.5 792.5,-952.5 792.5,-933.5 695.5,-933.5"/>
<text text-anchor="middle" x="744" y="-940.5" font-family="Helvetica,sans-Serif" font-size="10.00">memwipe_noinline</text>
</a>
</g>
</g>
<!-- Node31&#45;&gt;Node33 -->
<g id="edge40" class="edge"><title>Node31&#45;&gt;Node33</title>
<path fill="none" stroke="midnightblue" d="M621.567,-966.477C639.627,-962.986 663.608,-958.349 685.487,-954.119"/>
<polygon fill="midnightblue" stroke="midnightblue" points="686.209,-957.544 695.363,-952.21 684.88,-950.672 686.209,-957.544"/>
</g>
<!-- Node33&#45;&gt;Node32 -->
<g id="edge41" class="edge"><title>Node33&#45;&gt;Node32</title>
<path fill="none" stroke="midnightblue" d="M792.596,-949.699C803.986,-951.302 816.207,-953.022 827.794,-954.652"/>
<polygon fill="midnightblue" stroke="midnightblue" points="827.385,-958.129 837.775,-956.057 828.361,-951.198 827.385,-958.129"/>
</g>
<!-- Node34&#45;&gt;Node7 -->
<g id="edge44" class="edge"><title>Node34&#45;&gt;Node7</title>
<path fill="none" stroke="midnightblue" d="M285.455,-607.406C299.178,-592.44 327.818,-563.634 358,-548 410.731,-520.685 786.486,-450.509 802,-447 819.672,-443.002 839.51,-438.165 854.757,-434.372"/>
<polygon fill="midnightblue" stroke="midnightblue" points="855.645,-437.758 864.496,-431.936 853.946,-430.967 855.645,-437.758"/>
</g>
<!-- Node35 -->
<g id="node35" class="node"><title>Node35</title>
<g id="a_node35"><a xlink:href="../../dc/d21/daemon_8c.html#a1b7023117168a75858bd535a56e709e2" target="_top" xlink:title="logger_entry_destroy">
<polygon fill="none" stroke="black" points="374.5,-557.5 374.5,-576.5 481.5,-576.5 481.5,-557.5 374.5,-557.5"/>
<text text-anchor="middle" x="428" y="-564.5" font-family="Helvetica,sans-Serif" font-size="10.00">logger_entry_destroy</text>
</a>
</g>
</g>
<!-- Node34&#45;&gt;Node35 -->
<g id="edge45" class="edge"><title>Node34&#45;&gt;Node35</title>
<path fill="none" stroke="midnightblue" d="M300.768,-609.077C324.385,-601.205 360.985,-589.005 388.706,-579.765"/>
<polygon fill="midnightblue" stroke="midnightblue" points="390.097,-582.991 398.477,-576.508 387.883,-576.35 390.097,-582.991"/>
</g>
<!-- Node36 -->
<g id="node36" class="node"><title>Node36</title>
<g id="a_node36"><a xlink:href="../../d9/d32/connect__manager_8c.html#a3b4dd773d88779165dc7243cb4e4fbee" target="_top" xlink:title="sender">
<polygon fill="none" stroke="black" points="405,-658.5 405,-677.5 451,-677.5 451,-658.5 405,-658.5"/>
<text text-anchor="middle" x="428" y="-665.5" font-family="Helvetica,sans-Serif" font-size="10.00">sender</text>
</a>
</g>
</g>
<!-- Node34&#45;&gt;Node36 -->
<g id="edge47" class="edge"><title>Node34&#45;&gt;Node36</title>
<path fill="none" stroke="midnightblue" d="M300.768,-625.081C326.225,-633.736 366.765,-647.52 395.011,-657.124"/>
<polygon fill="midnightblue" stroke="midnightblue" points="394.216,-660.55 404.81,-660.455 396.469,-653.923 394.216,-660.55"/>
</g>
<!-- Node35&#45;&gt;Node7 -->
<g id="edge46" class="edge"><title>Node35&#45;&gt;Node7</title>
<path fill="none" stroke="midnightblue" d="M447.859,-557.483C468.504,-547.45 502.83,-531.894 534,-523 650.004,-489.899 689.685,-524.022 802,-480 823.787,-471.461 845.705,-456.11 860.735,-444.293"/>
<polygon fill="midnightblue" stroke="midnightblue" points="863.162,-446.832 868.735,-437.822 858.759,-441.39 863.162,-446.832"/>
</g>
<!-- Node37 -->
<g id="node37" class="node"><title>Node37</title>
<g id="a_node37"><a xlink:href="../../d9/d32/connect__manager_8c.html#ad295327b74b1c4e19a7096ad2979765b" target="_top" xlink:title="check_create">
<polygon fill="none" stroke="black" points="554.5,-582.5 554.5,-601.5 629.5,-601.5 629.5,-582.5 554.5,-582.5"/>
<text text-anchor="middle" x="592" y="-589.5" font-family="Helvetica,sans-Serif" font-size="10.00">check_create</text>
</a>
</g>
</g>
<!-- Node36&#45;&gt;Node37 -->
<g id="edge48" class="edge"><title>Node36&#45;&gt;Node37</title>
<path fill="none" stroke="midnightblue" d="M444.575,-658.416C464.705,-646.296 501.084,-625.289 534,-611 538.84,-608.899 543.992,-606.887 549.144,-605.01"/>
<polygon fill="midnightblue" stroke="midnightblue" points="550.683,-608.18 558.971,-601.58 548.376,-601.571 550.683,-608.18"/>
</g>
<!-- Node38 -->
<g id="node38" class="node"><title>Node38</title>
<g id="a_node38"><a xlink:href="../../d9/d32/connect__manager_8c.html#a204f99a4a38f8c08c42cd120bcf1b9f7" target="_top" xlink:title="check_destroy">
<polygon fill="none" stroke="black" points="552,-810.5 552,-829.5 632,-829.5 632,-810.5 552,-810.5"/>
<text text-anchor="middle" x="592" y="-817.5" font-family="Helvetica,sans-Serif" font-size="10.00">check_destroy</text>
</a>
</g>
</g>
<!-- Node36&#45;&gt;Node38 -->
<g id="edge49" class="edge"><title>Node36&#45;&gt;Node38</title>
<path fill="none" stroke="midnightblue" d="M433.965,-677.606C447.003,-701.906 484.642,-766.346 534,-801 536.732,-802.918 539.671,-804.653 542.724,-806.222"/>
<polygon fill="midnightblue" stroke="midnightblue" points="541.57,-809.54 552.126,-810.442 544.436,-803.154 541.57,-809.54"/>
</g>
<!-- Node39 -->
<g id="node39" class="node"><title>Node39</title>
<g id="a_node39"><a xlink:href="../../d7/d87/group__endpoint__notify.html#ga89474ccd935bd6aeb2db5ae84c2fcbcf" target="_top" xlink:title="endpoint_notify_create\l_from_host">
<polygon fill="none" stroke="black" points="534.5,-533 534.5,-563 649.5,-563 649.5,-533 534.5,-533"/>
<text text-anchor="start" x="542.5" y="-551" font-family="Helvetica,sans-Serif" font-size="10.00">endpoint_notify_create</text>
<text text-anchor="middle" x="592" y="-540" font-family="Helvetica,sans-Serif" font-size="10.00">_from_host</text>
</a>
</g>
</g>
<!-- Node36&#45;&gt;Node39 -->
<g id="edge52" class="edge"><title>Node36&#45;&gt;Node39</title>
<path fill="none" stroke="midnightblue" d="M437.71,-658.255C454.716,-639.683 494.169,-598.778 534,-573 536.9,-571.123 539.965,-569.325 543.108,-567.616"/>
<polygon fill="midnightblue" stroke="midnightblue" points="544.775,-570.694 552.101,-563.04 541.601,-564.455 544.775,-570.694"/>
</g>
<!-- Node41 -->
<g id="node41" class="node"><title>Node41</title>
<g id="a_node41"><a xlink:href="../../d9/d32/connect__manager_8c.html#a7f4c528dceb6dc21cbeeb405365db27d" target="_top" xlink:title="get_checklist_by_id">
<polygon fill="none" stroke="black" points="540.5,-772.5 540.5,-791.5 643.5,-791.5 643.5,-772.5 540.5,-772.5"/>
<text text-anchor="middle" x="592" y="-779.5" font-family="Helvetica,sans-Serif" font-size="10.00">get_checklist_by_id</text>
</a>
</g>
</g>
<!-- Node36&#45;&gt;Node41 -->
<g id="edge54" class="edge"><title>Node36&#45;&gt;Node41</title>
<path fill="none" stroke="midnightblue" d="M437.247,-677.785C453.753,-696.793 492.818,-738.948 534,-763 537.597,-765.101 541.46,-767.009 545.416,-768.733"/>
<polygon fill="midnightblue" stroke="midnightblue" points="544.155,-771.997 554.741,-772.425 546.732,-765.489 544.155,-771.997"/>
</g>
<!-- Node43 -->
<g id="node43" class="node"><title>Node43</title>
<g id="a_node43"><a xlink:href="../../d9/d32/connect__manager_8c.html#a0c6f96218c9be021da288127130acaea" target="_top" xlink:title="get_triggered_pair">
<polygon fill="none" stroke="black" points="545,-734.5 545,-753.5 639,-753.5 639,-734.5 545,-734.5"/>
<text text-anchor="middle" x="592" y="-741.5" font-family="Helvetica,sans-Serif" font-size="10.00">get_triggered_pair</text>
</a>
</g>
</g>
<!-- Node36&#45;&gt;Node43 -->
<g id="edge56" class="edge"><title>Node36&#45;&gt;Node43</title>
<path fill="none" stroke="midnightblue" d="M444.575,-677.584C464.705,-689.704 501.084,-710.711 534,-725 538.84,-727.101 543.992,-729.113 549.144,-730.99"/>
<polygon fill="midnightblue" stroke="midnightblue" points="548.376,-734.429 558.971,-734.42 550.683,-727.82 548.376,-734.429"/>
</g>
<!-- Node44 -->
<g id="node44" class="node"><title>Node44</title>
<g id="a_node44"><a xlink:href="../../d9/d32/connect__manager_8c.html#a7bcdfc183dd5ea52c1db9112000121eb" target="_top" xlink:title="match_waiting_pair">
<polygon fill="none" stroke="black" points="541.5,-696.5 541.5,-715.5 642.5,-715.5 642.5,-696.5 541.5,-696.5"/>
<text text-anchor="middle" x="592" y="-703.5" font-family="Helvetica,sans-Serif" font-size="10.00">match_waiting_pair</text>
</a>
</g>
</g>
<!-- Node36&#45;&gt;Node44 -->
<g id="edge57" class="edge"><title>Node36&#45;&gt;Node44</title>
<path fill="none" stroke="midnightblue" d="M451.186,-673.204C474.075,-678.573 510.559,-687.131 540.519,-694.159"/>
<polygon fill="midnightblue" stroke="midnightblue" points="539.865,-697.6 550.4,-696.477 541.463,-690.785 539.865,-697.6"/>
</g>
<!-- Node45 -->
<g id="node45" class="node"><title>Node45</title>
<g id="a_node45"><a xlink:href="../../d9/d32/connect__manager_8c.html#ab04c347706d661bcbd52ba901be05697" target="_top" xlink:title="schedule_checks">
<polygon fill="none" stroke="red" points="546,-658.5 546,-677.5 638,-677.5 638,-658.5 546,-658.5"/>
<text text-anchor="middle" x="592" y="-665.5" font-family="Helvetica,sans-Serif" font-size="10.00">schedule_checks</text>
</a>
</g>
</g>
<!-- Node36&#45;&gt;Node45 -->
<g id="edge58" class="edge"><title>Node36&#45;&gt;Node45</title>
<path fill="none" stroke="midnightblue" d="M451.186,-663.183C472.89,-661.375 506.819,-660.835 535.817,-661.564"/>
<polygon fill="midnightblue" stroke="midnightblue" points="535.737,-665.064 545.84,-661.875 535.954,-658.067 535.737,-665.064"/>
</g>
<!-- Node46 -->
<g id="node46" class="node"><title>Node46</title>
<g id="a_node46"><a xlink:href="../../d9/d32/connect__manager_8c.html#a84c6b0f36d7353c32bb874be21759a5f" target="_top" xlink:title="send_check">
<polygon fill="none" stroke="red" points="557.5,-620.5 557.5,-639.5 626.5,-639.5 626.5,-620.5 557.5,-620.5"/>
<text text-anchor="middle" x="592" y="-627.5" font-family="Helvetica,sans-Serif" font-size="10.00">send_check</text>
</a>
</g>
</g>
<!-- Node36&#45;&gt;Node46 -->
<g id="edge60" class="edge"><title>Node36&#45;&gt;Node46</title>
<path fill="none" stroke="midnightblue" d="M451.186,-662.796C475.788,-657.025 516.095,-647.57 547.126,-640.291"/>
<polygon fill="midnightblue" stroke="midnightblue" points="548.322,-643.606 557.258,-637.915 546.723,-636.791 548.322,-643.606"/>
</g>
<!-- Node38&#45;&gt;Node7 -->
<g id="edge51" class="edge"><title>Node38&#45;&gt;Node7</title>
<path fill="none" stroke="midnightblue" d="M632.253,-828.956C678.76,-837.058 755.748,-842.197 802,-801 855.7,-753.169 874.445,-517.584 878.877,-447.623"/>
<polygon fill="midnightblue" stroke="midnightblue" points="882.377,-447.733 879.488,-437.54 875.39,-447.31 882.377,-447.733"/>
</g>
<!-- Node38&#45;&gt;Node28 -->
<g id="edge50" class="edge"><title>Node38&#45;&gt;Node28</title>
<path fill="none" stroke="midnightblue" d="M624.366,-829.542C632.782,-832.349 641.816,-835.589 650,-839 673.178,-848.659 698.563,-861.661 716.947,-871.541"/>
<polygon fill="midnightblue" stroke="midnightblue" points="715.415,-874.693 725.873,-876.389 718.756,-868.541 715.415,-874.693"/>
</g>
<!-- Node40 -->
<g id="node40" class="node"><title>Node40</title>
<g id="a_node40"><a xlink:href="../../da/d0c/endpoint__notify_8c.html#a55fdd0651a0e929c599c0ffd77626082" target="_top" xlink:title="endpoint_notify_create">
<polygon fill="none" stroke="black" points="686.5,-538.5 686.5,-557.5 801.5,-557.5 801.5,-538.5 686.5,-538.5"/>
<text text-anchor="middle" x="744" y="-545.5" font-family="Helvetica,sans-Serif" font-size="10.00">endpoint_notify_create</text>
</a>
</g>
</g>
<!-- Node39&#45;&gt;Node40 -->
<g id="edge53" class="edge"><title>Node39&#45;&gt;Node40</title>
<path fill="none" stroke="midnightblue" d="M649.709,-548C658.295,-548 667.223,-548 676.002,-548"/>
<polygon fill="midnightblue" stroke="midnightblue" points="676.211,-551.5 686.211,-548 676.211,-544.5 676.211,-551.5"/>
</g>
<!-- Node42 -->
<g id="node42" class="node"><title>Node42</title>
<g id="a_node42"><a xlink:href="../../d9/d32/connect__manager_8c.html#a48e6c7d1bc525dc1f2627c117ec8fcdf" target="_top" xlink:title="match_checklist_by_id">
<polygon fill="none" stroke="red" points="686,-772.5 686,-791.5 802,-791.5 802,-772.5 686,-772.5"/>
<text text-anchor="middle" x="744" y="-779.5" font-family="Helvetica,sans-Serif" font-size="10.00">match_checklist_by_id</text>
</a>
</g>
</g>
<!-- Node41&#45;&gt;Node42 -->
<g id="edge55" class="edge"><title>Node41&#45;&gt;Node42</title>
<path fill="none" stroke="midnightblue" d="M643.783,-782C654.024,-782 664.94,-782 675.646,-782"/>
<polygon fill="midnightblue" stroke="midnightblue" points="675.817,-785.5 685.817,-782 675.817,-778.5 675.817,-785.5"/>
</g>
<!-- Node45&#45;&gt;Node36 -->
<g id="edge59" class="edge"><title>Node45&#45;&gt;Node36</title>
<path fill="none" stroke="midnightblue" d="M545.84,-674.125C518.966,-675.126 485.499,-674.925 461.279,-673.52"/>
<polygon fill="midnightblue" stroke="midnightblue" points="461.405,-670.02 451.186,-672.817 460.918,-677.003 461.405,-670.02"/>
</g>
<!-- Node48 -->
<g id="node48" class="node"><title>Node48</title>
<g id="a_node48"><a xlink:href="../../d9/d78/duplicheck__listener_8c.html#a42e92cbe3b8fa821d53d1fdb7db5a639" target="_top" xlink:title="remove_first">
<polygon fill="none" stroke="black" points="392.5,-829.5 392.5,-848.5 463.5,-848.5 463.5,-829.5 392.5,-829.5"/>
<text text-anchor="middle" x="428" y="-836.5" font-family="Helvetica,sans-Serif" font-size="10.00">remove_first</text>
</a>
</g>
</g>
<!-- Node47&#45;&gt;Node48 -->
<g id="edge62" class="edge"><title>Node47&#45;&gt;Node48</title>
<path fill="none" stroke="midnightblue" d="M322.005,-825.701C340.936,-828.099 362.92,-830.883 381.865,-833.283"/>
<polygon fill="midnightblue" stroke="midnightblue" points="381.678,-836.787 392.039,-834.572 382.558,-829.843 381.678,-836.787"/>
</g>
<!-- Node49 -->
<g id="node49" class="node"><title>Node49</title>
<g id="a_node49"><a xlink:href="../../d9/d78/duplicheck__listener_8c.html#acaae3ea9f18caab2a2e47637da396ca9" target="_top" xlink:title="remove_if_empty">
<polygon fill="none" stroke="red" points="546,-848.5 546,-867.5 638,-867.5 638,-848.5 546,-848.5"/>
<text text-anchor="middle" x="592" y="-855.5" font-family="Helvetica,sans-Serif" font-size="10.00">remove_if_empty</text>
</a>
</g>
</g>
<!-- Node48&#45;&gt;Node49 -->
<g id="edge63" class="edge"><title>Node48&#45;&gt;Node49</title>
<path fill="none" stroke="midnightblue" d="M463.753,-843.076C484.741,-845.538 511.959,-848.73 535.833,-851.53"/>
<polygon fill="midnightblue" stroke="midnightblue" points="535.492,-855.014 545.832,-852.703 536.308,-848.061 535.492,-855.014"/>
</g>
</g>
</svg>
