<?xml version="1.0" encoding="UTF-8" standalone="no"?>
<!DOCTYPE svg PUBLIC "-//W3C//DTD SVG 1.1//EN"
 "http://www.w3.org/Graphics/SVG/1.1/DTD/svg11.dtd">
<!-- Generated by graphviz version 2.36.0 (20140111.2315)
 -->
<!-- Title: load_shared Pages: 1 -->
<!--zoomable 142 -->
<svg id="main" version="1.1" xmlns="http://www.w3.org/2000/svg" xmlns:xlink="http://www.w3.org/1999/xlink" xml:space="preserve" onload="init(evt)">
<style type="text/css"><![CDATA[
.edge:hover path { stroke: red; }
.edge:hover polygon { stroke: red; fill: red; }
]]></style>
<script type="text/javascript"><![CDATA[
var edges = document.getElementsByTagName('g');
if (edges && edges.length) {
  for (var i=0;i<edges.length;i++) {
    if (edges[i].id.substr(0,4)=='edge') {
      edges[i].setAttribute('class','edge');
    }
  }
}
]]></script>
        <defs>
                <circle id="rim" cx="0" cy="0" r="7"/>
                <circle id="rim2" cx="0" cy="0" r="3.5"/>
                <g id="zoomPlus">
                        <use xlink:href="#rim" fill="#404040">
                                <set attributeName="fill" to="#808080" begin="zoomplus.mouseover" end="zoomplus.mouseout"/>
                        </use>
                        <path d="M-4,0h8M0,-4v8" fill="none" stroke="white" stroke-width="1.5" pointer-events="none"/>
                </g>
                <g id="zoomMin">
                        <use xlink:href="#rim" fill="#404040">
                                <set attributeName="fill" to="#808080" begin="zoomminus.mouseover" end="zoomminus.mouseout"/>
                        </use>
                        <path d="M-4,0h8" fill="none" stroke="white" stroke-width="1.5" pointer-events="none"/>
                </g>
                <g id="dirArrow">
                        <path fill="none" stroke="white" stroke-width="1.5" d="M0,-3.0v7 M-2.5,-0.5L0,-3.0L2.5,-0.5"/>
                </g>
               <g id="resetDef">
                       <use xlink:href="#rim2" fill="#404040">
                               <set attributeName="fill" to="#808080" begin="reset.mouseover" end="reset.mouseout"/>
                       </use>
               </g>
        </defs>

<script type="text/javascript">
var viewWidth = 714;
var viewHeight = 142;
var sectionId = 'dynsection-22';
</script>
<script xlink:href="../../svgpan.js"/>
<svg id="graph" class="graph">
<g id="viewport">
<title>load_shared</title>
<!-- Node1 -->
<g id="node1" class="node"><title>Node1</title>
<polygon fill="#bfbfbf" stroke="black" points="0.5,-57.5 0.5,-76.5 69.5,-76.5 69.5,-57.5 0.5,-57.5"/>
<text text-anchor="middle" x="35" y="-64.5" font-family="Helvetica,sans-Serif" font-size="10.00">load_shared</text>
</g>
<!-- Node2 -->
<g id="node2" class="node"><title>Node2</title>
<g id="a_node2"><a xlink:href="../../d8/db1/stroke__cred_8c.html#a5d1f52721e54438ad930da40c5c991d7" target="_top" xlink:title="load_secrets">
<polygon fill="none" stroke="black" points="122,-76.5 122,-95.5 194,-95.5 194,-76.5 122,-76.5"/>
<text text-anchor="middle" x="158" y="-83.5" font-family="Helvetica,sans-Serif" font-size="10.00">load_secrets</text>
</a>
</g>
</g>
<!-- Node1&#45;&gt;Node2 -->
<g id="edge1" class="edge"><title>Node1&#45;&gt;Node2</title>
<path fill="none" stroke="midnightblue" d="M79.9376,-73.8993C93.7028,-76.0608 108.707,-78.4169 121.788,-80.4709"/>
<polygon fill="midnightblue" stroke="midnightblue" points="80.1272,-70.3862 69.7052,-72.2926 79.0412,-77.3015 80.1272,-70.3862"/>
</g>
<!-- Node8 -->
<g id="node8" class="node"><title>Node8</title>
<g id="a_node8"><a xlink:href="../../d6/d52/vici__cred_8c.html#a241d18088d023af2b473bef42bd3e84c" target="_top" xlink:title="manage_commands">
<polygon fill="none" stroke="black" points="106,-38.5 106,-57.5 210,-57.5 210,-38.5 106,-38.5"/>
<text text-anchor="middle" x="158" y="-45.5" font-family="Helvetica,sans-Serif" font-size="10.00">manage_commands</text>
</a>
</g>
</g>
<!-- Node1&#45;&gt;Node8 -->
<g id="edge7" class="edge"><title>Node1&#45;&gt;Node8</title>
<path fill="none" stroke="midnightblue" d="M79.7422,-60.1314C88.2044,-58.8026 97.1415,-57.3993 105.817,-56.0371"/>
<polygon fill="midnightblue" stroke="midnightblue" points="79.0412,-56.6985 69.7052,-61.7074 80.1272,-63.6138 79.0412,-56.6985"/>
</g>
<!-- Node3 -->
<g id="node3" class="node"><title>Node3</title>
<g id="a_node3"><a xlink:href="../../d8/db1/stroke__cred_8c.html#ac707a0aa93f26613e2ae29b1970c4798" target="_top" xlink:title="METHOD">
<polygon fill="none" stroke="black" points="266,-114.5 266,-133.5 326,-133.5 326,-114.5 266,-114.5"/>
<text text-anchor="middle" x="296" y="-121.5" font-family="Helvetica,sans-Serif" font-size="10.00">METHOD</text>
</a>
</g>
</g>
<!-- Node2&#45;&gt;Node3 -->
<g id="edge2" class="edge"><title>Node2&#45;&gt;Node3</title>
<path fill="none" stroke="midnightblue" d="M203.093,-98.32C223.628,-104.058 247.496,-110.727 265.762,-115.831"/>
<polygon fill="midnightblue" stroke="midnightblue" points="203.892,-94.9092 193.319,-95.589 202.008,-101.651 203.892,-94.9092"/>
</g>
<!-- Node4 -->
<g id="node4" class="node"><title>Node4</title>
<g id="a_node4"><a xlink:href="../../d4/ddf/group__stroke__cred.html#ga54afc73bedd2dda57cfbeb130062849a" target="_top" xlink:title="stroke_cred_create">
<polygon fill="none" stroke="black" points="246,-76.5 246,-95.5 346,-95.5 346,-76.5 246,-76.5"/>
<text text-anchor="middle" x="296" y="-83.5" font-family="Helvetica,sans-Serif" font-size="10.00">stroke_cred_create</text>
</a>
</g>
</g>
<!-- Node2&#45;&gt;Node4 -->
<g id="edge3" class="edge"><title>Node2&#45;&gt;Node4</title>
<path fill="none" stroke="midnightblue" d="M204.354,-86C217.64,-86 232.228,-86 245.745,-86"/>
<polygon fill="midnightblue" stroke="midnightblue" points="204.023,-82.5001 194.023,-86 204.023,-89.5001 204.023,-82.5001"/>
</g>
<!-- Node5 -->
<g id="node5" class="node"><title>Node5</title>
<g id="a_node5"><a xlink:href="../../d3/d5b/group__stroke__socket.html#gad1f5f8940280e2e2b5066540a33f75af" target="_top" xlink:title="stroke_socket_create">
<polygon fill="none" stroke="black" points="382,-76.5 382,-95.5 492,-95.5 492,-76.5 382,-76.5"/>
<text text-anchor="middle" x="437" y="-83.5" font-family="Helvetica,sans-Serif" font-size="10.00">stroke_socket_create</text>
</a>
</g>
</g>
<!-- Node4&#45;&gt;Node5 -->
<g id="edge4" class="edge"><title>Node4&#45;&gt;Node5</title>
<path fill="none" stroke="midnightblue" d="M356.211,-86C364.691,-86 373.38,-86 381.758,-86"/>
<polygon fill="midnightblue" stroke="midnightblue" points="356.006,-82.5001 346.006,-86 356.006,-89.5001 356.006,-82.5001"/>
</g>
<!-- Node6 -->
<g id="node6" class="node"><title>Node6</title>
<g id="a_node6"><a xlink:href="../../d0/d10/stroke__plugin_8c.html#a6fec94fe501805d572fe2fb64018d91a" target="_top" xlink:title="register_stroke">
<polygon fill="none" stroke="black" points="528.5,-76.5 528.5,-95.5 609.5,-95.5 609.5,-76.5 528.5,-76.5"/>
<text text-anchor="middle" x="569" y="-83.5" font-family="Helvetica,sans-Serif" font-size="10.00">register_stroke</text>
</a>
</g>
</g>
<!-- Node5&#45;&gt;Node6 -->
<g id="edge5" class="edge"><title>Node5&#45;&gt;Node6</title>
<path fill="none" stroke="midnightblue" d="M502.042,-86C510.975,-86 519.932,-86 528.238,-86"/>
<polygon fill="midnightblue" stroke="midnightblue" points="502.002,-82.5001 492.002,-86 502.002,-89.5001 502.002,-82.5001"/>
</g>
<!-- Node7 -->
<g id="node7" class="node"><title>Node7</title>
<g id="a_node7"><a xlink:href="../../d0/d10/stroke__plugin_8c.html#a5df13da493d5d6ff660fcf6f2eca38ca" target="_top" xlink:title="METHOD">
<polygon fill="none" stroke="black" points="646,-76.5 646,-95.5 706,-95.5 706,-76.5 646,-76.5"/>
<text text-anchor="middle" x="676" y="-83.5" font-family="Helvetica,sans-Serif" font-size="10.00">METHOD</text>
</a>
</g>
</g>
<!-- Node6&#45;&gt;Node7 -->
<g id="edge6" class="edge"><title>Node6&#45;&gt;Node7</title>
<path fill="none" stroke="midnightblue" d="M619.954,-86C628.782,-86 637.705,-86 645.723,-86"/>
<polygon fill="midnightblue" stroke="midnightblue" points="619.696,-82.5001 609.696,-86 619.696,-89.5001 619.696,-82.5001"/>
</g>
<!-- Node9 -->
<g id="node9" class="node"><title>Node9</title>
<g id="a_node9"><a xlink:href="../../d6/d52/vici__cred_8c.html#a670020acd664a8d4ba26cde707836d42" target="_top" xlink:title="METHOD">
<polygon fill="none" stroke="black" points="266,-38.5 266,-57.5 326,-57.5 326,-38.5 266,-38.5"/>
<text text-anchor="middle" x="296" y="-45.5" font-family="Helvetica,sans-Serif" font-size="10.00">METHOD</text>
</a>
</g>
</g>
<!-- Node8&#45;&gt;Node9 -->
<g id="edge8" class="edge"><title>Node8&#45;&gt;Node9</title>
<path fill="none" stroke="midnightblue" d="M220.329,-48C236.167,-48 252.492,-48 265.823,-48"/>
<polygon fill="midnightblue" stroke="midnightblue" points="220.028,-44.5001 210.028,-48 220.028,-51.5001 220.028,-44.5001"/>
</g>
<!-- Node10 -->
<g id="node10" class="node"><title>Node10</title>
<g id="a_node10"><a xlink:href="../../d3/d36/group__vici__cred.html#ga8807ffbe245c0baad9d247fbca5e5537" target="_top" xlink:title="vici_cred_create">
<polygon fill="none" stroke="black" points="252,-0.5 252,-19.5 340,-19.5 340,-0.5 252,-0.5"/>
<text text-anchor="middle" x="296" y="-7.5" font-family="Helvetica,sans-Serif" font-size="10.00">vici_cred_create</text>
</a>
</g>
</g>
<!-- Node8&#45;&gt;Node10 -->
<g id="edge9" class="edge"><title>Node8&#45;&gt;Node10</title>
<path fill="none" stroke="midnightblue" d="M203.087,-35.6817C221.772,-30.4607 243.218,-24.4684 260.692,-19.5859"/>
<polygon fill="midnightblue" stroke="midnightblue" points="202.008,-32.349 193.319,-38.411 203.892,-39.0908 202.008,-32.349"/>
</g>
<!-- Node11 -->
<g id="node11" class="node"><title>Node11</title>
<g id="a_node11"><a xlink:href="../../d1/d73/vici__plugin_8c.html#a2f71c61365cc9ae07eca95d2cec1c305" target="_top" xlink:title="register_vici">
<polygon fill="none" stroke="black" points="402.5,-0.5 402.5,-19.5 471.5,-19.5 471.5,-0.5 402.5,-0.5"/>
<text text-anchor="middle" x="437" y="-7.5" font-family="Helvetica,sans-Serif" font-size="10.00">register_vici</text>
</a>
</g>
</g>
<!-- Node10&#45;&gt;Node11 -->
<g id="edge10" class="edge"><title>Node10&#45;&gt;Node11</title>
<path fill="none" stroke="midnightblue" d="M350.262,-10C367.663,-10 386.502,-10 402.077,-10"/>
<polygon fill="midnightblue" stroke="midnightblue" points="350.219,-6.5001 340.219,-10 350.218,-13.5001 350.219,-6.5001"/>
</g>
<!-- Node12 -->
<g id="node12" class="node"><title>Node12</title>
<g id="a_node12"><a xlink:href="../../d1/d73/vici__plugin_8c.html#a0fb4568098134ff06cea5d8cbca4cc84" target="_top" xlink:title="METHOD">
<polygon fill="none" stroke="black" points="539,-0.5 539,-19.5 599,-19.5 599,-0.5 539,-0.5"/>
<text text-anchor="middle" x="569" y="-7.5" font-family="Helvetica,sans-Serif" font-size="10.00">METHOD</text>
</a>
</g>
</g>
<!-- Node11&#45;&gt;Node12 -->
<g id="edge11" class="edge"><title>Node11&#45;&gt;Node12</title>
<path fill="none" stroke="midnightblue" d="M481.911,-10C500.65,-10 522.011,-10 538.767,-10"/>
<polygon fill="midnightblue" stroke="midnightblue" points="481.817,-6.5001 471.817,-10 481.817,-13.5001 481.817,-6.5001"/>
</g>
</g>
</svg>
        <g id="navigator" transform="translate(0 0)" fill="#404254">
                <rect fill="#f2f5e9" fill-opacity="0.5" stroke="#606060" stroke-width=".5" x="0" y="0" width="60" height="60"/>
                <use id="zoomplus" xlink:href="#zoomPlus" x="17" y="9" onmousedown="handleZoom(evt,'in')"/>
                <use id="zoomminus" xlink:href="#zoomMin" x="42" y="9" onmousedown="handleZoom(evt,'out')"/>
                <use id="reset" xlink:href="#resetDef" x="30" y="36" onmousedown="handleReset()"/>
                <g id="arrowUp" xlink:href="#dirArrow" transform="translate(30 24)" onmousedown="handlePan(0,-1)">
                  <use xlink:href="#rim" fill="#404040">
                        <set attributeName="fill" to="#808080" begin="arrowUp.mouseover" end="arrowUp.mouseout"/>
                  </use>
                  <path fill="none" stroke="white" stroke-width="1.5" d="M0,-3.0v7 M-2.5,-0.5L0,-3.0L2.5,-0.5"/>
                </g>
                <g id="arrowRight" xlink:href="#dirArrow" transform="rotate(90) translate(36 -43)" onmousedown="handlePan(1,0)">
                  <use xlink:href="#rim" fill="#404040">
                        <set attributeName="fill" to="#808080" begin="arrowRight.mouseover" end="arrowRight.mouseout"/>
                  </use>
                  <path fill="none" stroke="white" stroke-width="1.5" d="M0,-3.0v7 M-2.5,-0.5L0,-3.0L2.5,-0.5"/>
                </g>
                <g id="arrowDown" xlink:href="#dirArrow" transform="rotate(180) translate(-30 -48)" onmousedown="handlePan(0,1)">
                  <use xlink:href="#rim" fill="#404040">
                        <set attributeName="fill" to="#808080" begin="arrowDown.mouseover" end="arrowDown.mouseout"/>
                  </use>
                  <path fill="none" stroke="white" stroke-width="1.5" d="M0,-3.0v7 M-2.5,-0.5L0,-3.0L2.5,-0.5"/>
                </g>
                <g id="arrowLeft" xlink:href="#dirArrow" transform="rotate(270) translate(-36 17)" onmousedown="handlePan(-1,0)">
                  <use xlink:href="#rim" fill="#404040">
                        <set attributeName="fill" to="#808080" begin="arrowLeft.mouseover" end="arrowLeft.mouseout"/>
                  </use>
                  <path fill="none" stroke="white" stroke-width="1.5" d="M0,-3.0v7 M-2.5,-0.5L0,-3.0L2.5,-0.5"/>
                </g>
        </g>
        <svg viewBox="0 0 15 15" width="100%" height="30px" preserveAspectRatio="xMaxYMin meet">
         <g id="arrow_out" transform="scale(0.3 0.3)">
          <a xlink:href="stroke__cred_8c_a20ed985360afd3fce8d07ba645068e63_icgraph_org.svg" target="_base">
           <rect id="button" ry="5" rx="5" y="6" x="6" height="38" width="38"
                fill="#f2f5e9" fill-opacity="0.5" stroke="#606060" stroke-width="1.0"/>
           <path id="arrow"
             d="M 11.500037,31.436501 C 11.940474,20.09759 22.043105,11.32322 32.158766,21.979434 L 37.068811,17.246167 C 37.068811,17.246167 37.088388,32 37.088388,32 L 22.160133,31.978069 C 22.160133,31.978069 26.997745,27.140456 26.997745,27.140456 C 18.528582,18.264221 13.291696,25.230495 11.500037,31.436501 z"
             style="fill:#404040;"/>
          </a>
         </g>
        </svg>
</svg>
