<?xml version="1.0" encoding="UTF-8" standalone="no"?>
<!DOCTYPE svg PUBLIC "-//W3C//DTD SVG 1.1//EN"
 "http://www.w3.org/Graphics/SVG/1.1/DTD/svg11.dtd">
<!-- Generated by graphviz version 2.36.0 (20140111.2315)
 -->
<!-- Title: certexpire_listener_create Pages: 1 -->
<svg width="386pt" height="142pt"
 viewBox="0.00 0.00 386.00 142.00" xmlns="http://www.w3.org/2000/svg" xmlns:xlink="http://www.w3.org/1999/xlink">
<g id="graph0" class="graph" transform="scale(1 1) rotate(0) translate(4 138)">
<title>certexpire_listener_create</title>
<!-- Node1 -->
<g id="node1" class="node"><title>Node1</title>
<polygon fill="#bfbfbf" stroke="black" points="0,-52 0,-82 96,-82 96,-52 0,-52"/>
<text text-anchor="start" x="8" y="-70" font-family="Helvetica,sans-Serif" font-size="10.00">certexpire_listener</text>
<text text-anchor="middle" x="48" y="-59" font-family="Helvetica,sans-Serif" font-size="10.00">_create</text>
</g>
<!-- Node2 -->
<g id="node2" class="node"><title>Node2</title>
<g id="a_node2"><a xlink:href="../../d9/d7d/pki_2commands_2pkcs12_8c.html#af103bbbdd3701cfdfcf47ca73de6ad01" target="_top" xlink:title="export">
<polygon fill="none" stroke="black" points="132,-57.5 132,-76.5 176,-76.5 176,-57.5 132,-57.5"/>
<text text-anchor="middle" x="154" y="-64.5" font-family="Helvetica,sans-Serif" font-size="10.00">export</text>
</a>
</g>
</g>
<!-- Node1&#45;&gt;Node2 -->
<g id="edge1" class="edge"><title>Node1&#45;&gt;Node2</title>
<path fill="none" stroke="midnightblue" d="M96.1313,-67C104.801,-67 113.653,-67 121.711,-67"/>
<polygon fill="midnightblue" stroke="midnightblue" points="121.766,-70.5001 131.766,-67 121.766,-63.5001 121.766,-70.5001"/>
</g>
<!-- Node3 -->
<g id="node3" class="node"><title>Node3</title>
<g id="a_node3"><a xlink:href="../../dc/d53/group__command.html#gac550624edb43a63d97310c54962c8f66" target="_top" xlink:title="command_usage">
<polygon fill="none" stroke="black" points="212.5,-114.5 212.5,-133.5 303.5,-133.5 303.5,-114.5 212.5,-114.5"/>
<text text-anchor="middle" x="258" y="-121.5" font-family="Helvetica,sans-Serif" font-size="10.00">command_usage</text>
</a>
</g>
</g>
<!-- Node2&#45;&gt;Node3 -->
<g id="edge2" class="edge"><title>Node2&#45;&gt;Node3</title>
<path fill="none" stroke="midnightblue" d="M168.145,-76.801C179.421,-84.9519 196.291,-96.5449 212,-105 215.332,-106.794 218.87,-108.539 222.441,-110.199"/>
<polygon fill="midnightblue" stroke="midnightblue" points="221.289,-113.517 231.85,-114.367 224.124,-107.117 221.289,-113.517"/>
</g>
<!-- Node4 -->
<g id="node4" class="node"><title>Node4</title>
<g id="a_node4"><a xlink:href="../../da/dfc/settings__parser_8c.html#af07d89f5ceaea0c7c8252cc41fd75f37" target="_top" xlink:title="free">
<polygon fill="none" stroke="black" points="241.5,-76.5 241.5,-95.5 274.5,-95.5 274.5,-76.5 241.5,-76.5"/>
<text text-anchor="middle" x="258" y="-83.5" font-family="Helvetica,sans-Serif" font-size="10.00">free</text>
</a>
</g>
</g>
<!-- Node2&#45;&gt;Node4 -->
<g id="edge3" class="edge"><title>Node2&#45;&gt;Node4</title>
<path fill="none" stroke="midnightblue" d="M176.134,-70.9368C192.178,-73.9253 214.309,-78.0477 231.364,-81.2246"/>
<polygon fill="midnightblue" stroke="midnightblue" points="230.755,-84.6713 241.227,-83.0618 232.037,-77.7897 230.755,-84.6713"/>
</g>
<!-- Node5 -->
<g id="node5" class="node"><title>Node5</title>
<g id="a_node5"><a xlink:href="../../df/d1e/group__pki.html#gacca3264c8cdf13c62511ec17dd7780d5" target="_top" xlink:title="get_form">
<polygon fill="none" stroke="black" points="230.5,-38.5 230.5,-57.5 285.5,-57.5 285.5,-38.5 230.5,-38.5"/>
<text text-anchor="middle" x="258" y="-45.5" font-family="Helvetica,sans-Serif" font-size="10.00">get_form</text>
</a>
</g>
</g>
<!-- Node2&#45;&gt;Node5 -->
<g id="edge4" class="edge"><title>Node2&#45;&gt;Node5</title>
<path fill="none" stroke="midnightblue" d="M176.134,-63.0632C188.936,-60.6787 205.613,-57.5722 220.494,-54.8001"/>
<polygon fill="midnightblue" stroke="midnightblue" points="221.25,-58.2196 230.44,-52.9475 219.968,-51.338 221.25,-58.2196"/>
</g>
<!-- Node7 -->
<g id="node7" class="node"><title>Node7</title>
<g id="a_node7"><a xlink:href="../../df/d1e/group__pki.html#ga63674711f2657b283b42d2c0bd0b78f3" target="_top" xlink:title="set_file_mode">
<polygon fill="none" stroke="black" points="219.5,-0.5 219.5,-19.5 296.5,-19.5 296.5,-0.5 219.5,-0.5"/>
<text text-anchor="middle" x="258" y="-7.5" font-family="Helvetica,sans-Serif" font-size="10.00">set_file_mode</text>
</a>
</g>
</g>
<!-- Node2&#45;&gt;Node7 -->
<g id="edge6" class="edge"><title>Node2&#45;&gt;Node7</title>
<path fill="none" stroke="midnightblue" d="M168.145,-57.199C179.421,-49.0481 196.291,-37.4551 212,-29 215.332,-27.2064 218.87,-25.4609 222.441,-23.801"/>
<polygon fill="midnightblue" stroke="midnightblue" points="224.124,-26.8834 231.85,-19.6334 221.289,-20.4831 224.124,-26.8834"/>
</g>
<!-- Node6 -->
<g id="node6" class="node"><title>Node6</title>
<g id="a_node6"><a xlink:href="../../d4/d40/group__string__i.html#ga65c3d08890165aaa4663c72d07f93bb7" target="_top" xlink:title="streq">
<polygon fill="none" stroke="black" points="340,-38.5 340,-57.5 378,-57.5 378,-38.5 340,-38.5"/>
<text text-anchor="middle" x="359" y="-45.5" font-family="Helvetica,sans-Serif" font-size="10.00">streq</text>
</a>
</g>
</g>
<!-- Node5&#45;&gt;Node6 -->
<g id="edge5" class="edge"><title>Node5&#45;&gt;Node6</title>
<path fill="none" stroke="midnightblue" d="M285.53,-48C299.223,-48 315.928,-48 329.847,-48"/>
<polygon fill="midnightblue" stroke="midnightblue" points="329.853,-51.5001 339.853,-48 329.853,-44.5001 329.853,-51.5001"/>
</g>
</g>
</svg>
