<?xml version="1.0" encoding="UTF-8" standalone="no"?>
<!DOCTYPE svg PUBLIC "-//W3C//DTD SVG 1.1//EN"
 "http://www.w3.org/Graphics/SVG/1.1/DTD/svg11.dtd">
<!-- Generated by graphviz version 2.36.0 (20140111.2315)
 -->
<!-- Title: imv_msg_create_as_reply Pages: 1 -->
<svg width="344pt" height="28pt"
 viewBox="0.00 0.00 344.00 28.00" xmlns="http://www.w3.org/2000/svg" xmlns:xlink="http://www.w3.org/1999/xlink">
<g id="graph0" class="graph" transform="scale(1 1) rotate(0) translate(4 24)">
<title>imv_msg_create_as_reply</title>
<!-- Node1 -->
<g id="node1" class="node"><title>Node1</title>
<polygon fill="#bfbfbf" stroke="black" points="0.5,-0.5 0.5,-19.5 131.5,-19.5 131.5,-0.5 0.5,-0.5"/>
<text text-anchor="middle" x="66" y="-7.5" font-family="Helvetica,sans-Serif" font-size="10.00">imv_msg_create_as_reply</text>
</g>
<!-- Node2 -->
<g id="node2" class="node"><title>Node2</title>
<g id="a_node2"><a xlink:href="../../de/d68/imv__attestation__agent_8c.html#a455f50f5cc1898f1557709c4e61c19e7" target="_top" xlink:title="receive_msg">
<polygon fill="none" stroke="black" points="168,-0.5 168,-19.5 240,-19.5 240,-0.5 168,-0.5"/>
<text text-anchor="middle" x="204" y="-7.5" font-family="Helvetica,sans-Serif" font-size="10.00">receive_msg</text>
</a>
</g>
</g>
<!-- Node1&#45;&gt;Node2 -->
<g id="edge1" class="edge"><title>Node1&#45;&gt;Node2</title>
<path fill="none" stroke="midnightblue" d="M142.025,-10C151.038,-10 159.884,-10 167.921,-10"/>
<polygon fill="midnightblue" stroke="midnightblue" points="141.814,-6.5001 131.814,-10 141.814,-13.5001 141.814,-6.5001"/>
</g>
<!-- Node3 -->
<g id="node3" class="node"><title>Node3</title>
<g id="a_node3"><a xlink:href="../../de/d68/imv__attestation__agent_8c.html#a2d0cd34e852005bcc3956ab37f3c7600" target="_top" xlink:title="METHOD">
<polygon fill="none" stroke="black" points="276,-0.5 276,-19.5 336,-19.5 336,-0.5 276,-0.5"/>
<text text-anchor="middle" x="306" y="-7.5" font-family="Helvetica,sans-Serif" font-size="10.00">METHOD</text>
</a>
</g>
</g>
<!-- Node2&#45;&gt;Node3 -->
<g id="edge2" class="edge"><title>Node2&#45;&gt;Node3</title>
<path fill="none" stroke="midnightblue" d="M250.524,-10C259.069,-10 267.79,-10 275.678,-10"/>
<polygon fill="midnightblue" stroke="midnightblue" points="250.256,-6.5001 240.256,-10 250.256,-13.5001 250.256,-6.5001"/>
</g>
</g>
</svg>
