<?xml version="1.0" encoding="UTF-8" standalone="no"?>
<!DOCTYPE svg PUBLIC "-//W3C//DTD SVG 1.1//EN"
 "http://www.w3.org/Graphics/SVG/1.1/DTD/svg11.dtd">
<!-- Generated by graphviz version 2.36.0 (20140111.2315)
 -->
<!-- Title: list_sas Pages: 1 -->
<svg width="530pt" height="85pt"
 viewBox="0.00 0.00 530.00 85.00" xmlns="http://www.w3.org/2000/svg" xmlns:xlink="http://www.w3.org/1999/xlink">
<g id="graph0" class="graph" transform="scale(1 1) rotate(0) translate(4 81)">
<title>list_sas</title>
<!-- Node1 -->
<g id="node1" class="node"><title>Node1</title>
<polygon fill="#bfbfbf" stroke="black" points="0,-38.5 0,-57.5 50,-57.5 50,-38.5 0,-38.5"/>
<text text-anchor="middle" x="25" y="-45.5" font-family="Helvetica,sans-Serif" font-size="10.00">list_sas</text>
</g>
<!-- Node2 -->
<g id="node2" class="node"><title>Node2</title>
<g id="a_node2"><a xlink:href="../../d8/d2d/list__sas_8c.html#a1a70bc9ff30788fe7ceeb823942615c8" target="_top" xlink:title="__attribute__">
<polygon fill="none" stroke="black" points="101.5,-57.5 101.5,-76.5 174.5,-76.5 174.5,-57.5 101.5,-57.5"/>
<text text-anchor="middle" x="138" y="-64.5" font-family="Helvetica,sans-Serif" font-size="10.00">__attribute__</text>
</a>
</g>
</g>
<!-- Node1&#45;&gt;Node2 -->
<g id="edge1" class="edge"><title>Node1&#45;&gt;Node2</title>
<path fill="none" stroke="midnightblue" d="M60.0619,-53.8304C73.0841,-56.0594 87.9667,-58.6069 101.151,-60.8636"/>
<polygon fill="midnightblue" stroke="midnightblue" points="60.5325,-50.3601 50.0853,-52.1227 59.3515,-57.2598 60.5325,-50.3601"/>
</g>
<!-- Node3 -->
<g id="node3" class="node"><title>Node3</title>
<g id="a_node3"><a xlink:href="../../d1/d64/vici__query_8c.html#adc8d656d179e09e414052151b6beb059" target="_top" xlink:title="manage_commands">
<polygon fill="none" stroke="black" points="86,-19.5 86,-38.5 190,-38.5 190,-19.5 86,-19.5"/>
<text text-anchor="middle" x="138" y="-26.5" font-family="Helvetica,sans-Serif" font-size="10.00">manage_commands</text>
</a>
</g>
</g>
<!-- Node1&#45;&gt;Node3 -->
<g id="edge2" class="edge"><title>Node1&#45;&gt;Node3</title>
<path fill="none" stroke="midnightblue" d="M60.1909,-42.1475C68.2408,-40.7696 76.9957,-39.271 85.6175,-37.7952"/>
<polygon fill="midnightblue" stroke="midnightblue" points="59.3515,-38.7402 50.0853,-43.8773 60.5325,-45.6399 59.3515,-38.7402"/>
</g>
<!-- Node4 -->
<g id="node4" class="node"><title>Node4</title>
<g id="a_node4"><a xlink:href="../../d1/d64/vici__query_8c.html#a70b1ab21ab8a7bacd5cd1e6f9b5bcf23" target="_top" xlink:title="METHOD">
<polygon fill="none" stroke="black" points="243,-38.5 243,-57.5 303,-57.5 303,-38.5 243,-38.5"/>
<text text-anchor="middle" x="273" y="-45.5" font-family="Helvetica,sans-Serif" font-size="10.00">METHOD</text>
</a>
</g>
</g>
<!-- Node3&#45;&gt;Node4 -->
<g id="edge3" class="edge"><title>Node3&#45;&gt;Node4</title>
<path fill="none" stroke="midnightblue" d="M200.225,-37.7464C215.069,-39.8671 230.267,-42.0381 242.833,-43.8333"/>
<polygon fill="midnightblue" stroke="midnightblue" points="200.435,-34.241 190.041,-36.2916 199.445,-41.1707 200.435,-34.241"/>
</g>
<!-- Node5 -->
<g id="node5" class="node"><title>Node5</title>
<g id="a_node5"><a xlink:href="../../d1/d0b/group__vici__query.html#ga195348ad305c23aed1cf6e9330250c15" target="_top" xlink:title="vici_query_create">
<polygon fill="none" stroke="black" points="226.5,-0.5 226.5,-19.5 319.5,-19.5 319.5,-0.5 226.5,-0.5"/>
<text text-anchor="middle" x="273" y="-7.5" font-family="Helvetica,sans-Serif" font-size="10.00">vici_query_create</text>
</a>
</g>
</g>
<!-- Node3&#45;&gt;Node5 -->
<g id="edge4" class="edge"><title>Node3&#45;&gt;Node5</title>
<path fill="none" stroke="midnightblue" d="M200.183,-20.2596C208.901,-19.0141 217.742,-17.7512 226.101,-16.557"/>
<polygon fill="midnightblue" stroke="midnightblue" points="199.445,-16.8293 190.041,-21.7084 200.435,-23.759 199.445,-16.8293"/>
</g>
<!-- Node6 -->
<g id="node6" class="node"><title>Node6</title>
<g id="a_node6"><a xlink:href="../../d1/d73/vici__plugin_8c.html#a2f71c61365cc9ae07eca95d2cec1c305" target="_top" xlink:title="register_vici">
<polygon fill="none" stroke="black" points="356.5,-0.5 356.5,-19.5 425.5,-19.5 425.5,-0.5 356.5,-0.5"/>
<text text-anchor="middle" x="391" y="-7.5" font-family="Helvetica,sans-Serif" font-size="10.00">register_vici</text>
</a>
</g>
</g>
<!-- Node5&#45;&gt;Node6 -->
<g id="edge5" class="edge"><title>Node5&#45;&gt;Node6</title>
<path fill="none" stroke="midnightblue" d="M329.743,-10C338.874,-10 348.08,-10 356.454,-10"/>
<polygon fill="midnightblue" stroke="midnightblue" points="329.513,-6.5001 319.513,-10 329.513,-13.5001 329.513,-6.5001"/>
</g>
<!-- Node7 -->
<g id="node7" class="node"><title>Node7</title>
<g id="a_node7"><a xlink:href="../../d1/d73/vici__plugin_8c.html#a0fb4568098134ff06cea5d8cbca4cc84" target="_top" xlink:title="METHOD">
<polygon fill="none" stroke="black" points="462,-0.5 462,-19.5 522,-19.5 522,-0.5 462,-0.5"/>
<text text-anchor="middle" x="492" y="-7.5" font-family="Helvetica,sans-Serif" font-size="10.00">METHOD</text>
</a>
</g>
</g>
<!-- Node6&#45;&gt;Node7 -->
<g id="edge6" class="edge"><title>Node6&#45;&gt;Node7</title>
<path fill="none" stroke="midnightblue" d="M435.708,-10C444.547,-10 453.634,-10 461.824,-10"/>
<polygon fill="midnightblue" stroke="midnightblue" points="435.517,-6.5001 425.517,-10 435.517,-13.5001 435.517,-6.5001"/>
</g>
</g>
</svg>
