<?xml version="1.0" encoding="UTF-8" standalone="no"?>
<!DOCTYPE svg PUBLIC "-//W3C//DTD SVG 1.1//EN"
 "http://www.w3.org/Graphics/SVG/1.1/DTD/svg11.dtd">
<!-- Generated by graphviz version 2.36.0 (20140111.2315)
 -->
<!-- Title: private_tls_protection_t Pages: 1 -->
<svg width="320pt" height="106pt"
 viewBox="0.00 0.00 320.00 106.00" xmlns="http://www.w3.org/2000/svg" xmlns:xlink="http://www.w3.org/1999/xlink">
<g id="graph0" class="graph" transform="scale(1 1) rotate(0) translate(4 102)">
<title>private_tls_protection_t</title>
<!-- Node1 -->
<g id="node1" class="node"><title>Node1</title>
<polygon fill="#bfbfbf" stroke="black" points="73,-0.5 73,-19.5 191,-19.5 191,-0.5 73,-0.5"/>
<text text-anchor="middle" x="132" y="-7.5" font-family="Helvetica,sans-Serif" font-size="10.00">private_tls_protection_t</text>
</g>
<!-- Node2 -->
<g id="node2" class="node"><title>Node2</title>
<g id="a_node2"><a xlink:href="../../de/d64/structtls__alert__t.html" target="_top" xlink:title="tls_alert_t">
<polygon fill="none" stroke="black" points="-0.5,-78.5 -0.5,-97.5 58.5,-97.5 58.5,-78.5 -0.5,-78.5"/>
<text text-anchor="middle" x="29" y="-85.5" font-family="Helvetica,sans-Serif" font-size="10.00">tls_alert_t</text>
</a>
</g>
</g>
<!-- Node2&#45;&gt;Node1 -->
<g id="edge1" class="edge"><title>Node2&#45;&gt;Node1</title>
<path fill="none" stroke="#9a32cd" stroke-dasharray="5,2" d="M43.9334,-70.8457C53.842,-60.6745 67.4702,-47.6857 81,-38 90.9384,-30.8854 102.987,-24.4198 112.877,-19.6006"/>
<polygon fill="#9a32cd" stroke="#9a32cd" points="41.2154,-68.6247 36.8572,-78.2816 46.2863,-73.4502 41.2154,-68.6247"/>
<text text-anchor="middle" x="92" y="-46.5" font-family="Helvetica,sans-Serif" font-size="10.00"> alert</text>
</g>
<!-- Node3 -->
<g id="node3" class="node"><title>Node3</title>
<polygon fill="none" stroke="#bfbfbf" points="76.5,-78.5 76.5,-97.5 117.5,-97.5 117.5,-78.5 76.5,-78.5"/>
<text text-anchor="middle" x="97" y="-85.5" font-family="Helvetica,sans-Serif" font-size="10.00">struct</text>
</g>
<!-- Node3&#45;&gt;Node1 -->
<g id="edge2" class="edge"><title>Node3&#45;&gt;Node1</title>
<path fill="none" stroke="#9a32cd" stroke-dasharray="5,2" d="M103.162,-69.022C106.586,-59.6211 111.131,-48.0166 116,-38 119.049,-31.7273 123.049,-24.9773 126.287,-19.7955"/>
<polygon fill="#9a32cd" stroke="#9a32cd" points="99.8459,-67.9028 99.8164,-78.4976 106.446,-70.2337 99.8459,-67.9028"/>
<text text-anchor="middle" x="130.5" y="-46.5" font-family="Helvetica,sans-Serif" font-size="10.00"> public</text>
</g>
<!-- Node4 -->
<g id="node4" class="node"><title>Node4</title>
<g id="a_node4"><a xlink:href="../../d7/d4c/structtls__aead__t.html" target="_top" xlink:title="tls_aead_t">
<polygon fill="none" stroke="black" points="136,-78.5 136,-97.5 198,-97.5 198,-78.5 136,-78.5"/>
<text text-anchor="middle" x="167" y="-85.5" font-family="Helvetica,sans-Serif" font-size="10.00">tls_aead_t</text>
</a>
</g>
</g>
<!-- Node4&#45;&gt;Node1 -->
<g id="edge3" class="edge"><title>Node4&#45;&gt;Node1</title>
<path fill="none" stroke="#9a32cd" stroke-dasharray="5,2" d="M159.028,-68.9374C154.9,-59.6628 149.743,-48.1977 145,-38 142.192,-31.9619 138.942,-25.2119 136.394,-19.9715"/>
<polygon fill="#9a32cd" stroke="#9a32cd" points="155.923,-70.5697 163.175,-78.2939 162.323,-67.7333 155.923,-70.5697"/>
<text text-anchor="middle" x="176.5" y="-52" font-family="Helvetica,sans-Serif" font-size="10.00"> aead_out</text>
<text text-anchor="middle" x="176.5" y="-41" font-family="Helvetica,sans-Serif" font-size="10.00">aead_in</text>
</g>
<!-- Node5 -->
<g id="node5" class="node"><title>Node5</title>
<g id="a_node5"><a xlink:href="../../d3/dce/structtls__compression__t.html" target="_top" xlink:title="tls_compression_t">
<polygon fill="none" stroke="black" points="216,-78.5 216,-97.5 312,-97.5 312,-78.5 216,-78.5"/>
<text text-anchor="middle" x="264" y="-85.5" font-family="Helvetica,sans-Serif" font-size="10.00">tls_compression_t</text>
</a>
</g>
</g>
<!-- Node5&#45;&gt;Node1 -->
<g id="edge4" class="edge"><title>Node5&#45;&gt;Node1</title>
<path fill="none" stroke="#9a32cd" stroke-dasharray="5,2" d="M247.212,-71.4378C235.275,-60.9678 218.493,-47.41 202,-38 188.763,-30.4479 173.004,-24.1592 159.793,-19.5565"/>
<polygon fill="#9a32cd" stroke="#9a32cd" points="245.197,-74.3324 254.975,-78.4124 249.876,-69.1254 245.197,-74.3324"/>
<text text-anchor="middle" x="262.5" y="-46.5" font-family="Helvetica,sans-Serif" font-size="10.00"> compression</text>
</g>
</g>
</svg>
