<?xml version="1.0" encoding="UTF-8" standalone="no"?>
<!DOCTYPE svg PUBLIC "-//W3C//DTD SVG 1.1//EN"
 "http://www.w3.org/Graphics/SVG/1.1/DTD/svg11.dtd">
<!-- Generated by graphviz version 2.36.0 (20140111.2315)
 -->
<!-- Title: add_auth_cfg Pages: 1 -->
<svg width="930pt" height="765pt"
 viewBox="0.00 0.00 930.00 765.00" xmlns="http://www.w3.org/2000/svg" xmlns:xlink="http://www.w3.org/1999/xlink">
<g id="graph0" class="graph" transform="scale(1 1) rotate(0) translate(4 761)">
<title>add_auth_cfg</title>
<!-- Node1 -->
<g id="node1" class="node"><title>Node1</title>
<polygon fill="#bfbfbf" stroke="black" points="0.5,-329.5 0.5,-348.5 75.5,-348.5 75.5,-329.5 0.5,-329.5"/>
<text text-anchor="middle" x="38" y="-336.5" font-family="Helvetica,sans-Serif" font-size="10.00">add_auth_cfg</text>
</g>
<!-- Node2 -->
<g id="node2" class="node"><title>Node2</title>
<g id="a_node2"><a xlink:href="../../d7/d9c/cmd__connection_8c.html#a69a2225da93d04a822cb999d15797b13" target="_top" xlink:title="add_auth_cfgs">
<polygon fill="none" stroke="black" points="115,-397.5 115,-416.5 195,-416.5 195,-397.5 115,-397.5"/>
<text text-anchor="middle" x="155" y="-404.5" font-family="Helvetica,sans-Serif" font-size="10.00">add_auth_cfgs</text>
</a>
</g>
</g>
<!-- Node1&#45;&gt;Node2 -->
<g id="edge1" class="edge"><title>Node1&#45;&gt;Node2</title>
<path fill="none" stroke="midnightblue" d="M64.1385,-353.865C86.5828,-367.136 118.782,-386.175 137.925,-397.495"/>
<polygon fill="midnightblue" stroke="midnightblue" points="65.8659,-350.82 55.4767,-348.743 62.303,-356.845 65.8659,-350.82"/>
</g>
<!-- Node24 -->
<g id="node24" class="node"><title>Node24</title>
<g id="a_node24"><a xlink:href="../../db/d07/group__peer__cfg.html#ga6c9fa5c7aa3d701f979c28d6766e7742" target="_top" xlink:title="peer_cfg_create">
<polygon fill="none" stroke="black" points="112,-262.5 112,-281.5 198,-281.5 198,-262.5 112,-262.5"/>
<text text-anchor="middle" x="155" y="-269.5" font-family="Helvetica,sans-Serif" font-size="10.00">peer_cfg_create</text>
</a>
</g>
</g>
<!-- Node1&#45;&gt;Node24 -->
<g id="edge28" class="edge"><title>Node1&#45;&gt;Node24</title>
<path fill="none" stroke="midnightblue" d="M64.3841,-324.211C86.6724,-311.226 118.439,-292.718 137.554,-281.582"/>
<polygon fill="midnightblue" stroke="midnightblue" points="62.3553,-321.342 55.4767,-329.401 65.8792,-327.391 62.3553,-321.342"/>
</g>
<!-- Node3 -->
<g id="node3" class="node"><title>Node3</title>
<g id="a_node3"><a xlink:href="../../d7/d9c/cmd__connection_8c.html#a1ef10a08acb2689e03be939316fb0a76" target="_top" xlink:title="initiate">
<polygon fill="none" stroke="black" points="415.5,-490.5 415.5,-509.5 460.5,-509.5 460.5,-490.5 415.5,-490.5"/>
<text text-anchor="middle" x="438" y="-497.5" font-family="Helvetica,sans-Serif" font-size="10.00">initiate</text>
</a>
</g>
</g>
<!-- Node2&#45;&gt;Node3 -->
<g id="edge2" class="edge"><title>Node2&#45;&gt;Node3</title>
<path fill="none" stroke="midnightblue" d="M177.44,-422.494C192.584,-432.778 213.716,-445.838 234,-454 297.193,-479.429 377.387,-492.35 415.283,-497.396"/>
<polygon fill="midnightblue" stroke="midnightblue" points="179.054,-419.354 168.846,-416.518 175.058,-425.101 179.054,-419.354"/>
</g>
<!-- Node4 -->
<g id="node4" class="node"><title>Node4</title>
<g id="a_node4"><a xlink:href="../../d6/d76/group__cmd__connection.html#gac1bbf39b98183c6bab6a662794a6af8b" target="_top" xlink:title="cmd_connection_create">
<polygon fill="none" stroke="black" points="553,-737.5 553,-756.5 673,-756.5 673,-737.5 553,-737.5"/>
<text text-anchor="middle" x="613" y="-744.5" font-family="Helvetica,sans-Serif" font-size="10.00">cmd_connection_create</text>
</a>
</g>
</g>
<!-- Node3&#45;&gt;Node4 -->
<g id="edge3" class="edge"><title>Node3&#45;&gt;Node4</title>
<path fill="none" stroke="midnightblue" d="M442.283,-519.482C450.747,-563.521 477.487,-671.309 544,-728 548.571,-731.896 553.884,-734.997 559.486,-737.464"/>
<polygon fill="midnightblue" stroke="midnightblue" points="445.703,-518.721 440.474,-509.506 438.815,-519.97 445.703,-518.721"/>
</g>
<!-- Node6 -->
<g id="node6" class="node"><title>Node6</title>
<g id="a_node6"><a xlink:href="../../dc/dcd/eap__dynamic_8c.html#aef7bb76dc65720e71fe985b96a55e686" target="_top" xlink:title="METHOD">
<polygon fill="none" stroke="black" points="583,-699.5 583,-718.5 643,-718.5 643,-699.5 583,-699.5"/>
<text text-anchor="middle" x="613" y="-706.5" font-family="Helvetica,sans-Serif" font-size="10.00">METHOD</text>
</a>
</g>
</g>
<!-- Node3&#45;&gt;Node6 -->
<g id="edge5" class="edge"><title>Node3&#45;&gt;Node6</title>
<path fill="none" stroke="midnightblue" d="M444.266,-519.591C455.679,-558.233 486.426,-644.462 544,-690 555.056,-698.745 569.901,-703.467 582.9,-706.016"/>
<polygon fill="midnightblue" stroke="midnightblue" points="447.535,-518.292 441.443,-509.624 440.8,-520.199 447.535,-518.292"/>
</g>
<!-- Node7 -->
<g id="node7" class="node"><title>Node7</title>
<g id="a_node7"><a xlink:href="../../df/d1c/eap__sim__server_8c.html#a5c715475e36cb706efd0ea0e788bcae6" target="_top" xlink:title="process_reauthentication">
<polygon fill="none" stroke="black" points="550.5,-661.5 550.5,-680.5 675.5,-680.5 675.5,-661.5 550.5,-661.5"/>
<text text-anchor="middle" x="613" y="-668.5" font-family="Helvetica,sans-Serif" font-size="10.00">process_reauthentication</text>
</a>
</g>
</g>
<!-- Node3&#45;&gt;Node7 -->
<g id="edge6" class="edge"><title>Node3&#45;&gt;Node7</title>
<path fill="none" stroke="midnightblue" d="M446.762,-518.763C461.079,-551.018 494.749,-616.886 544,-652 549.489,-655.914 555.759,-659.023 562.22,-661.492"/>
<polygon fill="midnightblue" stroke="midnightblue" points="449.967,-517.356 442.799,-509.554 443.537,-520.123 449.967,-517.356"/>
</g>
<!-- Node9 -->
<g id="node9" class="node"><title>Node9</title>
<g id="a_node9"><a xlink:href="../../df/d1c/eap__sim__server_8c.html#adc5c864cb1363dd78375fc1078af7c62" target="_top" xlink:title="process_start">
<polygon fill="none" stroke="black" points="575,-623.5 575,-642.5 651,-642.5 651,-623.5 575,-623.5"/>
<text text-anchor="middle" x="613" y="-630.5" font-family="Helvetica,sans-Serif" font-size="10.00">process_start</text>
</a>
</g>
</g>
<!-- Node3&#45;&gt;Node9 -->
<g id="edge8" class="edge"><title>Node3&#45;&gt;Node9</title>
<path fill="none" stroke="midnightblue" d="M450.86,-518.236C468.257,-543.526 503.102,-588.955 544,-614 553.304,-619.697 564.357,-623.73 574.819,-626.566"/>
<polygon fill="midnightblue" stroke="midnightblue" points="453.551,-515.965 445.07,-509.614 447.739,-519.867 453.551,-515.965"/>
</g>
<!-- Node10 -->
<g id="node10" class="node"><title>Node10</title>
<g id="a_node10"><a xlink:href="../../d1/da3/starterstroke_8h.html#a16de976bff82898fcba0133cea7cc861" target="_top" xlink:title="starter_stroke_initiate_conn">
<polygon fill="none" stroke="black" points="544.5,-585.5 544.5,-604.5 681.5,-604.5 681.5,-585.5 544.5,-585.5"/>
<text text-anchor="middle" x="613" y="-592.5" font-family="Helvetica,sans-Serif" font-size="10.00">starter_stroke_initiate_conn</text>
</a>
</g>
</g>
<!-- Node3&#45;&gt;Node10 -->
<g id="edge10" class="edge"><title>Node3&#45;&gt;Node10</title>
<path fill="none" stroke="midnightblue" d="M457.194,-516.296C477.171,-533.406 510.837,-560.001 544,-576 551.838,-579.782 560.56,-582.927 569.071,-585.498"/>
<polygon fill="midnightblue" stroke="midnightblue" points="459.351,-513.533 449.512,-509.602 454.752,-518.81 459.351,-513.533"/>
</g>
<!-- Node12 -->
<g id="node12" class="node"><title>Node12</title>
<g id="a_node12"><a xlink:href="../../d9/d93/stroke_8c.html#a40ff5da1155ecc33ffa39f92748f0c7f" target="_top" xlink:title="del_connection">
<polygon fill="none" stroke="black" points="572,-547.5 572,-566.5 654,-566.5 654,-547.5 572,-547.5"/>
<text text-anchor="middle" x="613" y="-554.5" font-family="Helvetica,sans-Serif" font-size="10.00">del_connection</text>
</a>
</g>
</g>
<!-- Node3&#45;&gt;Node12 -->
<g id="edge12" class="edge"><title>Node3&#45;&gt;Node12</title>
<path fill="none" stroke="midnightblue" d="M470.133,-511.96C490.916,-519.771 518.931,-529.974 544,-538 554.273,-541.289 565.519,-544.562 575.854,-547.441"/>
<polygon fill="midnightblue" stroke="midnightblue" points="471.148,-508.601 460.556,-508.337 468.671,-515.148 471.148,-508.601"/>
</g>
<!-- Node14 -->
<g id="node14" class="node"><title>Node14</title>
<g id="a_node14"><a xlink:href="../../d9/d93/stroke_8c.html#a6412e347c9d654d7884d838e223cc1fd" target="_top" xlink:title="initiate_connection">
<polygon fill="none" stroke="black" points="564,-509.5 564,-528.5 662,-528.5 662,-509.5 564,-509.5"/>
<text text-anchor="middle" x="613" y="-516.5" font-family="Helvetica,sans-Serif" font-size="10.00">initiate_connection</text>
</a>
</g>
</g>
<!-- Node3&#45;&gt;Node14 -->
<g id="edge14" class="edge"><title>Node3&#45;&gt;Node14</title>
<path fill="none" stroke="midnightblue" d="M470.651,-503.476C496.743,-506.342 534.17,-510.452 563.957,-513.724"/>
<polygon fill="midnightblue" stroke="midnightblue" points="470.883,-499.981 460.561,-502.368 470.119,-506.939 470.883,-499.981"/>
</g>
<!-- Node15 -->
<g id="node15" class="node"><title>Node15</title>
<g id="a_node15"><a xlink:href="../../d9/d93/stroke_8c.html#a969015c6087ea300e957ec205c4bc815" target="_top" xlink:title="terminate_connection">
<polygon fill="none" stroke="black" points="558,-471.5 558,-490.5 668,-490.5 668,-471.5 558,-471.5"/>
<text text-anchor="middle" x="613" y="-478.5" font-family="Helvetica,sans-Serif" font-size="10.00">terminate_connection</text>
</a>
</g>
</g>
<!-- Node3&#45;&gt;Node15 -->
<g id="edge16" class="edge"><title>Node3&#45;&gt;Node15</title>
<path fill="none" stroke="midnightblue" d="M470.659,-496.523C494.974,-493.853 529.128,-490.102 557.771,-486.956"/>
<polygon fill="midnightblue" stroke="midnightblue" points="470.119,-493.061 460.561,-497.632 470.883,-500.019 470.119,-493.061"/>
</g>
<!-- Node16 -->
<g id="node16" class="node"><title>Node16</title>
<g id="a_node16"><a xlink:href="../../dd/d65/task__manager__v1_8c.html#a4e51f0d370b0cb7eb17fdddf8ea4e8ce" target="_top" xlink:title="build_response">
<polygon fill="none" stroke="black" points="572,-433.5 572,-452.5 654,-452.5 654,-433.5 572,-433.5"/>
<text text-anchor="middle" x="613" y="-440.5" font-family="Helvetica,sans-Serif" font-size="10.00">build_response</text>
</a>
</g>
</g>
<!-- Node3&#45;&gt;Node16 -->
<g id="edge18" class="edge"><title>Node3&#45;&gt;Node16</title>
<path fill="none" stroke="midnightblue" d="M470.133,-488.04C490.916,-480.229 518.931,-470.026 544,-462 554.273,-458.711 565.519,-455.438 575.854,-452.559"/>
<polygon fill="midnightblue" stroke="midnightblue" points="468.671,-484.852 460.556,-491.663 471.148,-491.399 468.671,-484.852"/>
</g>
<!-- Node17 -->
<g id="node17" class="node"><title>Node17</title>
<g id="a_node17"><a xlink:href="../../dd/d65/task__manager__v1_8c.html#a59c7285b6e10f3a3ac399f08a50bc59d" target="_top" xlink:title="process_request">
<polygon fill="none" stroke="black" points="722.5,-395.5 722.5,-414.5 811.5,-414.5 811.5,-395.5 722.5,-395.5"/>
<text text-anchor="middle" x="767" y="-402.5" font-family="Helvetica,sans-Serif" font-size="10.00">process_request</text>
</a>
</g>
</g>
<!-- Node3&#45;&gt;Node17 -->
<g id="edge21" class="edge"><title>Node3&#45;&gt;Node17</title>
<path fill="none" stroke="midnightblue" d="M455.738,-483.333C475.13,-465.194 508.934,-437.037 544,-424 602.919,-402.095 676.488,-400.343 722.369,-401.986"/>
<polygon fill="midnightblue" stroke="midnightblue" points="453.142,-480.973 448.347,-490.421 457.987,-486.025 453.142,-480.973"/>
</g>
<!-- Node19 -->
<g id="node19" class="node"><title>Node19</title>
<g id="a_node19"><a xlink:href="../../dd/d65/task__manager__v1_8c.html#aeb437722d385f437cd878a8697a39585" target="_top" xlink:title="process_response">
<polygon fill="none" stroke="black" points="719,-357.5 719,-376.5 815,-376.5 815,-357.5 719,-357.5"/>
<text text-anchor="middle" x="767" y="-364.5" font-family="Helvetica,sans-Serif" font-size="10.00">process_response</text>
</a>
</g>
</g>
<!-- Node3&#45;&gt;Node19 -->
<g id="edge22" class="edge"><title>Node3&#45;&gt;Node19</title>
<path fill="none" stroke="midnightblue" d="M451.444,-482.283C469.078,-458.704 503.714,-417.701 544,-398 599.76,-370.732 672.216,-365.409 718.917,-365.27"/>
<polygon fill="midnightblue" stroke="midnightblue" points="448.6,-480.242 445.541,-490.386 454.258,-484.364 448.6,-480.242"/>
</g>
<!-- Node20 -->
<g id="node20" class="node"><title>Node20</title>
<g id="a_node20"><a xlink:href="../../d8/dcf/vici__control_8c.html#a109fbee55e088f62e93835de06173387" target="_top" xlink:title="manage_commands">
<polygon fill="none" stroke="black" points="561,-319.5 561,-338.5 665,-338.5 665,-319.5 561,-319.5"/>
<text text-anchor="middle" x="613" y="-326.5" font-family="Helvetica,sans-Serif" font-size="10.00">manage_commands</text>
</a>
</g>
</g>
<!-- Node3&#45;&gt;Node20 -->
<g id="edge24" class="edge"><title>Node3&#45;&gt;Node20</title>
<path fill="none" stroke="midnightblue" d="M451.087,-481.814C475.973,-444.565 531.639,-362.298 544,-353 552.304,-346.754 562.371,-342.035 572.186,-338.51"/>
<polygon fill="midnightblue" stroke="midnightblue" points="448.103,-479.981 445.469,-490.243 453.928,-483.863 448.103,-479.981"/>
</g>
<!-- Node5 -->
<g id="node5" class="node"><title>Node5</title>
<g id="a_node5"><a xlink:href="../../d6/d89/charon-cmd_8c.html#a0ddf1224851353fc92bfbff6f499fa97" target="_top" xlink:title="main">
<polygon fill="none" stroke="black" points="748,-737.5 748,-756.5 786,-756.5 786,-737.5 748,-737.5"/>
<text text-anchor="middle" x="767" y="-744.5" font-family="Helvetica,sans-Serif" font-size="10.00">main</text>
</a>
</g>
</g>
<!-- Node4&#45;&gt;Node5 -->
<g id="edge4" class="edge"><title>Node4&#45;&gt;Node5</title>
<path fill="none" stroke="midnightblue" d="M683.314,-747C707.098,-747 731.762,-747 747.892,-747"/>
<polygon fill="midnightblue" stroke="midnightblue" points="683.202,-743.5 673.202,-747 683.202,-750.5 683.202,-743.5"/>
</g>
<!-- Node8 -->
<g id="node8" class="node"><title>Node8</title>
<g id="a_node8"><a xlink:href="../../df/d1c/eap__sim__server_8c.html#abddf79d86faa14f26a9c3d1e73ef1bb6" target="_top" xlink:title="METHOD">
<polygon fill="none" stroke="black" points="737,-642.5 737,-661.5 797,-661.5 797,-642.5 737,-642.5"/>
<text text-anchor="middle" x="767" y="-649.5" font-family="Helvetica,sans-Serif" font-size="10.00">METHOD</text>
</a>
</g>
</g>
<!-- Node7&#45;&gt;Node8 -->
<g id="edge7" class="edge"><title>Node7&#45;&gt;Node8</title>
<path fill="none" stroke="midnightblue" d="M685.771,-662.029C703.782,-659.777 722.11,-657.486 736.693,-655.663"/>
<polygon fill="midnightblue" stroke="midnightblue" points="685.313,-658.559 675.824,-663.272 686.181,-665.505 685.313,-658.559"/>
</g>
<!-- Node9&#45;&gt;Node8 -->
<g id="edge9" class="edge"><title>Node9&#45;&gt;Node8</title>
<path fill="none" stroke="midnightblue" d="M661.433,-638.929C686.108,-642.013 715.484,-645.685 736.808,-648.351"/>
<polygon fill="midnightblue" stroke="midnightblue" points="661.54,-635.415 651.183,-637.648 660.672,-642.361 661.54,-635.415"/>
</g>
<!-- Node11 -->
<g id="node11" class="node"><title>Node11</title>
<g id="a_node11"><a xlink:href="../../db/dd6/starter_8c.html#a3c04138a5bfe5d72780bb7e82a18e627" target="_top" xlink:title="main">
<polygon fill="none" stroke="black" points="748,-585.5 748,-604.5 786,-604.5 786,-585.5 748,-585.5"/>
<text text-anchor="middle" x="767" y="-592.5" font-family="Helvetica,sans-Serif" font-size="10.00">main</text>
</a>
</g>
</g>
<!-- Node10&#45;&gt;Node11 -->
<g id="edge11" class="edge"><title>Node10&#45;&gt;Node11</title>
<path fill="none" stroke="midnightblue" d="M691.831,-595C712.792,-595 733.566,-595 747.773,-595"/>
<polygon fill="midnightblue" stroke="midnightblue" points="691.555,-591.5 681.555,-595 691.555,-598.5 691.555,-591.5"/>
</g>
<!-- Node13 -->
<g id="node13" class="node"><title>Node13</title>
<g id="a_node13"><a xlink:href="../../d9/d93/stroke_8c.html#a0ddf1224851353fc92bfbff6f499fa97" target="_top" xlink:title="main">
<polygon fill="none" stroke="black" points="748,-509.5 748,-528.5 786,-528.5 786,-509.5 748,-509.5"/>
<text text-anchor="middle" x="767" y="-516.5" font-family="Helvetica,sans-Serif" font-size="10.00">main</text>
</a>
</g>
</g>
<!-- Node12&#45;&gt;Node13 -->
<g id="edge13" class="edge"><title>Node12&#45;&gt;Node13</title>
<path fill="none" stroke="midnightblue" d="M662.369,-544.908C691.515,-537.621 726.936,-528.766 747.91,-523.522"/>
<polygon fill="midnightblue" stroke="midnightblue" points="661.209,-541.59 652.356,-547.411 662.906,-548.381 661.209,-541.59"/>
</g>
<!-- Node14&#45;&gt;Node13 -->
<g id="edge15" class="edge"><title>Node14&#45;&gt;Node13</title>
<path fill="none" stroke="midnightblue" d="M672.241,-519C699.2,-519 729.316,-519 747.967,-519"/>
<polygon fill="midnightblue" stroke="midnightblue" points="672.094,-515.5 662.094,-519 672.094,-522.5 672.094,-515.5"/>
</g>
<!-- Node15&#45;&gt;Node13 -->
<g id="edge17" class="edge"><title>Node15&#45;&gt;Node13</title>
<path fill="none" stroke="midnightblue" d="M662.369,-493.092C691.515,-500.379 726.936,-509.234 747.91,-514.478"/>
<polygon fill="midnightblue" stroke="midnightblue" points="662.906,-489.619 652.356,-490.589 661.209,-496.41 662.906,-489.619"/>
</g>
<!-- Node16&#45;&gt;Node17 -->
<g id="edge19" class="edge"><title>Node16&#45;&gt;Node17</title>
<path fill="none" stroke="midnightblue" d="M662.16,-430.96C683.395,-425.651 707.995,-419.501 727.92,-414.52"/>
<polygon fill="midnightblue" stroke="midnightblue" points="661.209,-427.59 652.356,-433.411 662.906,-434.381 661.209,-427.59"/>
</g>
<!-- Node18 -->
<g id="node18" class="node"><title>Node18</title>
<g id="a_node18"><a xlink:href="../../dd/d65/task__manager__v1_8c.html#a07ec61bf95a7a5b12b888a1945587189" target="_top" xlink:title="METHOD">
<polygon fill="none" stroke="black" points="857,-376.5 857,-395.5 917,-395.5 917,-376.5 857,-376.5"/>
<text text-anchor="middle" x="887" y="-383.5" font-family="Helvetica,sans-Serif" font-size="10.00">METHOD</text>
</a>
</g>
</g>
<!-- Node17&#45;&gt;Node18 -->
<g id="edge20" class="edge"><title>Node17&#45;&gt;Node18</title>
<path fill="none" stroke="midnightblue" d="M821.675,-396.357C833.804,-394.404 846.235,-392.403 856.897,-390.686"/>
<polygon fill="midnightblue" stroke="midnightblue" points="820.92,-392.934 811.604,-397.979 822.033,-399.845 820.92,-392.934"/>
</g>
<!-- Node19&#45;&gt;Node18 -->
<g id="edge23" class="edge"><title>Node19&#45;&gt;Node18</title>
<path fill="none" stroke="midnightblue" d="M825.251,-376.218C836.141,-377.972 847.11,-379.738 856.673,-381.278"/>
<polygon fill="midnightblue" stroke="midnightblue" points="825.744,-372.753 815.315,-374.619 824.632,-379.664 825.744,-372.753"/>
</g>
<!-- Node21 -->
<g id="node21" class="node"><title>Node21</title>
<g id="a_node21"><a xlink:href="../../d8/dcf/vici__control_8c.html#a63996fa19abd48e2faf63e4fb378ef18" target="_top" xlink:title="METHOD">
<polygon fill="none" stroke="black" points="737,-319.5 737,-338.5 797,-338.5 797,-319.5 737,-319.5"/>
<text text-anchor="middle" x="767" y="-326.5" font-family="Helvetica,sans-Serif" font-size="10.00">METHOD</text>
</a>
</g>
</g>
<!-- Node20&#45;&gt;Node21 -->
<g id="edge25" class="edge"><title>Node20&#45;&gt;Node21</title>
<path fill="none" stroke="midnightblue" d="M675.267,-329C696.426,-329 719.171,-329 736.594,-329"/>
<polygon fill="midnightblue" stroke="midnightblue" points="675.037,-325.5 665.037,-329 675.037,-332.5 675.037,-325.5"/>
</g>
<!-- Node22 -->
<g id="node22" class="node"><title>Node22</title>
<g id="a_node22"><a xlink:href="../../d0/dcb/group__vici__control.html#ga9bb24cf92651f6573ebc2d32f96c2439" target="_top" xlink:title="vici_control_create">
<polygon fill="none" stroke="black" points="718,-281.5 718,-300.5 816,-300.5 816,-281.5 718,-281.5"/>
<text text-anchor="middle" x="767" y="-288.5" font-family="Helvetica,sans-Serif" font-size="10.00">vici_control_create</text>
</a>
</g>
</g>
<!-- Node20&#45;&gt;Node22 -->
<g id="edge26" class="edge"><title>Node20&#45;&gt;Node22</title>
<path fill="none" stroke="midnightblue" d="M662.16,-316.96C683.395,-311.651 707.995,-305.501 727.92,-300.52"/>
<polygon fill="midnightblue" stroke="midnightblue" points="661.209,-313.59 652.356,-319.411 662.906,-320.381 661.209,-313.59"/>
</g>
<!-- Node23 -->
<g id="node23" class="node"><title>Node23</title>
<g id="a_node23"><a xlink:href="../../d1/d73/vici__plugin_8c.html#a2f71c61365cc9ae07eca95d2cec1c305" target="_top" xlink:title="register_vici">
<polygon fill="none" stroke="red" points="852.5,-205.5 852.5,-224.5 921.5,-224.5 921.5,-205.5 852.5,-205.5"/>
<text text-anchor="middle" x="887" y="-212.5" font-family="Helvetica,sans-Serif" font-size="10.00">register_vici</text>
</a>
</g>
</g>
<!-- Node22&#45;&gt;Node23 -->
<g id="edge27" class="edge"><title>Node22&#45;&gt;Node23</title>
<path fill="none" stroke="midnightblue" d="M805.748,-277.353C809.284,-275.691 812.755,-273.902 816,-272 839.526,-258.211 863.41,-236.834 876.296,-224.554"/>
<polygon fill="midnightblue" stroke="midnightblue" points="804.119,-274.245 796.348,-281.446 806.914,-280.663 804.119,-274.245"/>
</g>
<!-- Node25 -->
<g id="node25" class="node"><title>Node25</title>
<g id="a_node25"><a xlink:href="../../d7/d9c/cmd__connection_8c.html#ad383141d47fae75523014ef65e04c018" target="_top" xlink:title="create_peer_cfg">
<polygon fill="none" stroke="black" points="240,-425.5 240,-444.5 326,-444.5 326,-425.5 240,-425.5"/>
<text text-anchor="middle" x="283" y="-432.5" font-family="Helvetica,sans-Serif" font-size="10.00">create_peer_cfg</text>
</a>
</g>
</g>
<!-- Node24&#45;&gt;Node25 -->
<g id="edge29" class="edge"><title>Node24&#45;&gt;Node25</title>
<path fill="none" stroke="midnightblue" d="M166.012,-290.561C179.678,-315.075 205.727,-358.995 234,-392 244.772,-404.575 259.132,-416.982 269.331,-425.212"/>
<polygon fill="midnightblue" stroke="midnightblue" points="168.978,-288.691 161.094,-281.613 162.843,-292.063 168.978,-288.691"/>
</g>
<!-- Node26 -->
<g id="node26" class="node"><title>Node26</title>
<g id="a_node26"><a xlink:href="../../d3/d95/config_8c.html#a209dd231bf733f9f8fd289c94214ff08" target="_top" xlink:title="load_peer_config">
<polygon fill="none" stroke="black" points="238,-363.5 238,-382.5 328,-382.5 328,-363.5 238,-363.5"/>
<text text-anchor="middle" x="283" y="-370.5" font-family="Helvetica,sans-Serif" font-size="10.00">load_peer_config</text>
</a>
</g>
</g>
<!-- Node24&#45;&gt;Node26 -->
<g id="edge31" class="edge"><title>Node24&#45;&gt;Node26</title>
<path fill="none" stroke="midnightblue" d="M169.491,-289.349C183.918,-306.981 208.227,-334.169 234,-352 240.433,-356.451 247.961,-360.281 255.122,-363.405"/>
<polygon fill="midnightblue" stroke="midnightblue" points="172.222,-287.16 163.239,-281.543 166.758,-291.536 172.222,-287.16"/>
</g>
<!-- Node28 -->
<g id="node28" class="node"><title>Node28</title>
<g id="a_node28"><a xlink:href="../../df/d4e/ha__tunnel_8c.html#a2e0ef9846224769ecaaba2b8abf57f4f" target="_top" xlink:title="setup_tunnel">
<polygon fill="none" stroke="black" points="247,-323.5 247,-342.5 319,-342.5 319,-323.5 247,-323.5"/>
<text text-anchor="middle" x="283" y="-330.5" font-family="Helvetica,sans-Serif" font-size="10.00">setup_tunnel</text>
</a>
</g>
</g>
<!-- Node24&#45;&gt;Node28 -->
<g id="edge33" class="edge"><title>Node24&#45;&gt;Node28</title>
<path fill="none" stroke="midnightblue" d="M184.656,-286.016C199.391,-293.209 217.645,-302.098 234,-310 243.152,-314.422 253.302,-319.29 261.901,-323.405"/>
<polygon fill="midnightblue" stroke="midnightblue" points="186.058,-282.805 175.537,-281.561 182.986,-289.095 186.058,-282.805"/>
</g>
<!-- Node32 -->
<g id="node32" class="node"><title>Node32</title>
<g id="a_node32"><a xlink:href="../../d2/d03/load__tester__config_8c.html#a33052fc4f22344addc501a8e232bc665" target="_top" xlink:title="generate_config">
<polygon fill="none" stroke="black" points="240,-281.5 240,-300.5 326,-300.5 326,-281.5 240,-281.5"/>
<text text-anchor="middle" x="283" y="-288.5" font-family="Helvetica,sans-Serif" font-size="10.00">generate_config</text>
</a>
</g>
</g>
<!-- Node24&#45;&gt;Node32 -->
<g id="edge37" class="edge"><title>Node24&#45;&gt;Node32</title>
<path fill="none" stroke="midnightblue" d="M208.496,-279.916C218.859,-281.479 229.612,-283.1 239.59,-284.605"/>
<polygon fill="midnightblue" stroke="midnightblue" points="208.717,-276.41 198.307,-278.38 207.673,-283.332 208.717,-276.41"/>
</g>
<!-- Node36 -->
<g id="node36" class="node"><title>Node36</title>
<g id="a_node36"><a xlink:href="../../d7/d79/maemo__service_8c.html#af04d210533a8ac5ccf2f1b3f396210a5" target="_top" xlink:title="initiate_connection">
<polygon fill="none" stroke="black" points="234,-243.5 234,-262.5 332,-262.5 332,-243.5 234,-243.5"/>
<text text-anchor="middle" x="283" y="-250.5" font-family="Helvetica,sans-Serif" font-size="10.00">initiate_connection</text>
</a>
</g>
</g>
<!-- Node24&#45;&gt;Node36 -->
<g id="edge41" class="edge"><title>Node24&#45;&gt;Node36</title>
<path fill="none" stroke="midnightblue" d="M208.441,-264.092C216.889,-262.818 225.599,-261.505 233.938,-260.247"/>
<polygon fill="midnightblue" stroke="midnightblue" points="207.673,-260.668 198.307,-265.62 208.717,-267.59 207.673,-260.668"/>
</g>
<!-- Node40 -->
<g id="node40" class="node"><title>Node40</title>
<g id="a_node40"><a xlink:href="../../d0/d7f/medcli__config_8c.html#a4ad8755b2ab8b28d88e321d71561a307" target="_top" xlink:title="METHOD">
<polygon fill="none" stroke="black" points="253,-205.5 253,-224.5 313,-224.5 313,-205.5 253,-205.5"/>
<text text-anchor="middle" x="283" y="-212.5" font-family="Helvetica,sans-Serif" font-size="10.00">METHOD</text>
</a>
</g>
</g>
<!-- Node24&#45;&gt;Node40 -->
<g id="edge45" class="edge"><title>Node24&#45;&gt;Node40</title>
<path fill="none" stroke="midnightblue" d="M183.836,-257.798C198.612,-250.423 217.152,-241.425 234,-234 241.381,-230.747 249.505,-227.433 256.937,-224.503"/>
<polygon fill="midnightblue" stroke="midnightblue" points="182.087,-254.759 174.725,-262.378 185.231,-261.014 182.087,-254.759"/>
</g>
<!-- Node41 -->
<g id="node41" class="node"><title>Node41</title>
<g id="a_node41"><a xlink:href="../../d0/d53/nm__service_8c.html#ac66aab0554b998f65f088b4e8a33cb1e" target="_top" xlink:title="connect_">
<polygon fill="none" stroke="black" points="255,-158.5 255,-177.5 311,-177.5 311,-158.5 255,-158.5"/>
<text text-anchor="middle" x="283" y="-165.5" font-family="Helvetica,sans-Serif" font-size="10.00">connect_</text>
</a>
</g>
</g>
<!-- Node24&#45;&gt;Node41 -->
<g id="edge46" class="edge"><title>Node24&#45;&gt;Node41</title>
<path fill="none" stroke="midnightblue" d="M171.463,-254.658C186.485,-238.386 210.421,-213.934 234,-196 243.061,-189.108 253.967,-182.621 263.092,-177.629"/>
<polygon fill="midnightblue" stroke="midnightblue" points="168.61,-252.592 164.468,-262.344 173.787,-257.304 168.61,-252.592"/>
</g>
<!-- Node45 -->
<g id="node45" class="node"><title>Node45</title>
<g id="a_node45"><a xlink:href="../../de/d0b/sql__config_8c.html#ab613aa8a44d2efd07999ea6c4076d34d" target="_top" xlink:title="build_peer_cfg">
<polygon fill="none" stroke="black" points="243,-76.5 243,-95.5 323,-95.5 323,-76.5 243,-76.5"/>
<text text-anchor="middle" x="283" y="-83.5" font-family="Helvetica,sans-Serif" font-size="10.00">build_peer_cfg</text>
</a>
</g>
</g>
<!-- Node24&#45;&gt;Node45 -->
<g id="edge51" class="edge"><title>Node24&#45;&gt;Node45</title>
<path fill="none" stroke="midnightblue" d="M166.943,-253.674C181.615,-229.358 208.748,-185.275 234,-149 247.512,-129.589 264.535,-107.822 274.252,-95.6279"/>
<polygon fill="midnightblue" stroke="midnightblue" points="163.942,-251.873 161.792,-262.248 169.942,-255.478 163.942,-251.873"/>
</g>
<!-- Node50 -->
<g id="node50" class="node"><title>Node50</title>
<g id="a_node50"><a xlink:href="../../da/de3/vici__config_8c.html#ab99a32e9707be69653583c70c6b3adb8" target="_top" xlink:title="CALLBACK">
<polygon fill="none" stroke="black" points="248.5,-38.5 248.5,-57.5 317.5,-57.5 317.5,-38.5 248.5,-38.5"/>
<text text-anchor="middle" x="283" y="-45.5" font-family="Helvetica,sans-Serif" font-size="10.00">CALLBACK</text>
</a>
</g>
</g>
<!-- Node24&#45;&gt;Node50 -->
<g id="edge57" class="edge"><title>Node24&#45;&gt;Node50</title>
<path fill="none" stroke="midnightblue" d="M158.198,-252.314C163.686,-212.167 181.55,-120.154 234,-67 238.029,-62.9171 243.043,-59.6882 248.299,-57.1414"/>
<polygon fill="midnightblue" stroke="midnightblue" points="154.705,-252.037 156.936,-262.394 161.651,-252.906 154.705,-252.037"/>
</g>
<!-- Node25&#45;&gt;Node3 -->
<g id="edge30" class="edge"><title>Node25&#45;&gt;Node3</title>
<path fill="none" stroke="midnightblue" d="M316.108,-448.641C345.903,-461.299 389.435,-479.793 415.322,-490.791"/>
<polygon fill="midnightblue" stroke="midnightblue" points="317.148,-445.28 306.576,-444.591 314.411,-451.723 317.148,-445.28"/>
</g>
<!-- Node27 -->
<g id="node27" class="node"><title>Node27</title>
<g id="a_node27"><a xlink:href="../../d3/d95/config_8c.html#a492679e9382000ca562915367ac8c779" target="_top" xlink:title="METHOD">
<polygon fill="none" stroke="black" points="408,-366.5 408,-385.5 468,-385.5 468,-366.5 408,-366.5"/>
<text text-anchor="middle" x="438" y="-373.5" font-family="Helvetica,sans-Serif" font-size="10.00">METHOD</text>
</a>
</g>
</g>
<!-- Node26&#45;&gt;Node27 -->
<g id="edge32" class="edge"><title>Node26&#45;&gt;Node27</title>
<path fill="none" stroke="midnightblue" d="M338.414,-374.067C361.817,-374.526 388.236,-375.044 407.831,-375.428"/>
<polygon fill="midnightblue" stroke="midnightblue" points="338.321,-370.565 328.254,-373.868 338.183,-377.563 338.321,-370.565"/>
</g>
<!-- Node29 -->
<g id="node29" class="node"><title>Node29</title>
<g id="a_node29"><a xlink:href="../../d9/d9f/group__ha__.html#ga3cf24f88395df3f2c6a84eec9f35ce04" target="_top" xlink:title="ha_tunnel_create">
<polygon fill="none" stroke="black" points="392.5,-328.5 392.5,-347.5 483.5,-347.5 483.5,-328.5 392.5,-328.5"/>
<text text-anchor="middle" x="438" y="-335.5" font-family="Helvetica,sans-Serif" font-size="10.00">ha_tunnel_create</text>
</a>
</g>
</g>
<!-- Node28&#45;&gt;Node29 -->
<g id="edge34" class="edge"><title>Node28&#45;&gt;Node29</title>
<path fill="none" stroke="midnightblue" d="M329.192,-334.477C349.159,-335.129 372.565,-335.894 392.456,-336.544"/>
<polygon fill="midnightblue" stroke="midnightblue" points="329.21,-330.976 319.101,-334.147 328.982,-337.972 329.21,-330.976"/>
</g>
<!-- Node30 -->
<g id="node30" class="node"><title>Node30</title>
<g id="a_node30"><a xlink:href="../../d2/dbc/ha__plugin_8c.html#ac3b62ac20197d1c242926fae531a3bfa" target="_top" xlink:title="initialize_plugin">
<polygon fill="none" stroke="black" points="571.5,-281.5 571.5,-300.5 654.5,-300.5 654.5,-281.5 571.5,-281.5"/>
<text text-anchor="middle" x="613" y="-288.5" font-family="Helvetica,sans-Serif" font-size="10.00">initialize_plugin</text>
</a>
</g>
</g>
<!-- Node29&#45;&gt;Node30 -->
<g id="edge35" class="edge"><title>Node29&#45;&gt;Node30</title>
<path fill="none" stroke="midnightblue" d="M483.876,-325.808C512.818,-317.945 549.923,-307.865 576.746,-300.578"/>
<polygon fill="midnightblue" stroke="midnightblue" points="482.742,-322.489 474.009,-328.489 484.577,-329.245 482.742,-322.489"/>
</g>
<!-- Node31 -->
<g id="node31" class="node"><title>Node31</title>
<g id="a_node31"><a xlink:href="../../d2/dbc/ha__plugin_8c.html#ac04b0147cc74be4316f3db3a9aa6b4a6" target="_top" xlink:title="plugin_cb">
<polygon fill="none" stroke="red" points="738,-243.5 738,-262.5 796,-262.5 796,-243.5 738,-243.5"/>
<text text-anchor="middle" x="767" y="-250.5" font-family="Helvetica,sans-Serif" font-size="10.00">plugin_cb</text>
</a>
</g>
</g>
<!-- Node30&#45;&gt;Node31 -->
<g id="edge36" class="edge"><title>Node30&#45;&gt;Node31</title>
<path fill="none" stroke="midnightblue" d="M662.332,-278.917C687.179,-272.705 716.594,-265.351 737.733,-260.067"/>
<polygon fill="midnightblue" stroke="midnightblue" points="661.209,-275.59 652.356,-281.411 662.906,-282.381 661.209,-275.59"/>
</g>
<!-- Node33 -->
<g id="node33" class="node"><title>Node33</title>
<g id="a_node33"><a xlink:href="../../d2/d03/load__tester__config_8c.html#a8c29eb703e57cf6d3ec1cedbeb9847b9" target="_top" xlink:title="METHOD">
<polygon fill="none" stroke="black" points="408,-290.5 408,-309.5 468,-309.5 468,-290.5 408,-290.5"/>
<text text-anchor="middle" x="438" y="-297.5" font-family="Helvetica,sans-Serif" font-size="10.00">METHOD</text>
</a>
</g>
</g>
<!-- Node32&#45;&gt;Node33 -->
<g id="edge38" class="edge"><title>Node32&#45;&gt;Node33</title>
<path fill="none" stroke="midnightblue" d="M336.245,-294.073C360.236,-295.484 387.775,-297.104 407.993,-298.294"/>
<polygon fill="midnightblue" stroke="midnightblue" points="336.401,-290.576 326.213,-293.483 335.99,-297.564 336.401,-290.576"/>
</g>
<!-- Node34 -->
<g id="node34" class="node"><title>Node34</title>
<g id="a_node34"><a xlink:href="../../dc/d9c/group__load__tester__config__t.html#ga51da667b5b468b52a99ef2416993f985" target="_top" xlink:title="load_tester_config\l_create">
<polygon fill="none" stroke="black" points="390,-241 390,-271 486,-271 486,-241 390,-241"/>
<text text-anchor="start" x="398" y="-259" font-family="Helvetica,sans-Serif" font-size="10.00">load_tester_config</text>
<text text-anchor="middle" x="438" y="-248" font-family="Helvetica,sans-Serif" font-size="10.00">_create</text>
</a>
</g>
</g>
<!-- Node32&#45;&gt;Node34 -->
<g id="edge39" class="edge"><title>Node32&#45;&gt;Node34</title>
<path fill="none" stroke="midnightblue" d="M335.849,-279.139C353.334,-275.139 372.744,-270.699 389.847,-266.787"/>
<polygon fill="midnightblue" stroke="midnightblue" points="334.776,-275.794 325.808,-281.436 336.337,-282.618 334.776,-275.794"/>
</g>
<!-- Node35 -->
<g id="node35" class="node"><title>Node35</title>
<g id="a_node35"><a xlink:href="../../d4/d98/load__tester__plugin_8c.html#ad3cd284c65a2e9d8b8d04a2eb6705ebb" target="_top" xlink:title="register_load_tester">
<polygon fill="none" stroke="red" points="562,-243.5 562,-262.5 664,-262.5 664,-243.5 562,-243.5"/>
<text text-anchor="middle" x="613" y="-250.5" font-family="Helvetica,sans-Serif" font-size="10.00">register_load_tester</text>
</a>
</g>
</g>
<!-- Node34&#45;&gt;Node35 -->
<g id="edge40" class="edge"><title>Node34&#45;&gt;Node35</title>
<path fill="none" stroke="midnightblue" d="M496.412,-255.004C517.547,-254.638 541.304,-254.226 561.758,-253.871"/>
<polygon fill="midnightblue" stroke="midnightblue" points="496.211,-251.507 486.273,-255.18 496.332,-258.506 496.211,-251.507"/>
</g>
<!-- Node37 -->
<g id="node37" class="node"><title>Node37</title>
<g id="a_node37"><a xlink:href="../../d7/d79/maemo__service_8c.html#a82aca93fce2dd44e6e05704c2ab6b179" target="_top" xlink:title="dbus_req_handler">
<polygon fill="none" stroke="black" points="391.5,-202.5 391.5,-221.5 484.5,-221.5 484.5,-202.5 391.5,-202.5"/>
<text text-anchor="middle" x="438" y="-209.5" font-family="Helvetica,sans-Serif" font-size="10.00">dbus_req_handler</text>
</a>
</g>
</g>
<!-- Node36&#45;&gt;Node37 -->
<g id="edge42" class="edge"><title>Node36&#45;&gt;Node37</title>
<path fill="none" stroke="midnightblue" d="M329.377,-240.84C352.407,-234.669 379.974,-227.282 401.442,-221.529"/>
<polygon fill="midnightblue" stroke="midnightblue" points="328.239,-237.522 319.486,-243.491 330.051,-244.283 328.239,-237.522"/>
</g>
<!-- Node38 -->
<g id="node38" class="node"><title>Node38</title>
<g id="a_node38"><a xlink:href="../../d7/d79/maemo__service_8c.html#aa711fcbe2bdffc19d1eb8cef55427c1b" target="_top" xlink:title="METHOD">
<polygon fill="none" stroke="black" points="583,-205.5 583,-224.5 643,-224.5 643,-205.5 583,-205.5"/>
<text text-anchor="middle" x="613" y="-212.5" font-family="Helvetica,sans-Serif" font-size="10.00">METHOD</text>
</a>
</g>
</g>
<!-- Node37&#45;&gt;Node38 -->
<g id="edge43" class="edge"><title>Node37&#45;&gt;Node38</title>
<path fill="none" stroke="midnightblue" d="M495,-212.971C524.238,-213.478 558.807,-214.078 582.752,-214.493"/>
<polygon fill="midnightblue" stroke="midnightblue" points="494.966,-209.47 484.907,-212.796 494.844,-216.469 494.966,-209.47"/>
</g>
<!-- Node39 -->
<g id="node39" class="node"><title>Node39</title>
<g id="a_node39"><a xlink:href="../../de/db6/group__maemo__service.html#ga5cb3c1b04ae398aede987915e69315f3" target="_top" xlink:title="maemo_service_create">
<polygon fill="none" stroke="red" points="554,-167.5 554,-186.5 672,-186.5 672,-167.5 554,-167.5"/>
<text text-anchor="middle" x="613" y="-174.5" font-family="Helvetica,sans-Serif" font-size="10.00">maemo_service_create</text>
</a>
</g>
</g>
<!-- Node37&#45;&gt;Node39 -->
<g id="edge44" class="edge"><title>Node37&#45;&gt;Node39</title>
<path fill="none" stroke="midnightblue" d="M494.729,-200.725C517.389,-196.141 543.289,-190.901 564.974,-186.514"/>
<polygon fill="midnightblue" stroke="midnightblue" points="494.014,-197.299 484.907,-202.713 495.402,-204.16 494.014,-197.299"/>
</g>
<!-- Node42 -->
<g id="node42" class="node"><title>Node42</title>
<g id="a_node42"><a xlink:href="../../d0/d53/nm__service_8c.html#ac2ec8a8e03309ad7aa5a4f053bad05a3" target="_top" xlink:title="nm_strongswan_plugin\l_class_init">
<polygon fill="none" stroke="black" points="380,-153 380,-183 496,-183 496,-153 380,-153"/>
<text text-anchor="start" x="388" y="-171" font-family="Helvetica,sans-Serif" font-size="10.00">nm_strongswan_plugin</text>
<text text-anchor="middle" x="438" y="-160" font-family="Helvetica,sans-Serif" font-size="10.00">_class_init</text>
</a>
</g>
</g>
<!-- Node41&#45;&gt;Node42 -->
<g id="edge47" class="edge"><title>Node41&#45;&gt;Node42</title>
<path fill="none" stroke="midnightblue" d="M321.407,-168C338.981,-168 360.318,-168 379.853,-168"/>
<polygon fill="midnightblue" stroke="midnightblue" points="321.001,-164.5 311.001,-168 321.001,-171.5 321.001,-164.5"/>
</g>
<!-- Node43 -->
<g id="node43" class="node"><title>Node43</title>
<g id="a_node43"><a xlink:href="../../da/d80/group__vici__dispatcher.html#ga6a79fafdbb49a69b40e48449ff7252c4" target="_top" xlink:title="vici_dispatcher_create">
<polygon fill="none" stroke="black" points="381,-114.5 381,-133.5 495,-133.5 495,-114.5 381,-114.5"/>
<text text-anchor="middle" x="438" y="-121.5" font-family="Helvetica,sans-Serif" font-size="10.00">vici_dispatcher_create</text>
</a>
</g>
</g>
<!-- Node41&#45;&gt;Node43 -->
<g id="edge48" class="edge"><title>Node41&#45;&gt;Node43</title>
<path fill="none" stroke="midnightblue" d="M320.908,-156.837C335.549,-152.455 352.55,-147.426 368,-143 378.989,-139.852 390.991,-136.513 401.859,-133.526"/>
<polygon fill="midnightblue" stroke="midnightblue" points="319.768,-153.525 311.196,-159.752 321.78,-160.229 319.768,-153.525"/>
</g>
<!-- Node43&#45;&gt;Node23 -->
<g id="edge50" class="edge"><title>Node43&#45;&gt;Node23</title>
<path fill="none" stroke="midnightblue" d="M505.516,-130.882C554.587,-136.545 622.825,-145.651 682,-158 744.996,-171.147 817.194,-192.956 856.575,-205.44"/>
<polygon fill="midnightblue" stroke="midnightblue" points="505.677,-127.378 495.346,-129.725 504.887,-134.333 505.677,-127.378"/>
</g>
<!-- Node44 -->
<g id="node44" class="node"><title>Node44</title>
<g id="a_node44"><a xlink:href="../../d6/dca/test__event_8c.html#afe8c30a13467d05abe5f4f9f0961b716" target="_top" xlink:title="START_TEST">
<polygon fill="none" stroke="black" points="573,-91.5 573,-110.5 653,-110.5 653,-91.5 573,-91.5"/>
<text text-anchor="middle" x="613" y="-98.5" font-family="Helvetica,sans-Serif" font-size="10.00">START_TEST</text>
</a>
</g>
</g>
<!-- Node43&#45;&gt;Node44 -->
<g id="edge49" class="edge"><title>Node43&#45;&gt;Node44</title>
<path fill="none" stroke="midnightblue" d="M505.15,-115.205C527.981,-112.17 552.818,-108.868 572.795,-106.212"/>
<polygon fill="midnightblue" stroke="midnightblue" points="504.62,-111.745 495.168,-116.533 505.542,-118.684 504.62,-111.745"/>
</g>
<!-- Node46 -->
<g id="node46" class="node"><title>Node46</title>
<g id="a_node46"><a xlink:href="../../de/d0b/sql__config_8c.html#aa57726e496f822dfc20afa5039bb92ce" target="_top" xlink:title="get_peer_cfg_by_id">
<polygon fill="none" stroke="black" points="387.5,-76.5 387.5,-95.5 488.5,-95.5 488.5,-76.5 387.5,-76.5"/>
<text text-anchor="middle" x="438" y="-83.5" font-family="Helvetica,sans-Serif" font-size="10.00">get_peer_cfg_by_id</text>
</a>
</g>
</g>
<!-- Node45&#45;&gt;Node46 -->
<g id="edge52" class="edge"><title>Node45&#45;&gt;Node46</title>
<path fill="none" stroke="midnightblue" d="M333.441,-79.6402C350.701,-79.122 370.07,-79.1199 387.348,-79.6339"/>
<polygon fill="midnightblue" stroke="midnightblue" points="332.867,-76.1591 323.004,-80.0296 333.128,-83.1543 332.867,-76.1591"/>
</g>
<!-- Node47 -->
<g id="node47" class="node"><title>Node47</title>
<g id="a_node47"><a xlink:href="../../de/d0b/sql__config_8c.html#ab8a4c85114d17aa7387ccac04fd464dd" target="_top" xlink:title="METHOD">
<polygon fill="none" stroke="black" points="408,-38.5 408,-57.5 468,-57.5 468,-38.5 408,-38.5"/>
<text text-anchor="middle" x="438" y="-45.5" font-family="Helvetica,sans-Serif" font-size="10.00">METHOD</text>
</a>
</g>
</g>
<!-- Node45&#45;&gt;Node47 -->
<g id="edge54" class="edge"><title>Node45&#45;&gt;Node47</title>
<path fill="none" stroke="midnightblue" d="M332.513,-73.951C357.175,-67.8257 386.339,-60.5825 407.579,-55.3071"/>
<polygon fill="midnightblue" stroke="midnightblue" points="331.47,-70.6037 322.608,-76.411 333.157,-77.3973 331.47,-70.6037"/>
</g>
<!-- Node48 -->
<g id="node48" class="node"><title>Node48</title>
<g id="a_node48"><a xlink:href="../../de/d0b/sql__config_8c.html#ab851d028c29985d80230a64b629471f3" target="_top" xlink:title="peer_enumerator_enumerate">
<polygon fill="none" stroke="black" points="368,-0.5 368,-19.5 508,-19.5 508,-0.5 368,-0.5"/>
<text text-anchor="middle" x="438" y="-7.5" font-family="Helvetica,sans-Serif" font-size="10.00">peer_enumerator_enumerate</text>
</a>
</g>
</g>
<!-- Node45&#45;&gt;Node48 -->
<g id="edge55" class="edge"><title>Node45&#45;&gt;Node48</title>
<path fill="none" stroke="midnightblue" d="M323.251,-72.1547C326.298,-70.5754 329.253,-68.8578 332,-67 351.271,-53.9665 348.053,-40.9723 368,-29 374.392,-25.1635 381.578,-22.0817 388.835,-19.6115"/>
<polygon fill="midnightblue" stroke="midnightblue" points="321.547,-69.0873 313.956,-76.4788 324.5,-75.434 321.547,-69.0873"/>
</g>
<!-- Node46&#45;&gt;Node45 -->
<g id="edge53" class="edge"><title>Node46&#45;&gt;Node45</title>
<path fill="none" stroke="midnightblue" d="M377.119,-92.6064C358.936,-92.9252 339.437,-92.7132 323.004,-91.9704"/>
<polygon fill="midnightblue" stroke="midnightblue" points="377.433,-96.1001 387.348,-92.3661 377.268,-89.102 377.433,-96.1001"/>
</g>
<!-- Node49 -->
<g id="node49" class="node"><title>Node49</title>
<g id="a_node49"><a xlink:href="../../de/d0b/sql__config_8c.html#aedfd8404bb6d071ca005a50d7e56c84d" target="_top" xlink:title="METHOD">
<polygon fill="none" stroke="black" points="583,-0.5 583,-19.5 643,-19.5 643,-0.5 583,-0.5"/>
<text text-anchor="middle" x="613" y="-7.5" font-family="Helvetica,sans-Serif" font-size="10.00">METHOD</text>
</a>
</g>
</g>
<!-- Node48&#45;&gt;Node49 -->
<g id="edge56" class="edge"><title>Node48&#45;&gt;Node49</title>
<path fill="none" stroke="midnightblue" d="M518.488,-10C541.427,-10 565.028,-10 582.781,-10"/>
<polygon fill="midnightblue" stroke="midnightblue" points="518.369,-6.5001 508.369,-10 518.369,-13.5001 518.369,-6.5001"/>
</g>
</g>
</svg>
