<?xml version="1.0" encoding="UTF-8" standalone="no"?>
<!DOCTYPE svg PUBLIC "-//W3C//DTD SVG 1.1//EN"
 "http://www.w3.org/Graphics/SVG/1.1/DTD/svg11.dtd">
<!-- Generated by graphviz version 2.36.0 (20140111.2315)
 -->
<!-- Title: METHOD Pages: 1 -->
<svg width="1390pt" height="408pt"
 viewBox="0.00 0.00 1390.00 408.00" xmlns="http://www.w3.org/2000/svg" xmlns:xlink="http://www.w3.org/1999/xlink">
<g id="graph0" class="graph" transform="scale(1 1) rotate(0) translate(4 404)">
<title>METHOD</title>
<!-- Node1 -->
<g id="node1" class="node"><title>Node1</title>
<polygon fill="#bfbfbf" stroke="black" points="0,-218.5 0,-237.5 60,-237.5 60,-218.5 0,-218.5"/>
<text text-anchor="middle" x="30" y="-225.5" font-family="Helvetica,sans-Serif" font-size="10.00">METHOD</text>
</g>
<!-- Node2 -->
<g id="node2" class="node"><title>Node2</title>
<g id="a_node2"><a xlink:href="../../d4/df0/informational_8c.html#abcf0bbdc04f3152614443ac4edd51fcb" target="_top" xlink:title="cancel_quick_mode">
<polygon fill="none" stroke="black" points="100.5,-380.5 100.5,-399.5 203.5,-399.5 203.5,-380.5 100.5,-380.5"/>
<text text-anchor="middle" x="152" y="-387.5" font-family="Helvetica,sans-Serif" font-size="10.00">cancel_quick_mode</text>
</a>
</g>
</g>
<!-- Node1&#45;&gt;Node2 -->
<g id="edge1" class="edge"><title>Node1&#45;&gt;Node2</title>
<path fill="none" stroke="midnightblue" d="M33.0754,-237.744C38.805,-262.433 57.0636,-328.167 96,-366 99.9694,-369.857 104.66,-373.147 109.601,-375.938"/>
<polygon fill="midnightblue" stroke="midnightblue" points="108.152,-379.127 118.665,-380.441 111.266,-372.857 108.152,-379.127"/>
</g>
<!-- Node3 -->
<g id="node3" class="node"><title>Node3</title>
<g id="a_node3"><a xlink:href="../../d4/de5/pool_8c.html#a2bb974853b7487b2e6513204a1caeac5" target="_top" xlink:title="del">
<polygon fill="none" stroke="black" points="137.5,-267.5 137.5,-286.5 166.5,-286.5 166.5,-267.5 137.5,-267.5"/>
<text text-anchor="middle" x="152" y="-274.5" font-family="Helvetica,sans-Serif" font-size="10.00">del</text>
</a>
</g>
</g>
<!-- Node1&#45;&gt;Node3 -->
<g id="edge2" class="edge"><title>Node1&#45;&gt;Node3</title>
<path fill="none" stroke="midnightblue" d="M54.4221,-237.564C75.641,-246.228 106.729,-258.923 127.86,-267.551"/>
<polygon fill="midnightblue" stroke="midnightblue" points="126.766,-270.885 137.347,-271.425 129.412,-264.404 126.766,-270.885"/>
</g>
<!-- Node20 -->
<g id="node20" class="node"><title>Node20</title>
<g id="a_node20"><a xlink:href="../../d7/d8e/peer__controller_8c.html#a97d1c77028b5448b97ed554c5db460c8" target="_top" xlink:title="delete">
<polygon fill="none" stroke="black" points="130.5,-180.5 130.5,-199.5 173.5,-199.5 173.5,-180.5 130.5,-180.5"/>
<text text-anchor="middle" x="152" y="-187.5" font-family="Helvetica,sans-Serif" font-size="10.00">delete</text>
</a>
</g>
</g>
<!-- Node1&#45;&gt;Node20 -->
<g id="edge23" class="edge"><title>Node1&#45;&gt;Node20</title>
<path fill="none" stroke="midnightblue" d="M60.0487,-218.801C78.4258,-212.982 102.137,-205.473 120.742,-199.582"/>
<polygon fill="midnightblue" stroke="midnightblue" points="122.01,-202.852 130.486,-196.496 119.896,-196.178 122.01,-202.852"/>
</g>
<!-- Node21 -->
<g id="node21" class="node"><title>Node21</title>
<g id="a_node21"><a xlink:href="../../d7/df1/group__host.html#gaf40fcca3c58e789ff4f82bbf875727e4" target="_top" xlink:title="host_create_from_chunk">
<polygon fill="none" stroke="black" points="853,-304.5 853,-323.5 977,-323.5 977,-304.5 853,-304.5"/>
<text text-anchor="middle" x="915" y="-311.5" font-family="Helvetica,sans-Serif" font-size="10.00">host_create_from_chunk</text>
</a>
</g>
</g>
<!-- Node1&#45;&gt;Node21 -->
<g id="edge24" class="edge"><title>Node1&#45;&gt;Node21</title>
<path fill="none" stroke="midnightblue" d="M37.7675,-237.923C48.4183,-252.779 70.5234,-280.689 96,-296 174.752,-343.328 203.12,-352 295,-352 295,-352 295,-352 604,-352 692.473,-352 794.1,-336.563 856.172,-325.367"/>
<polygon fill="midnightblue" stroke="midnightblue" points="856.955,-328.782 866.162,-323.54 855.696,-321.896 856.955,-328.782"/>
</g>
<!-- Node22 -->
<g id="node22" class="node"><title>Node22</title>
<g id="a_node22"><a xlink:href="../../d6/d77/group__isakmp__delete.html#gaeaca3bee1b0bc991bda365f301a188ac" target="_top" xlink:title="isakmp_delete_create">
<polygon fill="none" stroke="black" points="96,-142.5 96,-161.5 208,-161.5 208,-142.5 96,-142.5"/>
<text text-anchor="middle" x="152" y="-149.5" font-family="Helvetica,sans-Serif" font-size="10.00">isakmp_delete_create</text>
</a>
</g>
</g>
<!-- Node1&#45;&gt;Node22 -->
<g id="edge27" class="edge"><title>Node1&#45;&gt;Node22</title>
<path fill="none" stroke="midnightblue" d="M39.7839,-218.24C51.505,-205.736 73.418,-184.118 96,-171 99.4873,-168.974 103.225,-167.118 107.049,-165.428"/>
<polygon fill="midnightblue" stroke="midnightblue" points="108.672,-168.548 116.642,-161.567 106.058,-162.054 108.672,-168.548"/>
</g>
<!-- Node23 -->
<g id="node23" class="node"><title>Node23</title>
<g id="a_node23"><a xlink:href="../../d4/da5/watcher_8c.html#a8f0e10b20c0f4d75132f5af69278c063" target="_top" xlink:title="notify">
<polygon fill="none" stroke="black" points="131.5,-218.5 131.5,-237.5 172.5,-237.5 172.5,-218.5 131.5,-218.5"/>
<text text-anchor="middle" x="152" y="-225.5" font-family="Helvetica,sans-Serif" font-size="10.00">notify</text>
</a>
</g>
</g>
<!-- Node1&#45;&gt;Node23 -->
<g id="edge28" class="edge"><title>Node1&#45;&gt;Node23</title>
<path fill="none" stroke="midnightblue" d="M60.0487,-228C78.5737,-228 102.519,-228 121.19,-228"/>
<polygon fill="midnightblue" stroke="midnightblue" points="121.222,-231.5 131.222,-228 121.222,-224.5 121.222,-231.5"/>
</g>
<!-- Node34 -->
<g id="node34" class="node"><title>Node34</title>
<g id="a_node34"><a xlink:href="../../d8/deb/group__quick__delete.html#ga6aa0391ce72e0ff6402c8a51b9a5368b" target="_top" xlink:title="quick_delete_create">
<polygon fill="none" stroke="black" points="100,-104.5 100,-123.5 204,-123.5 204,-104.5 100,-104.5"/>
<text text-anchor="middle" x="152" y="-111.5" font-family="Helvetica,sans-Serif" font-size="10.00">quick_delete_create</text>
</a>
</g>
</g>
<!-- Node1&#45;&gt;Node34 -->
<g id="edge41" class="edge"><title>Node1&#45;&gt;Node34</title>
<path fill="none" stroke="midnightblue" d="M35.0355,-218.415C43.5207,-199.384 65.0171,-156.636 96,-133 98.451,-131.13 101.099,-129.436 103.863,-127.903"/>
<polygon fill="midnightblue" stroke="midnightblue" points="105.476,-131.011 112.982,-123.532 102.451,-124.698 105.476,-131.011"/>
</g>
<!-- Node4 -->
<g id="node4" class="node"><title>Node4</title>
<g id="a_node4"><a xlink:href="../../dd/dd1/lookip__socket_8c.html#acc8bcf8953501371f3cefcf746439c3a" target="_top" xlink:title="query">
<polygon fill="none" stroke="black" points="275.5,-278.5 275.5,-297.5 316.5,-297.5 316.5,-278.5 275.5,-278.5"/>
<text text-anchor="middle" x="296" y="-285.5" font-family="Helvetica,sans-Serif" font-size="10.00">query</text>
</a>
</g>
</g>
<!-- Node3&#45;&gt;Node4 -->
<g id="edge3" class="edge"><title>Node3&#45;&gt;Node4</title>
<path fill="none" stroke="midnightblue" d="M166.616,-278.055C189.218,-279.806 234.996,-283.352 265.331,-285.702"/>
<polygon fill="midnightblue" stroke="midnightblue" points="265.113,-289.195 275.353,-286.478 265.654,-282.216 265.113,-289.195"/>
</g>
<!-- Node5 -->
<g id="node5" class="node"><title>Node5</title>
<g id="a_node5"><a xlink:href="../../d7/df1/group__host.html#gad1ee7d1c0d17eee7f6e204e22ea2c206" target="_top" xlink:title="host_create_from_string">
<polygon fill="none" stroke="black" points="384,-266.5 384,-285.5 506,-285.5 506,-266.5 384,-266.5"/>
<text text-anchor="middle" x="445" y="-273.5" font-family="Helvetica,sans-Serif" font-size="10.00">host_create_from_string</text>
</a>
</g>
</g>
<!-- Node4&#45;&gt;Node5 -->
<g id="edge4" class="edge"><title>Node4&#45;&gt;Node5</title>
<path fill="none" stroke="midnightblue" d="M316.52,-286.406C331.421,-285.19 352.917,-283.435 374.025,-281.712"/>
<polygon fill="midnightblue" stroke="midnightblue" points="374.315,-285.2 383.997,-280.898 373.745,-278.224 374.315,-285.2"/>
</g>
<!-- Node19 -->
<g id="node19" class="node"><title>Node19</title>
<g id="a_node19"><a xlink:href="../../dd/dd1/lookip__socket_8c.html#a8d60faf190c751a8676c652462d00ebe" target="_top" xlink:title="query_cb">
<polygon fill="none" stroke="black" points="417,-304.5 417,-323.5 473,-323.5 473,-304.5 417,-304.5"/>
<text text-anchor="middle" x="445" y="-311.5" font-family="Helvetica,sans-Serif" font-size="10.00">query_cb</text>
</a>
</g>
</g>
<!-- Node4&#45;&gt;Node19 -->
<g id="edge22" class="edge"><title>Node4&#45;&gt;Node19</title>
<path fill="none" stroke="midnightblue" d="M316.52,-291.453C339.474,-295.512 378.082,-302.341 406.808,-307.422"/>
<polygon fill="midnightblue" stroke="midnightblue" points="406.441,-310.911 416.897,-309.206 407.66,-304.018 406.441,-310.911"/>
</g>
<!-- Node6 -->
<g id="node6" class="node"><title>Node6</title>
<g id="a_node6"><a xlink:href="../../d7/df1/group__host.html#ga75f9b1e7905a80d69bc3cc7a7c3775a5" target="_top" xlink:title="host_create_from_string\l_and_family">
<polygon fill="none" stroke="black" points="542,-261 542,-291 664,-291 664,-261 542,-261"/>
<text text-anchor="start" x="550" y="-279" font-family="Helvetica,sans-Serif" font-size="10.00">host_create_from_string</text>
<text text-anchor="middle" x="603" y="-268" font-family="Helvetica,sans-Serif" font-size="10.00">_and_family</text>
</a>
</g>
</g>
<!-- Node5&#45;&gt;Node6 -->
<g id="edge5" class="edge"><title>Node5&#45;&gt;Node6</title>
<path fill="none" stroke="midnightblue" d="M506.314,-276C514.604,-276 523.175,-276 531.626,-276"/>
<polygon fill="midnightblue" stroke="midnightblue" points="531.847,-279.5 541.847,-276 531.847,-272.5 531.847,-279.5"/>
</g>
<!-- Node7 -->
<g id="node7" class="node"><title>Node7</title>
<g id="a_node7"><a xlink:href="../../d4/d40/group__string__i.html#ga65c3d08890165aaa4663c72d07f93bb7" target="_top" xlink:title="streq">
<polygon fill="none" stroke="black" points="736,-266.5 736,-285.5 774,-285.5 774,-266.5 736,-266.5"/>
<text text-anchor="middle" x="755" y="-273.5" font-family="Helvetica,sans-Serif" font-size="10.00">streq</text>
</a>
</g>
</g>
<!-- Node6&#45;&gt;Node7 -->
<g id="edge6" class="edge"><title>Node6&#45;&gt;Node7</title>
<path fill="none" stroke="midnightblue" d="M664.146,-276C685.476,-276 708.474,-276 725.864,-276"/>
<polygon fill="midnightblue" stroke="midnightblue" points="725.902,-279.5 735.902,-276 725.902,-272.5 725.902,-279.5"/>
</g>
<!-- Node8 -->
<g id="node8" class="node"><title>Node8</title>
<g id="a_node8"><a xlink:href="../../df/da9/host_8c.html#a2670c8aac87ed6960c4e45f42f843b73" target="_top" xlink:title="host_create_any_port">
<polygon fill="none" stroke="black" points="700,-228.5 700,-247.5 810,-247.5 810,-228.5 700,-228.5"/>
<text text-anchor="middle" x="755" y="-235.5" font-family="Helvetica,sans-Serif" font-size="10.00">host_create_any_port</text>
</a>
</g>
</g>
<!-- Node6&#45;&gt;Node8 -->
<g id="edge7" class="edge"><title>Node6&#45;&gt;Node8</title>
<path fill="none" stroke="midnightblue" d="M663.284,-260.981C677.649,-257.342 692.82,-253.499 706.558,-250.019"/>
<polygon fill="midnightblue" stroke="midnightblue" points="707.442,-253.405 716.276,-247.557 705.722,-246.62 707.442,-253.405"/>
</g>
<!-- Node17 -->
<g id="node17" class="node"><title>Node17</title>
<g id="a_node17"><a xlink:href="../../da/d9b/group__windows.html#ga7fb1f8a8f40e09fa09e625d2a09dc04e" target="_top" xlink:title="inet_pton">
<polygon fill="none" stroke="black" points="727,-304.5 727,-323.5 783,-323.5 783,-304.5 727,-304.5"/>
<text text-anchor="middle" x="755" y="-311.5" font-family="Helvetica,sans-Serif" font-size="10.00">inet_pton</text>
</a>
</g>
</g>
<!-- Node6&#45;&gt;Node17 -->
<g id="edge17" class="edge"><title>Node6&#45;&gt;Node17</title>
<path fill="none" stroke="midnightblue" d="M663.284,-291.019C681.287,-295.579 700.555,-300.461 716.682,-304.546"/>
<polygon fill="midnightblue" stroke="midnightblue" points="716.228,-308.042 726.782,-307.105 717.948,-301.256 716.228,-308.042"/>
</g>
<!-- Node18 -->
<g id="node18" class="node"><title>Node18</title>
<g id="a_node18"><a xlink:href="../../d7/df1/group__host.html#ga3183b60055297ceaa19b4a5996496830" target="_top" xlink:title="host_create_from_sockaddr">
<polygon fill="none" stroke="black" points="846.5,-190.5 846.5,-209.5 983.5,-209.5 983.5,-190.5 846.5,-190.5"/>
<text text-anchor="middle" x="915" y="-197.5" font-family="Helvetica,sans-Serif" font-size="10.00">host_create_from_sockaddr</text>
</a>
</g>
</g>
<!-- Node6&#45;&gt;Node18 -->
<g id="edge18" class="edge"><title>Node6&#45;&gt;Node18</title>
<path fill="none" stroke="midnightblue" d="M623.329,-260.954C641.87,-247.422 671.224,-228.287 700,-219 743.778,-204.871 795.043,-199.946 836.42,-198.636"/>
<polygon fill="midnightblue" stroke="midnightblue" points="836.536,-202.134 846.444,-198.382 836.359,-195.137 836.536,-202.134"/>
</g>
<!-- Node9 -->
<g id="node9" class="node"><title>Node9</title>
<g id="a_node9"><a xlink:href="../../d7/df1/group__host.html#ga5f2c94740339664ce118776e13829cd0" target="_top" xlink:title="host_create_any">
<polygon fill="none" stroke="black" points="870.5,-266.5 870.5,-285.5 959.5,-285.5 959.5,-266.5 870.5,-266.5"/>
<text text-anchor="middle" x="915" y="-273.5" font-family="Helvetica,sans-Serif" font-size="10.00">host_create_any</text>
</a>
</g>
</g>
<!-- Node8&#45;&gt;Node9 -->
<g id="edge8" class="edge"><title>Node8&#45;&gt;Node9</title>
<path fill="none" stroke="midnightblue" d="M795.87,-247.589C816.72,-252.604 842.435,-258.788 864.543,-264.105"/>
<polygon fill="midnightblue" stroke="midnightblue" points="863.875,-267.544 874.417,-266.48 865.512,-260.739 863.875,-267.544"/>
</g>
<!-- Node16 -->
<g id="node16" class="node"><title>Node16</title>
<g id="a_node16"><a xlink:href="../../d9/dbc/kernel__pfkey__ipsec_8c.html#a5da61ec055ea1dffbb84ffe3caddb7dc" target="_top" xlink:title="set_port">
<polygon fill="none" stroke="black" points="889,-228.5 889,-247.5 941,-247.5 941,-228.5 889,-228.5"/>
<text text-anchor="middle" x="915" y="-235.5" font-family="Helvetica,sans-Serif" font-size="10.00">set_port</text>
</a>
</g>
</g>
<!-- Node8&#45;&gt;Node16 -->
<g id="edge16" class="edge"><title>Node8&#45;&gt;Node16</title>
<path fill="none" stroke="midnightblue" d="M810.375,-238C832.923,-238 858.446,-238 878.519,-238"/>
<polygon fill="midnightblue" stroke="midnightblue" points="878.765,-241.5 888.765,-238 878.765,-234.5 878.765,-241.5"/>
</g>
<!-- Node10 -->
<g id="node10" class="node"><title>Node10</title>
<g id="a_node10"><a xlink:href="../../df/da9/host_8c.html#ac3854e66d5a7563cae9608acbcad6eb5" target="_top" xlink:title="host_create_empty">
<polygon fill="none" stroke="black" points="1020,-285.5 1020,-304.5 1120,-304.5 1120,-285.5 1020,-285.5"/>
<text text-anchor="middle" x="1070" y="-292.5" font-family="Helvetica,sans-Serif" font-size="10.00">host_create_empty</text>
</a>
</g>
</g>
<!-- Node9&#45;&gt;Node10 -->
<g id="edge9" class="edge"><title>Node9&#45;&gt;Node10</title>
<path fill="none" stroke="midnightblue" d="M959.844,-281.445C975.346,-283.37 993.052,-285.569 1009.63,-287.627"/>
<polygon fill="midnightblue" stroke="midnightblue" points="1009.42,-291.127 1019.77,-288.887 1010.28,-284.181 1009.42,-291.127"/>
</g>
<!-- Node14 -->
<g id="node14" class="node"><title>Node14</title>
<g id="a_node14"><a xlink:href="../../df/da9/host_8c.html#a1fb6a6590d2576c32709b890623cad8c" target="_top" xlink:title="update_sa_len">
<polygon fill="none" stroke="black" points="1030,-247.5 1030,-266.5 1110,-266.5 1110,-247.5 1030,-247.5"/>
<text text-anchor="middle" x="1070" y="-254.5" font-family="Helvetica,sans-Serif" font-size="10.00">update_sa_len</text>
</a>
</g>
</g>
<!-- Node9&#45;&gt;Node14 -->
<g id="edge14" class="edge"><title>Node9&#45;&gt;Node14</title>
<path fill="none" stroke="midnightblue" d="M959.844,-270.555C978.556,-268.232 1000.48,-265.509 1019.75,-263.116"/>
<polygon fill="midnightblue" stroke="midnightblue" points="1020.35,-266.568 1029.85,-261.862 1019.49,-259.621 1020.35,-266.568"/>
</g>
<!-- Node15 -->
<g id="node15" class="node"><title>Node15</title>
<g id="a_node15"><a xlink:href="../../da/dfc/settings__parser_8c.html#af07d89f5ceaea0c7c8252cc41fd75f37" target="_top" xlink:title="free">
<polygon fill="none" stroke="black" points="1053.5,-190.5 1053.5,-209.5 1086.5,-209.5 1086.5,-190.5 1053.5,-190.5"/>
<text text-anchor="middle" x="1070" y="-197.5" font-family="Helvetica,sans-Serif" font-size="10.00">free</text>
</a>
</g>
</g>
<!-- Node9&#45;&gt;Node15 -->
<g id="edge15" class="edge"><title>Node9&#45;&gt;Node15</title>
<path fill="none" stroke="midnightblue" d="M958.106,-266.492C966.851,-263.896 975.872,-260.743 984,-257 1007.83,-246.025 1032.45,-228.748 1049.02,-216.09"/>
<polygon fill="midnightblue" stroke="midnightblue" points="1051.6,-218.511 1057.34,-209.602 1047.3,-212.99 1051.6,-218.511"/>
</g>
<!-- Node11 -->
<g id="node11" class="node"><title>Node11</title>
<g id="a_node11"><a xlink:href="../../df/da9/host_8c.html#a809d5cf7574c1f5e27758950d53653f4" target="_top" xlink:title="equals">
<polygon fill="none" stroke="black" points="1156.5,-266.5 1156.5,-285.5 1201.5,-285.5 1201.5,-266.5 1156.5,-266.5"/>
<text text-anchor="middle" x="1179" y="-273.5" font-family="Helvetica,sans-Serif" font-size="10.00">equals</text>
</a>
</g>
</g>
<!-- Node10&#45;&gt;Node11 -->
<g id="edge10" class="edge"><title>Node10&#45;&gt;Node11</title>
<path fill="none" stroke="midnightblue" d="M1120.12,-286.279C1129.08,-284.687 1138.2,-283.066 1146.48,-281.597"/>
<polygon fill="midnightblue" stroke="midnightblue" points="1147.2,-285.024 1156.44,-279.829 1145.98,-278.132 1147.2,-285.024"/>
</g>
<!-- Node12 -->
<g id="node12" class="node"><title>Node12</title>
<g id="a_node12"><a xlink:href="../../df/da9/host_8c.html#a0ea5fbf16ec81f3c5eaf6dc5da8d452a" target="_top" xlink:title="ip_equals">
<polygon fill="none" stroke="black" points="1238,-285.5 1238,-304.5 1296,-304.5 1296,-285.5 1238,-285.5"/>
<text text-anchor="middle" x="1267" y="-292.5" font-family="Helvetica,sans-Serif" font-size="10.00">ip_equals</text>
</a>
</g>
</g>
<!-- Node10&#45;&gt;Node12 -->
<g id="edge13" class="edge"><title>Node10&#45;&gt;Node12</title>
<path fill="none" stroke="midnightblue" d="M1120.21,-295C1153.51,-295 1196.88,-295 1227.63,-295"/>
<polygon fill="midnightblue" stroke="midnightblue" points="1227.94,-298.5 1237.94,-295 1227.94,-291.5 1227.94,-298.5"/>
</g>
<!-- Node11&#45;&gt;Node12 -->
<g id="edge11" class="edge"><title>Node11&#45;&gt;Node12</title>
<path fill="none" stroke="midnightblue" d="M1201.7,-280.795C1209.66,-282.552 1218.91,-284.596 1227.88,-286.578"/>
<polygon fill="midnightblue" stroke="midnightblue" points="1227.28,-290.029 1237.8,-288.769 1228.79,-283.194 1227.28,-290.029"/>
</g>
<!-- Node13 -->
<g id="node13" class="node"><title>Node13</title>
<g id="a_node13"><a xlink:href="../../dd/d74/group__memory__i.html#ga46d7935db00fd7092430dbf4f36c2850" target="_top" xlink:title="memeq">
<polygon fill="none" stroke="black" points="1332.5,-285.5 1332.5,-304.5 1381.5,-304.5 1381.5,-285.5 1332.5,-285.5"/>
<text text-anchor="middle" x="1357" y="-292.5" font-family="Helvetica,sans-Serif" font-size="10.00">memeq</text>
</a>
</g>
</g>
<!-- Node12&#45;&gt;Node13 -->
<g id="edge12" class="edge"><title>Node12&#45;&gt;Node13</title>
<path fill="none" stroke="midnightblue" d="M1296.33,-295C1304.62,-295 1313.76,-295 1322.34,-295"/>
<polygon fill="midnightblue" stroke="midnightblue" points="1322.44,-298.5 1332.44,-295 1322.44,-291.5 1322.44,-298.5"/>
</g>
<!-- Node18&#45;&gt;Node10 -->
<g id="edge19" class="edge"><title>Node18&#45;&gt;Node10</title>
<path fill="none" stroke="midnightblue" d="M966.633,-209.576C972.821,-212.033 978.789,-215.12 984,-219 1008.03,-236.893 996.866,-256.958 1020,-276 1022.03,-277.674 1024.23,-279.213 1026.53,-280.624"/>
<polygon fill="midnightblue" stroke="midnightblue" points="1025.29,-283.925 1035.77,-285.462 1028.54,-277.723 1025.29,-283.925"/>
</g>
<!-- Node18&#45;&gt;Node14 -->
<g id="edge20" class="edge"><title>Node18&#45;&gt;Node14</title>
<path fill="none" stroke="midnightblue" d="M954.08,-209.571C963.918,-212.334 974.431,-215.545 984,-219 1003.14,-225.909 1024.01,-235.211 1040.28,-242.882"/>
<polygon fill="midnightblue" stroke="midnightblue" points="1039.22,-246.258 1049.76,-247.412 1042.24,-239.942 1039.22,-246.258"/>
</g>
<!-- Node18&#45;&gt;Node15 -->
<g id="edge21" class="edge"><title>Node18&#45;&gt;Node15</title>
<path fill="none" stroke="midnightblue" d="M983.553,-200C1004.63,-200 1026.62,-200 1043.01,-200"/>
<polygon fill="midnightblue" stroke="midnightblue" points="1043.39,-203.5 1053.39,-200 1043.39,-196.5 1043.39,-203.5"/>
</g>
<!-- Node21&#45;&gt;Node10 -->
<g id="edge25" class="edge"><title>Node21&#45;&gt;Node10</title>
<path fill="none" stroke="midnightblue" d="M977.349,-306.381C988.06,-305.051 999.183,-303.67 1009.83,-302.348"/>
<polygon fill="midnightblue" stroke="midnightblue" points="1010.38,-305.807 1019.87,-301.101 1009.51,-298.86 1010.38,-305.807"/>
</g>
<!-- Node21&#45;&gt;Node14 -->
<g id="edge26" class="edge"><title>Node21&#45;&gt;Node14</title>
<path fill="none" stroke="midnightblue" d="M955.668,-304.45C965.084,-301.764 975.004,-298.583 984,-295 1000.81,-288.306 1003.54,-283.505 1020,-276 1024.22,-274.074 1028.7,-272.164 1033.17,-270.338"/>
<polygon fill="midnightblue" stroke="midnightblue" points="1034.83,-273.447 1042.83,-266.505 1032.24,-266.941 1034.83,-273.447"/>
</g>
<!-- Node24 -->
<g id="node24" class="node"><title>Node24</title>
<g id="a_node24"><a xlink:href="../../d0/d8f/group__callback__job.html#gadfa6801d50c2e34bb3f9e1c98efe02d0" target="_top" xlink:title="callback_job_create\l_with_prio">
<polygon fill="none" stroke="black" points="244.5,-191 244.5,-221 347.5,-221 347.5,-191 244.5,-191"/>
<text text-anchor="start" x="252.5" y="-209" font-family="Helvetica,sans-Serif" font-size="10.00">callback_job_create</text>
<text text-anchor="middle" x="296" y="-198" font-family="Helvetica,sans-Serif" font-size="10.00">_with_prio</text>
</a>
</g>
</g>
<!-- Node23&#45;&gt;Node24 -->
<g id="edge29" class="edge"><title>Node23&#45;&gt;Node24</title>
<path fill="none" stroke="midnightblue" d="M172.744,-224.941C188.737,-222.463 212.159,-218.835 234.233,-215.415"/>
<polygon fill="midnightblue" stroke="midnightblue" points="234.902,-218.853 244.249,-213.863 233.831,-211.935 234.902,-218.853"/>
</g>
<!-- Node27 -->
<g id="node27" class="node"><title>Node27</title>
<g id="a_node27"><a xlink:href="../../d4/da5/watcher_8c.html#aa9f8d5f98b20ea9cea8adaa68b6e4ab5" target="_top" xlink:title="notify_async">
<polygon fill="none" stroke="black" points="260,-57.5 260,-76.5 332,-76.5 332,-57.5 260,-57.5"/>
<text text-anchor="middle" x="296" y="-64.5" font-family="Helvetica,sans-Serif" font-size="10.00">notify_async</text>
</a>
</g>
</g>
<!-- Node23&#45;&gt;Node27 -->
<g id="edge32" class="edge"><title>Node23&#45;&gt;Node27</title>
<path fill="none" stroke="midnightblue" d="M172.521,-225.528C184.169,-223.112 198.495,-218.353 208,-209 241.372,-176.163 217.197,-148.387 244,-110 251.384,-99.4242 261.996,-89.9117 271.63,-82.5391"/>
<polygon fill="midnightblue" stroke="midnightblue" points="273.713,-85.3523 279.739,-76.638 269.594,-79.6925 273.713,-85.3523"/>
</g>
<!-- Node31 -->
<g id="node31" class="node"><title>Node31</title>
<g id="a_node31"><a xlink:href="../../d4/da5/watcher_8c.html#aa35392aaf7997cfd0f06e6bbe86feb73" target="_top" xlink:title="notify_end">
<polygon fill="none" stroke="black" points="265,-152.5 265,-171.5 327,-171.5 327,-152.5 265,-152.5"/>
<text text-anchor="middle" x="296" y="-159.5" font-family="Helvetica,sans-Serif" font-size="10.00">notify_end</text>
</a>
</g>
</g>
<!-- Node23&#45;&gt;Node31 -->
<g id="edge36" class="edge"><title>Node23&#45;&gt;Node31</title>
<path fill="none" stroke="midnightblue" d="M172.705,-222.818C183.472,-219.59 196.846,-214.921 208,-209 225.665,-199.622 226.532,-191.739 244,-182 248.192,-179.663 252.714,-177.469 257.272,-175.455"/>
<polygon fill="midnightblue" stroke="midnightblue" points="258.697,-178.653 266.585,-171.58 256.008,-172.19 258.697,-178.653"/>
</g>
<!-- Node33 -->
<g id="node33" class="node"><title>Node33</title>
<g id="a_node33"><a xlink:href="../../d6/d87/group__utils__i.html#ga9336a4d5728eb7ed977aacaeb8fd2c41" target="_top" xlink:title="return_false">
<polygon fill="none" stroke="black" points="262,-240.5 262,-259.5 330,-259.5 330,-240.5 262,-240.5"/>
<text text-anchor="middle" x="296" y="-247.5" font-family="Helvetica,sans-Serif" font-size="10.00">return_false</text>
</a>
</g>
</g>
<!-- Node23&#45;&gt;Node33 -->
<g id="edge40" class="edge"><title>Node23&#45;&gt;Node33</title>
<path fill="none" stroke="midnightblue" d="M172.744,-231.059C193.062,-234.207 225.37,-239.212 251.671,-243.287"/>
<polygon fill="midnightblue" stroke="midnightblue" points="251.368,-246.782 261.786,-244.854 252.44,-239.864 251.368,-246.782"/>
</g>
<!-- Node25 -->
<g id="node25" class="node"><title>Node25</title>
<g id="a_node25"><a xlink:href="../../d1/d14/fetch_8c.html#a17dd1592e9f4ebc44d5126c03a3a9697" target="_top" xlink:title="cb">
<polygon fill="none" stroke="black" points="430.5,-228.5 430.5,-247.5 459.5,-247.5 459.5,-228.5 430.5,-228.5"/>
<text text-anchor="middle" x="445" y="-235.5" font-family="Helvetica,sans-Serif" font-size="10.00">cb</text>
</a>
</g>
</g>
<!-- Node24&#45;&gt;Node25 -->
<g id="edge30" class="edge"><title>Node24&#45;&gt;Node25</title>
<path fill="none" stroke="midnightblue" d="M347.589,-217.013C372.255,-222.382 400.746,-228.584 420.325,-232.846"/>
<polygon fill="midnightblue" stroke="midnightblue" points="419.688,-236.289 430.204,-234.997 421.177,-229.45 419.688,-236.289"/>
</g>
<!-- Node26 -->
<g id="node26" class="node"><title>Node26</title>
<g id="a_node26"><a xlink:href="../../d2/dca/nm__backend_8c.html#a22ea158445c16ed72f5ab270e1dc691b" target="_top" xlink:title="cancel">
<polygon fill="none" stroke="black" points="422.5,-190.5 422.5,-209.5 467.5,-209.5 467.5,-190.5 422.5,-190.5"/>
<text text-anchor="middle" x="445" y="-197.5" font-family="Helvetica,sans-Serif" font-size="10.00">cancel</text>
</a>
</g>
</g>
<!-- Node24&#45;&gt;Node26 -->
<g id="edge31" class="edge"><title>Node24&#45;&gt;Node26</title>
<path fill="none" stroke="midnightblue" d="M347.589,-203.935C369.072,-203.058 393.456,-202.063 412.327,-201.293"/>
<polygon fill="midnightblue" stroke="midnightblue" points="412.614,-204.784 422.463,-200.879 412.328,-197.79 412.614,-204.784"/>
</g>
<!-- Node28 -->
<g id="node28" class="node"><title>Node28</title>
<g id="a_node28"><a xlink:href="../../da/dd8/group__thread.html#ga5c78b3b4d797a5e3fd535b81d1120857" target="_top" xlink:title="thread_cleanup_push">
<polygon fill="none" stroke="black" points="390.5,-76.5 390.5,-95.5 499.5,-95.5 499.5,-76.5 390.5,-76.5"/>
<text text-anchor="middle" x="445" y="-83.5" font-family="Helvetica,sans-Serif" font-size="10.00">thread_cleanup_push</text>
</a>
</g>
</g>
<!-- Node27&#45;&gt;Node28 -->
<g id="edge33" class="edge"><title>Node27&#45;&gt;Node28</title>
<path fill="none" stroke="midnightblue" d="M332.21,-71.551C346.63,-73.4147 363.777,-75.6311 380.259,-77.7613"/>
<polygon fill="midnightblue" stroke="midnightblue" points="380.038,-81.2618 390.404,-79.0726 380.935,-74.3196 380.038,-81.2618"/>
</g>
<!-- Node29 -->
<g id="node29" class="node"><title>Node29</title>
<g id="a_node29"><a xlink:href="../../d4/da5/watcher_8c.html#af07a8ce292029fcffea96da307cbaec9" target="_top" xlink:title="unregister">
<polygon fill="none" stroke="black" points="415.5,-38.5 415.5,-57.5 474.5,-57.5 474.5,-38.5 415.5,-38.5"/>
<text text-anchor="middle" x="445" y="-45.5" font-family="Helvetica,sans-Serif" font-size="10.00">unregister</text>
</a>
</g>
</g>
<!-- Node27&#45;&gt;Node29 -->
<g id="edge34" class="edge"><title>Node27&#45;&gt;Node29</title>
<path fill="none" stroke="midnightblue" d="M332.21,-62.449C354.308,-59.5929 382.811,-55.9088 405.505,-52.9755"/>
<polygon fill="midnightblue" stroke="midnightblue" points="406.011,-56.4393 415.48,-51.6863 405.114,-49.4971 406.011,-56.4393"/>
</g>
<!-- Node30 -->
<g id="node30" class="node"><title>Node30</title>
<g id="a_node30"><a xlink:href="../../da/dd8/group__thread.html#ga669a6d403cfb4dc30e7a389b3b6cf48b" target="_top" xlink:title="thread_cleanup_pop">
<polygon fill="none" stroke="black" points="393,-0.5 393,-19.5 497,-19.5 497,-0.5 393,-0.5"/>
<text text-anchor="middle" x="445" y="-7.5" font-family="Helvetica,sans-Serif" font-size="10.00">thread_cleanup_pop</text>
</a>
</g>
</g>
<!-- Node27&#45;&gt;Node30 -->
<g id="edge35" class="edge"><title>Node27&#45;&gt;Node30</title>
<path fill="none" stroke="midnightblue" d="M317.143,-57.4818C334.619,-49.3983 360.701,-37.7497 384,-29 389.701,-26.859 395.764,-24.7497 401.76,-22.7598"/>
<polygon fill="midnightblue" stroke="midnightblue" points="403.277,-25.9477 411.714,-19.539 401.122,-19.2876 403.277,-25.9477"/>
</g>
<!-- Node31&#45;&gt;Node15 -->
<g id="edge37" class="edge"><title>Node31&#45;&gt;Node15</title>
<path fill="none" stroke="midnightblue" d="M327.303,-162C382.117,-162 501.392,-162 602,-162 602,-162 602,-162 756,-162 857.685,-162 883.481,-165.651 984,-181 1004.11,-184.071 1026.56,-189.161 1043.33,-193.3"/>
<polygon fill="midnightblue" stroke="midnightblue" points="1042.9,-196.802 1053.46,-195.852 1044.61,-190.014 1042.9,-196.802"/>
</g>
<!-- Node32 -->
<g id="node32" class="node"><title>Node32</title>
<g id="a_node32"><a xlink:href="../../d4/da5/watcher_8c.html#a555c5ce92a336acef1ff02fb00381924" target="_top" xlink:title="update">
<polygon fill="none" stroke="black" points="422,-114.5 422,-133.5 468,-133.5 468,-114.5 422,-114.5"/>
<text text-anchor="middle" x="445" y="-121.5" font-family="Helvetica,sans-Serif" font-size="10.00">update</text>
</a>
</g>
</g>
<!-- Node31&#45;&gt;Node32 -->
<g id="edge38" class="edge"><title>Node31&#45;&gt;Node32</title>
<path fill="none" stroke="midnightblue" d="M327.102,-154.218C351.76,-147.844 386.571,-138.846 411.786,-132.327"/>
<polygon fill="midnightblue" stroke="midnightblue" points="412.804,-135.679 421.61,-129.788 411.052,-128.902 412.804,-135.679"/>
</g>
<!-- Node32&#45;&gt;Node23 -->
<g id="edge39" class="edge"><title>Node32&#45;&gt;Node23</title>
<path fill="none" stroke="midnightblue" d="M421.694,-119.813C382.254,-113.682 299.174,-106.608 244,-143 216.108,-161.397 233.512,-187.423 208,-209 200.714,-215.162 191.318,-219.363 182.36,-222.212"/>
<polygon fill="midnightblue" stroke="midnightblue" points="181.293,-218.875 172.568,-224.886 183.137,-225.628 181.293,-218.875"/>
</g>
</g>
</svg>
