<?xml version="1.0" encoding="UTF-8" standalone="no"?>
<!DOCTYPE svg PUBLIC "-//W3C//DTD SVG 1.1//EN"
 "http://www.w3.org/Graphics/SVG/1.1/DTD/svg11.dtd">
<!-- Generated by graphviz version 2.36.0 (20140111.2315)
 -->
<!-- Title: ietf_attr_numeric_version.h Pages: 1 -->
<svg width="396pt" height="84pt"
 viewBox="0.00 0.00 396.00 84.00" xmlns="http://www.w3.org/2000/svg" xmlns:xlink="http://www.w3.org/1999/xlink">
<g id="graph0" class="graph" transform="scale(1 1) rotate(0) translate(4 80)">
<title>ietf_attr_numeric_version.h</title>
<!-- Node1 -->
<g id="node1" class="node"><title>Node1</title>
<polygon fill="#bfbfbf" stroke="black" points="132,-56.5 132,-75.5 266,-75.5 266,-56.5 132,-56.5"/>
<text text-anchor="middle" x="199" y="-63.5" font-family="Helvetica,sans-Serif" font-size="10.00">ietf_attr_numeric_version.h</text>
</g>
<!-- Node2 -->
<g id="node2" class="node"><title>Node2</title>
<g id="a_node2"><a xlink:href="../../d2/da0/ietf__attr_8c.html" target="_top" xlink:title="ietf_attr.c">
<polygon fill="none" stroke="black" points="0,-0.5 0,-19.5 58,-19.5 58,-0.5 0,-0.5"/>
<text text-anchor="middle" x="29" y="-7.5" font-family="Helvetica,sans-Serif" font-size="10.00">ietf_attr.c</text>
</a>
</g>
</g>
<!-- Node1&#45;&gt;Node2 -->
<g id="edge1" class="edge"><title>Node1&#45;&gt;Node2</title>
<path fill="none" stroke="midnightblue" d="M162.181,-53.3044C130.148,-43.1294 84.4848,-28.6246 55.811,-19.5164"/>
<polygon fill="midnightblue" stroke="midnightblue" points="161.473,-56.7518 172.063,-56.4435 163.592,-50.0803 161.473,-56.7518"/>
</g>
<!-- Node3 -->
<g id="node3" class="node"><title>Node3</title>
<g id="a_node3"><a xlink:href="../../d1/d09/ietf__attr__numeric__version_8c.html" target="_top" xlink:title="ietf_attr_numeric_version.c">
<polygon fill="none" stroke="black" points="76,-0.5 76,-19.5 210,-19.5 210,-0.5 76,-0.5"/>
<text text-anchor="middle" x="143" y="-7.5" font-family="Helvetica,sans-Serif" font-size="10.00">ietf_attr_numeric_version.c</text>
</a>
</g>
</g>
<!-- Node1&#45;&gt;Node3 -->
<g id="edge2" class="edge"><title>Node1&#45;&gt;Node3</title>
<path fill="none" stroke="midnightblue" d="M182.67,-49.2533C172.735,-39.6731 160.412,-27.7906 152.161,-19.8339"/>
<polygon fill="midnightblue" stroke="midnightblue" points="180.375,-51.902 190.003,-56.324 185.234,-46.8631 180.375,-51.902"/>
</g>
<!-- Node4 -->
<g id="node4" class="node"><title>Node4</title>
<g id="a_node4"><a xlink:href="../../da/d3e/imc__os_8c.html" target="_top" xlink:title="imc_os.c">
<polygon fill="none" stroke="black" points="228,-0.5 228,-19.5 284,-19.5 284,-0.5 228,-0.5"/>
<text text-anchor="middle" x="256" y="-7.5" font-family="Helvetica,sans-Serif" font-size="10.00">imc_os.c</text>
</a>
</g>
</g>
<!-- Node1&#45;&gt;Node4 -->
<g id="edge3" class="edge"><title>Node1&#45;&gt;Node4</title>
<path fill="none" stroke="midnightblue" d="M215.621,-49.2533C225.734,-39.6731 238.277,-27.7906 246.675,-19.8339"/>
<polygon fill="midnightblue" stroke="midnightblue" points="213.01,-46.9056 208.158,-56.324 217.825,-51.9873 213.01,-46.9056"/>
</g>
<!-- Node5 -->
<g id="node5" class="node"><title>Node5</title>
<g id="a_node5"><a xlink:href="../../dd/d02/imv__os__agent_8c.html" target="_top" xlink:title="imv_os_agent.c">
<polygon fill="none" stroke="black" points="302,-0.5 302,-19.5 388,-19.5 388,-0.5 302,-0.5"/>
<text text-anchor="middle" x="345" y="-7.5" font-family="Helvetica,sans-Serif" font-size="10.00">imv_os_agent.c</text>
</a>
</g>
</g>
<!-- Node1&#45;&gt;Node5 -->
<g id="edge4" class="edge"><title>Node1&#45;&gt;Node5</title>
<path fill="none" stroke="midnightblue" d="M231.699,-52.9058C259.148,-42.7536 297.668,-28.5063 321.974,-19.5164"/>
<polygon fill="midnightblue" stroke="midnightblue" points="230.299,-49.6919 222.134,-56.4435 232.727,-56.2572 230.299,-49.6919"/>
</g>
</g>
</svg>
