<?xml version="1.0" encoding="UTF-8" standalone="no"?>
<!DOCTYPE svg PUBLIC "-//W3C//DTD SVG 1.1//EN"
 "http://www.w3.org/Graphics/SVG/1.1/DTD/svg11.dtd">
<!-- Generated by graphviz version 2.36.0 (20140111.2315)
 -->
<!-- Title: sa Pages: 1 -->
<!--zoomable 560 -->
<svg id="main" version="1.1" xmlns="http://www.w3.org/2000/svg" xmlns:xlink="http://www.w3.org/1999/xlink" xml:space="preserve" onload="init(evt)">
<style type="text/css"><![CDATA[
.edge:hover path { stroke: red; }
.edge:hover polygon { stroke: red; fill: red; }
]]></style>
<script type="text/javascript"><![CDATA[
var edges = document.getElementsByTagName('g');
if (edges && edges.length) {
  for (var i=0;i<edges.length;i++) {
    if (edges[i].id.substr(0,4)=='edge') {
      edges[i].setAttribute('class','edge');
    }
  }
}
]]></script>
        <defs>
                <circle id="rim" cx="0" cy="0" r="7"/>
                <circle id="rim2" cx="0" cy="0" r="3.5"/>
                <g id="zoomPlus">
                        <use xlink:href="#rim" fill="#404040">
                                <set attributeName="fill" to="#808080" begin="zoomplus.mouseover" end="zoomplus.mouseout"/>
                        </use>
                        <path d="M-4,0h8M0,-4v8" fill="none" stroke="white" stroke-width="1.5" pointer-events="none"/>
                </g>
                <g id="zoomMin">
                        <use xlink:href="#rim" fill="#404040">
                                <set attributeName="fill" to="#808080" begin="zoomminus.mouseover" end="zoomminus.mouseout"/>
                        </use>
                        <path d="M-4,0h8" fill="none" stroke="white" stroke-width="1.5" pointer-events="none"/>
                </g>
                <g id="dirArrow">
                        <path fill="none" stroke="white" stroke-width="1.5" d="M0,-3.0v7 M-2.5,-0.5L0,-3.0L2.5,-0.5"/>
                </g>
               <g id="resetDef">
                       <use xlink:href="#rim2" fill="#404040">
                               <set attributeName="fill" to="#808080" begin="reset.mouseover" end="reset.mouseout"/>
                       </use>
               </g>
        </defs>

<script type="text/javascript">
var viewWidth = 262;
var viewHeight = 560;
var sectionId = 'dynsection-0';
</script>
<script xlink:href="../../svgpan.js"/>
<svg id="graph" class="graph">
<g id="viewport">
<title>sa</title>
<!-- Node7 -->
<g id="node1" class="node"><title>Node7</title>
<g id="a_node1"><a xlink:href="../../df/d25/group__child__sa.html" target="_top" xlink:title="child_sa">
<polygon fill="none" stroke="black" points="179.5,-532.5 179.5,-551.5 232.5,-551.5 232.5,-532.5 179.5,-532.5"/>
<text text-anchor="middle" x="206" y="-539.5" font-family="Helvetica,sans-Serif" font-size="10.00">child_sa</text>
</a>
</g>
</g>
<!-- Node9 -->
<g id="node2" class="node"><title>Node9</title>
<g id="a_node2"><a xlink:href="../../d0/dce/group__ike__sa.html" target="_top" xlink:title="ike_sa">
<polygon fill="none" stroke="black" points="183.5,-494.5 183.5,-513.5 228.5,-513.5 228.5,-494.5 183.5,-494.5"/>
<text text-anchor="middle" x="206" y="-501.5" font-family="Helvetica,sans-Serif" font-size="10.00">ike_sa</text>
</a>
</g>
</g>
<!-- Node4 -->
<g id="node3" class="node"><title>Node4</title>
<g id="a_node3"><a xlink:href="../../d6/ddd/group__eap.html" target="_top" xlink:title="eap">
<polygon fill="none" stroke="black" points="190,-456.5 190,-475.5 222,-475.5 222,-456.5 190,-456.5"/>
<text text-anchor="middle" x="206" y="-463.5" font-family="Helvetica,sans-Serif" font-size="10.00">eap</text>
</a>
</g>
</g>
<!-- Node16 -->
<g id="node4" class="node"><title>Node16</title>
<g id="a_node4"><a xlink:href="../../d8/de0/group__trap__manager.html" target="_top" xlink:title="trap_manager">
<polygon fill="none" stroke="black" points="168,-418.5 168,-437.5 244,-437.5 244,-418.5 168,-418.5"/>
<text text-anchor="middle" x="206" y="-425.5" font-family="Helvetica,sans-Serif" font-size="10.00">trap_manager</text>
</a>
</g>
</g>
<!-- Node13 -->
<g id="node5" class="node"><title>Node13</title>
<g id="a_node5"><a xlink:href="../../d7/d9b/group__shunt__manager.html" target="_top" xlink:title="shunt_manager">
<polygon fill="none" stroke="black" points="164.5,-380.5 164.5,-399.5 247.5,-399.5 247.5,-380.5 164.5,-380.5"/>
<text text-anchor="middle" x="206" y="-387.5" font-family="Helvetica,sans-Serif" font-size="10.00">shunt_manager</text>
</a>
</g>
</g>
<!-- Node14 -->
<g id="node6" class="node"><title>Node14</title>
<g id="a_node6"><a xlink:href="../../d4/dc4/group__task.html" target="_top" xlink:title="task">
<polygon fill="none" stroke="black" points="188.5,-342.5 188.5,-361.5 223.5,-361.5 223.5,-342.5 188.5,-342.5"/>
<text text-anchor="middle" x="206" y="-349.5" font-family="Helvetica,sans-Serif" font-size="10.00">task</text>
</a>
</g>
</g>
<!-- Node12 -->
<g id="node7" class="node"><title>Node12</title>
<g id="a_node7"><a xlink:href="../../d0/d36/group__keymat.html" target="_top" xlink:title="keymat">
<polygon fill="none" stroke="black" points="181.5,-304.5 181.5,-323.5 230.5,-323.5 230.5,-304.5 181.5,-304.5"/>
<text text-anchor="middle" x="206" y="-311.5" font-family="Helvetica,sans-Serif" font-size="10.00">keymat</text>
</a>
</g>
</g>
<!-- Node5 -->
<g id="node8" class="node"><title>Node5</title>
<g id="a_node8"><a xlink:href="../../de/d2d/group__xauth.html" target="_top" xlink:title="xauth">
<polygon fill="none" stroke="black" points="185.5,-266.5 185.5,-285.5 226.5,-285.5 226.5,-266.5 185.5,-266.5"/>
<text text-anchor="middle" x="206" y="-273.5" font-family="Helvetica,sans-Serif" font-size="10.00">xauth</text>
</a>
</g>
</g>
<!-- Node1 -->
<g id="node9" class="node"><title>Node1</title>
<g id="a_node9"><a xlink:href="../../d0/db7/group__libcharon.html" target="_top" xlink:title="libcharon">
<polygon fill="none" stroke="black" points="0,-266.5 0,-285.5 56,-285.5 56,-266.5 0,-266.5"/>
<text text-anchor="middle" x="28" y="-273.5" font-family="Helvetica,sans-Serif" font-size="10.00">libcharon</text>
</a>
</g>
</g>
<!-- Node0 -->
<g id="node17" class="node"><title>Node0</title>
<polygon fill="#bfbfbf" stroke="black" points="92.5,-266.5 92.5,-285.5 121.5,-285.5 121.5,-266.5 92.5,-266.5"/>
<text text-anchor="middle" x="107" y="-273.5" font-family="Helvetica,sans-Serif" font-size="10.00">sa</text>
</g>
<!-- Node1&#45;&gt;Node0 -->
<g id="edge1" class="edge"><title>Node1&#45;&gt;Node0</title>
<path fill="none" stroke="midnightblue" d="M66.5432,-276C75.6833,-276 84.8954,-276 92.1172,-276"/>
<polygon fill="midnightblue" stroke="midnightblue" points="66.3642,-272.5 56.3641,-276 66.3641,-279.5 66.3642,-272.5"/>
</g>
<!-- Node11 -->
<g id="node10" class="node"><title>Node11</title>
<g id="a_node10"><a xlink:href="../../d9/dc4/group__ike__sa__manager.html" target="_top" xlink:title="ike_sa_manager">
<polygon fill="none" stroke="black" points="162,-228.5 162,-247.5 250,-247.5 250,-228.5 162,-228.5"/>
<text text-anchor="middle" x="206" y="-235.5" font-family="Helvetica,sans-Serif" font-size="10.00">ike_sa_manager</text>
</a>
</g>
</g>
<!-- Node10 -->
<g id="node11" class="node"><title>Node10</title>
<g id="a_node11"><a xlink:href="../../d1/d7f/group__ike__sa__id.html" target="_top" xlink:title="ike_sa_id">
<polygon fill="none" stroke="black" points="177,-190.5 177,-209.5 235,-209.5 235,-190.5 177,-190.5"/>
<text text-anchor="middle" x="206" y="-197.5" font-family="Helvetica,sans-Serif" font-size="10.00">ike_sa_id</text>
</a>
</g>
</g>
<!-- Node15 -->
<g id="node12" class="node"><title>Node15</title>
<g id="a_node12"><a xlink:href="../../d0/df1/group__task__manager.html" target="_top" xlink:title="task_manager">
<polygon fill="none" stroke="black" points="167,-152.5 167,-171.5 245,-171.5 245,-152.5 167,-152.5"/>
<text text-anchor="middle" x="206" y="-159.5" font-family="Helvetica,sans-Serif" font-size="10.00">task_manager</text>
</a>
</g>
</g>
<!-- Node2 -->
<g id="node13" class="node"><title>Node2</title>
<g id="a_node13"><a xlink:href="../../d7/dd9/group__ikev1.html" target="_top" xlink:title="ikev1">
<polygon fill="none" stroke="black" points="186,-114.5 186,-133.5 226,-133.5 226,-114.5 186,-114.5"/>
<text text-anchor="middle" x="206" y="-121.5" font-family="Helvetica,sans-Serif" font-size="10.00">ikev1</text>
</a>
</g>
</g>
<!-- Node3 -->
<g id="node14" class="node"><title>Node3</title>
<g id="a_node14"><a xlink:href="../../d8/dcc/group__ikev2.html" target="_top" xlink:title="ikev2">
<polygon fill="none" stroke="black" points="186,-76.5 186,-95.5 226,-95.5 226,-76.5 186,-76.5"/>
<text text-anchor="middle" x="206" y="-83.5" font-family="Helvetica,sans-Serif" font-size="10.00">ikev2</text>
</a>
</g>
</g>
<!-- Node8 -->
<g id="node15" class="node"><title>Node8</title>
<g id="a_node15"><a xlink:href="../../d8/d20/group__child__sa__manager.html" target="_top" xlink:title="child_sa_manager">
<polygon fill="none" stroke="black" points="158.5,-38.5 158.5,-57.5 253.5,-57.5 253.5,-38.5 158.5,-38.5"/>
<text text-anchor="middle" x="206" y="-45.5" font-family="Helvetica,sans-Serif" font-size="10.00">child_sa_manager</text>
</a>
</g>
</g>
<!-- Node6 -->
<g id="node16" class="node"><title>Node6</title>
<g id="a_node16"><a xlink:href="../../da/d5b/group__authenticator.html" target="_top" xlink:title="authenticator">
<polygon fill="none" stroke="black" points="169.5,-0.5 169.5,-19.5 242.5,-19.5 242.5,-0.5 169.5,-0.5"/>
<text text-anchor="middle" x="206" y="-7.5" font-family="Helvetica,sans-Serif" font-size="10.00">authenticator</text>
</a>
</g>
</g>
<!-- Node0&#45;&gt;Node7 -->
<g id="edge7" class="edge"><title>Node0&#45;&gt;Node7</title>
<path fill="none" stroke="midnightblue" d="M109.595,-295.636C114.191,-347.779 129.024,-488.119 158,-523 163.399,-529.499 171.358,-533.796 179.198,-536.628"/>
<polygon fill="midnightblue" stroke="midnightblue" points="113.081,-295.326 108.747,-285.659 106.106,-295.919 113.081,-295.326"/>
</g>
<!-- Node0&#45;&gt;Node9 -->
<g id="edge9" class="edge"><title>Node0&#45;&gt;Node9</title>
<path fill="none" stroke="midnightblue" d="M107.092,-295.863C106.325,-336.411 110.269,-429.55 158,-485 164.431,-492.471 174.231,-497.041 183.221,-499.819"/>
<polygon fill="midnightblue" stroke="midnightblue" points="110.596,-295.792 107.41,-285.687 103.599,-295.573 110.596,-295.792"/>
</g>
<!-- Node0&#45;&gt;Node4 -->
<g id="edge4" class="edge"><title>Node0&#45;&gt;Node4</title>
<path fill="none" stroke="midnightblue" d="M108.405,-295.785C110.164,-330.668 118.656,-403.524 158,-447 166.268,-456.136 179.549,-460.962 189.888,-463.46"/>
<polygon fill="midnightblue" stroke="midnightblue" points="111.893,-295.374 108.032,-285.508 104.897,-295.628 111.893,-295.374"/>
</g>
<!-- Node0&#45;&gt;Node16 -->
<g id="edge16" class="edge"><title>Node0&#45;&gt;Node16</title>
<path fill="none" stroke="midnightblue" d="M110.398,-295.758C114.856,-324.322 126.975,-377.203 158,-409 161.688,-412.78 166.229,-415.831 171.02,-418.289"/>
<polygon fill="midnightblue" stroke="midnightblue" points="113.853,-295.193 109.001,-285.775 106.92,-296.164 113.853,-295.193"/>
</g>
<!-- Node0&#45;&gt;Node13 -->
<g id="edge13" class="edge"><title>Node0&#45;&gt;Node13</title>
<path fill="none" stroke="midnightblue" d="M113.691,-295.289C120.849,-316.479 135.059,-350.252 158,-371 162.178,-374.778 167.204,-377.855 172.394,-380.345"/>
<polygon fill="midnightblue" stroke="midnightblue" points="117.024,-294.22 110.659,-285.75 110.353,-296.34 117.024,-294.22"/>
</g>
<!-- Node0&#45;&gt;Node14 -->
<g id="edge14" class="edge"><title>Node0&#45;&gt;Node14</title>
<path fill="none" stroke="midnightblue" d="M120.236,-293.928C129.426,-306.28 142.972,-322.329 158,-333 167.186,-339.522 178.936,-344.272 188.389,-347.392"/>
<polygon fill="midnightblue" stroke="midnightblue" points="123.023,-291.809 114.355,-285.716 117.332,-295.884 123.023,-291.809"/>
</g>
<!-- Node0&#45;&gt;Node12 -->
<g id="edge12" class="edge"><title>Node0&#45;&gt;Node12</title>
<path fill="none" stroke="midnightblue" d="M131.549,-285.225C146.675,-291.151 166.25,-298.819 181.387,-304.75"/>
<polygon fill="midnightblue" stroke="midnightblue" points="132.485,-281.833 121.898,-281.444 129.932,-288.351 132.485,-281.833"/>
</g>
<!-- Node0&#45;&gt;Node5 -->
<g id="edge5" class="edge"><title>Node0&#45;&gt;Node5</title>
<path fill="none" stroke="midnightblue" d="M132.331,-276C148.742,-276 170.112,-276 185.424,-276"/>
<polygon fill="midnightblue" stroke="midnightblue" points="131.898,-272.5 121.898,-276 131.898,-279.5 131.898,-272.5"/>
</g>
<!-- Node0&#45;&gt;Node11 -->
<g id="edge11" class="edge"><title>Node0&#45;&gt;Node11</title>
<path fill="none" stroke="midnightblue" d="M131.408,-266.83C146.301,-260.995 165.552,-253.454 180.628,-247.548"/>
<polygon fill="midnightblue" stroke="midnightblue" points="129.932,-263.649 121.898,-270.556 132.485,-270.167 129.932,-263.649"/>
</g>
<!-- Node0&#45;&gt;Node10 -->
<g id="edge10" class="edge"><title>Node0&#45;&gt;Node10</title>
<path fill="none" stroke="midnightblue" d="M120.236,-258.072C129.426,-245.72 142.972,-229.671 158,-219 163.597,-215.025 170.147,-211.709 176.549,-209.019"/>
<polygon fill="midnightblue" stroke="midnightblue" points="117.332,-256.116 114.355,-266.284 123.023,-260.191 117.332,-256.116"/>
</g>
<!-- Node0&#45;&gt;Node15 -->
<g id="edge15" class="edge"><title>Node0&#45;&gt;Node15</title>
<path fill="none" stroke="midnightblue" d="M113.691,-256.711C120.849,-235.521 135.059,-201.748 158,-181 162.178,-177.222 167.204,-174.145 172.394,-171.655"/>
<polygon fill="midnightblue" stroke="midnightblue" points="110.353,-255.66 110.659,-266.25 117.024,-257.78 110.353,-255.66"/>
</g>
<!-- Node0&#45;&gt;Node2 -->
<g id="edge2" class="edge"><title>Node0&#45;&gt;Node2</title>
<path fill="none" stroke="midnightblue" d="M110.398,-256.242C114.856,-227.678 126.975,-174.797 158,-143 165.376,-135.441 176.164,-130.793 185.545,-127.989"/>
<polygon fill="midnightblue" stroke="midnightblue" points="106.92,-255.836 109.001,-266.225 113.853,-256.807 106.92,-255.836"/>
</g>
<!-- Node0&#45;&gt;Node3 -->
<g id="edge3" class="edge"><title>Node0&#45;&gt;Node3</title>
<path fill="none" stroke="midnightblue" d="M108.405,-256.215C110.164,-221.332 118.656,-148.476 158,-105 165.205,-97.0385 176.217,-92.3502 185.771,-89.6235"/>
<polygon fill="midnightblue" stroke="midnightblue" points="104.897,-256.372 108.032,-266.492 111.893,-256.626 104.897,-256.372"/>
</g>
<!-- Node0&#45;&gt;Node8 -->
<g id="edge8" class="edge"><title>Node0&#45;&gt;Node8</title>
<path fill="none" stroke="midnightblue" d="M107.092,-256.137C106.325,-215.589 110.269,-122.45 158,-67 161.33,-63.1312 165.564,-60.0401 170.121,-57.573"/>
<polygon fill="midnightblue" stroke="midnightblue" points="103.599,-256.427 107.41,-266.313 110.596,-256.208 103.599,-256.427"/>
</g>
<!-- Node0&#45;&gt;Node6 -->
<g id="edge6" class="edge"><title>Node0&#45;&gt;Node6</title>
<path fill="none" stroke="midnightblue" d="M109.595,-256.364C114.191,-204.221 129.024,-63.8814 158,-29 161.149,-25.2088 165.17,-22.167 169.53,-19.7282"/>
<polygon fill="midnightblue" stroke="midnightblue" points="106.106,-256.081 108.747,-266.341 113.081,-256.674 106.106,-256.081"/>
</g>
</g>
</svg>
        <g id="navigator" transform="translate(0 0)" fill="#404254">
                <rect fill="#f2f5e9" fill-opacity="0.5" stroke="#606060" stroke-width=".5" x="0" y="0" width="60" height="60"/>
                <use id="zoomplus" xlink:href="#zoomPlus" x="17" y="9" onmousedown="handleZoom(evt,'in')"/>
                <use id="zoomminus" xlink:href="#zoomMin" x="42" y="9" onmousedown="handleZoom(evt,'out')"/>
                <use id="reset" xlink:href="#resetDef" x="30" y="36" onmousedown="handleReset()"/>
                <g id="arrowUp" xlink:href="#dirArrow" transform="translate(30 24)" onmousedown="handlePan(0,-1)">
                  <use xlink:href="#rim" fill="#404040">
                        <set attributeName="fill" to="#808080" begin="arrowUp.mouseover" end="arrowUp.mouseout"/>
                  </use>
                  <path fill="none" stroke="white" stroke-width="1.5" d="M0,-3.0v7 M-2.5,-0.5L0,-3.0L2.5,-0.5"/>
                </g>
                <g id="arrowRight" xlink:href="#dirArrow" transform="rotate(90) translate(36 -43)" onmousedown="handlePan(1,0)">
                  <use xlink:href="#rim" fill="#404040">
                        <set attributeName="fill" to="#808080" begin="arrowRight.mouseover" end="arrowRight.mouseout"/>
                  </use>
                  <path fill="none" stroke="white" stroke-width="1.5" d="M0,-3.0v7 M-2.5,-0.5L0,-3.0L2.5,-0.5"/>
                </g>
                <g id="arrowDown" xlink:href="#dirArrow" transform="rotate(180) translate(-30 -48)" onmousedown="handlePan(0,1)">
                  <use xlink:href="#rim" fill="#404040">
                        <set attributeName="fill" to="#808080" begin="arrowDown.mouseover" end="arrowDown.mouseout"/>
                  </use>
                  <path fill="none" stroke="white" stroke-width="1.5" d="M0,-3.0v7 M-2.5,-0.5L0,-3.0L2.5,-0.5"/>
                </g>
                <g id="arrowLeft" xlink:href="#dirArrow" transform="rotate(270) translate(-36 17)" onmousedown="handlePan(-1,0)">
                  <use xlink:href="#rim" fill="#404040">
                        <set attributeName="fill" to="#808080" begin="arrowLeft.mouseover" end="arrowLeft.mouseout"/>
                  </use>
                  <path fill="none" stroke="white" stroke-width="1.5" d="M0,-3.0v7 M-2.5,-0.5L0,-3.0L2.5,-0.5"/>
                </g>
        </g>
        <svg viewBox="0 0 15 15" width="100%" height="30px" preserveAspectRatio="xMaxYMin meet">
         <g id="arrow_out" transform="scale(0.3 0.3)">
          <a xlink:href="group__sa_org.svg" target="_base">
           <rect id="button" ry="5" rx="5" y="6" x="6" height="38" width="38"
                fill="#f2f5e9" fill-opacity="0.5" stroke="#606060" stroke-width="1.0"/>
           <path id="arrow"
             d="M 11.500037,31.436501 C 11.940474,20.09759 22.043105,11.32322 32.158766,21.979434 L 37.068811,17.246167 C 37.068811,17.246167 37.088388,32 37.088388,32 L 22.160133,31.978069 C 22.160133,31.978069 26.997745,27.140456 26.997745,27.140456 C 18.528582,18.264221 13.291696,25.230495 11.500037,31.436501 z"
             style="fill:#404040;"/>
          </a>
         </g>
        </svg>
</svg>
