<?xml version="1.0" encoding="UTF-8" standalone="no"?>
<!DOCTYPE svg PUBLIC "-//W3C//DTD SVG 1.1//EN"
 "http://www.w3.org/Graphics/SVG/1.1/DTD/svg11.dtd">
<!-- Generated by graphviz version 2.36.0 (20140111.2315)
 -->
<!-- Title: identification_create_from_sockaddr Pages: 1 -->
<svg width="496pt" height="115pt"
 viewBox="0.00 0.00 496.00 115.00" xmlns="http://www.w3.org/2000/svg" xmlns:xlink="http://www.w3.org/1999/xlink">
<g id="graph0" class="graph" transform="scale(1 1) rotate(0) translate(4 111)">
<title>identification_create_from_sockaddr</title>
<!-- Node1 -->
<g id="node1" class="node"><title>Node1</title>
<polygon fill="#bfbfbf" stroke="black" points="0,-44 0,-74 104,-74 104,-44 0,-44"/>
<text text-anchor="start" x="8" y="-62" font-family="Helvetica,sans-Serif" font-size="10.00">identification_create</text>
<text text-anchor="middle" x="52" y="-51" font-family="Helvetica,sans-Serif" font-size="10.00">_from_sockaddr</text>
</g>
<!-- Node2 -->
<g id="node2" class="node"><title>Node2</title>
<g id="a_node2"><a xlink:href="../../d4/d87/group__chunk.html#gad94ca029616a107e89eaa618408fd7b6" target="_top" xlink:title="chunk_create">
<polygon fill="none" stroke="black" points="154.5,-87.5 154.5,-106.5 229.5,-106.5 229.5,-87.5 154.5,-87.5"/>
<text text-anchor="middle" x="192" y="-94.5" font-family="Helvetica,sans-Serif" font-size="10.00">chunk_create</text>
</a>
</g>
</g>
<!-- Node1&#45;&gt;Node2 -->
<g id="edge1" class="edge"><title>Node1&#45;&gt;Node2</title>
<path fill="none" stroke="midnightblue" d="M104.386,-73.1498C118.187,-76.95 132.995,-81.0277 146.395,-84.7175"/>
<polygon fill="midnightblue" stroke="midnightblue" points="145.757,-88.1719 156.327,-87.4524 147.615,-81.4231 145.757,-88.1719"/>
</g>
<!-- Node3 -->
<g id="node3" class="node"><title>Node3</title>
<g id="a_node3"><a xlink:href="../../d6/d2f/identification_8c.html#a2c4638c8ff8771dbda52e0c3b7aac28b" target="_top" xlink:title="identification_create">
<polygon fill="none" stroke="black" points="280,-27.5 280,-46.5 384,-46.5 384,-27.5 280,-27.5"/>
<text text-anchor="middle" x="332" y="-34.5" font-family="Helvetica,sans-Serif" font-size="10.00">identification_create</text>
</a>
</g>
</g>
<!-- Node1&#45;&gt;Node3 -->
<g id="edge2" class="edge"><title>Node1&#45;&gt;Node3</title>
<path fill="none" stroke="midnightblue" d="M104.313,-54.9392C151.037,-51.2417 220.103,-45.776 269.711,-41.8502"/>
<polygon fill="midnightblue" stroke="midnightblue" points="270.293,-45.3152 279.986,-41.0371 269.741,-38.337 270.293,-45.3152"/>
</g>
<!-- Node6 -->
<g id="node6" class="node"><title>Node6</title>
<g id="a_node6"><a xlink:href="../../d5/d8d/group__identification.html#gaaf048646417f796b2b49277141f1cd40" target="_top" xlink:title="identification_create\l_from_encoding">
<polygon fill="none" stroke="black" points="140,-0 140,-30 244,-30 244,-0 140,-0"/>
<text text-anchor="start" x="148" y="-18" font-family="Helvetica,sans-Serif" font-size="10.00">identification_create</text>
<text text-anchor="middle" x="192" y="-7" font-family="Helvetica,sans-Serif" font-size="10.00">_from_encoding</text>
</a>
</g>
</g>
<!-- Node1&#45;&gt;Node6 -->
<g id="edge5" class="edge"><title>Node1&#45;&gt;Node6</title>
<path fill="none" stroke="midnightblue" d="M100.106,-43.9808C110.976,-40.5148 122.655,-36.7911 133.9,-33.2059"/>
<polygon fill="midnightblue" stroke="midnightblue" points="135.174,-36.4733 143.638,-30.1009 133.047,-29.8041 135.174,-36.4733"/>
</g>
<!-- Node4 -->
<g id="node4" class="node"><title>Node4</title>
<g id="a_node4"><a xlink:href="../../d6/d87/group__utils__i.html#ga9336a4d5728eb7ed977aacaeb8fd2c41" target="_top" xlink:title="return_false">
<polygon fill="none" stroke="black" points="420,-46.5 420,-65.5 488,-65.5 488,-46.5 420,-46.5"/>
<text text-anchor="middle" x="454" y="-53.5" font-family="Helvetica,sans-Serif" font-size="10.00">return_false</text>
</a>
</g>
</g>
<!-- Node3&#45;&gt;Node4 -->
<g id="edge3" class="edge"><title>Node3&#45;&gt;Node4</title>
<path fill="none" stroke="midnightblue" d="M384.239,-45.1128C392.844,-46.4752 401.694,-47.8766 410.062,-49.2015"/>
<polygon fill="midnightblue" stroke="midnightblue" points="409.556,-52.6648 419.98,-50.7718 410.65,-45.751 409.556,-52.6648"/>
</g>
<!-- Node5 -->
<g id="node5" class="node"><title>Node5</title>
<g id="a_node5"><a xlink:href="../../d6/d87/group__utils__i.html#ga2cd701fdf8284f1c4c85d3334d5072cf" target="_top" xlink:title="return_true">
<polygon fill="none" stroke="black" points="422.5,-8.5 422.5,-27.5 485.5,-27.5 485.5,-8.5 422.5,-8.5"/>
<text text-anchor="middle" x="454" y="-15.5" font-family="Helvetica,sans-Serif" font-size="10.00">return_true</text>
</a>
</g>
</g>
<!-- Node3&#45;&gt;Node5 -->
<g id="edge4" class="edge"><title>Node3&#45;&gt;Node5</title>
<path fill="none" stroke="midnightblue" d="M384.239,-28.8872C393.681,-27.3922 403.418,-25.8504 412.489,-24.4142"/>
<polygon fill="midnightblue" stroke="midnightblue" points="413.067,-27.8665 422.396,-22.8456 411.972,-20.9526 413.067,-27.8665"/>
</g>
<!-- Node6&#45;&gt;Node3 -->
<g id="edge6" class="edge"><title>Node6&#45;&gt;Node3</title>
<path fill="none" stroke="midnightblue" d="M244.386,-23.192C252.558,-24.4948 261.083,-25.8539 269.46,-27.1893"/>
<polygon fill="midnightblue" stroke="midnightblue" points="269.145,-30.6831 279.571,-28.8012 270.247,-23.7704 269.145,-30.6831"/>
</g>
</g>
</svg>
