<?xml version="1.0" encoding="UTF-8" standalone="no"?>
<!DOCTYPE svg PUBLIC "-//W3C//DTD SVG 1.1//EN"
 "http://www.w3.org/Graphics/SVG/1.1/DTD/svg11.dtd">
<!-- Generated by graphviz version 2.36.0 (20140111.2315)
 -->
<!-- Title: add_cert Pages: 1 -->
<!--zoomable 1040 -->
<svg id="main" version="1.1" xmlns="http://www.w3.org/2000/svg" xmlns:xlink="http://www.w3.org/1999/xlink" xml:space="preserve" onload="init(evt)">
<style type="text/css"><![CDATA[
.edge:hover path { stroke: red; }
.edge:hover polygon { stroke: red; fill: red; }
]]></style>
<script type="text/javascript"><![CDATA[
var edges = document.getElementsByTagName('g');
if (edges && edges.length) {
  for (var i=0;i<edges.length;i++) {
    if (edges[i].id.substr(0,4)=='edge') {
      edges[i].setAttribute('class','edge');
    }
  }
}
]]></script>
        <defs>
                <circle id="rim" cx="0" cy="0" r="7"/>
                <circle id="rim2" cx="0" cy="0" r="3.5"/>
                <g id="zoomPlus">
                        <use xlink:href="#rim" fill="#404040">
                                <set attributeName="fill" to="#808080" begin="zoomplus.mouseover" end="zoomplus.mouseout"/>
                        </use>
                        <path d="M-4,0h8M0,-4v8" fill="none" stroke="white" stroke-width="1.5" pointer-events="none"/>
                </g>
                <g id="zoomMin">
                        <use xlink:href="#rim" fill="#404040">
                                <set attributeName="fill" to="#808080" begin="zoomminus.mouseover" end="zoomminus.mouseout"/>
                        </use>
                        <path d="M-4,0h8" fill="none" stroke="white" stroke-width="1.5" pointer-events="none"/>
                </g>
                <g id="dirArrow">
                        <path fill="none" stroke="white" stroke-width="1.5" d="M0,-3.0v7 M-2.5,-0.5L0,-3.0L2.5,-0.5"/>
                </g>
               <g id="resetDef">
                       <use xlink:href="#rim2" fill="#404040">
                               <set attributeName="fill" to="#808080" begin="reset.mouseover" end="reset.mouseout"/>
                       </use>
               </g>
        </defs>

<script type="text/javascript">
var viewWidth = 940;
var viewHeight = 1040;
var sectionId = 'dynsection-4';
</script>
<script xlink:href="../../svgpan.js"/>
<svg id="graph" class="graph">
<g id="viewport">
<title>add_cert</title>
<!-- Node1 -->
<g id="node1" class="node"><title>Node1</title>
<polygon fill="#bfbfbf" stroke="black" points="0,-973.5 0,-992.5 54,-992.5 54,-973.5 0,-973.5"/>
<text text-anchor="middle" x="27" y="-980.5" font-family="Helvetica,sans-Serif" font-size="10.00">add_cert</text>
</g>
<!-- Node2 -->
<g id="node2" class="node"><title>Node2</title>
<g id="a_node2"><a xlink:href="../../db/d2f/openssl__pkcs12_8c.html#a07c75910518b9b8bbf938daac4fec01f" target="_top" xlink:title="add_cas">
<polygon fill="none" stroke="black" points="111.5,-1011.5 111.5,-1030.5 164.5,-1030.5 164.5,-1011.5 111.5,-1011.5"/>
<text text-anchor="middle" x="138" y="-1018.5" font-family="Helvetica,sans-Serif" font-size="10.00">add_cas</text>
</a>
</g>
</g>
<!-- Node1&#45;&gt;Node2 -->
<g id="edge1" class="edge"><title>Node1&#45;&gt;Node2</title>
<path fill="none" stroke="midnightblue" d="M63.9338,-995.527C79.483,-1000.95 97.322,-1007.17 111.481,-1012.1"/>
<polygon fill="midnightblue" stroke="midnightblue" points="64.703,-992.089 54.1082,-992.102 62.3987,-998.699 64.703,-992.089"/>
</g>
<!-- Node3 -->
<g id="node3" class="node"><title>Node3</title>
<g id="a_node3"><a xlink:href="../../db/d2f/openssl__pkcs12_8c.html#aece9d1e940cac933dfd672f1e815bc12" target="_top" xlink:title="decrypt_and_unpack">
<polygon fill="none" stroke="black" points="227.5,-1011.5 227.5,-1030.5 334.5,-1030.5 334.5,-1011.5 227.5,-1011.5"/>
<text text-anchor="middle" x="281" y="-1018.5" font-family="Helvetica,sans-Serif" font-size="10.00">decrypt_and_unpack</text>
</a>
</g>
</g>
<!-- Node1&#45;&gt;Node3 -->
<g id="edge5" class="edge"><title>Node1&#45;&gt;Node3</title>
<path fill="none" stroke="midnightblue" d="M64.3329,-986.537C96.4316,-989.86 144.461,-995.315 186,-1002 202.602,-1004.67 220.736,-1008.19 236.608,-1011.48"/>
<polygon fill="midnightblue" stroke="midnightblue" points="64.3937,-983.025 54.0904,-985.493 63.6839,-989.989 64.3937,-983.025"/>
</g>
<!-- Node6 -->
<g id="node6" class="node"><title>Node6</title>
<g id="a_node6"><a xlink:href="../../d8/d02/group__mem__cred.html#gaa52fd614922d5b94956113247f386f21" target="_top" xlink:title="mem_cred_create">
<polygon fill="none" stroke="black" points="90.5,-563.5 90.5,-582.5 185.5,-582.5 185.5,-563.5 90.5,-563.5"/>
<text text-anchor="middle" x="138" y="-570.5" font-family="Helvetica,sans-Serif" font-size="10.00">mem_cred_create</text>
</a>
</g>
</g>
<!-- Node1&#45;&gt;Node6 -->
<g id="edge6" class="edge"><title>Node1&#45;&gt;Node6</title>
<path fill="none" stroke="midnightblue" d="M33.1692,-963.556C52.5099,-890.807 120.222,-636.11 134.389,-582.821"/>
<polygon fill="midnightblue" stroke="midnightblue" points="29.7737,-962.706 30.5869,-973.27 36.5388,-964.504 29.7737,-962.706"/>
</g>
<!-- Node2&#45;&gt;Node3 -->
<g id="edge2" class="edge"><title>Node2&#45;&gt;Node3</title>
<path fill="none" stroke="midnightblue" d="M174.555,-1021C190.588,-1021 209.849,-1021 227.498,-1021"/>
<polygon fill="midnightblue" stroke="midnightblue" points="174.534,-1017.5 164.534,-1021 174.534,-1024.5 174.534,-1017.5"/>
</g>
<!-- Node4 -->
<g id="node4" class="node"><title>Node4</title>
<g id="a_node4"><a xlink:href="../../db/d2f/openssl__pkcs12_8c.html#ad71c88e9c14212fb97a3f7986ad8fc3d" target="_top" xlink:title="parse">
<polygon fill="none" stroke="black" points="419.5,-1012.5 419.5,-1031.5 460.5,-1031.5 460.5,-1012.5 419.5,-1012.5"/>
<text text-anchor="middle" x="440" y="-1019.5" font-family="Helvetica,sans-Serif" font-size="10.00">parse</text>
</a>
</g>
</g>
<!-- Node3&#45;&gt;Node4 -->
<g id="edge3" class="edge"><title>Node3&#45;&gt;Node4</title>
<path fill="none" stroke="midnightblue" d="M344.762,-1021.4C371.366,-1021.57 400.486,-1021.75 419.209,-1021.87"/>
<polygon fill="midnightblue" stroke="midnightblue" points="344.738,-1017.9 334.715,-1021.34 344.693,-1024.9 344.738,-1017.9"/>
</g>
<!-- Node5 -->
<g id="node5" class="node"><title>Node5</title>
<g id="a_node5"><a xlink:href="../../d6/db9/group__openssl__pkcs12.html#ga9e463000368134ee63aae30fbcb5a556" target="_top" xlink:title="openssl_pkcs12_load">
<polygon fill="none" stroke="red" points="540,-1012.5 540,-1031.5 650,-1031.5 650,-1012.5 540,-1012.5"/>
<text text-anchor="middle" x="595" y="-1019.5" font-family="Helvetica,sans-Serif" font-size="10.00">openssl_pkcs12_load</text>
</a>
</g>
</g>
<!-- Node4&#45;&gt;Node5 -->
<g id="edge4" class="edge"><title>Node4&#45;&gt;Node5</title>
<path fill="none" stroke="midnightblue" d="M470.836,-1022C490.435,-1022 516.647,-1022 539.852,-1022"/>
<polygon fill="midnightblue" stroke="midnightblue" points="470.689,-1018.5 460.689,-1022 470.689,-1025.5 470.689,-1018.5"/>
</g>
<!-- Node6&#45;&gt;Node4 -->
<g id="edge21" class="edge"><title>Node6&#45;&gt;Node4</title>
<path fill="none" stroke="midnightblue" d="M140.55,-593.259C146.482,-665.53 170.067,-909.294 222,-964 235.86,-978.601 368.555,-1007.39 419.353,-1017.97"/>
<polygon fill="midnightblue" stroke="midnightblue" points="144.004,-592.536 139.722,-582.845 137.026,-593.091 144.004,-592.536"/>
</g>
<!-- Node7 -->
<g id="node7" class="node"><title>Node7</title>
<g id="a_node7"><a xlink:href="../../d6/df5/group__cmd__creds.html#gaf523d95aeac2251d75499d2cc734ac7c" target="_top" xlink:title="cmd_creds_create">
<polygon fill="none" stroke="black" points="232.5,-819.5 232.5,-838.5 329.5,-838.5 329.5,-819.5 232.5,-819.5"/>
<text text-anchor="middle" x="281" y="-826.5" font-family="Helvetica,sans-Serif" font-size="10.00">cmd_creds_create</text>
</a>
</g>
</g>
<!-- Node6&#45;&gt;Node7 -->
<g id="edge7" class="edge"><title>Node6&#45;&gt;Node7</title>
<path fill="none" stroke="midnightblue" d="M140.547,-593.099C145.025,-637.628 161.819,-745.499 222,-807 227.197,-812.311 233.806,-816.357 240.689,-819.435"/>
<polygon fill="midnightblue" stroke="midnightblue" points="144.019,-592.629 139.637,-582.983 137.047,-593.256 144.019,-592.629"/>
</g>
<!-- Node9 -->
<g id="node9" class="node"><title>Node9</title>
<g id="a_node9"><a xlink:href="../../db/d3c/conftest_8c.html#a0ddf1224851353fc92bfbff6f499fa97" target="_top" xlink:title="main">
<polygon fill="none" stroke="black" points="262,-778.5 262,-797.5 300,-797.5 300,-778.5 262,-778.5"/>
<text text-anchor="middle" x="281" y="-785.5" font-family="Helvetica,sans-Serif" font-size="10.00">main</text>
</a>
</g>
</g>
<!-- Node6&#45;&gt;Node9 -->
<g id="edge9" class="edge"><title>Node6&#45;&gt;Node9</title>
<path fill="none" stroke="midnightblue" d="M141.836,-592.66C148.522,-631.863 168.9,-720.184 222,-769 232.921,-779.04 249.243,-783.781 261.793,-786.016"/>
<polygon fill="midnightblue" stroke="midnightblue" points="145.292,-592.102 140.268,-582.774 138.378,-593.199 145.292,-592.102"/>
</g>
<!-- Node10 -->
<g id="node10" class="node"><title>Node10</title>
<g id="a_node10"><a xlink:href="../../d8/dca/keychain__creds_8c.html#a97cf8b7bf3d8651cc36058c640bbbbb9" target="_top" xlink:title="load_certs">
<polygon fill="none" stroke="black" points="250,-740.5 250,-759.5 312,-759.5 312,-740.5 250,-740.5"/>
<text text-anchor="middle" x="281" y="-747.5" font-family="Helvetica,sans-Serif" font-size="10.00">load_certs</text>
</a>
</g>
</g>
<!-- Node6&#45;&gt;Node10 -->
<g id="edge10" class="edge"><title>Node6&#45;&gt;Node10</title>
<path fill="none" stroke="midnightblue" d="M144.941,-592.398C155.562,-624.119 180.649,-687.32 222,-725 229.862,-732.164 240.093,-737.488 249.769,-741.338"/>
<polygon fill="midnightblue" stroke="midnightblue" points="148.178,-591.033 141.784,-582.585 141.514,-593.176 148.178,-591.033"/>
</g>
<!-- Node13 -->
<g id="node13" class="node"><title>Node13</title>
<g id="a_node13"><a xlink:href="../../db/d5d/load__creds_8c.html#a1873eb038b74c2a08385fbd0e6d7a59a" target="_top" xlink:title="decrypt">
<polygon fill="none" stroke="black" points="256.5,-696.5 256.5,-715.5 305.5,-715.5 305.5,-696.5 256.5,-696.5"/>
<text text-anchor="middle" x="281" y="-703.5" font-family="Helvetica,sans-Serif" font-size="10.00">decrypt</text>
</a>
</g>
</g>
<!-- Node6&#45;&gt;Node13 -->
<g id="edge13" class="edge"><title>Node6&#45;&gt;Node13</title>
<path fill="none" stroke="midnightblue" d="M147.898,-591.73C160.798,-616.94 187.029,-661.554 222,-687 232.11,-694.356 245.223,-698.968 256.422,-701.802"/>
<polygon fill="midnightblue" stroke="midnightblue" points="150.91,-589.925 143.337,-582.516 144.637,-593.031 150.91,-589.925"/>
</g>
<!-- Node16 -->
<g id="node16" class="node"><title>Node16</title>
<g id="a_node16"><a xlink:href="../../db/d5d/load__creds_8c.html#a5a41625a83be27b1ab59659e65719225" target="_top" xlink:title="decrypt_with_config">
<polygon fill="none" stroke="black" points="229,-658.5 229,-677.5 333,-677.5 333,-658.5 229,-658.5"/>
<text text-anchor="middle" x="281" y="-665.5" font-family="Helvetica,sans-Serif" font-size="10.00">decrypt_with_config</text>
</a>
</g>
</g>
<!-- Node6&#45;&gt;Node16 -->
<g id="edge16" class="edge"><title>Node6&#45;&gt;Node16</title>
<path fill="none" stroke="midnightblue" d="M153.673,-590.167C169.111,-607.254 194.893,-633.155 222,-649 228.403,-652.743 235.641,-655.86 242.779,-658.413"/>
<polygon fill="midnightblue" stroke="midnightblue" points="156.207,-587.748 146.964,-582.569 150.96,-592.382 156.207,-587.748"/>
</g>
<!-- Node17 -->
<g id="node17" class="node"><title>Node17</title>
<g id="a_node17"><a xlink:href="../../de/db6/group__maemo__service.html#ga5cb3c1b04ae398aede987915e69315f3" target="_top" xlink:title="maemo_service_create">
<polygon fill="none" stroke="black" points="222,-620.5 222,-639.5 340,-639.5 340,-620.5 222,-620.5"/>
<text text-anchor="middle" x="281" y="-627.5" font-family="Helvetica,sans-Serif" font-size="10.00">maemo_service_create</text>
</a>
</g>
</g>
<!-- Node6&#45;&gt;Node17 -->
<g id="edge19" class="edge"><title>Node6&#45;&gt;Node17</title>
<path fill="none" stroke="midnightblue" d="M167.448,-586.989C183.315,-594.546 203.545,-603.779 222,-611 230.585,-614.359 240.033,-617.629 248.767,-620.483"/>
<polygon fill="midnightblue" stroke="midnightblue" points="168.716,-583.715 158.188,-582.533 165.682,-590.023 168.716,-583.715"/>
</g>
<!-- Node19 -->
<g id="node19" class="node"><title>Node19</title>
<g id="a_node19"><a xlink:href="../../d3/d76/pkcs12__decode_8c.html#a492cdbc59c8b89fa92269b2ce1c02a29" target="_top" xlink:title="pkcs12_create">
<polygon fill="none" stroke="black" points="241,-582.5 241,-601.5 321,-601.5 321,-582.5 241,-582.5"/>
<text text-anchor="middle" x="281" y="-589.5" font-family="Helvetica,sans-Serif" font-size="10.00">pkcs12_create</text>
</a>
</g>
</g>
<!-- Node6&#45;&gt;Node19 -->
<g id="edge22" class="edge"><title>Node6&#45;&gt;Node19</title>
<path fill="none" stroke="midnightblue" d="M195.785,-580.652C210.805,-582.676 226.69,-584.816 240.567,-586.686"/>
<polygon fill="midnightblue" stroke="midnightblue" points="195.937,-577.141 185.559,-579.274 195.002,-584.078 195.937,-577.141"/>
</g>
<!-- Node21 -->
<g id="node21" class="node"><title>Node21</title>
<g id="a_node21"><a xlink:href="../../d2/da7/pkcs7_8c.html#ab763107b1bc0b922fcbe50050d244de0" target="_top" xlink:title="pkcs7">
<polygon fill="none" stroke="black" points="259.5,-544.5 259.5,-563.5 302.5,-563.5 302.5,-544.5 259.5,-544.5"/>
<text text-anchor="middle" x="281" y="-551.5" font-family="Helvetica,sans-Serif" font-size="10.00">pkcs7</text>
</a>
</g>
</g>
<!-- Node6&#45;&gt;Node21 -->
<g id="edge24" class="edge"><title>Node6&#45;&gt;Node21</title>
<path fill="none" stroke="midnightblue" d="M195.738,-565.354C218.266,-562.319 242.745,-559.02 259.483,-556.765"/>
<polygon fill="midnightblue" stroke="midnightblue" points="195.002,-561.922 185.559,-566.726 195.937,-568.859 195.002,-561.922"/>
</g>
<!-- Node25 -->
<g id="node25" class="node"><title>Node25</title>
<g id="a_node25"><a xlink:href="../../dd/da3/pkcs7__signed__data_8c.html#aed4b49034efddc0d5a9af076dc7950f4" target="_top" xlink:title="create_empty">
<polygon fill="none" stroke="black" points="243,-468.5 243,-487.5 319,-487.5 319,-468.5 243,-468.5"/>
<text text-anchor="middle" x="281" y="-475.5" font-family="Helvetica,sans-Serif" font-size="10.00">create_empty</text>
</a>
</g>
</g>
<!-- Node6&#45;&gt;Node25 -->
<g id="edge30" class="edge"><title>Node6&#45;&gt;Node25</title>
<path fill="none" stroke="midnightblue" d="M161.669,-557.726C190.976,-537.981 241.149,-504.176 265.666,-487.657"/>
<polygon fill="midnightblue" stroke="midnightblue" points="159.633,-554.878 153.296,-563.368 163.545,-560.683 159.633,-554.878"/>
</g>
<!-- Node28 -->
<g id="node28" class="node"><title>Node28</title>
<g id="a_node28"><a xlink:href="../../d8/d74/pki_8c.html#adfa51995e2623d7b0bfcd4dde7f4fea7" target="_top" xlink:title="add_callback">
<polygon fill="none" stroke="black" points="244,-425.5 244,-444.5 318,-444.5 318,-425.5 244,-425.5"/>
<text text-anchor="middle" x="281" y="-432.5" font-family="Helvetica,sans-Serif" font-size="10.00">add_callback</text>
</a>
</g>
</g>
<!-- Node6&#45;&gt;Node28 -->
<g id="edge33" class="edge"><title>Node6&#45;&gt;Node28</title>
<path fill="none" stroke="midnightblue" d="M148.381,-554.275C161.676,-529.431 188.186,-485.619 222,-459 229.706,-452.933 239.163,-448.166 248.186,-444.534"/>
<polygon fill="midnightblue" stroke="midnightblue" points="145.161,-552.882 143.655,-563.369 151.372,-556.11 145.161,-552.882"/>
</g>
<!-- Node30 -->
<g id="node30" class="node"><title>Node30</title>
<g id="a_node30"><a xlink:href="../../d7/d9b/pt-tls-client_8c.html#aedc913c139bb562646d3459b0ca28997" target="_top" xlink:title="init">
<polygon fill="none" stroke="black" points="266.5,-376.5 266.5,-395.5 295.5,-395.5 295.5,-376.5 266.5,-376.5"/>
<text text-anchor="middle" x="281" y="-383.5" font-family="Helvetica,sans-Serif" font-size="10.00">init</text>
</a>
</g>
</g>
<!-- Node6&#45;&gt;Node30 -->
<g id="edge35" class="edge"><title>Node6&#45;&gt;Node30</title>
<path fill="none" stroke="midnightblue" d="M144.935,-553.712C155.672,-521.564 181.077,-456.558 222,-416 234.561,-403.551 253.351,-395.134 266.114,-390.458"/>
<polygon fill="midnightblue" stroke="midnightblue" points="141.591,-552.681 141.856,-563.272 148.253,-554.827 141.591,-552.681"/>
</g>
<!-- Node32 -->
<g id="node32" class="node"><title>Node32</title>
<g id="a_node32"><a xlink:href="../../d7/d5f/group__pts__creds.html#gae4dfd4b4da60e98a2e36a4e627750460" target="_top" xlink:title="pts_creds_create">
<polygon fill="none" stroke="black" points="235,-316.5 235,-335.5 327,-335.5 327,-316.5 235,-316.5"/>
<text text-anchor="middle" x="281" y="-323.5" font-family="Helvetica,sans-Serif" font-size="10.00">pts_creds_create</text>
</a>
</g>
</g>
<!-- Node6&#45;&gt;Node32 -->
<g id="edge37" class="edge"><title>Node6&#45;&gt;Node32</title>
<path fill="none" stroke="midnightblue" d="M142.977,-553.394C151.668,-514.421 175.409,-425.901 222,-367 232.557,-353.654 248.587,-342.782 261.121,-335.596"/>
<polygon fill="midnightblue" stroke="midnightblue" points="139.503,-552.9 140.836,-563.411 146.349,-554.363 139.503,-552.9"/>
</g>
<!-- Node34 -->
<g id="node34" class="node"><title>Node34</title>
<g id="a_node34"><a xlink:href="../../d8/db1/stroke__cred_8c.html#a25593b326e244c6344a53cc2c19d5360" target="_top" xlink:title="load_pin">
<polygon fill="none" stroke="black" points="254.5,-114.5 254.5,-133.5 307.5,-133.5 307.5,-114.5 254.5,-114.5"/>
<text text-anchor="middle" x="281" y="-121.5" font-family="Helvetica,sans-Serif" font-size="10.00">load_pin</text>
</a>
</g>
</g>
<!-- Node6&#45;&gt;Node34 -->
<g id="edge39" class="edge"><title>Node6&#45;&gt;Node34</title>
<path fill="none" stroke="midnightblue" d="M140.414,-553.178C146.138,-478.039 169.817,-211.787 222,-148 230.073,-138.131 242.882,-132.27 254.411,-128.815"/>
<polygon fill="midnightblue" stroke="midnightblue" points="136.922,-552.954 139.674,-563.186 143.902,-553.471 136.922,-552.954"/>
</g>
<!-- Node35 -->
<g id="node35" class="node"><title>Node35</title>
<g id="a_node35"><a xlink:href="../../d8/db1/stroke__cred_8c.html#a5d1f52721e54438ad930da40c5c991d7" target="_top" xlink:title="load_secrets">
<polygon fill="none" stroke="black" points="559,-171.5 559,-190.5 631,-190.5 631,-171.5 559,-171.5"/>
<text text-anchor="middle" x="595" y="-178.5" font-family="Helvetica,sans-Serif" font-size="10.00">load_secrets</text>
</a>
</g>
</g>
<!-- Node6&#45;&gt;Node35 -->
<g id="edge49" class="edge"><title>Node6&#45;&gt;Node35</title>
<path fill="none" stroke="midnightblue" d="M140.935,-553.328C147.933,-486.177 174.073,-267.487 222,-219 312.134,-127.813 484.604,-154.707 558.722,-171.761"/>
<polygon fill="midnightblue" stroke="midnightblue" points="137.441,-553.096 139.912,-563.398 144.405,-553.803 137.441,-553.096"/>
</g>
<!-- Node36 -->
<g id="node36" class="node"><title>Node36</title>
<g id="a_node36"><a xlink:href="../../d8/db1/stroke__cred_8c.html#ac707a0aa93f26613e2ae29b1970c4798" target="_top" xlink:title="METHOD">
<polygon fill="none" stroke="black" points="706,-228.5 706,-247.5 766,-247.5 766,-228.5 706,-228.5"/>
<text text-anchor="middle" x="736" y="-235.5" font-family="Helvetica,sans-Serif" font-size="10.00">METHOD</text>
</a>
</g>
</g>
<!-- Node6&#45;&gt;Node36 -->
<g id="edge50" class="edge"><title>Node6&#45;&gt;Node36</title>
<path fill="none" stroke="midnightblue" d="M138.546,-553.173C138.578,-503.097 146.204,-370.975 222,-307 259.298,-275.519 602.743,-247.777 705.86,-240.1"/>
<polygon fill="midnightblue" stroke="midnightblue" points="135.048,-553.346 138.649,-563.31 142.048,-553.275 135.048,-553.346"/>
</g>
<!-- Node37 -->
<g id="node37" class="node"><title>Node37</title>
<g id="a_node37"><a xlink:href="../../d4/ddf/group__stroke__cred.html#ga54afc73bedd2dda57cfbeb130062849a" target="_top" xlink:title="stroke_cred_create">
<polygon fill="none" stroke="black" points="686,-114.5 686,-133.5 786,-133.5 786,-114.5 686,-114.5"/>
<text text-anchor="middle" x="736" y="-121.5" font-family="Helvetica,sans-Serif" font-size="10.00">stroke_cred_create</text>
</a>
</g>
</g>
<!-- Node6&#45;&gt;Node37 -->
<g id="edge51" class="edge"><title>Node6&#45;&gt;Node37</title>
<path fill="none" stroke="midnightblue" d="M139.298,-553.103C140.976,-471.465 151.931,-163.736 222,-105 291.326,-46.8876 573.279,-92.885 687.054,-114.422"/>
<polygon fill="midnightblue" stroke="midnightblue" points="135.792,-553.389 139.111,-563.451 142.791,-553.516 135.792,-553.389"/>
</g>
<!-- Node39 -->
<g id="node39" class="node"><title>Node39</title>
<g id="a_node39"><a xlink:href="../../d8/db1/stroke__cred_8c.html#a1c686fad0afe47de7728fd35b0faa3a7" target="_top" xlink:title="load_from_file">
<polygon fill="none" stroke="black" points="242.5,-228.5 242.5,-247.5 319.5,-247.5 319.5,-228.5 242.5,-228.5"/>
<text text-anchor="middle" x="281" y="-235.5" font-family="Helvetica,sans-Serif" font-size="10.00">load_from_file</text>
</a>
</g>
</g>
<!-- Node6&#45;&gt;Node39 -->
<g id="edge44" class="edge"><title>Node6&#45;&gt;Node39</title>
<path fill="none" stroke="midnightblue" d="M138.579,-552.968C138.526,-499.062 145.649,-349.117 222,-262 227.531,-255.69 234.981,-251.004 242.697,-247.537"/>
<polygon fill="midnightblue" stroke="midnightblue" points="135.081,-553.257 138.682,-563.221 142.081,-553.186 135.081,-553.257"/>
</g>
<!-- Node42 -->
<g id="node42" class="node"><title>Node42</title>
<g id="a_node42"><a xlink:href="../../d4/dd4/test__certnames_8c.html#a1f1928754c4492432f20e484ece5959f" target="_top" xlink:title="START_SETUP">
<polygon fill="none" stroke="black" points="236.5,-38.5 236.5,-57.5 325.5,-57.5 325.5,-38.5 236.5,-38.5"/>
<text text-anchor="middle" x="281" y="-45.5" font-family="Helvetica,sans-Serif" font-size="10.00">START_SETUP</text>
</a>
</g>
</g>
<!-- Node6&#45;&gt;Node42 -->
<g id="edge52" class="edge"><title>Node6&#45;&gt;Node42</title>
<path fill="none" stroke="midnightblue" d="M139.779,-552.954C143.405,-469.274 161.112,-148.646 222,-72 227.016,-65.6858 233.978,-61.0166 241.343,-57.569"/>
<polygon fill="midnightblue" stroke="midnightblue" points="136.274,-553.002 139.358,-563.139 143.268,-553.292 136.274,-553.002"/>
</g>
<!-- Node43 -->
<g id="node43" class="node"><title>Node43</title>
<g id="a_node43"><a xlink:href="../../de/d43/group__tkm-credential.html#ga0c165682888cb30380337e0911ef8f1e" target="_top" xlink:title="tkm_cred_create">
<polygon fill="none" stroke="black" points="236.5,-0.5 236.5,-19.5 325.5,-19.5 325.5,-0.5 236.5,-0.5"/>
<text text-anchor="middle" x="281" y="-7.5" font-family="Helvetica,sans-Serif" font-size="10.00">tkm_cred_create</text>
</a>
</g>
</g>
<!-- Node6&#45;&gt;Node43 -->
<g id="edge53" class="edge"><title>Node6&#45;&gt;Node43</title>
<path fill="none" stroke="midnightblue" d="M139.332,-553.093C141.194,-464.944 152.931,-110.534 222,-29 225.904,-24.3916 230.945,-20.8934 236.423,-18.2395"/>
<polygon fill="midnightblue" stroke="midnightblue" points="135.832,-553.039 139.14,-563.104 142.831,-553.173 135.832,-553.039"/>
</g>
<!-- Node45 -->
<g id="node45" class="node"><title>Node45</title>
<g id="a_node45"><a xlink:href="../../df/df9/group__tnc__ifmap__soap.html#ga010bdf08f257b1a09b98af95e1c0fcb0" target="_top" xlink:title="tnc_ifmap_soap_create">
<polygon fill="none" stroke="black" points="222,-935.5 222,-954.5 340,-954.5 340,-935.5 222,-935.5"/>
<text text-anchor="middle" x="281" y="-942.5" font-family="Helvetica,sans-Serif" font-size="10.00">tnc_ifmap_soap_create</text>
</a>
</g>
</g>
<!-- Node6&#45;&gt;Node45 -->
<g id="edge55" class="edge"><title>Node6&#45;&gt;Node45</title>
<path fill="none" stroke="midnightblue" d="M141.078,-592.489C148.543,-659.033 176.023,-875.907 222,-926 225.582,-929.903 229.978,-933.006 234.732,-935.473"/>
<polygon fill="midnightblue" stroke="midnightblue" points="144.553,-592.07 139.984,-582.511 137.595,-592.833 144.553,-592.07"/>
</g>
<!-- Node47 -->
<g id="node47" class="node"><title>Node47</title>
<g id="a_node47"><a xlink:href="../../db/df6/verify_8c.html#afe502ce4bb6d6c49b6b0a5a8a1b81c0e" target="_top" xlink:title="verify">
<polygon fill="none" stroke="black" points="260.5,-897.5 260.5,-916.5 301.5,-916.5 301.5,-897.5 260.5,-897.5"/>
<text text-anchor="middle" x="281" y="-904.5" font-family="Helvetica,sans-Serif" font-size="10.00">verify</text>
</a>
</g>
</g>
<!-- Node6&#45;&gt;Node47 -->
<g id="edge57" class="edge"><title>Node6&#45;&gt;Node47</title>
<path fill="none" stroke="midnightblue" d="M138.244,-592.764C137.265,-647.205 142.104,-800.993 222,-887 231.931,-897.691 247.844,-902.667 260.492,-904.983"/>
<polygon fill="midnightblue" stroke="midnightblue" points="141.744,-592.807 138.516,-582.715 134.746,-592.617 141.744,-592.807"/>
</g>
<!-- Node49 -->
<g id="node49" class="node"><title>Node49</title>
<g id="a_node49"><a xlink:href="../../d3/d36/group__vici__cred.html#ga8807ffbe245c0baad9d247fbca5e5537" target="_top" xlink:title="vici_cred_create">
<polygon fill="none" stroke="black" points="237,-858.5 237,-877.5 325,-877.5 325,-858.5 237,-858.5"/>
<text text-anchor="middle" x="281" y="-865.5" font-family="Helvetica,sans-Serif" font-size="10.00">vici_cred_create</text>
</a>
</g>
</g>
<!-- Node6&#45;&gt;Node49 -->
<g id="edge59" class="edge"><title>Node6&#45;&gt;Node49</title>
<path fill="none" stroke="midnightblue" d="M139.131,-592.6C140.536,-642.26 151.12,-774.306 222,-848 226.209,-852.376 231.419,-855.794 236.975,-858.465"/>
<polygon fill="midnightblue" stroke="midnightblue" points="142.63,-592.495 138.946,-582.561 135.631,-592.624 142.63,-592.495"/>
</g>
<!-- Node8 -->
<g id="node8" class="node"><title>Node8</title>
<g id="a_node8"><a xlink:href="../../d6/d89/charon-cmd_8c.html#a0ddf1224851353fc92bfbff6f499fa97" target="_top" xlink:title="main">
<polygon fill="none" stroke="black" points="421,-848.5 421,-867.5 459,-867.5 459,-848.5 421,-848.5"/>
<text text-anchor="middle" x="440" y="-855.5" font-family="Helvetica,sans-Serif" font-size="10.00">main</text>
</a>
</g>
</g>
<!-- Node7&#45;&gt;Node8 -->
<g id="edge8" class="edge"><title>Node7&#45;&gt;Node8</title>
<path fill="none" stroke="midnightblue" d="M339.464,-839.614C368.098,-844.903 400.764,-850.937 420.627,-854.606"/>
<polygon fill="midnightblue" stroke="midnightblue" points="340.001,-836.154 329.531,-837.78 338.729,-843.038 340.001,-836.154"/>
</g>
<!-- Node11 -->
<g id="node11" class="node"><title>Node11</title>
<g id="a_node11"><a xlink:href="../../d8/dca/keychain__creds_8c.html#aea96da5aece6abfba5a505b17075d194" target="_top" xlink:title="keychain_cb">
<polygon fill="none" stroke="red" points="404.5,-772.5 404.5,-791.5 475.5,-791.5 475.5,-772.5 404.5,-772.5"/>
<text text-anchor="middle" x="440" y="-779.5" font-family="Helvetica,sans-Serif" font-size="10.00">keychain_cb</text>
</a>
</g>
</g>
<!-- Node10&#45;&gt;Node11 -->
<g id="edge11" class="edge"><title>Node10&#45;&gt;Node11</title>
<path fill="none" stroke="midnightblue" d="M322.335,-758.221C347.75,-763.401 380.22,-770.019 404.449,-774.958"/>
<polygon fill="midnightblue" stroke="midnightblue" points="322.769,-754.738 312.271,-756.17 321.371,-761.597 322.769,-754.738"/>
</g>
<!-- Node12 -->
<g id="node12" class="node"><title>Node12</title>
<g id="a_node12"><a xlink:href="../../da/d56/group__keychain__creds.html#gae68f1bfe4dd04c738de1337f3cc9d12c" target="_top" xlink:title="keychain_creds_create">
<polygon fill="none" stroke="red" points="381.5,-810.5 381.5,-829.5 498.5,-829.5 498.5,-810.5 381.5,-810.5"/>
<text text-anchor="middle" x="440" y="-817.5" font-family="Helvetica,sans-Serif" font-size="10.00">keychain_creds_create</text>
</a>
</g>
</g>
<!-- Node10&#45;&gt;Node12 -->
<g id="edge12" class="edge"><title>Node10&#45;&gt;Node12</title>
<path fill="none" stroke="midnightblue" d="M321.926,-760.668C328.163,-763.012 334.393,-765.778 340,-769 358.561,-779.667 357.315,-790.554 376,-801 382.781,-804.791 390.404,-807.908 397.944,-810.443"/>
<polygon fill="midnightblue" stroke="midnightblue" points="322.801,-757.268 312.207,-757.328 320.526,-763.888 322.801,-757.268"/>
</g>
<!-- Node14 -->
<g id="node14" class="node"><title>Node14</title>
<g id="a_node14"><a xlink:href="../../db/d5d/load__creds_8c.html#a9a9929bf5e89ec07ca618fadc671c69a" target="_top" xlink:title="load_encrypted_container">
<polygon fill="none" stroke="red" points="376,-696.5 376,-715.5 504,-715.5 504,-696.5 376,-696.5"/>
<text text-anchor="middle" x="440" y="-703.5" font-family="Helvetica,sans-Serif" font-size="10.00">load_encrypted_container</text>
</a>
</g>
</g>
<!-- Node13&#45;&gt;Node14 -->
<g id="edge14" class="edge"><title>Node13&#45;&gt;Node14</title>
<path fill="none" stroke="midnightblue" d="M315.804,-706C333.36,-706 355.389,-706 375.946,-706"/>
<polygon fill="midnightblue" stroke="midnightblue" points="315.505,-702.5 305.504,-706 315.504,-709.5 315.505,-702.5"/>
</g>
<!-- Node15 -->
<g id="node15" class="node"><title>Node15</title>
<g id="a_node15"><a xlink:href="../../db/d5d/load__creds_8c.html#ac6294ae6dda10054629994f04a2089bd" target="_top" xlink:title="load_encrypted_key">
<polygon fill="none" stroke="red" points="388,-734.5 388,-753.5 492,-753.5 492,-734.5 388,-734.5"/>
<text text-anchor="middle" x="440" y="-741.5" font-family="Helvetica,sans-Serif" font-size="10.00">load_encrypted_key</text>
</a>
</g>
</g>
<!-- Node13&#45;&gt;Node15 -->
<g id="edge15" class="edge"><title>Node13&#45;&gt;Node15</title>
<path fill="none" stroke="midnightblue" d="M315.449,-714.096C340.04,-720.048 373.547,-728.158 399.463,-734.431"/>
<polygon fill="midnightblue" stroke="midnightblue" points="316.047,-710.64 305.504,-711.689 314.4,-717.443 316.047,-710.64"/>
</g>
<!-- Node16&#45;&gt;Node14 -->
<g id="edge17" class="edge"><title>Node16&#45;&gt;Node14</title>
<path fill="none" stroke="midnightblue" d="M331.447,-679.968C353.448,-685.293 378.994,-691.476 399.667,-696.48"/>
<polygon fill="midnightblue" stroke="midnightblue" points="332.16,-676.54 321.618,-677.589 330.514,-683.343 332.16,-676.54"/>
</g>
<!-- Node16&#45;&gt;Node15 -->
<g id="edge18" class="edge"><title>Node16&#45;&gt;Node15</title>
<path fill="none" stroke="midnightblue" d="M329.862,-681.513C333.392,-683.158 336.814,-684.982 340,-687 359.655,-699.446 356.199,-712.787 376,-725 382.223,-728.838 389.272,-731.945 396.345,-734.446"/>
<polygon fill="midnightblue" stroke="midnightblue" points="330.931,-678.168 320.353,-677.566 328.248,-684.633 330.931,-678.168"/>
</g>
<!-- Node18 -->
<g id="node18" class="node"><title>Node18</title>
<g id="a_node18"><a xlink:href="../../de/de7/maemo__plugin_8c.html#aff85d9216486861411d4ed5871ceca10" target="_top" xlink:title="maemo_plugin_create">
<polygon fill="none" stroke="black" points="384,-658.5 384,-677.5 496,-677.5 496,-658.5 384,-658.5"/>
<text text-anchor="middle" x="440" y="-665.5" font-family="Helvetica,sans-Serif" font-size="10.00">maemo_plugin_create</text>
</a>
</g>
</g>
<!-- Node17&#45;&gt;Node18 -->
<g id="edge20" class="edge"><title>Node17&#45;&gt;Node18</title>
<path fill="none" stroke="midnightblue" d="M331.447,-641.968C353.448,-647.293 378.994,-653.476 399.667,-658.48"/>
<polygon fill="midnightblue" stroke="midnightblue" points="332.16,-638.54 321.618,-639.589 330.514,-645.343 332.16,-638.54"/>
</g>
<!-- Node20 -->
<g id="node20" class="node"><title>Node20</title>
<g id="a_node20"><a xlink:href="../../d2/dde/group__pkcs12__decode.html#gad53b3e136737a5e831123d1ee048a5e0" target="_top" xlink:title="pkcs12_decode">
<polygon fill="none" stroke="red" points="397.5,-620.5 397.5,-639.5 482.5,-639.5 482.5,-620.5 397.5,-620.5"/>
<text text-anchor="middle" x="440" y="-627.5" font-family="Helvetica,sans-Serif" font-size="10.00">pkcs12_decode</text>
</a>
</g>
</g>
<!-- Node19&#45;&gt;Node20 -->
<g id="edge23" class="edge"><title>Node19&#45;&gt;Node20</title>
<path fill="none" stroke="midnightblue" d="M331.084,-603.88C353.194,-609.232 378.943,-615.464 399.743,-620.498"/>
<polygon fill="midnightblue" stroke="midnightblue" points="331.755,-600.442 321.213,-601.491 330.109,-607.245 331.755,-600.442"/>
</g>
<!-- Node22 -->
<g id="node22" class="node"><title>Node22</title>
<g id="a_node22"><a xlink:href="../../d2/da7/pkcs7_8c.html#ae32381cd130d485b02c534116e5becf2" target="_top" xlink:title="verify">
<polygon fill="none" stroke="black" points="419.5,-582.5 419.5,-601.5 460.5,-601.5 460.5,-582.5 419.5,-582.5"/>
<text text-anchor="middle" x="440" y="-589.5" font-family="Helvetica,sans-Serif" font-size="10.00">verify</text>
</a>
</g>
</g>
<!-- Node21&#45;&gt;Node22 -->
<g id="edge25" class="edge"><title>Node21&#45;&gt;Node22</title>
<path fill="none" stroke="midnightblue" d="M312.551,-555.919C344.18,-561.632 392.645,-573.64 419.458,-582.629"/>
<polygon fill="midnightblue" stroke="midnightblue" points="312.966,-552.44 302.525,-554.237 311.808,-559.344 312.966,-552.44"/>
</g>
<!-- Node23 -->
<g id="node23" class="node"><title>Node23</title>
<g id="a_node23"><a xlink:href="../../d2/da7/pkcs7_8c.html#a04caae95fc7e9350cfe0e6be8744f6e8" target="_top" xlink:title="show">
<polygon fill="none" stroke="black" points="420,-544.5 420,-563.5 460,-563.5 460,-544.5 420,-544.5"/>
<text text-anchor="middle" x="440" y="-551.5" font-family="Helvetica,sans-Serif" font-size="10.00">show</text>
</a>
</g>
</g>
<!-- Node21&#45;&gt;Node23 -->
<g id="edge27" class="edge"><title>Node21&#45;&gt;Node23</title>
<path fill="none" stroke="midnightblue" d="M312.609,-548.521C344.433,-546.57 393.251,-546.865 419.945,-549.404"/>
<polygon fill="midnightblue" stroke="midnightblue" points="312.239,-545.039 302.525,-549.269 312.756,-552.02 312.239,-545.039"/>
</g>
<!-- Node24 -->
<g id="node24" class="node"><title>Node24</title>
<g id="a_node24"><a xlink:href="../../d2/da7/pkcs7_8c.html#a1a70bc9ff30788fe7ceeb823942615c8" target="_top" xlink:title="__attribute__">
<polygon fill="none" stroke="black" points="403.5,-506.5 403.5,-525.5 476.5,-525.5 476.5,-506.5 403.5,-506.5"/>
<text text-anchor="middle" x="440" y="-513.5" font-family="Helvetica,sans-Serif" font-size="10.00">__attribute__</text>
</a>
</g>
</g>
<!-- Node21&#45;&gt;Node24 -->
<g id="edge29" class="edge"><title>Node21&#45;&gt;Node24</title>
<path fill="none" stroke="midnightblue" d="M312.587,-546.597C338.636,-540.292 376.084,-531.228 403.46,-524.602"/>
<polygon fill="midnightblue" stroke="midnightblue" points="311.421,-543.278 302.525,-549.032 313.068,-550.081 311.421,-543.278"/>
</g>
<!-- Node22&#45;&gt;Node21 -->
<g id="edge26" class="edge"><title>Node22&#45;&gt;Node21</title>
<path fill="none" stroke="midnightblue" d="M409.459,-590.262C378.114,-584.671 329.437,-572.652 302.204,-563.592"/>
<polygon fill="midnightblue" stroke="midnightblue" points="408.931,-593.722 419.368,-591.898 410.072,-586.816 408.931,-593.722"/>
</g>
<!-- Node23&#45;&gt;Node21 -->
<g id="edge28" class="edge"><title>Node23&#45;&gt;Node21</title>
<path fill="none" stroke="midnightblue" d="M409.693,-559.397C378.48,-561.401 329.887,-561.179 302.525,-558.731"/>
<polygon fill="midnightblue" stroke="midnightblue" points="410.248,-562.865 419.945,-558.596 409.702,-555.886 410.248,-562.865"/>
</g>
<!-- Node26 -->
<g id="node26" class="node"><title>Node26</title>
<g id="a_node26"><a xlink:href="../../d9/d41/group__pkcs7__signed__data.html#ga1a3c4546ec0078694cb1dfd204af0edd" target="_top" xlink:title="pkcs7_signed_data_load">
<polygon fill="none" stroke="red" points="378,-430.5 378,-449.5 502,-449.5 502,-430.5 378,-430.5"/>
<text text-anchor="middle" x="440" y="-437.5" font-family="Helvetica,sans-Serif" font-size="10.00">pkcs7_signed_data_load</text>
</a>
</g>
</g>
<!-- Node25&#45;&gt;Node26 -->
<g id="edge31" class="edge"><title>Node25&#45;&gt;Node26</title>
<path fill="none" stroke="midnightblue" d="M329.208,-466.574C351.673,-461.136 378.227,-454.709 399.593,-449.538"/>
<polygon fill="midnightblue" stroke="midnightblue" points="328.103,-463.24 319.207,-468.995 329.75,-470.044 328.103,-463.24"/>
</g>
<!-- Node27 -->
<g id="node27" class="node"><title>Node27</title>
<g id="a_node27"><a xlink:href="../../d9/d41/group__pkcs7__signed__data.html#ga60fa9831a4d09c66f9c8bfbaefdc1fc3" target="_top" xlink:title="pkcs7_signed_data_gen">
<polygon fill="none" stroke="red" points="379,-468.5 379,-487.5 501,-487.5 501,-468.5 379,-468.5"/>
<text text-anchor="middle" x="440" y="-475.5" font-family="Helvetica,sans-Serif" font-size="10.00">pkcs7_signed_data_gen</text>
</a>
</g>
</g>
<!-- Node25&#45;&gt;Node27 -->
<g id="edge32" class="edge"><title>Node25&#45;&gt;Node27</title>
<path fill="none" stroke="midnightblue" d="M329.583,-478C345.066,-478 362.458,-478 378.742,-478"/>
<polygon fill="midnightblue" stroke="midnightblue" points="329.207,-474.5 319.207,-478 329.207,-481.5 329.207,-474.5"/>
</g>
<!-- Node29 -->
<g id="node29" class="node"><title>Node29</title>
<g id="a_node29"><a xlink:href="../../d8/d74/pki_8c.html#a0ddf1224851353fc92bfbff6f499fa97" target="_top" xlink:title="main">
<polygon fill="none" stroke="black" points="421,-392.5 421,-411.5 459,-411.5 459,-392.5 421,-392.5"/>
<text text-anchor="middle" x="440" y="-399.5" font-family="Helvetica,sans-Serif" font-size="10.00">main</text>
</a>
</g>
</g>
<!-- Node28&#45;&gt;Node29 -->
<g id="edge34" class="edge"><title>Node28&#45;&gt;Node29</title>
<path fill="none" stroke="midnightblue" d="M328.166,-425.296C359.111,-418.792 398.179,-410.58 420.703,-405.846"/>
<polygon fill="midnightblue" stroke="midnightblue" points="327.085,-421.947 318.019,-427.429 328.525,-428.797 327.085,-421.947"/>
</g>
<!-- Node31 -->
<g id="node31" class="node"><title>Node31</title>
<g id="a_node31"><a xlink:href="../../d7/d9b/pt-tls-client_8c.html#a0ddf1224851353fc92bfbff6f499fa97" target="_top" xlink:title="main">
<polygon fill="none" stroke="black" points="421,-354.5 421,-373.5 459,-373.5 459,-354.5 421,-354.5"/>
<text text-anchor="middle" x="440" y="-361.5" font-family="Helvetica,sans-Serif" font-size="10.00">main</text>
</a>
</g>
</g>
<!-- Node30&#45;&gt;Node31 -->
<g id="edge36" class="edge"><title>Node30&#45;&gt;Node31</title>
<path fill="none" stroke="midnightblue" d="M305.776,-382.668C337.394,-378.238 392.583,-370.504 420.983,-366.525"/>
<polygon fill="midnightblue" stroke="midnightblue" points="305.076,-379.232 295.658,-384.086 306.047,-386.164 305.076,-379.232"/>
</g>
<!-- Node33 -->
<g id="node33" class="node"><title>Node33</title>
<g id="a_node33"><a xlink:href="../../d3/d68/group__imv__attestation__agent__t.html#ga2c9498f01fd8494b7ac2c6f685d0311a" target="_top" xlink:title="imv_attestation_agent\l_create">
<polygon fill="none" stroke="black" points="383.5,-305 383.5,-335 496.5,-335 496.5,-305 383.5,-305"/>
<text text-anchor="start" x="391.5" y="-323" font-family="Helvetica,sans-Serif" font-size="10.00">imv_attestation_agent</text>
<text text-anchor="middle" x="440" y="-312" font-family="Helvetica,sans-Serif" font-size="10.00">_create</text>
</a>
</g>
</g>
<!-- Node32&#45;&gt;Node33 -->
<g id="edge38" class="edge"><title>Node32&#45;&gt;Node33</title>
<path fill="none" stroke="midnightblue" d="M337.495,-323.879C352.384,-323.31 368.484,-322.695 383.38,-322.126"/>
<polygon fill="midnightblue" stroke="midnightblue" points="337.27,-320.385 327.411,-324.265 337.537,-327.38 337.27,-320.385"/>
</g>
<!-- Node34&#45;&gt;Node35 -->
<g id="edge40" class="edge"><title>Node34&#45;&gt;Node35</title>
<path fill="none" stroke="midnightblue" d="M317.893,-125.195C362.165,-127.28 439.484,-132.923 504,-148 528.146,-153.643 554.673,-163.896 572.63,-171.481"/>
<polygon fill="midnightblue" stroke="midnightblue" points="317.784,-121.687 307.641,-124.748 317.479,-128.68 317.784,-121.687"/>
</g>
<!-- Node35&#45;&gt;Node36 -->
<g id="edge41" class="edge"><title>Node35&#45;&gt;Node36</title>
<path fill="none" stroke="midnightblue" d="M628.533,-194.341C654.026,-204.795 688.88,-219.087 711.659,-228.428"/>
<polygon fill="midnightblue" stroke="midnightblue" points="629.846,-191.096 619.265,-190.541 627.19,-197.573 629.846,-191.096"/>
</g>
<!-- Node35&#45;&gt;Node37 -->
<g id="edge42" class="edge"><title>Node35&#45;&gt;Node37</title>
<path fill="none" stroke="midnightblue" d="M628.533,-167.659C654.026,-157.205 688.88,-142.913 711.659,-133.572"/>
<polygon fill="midnightblue" stroke="midnightblue" points="627.19,-164.427 619.265,-171.459 629.846,-170.904 627.19,-164.427"/>
</g>
<!-- Node38 -->
<g id="node38" class="node"><title>Node38</title>
<g id="a_node38"><a xlink:href="../../d3/d5b/group__stroke__socket.html#gad1f5f8940280e2e2b5066540a33f75af" target="_top" xlink:title="stroke_socket_create">
<polygon fill="none" stroke="red" points="822,-114.5 822,-133.5 932,-133.5 932,-114.5 822,-114.5"/>
<text text-anchor="middle" x="877" y="-121.5" font-family="Helvetica,sans-Serif" font-size="10.00">stroke_socket_create</text>
</a>
</g>
</g>
<!-- Node37&#45;&gt;Node38 -->
<g id="edge43" class="edge"><title>Node37&#45;&gt;Node38</title>
<path fill="none" stroke="midnightblue" d="M796.211,-124C804.691,-124 813.38,-124 821.758,-124"/>
<polygon fill="midnightblue" stroke="midnightblue" points="796.006,-120.5 786.006,-124 796.006,-127.5 796.006,-120.5"/>
</g>
<!-- Node40 -->
<g id="node40" class="node"><title>Node40</title>
<g id="a_node40"><a xlink:href="../../d8/db1/stroke__cred_8c.html#a66a8f2f4656c976e80665a710ea80063" target="_top" xlink:title="load_private">
<polygon fill="none" stroke="black" points="405.5,-190.5 405.5,-209.5 474.5,-209.5 474.5,-190.5 405.5,-190.5"/>
<text text-anchor="middle" x="440" y="-197.5" font-family="Helvetica,sans-Serif" font-size="10.00">load_private</text>
</a>
</g>
</g>
<!-- Node39&#45;&gt;Node40 -->
<g id="edge45" class="edge"><title>Node39&#45;&gt;Node40</title>
<path fill="none" stroke="midnightblue" d="M329.434,-226.519C353.954,-220.584 383.294,-213.483 405.44,-208.123"/>
<polygon fill="midnightblue" stroke="midnightblue" points="328.501,-223.144 319.605,-228.898 330.148,-229.947 328.501,-223.144"/>
</g>
<!-- Node41 -->
<g id="node41" class="node"><title>Node41</title>
<g id="a_node41"><a xlink:href="../../d8/db1/stroke__cred_8c.html#a0c61ebb97bc59bf59860da7715c0addb" target="_top" xlink:title="load_pkcs12">
<polygon fill="none" stroke="black" points="404.5,-228.5 404.5,-247.5 475.5,-247.5 475.5,-228.5 404.5,-228.5"/>
<text text-anchor="middle" x="440" y="-235.5" font-family="Helvetica,sans-Serif" font-size="10.00">load_pkcs12</text>
</a>
</g>
</g>
<!-- Node39&#45;&gt;Node41 -->
<g id="edge47" class="edge"><title>Node39&#45;&gt;Node41</title>
<path fill="none" stroke="midnightblue" d="M329.616,-238C353.711,-238 382.424,-238 404.385,-238"/>
<polygon fill="midnightblue" stroke="midnightblue" points="329.605,-234.5 319.605,-238 329.605,-241.5 329.605,-234.5"/>
</g>
<!-- Node40&#45;&gt;Node35 -->
<g id="edge46" class="edge"><title>Node40&#45;&gt;Node35</title>
<path fill="none" stroke="midnightblue" d="M484.65,-194.579C508.183,-191.657 536.836,-188.099 558.908,-185.358"/>
<polygon fill="midnightblue" stroke="midnightblue" points="484.069,-191.125 474.576,-195.83 484.932,-198.071 484.069,-191.125"/>
</g>
<!-- Node41&#45;&gt;Node35 -->
<g id="edge48" class="edge"><title>Node41&#45;&gt;Node35</title>
<path fill="none" stroke="midnightblue" d="M485.108,-225.352C491.482,-223.335 497.935,-221.188 504,-219 528.091,-210.309 555.075,-198.65 573.157,-190.548"/>
<polygon fill="midnightblue" stroke="midnightblue" points="483.745,-222.109 475.221,-228.403 485.809,-228.798 483.745,-222.109"/>
</g>
<!-- Node44 -->
<g id="node44" class="node"><title>Node44</title>
<g id="a_node44"><a xlink:href="../../d4/d9f/charon-tkm_8c.html#a0ddf1224851353fc92bfbff6f499fa97" target="_top" xlink:title="main">
<polygon fill="none" stroke="black" points="421,-0.5 421,-19.5 459,-19.5 459,-0.5 421,-0.5"/>
<text text-anchor="middle" x="440" y="-7.5" font-family="Helvetica,sans-Serif" font-size="10.00">main</text>
</a>
</g>
</g>
<!-- Node43&#45;&gt;Node44 -->
<g id="edge54" class="edge"><title>Node43&#45;&gt;Node44</title>
<path fill="none" stroke="midnightblue" d="M335.945,-10C365.514,-10 400.251,-10 420.901,-10"/>
<polygon fill="midnightblue" stroke="midnightblue" points="335.733,-6.5001 325.733,-10 335.733,-13.5001 335.733,-6.5001"/>
</g>
<!-- Node46 -->
<g id="node46" class="node"><title>Node46</title>
<g id="a_node46"><a xlink:href="../../d9/dc6/group__tnc__ifmap__listener.html#ga2f90d68b8a7372a5508d35d5245e9f30" target="_top" xlink:title="tnc_ifmap_listener\l_create">
<polygon fill="none" stroke="red" points="392,-963 392,-993 488,-993 488,-963 392,-963"/>
<text text-anchor="start" x="400" y="-981" font-family="Helvetica,sans-Serif" font-size="10.00">tnc_ifmap_listener</text>
<text text-anchor="middle" x="440" y="-970" font-family="Helvetica,sans-Serif" font-size="10.00">_create</text>
</a>
</g>
</g>
<!-- Node45&#45;&gt;Node46 -->
<g id="edge56" class="edge"><title>Node45&#45;&gt;Node46</title>
<path fill="none" stroke="midnightblue" d="M337.609,-956.689C355.316,-960.41 374.725,-964.49 391.78,-968.075"/>
<polygon fill="midnightblue" stroke="midnightblue" points="337.917,-953.177 327.411,-954.545 336.477,-960.027 337.917,-953.177"/>
</g>
<!-- Node48 -->
<g id="node48" class="node"><title>Node48</title>
<g id="a_node48"><a xlink:href="../../db/df6/verify_8c.html#a1a70bc9ff30788fe7ceeb823942615c8" target="_top" xlink:title="__attribute__">
<polygon fill="none" stroke="black" points="403.5,-924.5 403.5,-943.5 476.5,-943.5 476.5,-924.5 403.5,-924.5"/>
<text text-anchor="middle" x="440" y="-931.5" font-family="Helvetica,sans-Serif" font-size="10.00">__attribute__</text>
</a>
</g>
</g>
<!-- Node47&#45;&gt;Node48 -->
<g id="edge58" class="edge"><title>Node47&#45;&gt;Node48</title>
<path fill="none" stroke="midnightblue" d="M311.589,-912.089C337.622,-916.566 375.584,-923.094 403.297,-927.86"/>
<polygon fill="midnightblue" stroke="midnightblue" points="312.015,-908.611 301.567,-910.365 310.829,-915.509 312.015,-908.611"/>
</g>
<!-- Node50 -->
<g id="node50" class="node"><title>Node50</title>
<g id="a_node50"><a xlink:href="../../d1/d73/vici__plugin_8c.html#a2f71c61365cc9ae07eca95d2cec1c305" target="_top" xlink:title="register_vici">
<polygon fill="none" stroke="red" points="405.5,-886.5 405.5,-905.5 474.5,-905.5 474.5,-886.5 405.5,-886.5"/>
<text text-anchor="middle" x="440" y="-893.5" font-family="Helvetica,sans-Serif" font-size="10.00">register_vici</text>
</a>
</g>
</g>
<!-- Node49&#45;&gt;Node50 -->
<g id="edge60" class="edge"><title>Node49&#45;&gt;Node50</title>
<path fill="none" stroke="midnightblue" d="M335.349,-877.514C358.498,-881.643 384.91,-886.353 405.279,-889.986"/>
<polygon fill="midnightblue" stroke="midnightblue" points="335.776,-874.035 325.317,-875.725 334.547,-880.927 335.776,-874.035"/>
</g>
</g>
</svg>
        <g id="navigator" transform="translate(0 0)" fill="#404254">
                <rect fill="#f2f5e9" fill-opacity="0.5" stroke="#606060" stroke-width=".5" x="0" y="0" width="60" height="60"/>
                <use id="zoomplus" xlink:href="#zoomPlus" x="17" y="9" onmousedown="handleZoom(evt,'in')"/>
                <use id="zoomminus" xlink:href="#zoomMin" x="42" y="9" onmousedown="handleZoom(evt,'out')"/>
                <use id="reset" xlink:href="#resetDef" x="30" y="36" onmousedown="handleReset()"/>
                <g id="arrowUp" xlink:href="#dirArrow" transform="translate(30 24)" onmousedown="handlePan(0,-1)">
                  <use xlink:href="#rim" fill="#404040">
                        <set attributeName="fill" to="#808080" begin="arrowUp.mouseover" end="arrowUp.mouseout"/>
                  </use>
                  <path fill="none" stroke="white" stroke-width="1.5" d="M0,-3.0v7 M-2.5,-0.5L0,-3.0L2.5,-0.5"/>
                </g>
                <g id="arrowRight" xlink:href="#dirArrow" transform="rotate(90) translate(36 -43)" onmousedown="handlePan(1,0)">
                  <use xlink:href="#rim" fill="#404040">
                        <set attributeName="fill" to="#808080" begin="arrowRight.mouseover" end="arrowRight.mouseout"/>
                  </use>
                  <path fill="none" stroke="white" stroke-width="1.5" d="M0,-3.0v7 M-2.5,-0.5L0,-3.0L2.5,-0.5"/>
                </g>
                <g id="arrowDown" xlink:href="#dirArrow" transform="rotate(180) translate(-30 -48)" onmousedown="handlePan(0,1)">
                  <use xlink:href="#rim" fill="#404040">
                        <set attributeName="fill" to="#808080" begin="arrowDown.mouseover" end="arrowDown.mouseout"/>
                  </use>
                  <path fill="none" stroke="white" stroke-width="1.5" d="M0,-3.0v7 M-2.5,-0.5L0,-3.0L2.5,-0.5"/>
                </g>
                <g id="arrowLeft" xlink:href="#dirArrow" transform="rotate(270) translate(-36 17)" onmousedown="handlePan(-1,0)">
                  <use xlink:href="#rim" fill="#404040">
                        <set attributeName="fill" to="#808080" begin="arrowLeft.mouseover" end="arrowLeft.mouseout"/>
                  </use>
                  <path fill="none" stroke="white" stroke-width="1.5" d="M0,-3.0v7 M-2.5,-0.5L0,-3.0L2.5,-0.5"/>
                </g>
        </g>
        <svg viewBox="0 0 15 15" width="100%" height="30px" preserveAspectRatio="xMaxYMin meet">
         <g id="arrow_out" transform="scale(0.3 0.3)">
          <a xlink:href="openssl__pkcs12_8c_a7e59abc716b25d5f463f99e73e9cc58a_icgraph_org.svg" target="_base">
           <rect id="button" ry="5" rx="5" y="6" x="6" height="38" width="38"
                fill="#f2f5e9" fill-opacity="0.5" stroke="#606060" stroke-width="1.0"/>
           <path id="arrow"
             d="M 11.500037,31.436501 C 11.940474,20.09759 22.043105,11.32322 32.158766,21.979434 L 37.068811,17.246167 C 37.068811,17.246167 37.088388,32 37.088388,32 L 22.160133,31.978069 C 22.160133,31.978069 26.997745,27.140456 26.997745,27.140456 C 18.528582,18.264221 13.291696,25.230495 11.500037,31.436501 z"
             style="fill:#404040;"/>
          </a>
         </g>
        </svg>
</svg>
