<?xml version="1.0" encoding="UTF-8" standalone="no"?>
<!DOCTYPE svg PUBLIC "-//W3C//DTD SVG 1.1//EN"
 "http://www.w3.org/Graphics/SVG/1.1/DTD/svg11.dtd">
<!-- Generated by graphviz version 2.36.0 (20140111.2315)
 -->
<!-- Title: pts_t Pages: 1 -->
<!--zoomable 264 -->
<svg id="main" version="1.1" xmlns="http://www.w3.org/2000/svg" xmlns:xlink="http://www.w3.org/1999/xlink" xml:space="preserve" onload="init(evt)">
<style type="text/css"><![CDATA[
.edge:hover path { stroke: red; }
.edge:hover polygon { stroke: red; fill: red; }
]]></style>
<script type="text/javascript"><![CDATA[
var edges = document.getElementsByTagName('g');
if (edges && edges.length) {
  for (var i=0;i<edges.length;i++) {
    if (edges[i].id.substr(0,4)=='edge') {
      edges[i].setAttribute('class','edge');
    }
  }
}
]]></script>
        <defs>
                <circle id="rim" cx="0" cy="0" r="7"/>
                <circle id="rim2" cx="0" cy="0" r="3.5"/>
                <g id="zoomPlus">
                        <use xlink:href="#rim" fill="#404040">
                                <set attributeName="fill" to="#808080" begin="zoomplus.mouseover" end="zoomplus.mouseout"/>
                        </use>
                        <path d="M-4,0h8M0,-4v8" fill="none" stroke="white" stroke-width="1.5" pointer-events="none"/>
                </g>
                <g id="zoomMin">
                        <use xlink:href="#rim" fill="#404040">
                                <set attributeName="fill" to="#808080" begin="zoomminus.mouseover" end="zoomminus.mouseout"/>
                        </use>
                        <path d="M-4,0h8" fill="none" stroke="white" stroke-width="1.5" pointer-events="none"/>
                </g>
                <g id="dirArrow">
                        <path fill="none" stroke="white" stroke-width="1.5" d="M0,-3.0v7 M-2.5,-0.5L0,-3.0L2.5,-0.5"/>
                </g>
               <g id="resetDef">
                       <use xlink:href="#rim2" fill="#404040">
                               <set attributeName="fill" to="#808080" begin="reset.mouseover" end="reset.mouseout"/>
                       </use>
               </g>
        </defs>

<script type="text/javascript">
var viewWidth = 507;
var viewHeight = 264;
var sectionId = 'dynsection-0';
</script>
<script xlink:href="../../svgpan.js"/>
<svg id="graph" class="graph">
<g id="viewport">
<title>pts_t</title>
<!-- Node1 -->
<g id="node1" class="node"><title>Node1</title>
<polygon fill="#bfbfbf" stroke="black" points="294,-0.5 294,-19.5 332,-19.5 332,-0.5 294,-0.5"/>
<text text-anchor="middle" x="313" y="-7.5" font-family="Helvetica,sans-Serif" font-size="10.00">pts_t</text>
</g>
<!-- Node2 -->
<g id="node2" class="node"><title>Node2</title>
<g id="a_node2"><a xlink:href="../../d6/d41/structcertificate__t.html" target="_top" xlink:title="certificate_t">
<polygon fill="none" stroke="black" points="147,-68.5 147,-87.5 215,-87.5 215,-68.5 147,-68.5"/>
<text text-anchor="middle" x="181" y="-75.5" font-family="Helvetica,sans-Serif" font-size="10.00">certificate_t</text>
</a>
</g>
</g>
<!-- Node2&#45;&gt;Node1 -->
<g id="edge1" class="edge"><title>Node2&#45;&gt;Node1</title>
<path fill="none" stroke="#9a32cd" stroke-dasharray="5,2" d="M207.276,-63.8621C233.552,-50.7239 273.206,-30.8969 295.739,-19.6305"/>
<polygon fill="#9a32cd" stroke="#9a32cd" points="205.636,-60.769 198.257,-68.3717 208.766,-67.03 205.636,-60.769"/>
<text text-anchor="middle" x="276.5" y="-41.5" font-family="Helvetica,sans-Serif" font-size="10.00"> get_aik</text>
</g>
<!-- Node2&#45;&gt;Node2 -->
<g id="edge2" class="edge"><title>Node2&#45;&gt;Node2</title>
<path fill="none" stroke="#9a32cd" stroke-dasharray="5,2" d="M225.148,-83.333C229.925,-82.3094 233,-80.5317 233,-78 233,-73.9492 225.127,-71.8289 215.008,-71.639"/>
<polygon fill="#9a32cd" stroke="#9a32cd" points="224.604,-79.87 215.008,-84.361 225.311,-86.8343 224.604,-79.87"/>
<text text-anchor="middle" x="250" y="-75.5" font-family="Helvetica,sans-Serif" font-size="10.00"> get_ref</text>
</g>
<!-- Node3 -->
<g id="node3" class="node"><title>Node3</title>
<g id="a_node3"><a xlink:href="../../d6/d02/structidentification__t.html" target="_top" xlink:title="identification_t">
<polygon fill="none" stroke="black" points="141,-146.5 141,-165.5 221,-165.5 221,-146.5 141,-146.5"/>
<text text-anchor="middle" x="181" y="-153.5" font-family="Helvetica,sans-Serif" font-size="10.00">identification_t</text>
</a>
</g>
</g>
<!-- Node3&#45;&gt;Node2 -->
<g id="edge3" class="edge"><title>Node3&#45;&gt;Node2</title>
<path fill="none" stroke="#9a32cd" stroke-dasharray="5,2" d="M181,-136.224C181,-120.697 181,-99.3582 181,-87.6165"/>
<polygon fill="#9a32cd" stroke="#9a32cd" points="177.5,-136.282 181,-146.282 184.5,-136.282 177.5,-136.282"/>
<text text-anchor="middle" x="208" y="-120" font-family="Helvetica,sans-Serif" font-size="10.00"> get_subject</text>
<text text-anchor="middle" x="208" y="-109" font-family="Helvetica,sans-Serif" font-size="10.00">get_issuer</text>
</g>
<!-- Node3&#45;&gt;Node3 -->
<g id="edge4" class="edge"><title>Node3&#45;&gt;Node3</title>
<path fill="none" stroke="#9a32cd" stroke-dasharray="5,2" d="M231.265,-161.724C236.005,-160.552 239,-158.644 239,-156 239,-151.77 231.332,-149.423 221.119,-148.96"/>
<polygon fill="#9a32cd" stroke="#9a32cd" points="230.586,-158.283 221.119,-163.04 231.486,-165.225 230.586,-158.283"/>
<text text-anchor="middle" x="252.5" y="-153.5" font-family="Helvetica,sans-Serif" font-size="10.00"> clone</text>
</g>
<!-- Node4 -->
<g id="node4" class="node"><title>Node4</title>
<g id="a_node4"><a xlink:href="../../d0/d14/structchunk__t.html" target="_top" xlink:title="chunk_t">
<polygon fill="none" stroke="black" points="29.5,-236.5 29.5,-255.5 80.5,-255.5 80.5,-236.5 29.5,-236.5"/>
<text text-anchor="middle" x="55" y="-243.5" font-family="Helvetica,sans-Serif" font-size="10.00">chunk_t</text>
</a>
</g>
</g>
<!-- Node4&#45;&gt;Node3 -->
<g id="edge5" class="edge"><title>Node4&#45;&gt;Node3</title>
<path fill="none" stroke="#9a32cd" stroke-dasharray="5,2" d="M25.4868,-230.879C20.8692,-227.335 16.7289,-223.065 14,-218 6.8321,-204.697 4.16069,-195.469 14,-184 31.1286,-164.035 105.053,-170.33 131,-166 134.219,-165.463 137.552,-164.893 140.899,-164.311"/>
<polygon fill="#9a32cd" stroke="#9a32cd" points="23.8206,-233.971 34.1124,-236.487 27.636,-228.102 23.8206,-233.971"/>
<text text-anchor="middle" x="44.5" y="-198.5" font-family="Helvetica,sans-Serif" font-size="10.00"> get_encoding</text>
</g>
<!-- Node7 -->
<g id="node7" class="node"><title>Node7</title>
<g id="a_node7"><a xlink:href="../../d0/d39/structpts__pcr__t.html" target="_top" xlink:title="pts_pcr_t">
<polygon fill="none" stroke="black" points="284.5,-146.5 284.5,-165.5 341.5,-165.5 341.5,-146.5 284.5,-146.5"/>
<text text-anchor="middle" x="313" y="-153.5" font-family="Helvetica,sans-Serif" font-size="10.00">pts_pcr_t</text>
</a>
</g>
</g>
<!-- Node4&#45;&gt;Node7 -->
<g id="edge10" class="edge"><title>Node4&#45;&gt;Node7</title>
<path fill="none" stroke="#9a32cd" stroke-dasharray="5,2" d="M67.3023,-227.982C78.7023,-213.64 97.0283,-193.917 118,-184 181.494,-153.976 205.818,-178.115 275,-166 278.072,-165.462 281.267,-164.827 284.441,-164.147"/>
<polygon fill="#9a32cd" stroke="#9a32cd" points="64.4094,-226.003 61.1375,-236.08 69.9793,-230.243 64.4094,-226.003"/>
<text text-anchor="middle" x="150" y="-209.5" font-family="Helvetica,sans-Serif" font-size="10.00"> extend</text>
<text text-anchor="middle" x="150" y="-198.5" font-family="Helvetica,sans-Serif" font-size="10.00">get_composite</text>
<text text-anchor="middle" x="150" y="-187.5" font-family="Helvetica,sans-Serif" font-size="10.00">get</text>
</g>
<!-- Node5 -->
<g id="node5" class="node"><title>Node5</title>
<g id="a_node5"><a xlink:href="../../db/dd3/structenumerator__t.html" target="_top" xlink:title="enumerator_t">
<polygon fill="none" stroke="black" points="276,-236.5 276,-255.5 350,-255.5 350,-236.5 276,-236.5"/>
<text text-anchor="middle" x="313" y="-243.5" font-family="Helvetica,sans-Serif" font-size="10.00">enumerator_t</text>
</a>
</g>
</g>
<!-- Node5&#45;&gt;Node3 -->
<g id="edge6" class="edge"><title>Node5&#45;&gt;Node3</title>
<path fill="none" stroke="#9a32cd" stroke-dasharray="5,2" d="M266.04,-243.372C244.539,-240.348 220.099,-233.385 203,-218 187.768,-204.295 183.075,-179.246 181.634,-165.909"/>
<polygon fill="#9a32cd" stroke="#9a32cd" points="265.656,-246.851 275.994,-244.531 266.466,-239.898 265.656,-246.851"/>
<text text-anchor="middle" x="256" y="-198.5" font-family="Helvetica,sans-Serif" font-size="10.00"> create_part_enumerator</text>
</g>
<!-- Node5&#45;&gt;Node7 -->
<g id="edge11" class="edge"><title>Node5&#45;&gt;Node7</title>
<path fill="none" stroke="#9a32cd" stroke-dasharray="5,2" d="M313,-225.978C313,-207.31 313,-179.67 313,-165.724"/>
<polygon fill="#9a32cd" stroke="#9a32cd" points="309.5,-226.24 313,-236.241 316.5,-226.241 309.5,-226.24"/>
<text text-anchor="middle" x="355.5" y="-198.5" font-family="Helvetica,sans-Serif" font-size="10.00"> create_enumerator</text>
</g>
<!-- Node8 -->
<g id="node8" class="node"><title>Node8</title>
<g id="a_node8"><a xlink:href="../../dd/d5a/structpts__file__meta__t.html" target="_top" xlink:title="pts_file_meta_t">
<polygon fill="none" stroke="black" points="371.5,-107.5 371.5,-126.5 454.5,-126.5 454.5,-107.5 371.5,-107.5"/>
<text text-anchor="middle" x="413" y="-114.5" font-family="Helvetica,sans-Serif" font-size="10.00">pts_file_meta_t</text>
</a>
</g>
</g>
<!-- Node5&#45;&gt;Node8 -->
<g id="edge13" class="edge"><title>Node5&#45;&gt;Node8</title>
<path fill="none" stroke="#9a32cd" stroke-dasharray="5,2" d="M360.101,-240.058C374.56,-236.221 389.22,-229.545 399,-218 421.55,-191.382 417.501,-145.72 414.581,-126.706"/>
<polygon fill="#9a32cd" stroke="#9a32cd" points="359.175,-236.679 350.185,-242.287 360.71,-243.509 359.175,-236.679"/>
<text text-anchor="middle" x="456.5" y="-198.5" font-family="Helvetica,sans-Serif" font-size="10.00"> create_enumerator</text>
</g>
<!-- Node6 -->
<g id="node6" class="node"><title>Node6</title>
<g id="a_node6"><a xlink:href="../../d0/d6f/structpublic__key__t.html" target="_top" xlink:title="public_key_t">
<polygon fill="none" stroke="black" points="-0.5,-146.5 -0.5,-165.5 70.5,-165.5 70.5,-146.5 -0.5,-146.5"/>
<text text-anchor="middle" x="35" y="-153.5" font-family="Helvetica,sans-Serif" font-size="10.00">public_key_t</text>
</a>
</g>
</g>
<!-- Node6&#45;&gt;Node2 -->
<g id="edge7" class="edge"><title>Node6&#45;&gt;Node2</title>
<path fill="none" stroke="#9a32cd" stroke-dasharray="5,2" d="M53.9231,-140.471C68.2269,-129.952 88.6426,-115.899 108,-106 122.437,-98.6172 139.379,-92.2232 153.306,-87.5131"/>
<polygon fill="#9a32cd" stroke="#9a32cd" points="51.781,-137.703 45.8709,-146.496 55.9746,-143.308 51.781,-137.703"/>
<text text-anchor="middle" x="142.5" y="-114.5" font-family="Helvetica,sans-Serif" font-size="10.00"> get_public_key</text>
</g>
<!-- Node6&#45;&gt;Node6 -->
<g id="edge8" class="edge"><title>Node6&#45;&gt;Node6</title>
<path fill="none" stroke="#9a32cd" stroke-dasharray="5,2" d="M80.8116,-161.757C85.2124,-160.587 88,-158.668 88,-156 88,-151.621 80.493,-149.261 70.6693,-148.918"/>
<polygon fill="#9a32cd" stroke="#9a32cd" points="80.1317,-158.316 70.6693,-163.082 81.0384,-165.257 80.1317,-158.316"/>
<text text-anchor="middle" x="105" y="-153.5" font-family="Helvetica,sans-Serif" font-size="10.00"> get_ref</text>
</g>
<!-- Node7&#45;&gt;Node1 -->
<g id="edge9" class="edge"><title>Node7&#45;&gt;Node1</title>
<path fill="none" stroke="#9a32cd" stroke-dasharray="5,2" d="M313,-136.38C313,-104.966 313,-42.6284 313,-19.7137"/>
<polygon fill="#9a32cd" stroke="#9a32cd" points="309.5,-136.423 313,-146.423 316.5,-136.423 309.5,-136.423"/>
<text text-anchor="middle" x="333.5" y="-75.5" font-family="Helvetica,sans-Serif" font-size="10.00"> get_pcrs</text>
</g>
<!-- Node8&#45;&gt;Node1 -->
<g id="edge12" class="edge"><title>Node8&#45;&gt;Node1</title>
<path fill="none" stroke="#9a32cd" stroke-dasharray="5,2" d="M397.76,-99.998C376.346,-77.5133 338.094,-37.3488 321.296,-19.7113"/>
<polygon fill="#9a32cd" stroke="#9a32cd" points="395.386,-102.58 404.817,-107.407 400.454,-97.7522 395.386,-102.58"/>
<text text-anchor="middle" x="416.5" y="-75.5" font-family="Helvetica,sans-Serif" font-size="10.00"> get_metadata</text>
</g>
</g>
</svg>
        <g id="navigator" transform="translate(0 0)" fill="#404254">
                <rect fill="#f2f5e9" fill-opacity="0.5" stroke="#606060" stroke-width=".5" x="0" y="0" width="60" height="60"/>
                <use id="zoomplus" xlink:href="#zoomPlus" x="17" y="9" onmousedown="handleZoom(evt,'in')"/>
                <use id="zoomminus" xlink:href="#zoomMin" x="42" y="9" onmousedown="handleZoom(evt,'out')"/>
                <use id="reset" xlink:href="#resetDef" x="30" y="36" onmousedown="handleReset()"/>
                <g id="arrowUp" xlink:href="#dirArrow" transform="translate(30 24)" onmousedown="handlePan(0,-1)">
                  <use xlink:href="#rim" fill="#404040">
                        <set attributeName="fill" to="#808080" begin="arrowUp.mouseover" end="arrowUp.mouseout"/>
                  </use>
                  <path fill="none" stroke="white" stroke-width="1.5" d="M0,-3.0v7 M-2.5,-0.5L0,-3.0L2.5,-0.5"/>
                </g>
                <g id="arrowRight" xlink:href="#dirArrow" transform="rotate(90) translate(36 -43)" onmousedown="handlePan(1,0)">
                  <use xlink:href="#rim" fill="#404040">
                        <set attributeName="fill" to="#808080" begin="arrowRight.mouseover" end="arrowRight.mouseout"/>
                  </use>
                  <path fill="none" stroke="white" stroke-width="1.5" d="M0,-3.0v7 M-2.5,-0.5L0,-3.0L2.5,-0.5"/>
                </g>
                <g id="arrowDown" xlink:href="#dirArrow" transform="rotate(180) translate(-30 -48)" onmousedown="handlePan(0,1)">
                  <use xlink:href="#rim" fill="#404040">
                        <set attributeName="fill" to="#808080" begin="arrowDown.mouseover" end="arrowDown.mouseout"/>
                  </use>
                  <path fill="none" stroke="white" stroke-width="1.5" d="M0,-3.0v7 M-2.5,-0.5L0,-3.0L2.5,-0.5"/>
                </g>
                <g id="arrowLeft" xlink:href="#dirArrow" transform="rotate(270) translate(-36 17)" onmousedown="handlePan(-1,0)">
                  <use xlink:href="#rim" fill="#404040">
                        <set attributeName="fill" to="#808080" begin="arrowLeft.mouseover" end="arrowLeft.mouseout"/>
                  </use>
                  <path fill="none" stroke="white" stroke-width="1.5" d="M0,-3.0v7 M-2.5,-0.5L0,-3.0L2.5,-0.5"/>
                </g>
        </g>
        <svg viewBox="0 0 15 15" width="100%" height="30px" preserveAspectRatio="xMaxYMin meet">
         <g id="arrow_out" transform="scale(0.3 0.3)">
          <a xlink:href="structpts__t__coll__graph_org.svg" target="_base">
           <rect id="button" ry="5" rx="5" y="6" x="6" height="38" width="38"
                fill="#f2f5e9" fill-opacity="0.5" stroke="#606060" stroke-width="1.0"/>
           <path id="arrow"
             d="M 11.500037,31.436501 C 11.940474,20.09759 22.043105,11.32322 32.158766,21.979434 L 37.068811,17.246167 C 37.068811,17.246167 37.088388,32 37.088388,32 L 22.160133,31.978069 C 22.160133,31.978069 26.997745,27.140456 26.997745,27.140456 C 18.528582,18.264221 13.291696,25.230495 11.500037,31.436501 z"
             style="fill:#404040;"/>
          </a>
         </g>
        </svg>
</svg>
