<?xml version="1.0" encoding="UTF-8" standalone="no"?>
<!DOCTYPE svg PUBLIC "-//W3C//DTD SVG 1.1//EN"
 "http://www.w3.org/Graphics/SVG/1.1/DTD/svg11.dtd">
<!-- Generated by graphviz version 2.36.0 (20140111.2315)
 -->
<!-- Title: METHOD Pages: 1 -->
<svg width="408pt" height="77pt"
 viewBox="0.00 0.00 408.00 77.00" xmlns="http://www.w3.org/2000/svg" xmlns:xlink="http://www.w3.org/1999/xlink">
<g id="graph0" class="graph" transform="scale(1 1) rotate(0) translate(4 73)">
<title>METHOD</title>
<!-- Node1 -->
<g id="node1" class="node"><title>Node1</title>
<polygon fill="#bfbfbf" stroke="black" points="0,-27.5 0,-46.5 60,-46.5 60,-27.5 0,-27.5"/>
<text text-anchor="middle" x="30" y="-34.5" font-family="Helvetica,sans-Serif" font-size="10.00">METHOD</text>
</g>
<!-- Node2 -->
<g id="node2" class="node"><title>Node2</title>
<g id="a_node2"><a xlink:href="../../d5/d8c/group__pts__comp__evidence.html#gaa79cff32cb16aaa43cd34d456acced8b" target="_top" xlink:title="pts_comp_evidence_create">
<polygon fill="none" stroke="black" points="96,-49.5 96,-68.5 232,-68.5 232,-49.5 96,-49.5"/>
<text text-anchor="middle" x="164" y="-56.5" font-family="Helvetica,sans-Serif" font-size="10.00">pts_comp_evidence_create</text>
</a>
</g>
</g>
<!-- Node1&#45;&gt;Node2 -->
<g id="edge1" class="edge"><title>Node1&#45;&gt;Node2</title>
<path fill="none" stroke="midnightblue" d="M60.2951,-41.8825C70.9031,-43.6505 83.366,-45.7277 95.8825,-47.8137"/>
<polygon fill="midnightblue" stroke="midnightblue" points="95.4582,-51.2912 105.898,-49.4829 96.6091,-44.3865 95.4582,-51.2912"/>
</g>
<!-- Node3 -->
<g id="node3" class="node"><title>Node3</title>
<g id="a_node3"><a xlink:href="../../d5/d8c/group__pts__comp__evidence.html#ga2f265372d8df2bf2a4f11e8f3c93f1fb" target="_top" xlink:title="pts_meas_algo_to_pcr\l_transform">
<polygon fill="none" stroke="black" points="106.5,-0 106.5,-30 221.5,-30 221.5,-0 106.5,-0"/>
<text text-anchor="start" x="114.5" y="-18" font-family="Helvetica,sans-Serif" font-size="10.00">pts_meas_algo_to_pcr</text>
<text text-anchor="middle" x="164" y="-7" font-family="Helvetica,sans-Serif" font-size="10.00">_transform</text>
</a>
</g>
</g>
<!-- Node1&#45;&gt;Node3 -->
<g id="edge2" class="edge"><title>Node1&#45;&gt;Node3</title>
<path fill="none" stroke="midnightblue" d="M60.2951,-32.1175C71.0229,-30.3295 83.6479,-28.2254 96.3068,-26.1155"/>
<polygon fill="midnightblue" stroke="midnightblue" points="97.1422,-29.5247 106.431,-24.4282 95.9913,-22.6199 97.1422,-29.5247"/>
</g>
<!-- Node4 -->
<g id="node4" class="node"><title>Node4</title>
<g id="a_node4"><a xlink:href="../../d7/dbc/group__pts__meas__algo.html#ga04d190cdc6cdc52c4515b2c146dfab41" target="_top" xlink:title="pts_meas_algo_hash_size">
<polygon fill="none" stroke="black" points="268,-5.5 268,-24.5 400,-24.5 400,-5.5 268,-5.5"/>
<text text-anchor="middle" x="334" y="-12.5" font-family="Helvetica,sans-Serif" font-size="10.00">pts_meas_algo_hash_size</text>
</a>
</g>
</g>
<!-- Node3&#45;&gt;Node4 -->
<g id="edge3" class="edge"><title>Node3&#45;&gt;Node4</title>
<path fill="none" stroke="midnightblue" d="M221.877,-15C233.404,-15 245.695,-15 257.743,-15"/>
<polygon fill="midnightblue" stroke="midnightblue" points="257.784,-18.5001 267.784,-15 257.784,-11.5001 257.784,-18.5001"/>
</g>
</g>
</svg>
