<?xml version="1.0" encoding="UTF-8" standalone="no"?>
<!DOCTYPE svg PUBLIC "-//W3C//DTD SVG 1.1//EN"
 "http://www.w3.org/Graphics/SVG/1.1/DTD/svg11.dtd">
<!-- Generated by graphviz version 2.36.0 (20140111.2315)
 -->
<!-- Title: add_unity_attribute Pages: 1 -->
<svg width="604pt" height="66pt"
 viewBox="0.00 0.00 604.00 66.00" xmlns="http://www.w3.org/2000/svg" xmlns:xlink="http://www.w3.org/1999/xlink">
<g id="graph0" class="graph" transform="scale(1 1) rotate(0) translate(4 62)">
<title>add_unity_attribute</title>
<!-- Node1 -->
<g id="node1" class="node"><title>Node1</title>
<polygon fill="#bfbfbf" stroke="black" points="0.5,-19.5 0.5,-38.5 99.5,-38.5 99.5,-19.5 0.5,-19.5"/>
<text text-anchor="middle" x="50" y="-26.5" font-family="Helvetica,sans-Serif" font-size="10.00">add_unity_attribute</text>
</g>
<!-- Node2 -->
<g id="node2" class="node"><title>Node2</title>
<g id="a_node2"><a xlink:href="../../d5/d7f/eap__radius_8c.html#aed0180524cb978b2b550f4023730a3a2" target="_top" xlink:title="process_cfg_attributes">
<polygon fill="none" stroke="black" points="136,-19.5 136,-38.5 252,-38.5 252,-19.5 136,-19.5"/>
<text text-anchor="middle" x="194" y="-26.5" font-family="Helvetica,sans-Serif" font-size="10.00">process_cfg_attributes</text>
</a>
</g>
</g>
<!-- Node1&#45;&gt;Node2 -->
<g id="edge1" class="edge"><title>Node1&#45;&gt;Node2</title>
<path fill="none" stroke="midnightblue" d="M110.07,-29C118.557,-29 127.278,-29 135.729,-29"/>
<polygon fill="midnightblue" stroke="midnightblue" points="109.868,-25.5001 99.8683,-29 109.868,-32.5001 109.868,-25.5001"/>
</g>
<!-- Node3 -->
<g id="node3" class="node"><title>Node3</title>
<g id="a_node3"><a xlink:href="../../da/d7d/group__eap__radius__i.html#gae5f5288d604f4f82beb2c6f9a6ca2ed4" target="_top" xlink:title="eap_radius_process\l_attributes">
<polygon fill="none" stroke="black" points="288,-14 288,-44 392,-44 392,-14 288,-14"/>
<text text-anchor="start" x="296" y="-32" font-family="Helvetica,sans-Serif" font-size="10.00">eap_radius_process</text>
<text text-anchor="middle" x="340" y="-21" font-family="Helvetica,sans-Serif" font-size="10.00">_attributes</text>
</a>
</g>
</g>
<!-- Node2&#45;&gt;Node3 -->
<g id="edge2" class="edge"><title>Node2&#45;&gt;Node3</title>
<path fill="none" stroke="midnightblue" d="M262.353,-29C270.954,-29 279.644,-29 287.929,-29"/>
<polygon fill="midnightblue" stroke="midnightblue" points="262.326,-25.5001 252.326,-29 262.326,-32.5001 262.326,-25.5001"/>
</g>
<!-- Node4 -->
<g id="node4" class="node"><title>Node4</title>
<g id="a_node4"><a xlink:href="../../d5/d7f/eap__radius_8c.html#a5c5a1ff7cb5b3f37d747016613346f47" target="_top" xlink:title="METHOD">
<polygon fill="none" stroke="black" points="434,-38.5 434,-57.5 494,-57.5 494,-38.5 434,-38.5"/>
<text text-anchor="middle" x="464" y="-45.5" font-family="Helvetica,sans-Serif" font-size="10.00">METHOD</text>
</a>
</g>
</g>
<!-- Node3&#45;&gt;Node4 -->
<g id="edge3" class="edge"><title>Node3&#45;&gt;Node4</title>
<path fill="none" stroke="midnightblue" d="M402.122,-38.519C413.152,-40.2368 424.177,-41.9538 433.754,-43.4453"/>
<polygon fill="midnightblue" stroke="midnightblue" points="402.452,-35.0282 392.032,-36.9476 401.374,-41.9448 402.452,-35.0282"/>
</g>
<!-- Node5 -->
<g id="node5" class="node"><title>Node5</title>
<g id="a_node5"><a xlink:href="../../d6/d63/eap__radius__xauth_8c.html#a8ac33026734eb7c66eca0e35e7ca3841" target="_top" xlink:title="verify_radius">
<polygon fill="none" stroke="black" points="428,-0.5 428,-19.5 500,-19.5 500,-0.5 428,-0.5"/>
<text text-anchor="middle" x="464" y="-7.5" font-family="Helvetica,sans-Serif" font-size="10.00">verify_radius</text>
</a>
</g>
</g>
<!-- Node3&#45;&gt;Node5 -->
<g id="edge4" class="edge"><title>Node3&#45;&gt;Node5</title>
<path fill="none" stroke="midnightblue" d="M401.967,-19.5051C410.802,-18.1292 419.638,-16.7532 427.733,-15.4924"/>
<polygon fill="midnightblue" stroke="midnightblue" points="401.374,-16.0552 392.032,-21.0524 402.452,-22.9718 401.374,-16.0552"/>
</g>
<!-- Node6 -->
<g id="node6" class="node"><title>Node6</title>
<g id="a_node6"><a xlink:href="../../d6/d63/eap__radius__xauth_8c.html#af56283fa00519460fbfec662b20c433f" target="_top" xlink:title="METHOD">
<polygon fill="none" stroke="black" points="536,-0.5 536,-19.5 596,-19.5 596,-0.5 536,-0.5"/>
<text text-anchor="middle" x="566" y="-7.5" font-family="Helvetica,sans-Serif" font-size="10.00">METHOD</text>
</a>
</g>
</g>
<!-- Node5&#45;&gt;Node6 -->
<g id="edge5" class="edge"><title>Node5&#45;&gt;Node6</title>
<path fill="none" stroke="midnightblue" d="M510.524,-10C519.069,-10 527.79,-10 535.678,-10"/>
<polygon fill="midnightblue" stroke="midnightblue" points="510.256,-6.5001 500.256,-10 510.256,-13.5001 510.256,-6.5001"/>
</g>
</g>
</svg>
