<?xml version="1.0" encoding="UTF-8" standalone="no"?>
<!DOCTYPE svg PUBLIC "-//W3C//DTD SVG 1.1//EN"
 "http://www.w3.org/Graphics/SVG/1.1/DTD/svg11.dtd">
<!-- Generated by graphviz version 2.36.0 (20140111.2315)
 -->
<!-- Title: pb_assessment_result_msg.h Pages: 1 -->
<svg width="445pt" height="108pt"
 viewBox="0.00 0.00 445.00 108.00" xmlns="http://www.w3.org/2000/svg" xmlns:xlink="http://www.w3.org/1999/xlink">
<g id="graph0" class="graph" transform="scale(1 1) rotate(0) translate(4 104)">
<title>pb_assessment_result_msg.h</title>
<!-- Node1 -->
<g id="node1" class="node"><title>Node1</title>
<polygon fill="#bfbfbf" stroke="black" points="166.5,-69 166.5,-99 281.5,-99 281.5,-69 166.5,-69"/>
<text text-anchor="start" x="174.5" y="-87" font-family="Helvetica,sans-Serif" font-size="10.00">pb_assessment_result</text>
<text text-anchor="middle" x="224" y="-76" font-family="Helvetica,sans-Serif" font-size="10.00">_msg.h</text>
</g>
<!-- Node2 -->
<g id="node2" class="node"><title>Node2</title>
<g id="a_node2"><a xlink:href="../../db/d42/pb__assessment__result__msg_8c.html" target="_top" xlink:title="pb_assessment_result\l_msg.c">
<polygon fill="none" stroke="black" points="-0.5,-1 -0.5,-31 114.5,-31 114.5,-1 -0.5,-1"/>
<text text-anchor="start" x="7.5" y="-19" font-family="Helvetica,sans-Serif" font-size="10.00">pb_assessment_result</text>
<text text-anchor="middle" x="57" y="-8" font-family="Helvetica,sans-Serif" font-size="10.00">_msg.c</text>
</a>
</g>
</g>
<!-- Node1&#45;&gt;Node2 -->
<g id="edge1" class="edge"><title>Node1&#45;&gt;Node2</title>
<path fill="none" stroke="midnightblue" d="M178.533,-65.0308C151.45,-54.3276 117.58,-40.9417 92.4795,-31.0218"/>
<polygon fill="midnightblue" stroke="midnightblue" points="177.588,-68.4208 188.174,-68.8413 180.161,-61.9108 177.588,-68.4208"/>
</g>
<!-- Node3 -->
<g id="node3" class="node"><title>Node3</title>
<g id="a_node3"><a xlink:href="../../d1/da6/pb__tnc__msg_8c.html" target="_top" xlink:title="pb_tnc_msg.c">
<polygon fill="none" stroke="black" points="133,-6.5 133,-25.5 211,-25.5 211,-6.5 133,-6.5"/>
<text text-anchor="middle" x="172" y="-13.5" font-family="Helvetica,sans-Serif" font-size="10.00">pb_tnc_msg.c</text>
</a>
</g>
</g>
<!-- Node1&#45;&gt;Node3 -->
<g id="edge2" class="edge"><title>Node1&#45;&gt;Node3</title>
<path fill="none" stroke="midnightblue" d="M206.526,-60.821C197.092,-48.8471 185.974,-34.7359 178.956,-25.8283"/>
<polygon fill="midnightblue" stroke="midnightblue" points="203.779,-62.9901 212.717,-68.679 209.277,-58.658 203.779,-62.9901"/>
</g>
<!-- Node4 -->
<g id="node4" class="node"><title>Node4</title>
<g id="a_node4"><a xlink:href="../../dd/d7d/tnccs__20__client_8c.html" target="_top" xlink:title="tnccs_20_client.c">
<polygon fill="none" stroke="black" points="229.5,-6.5 229.5,-25.5 322.5,-25.5 322.5,-6.5 229.5,-6.5"/>
<text text-anchor="middle" x="276" y="-13.5" font-family="Helvetica,sans-Serif" font-size="10.00">tnccs_20_client.c</text>
</a>
</g>
</g>
<!-- Node1&#45;&gt;Node4 -->
<g id="edge3" class="edge"><title>Node1&#45;&gt;Node4</title>
<path fill="none" stroke="midnightblue" d="M241.474,-60.821C250.908,-48.8471 262.026,-34.7359 269.044,-25.8283"/>
<polygon fill="midnightblue" stroke="midnightblue" points="238.723,-58.658 235.283,-68.679 244.221,-62.9901 238.723,-58.658"/>
</g>
<!-- Node5 -->
<g id="node5" class="node"><title>Node5</title>
<g id="a_node5"><a xlink:href="../../d0/d65/tnccs__20__server_8c.html" target="_top" xlink:title="tnccs_20_server.c">
<polygon fill="none" stroke="black" points="340.5,-6.5 340.5,-25.5 437.5,-25.5 437.5,-6.5 340.5,-6.5"/>
<text text-anchor="middle" x="389" y="-13.5" font-family="Helvetica,sans-Serif" font-size="10.00">tnccs_20_server.c</text>
</a>
</g>
</g>
<!-- Node1&#45;&gt;Node5 -->
<g id="edge4" class="edge"><title>Node1&#45;&gt;Node5</title>
<path fill="none" stroke="midnightblue" d="M268.975,-65.0098C300.921,-52.2318 342.404,-35.6384 367.295,-25.6819"/>
<polygon fill="midnightblue" stroke="midnightblue" points="267.382,-61.8777 259.397,-68.8413 269.981,-68.377 267.382,-61.8777"/>
</g>
</g>
</svg>
