<?xml version="1.0" encoding="UTF-8" standalone="no"?>
<!DOCTYPE svg PUBLIC "-//W3C//DTD SVG 1.1//EN"
 "http://www.w3.org/Graphics/SVG/1.1/DTD/svg11.dtd">
<!-- Generated by graphviz version 2.36.0 (20140111.2315)
 -->
<!-- Title: proposal_create_from_string Pages: 1 -->
<svg width="952pt" height="382pt"
 viewBox="0.00 0.00 952.00 382.00" xmlns="http://www.w3.org/2000/svg" xmlns:xlink="http://www.w3.org/1999/xlink">
<g id="graph0" class="graph" transform="scale(1 1) rotate(0) translate(4 378)">
<title>proposal_create_from_string</title>
<!-- Node1 -->
<g id="node1" class="node"><title>Node1</title>
<polygon fill="#bfbfbf" stroke="black" points="0,-178 0,-208 110,-208 110,-178 0,-178"/>
<text text-anchor="start" x="8" y="-196" font-family="Helvetica,sans-Serif" font-size="10.00">proposal_create_from</text>
<text text-anchor="middle" x="55" y="-185" font-family="Helvetica,sans-Serif" font-size="10.00">_string</text>
</g>
<!-- Node2 -->
<g id="node2" class="node"><title>Node2</title>
<g id="a_node2"><a xlink:href="../../de/d0b/sql__config_8c.html#a324f0575ef7f11779751184513a33859" target="_top" xlink:title="add_esp_proposals">
<polygon fill="none" stroke="black" points="146.5,-354.5 146.5,-373.5 247.5,-373.5 247.5,-354.5 146.5,-354.5"/>
<text text-anchor="middle" x="197" y="-361.5" font-family="Helvetica,sans-Serif" font-size="10.00">add_esp_proposals</text>
</a>
</g>
</g>
<!-- Node1&#45;&gt;Node2 -->
<g id="edge1" class="edge"><title>Node1&#45;&gt;Node2</title>
<path fill="none" stroke="midnightblue" d="M64.6192,-217.663C77.4315,-250.952 104.537,-310.1 146,-345 150.547,-348.827 155.945,-351.928 161.485,-354.427"/>
<polygon fill="midnightblue" stroke="midnightblue" points="67.8717,-216.368 61.1017,-208.218 61.3118,-218.811 67.8717,-216.368"/>
</g>
<!-- Node10 -->
<g id="node10" class="node"><title>Node10</title>
<g id="a_node10"><a xlink:href="../../de/d0b/sql__config_8c.html#a63b03899753d89a7f8378145298f26f1" target="_top" xlink:title="add_ike_proposals">
<polygon fill="none" stroke="black" points="148,-316.5 148,-335.5 246,-335.5 246,-316.5 148,-316.5"/>
<text text-anchor="middle" x="197" y="-323.5" font-family="Helvetica,sans-Serif" font-size="10.00">add_ike_proposals</text>
</a>
</g>
</g>
<!-- Node1&#45;&gt;Node10 -->
<g id="edge10" class="edge"><title>Node1&#45;&gt;Node10</title>
<path fill="none" stroke="midnightblue" d="M69.3798,-216.754C84.839,-242.262 112.498,-282.428 146,-307 151.167,-310.79 157.181,-313.917 163.21,-316.463"/>
<polygon fill="midnightblue" stroke="midnightblue" points="72.3507,-214.902 64.248,-208.076 66.3253,-218.465 72.3507,-214.902"/>
</g>
<!-- Node15 -->
<g id="node15" class="node"><title>Node15</title>
<g id="a_node15"><a xlink:href="../../d5/dd9/stroke__config_8c.html#ad1a345649014414bd0a03a344fdf6a3f" target="_top" xlink:title="add_proposals">
<polygon fill="none" stroke="black" points="157,-278.5 157,-297.5 237,-297.5 237,-278.5 157,-278.5"/>
<text text-anchor="middle" x="197" y="-285.5" font-family="Helvetica,sans-Serif" font-size="10.00">add_proposals</text>
</a>
</g>
</g>
<!-- Node1&#45;&gt;Node15 -->
<g id="edge16" class="edge"><title>Node1&#45;&gt;Node15</title>
<path fill="none" stroke="midnightblue" d="M78.0519,-215.347C95.3359,-231.892 120.632,-254.061 146,-269 152.161,-272.628 159.14,-275.793 165.886,-278.444"/>
<polygon fill="midnightblue" stroke="midnightblue" points="80.3081,-212.659 70.703,-208.188 75.4234,-217.673 80.3081,-212.659"/>
</g>
<!-- Node19 -->
<g id="node19" class="node"><title>Node19</title>
<g id="a_node19"><a xlink:href="../../d2/df2/uci__config_8c.html#a7df63e90afc444295ae095dd98982504" target="_top" xlink:title="create_proposal">
<polygon fill="none" stroke="black" points="154,-240.5 154,-259.5 240,-259.5 240,-240.5 154,-240.5"/>
<text text-anchor="middle" x="197" y="-247.5" font-family="Helvetica,sans-Serif" font-size="10.00">create_proposal</text>
</a>
</g>
</g>
<!-- Node1&#45;&gt;Node19 -->
<g id="edge21" class="edge"><title>Node1&#45;&gt;Node19</title>
<path fill="none" stroke="midnightblue" d="M100.2,-212.039C114.742,-218.202 131.02,-224.994 146,-231 153.843,-234.145 162.429,-237.455 170.237,-240.415"/>
<polygon fill="midnightblue" stroke="midnightblue" points="101.498,-208.788 90.9254,-208.095 98.7577,-215.23 101.498,-208.788"/>
</g>
<!-- Node21 -->
<g id="node21" class="node"><title>Node21</title>
<g id="a_node21"><a xlink:href="../../d3/d95/config_8c.html#a5401d66fadebca151ad7f2b99c1101a0" target="_top" xlink:title="load_child_config">
<polygon fill="none" stroke="black" points="151,-202.5 151,-221.5 243,-221.5 243,-202.5 151,-202.5"/>
<text text-anchor="middle" x="197" y="-209.5" font-family="Helvetica,sans-Serif" font-size="10.00">load_child_config</text>
</a>
</g>
</g>
<!-- Node1&#45;&gt;Node21 -->
<g id="edge23" class="edge"><title>Node1&#45;&gt;Node21</title>
<path fill="none" stroke="midnightblue" d="M120.289,-201.725C130.539,-203.116 140.953,-204.529 150.644,-205.845"/>
<polygon fill="midnightblue" stroke="midnightblue" points="120.508,-198.223 110.128,-200.346 119.566,-205.159 120.508,-198.223"/>
</g>
<!-- Node24 -->
<g id="node24" class="node"><title>Node24</title>
<g id="a_node24"><a xlink:href="../../d3/d95/config_8c.html#a5b68982080f3db9c9d84fd72fe3628a3" target="_top" xlink:title="load_ike_config">
<polygon fill="none" stroke="black" points="155,-164.5 155,-183.5 239,-183.5 239,-164.5 155,-164.5"/>
<text text-anchor="middle" x="197" y="-171.5" font-family="Helvetica,sans-Serif" font-size="10.00">load_ike_config</text>
</a>
</g>
</g>
<!-- Node1&#45;&gt;Node24 -->
<g id="edge26" class="edge"><title>Node1&#45;&gt;Node24</title>
<path fill="none" stroke="midnightblue" d="M120.289,-184.275C131.953,-182.692 143.829,-181.08 154.611,-179.617"/>
<polygon fill="midnightblue" stroke="midnightblue" points="119.566,-180.841 110.128,-185.654 120.508,-187.777 119.566,-180.841"/>
</g>
<!-- Node25 -->
<g id="node25" class="node"><title>Node25</title>
<g id="a_node25"><a xlink:href="../../dc/d9c/group__load__tester__config__t.html#ga51da667b5b468b52a99ef2416993f985" target="_top" xlink:title="load_tester_config\l_create">
<polygon fill="none" stroke="black" points="149,-115 149,-145 245,-145 245,-115 149,-115"/>
<text text-anchor="start" x="157" y="-133" font-family="Helvetica,sans-Serif" font-size="10.00">load_tester_config</text>
<text text-anchor="middle" x="197" y="-122" font-family="Helvetica,sans-Serif" font-size="10.00">_create</text>
</a>
</g>
</g>
<!-- Node1&#45;&gt;Node25 -->
<g id="edge28" class="edge"><title>Node1&#45;&gt;Node25</title>
<path fill="none" stroke="midnightblue" d="M98.8982,-173.696C119.253,-164.536 143.223,-153.75 162.255,-145.185"/>
<polygon fill="midnightblue" stroke="midnightblue" points="97.2164,-170.614 89.5335,-177.91 100.089,-176.998 97.2164,-170.614"/>
</g>
<!-- Node28 -->
<g id="node28" class="node"><title>Node28</title>
<g id="a_node28"><a xlink:href="../../d7/d9c/cmd__connection_8c.html#a7edf100f0c26164ae45b03d4c8b288f3" target="_top" xlink:title="METHOD">
<polygon fill="none" stroke="black" points="167,-76.5 167,-95.5 227,-95.5 227,-76.5 167,-76.5"/>
<text text-anchor="middle" x="197" y="-83.5" font-family="Helvetica,sans-Serif" font-size="10.00">METHOD</text>
</a>
</g>
</g>
<!-- Node1&#45;&gt;Node28 -->
<g id="edge31" class="edge"><title>Node1&#45;&gt;Node28</title>
<path fill="none" stroke="midnightblue" d="M74.8431,-169.845C91.7482,-150.329 118.126,-122.813 146,-105 152.416,-100.9 159.852,-97.4765 166.996,-94.7177"/>
<polygon fill="midnightblue" stroke="midnightblue" points="72.0057,-167.779 68.2013,-177.667 77.3417,-172.31 72.0057,-167.779"/>
</g>
<!-- Node29 -->
<g id="node29" class="node"><title>Node29</title>
<g id="a_node29"><a xlink:href="../../da/de3/vici__config_8c.html#a9ef8a43699677a6314adc698c71e804e" target="_top" xlink:title="parse_proposal">
<polygon fill="none" stroke="black" points="155.5,-38.5 155.5,-57.5 238.5,-57.5 238.5,-38.5 155.5,-38.5"/>
<text text-anchor="middle" x="197" y="-45.5" font-family="Helvetica,sans-Serif" font-size="10.00">parse_proposal</text>
</a>
</g>
</g>
<!-- Node1&#45;&gt;Node29 -->
<g id="edge32" class="edge"><title>Node1&#45;&gt;Node29</title>
<path fill="none" stroke="midnightblue" d="M67.8693,-168.432C82.5954,-140.316 110.198,-94.6053 146,-67 150.927,-63.2009 156.7,-60.0889 162.539,-57.5647"/>
<polygon fill="midnightblue" stroke="midnightblue" points="64.6272,-167.086 63.2052,-177.585 70.8641,-170.264 64.6272,-167.086"/>
</g>
<!-- Node31 -->
<g id="node31" class="node"><title>Node31</title>
<g id="a_node31"><a xlink:href="../../d7/d52/keymat__tests_8c.html#a2de488b05b4d2b6c261550b5ef549a39" target="_top" xlink:title="START_TEST">
<polygon fill="none" stroke="black" points="157,-0.5 157,-19.5 237,-19.5 237,-0.5 157,-0.5"/>
<text text-anchor="middle" x="197" y="-7.5" font-family="Helvetica,sans-Serif" font-size="10.00">START_TEST</text>
</a>
</g>
</g>
<!-- Node1&#45;&gt;Node31 -->
<g id="edge34" class="edge"><title>Node1&#45;&gt;Node31</title>
<path fill="none" stroke="midnightblue" d="M63.5647,-167.951C75.5255,-132.354 102.068,-67.2233 146,-29 150.414,-25.16 155.683,-22.0593 161.12,-19.5666"/>
<polygon fill="midnightblue" stroke="midnightblue" points="60.1994,-166.982 60.4462,-177.574 66.8585,-169.14 60.1994,-166.982"/>
</g>
<!-- Node3 -->
<g id="node3" class="node"><title>Node3</title>
<g id="a_node3"><a xlink:href="../../de/d0b/sql__config_8c.html#ac04cb6ea6723a8c03504ff59337658e8" target="_top" xlink:title="build_child_cfg">
<polygon fill="none" stroke="black" points="294.5,-354.5 294.5,-373.5 375.5,-373.5 375.5,-354.5 294.5,-354.5"/>
<text text-anchor="middle" x="335" y="-361.5" font-family="Helvetica,sans-Serif" font-size="10.00">build_child_cfg</text>
</a>
</g>
</g>
<!-- Node2&#45;&gt;Node3 -->
<g id="edge2" class="edge"><title>Node2&#45;&gt;Node3</title>
<path fill="none" stroke="midnightblue" d="M258.073,-364C270.361,-364 282.998,-364 294.352,-364"/>
<polygon fill="midnightblue" stroke="midnightblue" points="257.869,-360.5 247.869,-364 257.869,-367.5 257.869,-360.5"/>
</g>
<!-- Node4 -->
<g id="node4" class="node"><title>Node4</title>
<g id="a_node4"><a xlink:href="../../de/d0b/sql__config_8c.html#adb1b641edc326f0902f9afe48780b90b" target="_top" xlink:title="add_child_cfgs">
<polygon fill="none" stroke="black" points="448,-354.5 448,-373.5 530,-373.5 530,-354.5 448,-354.5"/>
<text text-anchor="middle" x="489" y="-361.5" font-family="Helvetica,sans-Serif" font-size="10.00">add_child_cfgs</text>
</a>
</g>
</g>
<!-- Node3&#45;&gt;Node4 -->
<g id="edge3" class="edge"><title>Node3&#45;&gt;Node4</title>
<path fill="none" stroke="midnightblue" d="M385.776,-364C405.905,-364 428.833,-364 447.866,-364"/>
<polygon fill="midnightblue" stroke="midnightblue" points="385.539,-360.5 375.539,-364 385.539,-367.5 385.539,-360.5"/>
</g>
<!-- Node5 -->
<g id="node5" class="node"><title>Node5</title>
<g id="a_node5"><a xlink:href="../../de/d0b/sql__config_8c.html#ab613aa8a44d2efd07999ea6c4076d34d" target="_top" xlink:title="build_peer_cfg">
<polygon fill="none" stroke="black" points="592,-335.5 592,-354.5 672,-354.5 672,-335.5 592,-335.5"/>
<text text-anchor="middle" x="632" y="-342.5" font-family="Helvetica,sans-Serif" font-size="10.00">build_peer_cfg</text>
</a>
</g>
</g>
<!-- Node4&#45;&gt;Node5 -->
<g id="edge4" class="edge"><title>Node4&#45;&gt;Node5</title>
<path fill="none" stroke="midnightblue" d="M540.317,-357.22C557.258,-354.937 575.896,-352.425 591.847,-350.276"/>
<polygon fill="midnightblue" stroke="midnightblue" points="539.471,-353.802 530.028,-358.606 540.406,-360.739 539.471,-353.802"/>
</g>
<!-- Node6 -->
<g id="node6" class="node"><title>Node6</title>
<g id="a_node6"><a xlink:href="../../de/d0b/sql__config_8c.html#aa57726e496f822dfc20afa5039bb92ce" target="_top" xlink:title="get_peer_cfg_by_id">
<polygon fill="none" stroke="black" points="727.5,-354.5 727.5,-373.5 828.5,-373.5 828.5,-354.5 727.5,-354.5"/>
<text text-anchor="middle" x="778" y="-361.5" font-family="Helvetica,sans-Serif" font-size="10.00">get_peer_cfg_by_id</text>
</a>
</g>
</g>
<!-- Node5&#45;&gt;Node6 -->
<g id="edge5" class="edge"><title>Node5&#45;&gt;Node6</title>
<path fill="none" stroke="midnightblue" d="M682.347,-345.067C703.947,-347.315 728.575,-350.851 747.294,-354.496"/>
<polygon fill="midnightblue" stroke="midnightblue" points="682.639,-341.579 672.349,-344.101 681.966,-348.547 682.639,-341.579"/>
</g>
<!-- Node7 -->
<g id="node7" class="node"><title>Node7</title>
<g id="a_node7"><a xlink:href="../../de/d0b/sql__config_8c.html#ab8a4c85114d17aa7387ccac04fd464dd" target="_top" xlink:title="METHOD">
<polygon fill="none" stroke="black" points="748,-316.5 748,-335.5 808,-335.5 808,-316.5 748,-316.5"/>
<text text-anchor="middle" x="778" y="-323.5" font-family="Helvetica,sans-Serif" font-size="10.00">METHOD</text>
</a>
</g>
</g>
<!-- Node5&#45;&gt;Node7 -->
<g id="edge7" class="edge"><title>Node5&#45;&gt;Node7</title>
<path fill="none" stroke="midnightblue" d="M682.42,-338.479C704.178,-335.608 728.998,-332.334 747.751,-329.859"/>
<polygon fill="midnightblue" stroke="midnightblue" points="681.805,-335.03 672.349,-339.808 682.721,-341.97 681.805,-335.03"/>
</g>
<!-- Node8 -->
<g id="node8" class="node"><title>Node8</title>
<g id="a_node8"><a xlink:href="../../de/d0b/sql__config_8c.html#ab851d028c29985d80230a64b629471f3" target="_top" xlink:title="peer_enumerator_enumerate">
<polygon fill="none" stroke="black" points="708,-278.5 708,-297.5 848,-297.5 848,-278.5 708,-278.5"/>
<text text-anchor="middle" x="778" y="-285.5" font-family="Helvetica,sans-Serif" font-size="10.00">peer_enumerator_enumerate</text>
</a>
</g>
</g>
<!-- Node5&#45;&gt;Node8 -->
<g id="edge8" class="edge"><title>Node5&#45;&gt;Node8</title>
<path fill="none" stroke="midnightblue" d="M658.684,-330.372C672.902,-322.691 691.075,-313.542 708,-307 717.272,-303.416 727.487,-300.217 737.15,-297.512"/>
<polygon fill="midnightblue" stroke="midnightblue" points="656.611,-327.518 649.537,-335.406 659.985,-333.651 656.611,-327.518"/>
</g>
<!-- Node6&#45;&gt;Node5 -->
<g id="edge6" class="edge"><title>Node6&#45;&gt;Node5</title>
<path fill="none" stroke="midnightblue" d="M717.368,-362.793C698.573,-360.587 678.618,-357.598 662.837,-354.53"/>
<polygon fill="midnightblue" stroke="midnightblue" points="717.033,-366.277 727.358,-363.902 717.806,-359.32 717.033,-366.277"/>
</g>
<!-- Node9 -->
<g id="node9" class="node"><title>Node9</title>
<g id="a_node9"><a xlink:href="../../de/d0b/sql__config_8c.html#aedfd8404bb6d071ca005a50d7e56c84d" target="_top" xlink:title="METHOD">
<polygon fill="none" stroke="black" points="884,-278.5 884,-297.5 944,-297.5 944,-278.5 884,-278.5"/>
<text text-anchor="middle" x="914" y="-285.5" font-family="Helvetica,sans-Serif" font-size="10.00">METHOD</text>
</a>
</g>
</g>
<!-- Node8&#45;&gt;Node9 -->
<g id="edge9" class="edge"><title>Node8&#45;&gt;Node9</title>
<path fill="none" stroke="midnightblue" d="M858.562,-288C867.518,-288 876.163,-288 883.826,-288"/>
<polygon fill="midnightblue" stroke="midnightblue" points="858.355,-284.5 848.355,-288 858.355,-291.5 858.355,-284.5"/>
</g>
<!-- Node11 -->
<g id="node11" class="node"><title>Node11</title>
<g id="a_node11"><a xlink:href="../../de/d0b/sql__config_8c.html#a77517c58b31db4215d2de4463a4c3c12" target="_top" xlink:title="build_ike_cfg">
<polygon fill="none" stroke="black" points="298,-316.5 298,-335.5 372,-335.5 372,-316.5 298,-316.5"/>
<text text-anchor="middle" x="335" y="-323.5" font-family="Helvetica,sans-Serif" font-size="10.00">build_ike_cfg</text>
</a>
</g>
</g>
<!-- Node10&#45;&gt;Node11 -->
<g id="edge11" class="edge"><title>Node10&#45;&gt;Node11</title>
<path fill="none" stroke="midnightblue" d="M256.432,-326C270.486,-326 285.097,-326 297.797,-326"/>
<polygon fill="midnightblue" stroke="midnightblue" points="256.331,-322.5 246.331,-326 256.331,-329.5 256.331,-322.5"/>
</g>
<!-- Node12 -->
<g id="node12" class="node"><title>Node12</title>
<g id="a_node12"><a xlink:href="../../de/d0b/sql__config_8c.html#a40c77ee24f408639d36818385a51b8f5" target="_top" xlink:title="get_ike_cfg_by_id">
<polygon fill="none" stroke="black" points="441.5,-316.5 441.5,-335.5 536.5,-335.5 536.5,-316.5 441.5,-316.5"/>
<text text-anchor="middle" x="489" y="-323.5" font-family="Helvetica,sans-Serif" font-size="10.00">get_ike_cfg_by_id</text>
</a>
</g>
</g>
<!-- Node11&#45;&gt;Node12 -->
<g id="edge12" class="edge"><title>Node11&#45;&gt;Node12</title>
<path fill="none" stroke="midnightblue" d="M382.103,-326C400.85,-326 422.483,-326 441.291,-326"/>
<polygon fill="midnightblue" stroke="midnightblue" points="382.022,-322.5 372.022,-326 382.022,-329.5 382.022,-322.5"/>
</g>
<!-- Node13 -->
<g id="node13" class="node"><title>Node13</title>
<g id="a_node13"><a xlink:href="../../de/d0b/sql__config_8c.html#a3a520ee4f54435a2d044ae823ee8fcf4" target="_top" xlink:title="ike_enumerator_enumerate">
<polygon fill="none" stroke="black" points="422,-278.5 422,-297.5 556,-297.5 556,-278.5 422,-278.5"/>
<text text-anchor="middle" x="489" y="-285.5" font-family="Helvetica,sans-Serif" font-size="10.00">ike_enumerator_enumerate</text>
</a>
</g>
</g>
<!-- Node11&#45;&gt;Node13 -->
<g id="edge14" class="edge"><title>Node11&#45;&gt;Node13</title>
<path fill="none" stroke="midnightblue" d="M381.998,-314.5C403.686,-309.079 429.256,-302.686 449.848,-297.538"/>
<polygon fill="midnightblue" stroke="midnightblue" points="380.874,-311.174 372.022,-316.995 382.572,-317.965 380.874,-311.174"/>
</g>
<!-- Node12&#45;&gt;Node5 -->
<g id="edge13" class="edge"><title>Node12&#45;&gt;Node5</title>
<path fill="none" stroke="midnightblue" d="M546.785,-333.652C561.805,-335.676 577.69,-337.816 591.567,-339.686"/>
<polygon fill="midnightblue" stroke="midnightblue" points="546.937,-330.141 536.559,-332.274 546.002,-337.078 546.937,-330.141"/>
</g>
<!-- Node14 -->
<g id="node14" class="node"><title>Node14</title>
<g id="a_node14"><a xlink:href="../../de/d0b/sql__config_8c.html#abf4e5989ab421f332fe97abc07821a87" target="_top" xlink:title="METHOD">
<polygon fill="none" stroke="black" points="602,-278.5 602,-297.5 662,-297.5 662,-278.5 602,-278.5"/>
<text text-anchor="middle" x="632" y="-285.5" font-family="Helvetica,sans-Serif" font-size="10.00">METHOD</text>
</a>
</g>
</g>
<!-- Node13&#45;&gt;Node14 -->
<g id="edge15" class="edge"><title>Node13&#45;&gt;Node14</title>
<path fill="none" stroke="midnightblue" d="M566.503,-288C579.106,-288 591.452,-288 601.913,-288"/>
<polygon fill="midnightblue" stroke="midnightblue" points="566.371,-284.5 556.371,-288 566.371,-291.5 566.371,-284.5"/>
</g>
<!-- Node16 -->
<g id="node16" class="node"><title>Node16</title>
<g id="a_node16"><a xlink:href="../../d5/dd9/stroke__config_8c.html#a7fd6378ca1f61b85f24d47e4929477f3" target="_top" xlink:title="build_child_cfg">
<polygon fill="none" stroke="black" points="294.5,-278.5 294.5,-297.5 375.5,-297.5 375.5,-278.5 294.5,-278.5"/>
<text text-anchor="middle" x="335" y="-285.5" font-family="Helvetica,sans-Serif" font-size="10.00">build_child_cfg</text>
</a>
</g>
</g>
<!-- Node15&#45;&gt;Node16 -->
<g id="edge17" class="edge"><title>Node15&#45;&gt;Node16</title>
<path fill="none" stroke="midnightblue" d="M247.697,-288C263.033,-288 279.71,-288 294.28,-288"/>
<polygon fill="midnightblue" stroke="midnightblue" points="247.337,-284.5 237.337,-288 247.337,-291.5 247.337,-284.5"/>
</g>
<!-- Node18 -->
<g id="node18" class="node"><title>Node18</title>
<g id="a_node18"><a xlink:href="../../d5/dd9/stroke__config_8c.html#aef11238a05ecd23a0dec90d979db913a" target="_top" xlink:title="build_ike_cfg">
<polygon fill="none" stroke="black" points="298,-240.5 298,-259.5 372,-259.5 372,-240.5 298,-240.5"/>
<text text-anchor="middle" x="335" y="-247.5" font-family="Helvetica,sans-Serif" font-size="10.00">build_ike_cfg</text>
</a>
</g>
</g>
<!-- Node15&#45;&gt;Node18 -->
<g id="edge19" class="edge"><title>Node15&#45;&gt;Node18</title>
<path fill="none" stroke="midnightblue" d="M242.087,-275.682C260.772,-270.461 282.218,-264.468 299.692,-259.586"/>
<polygon fill="midnightblue" stroke="midnightblue" points="241.008,-272.349 232.319,-278.411 242.892,-279.091 241.008,-272.349"/>
</g>
<!-- Node17 -->
<g id="node17" class="node"><title>Node17</title>
<g id="a_node17"><a xlink:href="../../d5/dd9/stroke__config_8c.html#ad02e44f8a333774a5c0fee21daeb4f8a" target="_top" xlink:title="METHOD">
<polygon fill="none" stroke="black" points="459,-240.5 459,-259.5 519,-259.5 519,-240.5 459,-240.5"/>
<text text-anchor="middle" x="489" y="-247.5" font-family="Helvetica,sans-Serif" font-size="10.00">METHOD</text>
</a>
</g>
</g>
<!-- Node16&#45;&gt;Node17 -->
<g id="edge18" class="edge"><title>Node16&#45;&gt;Node17</title>
<path fill="none" stroke="midnightblue" d="M384.196,-275.951C408.697,-269.826 437.67,-262.583 458.772,-257.307"/>
<polygon fill="midnightblue" stroke="midnightblue" points="383.209,-272.59 374.356,-278.411 384.906,-279.381 383.209,-272.59"/>
</g>
<!-- Node18&#45;&gt;Node17 -->
<g id="edge20" class="edge"><title>Node18&#45;&gt;Node17</title>
<path fill="none" stroke="midnightblue" d="M382.351,-250C407.261,-250 437.213,-250 458.853,-250"/>
<polygon fill="midnightblue" stroke="midnightblue" points="382.022,-246.5 372.022,-250 382.022,-253.5 382.022,-246.5"/>
</g>
<!-- Node20 -->
<g id="node20" class="node"><title>Node20</title>
<g id="a_node20"><a xlink:href="../../d2/df2/uci__config_8c.html#aa917530cae853eb283cd8f0430550831" target="_top" xlink:title="METHOD">
<polygon fill="none" stroke="black" points="305,-202.5 305,-221.5 365,-221.5 365,-202.5 305,-202.5"/>
<text text-anchor="middle" x="335" y="-209.5" font-family="Helvetica,sans-Serif" font-size="10.00">METHOD</text>
</a>
</g>
</g>
<!-- Node19&#45;&gt;Node20 -->
<g id="edge22" class="edge"><title>Node19&#45;&gt;Node20</title>
<path fill="none" stroke="midnightblue" d="M242.093,-237.68C262.628,-231.942 286.496,-225.273 304.762,-220.169"/>
<polygon fill="midnightblue" stroke="midnightblue" points="241.008,-234.349 232.319,-240.411 242.892,-241.091 241.008,-234.349"/>
</g>
<!-- Node22 -->
<g id="node22" class="node"><title>Node22</title>
<g id="a_node22"><a xlink:href="../../d3/d95/config_8c.html#a209dd231bf733f9f8fd289c94214ff08" target="_top" xlink:title="load_peer_config">
<polygon fill="none" stroke="black" points="290,-164.5 290,-183.5 380,-183.5 380,-164.5 290,-164.5"/>
<text text-anchor="middle" x="335" y="-171.5" font-family="Helvetica,sans-Serif" font-size="10.00">load_peer_config</text>
</a>
</g>
</g>
<!-- Node21&#45;&gt;Node22 -->
<g id="edge24" class="edge"><title>Node21&#45;&gt;Node22</title>
<path fill="none" stroke="midnightblue" d="M242.087,-199.682C260.772,-194.461 282.218,-188.468 299.692,-183.586"/>
<polygon fill="midnightblue" stroke="midnightblue" points="241.008,-196.349 232.319,-202.411 242.892,-203.091 241.008,-196.349"/>
</g>
<!-- Node23 -->
<g id="node23" class="node"><title>Node23</title>
<g id="a_node23"><a xlink:href="../../d3/d95/config_8c.html#a492679e9382000ca562915367ac8c779" target="_top" xlink:title="METHOD">
<polygon fill="none" stroke="black" points="459,-164.5 459,-183.5 519,-183.5 519,-164.5 459,-164.5"/>
<text text-anchor="middle" x="489" y="-171.5" font-family="Helvetica,sans-Serif" font-size="10.00">METHOD</text>
</a>
</g>
</g>
<!-- Node22&#45;&gt;Node23 -->
<g id="edge25" class="edge"><title>Node22&#45;&gt;Node23</title>
<path fill="none" stroke="midnightblue" d="M390.384,-174C413.432,-174 439.372,-174 458.715,-174"/>
<polygon fill="midnightblue" stroke="midnightblue" points="390.373,-170.5 380.373,-174 390.373,-177.5 390.373,-170.5"/>
</g>
<!-- Node24&#45;&gt;Node22 -->
<g id="edge27" class="edge"><title>Node24&#45;&gt;Node22</title>
<path fill="none" stroke="midnightblue" d="M249.538,-174C262.748,-174 276.841,-174 289.654,-174"/>
<polygon fill="midnightblue" stroke="midnightblue" points="249.174,-170.5 239.174,-174 249.174,-177.5 249.174,-170.5"/>
</g>
<!-- Node26 -->
<g id="node26" class="node"><title>Node26</title>
<g id="a_node26"><a xlink:href="../../d4/d98/load__tester__plugin_8c.html#ad3cd284c65a2e9d8b8d04a2eb6705ebb" target="_top" xlink:title="register_load_tester">
<polygon fill="none" stroke="black" points="284,-120.5 284,-139.5 386,-139.5 386,-120.5 284,-120.5"/>
<text text-anchor="middle" x="335" y="-127.5" font-family="Helvetica,sans-Serif" font-size="10.00">register_load_tester</text>
</a>
</g>
</g>
<!-- Node25&#45;&gt;Node26 -->
<g id="edge29" class="edge"><title>Node25&#45;&gt;Node26</title>
<path fill="none" stroke="midnightblue" d="M255.27,-130C264.7,-130 274.412,-130 283.656,-130"/>
<polygon fill="midnightblue" stroke="midnightblue" points="255.185,-126.5 245.185,-130 255.184,-133.5 255.185,-126.5"/>
</g>
<!-- Node27 -->
<g id="node27" class="node"><title>Node27</title>
<g id="a_node27"><a xlink:href="../../d4/d98/load__tester__plugin_8c.html#ae4b7b8924ecf91ce1677b0c19650ad09" target="_top" xlink:title="METHOD">
<polygon fill="none" stroke="black" points="459,-120.5 459,-139.5 519,-139.5 519,-120.5 459,-120.5"/>
<text text-anchor="middle" x="489" y="-127.5" font-family="Helvetica,sans-Serif" font-size="10.00">METHOD</text>
</a>
</g>
</g>
<!-- Node26&#45;&gt;Node27 -->
<g id="edge30" class="edge"><title>Node26&#45;&gt;Node27</title>
<path fill="none" stroke="midnightblue" d="M396.242,-130C417.735,-130 440.986,-130 458.706,-130"/>
<polygon fill="midnightblue" stroke="midnightblue" points="396.192,-126.5 386.192,-130 396.192,-133.5 396.192,-126.5"/>
</g>
<!-- Node30 -->
<g id="node30" class="node"><title>Node30</title>
<g id="a_node30"><a xlink:href="../../da/de3/vici__config_8c.html#a5bd093a5f3352ee103e3b02f6c14f773" target="_top" xlink:title="CALLBACK">
<polygon fill="none" stroke="black" points="300.5,-38.5 300.5,-57.5 369.5,-57.5 369.5,-38.5 300.5,-38.5"/>
<text text-anchor="middle" x="335" y="-45.5" font-family="Helvetica,sans-Serif" font-size="10.00">CALLBACK</text>
</a>
</g>
</g>
<!-- Node29&#45;&gt;Node30 -->
<g id="edge33" class="edge"><title>Node29&#45;&gt;Node30</title>
<path fill="none" stroke="midnightblue" d="M249.167,-48C266.189,-48 284.712,-48 300.095,-48"/>
<polygon fill="midnightblue" stroke="midnightblue" points="248.805,-44.5001 238.804,-48 248.804,-51.5001 248.805,-44.5001"/>
</g>
</g>
</svg>
