<?xml version="1.0" encoding="UTF-8" standalone="no"?>
<!DOCTYPE svg PUBLIC "-//W3C//DTD SVG 1.1//EN"
 "http://www.w3.org/Graphics/SVG/1.1/DTD/svg11.dtd">
<!-- Generated by graphviz version 2.36.0 (20140111.2315)
 -->
<!-- Title: eap_tnc_create Pages: 1 -->
<svg width="354pt" height="142pt"
 viewBox="0.00 0.00 354.00 142.00" xmlns="http://www.w3.org/2000/svg" xmlns:xlink="http://www.w3.org/1999/xlink">
<g id="graph0" class="graph" transform="scale(1 1) rotate(0) translate(4 138)">
<title>eap_tnc_create</title>
<!-- Node1 -->
<g id="node1" class="node"><title>Node1</title>
<polygon fill="#bfbfbf" stroke="black" points="0.5,-57.5 0.5,-76.5 83.5,-76.5 83.5,-57.5 0.5,-57.5"/>
<text text-anchor="middle" x="42" y="-64.5" font-family="Helvetica,sans-Serif" font-size="10.00">eap_tnc_create</text>
</g>
<!-- Node2 -->
<g id="node2" class="node"><title>Node2</title>
<g id="a_node2"><a xlink:href="../../d6/dfa/group__eap__tnc__i.html#gacf2162862d3f510705f62381968e553f" target="_top" xlink:title="eap_tnc_create_peer">
<polygon fill="none" stroke="black" points="131.5,-114.5 131.5,-133.5 238.5,-133.5 238.5,-114.5 131.5,-114.5"/>
<text text-anchor="middle" x="185" y="-121.5" font-family="Helvetica,sans-Serif" font-size="10.00">eap_tnc_create_peer</text>
</a>
</g>
</g>
<!-- Node1&#45;&gt;Node2 -->
<g id="edge1" class="edge"><title>Node1&#45;&gt;Node2</title>
<path fill="none" stroke="midnightblue" d="M69.3342,-81.3839C83.9796,-89.0274 102.694,-98.2176 120,-105 128.849,-108.468 138.595,-111.664 147.756,-114.406"/>
<polygon fill="midnightblue" stroke="midnightblue" points="70.8283,-78.2146 60.3534,-76.6252 67.5508,-84.4 70.8283,-78.2146"/>
</g>
<!-- Node4 -->
<g id="node4" class="node"><title>Node4</title>
<g id="a_node4"><a xlink:href="../../d6/dfa/group__eap__tnc__i.html#gad8d5d06898b937d0dd2460a2786b709f" target="_top" xlink:title="eap_tnc_create_server">
<polygon fill="none" stroke="black" points="127,-76.5 127,-95.5 243,-95.5 243,-76.5 127,-76.5"/>
<text text-anchor="middle" x="185" y="-83.5" font-family="Helvetica,sans-Serif" font-size="10.00">eap_tnc_create_server</text>
</a>
</g>
</g>
<!-- Node1&#45;&gt;Node4 -->
<g id="edge3" class="edge"><title>Node1&#45;&gt;Node4</title>
<path fill="none" stroke="midnightblue" d="M93.807,-73.8463C104.51,-75.2886 115.871,-76.8195 126.791,-78.291"/>
<polygon fill="midnightblue" stroke="midnightblue" points="94.1609,-70.3625 83.783,-72.4956 93.226,-77.2998 94.1609,-70.3625"/>
</g>
<!-- Node5 -->
<g id="node5" class="node"><title>Node5</title>
<g id="a_node5"><a xlink:href="../../d6/dfa/group__eap__tnc__i.html#gafa4669dcee2066c1d343788a946b0840" target="_top" xlink:title="eap_tnc_pt_create_peer">
<polygon fill="none" stroke="black" points="124.5,-38.5 124.5,-57.5 245.5,-57.5 245.5,-38.5 124.5,-38.5"/>
<text text-anchor="middle" x="185" y="-45.5" font-family="Helvetica,sans-Serif" font-size="10.00">eap_tnc_pt_create_peer</text>
</a>
</g>
</g>
<!-- Node1&#45;&gt;Node5 -->
<g id="edge5" class="edge"><title>Node1&#45;&gt;Node5</title>
<path fill="none" stroke="midnightblue" d="M93.8732,-60.1447C103.786,-58.8089 114.262,-57.3973 124.427,-56.0276"/>
<polygon fill="midnightblue" stroke="midnightblue" points="93.226,-56.7002 83.783,-61.5044 94.1609,-63.6375 93.226,-56.7002"/>
</g>
<!-- Node6 -->
<g id="node6" class="node"><title>Node6</title>
<g id="a_node6"><a xlink:href="../../d6/dfa/group__eap__tnc__i.html#ga9c06cbf69aeb8d34ca696361ff1b3326" target="_top" xlink:title="eap_tnc_pt_create_server">
<polygon fill="none" stroke="black" points="120.5,-0.5 120.5,-19.5 249.5,-19.5 249.5,-0.5 120.5,-0.5"/>
<text text-anchor="middle" x="185" y="-7.5" font-family="Helvetica,sans-Serif" font-size="10.00">eap_tnc_pt_create_server</text>
</a>
</g>
</g>
<!-- Node1&#45;&gt;Node6 -->
<g id="edge7" class="edge"><title>Node1&#45;&gt;Node6</title>
<path fill="none" stroke="midnightblue" d="M69.3342,-52.6161C83.9796,-44.9726 102.694,-35.7824 120,-29 128.849,-25.532 138.595,-22.3363 147.756,-19.5943"/>
<polygon fill="midnightblue" stroke="midnightblue" points="67.5508,-49.6 60.3534,-57.3748 70.8283,-55.7854 67.5508,-49.6"/>
</g>
<!-- Node3 -->
<g id="node3" class="node"><title>Node3</title>
<g id="a_node3"><a xlink:href="../../d7/dc1/eap__tnc__plugin_8c.html#a93dd54b3425fe111eb28480de307a6fe" target="_top" xlink:title="METHOD">
<polygon fill="none" stroke="black" points="286,-57.5 286,-76.5 346,-76.5 346,-57.5 286,-57.5"/>
<text text-anchor="middle" x="316" y="-64.5" font-family="Helvetica,sans-Serif" font-size="10.00">METHOD</text>
</a>
</g>
</g>
<!-- Node2&#45;&gt;Node3 -->
<g id="edge2" class="edge"><title>Node2&#45;&gt;Node3</title>
<path fill="none" stroke="midnightblue" d="M233.31,-111.363C239.008,-109.43 244.686,-107.302 250,-105 268.232,-97.1018 287.728,-85.1862 300.56,-76.8083"/>
<polygon fill="midnightblue" stroke="midnightblue" points="232.215,-108.038 223.765,-114.429 234.356,-114.703 232.215,-108.038"/>
</g>
<!-- Node4&#45;&gt;Node3 -->
<g id="edge4" class="edge"><title>Node4&#45;&gt;Node3</title>
<path fill="none" stroke="midnightblue" d="M253.344,-76.0811C264.743,-74.4022 276.023,-72.7408 285.757,-71.3071"/>
<polygon fill="midnightblue" stroke="midnightblue" points="252.716,-72.6358 243.333,-77.5557 253.736,-79.5611 252.716,-72.6358"/>
</g>
<!-- Node5&#45;&gt;Node3 -->
<g id="edge6" class="edge"><title>Node5&#45;&gt;Node3</title>
<path fill="none" stroke="midnightblue" d="M255.777,-58.2772C266.378,-59.8386 276.788,-61.3719 285.851,-62.7068"/>
<polygon fill="midnightblue" stroke="midnightblue" points="255.994,-54.7716 245.591,-56.777 254.974,-61.6969 255.994,-54.7716"/>
</g>
<!-- Node6&#45;&gt;Node3 -->
<g id="edge8" class="edge"><title>Node6&#45;&gt;Node3</title>
<path fill="none" stroke="midnightblue" d="M233.31,-22.6373C239.008,-24.5704 244.686,-26.6977 250,-29 268.232,-36.8982 287.728,-48.8138 300.56,-57.1917"/>
<polygon fill="midnightblue" stroke="midnightblue" points="234.356,-19.2971 223.765,-19.571 232.215,-25.9617 234.356,-19.2971"/>
</g>
</g>
</svg>
