<?xml version="1.0" encoding="UTF-8" standalone="no"?>
<!DOCTYPE svg PUBLIC "-//W3C//DTD SVG 1.1//EN"
 "http://www.w3.org/Graphics/SVG/1.1/DTD/svg11.dtd">
<!-- Generated by graphviz version 2.36.0 (20140111.2315)
 -->
<!-- Title: x509_build_subjectAltNames Pages: 1 -->
<svg width="924pt" height="171pt"
 viewBox="0.00 0.00 924.00 171.00" xmlns="http://www.w3.org/2000/svg" xmlns:xlink="http://www.w3.org/1999/xlink">
<g id="graph0" class="graph" transform="scale(1 1) rotate(0) translate(4 167)">
<title>x509_build_subjectAltNames</title>
<!-- Node1 -->
<g id="node1" class="node"><title>Node1</title>
<polygon fill="#bfbfbf" stroke="black" points="0.5,-67.5 0.5,-86.5 143.5,-86.5 143.5,-67.5 0.5,-67.5"/>
<text text-anchor="middle" x="72" y="-74.5" font-family="Helvetica,sans-Serif" font-size="10.00">x509_build_subjectAltNames</text>
</g>
<!-- Node2 -->
<g id="node2" class="node"><title>Node2</title>
<g id="a_node2"><a xlink:href="../../d0/da0/group__asn1i.html#gafc47ce497a7d333125fe7b4919ecf156" target="_top" xlink:title="asn1_build_known_oid">
<polygon fill="none" stroke="black" points="180.5,-105.5 180.5,-124.5 295.5,-124.5 295.5,-105.5 180.5,-105.5"/>
<text text-anchor="middle" x="238" y="-112.5" font-family="Helvetica,sans-Serif" font-size="10.00">asn1_build_known_oid</text>
</a>
</g>
</g>
<!-- Node1&#45;&gt;Node2 -->
<g id="edge1" class="edge"><title>Node1&#45;&gt;Node2</title>
<path fill="none" stroke="midnightblue" d="M114.384,-86.589C136.123,-91.6261 162.957,-97.8438 185.975,-103.177"/>
<polygon fill="midnightblue" stroke="midnightblue" points="185.381,-106.632 195.913,-105.48 186.962,-99.8129 185.381,-106.632"/>
</g>
<!-- Node3 -->
<g id="node3" class="node"><title>Node3</title>
<g id="a_node3"><a xlink:href="../../d0/da0/group__asn1i.html#gaa5b766a452be068282b808b6b6f85f7e" target="_top" xlink:title="asn1_wrap">
<polygon fill="none" stroke="black" points="332,-48.5 332,-67.5 396,-67.5 396,-48.5 332,-48.5"/>
<text text-anchor="middle" x="364" y="-55.5" font-family="Helvetica,sans-Serif" font-size="10.00">asn1_wrap</text>
</a>
</g>
</g>
<!-- Node1&#45;&gt;Node3 -->
<g id="edge2" class="edge"><title>Node1&#45;&gt;Node3</title>
<path fill="none" stroke="midnightblue" d="M143.571,-72.3764C199.372,-68.7204 275.35,-63.7426 321.693,-60.7063"/>
<polygon fill="midnightblue" stroke="midnightblue" points="321.928,-64.1985 331.678,-60.0522 321.47,-57.2135 321.928,-64.1985"/>
</g>
<!-- Node13 -->
<g id="node13" class="node"><title>Node13</title>
<g id="a_node13"><a xlink:href="../../de/d1d/x509__cert_8c.html#a5fbde52219a523904c9ad06b1d5405c8" target="_top" xlink:title="build_generalName">
<polygon fill="none" stroke="black" points="188,-29.5 188,-48.5 288,-48.5 288,-29.5 188,-29.5"/>
<text text-anchor="middle" x="238" y="-36.5" font-family="Helvetica,sans-Serif" font-size="10.00">build_generalName</text>
</a>
</g>
</g>
<!-- Node1&#45;&gt;Node13 -->
<g id="edge14" class="edge"><title>Node1&#45;&gt;Node13</title>
<path fill="none" stroke="midnightblue" d="M114.384,-67.411C136.123,-62.3739 162.957,-56.1562 185.975,-50.8229"/>
<polygon fill="midnightblue" stroke="midnightblue" points="186.962,-54.1871 195.913,-48.5201 185.381,-47.3677 186.962,-54.1871"/>
</g>
<!-- Node4 -->
<g id="node4" class="node"><title>Node4</title>
<g id="a_node4"><a xlink:href="../../d0/da0/group__asn1i.html#gaa4b22cdadd3251eef380d585a8d3adc1" target="_top" xlink:title="asn1_build_object">
<polygon fill="none" stroke="black" points="432.5,-105.5 432.5,-124.5 527.5,-124.5 527.5,-105.5 432.5,-105.5"/>
<text text-anchor="middle" x="480" y="-112.5" font-family="Helvetica,sans-Serif" font-size="10.00">asn1_build_object</text>
</a>
</g>
</g>
<!-- Node3&#45;&gt;Node4 -->
<g id="edge3" class="edge"><title>Node3&#45;&gt;Node4</title>
<path fill="none" stroke="midnightblue" d="M384.081,-67.5405C402.33,-76.665 430.069,-90.5344 450.855,-100.927"/>
<polygon fill="midnightblue" stroke="midnightblue" points="449.347,-104.087 459.857,-105.428 452.478,-97.8257 449.347,-104.087"/>
</g>
<!-- Node7 -->
<g id="node7" class="node"><title>Node7</title>
<g id="a_node7"><a xlink:href="../../d4/d87/group__chunk.html#gaaa5a9811df1bd2ae5e331748f7fbaf75" target="_top" xlink:title="chunk_clear">
<polygon fill="none" stroke="black" points="445.5,-48.5 445.5,-67.5 514.5,-67.5 514.5,-48.5 445.5,-48.5"/>
<text text-anchor="middle" x="480" y="-55.5" font-family="Helvetica,sans-Serif" font-size="10.00">chunk_clear</text>
</a>
</g>
</g>
<!-- Node3&#45;&gt;Node7 -->
<g id="edge6" class="edge"><title>Node3&#45;&gt;Node7</title>
<path fill="none" stroke="midnightblue" d="M396.151,-58C408.219,-58 422.249,-58 435.295,-58"/>
<polygon fill="midnightblue" stroke="midnightblue" points="435.49,-61.5001 445.49,-58 435.49,-54.5001 435.49,-61.5001"/>
</g>
<!-- Node12 -->
<g id="node12" class="node"><title>Node12</title>
<g id="a_node12"><a xlink:href="../../da/dfc/settings__parser_8c.html#af07d89f5ceaea0c7c8252cc41fd75f37" target="_top" xlink:title="free">
<polygon fill="none" stroke="black" points="728.5,-0.5 728.5,-19.5 761.5,-19.5 761.5,-0.5 728.5,-0.5"/>
<text text-anchor="middle" x="745" y="-7.5" font-family="Helvetica,sans-Serif" font-size="10.00">free</text>
</a>
</g>
</g>
<!-- Node3&#45;&gt;Node12 -->
<g id="edge13" class="edge"><title>Node3&#45;&gt;Node12</title>
<path fill="none" stroke="midnightblue" d="M395.471,-48.4316C406.851,-45.1041 419.938,-41.5665 432,-39 536.537,-16.7578 664.379,-11.5747 718.187,-10.367"/>
<polygon fill="midnightblue" stroke="midnightblue" points="718.293,-13.8656 728.222,-10.1697 718.156,-6.867 718.293,-13.8656"/>
</g>
<!-- Node5 -->
<g id="node5" class="node"><title>Node5</title>
<g id="a_node5"><a xlink:href="../../d6/d36/asn1_8c.html#a72c37051a4d4cda52b0ab80893884abd" target="_top" xlink:title="asn1_code_length">
<polygon fill="none" stroke="black" points="564.5,-143.5 564.5,-162.5 659.5,-162.5 659.5,-143.5 564.5,-143.5"/>
<text text-anchor="middle" x="612" y="-150.5" font-family="Helvetica,sans-Serif" font-size="10.00">asn1_code_length</text>
</a>
</g>
</g>
<!-- Node4&#45;&gt;Node5 -->
<g id="edge4" class="edge"><title>Node4&#45;&gt;Node5</title>
<path fill="none" stroke="midnightblue" d="M513.804,-124.589C530.278,-129.404 550.443,-135.299 568.127,-140.468"/>
<polygon fill="midnightblue" stroke="midnightblue" points="567.626,-143.968 578.206,-143.414 569.59,-137.249 567.626,-143.968"/>
</g>
<!-- Node6 -->
<g id="node6" class="node"><title>Node6</title>
<g id="a_node6"><a xlink:href="../../da/dfc/settings__parser_8c.html#a5faf6a2d99f50a4655dd390199a8db7b" target="_top" xlink:title="malloc">
<polygon fill="none" stroke="black" points="589.5,-105.5 589.5,-124.5 634.5,-124.5 634.5,-105.5 589.5,-105.5"/>
<text text-anchor="middle" x="612" y="-112.5" font-family="Helvetica,sans-Serif" font-size="10.00">malloc</text>
</a>
</g>
</g>
<!-- Node4&#45;&gt;Node6 -->
<g id="edge5" class="edge"><title>Node4&#45;&gt;Node6</title>
<path fill="none" stroke="midnightblue" d="M527.566,-115C544.732,-115 563.769,-115 579.319,-115"/>
<polygon fill="midnightblue" stroke="midnightblue" points="579.461,-118.5 589.461,-115 579.461,-111.5 579.461,-118.5"/>
</g>
<!-- Node8 -->
<g id="node8" class="node"><title>Node8</title>
<g id="a_node8"><a xlink:href="../../dd/d74/group__memory__i.html#ga6d5ce21860b55e0c54353999c4f4f077" target="_top" xlink:title="memwipe">
<polygon fill="none" stroke="black" points="582.5,-67.5 582.5,-86.5 641.5,-86.5 641.5,-67.5 582.5,-67.5"/>
<text text-anchor="middle" x="612" y="-74.5" font-family="Helvetica,sans-Serif" font-size="10.00">memwipe</text>
</a>
</g>
</g>
<!-- Node7&#45;&gt;Node8 -->
<g id="edge7" class="edge"><title>Node7&#45;&gt;Node8</title>
<path fill="none" stroke="midnightblue" d="M514.817,-62.9424C532.381,-65.5096 553.927,-68.6586 572.171,-71.3251"/>
<polygon fill="midnightblue" stroke="midnightblue" points="571.797,-74.8074 582.198,-72.7905 572.809,-67.881 571.797,-74.8074"/>
</g>
<!-- Node11 -->
<g id="node11" class="node"><title>Node11</title>
<g id="a_node11"><a xlink:href="../../d4/d87/group__chunk.html#gaa86c84493369a4254d5801cdca20d458" target="_top" xlink:title="chunk_free">
<polygon fill="none" stroke="black" points="579.5,-29.5 579.5,-48.5 644.5,-48.5 644.5,-29.5 579.5,-29.5"/>
<text text-anchor="middle" x="612" y="-36.5" font-family="Helvetica,sans-Serif" font-size="10.00">chunk_free</text>
</a>
</g>
</g>
<!-- Node7&#45;&gt;Node11 -->
<g id="edge11" class="edge"><title>Node7&#45;&gt;Node11</title>
<path fill="none" stroke="midnightblue" d="M514.817,-53.0576C531.419,-50.631 551.579,-47.6846 569.145,-45.1173"/>
<polygon fill="midnightblue" stroke="midnightblue" points="569.753,-48.5657 579.141,-43.6563 568.74,-41.6393 569.753,-48.5657"/>
</g>
<!-- Node9 -->
<g id="node9" class="node"><title>Node9</title>
<g id="a_node9"><a xlink:href="../../dd/d74/group__memory__i.html#ga4d6f7708d6b8ea1ec0fbe97b3885ce1e" target="_top" xlink:title="memwipe_inline">
<polygon fill="none" stroke="black" points="830,-76.5 830,-95.5 916,-95.5 916,-76.5 830,-76.5"/>
<text text-anchor="middle" x="873" y="-83.5" font-family="Helvetica,sans-Serif" font-size="10.00">memwipe_inline</text>
</a>
</g>
</g>
<!-- Node8&#45;&gt;Node9 -->
<g id="edge8" class="edge"><title>Node8&#45;&gt;Node9</title>
<path fill="none" stroke="midnightblue" d="M641.747,-80.8899C657.696,-82.8533 677.909,-85.022 696,-86 737.516,-88.2443 784.621,-88.1028 819.645,-87.4777"/>
<polygon fill="midnightblue" stroke="midnightblue" points="819.718,-90.977 829.646,-87.2803 819.579,-83.9784 819.718,-90.977"/>
</g>
<!-- Node10 -->
<g id="node10" class="node"><title>Node10</title>
<g id="a_node10"><a xlink:href="../../dd/d74/group__memory__i.html#gabf6fa8b701d6f2052a551333b3694063" target="_top" xlink:title="memwipe_noinline">
<polygon fill="none" stroke="black" points="696.5,-57.5 696.5,-76.5 793.5,-76.5 793.5,-57.5 696.5,-57.5"/>
<text text-anchor="middle" x="745" y="-64.5" font-family="Helvetica,sans-Serif" font-size="10.00">memwipe_noinline</text>
</a>
</g>
</g>
<!-- Node8&#45;&gt;Node10 -->
<g id="edge9" class="edge"><title>Node8&#45;&gt;Node10</title>
<path fill="none" stroke="midnightblue" d="M641.749,-74.8055C654.846,-73.8056 670.843,-72.5845 686.259,-71.4077"/>
<polygon fill="midnightblue" stroke="midnightblue" points="686.564,-74.8947 696.269,-70.6436 686.031,-67.915 686.564,-74.8947"/>
</g>
<!-- Node10&#45;&gt;Node9 -->
<g id="edge10" class="edge"><title>Node10&#45;&gt;Node9</title>
<path fill="none" stroke="midnightblue" d="M793.635,-74.1831C802.15,-75.4671 811.064,-76.8113 819.702,-78.1138"/>
<polygon fill="midnightblue" stroke="midnightblue" points="819.264,-81.5872 829.674,-79.6175 820.308,-74.6655 819.264,-81.5872"/>
</g>
<!-- Node11&#45;&gt;Node12 -->
<g id="edge12" class="edge"><title>Node11&#45;&gt;Node12</title>
<path fill="none" stroke="midnightblue" d="M644.711,-31.9799C667.384,-26.9608 697.494,-20.2953 718.589,-15.6253"/>
<polygon fill="midnightblue" stroke="midnightblue" points="719.423,-19.0256 728.43,-13.4468 717.91,-12.1911 719.423,-19.0256"/>
</g>
<!-- Node13&#45;&gt;Node3 -->
<g id="edge15" class="edge"><title>Node13&#45;&gt;Node3</title>
<path fill="none" stroke="midnightblue" d="M288.008,-46.5093C299.192,-48.2229 310.966,-50.027 321.785,-51.6848"/>
<polygon fill="midnightblue" stroke="midnightblue" points="321.4,-55.1666 331.815,-53.2216 322.46,-48.2473 321.4,-55.1666"/>
</g>
</g>
</svg>
