<?xml version="1.0" encoding="UTF-8" standalone="no"?>
<!DOCTYPE svg PUBLIC "-//W3C//DTD SVG 1.1//EN"
 "http://www.w3.org/Graphics/SVG/1.1/DTD/svg11.dtd">
<!-- Generated by graphviz version 2.36.0 (20140111.2315)
 -->
<!-- Title: METHOD Pages: 1 -->
<svg width="320pt" height="28pt"
 viewBox="0.00 0.00 320.00 28.00" xmlns="http://www.w3.org/2000/svg" xmlns:xlink="http://www.w3.org/1999/xlink">
<g id="graph0" class="graph" transform="scale(1 1) rotate(0) translate(4 24)">
<title>METHOD</title>
<!-- Node1 -->
<g id="node1" class="node"><title>Node1</title>
<polygon fill="#bfbfbf" stroke="black" points="0,-0.5 0,-19.5 60,-19.5 60,-0.5 0,-0.5"/>
<text text-anchor="middle" x="30" y="-7.5" font-family="Helvetica,sans-Serif" font-size="10.00">METHOD</text>
</g>
<!-- Node2 -->
<g id="node2" class="node"><title>Node2</title>
<g id="a_node2"><a xlink:href="../../dd/d90/gcrypt__rsa__public__key_8c.html#af79c8931ae94bfee1c8167129589448d" target="_top" xlink:title="gcrypt_rsa_find_token">
<polygon fill="none" stroke="black" points="96.5,-0.5 96.5,-19.5 209.5,-19.5 209.5,-0.5 96.5,-0.5"/>
<text text-anchor="middle" x="153" y="-7.5" font-family="Helvetica,sans-Serif" font-size="10.00">gcrypt_rsa_find_token</text>
</a>
</g>
</g>
<!-- Node1&#45;&gt;Node2 -->
<g id="edge1" class="edge"><title>Node1&#45;&gt;Node2</title>
<path fill="none" stroke="midnightblue" d="M60.2907,-10C68.2182,-10 77.1302,-10 86.2022,-10"/>
<polygon fill="midnightblue" stroke="midnightblue" points="86.469,-13.5001 96.469,-10 86.469,-6.5001 86.469,-13.5001"/>
</g>
<!-- Node3 -->
<g id="node3" class="node"><title>Node3</title>
<g id="a_node3"><a xlink:href="../../d4/d87/group__chunk.html#gaaabd31666a00f250bb4a339c82373be8" target="_top" xlink:title="chunk_skip">
<polygon fill="none" stroke="black" points="246,-0.5 246,-19.5 312,-19.5 312,-0.5 246,-0.5"/>
<text text-anchor="middle" x="279" y="-7.5" font-family="Helvetica,sans-Serif" font-size="10.00">chunk_skip</text>
</a>
</g>
</g>
<!-- Node2&#45;&gt;Node3 -->
<g id="edge2" class="edge"><title>Node2&#45;&gt;Node3</title>
<path fill="none" stroke="midnightblue" d="M209.833,-10C218.511,-10 227.352,-10 235.667,-10"/>
<polygon fill="midnightblue" stroke="midnightblue" points="235.865,-13.5001 245.865,-10 235.865,-6.5001 235.865,-13.5001"/>
</g>
</g>
</svg>
