<?xml version="1.0" encoding="UTF-8" standalone="no"?>
<!DOCTYPE svg PUBLIC "-//W3C//DTD SVG 1.1//EN"
 "http://www.w3.org/Graphics/SVG/1.1/DTD/svg11.dtd">
<!-- Generated by graphviz version 2.36.0 (20140111.2315)
 -->
<!-- Title: private_sender_t Pages: 1 -->
<svg width="358pt" height="174pt"
 viewBox="0.00 0.00 358.00 174.00" xmlns="http://www.w3.org/2000/svg" xmlns:xlink="http://www.w3.org/1999/xlink">
<g id="graph0" class="graph" transform="scale(1 1) rotate(0) translate(4 170)">
<title>private_sender_t</title>
<!-- Node1 -->
<g id="node1" class="node"><title>Node1</title>
<polygon fill="#bfbfbf" stroke="black" points="77.5,-0.5 77.5,-19.5 166.5,-19.5 166.5,-0.5 77.5,-0.5"/>
<text text-anchor="middle" x="122" y="-7.5" font-family="Helvetica,sans-Serif" font-size="10.00">private_sender_t</text>
</g>
<!-- Node2 -->
<g id="node2" class="node"><title>Node2</title>
<polygon fill="none" stroke="#bfbfbf" points="-0.5,-78.5 -0.5,-97.5 40.5,-97.5 40.5,-78.5 -0.5,-78.5"/>
<text text-anchor="middle" x="20" y="-85.5" font-family="Helvetica,sans-Serif" font-size="10.00">struct</text>
</g>
<!-- Node2&#45;&gt;Node1 -->
<g id="edge1" class="edge"><title>Node2&#45;&gt;Node1</title>
<path fill="none" stroke="#9a32cd" stroke-dasharray="5,2" d="M32.2425,-70.2092C40.3753,-59.9276 51.7766,-47.0515 64,-38 74.3543,-30.3326 87.2337,-24.07 98.2239,-19.5135"/>
<polygon fill="#9a32cd" stroke="#9a32cd" points="29.2686,-68.3377 25.9984,-78.4153 34.8392,-72.5766 29.2686,-68.3377"/>
<text text-anchor="middle" x="78.5" y="-46.5" font-family="Helvetica,sans-Serif" font-size="10.00"> public</text>
</g>
<!-- Node3 -->
<g id="node3" class="node"><title>Node3</title>
<g id="a_node3"><a xlink:href="../../dd/d77/structmutex__t.html" target="_top" xlink:title="mutex_t">
<polygon fill="none" stroke="black" points="59,-78.5 59,-97.5 111,-97.5 111,-78.5 59,-78.5"/>
<text text-anchor="middle" x="85" y="-85.5" font-family="Helvetica,sans-Serif" font-size="10.00">mutex_t</text>
</a>
</g>
</g>
<!-- Node3&#45;&gt;Node1 -->
<g id="edge2" class="edge"><title>Node3&#45;&gt;Node1</title>
<path fill="none" stroke="#9a32cd" stroke-dasharray="5,2" d="M92.1669,-68.7319C95.9922,-59.4036 100.945,-47.9527 106,-38 109.158,-31.7816 113.158,-25.0316 116.369,-19.8362"/>
<polygon fill="#9a32cd" stroke="#9a32cd" points="88.8561,-67.5846 88.382,-78.1688 95.353,-70.1904 88.8561,-67.5846"/>
<text text-anchor="middle" x="121.5" y="-46.5" font-family="Helvetica,sans-Serif" font-size="10.00"> mutex</text>
</g>
<!-- Node4 -->
<g id="node4" class="node"><title>Node4</title>
<g id="a_node4"><a xlink:href="../../d7/dab/structcondvar__t.html" target="_top" xlink:title="condvar_t">
<polygon fill="none" stroke="black" points="129.5,-78.5 129.5,-97.5 188.5,-97.5 188.5,-78.5 129.5,-78.5"/>
<text text-anchor="middle" x="159" y="-85.5" font-family="Helvetica,sans-Serif" font-size="10.00">condvar_t</text>
</a>
</g>
</g>
<!-- Node4&#45;&gt;Node1 -->
<g id="edge3" class="edge"><title>Node4&#45;&gt;Node1</title>
<path fill="none" stroke="#9a32cd" stroke-dasharray="5,2" d="M151.277,-68.8176C147.213,-59.5117 142.039,-48.055 137,-38 133.925,-31.8637 130.175,-25.1137 127.194,-19.8977"/>
<polygon fill="#9a32cd" stroke="#9a32cd" points="148.156,-70.4208 155.326,-78.221 154.585,-67.6521 148.156,-70.4208"/>
<text text-anchor="middle" x="157.5" y="-52" font-family="Helvetica,sans-Serif" font-size="10.00"> got</text>
<text text-anchor="middle" x="157.5" y="-41" font-family="Helvetica,sans-Serif" font-size="10.00">sent</text>
</g>
<!-- Node5 -->
<g id="node5" class="node"><title>Node5</title>
<g id="a_node5"><a xlink:href="../../dc/de6/structlinked__list__t.html" target="_top" xlink:title="linked_list_t">
<polygon fill="none" stroke="black" points="207,-78.5 207,-97.5 275,-97.5 275,-78.5 207,-78.5"/>
<text text-anchor="middle" x="241" y="-85.5" font-family="Helvetica,sans-Serif" font-size="10.00">linked_list_t</text>
</a>
</g>
</g>
<!-- Node5&#45;&gt;Node1 -->
<g id="edge4" class="edge"><title>Node5&#45;&gt;Node1</title>
<path fill="none" stroke="#9a32cd" stroke-dasharray="5,2" d="M221.112,-72.2241C207.307,-62.1818 188.352,-48.8104 171,-38 160.448,-31.4258 148.198,-24.6758 138.586,-19.5693"/>
<polygon fill="#9a32cd" stroke="#9a32cd" points="219.237,-75.1897 229.371,-78.2822 223.377,-69.5453 219.237,-75.1897"/>
<text text-anchor="middle" x="210" y="-46.5" font-family="Helvetica,sans-Serif" font-size="10.00"> list</text>
</g>
<!-- Node5&#45;&gt;Node5 -->
<g id="edge5" class="edge"><title>Node5&#45;&gt;Node5</title>
<path fill="none" stroke="#9a32cd" stroke-dasharray="5,2" d="M285.148,-93.333C289.925,-92.3094 293,-90.5317 293,-88 293,-83.9492 285.127,-81.8289 275.008,-81.639"/>
<polygon fill="#9a32cd" stroke="#9a32cd" points="284.604,-89.87 275.008,-94.361 285.311,-96.8343 284.604,-89.87"/>
<text text-anchor="middle" x="321.5" y="-85.5" font-family="Helvetica,sans-Serif" font-size="10.00"> clone_offset</text>
</g>
<!-- Node6 -->
<g id="node6" class="node"><title>Node6</title>
<g id="a_node6"><a xlink:href="../../db/dd3/structenumerator__t.html" target="_top" xlink:title="enumerator_t">
<polygon fill="none" stroke="black" points="204,-146.5 204,-165.5 278,-165.5 278,-146.5 204,-146.5"/>
<text text-anchor="middle" x="241" y="-153.5" font-family="Helvetica,sans-Serif" font-size="10.00">enumerator_t</text>
</a>
</g>
</g>
<!-- Node6&#45;&gt;Node5 -->
<g id="edge6" class="edge"><title>Node6&#45;&gt;Node5</title>
<path fill="none" stroke="#9a32cd" stroke-dasharray="5,2" d="M241,-136.041C241,-123.472 241,-107.563 241,-97.8411"/>
<polygon fill="#9a32cd" stroke="#9a32cd" points="237.5,-136.372 241,-146.372 244.5,-136.372 237.5,-136.372"/>
<text text-anchor="middle" x="283.5" y="-119.5" font-family="Helvetica,sans-Serif" font-size="10.00"> create_enumerator</text>
</g>
</g>
</svg>
