<?xml version="1.0" encoding="UTF-8" standalone="no"?>
<!DOCTYPE svg PUBLIC "-//W3C//DTD SVG 1.1//EN"
 "http://www.w3.org/Graphics/SVG/1.1/DTD/svg11.dtd">
<!-- Generated by graphviz version 2.36.0 (20140111.2315)
 -->
<!-- Title: usage Pages: 1 -->
<svg width="506pt" height="218pt"
 viewBox="0.00 0.00 506.00 218.00" xmlns="http://www.w3.org/2000/svg" xmlns:xlink="http://www.w3.org/1999/xlink">
<g id="graph0" class="graph" transform="scale(1 1) rotate(0) translate(4 214)">
<title>usage</title>
<!-- Node1 -->
<g id="node1" class="node"><title>Node1</title>
<polygon fill="#bfbfbf" stroke="black" points="0.5,-142.5 0.5,-161.5 43.5,-161.5 43.5,-142.5 0.5,-142.5"/>
<text text-anchor="middle" x="22" y="-149.5" font-family="Helvetica,sans-Serif" font-size="10.00">usage</text>
</g>
<!-- Node2 -->
<g id="node2" class="node"><title>Node2</title>
<g id="a_node2"><a xlink:href="../../dc/db6/aikgen_8c.html#abe4a6e63ad9406ae74857f7ec28cf40c" target="_top" xlink:title="exit aikgen ">
<polygon fill="none" stroke="black" points="80,-142.5 80,-161.5 146,-161.5 146,-142.5 80,-142.5"/>
<text text-anchor="middle" x="113" y="-149.5" font-family="Helvetica,sans-Serif" font-size="10.00">exit_aikgen</text>
</a>
</g>
</g>
<!-- Node1&#45;&gt;Node2 -->
<g id="edge1" class="edge"><title>Node1&#45;&gt;Node2</title>
<path fill="none" stroke="midnightblue" d="M43.6421,-152C51.4771,-152 60.713,-152 69.819,-152"/>
<polygon fill="midnightblue" stroke="midnightblue" points="69.9633,-155.5 79.9633,-152 69.9632,-148.5 69.9633,-155.5"/>
</g>
<!-- Node3 -->
<g id="node3" class="node"><title>Node3</title>
<g id="a_node3"><a xlink:href="../../da/dfc/settings__parser_8c.html#af07d89f5ceaea0c7c8252cc41fd75f37" target="_top" xlink:title="free">
<polygon fill="none" stroke="black" points="317.5,-190.5 317.5,-209.5 350.5,-209.5 350.5,-190.5 317.5,-190.5"/>
<text text-anchor="middle" x="334" y="-197.5" font-family="Helvetica,sans-Serif" font-size="10.00">free</text>
</a>
</g>
</g>
<!-- Node2&#45;&gt;Node3 -->
<g id="edge2" class="edge"><title>Node2&#45;&gt;Node3</title>
<path fill="none" stroke="midnightblue" d="M146.314,-159.083C190.128,-168.686 267.486,-185.641 307.473,-194.405"/>
<polygon fill="midnightblue" stroke="midnightblue" points="306.957,-197.875 317.475,-196.597 308.456,-191.037 306.957,-197.875"/>
</g>
<!-- Node4 -->
<g id="node4" class="node"><title>Node4</title>
<g id="a_node4"><a xlink:href="../../d3/d99/group__library.html#gab33af64193c983bf43d09c198c4a45ab" target="_top" xlink:title="library_deinit">
<polygon fill="none" stroke="black" points="182.5,-114.5 182.5,-133.5 253.5,-133.5 253.5,-114.5 182.5,-114.5"/>
<text text-anchor="middle" x="218" y="-121.5" font-family="Helvetica,sans-Serif" font-size="10.00">library_deinit</text>
</a>
</g>
</g>
<!-- Node2&#45;&gt;Node4 -->
<g id="edge3" class="edge"><title>Node2&#45;&gt;Node4</title>
<path fill="none" stroke="midnightblue" d="M146.025,-143.294C154.435,-141.008 163.657,-138.501 172.589,-136.073"/>
<polygon fill="midnightblue" stroke="midnightblue" points="173.76,-139.382 182.492,-133.381 171.924,-132.627 173.76,-139.382"/>
</g>
<!-- Node4&#45;&gt;Node3 -->
<g id="edge12" class="edge"><title>Node4&#45;&gt;Node3</title>
<path fill="none" stroke="midnightblue" d="M229.412,-133.821C242.704,-146 266.768,-166.876 290,-181 295.54,-184.368 301.782,-187.475 307.757,-190.159"/>
<polygon fill="midnightblue" stroke="midnightblue" points="306.817,-193.563 317.39,-194.248 309.552,-187.119 306.817,-193.563"/>
</g>
<!-- Node5 -->
<g id="node5" class="node"><title>Node5</title>
<g id="a_node5"><a xlink:href="../../d0/de0/group__atomics__i.html#gaddce2b430444b26bf77138b37bba5eab" target="_top" xlink:title="ref_put">
<polygon fill="none" stroke="black" points="310.5,-152.5 310.5,-171.5 357.5,-171.5 357.5,-152.5 310.5,-152.5"/>
<text text-anchor="middle" x="334" y="-159.5" font-family="Helvetica,sans-Serif" font-size="10.00">ref_put</text>
</a>
</g>
</g>
<!-- Node4&#45;&gt;Node5 -->
<g id="edge4" class="edge"><title>Node4&#45;&gt;Node5</title>
<path fill="none" stroke="midnightblue" d="M247.767,-133.589C263.826,-138.942 283.886,-145.629 300.509,-151.17"/>
<polygon fill="midnightblue" stroke="midnightblue" points="299.756,-154.608 310.349,-154.45 301.969,-147.967 299.756,-154.608"/>
</g>
<!-- Node6 -->
<g id="node6" class="node"><title>Node6</title>
<g id="a_node6"><a xlink:href="../../d3/d6d/group__backtrace.html#ga4f9db03fdb801bb291adc303d32c9b9d" target="_top" xlink:title="backtrace_deinit">
<polygon fill="none" stroke="black" points="290,-114.5 290,-133.5 378,-133.5 378,-114.5 290,-114.5"/>
<text text-anchor="middle" x="334" y="-121.5" font-family="Helvetica,sans-Serif" font-size="10.00">backtrace_deinit</text>
</a>
</g>
</g>
<!-- Node4&#45;&gt;Node6 -->
<g id="edge5" class="edge"><title>Node4&#45;&gt;Node6</title>
<path fill="none" stroke="midnightblue" d="M253.513,-124C261.709,-124 270.643,-124 279.467,-124"/>
<polygon fill="midnightblue" stroke="midnightblue" points="279.722,-127.5 289.722,-124 279.722,-120.5 279.722,-127.5"/>
</g>
<!-- Node7 -->
<g id="node7" class="node"><title>Node7</title>
<g id="a_node7"><a xlink:href="../../d1/d0e/group__array.html#ga6590512c4cab7571ee8d4af17ba13d29" target="_top" xlink:title="arrays_deinit">
<polygon fill="none" stroke="black" points="298,-76.5 298,-95.5 370,-95.5 370,-76.5 298,-76.5"/>
<text text-anchor="middle" x="334" y="-83.5" font-family="Helvetica,sans-Serif" font-size="10.00">arrays_deinit</text>
</a>
</g>
</g>
<!-- Node4&#45;&gt;Node7 -->
<g id="edge6" class="edge"><title>Node4&#45;&gt;Node7</title>
<path fill="none" stroke="midnightblue" d="M247.767,-114.411C261.943,-109.686 279.237,-103.921 294.532,-98.8226"/>
<polygon fill="midnightblue" stroke="midnightblue" points="295.862,-102.069 304.242,-95.5859 293.649,-95.4279 295.862,-102.069"/>
</g>
<!-- Node8 -->
<g id="node8" class="node"><title>Node8</title>
<g id="a_node8"><a xlink:href="../../d6/d87/group__utils__i.html#gad98c99a6a31002d181dbd1428ad7b36e" target="_top" xlink:title="utils_deinit">
<polygon fill="none" stroke="black" points="302.5,-38.5 302.5,-57.5 365.5,-57.5 365.5,-38.5 302.5,-38.5"/>
<text text-anchor="middle" x="334" y="-45.5" font-family="Helvetica,sans-Serif" font-size="10.00">utils_deinit</text>
</a>
</g>
</g>
<!-- Node4&#45;&gt;Node8 -->
<g id="edge7" class="edge"><title>Node4&#45;&gt;Node8</title>
<path fill="none" stroke="midnightblue" d="M229.412,-114.179C242.704,-102 266.768,-81.1242 290,-67 292.949,-65.2073 296.096,-63.4885 299.297,-61.8681"/>
<polygon fill="midnightblue" stroke="midnightblue" points="300.799,-65.0294 308.335,-57.5822 297.799,-58.7045 300.799,-65.0294"/>
</g>
<!-- Node12 -->
<g id="node12" class="node"><title>Node12</title>
<g id="a_node12"><a xlink:href="../../da/dd8/group__thread.html#gaa290ba7daffccd55780e0a3b7fea41da" target="_top" xlink:title="threads_deinit">
<polygon fill="none" stroke="black" points="295.5,-0.5 295.5,-19.5 372.5,-19.5 372.5,-0.5 295.5,-0.5"/>
<text text-anchor="middle" x="334" y="-7.5" font-family="Helvetica,sans-Serif" font-size="10.00">threads_deinit</text>
</a>
</g>
</g>
<!-- Node4&#45;&gt;Node12 -->
<g id="edge11" class="edge"><title>Node4&#45;&gt;Node12</title>
<path fill="none" stroke="midnightblue" d="M223.978,-114.361C234.091,-95.6099 258.753,-53.8843 290,-29 292.011,-27.3984 294.178,-25.9033 296.433,-24.5127"/>
<polygon fill="midnightblue" stroke="midnightblue" points="298.278,-27.4939 305.415,-19.6632 294.953,-21.3343 298.278,-27.4939"/>
</g>
<!-- Node9 -->
<g id="node9" class="node"><title>Node9</title>
<g id="a_node9"><a xlink:href="../../da/d9b/group__windows.html#ga45ae391e1cdf4fa6a54fcbf832adc3cd" target="_top" xlink:title="windows_deinit">
<polygon fill="none" stroke="black" points="414.5,-76.5 414.5,-95.5 497.5,-95.5 497.5,-76.5 414.5,-76.5"/>
<text text-anchor="middle" x="456" y="-83.5" font-family="Helvetica,sans-Serif" font-size="10.00">windows_deinit</text>
</a>
</g>
</g>
<!-- Node8&#45;&gt;Node9 -->
<g id="edge8" class="edge"><title>Node8&#45;&gt;Node9</title>
<path fill="none" stroke="midnightblue" d="M365.281,-57.589C380.346,-62.3594 398.754,-68.1888 414.967,-73.3229"/>
<polygon fill="midnightblue" stroke="midnightblue" points="414.139,-76.7318 424.729,-76.4141 416.252,-70.0584 414.139,-76.7318"/>
</g>
<!-- Node10 -->
<g id="node10" class="node"><title>Node10</title>
<g id="a_node10"><a xlink:href="../../d0/de0/group__atomics__i.html#ga75cce9b5406e697c2d426091795d89a3" target="_top" xlink:title="atomics_deinit">
<polygon fill="none" stroke="black" points="416,-38.5 416,-57.5 496,-57.5 496,-38.5 416,-38.5"/>
<text text-anchor="middle" x="456" y="-45.5" font-family="Helvetica,sans-Serif" font-size="10.00">atomics_deinit</text>
</a>
</g>
</g>
<!-- Node8&#45;&gt;Node10 -->
<g id="edge9" class="edge"><title>Node8&#45;&gt;Node10</title>
<path fill="none" stroke="midnightblue" d="M365.592,-48C377.765,-48 392.085,-48 405.653,-48"/>
<polygon fill="midnightblue" stroke="midnightblue" points="405.835,-51.5001 415.835,-48 405.835,-44.5001 405.835,-51.5001"/>
</g>
<!-- Node11 -->
<g id="node11" class="node"><title>Node11</title>
<g id="a_node11"><a xlink:href="../../d7/d20/group__strerror__i.html#ga01d68430f2df6d7e427d9a0d8d54784b" target="_top" xlink:title="strerror_deinit">
<polygon fill="none" stroke="black" points="418,-0.5 418,-19.5 494,-19.5 494,-0.5 418,-0.5"/>
<text text-anchor="middle" x="456" y="-7.5" font-family="Helvetica,sans-Serif" font-size="10.00">strerror_deinit</text>
</a>
</g>
</g>
<!-- Node8&#45;&gt;Node11 -->
<g id="edge10" class="edge"><title>Node8&#45;&gt;Node11</title>
<path fill="none" stroke="midnightblue" d="M365.281,-38.411C380.346,-33.6406 398.754,-27.8112 414.967,-22.6771"/>
<polygon fill="midnightblue" stroke="midnightblue" points="416.252,-25.9416 424.729,-19.5859 414.139,-19.2682 416.252,-25.9416"/>
</g>
</g>
</svg>
