<?xml version="1.0" encoding="UTF-8" standalone="no"?>
<!DOCTYPE svg PUBLIC "-//W3C//DTD SVG 1.1//EN"
 "http://www.w3.org/Graphics/SVG/1.1/DTD/svg11.dtd">
<!-- Generated by graphviz version 2.36.0 (20140111.2315)
 -->
<!-- Title: find_compatible_feature Pages: 1 -->
<svg width="518pt" height="66pt"
 viewBox="0.00 0.00 518.00 66.00" xmlns="http://www.w3.org/2000/svg" xmlns:xlink="http://www.w3.org/1999/xlink">
<g id="graph0" class="graph" transform="scale(1 1) rotate(0) translate(4 62)">
<title>find_compatible_feature</title>
<!-- Node1 -->
<g id="node1" class="node"><title>Node1</title>
<polygon fill="#bfbfbf" stroke="black" points="0,-19.5 0,-38.5 120,-38.5 120,-19.5 0,-19.5"/>
<text text-anchor="middle" x="60" y="-26.5" font-family="Helvetica,sans-Serif" font-size="10.00">find_compatible_feature</text>
</g>
<!-- Node2 -->
<g id="node2" class="node"><title>Node2</title>
<g id="a_node2"><a xlink:href="../../db/d66/plugin__loader_8c.html#ab6dedcda08ec1ff37033e5c7a3a9c6e7" target="_top" xlink:title="loaded_feature_matches">
<polygon fill="none" stroke="black" points="156.5,-19.5 156.5,-38.5 279.5,-38.5 279.5,-19.5 156.5,-19.5"/>
<text text-anchor="middle" x="218" y="-26.5" font-family="Helvetica,sans-Serif" font-size="10.00">loaded_feature_matches</text>
</a>
</g>
</g>
<!-- Node1&#45;&gt;Node2 -->
<g id="edge1" class="edge"><title>Node1&#45;&gt;Node2</title>
<path fill="none" stroke="midnightblue" d="M120.422,-29C128.901,-29 137.69,-29 146.357,-29"/>
<polygon fill="midnightblue" stroke="midnightblue" points="146.45,-32.5001 156.45,-29 146.45,-25.5001 146.45,-32.5001"/>
</g>
<!-- Node3 -->
<g id="node3" class="node"><title>Node3</title>
<g id="a_node3"><a xlink:href="../../d7/dfa/group__plugin__feature.html#ga89a32b0f1d9e9c21dd77a090d9d709f4" target="_top" xlink:title="plugin_feature_matches">
<polygon fill="none" stroke="black" points="316,-38.5 316,-57.5 436,-57.5 436,-38.5 316,-38.5"/>
<text text-anchor="middle" x="376" y="-45.5" font-family="Helvetica,sans-Serif" font-size="10.00">plugin_feature_matches</text>
</a>
</g>
</g>
<!-- Node2&#45;&gt;Node3 -->
<g id="edge2" class="edge"><title>Node2&#45;&gt;Node3</title>
<path fill="none" stroke="midnightblue" d="M279.76,-36.4003C288.307,-37.4413 297.145,-38.5177 305.835,-39.576"/>
<polygon fill="midnightblue" stroke="midnightblue" points="305.592,-43.0722 315.941,-40.807 306.438,-36.1235 305.592,-43.0722"/>
</g>
<!-- Node5 -->
<g id="node5" class="node"><title>Node5</title>
<g id="a_node5"><a xlink:href="../../db/d66/plugin__loader_8c.html#ad54f76f41fa2531f887f8342ec7acf39" target="_top" xlink:title="is_feature_loaded">
<polygon fill="none" stroke="black" points="329.5,-0.5 329.5,-19.5 422.5,-19.5 422.5,-0.5 329.5,-0.5"/>
<text text-anchor="middle" x="376" y="-7.5" font-family="Helvetica,sans-Serif" font-size="10.00">is_feature_loaded</text>
</a>
</g>
</g>
<!-- Node2&#45;&gt;Node5 -->
<g id="edge4" class="edge"><title>Node2&#45;&gt;Node5</title>
<path fill="none" stroke="midnightblue" d="M279.76,-21.5997C292.721,-20.0211 306.351,-18.3611 319.118,-16.8061"/>
<polygon fill="midnightblue" stroke="midnightblue" points="319.64,-20.2685 329.144,-15.5851 318.794,-13.3198 319.64,-20.2685"/>
</g>
<!-- Node4 -->
<g id="node4" class="node"><title>Node4</title>
<g id="a_node4"><a xlink:href="../../d4/d40/group__string__i.html#ga65c3d08890165aaa4663c72d07f93bb7" target="_top" xlink:title="streq">
<polygon fill="none" stroke="black" points="472,-38.5 472,-57.5 510,-57.5 510,-38.5 472,-38.5"/>
<text text-anchor="middle" x="491" y="-45.5" font-family="Helvetica,sans-Serif" font-size="10.00">streq</text>
</a>
</g>
</g>
<!-- Node3&#45;&gt;Node4 -->
<g id="edge3" class="edge"><title>Node3&#45;&gt;Node4</title>
<path fill="none" stroke="midnightblue" d="M436.148,-48C445.105,-48 453.974,-48 461.851,-48"/>
<polygon fill="midnightblue" stroke="midnightblue" points="461.892,-51.5001 471.892,-48 461.892,-44.5001 461.892,-51.5001"/>
</g>
</g>
</svg>
