<?xml version="1.0" encoding="UTF-8" standalone="no"?>
<!DOCTYPE svg PUBLIC "-//W3C//DTD SVG 1.1//EN"
 "http://www.w3.org/Graphics/SVG/1.1/DTD/svg11.dtd">
<!-- Generated by graphviz version 2.36.0 (20140111.2315)
 -->
<!-- Title: unregister_features Pages: 1 -->
<svg width="310pt" height="28pt"
 viewBox="0.00 0.00 310.00 28.00" xmlns="http://www.w3.org/2000/svg" xmlns:xlink="http://www.w3.org/1999/xlink">
<g id="graph0" class="graph" transform="scale(1 1) rotate(0) translate(4 24)">
<title>unregister_features</title>
<!-- Node1 -->
<g id="node1" class="node"><title>Node1</title>
<polygon fill="#bfbfbf" stroke="black" points="0,-0.5 0,-19.5 100,-19.5 100,-0.5 0,-0.5"/>
<text text-anchor="middle" x="50" y="-7.5" font-family="Helvetica,sans-Serif" font-size="10.00">unregister_features</text>
</g>
<!-- Node2 -->
<g id="node2" class="node"><title>Node2</title>
<g id="a_node2"><a xlink:href="../../db/d66/plugin__loader_8c.html#ad729257f342c2d994867fbb878f217db" target="_top" xlink:title="unregister_feature">
<polygon fill="none" stroke="black" points="136.5,-0.5 136.5,-19.5 231.5,-19.5 231.5,-0.5 136.5,-0.5"/>
<text text-anchor="middle" x="184" y="-7.5" font-family="Helvetica,sans-Serif" font-size="10.00">unregister_feature</text>
</a>
</g>
</g>
<!-- Node1&#45;&gt;Node2 -->
<g id="edge1" class="edge"><title>Node1&#45;&gt;Node2</title>
<path fill="none" stroke="midnightblue" d="M100.152,-10C108.687,-10 117.624,-10 126.34,-10"/>
<polygon fill="midnightblue" stroke="midnightblue" points="126.433,-13.5001 136.433,-10 126.433,-6.5001 126.433,-13.5001"/>
</g>
<!-- Node3 -->
<g id="node3" class="node"><title>Node3</title>
<g id="a_node3"><a xlink:href="../../da/dfc/settings__parser_8c.html#af07d89f5ceaea0c7c8252cc41fd75f37" target="_top" xlink:title="free">
<polygon fill="none" stroke="black" points="268.5,-0.5 268.5,-19.5 301.5,-19.5 301.5,-0.5 268.5,-0.5"/>
<text text-anchor="middle" x="285" y="-7.5" font-family="Helvetica,sans-Serif" font-size="10.00">free</text>
</a>
</g>
</g>
<!-- Node2&#45;&gt;Node3 -->
<g id="edge2" class="edge"><title>Node2&#45;&gt;Node3</title>
<path fill="none" stroke="midnightblue" d="M231.601,-10C240.807,-10 250.147,-10 258.342,-10"/>
<polygon fill="midnightblue" stroke="midnightblue" points="258.347,-13.5001 268.347,-10 258.347,-6.5001 258.347,-13.5001"/>
</g>
</g>
</svg>
