<?xml version="1.0" encoding="UTF-8" standalone="no"?>
<!DOCTYPE svg PUBLIC "-//W3C//DTD SVG 1.1//EN"
 "http://www.w3.org/Graphics/SVG/1.1/DTD/svg11.dtd">
<!-- Generated by graphviz version 2.36.0 (20140111.2315)
 -->
<!-- Title: load_dependencies Pages: 1 -->
<svg width="544pt" height="66pt"
 viewBox="0.00 0.00 544.00 66.00" xmlns="http://www.w3.org/2000/svg" xmlns:xlink="http://www.w3.org/1999/xlink">
<g id="graph0" class="graph" transform="scale(1 1) rotate(0) translate(4 62)">
<title>load_dependencies</title>
<!-- Node1 -->
<g id="node1" class="node"><title>Node1</title>
<polygon fill="#bfbfbf" stroke="black" points="0,-19.5 0,-38.5 100,-38.5 100,-19.5 0,-19.5"/>
<text text-anchor="middle" x="50" y="-26.5" font-family="Helvetica,sans-Serif" font-size="10.00">load_dependencies</text>
</g>
<!-- Node2 -->
<g id="node2" class="node"><title>Node2</title>
<g id="a_node2"><a xlink:href="../../db/d66/plugin__loader_8c.html#a7255246feea191e7f13d81180846ab49" target="_top" xlink:title="load_feature">
<polygon fill="none" stroke="black" points="136,-38.5 136,-57.5 206,-57.5 206,-38.5 136,-38.5"/>
<text text-anchor="middle" x="171" y="-45.5" font-family="Helvetica,sans-Serif" font-size="10.00">load_feature</text>
</a>
</g>
</g>
<!-- Node1&#45;&gt;Node2 -->
<g id="edge1" class="edge"><title>Node1&#45;&gt;Node2</title>
<path fill="none" stroke="midnightblue" d="M110.052,-38.4285C118.919,-39.8442 127.799,-41.262 135.904,-42.5562"/>
<polygon fill="midnightblue" stroke="midnightblue" points="110.516,-34.9583 100.089,-36.8377 109.412,-41.8707 110.516,-34.9583"/>
</g>
<!-- Node3 -->
<g id="node3" class="node"><title>Node3</title>
<g id="a_node3"><a xlink:href="../../db/d66/plugin__loader_8c.html#ac62b11b33e669f6f28747ee5cd82f629" target="_top" xlink:title="load_provided">
<polygon fill="none" stroke="black" points="242.5,-38.5 242.5,-57.5 319.5,-57.5 319.5,-38.5 242.5,-38.5"/>
<text text-anchor="middle" x="281" y="-45.5" font-family="Helvetica,sans-Serif" font-size="10.00">load_provided</text>
</a>
</g>
</g>
<!-- Node2&#45;&gt;Node3 -->
<g id="edge2" class="edge"><title>Node2&#45;&gt;Node3</title>
<path fill="none" stroke="midnightblue" d="M216.428,-48C225.021,-48 233.949,-48 242.303,-48"/>
<polygon fill="midnightblue" stroke="midnightblue" points="216.172,-44.5001 206.172,-48 216.172,-51.5001 216.172,-44.5001"/>
</g>
<!-- Node4 -->
<g id="node4" class="node"><title>Node4</title>
<g id="a_node4"><a xlink:href="../../db/d66/plugin__loader_8c.html#a4e098ac5c040feddbac5f01f0cf55bb6" target="_top" xlink:title="load_registered">
<polygon fill="none" stroke="black" points="356.5,-0.5 356.5,-19.5 439.5,-19.5 439.5,-0.5 356.5,-0.5"/>
<text text-anchor="middle" x="398" y="-7.5" font-family="Helvetica,sans-Serif" font-size="10.00">load_registered</text>
</a>
</g>
</g>
<!-- Node3&#45;&gt;Node4 -->
<g id="edge3" class="edge"><title>Node3&#45;&gt;Node4</title>
<path fill="none" stroke="midnightblue" d="M320.815,-35.1741C336.246,-30.0753 353.691,-24.3109 367.99,-19.5859"/>
<polygon fill="midnightblue" stroke="midnightblue" points="319.416,-31.9502 311.019,-38.411 321.613,-38.5967 319.416,-31.9502"/>
</g>
<!-- Node5 -->
<g id="node5" class="node"><title>Node5</title>
<g id="a_node5"><a xlink:href="../../db/d66/plugin__loader_8c.html#aa470007ca479ed96d1afe8e31e9a07e1" target="_top" xlink:title="load_features">
<polygon fill="none" stroke="black" points="360.5,-38.5 360.5,-57.5 435.5,-57.5 435.5,-38.5 360.5,-38.5"/>
<text text-anchor="middle" x="398" y="-45.5" font-family="Helvetica,sans-Serif" font-size="10.00">load_features</text>
</a>
</g>
</g>
<!-- Node3&#45;&gt;Node5 -->
<g id="edge5" class="edge"><title>Node3&#45;&gt;Node5</title>
<path fill="none" stroke="midnightblue" d="M329.725,-48C339.987,-48 350.677,-48 360.436,-48"/>
<polygon fill="midnightblue" stroke="midnightblue" points="329.655,-44.5001 319.655,-48 329.655,-51.5001 329.655,-44.5001"/>
</g>
<!-- Node4&#45;&gt;Node1 -->
<g id="edge4" class="edge"><title>Node4&#45;&gt;Node1</title>
<path fill="none" stroke="midnightblue" d="M346.155,-12.792C280.081,-16.4204 165.466,-22.7143 100.206,-26.2979"/>
<polygon fill="midnightblue" stroke="midnightblue" points="346.535,-16.2766 356.328,-12.2334 346.151,-9.28709 346.535,-16.2766"/>
</g>
<!-- Node6 -->
<g id="node6" class="node"><title>Node6</title>
<g id="a_node6"><a xlink:href="../../db/d66/plugin__loader_8c.html#a40b7971807f3d4f5aea4549887ecb197" target="_top" xlink:title="METHOD">
<polygon fill="none" stroke="black" points="476,-38.5 476,-57.5 536,-57.5 536,-38.5 476,-38.5"/>
<text text-anchor="middle" x="506" y="-45.5" font-family="Helvetica,sans-Serif" font-size="10.00">METHOD</text>
</a>
</g>
</g>
<!-- Node5&#45;&gt;Node6 -->
<g id="edge6" class="edge"><title>Node5&#45;&gt;Node6</title>
<path fill="none" stroke="midnightblue" d="M445.861,-48C456.108,-48 466.664,-48 475.972,-48"/>
<polygon fill="midnightblue" stroke="midnightblue" points="445.776,-44.5001 435.776,-48 445.776,-51.5001 445.776,-44.5001"/>
</g>
</g>
</svg>
