<?xml version="1.0" encoding="UTF-8" standalone="no"?>
<!DOCTYPE svg PUBLIC "-//W3C//DTD SVG 1.1//EN"
 "http://www.w3.org/Graphics/SVG/1.1/DTD/svg11.dtd">
<!-- Generated by graphviz version 2.36.0 (20140111.2315)
 -->
<!-- Title: generate_config Pages: 1 -->
<svg width="460pt" height="77pt"
 viewBox="0.00 0.00 460.00 77.00" xmlns="http://www.w3.org/2000/svg" xmlns:xlink="http://www.w3.org/1999/xlink">
<g id="graph0" class="graph" transform="scale(1 1) rotate(0) translate(4 73)">
<title>generate_config</title>
<!-- Node1 -->
<g id="node1" class="node"><title>Node1</title>
<polygon fill="#bfbfbf" stroke="black" points="0,-22.5 0,-41.5 86,-41.5 86,-22.5 0,-22.5"/>
<text text-anchor="middle" x="43" y="-29.5" font-family="Helvetica,sans-Serif" font-size="10.00">generate_config</text>
</g>
<!-- Node2 -->
<g id="node2" class="node"><title>Node2</title>
<g id="a_node2"><a xlink:href="../../dc/d9c/group__load__tester__config__t.html#ga51da667b5b468b52a99ef2416993f985" target="_top" xlink:title="load_tester_config\l_create">
<polygon fill="none" stroke="black" points="122,-39 122,-69 218,-69 218,-39 122,-39"/>
<text text-anchor="start" x="130" y="-57" font-family="Helvetica,sans-Serif" font-size="10.00">load_tester_config</text>
<text text-anchor="middle" x="170" y="-46" font-family="Helvetica,sans-Serif" font-size="10.00">_create</text>
</a>
</g>
</g>
<!-- Node1&#45;&gt;Node2 -->
<g id="edge1" class="edge"><title>Node1&#45;&gt;Node2</title>
<path fill="none" stroke="midnightblue" d="M96.2018,-41.1875C104.758,-42.6934 113.579,-44.2458 121.999,-45.7278"/>
<polygon fill="midnightblue" stroke="midnightblue" points="96.7746,-37.7346 86.3193,-39.4482 95.5612,-44.6287 96.7746,-37.7346"/>
</g>
<!-- Node5 -->
<g id="node5" class="node"><title>Node5</title>
<g id="a_node5"><a xlink:href="../../d2/d03/load__tester__config_8c.html#a8c29eb703e57cf6d3ec1cedbeb9847b9" target="_top" xlink:title="METHOD">
<polygon fill="none" stroke="black" points="140,-0.5 140,-19.5 200,-19.5 200,-0.5 140,-0.5"/>
<text text-anchor="middle" x="170" y="-7.5" font-family="Helvetica,sans-Serif" font-size="10.00">METHOD</text>
</a>
</g>
</g>
<!-- Node1&#45;&gt;Node5 -->
<g id="edge4" class="edge"><title>Node1&#45;&gt;Node5</title>
<path fill="none" stroke="midnightblue" d="M96.4086,-22.7761C111.222,-20.1689 126.813,-17.4249 139.733,-15.1511"/>
<polygon fill="midnightblue" stroke="midnightblue" points="95.5612,-19.3713 86.3193,-24.5518 96.7746,-26.2654 95.5612,-19.3713"/>
</g>
<!-- Node3 -->
<g id="node3" class="node"><title>Node3</title>
<g id="a_node3"><a xlink:href="../../d4/d98/load__tester__plugin_8c.html#ad3cd284c65a2e9d8b8d04a2eb6705ebb" target="_top" xlink:title="register_load_tester">
<polygon fill="none" stroke="black" points="254,-44.5 254,-63.5 356,-63.5 356,-44.5 254,-44.5"/>
<text text-anchor="middle" x="305" y="-51.5" font-family="Helvetica,sans-Serif" font-size="10.00">register_load_tester</text>
</a>
</g>
</g>
<!-- Node2&#45;&gt;Node3 -->
<g id="edge2" class="edge"><title>Node2&#45;&gt;Node3</title>
<path fill="none" stroke="midnightblue" d="M228.41,-54C236.837,-54 245.464,-54 253.733,-54"/>
<polygon fill="midnightblue" stroke="midnightblue" points="228.265,-50.5001 218.265,-54 228.265,-57.5001 228.265,-50.5001"/>
</g>
<!-- Node4 -->
<g id="node4" class="node"><title>Node4</title>
<g id="a_node4"><a xlink:href="../../d4/d98/load__tester__plugin_8c.html#ae4b7b8924ecf91ce1677b0c19650ad09" target="_top" xlink:title="METHOD">
<polygon fill="none" stroke="black" points="392,-44.5 392,-63.5 452,-63.5 452,-44.5 392,-44.5"/>
<text text-anchor="middle" x="422" y="-51.5" font-family="Helvetica,sans-Serif" font-size="10.00">METHOD</text>
</a>
</g>
</g>
<!-- Node3&#45;&gt;Node4 -->
<g id="edge3" class="edge"><title>Node3&#45;&gt;Node4</title>
<path fill="none" stroke="midnightblue" d="M366.191,-54C375.132,-54 383.986,-54 391.885,-54"/>
<polygon fill="midnightblue" stroke="midnightblue" points="366.106,-50.5001 356.106,-54 366.106,-57.5001 366.106,-50.5001"/>
</g>
</g>
</svg>
