<?xml version="1.0" encoding="UTF-8" standalone="no"?>
<!DOCTYPE svg PUBLIC "-//W3C//DTD SVG 1.1//EN"
 "http://www.w3.org/Graphics/SVG/1.1/DTD/svg11.dtd">
<!-- Generated by graphviz version 2.36.0 (20140111.2315)
 -->
<!-- Title: ikev2 Pages: 1 -->
<svg width="252pt" height="218pt"
 viewBox="0.00 0.00 252.00 218.00" xmlns="http://www.w3.org/2000/svg" xmlns:xlink="http://www.w3.org/1999/xlink">
<g id="graph0" class="graph" transform="scale(1 1) rotate(0) translate(4 214)">
<title>ikev2</title>
<!-- Node4 -->
<g id="node1" class="node"><title>Node4</title>
<g id="a_node1"><a xlink:href="../../db/d0b/group__keymat__v2.html" target="_top" xlink:title="keymat_v2">
<polygon fill="none" stroke="black" points="160.5,-190.5 160.5,-209.5 225.5,-209.5 225.5,-190.5 160.5,-190.5"/>
<text text-anchor="middle" x="193" y="-197.5" font-family="Helvetica,sans-Serif" font-size="10.00">keymat_v2</text>
</a>
</g>
</g>
<!-- Node7 -->
<g id="node2" class="node"><title>Node7</title>
<g id="a_node2"><a xlink:href="../../db/d6a/group__tasks__v2.html" target="_top" xlink:title="tasks">
<polygon fill="none" stroke="black" points="172.5,-152.5 172.5,-171.5 213.5,-171.5 213.5,-152.5 172.5,-152.5"/>
<text text-anchor="middle" x="193" y="-159.5" font-family="Helvetica,sans-Serif" font-size="10.00">tasks</text>
</a>
</g>
</g>
<!-- Node5 -->
<g id="node3" class="node"><title>Node5</title>
<g id="a_node3"><a xlink:href="../../db/d7f/group__mediation__manager.html" target="_top" xlink:title="mediation_manager">
<polygon fill="none" stroke="black" points="142.5,-114.5 142.5,-133.5 243.5,-133.5 243.5,-114.5 142.5,-114.5"/>
<text text-anchor="middle" x="193" y="-121.5" font-family="Helvetica,sans-Serif" font-size="10.00">mediation_manager</text>
</a>
</g>
</g>
<!-- Node3 -->
<g id="node4" class="node"><title>Node3</title>
<g id="a_node4"><a xlink:href="../../dd/da9/group__connect__manager.html" target="_top" xlink:title="connect_manager">
<polygon fill="none" stroke="black" points="146,-76.5 146,-95.5 240,-95.5 240,-76.5 146,-76.5"/>
<text text-anchor="middle" x="193" y="-83.5" font-family="Helvetica,sans-Serif" font-size="10.00">connect_manager</text>
</a>
</g>
</g>
<!-- Node2 -->
<g id="node5" class="node"><title>Node2</title>
<g id="a_node5"><a xlink:href="../../d7/dfa/group__authenticators__v2.html" target="_top" xlink:title="authenticators">
<polygon fill="none" stroke="black" points="154,-38.5 154,-57.5 232,-57.5 232,-38.5 154,-38.5"/>
<text text-anchor="middle" x="193" y="-45.5" font-family="Helvetica,sans-Serif" font-size="10.00">authenticators</text>
</a>
</g>
</g>
<!-- Node0 -->
<g id="node6" class="node"><title>Node0</title>
<polygon fill="#bfbfbf" stroke="black" points="66,-95.5 66,-114.5 106,-114.5 106,-95.5 66,-95.5"/>
<text text-anchor="middle" x="86" y="-102.5" font-family="Helvetica,sans-Serif" font-size="10.00">ikev2</text>
</g>
<!-- Node0&#45;&gt;Node4 -->
<g id="edge4" class="edge"><title>Node0&#45;&gt;Node4</title>
<path fill="none" stroke="midnightblue" d="M96.3298,-123.552C105.754,-140.604 121.79,-165.516 142,-181 147.455,-185.179 153.934,-188.53 160.389,-191.182"/>
<polygon fill="midnightblue" stroke="midnightblue" points="99.3364,-121.75 91.5637,-114.55 93.15,-125.026 99.3364,-121.75"/>
</g>
<!-- Node0&#45;&gt;Node7 -->
<g id="edge7" class="edge"><title>Node0&#45;&gt;Node7</title>
<path fill="none" stroke="midnightblue" d="M107.26,-120.75C117.338,-128.121 129.922,-136.653 142,-143 151.535,-148.011 162.695,-152.382 172.05,-155.664"/>
<polygon fill="midnightblue" stroke="midnightblue" points="109.226,-117.85 99.1246,-114.656 105.029,-123.452 109.226,-117.85"/>
</g>
<!-- Node0&#45;&gt;Node5 -->
<g id="edge5" class="edge"><title>Node0&#45;&gt;Node5</title>
<path fill="none" stroke="midnightblue" d="M116.27,-110.296C124.354,-111.759 133.359,-113.389 142.258,-114.999"/>
<polygon fill="midnightblue" stroke="midnightblue" points="116.722,-106.822 106.259,-108.485 115.476,-113.71 116.722,-106.822"/>
</g>
<!-- Node0&#45;&gt;Node3 -->
<g id="edge3" class="edge"><title>Node0&#45;&gt;Node3</title>
<path fill="none" stroke="midnightblue" d="M116.365,-99.6864C125.507,-98.032 135.82,-96.166 145.821,-94.3561"/>
<polygon fill="midnightblue" stroke="midnightblue" points="115.476,-96.2904 106.259,-101.515 116.722,-103.178 115.476,-96.2904"/>
</g>
<!-- Node0&#45;&gt;Node2 -->
<g id="edge2" class="edge"><title>Node0&#45;&gt;Node2</title>
<path fill="none" stroke="midnightblue" d="M107.26,-89.2498C117.338,-81.8789 129.922,-73.3475 142,-67 148.658,-63.5008 156.109,-60.3138 163.184,-57.5917"/>
<polygon fill="midnightblue" stroke="midnightblue" points="105.029,-86.5477 99.1246,-95.3445 109.226,-92.1501 105.029,-86.5477"/>
</g>
<!-- Node6 -->
<g id="node8" class="node"><title>Node6</title>
<g id="a_node8"><a xlink:href="../../d1/df9/group__task__manager__v2.html" target="_top" xlink:title="task_manager_v2">
<polygon fill="none" stroke="black" points="146,-0.5 146,-19.5 240,-19.5 240,-0.5 146,-0.5"/>
<text text-anchor="middle" x="193" y="-7.5" font-family="Helvetica,sans-Serif" font-size="10.00">task_manager_v2</text>
</a>
</g>
</g>
<!-- Node0&#45;&gt;Node6 -->
<g id="edge6" class="edge"><title>Node0&#45;&gt;Node6</title>
<path fill="none" stroke="midnightblue" d="M96.3298,-86.4483C105.754,-69.3958 121.79,-44.4839 142,-29 146.939,-25.2162 152.717,-22.1115 158.558,-19.5896"/>
<polygon fill="midnightblue" stroke="midnightblue" points="93.15,-84.9742 91.5637,-95.4496 99.3364,-88.2498 93.15,-84.9742"/>
</g>
<!-- Node1 -->
<g id="node7" class="node"><title>Node1</title>
<g id="a_node7"><a xlink:href="../../dd/ddc/group__sa.html" target="_top" xlink:title="sa">
<polygon fill="none" stroke="black" points="0.5,-95.5 0.5,-114.5 29.5,-114.5 29.5,-95.5 0.5,-95.5"/>
<text text-anchor="middle" x="15" y="-102.5" font-family="Helvetica,sans-Serif" font-size="10.00">sa</text>
</a>
</g>
</g>
<!-- Node1&#45;&gt;Node0 -->
<g id="edge1" class="edge"><title>Node1&#45;&gt;Node0</title>
<path fill="none" stroke="midnightblue" d="M39.7509,-105C48.2946,-105 57.8155,-105 65.9113,-105"/>
<polygon fill="midnightblue" stroke="midnightblue" points="39.6322,-101.5 29.6322,-105 39.6321,-108.5 39.6322,-101.5"/>
</g>
</g>
</svg>
