<?xml version="1.0" encoding="UTF-8" standalone="no"?>
<!DOCTYPE svg PUBLIC "-//W3C//DTD SVG 1.1//EN"
 "http://www.w3.org/Graphics/SVG/1.1/DTD/svg11.dtd">
<!-- Generated by graphviz version 2.36.0 (20140111.2315)
 -->
<!-- Title: dnskey_encoder.h Pages: 1 -->
<svg width="209pt" height="84pt"
 viewBox="0.00 0.00 209.00 84.00" xmlns="http://www.w3.org/2000/svg" xmlns:xlink="http://www.w3.org/1999/xlink">
<g id="graph0" class="graph" transform="scale(1 1) rotate(0) translate(4 80)">
<title>dnskey_encoder.h</title>
<!-- Node1 -->
<g id="node1" class="node"><title>Node1</title>
<polygon fill="#bfbfbf" stroke="black" points="55,-56.5 55,-75.5 151,-75.5 151,-56.5 55,-56.5"/>
<text text-anchor="middle" x="103" y="-63.5" font-family="Helvetica,sans-Serif" font-size="10.00">dnskey_encoder.h</text>
</g>
<!-- Node2 -->
<g id="node2" class="node"><title>Node2</title>
<g id="a_node2"><a xlink:href="../../d5/de9/dnskey__encoder_8c.html" target="_top" xlink:title="dnskey_encoder.c">
<polygon fill="none" stroke="black" points="0,-0.5 0,-19.5 96,-19.5 96,-0.5 0,-0.5"/>
<text text-anchor="middle" x="48" y="-7.5" font-family="Helvetica,sans-Serif" font-size="10.00">dnskey_encoder.c</text>
</a>
</g>
</g>
<!-- Node1&#45;&gt;Node2 -->
<g id="edge1" class="edge"><title>Node1&#45;&gt;Node2</title>
<path fill="none" stroke="midnightblue" d="M86.7062,-49.0024C76.9594,-39.4329 64.947,-27.6389 56.9131,-19.7511"/>
<polygon fill="midnightblue" stroke="midnightblue" points="84.3301,-51.5746 93.9179,-56.083 89.2343,-46.5796 84.3301,-51.5746"/>
</g>
<!-- Node3 -->
<g id="node3" class="node"><title>Node3</title>
<g id="a_node3"><a xlink:href="../../d6/d4a/dnskey__plugin_8c.html" target="_top" xlink:title="dnskey_plugin.c">
<polygon fill="none" stroke="black" points="114.5,-0.5 114.5,-19.5 201.5,-19.5 201.5,-0.5 114.5,-0.5"/>
<text text-anchor="middle" x="158" y="-7.5" font-family="Helvetica,sans-Serif" font-size="10.00">dnskey_plugin.c</text>
</a>
</g>
</g>
<!-- Node1&#45;&gt;Node3 -->
<g id="edge2" class="edge"><title>Node1&#45;&gt;Node3</title>
<path fill="none" stroke="midnightblue" d="M119.294,-49.0024C129.041,-39.4329 141.053,-27.6389 149.087,-19.7511"/>
<polygon fill="midnightblue" stroke="midnightblue" points="116.766,-46.5796 112.082,-56.083 121.67,-51.5746 116.766,-46.5796"/>
</g>
</g>
</svg>
