<?xml version="1.0" encoding="UTF-8" standalone="no"?>
<!DOCTYPE svg PUBLIC "-//W3C//DTD SVG 1.1//EN"
 "http://www.w3.org/Graphics/SVG/1.1/DTD/svg11.dtd">
<!-- Generated by graphviz version 2.36.0 (20140111.2315)
 -->
<!-- Title: create_ecdsa_key Pages: 1 -->
<svg width="654pt" height="66pt"
 viewBox="0.00 0.00 654.00 66.00" xmlns="http://www.w3.org/2000/svg" xmlns:xlink="http://www.w3.org/1999/xlink">
<g id="graph0" class="graph" transform="scale(1 1) rotate(0) translate(4 62)">
<title>create_ecdsa_key</title>
<!-- Node1 -->
<g id="node1" class="node"><title>Node1</title>
<polygon fill="#bfbfbf" stroke="black" points="0,-19.5 0,-38.5 96,-38.5 96,-19.5 0,-19.5"/>
<text text-anchor="middle" x="48" y="-26.5" font-family="Helvetica,sans-Serif" font-size="10.00">create_ecdsa_key</text>
</g>
<!-- Node2 -->
<g id="node2" class="node"><title>Node2</title>
<g id="a_node2"><a xlink:href="../../d4/d08/pkcs11__public__key_8c.html#a812ab8c015b72d76f75c5bd5ef3a1007" target="_top" xlink:title="create_key">
<polygon fill="none" stroke="black" points="132.5,-19.5 132.5,-38.5 197.5,-38.5 197.5,-19.5 132.5,-19.5"/>
<text text-anchor="middle" x="165" y="-26.5" font-family="Helvetica,sans-Serif" font-size="10.00">create_key</text>
</a>
</g>
</g>
<!-- Node1&#45;&gt;Node2 -->
<g id="edge1" class="edge"><title>Node1&#45;&gt;Node2</title>
<path fill="none" stroke="midnightblue" d="M96.1067,-29C104.75,-29 113.718,-29 122.192,-29"/>
<polygon fill="midnightblue" stroke="midnightblue" points="122.231,-32.5001 132.231,-29 122.231,-25.5001 122.231,-32.5001"/>
</g>
<!-- Node3 -->
<g id="node3" class="node"><title>Node3</title>
<g id="a_node3"><a xlink:href="../../d4/d08/pkcs11__public__key_8c.html#aba411f8641b7fafc2e5321094473bdb9" target="_top" xlink:title="create">
<polygon fill="none" stroke="black" points="234,-19.5 234,-38.5 278,-38.5 278,-19.5 234,-19.5"/>
<text text-anchor="middle" x="256" y="-26.5" font-family="Helvetica,sans-Serif" font-size="10.00">create</text>
</a>
</g>
</g>
<!-- Node2&#45;&gt;Node3 -->
<g id="edge2" class="edge"><title>Node2&#45;&gt;Node3</title>
<path fill="none" stroke="midnightblue" d="M197.629,-29C206.06,-29 215.166,-29 223.585,-29"/>
<polygon fill="midnightblue" stroke="midnightblue" points="223.781,-32.5001 233.781,-29 223.781,-25.5001 223.781,-32.5001"/>
</g>
<!-- Node4 -->
<g id="node4" class="node"><title>Node4</title>
<g id="a_node4"><a xlink:href="../../de/d2a/group__public__key.html#gad64f1eb69b30be75565efd30bcefb434" target="_top" xlink:title="public_key_equals">
<polygon fill="none" stroke="black" points="331.5,-38.5 331.5,-57.5 428.5,-57.5 428.5,-38.5 331.5,-38.5"/>
<text text-anchor="middle" x="380" y="-45.5" font-family="Helvetica,sans-Serif" font-size="10.00">public_key_equals</text>
</a>
</g>
</g>
<!-- Node3&#45;&gt;Node4 -->
<g id="edge3" class="edge"><title>Node3&#45;&gt;Node4</title>
<path fill="none" stroke="midnightblue" d="M278.251,-32.3095C290.291,-34.1847 305.991,-36.6298 321.401,-39.0297"/>
<polygon fill="midnightblue" stroke="midnightblue" points="321.025,-42.5131 331.444,-40.5937 322.102,-35.5965 321.025,-42.5131"/>
</g>
<!-- Node7 -->
<g id="node7" class="node"><title>Node7</title>
<g id="a_node7"><a xlink:href="../../de/d2a/group__public__key.html#ga5ecda5dfd6697bc2a39c6797b9d04d13" target="_top" xlink:title="public_key_has_fingerprint">
<polygon fill="none" stroke="black" points="314,-0.5 314,-19.5 446,-19.5 446,-0.5 314,-0.5"/>
<text text-anchor="middle" x="380" y="-7.5" font-family="Helvetica,sans-Serif" font-size="10.00">public_key_has_fingerprint</text>
</a>
</g>
</g>
<!-- Node3&#45;&gt;Node7 -->
<g id="edge6" class="edge"><title>Node3&#45;&gt;Node7</title>
<path fill="none" stroke="midnightblue" d="M278.251,-25.6905C286.771,-24.3636 297.123,-22.7514 307.908,-21.0718"/>
<polygon fill="midnightblue" stroke="midnightblue" points="308.552,-24.5137 317.894,-19.5165 307.474,-17.5971 308.552,-24.5137"/>
</g>
<!-- Node5 -->
<g id="node5" class="node"><title>Node5</title>
<g id="a_node5"><a xlink:href="../../d4/d87/group__chunk.html#gae6aabf03218cda073ab2173e02bff4ba" target="_top" xlink:title="chunk_equals">
<polygon fill="none" stroke="black" points="482.5,-19.5 482.5,-38.5 559.5,-38.5 559.5,-19.5 482.5,-19.5"/>
<text text-anchor="middle" x="521" y="-26.5" font-family="Helvetica,sans-Serif" font-size="10.00">chunk_equals</text>
</a>
</g>
</g>
<!-- Node4&#45;&gt;Node5 -->
<g id="edge4" class="edge"><title>Node4&#45;&gt;Node5</title>
<path fill="none" stroke="midnightblue" d="M428.836,-41.4613C442.865,-39.5437 458.202,-37.4472 472.227,-35.5301"/>
<polygon fill="midnightblue" stroke="midnightblue" points="472.736,-38.9932 482.17,-34.171 471.788,-32.0577 472.736,-38.9932"/>
</g>
<!-- Node6 -->
<g id="node6" class="node"><title>Node6</title>
<g id="a_node6"><a xlink:href="../../dd/d74/group__memory__i.html#ga46d7935db00fd7092430dbf4f36c2850" target="_top" xlink:title="memeq">
<polygon fill="none" stroke="black" points="596.5,-19.5 596.5,-38.5 645.5,-38.5 645.5,-19.5 596.5,-19.5"/>
<text text-anchor="middle" x="621" y="-26.5" font-family="Helvetica,sans-Serif" font-size="10.00">memeq</text>
</a>
</g>
</g>
<!-- Node5&#45;&gt;Node6 -->
<g id="edge5" class="edge"><title>Node5&#45;&gt;Node6</title>
<path fill="none" stroke="midnightblue" d="M559.609,-29C568.359,-29 577.621,-29 586.195,-29"/>
<polygon fill="midnightblue" stroke="midnightblue" points="586.23,-32.5001 596.23,-29 586.23,-25.5001 586.23,-32.5001"/>
</g>
<!-- Node7&#45;&gt;Node5 -->
<g id="edge7" class="edge"><title>Node7&#45;&gt;Node5</title>
<path fill="none" stroke="midnightblue" d="M446.023,-18.8881C454.864,-20.0965 463.802,-21.3183 472.262,-22.4746"/>
<polygon fill="midnightblue" stroke="midnightblue" points="471.923,-25.9607 482.304,-23.8474 472.871,-19.0252 471.923,-25.9607"/>
</g>
</g>
</svg>
