<?xml version="1.0" encoding="UTF-8" standalone="no"?>
<!DOCTYPE svg PUBLIC "-//W3C//DTD SVG 1.1//EN"
 "http://www.w3.org/Graphics/SVG/1.1/DTD/svg11.dtd">
<!-- Generated by graphviz version 2.36.0 (20140111.2315)
 -->
<!-- Title: find_key_by_keyid Pages: 1 -->
<svg width="518pt" height="38pt"
 viewBox="0.00 0.00 518.00 38.00" xmlns="http://www.w3.org/2000/svg" xmlns:xlink="http://www.w3.org/1999/xlink">
<g id="graph0" class="graph" transform="scale(1 1) rotate(0) translate(4 34)">
<title>find_key_by_keyid</title>
<!-- Node1 -->
<g id="node1" class="node"><title>Node1</title>
<polygon fill="#bfbfbf" stroke="black" points="0,-5.5 0,-24.5 98,-24.5 98,-5.5 0,-5.5"/>
<text text-anchor="middle" x="49" y="-12.5" font-family="Helvetica,sans-Serif" font-size="10.00">find_key_by_keyid</text>
</g>
<!-- Node2 -->
<g id="node2" class="node"><title>Node2</title>
<g id="a_node2"><a xlink:href="../../db/d90/group__pkcs11__public__key.html#ga75c7db7c27156ca148d1a6e80e368cd0" target="_top" xlink:title="pkcs11_public_key_connect">
<polygon fill="none" stroke="black" points="134,-5.5 134,-24.5 274,-24.5 274,-5.5 134,-5.5"/>
<text text-anchor="middle" x="204" y="-12.5" font-family="Helvetica,sans-Serif" font-size="10.00">pkcs11_public_key_connect</text>
</a>
</g>
</g>
<!-- Node1&#45;&gt;Node2 -->
<g id="edge1" class="edge"><title>Node1&#45;&gt;Node2</title>
<path fill="none" stroke="midnightblue" d="M108.413,-15C116.761,-15 125.413,-15 133.942,-15"/>
<polygon fill="midnightblue" stroke="midnightblue" points="108.41,-11.5001 98.4102,-15 108.41,-18.5001 108.41,-11.5001"/>
</g>
<!-- Node3 -->
<g id="node3" class="node"><title>Node3</title>
<g id="a_node3"><a xlink:href="../../d0/d51/group__pkcs11__private__key.html#gab93b383fcef30b2a74405b4d604f3055" target="_top" xlink:title="pkcs11_private_key\l_connect">
<polygon fill="none" stroke="black" points="310,-0 310,-30 414,-30 414,-0 310,-0"/>
<text text-anchor="start" x="318" y="-18" font-family="Helvetica,sans-Serif" font-size="10.00">pkcs11_private_key</text>
<text text-anchor="middle" x="362" y="-7" font-family="Helvetica,sans-Serif" font-size="10.00">_connect</text>
</a>
</g>
</g>
<!-- Node2&#45;&gt;Node3 -->
<g id="edge2" class="edge"><title>Node2&#45;&gt;Node3</title>
<path fill="none" stroke="midnightblue" d="M284.396,-15C292.982,-15 301.544,-15 309.668,-15"/>
<polygon fill="midnightblue" stroke="midnightblue" points="284.332,-11.5001 274.332,-15 284.332,-18.5001 284.332,-11.5001"/>
</g>
<!-- Node4 -->
<g id="node4" class="node"><title>Node4</title>
<g id="a_node4"><a xlink:href="../../d5/da4/pkcs11__plugin_8c.html#a9ecaf3b3c4c947e3f53aec6d193afbb9" target="_top" xlink:title="METHOD">
<polygon fill="none" stroke="black" points="450,-5.5 450,-24.5 510,-24.5 510,-5.5 450,-5.5"/>
<text text-anchor="middle" x="480" y="-12.5" font-family="Helvetica,sans-Serif" font-size="10.00">METHOD</text>
</a>
</g>
</g>
<!-- Node3&#45;&gt;Node4 -->
<g id="edge3" class="edge"><title>Node3&#45;&gt;Node4</title>
<path fill="none" stroke="midnightblue" d="M424.32,-15C433.27,-15 442.113,-15 449.995,-15"/>
<polygon fill="midnightblue" stroke="midnightblue" points="424.217,-11.5001 414.217,-15 424.217,-18.5001 424.217,-11.5001"/>
</g>
</g>
</svg>
