<?xml version="1.0" encoding="UTF-8" standalone="no"?>
<!DOCTYPE svg PUBLIC "-//W3C//DTD SVG 1.1//EN"
 "http://www.w3.org/Graphics/SVG/1.1/DTD/svg11.dtd">
<!-- Generated by graphviz version 2.36.0 (20140111.2315)
 -->
<!-- Title: tkm_utils.h Pages: 1 -->
<!--zoomable 320 -->
<svg id="main" version="1.1" xmlns="http://www.w3.org/2000/svg" xmlns:xlink="http://www.w3.org/1999/xlink" xml:space="preserve" onload="init(evt)">
<style type="text/css"><![CDATA[
.edge:hover path { stroke: red; }
.edge:hover polygon { stroke: red; fill: red; }
]]></style>
<script type="text/javascript"><![CDATA[
var edges = document.getElementsByTagName('g');
if (edges && edges.length) {
  for (var i=0;i<edges.length;i++) {
    if (edges[i].id.substr(0,4)=='edge') {
      edges[i].setAttribute('class','edge');
    }
  }
}
]]></script>
        <defs>
                <circle id="rim" cx="0" cy="0" r="7"/>
                <circle id="rim2" cx="0" cy="0" r="3.5"/>
                <g id="zoomPlus">
                        <use xlink:href="#rim" fill="#404040">
                                <set attributeName="fill" to="#808080" begin="zoomplus.mouseover" end="zoomplus.mouseout"/>
                        </use>
                        <path d="M-4,0h8M0,-4v8" fill="none" stroke="white" stroke-width="1.5" pointer-events="none"/>
                </g>
                <g id="zoomMin">
                        <use xlink:href="#rim" fill="#404040">
                                <set attributeName="fill" to="#808080" begin="zoomminus.mouseover" end="zoomminus.mouseout"/>
                        </use>
                        <path d="M-4,0h8" fill="none" stroke="white" stroke-width="1.5" pointer-events="none"/>
                </g>
                <g id="dirArrow">
                        <path fill="none" stroke="white" stroke-width="1.5" d="M0,-3.0v7 M-2.5,-0.5L0,-3.0L2.5,-0.5"/>
                </g>
               <g id="resetDef">
                       <use xlink:href="#rim2" fill="#404040">
                               <set attributeName="fill" to="#808080" begin="reset.mouseover" end="reset.mouseout"/>
                       </use>
               </g>
        </defs>

<script type="text/javascript">
var viewWidth = 1908;
var viewHeight = 320;
var sectionId = 'dynsection-0';
</script>
<script xlink:href="../../svgpan.js"/>
<svg id="graph" class="graph">
<g id="viewport">
<title>tkm_utils.h</title>
<!-- Node1 -->
<g id="node1" class="node"><title>Node1</title>
<polygon fill="#bfbfbf" stroke="black" points="668.5,-292.5 668.5,-311.5 733.5,-311.5 733.5,-292.5 668.5,-292.5"/>
<text text-anchor="middle" x="701" y="-299.5" font-family="Helvetica,sans-Serif" font-size="10.00">tkm_utils.h</text>
</g>
<!-- Node2 -->
<g id="node2" class="node"><title>Node2</title>
<g id="a_node2"><a xlink:href="../../dd/dd5/chunk_8h.html" target="_top" xlink:title="utils/chunk.h">
<polygon fill="none" stroke="black" points="621,-236.5 621,-255.5 693,-255.5 693,-236.5 621,-236.5"/>
<text text-anchor="middle" x="657" y="-243.5" font-family="Helvetica,sans-Serif" font-size="10.00">utils/chunk.h</text>
</a>
</g>
</g>
<!-- Node1&#45;&gt;Node2 -->
<g id="edge1" class="edge"><title>Node1&#45;&gt;Node2</title>
<path fill="none" stroke="midnightblue" d="M693.734,-292.083C687.455,-284.377 678.212,-273.033 670.569,-263.653"/>
<polygon fill="midnightblue" stroke="midnightblue" points="673.161,-261.293 664.131,-255.751 667.734,-265.714 673.161,-261.293"/>
</g>
<!-- Node30 -->
<g id="node30" class="node"><title>Node30</title>
<polygon fill="none" stroke="#bfbfbf" points="711,-236.5 711,-255.5 779,-255.5 779,-236.5 711,-236.5"/>
<text text-anchor="middle" x="745" y="-243.5" font-family="Helvetica,sans-Serif" font-size="10.00">tkm/types.h</text>
</g>
<!-- Node1&#45;&gt;Node30 -->
<g id="edge32" class="edge"><title>Node1&#45;&gt;Node30</title>
<path fill="none" stroke="midnightblue" d="M708.266,-292.083C714.545,-284.377 723.788,-273.033 731.431,-263.653"/>
<polygon fill="midnightblue" stroke="midnightblue" points="734.266,-265.714 737.869,-255.751 728.839,-261.293 734.266,-265.714"/>
</g>
<!-- Node3 -->
<g id="node3" class="node"><title>Node3</title>
<g id="a_node3"><a xlink:href="../../da/d66/string_8h.html" target="_top" xlink:title="string.h">
<polygon fill="none" stroke="black" points="-0.5,-124.5 -0.5,-143.5 48.5,-143.5 48.5,-124.5 -0.5,-124.5"/>
<text text-anchor="middle" x="24" y="-131.5" font-family="Helvetica,sans-Serif" font-size="10.00">string.h</text>
</a>
</g>
</g>
<!-- Node2&#45;&gt;Node3 -->
<g id="edge2" class="edge"><title>Node2&#45;&gt;Node3</title>
<path fill="none" stroke="midnightblue" d="M620.997,-240.106C528.973,-227.346 277.594,-190.919 58.8795,-144.021"/>
<polygon fill="midnightblue" stroke="midnightblue" points="59.332,-140.538 48.8188,-141.851 57.8562,-147.381 59.332,-140.538"/>
</g>
<!-- Node4 -->
<g id="node4" class="node"><title>Node4</title>
<polygon fill="none" stroke="#bfbfbf" points="913,-180.5 913,-199.5 965,-199.5 965,-180.5 913,-180.5"/>
<text text-anchor="middle" x="939" y="-187.5" font-family="Helvetica,sans-Serif" font-size="10.00">stdarg.h</text>
</g>
<!-- Node2&#45;&gt;Node4 -->
<g id="edge3" class="edge"><title>Node2&#45;&gt;Node4</title>
<path fill="none" stroke="midnightblue" d="M693.337,-237.665C696.266,-237.094 699.182,-236.533 702,-236 788.454,-219.653 813.169,-219.368 902.634,-200.171"/>
<polygon fill="midnightblue" stroke="midnightblue" points="903.645,-203.533 912.677,-197.995 902.163,-196.692 903.645,-203.533"/>
</g>
<!-- Node5 -->
<g id="node5" class="node"><title>Node5</title>
<polygon fill="none" stroke="#bfbfbf" points="67,-124.5 67,-143.5 135,-143.5 135,-124.5 67,-124.5"/>
<text text-anchor="middle" x="101" y="-131.5" font-family="Helvetica,sans-Serif" font-size="10.00">sys/types.h</text>
</g>
<!-- Node2&#45;&gt;Node5 -->
<g id="edge4" class="edge"><title>Node2&#45;&gt;Node5</title>
<path fill="none" stroke="midnightblue" d="M628.991,-236.473C583.314,-222.837 489.768,-196.03 409,-180 292.846,-156.946 261.739,-163.876 145,-144 144.899,-143.983 144.798,-143.966 144.697,-143.948"/>
<polygon fill="midnightblue" stroke="midnightblue" points="145.532,-140.543 135.068,-142.2 144.282,-147.43 145.532,-140.543"/>
</g>
<!-- Node6 -->
<g id="node6" class="node"><title>Node6</title>
<g id="a_node6"><a xlink:href="../../d5/d60/utils_8h.html" target="_top" xlink:title="utils/utils.h">
<polygon fill="none" stroke="black" points="831,-180.5 831,-199.5 895,-199.5 895,-180.5 831,-180.5"/>
<text text-anchor="middle" x="863" y="-187.5" font-family="Helvetica,sans-Serif" font-size="10.00">utils/utils.h</text>
</a>
</g>
</g>
<!-- Node2&#45;&gt;Node6 -->
<g id="edge5" class="edge"><title>Node2&#45;&gt;Node6</title>
<path fill="none" stroke="midnightblue" d="M689.641,-236.444C725.154,-227.134 782.043,-212.222 820.895,-202.037"/>
<polygon fill="midnightblue" stroke="midnightblue" points="822.065,-205.349 830.851,-199.428 820.29,-198.578 822.065,-205.349"/>
</g>
<!-- Node6&#45;&gt;Node3 -->
<g id="edge10" class="edge"><title>Node6&#45;&gt;Node3</title>
<path fill="none" stroke="midnightblue" d="M830.922,-189.53C723.026,-190.827 363.416,-191.193 58.666,-143.738"/>
<polygon fill="midnightblue" stroke="midnightblue" points="59.1814,-140.276 48.7581,-142.175 58.0906,-147.191 59.1814,-140.276"/>
</g>
<!-- Node6&#45;&gt;Node5 -->
<g id="edge6" class="edge"><title>Node6&#45;&gt;Node5</title>
<path fill="none" stroke="midnightblue" d="M830.998,-188.579C729.889,-186.912 408.401,-179.02 145,-144 144.899,-143.987 144.797,-143.973 144.695,-143.959"/>
<polygon fill="midnightblue" stroke="midnightblue" points="145.451,-140.535 135.03,-142.448 144.37,-147.451 145.451,-140.535"/>
</g>
<!-- Node7 -->
<g id="node7" class="node"><title>Node7</title>
<polygon fill="none" stroke="#bfbfbf" points="1518,-0.5 1518,-19.5 1566,-19.5 1566,-0.5 1518,-0.5"/>
<text text-anchor="middle" x="1542" y="-7.5" font-family="Helvetica,sans-Serif" font-size="10.00">stdlib.h</text>
</g>
<!-- Node6&#45;&gt;Node7 -->
<g id="edge7" class="edge"><title>Node6&#45;&gt;Node7</title>
<path fill="none" stroke="midnightblue" d="M895.144,-181.454C898.128,-180.902 901.113,-180.404 904,-180 967.614,-171.087 1428.27,-180.692 1481,-144 1516.11,-119.564 1501.94,-94.7788 1520,-56 1524.23,-46.9212 1529.11,-36.9033 1533.19,-28.6288"/>
<polygon fill="midnightblue" stroke="midnightblue" points="1536.37,-30.0937 1537.69,-19.5807 1530.1,-26.9796 1536.37,-30.0937"/>
</g>
<!-- Node8 -->
<g id="node8" class="node"><title>Node8</title>
<polygon fill="none" stroke="#bfbfbf" points="1597,-124.5 1597,-143.5 1649,-143.5 1649,-124.5 1597,-124.5"/>
<text text-anchor="middle" x="1623" y="-131.5" font-family="Helvetica,sans-Serif" font-size="10.00">stddef.h</text>
</g>
<!-- Node6&#45;&gt;Node8 -->
<g id="edge8" class="edge"><title>Node6&#45;&gt;Node8</title>
<path fill="none" stroke="midnightblue" d="M895.14,-181.425C898.124,-180.879 901.111,-180.391 904,-180 1202,-139.714 1284.61,-188.011 1586.85,-143.654"/>
<polygon fill="midnightblue" stroke="midnightblue" points="1587.4,-147.111 1596.77,-142.176 1586.37,-140.188 1587.4,-147.111"/>
</g>
<!-- Node9 -->
<g id="node9" class="node"><title>Node9</title>
<polygon fill="none" stroke="#bfbfbf" points="1667,-124.5 1667,-143.5 1729,-143.5 1729,-124.5 1667,-124.5"/>
<text text-anchor="middle" x="1698" y="-131.5" font-family="Helvetica,sans-Serif" font-size="10.00">sys/time.h</text>
</g>
<!-- Node6&#45;&gt;Node9 -->
<g id="edge9" class="edge"><title>Node6&#45;&gt;Node9</title>
<path fill="none" stroke="midnightblue" d="M895.138,-181.409C898.123,-180.867 901.11,-180.383 904,-180 1233.33,-136.309 1323.78,-187.964 1656.73,-143.925"/>
<polygon fill="midnightblue" stroke="midnightblue" points="1657.2,-147.393 1666.65,-142.594 1656.27,-140.455 1657.2,-147.393"/>
</g>
<!-- Node10 -->
<g id="node10" class="node"><title>Node10</title>
<polygon fill="none" stroke="#bfbfbf" points="1747,-124.5 1747,-143.5 1809,-143.5 1809,-124.5 1747,-124.5"/>
<text text-anchor="middle" x="1778" y="-131.5" font-family="Helvetica,sans-Serif" font-size="10.00">arpa/inet.h</text>
</g>
<!-- Node6&#45;&gt;Node10 -->
<g id="edge11" class="edge"><title>Node6&#45;&gt;Node10</title>
<path fill="none" stroke="midnightblue" d="M895.136,-181.395C898.121,-180.856 901.109,-180.377 904,-180 1268.14,-132.528 1367.75,-190.833 1736.6,-143.755"/>
<polygon fill="midnightblue" stroke="midnightblue" points="1737.29,-147.195 1746.76,-142.441 1736.39,-140.253 1737.29,-147.195"/>
</g>
<!-- Node11 -->
<g id="node11" class="node"><title>Node11</title>
<polygon fill="none" stroke="#bfbfbf" points="1827.5,-124.5 1827.5,-143.5 1900.5,-143.5 1900.5,-124.5 1827.5,-124.5"/>
<text text-anchor="middle" x="1864" y="-131.5" font-family="Helvetica,sans-Serif" font-size="10.00">sys/socket.h</text>
</g>
<!-- Node6&#45;&gt;Node11 -->
<g id="edge12" class="edge"><title>Node6&#45;&gt;Node11</title>
<path fill="none" stroke="midnightblue" d="M895.135,-181.384C898.12,-180.846 901.109,-180.371 904,-180 1306.78,-128.264 1413.56,-190.317 1817,-144 1817.11,-143.988 1817.21,-143.976 1817.32,-143.963"/>
<polygon fill="midnightblue" stroke="midnightblue" points="1817.97,-147.406 1827.39,-142.559 1817,-140.473 1817.97,-147.406"/>
</g>
<!-- Node12 -->
<g id="node12" class="node"><title>Node12</title>
<polygon fill="none" stroke="#bfbfbf" points="153.5,-124.5 153.5,-143.5 202.5,-143.5 202.5,-124.5 153.5,-124.5"/>
<text text-anchor="middle" x="178" y="-131.5" font-family="Helvetica,sans-Serif" font-size="10.00">netdb.h</text>
</g>
<!-- Node6&#45;&gt;Node12 -->
<g id="edge13" class="edge"><title>Node6&#45;&gt;Node12</title>
<path fill="none" stroke="midnightblue" d="M830.913,-188.928C737.09,-188.266 455.134,-183.055 212.817,-143.789"/>
<polygon fill="midnightblue" stroke="midnightblue" points="213.2,-140.305 202.764,-142.136 212.064,-147.212 213.2,-140.305"/>
</g>
<!-- Node13 -->
<g id="node13" class="node"><title>Node13</title>
<polygon fill="none" stroke="#bfbfbf" points="220.5,-124.5 220.5,-143.5 285.5,-143.5 285.5,-124.5 220.5,-124.5"/>
<text text-anchor="middle" x="253" y="-131.5" font-family="Helvetica,sans-Serif" font-size="10.00">netinet/in.h</text>
</g>
<!-- Node6&#45;&gt;Node13 -->
<g id="edge14" class="edge"><title>Node6&#45;&gt;Node13</title>
<path fill="none" stroke="midnightblue" d="M830.807,-187.939C745.292,-184.804 505.272,-173.949 295.887,-143.932"/>
<polygon fill="midnightblue" stroke="midnightblue" points="296.34,-140.461 285.941,-142.488 295.334,-147.389 296.34,-140.461"/>
</g>
<!-- Node14 -->
<g id="node14" class="node"><title>Node14</title>
<polygon fill="none" stroke="#bfbfbf" points="303.5,-124.5 303.5,-143.5 354.5,-143.5 354.5,-124.5 303.5,-124.5"/>
<text text-anchor="middle" x="329" y="-131.5" font-family="Helvetica,sans-Serif" font-size="10.00">sched.h</text>
</g>
<!-- Node6&#45;&gt;Node14 -->
<g id="edge15" class="edge"><title>Node6&#45;&gt;Node14</title>
<path fill="none" stroke="midnightblue" d="M830.951,-187.906C752.824,-184.859 546.293,-174.509 364.518,-143.785"/>
<polygon fill="midnightblue" stroke="midnightblue" points="364.959,-140.309 354.511,-142.068 363.775,-147.209 364.959,-140.309"/>
</g>
<!-- Node15 -->
<g id="node15" class="node"><title>Node15</title>
<polygon fill="none" stroke="#bfbfbf" points="373,-124.5 373,-143.5 413,-143.5 413,-124.5 373,-124.5"/>
<text text-anchor="middle" x="393" y="-131.5" font-family="Helvetica,sans-Serif" font-size="10.00">poll.h</text>
</g>
<!-- Node6&#45;&gt;Node15 -->
<g id="edge16" class="edge"><title>Node6&#45;&gt;Node15</title>
<path fill="none" stroke="midnightblue" d="M830.849,-187.911C759.108,-185.016 580.525,-175.227 423.012,-143.817"/>
<polygon fill="midnightblue" stroke="midnightblue" points="423.644,-140.374 413.148,-141.816 422.252,-147.234 423.644,-140.374"/>
</g>
<!-- Node16 -->
<g id="node16" class="node"><title>Node16</title>
<polygon fill="none" stroke="#bfbfbf" points="431,-124.5 431,-143.5 481,-143.5 481,-124.5 431,-124.5"/>
<text text-anchor="middle" x="456" y="-131.5" font-family="Helvetica,sans-Serif" font-size="10.00">signal.h</text>
</g>
<!-- Node6&#45;&gt;Node16 -->
<g id="edge17" class="edge"><title>Node6&#45;&gt;Node16</title>
<path fill="none" stroke="midnightblue" d="M830.836,-186.632C767.535,-181.647 622.24,-168.606 490.987,-143.949"/>
<polygon fill="midnightblue" stroke="midnightblue" points="491.64,-140.511 481.162,-142.077 490.329,-147.387 491.64,-140.511"/>
</g>
<!-- Node17 -->
<g id="node17" class="node"><title>Node17</title>
<g id="a_node17"><a xlink:href="../../d9/d49/types_8h.html" target="_top" xlink:title="utils/types.h">
<polygon fill="none" stroke="black" points="499,-124.5 499,-143.5 569,-143.5 569,-124.5 499,-124.5"/>
<text text-anchor="middle" x="534" y="-131.5" font-family="Helvetica,sans-Serif" font-size="10.00">utils/types.h</text>
</a>
</g>
</g>
<!-- Node6&#45;&gt;Node17 -->
<g id="edge18" class="edge"><title>Node6&#45;&gt;Node17</title>
<path fill="none" stroke="midnightblue" d="M830.865,-184.409C779.757,-177.003 676.581,-161.626 579.062,-144.126"/>
<polygon fill="midnightblue" stroke="midnightblue" points="579.5,-140.648 569.037,-142.315 578.256,-147.537 579.5,-140.648"/>
</g>
<!-- Node18 -->
<g id="node18" class="node"><title>Node18</title>
<g id="a_node18"><a xlink:href="../../d0/d9b/enum_8h.html" target="_top" xlink:title="enum.h">
<polygon fill="none" stroke="black" points="1529.5,-124.5 1529.5,-143.5 1578.5,-143.5 1578.5,-124.5 1529.5,-124.5"/>
<text text-anchor="middle" x="1554" y="-131.5" font-family="Helvetica,sans-Serif" font-size="10.00">enum.h</text>
</a>
</g>
</g>
<!-- Node6&#45;&gt;Node18 -->
<g id="edge19" class="edge"><title>Node6&#45;&gt;Node18</title>
<path fill="none" stroke="midnightblue" d="M895.143,-181.444C898.126,-180.894 901.112,-180.399 904,-180 1173.46,-142.723 1245.74,-182.72 1515,-144 1516.46,-143.79 1517.95,-143.553 1519.45,-143.294"/>
<polygon fill="midnightblue" stroke="midnightblue" points="1520.22,-146.709 1529.36,-141.344 1518.87,-139.84 1520.22,-146.709"/>
</g>
<!-- Node20 -->
<g id="node20" class="node"><title>Node20</title>
<g id="a_node20"><a xlink:href="../../d8/d19/atomics_8h.html" target="_top" xlink:title="utils/atomics.h">
<polygon fill="none" stroke="black" points="587,-124.5 587,-143.5 667,-143.5 667,-124.5 587,-124.5"/>
<text text-anchor="middle" x="627" y="-131.5" font-family="Helvetica,sans-Serif" font-size="10.00">utils/atomics.h</text>
</a>
</g>
</g>
<!-- Node6&#45;&gt;Node20 -->
<g id="edge22" class="edge"><title>Node6&#45;&gt;Node20</title>
<path fill="none" stroke="midnightblue" d="M830.68,-181.605C790.222,-172.347 720.61,-156.419 674.193,-145.798"/>
<polygon fill="midnightblue" stroke="midnightblue" points="674.899,-142.37 664.37,-143.551 673.338,-149.193 674.899,-142.37"/>
</g>
<!-- Node21 -->
<g id="node21" class="node"><title>Node21</title>
<g id="a_node21"><a xlink:href="../../d1/ddf/align_8h.html" target="_top" xlink:title="utils/align.h">
<polygon fill="none" stroke="black" points="685,-124.5 685,-143.5 751,-143.5 751,-124.5 685,-124.5"/>
<text text-anchor="middle" x="718" y="-131.5" font-family="Helvetica,sans-Serif" font-size="10.00">utils/align.h</text>
</a>
</g>
</g>
<!-- Node6&#45;&gt;Node21 -->
<g id="edge23" class="edge"><title>Node6&#45;&gt;Node21</title>
<path fill="none" stroke="midnightblue" d="M840.024,-180.444C815.843,-171.438 777.582,-157.189 750.354,-147.049"/>
<polygon fill="midnightblue" stroke="midnightblue" points="751.461,-143.727 740.868,-143.516 749.018,-150.286 751.461,-143.727"/>
</g>
<!-- Node22 -->
<g id="node22" class="node"><title>Node22</title>
<g id="a_node22"><a xlink:href="../../d5/d17/byteorder_8h.html" target="_top" xlink:title="utils/byteorder.h">
<polygon fill="none" stroke="black" points="769,-124.5 769,-143.5 855,-143.5 855,-124.5 769,-124.5"/>
<text text-anchor="middle" x="812" y="-131.5" font-family="Helvetica,sans-Serif" font-size="10.00">utils/byteorder.h</text>
</a>
</g>
</g>
<!-- Node6&#45;&gt;Node22 -->
<g id="edge24" class="edge"><title>Node6&#45;&gt;Node22</title>
<path fill="none" stroke="midnightblue" d="M854.578,-180.083C847.152,-172.22 836.148,-160.569 827.188,-151.081"/>
<polygon fill="midnightblue" stroke="midnightblue" points="829.676,-148.618 820.265,-143.751 824.587,-153.424 829.676,-148.618"/>
</g>
<!-- Node23 -->
<g id="node23" class="node"><title>Node23</title>
<g id="a_node23"><a xlink:href="../../dc/d18/memory_8h.html" target="_top" xlink:title="utils/memory.h">
<polygon fill="none" stroke="black" points="873.5,-124.5 873.5,-143.5 954.5,-143.5 954.5,-124.5 873.5,-124.5"/>
<text text-anchor="middle" x="914" y="-131.5" font-family="Helvetica,sans-Serif" font-size="10.00">utils/memory.h</text>
</a>
</g>
</g>
<!-- Node6&#45;&gt;Node23 -->
<g id="edge25" class="edge"><title>Node6&#45;&gt;Node23</title>
<path fill="none" stroke="midnightblue" d="M871.422,-180.083C878.848,-172.22 889.852,-160.569 898.812,-151.081"/>
<polygon fill="midnightblue" stroke="midnightblue" points="901.413,-153.424 905.735,-143.751 896.324,-148.618 901.413,-153.424"/>
</g>
<!-- Node24 -->
<g id="node24" class="node"><title>Node24</title>
<g id="a_node24"><a xlink:href="../../d9/dd1/strerror_8h.html" target="_top" xlink:title="utils/strerror.h">
<polygon fill="none" stroke="black" points="972.5,-124.5 972.5,-143.5 1049.5,-143.5 1049.5,-124.5 972.5,-124.5"/>
<text text-anchor="middle" x="1011" y="-131.5" font-family="Helvetica,sans-Serif" font-size="10.00">utils/strerror.h</text>
</a>
</g>
</g>
<!-- Node6&#45;&gt;Node24 -->
<g id="edge26" class="edge"><title>Node6&#45;&gt;Node24</title>
<path fill="none" stroke="midnightblue" d="M886.451,-180.444C911.133,-171.438 950.185,-157.189 977.977,-147.049"/>
<polygon fill="midnightblue" stroke="midnightblue" points="979.464,-150.232 987.659,-143.516 977.065,-143.656 979.464,-150.232"/>
</g>
<!-- Node25 -->
<g id="node25" class="node"><title>Node25</title>
<g id="a_node25"><a xlink:href="../../d1/d13/status_8h.html" target="_top" xlink:title="utils/status.h">
<polygon fill="none" stroke="black" points="1067.5,-124.5 1067.5,-143.5 1140.5,-143.5 1140.5,-124.5 1067.5,-124.5"/>
<text text-anchor="middle" x="1104" y="-131.5" font-family="Helvetica,sans-Serif" font-size="10.00">utils/status.h</text>
</a>
</g>
</g>
<!-- Node6&#45;&gt;Node25 -->
<g id="edge27" class="edge"><title>Node6&#45;&gt;Node25</title>
<path fill="none" stroke="midnightblue" d="M895.003,-181.829C936.602,-172.508 1009.56,-156.16 1057.33,-145.457"/>
<polygon fill="midnightblue" stroke="midnightblue" points="1058.13,-148.865 1067.12,-143.263 1056.6,-142.034 1058.13,-148.865"/>
</g>
<!-- Node26 -->
<g id="node26" class="node"><title>Node26</title>
<g id="a_node26"><a xlink:href="../../de/d10/object_8h.html" target="_top" xlink:title="utils/object.h">
<polygon fill="none" stroke="black" points="1159,-124.5 1159,-143.5 1231,-143.5 1231,-124.5 1159,-124.5"/>
<text text-anchor="middle" x="1195" y="-131.5" font-family="Helvetica,sans-Serif" font-size="10.00">utils/object.h</text>
</a>
</g>
</g>
<!-- Node6&#45;&gt;Node26 -->
<g id="edge28" class="edge"><title>Node6&#45;&gt;Node26</title>
<path fill="none" stroke="midnightblue" d="M895.186,-181.711C898.16,-181.105 901.133,-180.525 904,-180 1012.26,-160.189 1040.52,-162.571 1149,-144 1149.1,-143.983 1149.2,-143.966 1149.3,-143.948"/>
<polygon fill="midnightblue" stroke="midnightblue" points="1149.64,-147.443 1158.87,-142.236 1148.41,-140.552 1149.64,-147.443"/>
</g>
<!-- Node27 -->
<g id="node27" class="node"><title>Node27</title>
<g id="a_node27"><a xlink:href="../../d7/dd4/path_8h.html" target="_top" xlink:title="utils/path.h">
<polygon fill="none" stroke="black" points="1249.5,-124.5 1249.5,-143.5 1314.5,-143.5 1314.5,-124.5 1249.5,-124.5"/>
<text text-anchor="middle" x="1282" y="-131.5" font-family="Helvetica,sans-Serif" font-size="10.00">utils/path.h</text>
</a>
</g>
</g>
<!-- Node6&#45;&gt;Node27 -->
<g id="edge29" class="edge"><title>Node6&#45;&gt;Node27</title>
<path fill="none" stroke="midnightblue" d="M895.165,-181.591C898.144,-181.01 901.123,-180.468 904,-180 1049.05,-156.382 1089.96,-167.272 1239.07,-143.985"/>
<polygon fill="midnightblue" stroke="midnightblue" points="1239.72,-147.426 1249.05,-142.401 1238.62,-140.512 1239.72,-147.426"/>
</g>
<!-- Node28 -->
<g id="node28" class="node"><title>Node28</title>
<g id="a_node28"><a xlink:href="../../de/df7/time_8h.html" target="_top" xlink:title="utils/time.h">
<polygon fill="none" stroke="black" points="1332.5,-124.5 1332.5,-143.5 1397.5,-143.5 1397.5,-124.5 1332.5,-124.5"/>
<text text-anchor="middle" x="1365" y="-131.5" font-family="Helvetica,sans-Serif" font-size="10.00">utils/time.h</text>
</a>
</g>
</g>
<!-- Node6&#45;&gt;Node28 -->
<g id="edge30" class="edge"><title>Node6&#45;&gt;Node28</title>
<path fill="none" stroke="midnightblue" d="M895.155,-181.526C898.136,-180.959 901.118,-180.438 904,-180 1085.54,-152.397 1136.37,-170.957 1321.96,-143.961"/>
<polygon fill="midnightblue" stroke="midnightblue" points="1322.68,-147.394 1332.06,-142.468 1321.65,-140.469 1322.68,-147.394"/>
</g>
<!-- Node29 -->
<g id="node29" class="node"><title>Node29</title>
<g id="a_node29"><a xlink:href="../../dd/d71/tty_8h.html" target="_top" xlink:title="utils/tty.h">
<polygon fill="none" stroke="black" points="1415.5,-124.5 1415.5,-143.5 1472.5,-143.5 1472.5,-124.5 1415.5,-124.5"/>
<text text-anchor="middle" x="1444" y="-131.5" font-family="Helvetica,sans-Serif" font-size="10.00">utils/tty.h</text>
</a>
</g>
</g>
<!-- Node6&#45;&gt;Node29 -->
<g id="edge31" class="edge"><title>Node6&#45;&gt;Node29</title>
<path fill="none" stroke="midnightblue" d="M895.148,-181.483C898.131,-180.925 901.115,-180.418 904,-180 1122.13,-148.406 1183.12,-177.021 1405.44,-143.802"/>
<polygon fill="midnightblue" stroke="midnightblue" points="1406.1,-147.241 1415.46,-142.279 1405.05,-140.321 1406.1,-147.241"/>
</g>
<!-- Node19 -->
<g id="node19" class="node"><title>Node19</title>
<g id="a_node19"><a xlink:href="../../dc/d6a/printf__hook_8h.html" target="_top" xlink:title="utils/printf_hook/printf\l_hook.h">
<polygon fill="none" stroke="black" points="1529,-57 1529,-87 1639,-87 1639,-57 1529,-57"/>
<text text-anchor="start" x="1537" y="-75" font-family="Helvetica,sans-Serif" font-size="10.00">utils/printf_hook/printf</text>
<text text-anchor="middle" x="1584" y="-64" font-family="Helvetica,sans-Serif" font-size="10.00">_hook.h</text>
</a>
</g>
</g>
<!-- Node18&#45;&gt;Node19 -->
<g id="edge20" class="edge"><title>Node18&#45;&gt;Node19</title>
<path fill="none" stroke="midnightblue" d="M1558.3,-124.403C1561.98,-117.037 1567.46,-106.077 1572.42,-96.168"/>
<polygon fill="midnightblue" stroke="midnightblue" points="1575.59,-97.6504 1576.93,-87.1408 1569.33,-94.5198 1575.59,-97.6504"/>
</g>
<!-- Node19&#45;&gt;Node7 -->
<g id="edge21" class="edge"><title>Node19&#45;&gt;Node7</title>
<path fill="none" stroke="midnightblue" d="M1574.05,-56.7808C1568.01,-48.152 1560.26,-37.0882 1553.9,-27.9987"/>
<polygon fill="midnightblue" stroke="midnightblue" points="1556.71,-25.9157 1548.11,-19.7305 1550.98,-29.93 1556.71,-25.9157"/>
</g>
</g>
</svg>
        <g id="navigator" transform="translate(0 0)" fill="#404254">
                <rect fill="#f2f5e9" fill-opacity="0.5" stroke="#606060" stroke-width=".5" x="0" y="0" width="60" height="60"/>
                <use id="zoomplus" xlink:href="#zoomPlus" x="17" y="9" onmousedown="handleZoom(evt,'in')"/>
                <use id="zoomminus" xlink:href="#zoomMin" x="42" y="9" onmousedown="handleZoom(evt,'out')"/>
                <use id="reset" xlink:href="#resetDef" x="30" y="36" onmousedown="handleReset()"/>
                <g id="arrowUp" xlink:href="#dirArrow" transform="translate(30 24)" onmousedown="handlePan(0,-1)">
                  <use xlink:href="#rim" fill="#404040">
                        <set attributeName="fill" to="#808080" begin="arrowUp.mouseover" end="arrowUp.mouseout"/>
                  </use>
                  <path fill="none" stroke="white" stroke-width="1.5" d="M0,-3.0v7 M-2.5,-0.5L0,-3.0L2.5,-0.5"/>
                </g>
                <g id="arrowRight" xlink:href="#dirArrow" transform="rotate(90) translate(36 -43)" onmousedown="handlePan(1,0)">
                  <use xlink:href="#rim" fill="#404040">
                        <set attributeName="fill" to="#808080" begin="arrowRight.mouseover" end="arrowRight.mouseout"/>
                  </use>
                  <path fill="none" stroke="white" stroke-width="1.5" d="M0,-3.0v7 M-2.5,-0.5L0,-3.0L2.5,-0.5"/>
                </g>
                <g id="arrowDown" xlink:href="#dirArrow" transform="rotate(180) translate(-30 -48)" onmousedown="handlePan(0,1)">
                  <use xlink:href="#rim" fill="#404040">
                        <set attributeName="fill" to="#808080" begin="arrowDown.mouseover" end="arrowDown.mouseout"/>
                  </use>
                  <path fill="none" stroke="white" stroke-width="1.5" d="M0,-3.0v7 M-2.5,-0.5L0,-3.0L2.5,-0.5"/>
                </g>
                <g id="arrowLeft" xlink:href="#dirArrow" transform="rotate(270) translate(-36 17)" onmousedown="handlePan(-1,0)">
                  <use xlink:href="#rim" fill="#404040">
                        <set attributeName="fill" to="#808080" begin="arrowLeft.mouseover" end="arrowLeft.mouseout"/>
                  </use>
                  <path fill="none" stroke="white" stroke-width="1.5" d="M0,-3.0v7 M-2.5,-0.5L0,-3.0L2.5,-0.5"/>
                </g>
        </g>
        <svg viewBox="0 0 15 15" width="100%" height="30px" preserveAspectRatio="xMaxYMin meet">
         <g id="arrow_out" transform="scale(0.3 0.3)">
          <a xlink:href="tkm__utils_8h__incl_org.svg" target="_base">
           <rect id="button" ry="5" rx="5" y="6" x="6" height="38" width="38"
                fill="#f2f5e9" fill-opacity="0.5" stroke="#606060" stroke-width="1.0"/>
           <path id="arrow"
             d="M 11.500037,31.436501 C 11.940474,20.09759 22.043105,11.32322 32.158766,21.979434 L 37.068811,17.246167 C 37.068811,17.246167 37.088388,32 37.088388,32 L 22.160133,31.978069 C 22.160133,31.978069 26.997745,27.140456 26.997745,27.140456 C 18.528582,18.264221 13.291696,25.230495 11.500037,31.436501 z"
             style="fill:#404040;"/>
          </a>
         </g>
        </svg>
</svg>
