<?xml version="1.0" encoding="UTF-8" standalone="no"?>
<!DOCTYPE svg PUBLIC "-//W3C//DTD SVG 1.1//EN"
 "http://www.w3.org/Graphics/SVG/1.1/DTD/svg11.dtd">
<!-- Generated by graphviz version 2.36.0 (20140111.2315)
 -->
<!-- Title: METHOD Pages: 1 -->
<svg width="178pt" height="66pt"
 viewBox="0.00 0.00 178.00 66.00" xmlns="http://www.w3.org/2000/svg" xmlns:xlink="http://www.w3.org/1999/xlink">
<g id="graph0" class="graph" transform="scale(1 1) rotate(0) translate(4 62)">
<title>METHOD</title>
<!-- Node1 -->
<g id="node1" class="node"><title>Node1</title>
<polygon fill="#bfbfbf" stroke="black" points="0,-19.5 0,-38.5 60,-38.5 60,-19.5 0,-19.5"/>
<text text-anchor="middle" x="30" y="-26.5" font-family="Helvetica,sans-Serif" font-size="10.00">METHOD</text>
</g>
<!-- Node2 -->
<g id="node2" class="node"><title>Node2</title>
<g id="a_node2"><a xlink:href="../../d7/de0/backtrace_8c.html#a86e2f83a774e462bece92a9a450aa67d" target="_top" xlink:title="get_methods">
<polygon fill="none" stroke="black" points="96.5,-38.5 96.5,-57.5 169.5,-57.5 169.5,-38.5 96.5,-38.5"/>
<text text-anchor="middle" x="133" y="-45.5" font-family="Helvetica,sans-Serif" font-size="10.00">get_methods</text>
</a>
</g>
</g>
<!-- Node1&#45;&gt;Node2 -->
<g id="edge1" class="edge"><title>Node1&#45;&gt;Node2</title>
<path fill="none" stroke="midnightblue" d="M60.2134,-34.4956C68.4253,-36.0404 77.5565,-37.7581 86.4783,-39.4365"/>
<polygon fill="midnightblue" stroke="midnightblue" points="85.9276,-42.8942 96.4023,-41.3034 87.2218,-36.0149 85.9276,-42.8942"/>
</g>
<!-- Node3 -->
<g id="node3" class="node"><title>Node3</title>
<g id="a_node3"><a xlink:href="../../da/dfc/settings__parser_8c.html#a5faf6a2d99f50a4655dd390199a8db7b" target="_top" xlink:title="malloc">
<polygon fill="none" stroke="black" points="110.5,-0.5 110.5,-19.5 155.5,-19.5 155.5,-0.5 110.5,-0.5"/>
<text text-anchor="middle" x="133" y="-7.5" font-family="Helvetica,sans-Serif" font-size="10.00">malloc</text>
</a>
</g>
</g>
<!-- Node1&#45;&gt;Node3 -->
<g id="edge2" class="edge"><title>Node1&#45;&gt;Node3</title>
<path fill="none" stroke="midnightblue" d="M60.2134,-23.5044C72.6847,-21.1583 87.276,-18.4134 100.035,-16.0133"/>
<polygon fill="midnightblue" stroke="midnightblue" points="101.054,-19.3831 110.234,-14.0946 99.7594,-12.5038 101.054,-19.3831"/>
</g>
</g>
</svg>
