<?xml version="1.0" encoding="UTF-8" standalone="no"?>
<!DOCTYPE svg PUBLIC "-//W3C//DTD SVG 1.1//EN"
 "http://www.w3.org/Graphics/SVG/1.1/DTD/svg11.dtd">
<!-- Generated by graphviz version 2.36.0 (20140111.2315)
 -->
<!-- Title: mpz_mul_poly Pages: 1 -->
<svg width="328pt" height="104pt"
 viewBox="0.00 0.00 328.00 104.00" xmlns="http://www.w3.org/2000/svg" xmlns:xlink="http://www.w3.org/1999/xlink">
<g id="graph0" class="graph" transform="scale(1 1) rotate(0) translate(4 100)">
<title>mpz_mul_poly</title>
<!-- Node1 -->
<g id="node1" class="node"><title>Node1</title>
<polygon fill="#bfbfbf" stroke="black" points="0,-38.5 0,-57.5 80,-57.5 80,-38.5 0,-38.5"/>
<text text-anchor="middle" x="40" y="-45.5" font-family="Helvetica,sans-Serif" font-size="10.00">mpz_mul_poly</text>
</g>
<!-- Node2 -->
<g id="node2" class="node"><title>Node2</title>
<g id="a_node2"><a xlink:href="../../d0/d79/eap__aka__3gpp2__functions_8c.html#a7844e1b07d924f36c7e73c12b9dddea2" target="_top" xlink:title="step4">
<polygon fill="none" stroke="black" points="116.5,-38.5 116.5,-57.5 157.5,-57.5 157.5,-38.5 116.5,-38.5"/>
<text text-anchor="middle" x="137" y="-45.5" font-family="Helvetica,sans-Serif" font-size="10.00">step4</text>
</a>
</g>
</g>
<!-- Node1&#45;&gt;Node2 -->
<g id="edge1" class="edge"><title>Node1&#45;&gt;Node2</title>
<path fill="none" stroke="midnightblue" d="M90.2263,-48C99.5068,-48 108.699,-48 116.384,-48"/>
<polygon fill="midnightblue" stroke="midnightblue" points="90.1886,-44.5001 80.1886,-48 90.1886,-51.5001 90.1886,-44.5001"/>
</g>
<!-- Node3 -->
<g id="node3" class="node"><title>Node3</title>
<g id="a_node3"><a xlink:href="../../d0/d79/eap__aka__3gpp2__functions_8c.html#a4d6a33f54532e7a5c385fc81938022af" target="_top" xlink:title="fx">
<polygon fill="none" stroke="black" points="194.5,-76.5 194.5,-95.5 223.5,-95.5 223.5,-76.5 194.5,-76.5"/>
<text text-anchor="middle" x="209" y="-83.5" font-family="Helvetica,sans-Serif" font-size="10.00">fx</text>
</a>
</g>
</g>
<!-- Node2&#45;&gt;Node3 -->
<g id="edge2" class="edge"><title>Node2&#45;&gt;Node3</title>
<path fill="none" stroke="midnightblue" d="M164.586,-62.4324C174.723,-67.9351 185.86,-73.9812 194.316,-78.5717"/>
<polygon fill="midnightblue" stroke="midnightblue" points="166.122,-59.284 155.664,-57.589 162.783,-65.436 166.122,-59.284"/>
</g>
<!-- Node5 -->
<g id="node5" class="node"><title>Node5</title>
<g id="a_node5"><a xlink:href="../../d0/d79/eap__aka__3gpp2__functions_8c.html#a4d974066979015d4a1c201828d34dfcb" target="_top" xlink:title="f1x">
<polygon fill="none" stroke="black" points="194,-38.5 194,-57.5 224,-57.5 224,-38.5 194,-38.5"/>
<text text-anchor="middle" x="209" y="-45.5" font-family="Helvetica,sans-Serif" font-size="10.00">f1x</text>
</a>
</g>
</g>
<!-- Node2&#45;&gt;Node5 -->
<g id="edge4" class="edge"><title>Node2&#45;&gt;Node5</title>
<path fill="none" stroke="midnightblue" d="M168.051,-48C177.018,-48 186.428,-48 193.861,-48"/>
<polygon fill="midnightblue" stroke="midnightblue" points="167.872,-44.5001 157.872,-48 167.872,-51.5001 167.872,-44.5001"/>
</g>
<!-- Node7 -->
<g id="node7" class="node"><title>Node7</title>
<g id="a_node7"><a xlink:href="../../d0/d79/eap__aka__3gpp2__functions_8c.html#a4dbc5d9bc2233f3bc307bf82e7d72ed1" target="_top" xlink:title="f5x">
<polygon fill="none" stroke="black" points="194,-0.5 194,-19.5 224,-19.5 224,-0.5 194,-0.5"/>
<text text-anchor="middle" x="209" y="-7.5" font-family="Helvetica,sans-Serif" font-size="10.00">f5x</text>
</a>
</g>
</g>
<!-- Node2&#45;&gt;Node7 -->
<g id="edge6" class="edge"><title>Node2&#45;&gt;Node7</title>
<path fill="none" stroke="midnightblue" d="M164.46,-33.6358C174.452,-28.212 185.432,-22.2513 193.866,-17.6727"/>
<polygon fill="midnightblue" stroke="midnightblue" points="162.783,-30.564 155.664,-38.411 166.122,-36.716 162.783,-30.564"/>
</g>
<!-- Node4 -->
<g id="node4" class="node"><title>Node4</title>
<g id="a_node4"><a xlink:href="../../d0/d79/eap__aka__3gpp2__functions_8c.html#a5b60f1fa1f987340bf38ad31fc73892f" target="_top" xlink:title="METHOD">
<polygon fill="none" stroke="black" points="260,-76.5 260,-95.5 320,-95.5 320,-76.5 260,-76.5"/>
<text text-anchor="middle" x="290" y="-83.5" font-family="Helvetica,sans-Serif" font-size="10.00">METHOD</text>
</a>
</g>
</g>
<!-- Node3&#45;&gt;Node4 -->
<g id="edge3" class="edge"><title>Node3&#45;&gt;Node4</title>
<path fill="none" stroke="midnightblue" d="M234.004,-86C242.103,-86 251.234,-86 259.696,-86"/>
<polygon fill="midnightblue" stroke="midnightblue" points="233.761,-82.5001 223.761,-86 233.761,-89.5001 233.761,-82.5001"/>
</g>
<!-- Node6 -->
<g id="node6" class="node"><title>Node6</title>
<g id="a_node6"><a xlink:href="../../d0/d79/eap__aka__3gpp2__functions_8c.html#ab900e6c64ecdc98a148f09354a847d7a" target="_top" xlink:title="METHOD">
<polygon fill="none" stroke="black" points="260,-38.5 260,-57.5 320,-57.5 320,-38.5 260,-38.5"/>
<text text-anchor="middle" x="290" y="-45.5" font-family="Helvetica,sans-Serif" font-size="10.00">METHOD</text>
</a>
</g>
</g>
<!-- Node5&#45;&gt;Node6 -->
<g id="edge5" class="edge"><title>Node5&#45;&gt;Node6</title>
<path fill="none" stroke="midnightblue" d="M234.376,-48C242.462,-48 251.545,-48 259.948,-48"/>
<polygon fill="midnightblue" stroke="midnightblue" points="234.124,-44.5001 224.124,-48 234.124,-51.5001 234.124,-44.5001"/>
</g>
<!-- Node8 -->
<g id="node8" class="node"><title>Node8</title>
<g id="a_node8"><a xlink:href="../../d0/d79/eap__aka__3gpp2__functions_8c.html#a91148b59738860df6b7144d94884ae0b" target="_top" xlink:title="METHOD">
<polygon fill="none" stroke="black" points="260,-0.5 260,-19.5 320,-19.5 320,-0.5 260,-0.5"/>
<text text-anchor="middle" x="290" y="-7.5" font-family="Helvetica,sans-Serif" font-size="10.00">METHOD</text>
</a>
</g>
</g>
<!-- Node7&#45;&gt;Node8 -->
<g id="edge7" class="edge"><title>Node7&#45;&gt;Node8</title>
<path fill="none" stroke="midnightblue" d="M234.376,-10C242.462,-10 251.545,-10 259.948,-10"/>
<polygon fill="midnightblue" stroke="midnightblue" points="234.124,-6.5001 224.124,-10 234.124,-13.5001 234.124,-6.5001"/>
</g>
</g>
</svg>
