<?xml version="1.0" encoding="UTF-8" standalone="no"?>
<!DOCTYPE svg PUBLIC "-//W3C//DTD SVG 1.1//EN"
 "http://www.w3.org/Graphics/SVG/1.1/DTD/svg11.dtd">
<!-- Generated by graphviz version 2.36.0 (20140111.2315)
 -->
<!-- Title: load_entries Pages: 1 -->
<svg width="348pt" height="66pt"
 viewBox="0.00 0.00 348.00 66.00" xmlns="http://www.w3.org/2000/svg" xmlns:xlink="http://www.w3.org/1999/xlink">
<g id="graph0" class="graph" transform="scale(1 1) rotate(0) translate(4 62)">
<title>load_entries</title>
<!-- Node1 -->
<g id="node1" class="node"><title>Node1</title>
<polygon fill="#bfbfbf" stroke="black" points="0.5,-19.5 0.5,-38.5 69.5,-38.5 69.5,-19.5 0.5,-19.5"/>
<text text-anchor="middle" x="35" y="-26.5" font-family="Helvetica,sans-Serif" font-size="10.00">load_entries</text>
</g>
<!-- Node2 -->
<g id="node2" class="node"><title>Node2</title>
<g id="a_node2"><a xlink:href="../../d8/dc8/attr__provider_8c.html#a4c7249369af547c8a68b312f6309c0f0" target="_top" xlink:title="attr_provider_create">
<polygon fill="none" stroke="black" points="106.5,-38.5 106.5,-57.5 209.5,-57.5 209.5,-38.5 106.5,-38.5"/>
<text text-anchor="middle" x="158" y="-45.5" font-family="Helvetica,sans-Serif" font-size="10.00">attr_provider_create</text>
</a>
</g>
</g>
<!-- Node1&#45;&gt;Node2 -->
<g id="edge1" class="edge"><title>Node1&#45;&gt;Node2</title>
<path fill="none" stroke="midnightblue" d="M79.5889,-35.8445C88.2451,-37.2038 97.4035,-38.6419 106.274,-40.0348"/>
<polygon fill="midnightblue" stroke="midnightblue" points="80.1272,-32.3863 69.7052,-34.2926 79.0412,-39.3015 80.1272,-32.3863"/>
</g>
<!-- Node4 -->
<g id="node4" class="node"><title>Node4</title>
<g id="a_node4"><a xlink:href="../../d8/dc8/attr__provider_8c.html#a6c970f9504478ecf7bf66894ea5901c1" target="_top" xlink:title="METHOD">
<polygon fill="none" stroke="black" points="128,-0.5 128,-19.5 188,-19.5 188,-0.5 128,-0.5"/>
<text text-anchor="middle" x="158" y="-7.5" font-family="Helvetica,sans-Serif" font-size="10.00">METHOD</text>
</a>
</g>
</g>
<!-- Node1&#45;&gt;Node4 -->
<g id="edge3" class="edge"><title>Node1&#45;&gt;Node4</title>
<path fill="none" stroke="midnightblue" d="M79.9271,-22.1024C95.9288,-19.5897 113.606,-16.8139 127.991,-14.5551"/>
<polygon fill="midnightblue" stroke="midnightblue" points="79.0412,-18.6985 69.7052,-23.7074 80.1272,-25.6138 79.0412,-18.6985"/>
</g>
<!-- Node3 -->
<g id="node3" class="node"><title>Node3</title>
<g id="a_node3"><a xlink:href="../../d3/d26/attr__plugin_8c.html#a8f7bbe69a51c7d9b04ef525efeca38ee" target="_top" xlink:title="attr_plugin_create">
<polygon fill="none" stroke="black" points="246,-38.5 246,-57.5 340,-57.5 340,-38.5 246,-38.5"/>
<text text-anchor="middle" x="293" y="-45.5" font-family="Helvetica,sans-Serif" font-size="10.00">attr_plugin_create</text>
</a>
</g>
</g>
<!-- Node2&#45;&gt;Node3 -->
<g id="edge2" class="edge"><title>Node2&#45;&gt;Node3</title>
<path fill="none" stroke="midnightblue" d="M219.829,-48C228.573,-48 237.449,-48 245.846,-48"/>
<polygon fill="midnightblue" stroke="midnightblue" points="219.661,-44.5001 209.661,-48 219.661,-51.5001 219.661,-44.5001"/>
</g>
</g>
</svg>
