<?xml version="1.0" encoding="UTF-8" standalone="no"?>
<!DOCTYPE svg PUBLIC "-//W3C//DTD SVG 1.1//EN"
 "http://www.w3.org/Graphics/SVG/1.1/DTD/svg11.dtd">
<!-- Generated by graphviz version 2.36.0 (20140111.2315)
 -->
<!-- Title: tun_device_create Pages: 1 -->
<svg width="274pt" height="115pt"
 viewBox="0.00 0.00 274.00 115.00" xmlns="http://www.w3.org/2000/svg" xmlns:xlink="http://www.w3.org/1999/xlink">
<g id="graph0" class="graph" transform="scale(1 1) rotate(0) translate(4 111)">
<title>tun_device_create</title>
<!-- Node1 -->
<g id="node1" class="node"><title>Node1</title>
<polygon fill="#bfbfbf" stroke="black" points="0,-38.5 0,-57.5 96,-57.5 96,-38.5 0,-38.5"/>
<text text-anchor="middle" x="48" y="-45.5" font-family="Helvetica,sans-Serif" font-size="10.00">tun_device_create</text>
</g>
<!-- Node2 -->
<g id="node2" class="node"><title>Node2</title>
<g id="a_node2"><a xlink:href="../../d2/d00/kernel__libipsec__plugin_8c.html#a5c850b5b11f56dd41f495396c0d670df" target="_top" xlink:title="kernel_libipsec_plugin\l_create">
<polygon fill="none" stroke="black" points="143,-77 143,-107 255,-107 255,-77 143,-77"/>
<text text-anchor="start" x="151" y="-95" font-family="Helvetica,sans-Serif" font-size="10.00">kernel_libipsec_plugin</text>
<text text-anchor="middle" x="199" y="-84" font-family="Helvetica,sans-Serif" font-size="10.00">_create</text>
</a>
</g>
</g>
<!-- Node1&#45;&gt;Node2 -->
<g id="edge1" class="edge"><title>Node1&#45;&gt;Node2</title>
<path fill="none" stroke="midnightblue" d="M91.178,-60.4553C108.537,-65.5813 128.799,-71.5649 146.983,-76.9346"/>
<polygon fill="midnightblue" stroke="midnightblue" points="91.9126,-57.0228 81.3308,-57.5473 89.9301,-63.7362 91.9126,-57.0228"/>
</g>
<!-- Node3 -->
<g id="node3" class="node"><title>Node3</title>
<g id="a_node3"><a xlink:href="../../d1/d1f/kernel__pfroute__net_8c.html#ae49c763c6d73b7f8db09b510569bd88e" target="_top" xlink:title="METHOD">
<polygon fill="none" stroke="black" points="169,-38.5 169,-57.5 229,-57.5 229,-38.5 169,-38.5"/>
<text text-anchor="middle" x="199" y="-45.5" font-family="Helvetica,sans-Serif" font-size="10.00">METHOD</text>
</a>
</g>
</g>
<!-- Node1&#45;&gt;Node3 -->
<g id="edge2" class="edge"><title>Node1&#45;&gt;Node3</title>
<path fill="none" stroke="midnightblue" d="M106.15,-48C127.593,-48 151.068,-48 168.918,-48"/>
<polygon fill="midnightblue" stroke="midnightblue" points="106.145,-44.5001 96.1445,-48 106.144,-51.5001 106.145,-44.5001"/>
</g>
<!-- Node4 -->
<g id="node4" class="node"><title>Node4</title>
<g id="a_node4"><a xlink:href="../../d0/d53/nm__service_8c.html#ab109d172f75c6d4d71100bf51bff19ff" target="_top" xlink:title="nm_strongswan_plugin_init">
<polygon fill="none" stroke="black" points="132,-0.5 132,-19.5 266,-19.5 266,-0.5 132,-0.5"/>
<text text-anchor="middle" x="199" y="-7.5" font-family="Helvetica,sans-Serif" font-size="10.00">nm_strongswan_plugin_init</text>
</a>
</g>
</g>
<!-- Node1&#45;&gt;Node4 -->
<g id="edge3" class="edge"><title>Node1&#45;&gt;Node4</title>
<path fill="none" stroke="midnightblue" d="M96.4922,-35.8879C117.244,-30.5956 141.228,-24.4787 160.671,-19.5201"/>
<polygon fill="midnightblue" stroke="midnightblue" points="95.4239,-32.5482 86.599,-38.411 97.1538,-39.3311 95.4239,-32.5482"/>
</g>
</g>
</svg>
