<?xml version="1.0" encoding="UTF-8" standalone="no"?>
<!DOCTYPE svg PUBLIC "-//W3C//DTD SVG 1.1//EN"
 "http://www.w3.org/Graphics/SVG/1.1/DTD/svg11.dtd">
<!-- Generated by graphviz version 2.36.0 (20140111.2315)
 -->
<!-- Title: atodn Pages: 1 -->
<svg width="722pt" height="196pt"
 viewBox="0.00 0.00 722.00 196.12" xmlns="http://www.w3.org/2000/svg" xmlns:xlink="http://www.w3.org/1999/xlink">
<g id="graph0" class="graph" transform="scale(1 1) rotate(0) translate(4 192.122)">
<title>atodn</title>
<!-- Node1 -->
<g id="node1" class="node"><title>Node1</title>
<polygon fill="#bfbfbf" stroke="black" points="0.5,-92.622 0.5,-111.622 41.5,-111.622 41.5,-92.622 0.5,-92.622"/>
<text text-anchor="middle" x="21" y="-99.622" font-family="Helvetica,sans-Serif" font-size="10.00">atodn</text>
</g>
<!-- Node2 -->
<g id="node2" class="node"><title>Node2</title>
<g id="a_node2"><a xlink:href="../../d0/da0/group__asn1i.html#gafc47ce497a7d333125fe7b4919ecf156" target="_top" xlink:title="asn1_build_known_oid">
<polygon fill="none" stroke="black" points="78.5,-168.622 78.5,-187.622 193.5,-187.622 193.5,-168.622 78.5,-168.622"/>
<text text-anchor="middle" x="136" y="-175.622" font-family="Helvetica,sans-Serif" font-size="10.00">asn1_build_known_oid</text>
</a>
</g>
</g>
<!-- Node1&#45;&gt;Node2 -->
<g id="edge1" class="edge"><title>Node1&#45;&gt;Node2</title>
<path fill="none" stroke="midnightblue" d="M30.2988,-111.642C40.5755,-122.97 59.0535,-141.885 78,-154.122 83.9995,-157.997 90.7294,-161.478 97.4051,-164.509"/>
<polygon fill="midnightblue" stroke="midnightblue" points="96.484,-167.921 107.056,-168.621 99.2278,-161.481 96.484,-167.921"/>
</g>
<!-- Node3 -->
<g id="node3" class="node"><title>Node3</title>
<g id="a_node3"><a xlink:href="../../d0/da0/group__asn1i.html#gaa4b22cdadd3251eef380d585a8d3adc1" target="_top" xlink:title="asn1_build_object">
<polygon fill="none" stroke="black" points="230.5,-130.622 230.5,-149.622 325.5,-149.622 325.5,-130.622 230.5,-130.622"/>
<text text-anchor="middle" x="278" y="-137.622" font-family="Helvetica,sans-Serif" font-size="10.00">asn1_build_object</text>
</a>
</g>
</g>
<!-- Node1&#45;&gt;Node3 -->
<g id="edge2" class="edge"><title>Node1&#45;&gt;Node3</title>
<path fill="none" stroke="midnightblue" d="M41.6416,-110.035C52.2426,-113.986 65.6526,-118.475 78,-121.122 125.295,-131.259 180.074,-135.99 220.171,-138.197"/>
<polygon fill="midnightblue" stroke="midnightblue" points="220.127,-141.699 230.294,-138.717 220.487,-134.708 220.127,-141.699"/>
</g>
<!-- Node6 -->
<g id="node6" class="node"><title>Node6</title>
<g id="a_node6"><a xlink:href="../../d0/da0/group__asn1i.html#gae7dc25238f49a79e26e78b7078871319" target="_top" xlink:title="asn1_is_printablestring">
<polygon fill="none" stroke="black" points="78,-92.622 78,-111.622 194,-111.622 194,-92.622 78,-92.622"/>
<text text-anchor="middle" x="136" y="-99.622" font-family="Helvetica,sans-Serif" font-size="10.00">asn1_is_printablestring</text>
</a>
</g>
</g>
<!-- Node1&#45;&gt;Node6 -->
<g id="edge5" class="edge"><title>Node1&#45;&gt;Node6</title>
<path fill="none" stroke="midnightblue" d="M41.6831,-102.122C49.113,-102.122 58.0473,-102.122 67.4043,-102.122"/>
<polygon fill="midnightblue" stroke="midnightblue" points="67.6724,-105.622 77.6724,-102.122 67.6724,-98.6221 67.6724,-105.622"/>
</g>
<!-- Node7 -->
<g id="node7" class="node"><title>Node7</title>
<g id="a_node7"><a xlink:href="../../d0/da0/group__asn1i.html#gaa5b766a452be068282b808b6b6f85f7e" target="_top" xlink:title="asn1_wrap">
<polygon fill="none" stroke="black" points="104,-54.622 104,-73.622 168,-73.622 168,-54.622 104,-54.622"/>
<text text-anchor="middle" x="136" y="-61.622" font-family="Helvetica,sans-Serif" font-size="10.00">asn1_wrap</text>
</a>
</g>
</g>
<!-- Node1&#45;&gt;Node7 -->
<g id="edge6" class="edge"><title>Node1&#45;&gt;Node7</title>
<path fill="none" stroke="midnightblue" d="M41.6878,-95.4136C52.4178,-91.7646 65.9336,-87.18 78,-83.122 84.0341,-81.0927 90.4308,-78.9511 96.6742,-76.866"/>
<polygon fill="midnightblue" stroke="midnightblue" points="97.9062,-80.1448 106.285,-73.6604 95.6913,-73.5044 97.9062,-80.1448"/>
</g>
<!-- Node13 -->
<g id="node13" class="node"><title>Node13</title>
<g id="a_node13"><a xlink:href="../../da/dfc/settings__parser_8c.html#af07d89f5ceaea0c7c8252cc41fd75f37" target="_top" xlink:title="free">
<polygon fill="none" stroke="black" points="526.5,-16.622 526.5,-35.622 559.5,-35.622 559.5,-16.622 526.5,-16.622"/>
<text text-anchor="middle" x="543" y="-23.622" font-family="Helvetica,sans-Serif" font-size="10.00">free</text>
</a>
</g>
</g>
<!-- Node1&#45;&gt;Node13 -->
<g id="edge16" class="edge"><title>Node1&#45;&gt;Node13</title>
<path fill="none" stroke="midnightblue" d="M28.2151,-92.4201C37.3317,-79.1299 55.6909,-55.7079 78,-45.122 230.075,27.0386 442.719,-5.86527 515.988,-20.458"/>
<polygon fill="midnightblue" stroke="midnightblue" points="515.643,-23.9602 526.143,-22.5439 517.052,-17.1033 515.643,-23.9602"/>
</g>
<!-- Node4 -->
<g id="node4" class="node"><title>Node4</title>
<g id="a_node4"><a xlink:href="../../d6/d36/asn1_8c.html#a72c37051a4d4cda52b0ab80893884abd" target="_top" xlink:title="asn1_code_length">
<polygon fill="none" stroke="black" points="362.5,-168.622 362.5,-187.622 457.5,-187.622 457.5,-168.622 362.5,-168.622"/>
<text text-anchor="middle" x="410" y="-175.622" font-family="Helvetica,sans-Serif" font-size="10.00">asn1_code_length</text>
</a>
</g>
</g>
<!-- Node3&#45;&gt;Node4 -->
<g id="edge3" class="edge"><title>Node3&#45;&gt;Node4</title>
<path fill="none" stroke="midnightblue" d="M311.804,-149.711C328.278,-154.526 348.443,-160.421 366.127,-165.59"/>
<polygon fill="midnightblue" stroke="midnightblue" points="365.626,-169.09 376.206,-168.536 367.59,-162.371 365.626,-169.09"/>
</g>
<!-- Node5 -->
<g id="node5" class="node"><title>Node5</title>
<g id="a_node5"><a xlink:href="../../da/dfc/settings__parser_8c.html#a5faf6a2d99f50a4655dd390199a8db7b" target="_top" xlink:title="malloc">
<polygon fill="none" stroke="black" points="387.5,-130.622 387.5,-149.622 432.5,-149.622 432.5,-130.622 387.5,-130.622"/>
<text text-anchor="middle" x="410" y="-137.622" font-family="Helvetica,sans-Serif" font-size="10.00">malloc</text>
</a>
</g>
</g>
<!-- Node3&#45;&gt;Node5 -->
<g id="edge4" class="edge"><title>Node3&#45;&gt;Node5</title>
<path fill="none" stroke="midnightblue" d="M325.566,-140.122C342.732,-140.122 361.769,-140.122 377.319,-140.122"/>
<polygon fill="midnightblue" stroke="midnightblue" points="377.461,-143.622 387.461,-140.122 377.461,-136.622 377.461,-143.622"/>
</g>
<!-- Node7&#45;&gt;Node3 -->
<g id="edge7" class="edge"><title>Node7&#45;&gt;Node3</title>
<path fill="none" stroke="midnightblue" d="M168.103,-72.7442C176.69,-75.5893 185.875,-79.0788 194,-83.122 216.976,-94.5558 240.897,-111.622 257.122,-124.1"/>
<polygon fill="midnightblue" stroke="midnightblue" points="255.258,-127.086 265.29,-130.495 259.574,-121.574 255.258,-127.086"/>
</g>
<!-- Node8 -->
<g id="node8" class="node"><title>Node8</title>
<g id="a_node8"><a xlink:href="../../d4/d87/group__chunk.html#gaaa5a9811df1bd2ae5e331748f7fbaf75" target="_top" xlink:title="chunk_clear">
<polygon fill="none" stroke="black" points="243.5,-54.622 243.5,-73.622 312.5,-73.622 312.5,-54.622 243.5,-54.622"/>
<text text-anchor="middle" x="278" y="-61.622" font-family="Helvetica,sans-Serif" font-size="10.00">chunk_clear</text>
</a>
</g>
</g>
<!-- Node7&#45;&gt;Node8 -->
<g id="edge8" class="edge"><title>Node7&#45;&gt;Node8</title>
<path fill="none" stroke="midnightblue" d="M168.071,-64.122C187.178,-64.122 211.959,-64.122 233.056,-64.122"/>
<polygon fill="midnightblue" stroke="midnightblue" points="233.076,-67.6221 243.076,-64.122 233.076,-60.6221 233.076,-67.6221"/>
</g>
<!-- Node7&#45;&gt;Node13 -->
<g id="edge15" class="edge"><title>Node7&#45;&gt;Node13</title>
<path fill="none" stroke="midnightblue" d="M168.239,-56.596C186.201,-52.5569 209.251,-47.8595 230,-45.122 335.479,-31.2059 462.389,-27.4611 516.04,-26.4704"/>
<polygon fill="midnightblue" stroke="midnightblue" points="516.403,-29.9649 526.343,-26.2981 516.286,-22.9659 516.403,-29.9649"/>
</g>
<!-- Node9 -->
<g id="node9" class="node"><title>Node9</title>
<g id="a_node9"><a xlink:href="../../dd/d74/group__memory__i.html#ga6d5ce21860b55e0c54353999c4f4f077" target="_top" xlink:title="memwipe">
<polygon fill="none" stroke="black" points="380.5,-92.622 380.5,-111.622 439.5,-111.622 439.5,-92.622 380.5,-92.622"/>
<text text-anchor="middle" x="410" y="-99.622" font-family="Helvetica,sans-Serif" font-size="10.00">memwipe</text>
</a>
</g>
</g>
<!-- Node8&#45;&gt;Node9 -->
<g id="edge9" class="edge"><title>Node8&#45;&gt;Node9</title>
<path fill="none" stroke="midnightblue" d="M311.804,-73.711C329.657,-78.9294 351.844,-85.4149 370.511,-90.8714"/>
<polygon fill="midnightblue" stroke="midnightblue" points="369.609,-94.254 380.189,-93.7004 371.573,-87.5352 369.609,-94.254"/>
</g>
<!-- Node12 -->
<g id="node12" class="node"><title>Node12</title>
<g id="a_node12"><a xlink:href="../../d4/d87/group__chunk.html#gaa86c84493369a4254d5801cdca20d458" target="_top" xlink:title="chunk_free">
<polygon fill="none" stroke="black" points="377.5,-54.622 377.5,-73.622 442.5,-73.622 442.5,-54.622 377.5,-54.622"/>
<text text-anchor="middle" x="410" y="-61.622" font-family="Helvetica,sans-Serif" font-size="10.00">chunk_free</text>
</a>
</g>
</g>
<!-- Node8&#45;&gt;Node12 -->
<g id="edge13" class="edge"><title>Node8&#45;&gt;Node12</title>
<path fill="none" stroke="midnightblue" d="M312.817,-64.122C329.264,-64.122 349.202,-64.122 366.652,-64.122"/>
<polygon fill="midnightblue" stroke="midnightblue" points="367.141,-67.6221 377.141,-64.122 367.141,-60.6221 367.141,-67.6221"/>
</g>
<!-- Node10 -->
<g id="node10" class="node"><title>Node10</title>
<g id="a_node10"><a xlink:href="../../dd/d74/group__memory__i.html#ga4d6f7708d6b8ea1ec0fbe97b3885ce1e" target="_top" xlink:title="memwipe_inline">
<polygon fill="none" stroke="black" points="628,-92.622 628,-111.622 714,-111.622 714,-92.622 628,-92.622"/>
<text text-anchor="middle" x="671" y="-99.622" font-family="Helvetica,sans-Serif" font-size="10.00">memwipe_inline</text>
</a>
</g>
</g>
<!-- Node9&#45;&gt;Node10 -->
<g id="edge10" class="edge"><title>Node9&#45;&gt;Node10</title>
<path fill="none" stroke="midnightblue" d="M439.707,-102.122C482.642,-102.122 564.261,-102.122 617.899,-102.122"/>
<polygon fill="midnightblue" stroke="midnightblue" points="617.903,-105.622 627.903,-102.122 617.903,-98.6221 617.903,-105.622"/>
</g>
<!-- Node11 -->
<g id="node11" class="node"><title>Node11</title>
<g id="a_node11"><a xlink:href="../../dd/d74/group__memory__i.html#gabf6fa8b701d6f2052a551333b3694063" target="_top" xlink:title="memwipe_noinline">
<polygon fill="none" stroke="black" points="494.5,-73.622 494.5,-92.622 591.5,-92.622 591.5,-73.622 494.5,-73.622"/>
<text text-anchor="middle" x="543" y="-80.622" font-family="Helvetica,sans-Serif" font-size="10.00">memwipe_noinline</text>
</a>
</g>
</g>
<!-- Node9&#45;&gt;Node11 -->
<g id="edge11" class="edge"><title>Node9&#45;&gt;Node11</title>
<path fill="none" stroke="midnightblue" d="M439.749,-97.9524C452.846,-96.0527 468.843,-93.7325 484.259,-91.4967"/>
<polygon fill="midnightblue" stroke="midnightblue" points="484.875,-94.9441 494.269,-90.0449 483.87,-88.0165 484.875,-94.9441"/>
</g>
<!-- Node11&#45;&gt;Node10 -->
<g id="edge12" class="edge"><title>Node11&#45;&gt;Node10</title>
<path fill="none" stroke="midnightblue" d="M591.635,-90.3051C600.15,-91.5891 609.064,-92.9333 617.702,-94.2358"/>
<polygon fill="midnightblue" stroke="midnightblue" points="617.264,-97.7092 627.674,-95.7395 618.308,-90.7875 617.264,-97.7092"/>
</g>
<!-- Node12&#45;&gt;Node13 -->
<g id="edge14" class="edge"><title>Node12&#45;&gt;Node13</title>
<path fill="none" stroke="midnightblue" d="M442.711,-54.9233C465.384,-48.3466 495.494,-39.6123 516.589,-33.4931"/>
<polygon fill="midnightblue" stroke="midnightblue" points="517.801,-36.786 526.43,-30.6385 515.851,-30.0631 517.801,-36.786"/>
</g>
</g>
</svg>
