<?xml version="1.0" encoding="UTF-8" standalone="no"?>
<!DOCTYPE svg PUBLIC "-//W3C//DTD SVG 1.1//EN"
 "http://www.w3.org/Graphics/SVG/1.1/DTD/svg11.dtd">
<!-- Generated by graphviz version 2.36.0 (20140111.2315)
 -->
<!-- Title: identification_create Pages: 1 -->
<svg width="712pt" height="1622pt"
 viewBox="0.00 0.00 712.00 1622.00" xmlns="http://www.w3.org/2000/svg" xmlns:xlink="http://www.w3.org/1999/xlink">
<g id="graph0" class="graph" transform="scale(1 1) rotate(0) translate(4 1618)">
<title>identification_create</title>
<!-- Node1 -->
<g id="node1" class="node"><title>Node1</title>
<polygon fill="#bfbfbf" stroke="black" points="0,-1430.5 0,-1449.5 104,-1449.5 104,-1430.5 0,-1430.5"/>
<text text-anchor="middle" x="52" y="-1437.5" font-family="Helvetica,sans-Serif" font-size="10.00">identification_create</text>
</g>
<!-- Node2 -->
<g id="node2" class="node"><title>Node2</title>
<g id="a_node2"><a xlink:href="../../d6/d2f/identification_8c.html#ad1d2bbb8825975270a82317092f0dc8c" target="_top" xlink:title="create_from_string\l_with_num_type">
<polygon fill="none" stroke="black" points="140,-1474 140,-1504 238,-1504 238,-1474 140,-1474"/>
<text text-anchor="start" x="148" y="-1492" font-family="Helvetica,sans-Serif" font-size="10.00">create_from_string</text>
<text text-anchor="middle" x="189" y="-1481" font-family="Helvetica,sans-Serif" font-size="10.00">_with_num_type</text>
</a>
</g>
</g>
<!-- Node1&#45;&gt;Node2 -->
<g id="edge1" class="edge"><title>Node1&#45;&gt;Node2</title>
<path fill="none" stroke="midnightblue" d="M88.7834,-1452.99C106.545,-1459.43 128.097,-1467.26 146.572,-1473.96"/>
<polygon fill="midnightblue" stroke="midnightblue" points="89.944,-1449.69 79.3498,-1449.56 87.5556,-1456.27 89.944,-1449.69"/>
</g>
<!-- Node3 -->
<g id="node3" class="node"><title>Node3</title>
<g id="a_node3"><a xlink:href="../../d5/d8d/group__identification.html#ga23065d7dd9165080ce47e4c20089761e" target="_top" xlink:title="identification_create\l_from_string">
<polygon fill="none" stroke="red" points="274,-1490 274,-1520 378,-1520 378,-1490 274,-1490"/>
<text text-anchor="start" x="282" y="-1508" font-family="Helvetica,sans-Serif" font-size="10.00">identification_create</text>
<text text-anchor="middle" x="326" y="-1497" font-family="Helvetica,sans-Serif" font-size="10.00">_from_string</text>
</a>
</g>
</g>
<!-- Node1&#45;&gt;Node3 -->
<g id="edge60" class="edge"><title>Node1&#45;&gt;Node3</title>
<path fill="none" stroke="midnightblue" d="M67.3128,-1457.74C82.9784,-1475.61 109.907,-1502.05 140,-1513 183.199,-1528.72 235.862,-1524.38 273.936,-1517.49"/>
<polygon fill="midnightblue" stroke="midnightblue" points="69.6942,-1455.14 60.5626,-1449.76 64.3508,-1459.66 69.6942,-1455.14"/>
</g>
<!-- Node9 -->
<g id="node9" class="node"><title>Node9</title>
<g id="a_node9"><a xlink:href="../../d6/d2f/identification_8c.html#afd254ae787b9b095e0c4cdb0e493b216" target="_top" xlink:title="create_from_string\l_with_prefix_type">
<polygon fill="none" stroke="black" points="140,-1425 140,-1455 238,-1455 238,-1425 140,-1425"/>
<text text-anchor="start" x="148" y="-1443" font-family="Helvetica,sans-Serif" font-size="10.00">create_from_string</text>
<text text-anchor="middle" x="189" y="-1432" font-family="Helvetica,sans-Serif" font-size="10.00">_with_prefix_type</text>
</a>
</g>
</g>
<!-- Node1&#45;&gt;Node9 -->
<g id="edge8" class="edge"><title>Node1&#45;&gt;Node9</title>
<path fill="none" stroke="midnightblue" d="M114.277,-1440C122.755,-1440 131.365,-1440 139.566,-1440"/>
<polygon fill="midnightblue" stroke="midnightblue" points="114.038,-1436.5 104.038,-1440 114.038,-1443.5 114.038,-1436.5"/>
</g>
<!-- Node10 -->
<g id="node10" class="node"><title>Node10</title>
<g id="a_node10"><a xlink:href="../../d5/d8d/group__identification.html#gaaf048646417f796b2b49277141f1cd40" target="_top" xlink:title="identification_create\l_from_encoding">
<polygon fill="none" stroke="black" points="274,-805 274,-835 378,-835 378,-805 274,-805"/>
<text text-anchor="start" x="282" y="-823" font-family="Helvetica,sans-Serif" font-size="10.00">identification_create</text>
<text text-anchor="middle" x="326" y="-812" font-family="Helvetica,sans-Serif" font-size="10.00">_from_encoding</text>
</a>
</g>
</g>
<!-- Node1&#45;&gt;Node10 -->
<g id="edge10" class="edge"><title>Node1&#45;&gt;Node10</title>
<path fill="none" stroke="midnightblue" d="M61.3848,-1420.89C102.413,-1327.37 281.53,-919.086 318.363,-835.128"/>
<polygon fill="midnightblue" stroke="midnightblue" points="58.0849,-1419.7 57.2725,-1430.26 64.4951,-1422.51 58.0849,-1419.7"/>
</g>
<!-- Node15 -->
<g id="node15" class="node"><title>Node15</title>
<g id="a_node15"><a xlink:href="../../d5/d8d/group__identification.html#ga28ffad389591db8f63815b7ff5287ce1" target="_top" xlink:title="identification_create\l_from_sockaddr">
<polygon fill="none" stroke="red" points="433,-1381 433,-1411 537,-1411 537,-1381 433,-1381"/>
<text text-anchor="start" x="441" y="-1399" font-family="Helvetica,sans-Serif" font-size="10.00">identification_create</text>
<text text-anchor="middle" x="485" y="-1388" font-family="Helvetica,sans-Serif" font-size="10.00">_from_sockaddr</text>
</a>
</g>
</g>
<!-- Node1&#45;&gt;Node15 -->
<g id="edge59" class="edge"><title>Node1&#45;&gt;Node15</title>
<path fill="none" stroke="midnightblue" d="M90.0621,-1427.36C105.347,-1422.67 123.348,-1417.82 140,-1415 242.913,-1397.6 365.361,-1395.09 432.895,-1395.26"/>
<polygon fill="midnightblue" stroke="midnightblue" points="88.9346,-1424.05 80.452,-1430.39 91.0417,-1430.72 88.9346,-1424.05"/>
</g>
<!-- Node2&#45;&gt;Node3 -->
<g id="edge2" class="edge"><title>Node2&#45;&gt;Node3</title>
<path fill="none" stroke="midnightblue" d="M248.496,-1495.93C256.915,-1496.93 265.525,-1497.95 273.788,-1498.93"/>
<polygon fill="midnightblue" stroke="midnightblue" points="248.699,-1492.43 238.357,-1494.73 247.875,-1499.38 248.699,-1492.43"/>
</g>
<!-- Node4 -->
<g id="node4" class="node"><title>Node4</title>
<g id="a_node4"><a xlink:href="../../d5/d8d/group__identification.html#gab29a484b3dffdd09b0d355ff9fced2c7" target="_top" xlink:title="identification_create\l_from_data">
<polygon fill="none" stroke="red" points="433,-1507 433,-1537 537,-1537 537,-1507 433,-1507"/>
<text text-anchor="start" x="441" y="-1525" font-family="Helvetica,sans-Serif" font-size="10.00">identification_create</text>
<text text-anchor="middle" x="485" y="-1514" font-family="Helvetica,sans-Serif" font-size="10.00">_from_data</text>
</a>
</g>
</g>
<!-- Node3&#45;&gt;Node4 -->
<g id="edge3" class="edge"><title>Node3&#45;&gt;Node4</title>
<path fill="none" stroke="midnightblue" d="M388.405,-1511.65C403.076,-1513.24 418.586,-1514.92 432.745,-1516.45"/>
<polygon fill="midnightblue" stroke="midnightblue" points="388.726,-1508.16 378.408,-1510.57 387.973,-1515.12 388.726,-1508.16"/>
</g>
<!-- Node5 -->
<g id="node5" class="node"><title>Node5</title>
<g id="a_node5"><a xlink:href="../../d3/d97/issue_8c.html#aa99ba675a8053f26c0242aeadacf744e" target="_top" xlink:title="issue">
<polygon fill="none" stroke="red" points="465,-1468.5 465,-1487.5 505,-1487.5 505,-1468.5 465,-1468.5"/>
<text text-anchor="middle" x="485" y="-1475.5" font-family="Helvetica,sans-Serif" font-size="10.00">issue</text>
</a>
</g>
</g>
<!-- Node3&#45;&gt;Node5 -->
<g id="edge4" class="edge"><title>Node3&#45;&gt;Node5</title>
<path fill="none" stroke="midnightblue" d="M388.274,-1494.46C415.482,-1489.78 445.594,-1484.6 464.645,-1481.33"/>
<polygon fill="midnightblue" stroke="midnightblue" points="387.67,-1491.01 378.408,-1496.16 388.856,-1497.91 387.67,-1491.01"/>
</g>
<!-- Node6 -->
<g id="node6" class="node"><title>Node6</title>
<g id="a_node6"><a xlink:href="../../d2/d03/load__tester__config_8c.html#a38d37aad93f1b6c408f38f08f86c1d5f" target="_top" xlink:title="generate_auth_cfg">
<polygon fill="none" stroke="red" points="436.5,-1430.5 436.5,-1449.5 533.5,-1449.5 533.5,-1430.5 436.5,-1430.5"/>
<text text-anchor="middle" x="485" y="-1437.5" font-family="Helvetica,sans-Serif" font-size="10.00">generate_auth_cfg</text>
</a>
</g>
</g>
<!-- Node3&#45;&gt;Node6 -->
<g id="edge5" class="edge"><title>Node3&#45;&gt;Node6</title>
<path fill="none" stroke="midnightblue" d="M360.667,-1484.96C376.47,-1476.14 395.798,-1466.18 414,-1459 423.137,-1455.4 433.205,-1452.22 442.787,-1449.56"/>
<polygon fill="midnightblue" stroke="midnightblue" points="358.774,-1482.01 351.805,-1489.99 362.229,-1488.1 358.774,-1482.01"/>
</g>
<!-- Node7 -->
<g id="node7" class="node"><title>Node7</title>
<g id="a_node7"><a xlink:href="../../d5/dd9/stroke__config_8c.html#ad911a8d20cc5d388cdfb12cc587a397e" target="_top" xlink:title="build_auth_cfg">
<polygon fill="none" stroke="red" points="445,-1594.5 445,-1613.5 525,-1613.5 525,-1594.5 445,-1594.5"/>
<text text-anchor="middle" x="485" y="-1601.5" font-family="Helvetica,sans-Serif" font-size="10.00">build_auth_cfg</text>
</a>
</g>
</g>
<!-- Node3&#45;&gt;Node7 -->
<g id="edge6" class="edge"><title>Node3&#45;&gt;Node7</title>
<path fill="none" stroke="midnightblue" d="M346.383,-1528.08C362.683,-1546.07 387.516,-1570.38 414,-1585 423.482,-1590.23 434.492,-1594.09 444.935,-1596.91"/>
<polygon fill="midnightblue" stroke="midnightblue" points="348.764,-1525.49 339.518,-1520.31 343.519,-1530.12 348.764,-1525.49"/>
</g>
<!-- Node8 -->
<g id="node8" class="node"><title>Node8</title>
<g id="a_node8"><a xlink:href="../../d8/db1/stroke__cred_8c.html#a20ed985360afd3fce8d07ba645068e63" target="_top" xlink:title="load_shared">
<polygon fill="none" stroke="red" points="450.5,-1556.5 450.5,-1575.5 519.5,-1575.5 519.5,-1556.5 450.5,-1556.5"/>
<text text-anchor="middle" x="485" y="-1563.5" font-family="Helvetica,sans-Serif" font-size="10.00">load_shared</text>
</a>
</g>
</g>
<!-- Node3&#45;&gt;Node8 -->
<g id="edge7" class="edge"><title>Node3&#45;&gt;Node8</title>
<path fill="none" stroke="midnightblue" d="M364.894,-1524.49C379.945,-1531.8 397.561,-1539.82 414,-1546 425.595,-1550.36 438.571,-1554.31 450.171,-1557.53"/>
<polygon fill="midnightblue" stroke="midnightblue" points="366.405,-1521.34 355.888,-1520.06 363.313,-1527.62 366.405,-1521.34"/>
</g>
<!-- Node9&#45;&gt;Node3 -->
<g id="edge9" class="edge"><title>Node9&#45;&gt;Node3</title>
<path fill="none" stroke="midnightblue" d="M230.552,-1459.53C250.684,-1469.22 274.642,-1480.75 293.391,-1489.78"/>
<polygon fill="midnightblue" stroke="midnightblue" points="231.839,-1456.26 221.311,-1455.08 228.803,-1462.57 231.839,-1456.26"/>
</g>
<!-- Node10&#45;&gt;Node4 -->
<g id="edge15" class="edge"><title>Node10&#45;&gt;Node4</title>
<path fill="none" stroke="midnightblue" d="M326.835,-845.227C326.61,-955.459 331.023,-1393.92 414,-1497 419.017,-1503.23 425.71,-1507.91 432.972,-1511.43"/>
<polygon fill="midnightblue" stroke="midnightblue" points="330.335,-845.07 326.872,-835.058 323.335,-845.045 330.335,-845.07"/>
</g>
<!-- Node10&#45;&gt;Node5 -->
<g id="edge25" class="edge"><title>Node10&#45;&gt;Node5</title>
<path fill="none" stroke="midnightblue" d="M326.858,-845.327C326.777,-952.245 331.863,-1365.45 414,-1459 426.629,-1473.38 448.939,-1477.38 464.981,-1478.26"/>
<polygon fill="midnightblue" stroke="midnightblue" points="330.358,-845.163 326.882,-835.155 323.358,-845.146 330.358,-845.163"/>
</g>
<!-- Node10&#45;&gt;Node6 -->
<g id="edge26" class="edge"><title>Node10&#45;&gt;Node6</title>
<path fill="none" stroke="midnightblue" d="M327.136,-845.066C328.199,-947.402 337.312,-1332.25 414,-1420 419.905,-1426.76 427.919,-1431.3 436.418,-1434.35"/>
<polygon fill="midnightblue" stroke="midnightblue" points="330.635,-845.003 327.049,-835.033 323.636,-845.063 330.635,-845.003"/>
</g>
<!-- Node10&#45;&gt;Node7 -->
<g id="edge47" class="edge"><title>Node10&#45;&gt;Node7</title>
<path fill="none" stroke="midnightblue" d="M328.222,-845.579C334.489,-972.136 364.657,-1527.53 414,-1585 421.711,-1593.98 433.197,-1598.93 444.647,-1601.59"/>
<polygon fill="midnightblue" stroke="midnightblue" points="331.705,-845.135 327.72,-835.318 324.713,-845.477 331.705,-845.135"/>
</g>
<!-- Node10&#45;&gt;Node8 -->
<g id="edge49" class="edge"><title>Node10&#45;&gt;Node8</title>
<path fill="none" stroke="midnightblue" d="M328.392,-845.412C335.306,-967.642 367.484,-1491.43 414,-1546 423.019,-1556.58 437.211,-1561.76 450.466,-1564.23"/>
<polygon fill="midnightblue" stroke="midnightblue" points="331.872,-844.954 327.819,-835.165 324.883,-845.345 331.872,-844.954"/>
</g>
<!-- Node11 -->
<g id="node11" class="node"><title>Node11</title>
<g id="a_node11"><a xlink:href="../../d9/df6/acert__validator_8c.html#a19774b666f801cb5cbe4d4d8674666e0" target="_top" xlink:title="METHOD">
<polygon fill="none" stroke="black" points="455,-658.5 455,-677.5 515,-677.5 515,-658.5 455,-658.5"/>
<text text-anchor="middle" x="485" y="-665.5" font-family="Helvetica,sans-Serif" font-size="10.00">METHOD</text>
</a>
</g>
</g>
<!-- Node10&#45;&gt;Node11 -->
<g id="edge11" class="edge"><title>Node10&#45;&gt;Node11</title>
<path fill="none" stroke="midnightblue" d="M336.643,-795.238C349.651,-765.11 375.694,-714.829 414,-687 425.818,-678.414 441.298,-673.708 454.696,-671.129"/>
<polygon fill="midnightblue" stroke="midnightblue" points="333.348,-794.045 332.732,-804.622 339.81,-796.738 333.348,-794.045"/>
</g>
<!-- Node12 -->
<g id="node12" class="node"><title>Node12</title>
<g id="a_node12"><a xlink:href="../../d1/d5e/certexpire__export_8c.html#a85842a4e35d1b6f4d520ad9c27740745" target="_top" xlink:title="add_local_certs">
<polygon fill="none" stroke="red" points="442.5,-620.5 442.5,-639.5 527.5,-639.5 527.5,-620.5 442.5,-620.5"/>
<text text-anchor="middle" x="485" y="-627.5" font-family="Helvetica,sans-Serif" font-size="10.00">add_local_certs</text>
</a>
</g>
</g>
<!-- Node10&#45;&gt;Node12 -->
<g id="edge12" class="edge"><title>Node10&#45;&gt;Node12</title>
<path fill="none" stroke="midnightblue" d="M332.885,-794.719C342.946,-757.21 367.071,-687.152 414,-649 422.11,-642.407 432.319,-638.092 442.414,-635.271"/>
<polygon fill="midnightblue" stroke="midnightblue" points="329.39,-794.259 330.308,-804.814 336.173,-795.99 329.39,-794.259"/>
</g>
<!-- Node13 -->
<g id="node13" class="node"><title>Node13</title>
<g id="a_node13"><a xlink:href="../../db/d3c/conftest_8c.html#ab256447784e6c85ccd3eed9cb563b622" target="_top" xlink:title="load_cdps">
<polygon fill="none" stroke="red" points="454.5,-582.5 454.5,-601.5 515.5,-601.5 515.5,-582.5 454.5,-582.5"/>
<text text-anchor="middle" x="485" y="-589.5" font-family="Helvetica,sans-Serif" font-size="10.00">load_cdps</text>
</a>
</g>
</g>
<!-- Node10&#45;&gt;Node13 -->
<g id="edge13" class="edge"><title>Node10&#45;&gt;Node13</title>
<path fill="none" stroke="midnightblue" d="M330.291,-794.608C337.369,-750.561 358.193,-660.015 414,-611 425.07,-601.277 440.643,-596.473 454.29,-594.123"/>
<polygon fill="midnightblue" stroke="midnightblue" points="326.792,-794.343 328.775,-804.751 333.715,-795.378 326.792,-794.343"/>
</g>
<!-- Node14 -->
<g id="node14" class="node"><title>Node14</title>
<g id="a_node14"><a xlink:href="../../d1/d05/credential__manager_8c.html#a7b6af7a1371d5dc79933e22451181361" target="_top" xlink:title="get_private_by_cert">
<polygon fill="none" stroke="red" points="434,-544.5 434,-563.5 536,-563.5 536,-544.5 434,-544.5"/>
<text text-anchor="middle" x="485" y="-551.5" font-family="Helvetica,sans-Serif" font-size="10.00">get_private_by_cert</text>
</a>
</g>
</g>
<!-- Node10&#45;&gt;Node14 -->
<g id="edge14" class="edge"><title>Node10&#45;&gt;Node14</title>
<path fill="none" stroke="midnightblue" d="M328.416,-794.712C332.606,-744.805 349.124,-633.268 414,-573 419.628,-567.772 426.548,-563.957 433.825,-561.178"/>
<polygon fill="midnightblue" stroke="midnightblue" points="324.908,-794.698 327.661,-804.929 331.889,-795.214 324.908,-794.698"/>
</g>
<!-- Node10&#45;&gt;Node15 -->
<g id="edge16" class="edge"><title>Node10&#45;&gt;Node15</title>
<path fill="none" stroke="midnightblue" d="M327.653,-845.048C330.657,-941.703 346.079,-1289.07 414,-1371 419.024,-1377.06 425.628,-1381.65 432.774,-1385.13"/>
<polygon fill="midnightblue" stroke="midnightblue" points="331.151,-844.913 327.359,-835.02 324.154,-845.119 331.151,-844.913"/>
</g>
<!-- Node19 -->
<g id="node19" class="node"><title>Node19</title>
<g id="a_node19"><a xlink:href="../../df/dd7/ike__cert__post_8c.html#a162d74dc7b290d27320c7e75c4e0a973" target="_top" xlink:title="build_cert_payload">
<polygon fill="none" stroke="red" points="436,-506.5 436,-525.5 534,-525.5 534,-506.5 436,-506.5"/>
<text text-anchor="middle" x="485" y="-513.5" font-family="Helvetica,sans-Serif" font-size="10.00">build_cert_payload</text>
</a>
</g>
</g>
<!-- Node10&#45;&gt;Node19 -->
<g id="edge20" class="edge"><title>Node10&#45;&gt;Node19</title>
<path fill="none" stroke="midnightblue" d="M327.029,-794.397C328.533,-738.861 340.149,-606.58 414,-535 420.058,-529.128 427.74,-525.028 435.781,-522.175"/>
<polygon fill="midnightblue" stroke="midnightblue" points="323.523,-794.676 326.845,-804.737 330.522,-794.801 323.523,-794.676"/>
</g>
<!-- Node20 -->
<g id="node20" class="node"><title>Node20</title>
<g id="a_node20"><a xlink:href="../../df/dd7/ike__cert__post_8c.html#a14e3298f9414cadd897f5cc3e6cc8418" target="_top" xlink:title="add_attribute_certs">
<polygon fill="none" stroke="red" points="435,-468.5 435,-487.5 535,-487.5 535,-468.5 435,-468.5"/>
<text text-anchor="middle" x="485" y="-475.5" font-family="Helvetica,sans-Serif" font-size="10.00">add_attribute_certs</text>
</a>
</g>
</g>
<!-- Node10&#45;&gt;Node20 -->
<g id="edge21" class="edge"><title>Node10&#45;&gt;Node20</title>
<path fill="none" stroke="midnightblue" d="M330.54,-794.626C340.589,-726.127 371.349,-539.734 414,-497 419.782,-491.207 427.141,-487.13 434.903,-484.273"/>
<polygon fill="midnightblue" stroke="midnightblue" points="327.018,-794.528 329.056,-804.925 333.946,-795.527 327.018,-794.528"/>
</g>
<!-- Node21 -->
<g id="node21" class="node"><title>Node21</title>
<g id="a_node21"><a xlink:href="../../da/d8c/ike__cert__pre_8c.html#a1389950c3e8d2cbe88ef7e77fcbb362b" target="_top" xlink:title="process_certreq">
<polygon fill="none" stroke="red" points="442,-430.5 442,-449.5 528,-449.5 528,-430.5 442,-430.5"/>
<text text-anchor="middle" x="485" y="-437.5" font-family="Helvetica,sans-Serif" font-size="10.00">process_certreq</text>
</a>
</g>
</g>
<!-- Node10&#45;&gt;Node21 -->
<g id="edge22" class="edge"><title>Node10&#45;&gt;Node21</title>
<path fill="none" stroke="midnightblue" d="M329.764,-794.648C338.318,-720.75 366.669,-507.702 414,-459 421.372,-451.414 431.443,-446.761 441.647,-443.933"/>
<polygon fill="midnightblue" stroke="midnightblue" points="326.252,-794.557 328.603,-804.888 333.207,-795.346 326.252,-794.557"/>
</g>
<!-- Node22 -->
<g id="node22" class="node"><title>Node22</title>
<g id="a_node22"><a xlink:href="../../da/d8c/ike__cert__pre_8c.html#a7cae2826dd83b970638ba6b4411f2999" target="_top" xlink:title="try_get_cert">
<polygon fill="none" stroke="red" points="451,-392.5 451,-411.5 519,-411.5 519,-392.5 451,-392.5"/>
<text text-anchor="middle" x="485" y="-399.5" font-family="Helvetica,sans-Serif" font-size="10.00">try_get_cert</text>
</a>
</g>
</g>
<!-- Node10&#45;&gt;Node22 -->
<g id="edge23" class="edge"><title>Node10&#45;&gt;Node22</title>
<path fill="none" stroke="midnightblue" d="M329.137,-794.622C336.297,-715.561 361.974,-475.714 414,-421 423.545,-410.962 437.811,-406.042 450.98,-403.696"/>
<polygon fill="midnightblue" stroke="midnightblue" points="325.643,-794.406 328.249,-804.675 332.615,-795.022 325.643,-794.406"/>
</g>
<!-- Node23 -->
<g id="node23" class="node"><title>Node23</title>
<g id="a_node23"><a xlink:href="../../d0/dce/group__ike__sa.html#gae60a0b9f30836a1de42076ba7fef3995" target="_top" xlink:title="ike_sa_create">
<polygon fill="none" stroke="red" points="446.5,-354.5 446.5,-373.5 523.5,-373.5 523.5,-354.5 446.5,-354.5"/>
<text text-anchor="middle" x="485" y="-361.5" font-family="Helvetica,sans-Serif" font-size="10.00">ike_sa_create</text>
</a>
</g>
</g>
<!-- Node10&#45;&gt;Node23 -->
<g id="edge24" class="edge"><title>Node10&#45;&gt;Node23</title>
<path fill="none" stroke="midnightblue" d="M328.625,-794.469C334.488,-710.338 357.285,-443.741 414,-383 422.336,-374.072 434.405,-369.182 446.181,-366.552"/>
<polygon fill="midnightblue" stroke="midnightblue" points="325.118,-794.449 327.936,-804.662 332.102,-794.921 325.118,-794.449"/>
</g>
<!-- Node24 -->
<g id="node24" class="node"><title>Node24</title>
<g id="a_node24"><a xlink:href="../../d0/d29/openssl__rsa__private__key_8c.html#aef1b602fc5928a0b7783fb5a81476240" target="_top" xlink:title="login">
<polygon fill="none" stroke="red" points="466.5,-316.5 466.5,-335.5 503.5,-335.5 503.5,-316.5 466.5,-316.5"/>
<text text-anchor="middle" x="485" y="-323.5" font-family="Helvetica,sans-Serif" font-size="10.00">login</text>
</a>
</g>
</g>
<!-- Node10&#45;&gt;Node24 -->
<g id="edge27" class="edge"><title>Node10&#45;&gt;Node24</title>
<path fill="none" stroke="midnightblue" d="M328.173,-794.619C332.779,-705.968 352.51,-411.878 414,-345 427.296,-330.539 450.381,-326.647 466.388,-325.813"/>
<polygon fill="midnightblue" stroke="midnightblue" points="324.666,-794.67 327.663,-804.833 331.657,-795.02 324.666,-794.67"/>
</g>
<!-- Node25 -->
<g id="node25" class="node"><title>Node25</title>
<g id="a_node25"><a xlink:href="../../da/d58/group__openssl__util.html#ga2b0f2fe425c0fd346d575e2172e53694" target="_top" xlink:title="openssl_x509_name2id">
<polygon fill="none" stroke="red" points="425.5,-38.5 425.5,-57.5 544.5,-57.5 544.5,-38.5 425.5,-38.5"/>
<text text-anchor="middle" x="485" y="-45.5" font-family="Helvetica,sans-Serif" font-size="10.00">openssl_x509_name2id</text>
</a>
</g>
</g>
<!-- Node10&#45;&gt;Node25 -->
<g id="edge28" class="edge"><title>Node10&#45;&gt;Node25</title>
<path fill="none" stroke="midnightblue" d="M328.357,-794.651C335.216,-670.43 367.575,-129.628 414,-72 419.078,-65.6971 425.895,-61.0429 433.289,-57.6077"/>
<polygon fill="midnightblue" stroke="midnightblue" points="324.857,-794.559 327.806,-804.735 331.846,-794.941 324.857,-794.559"/>
</g>
<!-- Node26 -->
<g id="node26" class="node"><title>Node26</title>
<g id="a_node26"><a xlink:href="../../df/d92/openssl__x509_8c.html#aabf565a9359235b8c5f543c60bcd8a59" target="_top" xlink:title="general_name2id">
<polygon fill="none" stroke="red" points="603,-57.5 603,-76.5 693,-76.5 693,-57.5 603,-57.5"/>
<text text-anchor="middle" x="648" y="-64.5" font-family="Helvetica,sans-Serif" font-size="10.00">general_name2id</text>
</a>
</g>
</g>
<!-- Node10&#45;&gt;Node26 -->
<g id="edge30" class="edge"><title>Node10&#45;&gt;Node26</title>
<path fill="none" stroke="midnightblue" d="M328.293,-794.858C334.741,-673.939 365.077,-155.95 414,-105 439.336,-78.6146 542.62,-70.5497 602.833,-68.0848"/>
<polygon fill="midnightblue" stroke="midnightblue" points="324.79,-794.825 327.759,-804.995 331.78,-795.193 324.79,-794.825"/>
</g>
<!-- Node27 -->
<g id="node27" class="node"><title>Node27</title>
<g id="a_node27"><a xlink:href="../../d7/d8e/peer__controller_8c.html#ad9ee8d10f47d966e74ea6fd1085c070f" target="_top" xlink:title="list">
<polygon fill="none" stroke="red" points="470.5,-202.5 470.5,-221.5 499.5,-221.5 499.5,-202.5 470.5,-202.5"/>
<text text-anchor="middle" x="485" y="-209.5" font-family="Helvetica,sans-Serif" font-size="10.00">list</text>
</a>
</g>
</g>
<!-- Node10&#45;&gt;Node27 -->
<g id="edge31" class="edge"><title>Node10&#45;&gt;Node27</title>
<path fill="none" stroke="midnightblue" d="M327.378,-794.744C329.378,-694.11 341.623,-322.949 414,-236 427.973,-219.214 454.256,-214.139 470.339,-212.623"/>
<polygon fill="midnightblue" stroke="midnightblue" points="323.876,-794.83 327.193,-804.892 330.875,-794.957 323.876,-794.83"/>
</g>
<!-- Node28 -->
<g id="node28" class="node"><title>Node28</title>
<g id="a_node28"><a xlink:href="../../d5/d95/pgp__cert_8c.html#a4ae2f1d44a88ab241c8fcdf73b233ecb" target="_top" xlink:title="parse_user_id">
<polygon fill="none" stroke="red" points="446.5,-164.5 446.5,-183.5 523.5,-183.5 523.5,-164.5 446.5,-164.5"/>
<text text-anchor="middle" x="485" y="-171.5" font-family="Helvetica,sans-Serif" font-size="10.00">parse_user_id</text>
</a>
</g>
</g>
<!-- Node10&#45;&gt;Node28 -->
<g id="edge32" class="edge"><title>Node10&#45;&gt;Node28</title>
<path fill="none" stroke="midnightblue" d="M326.931,-794.802C327.157,-689.34 333.348,-284.621 414,-193 422.154,-183.737 434.323,-178.782 446.239,-176.193"/>
<polygon fill="midnightblue" stroke="midnightblue" points="323.431,-794.845 326.926,-804.847 330.431,-794.848 323.431,-794.845"/>
</g>
<!-- Node29 -->
<g id="node29" class="node"><title>Node29</title>
<g id="a_node29"><a xlink:href="../../d0/d51/group__pkcs11__private__key.html#gab93b383fcef30b2a74405b4d604f3055" target="_top" xlink:title="pkcs11_private_key\l_connect">
<polygon fill="none" stroke="red" points="433,-115 433,-145 537,-145 537,-115 433,-115"/>
<text text-anchor="start" x="441" y="-133" font-family="Helvetica,sans-Serif" font-size="10.00">pkcs11_private_key</text>
<text text-anchor="middle" x="485" y="-122" font-family="Helvetica,sans-Serif" font-size="10.00">_connect</text>
</a>
</g>
</g>
<!-- Node10&#45;&gt;Node29 -->
<g id="edge33" class="edge"><title>Node10&#45;&gt;Node29</title>
<path fill="none" stroke="midnightblue" d="M326.9,-794.865C326.961,-685.994 332.443,-256.076 414,-155 419.024,-148.773 425.721,-144.096 432.985,-140.584"/>
<polygon fill="midnightblue" stroke="midnightblue" points="323.4,-794.923 326.91,-804.919 330.4,-794.916 323.4,-794.923"/>
</g>
<!-- Node30 -->
<g id="node30" class="node"><title>Node30</title>
<g id="a_node30"><a xlink:href="../../d0/ddf/pkcs7__enveloped__data_8c.html#ad16901d1d750d903db0d1dcc99ae7a18" target="_top" xlink:title="find_private">
<polygon fill="none" stroke="black" points="451.5,-278.5 451.5,-297.5 518.5,-297.5 518.5,-278.5 451.5,-278.5"/>
<text text-anchor="middle" x="485" y="-285.5" font-family="Helvetica,sans-Serif" font-size="10.00">find_private</text>
</a>
</g>
</g>
<!-- Node10&#45;&gt;Node30 -->
<g id="edge34" class="edge"><title>Node10&#45;&gt;Node30</title>
<path fill="none" stroke="midnightblue" d="M327.79,-794.744C331.212,-701.753 347.721,-380.045 414,-307 423.477,-296.555 438.06,-291.613 451.468,-289.358"/>
<polygon fill="midnightblue" stroke="midnightblue" points="324.286,-794.803 327.436,-804.919 331.282,-795.047 324.286,-794.803"/>
</g>
<!-- Node31 -->
<g id="node31" class="node"><title>Node31</title>
<g id="a_node31"><a xlink:href="../../d0/ddf/pkcs7__enveloped__data_8c.html#ad1b96c7e42b21a94f65a03ab4a63d0ca" target="_top" xlink:title="parse">
<polygon fill="none" stroke="red" points="627.5,-259.5 627.5,-278.5 668.5,-278.5 668.5,-259.5 627.5,-259.5"/>
<text text-anchor="middle" x="648" y="-266.5" font-family="Helvetica,sans-Serif" font-size="10.00">parse</text>
</a>
</g>
</g>
<!-- Node10&#45;&gt;Node31 -->
<g id="edge36" class="edge"><title>Node10&#45;&gt;Node31</title>
<path fill="none" stroke="midnightblue" d="M326.873,-794.509C326.969,-695.458 333.003,-338.211 414,-269 475.506,-216.443 583.121,-246.006 627.259,-261.455"/>
<polygon fill="midnightblue" stroke="midnightblue" points="323.373,-794.784 326.884,-804.78 330.373,-794.776 323.373,-794.784"/>
</g>
<!-- Node32 -->
<g id="node32" class="node"><title>Node32</title>
<g id="a_node32"><a xlink:href="../../d4/de5/pool_8c.html#a4175ca9daa80f2993a4dd103975de1a7" target="_top" xlink:title="leases">
<polygon fill="none" stroke="red" points="462.5,-0.5 462.5,-19.5 507.5,-19.5 507.5,-0.5 462.5,-0.5"/>
<text text-anchor="middle" x="485" y="-7.5" font-family="Helvetica,sans-Serif" font-size="10.00">leases</text>
</a>
</g>
</g>
<!-- Node10&#45;&gt;Node32 -->
<g id="edge37" class="edge"><title>Node10&#45;&gt;Node32</title>
<path fill="none" stroke="midnightblue" d="M328.105,-794.777C333.952,-666.332 362.951,-88.6754 414,-29 425.787,-15.2207 446.462,-10.9314 462.297,-9.81572"/>
<polygon fill="midnightblue" stroke="midnightblue" points="324.606,-794.692 327.653,-804.84 331.599,-795.007 324.606,-794.692"/>
</g>
<!-- Node33 -->
<g id="node33" class="node"><title>Node33</title>
<g id="a_node33"><a xlink:href="../../d6/dd7/pool__attributes_8h.html#ac3ef15d0f47857e5d8e45c50e8b79f76" target="_top" xlink:title="status_attr">
<polygon fill="none" stroke="red" points="453.5,-1342.5 453.5,-1361.5 516.5,-1361.5 516.5,-1342.5 453.5,-1342.5"/>
<text text-anchor="middle" x="485" y="-1349.5" font-family="Helvetica,sans-Serif" font-size="10.00">status_attr</text>
</a>
</g>
</g>
<!-- Node10&#45;&gt;Node33 -->
<g id="edge38" class="edge"><title>Node10&#45;&gt;Node33</title>
<path fill="none" stroke="midnightblue" d="M327.79,-845.256C331.212,-938.247 347.721,-1259.96 414,-1333 423.9,-1343.91 439.373,-1348.82 453.256,-1350.93"/>
<polygon fill="midnightblue" stroke="midnightblue" points="331.282,-844.953 327.436,-835.081 324.286,-845.197 331.282,-844.953"/>
</g>
<!-- Node34 -->
<g id="node34" class="node"><title>Node34</title>
<g id="a_node34"><a xlink:href="../../dc/dc2/group__pt__tls__dispatcher.html#ga203f7cfa20c51c1e172afc0a131b5e43" target="_top" xlink:title="pt_tls_dispatcher_create">
<polygon fill="none" stroke="black" points="423.5,-1304.5 423.5,-1323.5 546.5,-1323.5 546.5,-1304.5 423.5,-1304.5"/>
<text text-anchor="middle" x="485" y="-1311.5" font-family="Helvetica,sans-Serif" font-size="10.00">pt_tls_dispatcher_create</text>
</a>
</g>
</g>
<!-- Node10&#45;&gt;Node34 -->
<g id="edge39" class="edge"><title>Node10&#45;&gt;Node34</title>
<path fill="none" stroke="midnightblue" d="M328.173,-845.381C332.779,-934.032 352.51,-1228.12 414,-1295 417.494,-1298.8 421.665,-1301.87 426.206,-1304.35"/>
<polygon fill="midnightblue" stroke="midnightblue" points="331.657,-844.98 327.663,-835.167 324.666,-845.33 331.657,-844.98"/>
</g>
<!-- Node35 -->
<g id="node35" class="node"><title>Node35</title>
<g id="a_node35"><a xlink:href="../../db/dc7/pubkey__cert_8c.html#a9104fffcb119c552df6fbf47e910f6c8" target="_top" xlink:title="pubkey_cert_create">
<polygon fill="none" stroke="red" points="434,-1266.5 434,-1285.5 536,-1285.5 536,-1266.5 434,-1266.5"/>
<text text-anchor="middle" x="485" y="-1273.5" font-family="Helvetica,sans-Serif" font-size="10.00">pubkey_cert_create</text>
</a>
</g>
</g>
<!-- Node10&#45;&gt;Node35 -->
<g id="edge40" class="edge"><title>Node10&#45;&gt;Node35</title>
<path fill="none" stroke="midnightblue" d="M328.625,-845.531C334.488,-929.662 357.285,-1196.26 414,-1257 419.414,-1262.8 426.403,-1266.89 433.863,-1269.77"/>
<polygon fill="midnightblue" stroke="midnightblue" points="332.102,-845.079 327.936,-835.338 325.118,-845.551 332.102,-845.079"/>
</g>
<!-- Node36 -->
<g id="node36" class="node"><title>Node36</title>
<g id="a_node36"><a xlink:href="../../d5/d33/rebuild__auth_8c.html#ab9a8ee1df7b49088158731fff3e42c8e" target="_top" xlink:title="rebuild_auth">
<polygon fill="none" stroke="red" points="450.5,-1228.5 450.5,-1247.5 519.5,-1247.5 519.5,-1228.5 450.5,-1228.5"/>
<text text-anchor="middle" x="485" y="-1235.5" font-family="Helvetica,sans-Serif" font-size="10.00">rebuild_auth</text>
</a>
</g>
</g>
<!-- Node10&#45;&gt;Node36 -->
<g id="edge41" class="edge"><title>Node10&#45;&gt;Node36</title>
<path fill="none" stroke="midnightblue" d="M329.137,-845.378C336.297,-924.439 361.974,-1164.29 414,-1219 423.371,-1228.86 437.294,-1233.78 450.26,-1236.17"/>
<polygon fill="midnightblue" stroke="midnightblue" points="332.615,-844.978 328.249,-835.325 325.643,-845.594 332.615,-844.978"/>
</g>
<!-- Node37 -->
<g id="node37" class="node"><title>Node37</title>
<g id="a_node37"><a xlink:href="../../d1/d74/revocation__validator_8c.html#ae83d089d797a1ee3cc4040c6af2a008b" target="_top" xlink:title="check_ocsp">
<polygon fill="none" stroke="red" points="450.5,-1190.5 450.5,-1209.5 519.5,-1209.5 519.5,-1190.5 450.5,-1190.5"/>
<text text-anchor="middle" x="485" y="-1197.5" font-family="Helvetica,sans-Serif" font-size="10.00">check_ocsp</text>
</a>
</g>
</g>
<!-- Node10&#45;&gt;Node37 -->
<g id="edge42" class="edge"><title>Node10&#45;&gt;Node37</title>
<path fill="none" stroke="midnightblue" d="M329.764,-845.352C338.318,-919.25 366.669,-1132.3 414,-1181 423.478,-1190.75 437.418,-1195.66 450.367,-1198.07"/>
<polygon fill="midnightblue" stroke="midnightblue" points="333.207,-844.654 328.603,-835.112 326.252,-845.443 333.207,-844.654"/>
</g>
<!-- Node38 -->
<g id="node38" class="node"><title>Node38</title>
<g id="a_node38"><a xlink:href="../../d1/d74/revocation__validator_8c.html#ace9795458003f4328c0f352ee053581a" target="_top" xlink:title="check_delta_crl">
<polygon fill="none" stroke="black" points="442.5,-1152.5 442.5,-1171.5 527.5,-1171.5 527.5,-1152.5 442.5,-1152.5"/>
<text text-anchor="middle" x="485" y="-1159.5" font-family="Helvetica,sans-Serif" font-size="10.00">check_delta_crl</text>
</a>
</g>
</g>
<!-- Node10&#45;&gt;Node38 -->
<g id="edge43" class="edge"><title>Node10&#45;&gt;Node38</title>
<path fill="none" stroke="midnightblue" d="M326.418,-845.656C326.49,-905.163 335.062,-1053.9 414,-1138 421.562,-1146.06 431.943,-1151.41 442.395,-1154.96"/>
<polygon fill="midnightblue" stroke="midnightblue" points="329.92,-845.329 326.493,-835.304 322.92,-845.278 329.92,-845.329"/>
</g>
<!-- Node39 -->
<g id="node39" class="node"><title>Node39</title>
<g id="a_node39"><a xlink:href="../../d1/d74/revocation__validator_8c.html#ad4f7c2935da2f674c7415beb3f3749b5" target="_top" xlink:title="check_crl">
<polygon fill="none" stroke="red" points="618.5,-1133.5 618.5,-1152.5 677.5,-1152.5 677.5,-1133.5 618.5,-1133.5"/>
<text text-anchor="middle" x="648" y="-1140.5" font-family="Helvetica,sans-Serif" font-size="10.00">check_crl</text>
</a>
</g>
</g>
<!-- Node10&#45;&gt;Node39 -->
<g id="edge45" class="edge"><title>Node10&#45;&gt;Node39</title>
<path fill="none" stroke="midnightblue" d="M326.484,-845.438C326.84,-901.69 336.205,-1037.03 414,-1105 444.016,-1131.23 562.92,-1139.54 618.317,-1142.02"/>
<polygon fill="midnightblue" stroke="midnightblue" points="329.985,-845.296 326.516,-835.285 322.985,-845.274 329.985,-845.296"/>
</g>
<!-- Node40 -->
<g id="node40" class="node"><title>Node40</title>
<g id="a_node40"><a xlink:href="../../de/d0b/sql__config_8c.html#ab613aa8a44d2efd07999ea6c4076d34d" target="_top" xlink:title="build_peer_cfg">
<polygon fill="none" stroke="red" points="445,-1076.5 445,-1095.5 525,-1095.5 525,-1076.5 445,-1076.5"/>
<text text-anchor="middle" x="485" y="-1083.5" font-family="Helvetica,sans-Serif" font-size="10.00">build_peer_cfg</text>
</a>
</g>
</g>
<!-- Node10&#45;&gt;Node40 -->
<g id="edge46" class="edge"><title>Node10&#45;&gt;Node40</title>
<path fill="none" stroke="midnightblue" d="M328.416,-845.288C332.606,-895.195 349.124,-1006.73 414,-1067 422.396,-1074.8 433.667,-1079.45 444.71,-1082.22"/>
<polygon fill="midnightblue" stroke="midnightblue" points="331.889,-844.786 327.661,-835.071 324.908,-845.302 331.889,-844.786"/>
</g>
<!-- Node41 -->
<g id="node41" class="node"><title>Node41</title>
<g id="a_node41"><a xlink:href="../../d8/db1/stroke__cred_8c.html#a25593b326e244c6344a53cc2c19d5360" target="_top" xlink:title="load_pin">
<polygon fill="none" stroke="red" points="458.5,-1038.5 458.5,-1057.5 511.5,-1057.5 511.5,-1038.5 458.5,-1038.5"/>
<text text-anchor="middle" x="485" y="-1045.5" font-family="Helvetica,sans-Serif" font-size="10.00">load_pin</text>
</a>
</g>
</g>
<!-- Node10&#45;&gt;Node41 -->
<g id="edge48" class="edge"><title>Node10&#45;&gt;Node41</title>
<path fill="none" stroke="midnightblue" d="M330.291,-845.392C337.369,-889.439 358.193,-979.985 414,-1029 426.205,-1039.72 443.884,-1044.46 458.422,-1046.53"/>
<polygon fill="midnightblue" stroke="midnightblue" points="333.715,-844.622 328.775,-835.249 326.792,-845.657 333.715,-844.622"/>
</g>
<!-- Node42 -->
<g id="node42" class="node"><title>Node42</title>
<g id="a_node42"><a xlink:href="../../dd/df3/stroke__list_8c.html#aedcc5cfe39debfea12cda1a796b55e9b" target="_top" xlink:title="list_public_key">
<polygon fill="none" stroke="red" points="444.5,-1000.5 444.5,-1019.5 525.5,-1019.5 525.5,-1000.5 444.5,-1000.5"/>
<text text-anchor="middle" x="485" y="-1007.5" font-family="Helvetica,sans-Serif" font-size="10.00">list_public_key</text>
</a>
</g>
</g>
<!-- Node10&#45;&gt;Node42 -->
<g id="edge50" class="edge"><title>Node10&#45;&gt;Node42</title>
<path fill="none" stroke="midnightblue" d="M332.885,-845.281C342.946,-882.79 367.071,-952.848 414,-991 422.598,-997.99 433.557,-1002.42 444.237,-1005.22"/>
<polygon fill="midnightblue" stroke="midnightblue" points="336.173,-844.01 330.308,-835.186 329.39,-845.741 336.173,-844.01"/>
</g>
<!-- Node43 -->
<g id="node43" class="node"><title>Node43</title>
<g id="a_node43"><a xlink:href="../../d4/dd4/test__certnames_8c.html#a2592775703a0275e474f62eb3f7ca783" target="_top" xlink:title="START_TEST">
<polygon fill="none" stroke="black" points="445,-962.5 445,-981.5 525,-981.5 525,-962.5 445,-962.5"/>
<text text-anchor="middle" x="485" y="-969.5" font-family="Helvetica,sans-Serif" font-size="10.00">START_TEST</text>
</a>
</g>
</g>
<!-- Node10&#45;&gt;Node43 -->
<g id="edge51" class="edge"><title>Node10&#45;&gt;Node43</title>
<path fill="none" stroke="midnightblue" d="M336.643,-844.762C349.651,-874.89 375.694,-925.171 414,-953 422.965,-959.513 434.038,-963.794 444.711,-966.607"/>
<polygon fill="midnightblue" stroke="midnightblue" points="339.81,-843.262 332.732,-835.378 333.348,-845.955 339.81,-843.262"/>
</g>
<!-- Node44 -->
<g id="node44" class="node"><title>Node44</title>
<g id="a_node44"><a xlink:href="../../d0/d39/tls__test_8c.html#a69519b20e862ff4aae04cd31be4c2997" target="_top" xlink:title="find_client_id">
<polygon fill="none" stroke="red" points="448,-924.5 448,-943.5 522,-943.5 522,-924.5 448,-924.5"/>
<text text-anchor="middle" x="485" y="-931.5" font-family="Helvetica,sans-Serif" font-size="10.00">find_client_id</text>
</a>
</g>
</g>
<!-- Node10&#45;&gt;Node44 -->
<g id="edge52" class="edge"><title>Node10&#45;&gt;Node44</title>
<path fill="none" stroke="midnightblue" d="M342.682,-843.668C358.27,-865.363 384.121,-896.796 414,-915 424.216,-921.224 436.49,-925.445 447.887,-928.293"/>
<polygon fill="midnightblue" stroke="midnightblue" points="345.44,-841.504 336.84,-835.315 339.704,-845.516 345.44,-841.504"/>
</g>
<!-- Node45 -->
<g id="node45" class="node"><title>Node45</title>
<g id="a_node45"><a xlink:href="../../d3/d61/tnc__pdp_8c.html#aeb9ac219f396d09d99aafba5b2802bc5" target="_top" xlink:title="pt_tls_receive">
<polygon fill="none" stroke="red" points="446.5,-886.5 446.5,-905.5 523.5,-905.5 523.5,-886.5 446.5,-886.5"/>
<text text-anchor="middle" x="485" y="-893.5" font-family="Helvetica,sans-Serif" font-size="10.00">pt_tls_receive</text>
</a>
</g>
</g>
<!-- Node10&#45;&gt;Node45 -->
<g id="edge53" class="edge"><title>Node10&#45;&gt;Node45</title>
<path fill="none" stroke="midnightblue" d="M354.136,-840.992C370.681,-852.951 392.683,-867.416 414,-877 424.107,-881.544 435.537,-885.209 446.186,-888.063"/>
<polygon fill="midnightblue" stroke="midnightblue" points="356.141,-838.122 346.015,-835.006 351.988,-843.756 356.141,-838.122"/>
</g>
<!-- Node46 -->
<g id="node46" class="node"><title>Node46</title>
<g id="a_node46"><a xlink:href="../../d1/d64/vici__query_8c.html#af86b9d3016c2cecd193a256aa1429d8f" target="_top" xlink:title="has_privkey">
<polygon fill="none" stroke="red" points="450.5,-848.5 450.5,-867.5 519.5,-867.5 519.5,-848.5 450.5,-848.5"/>
<text text-anchor="middle" x="485" y="-855.5" font-family="Helvetica,sans-Serif" font-size="10.00">has_privkey</text>
</a>
</g>
</g>
<!-- Node10&#45;&gt;Node46 -->
<g id="edge54" class="edge"><title>Node10&#45;&gt;Node46</title>
<path fill="none" stroke="midnightblue" d="M388.274,-834.831C409.372,-839.937 432.216,-845.466 450.295,-849.842"/>
<polygon fill="midnightblue" stroke="midnightblue" points="388.95,-831.393 378.408,-832.443 387.304,-838.197 388.95,-831.393"/>
</g>
<!-- Node47 -->
<g id="node47" class="node"><title>Node47</title>
<g id="a_node47"><a xlink:href="../../d0/d14/x509__ac_8c.html#a442c4fda7882a938af13d9671facf27b" target="_top" xlink:title="parse_certificate">
<polygon fill="none" stroke="red" points="440.5,-810.5 440.5,-829.5 529.5,-829.5 529.5,-810.5 440.5,-810.5"/>
<text text-anchor="middle" x="485" y="-817.5" font-family="Helvetica,sans-Serif" font-size="10.00">parse_certificate</text>
</a>
</g>
</g>
<!-- Node10&#45;&gt;Node47 -->
<g id="edge55" class="edge"><title>Node10&#45;&gt;Node47</title>
<path fill="none" stroke="midnightblue" d="M388.457,-820C405.799,-820 424.308,-820 440.371,-820"/>
<polygon fill="midnightblue" stroke="midnightblue" points="388.408,-816.5 378.408,-820 388.408,-823.5 388.408,-816.5"/>
</g>
<!-- Node48 -->
<g id="node48" class="node"><title>Node48</title>
<g id="a_node48"><a xlink:href="../../de/d1d/x509__cert_8c.html#ab991374637f21ec889a32d80ed31d9ab" target="_top" xlink:title="parse_generalName">
<polygon fill="none" stroke="red" points="433,-772.5 433,-791.5 537,-791.5 537,-772.5 433,-772.5"/>
<text text-anchor="middle" x="485" y="-779.5" font-family="Helvetica,sans-Serif" font-size="10.00">parse_generalName</text>
</a>
</g>
</g>
<!-- Node10&#45;&gt;Node48 -->
<g id="edge56" class="edge"><title>Node10&#45;&gt;Node48</title>
<path fill="none" stroke="midnightblue" d="M388.144,-805.201C407.057,-800.623 427.385,-795.703 444.433,-791.577"/>
<polygon fill="midnightblue" stroke="midnightblue" points="387.304,-801.803 378.408,-807.557 388.95,-808.607 387.304,-801.803"/>
</g>
<!-- Node49 -->
<g id="node49" class="node"><title>Node49</title>
<g id="a_node49"><a xlink:href="../../df/d29/x509__ocsp__response_8c.html#a16a95d0b413a46d75699e912d0242fb2" target="_top" xlink:title="parse_basicOCSPResponse">
<polygon fill="none" stroke="red" points="414,-734.5 414,-753.5 556,-753.5 556,-734.5 414,-734.5"/>
<text text-anchor="middle" x="485" y="-741.5" font-family="Helvetica,sans-Serif" font-size="10.00">parse_basicOCSPResponse</text>
</a>
</g>
</g>
<!-- Node10&#45;&gt;Node49 -->
<g id="edge57" class="edge"><title>Node10&#45;&gt;Node49</title>
<path fill="none" stroke="midnightblue" d="M354.136,-799.008C370.681,-787.049 392.683,-772.584 414,-763 422.269,-759.282 431.424,-756.153 440.312,-753.575"/>
<polygon fill="midnightblue" stroke="midnightblue" points="351.988,-796.244 346.015,-804.994 356.141,-801.878 351.988,-796.244"/>
</g>
<!-- Node50 -->
<g id="node50" class="node"><title>Node50</title>
<g id="a_node50"><a xlink:href="../../dd/dce/x509__pkcs10_8c.html#a07f3d8dcf4960b50b970e129087bb24c" target="_top" xlink:title="parse_certificate_request">
<polygon fill="none" stroke="red" points="422,-696.5 422,-715.5 548,-715.5 548,-696.5 422,-696.5"/>
<text text-anchor="middle" x="485" y="-703.5" font-family="Helvetica,sans-Serif" font-size="10.00">parse_certificate_request</text>
</a>
</g>
</g>
<!-- Node10&#45;&gt;Node50 -->
<g id="edge58" class="edge"><title>Node10&#45;&gt;Node50</title>
<path fill="none" stroke="midnightblue" d="M342.682,-796.332C358.27,-774.637 384.121,-743.204 414,-725 420.345,-721.135 427.483,-718.042 434.712,-715.57"/>
<polygon fill="midnightblue" stroke="midnightblue" points="339.704,-794.484 336.84,-804.685 345.44,-798.496 339.704,-794.484"/>
</g>
<!-- Node16 -->
<g id="node16" class="node"><title>Node16</title>
<g id="a_node16"><a xlink:href="../../de/dc6/ike__auth_8c.html#a4e687eb1af4d66691763df5dcadee3a5" target="_top" xlink:title="METHOD">
<polygon fill="none" stroke="black" points="618,-1424.5 618,-1443.5 678,-1443.5 678,-1424.5 618,-1424.5"/>
<text text-anchor="middle" x="648" y="-1431.5" font-family="Helvetica,sans-Serif" font-size="10.00">METHOD</text>
</a>
</g>
</g>
<!-- Node15&#45;&gt;Node16 -->
<g id="edge17" class="edge"><title>Node15&#45;&gt;Node16</title>
<path fill="none" stroke="midnightblue" d="M547.202,-1410.45C571.353,-1416.15 597.968,-1422.43 617.634,-1427.07"/>
<polygon fill="midnightblue" stroke="midnightblue" points="547.921,-1407.02 537.384,-1408.13 546.313,-1413.83 547.921,-1407.02"/>
</g>
<!-- Node17 -->
<g id="node17" class="node"><title>Node17</title>
<g id="a_node17"><a xlink:href="../../d8/d42/phase1_8c.html#af32f66694d47c250930a9bdbe1012050" target="_top" xlink:title="lookup_shared_key">
<polygon fill="none" stroke="red" points="597.5,-1386.5 597.5,-1405.5 698.5,-1405.5 698.5,-1386.5 597.5,-1386.5"/>
<text text-anchor="middle" x="648" y="-1393.5" font-family="Helvetica,sans-Serif" font-size="10.00">lookup_shared_key</text>
</a>
</g>
</g>
<!-- Node15&#45;&gt;Node17 -->
<g id="edge18" class="edge"><title>Node15&#45;&gt;Node17</title>
<path fill="none" stroke="midnightblue" d="M547.502,-1396C564.029,-1396 581.69,-1396 597.476,-1396"/>
<polygon fill="midnightblue" stroke="midnightblue" points="547.384,-1392.5 537.384,-1396 547.384,-1399.5 547.384,-1392.5"/>
</g>
<!-- Node18 -->
<g id="node18" class="node"><title>Node18</title>
<g id="a_node18"><a xlink:href="../../d7/d58/quick__mode_8c.html#abee8eaad84ccbe1d106d1a53acf18dee" target="_top" xlink:title="add_nat_oa_payloads">
<polygon fill="none" stroke="red" points="592.5,-1348.5 592.5,-1367.5 703.5,-1367.5 703.5,-1348.5 592.5,-1348.5"/>
<text text-anchor="middle" x="648" y="-1355.5" font-family="Helvetica,sans-Serif" font-size="10.00">add_nat_oa_payloads</text>
</a>
</g>
</g>
<!-- Node15&#45;&gt;Node18 -->
<g id="edge19" class="edge"><title>Node15&#45;&gt;Node18</title>
<path fill="none" stroke="midnightblue" d="M547.272,-1381.54C567.111,-1376.86 588.604,-1371.78 606.539,-1367.55"/>
<polygon fill="midnightblue" stroke="midnightblue" points="546.313,-1378.17 537.384,-1383.87 547.921,-1384.98 546.313,-1378.17"/>
</g>
<!-- Node25&#45;&gt;Node26 -->
<g id="edge29" class="edge"><title>Node25&#45;&gt;Node26</title>
<path fill="none" stroke="midnightblue" d="M554.637,-56.1C570.966,-58.027 587.961,-60.0327 602.855,-61.7903"/>
<polygon fill="midnightblue" stroke="midnightblue" points="554.921,-52.6094 544.58,-54.9132 554.101,-59.5611 554.921,-52.6094"/>
</g>
<!-- Node30&#45;&gt;Node31 -->
<g id="edge35" class="edge"><title>Node30&#45;&gt;Node31</title>
<path fill="none" stroke="midnightblue" d="M528.544,-282.979C560.458,-279.213 602.693,-274.229 627.152,-271.342"/>
<polygon fill="midnightblue" stroke="midnightblue" points="528.102,-279.507 518.581,-284.155 528.922,-286.459 528.102,-279.507"/>
</g>
<!-- Node38&#45;&gt;Node39 -->
<g id="edge44" class="edge"><title>Node38&#45;&gt;Node39</title>
<path fill="none" stroke="midnightblue" d="M538.151,-1155.85C564.644,-1152.72 595.833,-1149.04 618.019,-1146.42"/>
<polygon fill="midnightblue" stroke="midnightblue" points="537.401,-1152.41 527.881,-1157.06 538.222,-1159.36 537.401,-1152.41"/>
</g>
</g>
</svg>
