<?xml version="1.0" encoding="UTF-8" standalone="no"?>
<!DOCTYPE svg PUBLIC "-//W3C//DTD SVG 1.1//EN"
 "http://www.w3.org/Graphics/SVG/1.1/DTD/svg11.dtd">
<!-- Generated by graphviz version 2.36.0 (20140111.2315)
 -->
<!-- Title: add_key_values Pages: 1 -->
<!--zoomable 161 -->
<svg id="main" version="1.1" xmlns="http://www.w3.org/2000/svg" xmlns:xlink="http://www.w3.org/1999/xlink" xml:space="preserve" onload="init(evt)">
<style type="text/css"><![CDATA[
.edge:hover path { stroke: red; }
.edge:hover polygon { stroke: red; fill: red; }
]]></style>
<script type="text/javascript"><![CDATA[
var edges = document.getElementsByTagName('g');
if (edges && edges.length) {
  for (var i=0;i<edges.length;i++) {
    if (edges[i].id.substr(0,4)=='edge') {
      edges[i].setAttribute('class','edge');
    }
  }
}
]]></script>
        <defs>
                <circle id="rim" cx="0" cy="0" r="7"/>
                <circle id="rim2" cx="0" cy="0" r="3.5"/>
                <g id="zoomPlus">
                        <use xlink:href="#rim" fill="#404040">
                                <set attributeName="fill" to="#808080" begin="zoomplus.mouseover" end="zoomplus.mouseout"/>
                        </use>
                        <path d="M-4,0h8M0,-4v8" fill="none" stroke="white" stroke-width="1.5" pointer-events="none"/>
                </g>
                <g id="zoomMin">
                        <use xlink:href="#rim" fill="#404040">
                                <set attributeName="fill" to="#808080" begin="zoomminus.mouseover" end="zoomminus.mouseout"/>
                        </use>
                        <path d="M-4,0h8" fill="none" stroke="white" stroke-width="1.5" pointer-events="none"/>
                </g>
                <g id="dirArrow">
                        <path fill="none" stroke="white" stroke-width="1.5" d="M0,-3.0v7 M-2.5,-0.5L0,-3.0L2.5,-0.5"/>
                </g>
               <g id="resetDef">
                       <use xlink:href="#rim2" fill="#404040">
                               <set attributeName="fill" to="#808080" begin="reset.mouseover" end="reset.mouseout"/>
                       </use>
               </g>
        </defs>

<script type="text/javascript">
var viewWidth = 630;
var viewHeight = 161;
var sectionId = 'dynsection-2';
</script>
<script xlink:href="../../svgpan.js"/>
<svg id="graph" class="graph">
<g id="viewport">
<title>add_key_values</title>
<!-- Node1 -->
<g id="node1" class="node"><title>Node1</title>
<polygon fill="#bfbfbf" stroke="black" points="0.5,-38.5 0.5,-57.5 87.5,-57.5 87.5,-38.5 0.5,-38.5"/>
<text text-anchor="middle" x="44" y="-45.5" font-family="Helvetica,sans-Serif" font-size="10.00">add_key_values</text>
</g>
<!-- Node2 -->
<g id="node2" class="node"><title>Node2</title>
<g id="a_node2"><a xlink:href="../../d4/d1a/load__pools_8c.html#a1d90d13548d1902e417891350b262b95" target="_top" xlink:title="add_list_key">
<polygon fill="none" stroke="black" points="141.5,-76.5 141.5,-95.5 212.5,-95.5 212.5,-76.5 141.5,-76.5"/>
<text text-anchor="middle" x="177" y="-83.5" font-family="Helvetica,sans-Serif" font-size="10.00">add_list_key</text>
</a>
</g>
</g>
<!-- Node1&#45;&gt;Node2 -->
<g id="edge1" class="edge"><title>Node1&#45;&gt;Node2</title>
<path fill="none" stroke="midnightblue" d="M78.0568,-57.589C94.8125,-62.4494 115.358,-68.4091 133.297,-73.6127"/>
<polygon fill="midnightblue" stroke="midnightblue" points="132.375,-76.9895 142.954,-76.4141 134.325,-70.2666 132.375,-76.9895"/>
</g>
<!-- Node10 -->
<g id="node10" class="node"><title>Node10</title>
<g id="a_node10"><a xlink:href="../../d4/d40/group__string__i.html#ga65c3d08890165aaa4663c72d07f93bb7" target="_top" xlink:title="streq">
<polygon fill="none" stroke="black" points="158,-38.5 158,-57.5 196,-57.5 196,-38.5 158,-38.5"/>
<text text-anchor="middle" x="177" y="-45.5" font-family="Helvetica,sans-Serif" font-size="10.00">streq</text>
</a>
</g>
</g>
<!-- Node1&#45;&gt;Node10 -->
<g id="edge9" class="edge"><title>Node1&#45;&gt;Node10</title>
<path fill="none" stroke="midnightblue" d="M87.5319,-48C107.206,-48 130.046,-48 147.59,-48"/>
<polygon fill="midnightblue" stroke="midnightblue" points="147.754,-51.5001 157.754,-48 147.754,-44.5001 147.754,-51.5001"/>
</g>
<!-- Node11 -->
<g id="node11" class="node"><title>Node11</title>
<g id="a_node11"><a xlink:href="../../dc/d7a/group__libvici.html#ga35f8320efd0f149a823068919697a76d" target="_top" xlink:title="vici_add_key_valuef">
<polygon fill="none" stroke="black" points="124.5,-0.5 124.5,-19.5 229.5,-19.5 229.5,-0.5 124.5,-0.5"/>
<text text-anchor="middle" x="177" y="-7.5" font-family="Helvetica,sans-Serif" font-size="10.00">vici_add_key_valuef</text>
</a>
</g>
</g>
<!-- Node1&#45;&gt;Node11 -->
<g id="edge10" class="edge"><title>Node1&#45;&gt;Node11</title>
<path fill="none" stroke="midnightblue" d="M78.0568,-38.411C94.8125,-33.5506 115.358,-27.5909 133.297,-22.3873"/>
<polygon fill="midnightblue" stroke="midnightblue" points="134.325,-25.7334 142.954,-19.5859 132.375,-19.0105 134.325,-25.7334"/>
</g>
<!-- Node3 -->
<g id="node3" class="node"><title>Node3</title>
<g id="a_node3"><a xlink:href="../../dc/d7a/group__libvici.html#ga268d324c5d35844cf52715a32f5f0ffb" target="_top" xlink:title="vici_begin_list">
<polygon fill="none" stroke="black" points="291,-133.5 291,-152.5 369,-152.5 369,-133.5 291,-133.5"/>
<text text-anchor="middle" x="330" y="-140.5" font-family="Helvetica,sans-Serif" font-size="10.00">vici_begin_list</text>
</a>
</g>
</g>
<!-- Node2&#45;&gt;Node3 -->
<g id="edge2" class="edge"><title>Node2&#45;&gt;Node3</title>
<path fill="none" stroke="midnightblue" d="M198.356,-95.5822C216.022,-103.706 242.397,-115.377 266,-124 272.056,-126.212 278.504,-128.373 284.876,-130.397"/>
<polygon fill="midnightblue" stroke="midnightblue" points="284.173,-133.843 294.761,-133.452 286.241,-127.155 284.173,-133.843"/>
</g>
<!-- Node4 -->
<g id="node4" class="node"><title>Node4</title>
<g id="a_node4"><a xlink:href="../../d3/de6/group__enumerator.html#gacd5e29348cf29bd815aa2bc04101c174" target="_top" xlink:title="enumerator_create_token">
<polygon fill="none" stroke="black" points="266.5,-95.5 266.5,-114.5 393.5,-114.5 393.5,-95.5 266.5,-95.5"/>
<text text-anchor="middle" x="330" y="-102.5" font-family="Helvetica,sans-Serif" font-size="10.00">enumerator_create_token</text>
</a>
</g>
</g>
<!-- Node2&#45;&gt;Node4 -->
<g id="edge3" class="edge"><title>Node2&#45;&gt;Node4</title>
<path fill="none" stroke="midnightblue" d="M212.642,-90.359C225.713,-92.0037 241.122,-93.9425 256.374,-95.8617"/>
<polygon fill="midnightblue" stroke="midnightblue" points="255.99,-99.3408 266.348,-97.1167 256.864,-92.3956 255.99,-99.3408"/>
</g>
<!-- Node8 -->
<g id="node8" class="node"><title>Node8</title>
<g id="a_node8"><a xlink:href="../../dc/d7a/group__libvici.html#ga32c85c4d18615d83204f2e1f9a3b55ed" target="_top" xlink:title="vici_add_list_itemf">
<polygon fill="none" stroke="black" points="281,-57.5 281,-76.5 379,-76.5 379,-57.5 281,-57.5"/>
<text text-anchor="middle" x="330" y="-64.5" font-family="Helvetica,sans-Serif" font-size="10.00">vici_add_list_itemf</text>
</a>
</g>
</g>
<!-- Node2&#45;&gt;Node8 -->
<g id="edge7" class="edge"><title>Node2&#45;&gt;Node8</title>
<path fill="none" stroke="midnightblue" d="M212.642,-81.641C229.844,-79.4765 251.096,-76.8025 270.71,-74.3345"/>
<polygon fill="midnightblue" stroke="midnightblue" points="271.303,-77.7875 280.788,-73.0664 270.429,-70.8423 271.303,-77.7875"/>
</g>
<!-- Node9 -->
<g id="node9" class="node"><title>Node9</title>
<g id="a_node9"><a xlink:href="../../dc/d7a/group__libvici.html#ga79d4016a95eb7a19b9d3d209c12a3685" target="_top" xlink:title="vici_end_list">
<polygon fill="none" stroke="black" points="294.5,-19.5 294.5,-38.5 365.5,-38.5 365.5,-19.5 294.5,-19.5"/>
<text text-anchor="middle" x="330" y="-26.5" font-family="Helvetica,sans-Serif" font-size="10.00">vici_end_list</text>
</a>
</g>
</g>
<!-- Node2&#45;&gt;Node9 -->
<g id="edge8" class="edge"><title>Node2&#45;&gt;Node9</title>
<path fill="none" stroke="midnightblue" d="M206.344,-76.4307C214.098,-73.6003 222.446,-70.3552 230,-67 246.534,-59.6565 249.262,-54.866 266,-48 271.896,-45.5816 278.213,-43.315 284.489,-41.2489"/>
<polygon fill="midnightblue" stroke="midnightblue" points="285.763,-44.5171 294.25,-38.1742 283.66,-37.8405 285.763,-44.5171"/>
</g>
<!-- Node5 -->
<g id="node5" class="node"><title>Node5</title>
<g id="a_node5"><a xlink:href="../../de/d46/enumerator_8c.html#abd5b850e1cf14a510a91e614cf8aaaf9" target="_top" xlink:title="enumerate_token_enum">
<polygon fill="none" stroke="black" points="430.5,-114.5 430.5,-133.5 551.5,-133.5 551.5,-114.5 430.5,-114.5"/>
<text text-anchor="middle" x="491" y="-121.5" font-family="Helvetica,sans-Serif" font-size="10.00">enumerate_token_enum</text>
</a>
</g>
</g>
<!-- Node4&#45;&gt;Node5 -->
<g id="edge4" class="edge"><title>Node4&#45;&gt;Node5</title>
<path fill="none" stroke="midnightblue" d="M393.841,-112.509C402.513,-113.546 411.462,-114.615 420.25,-115.665"/>
<polygon fill="midnightblue" stroke="midnightblue" points="420.121,-119.174 430.466,-116.886 420.952,-112.224 420.121,-119.174"/>
</g>
<!-- Node6 -->
<g id="node6" class="node"><title>Node6</title>
<g id="a_node6"><a xlink:href="../../de/d46/enumerator_8c.html#a2bdb7cb5feb4186044641fc893b245dc" target="_top" xlink:title="destroy_token_enum">
<polygon fill="none" stroke="black" points="437.5,-76.5 437.5,-95.5 544.5,-95.5 544.5,-76.5 437.5,-76.5"/>
<text text-anchor="middle" x="491" y="-83.5" font-family="Helvetica,sans-Serif" font-size="10.00">destroy_token_enum</text>
</a>
</g>
</g>
<!-- Node4&#45;&gt;Node6 -->
<g id="edge5" class="edge"><title>Node4&#45;&gt;Node6</title>
<path fill="none" stroke="midnightblue" d="M393.841,-97.4907C404.873,-96.1724 416.353,-94.8005 427.38,-93.4829"/>
<polygon fill="midnightblue" stroke="midnightblue" points="427.838,-96.9532 437.352,-92.2913 427.007,-90.0026 427.838,-96.9532"/>
</g>
<!-- Node7 -->
<g id="node7" class="node"><title>Node7</title>
<g id="a_node7"><a xlink:href="../../da/dfc/settings__parser_8c.html#af07d89f5ceaea0c7c8252cc41fd75f37" target="_top" xlink:title="free">
<polygon fill="none" stroke="black" points="588.5,-76.5 588.5,-95.5 621.5,-95.5 621.5,-76.5 588.5,-76.5"/>
<text text-anchor="middle" x="605" y="-83.5" font-family="Helvetica,sans-Serif" font-size="10.00">free</text>
</a>
</g>
</g>
<!-- Node6&#45;&gt;Node7 -->
<g id="edge6" class="edge"><title>Node6&#45;&gt;Node7</title>
<path fill="none" stroke="midnightblue" d="M544.72,-86C556.387,-86 568.244,-86 578.257,-86"/>
<polygon fill="midnightblue" stroke="midnightblue" points="578.302,-89.5001 588.302,-86 578.302,-82.5001 578.302,-89.5001"/>
</g>
</g>
</svg>
        <g id="navigator" transform="translate(0 0)" fill="#404254">
                <rect fill="#f2f5e9" fill-opacity="0.5" stroke="#606060" stroke-width=".5" x="0" y="0" width="60" height="60"/>
                <use id="zoomplus" xlink:href="#zoomPlus" x="17" y="9" onmousedown="handleZoom(evt,'in')"/>
                <use id="zoomminus" xlink:href="#zoomMin" x="42" y="9" onmousedown="handleZoom(evt,'out')"/>
                <use id="reset" xlink:href="#resetDef" x="30" y="36" onmousedown="handleReset()"/>
                <g id="arrowUp" xlink:href="#dirArrow" transform="translate(30 24)" onmousedown="handlePan(0,-1)">
                  <use xlink:href="#rim" fill="#404040">
                        <set attributeName="fill" to="#808080" begin="arrowUp.mouseover" end="arrowUp.mouseout"/>
                  </use>
                  <path fill="none" stroke="white" stroke-width="1.5" d="M0,-3.0v7 M-2.5,-0.5L0,-3.0L2.5,-0.5"/>
                </g>
                <g id="arrowRight" xlink:href="#dirArrow" transform="rotate(90) translate(36 -43)" onmousedown="handlePan(1,0)">
                  <use xlink:href="#rim" fill="#404040">
                        <set attributeName="fill" to="#808080" begin="arrowRight.mouseover" end="arrowRight.mouseout"/>
                  </use>
                  <path fill="none" stroke="white" stroke-width="1.5" d="M0,-3.0v7 M-2.5,-0.5L0,-3.0L2.5,-0.5"/>
                </g>
                <g id="arrowDown" xlink:href="#dirArrow" transform="rotate(180) translate(-30 -48)" onmousedown="handlePan(0,1)">
                  <use xlink:href="#rim" fill="#404040">
                        <set attributeName="fill" to="#808080" begin="arrowDown.mouseover" end="arrowDown.mouseout"/>
                  </use>
                  <path fill="none" stroke="white" stroke-width="1.5" d="M0,-3.0v7 M-2.5,-0.5L0,-3.0L2.5,-0.5"/>
                </g>
                <g id="arrowLeft" xlink:href="#dirArrow" transform="rotate(270) translate(-36 17)" onmousedown="handlePan(-1,0)">
                  <use xlink:href="#rim" fill="#404040">
                        <set attributeName="fill" to="#808080" begin="arrowLeft.mouseover" end="arrowLeft.mouseout"/>
                  </use>
                  <path fill="none" stroke="white" stroke-width="1.5" d="M0,-3.0v7 M-2.5,-0.5L0,-3.0L2.5,-0.5"/>
                </g>
        </g>
        <svg viewBox="0 0 15 15" width="100%" height="30px" preserveAspectRatio="xMaxYMin meet">
         <g id="arrow_out" transform="scale(0.3 0.3)">
          <a xlink:href="load__pools_8c_a78908dc155ae4bf7c13dc195907acb6c_cgraph_org.svg" target="_base">
           <rect id="button" ry="5" rx="5" y="6" x="6" height="38" width="38"
                fill="#f2f5e9" fill-opacity="0.5" stroke="#606060" stroke-width="1.0"/>
           <path id="arrow"
             d="M 11.500037,31.436501 C 11.940474,20.09759 22.043105,11.32322 32.158766,21.979434 L 37.068811,17.246167 C 37.068811,17.246167 37.088388,32 37.088388,32 L 22.160133,31.978069 C 22.160133,31.978069 26.997745,27.140456 26.997745,27.140456 C 18.528582,18.264221 13.291696,25.230495 11.500037,31.436501 z"
             style="fill:#404040;"/>
          </a>
         </g>
        </svg>
</svg>
