<?xml version="1.0" encoding="UTF-8" standalone="no"?>
<!DOCTYPE svg PUBLIC "-//W3C//DTD SVG 1.1//EN"
 "http://www.w3.org/Graphics/SVG/1.1/DTD/svg11.dtd">
<!-- Generated by graphviz version 2.36.0 (20140111.2315)
 -->
<!-- Title: private_uci_creds_t Pages: 1 -->
<svg width="223pt" height="164pt"
 viewBox="0.00 0.00 223.00 164.00" xmlns="http://www.w3.org/2000/svg" xmlns:xlink="http://www.w3.org/1999/xlink">
<g id="graph0" class="graph" transform="scale(1 1) rotate(0) translate(4 160)">
<title>private_uci_creds_t</title>
<!-- Node1 -->
<g id="node1" class="node"><title>Node1</title>
<polygon fill="#bfbfbf" stroke="black" points="0.5,-0.5 0.5,-19.5 101.5,-19.5 101.5,-0.5 0.5,-0.5"/>
<text text-anchor="middle" x="51" y="-7.5" font-family="Helvetica,sans-Serif" font-size="10.00">private_uci_creds_t</text>
</g>
<!-- Node2 -->
<g id="node2" class="node"><title>Node2</title>
<polygon fill="none" stroke="#bfbfbf" points="-0.5,-68.5 -0.5,-87.5 40.5,-87.5 40.5,-68.5 -0.5,-68.5"/>
<text text-anchor="middle" x="20" y="-75.5" font-family="Helvetica,sans-Serif" font-size="10.00">struct</text>
</g>
<!-- Node2&#45;&gt;Node1 -->
<g id="edge1" class="edge"><title>Node2&#45;&gt;Node1</title>
<path fill="none" stroke="#9a32cd" stroke-dasharray="5,2" d="M24.4667,-58.2772C26.3713,-51.6939 28.8833,-44.3567 32,-38 35.2298,-31.4125 39.9798,-24.6625 43.9224,-19.5594"/>
<polygon fill="#9a32cd" stroke="#9a32cd" points="20.9795,-57.7784 21.8356,-68.3386 27.7518,-59.5495 20.9795,-57.7784"/>
<text text-anchor="middle" x="46.5" y="-41.5" font-family="Helvetica,sans-Serif" font-size="10.00"> public</text>
</g>
<!-- Node3 -->
<g id="node3" class="node"><title>Node3</title>
<g id="a_node3"><a xlink:href="../../db/dea/structuci__parser__t.html" target="_top" xlink:title="uci_parser_t">
<polygon fill="none" stroke="black" points="59,-68.5 59,-87.5 129,-87.5 129,-68.5 59,-68.5"/>
<text text-anchor="middle" x="94" y="-75.5" font-family="Helvetica,sans-Serif" font-size="10.00">uci_parser_t</text>
</a>
</g>
</g>
<!-- Node3&#45;&gt;Node1 -->
<g id="edge2" class="edge"><title>Node3&#45;&gt;Node1</title>
<path fill="none" stroke="#9a32cd" stroke-dasharray="5,2" d="M82.8837,-59.9377C74.5275,-47.112 63.4173,-30.0591 56.7601,-19.8411"/>
<polygon fill="#9a32cd" stroke="#9a32cd" points="79.9871,-61.9036 88.3785,-68.3717 85.8522,-58.0824 79.9871,-61.9036"/>
<text text-anchor="middle" x="91.5" y="-41.5" font-family="Helvetica,sans-Serif" font-size="10.00"> parser</text>
</g>
<!-- Node4 -->
<g id="node4" class="node"><title>Node4</title>
<g id="a_node4"><a xlink:href="../../db/dd3/structenumerator__t.html" target="_top" xlink:title="enumerator_t">
<polygon fill="none" stroke="black" points="57,-136.5 57,-155.5 131,-155.5 131,-136.5 57,-136.5"/>
<text text-anchor="middle" x="94" y="-143.5" font-family="Helvetica,sans-Serif" font-size="10.00">enumerator_t</text>
</a>
</g>
</g>
<!-- Node4&#45;&gt;Node3 -->
<g id="edge3" class="edge"><title>Node4&#45;&gt;Node3</title>
<path fill="none" stroke="#9a32cd" stroke-dasharray="5,2" d="M94,-126.041C94,-113.472 94,-97.5631 94,-87.8411"/>
<polygon fill="#9a32cd" stroke="#9a32cd" points="90.5001,-126.372 94,-136.372 97.5001,-126.372 90.5001,-126.372"/>
<text text-anchor="middle" x="154.5" y="-109.5" font-family="Helvetica,sans-Serif" font-size="10.00"> create_section_enumerator</text>
</g>
</g>
</svg>
