<?xml version="1.0" encoding="UTF-8" standalone="no"?>
<!DOCTYPE svg PUBLIC "-//W3C//DTD SVG 1.1//EN"
 "http://www.w3.org/Graphics/SVG/1.1/DTD/svg11.dtd">
<!-- Generated by graphviz version 2.36.0 (20140111.2315)
 -->
<!-- Title: private_uci_config_t Pages: 1 -->
<svg width="224pt" height="164pt"
 viewBox="0.00 0.00 224.00 164.00" xmlns="http://www.w3.org/2000/svg" xmlns:xlink="http://www.w3.org/1999/xlink">
<g id="graph0" class="graph" transform="scale(1 1) rotate(0) translate(4 160)">
<title>private_uci_config_t</title>
<!-- Node1 -->
<g id="node1" class="node"><title>Node1</title>
<polygon fill="#bfbfbf" stroke="black" points="0,-0.5 0,-19.5 104,-19.5 104,-0.5 0,-0.5"/>
<text text-anchor="middle" x="52" y="-7.5" font-family="Helvetica,sans-Serif" font-size="10.00">private_uci_config_t</text>
</g>
<!-- Node2 -->
<g id="node2" class="node"><title>Node2</title>
<polygon fill="none" stroke="#bfbfbf" points="0.5,-68.5 0.5,-87.5 41.5,-87.5 41.5,-68.5 0.5,-68.5"/>
<text text-anchor="middle" x="21" y="-75.5" font-family="Helvetica,sans-Serif" font-size="10.00">struct</text>
</g>
<!-- Node2&#45;&gt;Node1 -->
<g id="edge1" class="edge"><title>Node2&#45;&gt;Node1</title>
<path fill="none" stroke="#9a32cd" stroke-dasharray="5,2" d="M25.4667,-58.2772C27.3713,-51.6939 29.8833,-44.3567 33,-38 36.2298,-31.4125 40.9798,-24.6625 44.9224,-19.5594"/>
<polygon fill="#9a32cd" stroke="#9a32cd" points="21.9795,-57.7784 22.8356,-68.3386 28.7518,-59.5495 21.9795,-57.7784"/>
<text text-anchor="middle" x="47.5" y="-41.5" font-family="Helvetica,sans-Serif" font-size="10.00"> public</text>
</g>
<!-- Node3 -->
<g id="node3" class="node"><title>Node3</title>
<g id="a_node3"><a xlink:href="../../db/dea/structuci__parser__t.html" target="_top" xlink:title="uci_parser_t">
<polygon fill="none" stroke="black" points="60,-68.5 60,-87.5 130,-87.5 130,-68.5 60,-68.5"/>
<text text-anchor="middle" x="95" y="-75.5" font-family="Helvetica,sans-Serif" font-size="10.00">uci_parser_t</text>
</a>
</g>
</g>
<!-- Node3&#45;&gt;Node1 -->
<g id="edge2" class="edge"><title>Node3&#45;&gt;Node1</title>
<path fill="none" stroke="#9a32cd" stroke-dasharray="5,2" d="M83.8837,-59.9377C75.5275,-47.112 64.4173,-30.0591 57.7601,-19.8411"/>
<polygon fill="#9a32cd" stroke="#9a32cd" points="80.9871,-61.9036 89.3785,-68.3717 86.8522,-58.0824 80.9871,-61.9036"/>
<text text-anchor="middle" x="92.5" y="-41.5" font-family="Helvetica,sans-Serif" font-size="10.00"> parser</text>
</g>
<!-- Node4 -->
<g id="node4" class="node"><title>Node4</title>
<g id="a_node4"><a xlink:href="../../db/dd3/structenumerator__t.html" target="_top" xlink:title="enumerator_t">
<polygon fill="none" stroke="black" points="58,-136.5 58,-155.5 132,-155.5 132,-136.5 58,-136.5"/>
<text text-anchor="middle" x="95" y="-143.5" font-family="Helvetica,sans-Serif" font-size="10.00">enumerator_t</text>
</a>
</g>
</g>
<!-- Node4&#45;&gt;Node3 -->
<g id="edge3" class="edge"><title>Node4&#45;&gt;Node3</title>
<path fill="none" stroke="#9a32cd" stroke-dasharray="5,2" d="M95,-126.041C95,-113.472 95,-97.5631 95,-87.8411"/>
<polygon fill="#9a32cd" stroke="#9a32cd" points="91.5001,-126.372 95,-136.372 98.5001,-126.372 91.5001,-126.372"/>
<text text-anchor="middle" x="155.5" y="-109.5" font-family="Helvetica,sans-Serif" font-size="10.00"> create_section_enumerator</text>
</g>
</g>
</svg>
