<?xml version="1.0" encoding="UTF-8" standalone="no"?>
<!DOCTYPE svg PUBLIC "-//W3C//DTD SVG 1.1//EN"
 "http://www.w3.org/Graphics/SVG/1.1/DTD/svg11.dtd">
<!-- Generated by graphviz version 2.36.0 (20140111.2315)
 -->
<!-- Title: METHOD Pages: 1 -->
<svg width="354pt" height="66pt"
 viewBox="0.00 0.00 354.00 66.00" xmlns="http://www.w3.org/2000/svg" xmlns:xlink="http://www.w3.org/1999/xlink">
<g id="graph0" class="graph" transform="scale(1 1) rotate(0) translate(4 62)">
<title>METHOD</title>
<!-- Node1 -->
<g id="node1" class="node"><title>Node1</title>
<polygon fill="#bfbfbf" stroke="black" points="0,-19.5 0,-38.5 60,-38.5 60,-19.5 0,-19.5"/>
<text text-anchor="middle" x="30" y="-26.5" font-family="Helvetica,sans-Serif" font-size="10.00">METHOD</text>
</g>
<!-- Node2 -->
<g id="node2" class="node"><title>Node2</title>
<g id="a_node2"><a xlink:href="../../d0/d4c/group__cpu__feature.html#gae0b401b9c666d7ad00f80082e171caf2" target="_top" xlink:title="cpu_feature_available">
<polygon fill="none" stroke="black" points="96.5,-38.5 96.5,-57.5 207.5,-57.5 207.5,-38.5 96.5,-38.5"/>
<text text-anchor="middle" x="152" y="-45.5" font-family="Helvetica,sans-Serif" font-size="10.00">cpu_feature_available</text>
</a>
</g>
</g>
<!-- Node1&#45;&gt;Node2 -->
<g id="edge1" class="edge"><title>Node1&#45;&gt;Node2</title>
<path fill="none" stroke="midnightblue" d="M60.0487,-33.5994C68.097,-34.8737 77.1686,-36.31 86.3863,-37.7695"/>
<polygon fill="midnightblue" stroke="midnightblue" points="85.9799,-41.2487 96.4042,-39.3557 87.0747,-34.3348 85.9799,-41.2487"/>
</g>
<!-- Node4 -->
<g id="node4" class="node"><title>Node4</title>
<g id="a_node4"><a xlink:href="../../db/d5c/group__rdrand__rng.html#gabc9a738fbc448136b2653169d0433dd2" target="_top" xlink:title="rdrand_rng_create">
<polygon fill="none" stroke="black" points="104.5,-0.5 104.5,-19.5 199.5,-19.5 199.5,-0.5 104.5,-0.5"/>
<text text-anchor="middle" x="152" y="-7.5" font-family="Helvetica,sans-Serif" font-size="10.00">rdrand_rng_create</text>
</a>
</g>
</g>
<!-- Node1&#45;&gt;Node4 -->
<g id="edge3" class="edge"><title>Node1&#45;&gt;Node4</title>
<path fill="none" stroke="midnightblue" d="M60.0487,-24.4006C70.4532,-22.7532 82.5678,-20.8351 94.4974,-18.9462"/>
<polygon fill="midnightblue" stroke="midnightblue" points="95.1035,-22.394 104.433,-17.3731 94.0088,-15.4801 95.1035,-22.394"/>
</g>
<!-- Node3 -->
<g id="node3" class="node"><title>Node3</title>
<g id="a_node3"><a xlink:href="../../d0/d4c/group__cpu__feature.html#ga7853a90b81282ea2956998dc7350d242" target="_top" xlink:title="cpu_feature_get_all">
<polygon fill="none" stroke="black" points="244.5,-38.5 244.5,-57.5 345.5,-57.5 345.5,-38.5 244.5,-38.5"/>
<text text-anchor="middle" x="295" y="-45.5" font-family="Helvetica,sans-Serif" font-size="10.00">cpu_feature_get_all</text>
</a>
</g>
</g>
<!-- Node2&#45;&gt;Node3 -->
<g id="edge2" class="edge"><title>Node2&#45;&gt;Node3</title>
<path fill="none" stroke="midnightblue" d="M207.514,-48C216.203,-48 225.234,-48 234.041,-48"/>
<polygon fill="midnightblue" stroke="midnightblue" points="234.242,-51.5001 244.242,-48 234.242,-44.5001 234.242,-51.5001"/>
</g>
</g>
</svg>
