<?xml version="1.0" encoding="UTF-8" standalone="no"?>
<!DOCTYPE svg PUBLIC "-//W3C//DTD SVG 1.1//EN"
 "http://www.w3.org/Graphics/SVG/1.1/DTD/svg11.dtd">
<!-- Generated by graphviz version 2.36.0 (20140111.2315)
 -->
<!-- Title: pts_dh_group_error_create Pages: 1 -->
<svg width="370pt" height="77pt"
 viewBox="0.00 0.00 370.00 77.00" xmlns="http://www.w3.org/2000/svg" xmlns:xlink="http://www.w3.org/1999/xlink">
<g id="graph0" class="graph" transform="scale(1 1) rotate(0) translate(4 73)">
<title>pts_dh_group_error_create</title>
<!-- Node1 -->
<g id="node1" class="node"><title>Node1</title>
<polygon fill="#bfbfbf" stroke="black" points="0,-22 0,-52 100,-52 100,-22 0,-22"/>
<text text-anchor="start" x="8" y="-40" font-family="Helvetica,sans-Serif" font-size="10.00">pts_dh_group_error</text>
<text text-anchor="middle" x="50" y="-29" font-family="Helvetica,sans-Serif" font-size="10.00">_create</text>
</g>
<!-- Node2 -->
<g id="node2" class="node"><title>Node2</title>
<g id="a_node2"><a xlink:href="../../dd/d3c/group__bio__writer.html#gac7993ee5c686c5e28413eef0a03e1e89" target="_top" xlink:title="bio_writer_create">
<polygon fill="none" stroke="black" points="145.5,-49.5 145.5,-68.5 236.5,-68.5 236.5,-49.5 145.5,-49.5"/>
<text text-anchor="middle" x="191" y="-56.5" font-family="Helvetica,sans-Serif" font-size="10.00">bio_writer_create</text>
</a>
</g>
</g>
<!-- Node1&#45;&gt;Node2 -->
<g id="edge1" class="edge"><title>Node1&#45;&gt;Node2</title>
<path fill="none" stroke="midnightblue" d="M100.006,-44.7564C111.371,-46.5552 123.54,-48.4811 135.138,-50.3168"/>
<polygon fill="midnightblue" stroke="midnightblue" points="134.725,-53.795 145.15,-51.9014 135.82,-46.881 134.725,-53.795"/>
</g>
<!-- Node3 -->
<g id="node3" class="node"><title>Node3</title>
<g id="a_node3"><a xlink:href="../../d1/d1e/group__ietf__attr__pa__tnc__errort.html#gaef35b242e115990554d94cedcc8d13c1" target="_top" xlink:title="ietf_attr_pa_tnc_error\l_create">
<polygon fill="none" stroke="black" points="136.5,-0 136.5,-30 245.5,-30 245.5,-0 136.5,-0"/>
<text text-anchor="start" x="144.5" y="-18" font-family="Helvetica,sans-Serif" font-size="10.00">ietf_attr_pa_tnc_error</text>
<text text-anchor="middle" x="191" y="-7" font-family="Helvetica,sans-Serif" font-size="10.00">_create</text>
</a>
</g>
</g>
<!-- Node1&#45;&gt;Node3 -->
<g id="edge2" class="edge"><title>Node1&#45;&gt;Node3</title>
<path fill="none" stroke="midnightblue" d="M100.006,-29.2436C108.525,-27.8954 117.494,-26.4757 126.337,-25.0762"/>
<polygon fill="midnightblue" stroke="midnightblue" points="126.906,-28.5298 136.236,-23.5095 125.811,-21.6159 126.906,-28.5298"/>
</g>
<!-- Node4 -->
<g id="node4" class="node"><title>Node4</title>
<g id="a_node4"><a xlink:href="../../de/d03/ietf__attr__pa__tnc__error_8c.html#aea359bb19a0dbfa11cfa797c435440bf" target="_top" xlink:title="create_generic">
<polygon fill="none" stroke="black" points="282,-5.5 282,-24.5 362,-24.5 362,-5.5 282,-5.5"/>
<text text-anchor="middle" x="322" y="-12.5" font-family="Helvetica,sans-Serif" font-size="10.00">create_generic</text>
</a>
</g>
</g>
<!-- Node3&#45;&gt;Node4 -->
<g id="edge3" class="edge"><title>Node3&#45;&gt;Node4</title>
<path fill="none" stroke="midnightblue" d="M245.587,-15C254.249,-15 263.181,-15 271.734,-15"/>
<polygon fill="midnightblue" stroke="midnightblue" points="271.935,-18.5001 281.935,-15 271.935,-11.5001 271.935,-18.5001"/>
</g>
</g>
</svg>
