<?xml version="1.0" encoding="UTF-8" standalone="no"?>
<!DOCTYPE svg PUBLIC "-//W3C//DTD SVG 1.1//EN"
 "http://www.w3.org/Graphics/SVG/1.1/DTD/svg11.dtd">
<!-- Generated by graphviz version 2.36.0 (20140111.2315)
 -->
<!-- Title: METHOD Pages: 1 -->
<svg width="444pt" height="104pt"
 viewBox="0.00 0.00 444.00 104.00" xmlns="http://www.w3.org/2000/svg" xmlns:xlink="http://www.w3.org/1999/xlink">
<g id="graph0" class="graph" transform="scale(1 1) rotate(0) translate(4 100)">
<title>METHOD</title>
<!-- Node1 -->
<g id="node1" class="node"><title>Node1</title>
<polygon fill="#bfbfbf" stroke="black" points="0,-19.5 0,-38.5 60,-38.5 60,-19.5 0,-19.5"/>
<text text-anchor="middle" x="30" y="-26.5" font-family="Helvetica,sans-Serif" font-size="10.00">METHOD</text>
</g>
<!-- Node2 -->
<g id="node2" class="node"><title>Node2</title>
<g id="a_node2"><a xlink:href="../../d3/de6/group__enumerator.html#gad682aaeee4814a8a9254b2193d803c4f" target="_top" xlink:title="enumerator_create_cleaner">
<polygon fill="none" stroke="black" points="96,-38.5 96,-57.5 230,-57.5 230,-38.5 96,-38.5"/>
<text text-anchor="middle" x="163" y="-45.5" font-family="Helvetica,sans-Serif" font-size="10.00">enumerator_create_cleaner</text>
</a>
</g>
</g>
<!-- Node1&#45;&gt;Node2 -->
<g id="edge1" class="edge"><title>Node1&#45;&gt;Node2</title>
<path fill="none" stroke="midnightblue" d="M60.0731,-33.2167C67.989,-34.3648 76.9457,-35.6639 86.1832,-37.0037"/>
<polygon fill="midnightblue" stroke="midnightblue" points="85.8823,-40.4966 96.2811,-38.4683 86.8871,-33.569 85.8823,-40.4966"/>
</g>
<!-- Node6 -->
<g id="node6" class="node"><title>Node6</title>
<g id="a_node6"><a xlink:href="../../d6/d3e/stroke__attribute_8c.html#afcca60a1b0cbb06afcc4fccd3c404d68" target="_top" xlink:title="find_pool">
<polygon fill="none" stroke="black" points="135,-0.5 135,-19.5 191,-19.5 191,-0.5 135,-0.5"/>
<text text-anchor="middle" x="163" y="-7.5" font-family="Helvetica,sans-Serif" font-size="10.00">find_pool</text>
</a>
</g>
</g>
<!-- Node1&#45;&gt;Node6 -->
<g id="edge5" class="edge"><title>Node1&#45;&gt;Node6</title>
<path fill="none" stroke="midnightblue" d="M60.0731,-24.7833C79.1603,-22.0149 104.299,-18.3689 124.834,-15.3905"/>
<polygon fill="midnightblue" stroke="midnightblue" points="125.403,-18.8447 134.797,-13.9455 124.398,-11.9172 125.403,-18.8447"/>
</g>
<!-- Node3 -->
<g id="node3" class="node"><title>Node3</title>
<g id="a_node3"><a xlink:href="../../de/d46/enumerator_8c.html#a08eeb737fd4c522d258f4805583939e3" target="_top" xlink:title="enumerate_cleaner">
<polygon fill="none" stroke="black" points="266.5,-76.5 266.5,-95.5 365.5,-95.5 365.5,-76.5 266.5,-76.5"/>
<text text-anchor="middle" x="316" y="-83.5" font-family="Helvetica,sans-Serif" font-size="10.00">enumerate_cleaner</text>
</a>
</g>
</g>
<!-- Node2&#45;&gt;Node3 -->
<g id="edge2" class="edge"><title>Node2&#45;&gt;Node3</title>
<path fill="none" stroke="midnightblue" d="M202.104,-57.589C221.94,-62.5809 246.384,-68.7324 267.448,-74.0334"/>
<polygon fill="midnightblue" stroke="midnightblue" points="266.618,-77.4336 277.17,-76.4799 268.327,-70.6452 266.618,-77.4336"/>
</g>
<!-- Node4 -->
<g id="node4" class="node"><title>Node4</title>
<g id="a_node4"><a xlink:href="../../de/d46/enumerator_8c.html#ab8547bc01369c3b4d62651400d2b80e5" target="_top" xlink:title="destroy_cleaner">
<polygon fill="none" stroke="black" points="273,-38.5 273,-57.5 359,-57.5 359,-38.5 273,-38.5"/>
<text text-anchor="middle" x="316" y="-45.5" font-family="Helvetica,sans-Serif" font-size="10.00">destroy_cleaner</text>
</a>
</g>
</g>
<!-- Node2&#45;&gt;Node4 -->
<g id="edge3" class="edge"><title>Node2&#45;&gt;Node4</title>
<path fill="none" stroke="midnightblue" d="M230.231,-48C241.047,-48 252.122,-48 262.547,-48"/>
<polygon fill="midnightblue" stroke="midnightblue" points="262.723,-51.5001 272.723,-48 262.723,-44.5001 262.723,-51.5001"/>
</g>
<!-- Node5 -->
<g id="node5" class="node"><title>Node5</title>
<g id="a_node5"><a xlink:href="../../da/dfc/settings__parser_8c.html#af07d89f5ceaea0c7c8252cc41fd75f37" target="_top" xlink:title="free">
<polygon fill="none" stroke="black" points="402.5,-38.5 402.5,-57.5 435.5,-57.5 435.5,-38.5 402.5,-38.5"/>
<text text-anchor="middle" x="419" y="-45.5" font-family="Helvetica,sans-Serif" font-size="10.00">free</text>
</a>
</g>
</g>
<!-- Node4&#45;&gt;Node5 -->
<g id="edge4" class="edge"><title>Node4&#45;&gt;Node5</title>
<path fill="none" stroke="midnightblue" d="M359.248,-48C370.363,-48 382.027,-48 392.005,-48"/>
<polygon fill="midnightblue" stroke="midnightblue" points="392.066,-51.5001 402.066,-48 392.066,-44.5001 392.066,-51.5001"/>
</g>
<!-- Node7 -->
<g id="node7" class="node"><title>Node7</title>
<g id="a_node7"><a xlink:href="../../d4/d40/group__string__i.html#ga65c3d08890165aaa4663c72d07f93bb7" target="_top" xlink:title="streq">
<polygon fill="none" stroke="black" points="297,-0.5 297,-19.5 335,-19.5 335,-0.5 297,-0.5"/>
<text text-anchor="middle" x="316" y="-7.5" font-family="Helvetica,sans-Serif" font-size="10.00">streq</text>
</a>
</g>
</g>
<!-- Node6&#45;&gt;Node7 -->
<g id="edge6" class="edge"><title>Node6&#45;&gt;Node7</title>
<path fill="none" stroke="midnightblue" d="M191.345,-10C218.355,-10 259.478,-10 286.786,-10"/>
<polygon fill="midnightblue" stroke="midnightblue" points="286.866,-13.5001 296.866,-10 286.866,-6.5001 286.866,-13.5001"/>
</g>
</g>
</svg>
