<?xml version="1.0" encoding="UTF-8" standalone="no"?>
<!DOCTYPE svg PUBLIC "-//W3C//DTD SVG 1.1//EN"
 "http://www.w3.org/Graphics/SVG/1.1/DTD/svg11.dtd">
<!-- Generated by graphviz version 2.36.0 (20140111.2315)
 -->
<!-- Title: apple.h Pages: 1 -->
<svg width="1909pt" height="320pt"
 viewBox="0.00 0.00 1909.00 320.00" xmlns="http://www.w3.org/2000/svg" xmlns:xlink="http://www.w3.org/1999/xlink">
<g id="graph0" class="graph" transform="scale(1 1) rotate(0) translate(4 316)">
<title>apple.h</title>
<!-- Node1 -->
<g id="node1" class="node"><title>Node1</title>
<polygon fill="#bfbfbf" stroke="black" points="109,-292.5 109,-311.5 157,-311.5 157,-292.5 109,-292.5"/>
<text text-anchor="middle" x="133" y="-299.5" font-family="Helvetica,sans-Serif" font-size="10.00">apple.h</text>
</g>
<!-- Node2 -->
<g id="node2" class="node"><title>Node2</title>
<polygon fill="none" stroke="#bfbfbf" points="0,-124.5 0,-143.5 40,-143.5 40,-124.5 0,-124.5"/>
<text text-anchor="middle" x="20" y="-131.5" font-family="Helvetica,sans-Serif" font-size="10.00">poll.h</text>
</g>
<!-- Node1&#45;&gt;Node2 -->
<g id="edge1" class="edge"><title>Node1&#45;&gt;Node2</title>
<path fill="none" stroke="midnightblue" d="M126.925,-292.075C108.906,-265.606 55.5398,-187.209 31.715,-152.21"/>
<polygon fill="midnightblue" stroke="midnightblue" points="34.353,-149.865 25.8325,-143.568 28.5665,-153.804 34.353,-149.865"/>
</g>
<!-- Node3 -->
<g id="node3" class="node"><title>Node3</title>
<polygon fill="none" stroke="#bfbfbf" points="58.5,-124.5 58.5,-143.5 131.5,-143.5 131.5,-124.5 58.5,-124.5"/>
<text text-anchor="middle" x="95" y="-131.5" font-family="Helvetica,sans-Serif" font-size="10.00">sys/socket.h</text>
</g>
<!-- Node1&#45;&gt;Node3 -->
<g id="edge2" class="edge"><title>Node1&#45;&gt;Node3</title>
<path fill="none" stroke="midnightblue" d="M128.557,-292.267C124.211,-283.365 117.719,-269.049 114,-256 103.933,-220.676 98.8008,-177.932 96.5275,-153.864"/>
<polygon fill="midnightblue" stroke="midnightblue" points="99.9932,-153.319 95.632,-143.664 93.02,-153.931 99.9932,-153.319"/>
</g>
<!-- Node4 -->
<g id="node4" class="node"><title>Node4</title>
<polygon fill="none" stroke="#bfbfbf" points="237,-236.5 237,-255.5 307,-255.5 307,-236.5 237,-236.5"/>
<text text-anchor="middle" x="272" y="-243.5" font-family="Helvetica,sans-Serif" font-size="10.00">sys/select.h</text>
</g>
<!-- Node1&#45;&gt;Node4 -->
<g id="edge3" class="edge"><title>Node1&#45;&gt;Node4</title>
<path fill="none" stroke="midnightblue" d="M155.025,-292.444C178.104,-283.478 214.562,-269.314 240.641,-259.183"/>
<polygon fill="midnightblue" stroke="midnightblue" points="242.024,-262.4 250.078,-255.516 239.489,-255.875 242.024,-262.4"/>
</g>
<!-- Node5 -->
<g id="node5" class="node"><title>Node5</title>
<g id="a_node5"><a xlink:href="../../db/dd5/thread_8h.html" target="_top" xlink:title="threading/thread.h">
<polygon fill="none" stroke="black" points="123.5,-236.5 123.5,-255.5 218.5,-255.5 218.5,-236.5 123.5,-236.5"/>
<text text-anchor="middle" x="171" y="-243.5" font-family="Helvetica,sans-Serif" font-size="10.00">threading/thread.h</text>
</a>
</g>
</g>
<!-- Node1&#45;&gt;Node5 -->
<g id="edge4" class="edge"><title>Node1&#45;&gt;Node5</title>
<path fill="none" stroke="midnightblue" d="M139.275,-292.083C144.642,-284.455 152.518,-273.264 159.079,-263.941"/>
<polygon fill="midnightblue" stroke="midnightblue" points="161.949,-265.943 164.842,-255.751 156.225,-261.915 161.949,-265.943"/>
</g>
<!-- Node6 -->
<g id="node6" class="node"><title>Node6</title>
<g id="a_node6"><a xlink:href="../../d5/d60/utils_8h.html" target="_top" xlink:title="utils/utils.h">
<polygon fill="none" stroke="black" points="901,-180.5 901,-199.5 965,-199.5 965,-180.5 901,-180.5"/>
<text text-anchor="middle" x="933" y="-187.5" font-family="Helvetica,sans-Serif" font-size="10.00">utils/utils.h</text>
</a>
</g>
</g>
<!-- Node5&#45;&gt;Node6 -->
<g id="edge5" class="edge"><title>Node5&#45;&gt;Node6</title>
<path fill="none" stroke="midnightblue" d="M218.541,-237.155C221.738,-236.732 224.913,-236.341 228,-236 478.397,-208.301 780.857,-196.081 890.621,-192.332"/>
<polygon fill="midnightblue" stroke="midnightblue" points="891.06,-195.82 900.937,-191.986 890.825,-188.824 891.06,-195.82"/>
</g>
<!-- Node6&#45;&gt;Node2 -->
<g id="edge16" class="edge"><title>Node6&#45;&gt;Node2</title>
<path fill="none" stroke="midnightblue" d="M900.664,-188.435C764.557,-185.896 237.054,-174.376 50.0912,-143.665"/>
<polygon fill="midnightblue" stroke="midnightblue" points="50.5706,-140.196 40.122,-141.951 49.384,-147.095 50.5706,-140.196"/>
</g>
<!-- Node6&#45;&gt;Node3 -->
<g id="edge12" class="edge"><title>Node6&#45;&gt;Node3</title>
<path fill="none" stroke="midnightblue" d="M900.794,-188.743C794.11,-187.561 442.47,-181.018 141.81,-143.902"/>
<polygon fill="midnightblue" stroke="midnightblue" points="141.942,-140.391 131.586,-142.625 141.075,-147.337 141.942,-140.391"/>
</g>
<!-- Node7 -->
<g id="node7" class="node"><title>Node7</title>
<polygon fill="none" stroke="#bfbfbf" points="1510,-124.5 1510,-143.5 1578,-143.5 1578,-124.5 1510,-124.5"/>
<text text-anchor="middle" x="1544" y="-131.5" font-family="Helvetica,sans-Serif" font-size="10.00">sys/types.h</text>
</g>
<!-- Node6&#45;&gt;Node7 -->
<g id="edge6" class="edge"><title>Node6&#45;&gt;Node7</title>
<path fill="none" stroke="midnightblue" d="M965.122,-187.831C1051.8,-184.378 1297.61,-172.621 1500,-144 1500.1,-143.986 1500.2,-143.971 1500.3,-143.957"/>
<polygon fill="midnightblue" stroke="midnightblue" points="1500.65,-147.446 1509.96,-142.391 1499.53,-140.537 1500.65,-147.446"/>
</g>
<!-- Node8 -->
<g id="node8" class="node"><title>Node8</title>
<polygon fill="none" stroke="#bfbfbf" points="1623,-0.5 1623,-19.5 1671,-19.5 1671,-0.5 1623,-0.5"/>
<text text-anchor="middle" x="1647" y="-7.5" font-family="Helvetica,sans-Serif" font-size="10.00">stdlib.h</text>
</g>
<!-- Node6&#45;&gt;Node8 -->
<g id="edge7" class="edge"><title>Node6&#45;&gt;Node8</title>
<path fill="none" stroke="midnightblue" d="M965.131,-188.726C1089.63,-187.404 1535.91,-180.163 1587,-144 1621.77,-119.388 1607.2,-94.7027 1625,-56 1629.19,-46.9011 1634.06,-36.8812 1638.15,-28.6106"/>
<polygon fill="midnightblue" stroke="midnightblue" points="1641.33,-30.0802 1642.66,-19.5693 1635.07,-26.9561 1641.33,-30.0802"/>
</g>
<!-- Node9 -->
<g id="node9" class="node"><title>Node9</title>
<polygon fill="none" stroke="#bfbfbf" points="1702,-124.5 1702,-143.5 1754,-143.5 1754,-124.5 1702,-124.5"/>
<text text-anchor="middle" x="1728" y="-131.5" font-family="Helvetica,sans-Serif" font-size="10.00">stddef.h</text>
</g>
<!-- Node6&#45;&gt;Node9 -->
<g id="edge8" class="edge"><title>Node6&#45;&gt;Node9</title>
<path fill="none" stroke="midnightblue" d="M965.038,-189.22C1068.77,-189.486 1404.78,-186.863 1691.59,-143.708"/>
<polygon fill="midnightblue" stroke="midnightblue" points="1692.41,-147.123 1701.77,-142.156 1691.36,-140.203 1692.41,-147.123"/>
</g>
<!-- Node10 -->
<g id="node10" class="node"><title>Node10</title>
<polygon fill="none" stroke="#bfbfbf" points="1772,-124.5 1772,-143.5 1834,-143.5 1834,-124.5 1772,-124.5"/>
<text text-anchor="middle" x="1803" y="-131.5" font-family="Helvetica,sans-Serif" font-size="10.00">sys/time.h</text>
</g>
<!-- Node6&#45;&gt;Node10 -->
<g id="edge9" class="edge"><title>Node6&#45;&gt;Node10</title>
<path fill="none" stroke="midnightblue" d="M965.23,-189.183C1075.31,-189.402 1446.51,-186.806 1761.41,-143.984"/>
<polygon fill="midnightblue" stroke="midnightblue" points="1762.22,-147.406 1771.65,-142.575 1761.26,-140.471 1762.22,-147.406"/>
</g>
<!-- Node11 -->
<g id="node11" class="node"><title>Node11</title>
<g id="a_node11"><a xlink:href="../../da/d66/string_8h.html" target="_top" xlink:title="string.h">
<polygon fill="none" stroke="black" points="1852.5,-124.5 1852.5,-143.5 1901.5,-143.5 1901.5,-124.5 1852.5,-124.5"/>
<text text-anchor="middle" x="1877" y="-131.5" font-family="Helvetica,sans-Serif" font-size="10.00">string.h</text>
</a>
</g>
</g>
<!-- Node6&#45;&gt;Node11 -->
<g id="edge10" class="edge"><title>Node6&#45;&gt;Node11</title>
<path fill="none" stroke="midnightblue" d="M965.262,-188.278C1106.08,-184.992 1667.62,-170.458 1842,-144 1842.1,-143.984 1842.21,-143.968 1842.31,-143.952"/>
<polygon fill="midnightblue" stroke="midnightblue" points="1843.12,-147.36 1852.27,-142.018 1841.79,-140.489 1843.12,-147.36"/>
</g>
<!-- Node12 -->
<g id="node12" class="node"><title>Node12</title>
<polygon fill="none" stroke="#bfbfbf" points="150,-124.5 150,-143.5 212,-143.5 212,-124.5 150,-124.5"/>
<text text-anchor="middle" x="181" y="-131.5" font-family="Helvetica,sans-Serif" font-size="10.00">arpa/inet.h</text>
</g>
<!-- Node6&#45;&gt;Node12 -->
<g id="edge11" class="edge"><title>Node6&#45;&gt;Node12</title>
<path fill="none" stroke="midnightblue" d="M900.934,-188.713C801.579,-187.455 490.004,-180.75 222.159,-143.761"/>
<polygon fill="midnightblue" stroke="midnightblue" points="222.638,-140.294 212.25,-142.376 221.669,-147.226 222.638,-140.294"/>
</g>
<!-- Node13 -->
<g id="node13" class="node"><title>Node13</title>
<polygon fill="none" stroke="#bfbfbf" points="230.5,-124.5 230.5,-143.5 279.5,-143.5 279.5,-124.5 230.5,-124.5"/>
<text text-anchor="middle" x="255" y="-131.5" font-family="Helvetica,sans-Serif" font-size="10.00">netdb.h</text>
</g>
<!-- Node6&#45;&gt;Node13 -->
<g id="edge13" class="edge"><title>Node6&#45;&gt;Node13</title>
<path fill="none" stroke="midnightblue" d="M900.922,-188.894C807.77,-188.137 529.23,-182.687 289.702,-143.772"/>
<polygon fill="midnightblue" stroke="midnightblue" points="290.201,-140.307 279.765,-142.134 289.063,-147.214 290.201,-140.307"/>
</g>
<!-- Node14 -->
<g id="node14" class="node"><title>Node14</title>
<polygon fill="none" stroke="#bfbfbf" points="297.5,-124.5 297.5,-143.5 362.5,-143.5 362.5,-124.5 297.5,-124.5"/>
<text text-anchor="middle" x="330" y="-131.5" font-family="Helvetica,sans-Serif" font-size="10.00">netinet/in.h</text>
</g>
<!-- Node6&#45;&gt;Node14 -->
<g id="edge14" class="edge"><title>Node6&#45;&gt;Node14</title>
<path fill="none" stroke="midnightblue" d="M900.892,-187.898C816.202,-184.678 579.664,-173.666 373.067,-143.96"/>
<polygon fill="midnightblue" stroke="midnightblue" points="373.341,-140.463 362.941,-142.485 372.332,-147.39 373.341,-140.463"/>
</g>
<!-- Node15 -->
<g id="node15" class="node"><title>Node15</title>
<polygon fill="none" stroke="#bfbfbf" points="380.5,-124.5 380.5,-143.5 431.5,-143.5 431.5,-124.5 380.5,-124.5"/>
<text text-anchor="middle" x="406" y="-131.5" font-family="Helvetica,sans-Serif" font-size="10.00">sched.h</text>
</g>
<!-- Node6&#45;&gt;Node15 -->
<g id="edge15" class="edge"><title>Node6&#45;&gt;Node15</title>
<path fill="none" stroke="midnightblue" d="M900.82,-187.844C823.387,-184.683 620.494,-174.144 441.629,-143.806"/>
<polygon fill="midnightblue" stroke="midnightblue" points="441.96,-140.312 431.512,-142.064 440.773,-147.211 441.96,-140.312"/>
</g>
<!-- Node16 -->
<g id="node16" class="node"><title>Node16</title>
<polygon fill="none" stroke="#bfbfbf" points="450,-124.5 450,-143.5 500,-143.5 500,-124.5 450,-124.5"/>
<text text-anchor="middle" x="475" y="-131.5" font-family="Helvetica,sans-Serif" font-size="10.00">signal.h</text>
</g>
<!-- Node6&#45;&gt;Node16 -->
<g id="edge17" class="edge"><title>Node6&#45;&gt;Node16</title>
<path fill="none" stroke="midnightblue" d="M900.846,-187.272C831.248,-183.171 661.377,-171.227 510.091,-143.937"/>
<polygon fill="midnightblue" stroke="midnightblue" points="510.621,-140.476 500.154,-142.117 509.36,-147.362 510.621,-140.476"/>
</g>
<!-- Node17 -->
<g id="node17" class="node"><title>Node17</title>
<g id="a_node17"><a xlink:href="../../d9/d49/types_8h.html" target="_top" xlink:title="utils/types.h">
<polygon fill="none" stroke="black" points="518,-124.5 518,-143.5 588,-143.5 588,-124.5 518,-124.5"/>
<text text-anchor="middle" x="553" y="-131.5" font-family="Helvetica,sans-Serif" font-size="10.00">utils/types.h</text>
</a>
</g>
</g>
<!-- Node6&#45;&gt;Node17 -->
<g id="edge18" class="edge"><title>Node6&#45;&gt;Node17</title>
<path fill="none" stroke="midnightblue" d="M900.923,-185.447C842.654,-178.832 715.342,-163.645 597.903,-144.052"/>
<polygon fill="midnightblue" stroke="midnightblue" points="598.466,-140.598 588.024,-142.39 597.304,-147.501 598.466,-140.598"/>
</g>
<!-- Node18 -->
<g id="node18" class="node"><title>Node18</title>
<g id="a_node18"><a xlink:href="../../d0/d9b/enum_8h.html" target="_top" xlink:title="enum.h">
<polygon fill="none" stroke="black" points="1634.5,-124.5 1634.5,-143.5 1683.5,-143.5 1683.5,-124.5 1634.5,-124.5"/>
<text text-anchor="middle" x="1659" y="-131.5" font-family="Helvetica,sans-Serif" font-size="10.00">enum.h</text>
</a>
</g>
</g>
<!-- Node6&#45;&gt;Node18 -->
<g id="edge19" class="edge"><title>Node6&#45;&gt;Node18</title>
<path fill="none" stroke="midnightblue" d="M965.038,-188.734C1063.41,-187.526 1369.6,-180.847 1620,-144 1621.46,-143.785 1622.95,-143.544 1624.45,-143.282"/>
<polygon fill="midnightblue" stroke="midnightblue" points="1625.23,-146.695 1634.36,-141.319 1623.87,-139.829 1625.23,-146.695"/>
</g>
<!-- Node20 -->
<g id="node20" class="node"><title>Node20</title>
<g id="a_node20"><a xlink:href="../../d8/d19/atomics_8h.html" target="_top" xlink:title="utils/atomics.h">
<polygon fill="none" stroke="black" points="606,-124.5 606,-143.5 686,-143.5 686,-124.5 606,-124.5"/>
<text text-anchor="middle" x="646" y="-131.5" font-family="Helvetica,sans-Serif" font-size="10.00">utils/atomics.h</text>
</a>
</g>
</g>
<!-- Node6&#45;&gt;Node20 -->
<g id="edge22" class="edge"><title>Node6&#45;&gt;Node20</title>
<path fill="none" stroke="midnightblue" d="M900.913,-182.963C851.134,-173.597 754.911,-155.492 695.975,-144.403"/>
<polygon fill="midnightblue" stroke="midnightblue" points="696.612,-140.962 686.137,-142.552 695.318,-147.841 696.612,-140.962"/>
</g>
<!-- Node21 -->
<g id="node21" class="node"><title>Node21</title>
<g id="a_node21"><a xlink:href="../../d1/ddf/align_8h.html" target="_top" xlink:title="utils/align.h">
<polygon fill="none" stroke="black" points="704,-124.5 704,-143.5 770,-143.5 770,-124.5 704,-124.5"/>
<text text-anchor="middle" x="737" y="-131.5" font-family="Helvetica,sans-Serif" font-size="10.00">utils/align.h</text>
</a>
</g>
</g>
<!-- Node6&#45;&gt;Node21 -->
<g id="edge23" class="edge"><title>Node6&#45;&gt;Node21</title>
<path fill="none" stroke="midnightblue" d="M901.943,-180.444C868.397,-171.201 814.803,-156.436 777.859,-146.257"/>
<polygon fill="midnightblue" stroke="midnightblue" points="778.482,-142.798 767.911,-143.516 776.623,-149.547 778.482,-142.798"/>
</g>
<!-- Node22 -->
<g id="node22" class="node"><title>Node22</title>
<g id="a_node22"><a xlink:href="../../d5/d17/byteorder_8h.html" target="_top" xlink:title="utils/byteorder.h">
<polygon fill="none" stroke="black" points="788,-124.5 788,-143.5 874,-143.5 874,-124.5 788,-124.5"/>
<text text-anchor="middle" x="831" y="-131.5" font-family="Helvetica,sans-Serif" font-size="10.00">utils/byteorder.h</text>
</a>
</g>
</g>
<!-- Node6&#45;&gt;Node22 -->
<g id="edge24" class="edge"><title>Node6&#45;&gt;Node22</title>
<path fill="none" stroke="midnightblue" d="M916.612,-180.324C900.329,-171.703 875.133,-158.364 856.284,-148.386"/>
<polygon fill="midnightblue" stroke="midnightblue" points="857.823,-145.24 847.347,-143.655 854.548,-151.427 857.823,-145.24"/>
</g>
<!-- Node23 -->
<g id="node23" class="node"><title>Node23</title>
<g id="a_node23"><a xlink:href="../../dc/d18/memory_8h.html" target="_top" xlink:title="utils/memory.h">
<polygon fill="none" stroke="black" points="892.5,-124.5 892.5,-143.5 973.5,-143.5 973.5,-124.5 892.5,-124.5"/>
<text text-anchor="middle" x="933" y="-131.5" font-family="Helvetica,sans-Serif" font-size="10.00">utils/memory.h</text>
</a>
</g>
</g>
<!-- Node6&#45;&gt;Node23 -->
<g id="edge25" class="edge"><title>Node6&#45;&gt;Node23</title>
<path fill="none" stroke="midnightblue" d="M933,-180.083C933,-173.006 933,-162.861 933,-153.986"/>
<polygon fill="midnightblue" stroke="midnightblue" points="936.5,-153.751 933,-143.751 929.5,-153.751 936.5,-153.751"/>
</g>
<!-- Node24 -->
<g id="node24" class="node"><title>Node24</title>
<g id="a_node24"><a xlink:href="../../d9/dd1/strerror_8h.html" target="_top" xlink:title="utils/strerror.h">
<polygon fill="none" stroke="black" points="991.5,-124.5 991.5,-143.5 1068.5,-143.5 1068.5,-124.5 991.5,-124.5"/>
<text text-anchor="middle" x="1030" y="-131.5" font-family="Helvetica,sans-Serif" font-size="10.00">utils/strerror.h</text>
</a>
</g>
</g>
<!-- Node6&#45;&gt;Node24 -->
<g id="edge26" class="edge"><title>Node6&#45;&gt;Node24</title>
<path fill="none" stroke="midnightblue" d="M948.585,-180.324C963.999,-171.743 987.812,-158.486 1005.71,-148.522"/>
<polygon fill="midnightblue" stroke="midnightblue" points="1007.42,-151.577 1014.45,-143.655 1004.01,-145.461 1007.42,-151.577"/>
</g>
<!-- Node25 -->
<g id="node25" class="node"><title>Node25</title>
<g id="a_node25"><a xlink:href="../../d1/d13/status_8h.html" target="_top" xlink:title="utils/status.h">
<polygon fill="none" stroke="black" points="1086.5,-124.5 1086.5,-143.5 1159.5,-143.5 1159.5,-124.5 1086.5,-124.5"/>
<text text-anchor="middle" x="1123" y="-131.5" font-family="Helvetica,sans-Serif" font-size="10.00">utils/status.h</text>
</a>
</g>
</g>
<!-- Node6&#45;&gt;Node25 -->
<g id="edge27" class="edge"><title>Node6&#45;&gt;Node25</title>
<path fill="none" stroke="midnightblue" d="M963.106,-180.444C995.626,-171.201 1047.58,-156.436 1083.39,-146.257"/>
<polygon fill="midnightblue" stroke="midnightblue" points="1084.37,-149.617 1093.03,-143.516 1082.46,-142.884 1084.37,-149.617"/>
</g>
<!-- Node26 -->
<g id="node26" class="node"><title>Node26</title>
<g id="a_node26"><a xlink:href="../../de/d10/object_8h.html" target="_top" xlink:title="utils/object.h">
<polygon fill="none" stroke="black" points="1178,-124.5 1178,-143.5 1250,-143.5 1250,-124.5 1178,-124.5"/>
<text text-anchor="middle" x="1214" y="-131.5" font-family="Helvetica,sans-Serif" font-size="10.00">utils/object.h</text>
</a>
</g>
</g>
<!-- Node6&#45;&gt;Node26 -->
<g id="edge28" class="edge"><title>Node6&#45;&gt;Node26</title>
<path fill="none" stroke="midnightblue" d="M965.319,-182.854C1010.63,-174.227 1095.61,-158.012 1168,-144 1168.1,-143.981 1168.2,-143.961 1168.3,-143.942"/>
<polygon fill="midnightblue" stroke="midnightblue" points="1168.69,-147.431 1177.84,-142.088 1167.36,-140.559 1168.69,-147.431"/>
</g>
<!-- Node27 -->
<g id="node27" class="node"><title>Node27</title>
<g id="a_node27"><a xlink:href="../../d7/dd4/path_8h.html" target="_top" xlink:title="utils/path.h">
<polygon fill="none" stroke="black" points="1268.5,-124.5 1268.5,-143.5 1333.5,-143.5 1333.5,-124.5 1268.5,-124.5"/>
<text text-anchor="middle" x="1301" y="-131.5" font-family="Helvetica,sans-Serif" font-size="10.00">utils/path.h</text>
</a>
</g>
</g>
<!-- Node6&#45;&gt;Node27 -->
<g id="edge29" class="edge"><title>Node6&#45;&gt;Node27</title>
<path fill="none" stroke="midnightblue" d="M965.051,-185.373C1021.97,-178.761 1144.6,-163.74 1258.55,-143.957"/>
<polygon fill="midnightblue" stroke="midnightblue" points="1259.24,-147.389 1268.49,-142.215 1258.03,-140.494 1259.24,-147.389"/>
</g>
<!-- Node28 -->
<g id="node28" class="node"><title>Node28</title>
<g id="a_node28"><a xlink:href="../../de/df7/time_8h.html" target="_top" xlink:title="utils/time.h">
<polygon fill="none" stroke="black" points="1351.5,-124.5 1351.5,-143.5 1416.5,-143.5 1416.5,-124.5 1351.5,-124.5"/>
<text text-anchor="middle" x="1384" y="-131.5" font-family="Helvetica,sans-Serif" font-size="10.00">utils/time.h</text>
</a>
</g>
</g>
<!-- Node6&#45;&gt;Node28 -->
<g id="edge30" class="edge"><title>Node6&#45;&gt;Node28</title>
<path fill="none" stroke="midnightblue" d="M965.23,-186.574C1032.93,-181.237 1195.05,-167.203 1341.01,-144.006"/>
<polygon fill="midnightblue" stroke="midnightblue" points="1341.73,-147.436 1351.04,-142.392 1340.62,-140.524 1341.73,-147.436"/>
</g>
<!-- Node29 -->
<g id="node29" class="node"><title>Node29</title>
<g id="a_node29"><a xlink:href="../../dd/d71/tty_8h.html" target="_top" xlink:title="utils/tty.h">
<polygon fill="none" stroke="black" points="1434.5,-124.5 1434.5,-143.5 1491.5,-143.5 1491.5,-124.5 1434.5,-124.5"/>
<text text-anchor="middle" x="1463" y="-131.5" font-family="Helvetica,sans-Serif" font-size="10.00">utils/tty.h</text>
</a>
</g>
</g>
<!-- Node6&#45;&gt;Node29 -->
<g id="edge31" class="edge"><title>Node6&#45;&gt;Node29</title>
<path fill="none" stroke="midnightblue" d="M965.144,-187.635C1042.5,-184.014 1245.23,-172.535 1424.32,-143.863"/>
<polygon fill="midnightblue" stroke="midnightblue" points="1425.14,-147.275 1434.45,-142.218 1424.02,-140.366 1425.14,-147.275"/>
</g>
<!-- Node19 -->
<g id="node19" class="node"><title>Node19</title>
<g id="a_node19"><a xlink:href="../../dc/d6a/printf__hook_8h.html" target="_top" xlink:title="utils/printf_hook/printf\l_hook.h">
<polygon fill="none" stroke="black" points="1634,-57 1634,-87 1744,-87 1744,-57 1634,-57"/>
<text text-anchor="start" x="1642" y="-75" font-family="Helvetica,sans-Serif" font-size="10.00">utils/printf_hook/printf</text>
<text text-anchor="middle" x="1689" y="-64" font-family="Helvetica,sans-Serif" font-size="10.00">_hook.h</text>
</a>
</g>
</g>
<!-- Node18&#45;&gt;Node19 -->
<g id="edge20" class="edge"><title>Node18&#45;&gt;Node19</title>
<path fill="none" stroke="midnightblue" d="M1663.3,-124.403C1666.98,-117.037 1672.46,-106.077 1677.42,-96.168"/>
<polygon fill="midnightblue" stroke="midnightblue" points="1680.59,-97.6504 1681.93,-87.1408 1674.33,-94.5198 1680.59,-97.6504"/>
</g>
<!-- Node19&#45;&gt;Node8 -->
<g id="edge21" class="edge"><title>Node19&#45;&gt;Node8</title>
<path fill="none" stroke="midnightblue" d="M1679.05,-56.7808C1673.01,-48.152 1665.26,-37.0882 1658.9,-27.9987"/>
<polygon fill="midnightblue" stroke="midnightblue" points="1661.71,-25.9157 1653.11,-19.7305 1655.98,-29.93 1661.71,-25.9157"/>
</g>
</g>
</svg>
