<?xml version="1.0" encoding="UTF-8" standalone="no"?>
<!DOCTYPE svg PUBLIC "-//W3C//DTD SVG 1.1//EN"
 "http://www.w3.org/Graphics/SVG/1.1/DTD/svg11.dtd">
<!-- Generated by graphviz version 2.36.0 (20140111.2315)
 -->
<!-- Title: packet_t Pages: 1 -->
<svg width="167pt" height="174pt"
 viewBox="0.00 0.00 167.00 174.00" xmlns="http://www.w3.org/2000/svg" xmlns:xlink="http://www.w3.org/1999/xlink">
<g id="graph0" class="graph" transform="scale(1 1) rotate(0) translate(4 170)">
<title>packet_t</title>
<!-- Node1 -->
<g id="node1" class="node"><title>Node1</title>
<polygon fill="#bfbfbf" stroke="black" points="0,-0.5 0,-19.5 54,-19.5 54,-0.5 0,-0.5"/>
<text text-anchor="middle" x="27" y="-7.5" font-family="Helvetica,sans-Serif" font-size="10.00">packet_t</text>
</g>
<!-- Node1&#45;&gt;Node1 -->
<g id="edge1" class="edge"><title>Node1&#45;&gt;Node1</title>
<path fill="none" stroke="#9a32cd" stroke-dasharray="5,2" d="M64.5105,-16.1412C69.0382,-15.0321 72,-12.985 72,-10 72,-5.10156 64.0239,-2.72888 54.2408,-2.88196"/>
<polygon fill="#9a32cd" stroke="#9a32cd" points="63.8644,-12.6868 54.2408,-17.118 64.5273,-19.6553 63.8644,-12.6868"/>
<text text-anchor="middle" x="85.5" y="-7.5" font-family="Helvetica,sans-Serif" font-size="10.00"> clone</text>
</g>
<!-- Node2 -->
<g id="node2" class="node"><title>Node2</title>
<g id="a_node2"><a xlink:href="../../d0/d14/structchunk__t.html" target="_top" xlink:title="chunk_t">
<polygon fill="none" stroke="black" points="13.5,-146.5 13.5,-165.5 64.5,-165.5 64.5,-146.5 13.5,-146.5"/>
<text text-anchor="middle" x="39" y="-153.5" font-family="Helvetica,sans-Serif" font-size="10.00">chunk_t</text>
</a>
</g>
</g>
<!-- Node2&#45;&gt;Node1 -->
<g id="edge2" class="edge"><title>Node2&#45;&gt;Node1</title>
<path fill="none" stroke="#9a32cd" stroke-dasharray="5,2" d="M31.335,-136.983C27.0636,-125.952 22.1779,-111.421 20,-98 15.3882,-69.5811 21.478,-35.4232 24.9245,-19.6995"/>
<polygon fill="#9a32cd" stroke="#9a32cd" points="28.1282,-138.389 35.1338,-146.337 34.6138,-135.755 28.1282,-138.389"/>
<text text-anchor="middle" x="40.5" y="-85.5" font-family="Helvetica,sans-Serif" font-size="10.00"> get_data</text>
</g>
<!-- Node3 -->
<g id="node3" class="node"><title>Node3</title>
<g id="a_node3"><a xlink:href="../../d5/dcf/structhost__t.html" target="_top" xlink:title="host_t">
<polygon fill="none" stroke="black" points="70,-78.5 70,-97.5 114,-97.5 114,-78.5 70,-78.5"/>
<text text-anchor="middle" x="92" y="-85.5" font-family="Helvetica,sans-Serif" font-size="10.00">host_t</text>
</a>
</g>
</g>
<!-- Node2&#45;&gt;Node3 -->
<g id="edge4" class="edge"><title>Node2&#45;&gt;Node3</title>
<path fill="none" stroke="#9a32cd" stroke-dasharray="5,2" d="M52.4025,-138.31C62.7346,-125.444 76.6153,-108.158 84.9003,-97.8411"/>
<polygon fill="#9a32cd" stroke="#9a32cd" points="49.4612,-136.383 45.9288,-146.372 54.9192,-140.766 49.4612,-136.383"/>
<text text-anchor="middle" x="98.5" y="-119.5" font-family="Helvetica,sans-Serif" font-size="10.00"> get_address</text>
</g>
<!-- Node3&#45;&gt;Node1 -->
<g id="edge3" class="edge"><title>Node3&#45;&gt;Node1</title>
<path fill="none" stroke="#9a32cd" stroke-dasharray="5,2" d="M77.8387,-70.4421C64.4535,-54.7918 44.8991,-31.9282 34.3694,-19.6165"/>
<polygon fill="#9a32cd" stroke="#9a32cd" points="75.3841,-72.9571 84.5437,-78.2818 80.7038,-68.4073 75.3841,-72.9571"/>
<text text-anchor="middle" x="100.5" y="-52" font-family="Helvetica,sans-Serif" font-size="10.00"> get_source</text>
<text text-anchor="middle" x="100.5" y="-41" font-family="Helvetica,sans-Serif" font-size="10.00">get_destination</text>
</g>
<!-- Node3&#45;&gt;Node3 -->
<g id="edge5" class="edge"><title>Node3&#45;&gt;Node3</title>
<path fill="none" stroke="#9a32cd" stroke-dasharray="5,2" d="M124.111,-93.5914C128.259,-92.6238 131,-90.76 131,-88 131,-83.3516 123.224,-81.2452 114.051,-81.681"/>
<polygon fill="#9a32cd" stroke="#9a32cd" points="123.772,-90.1067 114.051,-94.319 124.277,-97.0885 123.772,-90.1067"/>
<text text-anchor="middle" x="144.5" y="-85.5" font-family="Helvetica,sans-Serif" font-size="10.00"> clone</text>
</g>
</g>
</svg>
