<?xml version="1.0" encoding="UTF-8" standalone="no"?>
<!DOCTYPE svg PUBLIC "-//W3C//DTD SVG 1.1//EN"
 "http://www.w3.org/Graphics/SVG/1.1/DTD/svg11.dtd">
<!-- Generated by graphviz version 2.36.0 (20140111.2315)
 -->
<!-- Title: tcg_pts_attr_dh_nonce_finish.h Pages: 1 -->
<svg width="484pt" height="108pt"
 viewBox="0.00 0.00 484.00 108.00" xmlns="http://www.w3.org/2000/svg" xmlns:xlink="http://www.w3.org/1999/xlink">
<g id="graph0" class="graph" transform="scale(1 1) rotate(0) translate(4 104)">
<title>tcg_pts_attr_dh_nonce_finish.h</title>
<!-- Node1 -->
<g id="node1" class="node"><title>Node1</title>
<polygon fill="#bfbfbf" stroke="black" points="216,-69 216,-99 332,-99 332,-69 216,-69"/>
<text text-anchor="start" x="224" y="-87" font-family="Helvetica,sans-Serif" font-size="10.00">tcg_pts_attr_dh_nonce</text>
<text text-anchor="middle" x="274" y="-76" font-family="Helvetica,sans-Serif" font-size="10.00">_finish.h</text>
</g>
<!-- Node2 -->
<g id="node2" class="node"><title>Node2</title>
<g id="a_node2"><a xlink:href="../../df/dea/imc__attestation__process_8c.html" target="_top" xlink:title="imc_attestation_process.c">
<polygon fill="none" stroke="black" points="-0.5,-6.5 -0.5,-25.5 130.5,-25.5 130.5,-6.5 -0.5,-6.5"/>
<text text-anchor="middle" x="65" y="-13.5" font-family="Helvetica,sans-Serif" font-size="10.00">imc_attestation_process.c</text>
</a>
</g>
</g>
<!-- Node1&#45;&gt;Node2 -->
<g id="edge1" class="edge"><title>Node1&#45;&gt;Node2</title>
<path fill="none" stroke="midnightblue" d="M219.832,-65.8943C178.795,-52.9354 124.155,-35.6804 91.9602,-25.5138"/>
<polygon fill="midnightblue" stroke="midnightblue" points="218.831,-69.2485 229.421,-68.9223 220.939,-62.5734 218.831,-69.2485"/>
</g>
<!-- Node3 -->
<g id="node3" class="node"><title>Node3</title>
<g id="a_node3"><a xlink:href="../../d8/d89/imv__attestation__build_8c.html" target="_top" xlink:title="imv_attestation_build.c">
<polygon fill="none" stroke="black" points="148.5,-6.5 148.5,-25.5 265.5,-25.5 265.5,-6.5 148.5,-6.5"/>
<text text-anchor="middle" x="207" y="-13.5" font-family="Helvetica,sans-Serif" font-size="10.00">imv_attestation_build.c</text>
</a>
</g>
</g>
<!-- Node1&#45;&gt;Node3 -->
<g id="edge2" class="edge"><title>Node1&#45;&gt;Node3</title>
<path fill="none" stroke="midnightblue" d="M252.184,-61.5094C239.883,-49.3918 225.179,-34.9072 215.962,-25.8283"/>
<polygon fill="midnightblue" stroke="midnightblue" points="249.882,-64.1547 259.462,-68.679 254.794,-59.1678 249.882,-64.1547"/>
</g>
<!-- Node4 -->
<g id="node4" class="node"><title>Node4</title>
<g id="a_node4"><a xlink:href="../../d8/d02/tcg__pts__attr__dh__nonce__finish_8c.html" target="_top" xlink:title="tcg_pts_attr_dh_nonce\l_finish.c">
<polygon fill="none" stroke="black" points="284,-1 284,-31 400,-31 400,-1 284,-1"/>
<text text-anchor="start" x="292" y="-19" font-family="Helvetica,sans-Serif" font-size="10.00">tcg_pts_attr_dh_nonce</text>
<text text-anchor="middle" x="342" y="-8" font-family="Helvetica,sans-Serif" font-size="10.00">_finish.c</text>
</a>
</g>
</g>
<!-- Node1&#45;&gt;Node4 -->
<g id="edge3" class="edge"><title>Node1&#45;&gt;Node4</title>
<path fill="none" stroke="midnightblue" d="M296.166,-61.4855C306.367,-51.5852 318.191,-40.1092 327.274,-31.2931"/>
<polygon fill="midnightblue" stroke="midnightblue" points="293.493,-59.2027 288.755,-68.679 298.368,-64.2257 293.493,-59.2027"/>
</g>
<!-- Node5 -->
<g id="node5" class="node"><title>Node5</title>
<g id="a_node5"><a xlink:href="../../dd/d54/tcg__attr_8c.html" target="_top" xlink:title="tcg_attr.c">
<polygon fill="none" stroke="black" points="418,-6.5 418,-25.5 476,-25.5 476,-6.5 418,-6.5"/>
<text text-anchor="middle" x="447" y="-13.5" font-family="Helvetica,sans-Serif" font-size="10.00">tcg_attr.c</text>
</a>
</g>
</g>
<!-- Node1&#45;&gt;Node5 -->
<g id="edge4" class="edge"><title>Node1&#45;&gt;Node5</title>
<path fill="none" stroke="midnightblue" d="M320.509,-65.3446C346.296,-55.544 378.933,-43.1211 408,-32 413.42,-29.9262 419.262,-27.6836 424.731,-25.5804"/>
<polygon fill="midnightblue" stroke="midnightblue" points="319.088,-62.1404 310.983,-68.9641 321.574,-68.6839 319.088,-62.1404"/>
</g>
</g>
</svg>
