<?xml version="1.0" encoding="UTF-8" standalone="no"?>
<!DOCTYPE svg PUBLIC "-//W3C//DTD SVG 1.1//EN"
 "http://www.w3.org/Graphics/SVG/1.1/DTD/svg11.dtd">
<!-- Generated by graphviz version 2.36.0 (20140111.2315)
 -->
<!-- Title: METHOD Pages: 1 -->
<svg width="414pt" height="142pt"
 viewBox="0.00 0.00 414.00 142.00" xmlns="http://www.w3.org/2000/svg" xmlns:xlink="http://www.w3.org/1999/xlink">
<g id="graph0" class="graph" transform="scale(1 1) rotate(0) translate(4 138)">
<title>METHOD</title>
<!-- Node1 -->
<g id="node1" class="node"><title>Node1</title>
<polygon fill="#bfbfbf" stroke="black" points="0,-76.5 0,-95.5 60,-95.5 60,-76.5 0,-76.5"/>
<text text-anchor="middle" x="30" y="-83.5" font-family="Helvetica,sans-Serif" font-size="10.00">METHOD</text>
</g>
<!-- Node2 -->
<g id="node2" class="node"><title>Node2</title>
<g id="a_node2"><a xlink:href="../../da/dfc/settings__parser_8c.html#af07d89f5ceaea0c7c8252cc41fd75f37" target="_top" xlink:title="free">
<polygon fill="none" stroke="black" points="113.5,-114.5 113.5,-133.5 146.5,-133.5 146.5,-114.5 113.5,-114.5"/>
<text text-anchor="middle" x="130" y="-121.5" font-family="Helvetica,sans-Serif" font-size="10.00">free</text>
</a>
</g>
</g>
<!-- Node1&#45;&gt;Node2 -->
<g id="edge1" class="edge"><title>Node1&#45;&gt;Node2</title>
<path fill="none" stroke="midnightblue" d="M55.7295,-95.589C70.4722,-101.306 89.1364,-108.543 103.937,-114.282"/>
<polygon fill="midnightblue" stroke="midnightblue" points="102.883,-117.627 113.472,-117.979 105.413,-111.1 102.883,-117.627"/>
</g>
<!-- Node3 -->
<g id="node3" class="node"><title>Node3</title>
<g id="a_node3"><a xlink:href="../../d9/dbc/kernel__pfkey__ipsec_8c.html#a0c905b9d621d20e6281de3dccf7dce7a" target="_top" xlink:title="pfkey_send">
<polygon fill="none" stroke="black" points="96.5,-76.5 96.5,-95.5 163.5,-95.5 163.5,-76.5 96.5,-76.5"/>
<text text-anchor="middle" x="130" y="-83.5" font-family="Helvetica,sans-Serif" font-size="10.00">pfkey_send</text>
</a>
</g>
</g>
<!-- Node1&#45;&gt;Node3 -->
<g id="edge2" class="edge"><title>Node1&#45;&gt;Node3</title>
<path fill="none" stroke="midnightblue" d="M60.1379,-86C68.3296,-86 77.4127,-86 86.2231,-86"/>
<polygon fill="midnightblue" stroke="midnightblue" points="86.3706,-89.5001 96.3706,-86 86.3706,-82.5001 86.3706,-89.5001"/>
</g>
<!-- Node6 -->
<g id="node6" class="node"><title>Node6</title>
<g id="a_node6"><a xlink:href="../../df/d12/mconsole_8c.html#a251c32cfa402f283bd6349486d9caac0" target="_top" xlink:title="request">
<polygon fill="none" stroke="black" points="105.5,-38.5 105.5,-57.5 154.5,-57.5 154.5,-38.5 105.5,-38.5"/>
<text text-anchor="middle" x="130" y="-45.5" font-family="Helvetica,sans-Serif" font-size="10.00">request</text>
</a>
</g>
</g>
<!-- Node1&#45;&gt;Node6 -->
<g id="edge5" class="edge"><title>Node1&#45;&gt;Node6</title>
<path fill="none" stroke="midnightblue" d="M55.7295,-76.411C67.8391,-71.7155 82.5944,-65.994 95.6815,-60.9194"/>
<polygon fill="midnightblue" stroke="midnightblue" points="97.2343,-64.0713 105.293,-57.1927 94.7036,-57.5448 97.2343,-64.0713"/>
</g>
<!-- Node4 -->
<g id="node4" class="node"><title>Node4</title>
<g id="a_node4"><a xlink:href="../../d9/dbc/kernel__pfkey__ipsec_8c.html#ae28162fd3cb36e3fda7b3eab56403eea" target="_top" xlink:title="pfkey_send_socket">
<polygon fill="none" stroke="black" points="200.5,-76.5 200.5,-95.5 301.5,-95.5 301.5,-76.5 200.5,-76.5"/>
<text text-anchor="middle" x="251" y="-83.5" font-family="Helvetica,sans-Serif" font-size="10.00">pfkey_send_socket</text>
</a>
</g>
</g>
<!-- Node3&#45;&gt;Node4 -->
<g id="edge3" class="edge"><title>Node3&#45;&gt;Node4</title>
<path fill="none" stroke="midnightblue" d="M163.517,-86C171.717,-86 180.784,-86 189.871,-86"/>
<polygon fill="midnightblue" stroke="midnightblue" points="190.094,-89.5001 200.094,-86 190.094,-82.5001 190.094,-89.5001"/>
</g>
<!-- Node5 -->
<g id="node5" class="node"><title>Node5</title>
<g id="a_node5"><a xlink:href="../../da/dfc/settings__parser_8c.html#a5faf6a2d99f50a4655dd390199a8db7b" target="_top" xlink:title="malloc">
<polygon fill="none" stroke="black" points="349.5,-76.5 349.5,-95.5 394.5,-95.5 394.5,-76.5 349.5,-76.5"/>
<text text-anchor="middle" x="372" y="-83.5" font-family="Helvetica,sans-Serif" font-size="10.00">malloc</text>
</a>
</g>
</g>
<!-- Node4&#45;&gt;Node5 -->
<g id="edge4" class="edge"><title>Node4&#45;&gt;Node5</title>
<path fill="none" stroke="midnightblue" d="M301.777,-86C314.326,-86 327.468,-86 338.888,-86"/>
<polygon fill="midnightblue" stroke="midnightblue" points="339.234,-89.5001 349.234,-86 339.234,-82.5001 339.234,-89.5001"/>
</g>
<!-- Node7 -->
<g id="node7" class="node"><title>Node7</title>
<g id="a_node7"><a xlink:href="../../d0/d83/dumm_2main_8c.html#a01131b63acf241e9db91704d89ce15d2" target="_top" xlink:title="idle">
<polygon fill="none" stroke="black" points="235,-38.5 235,-57.5 267,-57.5 267,-38.5 235,-38.5"/>
<text text-anchor="middle" x="251" y="-45.5" font-family="Helvetica,sans-Serif" font-size="10.00">idle</text>
</a>
</g>
</g>
<!-- Node6&#45;&gt;Node7 -->
<g id="edge6" class="edge"><title>Node6&#45;&gt;Node7</title>
<path fill="none" stroke="midnightblue" d="M154.511,-48C174.721,-48 203.805,-48 224.557,-48"/>
<polygon fill="midnightblue" stroke="midnightblue" points="224.838,-51.5001 234.838,-48 224.838,-44.5001 224.838,-51.5001"/>
</g>
<!-- Node9 -->
<g id="node9" class="node"><title>Node9</title>
<g id="a_node9"><a xlink:href="../../d1/d14/fetch_8c.html#a17dd1592e9f4ebc44d5126c03a3a9697" target="_top" xlink:title="cb">
<polygon fill="none" stroke="black" points="236.5,-0.5 236.5,-19.5 265.5,-19.5 265.5,-0.5 236.5,-0.5"/>
<text text-anchor="middle" x="251" y="-7.5" font-family="Helvetica,sans-Serif" font-size="10.00">cb</text>
</a>
</g>
</g>
<!-- Node6&#45;&gt;Node9 -->
<g id="edge8" class="edge"><title>Node6&#45;&gt;Node9</title>
<path fill="none" stroke="midnightblue" d="M154.511,-40.4924C175.371,-33.8312 205.685,-24.1511 226.532,-17.494"/>
<polygon fill="midnightblue" stroke="midnightblue" points="227.735,-20.784 236.197,-14.4078 225.606,-14.1157 227.735,-20.784"/>
</g>
<!-- Node8 -->
<g id="node8" class="node"><title>Node8</title>
<g id="a_node8"><a xlink:href="../../da/d9b/group__windows.html#gaa1124f0d208ff28b7d9cf563ff183e8d" target="_top" xlink:title="sched_yield">
<polygon fill="none" stroke="black" points="338,-38.5 338,-57.5 406,-57.5 406,-38.5 338,-38.5"/>
<text text-anchor="middle" x="372" y="-45.5" font-family="Helvetica,sans-Serif" font-size="10.00">sched_yield</text>
</a>
</g>
</g>
<!-- Node7&#45;&gt;Node8 -->
<g id="edge7" class="edge"><title>Node7&#45;&gt;Node8</title>
<path fill="none" stroke="midnightblue" d="M267.071,-48C282.228,-48 306.321,-48 327.494,-48"/>
<polygon fill="midnightblue" stroke="midnightblue" points="327.602,-51.5001 337.602,-48 327.602,-44.5001 327.602,-51.5001"/>
</g>
</g>
</svg>
