<?xml version="1.0" encoding="UTF-8" standalone="no"?>
<!DOCTYPE svg PUBLIC "-//W3C//DTD SVG 1.1//EN"
 "http://www.w3.org/Graphics/SVG/1.1/DTD/svg11.dtd">
<!-- Generated by graphviz version 2.36.0 (20140111.2315)
 -->
<!-- Title: policy_sa_destroy Pages: 1 -->
<svg width="344pt" height="66pt"
 viewBox="0.00 0.00 344.00 66.00" xmlns="http://www.w3.org/2000/svg" xmlns:xlink="http://www.w3.org/1999/xlink">
<g id="graph0" class="graph" transform="scale(1 1) rotate(0) translate(4 62)">
<title>policy_sa_destroy</title>
<!-- Node1 -->
<g id="node1" class="node"><title>Node1</title>
<polygon fill="#bfbfbf" stroke="black" points="0.5,-19.5 0.5,-38.5 95.5,-38.5 95.5,-19.5 0.5,-19.5"/>
<text text-anchor="middle" x="48" y="-26.5" font-family="Helvetica,sans-Serif" font-size="10.00">policy_sa_destroy</text>
</g>
<!-- Node2 -->
<g id="node2" class="node"><title>Node2</title>
<g id="a_node2"><a xlink:href="../../d9/dbc/kernel__pfkey__ipsec_8c.html#a03525a90beb985a6723803fdcf3485eb" target="_top" xlink:title="METHOD">
<polygon fill="none" stroke="black" points="156,-38.5 156,-57.5 216,-57.5 216,-38.5 156,-38.5"/>
<text text-anchor="middle" x="186" y="-45.5" font-family="Helvetica,sans-Serif" font-size="10.00">METHOD</text>
</a>
</g>
</g>
<!-- Node1&#45;&gt;Node2 -->
<g id="edge1" class="edge"><title>Node1&#45;&gt;Node2</title>
<path fill="none" stroke="midnightblue" d="M105.82,-36.9381C123.086,-39.3502 141.34,-41.9005 155.965,-43.9437"/>
<polygon fill="midnightblue" stroke="midnightblue" points="106.192,-33.4561 95.8035,-35.5387 105.223,-40.3888 106.192,-33.4561"/>
</g>
<!-- Node3 -->
<g id="node3" class="node"><title>Node3</title>
<g id="a_node3"><a xlink:href="../../d9/dbc/kernel__pfkey__ipsec_8c.html#a06c0dcec5f1f5080fbd63384bc73c6fe" target="_top" xlink:title="policy_entry_destroy">
<polygon fill="none" stroke="black" points="132.5,-0.5 132.5,-19.5 239.5,-19.5 239.5,-0.5 132.5,-0.5"/>
<text text-anchor="middle" x="186" y="-7.5" font-family="Helvetica,sans-Serif" font-size="10.00">policy_entry_destroy</text>
</a>
</g>
</g>
<!-- Node1&#45;&gt;Node3 -->
<g id="edge2" class="edge"><title>Node1&#45;&gt;Node3</title>
<path fill="none" stroke="midnightblue" d="M105.842,-21.0588C114.522,-19.8462 123.45,-18.5989 132.042,-17.3986"/>
<polygon fill="midnightblue" stroke="midnightblue" points="105.223,-17.6112 95.8035,-22.4613 106.192,-24.5439 105.223,-17.6112"/>
</g>
<!-- Node4 -->
<g id="node4" class="node"><title>Node4</title>
<g id="a_node4"><a xlink:href="../../d9/dbc/kernel__pfkey__ipsec_8c.html#abc6bbade11303344b59a27750f8edf0b" target="_top" xlink:title="METHOD">
<polygon fill="none" stroke="black" points="276,-0.5 276,-19.5 336,-19.5 336,-0.5 276,-0.5"/>
<text text-anchor="middle" x="306" y="-7.5" font-family="Helvetica,sans-Serif" font-size="10.00">METHOD</text>
</a>
</g>
</g>
<!-- Node3&#45;&gt;Node4 -->
<g id="edge3" class="edge"><title>Node3&#45;&gt;Node4</title>
<path fill="none" stroke="midnightblue" d="M249.993,-10C259.026,-10 267.933,-10 275.862,-10"/>
<polygon fill="midnightblue" stroke="midnightblue" points="249.788,-6.5001 239.788,-10 249.788,-13.5001 249.788,-6.5001"/>
</g>
</g>
</svg>
