<?xml version="1.0" encoding="UTF-8" standalone="no"?>
<!DOCTYPE svg PUBLIC "-//W3C//DTD SVG 1.1//EN"
 "http://www.w3.org/Graphics/SVG/1.1/DTD/svg11.dtd">
<!-- Generated by graphviz version 2.36.0 (20140111.2315)
 -->
<!-- Title: proto2satype Pages: 1 -->
<svg width="300pt" height="66pt"
 viewBox="0.00 0.00 300.00 66.00" xmlns="http://www.w3.org/2000/svg" xmlns:xlink="http://www.w3.org/1999/xlink">
<g id="graph0" class="graph" transform="scale(1 1) rotate(0) translate(4 62)">
<title>proto2satype</title>
<!-- Node1 -->
<g id="node1" class="node"><title>Node1</title>
<polygon fill="#bfbfbf" stroke="black" points="0.5,-19.5 0.5,-38.5 73.5,-38.5 73.5,-19.5 0.5,-19.5"/>
<text text-anchor="middle" x="37" y="-26.5" font-family="Helvetica,sans-Serif" font-size="10.00">proto2satype</text>
</g>
<!-- Node2 -->
<g id="node2" class="node"><title>Node2</title>
<g id="a_node2"><a xlink:href="../../d9/dbc/kernel__pfkey__ipsec_8c.html#a77c5bdebdff22de18bf0e5f8f380051d" target="_top" xlink:title="get_spi_internal">
<polygon fill="none" stroke="black" points="110.5,-38.5 110.5,-57.5 195.5,-57.5 195.5,-38.5 110.5,-38.5"/>
<text text-anchor="middle" x="153" y="-45.5" font-family="Helvetica,sans-Serif" font-size="10.00">get_spi_internal</text>
</a>
</g>
</g>
<!-- Node1&#45;&gt;Node2 -->
<g id="edge1" class="edge"><title>Node1&#45;&gt;Node2</title>
<path fill="none" stroke="midnightblue" d="M83.8382,-36.6397C92.614,-38.1023 101.757,-39.6262 110.391,-41.0652"/>
<polygon fill="midnightblue" stroke="midnightblue" points="84.1969,-33.1513 73.7575,-34.9596 83.046,-40.056 84.1969,-33.1513"/>
</g>
<!-- Node4 -->
<g id="node4" class="node"><title>Node4</title>
<g id="a_node4"><a xlink:href="../../d9/dbc/kernel__pfkey__ipsec_8c.html#afa79bff44a9c7c0d235397a4514e78af" target="_top" xlink:title="METHOD">
<polygon fill="none" stroke="black" points="123,-0.5 123,-19.5 183,-19.5 183,-0.5 123,-0.5"/>
<text text-anchor="middle" x="153" y="-7.5" font-family="Helvetica,sans-Serif" font-size="10.00">METHOD</text>
</a>
</g>
</g>
<!-- Node1&#45;&gt;Node4 -->
<g id="edge3" class="edge"><title>Node1&#45;&gt;Node4</title>
<path fill="none" stroke="midnightblue" d="M83.6518,-21.3914C96.8719,-19.188 110.941,-16.8432 122.856,-14.8573"/>
<polygon fill="midnightblue" stroke="midnightblue" points="83.046,-17.944 73.7575,-23.0404 84.1969,-24.8487 83.046,-17.944"/>
</g>
<!-- Node3 -->
<g id="node3" class="node"><title>Node3</title>
<g id="a_node3"><a xlink:href="../../d9/dbc/kernel__pfkey__ipsec_8c.html#af0a4eb86d0f6120f7fb53623dde0ed93" target="_top" xlink:title="METHOD">
<polygon fill="none" stroke="black" points="232,-38.5 232,-57.5 292,-57.5 292,-38.5 232,-38.5"/>
<text text-anchor="middle" x="262" y="-45.5" font-family="Helvetica,sans-Serif" font-size="10.00">METHOD</text>
</a>
</g>
</g>
<!-- Node2&#45;&gt;Node3 -->
<g id="edge2" class="edge"><title>Node2&#45;&gt;Node3</title>
<path fill="none" stroke="midnightblue" d="M205.727,-48C214.704,-48 223.746,-48 231.844,-48"/>
<polygon fill="midnightblue" stroke="midnightblue" points="205.675,-44.5001 195.675,-48 205.675,-51.5001 205.675,-44.5001"/>
</g>
</g>
</svg>
