<?xml version="1.0" encoding="UTF-8" standalone="no"?>
<!DOCTYPE svg PUBLIC "-//W3C//DTD SVG 1.1//EN"
 "http://www.w3.org/Graphics/SVG/1.1/DTD/svg11.dtd">
<!-- Generated by graphviz version 2.36.0 (20140111.2315)
 -->
<!-- Title: private_ike_init_t Pages: 1 -->
<!--zoomable 915 -->
<svg id="main" version="1.1" xmlns="http://www.w3.org/2000/svg" xmlns:xlink="http://www.w3.org/1999/xlink" xml:space="preserve" onload="init(evt)">
<style type="text/css"><![CDATA[
.edge:hover path { stroke: red; }
.edge:hover polygon { stroke: red; fill: red; }
]]></style>
<script type="text/javascript"><![CDATA[
var edges = document.getElementsByTagName('g');
if (edges && edges.length) {
  for (var i=0;i<edges.length;i++) {
    if (edges[i].id.substr(0,4)=='edge') {
      edges[i].setAttribute('class','edge');
    }
  }
}
]]></script>
        <defs>
                <circle id="rim" cx="0" cy="0" r="7"/>
                <circle id="rim2" cx="0" cy="0" r="3.5"/>
                <g id="zoomPlus">
                        <use xlink:href="#rim" fill="#404040">
                                <set attributeName="fill" to="#808080" begin="zoomplus.mouseover" end="zoomplus.mouseout"/>
                        </use>
                        <path d="M-4,0h8M0,-4v8" fill="none" stroke="white" stroke-width="1.5" pointer-events="none"/>
                </g>
                <g id="zoomMin">
                        <use xlink:href="#rim" fill="#404040">
                                <set attributeName="fill" to="#808080" begin="zoomminus.mouseover" end="zoomminus.mouseout"/>
                        </use>
                        <path d="M-4,0h8" fill="none" stroke="white" stroke-width="1.5" pointer-events="none"/>
                </g>
                <g id="dirArrow">
                        <path fill="none" stroke="white" stroke-width="1.5" d="M0,-3.0v7 M-2.5,-0.5L0,-3.0L2.5,-0.5"/>
                </g>
               <g id="resetDef">
                       <use xlink:href="#rim2" fill="#404040">
                               <set attributeName="fill" to="#808080" begin="reset.mouseover" end="reset.mouseout"/>
                       </use>
               </g>
        </defs>

<script type="text/javascript">
var viewWidth = 1108;
var viewHeight = 915;
var sectionId = 'dynsection-0';
</script>
<script xlink:href="../../svgpan.js"/>
<svg id="graph" class="graph">
<g id="viewport">
<title>private_ike_init_t</title>
<!-- Node1 -->
<g id="node1" class="node"><title>Node1</title>
<polygon fill="#bfbfbf" stroke="black" points="1010,-747.732 1010,-766.732 1100,-766.732 1100,-747.732 1010,-747.732"/>
<text text-anchor="middle" x="1055" y="-754.732" font-family="Helvetica,sans-Serif" font-size="10.00">private_ike_init_t</text>
</g>
<!-- Node2 -->
<g id="node2" class="node"><title>Node2</title>
<g id="a_node2"><a xlink:href="../../dc/d1a/structnonce__gen__t.html" target="_top" xlink:title="nonce_gen_t">
<polygon fill="none" stroke="black" points="497,-775.732 497,-794.732 569,-794.732 569,-775.732 497,-775.732"/>
<text text-anchor="middle" x="533" y="-782.732" font-family="Helvetica,sans-Serif" font-size="10.00">nonce_gen_t</text>
</a>
</g>
</g>
<!-- Node2&#45;&gt;Node1 -->
<g id="edge1" class="edge"><title>Node2&#45;&gt;Node1</title>
<path fill="none" stroke="#9a32cd" stroke-dasharray="5,2" d="M579.273,-786.775C661.745,-788.936 841.819,-790.659 992,-771.232 1000.21,-770.171 1008.93,-768.529 1017.16,-766.739"/>
<polygon fill="#9a32cd" stroke="#9a32cd" points="579.329,-783.275 569.236,-786.497 579.135,-790.272 579.329,-783.275"/>
<text text-anchor="middle" x="840" y="-788.232" font-family="Helvetica,sans-Serif" font-size="10.00"> nonceg</text>
</g>
<!-- Node13 -->
<g id="node13" class="node"><title>Node13</title>
<g id="a_node13"><a xlink:href="../../d2/d63/structkeymat__t.html" target="_top" xlink:title="keymat_t">
<polygon fill="none" stroke="black" points="730.5,-692.732 730.5,-711.732 787.5,-711.732 787.5,-692.732 730.5,-692.732"/>
<text text-anchor="middle" x="759" y="-699.732" font-family="Helvetica,sans-Serif" font-size="10.00">keymat_t</text>
</a>
</g>
</g>
<!-- Node2&#45;&gt;Node13 -->
<g id="edge21" class="edge"><title>Node2&#45;&gt;Node13</title>
<path fill="none" stroke="#9a32cd" stroke-dasharray="5,2" d="M571.098,-772.202C606.415,-759.701 661,-740.136 708,-722.232 716.737,-718.904 726.277,-715.125 734.661,-711.754"/>
<polygon fill="#9a32cd" stroke="#9a32cd" points="569.491,-769.057 561.228,-775.688 571.823,-775.657 569.491,-769.057"/>
<text text-anchor="middle" x="666" y="-755.232" font-family="Helvetica,sans-Serif" font-size="10.00"> create_nonce_gen</text>
</g>
<!-- Node3 -->
<g id="node3" class="node"><title>Node3</title>
<g id="a_node3"><a xlink:href="../../de/da8/structkeymat__v2__t.html" target="_top" xlink:title="keymat_v2_t">
<polygon fill="none" stroke="black" points="629.5,-882.732 629.5,-901.732 702.5,-901.732 702.5,-882.732 629.5,-882.732"/>
<text text-anchor="middle" x="666" y="-889.732" font-family="Helvetica,sans-Serif" font-size="10.00">keymat_v2_t</text>
</a>
</g>
</g>
<!-- Node3&#45;&gt;Node1 -->
<g id="edge2" class="edge"><title>Node3&#45;&gt;Node1</title>
<path fill="none" stroke="#9a32cd" stroke-dasharray="5,2" d="M712.722,-896.91C779.348,-901.434 904.672,-901.084 992,-847.232 1023.49,-827.812 1042.98,-785.758 1050.48,-766.819"/>
<polygon fill="#9a32cd" stroke="#9a32cd" points="712.781,-893.405 702.548,-896.149 712.259,-900.385 712.781,-893.405"/>
<text text-anchor="middle" x="840" y="-899.232" font-family="Helvetica,sans-Serif" font-size="10.00"> keymat</text>
</g>
<!-- Node4 -->
<g id="node4" class="node"><title>Node4</title>
<polygon fill="none" stroke="#bfbfbf" points="16.5,-823.732 16.5,-842.732 57.5,-842.732 57.5,-823.732 16.5,-823.732"/>
<text text-anchor="middle" x="37" y="-830.732" font-family="Helvetica,sans-Serif" font-size="10.00">struct</text>
</g>
<!-- Node4&#45;&gt;Node1 -->
<g id="edge49" class="edge"><title>Node4&#45;&gt;Node1</title>
<path fill="none" stroke="#9a32cd" stroke-dasharray="5,2" d="M67.804,-833.232C109.628,-833.232 188.112,-833.232 255,-833.232 255,-833.232 255,-833.232 916,-833.232 970.429,-833.232 1023.63,-787.308 1044.62,-766.858"/>
<polygon fill="#9a32cd" stroke="#9a32cd" points="67.7472,-829.733 57.7472,-833.232 67.7472,-836.733 67.7472,-829.733"/>
<text text-anchor="middle" x="666" y="-869.232" font-family="Helvetica,sans-Serif" font-size="10.00"> other_nonce</text>
<text text-anchor="middle" x="666" y="-858.232" font-family="Helvetica,sans-Serif" font-size="10.00">my_nonce</text>
<text text-anchor="middle" x="666" y="-847.232" font-family="Helvetica,sans-Serif" font-size="10.00">cookie</text>
<text text-anchor="middle" x="666" y="-836.232" font-family="Helvetica,sans-Serif" font-size="10.00">public</text>
</g>
<!-- Node4&#45;&gt;Node3 -->
<g id="edge3" class="edge"><title>Node4&#45;&gt;Node3</title>
<path fill="none" stroke="#9a32cd" stroke-dasharray="5,2" d="M67.4703,-841.869C75.3774,-843.912 83.9638,-845.886 92,-847.232 293.255,-880.956 538.62,-889.517 629.196,-891.596"/>
<polygon fill="#9a32cd" stroke="#9a32cd" points="68.1375,-838.424 57.5704,-839.19 66.309,-845.181 68.1375,-838.424"/>
<text text-anchor="middle" x="256" y="-875.232" font-family="Helvetica,sans-Serif" font-size="10.00"> keymat</text>
</g>
<!-- Node12 -->
<g id="node12" class="node"><title>Node12</title>
<g id="a_node12"><a xlink:href="../../db/d18/structlifetime__cfg__t.html" target="_top" xlink:title="lifetime_cfg_t">
<polygon fill="none" stroke="black" points="218.5,-535.732 218.5,-554.732 293.5,-554.732 293.5,-535.732 218.5,-535.732"/>
<text text-anchor="middle" x="256" y="-542.732" font-family="Helvetica,sans-Serif" font-size="10.00">lifetime_cfg_t</text>
</a>
</g>
</g>
<!-- Node4&#45;&gt;Node12 -->
<g id="edge16" class="edge"><title>Node4&#45;&gt;Node12</title>
<path fill="none" stroke="#9a32cd" stroke-dasharray="5,2" d="M40.4768,-813.291C48.2006,-752.635 72.4967,-573.436 92,-556.232 110.08,-540.285 176.027,-540.667 218.295,-542.723"/>
<polygon fill="#9a32cd" stroke="#9a32cd" points="36.9723,-813.107 39.1956,-823.466 43.9175,-813.982 36.9723,-813.107"/>
<text text-anchor="middle" x="145" y="-581.232" font-family="Helvetica,sans-Serif" font-size="10.00"> bytes</text>
<text text-anchor="middle" x="145" y="-570.232" font-family="Helvetica,sans-Serif" font-size="10.00">packets</text>
<text text-anchor="middle" x="145" y="-559.232" font-family="Helvetica,sans-Serif" font-size="10.00">time</text>
</g>
<!-- Node5 -->
<g id="node5" class="node"><title>Node5</title>
<g id="a_node5"><a xlink:href="../../d9/d7d/structike__sa__t.html" target="_top" xlink:title="ike_sa_t">
<polygon fill="none" stroke="black" points="888.5,-407.732 888.5,-426.732 941.5,-426.732 941.5,-407.732 888.5,-407.732"/>
<text text-anchor="middle" x="915" y="-414.732" font-family="Helvetica,sans-Serif" font-size="10.00">ike_sa_t</text>
</a>
</g>
</g>
<!-- Node5&#45;&gt;Node1 -->
<g id="edge4" class="edge"><title>Node5&#45;&gt;Node1</title>
<path fill="none" stroke="#9a32cd" stroke-dasharray="5,2" d="M923.886,-436.662C949.745,-500.372 1031.38,-701.509 1050.13,-747.709"/>
<polygon fill="#9a32cd" stroke="#9a32cd" points="926.985,-434.991 919.981,-427.041 920.499,-437.623 926.985,-434.991"/>
<text text-anchor="middle" x="976" y="-612.232" font-family="Helvetica,sans-Serif" font-size="10.00"> old_sa</text>
<text text-anchor="middle" x="976" y="-601.232" font-family="Helvetica,sans-Serif" font-size="10.00">ike_sa</text>
</g>
<!-- Node6 -->
<g id="node6" class="node"><title>Node6</title>
<g id="a_node6"><a xlink:href="../../d8/d4a/structchild__sa__t.html" target="_top" xlink:title="child_sa_t">
<polygon fill="none" stroke="black" points="728.5,-324.732 728.5,-343.732 789.5,-343.732 789.5,-324.732 728.5,-324.732"/>
<text text-anchor="middle" x="759" y="-331.732" font-family="Helvetica,sans-Serif" font-size="10.00">child_sa_t</text>
</a>
</g>
</g>
<!-- Node6&#45;&gt;Node5 -->
<g id="edge5" class="edge"><title>Node6&#45;&gt;Node5</title>
<path fill="none" stroke="#9a32cd" stroke-dasharray="5,2" d="M799.891,-334.212C822.061,-335.901 849.269,-340.93 870,-354.232 890.211,-367.201 903.753,-393.079 910.013,-407.301"/>
<polygon fill="#9a32cd" stroke="#9a32cd" points="799.965,-330.711 789.783,-333.642 799.57,-337.7 799.965,-330.711"/>
<text text-anchor="middle" x="840" y="-357.232" font-family="Helvetica,sans-Serif" font-size="10.00"> get_child_sa</text>
</g>
<!-- Node7 -->
<g id="node7" class="node"><title>Node7</title>
<g id="a_node7"><a xlink:href="../../d8/dd6/structchild__cfg__t.html" target="_top" xlink:title="child_cfg_t">
<polygon fill="none" stroke="black" points="501,-370.732 501,-389.732 565,-389.732 565,-370.732 501,-370.732"/>
<text text-anchor="middle" x="533" y="-377.732" font-family="Helvetica,sans-Serif" font-size="10.00">child_cfg_t</text>
</a>
</g>
</g>
<!-- Node7&#45;&gt;Node6 -->
<g id="edge6" class="edge"><title>Node7&#45;&gt;Node6</title>
<path fill="none" stroke="#9a32cd" stroke-dasharray="5,2" d="M575.084,-372.186C610.37,-365.222 662.581,-354.796 708,-345.232 714.61,-343.841 721.702,-342.306 728.407,-340.835"/>
<polygon fill="#9a32cd" stroke="#9a32cd" points="574.287,-368.775 565.152,-374.142 575.64,-375.643 574.287,-368.775"/>
<text text-anchor="middle" x="666" y="-365.232" font-family="Helvetica,sans-Serif" font-size="10.00"> get_config</text>
</g>
<!-- Node7&#45;&gt;Node7 -->
<g id="edge7" class="edge"><title>Node7&#45;&gt;Node7</title>
<path fill="none" stroke="#9a32cd" stroke-dasharray="5,2" d="M508.447,-399.262C509.786,-404.36 517.97,-408.232 533,-408.232 556.461,-408.232 563.243,-398.798 553.345,-389.99"/>
<polygon fill="#9a32cd" stroke="#9a32cd" points="511.709,-400.542 512.655,-389.99 505.335,-397.649 511.709,-400.542"/>
<text text-anchor="middle" x="533" y="-411.232" font-family="Helvetica,sans-Serif" font-size="10.00"> get_ref</text>
</g>
<!-- Node20 -->
<g id="node20" class="node"><title>Node20</title>
<g id="a_node20"><a xlink:href="../../d9/d16/structpeer__cfg__t.html" target="_top" xlink:title="peer_cfg_t">
<polygon fill="none" stroke="black" points="728,-407.732 728,-426.732 790,-426.732 790,-407.732 728,-407.732"/>
<text text-anchor="middle" x="759" y="-414.732" font-family="Helvetica,sans-Serif" font-size="10.00">peer_cfg_t</text>
</a>
</g>
</g>
<!-- Node7&#45;&gt;Node20 -->
<g id="edge32" class="edge"><title>Node7&#45;&gt;Node20</title>
<path fill="none" stroke="#9a32cd" stroke-dasharray="5,2" d="M553.08,-396.243C570.351,-409.616 597.131,-427.672 624,-435.232 659.938,-445.344 671.223,-441.651 708,-435.232 717.634,-433.551 727.862,-430.176 736.541,-426.798"/>
<polygon fill="#9a32cd" stroke="#9a32cd" points="554.962,-393.266 544.965,-389.757 550.591,-398.735 554.962,-393.266"/>
<text text-anchor="middle" x="666" y="-445.232" font-family="Helvetica,sans-Serif" font-size="10.00"> select_child_cfg</text>
</g>
<!-- Node8 -->
<g id="node8" class="node"><title>Node8</title>
<g id="a_node8"><a xlink:href="../../da/dbc/structmark__t.html" target="_top" xlink:title="mark_t">
<polygon fill="none" stroke="black" points="232.5,-303.732 232.5,-322.732 279.5,-322.732 279.5,-303.732 232.5,-303.732"/>
<text text-anchor="middle" x="256" y="-310.732" font-family="Helvetica,sans-Serif" font-size="10.00">mark_t</text>
</a>
</g>
</g>
<!-- Node8&#45;&gt;Node6 -->
<g id="edge17" class="edge"><title>Node8&#45;&gt;Node6</title>
<path fill="none" stroke="#9a32cd" stroke-dasharray="5,2" d="M289.59,-305.158C297.527,-303.529 306.027,-302.063 314,-301.232 370.583,-295.341 385.188,-298.274 442,-301.232 547.763,-306.74 672.631,-322.549 728.456,-330.109"/>
<polygon fill="#9a32cd" stroke="#9a32cd" points="288.592,-301.794 279.573,-307.354 290.091,-308.632 288.592,-301.794"/>
<text text-anchor="middle" x="533" y="-318.232" font-family="Helvetica,sans-Serif" font-size="10.00"> get_mark</text>
</g>
<!-- Node8&#45;&gt;Node7 -->
<g id="edge8" class="edge"><title>Node8&#45;&gt;Node7</title>
<path fill="none" stroke="#9a32cd" stroke-dasharray="5,2" d="M289.866,-306.067C328.921,-299.389 394.732,-294.084 442,-321.232 454.829,-328.6 448.714,-339.668 460,-349.232 471.732,-359.175 487.136,-366.38 500.683,-371.327"/>
<polygon fill="#9a32cd" stroke="#9a32cd" points="288.797,-302.705 279.598,-307.961 290.067,-309.589 288.797,-302.705"/>
<text text-anchor="middle" x="378" y="-324.232" font-family="Helvetica,sans-Serif" font-size="10.00"> get_mark</text>
</g>
<!-- Node9 -->
<g id="node9" class="node"><title>Node9</title>
<g id="a_node9"><a xlink:href="../../df/d06/structproposal__t.html" target="_top" xlink:title="proposal_t">
<polygon fill="none" stroke="black" points="225,-218.732 225,-237.732 287,-237.732 287,-218.732 225,-218.732"/>
<text text-anchor="middle" x="256" y="-225.732" font-family="Helvetica,sans-Serif" font-size="10.00">proposal_t</text>
</a>
</g>
</g>
<!-- Node9&#45;&gt;Node1 -->
<g id="edge50" class="edge"><title>Node9&#45;&gt;Node1</title>
<path fill="none" stroke="#9a32cd" stroke-dasharray="5,2" d="M292.043,-215.265C392.492,-180.518 686.003,-96.1958 870,-222.232 1058,-351.01 1056.37,-685.768 1054.41,-747.403"/>
<polygon fill="#9a32cd" stroke="#9a32cd" points="290.663,-212.04 282.39,-218.659 292.984,-218.644 290.663,-212.04"/>
<text text-anchor="middle" x="759" y="-185.232" font-family="Helvetica,sans-Serif" font-size="10.00"> proposal</text>
</g>
<!-- Node9&#45;&gt;Node5 -->
<g id="edge42" class="edge"><title>Node9&#45;&gt;Node5</title>
<path fill="none" stroke="#9a32cd" stroke-dasharray="5,2" d="M297.115,-222.682C302.774,-222.081 308.527,-221.567 314,-221.232 370.783,-217.759 385.344,-216.093 442,-221.232 637.712,-238.986 720.643,-204.519 870,-332.232 894.122,-352.859 906.742,-390.023 911.596,-407.565"/>
<polygon fill="#9a32cd" stroke="#9a32cd" points="296.643,-219.213 287.11,-223.837 297.446,-226.167 296.643,-219.213"/>
<text text-anchor="middle" x="666" y="-245.232" font-family="Helvetica,sans-Serif" font-size="10.00"> get_proposal</text>
</g>
<!-- Node9&#45;&gt;Node6 -->
<g id="edge18" class="edge"><title>Node9&#45;&gt;Node6</title>
<path fill="none" stroke="#9a32cd" stroke-dasharray="5,2" d="M297.469,-225.097C335.863,-223.541 394.577,-224.894 442,-242.232 451.268,-245.621 451.005,-251.174 460,-255.232 520.638,-282.595 541.317,-272.682 606,-288.232 651.487,-299.168 663.52,-299.736 708,-314.232 717.245,-317.245 727.23,-321.111 735.828,-324.639"/>
<polygon fill="#9a32cd" stroke="#9a32cd" points="297.02,-221.614 287.204,-225.602 297.364,-228.606 297.02,-221.614"/>
<text text-anchor="middle" x="533" y="-291.232" font-family="Helvetica,sans-Serif" font-size="10.00"> get_proposal</text>
</g>
<!-- Node9&#45;&gt;Node7 -->
<g id="edge9" class="edge"><title>Node9&#45;&gt;Node7</title>
<path fill="none" stroke="#9a32cd" stroke-dasharray="5,2" d="M296.949,-236.129C345.007,-246.393 421.765,-265.474 442,-286.232 462.327,-307.085 440.771,-327.364 460,-349.232 470.514,-361.19 486.457,-368.693 500.67,-373.315"/>
<polygon fill="#9a32cd" stroke="#9a32cd" points="297.666,-232.703 287.16,-234.075 296.228,-239.554 297.666,-232.703"/>
<text text-anchor="middle" x="378" y="-289.232" font-family="Helvetica,sans-Serif" font-size="10.00"> select_proposal</text>
</g>
<!-- Node9&#45;&gt;Node9 -->
<g id="edge10" class="edge"><title>Node9&#45;&gt;Node9</title>
<path fill="none" stroke="#9a32cd" stroke-dasharray="5,2" d="M235.631,-247.632C236.991,-252.547 243.781,-256.232 256,-256.232 275.551,-256.232 281.202,-246.798 272.954,-237.99"/>
<polygon fill="#9a32cd" stroke="#9a32cd" points="239.007,-248.584 239.046,-237.99 232.408,-246.247 239.007,-248.584"/>
<text text-anchor="middle" x="256" y="-270.232" font-family="Helvetica,sans-Serif" font-size="10.00"> clone</text>
<text text-anchor="middle" x="256" y="-259.232" font-family="Helvetica,sans-Serif" font-size="10.00">select</text>
</g>
<!-- Node21 -->
<g id="node21" class="node"><title>Node21</title>
<g id="a_node21"><a xlink:href="../../d6/d8d/structike__cfg__t.html" target="_top" xlink:title="ike_cfg_t">
<polygon fill="none" stroke="black" points="505,-549.732 505,-568.732 561,-568.732 561,-549.732 505,-549.732"/>
<text text-anchor="middle" x="533" y="-556.732" font-family="Helvetica,sans-Serif" font-size="10.00">ike_cfg_t</text>
</a>
</g>
</g>
<!-- Node9&#45;&gt;Node21 -->
<g id="edge35" class="edge"><title>Node9&#45;&gt;Node21</title>
<path fill="none" stroke="#9a32cd" stroke-dasharray="5,2" d="M268.381,-246.464C276.416,-259.575 287.262,-277.773 296,-294.232 304.763,-310.739 299.072,-320.99 314,-332.232 360.05,-366.915 399.777,-313.981 442,-353.232 467.107,-376.572 447.634,-396.261 460,-428.232 478.536,-476.157 511.47,-528.313 525.442,-549.487"/>
<polygon fill="#9a32cd" stroke="#9a32cd" points="271.332,-244.581 263.098,-237.913 265.377,-248.26 271.332,-244.581"/>
<text text-anchor="middle" x="378" y="-356.232" font-family="Helvetica,sans-Serif" font-size="10.00"> select_proposal</text>
</g>
<!-- Node10 -->
<g id="node10" class="node"><title>Node10</title>
<g id="a_node10"><a xlink:href="../../db/dd3/structenumerator__t.html" target="_top" xlink:title="enumerator_t">
<polygon fill="none" stroke="black" points="0,-218.732 0,-237.732 74,-237.732 74,-218.732 0,-218.732"/>
<text text-anchor="middle" x="37" y="-225.732" font-family="Helvetica,sans-Serif" font-size="10.00">enumerator_t</text>
</a>
</g>
</g>
<!-- Node10&#45;&gt;Node5 -->
<g id="edge48" class="edge"><title>Node10&#45;&gt;Node5</title>
<path fill="none" stroke="#9a32cd" stroke-dasharray="5,2" d="M59.0195,-212.98C68.622,-206.769 80.4201,-200.142 92,-196.232 309.195,-122.895 382.665,-101.528 606,-153.232 733.609,-182.776 784.797,-184.747 870,-284.232 902.274,-321.916 911.052,-383.998 913.286,-407.664"/>
<polygon fill="#9a32cd" stroke="#9a32cd" points="56.8814,-210.201 50.5645,-218.707 60.8069,-215.997 56.8814,-210.201"/>
<text text-anchor="middle" x="533" y="-211.232" font-family="Helvetica,sans-Serif" font-size="10.00"> create_auth_cfg_enumerator</text>
<text text-anchor="middle" x="533" y="-200.232" font-family="Helvetica,sans-Serif" font-size="10.00">create_child_sa_enumerator</text>
<text text-anchor="middle" x="533" y="-189.232" font-family="Helvetica,sans-Serif" font-size="10.00">create_peer_address_enumerator</text>
<text text-anchor="middle" x="533" y="-178.232" font-family="Helvetica,sans-Serif" font-size="10.00">create_task_enumerator</text>
<text text-anchor="middle" x="533" y="-167.232" font-family="Helvetica,sans-Serif" font-size="10.00">create_attribute_enumerator</text>
<text text-anchor="middle" x="533" y="-156.232" font-family="Helvetica,sans-Serif" font-size="10.00">create_virtual_ip_enumerator</text>
</g>
<!-- Node10&#45;&gt;Node6 -->
<g id="edge19" class="edge"><title>Node10&#45;&gt;Node6</title>
<path fill="none" stroke="#9a32cd" stroke-dasharray="5,2" d="M84.3115,-217.914C159.739,-202.67 313.604,-178.1 442,-199.232 565.149,-219.502 600.287,-226.189 708,-289.232 724.53,-298.907 740.401,-314.654 749.673,-324.723"/>
<polygon fill="#9a32cd" stroke="#9a32cd" points="83.2877,-214.551 74.1997,-219.997 84.7003,-221.407 83.2877,-214.551"/>
<text text-anchor="middle" x="378" y="-213.232" font-family="Helvetica,sans-Serif" font-size="10.00"> create_policy_enumerator</text>
<text text-anchor="middle" x="378" y="-202.232" font-family="Helvetica,sans-Serif" font-size="10.00">create_ts_enumerator</text>
</g>
<!-- Node10&#45;&gt;Node9 -->
<g id="edge11" class="edge"><title>Node10&#45;&gt;Node9</title>
<path fill="none" stroke="#9a32cd" stroke-dasharray="5,2" d="M84.4107,-228.232C126.879,-228.232 188.476,-228.232 224.865,-228.232"/>
<polygon fill="#9a32cd" stroke="#9a32cd" points="84.321,-224.733 74.3209,-228.232 84.3209,-231.733 84.321,-224.733"/>
<text text-anchor="middle" x="145" y="-231.232" font-family="Helvetica,sans-Serif" font-size="10.00"> create_enumerator</text>
</g>
<!-- Node11 -->
<g id="node11" class="node"><title>Node11</title>
<g id="a_node11"><a xlink:href="../../dc/de6/structlinked__list__t.html" target="_top" xlink:title="linked_list_t">
<polygon fill="none" stroke="black" points="222,-348.732 222,-367.732 290,-367.732 290,-348.732 222,-348.732"/>
<text text-anchor="middle" x="256" y="-355.732" font-family="Helvetica,sans-Serif" font-size="10.00">linked_list_t</text>
</a>
</g>
</g>
<!-- Node10&#45;&gt;Node11 -->
<g id="edge14" class="edge"><title>Node10&#45;&gt;Node11</title>
<path fill="none" stroke="#9a32cd" stroke-dasharray="5,2" d="M62.7686,-243.071C107.717,-269.999 201.532,-326.201 239.02,-348.659"/>
<polygon fill="#9a32cd" stroke="#9a32cd" points="64.3337,-239.928 53.9565,-237.792 60.7362,-245.933 64.3337,-239.928"/>
<text text-anchor="middle" x="145" y="-327.232" font-family="Helvetica,sans-Serif" font-size="10.00"> create_enumerator</text>
</g>
<!-- Node17 -->
<g id="node17" class="node"><title>Node17</title>
<g id="a_node17"><a xlink:href="../../d6/d02/structidentification__t.html" target="_top" xlink:title="identification_t">
<polygon fill="none" stroke="black" points="216,-415.732 216,-434.732 296,-434.732 296,-415.732 216,-415.732"/>
<text text-anchor="middle" x="256" y="-422.732" font-family="Helvetica,sans-Serif" font-size="10.00">identification_t</text>
</a>
</g>
</g>
<!-- Node10&#45;&gt;Node17 -->
<g id="edge28" class="edge"><title>Node10&#45;&gt;Node17</title>
<path fill="none" stroke="#9a32cd" stroke-dasharray="5,2" d="M43.428,-247.771C50.9412,-271.802 66.5411,-312.665 92,-339.232 129.412,-378.274 188.465,-403.248 224.282,-415.713"/>
<polygon fill="#9a32cd" stroke="#9a32cd" points="46.737,-246.619 40.5387,-238.026 40.0258,-248.608 46.737,-246.619"/>
<text text-anchor="middle" x="145" y="-408.232" font-family="Helvetica,sans-Serif" font-size="10.00"> create_part_enumerator</text>
</g>
<!-- Node10&#45;&gt;Node20 -->
<g id="edge41" class="edge"><title>Node10&#45;&gt;Node20</title>
<path fill="none" stroke="#9a32cd" stroke-dasharray="5,2" d="M38.1897,-248.25C39.6033,-286.36 47.9004,-370.005 92,-420.232 131.543,-465.271 157.284,-461.21 216,-473.232 246.378,-479.452 637.23,-483.61 708,-457.232 724.875,-450.943 740.415,-436.595 749.552,-426.907"/>
<polygon fill="#9a32cd" stroke="#9a32cd" points="41.682,-247.885 37.94,-237.973 34.684,-248.055 41.682,-247.885"/>
<text text-anchor="middle" x="378" y="-514.232" font-family="Helvetica,sans-Serif" font-size="10.00"> create_auth_cfg_enumerator</text>
<text text-anchor="middle" x="378" y="-503.232" font-family="Helvetica,sans-Serif" font-size="10.00">create_child_cfg_enumerator</text>
<text text-anchor="middle" x="378" y="-492.232" font-family="Helvetica,sans-Serif" font-size="10.00">create_pool_enumerator</text>
<text text-anchor="middle" x="378" y="-481.232" font-family="Helvetica,sans-Serif" font-size="10.00">create_virtual_ip_enumerator</text>
</g>
<!-- Node23 -->
<g id="node23" class="node"><title>Node23</title>
<g id="a_node23"><a xlink:href="../../db/db6/structauth__cfg__t.html" target="_top" xlink:title="auth_cfg_t">
<polygon fill="none" stroke="black" points="347,-7.73244 347,-26.7324 409,-26.7324 409,-7.73244 347,-7.73244"/>
<text text-anchor="middle" x="378" y="-14.7324" font-family="Helvetica,sans-Serif" font-size="10.00">auth_cfg_t</text>
</a>
</g>
</g>
<!-- Node10&#45;&gt;Node23 -->
<g id="edge46" class="edge"><title>Node10&#45;&gt;Node23</title>
<path fill="none" stroke="#9a32cd" stroke-dasharray="5,2" d="M37.302,-207.983C37.1972,-169.678 43.0094,-86.8218 92,-46.2324 165.723,14.8483 289.722,0.466896 346.701,-10.4258"/>
<polygon fill="#9a32cd" stroke="#9a32cd" points="33.8088,-208.407 37.4832,-218.344 40.8077,-208.284 33.8088,-208.407"/>
<text text-anchor="middle" x="145" y="-49.2324" font-family="Helvetica,sans-Serif" font-size="10.00"> create_enumerator</text>
</g>
<!-- Node11&#45;&gt;Node7 -->
<g id="edge12" class="edge"><title>Node11&#45;&gt;Node7</title>
<path fill="none" stroke="#9a32cd" stroke-dasharray="5,2" d="M300.189,-364.643C304.845,-365.23 309.517,-365.775 314,-366.232 380.403,-373.015 458.541,-377.089 500.892,-378.972"/>
<polygon fill="#9a32cd" stroke="#9a32cd" points="300.476,-361.15 290.104,-363.308 299.558,-368.09 300.476,-361.15"/>
<text text-anchor="middle" x="378" y="-390.232" font-family="Helvetica,sans-Serif" font-size="10.00"> get_proposals</text>
<text text-anchor="middle" x="378" y="-379.232" font-family="Helvetica,sans-Serif" font-size="10.00">get_traffic_selectors</text>
</g>
<!-- Node11&#45;&gt;Node11 -->
<g id="edge13" class="edge"><title>Node11&#45;&gt;Node11</title>
<path fill="none" stroke="#9a32cd" stroke-dasharray="5,2" d="M235.631,-377.632C236.991,-382.547 243.781,-386.232 256,-386.232 275.551,-386.232 281.202,-376.798 272.954,-367.99"/>
<polygon fill="#9a32cd" stroke="#9a32cd" points="239.007,-378.584 239.046,-367.99 232.408,-376.247 239.007,-378.584"/>
<text text-anchor="middle" x="256" y="-389.232" font-family="Helvetica,sans-Serif" font-size="10.00"> clone_offset</text>
</g>
<!-- Node11&#45;&gt;Node21 -->
<g id="edge39" class="edge"><title>Node11&#45;&gt;Node21</title>
<path fill="none" stroke="#9a32cd" stroke-dasharray="5,2" d="M274.644,-375.191C282.466,-383.748 291.012,-394.737 296,-406.232 307.698,-433.188 292.852,-516.831 314,-537.232 327.483,-550.239 449.31,-556.256 504.748,-558.338"/>
<polygon fill="#9a32cd" stroke="#9a32cd" points="276.969,-372.56 267.505,-367.796 271.933,-377.422 276.969,-372.56"/>
<text text-anchor="middle" x="378" y="-558.232" font-family="Helvetica,sans-Serif" font-size="10.00"> get_proposals</text>
</g>
<!-- Node12&#45;&gt;Node7 -->
<g id="edge15" class="edge"><title>Node12&#45;&gt;Node7</title>
<path fill="none" stroke="#9a32cd" stroke-dasharray="5,2" d="M265.204,-526.184C274.446,-506.811 291.207,-477.163 314,-459.232 343.82,-435.774 447.92,-404.029 500.744,-388.92"/>
<polygon fill="#9a32cd" stroke="#9a32cd" points="261.918,-524.955 260.958,-535.506 268.288,-527.857 261.918,-524.955"/>
<text text-anchor="middle" x="378" y="-462.232" font-family="Helvetica,sans-Serif" font-size="10.00"> get_lifetime</text>
</g>
<!-- Node13&#45;&gt;Node5 -->
<g id="edge20" class="edge"><title>Node13&#45;&gt;Node5</title>
<path fill="none" stroke="#9a32cd" stroke-dasharray="5,2" d="M797.912,-696.629C822.134,-691.033 852.228,-679.967 870,-658.232 899.885,-621.685 911.027,-467.289 913.459,-426.922"/>
<polygon fill="#9a32cd" stroke="#9a32cd" points="797.018,-693.239 787.943,-698.707 798.447,-700.092 797.018,-693.239"/>
<text text-anchor="middle" x="840" y="-696.232" font-family="Helvetica,sans-Serif" font-size="10.00"> get_keymat</text>
</g>
<!-- Node14 -->
<g id="node14" class="node"><title>Node14</title>
<g id="a_node14"><a xlink:href="../../d7/d7d/structaead__t.html" target="_top" xlink:title="aead_t">
<polygon fill="none" stroke="black" points="510,-668.732 510,-687.732 556,-687.732 556,-668.732 510,-668.732"/>
<text text-anchor="middle" x="533" y="-675.732" font-family="Helvetica,sans-Serif" font-size="10.00">aead_t</text>
</a>
</g>
</g>
<!-- Node14&#45;&gt;Node13 -->
<g id="edge22" class="edge"><title>Node14&#45;&gt;Node13</title>
<path fill="none" stroke="#9a32cd" stroke-dasharray="5,2" d="M566.27,-673.564C601.592,-669.483 659.64,-665.816 708,-677.232 720.657,-680.22 733.763,-686.93 743.38,-692.646"/>
<polygon fill="#9a32cd" stroke="#9a32cd" points="565.567,-670.124 556.074,-674.827 566.428,-677.071 565.567,-670.124"/>
<text text-anchor="middle" x="666" y="-680.232" font-family="Helvetica,sans-Serif" font-size="10.00"> get_aead</text>
</g>
<!-- Node15 -->
<g id="node15" class="node"><title>Node15</title>
<g id="a_node15"><a xlink:href="../../db/d66/structiv__gen__t.html" target="_top" xlink:title="iv_gen_t">
<polygon fill="none" stroke="black" points="229.5,-671.732 229.5,-690.732 282.5,-690.732 282.5,-671.732 229.5,-671.732"/>
<text text-anchor="middle" x="256" y="-678.732" font-family="Helvetica,sans-Serif" font-size="10.00">iv_gen_t</text>
</a>
</g>
</g>
<!-- Node15&#45;&gt;Node14 -->
<g id="edge23" class="edge"><title>Node15&#45;&gt;Node14</title>
<path fill="none" stroke="#9a32cd" stroke-dasharray="5,2" d="M293.004,-680.84C350.777,-680.209 462.497,-678.991 509.886,-678.474"/>
<polygon fill="#9a32cd" stroke="#9a32cd" points="292.833,-677.341 282.871,-680.95 292.909,-684.341 292.833,-677.341"/>
<text text-anchor="middle" x="378" y="-684.232" font-family="Helvetica,sans-Serif" font-size="10.00"> get_iv_gen</text>
</g>
<!-- Node16 -->
<g id="node16" class="node"><title>Node16</title>
<g id="a_node16"><a xlink:href="../../d1/dd3/structdiffie__hellman__t.html" target="_top" xlink:title="diffie_hellman_t">
<polygon fill="none" stroke="black" points="490.5,-717.732 490.5,-736.732 575.5,-736.732 575.5,-717.732 490.5,-717.732"/>
<text text-anchor="middle" x="533" y="-724.732" font-family="Helvetica,sans-Serif" font-size="10.00">diffie_hellman_t</text>
</a>
</g>
</g>
<!-- Node16&#45;&gt;Node1 -->
<g id="edge52" class="edge"><title>Node16&#45;&gt;Node1</title>
<path fill="none" stroke="#9a32cd" stroke-dasharray="5,2" d="M566.232,-740.297C583.128,-746.454 604.347,-753.121 624,-756.232 697.182,-767.819 915.404,-762.039 1009.74,-758.857"/>
<polygon fill="#9a32cd" stroke="#9a32cd" points="567.42,-737.005 556.828,-736.761 564.956,-743.557 567.42,-737.005"/>
<text text-anchor="middle" x="840" y="-765.232" font-family="Helvetica,sans-Serif" font-size="10.00"> dh</text>
</g>
<!-- Node16&#45;&gt;Node13 -->
<g id="edge24" class="edge"><title>Node16&#45;&gt;Node13</title>
<path fill="none" stroke="#9a32cd" stroke-dasharray="5,2" d="M585.4,-717.1C597.986,-714.894 611.446,-712.765 624,-711.232 660.684,-706.753 703.31,-704.371 730.457,-703.205"/>
<polygon fill="#9a32cd" stroke="#9a32cd" points="584.752,-713.66 575.529,-718.875 585.991,-720.55 584.752,-713.66"/>
<text text-anchor="middle" x="666" y="-714.232" font-family="Helvetica,sans-Serif" font-size="10.00"> create_dh</text>
</g>
<!-- Node17&#45;&gt;Node5 -->
<g id="edge25" class="edge"><title>Node17&#45;&gt;Node5</title>
<path fill="none" stroke="#9a32cd" stroke-dasharray="5,2" d="M288.313,-438.341C296.526,-441.188 305.474,-443.78 314,-445.232 370.081,-454.786 385.187,-448.169 442,-445.232 515.182,-441.45 544.181,-467.581 606,-428.232 619.117,-419.883 610.469,-405.894 624,-398.232 688.975,-361.444 717.556,-392.47 792,-398.232 825.554,-400.83 863.838,-407.387 888.43,-412.071"/>
<polygon fill="#9a32cd" stroke="#9a32cd" points="289.329,-434.985 278.736,-434.802 286.903,-441.551 289.329,-434.985"/>
<text text-anchor="middle" x="666" y="-423.232" font-family="Helvetica,sans-Serif" font-size="10.00"> get_my_id</text>
<text text-anchor="middle" x="666" y="-412.232" font-family="Helvetica,sans-Serif" font-size="10.00">get_other_id</text>
<text text-anchor="middle" x="666" y="-401.232" font-family="Helvetica,sans-Serif" font-size="10.00">get_other_eap_id</text>
</g>
<!-- Node17&#45;&gt;Node17 -->
<g id="edge26" class="edge"><title>Node17&#45;&gt;Node17</title>
<path fill="none" stroke="#9a32cd" stroke-dasharray="5,2" d="M235.631,-444.632C236.991,-449.547 243.781,-453.232 256,-453.232 275.551,-453.232 281.202,-443.798 272.954,-434.99"/>
<polygon fill="#9a32cd" stroke="#9a32cd" points="239.007,-445.584 239.046,-434.99 232.408,-443.247 239.007,-445.584"/>
<text text-anchor="middle" x="256" y="-456.232" font-family="Helvetica,sans-Serif" font-size="10.00"> clone</text>
</g>
<!-- Node18 -->
<g id="node18" class="node"><title>Node18</title>
<g id="a_node18"><a xlink:href="../../d0/d14/structchunk__t.html" target="_top" xlink:title="chunk_t">
<polygon fill="none" stroke="black" points="11.5,-560.732 11.5,-579.732 62.5,-579.732 62.5,-560.732 11.5,-560.732"/>
<text text-anchor="middle" x="37" y="-567.732" font-family="Helvetica,sans-Serif" font-size="10.00">chunk_t</text>
</a>
</g>
</g>
<!-- Node18&#45;&gt;Node17 -->
<g id="edge27" class="edge"><title>Node18&#45;&gt;Node17</title>
<path fill="none" stroke="#9a32cd" stroke-dasharray="5,2" d="M56.6646,-554.026C66.8561,-545.435 79.8441,-534.896 92,-526.232 143.237,-489.714 207.664,-452.066 237.878,-434.862"/>
<polygon fill="#9a32cd" stroke="#9a32cd" points="54.177,-551.548 48.8411,-560.701 58.7203,-556.873 54.177,-551.548"/>
<text text-anchor="middle" x="145" y="-529.232" font-family="Helvetica,sans-Serif" font-size="10.00"> get_encoding</text>
</g>
<!-- Node22 -->
<g id="node22" class="node"><title>Node22</title>
<g id="a_node22"><a xlink:href="../../d5/dcf/structhost__t.html" target="_top" xlink:title="host_t">
<polygon fill="none" stroke="black" points="234,-604.732 234,-623.732 278,-623.732 278,-604.732 234,-604.732"/>
<text text-anchor="middle" x="256" y="-611.732" font-family="Helvetica,sans-Serif" font-size="10.00">host_t</text>
</a>
</g>
</g>
<!-- Node18&#45;&gt;Node22 -->
<g id="edge37" class="edge"><title>Node18&#45;&gt;Node22</title>
<path fill="none" stroke="#9a32cd" stroke-dasharray="5,2" d="M66.4186,-584.061C74.523,-587.527 83.4712,-590.914 92,-593.232 141.698,-606.741 202.347,-611.64 233.798,-613.355"/>
<polygon fill="#9a32cd" stroke="#9a32cd" points="67.5936,-580.752 57.0364,-579.86 64.7333,-587.141 67.5936,-580.752"/>
<text text-anchor="middle" x="145" y="-614.232" font-family="Helvetica,sans-Serif" font-size="10.00"> get_address</text>
</g>
<!-- Node19 -->
<g id="node19" class="node"><title>Node19</title>
<g id="a_node19"><a xlink:href="../../dc/da6/structike__sa__id__t.html" target="_top" xlink:title="ike_sa_id_t">
<polygon fill="none" stroke="black" points="726,-474.732 726,-493.732 792,-493.732 792,-474.732 726,-474.732"/>
<text text-anchor="middle" x="759" y="-481.732" font-family="Helvetica,sans-Serif" font-size="10.00">ike_sa_id_t</text>
</a>
</g>
</g>
<!-- Node19&#45;&gt;Node5 -->
<g id="edge29" class="edge"><title>Node19&#45;&gt;Node5</title>
<path fill="none" stroke="#9a32cd" stroke-dasharray="5,2" d="M791.622,-470.475C821.549,-457.455 865.693,-438.249 891.976,-426.814"/>
<polygon fill="#9a32cd" stroke="#9a32cd" points="789.838,-467.434 782.064,-474.633 792.631,-473.853 789.838,-467.434"/>
<text text-anchor="middle" x="840" y="-464.232" font-family="Helvetica,sans-Serif" font-size="10.00"> get_id</text>
</g>
<!-- Node19&#45;&gt;Node19 -->
<g id="edge30" class="edge"><title>Node19&#45;&gt;Node19</title>
<path fill="none" stroke="#9a32cd" stroke-dasharray="5,2" d="M744.268,-503.999C745.425,-508.729 750.335,-512.232 759,-512.232 773.219,-512.232 777.329,-502.798 771.33,-493.99"/>
<polygon fill="#9a32cd" stroke="#9a32cd" points="747.739,-504.53 746.67,-493.99 740.933,-502.897 747.739,-504.53"/>
<text text-anchor="middle" x="759" y="-515.232" font-family="Helvetica,sans-Serif" font-size="10.00"> clone</text>
</g>
<!-- Node20&#45;&gt;Node5 -->
<g id="edge31" class="edge"><title>Node20&#45;&gt;Node5</title>
<path fill="none" stroke="#9a32cd" stroke-dasharray="5,2" d="M800.249,-417.232C828.013,-417.232 864.105,-417.232 888.111,-417.232"/>
<polygon fill="#9a32cd" stroke="#9a32cd" points="800.058,-413.733 790.058,-417.232 800.058,-420.733 800.058,-413.733"/>
<text text-anchor="middle" x="840" y="-420.232" font-family="Helvetica,sans-Serif" font-size="10.00"> get_peer_cfg</text>
</g>
<!-- Node20&#45;&gt;Node20 -->
<g id="edge33" class="edge"><title>Node20&#45;&gt;Node20</title>
<path fill="none" stroke="#9a32cd" stroke-dasharray="5,2" d="M744.268,-436.999C745.425,-441.729 750.335,-445.232 759,-445.232 773.219,-445.232 777.329,-435.798 771.33,-426.99"/>
<polygon fill="#9a32cd" stroke="#9a32cd" points="747.739,-437.53 746.67,-426.99 740.933,-435.897 747.739,-437.53"/>
<text text-anchor="middle" x="759" y="-448.232" font-family="Helvetica,sans-Serif" font-size="10.00"> get_ref</text>
</g>
<!-- Node21&#45;&gt;Node1 -->
<g id="edge51" class="edge"><title>Node21&#45;&gt;Node1</title>
<path fill="none" stroke="#9a32cd" stroke-dasharray="5,2" d="M570.931,-564.621C634.098,-574.67 766.119,-599.333 870,-643.232 939.229,-672.488 1012.59,-725.612 1041.38,-747.454"/>
<polygon fill="#9a32cd" stroke="#9a32cd" points="571.459,-561.161 561.039,-563.077 570.38,-568.077 571.459,-561.161"/>
<text text-anchor="middle" x="840" y="-646.232" font-family="Helvetica,sans-Serif" font-size="10.00"> config</text>
</g>
<!-- Node21&#45;&gt;Node5 -->
<g id="edge47" class="edge"><title>Node21&#45;&gt;Node5</title>
<path fill="none" stroke="#9a32cd" stroke-dasharray="5,2" d="M571.214,-561.714C622.818,-563.762 718.095,-562.448 792,-532.232 831.502,-516.082 839.552,-506.134 870,-476.232 885.681,-460.833 900.153,-439.493 907.962,-427.147"/>
<polygon fill="#9a32cd" stroke="#9a32cd" points="571.343,-558.216 561.192,-561.251 571.02,-565.209 571.343,-558.216"/>
<text text-anchor="middle" x="759" y="-554.232" font-family="Helvetica,sans-Serif" font-size="10.00"> get_ike_cfg</text>
</g>
<!-- Node21&#45;&gt;Node20 -->
<g id="edge34" class="edge"><title>Node21&#45;&gt;Node20</title>
<path fill="none" stroke="#9a32cd" stroke-dasharray="5,2" d="M570.968,-548.822C620.473,-534.759 702.741,-510.905 708,-506.232 722.878,-493.015 716.444,-482.689 726,-465.232 733.598,-451.352 744.007,-436.321 750.863,-426.847"/>
<polygon fill="#9a32cd" stroke="#9a32cd" points="569.906,-545.485 561.239,-551.58 571.815,-552.22 569.906,-545.485"/>
<text text-anchor="middle" x="666" y="-536.232" font-family="Helvetica,sans-Serif" font-size="10.00"> get_ike_cfg</text>
</g>
<!-- Node21&#45;&gt;Node21 -->
<g id="edge40" class="edge"><title>Node21&#45;&gt;Node21</title>
<path fill="none" stroke="#9a32cd" stroke-dasharray="5,2" d="M508.447,-578.262C509.786,-583.36 517.97,-587.232 533,-587.232 556.461,-587.232 563.243,-577.798 553.345,-568.99"/>
<polygon fill="#9a32cd" stroke="#9a32cd" points="511.709,-579.542 512.655,-568.99 505.335,-576.649 511.709,-579.542"/>
<text text-anchor="middle" x="533" y="-590.232" font-family="Helvetica,sans-Serif" font-size="10.00"> get_ref</text>
</g>
<!-- Node22&#45;&gt;Node5 -->
<g id="edge43" class="edge"><title>Node22&#45;&gt;Node5</title>
<path fill="none" stroke="#9a32cd" stroke-dasharray="5,2" d="M288.013,-617.863C372.772,-626.469 613.855,-642.072 792,-566.232 830.335,-549.912 843.022,-545.983 870,-514.232 893.229,-486.895 906.52,-445.286 911.595,-426.735"/>
<polygon fill="#9a32cd" stroke="#9a32cd" points="288.326,-614.377 278.013,-616.805 287.589,-621.338 288.326,-614.377"/>
<text text-anchor="middle" x="666" y="-626.232" font-family="Helvetica,sans-Serif" font-size="10.00"> get_other_host</text>
<text text-anchor="middle" x="666" y="-615.232" font-family="Helvetica,sans-Serif" font-size="10.00">get_my_host</text>
</g>
<!-- Node22&#45;&gt;Node21 -->
<g id="edge36" class="edge"><title>Node22&#45;&gt;Node21</title>
<path fill="none" stroke="#9a32cd" stroke-dasharray="5,2" d="M287.643,-603.03C296.103,-600.209 305.34,-597.377 314,-595.232 349.746,-586.382 454.498,-570.557 504.64,-563.198"/>
<polygon fill="#9a32cd" stroke="#9a32cd" points="286.467,-599.734 278.148,-606.295 288.743,-606.353 286.467,-599.734"/>
<text text-anchor="middle" x="378" y="-609.232" font-family="Helvetica,sans-Serif" font-size="10.00"> resolve_me</text>
<text text-anchor="middle" x="378" y="-598.232" font-family="Helvetica,sans-Serif" font-size="10.00">resolve_other</text>
</g>
<!-- Node22&#45;&gt;Node22 -->
<g id="edge38" class="edge"><title>Node22&#45;&gt;Node22</title>
<path fill="none" stroke="#9a32cd" stroke-dasharray="5,2" d="M235.631,-633.632C236.991,-638.547 243.781,-642.232 256,-642.232 275.551,-642.232 281.202,-632.798 272.954,-623.99"/>
<polygon fill="#9a32cd" stroke="#9a32cd" points="239.007,-634.584 239.046,-623.99 232.408,-632.247 239.007,-634.584"/>
<text text-anchor="middle" x="256" y="-645.232" font-family="Helvetica,sans-Serif" font-size="10.00"> clone</text>
</g>
<!-- Node23&#45;&gt;Node5 -->
<g id="edge44" class="edge"><title>Node23&#45;&gt;Node5</title>
<path fill="none" stroke="#9a32cd" stroke-dasharray="5,2" d="M419.617,-14.7445C525.555,-9.18537 806.468,-0.696556 870,-62.2324 895.594,-87.0227 910.661,-352.673 913.506,-407.405"/>
<polygon fill="#9a32cd" stroke="#9a32cd" points="419.132,-11.2656 409.337,-15.304 419.513,-18.2553 419.132,-11.2656"/>
<text text-anchor="middle" x="666" y="-20.2324" font-family="Helvetica,sans-Serif" font-size="10.00"> get_auth_cfg</text>
</g>
<!-- Node23&#45;&gt;Node23 -->
<g id="edge45" class="edge"><title>Node23&#45;&gt;Node23</title>
<path fill="none" stroke="#9a32cd" stroke-dasharray="5,2" d="M355.307,-36.2616C356.544,-41.3604 364.109,-45.2324 378,-45.2324 399.684,-45.2324 405.952,-35.7977 396.804,-26.9895"/>
<polygon fill="#9a32cd" stroke="#9a32cd" points="358.555,-37.5649 359.196,-26.9895 352.1,-34.857 358.555,-37.5649"/>
<text text-anchor="middle" x="378" y="-48.2324" font-family="Helvetica,sans-Serif" font-size="10.00"> clone</text>
</g>
</g>
</svg>
        <g id="navigator" transform="translate(0 0)" fill="#404254">
                <rect fill="#f2f5e9" fill-opacity="0.5" stroke="#606060" stroke-width=".5" x="0" y="0" width="60" height="60"/>
                <use id="zoomplus" xlink:href="#zoomPlus" x="17" y="9" onmousedown="handleZoom(evt,'in')"/>
                <use id="zoomminus" xlink:href="#zoomMin" x="42" y="9" onmousedown="handleZoom(evt,'out')"/>
                <use id="reset" xlink:href="#resetDef" x="30" y="36" onmousedown="handleReset()"/>
                <g id="arrowUp" xlink:href="#dirArrow" transform="translate(30 24)" onmousedown="handlePan(0,-1)">
                  <use xlink:href="#rim" fill="#404040">
                        <set attributeName="fill" to="#808080" begin="arrowUp.mouseover" end="arrowUp.mouseout"/>
                  </use>
                  <path fill="none" stroke="white" stroke-width="1.5" d="M0,-3.0v7 M-2.5,-0.5L0,-3.0L2.5,-0.5"/>
                </g>
                <g id="arrowRight" xlink:href="#dirArrow" transform="rotate(90) translate(36 -43)" onmousedown="handlePan(1,0)">
                  <use xlink:href="#rim" fill="#404040">
                        <set attributeName="fill" to="#808080" begin="arrowRight.mouseover" end="arrowRight.mouseout"/>
                  </use>
                  <path fill="none" stroke="white" stroke-width="1.5" d="M0,-3.0v7 M-2.5,-0.5L0,-3.0L2.5,-0.5"/>
                </g>
                <g id="arrowDown" xlink:href="#dirArrow" transform="rotate(180) translate(-30 -48)" onmousedown="handlePan(0,1)">
                  <use xlink:href="#rim" fill="#404040">
                        <set attributeName="fill" to="#808080" begin="arrowDown.mouseover" end="arrowDown.mouseout"/>
                  </use>
                  <path fill="none" stroke="white" stroke-width="1.5" d="M0,-3.0v7 M-2.5,-0.5L0,-3.0L2.5,-0.5"/>
                </g>
                <g id="arrowLeft" xlink:href="#dirArrow" transform="rotate(270) translate(-36 17)" onmousedown="handlePan(-1,0)">
                  <use xlink:href="#rim" fill="#404040">
                        <set attributeName="fill" to="#808080" begin="arrowLeft.mouseover" end="arrowLeft.mouseout"/>
                  </use>
                  <path fill="none" stroke="white" stroke-width="1.5" d="M0,-3.0v7 M-2.5,-0.5L0,-3.0L2.5,-0.5"/>
                </g>
        </g>
        <svg viewBox="0 0 15 15" width="100%" height="30px" preserveAspectRatio="xMaxYMin meet">
         <g id="arrow_out" transform="scale(0.3 0.3)">
          <a xlink:href="structprivate__ike__init__t__coll__graph_org.svg" target="_base">
           <rect id="button" ry="5" rx="5" y="6" x="6" height="38" width="38"
                fill="#f2f5e9" fill-opacity="0.5" stroke="#606060" stroke-width="1.0"/>
           <path id="arrow"
             d="M 11.500037,31.436501 C 11.940474,20.09759 22.043105,11.32322 32.158766,21.979434 L 37.068811,17.246167 C 37.068811,17.246167 37.088388,32 37.088388,32 L 22.160133,31.978069 C 22.160133,31.978069 26.997745,27.140456 26.997745,27.140456 C 18.528582,18.264221 13.291696,25.230495 11.500037,31.436501 z"
             style="fill:#404040;"/>
          </a>
         </g>
        </svg>
</svg>
