<?xml version="1.0" encoding="UTF-8" standalone="no"?>
<!DOCTYPE svg PUBLIC "-//W3C//DTD SVG 1.1//EN"
 "http://www.w3.org/Graphics/SVG/1.1/DTD/svg11.dtd">
<!-- Generated by graphviz version 2.36.0 (20140111.2315)
 -->
<!-- Title: eap_radius_handle_timeout Pages: 1 -->
<svg width="448pt" height="165pt"
 viewBox="0.00 0.00 448.00 165.00" xmlns="http://www.w3.org/2000/svg" xmlns:xlink="http://www.w3.org/1999/xlink">
<g id="graph0" class="graph" transform="scale(1 1) rotate(0) translate(4 161)">
<title>eap_radius_handle_timeout</title>
<!-- Node1 -->
<g id="node1" class="node"><title>Node1</title>
<polygon fill="#bfbfbf" stroke="black" points="0.5,-57.5 0.5,-76.5 135.5,-76.5 135.5,-57.5 0.5,-57.5"/>
<text text-anchor="middle" x="68" y="-64.5" font-family="Helvetica,sans-Serif" font-size="10.00">eap_radius_handle_timeout</text>
</g>
<!-- Node2 -->
<g id="node2" class="node"><title>Node2</title>
<g id="a_node2"><a xlink:href="../../d0/d8f/group__callback__job.html#gadfa6801d50c2e34bb3f9e1c98efe02d0" target="_top" xlink:title="callback_job_create\l_with_prio">
<polygon fill="none" stroke="black" points="172.5,-115 172.5,-145 275.5,-145 275.5,-115 172.5,-115"/>
<text text-anchor="start" x="180.5" y="-133" font-family="Helvetica,sans-Serif" font-size="10.00">callback_job_create</text>
<text text-anchor="middle" x="224" y="-122" font-family="Helvetica,sans-Serif" font-size="10.00">_with_prio</text>
</a>
</g>
</g>
<!-- Node1&#45;&gt;Node2 -->
<g id="edge1" class="edge"><title>Node1&#45;&gt;Node2</title>
<path fill="none" stroke="midnightblue" d="M92.3893,-76.5683C114.669,-85.6826 148.836,-99.66 176.636,-111.033"/>
<polygon fill="midnightblue" stroke="midnightblue" points="175.594,-114.388 186.174,-114.935 178.244,-107.909 175.594,-114.388"/>
</g>
<!-- Node5 -->
<g id="node5" class="node"><title>Node5</title>
<g id="a_node5"><a xlink:href="../../d3/de7/eap__radius__plugin_8c.html#a3da6a57800f89e12ec9a5051f7209703" target="_top" xlink:title="delete_all_async">
<polygon fill="none" stroke="black" points="179.5,-76.5 179.5,-95.5 268.5,-95.5 268.5,-76.5 179.5,-76.5"/>
<text text-anchor="middle" x="224" y="-83.5" font-family="Helvetica,sans-Serif" font-size="10.00">delete_all_async</text>
</a>
</g>
</g>
<!-- Node1&#45;&gt;Node5 -->
<g id="edge4" class="edge"><title>Node1&#45;&gt;Node5</title>
<path fill="none" stroke="midnightblue" d="M135.651,-75.2232C146.863,-76.6064 158.372,-78.0265 169.206,-79.3631"/>
<polygon fill="midnightblue" stroke="midnightblue" points="169.001,-82.8642 179.354,-80.6151 169.858,-75.9169 169.001,-82.8642"/>
</g>
<!-- Node6 -->
<g id="node6" class="node"><title>Node6</title>
<g id="a_node6"><a xlink:href="../../df/ddf/group__delete__child__sa__job.html#gac495fce020c739bb0c52251d7624221b" target="_top" xlink:title="delete_ike_sa_job_create">
<polygon fill="none" stroke="black" points="312.5,-58.5 312.5,-77.5 439.5,-77.5 439.5,-58.5 312.5,-58.5"/>
<text text-anchor="middle" x="376" y="-65.5" font-family="Helvetica,sans-Serif" font-size="10.00">delete_ike_sa_job_create</text>
</a>
</g>
</g>
<!-- Node1&#45;&gt;Node6 -->
<g id="edge6" class="edge"><title>Node1&#45;&gt;Node6</title>
<path fill="none" stroke="midnightblue" d="M135.655,-66.8292C176.227,-66.7678 229.102,-66.7631 276,-67 284.462,-67.0427 293.332,-67.106 302.138,-67.1804"/>
<polygon fill="midnightblue" stroke="midnightblue" points="302.388,-70.6827 312.419,-67.2722 302.451,-63.6829 302.388,-70.6827"/>
</g>
<!-- Node7 -->
<g id="node7" class="node"><title>Node7</title>
<g id="a_node7"><a xlink:href="../../d6/d87/group__utils__i.html#ga9336a4d5728eb7ed977aacaeb8fd2c41" target="_top" xlink:title="return_false">
<polygon fill="none" stroke="black" points="190,-0.5 190,-19.5 258,-19.5 258,-0.5 190,-0.5"/>
<text text-anchor="middle" x="224" y="-7.5" font-family="Helvetica,sans-Serif" font-size="10.00">return_false</text>
</a>
</g>
</g>
<!-- Node1&#45;&gt;Node7 -->
<g id="edge7" class="edge"><title>Node1&#45;&gt;Node7</title>
<path fill="none" stroke="midnightblue" d="M94.7761,-57.4595C120.205,-48.0473 159.276,-33.5862 187.607,-23.1001"/>
<polygon fill="midnightblue" stroke="midnightblue" points="188.976,-26.3252 197.14,-19.5716 186.547,-19.7605 188.976,-26.3252"/>
</g>
<!-- Node3 -->
<g id="node3" class="node"><title>Node3</title>
<g id="a_node3"><a xlink:href="../../d1/d14/fetch_8c.html#a17dd1592e9f4ebc44d5126c03a3a9697" target="_top" xlink:title="cb">
<polygon fill="none" stroke="black" points="361.5,-137.5 361.5,-156.5 390.5,-156.5 390.5,-137.5 361.5,-137.5"/>
<text text-anchor="middle" x="376" y="-144.5" font-family="Helvetica,sans-Serif" font-size="10.00">cb</text>
</a>
</g>
</g>
<!-- Node2&#45;&gt;Node3 -->
<g id="edge2" class="edge"><title>Node2&#45;&gt;Node3</title>
<path fill="none" stroke="midnightblue" d="M275.783,-135.755C301.313,-138.649 331.036,-142.017 351.246,-144.308"/>
<polygon fill="midnightblue" stroke="midnightblue" points="351.077,-147.811 361.407,-145.459 351.865,-140.856 351.077,-147.811"/>
</g>
<!-- Node4 -->
<g id="node4" class="node"><title>Node4</title>
<g id="a_node4"><a xlink:href="../../d2/dca/nm__backend_8c.html#a22ea158445c16ed72f5ab270e1dc691b" target="_top" xlink:title="cancel">
<polygon fill="none" stroke="black" points="353.5,-99.5 353.5,-118.5 398.5,-118.5 398.5,-99.5 353.5,-99.5"/>
<text text-anchor="middle" x="376" y="-106.5" font-family="Helvetica,sans-Serif" font-size="10.00">cancel</text>
</a>
</g>
</g>
<!-- Node2&#45;&gt;Node4 -->
<g id="edge3" class="edge"><title>Node2&#45;&gt;Node4</title>
<path fill="none" stroke="midnightblue" d="M275.783,-122.89C298.117,-119.764 323.66,-116.188 343.236,-113.447"/>
<polygon fill="midnightblue" stroke="midnightblue" points="343.741,-116.911 353.159,-112.058 342.77,-109.978 343.741,-116.911"/>
</g>
<!-- Node5&#45;&gt;Node6 -->
<g id="edge5" class="edge"><title>Node5&#45;&gt;Node6</title>
<path fill="none" stroke="midnightblue" d="M268.789,-80.7453C279.357,-79.4772 290.93,-78.0884 302.428,-76.7087"/>
<polygon fill="midnightblue" stroke="midnightblue" points="302.973,-80.1685 312.485,-75.5019 302.139,-73.2183 302.973,-80.1685"/>
</g>
</g>
</svg>
