<?xml version="1.0" encoding="UTF-8" standalone="no"?>
<!DOCTYPE svg PUBLIC "-//W3C//DTD SVG 1.1//EN"
 "http://www.w3.org/Graphics/SVG/1.1/DTD/svg11.dtd">
<!-- Generated by graphviz version 2.36.0 (20140111.2315)
 -->
<!-- Title: query_slots Pages: 1 -->
<svg width="430pt" height="142pt"
 viewBox="0.00 0.00 430.00 142.00" xmlns="http://www.w3.org/2000/svg" xmlns:xlink="http://www.w3.org/1999/xlink">
<g id="graph0" class="graph" transform="scale(1 1) rotate(0) translate(4 138)">
<title>query_slots</title>
<!-- Node1 -->
<g id="node1" class="node"><title>Node1</title>
<polygon fill="#bfbfbf" stroke="black" points="0.5,-76.5 0.5,-95.5 67.5,-95.5 67.5,-76.5 0.5,-76.5"/>
<text text-anchor="middle" x="34" y="-83.5" font-family="Helvetica,sans-Serif" font-size="10.00">query_slots</text>
</g>
<!-- Node2 -->
<g id="node2" class="node"><title>Node2</title>
<g id="a_node2"><a xlink:href="../../da/dfc/settings__parser_8c.html#af07d89f5ceaea0c7c8252cc41fd75f37" target="_top" xlink:title="free">
<polygon fill="none" stroke="black" points="230.5,-114.5 230.5,-133.5 263.5,-133.5 263.5,-114.5 230.5,-114.5"/>
<text text-anchor="middle" x="247" y="-121.5" font-family="Helvetica,sans-Serif" font-size="10.00">free</text>
</a>
</g>
</g>
<!-- Node1&#45;&gt;Node2 -->
<g id="edge1" class="edge"><title>Node1&#45;&gt;Node2</title>
<path fill="none" stroke="midnightblue" d="M66.0408,-95.5118C77.8404,-98.8723 91.4595,-102.447 104,-105 144.197,-113.184 191.539,-118.709 220.135,-121.604"/>
<polygon fill="midnightblue" stroke="midnightblue" points="219.829,-125.091 230.123,-122.585 220.513,-118.125 219.829,-125.091"/>
</g>
<!-- Node3 -->
<g id="node3" class="node"><title>Node3</title>
<g id="a_node3"><a xlink:href="../../dc/d89/pkcs11__manager_8c.html#a821898b4647f51c7160e9cb8e2b0bbf2" target="_top" xlink:title="get_slot_list">
<polygon fill="none" stroke="black" points="104.5,-76.5 104.5,-95.5 173.5,-95.5 173.5,-76.5 104.5,-76.5"/>
<text text-anchor="middle" x="139" y="-83.5" font-family="Helvetica,sans-Serif" font-size="10.00">get_slot_list</text>
</a>
</g>
</g>
<!-- Node1&#45;&gt;Node3 -->
<g id="edge2" class="edge"><title>Node1&#45;&gt;Node3</title>
<path fill="none" stroke="midnightblue" d="M67.5898,-86C75.9773,-86 85.1419,-86 94.0036,-86"/>
<polygon fill="midnightblue" stroke="midnightblue" points="94.2027,-89.5001 104.203,-86 94.2026,-82.5001 94.2027,-89.5001"/>
</g>
<!-- Node5 -->
<g id="node5" class="node"><title>Node5</title>
<g id="a_node5"><a xlink:href="../../dc/d89/pkcs11__manager_8c.html#aeeeaa5fa94025e61b19e5594845c5a1e" target="_top" xlink:title="handle_slot">
<polygon fill="none" stroke="black" points="106,-38.5 106,-57.5 172,-57.5 172,-38.5 106,-38.5"/>
<text text-anchor="middle" x="139" y="-45.5" font-family="Helvetica,sans-Serif" font-size="10.00">handle_slot</text>
</a>
</g>
</g>
<!-- Node1&#45;&gt;Node5 -->
<g id="edge5" class="edge"><title>Node1&#45;&gt;Node5</title>
<path fill="none" stroke="midnightblue" d="M60.9912,-76.411C73.5557,-71.7756 88.8301,-66.1404 102.452,-61.1147"/>
<polygon fill="midnightblue" stroke="midnightblue" points="103.847,-64.3309 112.017,-57.5859 101.424,-57.7636 103.847,-64.3309"/>
</g>
<!-- Node3&#45;&gt;Node2 -->
<g id="edge3" class="edge"><title>Node3&#45;&gt;Node2</title>
<path fill="none" stroke="midnightblue" d="M166.748,-95.589C183.407,-101.561 204.696,-109.193 221.013,-115.042"/>
<polygon fill="midnightblue" stroke="midnightblue" points="219.85,-118.344 230.445,-118.424 222.212,-111.754 219.85,-118.344"/>
</g>
<!-- Node4 -->
<g id="node4" class="node"><title>Node4</title>
<g id="a_node4"><a xlink:href="../../da/dfc/settings__parser_8c.html#a5faf6a2d99f50a4655dd390199a8db7b" target="_top" xlink:title="malloc">
<polygon fill="none" stroke="black" points="224.5,-76.5 224.5,-95.5 269.5,-95.5 269.5,-76.5 224.5,-76.5"/>
<text text-anchor="middle" x="247" y="-83.5" font-family="Helvetica,sans-Serif" font-size="10.00">malloc</text>
</a>
</g>
</g>
<!-- Node3&#45;&gt;Node4 -->
<g id="edge4" class="edge"><title>Node3&#45;&gt;Node4</title>
<path fill="none" stroke="midnightblue" d="M173.539,-86C186.523,-86 201.316,-86 214.136,-86"/>
<polygon fill="midnightblue" stroke="midnightblue" points="214.358,-89.5001 224.358,-86 214.358,-82.5001 214.358,-89.5001"/>
</g>
<!-- Node6 -->
<g id="node6" class="node"><title>Node6</title>
<g id="a_node6"><a xlink:href="../../dc/d89/pkcs11__manager_8c.html#a05ecbfe30785eb61e45f8b72712944cc" target="_top" xlink:title="handle_token">
<polygon fill="none" stroke="black" points="210,-0.5 210,-19.5 284,-19.5 284,-0.5 210,-0.5"/>
<text text-anchor="middle" x="247" y="-7.5" font-family="Helvetica,sans-Serif" font-size="10.00">handle_token</text>
</a>
</g>
</g>
<!-- Node5&#45;&gt;Node6 -->
<g id="edge6" class="edge"><title>Node5&#45;&gt;Node6</title>
<path fill="none" stroke="midnightblue" d="M166.748,-38.411C179.804,-33.7306 195.703,-28.0308 209.825,-22.9685"/>
<polygon fill="midnightblue" stroke="midnightblue" points="211.028,-26.2553 219.26,-19.5859 208.666,-19.6659 211.028,-26.2553"/>
</g>
<!-- Node7 -->
<g id="node7" class="node"><title>Node7</title>
<g id="a_node7"><a xlink:href="../../db/d7a/group__pkcs11__library.html#ga2eaa1f09e167691f494805eec8cd2fa7" target="_top" xlink:title="pkcs11_library_trim">
<polygon fill="none" stroke="black" points="320.5,-38.5 320.5,-57.5 421.5,-57.5 421.5,-38.5 320.5,-38.5"/>
<text text-anchor="middle" x="371" y="-45.5" font-family="Helvetica,sans-Serif" font-size="10.00">pkcs11_library_trim</text>
</a>
</g>
</g>
<!-- Node5&#45;&gt;Node7 -->
<g id="edge9" class="edge"><title>Node5&#45;&gt;Node7</title>
<path fill="none" stroke="midnightblue" d="M172.466,-48C208.193,-48 266.383,-48 310.374,-48"/>
<polygon fill="midnightblue" stroke="midnightblue" points="310.378,-51.5001 320.378,-48 310.378,-44.5001 310.378,-51.5001"/>
</g>
<!-- Node6&#45;&gt;Node7 -->
<g id="edge7" class="edge"><title>Node6&#45;&gt;Node7</title>
<path fill="none" stroke="midnightblue" d="M278.786,-19.589C294.101,-24.3594 312.817,-30.1888 329.3,-35.3229"/>
<polygon fill="midnightblue" stroke="midnightblue" points="328.636,-38.7818 339.224,-38.4141 330.717,-32.0985 328.636,-38.7818"/>
</g>
<!-- Node8 -->
<g id="node8" class="node"><title>Node8</title>
<g id="a_node8"><a xlink:href="../../dc/d89/pkcs11__manager_8c.html#a06ff434dce037fb5bfe85930168eb51f" target="_top" xlink:title="print_mechs">
<polygon fill="none" stroke="black" points="336,-0.5 336,-19.5 406,-19.5 406,-0.5 336,-0.5"/>
<text text-anchor="middle" x="371" y="-7.5" font-family="Helvetica,sans-Serif" font-size="10.00">print_mechs</text>
</a>
</g>
</g>
<!-- Node6&#45;&gt;Node8 -->
<g id="edge8" class="edge"><title>Node6&#45;&gt;Node8</title>
<path fill="none" stroke="midnightblue" d="M284.274,-10C297.259,-10 312.044,-10 325.636,-10"/>
<polygon fill="midnightblue" stroke="midnightblue" points="325.747,-13.5001 335.747,-10 325.747,-6.5001 325.747,-13.5001"/>
</g>
</g>
</svg>
