<?xml version="1.0" encoding="UTF-8" standalone="no"?>
<!DOCTYPE svg PUBLIC "-//W3C//DTD SVG 1.1//EN"
 "http://www.w3.org/Graphics/SVG/1.1/DTD/svg11.dtd">
<!-- Generated by graphviz version 2.36.0 (20140111.2315)
 -->
<!-- Title: imc_os_info.h Pages: 1 -->
<svg width="2387pt" height="568pt"
 viewBox="0.00 0.00 2387.00 568.00" xmlns="http://www.w3.org/2000/svg" xmlns:xlink="http://www.w3.org/1999/xlink">
<g id="graph0" class="graph" transform="scale(1 1) rotate(0) translate(4 564)">
<title>imc_os_info.h</title>
<!-- Node1 -->
<g id="node1" class="node"><title>Node1</title>
<polygon fill="#bfbfbf" stroke="black" points="2017.5,-540.5 2017.5,-559.5 2094.5,-559.5 2094.5,-540.5 2017.5,-540.5"/>
<text text-anchor="middle" x="2056" y="-547.5" font-family="Helvetica,sans-Serif" font-size="10.00">imc_os_info.h</text>
</g>
<!-- Node2 -->
<g id="node2" class="node"><title>Node2</title>
<g id="a_node2"><a xlink:href="../../d7/deb/os__info_8h.html" target="_top" xlink:title="os_info/os_info.h">
<polygon fill="none" stroke="black" points="2010.5,-484.5 2010.5,-503.5 2101.5,-503.5 2101.5,-484.5 2010.5,-484.5"/>
<text text-anchor="middle" x="2056" y="-491.5" font-family="Helvetica,sans-Serif" font-size="10.00">os_info/os_info.h</text>
</a>
</g>
</g>
<!-- Node1&#45;&gt;Node2 -->
<g id="edge1" class="edge"><title>Node1&#45;&gt;Node2</title>
<path fill="none" stroke="midnightblue" d="M2056,-540.083C2056,-533.006 2056,-522.861 2056,-513.986"/>
<polygon fill="midnightblue" stroke="midnightblue" points="2059.5,-513.751 2056,-503.751 2052.5,-513.751 2059.5,-513.751"/>
</g>
<!-- Node3 -->
<g id="node3" class="node"><title>Node3</title>
<g id="a_node3"><a xlink:href="../../dd/d08/library_8h.html" target="_top" xlink:title="library.h">
<polygon fill="none" stroke="black" points="1180.5,-428.5 1180.5,-447.5 1231.5,-447.5 1231.5,-428.5 1180.5,-428.5"/>
<text text-anchor="middle" x="1206" y="-435.5" font-family="Helvetica,sans-Serif" font-size="10.00">library.h</text>
</a>
</g>
</g>
<!-- Node1&#45;&gt;Node3 -->
<g id="edge73" class="edge"><title>Node1&#45;&gt;Node3</title>
<path fill="none" stroke="midnightblue" d="M2017.27,-543.988C1874.51,-525.514 1378.95,-461.382 1241.56,-443.602"/>
<polygon fill="midnightblue" stroke="midnightblue" points="1241.93,-440.121 1231.57,-442.308 1241.03,-447.063 1241.93,-440.121"/>
</g>
<!-- Node28 -->
<g id="node28" class="node"><title>Node28</title>
<g id="a_node28"><a xlink:href="../../de/df7/time_8h.html" target="_top" xlink:title="utils/time.h">
<polygon fill="none" stroke="black" points="2314.5,-124.5 2314.5,-143.5 2379.5,-143.5 2379.5,-124.5 2314.5,-124.5"/>
<text text-anchor="middle" x="2347" y="-131.5" font-family="Helvetica,sans-Serif" font-size="10.00">utils/time.h</text>
</a>
</g>
</g>
<!-- Node1&#45;&gt;Node28 -->
<g id="edge74" class="edge"><title>Node1&#45;&gt;Node28</title>
<path fill="none" stroke="midnightblue" d="M2094.76,-543.423C2177.1,-530.483 2362,-495.171 2362,-439 2362,-439 2362,-439 2362,-245 2362,-212.502 2355.49,-175.095 2351.05,-153.343"/>
<polygon fill="midnightblue" stroke="midnightblue" points="2354.46,-152.559 2348.96,-143.504 2347.61,-154.013 2354.46,-152.559"/>
</g>
<!-- Node2&#45;&gt;Node3 -->
<g id="edge2" class="edge"><title>Node2&#45;&gt;Node3</title>
<path fill="none" stroke="midnightblue" d="M2010.3,-490.097C1859.22,-480.499 1377.74,-449.91 1241.96,-441.284"/>
<polygon fill="midnightblue" stroke="midnightblue" points="1241.9,-437.774 1231.7,-440.633 1241.46,-444.76 1241.9,-437.774"/>
</g>
<!-- Node2&#45;&gt;Node28 -->
<g id="edge72" class="edge"><title>Node2&#45;&gt;Node28</title>
<path fill="none" stroke="midnightblue" d="M2101.77,-493.002C2178.31,-490.337 2324,-472.695 2324,-377 2324,-377 2324,-377 2324,-245 2324,-212.12 2333.97,-174.86 2340.78,-153.235"/>
<polygon fill="midnightblue" stroke="midnightblue" points="2344.11,-154.303 2343.9,-143.711 2337.46,-152.125 2344.11,-154.303"/>
</g>
<!-- Node4 -->
<g id="node4" class="node"><title>Node4</title>
<g id="a_node4"><a xlink:href="../../dc/d6a/printf__hook_8h.html" target="_top" xlink:title="utils/printf_hook/printf\l_hook.h">
<polygon fill="none" stroke="black" points="2007,-57 2007,-87 2117,-87 2117,-57 2007,-57"/>
<text text-anchor="start" x="2015" y="-75" font-family="Helvetica,sans-Serif" font-size="10.00">utils/printf_hook/printf</text>
<text text-anchor="middle" x="2062" y="-64" font-family="Helvetica,sans-Serif" font-size="10.00">_hook.h</text>
</a>
</g>
</g>
<!-- Node3&#45;&gt;Node4 -->
<g id="edge3" class="edge"><title>Node3&#45;&gt;Node4</title>
<path fill="none" stroke="midnightblue" d="M1231.82,-437.254C1382.23,-438.548 2141.66,-442.531 2231,-392 2269.52,-370.214 2286,-353.253 2286,-309 2286,-309 2286,-309 2286,-189 2286,-116.832 2193.18,-89.5081 2127.04,-79.1993"/>
<polygon fill="midnightblue" stroke="midnightblue" points="2127.48,-75.7268 2117.08,-77.7424 2126.47,-82.6531 2127.48,-75.7268"/>
</g>
<!-- Node6 -->
<g id="node6" class="node"><title>Node6</title>
<g id="a_node6"><a xlink:href="../../d5/d60/utils_8h.html" target="_top" xlink:title="utils/utils.h">
<polygon fill="none" stroke="black" points="1139,-180.5 1139,-199.5 1203,-199.5 1203,-180.5 1139,-180.5"/>
<text text-anchor="middle" x="1171" y="-187.5" font-family="Helvetica,sans-Serif" font-size="10.00">utils/utils.h</text>
</a>
</g>
</g>
<!-- Node3&#45;&gt;Node6 -->
<g id="edge5" class="edge"><title>Node3&#45;&gt;Node6</title>
<path fill="none" stroke="midnightblue" d="M1231.65,-437.33C1350.55,-438.596 1844.25,-440.864 1890,-392 1987.89,-287.457 1380.94,-213.619 1213.14,-195.382"/>
<polygon fill="midnightblue" stroke="midnightblue" points="1213.5,-191.901 1203.19,-194.31 1212.75,-198.861 1213.5,-191.901"/>
</g>
<!-- Node30 -->
<g id="node30" class="node"><title>Node30</title>
<g id="a_node30"><a xlink:href="../../d2/d0c/host__resolver_8h.html" target="_top" xlink:title="networking/host_resolver.h">
<polygon fill="none" stroke="black" points="0,-366.5 0,-385.5 134,-385.5 134,-366.5 0,-366.5"/>
<text text-anchor="middle" x="67" y="-373.5" font-family="Helvetica,sans-Serif" font-size="10.00">networking/host_resolver.h</text>
</a>
</g>
</g>
<!-- Node3&#45;&gt;Node30 -->
<g id="edge31" class="edge"><title>Node3&#45;&gt;Node30</title>
<path fill="none" stroke="midnightblue" d="M1180.12,-437.237C1061.45,-438.042 557.656,-438.41 148,-392 137.875,-390.853 127.111,-389.182 116.849,-387.369"/>
<polygon fill="midnightblue" stroke="midnightblue" points="117.264,-383.886 106.796,-385.521 115.999,-390.771 117.264,-383.886"/>
</g>
<!-- Node32 -->
<g id="node32" class="node"><title>Node32</title>
<g id="a_node32"><a xlink:href="../../dd/dd5/chunk_8h.html" target="_top" xlink:title="utils/chunk.h">
<polygon fill="none" stroke="red" points="160,-236.5 160,-255.5 232,-255.5 232,-236.5 160,-236.5"/>
<text text-anchor="middle" x="196" y="-243.5" font-family="Helvetica,sans-Serif" font-size="10.00">utils/chunk.h</text>
</a>
</g>
</g>
<!-- Node3&#45;&gt;Node32 -->
<g id="edge62" class="edge"><title>Node3&#45;&gt;Node32</title>
<path fill="none" stroke="midnightblue" d="M1180.36,-436.864C1025.14,-435.919 216.62,-429.218 181,-392 147.985,-357.504 171.782,-295.096 186.582,-264.655"/>
<polygon fill="midnightblue" stroke="midnightblue" points="189.751,-266.144 191.162,-255.644 183.511,-262.973 189.751,-266.144"/>
</g>
<!-- Node33 -->
<g id="node33" class="node"><title>Node33</title>
<g id="a_node33"><a xlink:href="../../d7/d82/stream__manager_8h.html" target="_top" xlink:title="networking/streams\l/stream_manager.h">
<polygon fill="none" stroke="black" points="190,-361 190,-391 292,-391 292,-361 190,-361"/>
<text text-anchor="start" x="198" y="-379" font-family="Helvetica,sans-Serif" font-size="10.00">networking/streams</text>
<text text-anchor="middle" x="241" y="-368" font-family="Helvetica,sans-Serif" font-size="10.00">/stream_manager.h</text>
</a>
</g>
</g>
<!-- Node3&#45;&gt;Node33 -->
<g id="edge40" class="edge"><title>Node3&#45;&gt;Node33</title>
<path fill="none" stroke="midnightblue" d="M1180.27,-437.336C1072.91,-438.53 651.825,-440.251 300.833,-392.435"/>
<polygon fill="midnightblue" stroke="midnightblue" points="301.115,-388.941 290.731,-391.042 300.159,-395.875 301.115,-388.941"/>
</g>
<!-- Node35 -->
<g id="node35" class="node"><title>Node35</title>
<g id="a_node35"><a xlink:href="../../d9/d99/processor_8h.html" target="_top" xlink:title="processing/processor.h">
<polygon fill="none" stroke="red" points="288,-236.5 288,-255.5 406,-255.5 406,-236.5 288,-236.5"/>
<text text-anchor="middle" x="347" y="-243.5" font-family="Helvetica,sans-Serif" font-size="10.00">processing/processor.h</text>
</a>
</g>
</g>
<!-- Node3&#45;&gt;Node35 -->
<g id="edge43" class="edge"><title>Node3&#45;&gt;Node35</title>
<path fill="none" stroke="midnightblue" d="M1180.43,-436.63C1040.89,-434.397 378.277,-421.799 348,-392 314.217,-358.75 324.629,-296.221 336.123,-265.287"/>
<polygon fill="midnightblue" stroke="midnightblue" points="339.48,-266.335 340.162,-255.762 333.035,-263.602 339.48,-266.335"/>
</g>
<!-- Node36 -->
<g id="node36" class="node"><title>Node36</title>
<g id="a_node36"><a xlink:href="../../d2/dd8/scheduler_8h.html" target="_top" xlink:title="processing/scheduler.h">
<polygon fill="none" stroke="red" points="366.5,-366.5 366.5,-385.5 483.5,-385.5 483.5,-366.5 366.5,-366.5"/>
<text text-anchor="middle" x="425" y="-373.5" font-family="Helvetica,sans-Serif" font-size="10.00">processing/scheduler.h</text>
</a>
</g>
</g>
<!-- Node3&#45;&gt;Node36 -->
<g id="edge47" class="edge"><title>Node3&#45;&gt;Node36</title>
<path fill="none" stroke="midnightblue" d="M1180.41,-436.841C1086.56,-435.948 754.196,-430.096 484,-392 476.176,-390.897 467.914,-389.379 460.099,-387.731"/>
<polygon fill="midnightblue" stroke="midnightblue" points="460.678,-384.274 450.155,-385.512 459.153,-391.106 460.678,-384.274"/>
</g>
<!-- Node37 -->
<g id="node37" class="node"><title>Node37</title>
<g id="a_node37"><a xlink:href="../../dd/d33/watcher_8h.html" target="_top" xlink:title="processing/watcher.h">
<polygon fill="none" stroke="black" points="502,-366.5 502,-385.5 612,-385.5 612,-366.5 502,-366.5"/>
<text text-anchor="middle" x="557" y="-373.5" font-family="Helvetica,sans-Serif" font-size="10.00">processing/watcher.h</text>
</a>
</g>
</g>
<!-- Node3&#45;&gt;Node37 -->
<g id="edge49" class="edge"><title>Node3&#45;&gt;Node37</title>
<path fill="none" stroke="midnightblue" d="M1180.24,-436.518C1097.04,-434.569 829.688,-425.679 612,-392 604.953,-390.91 597.533,-389.458 590.473,-387.886"/>
<polygon fill="midnightblue" stroke="midnightblue" points="591.009,-384.417 580.473,-385.526 589.401,-391.23 591.009,-384.417"/>
</g>
<!-- Node38 -->
<g id="node38" class="node"><title>Node38</title>
<g id="a_node38"><a xlink:href="../../d4/d1b/crypto__factory_8h.html" target="_top" xlink:title="crypto/crypto_factory.h">
<polygon fill="none" stroke="red" points="630.5,-366.5 630.5,-385.5 747.5,-385.5 747.5,-366.5 630.5,-366.5"/>
<text text-anchor="middle" x="689" y="-373.5" font-family="Helvetica,sans-Serif" font-size="10.00">crypto/crypto_factory.h</text>
</a>
</g>
</g>
<!-- Node3&#45;&gt;Node38 -->
<g id="edge51" class="edge"><title>Node3&#45;&gt;Node38</title>
<path fill="none" stroke="midnightblue" d="M1180.37,-435.763C1110.2,-431.847 910.551,-418.387 747,-392 739.638,-390.812 731.873,-389.309 724.472,-387.716"/>
<polygon fill="midnightblue" stroke="midnightblue" points="725.204,-384.293 714.679,-385.508 723.665,-391.122 725.204,-384.293"/>
</g>
<!-- Node39 -->
<g id="node39" class="node"><title>Node39</title>
<g id="a_node39"><a xlink:href="../../d3/dc3/proposal__keywords_8h.html" target="_top" xlink:title="crypto/proposal/proposal\l_keywords.h">
<polygon fill="none" stroke="red" points="765.5,-361 765.5,-391 888.5,-391 888.5,-361 765.5,-361"/>
<text text-anchor="start" x="773.5" y="-379" font-family="Helvetica,sans-Serif" font-size="10.00">crypto/proposal/proposal</text>
<text text-anchor="middle" x="827" y="-368" font-family="Helvetica,sans-Serif" font-size="10.00">_keywords.h</text>
</a>
</g>
</g>
<!-- Node3&#45;&gt;Node39 -->
<g id="edge53" class="edge"><title>Node3&#45;&gt;Node39</title>
<path fill="none" stroke="midnightblue" d="M1180.36,-434.424C1127.46,-428.374 1003.34,-412.35 892.776,-392.823"/>
<polygon fill="midnightblue" stroke="midnightblue" points="893.264,-389.354 882.805,-391.045 892.036,-396.246 893.264,-389.354"/>
</g>
<!-- Node40 -->
<g id="node40" class="node"><title>Node40</title>
<g id="a_node40"><a xlink:href="../../d3/db8/fetcher__manager_8h.html" target="_top" xlink:title="fetcher/fetcher_manager.h">
<polygon fill="none" stroke="red" points="906.5,-366.5 906.5,-385.5 1037.5,-385.5 1037.5,-366.5 906.5,-366.5"/>
<text text-anchor="middle" x="972" y="-373.5" font-family="Helvetica,sans-Serif" font-size="10.00">fetcher/fetcher_manager.h</text>
</a>
</g>
</g>
<!-- Node3&#45;&gt;Node40 -->
<g id="edge55" class="edge"><title>Node3&#45;&gt;Node40</title>
<path fill="none" stroke="midnightblue" d="M1180.06,-430.35C1140.18,-420.124 1063.36,-400.425 1015.04,-388.037"/>
<polygon fill="midnightblue" stroke="midnightblue" points="1015.75,-384.604 1005.19,-385.51 1014.01,-391.385 1015.75,-384.604"/>
</g>
<!-- Node41 -->
<g id="node41" class="node"><title>Node41</title>
<g id="a_node41"><a xlink:href="../../d0/d65/resolver__manager_8h.html" target="_top" xlink:title="resolver/resolver_manager.h">
<polygon fill="none" stroke="red" points="1056,-366.5 1056,-385.5 1196,-385.5 1196,-366.5 1056,-366.5"/>
<text text-anchor="middle" x="1126" y="-373.5" font-family="Helvetica,sans-Serif" font-size="10.00">resolver/resolver_manager.h</text>
</a>
</g>
</g>
<!-- Node3&#45;&gt;Node41 -->
<g id="edge56" class="edge"><title>Node3&#45;&gt;Node41</title>
<path fill="none" stroke="midnightblue" d="M1194.54,-428.403C1181.83,-418.869 1161.09,-403.315 1145.75,-391.811"/>
<polygon fill="midnightblue" stroke="midnightblue" points="1147.54,-388.781 1137.44,-385.581 1143.34,-394.381 1147.54,-388.781"/>
</g>
<!-- Node42 -->
<g id="node42" class="node"><title>Node42</title>
<g id="a_node42"><a xlink:href="../../d7/db6/database__factory_8h.html" target="_top" xlink:title="database/database_factory.h">
<polygon fill="none" stroke="red" points="1214.5,-366.5 1214.5,-385.5 1357.5,-385.5 1357.5,-366.5 1214.5,-366.5"/>
<text text-anchor="middle" x="1286" y="-373.5" font-family="Helvetica,sans-Serif" font-size="10.00">database/database_factory.h</text>
</a>
</g>
</g>
<!-- Node3&#45;&gt;Node42 -->
<g id="edge57" class="edge"><title>Node3&#45;&gt;Node42</title>
<path fill="none" stroke="midnightblue" d="M1217.46,-428.403C1230.17,-418.869 1250.91,-403.315 1266.25,-391.811"/>
<polygon fill="midnightblue" stroke="midnightblue" points="1268.66,-394.381 1274.56,-385.581 1264.46,-388.781 1268.66,-394.381"/>
</g>
<!-- Node43 -->
<g id="node43" class="node"><title>Node43</title>
<g id="a_node43"><a xlink:href="../../d3/dc9/credential__factory_8h.html" target="_top" xlink:title="credentials/credential\l_factory.h">
<polygon fill="none" stroke="red" points="1375.5,-361 1375.5,-391 1484.5,-391 1484.5,-361 1375.5,-361"/>
<text text-anchor="start" x="1383.5" y="-379" font-family="Helvetica,sans-Serif" font-size="10.00">credentials/credential</text>
<text text-anchor="middle" x="1430" y="-368" font-family="Helvetica,sans-Serif" font-size="10.00">_factory.h</text>
</a>
</g>
</g>
<!-- Node3&#45;&gt;Node43 -->
<g id="edge58" class="edge"><title>Node3&#45;&gt;Node43</title>
<path fill="none" stroke="midnightblue" d="M1231.7,-430.117C1264.6,-421.303 1322.73,-405.734 1367.57,-393.722"/>
<polygon fill="midnightblue" stroke="midnightblue" points="1368.75,-397.031 1377.5,-391.063 1366.93,-390.269 1368.75,-397.031"/>
</g>
<!-- Node44 -->
<g id="node44" class="node"><title>Node44</title>
<g id="a_node44"><a xlink:href="../../d1/db3/credential__manager_8h.html" target="_top" xlink:title="credentials/credential\l_manager.h">
<polygon fill="none" stroke="red" points="1502.5,-361 1502.5,-391 1611.5,-391 1611.5,-361 1502.5,-361"/>
<text text-anchor="start" x="1510.5" y="-379" font-family="Helvetica,sans-Serif" font-size="10.00">credentials/credential</text>
<text text-anchor="middle" x="1557" y="-368" font-family="Helvetica,sans-Serif" font-size="10.00">_manager.h</text>
</a>
</g>
</g>
<!-- Node3&#45;&gt;Node44 -->
<g id="edge59" class="edge"><title>Node3&#45;&gt;Node44</title>
<path fill="none" stroke="midnightblue" d="M1231.84,-433.608C1280.69,-427.055 1390.1,-411.706 1492.37,-392.034"/>
<polygon fill="midnightblue" stroke="midnightblue" points="1493.1,-395.459 1502.25,-390.117 1491.76,-388.587 1493.1,-395.459"/>
</g>
<!-- Node45 -->
<g id="node45" class="node"><title>Node45</title>
<g id="a_node45"><a xlink:href="../../d6/d2f/cred__encoding_8h.html" target="_top" xlink:title="credentials/cred_encoding.h">
<polygon fill="none" stroke="black" points="1630,-366.5 1630,-385.5 1768,-385.5 1768,-366.5 1630,-366.5"/>
<text text-anchor="middle" x="1699" y="-373.5" font-family="Helvetica,sans-Serif" font-size="10.00">credentials/cred_encoding.h</text>
</a>
</g>
</g>
<!-- Node3&#45;&gt;Node45 -->
<g id="edge60" class="edge"><title>Node3&#45;&gt;Node45</title>
<path fill="none" stroke="midnightblue" d="M1231.53,-434.542C1295.74,-428.792 1467.98,-413.316 1611,-392 1619.92,-390.67 1629.38,-389.056 1638.67,-387.385"/>
<polygon fill="midnightblue" stroke="midnightblue" points="1639.44,-390.801 1648.65,-385.561 1638.19,-383.915 1639.44,-390.801"/>
</g>
<!-- Node46 -->
<g id="node46" class="node"><title>Node46</title>
<g id="a_node46"><a xlink:href="../../d8/d14/capabilities_8h.html" target="_top" xlink:title="utils/capabilities.h">
<polygon fill="none" stroke="black" points="1786.5,-366.5 1786.5,-385.5 1881.5,-385.5 1881.5,-366.5 1786.5,-366.5"/>
<text text-anchor="middle" x="1834" y="-373.5" font-family="Helvetica,sans-Serif" font-size="10.00">utils/capabilities.h</text>
</a>
</g>
</g>
<!-- Node3&#45;&gt;Node46 -->
<g id="edge63" class="edge"><title>Node3&#45;&gt;Node46</title>
<path fill="none" stroke="midnightblue" d="M1231.56,-436.527C1311.58,-434.772 1562.85,-426.79 1768,-392 1774.16,-390.956 1780.62,-389.557 1787.01,-388.032"/>
<polygon fill="midnightblue" stroke="midnightblue" points="1788.08,-391.372 1796.94,-385.564 1786.4,-384.578 1788.08,-391.372"/>
</g>
<!-- Node47 -->
<g id="node47" class="node"><title>Node47</title>
<g id="a_node47"><a xlink:href="../../df/d43/integrity__checker_8h.html" target="_top" xlink:title="utils/integrity_checker.h">
<polygon fill="none" stroke="black" points="2086,-298.5 2086,-317.5 2206,-317.5 2206,-298.5 2086,-298.5"/>
<text text-anchor="middle" x="2146" y="-305.5" font-family="Helvetica,sans-Serif" font-size="10.00">utils/integrity_checker.h</text>
</a>
</g>
</g>
<!-- Node3&#45;&gt;Node47 -->
<g id="edge65" class="edge"><title>Node3&#45;&gt;Node47</title>
<path fill="none" stroke="midnightblue" d="M1231.84,-436.814C1383.82,-435.597 2155.93,-427.667 2190,-392 2209.01,-372.1 2183.84,-342.37 2164.47,-324.417"/>
<polygon fill="midnightblue" stroke="midnightblue" points="2166.73,-321.743 2156.93,-317.723 2162.09,-326.978 2166.73,-321.743"/>
</g>
<!-- Node48 -->
<g id="node48" class="node"><title>Node48</title>
<g id="a_node48"><a xlink:href="../../de/d86/leak__detective_8h.html" target="_top" xlink:title="utils/leak_detective.h">
<polygon fill="none" stroke="red" points="1938.5,-366.5 1938.5,-385.5 2047.5,-385.5 2047.5,-366.5 1938.5,-366.5"/>
<text text-anchor="middle" x="1993" y="-373.5" font-family="Helvetica,sans-Serif" font-size="10.00">utils/leak_detective.h</text>
</a>
</g>
</g>
<!-- Node3&#45;&gt;Node48 -->
<g id="edge67" class="edge"><title>Node3&#45;&gt;Node48</title>
<path fill="none" stroke="midnightblue" d="M1231.54,-436.752C1324.13,-435.585 1649.34,-428.983 1915,-392 1923.2,-390.858 1931.88,-389.274 1940.38,-387.561"/>
<polygon fill="midnightblue" stroke="midnightblue" points="1941.16,-390.974 1950.23,-385.509 1939.73,-384.121 1941.16,-390.974"/>
</g>
<!-- Node49 -->
<g id="node49" class="node"><title>Node49</title>
<g id="a_node49"><a xlink:href="../../de/db6/plugin__loader_8h.html" target="_top" xlink:title="plugins/plugin_loader.h">
<polygon fill="none" stroke="red" points="2066,-366.5 2066,-385.5 2182,-385.5 2182,-366.5 2066,-366.5"/>
<text text-anchor="middle" x="2124" y="-373.5" font-family="Helvetica,sans-Serif" font-size="10.00">plugins/plugin_loader.h</text>
</a>
</g>
</g>
<!-- Node3&#45;&gt;Node49 -->
<g id="edge69" class="edge"><title>Node3&#45;&gt;Node49</title>
<path fill="none" stroke="midnightblue" d="M1231.52,-437.173C1334.95,-437.552 1732.75,-435.906 2056,-392 2064.09,-390.901 2072.65,-389.338 2080.86,-387.632"/>
<polygon fill="midnightblue" stroke="midnightblue" points="2081.62,-391.048 2090.65,-385.502 2080.13,-384.208 2081.62,-391.048"/>
</g>
<!-- Node50 -->
<g id="node50" class="node"><title>Node50</title>
<g id="a_node50"><a xlink:href="../../de/d60/settings_8h.html" target="_top" xlink:title="settings/settings.h">
<polygon fill="none" stroke="red" points="2114.5,-236.5 2114.5,-255.5 2211.5,-255.5 2211.5,-236.5 2114.5,-236.5"/>
<text text-anchor="middle" x="2163" y="-243.5" font-family="Helvetica,sans-Serif" font-size="10.00">settings/settings.h</text>
</a>
</g>
</g>
<!-- Node3&#45;&gt;Node50 -->
<g id="edge70" class="edge"><title>Node3&#45;&gt;Node50</title>
<path fill="none" stroke="midnightblue" d="M1231.73,-436.783C1384.83,-435.374 2170.47,-426.48 2207,-392 2239.4,-361.417 2232.33,-332.61 2214,-292 2208.38,-279.555 2197.44,-269.172 2187.12,-261.527"/>
<polygon fill="midnightblue" stroke="midnightblue" points="2188.96,-258.543 2178.73,-255.764 2184.99,-264.312 2188.96,-258.543"/>
</g>
<!-- Node5 -->
<g id="node5" class="node"><title>Node5</title>
<polygon fill="none" stroke="#bfbfbf" points="573,-0.5 573,-19.5 621,-19.5 621,-0.5 573,-0.5"/>
<text text-anchor="middle" x="597" y="-7.5" font-family="Helvetica,sans-Serif" font-size="10.00">stdlib.h</text>
</g>
<!-- Node4&#45;&gt;Node5 -->
<g id="edge4" class="edge"><title>Node4&#45;&gt;Node5</title>
<path fill="none" stroke="midnightblue" d="M2006.8,-68.7393C1767.47,-58.9375 822.951,-20.254 631.107,-12.3969"/>
<polygon fill="midnightblue" stroke="midnightblue" points="631.178,-8.89694 621.043,-11.9847 630.891,-15.8911 631.178,-8.89694"/>
</g>
<!-- Node6&#45;&gt;Node5 -->
<g id="edge7" class="edge"><title>Node6&#45;&gt;Node5</title>
<path fill="none" stroke="midnightblue" d="M1138.99,-187.359C1085.4,-183.866 974.663,-173.435 886,-144 867.887,-137.987 865.154,-132.366 848,-124 768.801,-85.3757 673.479,-43.7696 626.345,-23.5139"/>
<polygon fill="midnightblue" stroke="midnightblue" points="627.611,-20.2488 617.041,-19.5243 624.852,-26.6823 627.611,-20.2488"/>
</g>
<!-- Node7 -->
<g id="node7" class="node"><title>Node7</title>
<polygon fill="none" stroke="#bfbfbf" points="162,-124.5 162,-143.5 230,-143.5 230,-124.5 162,-124.5"/>
<text text-anchor="middle" x="196" y="-131.5" font-family="Helvetica,sans-Serif" font-size="10.00">sys/types.h</text>
</g>
<!-- Node6&#45;&gt;Node7 -->
<g id="edge6" class="edge"><title>Node6&#45;&gt;Node7</title>
<path fill="none" stroke="midnightblue" d="M1138.8,-187.299C1028.43,-181.458 655.242,-161.603 347,-144 311.116,-141.951 270.442,-139.52 240.356,-137.702"/>
<polygon fill="midnightblue" stroke="midnightblue" points="240.374,-134.197 230.181,-137.086 239.951,-141.184 240.374,-134.197"/>
</g>
<!-- Node8 -->
<g id="node8" class="node"><title>Node8</title>
<polygon fill="none" stroke="#bfbfbf" points="1716,-124.5 1716,-143.5 1768,-143.5 1768,-124.5 1716,-124.5"/>
<text text-anchor="middle" x="1742" y="-131.5" font-family="Helvetica,sans-Serif" font-size="10.00">stddef.h</text>
</g>
<!-- Node6&#45;&gt;Node8 -->
<g id="edge8" class="edge"><title>Node6&#45;&gt;Node8</title>
<path fill="none" stroke="midnightblue" d="M1203.18,-188.098C1285.32,-185.414 1509.43,-175.688 1705.83,-143.718"/>
<polygon fill="midnightblue" stroke="midnightblue" points="1706.46,-147.162 1715.76,-142.08 1705.32,-140.256 1706.46,-147.162"/>
</g>
<!-- Node9 -->
<g id="node9" class="node"><title>Node9</title>
<polygon fill="none" stroke="#bfbfbf" points="1786,-124.5 1786,-143.5 1848,-143.5 1848,-124.5 1786,-124.5"/>
<text text-anchor="middle" x="1817" y="-131.5" font-family="Helvetica,sans-Serif" font-size="10.00">sys/time.h</text>
</g>
<!-- Node6&#45;&gt;Node9 -->
<g id="edge9" class="edge"><title>Node6&#45;&gt;Node9</title>
<path fill="none" stroke="midnightblue" d="M1203.05,-188.28C1292.32,-185.922 1551.43,-176.689 1775.66,-143.989"/>
<polygon fill="midnightblue" stroke="midnightblue" points="1776.26,-147.439 1785.64,-142.514 1775.24,-140.514 1776.26,-147.439"/>
</g>
<!-- Node10 -->
<g id="node10" class="node"><title>Node10</title>
<g id="a_node10"><a xlink:href="../../da/d66/string_8h.html" target="_top" xlink:title="string.h">
<polygon fill="none" stroke="black" points="356.5,-124.5 356.5,-143.5 405.5,-143.5 405.5,-124.5 356.5,-124.5"/>
<text text-anchor="middle" x="381" y="-131.5" font-family="Helvetica,sans-Serif" font-size="10.00">string.h</text>
</a>
</g>
</g>
<!-- Node6&#45;&gt;Node10 -->
<g id="edge10" class="edge"><title>Node6&#45;&gt;Node10</title>
<path fill="none" stroke="midnightblue" d="M1138.64,-189.455C1034.64,-190.418 699.669,-189.635 415.82,-143.982"/>
<polygon fill="midnightblue" stroke="midnightblue" points="416.178,-140.494 405.745,-142.339 415.051,-147.403 416.178,-140.494"/>
</g>
<!-- Node11 -->
<g id="node11" class="node"><title>Node11</title>
<polygon fill="none" stroke="#bfbfbf" points="1866,-124.5 1866,-143.5 1928,-143.5 1928,-124.5 1866,-124.5"/>
<text text-anchor="middle" x="1897" y="-131.5" font-family="Helvetica,sans-Serif" font-size="10.00">arpa/inet.h</text>
</g>
<!-- Node6&#45;&gt;Node11 -->
<g id="edge11" class="edge"><title>Node6&#45;&gt;Node11</title>
<path fill="none" stroke="midnightblue" d="M1203.28,-188.601C1300.38,-187.038 1598.43,-179.584 1855.47,-143.816"/>
<polygon fill="midnightblue" stroke="midnightblue" points="1856.34,-147.229 1865.75,-142.368 1855.36,-140.298 1856.34,-147.229"/>
</g>
<!-- Node12 -->
<g id="node12" class="node"><title>Node12</title>
<polygon fill="none" stroke="#bfbfbf" points="1946.5,-124.5 1946.5,-143.5 2019.5,-143.5 2019.5,-124.5 1946.5,-124.5"/>
<text text-anchor="middle" x="1983" y="-131.5" font-family="Helvetica,sans-Serif" font-size="10.00">sys/socket.h</text>
</g>
<!-- Node6&#45;&gt;Node12 -->
<g id="edge12" class="edge"><title>Node6&#45;&gt;Node12</title>
<path fill="none" stroke="midnightblue" d="M1203.2,-188.607C1308.72,-186.998 1653.48,-179.207 1936,-144 1936.11,-143.987 1936.21,-143.974 1936.32,-143.96"/>
<polygon fill="midnightblue" stroke="midnightblue" points="1936.99,-147.399 1946.38,-142.49 1935.98,-140.472 1936.99,-147.399"/>
</g>
<!-- Node13 -->
<g id="node13" class="node"><title>Node13</title>
<polygon fill="none" stroke="#bfbfbf" points="423.5,-124.5 423.5,-143.5 472.5,-143.5 472.5,-124.5 423.5,-124.5"/>
<text text-anchor="middle" x="448" y="-131.5" font-family="Helvetica,sans-Serif" font-size="10.00">netdb.h</text>
</g>
<!-- Node6&#45;&gt;Node13 -->
<g id="edge13" class="edge"><title>Node6&#45;&gt;Node13</title>
<path fill="none" stroke="midnightblue" d="M1138.75,-189.189C1041.01,-189.28 739.504,-186.01 482.634,-143.964"/>
<polygon fill="midnightblue" stroke="midnightblue" points="483.186,-140.508 472.747,-142.323 482.039,-147.414 483.186,-140.508"/>
</g>
<!-- Node14 -->
<g id="node14" class="node"><title>Node14</title>
<polygon fill="none" stroke="#bfbfbf" points="490.5,-124.5 490.5,-143.5 555.5,-143.5 555.5,-124.5 490.5,-124.5"/>
<text text-anchor="middle" x="523" y="-131.5" font-family="Helvetica,sans-Serif" font-size="10.00">netinet/in.h</text>
</g>
<!-- Node6&#45;&gt;Node14 -->
<g id="edge14" class="edge"><title>Node6&#45;&gt;Node14</title>
<path fill="none" stroke="midnightblue" d="M1138.91,-188.225C1049.51,-185.728 790.025,-176.168 565.583,-144.041"/>
<polygon fill="midnightblue" stroke="midnightblue" points="565.996,-140.564 555.597,-142.593 564.991,-147.492 565.996,-140.564"/>
</g>
<!-- Node15 -->
<g id="node15" class="node"><title>Node15</title>
<polygon fill="none" stroke="#bfbfbf" points="573.5,-124.5 573.5,-143.5 624.5,-143.5 624.5,-124.5 573.5,-124.5"/>
<text text-anchor="middle" x="599" y="-131.5" font-family="Helvetica,sans-Serif" font-size="10.00">sched.h</text>
</g>
<!-- Node6&#45;&gt;Node15 -->
<g id="edge15" class="edge"><title>Node6&#45;&gt;Node15</title>
<path fill="none" stroke="midnightblue" d="M1138.99,-188.192C1056.77,-185.719 831.441,-176.435 634.459,-143.762"/>
<polygon fill="midnightblue" stroke="midnightblue" points="634.95,-140.296 624.508,-142.087 633.788,-147.199 634.95,-140.296"/>
</g>
<!-- Node16 -->
<g id="node16" class="node"><title>Node16</title>
<polygon fill="none" stroke="#bfbfbf" points="643,-124.5 643,-143.5 683,-143.5 683,-124.5 643,-124.5"/>
<text text-anchor="middle" x="663" y="-131.5" font-family="Helvetica,sans-Serif" font-size="10.00">poll.h</text>
</g>
<!-- Node6&#45;&gt;Node16 -->
<g id="edge16" class="edge"><title>Node6&#45;&gt;Node16</title>
<path fill="none" stroke="midnightblue" d="M1138.72,-188.269C1062.52,-186.057 865.551,-177.49 693.155,-143.826"/>
<polygon fill="midnightblue" stroke="midnightblue" points="693.634,-140.353 683.143,-141.837 692.27,-147.219 693.634,-140.353"/>
</g>
<!-- Node17 -->
<g id="node17" class="node"><title>Node17</title>
<polygon fill="none" stroke="#bfbfbf" points="701,-124.5 701,-143.5 751,-143.5 751,-124.5 701,-124.5"/>
<text text-anchor="middle" x="726" y="-131.5" font-family="Helvetica,sans-Serif" font-size="10.00">signal.h</text>
</g>
<!-- Node6&#45;&gt;Node17 -->
<g id="edge17" class="edge"><title>Node6&#45;&gt;Node17</title>
<path fill="none" stroke="midnightblue" d="M1138.79,-187.12C1070.74,-182.796 907.29,-170.558 761.197,-143.964"/>
<polygon fill="midnightblue" stroke="midnightblue" points="761.625,-140.484 751.156,-142.108 760.353,-147.367 761.625,-140.484"/>
</g>
<!-- Node18 -->
<g id="node18" class="node"><title>Node18</title>
<g id="a_node18"><a xlink:href="../../d9/d49/types_8h.html" target="_top" xlink:title="utils/types.h">
<polygon fill="none" stroke="black" points="769,-124.5 769,-143.5 839,-143.5 839,-124.5 769,-124.5"/>
<text text-anchor="middle" x="804" y="-131.5" font-family="Helvetica,sans-Serif" font-size="10.00">utils/types.h</text>
</a>
</g>
</g>
<!-- Node6&#45;&gt;Node18 -->
<g id="edge18" class="edge"><title>Node6&#45;&gt;Node18</title>
<path fill="none" stroke="midnightblue" d="M1138.89,-184.899C1081.43,-177.464 957.294,-160.95 853,-144 851.727,-143.793 850.437,-143.58 849.135,-143.362"/>
<polygon fill="midnightblue" stroke="midnightblue" points="849.484,-139.87 839.033,-141.615 848.291,-146.768 849.484,-139.87"/>
</g>
<!-- Node19 -->
<g id="node19" class="node"><title>Node19</title>
<g id="a_node19"><a xlink:href="../../d0/d9b/enum_8h.html" target="_top" xlink:title="enum.h">
<polygon fill="none" stroke="black" points="2037.5,-124.5 2037.5,-143.5 2086.5,-143.5 2086.5,-124.5 2037.5,-124.5"/>
<text text-anchor="middle" x="2062" y="-131.5" font-family="Helvetica,sans-Serif" font-size="10.00">enum.h</text>
</a>
</g>
</g>
<!-- Node6&#45;&gt;Node19 -->
<g id="edge19" class="edge"><title>Node6&#45;&gt;Node19</title>
<path fill="none" stroke="midnightblue" d="M1203.23,-188.198C1336.43,-184.748 1845.07,-170.214 2027.26,-143.701"/>
<polygon fill="midnightblue" stroke="midnightblue" points="2027.88,-147.148 2037.24,-142.185 2026.83,-140.227 2027.88,-147.148"/>
</g>
<!-- Node20 -->
<g id="node20" class="node"><title>Node20</title>
<g id="a_node20"><a xlink:href="../../d8/d19/atomics_8h.html" target="_top" xlink:title="utils/atomics.h">
<polygon fill="none" stroke="black" points="895,-124.5 895,-143.5 975,-143.5 975,-124.5 895,-124.5"/>
<text text-anchor="middle" x="935" y="-131.5" font-family="Helvetica,sans-Serif" font-size="10.00">utils/atomics.h</text>
</a>
</g>
</g>
<!-- Node6&#45;&gt;Node20 -->
<g id="edge21" class="edge"><title>Node6&#45;&gt;Node20</title>
<path fill="none" stroke="midnightblue" d="M1138.68,-181.605C1098.22,-172.347 1028.61,-156.419 982.193,-145.798"/>
<polygon fill="midnightblue" stroke="midnightblue" points="982.899,-142.37 972.37,-143.551 981.338,-149.193 982.899,-142.37"/>
</g>
<!-- Node21 -->
<g id="node21" class="node"><title>Node21</title>
<g id="a_node21"><a xlink:href="../../d1/ddf/align_8h.html" target="_top" xlink:title="utils/align.h">
<polygon fill="none" stroke="black" points="993,-124.5 993,-143.5 1059,-143.5 1059,-124.5 993,-124.5"/>
<text text-anchor="middle" x="1026" y="-131.5" font-family="Helvetica,sans-Serif" font-size="10.00">utils/align.h</text>
</a>
</g>
</g>
<!-- Node6&#45;&gt;Node21 -->
<g id="edge22" class="edge"><title>Node6&#45;&gt;Node21</title>
<path fill="none" stroke="midnightblue" d="M1148.02,-180.444C1123.84,-171.438 1085.58,-157.189 1058.35,-147.049"/>
<polygon fill="midnightblue" stroke="midnightblue" points="1059.46,-143.727 1048.87,-143.516 1057.02,-150.286 1059.46,-143.727"/>
</g>
<!-- Node22 -->
<g id="node22" class="node"><title>Node22</title>
<g id="a_node22"><a xlink:href="../../d5/d17/byteorder_8h.html" target="_top" xlink:title="utils/byteorder.h">
<polygon fill="none" stroke="black" points="1077,-124.5 1077,-143.5 1163,-143.5 1163,-124.5 1077,-124.5"/>
<text text-anchor="middle" x="1120" y="-131.5" font-family="Helvetica,sans-Serif" font-size="10.00">utils/byteorder.h</text>
</a>
</g>
</g>
<!-- Node6&#45;&gt;Node22 -->
<g id="edge23" class="edge"><title>Node6&#45;&gt;Node22</title>
<path fill="none" stroke="midnightblue" d="M1162.58,-180.083C1155.15,-172.22 1144.15,-160.569 1135.19,-151.081"/>
<polygon fill="midnightblue" stroke="midnightblue" points="1137.68,-148.618 1128.26,-143.751 1132.59,-153.424 1137.68,-148.618"/>
</g>
<!-- Node23 -->
<g id="node23" class="node"><title>Node23</title>
<g id="a_node23"><a xlink:href="../../dc/d18/memory_8h.html" target="_top" xlink:title="utils/memory.h">
<polygon fill="none" stroke="black" points="1181.5,-124.5 1181.5,-143.5 1262.5,-143.5 1262.5,-124.5 1181.5,-124.5"/>
<text text-anchor="middle" x="1222" y="-131.5" font-family="Helvetica,sans-Serif" font-size="10.00">utils/memory.h</text>
</a>
</g>
</g>
<!-- Node6&#45;&gt;Node23 -->
<g id="edge24" class="edge"><title>Node6&#45;&gt;Node23</title>
<path fill="none" stroke="midnightblue" d="M1179.42,-180.083C1186.85,-172.22 1197.85,-160.569 1206.81,-151.081"/>
<polygon fill="midnightblue" stroke="midnightblue" points="1209.41,-153.424 1213.74,-143.751 1204.32,-148.618 1209.41,-153.424"/>
</g>
<!-- Node24 -->
<g id="node24" class="node"><title>Node24</title>
<g id="a_node24"><a xlink:href="../../d9/dd1/strerror_8h.html" target="_top" xlink:title="utils/strerror.h">
<polygon fill="none" stroke="black" points="1280.5,-124.5 1280.5,-143.5 1357.5,-143.5 1357.5,-124.5 1280.5,-124.5"/>
<text text-anchor="middle" x="1319" y="-131.5" font-family="Helvetica,sans-Serif" font-size="10.00">utils/strerror.h</text>
</a>
</g>
</g>
<!-- Node6&#45;&gt;Node24 -->
<g id="edge25" class="edge"><title>Node6&#45;&gt;Node24</title>
<path fill="none" stroke="midnightblue" d="M1194.45,-180.444C1219.13,-171.438 1258.19,-157.189 1285.98,-147.049"/>
<polygon fill="midnightblue" stroke="midnightblue" points="1287.46,-150.232 1295.66,-143.516 1285.06,-143.656 1287.46,-150.232"/>
</g>
<!-- Node25 -->
<g id="node25" class="node"><title>Node25</title>
<g id="a_node25"><a xlink:href="../../d1/d13/status_8h.html" target="_top" xlink:title="utils/status.h">
<polygon fill="none" stroke="black" points="1375.5,-124.5 1375.5,-143.5 1448.5,-143.5 1448.5,-124.5 1375.5,-124.5"/>
<text text-anchor="middle" x="1412" y="-131.5" font-family="Helvetica,sans-Serif" font-size="10.00">utils/status.h</text>
</a>
</g>
</g>
<!-- Node6&#45;&gt;Node25 -->
<g id="edge26" class="edge"><title>Node6&#45;&gt;Node25</title>
<path fill="none" stroke="midnightblue" d="M1203,-181.829C1244.6,-172.508 1317.56,-156.16 1365.33,-145.457"/>
<polygon fill="midnightblue" stroke="midnightblue" points="1366.13,-148.865 1375.12,-143.263 1364.6,-142.034 1366.13,-148.865"/>
</g>
<!-- Node26 -->
<g id="node26" class="node"><title>Node26</title>
<g id="a_node26"><a xlink:href="../../de/d10/object_8h.html" target="_top" xlink:title="utils/object.h">
<polygon fill="none" stroke="black" points="1467,-124.5 1467,-143.5 1539,-143.5 1539,-124.5 1467,-124.5"/>
<text text-anchor="middle" x="1503" y="-131.5" font-family="Helvetica,sans-Serif" font-size="10.00">utils/object.h</text>
</a>
</g>
</g>
<!-- Node6&#45;&gt;Node26 -->
<g id="edge27" class="edge"><title>Node6&#45;&gt;Node26</title>
<path fill="none" stroke="midnightblue" d="M1203.23,-184.327C1256.26,-176.551 1365.18,-160.2 1457,-144 1457.1,-143.982 1457.2,-143.965 1457.3,-143.947"/>
<polygon fill="midnightblue" stroke="midnightblue" points="1457.66,-147.44 1466.86,-142.202 1456.4,-140.554 1457.66,-147.44"/>
</g>
<!-- Node27 -->
<g id="node27" class="node"><title>Node27</title>
<g id="a_node27"><a xlink:href="../../d7/dd4/path_8h.html" target="_top" xlink:title="utils/path.h">
<polygon fill="none" stroke="black" points="1557.5,-124.5 1557.5,-143.5 1622.5,-143.5 1622.5,-124.5 1557.5,-124.5"/>
<text text-anchor="middle" x="1590" y="-131.5" font-family="Helvetica,sans-Serif" font-size="10.00">utils/path.h</text>
</a>
</g>
</g>
<!-- Node6&#45;&gt;Node27 -->
<g id="edge28" class="edge"><title>Node6&#45;&gt;Node27</title>
<path fill="none" stroke="midnightblue" d="M1203.17,-186.171C1266.85,-180.352 1413.65,-165.863 1547.48,-143.935"/>
<polygon fill="midnightblue" stroke="midnightblue" points="1548.2,-147.362 1557.5,-142.275 1547.06,-140.456 1548.2,-147.362"/>
</g>
<!-- Node6&#45;&gt;Node28 -->
<g id="edge29" class="edge"><title>Node6&#45;&gt;Node28</title>
<path fill="none" stroke="midnightblue" d="M1203.07,-187.528C1367.63,-179.971 2116.93,-145.565 2304.39,-136.957"/>
<polygon fill="midnightblue" stroke="midnightblue" points="2304.58,-140.452 2314.41,-136.497 2304.26,-133.459 2304.58,-140.452"/>
</g>
<!-- Node29 -->
<g id="node29" class="node"><title>Node29</title>
<g id="a_node29"><a xlink:href="../../dd/d71/tty_8h.html" target="_top" xlink:title="utils/tty.h">
<polygon fill="none" stroke="black" points="1640.5,-124.5 1640.5,-143.5 1697.5,-143.5 1697.5,-124.5 1640.5,-124.5"/>
<text text-anchor="middle" x="1669" y="-131.5" font-family="Helvetica,sans-Serif" font-size="10.00">utils/tty.h</text>
</a>
</g>
</g>
<!-- Node6&#45;&gt;Node29 -->
<g id="edge30" class="edge"><title>Node6&#45;&gt;Node29</title>
<path fill="none" stroke="midnightblue" d="M1203.26,-187.346C1277.11,-183.24 1464.21,-171.021 1630.54,-143.841"/>
<polygon fill="midnightblue" stroke="midnightblue" points="1631.16,-147.286 1640.45,-142.198 1630.01,-140.38 1631.16,-147.286"/>
</g>
<!-- Node19&#45;&gt;Node4 -->
<g id="edge20" class="edge"><title>Node19&#45;&gt;Node4</title>
<path fill="none" stroke="midnightblue" d="M2062,-124.403C2062,-117.341 2062,-106.975 2062,-97.399"/>
<polygon fill="midnightblue" stroke="midnightblue" points="2065.5,-97.1408 2062,-87.1408 2058.5,-97.1408 2065.5,-97.1408"/>
</g>
<!-- Node31 -->
<g id="node31" class="node"><title>Node31</title>
<g id="a_node31"><a xlink:href="../../df/ded/host_8h.html" target="_top" xlink:title="host.h">
<polygon fill="none" stroke="red" points="90,-298.5 90,-317.5 134,-317.5 134,-298.5 90,-298.5"/>
<text text-anchor="middle" x="112" y="-305.5" font-family="Helvetica,sans-Serif" font-size="10.00">host.h</text>
</a>
</g>
</g>
<!-- Node30&#45;&gt;Node31 -->
<g id="edge32" class="edge"><title>Node30&#45;&gt;Node31</title>
<path fill="none" stroke="midnightblue" d="M72.883,-366.372C79.7844,-356.25 91.3986,-339.215 100.183,-326.331"/>
<polygon fill="midnightblue" stroke="midnightblue" points="103.23,-328.075 105.972,-317.841 97.4468,-324.132 103.23,-328.075"/>
</g>
<!-- Node31&#45;&gt;Node5 -->
<g id="edge38" class="edge"><title>Node31&#45;&gt;Node5</title>
<path fill="none" stroke="midnightblue" d="M109.72,-298.34C104.877,-279.155 94,-231.556 94,-191 94,-191 94,-191 94,-133 94,-36.3742 448.991,-15.9955 562.526,-11.9488"/>
<polygon fill="midnightblue" stroke="midnightblue" points="562.862,-15.4396 572.739,-11.6062 562.628,-8.44354 562.862,-15.4396"/>
</g>
<!-- Node31&#45;&gt;Node6 -->
<g id="edge33" class="edge"><title>Node31&#45;&gt;Node6</title>
<path fill="none" stroke="midnightblue" d="M134.216,-299.049C160.167,-289.572 204.233,-272.884 241,-256 258.344,-248.036 260.593,-241.044 279,-236 441.998,-191.337 974.191,-190.108 1128.63,-190.728"/>
<polygon fill="midnightblue" stroke="midnightblue" points="1128.65,-194.228 1138.67,-190.773 1128.68,-187.228 1128.65,-194.228"/>
</g>
<!-- Node31&#45;&gt;Node7 -->
<g id="edge39" class="edge"><title>Node31&#45;&gt;Node7</title>
<path fill="none" stroke="midnightblue" d="M116.281,-298.234C129.426,-271.317 169.395,-189.476 187.237,-152.942"/>
<polygon fill="midnightblue" stroke="midnightblue" points="190.584,-154.066 191.827,-143.544 184.294,-150.994 190.584,-154.066"/>
</g>
<!-- Node31&#45;&gt;Node32 -->
<g id="edge34" class="edge"><title>Node31&#45;&gt;Node32</title>
<path fill="none" stroke="midnightblue" d="M124.035,-298.403C137.508,-288.78 159.566,-273.024 175.715,-261.489"/>
<polygon fill="midnightblue" stroke="midnightblue" points="177.884,-264.241 183.987,-255.581 173.815,-258.545 177.884,-264.241"/>
</g>
<!-- Node32&#45;&gt;Node6 -->
<g id="edge37" class="edge"><title>Node32&#45;&gt;Node6</title>
<path fill="none" stroke="midnightblue" d="M232.239,-237.908C236.858,-237.172 241.531,-236.509 246,-236 585.069,-197.401 997.753,-191.873 1128.9,-191.112"/>
<polygon fill="midnightblue" stroke="midnightblue" points="1128.95,-194.612 1138.93,-191.06 1128.91,-187.612 1128.95,-194.612"/>
</g>
<!-- Node32&#45;&gt;Node7 -->
<g id="edge36" class="edge"><title>Node32&#45;&gt;Node7</title>
<path fill="none" stroke="midnightblue" d="M196,-236.368C196,-218.617 196,-177.666 196,-153.597"/>
<polygon fill="midnightblue" stroke="midnightblue" points="199.5,-153.591 196,-143.591 192.5,-153.591 199.5,-153.591"/>
</g>
<!-- Node32&#45;&gt;Node10 -->
<g id="edge35" class="edge"><title>Node32&#45;&gt;Node10</title>
<path fill="none" stroke="midnightblue" d="M210.517,-236.368C242.398,-217.412 318.772,-172.001 357.551,-148.942"/>
<polygon fill="midnightblue" stroke="midnightblue" points="359.744,-151.711 366.551,-143.591 356.167,-145.694 359.744,-151.711"/>
</g>
<!-- Node33&#45;&gt;Node3 -->
<g id="edge41" class="edge"><title>Node33&#45;&gt;Node3</title>
<path fill="none" stroke="midnightblue" d="M292.315,-387.931C299.926,-389.529 307.659,-390.978 315,-392 645.15,-437.98 1049.19,-438.594 1170.22,-437.507"/>
<polygon fill="midnightblue" stroke="midnightblue" points="1170.43,-441.005 1180.4,-437.405 1170.36,-434.006 1170.43,-441.005"/>
</g>
<!-- Node34 -->
<g id="node34" class="node"><title>Node34</title>
<g id="a_node34"><a xlink:href="../../de/df4/stream__service_8h.html" target="_top" xlink:title="networking/streams\l/stream_service.h">
<polygon fill="none" stroke="red" points="190,-293 190,-323 292,-323 292,-293 190,-293"/>
<text text-anchor="start" x="198" y="-311" font-family="Helvetica,sans-Serif" font-size="10.00">networking/streams</text>
<text text-anchor="middle" x="241" y="-300" font-family="Helvetica,sans-Serif" font-size="10.00">/stream_service.h</text>
</a>
</g>
</g>
<!-- Node33&#45;&gt;Node34 -->
<g id="edge42" class="edge"><title>Node33&#45;&gt;Node34</title>
<path fill="none" stroke="midnightblue" d="M241,-360.679C241,-352.722 241,-342.605 241,-333.436"/>
<polygon fill="midnightblue" stroke="midnightblue" points="244.5,-333.293 241,-323.293 237.5,-333.293 244.5,-333.293"/>
</g>
<!-- Node35&#45;&gt;Node3 -->
<g id="edge46" class="edge"><title>Node35&#45;&gt;Node3</title>
<path fill="none" stroke="midnightblue" d="M348.226,-255.762C345.699,-281.069 328.234,-354.829 366,-392 395.211,-420.751 1013.02,-433.489 1170.04,-436.356"/>
<polygon fill="midnightblue" stroke="midnightblue" points="1170.05,-439.856 1180.12,-436.538 1170.18,-432.858 1170.05,-439.856"/>
</g>
<!-- Node35&#45;&gt;Node5 -->
<g id="edge45" class="edge"><title>Node35&#45;&gt;Node5</title>
<path fill="none" stroke="midnightblue" d="M344.026,-236.196C337.425,-214.92 323.875,-159.83 347,-124 395.287,-49.1835 506.375,-23.3771 562.787,-14.8989"/>
<polygon fill="midnightblue" stroke="midnightblue" points="563.566,-18.324 572.982,-13.4671 562.592,-11.392 563.566,-18.324"/>
</g>
<!-- Node35&#45;&gt;Node6 -->
<g id="edge44" class="edge"><title>Node35&#45;&gt;Node6</title>
<path fill="none" stroke="midnightblue" d="M406.26,-241.116C564.144,-230.77 992.184,-202.719 1128.62,-193.778"/>
<polygon fill="midnightblue" stroke="midnightblue" points="1128.92,-197.265 1138.67,-193.118 1128.47,-190.28 1128.92,-197.265"/>
</g>
<!-- Node36&#45;&gt;Node3 -->
<g id="edge48" class="edge"><title>Node36&#45;&gt;Node3</title>
<path fill="none" stroke="midnightblue" d="M467.264,-385.512C478.59,-387.97 490.747,-390.413 502,-392 756.437,-427.874 1066,-435.156 1170.07,-436.628"/>
<polygon fill="midnightblue" stroke="midnightblue" points="1170.29,-440.132 1180.34,-436.764 1170.39,-433.132 1170.29,-440.132"/>
</g>
<!-- Node37&#45;&gt;Node3 -->
<g id="edge50" class="edge"><title>Node37&#45;&gt;Node3</title>
<path fill="none" stroke="midnightblue" d="M597.61,-385.526C608.197,-387.954 619.511,-390.377 630,-392 833.103,-423.423 1079.44,-433.267 1170.29,-436.028"/>
<polygon fill="midnightblue" stroke="midnightblue" points="1170.24,-439.527 1180.34,-436.323 1170.45,-432.531 1170.24,-439.527"/>
</g>
<!-- Node38&#45;&gt;Node3 -->
<g id="edge52" class="edge"><title>Node38&#45;&gt;Node3</title>
<path fill="none" stroke="midnightblue" d="M731.871,-385.508C742.73,-387.878 754.291,-390.272 765,-392 914.605,-416.137 1094.41,-429.457 1169.99,-434.551"/>
<polygon fill="midnightblue" stroke="midnightblue" points="1170.15,-438.07 1180.37,-435.243 1170.62,-431.086 1170.15,-438.07"/>
</g>
<!-- Node39&#45;&gt;Node3 -->
<g id="edge54" class="edge"><title>Node39&#45;&gt;Node3</title>
<path fill="none" stroke="midnightblue" d="M888.62,-388.679C894.508,-389.856 900.373,-390.989 906,-392 1000.99,-409.075 1113.3,-424.163 1169.87,-431.771"/>
<polygon fill="midnightblue" stroke="midnightblue" points="1169.72,-435.282 1180.1,-433.147 1170.65,-428.345 1169.72,-435.282"/>
</g>
<!-- Node45&#45;&gt;Node3 -->
<g id="edge61" class="edge"><title>Node45&#45;&gt;Node3</title>
<path fill="none" stroke="midnightblue" d="M1665.92,-385.561C1654.28,-387.851 1641.15,-390.189 1629,-392 1486.55,-413.231 1315.12,-428.668 1241.82,-434.473"/>
<polygon fill="midnightblue" stroke="midnightblue" points="1241.43,-430.993 1231.73,-435.259 1241.97,-437.971 1241.43,-430.993"/>
</g>
<!-- Node46&#45;&gt;Node3 -->
<g id="edge64" class="edge"><title>Node46&#45;&gt;Node3</title>
<path fill="none" stroke="midnightblue" d="M1814.08,-385.564C1805.47,-387.994 1795.38,-390.409 1786,-392 1582.3,-426.544 1333.12,-434.658 1241.66,-436.489"/>
<polygon fill="midnightblue" stroke="midnightblue" points="1241.48,-432.991 1231.55,-436.678 1241.61,-439.99 1241.48,-432.991"/>
</g>
<!-- Node47&#45;&gt;Node6 -->
<g id="edge66" class="edge"><title>Node47&#45;&gt;Node6</title>
<path fill="none" stroke="midnightblue" d="M2125.33,-298.459C2086.61,-282.898 2000.17,-250.225 1924,-236 1785.98,-210.227 1350.93,-196.059 1213.23,-192.136"/>
<polygon fill="midnightblue" stroke="midnightblue" points="1213.18,-188.634 1203.08,-191.851 1212.98,-195.631 1213.18,-188.634"/>
</g>
<!-- Node48&#45;&gt;Node3 -->
<g id="edge68" class="edge"><title>Node48&#45;&gt;Node3</title>
<path fill="none" stroke="midnightblue" d="M1967.34,-385.509C1956.75,-387.967 1944.41,-390.411 1933,-392 1669.89,-428.629 1348.35,-435.456 1241.94,-436.717"/>
<polygon fill="midnightblue" stroke="midnightblue" points="1241.71,-433.219 1231.75,-436.828 1241.78,-440.219 1241.71,-433.219"/>
</g>
<!-- Node50&#45;&gt;Node6 -->
<g id="edge71" class="edge"><title>Node50&#45;&gt;Node6</title>
<path fill="none" stroke="midnightblue" d="M2114.48,-242.129C2083.93,-240.335 2043.66,-237.994 2008,-236 1703.4,-218.969 1336.38,-199.654 1213.44,-193.217"/>
<polygon fill="midnightblue" stroke="midnightblue" points="1213.49,-189.715 1203.32,-192.688 1213.12,-196.706 1213.49,-189.715"/>
</g>
</g>
</svg>
