<?xml version="1.0" encoding="UTF-8" standalone="no"?>
<!DOCTYPE svg PUBLIC "-//W3C//DTD SVG 1.1//EN"
 "http://www.w3.org/Graphics/SVG/1.1/DTD/svg11.dtd">
<!-- Generated by graphviz version 2.36.0 (20140111.2315)
 -->
<!-- Title: set_extension Pages: 1 -->
<svg width="772pt" height="28pt"
 viewBox="0.00 0.00 772.00 28.00" xmlns="http://www.w3.org/2000/svg" xmlns:xlink="http://www.w3.org/1999/xlink">
<g id="graph0" class="graph" transform="scale(1 1) rotate(0) translate(4 24)">
<title>set_extension</title>
<!-- Node1 -->
<g id="node1" class="node"><title>Node1</title>
<polygon fill="#bfbfbf" stroke="black" points="0.5,-0.5 0.5,-19.5 77.5,-19.5 77.5,-0.5 0.5,-0.5"/>
<text text-anchor="middle" x="39" y="-7.5" font-family="Helvetica,sans-Serif" font-size="10.00">set_extension</text>
</g>
<!-- Node2 -->
<g id="node2" class="node"><title>Node2</title>
<g id="a_node2"><a xlink:href="../../de/dfc/ha__dispatcher_8c.html#a6d9ea04a1332974e7da99b6920974dfc" target="_top" xlink:title="process_ike_update">
<polygon fill="none" stroke="black" points="114,-0.5 114,-19.5 218,-19.5 218,-0.5 114,-0.5"/>
<text text-anchor="middle" x="166" y="-7.5" font-family="Helvetica,sans-Serif" font-size="10.00">process_ike_update</text>
</a>
</g>
</g>
<!-- Node1&#45;&gt;Node2 -->
<g id="edge1" class="edge"><title>Node1&#45;&gt;Node2</title>
<path fill="none" stroke="midnightblue" d="M87.6423,-10C96.1499,-10 105.047,-10 113.653,-10"/>
<polygon fill="midnightblue" stroke="midnightblue" points="87.5042,-6.5001 77.5041,-10 87.5041,-13.5001 87.5042,-6.5001"/>
</g>
<!-- Node3 -->
<g id="node3" class="node"><title>Node3</title>
<g id="a_node3"><a xlink:href="../../de/dfc/ha__dispatcher_8c.html#a6e7484c8904d89575d90aed033fcf771" target="_top" xlink:title="dispatch">
<polygon fill="none" stroke="black" points="254.5,-0.5 254.5,-19.5 307.5,-19.5 307.5,-0.5 254.5,-0.5"/>
<text text-anchor="middle" x="281" y="-7.5" font-family="Helvetica,sans-Serif" font-size="10.00">dispatch</text>
</a>
</g>
</g>
<!-- Node2&#45;&gt;Node3 -->
<g id="edge2" class="edge"><title>Node2&#45;&gt;Node3</title>
<path fill="none" stroke="midnightblue" d="M228.489,-10C237.572,-10 246.482,-10 254.27,-10"/>
<polygon fill="midnightblue" stroke="midnightblue" points="228.21,-6.5001 218.21,-10 228.21,-13.5001 228.21,-6.5001"/>
</g>
<!-- Node4 -->
<g id="node4" class="node"><title>Node4</title>
<g id="a_node4"><a xlink:href="../../dd/dad/group__ha__dispatcher.html#gadfcd8537c6ac8e69d5dabf463119b7f5" target="_top" xlink:title="ha_dispatcher_create">
<polygon fill="none" stroke="black" points="344,-0.5 344,-19.5 454,-19.5 454,-0.5 344,-0.5"/>
<text text-anchor="middle" x="399" y="-7.5" font-family="Helvetica,sans-Serif" font-size="10.00">ha_dispatcher_create</text>
</a>
</g>
</g>
<!-- Node3&#45;&gt;Node4 -->
<g id="edge3" class="edge"><title>Node3&#45;&gt;Node4</title>
<path fill="none" stroke="midnightblue" d="M317.759,-10C326.014,-10 334.977,-10 343.821,-10"/>
<polygon fill="midnightblue" stroke="midnightblue" points="317.744,-6.5001 307.744,-10 317.744,-13.5001 317.744,-6.5001"/>
</g>
<!-- Node5 -->
<g id="node5" class="node"><title>Node5</title>
<g id="a_node5"><a xlink:href="../../d2/dbc/ha__plugin_8c.html#ac3b62ac20197d1c242926fae531a3bfa" target="_top" xlink:title="initialize_plugin">
<polygon fill="none" stroke="black" points="490.5,-0.5 490.5,-19.5 573.5,-19.5 573.5,-0.5 490.5,-0.5"/>
<text text-anchor="middle" x="532" y="-7.5" font-family="Helvetica,sans-Serif" font-size="10.00">initialize_plugin</text>
</a>
</g>
</g>
<!-- Node4&#45;&gt;Node5 -->
<g id="edge4" class="edge"><title>Node4&#45;&gt;Node5</title>
<path fill="none" stroke="midnightblue" d="M464.069,-10C472.998,-10 481.961,-10 490.297,-10"/>
<polygon fill="midnightblue" stroke="midnightblue" points="464.039,-6.5001 454.039,-10 464.039,-13.5001 464.039,-6.5001"/>
</g>
<!-- Node6 -->
<g id="node6" class="node"><title>Node6</title>
<g id="a_node6"><a xlink:href="../../d2/dbc/ha__plugin_8c.html#ac04b0147cc74be4316f3db3a9aa6b4a6" target="_top" xlink:title="plugin_cb">
<polygon fill="none" stroke="black" points="610,-0.5 610,-19.5 668,-19.5 668,-0.5 610,-0.5"/>
<text text-anchor="middle" x="639" y="-7.5" font-family="Helvetica,sans-Serif" font-size="10.00">plugin_cb</text>
</a>
</g>
</g>
<!-- Node5&#45;&gt;Node6 -->
<g id="edge5" class="edge"><title>Node5&#45;&gt;Node6</title>
<path fill="none" stroke="midnightblue" d="M583.681,-10C592.69,-10 601.771,-10 609.861,-10"/>
<polygon fill="midnightblue" stroke="midnightblue" points="583.596,-6.5001 573.596,-10 583.596,-13.5001 583.596,-6.5001"/>
</g>
<!-- Node7 -->
<g id="node7" class="node"><title>Node7</title>
<g id="a_node7"><a xlink:href="../../d2/dbc/ha__plugin_8c.html#ab76e28aa86319749526a5d4a267616e2" target="_top" xlink:title="METHOD">
<polygon fill="none" stroke="black" points="704,-0.5 704,-19.5 764,-19.5 764,-0.5 704,-0.5"/>
<text text-anchor="middle" x="734" y="-7.5" font-family="Helvetica,sans-Serif" font-size="10.00">METHOD</text>
</a>
</g>
</g>
<!-- Node6&#45;&gt;Node7 -->
<g id="edge6" class="edge"><title>Node6&#45;&gt;Node7</title>
<path fill="none" stroke="midnightblue" d="M678.337,-10C686.905,-10 695.856,-10 703.975,-10"/>
<polygon fill="midnightblue" stroke="midnightblue" points="678.155,-6.5001 668.155,-10 678.155,-13.5001 678.155,-6.5001"/>
</g>
</g>
</svg>
