<?xml version="1.0" encoding="UTF-8" standalone="no"?>
<!DOCTYPE svg PUBLIC "-//W3C//DTD SVG 1.1//EN"
 "http://www.w3.org/Graphics/SVG/1.1/DTD/svg11.dtd">
<!-- Generated by graphviz version 2.36.0 (20140111.2315)
 -->
<!-- Title: process_child_delete Pages: 1 -->
<svg width="662pt" height="28pt"
 viewBox="0.00 0.00 662.00 28.00" xmlns="http://www.w3.org/2000/svg" xmlns:xlink="http://www.w3.org/1999/xlink">
<g id="graph0" class="graph" transform="scale(1 1) rotate(0) translate(4 24)">
<title>process_child_delete</title>
<!-- Node1 -->
<g id="node1" class="node"><title>Node1</title>
<polygon fill="#bfbfbf" stroke="black" points="0,-0.5 0,-19.5 108,-19.5 108,-0.5 0,-0.5"/>
<text text-anchor="middle" x="54" y="-7.5" font-family="Helvetica,sans-Serif" font-size="10.00">process_child_delete</text>
</g>
<!-- Node2 -->
<g id="node2" class="node"><title>Node2</title>
<g id="a_node2"><a xlink:href="../../de/dfc/ha__dispatcher_8c.html#a6e7484c8904d89575d90aed033fcf771" target="_top" xlink:title="dispatch">
<polygon fill="none" stroke="black" points="144.5,-0.5 144.5,-19.5 197.5,-19.5 197.5,-0.5 144.5,-0.5"/>
<text text-anchor="middle" x="171" y="-7.5" font-family="Helvetica,sans-Serif" font-size="10.00">dispatch</text>
</a>
</g>
</g>
<!-- Node1&#45;&gt;Node2 -->
<g id="edge1" class="edge"><title>Node1&#45;&gt;Node2</title>
<path fill="none" stroke="midnightblue" d="M118.174,-10C127.406,-10 136.442,-10 144.316,-10"/>
<polygon fill="midnightblue" stroke="midnightblue" points="118.124,-6.5001 108.124,-10 118.124,-13.5001 118.124,-6.5001"/>
</g>
<!-- Node3 -->
<g id="node3" class="node"><title>Node3</title>
<g id="a_node3"><a xlink:href="../../dd/dad/group__ha__dispatcher.html#gadfcd8537c6ac8e69d5dabf463119b7f5" target="_top" xlink:title="ha_dispatcher_create">
<polygon fill="none" stroke="black" points="234,-0.5 234,-19.5 344,-19.5 344,-0.5 234,-0.5"/>
<text text-anchor="middle" x="289" y="-7.5" font-family="Helvetica,sans-Serif" font-size="10.00">ha_dispatcher_create</text>
</a>
</g>
</g>
<!-- Node2&#45;&gt;Node3 -->
<g id="edge2" class="edge"><title>Node2&#45;&gt;Node3</title>
<path fill="none" stroke="midnightblue" d="M207.759,-10C216.014,-10 224.977,-10 233.821,-10"/>
<polygon fill="midnightblue" stroke="midnightblue" points="207.744,-6.5001 197.744,-10 207.744,-13.5001 207.744,-6.5001"/>
</g>
<!-- Node4 -->
<g id="node4" class="node"><title>Node4</title>
<g id="a_node4"><a xlink:href="../../d2/dbc/ha__plugin_8c.html#ac3b62ac20197d1c242926fae531a3bfa" target="_top" xlink:title="initialize_plugin">
<polygon fill="none" stroke="black" points="380.5,-0.5 380.5,-19.5 463.5,-19.5 463.5,-0.5 380.5,-0.5"/>
<text text-anchor="middle" x="422" y="-7.5" font-family="Helvetica,sans-Serif" font-size="10.00">initialize_plugin</text>
</a>
</g>
</g>
<!-- Node3&#45;&gt;Node4 -->
<g id="edge3" class="edge"><title>Node3&#45;&gt;Node4</title>
<path fill="none" stroke="midnightblue" d="M354.069,-10C362.998,-10 371.961,-10 380.297,-10"/>
<polygon fill="midnightblue" stroke="midnightblue" points="354.039,-6.5001 344.039,-10 354.039,-13.5001 354.039,-6.5001"/>
</g>
<!-- Node5 -->
<g id="node5" class="node"><title>Node5</title>
<g id="a_node5"><a xlink:href="../../d2/dbc/ha__plugin_8c.html#ac04b0147cc74be4316f3db3a9aa6b4a6" target="_top" xlink:title="plugin_cb">
<polygon fill="none" stroke="black" points="500,-0.5 500,-19.5 558,-19.5 558,-0.5 500,-0.5"/>
<text text-anchor="middle" x="529" y="-7.5" font-family="Helvetica,sans-Serif" font-size="10.00">plugin_cb</text>
</a>
</g>
</g>
<!-- Node4&#45;&gt;Node5 -->
<g id="edge4" class="edge"><title>Node4&#45;&gt;Node5</title>
<path fill="none" stroke="midnightblue" d="M473.681,-10C482.69,-10 491.771,-10 499.861,-10"/>
<polygon fill="midnightblue" stroke="midnightblue" points="473.596,-6.5001 463.596,-10 473.596,-13.5001 473.596,-6.5001"/>
</g>
<!-- Node6 -->
<g id="node6" class="node"><title>Node6</title>
<g id="a_node6"><a xlink:href="../../d2/dbc/ha__plugin_8c.html#ab76e28aa86319749526a5d4a267616e2" target="_top" xlink:title="METHOD">
<polygon fill="none" stroke="black" points="594,-0.5 594,-19.5 654,-19.5 654,-0.5 594,-0.5"/>
<text text-anchor="middle" x="624" y="-7.5" font-family="Helvetica,sans-Serif" font-size="10.00">METHOD</text>
</a>
</g>
</g>
<!-- Node5&#45;&gt;Node6 -->
<g id="edge5" class="edge"><title>Node5&#45;&gt;Node6</title>
<path fill="none" stroke="midnightblue" d="M568.337,-10C576.905,-10 585.856,-10 593.975,-10"/>
<polygon fill="midnightblue" stroke="midnightblue" points="568.155,-6.5001 558.155,-10 568.155,-13.5001 568.155,-6.5001"/>
</g>
</g>
</svg>
