<?xml version="1.0" encoding="UTF-8" standalone="no"?>
<!DOCTYPE svg PUBLIC "-//W3C//DTD SVG 1.1//EN"
 "http://www.w3.org/Graphics/SVG/1.1/DTD/svg11.dtd">
<!-- Generated by graphviz version 2.36.0 (20140111.2315)
 -->
<!-- Title: METHOD Pages: 1 -->
<svg width="1700pt" height="802pt"
 viewBox="0.00 0.00 1700.00 801.83" xmlns="http://www.w3.org/2000/svg" xmlns:xlink="http://www.w3.org/1999/xlink">
<g id="graph0" class="graph" transform="scale(1 1) rotate(0) translate(4 797.829)">
<title>METHOD</title>
<!-- Node1 -->
<g id="node1" class="node"><title>Node1</title>
<polygon fill="#bfbfbf" stroke="black" points="0,-569.5 0,-588.5 60,-588.5 60,-569.5 0,-569.5"/>
<text text-anchor="middle" x="30" y="-576.5" font-family="Helvetica,sans-Serif" font-size="10.00">METHOD</text>
</g>
<!-- Node2 -->
<g id="node2" class="node"><title>Node2</title>
<g id="a_node2"><a xlink:href="../../df/ddf/group__delete__child__sa__job.html#gac495fce020c739bb0c52251d7624221b" target="_top" xlink:title="delete_ike_sa_job_create">
<polygon fill="none" stroke="black" points="96.5,-626.5 96.5,-645.5 223.5,-645.5 223.5,-626.5 96.5,-626.5"/>
<text text-anchor="middle" x="160" y="-633.5" font-family="Helvetica,sans-Serif" font-size="10.00">delete_ike_sa_job_create</text>
</a>
</g>
</g>
<!-- Node1&#45;&gt;Node2 -->
<g id="edge1" class="edge"><title>Node1&#45;&gt;Node2</title>
<path fill="none" stroke="midnightblue" d="M48.6881,-588.621C61.6224,-595.497 79.6837,-604.775 96,-612 104.475,-615.753 113.736,-619.481 122.485,-622.84"/>
<polygon fill="midnightblue" stroke="midnightblue" points="121.485,-626.203 132.077,-626.458 123.955,-619.654 121.485,-626.203"/>
</g>
<!-- Node3 -->
<g id="node3" class="node"><title>Node3</title>
<g id="a_node3"><a xlink:href="../../d4/da5/watcher_8c.html#a8f0e10b20c0f4d75132f5af69278c063" target="_top" xlink:title="notify">
<polygon fill="none" stroke="black" points="1071.5,-636.5 1071.5,-655.5 1112.5,-655.5 1112.5,-636.5 1071.5,-636.5"/>
<text text-anchor="middle" x="1092" y="-643.5" font-family="Helvetica,sans-Serif" font-size="10.00">notify</text>
</a>
</g>
</g>
<!-- Node1&#45;&gt;Node3 -->
<g id="edge2" class="edge"><title>Node1&#45;&gt;Node3</title>
<path fill="none" stroke="midnightblue" d="M60.1509,-582.353C110.168,-587.808 215.593,-598 305,-598 305,-598 305,-598 789,-598 890.034,-598 1007.75,-624.527 1061.51,-638.141"/>
<polygon fill="midnightblue" stroke="midnightblue" points="1060.83,-641.579 1071.38,-640.68 1062.57,-634.8 1060.83,-641.579"/>
</g>
<!-- Node15 -->
<g id="node15" class="node"><title>Node15</title>
<g id="a_node15"><a xlink:href="../../d9/d78/duplicheck__listener_8c.html#a42e92cbe3b8fa821d53d1fdb7db5a639" target="_top" xlink:title="remove_first">
<polygon fill="none" stroke="black" points="124.5,-512.5 124.5,-531.5 195.5,-531.5 195.5,-512.5 124.5,-512.5"/>
<text text-anchor="middle" x="160" y="-519.5" font-family="Helvetica,sans-Serif" font-size="10.00">remove_first</text>
</a>
</g>
</g>
<!-- Node1&#45;&gt;Node15 -->
<g id="edge15" class="edge"><title>Node1&#45;&gt;Node15</title>
<path fill="none" stroke="midnightblue" d="M45.4482,-569.211C58.2857,-560.846 77.7855,-548.938 96,-541 101.911,-538.424 108.277,-536.061 114.611,-533.941"/>
<polygon fill="midnightblue" stroke="midnightblue" points="115.993,-537.175 124.468,-530.815 113.878,-530.502 115.993,-537.175"/>
</g>
<!-- Node50 -->
<g id="node50" class="node"><title>Node50</title>
<g id="a_node50"><a xlink:href="../../d9/d78/duplicheck__listener_8c.html#a38e321cf0a8d854e6b04ffb5cffaac36" target="_top" xlink:title="remove_specific">
<polygon fill="none" stroke="black" points="116,-550.5 116,-569.5 204,-569.5 204,-550.5 116,-550.5"/>
<text text-anchor="middle" x="160" y="-557.5" font-family="Helvetica,sans-Serif" font-size="10.00">remove_specific</text>
</a>
</g>
</g>
<!-- Node1&#45;&gt;Node50 -->
<g id="edge67" class="edge"><title>Node1&#45;&gt;Node50</title>
<path fill="none" stroke="midnightblue" d="M60.0452,-574.689C73.5987,-572.677 90.1692,-570.217 105.845,-567.89"/>
<polygon fill="midnightblue" stroke="midnightblue" points="106.6,-571.317 115.977,-566.386 105.572,-564.392 106.6,-571.317"/>
</g>
<!-- Node4 -->
<g id="node4" class="node"><title>Node4</title>
<g id="a_node4"><a xlink:href="../../d0/d8f/group__callback__job.html#gadfa6801d50c2e34bb3f9e1c98efe02d0" target="_top" xlink:title="callback_job_create\l_with_prio">
<polygon fill="none" stroke="black" points="1502.5,-536 1502.5,-566 1605.5,-566 1605.5,-536 1502.5,-536"/>
<text text-anchor="start" x="1510.5" y="-554" font-family="Helvetica,sans-Serif" font-size="10.00">callback_job_create</text>
<text text-anchor="middle" x="1554" y="-543" font-family="Helvetica,sans-Serif" font-size="10.00">_with_prio</text>
</a>
</g>
</g>
<!-- Node3&#45;&gt;Node4 -->
<g id="edge3" class="edge"><title>Node3&#45;&gt;Node4</title>
<path fill="none" stroke="midnightblue" d="M1101.75,-655.581C1117.15,-671.834 1150.81,-704.723 1186,-722 1298.73,-777.35 1361.52,-829.68 1466,-760 1528.66,-718.21 1546.26,-621.868 1551.15,-576.066"/>
<polygon fill="midnightblue" stroke="midnightblue" points="1554.64,-576.364 1552.1,-566.078 1547.67,-575.703 1554.64,-576.364"/>
</g>
<!-- Node7 -->
<g id="node7" class="node"><title>Node7</title>
<g id="a_node7"><a xlink:href="../../d4/da5/watcher_8c.html#aa9f8d5f98b20ea9cea8adaa68b6e4ab5" target="_top" xlink:title="notify_async">
<polygon fill="none" stroke="black" points="1214,-693.5 1214,-712.5 1286,-712.5 1286,-693.5 1214,-693.5"/>
<text text-anchor="middle" x="1250" y="-700.5" font-family="Helvetica,sans-Serif" font-size="10.00">notify_async</text>
</a>
</g>
</g>
<!-- Node3&#45;&gt;Node7 -->
<g id="edge6" class="edge"><title>Node3&#45;&gt;Node7</title>
<path fill="none" stroke="midnightblue" d="M1112.76,-653.219C1137.98,-662.437 1182.1,-678.555 1213.28,-689.95"/>
<polygon fill="midnightblue" stroke="midnightblue" points="1212.32,-693.324 1222.92,-693.469 1214.72,-686.75 1212.32,-693.324"/>
</g>
<!-- Node11 -->
<g id="node11" class="node"><title>Node11</title>
<g id="a_node11"><a xlink:href="../../d4/da5/watcher_8c.html#aa35392aaf7997cfd0f06e6bbe86feb73" target="_top" xlink:title="notify_end">
<polygon fill="none" stroke="black" points="1219,-617.5 1219,-636.5 1281,-636.5 1281,-617.5 1219,-617.5"/>
<text text-anchor="middle" x="1250" y="-624.5" font-family="Helvetica,sans-Serif" font-size="10.00">notify_end</text>
</a>
</g>
</g>
<!-- Node3&#45;&gt;Node11 -->
<g id="edge10" class="edge"><title>Node3&#45;&gt;Node11</title>
<path fill="none" stroke="midnightblue" d="M1112.76,-643.594C1136.84,-640.66 1178.15,-635.629 1208.98,-631.874"/>
<polygon fill="midnightblue" stroke="midnightblue" points="1209.49,-635.338 1218.99,-630.655 1208.64,-628.39 1209.49,-635.338"/>
</g>
<!-- Node14 -->
<g id="node14" class="node"><title>Node14</title>
<g id="a_node14"><a xlink:href="../../d6/d87/group__utils__i.html#ga9336a4d5728eb7ed977aacaeb8fd2c41" target="_top" xlink:title="return_false">
<polygon fill="none" stroke="black" points="1216,-579.5 1216,-598.5 1284,-598.5 1284,-579.5 1216,-579.5"/>
<text text-anchor="middle" x="1250" y="-586.5" font-family="Helvetica,sans-Serif" font-size="10.00">return_false</text>
</a>
</g>
</g>
<!-- Node3&#45;&gt;Node14 -->
<g id="edge14" class="edge"><title>Node3&#45;&gt;Node14</title>
<path fill="none" stroke="midnightblue" d="M1112.74,-637.293C1131.43,-629.208 1160.35,-617.084 1186,-608 1192.44,-605.719 1199.31,-603.467 1206.05,-601.355"/>
<polygon fill="midnightblue" stroke="midnightblue" points="1207.25,-604.65 1215.78,-598.374 1205.2,-597.957 1207.25,-604.65"/>
</g>
<!-- Node5 -->
<g id="node5" class="node"><title>Node5</title>
<g id="a_node5"><a xlink:href="../../d1/d14/fetch_8c.html#a17dd1592e9f4ebc44d5126c03a3a9697" target="_top" xlink:title="cb">
<polygon fill="none" stroke="black" points="1652.5,-522.5 1652.5,-541.5 1681.5,-541.5 1681.5,-522.5 1652.5,-522.5"/>
<text text-anchor="middle" x="1667" y="-529.5" font-family="Helvetica,sans-Serif" font-size="10.00">cb</text>
</a>
</g>
</g>
<!-- Node4&#45;&gt;Node5 -->
<g id="edge4" class="edge"><title>Node4&#45;&gt;Node5</title>
<path fill="none" stroke="midnightblue" d="M1605.63,-542.334C1618.49,-540.132 1631.71,-537.87 1642.48,-536.025"/>
<polygon fill="midnightblue" stroke="midnightblue" points="1643.08,-539.475 1652.34,-534.338 1641.9,-532.575 1643.08,-539.475"/>
</g>
<!-- Node6 -->
<g id="node6" class="node"><title>Node6</title>
<g id="a_node6"><a xlink:href="../../d2/dca/nm__backend_8c.html#a22ea158445c16ed72f5ab270e1dc691b" target="_top" xlink:title="cancel">
<polygon fill="none" stroke="black" points="1644.5,-560.5 1644.5,-579.5 1689.5,-579.5 1689.5,-560.5 1644.5,-560.5"/>
<text text-anchor="middle" x="1667" y="-567.5" font-family="Helvetica,sans-Serif" font-size="10.00">cancel</text>
</a>
</g>
</g>
<!-- Node4&#45;&gt;Node6 -->
<g id="edge5" class="edge"><title>Node4&#45;&gt;Node6</title>
<path fill="none" stroke="midnightblue" d="M1605.63,-559.666C1615.41,-561.34 1625.39,-563.049 1634.35,-564.583"/>
<polygon fill="midnightblue" stroke="midnightblue" points="1633.88,-568.053 1644.33,-566.29 1635.06,-561.153 1633.88,-568.053"/>
</g>
<!-- Node8 -->
<g id="node8" class="node"><title>Node8</title>
<g id="a_node8"><a xlink:href="../../da/dd8/group__thread.html#ga5c78b3b4d797a5e3fd535b81d1120857" target="_top" xlink:title="thread_cleanup_push">
<polygon fill="none" stroke="black" points="1353.5,-655.5 1353.5,-674.5 1462.5,-674.5 1462.5,-655.5 1353.5,-655.5"/>
<text text-anchor="middle" x="1408" y="-662.5" font-family="Helvetica,sans-Serif" font-size="10.00">thread_cleanup_push</text>
</a>
</g>
</g>
<!-- Node7&#45;&gt;Node8 -->
<g id="edge7" class="edge"><title>Node7&#45;&gt;Node8</title>
<path fill="none" stroke="midnightblue" d="M1286.01,-694.472C1307.31,-689.283 1334.83,-682.579 1358.25,-676.876"/>
<polygon fill="midnightblue" stroke="midnightblue" points="1359.11,-680.268 1368,-674.501 1357.45,-673.467 1359.11,-680.268"/>
</g>
<!-- Node9 -->
<g id="node9" class="node"><title>Node9</title>
<g id="a_node9"><a xlink:href="../../d4/da5/watcher_8c.html#af07a8ce292029fcffea96da307cbaec9" target="_top" xlink:title="unregister">
<polygon fill="none" stroke="black" points="1378.5,-731.5 1378.5,-750.5 1437.5,-750.5 1437.5,-731.5 1378.5,-731.5"/>
<text text-anchor="middle" x="1408" y="-738.5" font-family="Helvetica,sans-Serif" font-size="10.00">unregister</text>
</a>
</g>
</g>
<!-- Node7&#45;&gt;Node9 -->
<g id="edge8" class="edge"><title>Node7&#45;&gt;Node9</title>
<path fill="none" stroke="midnightblue" d="M1286.01,-711.528C1310.49,-717.49 1343.17,-725.453 1368.4,-731.598"/>
<polygon fill="midnightblue" stroke="midnightblue" points="1367.82,-735.059 1378.37,-734.025 1369.48,-728.258 1367.82,-735.059"/>
</g>
<!-- Node10 -->
<g id="node10" class="node"><title>Node10</title>
<g id="a_node10"><a xlink:href="../../da/dd8/group__thread.html#ga669a6d403cfb4dc30e7a389b3b6cf48b" target="_top" xlink:title="thread_cleanup_pop">
<polygon fill="none" stroke="black" points="1356,-693.5 1356,-712.5 1460,-712.5 1460,-693.5 1356,-693.5"/>
<text text-anchor="middle" x="1408" y="-700.5" font-family="Helvetica,sans-Serif" font-size="10.00">thread_cleanup_pop</text>
</a>
</g>
</g>
<!-- Node7&#45;&gt;Node10 -->
<g id="edge9" class="edge"><title>Node7&#45;&gt;Node10</title>
<path fill="none" stroke="midnightblue" d="M1286.01,-703C1303.61,-703 1325.45,-703 1345.72,-703"/>
<polygon fill="midnightblue" stroke="midnightblue" points="1345.82,-706.5 1355.82,-703 1345.82,-699.5 1345.82,-706.5"/>
</g>
<!-- Node12 -->
<g id="node12" class="node"><title>Node12</title>
<g id="a_node12"><a xlink:href="../../da/dfc/settings__parser_8c.html#af07d89f5ceaea0c7c8252cc41fd75f37" target="_top" xlink:title="free">
<polygon fill="none" stroke="black" points="1391.5,-465.5 1391.5,-484.5 1424.5,-484.5 1424.5,-465.5 1391.5,-465.5"/>
<text text-anchor="middle" x="1408" y="-472.5" font-family="Helvetica,sans-Serif" font-size="10.00">free</text>
</a>
</g>
</g>
<!-- Node11&#45;&gt;Node12 -->
<g id="edge11" class="edge"><title>Node11&#45;&gt;Node12</title>
<path fill="none" stroke="midnightblue" d="M1281.08,-622.229C1292.18,-619.411 1304.38,-614.968 1314,-608 1355.66,-577.829 1385.2,-523.043 1398.72,-494.1"/>
<polygon fill="midnightblue" stroke="midnightblue" points="1402.04,-495.253 1402.97,-484.699 1395.66,-492.371 1402.04,-495.253"/>
</g>
<!-- Node13 -->
<g id="node13" class="node"><title>Node13</title>
<g id="a_node13"><a xlink:href="../../d4/da5/watcher_8c.html#a555c5ce92a336acef1ff02fb00381924" target="_top" xlink:title="update">
<polygon fill="none" stroke="black" points="1385,-617.5 1385,-636.5 1431,-636.5 1431,-617.5 1385,-617.5"/>
<text text-anchor="middle" x="1408" y="-624.5" font-family="Helvetica,sans-Serif" font-size="10.00">update</text>
</a>
</g>
</g>
<!-- Node11&#45;&gt;Node13 -->
<g id="edge12" class="edge"><title>Node11&#45;&gt;Node13</title>
<path fill="none" stroke="midnightblue" d="M1281.08,-627C1307.81,-627 1346.8,-627 1374.3,-627"/>
<polygon fill="midnightblue" stroke="midnightblue" points="1374.59,-630.5 1384.59,-627 1374.59,-623.5 1374.59,-630.5"/>
</g>
<!-- Node13&#45;&gt;Node3 -->
<g id="edge13" class="edge"><title>Node13&#45;&gt;Node3</title>
<path fill="none" stroke="midnightblue" d="M1384.64,-632.889C1365.93,-637.499 1338.43,-643.53 1314,-646 1245.87,-652.888 1165.33,-650.172 1122.79,-647.896"/>
<polygon fill="midnightblue" stroke="midnightblue" points="1122.76,-644.388 1112.58,-647.318 1122.36,-651.377 1122.76,-644.388"/>
</g>
<!-- Node16 -->
<g id="node16" class="node"><title>Node16</title>
<g id="a_node16"><a xlink:href="../../d9/d78/duplicheck__listener_8c.html#acaae3ea9f18caab2a2e47637da396ca9" target="_top" xlink:title="remove_if_empty">
<polygon fill="none" stroke="black" points="260,-531.5 260,-550.5 352,-550.5 352,-531.5 260,-531.5"/>
<text text-anchor="middle" x="306" y="-538.5" font-family="Helvetica,sans-Serif" font-size="10.00">remove_if_empty</text>
</a>
</g>
</g>
<!-- Node15&#45;&gt;Node16 -->
<g id="edge16" class="edge"><title>Node15&#45;&gt;Node16</title>
<path fill="none" stroke="midnightblue" d="M195.858,-526.599C212.007,-528.73 231.587,-531.314 249.681,-533.701"/>
<polygon fill="midnightblue" stroke="midnightblue" points="249.464,-537.203 259.836,-535.041 250.379,-530.263 249.464,-537.203"/>
</g>
<!-- Node17 -->
<g id="node17" class="node"><title>Node17</title>
<g id="a_node17"><a xlink:href="../../d9/d78/duplicheck__listener_8c.html#aede77291d80d98c60a53f8438d3bd5bd" target="_top" xlink:title="entry_destroy">
<polygon fill="none" stroke="black" points="388,-531.5 388,-550.5 464,-550.5 464,-531.5 388,-531.5"/>
<text text-anchor="middle" x="426" y="-538.5" font-family="Helvetica,sans-Serif" font-size="10.00">entry_destroy</text>
</a>
</g>
</g>
<!-- Node16&#45;&gt;Node17 -->
<g id="edge17" class="edge"><title>Node16&#45;&gt;Node17</title>
<path fill="none" stroke="midnightblue" d="M352.284,-541C360.602,-541 369.304,-541 377.679,-541"/>
<polygon fill="midnightblue" stroke="midnightblue" points="377.684,-544.5 387.684,-541 377.684,-537.5 377.684,-544.5"/>
</g>
<!-- Node17&#45;&gt;Node12 -->
<g id="edge66" class="edge"><title>Node17&#45;&gt;Node12</title>
<path fill="none" stroke="midnightblue" d="M464.122,-543.812C506.426,-546.77 577.651,-551 639,-551 639,-551 639,-551 1093,-551 1192.52,-551 1218.46,-542.868 1314,-515 1337.88,-508.033 1363.79,-496.54 1382.18,-487.657"/>
<polygon fill="midnightblue" stroke="midnightblue" points="1383.89,-490.719 1391.31,-483.162 1380.79,-484.438 1383.89,-490.719"/>
</g>
<!-- Node18 -->
<g id="node18" class="node"><title>Node18</title>
<g id="a_node18"><a xlink:href="../../dc/d21/daemon_8c.html#a1e824dfeaa337e709772cb0c8e6c8dcc" target="_top" xlink:title="destroy">
<polygon fill="none" stroke="black" points="500.5,-484.5 500.5,-503.5 549.5,-503.5 549.5,-484.5 500.5,-484.5"/>
<text text-anchor="middle" x="525" y="-491.5" font-family="Helvetica,sans-Serif" font-size="10.00">destroy</text>
</a>
</g>
</g>
<!-- Node17&#45;&gt;Node18 -->
<g id="edge18" class="edge"><title>Node17&#45;&gt;Node18</title>
<path fill="none" stroke="midnightblue" d="M446.629,-531.489C460.474,-524.781 479.254,-515.681 494.844,-508.127"/>
<polygon fill="midnightblue" stroke="midnightblue" points="496.594,-511.169 504.067,-503.658 493.541,-504.869 496.594,-511.169"/>
</g>
<!-- Node18&#45;&gt;Node12 -->
<g id="edge19" class="edge"><title>Node18&#45;&gt;Node12</title>
<path fill="none" stroke="midnightblue" d="M549.709,-496.886C595.497,-502.201 699.315,-513 787,-513 787,-513 787,-513 1093,-513 1200.88,-513 1328.11,-490.619 1381.46,-480.21"/>
<polygon fill="midnightblue" stroke="midnightblue" points="1382.27,-483.617 1391.4,-478.24 1380.91,-476.75 1382.27,-483.617"/>
</g>
<!-- Node19 -->
<g id="node19" class="node"><title>Node19</title>
<g id="a_node19"><a xlink:href="../../dc/d21/daemon_8c.html#a1b7023117168a75858bd535a56e709e2" target="_top" xlink:title="logger_entry_destroy">
<polygon fill="none" stroke="black" points="586.5,-465.5 586.5,-484.5 693.5,-484.5 693.5,-465.5 586.5,-465.5"/>
<text text-anchor="middle" x="640" y="-472.5" font-family="Helvetica,sans-Serif" font-size="10.00">logger_entry_destroy</text>
</a>
</g>
</g>
<!-- Node18&#45;&gt;Node19 -->
<g id="edge20" class="edge"><title>Node18&#45;&gt;Node19</title>
<path fill="none" stroke="midnightblue" d="M549.689,-490.017C557.662,-488.676 566.969,-487.111 576.507,-485.508"/>
<polygon fill="midnightblue" stroke="midnightblue" points="577.203,-488.94 586.484,-483.83 576.042,-482.037 577.203,-488.94"/>
</g>
<!-- Node20 -->
<g id="node20" class="node"><title>Node20</title>
<g id="a_node20"><a xlink:href="../../d9/d32/connect__manager_8c.html#a3b4dd773d88779165dc7243cb4e4fbee" target="_top" xlink:title="sender">
<polygon fill="none" stroke="black" points="617,-292.5 617,-311.5 663,-311.5 663,-292.5 617,-292.5"/>
<text text-anchor="middle" x="640" y="-299.5" font-family="Helvetica,sans-Serif" font-size="10.00">sender</text>
</a>
</g>
</g>
<!-- Node18&#45;&gt;Node20 -->
<g id="edge22" class="edge"><title>Node18&#45;&gt;Node20</title>
<path fill="none" stroke="midnightblue" d="M531.604,-484.479C549.377,-454.28 604.695,-360.288 628.228,-320.302"/>
<polygon fill="midnightblue" stroke="midnightblue" points="631.307,-321.972 633.362,-311.579 625.274,-318.422 631.307,-321.972"/>
</g>
<!-- Node19&#45;&gt;Node12 -->
<g id="edge21" class="edge"><title>Node19&#45;&gt;Node12</title>
<path fill="none" stroke="midnightblue" d="M693.754,-475C753.314,-475 853.118,-475 939,-475 939,-475 939,-475 1093,-475 1199.88,-475 1327.22,-475 1380.99,-475"/>
<polygon fill="midnightblue" stroke="midnightblue" points="1381.32,-478.5 1391.32,-475 1381.32,-471.5 1381.32,-478.5"/>
</g>
<!-- Node21 -->
<g id="node21" class="node"><title>Node21</title>
<g id="a_node21"><a xlink:href="../../d9/d32/connect__manager_8c.html#ad295327b74b1c4e19a7096ad2979765b" target="_top" xlink:title="check_create">
<polygon fill="none" stroke="black" points="750.5,-377.5 750.5,-396.5 825.5,-396.5 825.5,-377.5 750.5,-377.5"/>
<text text-anchor="middle" x="788" y="-384.5" font-family="Helvetica,sans-Serif" font-size="10.00">check_create</text>
</a>
</g>
</g>
<!-- Node20&#45;&gt;Node21 -->
<g id="edge23" class="edge"><title>Node20&#45;&gt;Node21</title>
<path fill="none" stroke="midnightblue" d="M653.164,-311.52C669.847,-324.295 701.062,-347.203 730,-363 736.803,-366.714 744.302,-370.242 751.563,-373.393"/>
<polygon fill="midnightblue" stroke="midnightblue" points="750.654,-376.806 761.23,-377.439 753.356,-370.349 750.654,-376.806"/>
</g>
<!-- Node22 -->
<g id="node22" class="node"><title>Node22</title>
<g id="a_node22"><a xlink:href="../../d9/d32/connect__manager_8c.html#a204f99a4a38f8c08c42cd120bcf1b9f7" target="_top" xlink:title="check_destroy">
<polygon fill="none" stroke="black" points="1052,-427.5 1052,-446.5 1132,-446.5 1132,-427.5 1052,-427.5"/>
<text text-anchor="middle" x="1092" y="-434.5" font-family="Helvetica,sans-Serif" font-size="10.00">check_destroy</text>
</a>
</g>
</g>
<!-- Node20&#45;&gt;Node22 -->
<g id="edge24" class="edge"><title>Node20&#45;&gt;Node22</title>
<path fill="none" stroke="midnightblue" d="M663.009,-308.603C733.835,-329.85 956.639,-396.692 1049.61,-424.584"/>
<polygon fill="midnightblue" stroke="midnightblue" points="1048.66,-427.952 1059.24,-427.473 1050.67,-421.248 1048.66,-427.952"/>
</g>
<!-- Node24 -->
<g id="node24" class="node"><title>Node24</title>
<g id="a_node24"><a xlink:href="../../d7/d87/group__endpoint__notify.html#ga89474ccd935bd6aeb2db5ae84c2fcbcf" target="_top" xlink:title="endpoint_notify_create\l_from_host">
<polygon fill="none" stroke="black" points="730.5,-416 730.5,-446 845.5,-446 845.5,-416 730.5,-416"/>
<text text-anchor="start" x="738.5" y="-434" font-family="Helvetica,sans-Serif" font-size="10.00">endpoint_notify_create</text>
<text text-anchor="middle" x="788" y="-423" font-family="Helvetica,sans-Serif" font-size="10.00">_from_host</text>
</a>
</g>
</g>
<!-- Node20&#45;&gt;Node24 -->
<g id="edge28" class="edge"><title>Node20&#45;&gt;Node24</title>
<path fill="none" stroke="midnightblue" d="M647.011,-311.582C659.964,-331.559 692.397,-378.111 730,-406 732.438,-407.808 735.028,-409.521 737.706,-411.137"/>
<polygon fill="midnightblue" stroke="midnightblue" points="736.037,-414.214 746.486,-415.969 739.412,-408.081 736.037,-414.214"/>
</g>
<!-- Node26 -->
<g id="node26" class="node"><title>Node26</title>
<g id="a_node26"><a xlink:href="../../d9/d32/connect__manager_8c.html#a7f4c528dceb6dc21cbeeb405365db27d" target="_top" xlink:title="get_checklist_by_id">
<polygon fill="none" stroke="black" points="1198.5,-123.5 1198.5,-142.5 1301.5,-142.5 1301.5,-123.5 1198.5,-123.5"/>
<text text-anchor="middle" x="1250" y="-130.5" font-family="Helvetica,sans-Serif" font-size="10.00">get_checklist_by_id</text>
</a>
</g>
</g>
<!-- Node20&#45;&gt;Node26 -->
<g id="edge30" class="edge"><title>Node20&#45;&gt;Node26</title>
<path fill="none" stroke="midnightblue" d="M643.712,-292.132C651.686,-265.249 677.839,-190.685 730,-160 805.943,-115.324 1068.09,-123.101 1188.12,-129.3"/>
<polygon fill="midnightblue" stroke="midnightblue" points="1188.08,-132.802 1198.25,-129.837 1188.45,-125.812 1188.08,-132.802"/>
</g>
<!-- Node30 -->
<g id="node30" class="node"><title>Node30</title>
<g id="a_node30"><a xlink:href="../../d9/d32/connect__manager_8c.html#a0c6f96218c9be021da288127130acaea" target="_top" xlink:title="get_triggered_pair">
<polygon fill="none" stroke="black" points="741,-245.5 741,-264.5 835,-264.5 835,-245.5 741,-245.5"/>
<text text-anchor="middle" x="788" y="-252.5" font-family="Helvetica,sans-Serif" font-size="10.00">get_triggered_pair</text>
</a>
</g>
</g>
<!-- Node20&#45;&gt;Node30 -->
<g id="edge34" class="edge"><title>Node20&#45;&gt;Node30</title>
<path fill="none" stroke="midnightblue" d="M663.174,-294.862C685.554,-287.657 720.586,-276.38 747.685,-267.656"/>
<polygon fill="midnightblue" stroke="midnightblue" points="748.825,-270.966 757.272,-264.57 746.68,-264.303 748.825,-270.966"/>
</g>
<!-- Node31 -->
<g id="node31" class="node"><title>Node31</title>
<g id="a_node31"><a xlink:href="../../d9/d32/connect__manager_8c.html#a7bcdfc183dd5ea52c1db9112000121eb" target="_top" xlink:title="match_waiting_pair">
<polygon fill="none" stroke="black" points="737.5,-207.5 737.5,-226.5 838.5,-226.5 838.5,-207.5 737.5,-207.5"/>
<text text-anchor="middle" x="788" y="-214.5" font-family="Helvetica,sans-Serif" font-size="10.00">match_waiting_pair</text>
</a>
</g>
</g>
<!-- Node20&#45;&gt;Node31 -->
<g id="edge35" class="edge"><title>Node20&#45;&gt;Node31</title>
<path fill="none" stroke="midnightblue" d="M651.488,-292.464C667.413,-278.412 699.115,-252.076 730,-236 734.065,-233.884 738.414,-231.935 742.83,-230.157"/>
<polygon fill="midnightblue" stroke="midnightblue" points="744.373,-233.317 752.518,-226.542 741.925,-226.759 744.373,-233.317"/>
</g>
<!-- Node32 -->
<g id="node32" class="node"><title>Node32</title>
<g id="a_node32"><a xlink:href="../../d9/d32/connect__manager_8c.html#ab04c347706d661bcbd52ba901be05697" target="_top" xlink:title="schedule_checks">
<polygon fill="none" stroke="black" points="894,-283.5 894,-302.5 986,-302.5 986,-283.5 894,-283.5"/>
<text text-anchor="middle" x="940" y="-290.5" font-family="Helvetica,sans-Serif" font-size="10.00">schedule_checks</text>
</a>
</g>
</g>
<!-- Node20&#45;&gt;Node32 -->
<g id="edge36" class="edge"><title>Node20&#45;&gt;Node32</title>
<path fill="none" stroke="midnightblue" d="M663.398,-297.55C709.781,-292.821 817.528,-289.03 883.724,-289.284"/>
<polygon fill="midnightblue" stroke="midnightblue" points="883.95,-292.786 893.975,-289.36 884.002,-285.786 883.95,-292.786"/>
</g>
<!-- Node36 -->
<g id="node36" class="node"><title>Node36</title>
<g id="a_node36"><a xlink:href="../../d9/d32/connect__manager_8c.html#a84c6b0f36d7353c32bb874be21759a5f" target="_top" xlink:title="send_check">
<polygon fill="none" stroke="black" points="753.5,-169.5 753.5,-188.5 822.5,-188.5 822.5,-169.5 753.5,-169.5"/>
<text text-anchor="middle" x="788" y="-176.5" font-family="Helvetica,sans-Serif" font-size="10.00">send_check</text>
</a>
</g>
</g>
<!-- Node20&#45;&gt;Node36 -->
<g id="edge44" class="edge"><title>Node20&#45;&gt;Node36</title>
<path fill="none" stroke="midnightblue" d="M646.624,-292.449C659.071,-272.117 690.963,-224.271 730,-198 734.272,-195.125 739.015,-192.653 743.889,-190.534"/>
<polygon fill="midnightblue" stroke="midnightblue" points="745.269,-193.754 753.335,-186.884 742.746,-187.224 745.269,-193.754"/>
</g>
<!-- Node22&#45;&gt;Node12 -->
<g id="edge27" class="edge"><title>Node22&#45;&gt;Node12</title>
<path fill="none" stroke="midnightblue" d="M1132.18,-440.762C1176.4,-445.123 1250.47,-452.772 1314,-461 1336.74,-463.945 1362.52,-467.872 1381.16,-470.818"/>
<polygon fill="midnightblue" stroke="midnightblue" points="1380.8,-474.305 1391.23,-472.423 1381.91,-467.393 1380.8,-474.305"/>
</g>
<!-- Node23 -->
<g id="node23" class="node"><title>Node23</title>
<g id="a_node23"><a xlink:href="../../d4/d87/group__chunk.html#gaa86c84493369a4254d5801cdca20d458" target="_top" xlink:title="chunk_free">
<polygon fill="none" stroke="black" points="1217.5,-389.5 1217.5,-408.5 1282.5,-408.5 1282.5,-389.5 1217.5,-389.5"/>
<text text-anchor="middle" x="1250" y="-396.5" font-family="Helvetica,sans-Serif" font-size="10.00">chunk_free</text>
</a>
</g>
</g>
<!-- Node22&#45;&gt;Node23 -->
<g id="edge25" class="edge"><title>Node22&#45;&gt;Node23</title>
<path fill="none" stroke="midnightblue" d="M1132.37,-427.411C1155.25,-421.838 1184.06,-414.819 1207.32,-409.152"/>
<polygon fill="midnightblue" stroke="midnightblue" points="1208.36,-412.502 1217.25,-406.734 1206.7,-405.7 1208.36,-412.502"/>
</g>
<!-- Node23&#45;&gt;Node12 -->
<g id="edge26" class="edge"><title>Node23&#45;&gt;Node12</title>
<path fill="none" stroke="midnightblue" d="M1278.65,-408.541C1289.79,-412.639 1302.65,-417.701 1314,-423 1338.09,-434.249 1364.44,-449.257 1382.92,-460.257"/>
<polygon fill="midnightblue" stroke="midnightblue" points="1381.19,-463.302 1391.57,-465.452 1384.8,-457.302 1381.19,-463.302"/>
</g>
<!-- Node25 -->
<g id="node25" class="node"><title>Node25</title>
<g id="a_node25"><a xlink:href="../../da/d0c/endpoint__notify_8c.html#a55fdd0651a0e929c599c0ffd77626082" target="_top" xlink:title="endpoint_notify_create">
<polygon fill="none" stroke="black" points="882.5,-421.5 882.5,-440.5 997.5,-440.5 997.5,-421.5 882.5,-421.5"/>
<text text-anchor="middle" x="940" y="-428.5" font-family="Helvetica,sans-Serif" font-size="10.00">endpoint_notify_create</text>
</a>
</g>
</g>
<!-- Node24&#45;&gt;Node25 -->
<g id="edge29" class="edge"><title>Node24&#45;&gt;Node25</title>
<path fill="none" stroke="midnightblue" d="M845.709,-431C854.295,-431 863.223,-431 872.002,-431"/>
<polygon fill="midnightblue" stroke="midnightblue" points="872.211,-434.5 882.211,-431 872.211,-427.5 872.211,-434.5"/>
</g>
<!-- Node27 -->
<g id="node27" class="node"><title>Node27</title>
<g id="a_node27"><a xlink:href="../../d9/d32/connect__manager_8c.html#a48e6c7d1bc525dc1f2627c117ec8fcdf" target="_top" xlink:title="match_checklist_by_id">
<polygon fill="none" stroke="black" points="1350,-123.5 1350,-142.5 1466,-142.5 1466,-123.5 1350,-123.5"/>
<text text-anchor="middle" x="1408" y="-130.5" font-family="Helvetica,sans-Serif" font-size="10.00">match_checklist_by_id</text>
</a>
</g>
</g>
<!-- Node26&#45;&gt;Node27 -->
<g id="edge31" class="edge"><title>Node26&#45;&gt;Node27</title>
<path fill="none" stroke="midnightblue" d="M1301.65,-133C1313.79,-133 1326.95,-133 1339.72,-133"/>
<polygon fill="midnightblue" stroke="midnightblue" points="1339.85,-136.5 1349.85,-133 1339.85,-129.5 1339.85,-136.5"/>
</g>
<!-- Node28 -->
<g id="node28" class="node"><title>Node28</title>
<g id="a_node28"><a xlink:href="../../d4/d87/group__chunk.html#gae6aabf03218cda073ab2173e02bff4ba" target="_top" xlink:title="chunk_equals">
<polygon fill="none" stroke="black" points="1515.5,-123.5 1515.5,-142.5 1592.5,-142.5 1592.5,-123.5 1515.5,-123.5"/>
<text text-anchor="middle" x="1554" y="-130.5" font-family="Helvetica,sans-Serif" font-size="10.00">chunk_equals</text>
</a>
</g>
</g>
<!-- Node27&#45;&gt;Node28 -->
<g id="edge32" class="edge"><title>Node27&#45;&gt;Node28</title>
<path fill="none" stroke="midnightblue" d="M1466.33,-133C1479.19,-133 1492.71,-133 1505.15,-133"/>
<polygon fill="midnightblue" stroke="midnightblue" points="1505.3,-136.5 1515.3,-133 1505.3,-129.5 1505.3,-136.5"/>
</g>
<!-- Node29 -->
<g id="node29" class="node"><title>Node29</title>
<g id="a_node29"><a xlink:href="../../dd/d74/group__memory__i.html#ga46d7935db00fd7092430dbf4f36c2850" target="_top" xlink:title="memeq">
<polygon fill="none" stroke="black" points="1642.5,-123.5 1642.5,-142.5 1691.5,-142.5 1691.5,-123.5 1642.5,-123.5"/>
<text text-anchor="middle" x="1667" y="-130.5" font-family="Helvetica,sans-Serif" font-size="10.00">memeq</text>
</a>
</g>
</g>
<!-- Node28&#45;&gt;Node29 -->
<g id="edge33" class="edge"><title>Node28&#45;&gt;Node29</title>
<path fill="none" stroke="midnightblue" d="M1592.58,-133C1605.45,-133 1619.77,-133 1632.31,-133"/>
<polygon fill="midnightblue" stroke="midnightblue" points="1632.37,-136.5 1642.37,-133 1632.37,-129.5 1632.37,-136.5"/>
</g>
<!-- Node32&#45;&gt;Node20 -->
<g id="edge43" class="edge"><title>Node32&#45;&gt;Node20</title>
<path fill="none" stroke="midnightblue" d="M893.975,-299.359C833.405,-303.704 727.124,-306.718 673.663,-305.426"/>
<polygon fill="midnightblue" stroke="midnightblue" points="673.506,-301.919 663.398,-305.097 673.281,-308.916 673.506,-301.919"/>
</g>
<!-- Node33 -->
<g id="node33" class="node"><title>Node33</title>
<g id="a_node33"><a xlink:href="../../d9/d32/connect__manager_8c.html#a77eb11570d14635d5e6f46bc56b6efcf" target="_top" xlink:title="callback_data_create">
<polygon fill="none" stroke="black" points="1195.5,-275.5 1195.5,-294.5 1304.5,-294.5 1304.5,-275.5 1195.5,-275.5"/>
<text text-anchor="middle" x="1250" y="-282.5" font-family="Helvetica,sans-Serif" font-size="10.00">callback_data_create</text>
</a>
</g>
</g>
<!-- Node32&#45;&gt;Node33 -->
<g id="edge37" class="edge"><title>Node32&#45;&gt;Node33</title>
<path fill="none" stroke="midnightblue" d="M986.116,-291.828C1038.71,-290.462 1126.01,-288.195 1185.45,-286.651"/>
<polygon fill="midnightblue" stroke="midnightblue" points="1185.57,-290.149 1195.47,-286.39 1185.39,-283.151 1185.57,-290.149"/>
</g>
<!-- Node34 -->
<g id="node34" class="node"><title>Node34</title>
<g id="a_node34"><a xlink:href="../../d9/d32/connect__manager_8c.html#a4674a63e69fa1940f68b6d6d4532d1dc" target="_top" xlink:title="callback_data_destroy">
<polygon fill="none" stroke="black" points="1035,-351.5 1035,-370.5 1149,-370.5 1149,-351.5 1035,-351.5"/>
<text text-anchor="middle" x="1092" y="-358.5" font-family="Helvetica,sans-Serif" font-size="10.00">callback_data_destroy</text>
</a>
</g>
</g>
<!-- Node32&#45;&gt;Node34 -->
<g id="edge38" class="edge"><title>Node32&#45;&gt;Node34</title>
<path fill="none" stroke="midnightblue" d="M975.099,-302.601C982.8,-305.251 990.819,-308.403 998,-312 1015.42,-320.724 1016.93,-327.614 1034,-337 1040.79,-340.735 1048.29,-344.272 1055.55,-347.425"/>
<polygon fill="midnightblue" stroke="midnightblue" points="1054.64,-350.839 1065.21,-351.47 1057.34,-344.381 1054.64,-350.839"/>
</g>
<!-- Node35 -->
<g id="node35" class="node"><title>Node35</title>
<g id="a_node35"><a xlink:href="../../d0/d8f/group__callback__job.html#ga6934f856d27d82413610263e27a5cfa1" target="_top" xlink:title="callback_job_create">
<polygon fill="none" stroke="black" points="1356.5,-275.5 1356.5,-294.5 1459.5,-294.5 1459.5,-275.5 1356.5,-275.5"/>
<text text-anchor="middle" x="1408" y="-282.5" font-family="Helvetica,sans-Serif" font-size="10.00">callback_job_create</text>
</a>
</g>
</g>
<!-- Node32&#45;&gt;Node35 -->
<g id="edge41" class="edge"><title>Node32&#45;&gt;Node35</title>
<path fill="none" stroke="midnightblue" d="M986.335,-298.798C1001.47,-300.487 1018.44,-302.114 1034,-303 1158.24,-310.071 1190.19,-316.518 1314,-304 1328.78,-302.506 1344.68,-299.709 1359.07,-296.712"/>
<polygon fill="midnightblue" stroke="midnightblue" points="1360.22,-300.044 1369.26,-294.51 1358.74,-293.203 1360.22,-300.044"/>
</g>
<!-- Node34&#45;&gt;Node12 -->
<g id="edge40" class="edge"><title>Node34&#45;&gt;Node12</title>
<path fill="none" stroke="midnightblue" d="M1149.35,-355.35C1195.76,-353.094 1262.11,-355.513 1314,-380 1350.14,-397.054 1379.94,-434.496 1395.44,-456.947"/>
<polygon fill="midnightblue" stroke="midnightblue" points="1392.54,-458.913 1401.01,-465.28 1398.36,-455.022 1392.54,-458.913"/>
</g>
<!-- Node34&#45;&gt;Node23 -->
<g id="edge39" class="edge"><title>Node34&#45;&gt;Node23</title>
<path fill="none" stroke="midnightblue" d="M1132.37,-370.589C1155.25,-376.162 1184.06,-383.181 1207.32,-388.848"/>
<polygon fill="midnightblue" stroke="midnightblue" points="1206.7,-392.3 1217.25,-391.266 1208.36,-385.498 1206.7,-392.3"/>
</g>
<!-- Node35&#45;&gt;Node4 -->
<g id="edge42" class="edge"><title>Node35&#45;&gt;Node4</title>
<path fill="none" stroke="midnightblue" d="M1414.3,-294.783C1434.83,-332.705 1509.52,-470.688 1539.96,-526.911"/>
<polygon fill="midnightblue" stroke="midnightblue" points="1536.94,-528.685 1544.78,-535.813 1543.1,-525.353 1536.94,-528.685"/>
</g>
<!-- Node37 -->
<g id="node37" class="node"><title>Node37</title>
<g id="a_node37"><a xlink:href="../../d9/d32/connect__manager_8c.html#aedcaf4b4ca6bc58701b4c01f1e6c3b54" target="_top" xlink:title="build_signature">
<polygon fill="none" stroke="black" points="899,-321.5 899,-340.5 981,-340.5 981,-321.5 899,-321.5"/>
<text text-anchor="middle" x="940" y="-328.5" font-family="Helvetica,sans-Serif" font-size="10.00">build_signature</text>
</a>
</g>
</g>
<!-- Node36&#45;&gt;Node37 -->
<g id="edge45" class="edge"><title>Node36&#45;&gt;Node37</title>
<path fill="none" stroke="midnightblue" d="M822.699,-184.55C831.21,-187.365 839.707,-191.607 846,-198 883.271,-235.868 844.729,-274.132 882,-312 884.341,-314.379 886.988,-316.46 889.827,-318.281"/>
<polygon fill="midnightblue" stroke="midnightblue" points="888.328,-321.446 898.809,-322.998 891.583,-315.249 888.328,-321.446"/>
</g>
<!-- Node38 -->
<g id="node38" class="node"><title>Node38</title>
<g id="a_node38"><a xlink:href="../../d1/d7f/group__ike__sa__id.html#gaa080d65d35119ab2dd69b73309c14566" target="_top" xlink:title="ike_sa_id_create">
<polygon fill="none" stroke="black" points="895,-161.5 895,-180.5 985,-180.5 985,-161.5 895,-161.5"/>
<text text-anchor="middle" x="940" y="-168.5" font-family="Helvetica,sans-Serif" font-size="10.00">ike_sa_id_create</text>
</a>
</g>
</g>
<!-- Node36&#45;&gt;Node38 -->
<g id="edge47" class="edge"><title>Node36&#45;&gt;Node38</title>
<path fill="none" stroke="midnightblue" d="M822.663,-177.205C840.998,-176.227 864.126,-174.993 884.921,-173.884"/>
<polygon fill="midnightblue" stroke="midnightblue" points="885.112,-177.379 894.911,-173.351 884.739,-170.389 885.112,-177.379"/>
</g>
<!-- Node39 -->
<g id="node39" class="node"><title>Node39</title>
<g id="a_node39"><a xlink:href="../../de/d9a/group__message.html#gac4bba880d7840360ecb8e4137526420b" target="_top" xlink:title="message_create">
<polygon fill="none" stroke="black" points="895.5,-85.5 895.5,-104.5 984.5,-104.5 984.5,-85.5 895.5,-85.5"/>
<text text-anchor="middle" x="940" y="-92.5" font-family="Helvetica,sans-Serif" font-size="10.00">message_create</text>
</a>
</g>
</g>
<!-- Node36&#45;&gt;Node39 -->
<g id="edge48" class="edge"><title>Node36&#45;&gt;Node39</title>
<path fill="none" stroke="midnightblue" d="M806.207,-169.364C832.429,-154.68 882.566,-126.603 913.171,-109.464"/>
<polygon fill="midnightblue" stroke="midnightblue" points="914.979,-112.463 921.994,-104.523 911.559,-106.356 914.979,-112.463"/>
</g>
<!-- Node45 -->
<g id="node45" class="node"><title>Node45</title>
<g id="a_node45"><a xlink:href="../../d9/d32/connect__manager_8c.html#a78416603d2ebd2bb0dcf49e3ccd4ae9c" target="_top" xlink:title="queue_retransmission">
<polygon fill="none" stroke="black" points="884,-199.5 884,-218.5 996,-218.5 996,-199.5 884,-199.5"/>
<text text-anchor="middle" x="940" y="-206.5" font-family="Helvetica,sans-Serif" font-size="10.00">queue_retransmission</text>
</a>
</g>
</g>
<!-- Node36&#45;&gt;Node45 -->
<g id="edge55" class="edge"><title>Node36&#45;&gt;Node45</title>
<path fill="none" stroke="midnightblue" d="M822.663,-185.733C839.954,-189.191 861.508,-193.502 881.348,-197.47"/>
<polygon fill="midnightblue" stroke="midnightblue" points="880.736,-200.916 891.228,-199.446 882.109,-194.052 880.736,-200.916"/>
</g>
<!-- Node37&#45;&gt;Node23 -->
<g id="edge46" class="edge"><title>Node37&#45;&gt;Node23</title>
<path fill="none" stroke="midnightblue" d="M966.788,-340.53C976.757,-344.554 988.121,-349.568 998,-355 1015.07,-364.386 1015.69,-373.365 1034,-380 1091.4,-400.796 1162.83,-402.817 1207.18,-401.538"/>
<polygon fill="midnightblue" stroke="midnightblue" points="1207.43,-405.031 1217.3,-401.174 1207.18,-398.035 1207.43,-405.031"/>
</g>
<!-- Node40 -->
<g id="node40" class="node"><title>Node40</title>
<g id="a_node40"><a xlink:href="../../de/d9a/group__message.html#ga2c4a060592f02346b2dbf3d1df2e6e3c" target="_top" xlink:title="message_create_from\l_packet">
<polygon fill="none" stroke="black" points="1035.5,-36 1035.5,-66 1148.5,-66 1148.5,-36 1035.5,-36"/>
<text text-anchor="start" x="1043.5" y="-54" font-family="Helvetica,sans-Serif" font-size="10.00">message_create_from</text>
<text text-anchor="middle" x="1092" y="-43" font-family="Helvetica,sans-Serif" font-size="10.00">_packet</text>
</a>
</g>
</g>
<!-- Node39&#45;&gt;Node40 -->
<g id="edge49" class="edge"><title>Node39&#45;&gt;Node40</title>
<path fill="none" stroke="midnightblue" d="M973.548,-85.4527C990.059,-80.6094 1010.66,-74.5654 1029.98,-68.898"/>
<polygon fill="midnightblue" stroke="midnightblue" points="1031.03,-72.2387 1039.64,-66.0654 1029.06,-65.5217 1031.03,-72.2387"/>
</g>
<!-- Node43 -->
<g id="node43" class="node"><title>Node43</title>
<g id="a_node43"><a xlink:href="../../db/dd9/group__packet.html#ga860fd5eabb20eac45cf95ab30dc56a34" target="_top" xlink:title="packet_create">
<polygon fill="none" stroke="black" points="1053,-85.5 1053,-104.5 1131,-104.5 1131,-85.5 1053,-85.5"/>
<text text-anchor="middle" x="1092" y="-92.5" font-family="Helvetica,sans-Serif" font-size="10.00">packet_create</text>
</a>
</g>
</g>
<!-- Node39&#45;&gt;Node43 -->
<g id="edge53" class="edge"><title>Node39&#45;&gt;Node43</title>
<path fill="none" stroke="midnightblue" d="M984.789,-95C1002.88,-95 1023.93,-95 1042.49,-95"/>
<polygon fill="midnightblue" stroke="midnightblue" points="1042.51,-98.5001 1052.51,-95 1042.51,-91.5001 1042.51,-98.5001"/>
</g>
<!-- Node41 -->
<g id="node41" class="node"><title>Node41</title>
<g id="a_node41"><a xlink:href="../../d3/dc0/group__linked__list.html#ga15bb4333e53dbef32d196e4388f43fdf" target="_top" xlink:title="linked_list_create">
<polygon fill="none" stroke="black" points="1204,-0.5 1204,-19.5 1296,-19.5 1296,-0.5 1204,-0.5"/>
<text text-anchor="middle" x="1250" y="-7.5" font-family="Helvetica,sans-Serif" font-size="10.00">linked_list_create</text>
</a>
</g>
</g>
<!-- Node40&#45;&gt;Node41 -->
<g id="edge50" class="edge"><title>Node40&#45;&gt;Node41</title>
<path fill="none" stroke="midnightblue" d="M1148.88,-36.3139C1166.4,-31.709 1185.54,-26.6775 1202.36,-22.2588"/>
<polygon fill="midnightblue" stroke="midnightblue" points="1203.71,-25.5231 1212.49,-19.5961 1201.93,-18.753 1203.71,-25.5231"/>
</g>
<!-- Node42 -->
<g id="node42" class="node"><title>Node42</title>
<g id="a_node42"><a xlink:href="../../dd/da8/group__parser.html#ga4f907e86ca85c0c5c10ad1d70a2db48b" target="_top" xlink:title="parser_create">
<polygon fill="none" stroke="black" points="1212,-41.5 1212,-60.5 1288,-60.5 1288,-41.5 1212,-41.5"/>
<text text-anchor="middle" x="1250" y="-48.5" font-family="Helvetica,sans-Serif" font-size="10.00">parser_create</text>
</a>
</g>
</g>
<!-- Node40&#45;&gt;Node42 -->
<g id="edge52" class="edge"><title>Node40&#45;&gt;Node42</title>
<path fill="none" stroke="midnightblue" d="M1148.88,-51C1166.11,-51 1184.91,-51 1201.52,-51"/>
<polygon fill="midnightblue" stroke="midnightblue" points="1201.55,-54.5001 1211.55,-51 1201.55,-47.5001 1201.55,-54.5001"/>
</g>
<!-- Node41&#45;&gt;Node15 -->
<g id="edge51" class="edge"><title>Node41&#45;&gt;Node15</title>
<path fill="none" stroke="midnightblue" d="M1203.86,-9.28524C1143.83,-8.3979 1034.45,-7 941,-7 425,-7 425,-7 425,-7 198.342,-7 166.146,-406.917 161.696,-501.926"/>
<polygon fill="midnightblue" stroke="midnightblue" points="158.188,-502.036 161.272,-512.172 165.182,-502.325 158.188,-502.036"/>
</g>
<!-- Node44 -->
<g id="node44" class="node"><title>Node44</title>
<g id="a_node44"><a xlink:href="../../db/dd9/group__packet.html#ga09772f9176b3dc9c958bc821f515be79" target="_top" xlink:title="packet_create_from_data">
<polygon fill="none" stroke="black" points="1186.5,-85.5 1186.5,-104.5 1313.5,-104.5 1313.5,-85.5 1186.5,-85.5"/>
<text text-anchor="middle" x="1250" y="-92.5" font-family="Helvetica,sans-Serif" font-size="10.00">packet_create_from_data</text>
</a>
</g>
</g>
<!-- Node43&#45;&gt;Node44 -->
<g id="edge54" class="edge"><title>Node43&#45;&gt;Node44</title>
<path fill="none" stroke="midnightblue" d="M1131.16,-95C1144.78,-95 1160.61,-95 1176.16,-95"/>
<polygon fill="midnightblue" stroke="midnightblue" points="1176.31,-98.5001 1186.31,-95 1176.31,-91.5001 1176.31,-98.5001"/>
</g>
<!-- Node45&#45;&gt;Node34 -->
<g id="edge56" class="edge"><title>Node45&#45;&gt;Node34</title>
<path fill="none" stroke="midnightblue" d="M950.383,-218.508C975.217,-243.673 1042.91,-312.265 1074.43,-344.212"/>
<polygon fill="midnightblue" stroke="midnightblue" points="1072.11,-346.836 1081.62,-351.495 1077.09,-341.919 1072.11,-346.836"/>
</g>
<!-- Node45&#45;&gt;Node35 -->
<g id="edge57" class="edge"><title>Node45&#45;&gt;Node35</title>
<path fill="none" stroke="midnightblue" d="M996.24,-212.093C1038.51,-214.926 1098.16,-219.928 1150,-228 1224.51,-239.601 1309.74,-259.927 1360.91,-272.911"/>
<polygon fill="midnightblue" stroke="midnightblue" points="1360.12,-276.322 1370.68,-275.405 1361.85,-269.54 1360.12,-276.322"/>
</g>
<!-- Node46 -->
<g id="node46" class="node"><title>Node46</title>
<g id="a_node46"><a xlink:href="../../d9/d32/connect__manager_8c.html#a13543d329388560c587b6f8b6a014329" target="_top" xlink:title="retransmit">
<polygon fill="none" stroke="red" points="1062,-161.5 1062,-180.5 1122,-180.5 1122,-161.5 1062,-161.5"/>
<text text-anchor="middle" x="1092" y="-168.5" font-family="Helvetica,sans-Serif" font-size="10.00">retransmit</text>
</a>
</g>
</g>
<!-- Node45&#45;&gt;Node46 -->
<g id="edge58" class="edge"><title>Node45&#45;&gt;Node46</title>
<path fill="none" stroke="midnightblue" d="M960.303,-199.408C983.377,-191.373 1022.57,-181.011 1052.03,-174.869"/>
<polygon fill="midnightblue" stroke="midnightblue" points="1052.88,-178.269 1062,-172.884 1051.51,-171.404 1052.88,-178.269"/>
</g>
<!-- Node49 -->
<g id="node49" class="node"><title>Node49</title>
<g id="a_node49"><a xlink:href="../../d9/d32/connect__manager_8c.html#a07f604baaa16961bf7bc5a2df1139e24" target="_top" xlink:title="retransmit_data_create">
<polygon fill="none" stroke="black" points="1034,-237.5 1034,-256.5 1150,-256.5 1150,-237.5 1034,-237.5"/>
<text text-anchor="middle" x="1092" y="-244.5" font-family="Helvetica,sans-Serif" font-size="10.00">retransmit_data_create</text>
</a>
</g>
</g>
<!-- Node45&#45;&gt;Node49 -->
<g id="edge64" class="edge"><title>Node45&#45;&gt;Node49</title>
<path fill="none" stroke="midnightblue" d="M978.851,-218.589C998.467,-223.558 1022.62,-229.677 1043.48,-234.961"/>
<polygon fill="midnightblue" stroke="midnightblue" points="1042.87,-238.417 1053.42,-237.48 1044.59,-231.631 1042.87,-238.417"/>
</g>
<!-- Node46&#45;&gt;Node26 -->
<g id="edge61" class="edge"><title>Node46&#45;&gt;Node26</title>
<path fill="none" stroke="midnightblue" d="M1122.34,-163.852C1144.16,-158.538 1174.43,-151.164 1199.91,-144.958"/>
<polygon fill="midnightblue" stroke="midnightblue" points="1200.89,-148.323 1209.77,-142.555 1199.23,-141.521 1200.89,-148.323"/>
</g>
<!-- Node46&#45;&gt;Node45 -->
<g id="edge63" class="edge"><title>Node46&#45;&gt;Node45</title>
<path fill="none" stroke="midnightblue" d="M1071.87,-180.532C1055.11,-186.381 1029.74,-193.476 1005.79,-199.279"/>
<polygon fill="midnightblue" stroke="midnightblue" points="1004.93,-195.888 996.003,-201.598 1006.54,-202.7 1004.93,-195.888"/>
</g>
<!-- Node47 -->
<g id="node47" class="node"><title>Node47</title>
<g id="a_node47"><a xlink:href="../../d9/d32/connect__manager_8c.html#a9dcaddd1fa6089a78bc2c65fde83817a" target="_top" xlink:title="finish_checks">
<polygon fill="none" stroke="red" points="1211.5,-199.5 1211.5,-218.5 1288.5,-218.5 1288.5,-199.5 1211.5,-199.5"/>
<text text-anchor="middle" x="1250" y="-206.5" font-family="Helvetica,sans-Serif" font-size="10.00">finish_checks</text>
</a>
</g>
</g>
<!-- Node46&#45;&gt;Node47 -->
<g id="edge59" class="edge"><title>Node46&#45;&gt;Node47</title>
<path fill="none" stroke="midnightblue" d="M1122.34,-178.148C1144.55,-183.557 1175.52,-191.1 1201.27,-197.374"/>
<polygon fill="midnightblue" stroke="midnightblue" points="1200.68,-200.831 1211.22,-199.797 1202.33,-194.03 1200.68,-200.831"/>
</g>
<!-- Node48 -->
<g id="node48" class="node"><title>Node48</title>
<g id="a_node48"><a xlink:href="../../d9/d32/connect__manager_8c.html#ad3444748ac94a8c84f02bee5d2050580" target="_top" xlink:title="get_pair_by_id">
<polygon fill="none" stroke="red" points="1210,-161.5 1210,-180.5 1290,-180.5 1290,-161.5 1210,-161.5"/>
<text text-anchor="middle" x="1250" y="-168.5" font-family="Helvetica,sans-Serif" font-size="10.00">get_pair_by_id</text>
</a>
</g>
</g>
<!-- Node46&#45;&gt;Node48 -->
<g id="edge62" class="edge"><title>Node46&#45;&gt;Node48</title>
<path fill="none" stroke="midnightblue" d="M1122.34,-171C1144.06,-171 1174.16,-171 1199.57,-171"/>
<polygon fill="midnightblue" stroke="midnightblue" points="1199.77,-174.5 1209.77,-171 1199.77,-167.5 1199.77,-174.5"/>
</g>
<!-- Node47&#45;&gt;Node35 -->
<g id="edge60" class="edge"><title>Node47&#45;&gt;Node35</title>
<path fill="none" stroke="midnightblue" d="M1278.65,-218.541C1289.79,-222.639 1302.65,-227.701 1314,-233 1338.09,-244.249 1364.44,-259.257 1382.92,-270.257"/>
<polygon fill="midnightblue" stroke="midnightblue" points="1381.19,-273.302 1391.57,-275.452 1384.8,-267.302 1381.19,-273.302"/>
</g>
<!-- Node49&#45;&gt;Node33 -->
<g id="edge65" class="edge"><title>Node49&#45;&gt;Node33</title>
<path fill="none" stroke="midnightblue" d="M1132.37,-256.589C1152.95,-261.604 1178.34,-267.788 1200.17,-273.105"/>
<polygon fill="midnightblue" stroke="midnightblue" points="1199.37,-276.514 1209.92,-275.48 1201.03,-269.713 1199.37,-276.514"/>
</g>
<!-- Node50&#45;&gt;Node16 -->
<g id="edge68" class="edge"><title>Node50&#45;&gt;Node16</title>
<path fill="none" stroke="midnightblue" d="M204.205,-554.299C218.475,-552.417 234.551,-550.295 249.604,-548.309"/>
<polygon fill="midnightblue" stroke="midnightblue" points="250.37,-551.739 259.826,-546.96 249.454,-544.799 250.37,-551.739"/>
</g>
</g>
</svg>
