<?xml version="1.0" encoding="UTF-8" standalone="no"?>
<!DOCTYPE svg PUBLIC "-//W3C//DTD SVG 1.1//EN"
 "http://www.w3.org/Graphics/SVG/1.1/DTD/svg11.dtd">
<!-- Generated by graphviz version 2.36.0 (20140111.2315)
 -->
<!-- Title: stroke_terminate Pages: 1 -->
<svg width="556pt" height="28pt"
 viewBox="0.00 0.00 556.00 28.00" xmlns="http://www.w3.org/2000/svg" xmlns:xlink="http://www.w3.org/1999/xlink">
<g id="graph0" class="graph" transform="scale(1 1) rotate(0) translate(4 24)">
<title>stroke_terminate</title>
<!-- Node1 -->
<g id="node1" class="node"><title>Node1</title>
<polygon fill="#bfbfbf" stroke="black" points="0.5,-0.5 0.5,-19.5 89.5,-19.5 89.5,-0.5 0.5,-0.5"/>
<text text-anchor="middle" x="45" y="-7.5" font-family="Helvetica,sans-Serif" font-size="10.00">stroke_terminate</text>
</g>
<!-- Node2 -->
<g id="node2" class="node"><title>Node2</title>
<g id="a_node2"><a xlink:href="../../dd/dda/stroke__socket_8c.html#acc127cd2eeaa4ed7c6d30c613f02a76e" target="_top" xlink:title="on_accept">
<polygon fill="none" stroke="black" points="126,-0.5 126,-19.5 188,-19.5 188,-0.5 126,-0.5"/>
<text text-anchor="middle" x="157" y="-7.5" font-family="Helvetica,sans-Serif" font-size="10.00">on_accept</text>
</a>
</g>
</g>
<!-- Node1&#45;&gt;Node2 -->
<g id="edge1" class="edge"><title>Node1&#45;&gt;Node2</title>
<path fill="none" stroke="midnightblue" d="M99.8377,-10C108.797,-10 117.797,-10 125.886,-10"/>
<polygon fill="midnightblue" stroke="midnightblue" points="99.791,-6.5001 89.791,-10 99.7909,-13.5001 99.791,-6.5001"/>
</g>
<!-- Node3 -->
<g id="node3" class="node"><title>Node3</title>
<g id="a_node3"><a xlink:href="../../d3/d5b/group__stroke__socket.html#gad1f5f8940280e2e2b5066540a33f75af" target="_top" xlink:title="stroke_socket_create">
<polygon fill="none" stroke="black" points="224,-0.5 224,-19.5 334,-19.5 334,-0.5 224,-0.5"/>
<text text-anchor="middle" x="279" y="-7.5" font-family="Helvetica,sans-Serif" font-size="10.00">stroke_socket_create</text>
</a>
</g>
</g>
<!-- Node2&#45;&gt;Node3 -->
<g id="edge2" class="edge"><title>Node2&#45;&gt;Node3</title>
<path fill="none" stroke="midnightblue" d="M198.331,-10C206.541,-10 215.303,-10 223.902,-10"/>
<polygon fill="midnightblue" stroke="midnightblue" points="198.281,-6.5001 188.281,-10 198.281,-13.5001 198.281,-6.5001"/>
</g>
<!-- Node4 -->
<g id="node4" class="node"><title>Node4</title>
<g id="a_node4"><a xlink:href="../../d0/d10/stroke__plugin_8c.html#a6fec94fe501805d572fe2fb64018d91a" target="_top" xlink:title="register_stroke">
<polygon fill="none" stroke="black" points="370.5,-0.5 370.5,-19.5 451.5,-19.5 451.5,-0.5 370.5,-0.5"/>
<text text-anchor="middle" x="411" y="-7.5" font-family="Helvetica,sans-Serif" font-size="10.00">register_stroke</text>
</a>
</g>
</g>
<!-- Node3&#45;&gt;Node4 -->
<g id="edge3" class="edge"><title>Node3&#45;&gt;Node4</title>
<path fill="none" stroke="midnightblue" d="M344.042,-10C352.975,-10 361.932,-10 370.238,-10"/>
<polygon fill="midnightblue" stroke="midnightblue" points="344.002,-6.5001 334.002,-10 344.002,-13.5001 344.002,-6.5001"/>
</g>
<!-- Node5 -->
<g id="node5" class="node"><title>Node5</title>
<g id="a_node5"><a xlink:href="../../d0/d10/stroke__plugin_8c.html#a5df13da493d5d6ff660fcf6f2eca38ca" target="_top" xlink:title="METHOD">
<polygon fill="none" stroke="black" points="488,-0.5 488,-19.5 548,-19.5 548,-0.5 488,-0.5"/>
<text text-anchor="middle" x="518" y="-7.5" font-family="Helvetica,sans-Serif" font-size="10.00">METHOD</text>
</a>
</g>
</g>
<!-- Node4&#45;&gt;Node5 -->
<g id="edge4" class="edge"><title>Node4&#45;&gt;Node5</title>
<path fill="none" stroke="midnightblue" d="M461.954,-10C470.782,-10 479.705,-10 487.723,-10"/>
<polygon fill="midnightblue" stroke="midnightblue" points="461.696,-6.5001 451.696,-10 461.696,-13.5001 461.696,-6.5001"/>
</g>
</g>
</svg>
