<?xml version="1.0" encoding="UTF-8" standalone="no"?>
<!DOCTYPE svg PUBLIC "-//W3C//DTD SVG 1.1//EN"
 "http://www.w3.org/Graphics/SVG/1.1/DTD/svg11.dtd">
<!-- Generated by graphviz version 2.36.0 (20140111.2315)
 -->
<!-- Title: pgp_old_packet_length Pages: 1 -->
<svg width="628pt" height="66pt"
 viewBox="0.00 0.00 628.00 66.00" xmlns="http://www.w3.org/2000/svg" xmlns:xlink="http://www.w3.org/1999/xlink">
<g id="graph0" class="graph" transform="scale(1 1) rotate(0) translate(4 62)">
<title>pgp_old_packet_length</title>
<!-- Node1 -->
<g id="node1" class="node"><title>Node1</title>
<polygon fill="#bfbfbf" stroke="black" points="0,-19.5 0,-38.5 116,-38.5 116,-19.5 0,-19.5"/>
<text text-anchor="middle" x="58" y="-26.5" font-family="Helvetica,sans-Serif" font-size="10.00">pgp_old_packet_length</text>
</g>
<!-- Node2 -->
<g id="node2" class="node"><title>Node2</title>
<g id="a_node2"><a xlink:href="../../dc/d44/group__pgp__utils.html#ga4811eb3d1ef028a3097af10da531203c" target="_top" xlink:title="pgp_read_packet">
<polygon fill="none" stroke="black" points="152.5,-19.5 152.5,-38.5 243.5,-38.5 243.5,-19.5 152.5,-19.5"/>
<text text-anchor="middle" x="198" y="-26.5" font-family="Helvetica,sans-Serif" font-size="10.00">pgp_read_packet</text>
</a>
</g>
</g>
<!-- Node1&#45;&gt;Node2 -->
<g id="edge1" class="edge"><title>Node1&#45;&gt;Node2</title>
<path fill="none" stroke="midnightblue" d="M126.529,-29C135.262,-29 144.026,-29 152.262,-29"/>
<polygon fill="midnightblue" stroke="midnightblue" points="126.326,-25.5001 116.326,-29 126.326,-32.5001 126.326,-25.5001"/>
</g>
<!-- Node3 -->
<g id="node3" class="node"><title>Node3</title>
<g id="a_node3"><a xlink:href="../../de/d59/pgp__builder_8c.html#ae9770e7351a6c1e105b5b5fe322e033c" target="_top" xlink:title="parse_private_key">
<polygon fill="none" stroke="black" points="280,-38.5 280,-57.5 376,-57.5 376,-38.5 280,-38.5"/>
<text text-anchor="middle" x="328" y="-45.5" font-family="Helvetica,sans-Serif" font-size="10.00">parse_private_key</text>
</a>
</g>
</g>
<!-- Node2&#45;&gt;Node3 -->
<g id="edge2" class="edge"><title>Node2&#45;&gt;Node3</title>
<path fill="none" stroke="midnightblue" d="M253.807,-37.1354C262.481,-38.423 271.386,-39.7448 279.866,-41.0035"/>
<polygon fill="midnightblue" stroke="midnightblue" points="254.174,-33.6516 243.768,-35.6453 253.146,-40.5757 254.174,-33.6516"/>
</g>
<!-- Node6 -->
<g id="node6" class="node"><title>Node6</title>
<g id="a_node6"><a xlink:href="../../db/da9/group__pgp__cert.html#ga15dbcbee456c634368afed0030c186f6" target="_top" xlink:title="pgp_cert_load">
<polygon fill="none" stroke="black" points="429.5,-0.5 429.5,-19.5 506.5,-19.5 506.5,-0.5 429.5,-0.5"/>
<text text-anchor="middle" x="468" y="-7.5" font-family="Helvetica,sans-Serif" font-size="10.00">pgp_cert_load</text>
</a>
</g>
</g>
<!-- Node2&#45;&gt;Node6 -->
<g id="edge5" class="edge"><title>Node2&#45;&gt;Node6</title>
<path fill="none" stroke="midnightblue" d="M253.665,-25.1245C305.979,-21.4157 383.502,-15.9197 429.274,-12.6746"/>
<polygon fill="midnightblue" stroke="midnightblue" points="253.283,-21.6427 243.556,-25.8412 253.778,-28.6252 253.283,-21.6427"/>
</g>
<!-- Node4 -->
<g id="node4" class="node"><title>Node4</title>
<g id="a_node4"><a xlink:href="../../d8/d12/group__pgp__public__key.html#ga77f644d58dc889fd906efbc19ada17c6" target="_top" xlink:title="pgp_private_key_load">
<polygon fill="none" stroke="black" points="412.5,-38.5 412.5,-57.5 523.5,-57.5 523.5,-38.5 412.5,-38.5"/>
<text text-anchor="middle" x="468" y="-45.5" font-family="Helvetica,sans-Serif" font-size="10.00">pgp_private_key_load</text>
</a>
</g>
</g>
<!-- Node3&#45;&gt;Node4 -->
<g id="edge3" class="edge"><title>Node3&#45;&gt;Node4</title>
<path fill="none" stroke="midnightblue" d="M386.32,-48C394.823,-48 403.569,-48 412.022,-48"/>
<polygon fill="midnightblue" stroke="midnightblue" points="386.106,-44.5001 376.106,-48 386.106,-51.5001 386.106,-44.5001"/>
</g>
<!-- Node5 -->
<g id="node5" class="node"><title>Node5</title>
<g id="a_node5"><a xlink:href="../../da/d2d/pgp__plugin_8c.html#a834eacd139636e0d881ab5cec14ce203" target="_top" xlink:title="METHOD">
<polygon fill="none" stroke="black" points="560,-19.5 560,-38.5 620,-38.5 620,-19.5 560,-19.5"/>
<text text-anchor="middle" x="590" y="-26.5" font-family="Helvetica,sans-Serif" font-size="10.00">METHOD</text>
</a>
</g>
</g>
<!-- Node4&#45;&gt;Node5 -->
<g id="edge4" class="edge"><title>Node4&#45;&gt;Node5</title>
<path fill="none" stroke="midnightblue" d="M533.707,-37.7548C542.883,-36.3019 551.911,-34.8724 559.926,-33.6033"/>
<polygon fill="midnightblue" stroke="midnightblue" points="533.062,-34.3131 523.733,-39.334 534.157,-41.227 533.062,-34.3131"/>
</g>
<!-- Node6&#45;&gt;Node5 -->
<g id="edge6" class="edge"><title>Node6&#45;&gt;Node5</title>
<path fill="none" stroke="midnightblue" d="M516.561,-17.5305C531.196,-19.8477 546.864,-22.3284 559.871,-24.3879"/>
<polygon fill="midnightblue" stroke="midnightblue" points="517.064,-14.0666 506.64,-15.9596 515.969,-20.9805 517.064,-14.0666"/>
</g>
</g>
</svg>
