<?xml version="1.0" encoding="UTF-8" standalone="no"?>
<!DOCTYPE svg PUBLIC "-//W3C//DTD SVG 1.1//EN"
 "http://www.w3.org/Graphics/SVG/1.1/DTD/svg11.dtd">
<!-- Generated by graphviz version 2.36.0 (20140111.2315)
 -->
<!-- Title: METHOD Pages: 1 -->
<svg width="572pt" height="66pt"
 viewBox="0.00 0.00 572.00 66.00" xmlns="http://www.w3.org/2000/svg" xmlns:xlink="http://www.w3.org/1999/xlink">
<g id="graph0" class="graph" transform="scale(1 1) rotate(0) translate(4 62)">
<title>METHOD</title>
<!-- Node1 -->
<g id="node1" class="node"><title>Node1</title>
<polygon fill="#bfbfbf" stroke="black" points="0,-19.5 0,-38.5 60,-38.5 60,-19.5 0,-19.5"/>
<text text-anchor="middle" x="30" y="-26.5" font-family="Helvetica,sans-Serif" font-size="10.00">METHOD</text>
</g>
<!-- Node2 -->
<g id="node2" class="node"><title>Node2</title>
<g id="a_node2"><a xlink:href="../../da/dfc/settings__parser_8c.html#af07d89f5ceaea0c7c8252cc41fd75f37" target="_top" xlink:title="free">
<polygon fill="none" stroke="black" points="117.5,-38.5 117.5,-57.5 150.5,-57.5 150.5,-38.5 117.5,-38.5"/>
<text text-anchor="middle" x="134" y="-45.5" font-family="Helvetica,sans-Serif" font-size="10.00">free</text>
</a>
</g>
</g>
<!-- Node1&#45;&gt;Node2 -->
<g id="edge1" class="edge"><title>Node1&#45;&gt;Node2</title>
<path fill="none" stroke="midnightblue" d="M60.2291,-34.4446C75.053,-37.206 92.8979,-40.53 107.206,-43.1953"/>
<polygon fill="midnightblue" stroke="midnightblue" points="106.879,-46.6944 117.35,-45.0849 108.16,-39.8127 106.879,-46.6944"/>
</g>
<!-- Node3 -->
<g id="node3" class="node"><title>Node3</title>
<g id="a_node3"><a xlink:href="../../dc/d20/printf__hook__vstr_8c.html#a98cef88c86ef222934a40832938ce100" target="_top" xlink:title="get_vstr_conf">
<polygon fill="none" stroke="black" points="96,-0.5 96,-19.5 172,-19.5 172,-0.5 96,-0.5"/>
<text text-anchor="middle" x="134" y="-7.5" font-family="Helvetica,sans-Serif" font-size="10.00">get_vstr_conf</text>
</a>
</g>
</g>
<!-- Node1&#45;&gt;Node3 -->
<g id="edge2" class="edge"><title>Node1&#45;&gt;Node3</title>
<path fill="none" stroke="midnightblue" d="M60.2291,-23.5554C68.1837,-22.0736 77.0083,-20.4298 85.6895,-18.8127"/>
<polygon fill="midnightblue" stroke="midnightblue" points="86.564,-22.2101 95.754,-16.938 85.2821,-15.3285 86.564,-22.2101"/>
</g>
<!-- Node4 -->
<g id="node4" class="node"><title>Node4</title>
<g id="a_node4"><a xlink:href="../../dc/d20/printf__hook__vstr_8c.html#a1e4ee85d05b5fa1d6a6f2b9d9014a196" target="_top" xlink:title="create_vstr_conf">
<polygon fill="none" stroke="black" points="208.5,-0.5 208.5,-19.5 297.5,-19.5 297.5,-0.5 208.5,-0.5"/>
<text text-anchor="middle" x="253" y="-7.5" font-family="Helvetica,sans-Serif" font-size="10.00">create_vstr_conf</text>
</a>
</g>
</g>
<!-- Node3&#45;&gt;Node4 -->
<g id="edge3" class="edge"><title>Node3&#45;&gt;Node4</title>
<path fill="none" stroke="midnightblue" d="M172.02,-10C180.296,-10 189.239,-10 198.043,-10"/>
<polygon fill="midnightblue" stroke="midnightblue" points="198.267,-13.5001 208.267,-10 198.267,-6.5001 198.267,-13.5001"/>
</g>
<!-- Node5 -->
<g id="node5" class="node"><title>Node5</title>
<g id="a_node5"><a xlink:href="../../dc/d20/printf__hook__vstr_8c.html#a710ee200d6aaf7347b2a60156a4a401e" target="_top" xlink:title="vstr_fmt_add_handler">
<polygon fill="none" stroke="black" points="334,-0.5 334,-19.5 444,-19.5 444,-0.5 334,-0.5"/>
<text text-anchor="middle" x="389" y="-7.5" font-family="Helvetica,sans-Serif" font-size="10.00">vstr_fmt_add_handler</text>
</a>
</g>
</g>
<!-- Node4&#45;&gt;Node5 -->
<g id="edge4" class="edge"><title>Node4&#45;&gt;Node5</title>
<path fill="none" stroke="midnightblue" d="M297.506,-10C305.946,-10 314.955,-10 323.895,-10"/>
<polygon fill="midnightblue" stroke="midnightblue" points="323.926,-13.5001 333.926,-10 323.926,-6.5001 323.926,-13.5001"/>
</g>
<!-- Node6 -->
<g id="node6" class="node"><title>Node6</title>
<g id="a_node6"><a xlink:href="../../dc/d20/printf__hook__vstr_8c.html#a784dae126cc48c36e8739e8e35d9d588" target="_top" xlink:title="custom_fmt_cb">
<polygon fill="none" stroke="black" points="480,-0.5 480,-19.5 564,-19.5 564,-0.5 480,-0.5"/>
<text text-anchor="middle" x="522" y="-7.5" font-family="Helvetica,sans-Serif" font-size="10.00">custom_fmt_cb</text>
</a>
</g>
</g>
<!-- Node5&#45;&gt;Node6 -->
<g id="edge5" class="edge"><title>Node5&#45;&gt;Node6</title>
<path fill="none" stroke="midnightblue" d="M444.039,-10C452.557,-10 461.342,-10 469.793,-10"/>
<polygon fill="midnightblue" stroke="midnightblue" points="469.896,-13.5001 479.896,-10 469.896,-6.5001 469.896,-13.5001"/>
</g>
</g>
</svg>
