<?xml version="1.0" encoding="UTF-8" standalone="no"?>
<!DOCTYPE svg PUBLIC "-//W3C//DTD SVG 1.1//EN"
 "http://www.w3.org/Graphics/SVG/1.1/DTD/svg11.dtd">
<!-- Generated by graphviz version 2.36.0 (20140111.2315)
 -->
<!-- Title: private_soup_fetcher_t Pages: 1 -->
<svg width="123pt" height="106pt"
 viewBox="0.00 0.00 123.00 106.00" xmlns="http://www.w3.org/2000/svg" xmlns:xlink="http://www.w3.org/1999/xlink">
<g id="graph0" class="graph" transform="scale(1 1) rotate(0) translate(4 102)">
<title>private_soup_fetcher_t</title>
<!-- Node1 -->
<g id="node1" class="node"><title>Node1</title>
<polygon fill="#bfbfbf" stroke="black" points="-1,-0.5 -1,-19.5 115,-19.5 115,-0.5 -1,-0.5"/>
<text text-anchor="middle" x="57" y="-7.5" font-family="Helvetica,sans-Serif" font-size="10.00">private_soup_fetcher_t</text>
</g>
<!-- Node2 -->
<g id="node2" class="node"><title>Node2</title>
<polygon fill="none" stroke="#bfbfbf" points="4.5,-78.5 4.5,-97.5 45.5,-97.5 45.5,-78.5 4.5,-78.5"/>
<text text-anchor="middle" x="25" y="-85.5" font-family="Helvetica,sans-Serif" font-size="10.00">struct</text>
</g>
<!-- Node2&#45;&gt;Node1 -->
<g id="edge1" class="edge"><title>Node2&#45;&gt;Node1</title>
<path fill="none" stroke="#9a32cd" stroke-dasharray="5,2" d="M28.2912,-68.4863C30.3626,-59.0792 33.5092,-47.6321 38,-38 41.1002,-31.3505 45.8502,-24.6005 49.8252,-19.5129"/>
<polygon fill="#9a32cd" stroke="#9a32cd" points="24.845,-67.8719 26.3374,-78.3611 31.7119,-69.2307 24.845,-67.8719"/>
<text text-anchor="middle" x="52.5" y="-52" font-family="Helvetica,sans-Serif" font-size="10.00"> public</text>
<text text-anchor="middle" x="52.5" y="-41" font-family="Helvetica,sans-Serif" font-size="10.00">data</text>
</g>
<!-- Node3 -->
<g id="node3" class="node"><title>Node3</title>
<g id="a_node3"><a xlink:href="../../d0/d14/structchunk__t.html" target="_top" xlink:title="chunk_t">
<polygon fill="none" stroke="black" points="63.5,-78.5 63.5,-97.5 114.5,-97.5 114.5,-78.5 63.5,-78.5"/>
<text text-anchor="middle" x="89" y="-85.5" font-family="Helvetica,sans-Serif" font-size="10.00">chunk_t</text>
</a>
</g>
</g>
<!-- Node3&#45;&gt;Node1 -->
<g id="edge2" class="edge"><title>Node3&#45;&gt;Node1</title>
<path fill="none" stroke="#9a32cd" stroke-dasharray="5,2" d="M81.284,-68.6744C74.7317,-53.1127 65.6199,-31.4722 60.628,-19.6165"/>
<polygon fill="#9a32cd" stroke="#9a32cd" points="78.2228,-70.4237 85.3292,-78.2818 84.6743,-67.7073 78.2228,-70.4237"/>
<text text-anchor="middle" x="83" y="-46.5" font-family="Helvetica,sans-Serif" font-size="10.00"> cb</text>
</g>
</g>
</svg>
