<?xml version="1.0" encoding="UTF-8" standalone="no"?>
<!DOCTYPE svg PUBLIC "-//W3C//DTD SVG 1.1//EN"
 "http://www.w3.org/Graphics/SVG/1.1/DTD/svg11.dtd">
<!-- Generated by graphviz version 2.36.0 (20140111.2315)
 -->
<!-- Title: rekey_connection Pages: 1 -->
<svg width="326pt" height="104pt"
 viewBox="0.00 0.00 326.00 104.00" xmlns="http://www.w3.org/2000/svg" xmlns:xlink="http://www.w3.org/1999/xlink">
<g id="graph0" class="graph" transform="scale(1 1) rotate(0) translate(4 100)">
<title>rekey_connection</title>
<!-- Node1 -->
<g id="node1" class="node"><title>Node1</title>
<polygon fill="#bfbfbf" stroke="black" points="0.5,-57.5 0.5,-76.5 93.5,-76.5 93.5,-57.5 0.5,-57.5"/>
<text text-anchor="middle" x="47" y="-64.5" font-family="Helvetica,sans-Serif" font-size="10.00">rekey_connection</text>
</g>
<!-- Node2 -->
<g id="node2" class="node"><title>Node2</title>
<g id="a_node2"><a xlink:href="../../d9/d93/stroke_8c.html#a4a790b0cbdb4c7753f5dc71106885e3d" target="_top" xlink:title="create_stroke_msg">
<polygon fill="none" stroke="black" points="130,-76.5 130,-95.5 230,-95.5 230,-76.5 130,-76.5"/>
<text text-anchor="middle" x="180" y="-83.5" font-family="Helvetica,sans-Serif" font-size="10.00">create_stroke_msg</text>
</a>
</g>
</g>
<!-- Node1&#45;&gt;Node2 -->
<g id="edge1" class="edge"><title>Node1&#45;&gt;Node2</title>
<path fill="none" stroke="midnightblue" d="M93.8174,-73.6453C102.196,-74.8605 111.049,-76.1445 119.753,-77.4069"/>
<polygon fill="midnightblue" stroke="midnightblue" points="119.466,-80.9019 129.865,-78.8736 120.471,-73.9744 119.466,-80.9019"/>
</g>
<!-- Node3 -->
<g id="node3" class="node"><title>Node3</title>
<g id="a_node3"><a xlink:href="../../d9/d93/stroke_8c.html#af14eb8b0561f71ca4b75579c4d9a9d68" target="_top" xlink:title="send_stroke_msg">
<polygon fill="none" stroke="black" points="133,-38.5 133,-57.5 227,-57.5 227,-38.5 133,-38.5"/>
<text text-anchor="middle" x="180" y="-45.5" font-family="Helvetica,sans-Serif" font-size="10.00">send_stroke_msg</text>
</a>
</g>
</g>
<!-- Node1&#45;&gt;Node3 -->
<g id="edge2" class="edge"><title>Node1&#45;&gt;Node3</title>
<path fill="none" stroke="midnightblue" d="M93.8174,-60.3547C103.236,-58.9886 113.254,-57.5357 122.986,-56.1242"/>
<polygon fill="midnightblue" stroke="midnightblue" points="123.593,-59.5728 132.987,-54.6736 122.588,-52.6453 123.593,-59.5728"/>
</g>
<!-- Node4 -->
<g id="node4" class="node"><title>Node4</title>
<g id="a_node4"><a xlink:href="../../da/dfc/settings__parser_8c.html#af07d89f5ceaea0c7c8252cc41fd75f37" target="_top" xlink:title="free">
<polygon fill="none" stroke="black" points="275.5,-76.5 275.5,-95.5 308.5,-95.5 308.5,-76.5 275.5,-76.5"/>
<text text-anchor="middle" x="292" y="-83.5" font-family="Helvetica,sans-Serif" font-size="10.00">free</text>
</a>
</g>
</g>
<!-- Node3&#45;&gt;Node4 -->
<g id="edge3" class="edge"><title>Node3&#45;&gt;Node4</title>
<path fill="none" stroke="midnightblue" d="M208.758,-57.589C226.256,-63.634 248.677,-71.3793 265.687,-77.2557"/>
<polygon fill="midnightblue" stroke="midnightblue" points="264.893,-80.684 275.488,-80.6411 267.178,-74.0677 264.893,-80.684"/>
</g>
<!-- Node5 -->
<g id="node5" class="node"><title>Node5</title>
<g id="a_node5"><a xlink:href="../../d4/d40/group__string__i.html#ga65c3d08890165aaa4663c72d07f93bb7" target="_top" xlink:title="streq">
<polygon fill="none" stroke="black" points="273,-38.5 273,-57.5 311,-57.5 311,-38.5 273,-38.5"/>
<text text-anchor="middle" x="292" y="-45.5" font-family="Helvetica,sans-Serif" font-size="10.00">streq</text>
</a>
</g>
</g>
<!-- Node3&#45;&gt;Node5 -->
<g id="edge4" class="edge"><title>Node3&#45;&gt;Node5</title>
<path fill="none" stroke="midnightblue" d="M227.013,-48C239.111,-48 251.806,-48 262.669,-48"/>
<polygon fill="midnightblue" stroke="midnightblue" points="262.832,-51.5001 272.832,-48 262.832,-44.5001 262.832,-51.5001"/>
</g>
<!-- Node6 -->
<g id="node6" class="node"><title>Node6</title>
<g id="a_node6"><a xlink:href="../../da/d9b/group__windows.html#gad05d412b65209675cb2835934612ed84" target="_top" xlink:title="getpass">
<polygon fill="none" stroke="black" points="266.5,-0.5 266.5,-19.5 317.5,-19.5 317.5,-0.5 266.5,-0.5"/>
<text text-anchor="middle" x="292" y="-7.5" font-family="Helvetica,sans-Serif" font-size="10.00">getpass</text>
</a>
</g>
</g>
<!-- Node3&#45;&gt;Node6 -->
<g id="edge5" class="edge"><title>Node3&#45;&gt;Node6</title>
<path fill="none" stroke="midnightblue" d="M208.758,-38.411C223.272,-33.397 241.172,-27.2132 256.563,-21.8964"/>
<polygon fill="midnightblue" stroke="midnightblue" points="257.945,-25.1221 266.254,-18.5487 255.659,-18.5058 257.945,-25.1221"/>
</g>
</g>
</svg>
