<?xml version="1.0" encoding="UTF-8" standalone="no"?>
<!DOCTYPE svg PUBLIC "-//W3C//DTD SVG 1.1//EN"
 "http://www.w3.org/Graphics/SVG/1.1/DTD/svg11.dtd">
<!-- Generated by graphviz version 2.36.0 (20140111.2315)
 -->
<!-- Title: leases Pages: 1 -->
<svg width="278pt" height="104pt"
 viewBox="0.00 0.00 278.00 104.00" xmlns="http://www.w3.org/2000/svg" xmlns:xlink="http://www.w3.org/1999/xlink">
<g id="graph0" class="graph" transform="scale(1 1) rotate(0) translate(4 100)">
<title>leases</title>
<!-- Node1 -->
<g id="node1" class="node"><title>Node1</title>
<polygon fill="#bfbfbf" stroke="black" points="0.5,-57.5 0.5,-76.5 45.5,-76.5 45.5,-57.5 0.5,-57.5"/>
<text text-anchor="middle" x="23" y="-64.5" font-family="Helvetica,sans-Serif" font-size="10.00">leases</text>
</g>
<!-- Node2 -->
<g id="node2" class="node"><title>Node2</title>
<g id="a_node2"><a xlink:href="../../d9/d93/stroke_8c.html#a4a790b0cbdb4c7753f5dc71106885e3d" target="_top" xlink:title="create_stroke_msg">
<polygon fill="none" stroke="black" points="82,-76.5 82,-95.5 182,-95.5 182,-76.5 82,-76.5"/>
<text text-anchor="middle" x="132" y="-83.5" font-family="Helvetica,sans-Serif" font-size="10.00">create_stroke_msg</text>
</a>
</g>
</g>
<!-- Node1&#45;&gt;Node2 -->
<g id="edge1" class="edge"><title>Node1&#45;&gt;Node2</title>
<path fill="none" stroke="midnightblue" d="M45.653,-70.8449C53.4485,-72.2292 62.6622,-73.8653 72.1025,-75.5416"/>
<polygon fill="midnightblue" stroke="midnightblue" points="71.5143,-78.9918 81.9722,-77.2941 72.7382,-72.0996 71.5143,-78.9918"/>
</g>
<!-- Node3 -->
<g id="node3" class="node"><title>Node3</title>
<g id="a_node3"><a xlink:href="../../d9/d93/stroke_8c.html#af14eb8b0561f71ca4b75579c4d9a9d68" target="_top" xlink:title="send_stroke_msg">
<polygon fill="none" stroke="black" points="85,-38.5 85,-57.5 179,-57.5 179,-38.5 85,-38.5"/>
<text text-anchor="middle" x="132" y="-45.5" font-family="Helvetica,sans-Serif" font-size="10.00">send_stroke_msg</text>
</a>
</g>
</g>
<!-- Node1&#45;&gt;Node3 -->
<g id="edge2" class="edge"><title>Node1&#45;&gt;Node3</title>
<path fill="none" stroke="midnightblue" d="M45.653,-63.1551C54.1679,-61.6431 64.375,-59.8306 74.721,-57.9935"/>
<polygon fill="midnightblue" stroke="midnightblue" points="75.3982,-61.4281 84.6323,-56.2335 74.1743,-54.5359 75.3982,-61.4281"/>
</g>
<!-- Node4 -->
<g id="node4" class="node"><title>Node4</title>
<g id="a_node4"><a xlink:href="../../da/dfc/settings__parser_8c.html#af07d89f5ceaea0c7c8252cc41fd75f37" target="_top" xlink:title="free">
<polygon fill="none" stroke="black" points="227.5,-76.5 227.5,-95.5 260.5,-95.5 260.5,-76.5 227.5,-76.5"/>
<text text-anchor="middle" x="244" y="-83.5" font-family="Helvetica,sans-Serif" font-size="10.00">free</text>
</a>
</g>
</g>
<!-- Node3&#45;&gt;Node4 -->
<g id="edge3" class="edge"><title>Node3&#45;&gt;Node4</title>
<path fill="none" stroke="midnightblue" d="M160.758,-57.589C178.256,-63.634 200.677,-71.3793 217.687,-77.2557"/>
<polygon fill="midnightblue" stroke="midnightblue" points="216.893,-80.684 227.488,-80.6411 219.178,-74.0677 216.893,-80.684"/>
</g>
<!-- Node5 -->
<g id="node5" class="node"><title>Node5</title>
<g id="a_node5"><a xlink:href="../../d4/d40/group__string__i.html#ga65c3d08890165aaa4663c72d07f93bb7" target="_top" xlink:title="streq">
<polygon fill="none" stroke="black" points="225,-38.5 225,-57.5 263,-57.5 263,-38.5 225,-38.5"/>
<text text-anchor="middle" x="244" y="-45.5" font-family="Helvetica,sans-Serif" font-size="10.00">streq</text>
</a>
</g>
</g>
<!-- Node3&#45;&gt;Node5 -->
<g id="edge4" class="edge"><title>Node3&#45;&gt;Node5</title>
<path fill="none" stroke="midnightblue" d="M179.013,-48C191.111,-48 203.806,-48 214.669,-48"/>
<polygon fill="midnightblue" stroke="midnightblue" points="214.832,-51.5001 224.832,-48 214.832,-44.5001 214.832,-51.5001"/>
</g>
<!-- Node6 -->
<g id="node6" class="node"><title>Node6</title>
<g id="a_node6"><a xlink:href="../../da/d9b/group__windows.html#gad05d412b65209675cb2835934612ed84" target="_top" xlink:title="getpass">
<polygon fill="none" stroke="black" points="218.5,-0.5 218.5,-19.5 269.5,-19.5 269.5,-0.5 218.5,-0.5"/>
<text text-anchor="middle" x="244" y="-7.5" font-family="Helvetica,sans-Serif" font-size="10.00">getpass</text>
</a>
</g>
</g>
<!-- Node3&#45;&gt;Node6 -->
<g id="edge5" class="edge"><title>Node3&#45;&gt;Node6</title>
<path fill="none" stroke="midnightblue" d="M160.758,-38.411C175.272,-33.397 193.172,-27.2132 208.563,-21.8964"/>
<polygon fill="midnightblue" stroke="midnightblue" points="209.945,-25.1221 218.254,-18.5487 207.659,-18.5058 209.945,-25.1221"/>
</g>
</g>
</svg>
