<?xml version="1.0" encoding="UTF-8" standalone="no"?>
<!DOCTYPE svg PUBLIC "-//W3C//DTD SVG 1.1//EN"
 "http://www.w3.org/Graphics/SVG/1.1/DTD/svg11.dtd">
<!-- Generated by graphviz version 2.36.0 (20140111.2315)
 -->
<!-- Title: vendor_enumerator_t Pages: 1 -->
<svg width="229pt" height="164pt"
 viewBox="0.00 0.00 229.00 164.00" xmlns="http://www.w3.org/2000/svg" xmlns:xlink="http://www.w3.org/1999/xlink">
<g id="graph0" class="graph" transform="scale(1 1) rotate(0) translate(4 160)">
<title>vendor_enumerator_t</title>
<!-- Node1 -->
<g id="node1" class="node"><title>Node1</title>
<polygon fill="#bfbfbf" stroke="black" points="40,-0.5 40,-19.5 148,-19.5 148,-0.5 40,-0.5"/>
<text text-anchor="middle" x="94" y="-7.5" font-family="Helvetica,sans-Serif" font-size="10.00">vendor_enumerator_t</text>
</g>
<!-- Node2 -->
<g id="node2" class="node"><title>Node2</title>
<polygon fill="none" stroke="#bfbfbf" points="-0.5,-68.5 -0.5,-87.5 40.5,-87.5 40.5,-68.5 -0.5,-68.5"/>
<text text-anchor="middle" x="20" y="-75.5" font-family="Helvetica,sans-Serif" font-size="10.00">struct</text>
</g>
<!-- Node2&#45;&gt;Node1 -->
<g id="edge1" class="edge"><title>Node2&#45;&gt;Node1</title>
<path fill="none" stroke="#9a32cd" stroke-dasharray="5,2" d="M35.9889,-61.2601C43.4648,-54.0392 52.5615,-45.447 61,-38 68.2153,-31.6325 76.6123,-24.7694 83.1303,-19.5561"/>
<polygon fill="#9a32cd" stroke="#9a32cd" points="33.3411,-58.9532 28.6207,-68.4384 38.2259,-63.9672 33.3411,-58.9532"/>
<text text-anchor="middle" x="75.5" y="-41.5" font-family="Helvetica,sans-Serif" font-size="10.00"> public</text>
</g>
<!-- Node3 -->
<g id="node3" class="node"><title>Node3</title>
<g id="a_node3"><a xlink:href="../../d4/d42/structbio__reader__t.html" target="_top" xlink:title="bio_reader_t">
<polygon fill="none" stroke="black" points="59,-68.5 59,-87.5 129,-87.5 129,-68.5 59,-68.5"/>
<text text-anchor="middle" x="94" y="-75.5" font-family="Helvetica,sans-Serif" font-size="10.00">bio_reader_t</text>
</a>
</g>
</g>
<!-- Node3&#45;&gt;Node1 -->
<g id="edge2" class="edge"><title>Node3&#45;&gt;Node1</title>
<path fill="none" stroke="#9a32cd" stroke-dasharray="5,2" d="M94,-58.0413C94,-45.4724 94,-29.5631 94,-19.8411"/>
<polygon fill="#9a32cd" stroke="#9a32cd" points="90.5001,-58.3716 94,-68.3717 97.5001,-58.3717 90.5001,-58.3716"/>
<text text-anchor="middle" x="109.5" y="-41.5" font-family="Helvetica,sans-Serif" font-size="10.00"> reader</text>
</g>
<!-- Node4 -->
<g id="node4" class="node"><title>Node4</title>
<g id="a_node4"><a xlink:href="../../d0/d14/structchunk__t.html" target="_top" xlink:title="chunk_t">
<polygon fill="none" stroke="black" points="68.5,-136.5 68.5,-155.5 119.5,-155.5 119.5,-136.5 68.5,-136.5"/>
<text text-anchor="middle" x="94" y="-143.5" font-family="Helvetica,sans-Serif" font-size="10.00">chunk_t</text>
</a>
</g>
</g>
<!-- Node4&#45;&gt;Node3 -->
<g id="edge3" class="edge"><title>Node4&#45;&gt;Node3</title>
<path fill="none" stroke="#9a32cd" stroke-dasharray="5,2" d="M94,-126.041C94,-113.472 94,-97.5631 94,-87.8411"/>
<polygon fill="#9a32cd" stroke="#9a32cd" points="90.5001,-126.372 94,-136.372 97.5001,-126.372 90.5001,-126.372"/>
<text text-anchor="middle" x="106.5" y="-109.5" font-family="Helvetica,sans-Serif" font-size="10.00"> peek</text>
</g>
<!-- Node5 -->
<g id="node5" class="node"><title>Node5</title>
<g id="a_node5"><a xlink:href="../../db/dd3/structenumerator__t.html" target="_top" xlink:title="enumerator_t">
<polygon fill="none" stroke="black" points="147,-68.5 147,-87.5 221,-87.5 221,-68.5 147,-68.5"/>
<text text-anchor="middle" x="184" y="-75.5" font-family="Helvetica,sans-Serif" font-size="10.00">enumerator_t</text>
</a>
</g>
</g>
<!-- Node5&#45;&gt;Node1 -->
<g id="edge4" class="edge"><title>Node5&#45;&gt;Node1</title>
<path fill="none" stroke="#9a32cd" stroke-dasharray="5,2" d="M164.166,-62.4551C146.286,-49.3431 120.593,-30.5016 105.769,-19.6305"/>
<polygon fill="#9a32cd" stroke="#9a32cd" points="162.1,-65.2804 172.234,-68.3717 166.24,-59.6356 162.1,-65.2804"/>
<text text-anchor="middle" x="160.5" y="-41.5" font-family="Helvetica,sans-Serif" font-size="10.00"> inner</text>
</g>
</g>
</svg>
