<?xml version="1.0" encoding="UTF-8" standalone="no"?>
<!DOCTYPE svg PUBLIC "-//W3C//DTD SVG 1.1//EN"
 "http://www.w3.org/Graphics/SVG/1.1/DTD/svg11.dtd">
<!-- Generated by graphviz version 2.36.0 (20140111.2315)
 -->
<!-- Title: yy_get_next_buffer Pages: 1 -->
<svg width="872pt" height="182pt"
 viewBox="0.00 0.00 872.00 182.00" xmlns="http://www.w3.org/2000/svg" xmlns:xlink="http://www.w3.org/1999/xlink">
<g id="graph0" class="graph" transform="scale(1 1) rotate(0) translate(4 178)">
<title>yy_get_next_buffer</title>
<!-- Node1 -->
<g id="node1" class="node"><title>Node1</title>
<polygon fill="#bfbfbf" stroke="black" points="0,-111.5 0,-130.5 100,-130.5 100,-111.5 0,-111.5"/>
<text text-anchor="middle" x="50" y="-118.5" font-family="Helvetica,sans-Serif" font-size="10.00">yy_get_next_buffer</text>
</g>
<!-- Node2 -->
<g id="node2" class="node"><title>Node2</title>
<g id="a_node2"><a xlink:href="../../d9/d7b/settings__lexer_8c.html#ab2f0df9a05dd8b94f35a272bf269ca2a" target="_top" xlink:title="settings_parser_realloc">
<polygon fill="none" stroke="black" points="446.5,-154.5 446.5,-173.5 563.5,-173.5 563.5,-154.5 446.5,-154.5"/>
<text text-anchor="middle" x="505" y="-161.5" font-family="Helvetica,sans-Serif" font-size="10.00">settings_parser_realloc</text>
</a>
</g>
</g>
<!-- Node1&#45;&gt;Node2 -->
<g id="edge1" class="edge"><title>Node1&#45;&gt;Node2</title>
<path fill="none" stroke="midnightblue" d="M100.418,-127.206C148.321,-133.085 223.062,-141.898 288,-148 337.458,-152.647 393.392,-156.759 435.948,-159.65"/>
<polygon fill="midnightblue" stroke="midnightblue" points="435.978,-163.16 446.19,-160.34 436.448,-156.176 435.978,-163.16"/>
</g>
<!-- Node3 -->
<g id="node3" class="node"><title>Node3</title>
<g id="a_node3"><a xlink:href="../../d9/d7b/settings__lexer_8c.html#ac48e91c7f8b754220d4be1305a53e30e" target="_top" xlink:title="settings_parser_restart">
<polygon fill="none" stroke="black" points="136,-65.5 136,-84.5 252,-84.5 252,-65.5 136,-65.5"/>
<text text-anchor="middle" x="194" y="-72.5" font-family="Helvetica,sans-Serif" font-size="10.00">settings_parser_restart</text>
</a>
</g>
</g>
<!-- Node1&#45;&gt;Node3 -->
<g id="edge2" class="edge"><title>Node1&#45;&gt;Node3</title>
<path fill="none" stroke="midnightblue" d="M80.4225,-111.469C101.747,-104.561 130.797,-95.1502 154.046,-87.6189"/>
<polygon fill="midnightblue" stroke="midnightblue" points="155.181,-90.9305 163.615,-84.519 153.023,-84.2712 155.181,-90.9305"/>
</g>
<!-- Node4 -->
<g id="node4" class="node"><title>Node4</title>
<g id="a_node4"><a xlink:href="../../d9/d7b/settings__lexer_8c.html#a7ae01c54e2bcf9fd7a55137fbb2a80ed" target="_top" xlink:title="settings_parser__create\l_buffer">
<polygon fill="none" stroke="black" points="288.5,-60 288.5,-90 409.5,-90 409.5,-60 288.5,-60"/>
<text text-anchor="start" x="296.5" y="-78" font-family="Helvetica,sans-Serif" font-size="10.00">settings_parser__create</text>
<text text-anchor="middle" x="349" y="-67" font-family="Helvetica,sans-Serif" font-size="10.00">_buffer</text>
</a>
</g>
</g>
<!-- Node3&#45;&gt;Node4 -->
<g id="edge3" class="edge"><title>Node3&#45;&gt;Node4</title>
<path fill="none" stroke="midnightblue" d="M252.407,-75C260.878,-75 269.683,-75 278.369,-75"/>
<polygon fill="midnightblue" stroke="midnightblue" points="278.484,-78.5001 288.484,-75 278.484,-71.5001 278.484,-78.5001"/>
</g>
<!-- Node5 -->
<g id="node5" class="node"><title>Node5</title>
<g id="a_node5"><a xlink:href="../../d9/d7b/settings__lexer_8c.html#a4386e14dca16b9ec4faef188ba2d8d87" target="_top" xlink:title="settings_parser__init\l_buffer">
<polygon fill="none" stroke="black" points="451.5,-41 451.5,-71 558.5,-71 558.5,-41 451.5,-41"/>
<text text-anchor="start" x="459.5" y="-59" font-family="Helvetica,sans-Serif" font-size="10.00">settings_parser__init</text>
<text text-anchor="middle" x="505" y="-48" font-family="Helvetica,sans-Serif" font-size="10.00">_buffer</text>
</a>
</g>
</g>
<!-- Node3&#45;&gt;Node5 -->
<g id="edge10" class="edge"><title>Node3&#45;&gt;Node5</title>
<path fill="none" stroke="midnightblue" d="M223.1,-65.3768C241.35,-59.6454 265.789,-52.9332 288,-50 339.303,-43.2248 398.032,-45.493 441.289,-49.026"/>
<polygon fill="midnightblue" stroke="midnightblue" points="441.119,-52.5243 451.383,-49.8961 441.72,-45.5501 441.119,-52.5243"/>
</g>
<!-- Node8 -->
<g id="node8" class="node"><title>Node8</title>
<g id="a_node8"><a xlink:href="../../d9/d7b/settings__lexer_8c.html#a33d4f53352a864e4f156061745955b95" target="_top" xlink:title="settings_parser__load\l_buffer_state">
<polygon fill="none" stroke="black" points="752,-0 752,-30 864,-30 864,-0 752,-0"/>
<text text-anchor="start" x="760" y="-18" font-family="Helvetica,sans-Serif" font-size="10.00">settings_parser__load</text>
<text text-anchor="middle" x="808" y="-7" font-family="Helvetica,sans-Serif" font-size="10.00">_buffer_state</text>
</a>
</g>
</g>
<!-- Node3&#45;&gt;Node8 -->
<g id="edge11" class="edge"><title>Node3&#45;&gt;Node8</title>
<path fill="none" stroke="midnightblue" d="M217.099,-65.4231C235.663,-57.8029 263.08,-47.5313 288,-42 447.935,-6.50086 642.088,-7.77608 741.46,-11.518"/>
<polygon fill="midnightblue" stroke="midnightblue" points="741.517,-15.0229 751.649,-11.923 741.795,-8.02847 741.517,-15.0229"/>
</g>
<!-- Node11 -->
<g id="node11" class="node"><title>Node11</title>
<g id="a_node11"><a xlink:href="../../d9/d7b/settings__lexer_8c.html#a929da0caf3950387991ecbd5e8eef08e" target="_top" xlink:title="settings_parser_ensure\l_buffer_stack">
<polygon fill="none" stroke="black" points="290,-109 290,-139 408,-139 408,-109 290,-109"/>
<text text-anchor="start" x="298" y="-127" font-family="Helvetica,sans-Serif" font-size="10.00">settings_parser_ensure</text>
<text text-anchor="middle" x="349" y="-116" font-family="Helvetica,sans-Serif" font-size="10.00">_buffer_stack</text>
</a>
</g>
</g>
<!-- Node3&#45;&gt;Node11 -->
<g id="edge12" class="edge"><title>Node3&#45;&gt;Node11</title>
<path fill="none" stroke="midnightblue" d="M224.863,-84.564C243.726,-90.605 268.706,-98.6052 291.235,-105.82"/>
<polygon fill="midnightblue" stroke="midnightblue" points="290.457,-109.246 301.048,-108.963 292.592,-102.58 290.457,-109.246"/>
</g>
<!-- Node4&#45;&gt;Node5 -->
<g id="edge4" class="edge"><title>Node4&#45;&gt;Node5</title>
<path fill="none" stroke="midnightblue" d="M409.54,-67.6541C419.824,-66.3853 430.546,-65.0624 440.92,-63.7826"/>
<polygon fill="midnightblue" stroke="midnightblue" points="441.652,-67.2189 451.148,-62.5207 440.795,-60.2716 441.652,-67.2189"/>
</g>
<!-- Node9 -->
<g id="node9" class="node"><title>Node9</title>
<g id="a_node9"><a xlink:href="../../d9/d7b/settings__lexer_8c.html#a41352d68c36dd7a4a1aac4cb7517274d" target="_top" xlink:title="settings_parser_alloc">
<polygon fill="none" stroke="black" points="450.5,-111.5 450.5,-130.5 559.5,-130.5 559.5,-111.5 450.5,-111.5"/>
<text text-anchor="middle" x="505" y="-118.5" font-family="Helvetica,sans-Serif" font-size="10.00">settings_parser_alloc</text>
</a>
</g>
</g>
<!-- Node4&#45;&gt;Node9 -->
<g id="edge8" class="edge"><title>Node4&#45;&gt;Node9</title>
<path fill="none" stroke="midnightblue" d="M400.425,-90.0621C420.445,-96.042 443.196,-102.838 462.266,-108.534"/>
<polygon fill="midnightblue" stroke="midnightblue" points="461.285,-111.894 471.869,-111.402 463.289,-105.187 461.285,-111.894"/>
</g>
<!-- Node6 -->
<g id="node6" class="node"><title>Node6</title>
<g id="a_node6"><a xlink:href="../../d9/d7b/settings__lexer_8c.html#ab4155ffea05dab2dafae68fd88a0517f" target="_top" xlink:title="isatty">
<polygon fill="none" stroke="black" points="637.5,-71.5 637.5,-90.5 678.5,-90.5 678.5,-71.5 637.5,-71.5"/>
<text text-anchor="middle" x="658" y="-78.5" font-family="Helvetica,sans-Serif" font-size="10.00">isatty</text>
</a>
</g>
</g>
<!-- Node5&#45;&gt;Node6 -->
<g id="edge5" class="edge"><title>Node5&#45;&gt;Node6</title>
<path fill="none" stroke="midnightblue" d="M558.812,-64.7438C581.775,-68.5456 607.824,-72.8584 627.319,-76.086"/>
<polygon fill="midnightblue" stroke="midnightblue" points="626.977,-79.5768 637.414,-77.7573 628.12,-72.6708 626.977,-79.5768"/>
</g>
<!-- Node7 -->
<g id="node7" class="node"><title>Node7</title>
<g id="a_node7"><a xlink:href="../../d9/d7b/settings__lexer_8c.html#abb6474cb0d8cf8c06c5f0570a0bfe36d" target="_top" xlink:title="settings_parser__flush\l_buffer">
<polygon fill="none" stroke="black" points="600.5,-22 600.5,-52 715.5,-52 715.5,-22 600.5,-22"/>
<text text-anchor="start" x="608.5" y="-40" font-family="Helvetica,sans-Serif" font-size="10.00">settings_parser__flush</text>
<text text-anchor="middle" x="658" y="-29" font-family="Helvetica,sans-Serif" font-size="10.00">_buffer</text>
</a>
</g>
</g>
<!-- Node5&#45;&gt;Node7 -->
<g id="edge6" class="edge"><title>Node5&#45;&gt;Node7</title>
<path fill="none" stroke="midnightblue" d="M558.812,-49.3547C568.996,-48.0734 579.786,-46.7157 590.342,-45.3875"/>
<polygon fill="midnightblue" stroke="midnightblue" points="590.879,-48.8476 600.364,-44.1264 590.005,-41.9023 590.879,-48.8476"/>
</g>
<!-- Node7&#45;&gt;Node8 -->
<g id="edge7" class="edge"><title>Node7&#45;&gt;Node8</title>
<path fill="none" stroke="midnightblue" d="M715.797,-28.5571C724.234,-27.303 732.987,-26.0019 741.584,-24.7241"/>
<polygon fill="midnightblue" stroke="midnightblue" points="742.198,-28.1713 751.575,-23.2389 741.169,-21.2474 742.198,-28.1713"/>
</g>
<!-- Node10 -->
<g id="node10" class="node"><title>Node10</title>
<g id="a_node10"><a xlink:href="../../da/dfc/settings__parser_8c.html#a5faf6a2d99f50a4655dd390199a8db7b" target="_top" xlink:title="malloc">
<polygon fill="none" stroke="black" points="635.5,-111.5 635.5,-130.5 680.5,-130.5 680.5,-111.5 635.5,-111.5"/>
<text text-anchor="middle" x="658" y="-118.5" font-family="Helvetica,sans-Serif" font-size="10.00">malloc</text>
</a>
</g>
</g>
<!-- Node9&#45;&gt;Node10 -->
<g id="edge9" class="edge"><title>Node9&#45;&gt;Node10</title>
<path fill="none" stroke="midnightblue" d="M559.662,-121C581.589,-121 606.206,-121 625.197,-121"/>
<polygon fill="midnightblue" stroke="midnightblue" points="625.391,-124.5 635.39,-121 625.39,-117.5 625.391,-124.5"/>
</g>
<!-- Node11&#45;&gt;Node2 -->
<g id="edge14" class="edge"><title>Node11&#45;&gt;Node2</title>
<path fill="none" stroke="midnightblue" d="M407.782,-139.008C424.165,-143.264 441.788,-147.841 457.418,-151.901"/>
<polygon fill="midnightblue" stroke="midnightblue" points="456.81,-155.359 467.368,-154.485 458.569,-148.584 456.81,-155.359"/>
</g>
<!-- Node11&#45;&gt;Node9 -->
<g id="edge13" class="edge"><title>Node11&#45;&gt;Node9</title>
<path fill="none" stroke="midnightblue" d="M408.221,-122.866C418.677,-122.662 429.626,-122.449 440.23,-122.242"/>
<polygon fill="midnightblue" stroke="midnightblue" points="440.333,-125.741 450.263,-122.047 440.197,-118.742 440.333,-125.741"/>
</g>
</g>
</svg>
