<?xml version="1.0" encoding="UTF-8" standalone="no"?>
<!DOCTYPE svg PUBLIC "-//W3C//DTD SVG 1.1//EN"
 "http://www.w3.org/Graphics/SVG/1.1/DTD/svg11.dtd">
<!-- Generated by graphviz version 2.36.0 (20140111.2315)
 -->
<!-- Title: include_files Pages: 1 -->
<svg width="252pt" height="28pt"
 viewBox="0.00 0.00 252.00 28.00" xmlns="http://www.w3.org/2000/svg" xmlns:xlink="http://www.w3.org/1999/xlink">
<g id="graph0" class="graph" transform="scale(1 1) rotate(0) translate(4 24)">
<title>include_files</title>
<!-- Node1 -->
<g id="node1" class="node"><title>Node1</title>
<polygon fill="#bfbfbf" stroke="black" points="0.5,-0.5 0.5,-19.5 71.5,-19.5 71.5,-0.5 0.5,-0.5"/>
<text text-anchor="middle" x="36" y="-7.5" font-family="Helvetica,sans-Serif" font-size="10.00">include_files</text>
</g>
<!-- Node2 -->
<g id="node2" class="node"><title>Node2</title>
<g id="a_node2"><a xlink:href="../../d9/d7b/settings__lexer_8c.html#a8fdafe3be7e00ce3d4f0cb50a9a5eb39" target="_top" xlink:title="while">
<polygon fill="none" stroke="black" points="108.5,-0.5 108.5,-19.5 147.5,-19.5 147.5,-0.5 108.5,-0.5"/>
<text text-anchor="middle" x="128" y="-7.5" font-family="Helvetica,sans-Serif" font-size="10.00">while</text>
</a>
</g>
</g>
<!-- Node1&#45;&gt;Node2 -->
<g id="edge1" class="edge"><title>Node1&#45;&gt;Node2</title>
<path fill="none" stroke="midnightblue" d="M81.6568,-10C91.0599,-10 100.483,-10 108.284,-10"/>
<polygon fill="midnightblue" stroke="midnightblue" points="81.539,-6.5001 71.539,-10 81.5389,-13.5001 81.539,-6.5001"/>
</g>
<!-- Node3 -->
<g id="node3" class="node"><title>Node3</title>
<g id="a_node3"><a xlink:href="../../dc/d1b/bliss__sampler_8c.html#adf5136c72619496a20e2960aad771d0a" target="_top" xlink:title="METHOD">
<polygon fill="none" stroke="black" points="184,-0.5 184,-19.5 244,-19.5 244,-0.5 184,-0.5"/>
<text text-anchor="middle" x="214" y="-7.5" font-family="Helvetica,sans-Serif" font-size="10.00">METHOD</text>
</a>
</g>
</g>
<!-- Node2&#45;&gt;Node3 -->
<g id="edge2" class="edge"><title>Node2&#45;&gt;Node3</title>
<path fill="none" stroke="midnightblue" d="M157.77,-10C166.192,-10 175.404,-10 183.849,-10"/>
<polygon fill="midnightblue" stroke="midnightblue" points="157.642,-6.5001 147.642,-10 157.642,-13.5001 157.642,-6.5001"/>
</g>
</g>
</svg>
