<?xml version="1.0" encoding="UTF-8" standalone="no"?>
<!DOCTYPE svg PUBLIC "-//W3C//DTD SVG 1.1//EN"
 "http://www.w3.org/Graphics/SVG/1.1/DTD/svg11.dtd">
<!-- Generated by graphviz version 2.36.0 (20140111.2315)
 -->
<!-- Title: settings_parser_restart Pages: 1 -->
<svg width="432pt" height="28pt"
 viewBox="0.00 0.00 432.00 28.00" xmlns="http://www.w3.org/2000/svg" xmlns:xlink="http://www.w3.org/1999/xlink">
<g id="graph0" class="graph" transform="scale(1 1) rotate(0) translate(4 24)">
<title>settings_parser_restart</title>
<!-- Node1 -->
<g id="node1" class="node"><title>Node1</title>
<polygon fill="#bfbfbf" stroke="black" points="0,-0.5 0,-19.5 116,-19.5 116,-0.5 0,-0.5"/>
<text text-anchor="middle" x="58" y="-7.5" font-family="Helvetica,sans-Serif" font-size="10.00">settings_parser_restart</text>
</g>
<!-- Node2 -->
<g id="node2" class="node"><title>Node2</title>
<g id="a_node2"><a xlink:href="../../d9/d7b/settings__lexer_8c.html#a29d30a2c7f7ce166f1198f5a1c1d7757" target="_top" xlink:title="yy_get_next_buffer">
<polygon fill="none" stroke="black" points="152,-0.5 152,-19.5 252,-19.5 252,-0.5 152,-0.5"/>
<text text-anchor="middle" x="202" y="-7.5" font-family="Helvetica,sans-Serif" font-size="10.00">yy_get_next_buffer</text>
</a>
</g>
</g>
<!-- Node1&#45;&gt;Node2 -->
<g id="edge1" class="edge"><title>Node1&#45;&gt;Node2</title>
<path fill="none" stroke="midnightblue" d="M126.59,-10C135.04,-10 143.554,-10 151.653,-10"/>
<polygon fill="midnightblue" stroke="midnightblue" points="126.348,-6.5001 116.348,-10 126.347,-13.5001 126.348,-6.5001"/>
</g>
<!-- Node3 -->
<g id="node3" class="node"><title>Node3</title>
<g id="a_node3"><a xlink:href="../../d9/d7b/settings__lexer_8c.html#a8fdafe3be7e00ce3d4f0cb50a9a5eb39" target="_top" xlink:title="while">
<polygon fill="none" stroke="black" points="288.5,-0.5 288.5,-19.5 327.5,-19.5 327.5,-0.5 288.5,-0.5"/>
<text text-anchor="middle" x="308" y="-7.5" font-family="Helvetica,sans-Serif" font-size="10.00">while</text>
</a>
</g>
</g>
<!-- Node2&#45;&gt;Node3 -->
<g id="edge2" class="edge"><title>Node2&#45;&gt;Node3</title>
<path fill="none" stroke="midnightblue" d="M262.456,-10C271.788,-10 280.794,-10 288.236,-10"/>
<polygon fill="midnightblue" stroke="midnightblue" points="262.259,-6.5001 252.259,-10 262.259,-13.5001 262.259,-6.5001"/>
</g>
<!-- Node4 -->
<g id="node4" class="node"><title>Node4</title>
<g id="a_node4"><a xlink:href="../../dc/d1b/bliss__sampler_8c.html#adf5136c72619496a20e2960aad771d0a" target="_top" xlink:title="METHOD">
<polygon fill="none" stroke="black" points="364,-0.5 364,-19.5 424,-19.5 424,-0.5 364,-0.5"/>
<text text-anchor="middle" x="394" y="-7.5" font-family="Helvetica,sans-Serif" font-size="10.00">METHOD</text>
</a>
</g>
</g>
<!-- Node3&#45;&gt;Node4 -->
<g id="edge3" class="edge"><title>Node3&#45;&gt;Node4</title>
<path fill="none" stroke="midnightblue" d="M337.77,-10C346.192,-10 355.404,-10 363.849,-10"/>
<polygon fill="midnightblue" stroke="midnightblue" points="337.642,-6.5001 327.642,-10 337.642,-13.5001 337.642,-6.5001"/>
</g>
</g>
</svg>
