<?xml version="1.0" encoding="UTF-8" standalone="no"?>
<!DOCTYPE svg PUBLIC "-//W3C//DTD SVG 1.1//EN"
 "http://www.w3.org/Graphics/SVG/1.1/DTD/svg11.dtd">
<!-- Generated by graphviz version 2.36.0 (20140111.2315)
 -->
<!-- Title: init_and_run Pages: 1 -->
<svg width="266pt" height="66pt"
 viewBox="0.00 0.00 266.00 66.00" xmlns="http://www.w3.org/2000/svg" xmlns:xlink="http://www.w3.org/1999/xlink">
<g id="graph0" class="graph" transform="scale(1 1) rotate(0) translate(4 62)">
<title>init_and_run</title>
<!-- Node1 -->
<g id="node1" class="node"><title>Node1</title>
<polygon fill="#bfbfbf" stroke="black" points="0.5,-19.5 0.5,-38.5 69.5,-38.5 69.5,-19.5 0.5,-19.5"/>
<text text-anchor="middle" x="35" y="-26.5" font-family="Helvetica,sans-Serif" font-size="10.00">init_and_run</text>
</g>
<!-- Node2 -->
<g id="node2" class="node"><title>Node2</title>
<g id="a_node2"><a xlink:href="../../dd/dcc/charon-svc_8c.html#abbee77e5d66102b8a8b52c080af297b0" target="_top" xlink:title="console_main">
<polygon fill="none" stroke="black" points="106.5,-38.5 106.5,-57.5 183.5,-57.5 183.5,-38.5 106.5,-38.5"/>
<text text-anchor="middle" x="145" y="-45.5" font-family="Helvetica,sans-Serif" font-size="10.00">console_main</text>
</a>
</g>
</g>
<!-- Node1&#45;&gt;Node2 -->
<g id="edge1" class="edge"><title>Node1&#45;&gt;Node2</title>
<path fill="none" stroke="midnightblue" d="M79.6953,-36.6871C88.5115,-38.2381 97.7082,-39.8561 106.298,-41.3672"/>
<polygon fill="midnightblue" stroke="midnightblue" points="80.0351,-33.1932 69.5799,-34.9076 78.8222,-40.0874 80.0351,-33.1932"/>
</g>
<!-- Node4 -->
<g id="node4" class="node"><title>Node4</title>
<g id="a_node4"><a xlink:href="../../dd/dcc/charon-svc_8c.html#a2187fa70ac95082f38e9cf770aa45af2" target="_top" xlink:title="service_main">
<polygon fill="none" stroke="black" points="108,-0.5 108,-19.5 182,-19.5 182,-0.5 108,-0.5"/>
<text text-anchor="middle" x="145" y="-7.5" font-family="Helvetica,sans-Serif" font-size="10.00">service_main</text>
</a>
</g>
</g>
<!-- Node1&#45;&gt;Node4 -->
<g id="edge3" class="edge"><title>Node1&#45;&gt;Node4</title>
<path fill="none" stroke="midnightblue" d="M79.5363,-21.3408C88.9225,-19.6896 98.7474,-17.9611 107.817,-16.3655"/>
<polygon fill="midnightblue" stroke="midnightblue" points="78.8222,-17.9126 69.5799,-23.0924 80.0351,-24.8068 78.8222,-17.9126"/>
</g>
<!-- Node3 -->
<g id="node3" class="node"><title>Node3</title>
<g id="a_node3"><a xlink:href="../../dd/dcc/charon-svc_8c.html#a0ddf1224851353fc92bfbff6f499fa97" target="_top" xlink:title="main">
<polygon fill="none" stroke="black" points="220,-19.5 220,-38.5 258,-38.5 258,-19.5 220,-19.5"/>
<text text-anchor="middle" x="239" y="-26.5" font-family="Helvetica,sans-Serif" font-size="10.00">main</text>
</a>
</g>
</g>
<!-- Node2&#45;&gt;Node3 -->
<g id="edge2" class="edge"><title>Node2&#45;&gt;Node3</title>
<path fill="none" stroke="midnightblue" d="M193.757,-38.1371C203.071,-36.2135 212.289,-34.3098 219.88,-32.7421"/>
<polygon fill="midnightblue" stroke="midnightblue" points="192.771,-34.7669 183.685,-40.2172 194.187,-41.6222 192.771,-34.7669"/>
</g>
<!-- Node4&#45;&gt;Node3 -->
<g id="edge4" class="edge"><title>Node4&#45;&gt;Node3</title>
<path fill="none" stroke="midnightblue" d="M191.899,-19.4791C201.77,-21.5178 211.648,-23.5578 219.714,-25.2235"/>
<polygon fill="midnightblue" stroke="midnightblue" points="192.598,-16.0497 182.097,-17.4548 191.182,-22.9051 192.598,-16.0497"/>
</g>
</g>
</svg>
