<?xml version="1.0" encoding="UTF-8" standalone="no"?>
<!DOCTYPE svg PUBLIC "-//W3C//DTD SVG 1.1//EN"
 "http://www.w3.org/Graphics/SVG/1.1/DTD/svg11.dtd">
<!-- Generated by graphviz version 2.36.0 (20140111.2315)
 -->
<!-- Title: pkcs8 Pages: 1 -->
<svg width="250pt" height="66pt"
 viewBox="0.00 0.00 250.00 66.00" xmlns="http://www.w3.org/2000/svg" xmlns:xlink="http://www.w3.org/1999/xlink">
<g id="graph0" class="graph" transform="scale(1 1) rotate(0) translate(4 62)">
<title>pkcs8</title>
<!-- Node2 -->
<g id="node1" class="node"><title>Node2</title>
<g id="a_node1"><a xlink:href="../../da/ddc/group__pkcs8__builder.html" target="_top" xlink:title="pkcs8_builder">
<polygon fill="none" stroke="black" points="164.5,-38.5 164.5,-57.5 241.5,-57.5 241.5,-38.5 164.5,-38.5"/>
<text text-anchor="middle" x="203" y="-45.5" font-family="Helvetica,sans-Serif" font-size="10.00">pkcs8_builder</text>
</a>
</g>
</g>
<!-- Node3 -->
<g id="node2" class="node"><title>Node3</title>
<g id="a_node2"><a xlink:href="../../dc/dc1/group__pkcs8__plugin.html" target="_top" xlink:title="pkcs8_plugin">
<polygon fill="none" stroke="black" points="166,-0.5 166,-19.5 240,-19.5 240,-0.5 166,-0.5"/>
<text text-anchor="middle" x="203" y="-7.5" font-family="Helvetica,sans-Serif" font-size="10.00">pkcs8_plugin</text>
</a>
</g>
</g>
<!-- Node0 -->
<g id="node3" class="node"><title>Node0</title>
<polygon fill="#bfbfbf" stroke="black" points="84.5,-19.5 84.5,-38.5 127.5,-38.5 127.5,-19.5 84.5,-19.5"/>
<text text-anchor="middle" x="106" y="-26.5" font-family="Helvetica,sans-Serif" font-size="10.00">pkcs8</text>
</g>
<!-- Node0&#45;&gt;Node2 -->
<g id="edge2" class="edge"><title>Node0&#45;&gt;Node2</title>
<path fill="none" stroke="midnightblue" d="M137.481,-35.0961C145.983,-36.7966 155.324,-38.6647 164.193,-40.4387"/>
<polygon fill="midnightblue" stroke="midnightblue" points="138.106,-31.6519 127.614,-33.1227 136.733,-38.516 138.106,-31.6519"/>
</g>
<!-- Node0&#45;&gt;Node3 -->
<g id="edge3" class="edge"><title>Node0&#45;&gt;Node3</title>
<path fill="none" stroke="midnightblue" d="M137.612,-22.8775C146.568,-21.0864 156.444,-19.1111 165.716,-17.2568"/>
<polygon fill="midnightblue" stroke="midnightblue" points="136.733,-19.484 127.614,-24.8773 138.106,-26.3481 136.733,-19.484"/>
</g>
<!-- Node1 -->
<g id="node4" class="node"><title>Node1</title>
<g id="a_node4"><a xlink:href="../../d1/d29/group__plugins.html" target="_top" xlink:title="plugins">
<polygon fill="none" stroke="black" points="0.5,-19.5 0.5,-38.5 47.5,-38.5 47.5,-19.5 0.5,-19.5"/>
<text text-anchor="middle" x="24" y="-26.5" font-family="Helvetica,sans-Serif" font-size="10.00">plugins</text>
</a>
</g>
</g>
<!-- Node1&#45;&gt;Node0 -->
<g id="edge1" class="edge"><title>Node1&#45;&gt;Node0</title>
<path fill="none" stroke="midnightblue" d="M57.9069,-29C66.8813,-29 76.3478,-29 84.4208,-29"/>
<polygon fill="midnightblue" stroke="midnightblue" points="57.7108,-25.5001 47.7108,-29 57.7108,-32.5001 57.7108,-25.5001"/>
</g>
</g>
</svg>
