<?xml version="1.0" encoding="UTF-8" standalone="no"?>
<!DOCTYPE svg PUBLIC "-//W3C//DTD SVG 1.1//EN"
 "http://www.w3.org/Graphics/SVG/1.1/DTD/svg11.dtd">
<!-- Generated by graphviz version 2.36.0 (20140111.2315)
 -->
<!-- Title: login Pages: 1 -->
<svg width="1202pt" height="170pt"
 viewBox="0.00 0.00 1202.00 170.00" xmlns="http://www.w3.org/2000/svg" xmlns:xlink="http://www.w3.org/1999/xlink">
<g id="graph0" class="graph" transform="scale(1 1) rotate(0) translate(4 166)">
<title>login</title>
<!-- Node1 -->
<g id="node1" class="node"><title>Node1</title>
<polygon fill="#bfbfbf" stroke="black" points="0.5,-86.5 0.5,-105.5 37.5,-105.5 37.5,-86.5 0.5,-86.5"/>
<text text-anchor="middle" x="19" y="-93.5" font-family="Helvetica,sans-Serif" font-size="10.00">login</text>
</g>
<!-- Node2 -->
<g id="node2" class="node"><title>Node2</title>
<g id="a_node2"><a xlink:href="../../da/dfc/settings__parser_8c.html#af07d89f5ceaea0c7c8252cc41fd75f37" target="_top" xlink:title="free">
<polygon fill="none" stroke="black" points="865.5,-95.5 865.5,-114.5 898.5,-114.5 898.5,-95.5 865.5,-95.5"/>
<text text-anchor="middle" x="882" y="-102.5" font-family="Helvetica,sans-Serif" font-size="10.00">free</text>
</a>
</g>
</g>
<!-- Node1&#45;&gt;Node2 -->
<g id="edge1" class="edge"><title>Node1&#45;&gt;Node2</title>
<path fill="none" stroke="midnightblue" d="M37.5883,-104.493C76.1729,-122.319 171.55,-162 256,-162 256,-162 256,-162 568,-162 676.257,-162 802.217,-128.589 855.317,-112.926"/>
<polygon fill="midnightblue" stroke="midnightblue" points="856.649,-116.181 865.224,-109.959 854.641,-109.475 856.649,-116.181"/>
</g>
<!-- Node3 -->
<g id="node3" class="node"><title>Node3</title>
<g id="a_node3"><a xlink:href="../../d1/d16/user__controller_8c.html#ae73286eec75d32fa590163a29b2540f7" target="_top" xlink:title="hash_password">
<polygon fill="none" stroke="black" points="74.5,-29.5 74.5,-48.5 159.5,-48.5 159.5,-29.5 74.5,-29.5"/>
<text text-anchor="middle" x="117" y="-36.5" font-family="Helvetica,sans-Serif" font-size="10.00">hash_password</text>
</a>
</g>
</g>
<!-- Node1&#45;&gt;Node3 -->
<g id="edge2" class="edge"><title>Node1&#45;&gt;Node3</title>
<path fill="none" stroke="midnightblue" d="M36.2851,-86.3307C51.2703,-77.4333 73.7199,-64.1038 90.9804,-53.8554"/>
<polygon fill="midnightblue" stroke="midnightblue" points="93.1438,-56.6414 99.9554,-48.5265 89.5699,-50.6224 93.1438,-56.6414"/>
</g>
<!-- Node5 -->
<g id="node5" class="node"><title>Node5</title>
<g id="a_node5"><a xlink:href="../../dd/dd1/lookip__socket_8c.html#acc8bcf8953501371f3cefcf746439c3a" target="_top" xlink:title="query">
<polygon fill="none" stroke="black" points="96.5,-86.5 96.5,-105.5 137.5,-105.5 137.5,-86.5 96.5,-86.5"/>
<text text-anchor="middle" x="117" y="-93.5" font-family="Helvetica,sans-Serif" font-size="10.00">query</text>
</a>
</g>
</g>
<!-- Node1&#45;&gt;Node5 -->
<g id="edge4" class="edge"><title>Node1&#45;&gt;Node5</title>
<path fill="none" stroke="midnightblue" d="M37.6079,-96C51.0659,-96 69.9387,-96 85.7941,-96"/>
<polygon fill="midnightblue" stroke="midnightblue" points="86.1852,-99.5001 96.1852,-96 86.1851,-92.5001 86.1852,-99.5001"/>
</g>
<!-- Node4 -->
<g id="node4" class="node"><title>Node4</title>
<g id="a_node4"><a xlink:href="../../d4/d87/group__chunk.html#gad94ca029616a107e89eaa618408fd7b6" target="_top" xlink:title="chunk_create">
<polygon fill="none" stroke="black" points="219.5,-19.5 219.5,-38.5 294.5,-38.5 294.5,-19.5 219.5,-19.5"/>
<text text-anchor="middle" x="257" y="-26.5" font-family="Helvetica,sans-Serif" font-size="10.00">chunk_create</text>
</a>
</g>
</g>
<!-- Node3&#45;&gt;Node4 -->
<g id="edge3" class="edge"><title>Node3&#45;&gt;Node4</title>
<path fill="none" stroke="midnightblue" d="M159.779,-35.9725C175.267,-34.8502 192.934,-33.57 208.866,-32.4155"/>
<polygon fill="midnightblue" stroke="midnightblue" points="209.325,-35.8915 219.045,-31.6779 208.819,-28.9099 209.325,-35.8915"/>
</g>
<!-- Node6 -->
<g id="node6" class="node"><title>Node6</title>
<g id="a_node6"><a xlink:href="../../d7/df1/group__host.html#gad1ee7d1c0d17eee7f6e204e22ea2c206" target="_top" xlink:title="host_create_from_string">
<polygon fill="none" stroke="black" points="196,-95.5 196,-114.5 318,-114.5 318,-95.5 196,-95.5"/>
<text text-anchor="middle" x="257" y="-102.5" font-family="Helvetica,sans-Serif" font-size="10.00">host_create_from_string</text>
</a>
</g>
</g>
<!-- Node5&#45;&gt;Node6 -->
<g id="edge5" class="edge"><title>Node5&#45;&gt;Node6</title>
<path fill="none" stroke="midnightblue" d="M137.772,-97.2895C150.544,-98.1224 168.01,-99.2615 185.599,-100.409"/>
<polygon fill="midnightblue" stroke="midnightblue" points="185.727,-103.924 195.934,-101.083 186.183,-96.9392 185.727,-103.924"/>
</g>
<!-- Node19 -->
<g id="node19" class="node"><title>Node19</title>
<g id="a_node19"><a xlink:href="../../dd/dd1/lookip__socket_8c.html#a8d60faf190c751a8676c652462d00ebe" target="_top" xlink:title="query_cb">
<polygon fill="none" stroke="black" points="229,-57.5 229,-76.5 285,-76.5 285,-57.5 229,-57.5"/>
<text text-anchor="middle" x="257" y="-64.5" font-family="Helvetica,sans-Serif" font-size="10.00">query_cb</text>
</a>
</g>
</g>
<!-- Node5&#45;&gt;Node19 -->
<g id="edge23" class="edge"><title>Node5&#45;&gt;Node19</title>
<path fill="none" stroke="midnightblue" d="M137.772,-91.845C158.826,-87.4206 192.64,-80.3149 218.723,-74.8336"/>
<polygon fill="midnightblue" stroke="midnightblue" points="219.587,-78.2286 228.653,-72.7468 218.147,-71.3782 219.587,-78.2286"/>
</g>
<!-- Node7 -->
<g id="node7" class="node"><title>Node7</title>
<g id="a_node7"><a xlink:href="../../d7/df1/group__host.html#ga75f9b1e7905a80d69bc3cc7a7c3775a5" target="_top" xlink:title="host_create_from_string\l_and_family">
<polygon fill="none" stroke="black" points="354,-71 354,-101 476,-101 476,-71 354,-71"/>
<text text-anchor="start" x="362" y="-89" font-family="Helvetica,sans-Serif" font-size="10.00">host_create_from_string</text>
<text text-anchor="middle" x="415" y="-78" font-family="Helvetica,sans-Serif" font-size="10.00">_and_family</text>
</a>
</g>
</g>
<!-- Node6&#45;&gt;Node7 -->
<g id="edge6" class="edge"><title>Node6&#45;&gt;Node7</title>
<path fill="none" stroke="midnightblue" d="M318.314,-97.6541C326.695,-96.6333 335.363,-95.5776 343.904,-94.5373"/>
<polygon fill="midnightblue" stroke="midnightblue" points="344.343,-98.0098 353.847,-93.3264 343.497,-91.0611 344.343,-98.0098"/>
</g>
<!-- Node8 -->
<g id="node8" class="node"><title>Node8</title>
<g id="a_node8"><a xlink:href="../../d4/d40/group__string__i.html#ga65c3d08890165aaa4663c72d07f93bb7" target="_top" xlink:title="streq">
<polygon fill="none" stroke="black" points="548,-76.5 548,-95.5 586,-95.5 586,-76.5 548,-76.5"/>
<text text-anchor="middle" x="567" y="-83.5" font-family="Helvetica,sans-Serif" font-size="10.00">streq</text>
</a>
</g>
</g>
<!-- Node7&#45;&gt;Node8 -->
<g id="edge7" class="edge"><title>Node7&#45;&gt;Node8</title>
<path fill="none" stroke="midnightblue" d="M476.146,-86C497.476,-86 520.474,-86 537.864,-86"/>
<polygon fill="midnightblue" stroke="midnightblue" points="537.902,-89.5001 547.902,-86 537.902,-82.5001 537.902,-89.5001"/>
</g>
<!-- Node9 -->
<g id="node9" class="node"><title>Node9</title>
<g id="a_node9"><a xlink:href="../../df/da9/host_8c.html#a2670c8aac87ed6960c4e45f42f843b73" target="_top" xlink:title="host_create_any_port">
<polygon fill="none" stroke="black" points="512,-0.5 512,-19.5 622,-19.5 622,-0.5 512,-0.5"/>
<text text-anchor="middle" x="567" y="-7.5" font-family="Helvetica,sans-Serif" font-size="10.00">host_create_any_port</text>
</a>
</g>
</g>
<!-- Node7&#45;&gt;Node9 -->
<g id="edge8" class="edge"><title>Node7&#45;&gt;Node9</title>
<path fill="none" stroke="midnightblue" d="M438.58,-70.8577C457.606,-58.5285 485.834,-41.2248 512,-29 516.437,-26.9269 521.167,-24.9478 525.913,-23.1034"/>
<polygon fill="midnightblue" stroke="midnightblue" points="527.426,-26.2755 535.587,-19.5197 524.994,-19.7114 527.426,-26.2755"/>
</g>
<!-- Node17 -->
<g id="node17" class="node"><title>Node17</title>
<g id="a_node17"><a xlink:href="../../da/d9b/group__windows.html#ga7fb1f8a8f40e09fa09e625d2a09dc04e" target="_top" xlink:title="inet_pton">
<polygon fill="none" stroke="black" points="539,-38.5 539,-57.5 595,-57.5 595,-38.5 539,-38.5"/>
<text text-anchor="middle" x="567" y="-45.5" font-family="Helvetica,sans-Serif" font-size="10.00">inet_pton</text>
</a>
</g>
</g>
<!-- Node7&#45;&gt;Node17 -->
<g id="edge18" class="edge"><title>Node7&#45;&gt;Node17</title>
<path fill="none" stroke="midnightblue" d="M475.284,-70.9814C493.287,-66.4206 512.555,-61.5394 528.682,-57.4538"/>
<polygon fill="midnightblue" stroke="midnightblue" points="529.948,-60.7439 538.782,-54.8953 528.228,-53.9583 529.948,-60.7439"/>
</g>
<!-- Node18 -->
<g id="node18" class="node"><title>Node18</title>
<g id="a_node18"><a xlink:href="../../d7/df1/group__host.html#ga3183b60055297ceaa19b4a5996496830" target="_top" xlink:title="host_create_from_sockaddr">
<polygon fill="none" stroke="black" points="658.5,-95.5 658.5,-114.5 795.5,-114.5 795.5,-95.5 658.5,-95.5"/>
<text text-anchor="middle" x="727" y="-102.5" font-family="Helvetica,sans-Serif" font-size="10.00">host_create_from_sockaddr</text>
</a>
</g>
</g>
<!-- Node7&#45;&gt;Node18 -->
<g id="edge19" class="edge"><title>Node7&#45;&gt;Node18</title>
<path fill="none" stroke="midnightblue" d="M476.161,-99.7728C487.981,-101.949 500.333,-103.857 512,-105 556.995,-109.41 607.567,-109.627 648.248,-108.642"/>
<polygon fill="midnightblue" stroke="midnightblue" points="648.466,-112.137 658.368,-108.367 648.276,-105.14 648.466,-112.137"/>
</g>
<!-- Node10 -->
<g id="node10" class="node"><title>Node10</title>
<g id="a_node10"><a xlink:href="../../d7/df1/group__host.html#ga5f2c94740339664ce118776e13829cd0" target="_top" xlink:title="host_create_any">
<polygon fill="none" stroke="black" points="682.5,-19.5 682.5,-38.5 771.5,-38.5 771.5,-19.5 682.5,-19.5"/>
<text text-anchor="middle" x="727" y="-26.5" font-family="Helvetica,sans-Serif" font-size="10.00">host_create_any</text>
</a>
</g>
</g>
<!-- Node9&#45;&gt;Node10 -->
<g id="edge9" class="edge"><title>Node9&#45;&gt;Node10</title>
<path fill="none" stroke="midnightblue" d="M622.375,-16.5387C638.484,-18.4759 656.112,-20.5957 672.186,-22.5287"/>
<polygon fill="midnightblue" stroke="midnightblue" points="672.146,-26.049 682.493,-23.7681 672.982,-19.0991 672.146,-26.049"/>
</g>
<!-- Node16 -->
<g id="node16" class="node"><title>Node16</title>
<g id="a_node16"><a xlink:href="../../d9/dbc/kernel__pfkey__ipsec_8c.html#a5da61ec055ea1dffbb84ffe3caddb7dc" target="_top" xlink:title="set_port">
<polygon fill="none" stroke="black" points="701,-57.5 701,-76.5 753,-76.5 753,-57.5 701,-57.5"/>
<text text-anchor="middle" x="727" y="-64.5" font-family="Helvetica,sans-Serif" font-size="10.00">set_port</text>
</a>
</g>
</g>
<!-- Node9&#45;&gt;Node16 -->
<g id="edge17" class="edge"><title>Node9&#45;&gt;Node16</title>
<path fill="none" stroke="midnightblue" d="M597.732,-19.5793C605.706,-22.3864 614.259,-25.6174 622,-29 638.578,-36.2442 641.192,-41.3055 658,-48 668.442,-52.1591 680.128,-55.7763 690.827,-58.7063"/>
<polygon fill="midnightblue" stroke="midnightblue" points="690.148,-62.1468 700.709,-61.3002 691.925,-55.3761 690.148,-62.1468"/>
</g>
<!-- Node10&#45;&gt;Node2 -->
<g id="edge16" class="edge"><title>Node10&#45;&gt;Node2</title>
<path fill="none" stroke="midnightblue" d="M771.532,-37.3875C779.997,-40.0451 788.546,-43.5073 796,-48 815.925,-60.0098 812.684,-73.0341 832,-86 839.138,-90.7911 847.659,-94.6292 855.578,-97.5668"/>
<polygon fill="midnightblue" stroke="midnightblue" points="854.544,-100.912 865.138,-100.81 856.793,-94.2828 854.544,-100.912"/>
</g>
<!-- Node11 -->
<g id="node11" class="node"><title>Node11</title>
<g id="a_node11"><a xlink:href="../../df/da9/host_8c.html#ac3854e66d5a7563cae9608acbcad6eb5" target="_top" xlink:title="host_create_empty">
<polygon fill="none" stroke="black" points="832,-19.5 832,-38.5 932,-38.5 932,-19.5 832,-19.5"/>
<text text-anchor="middle" x="882" y="-26.5" font-family="Helvetica,sans-Serif" font-size="10.00">host_create_empty</text>
</a>
</g>
</g>
<!-- Node10&#45;&gt;Node11 -->
<g id="edge10" class="edge"><title>Node10&#45;&gt;Node11</title>
<path fill="none" stroke="midnightblue" d="M771.844,-29C787.346,-29 805.052,-29 821.627,-29"/>
<polygon fill="midnightblue" stroke="midnightblue" points="821.771,-32.5001 831.771,-29 821.771,-25.5001 821.771,-32.5001"/>
</g>
<!-- Node15 -->
<g id="node15" class="node"><title>Node15</title>
<g id="a_node15"><a xlink:href="../../df/da9/host_8c.html#a1fb6a6590d2576c32709b890623cad8c" target="_top" xlink:title="update_sa_len">
<polygon fill="none" stroke="black" points="842,-57.5 842,-76.5 922,-76.5 922,-57.5 842,-57.5"/>
<text text-anchor="middle" x="882" y="-64.5" font-family="Helvetica,sans-Serif" font-size="10.00">update_sa_len</text>
</a>
</g>
</g>
<!-- Node10&#45;&gt;Node15 -->
<g id="edge15" class="edge"><title>Node10&#45;&gt;Node15</title>
<path fill="none" stroke="midnightblue" d="M766.608,-38.589C786.707,-43.5809 811.475,-49.7324 832.819,-55.0334"/>
<polygon fill="midnightblue" stroke="midnightblue" points="832.12,-58.4662 842.669,-57.4799 833.808,-51.6726 832.12,-58.4662"/>
</g>
<!-- Node12 -->
<g id="node12" class="node"><title>Node12</title>
<g id="a_node12"><a xlink:href="../../df/da9/host_8c.html#a809d5cf7574c1f5e27758950d53653f4" target="_top" xlink:title="equals">
<polygon fill="none" stroke="black" points="968.5,-0.5 968.5,-19.5 1013.5,-19.5 1013.5,-0.5 968.5,-0.5"/>
<text text-anchor="middle" x="991" y="-7.5" font-family="Helvetica,sans-Serif" font-size="10.00">equals</text>
</a>
</g>
</g>
<!-- Node11&#45;&gt;Node12 -->
<g id="edge11" class="edge"><title>Node11&#45;&gt;Node12</title>
<path fill="none" stroke="midnightblue" d="M932.116,-20.2785C941.078,-18.6872 950.205,-17.0665 958.482,-15.5967"/>
<polygon fill="midnightblue" stroke="midnightblue" points="959.201,-19.0237 968.435,-13.8292 957.978,-12.1316 959.201,-19.0237"/>
</g>
<!-- Node13 -->
<g id="node13" class="node"><title>Node13</title>
<g id="a_node13"><a xlink:href="../../df/da9/host_8c.html#a0ea5fbf16ec81f3c5eaf6dc5da8d452a" target="_top" xlink:title="ip_equals">
<polygon fill="none" stroke="black" points="1050,-19.5 1050,-38.5 1108,-38.5 1108,-19.5 1050,-19.5"/>
<text text-anchor="middle" x="1079" y="-26.5" font-family="Helvetica,sans-Serif" font-size="10.00">ip_equals</text>
</a>
</g>
</g>
<!-- Node11&#45;&gt;Node13 -->
<g id="edge14" class="edge"><title>Node11&#45;&gt;Node13</title>
<path fill="none" stroke="midnightblue" d="M932.207,-29C965.513,-29 1008.88,-29 1039.63,-29"/>
<polygon fill="midnightblue" stroke="midnightblue" points="1039.94,-32.5001 1049.94,-29 1039.94,-25.5001 1039.94,-32.5001"/>
</g>
<!-- Node12&#45;&gt;Node13 -->
<g id="edge12" class="edge"><title>Node12&#45;&gt;Node13</title>
<path fill="none" stroke="midnightblue" d="M1013.7,-14.7945C1021.66,-16.5517 1030.91,-18.5963 1039.88,-20.5775"/>
<polygon fill="midnightblue" stroke="midnightblue" points="1039.28,-24.0291 1049.8,-22.7688 1040.79,-17.1939 1039.28,-24.0291"/>
</g>
<!-- Node14 -->
<g id="node14" class="node"><title>Node14</title>
<g id="a_node14"><a xlink:href="../../dd/d74/group__memory__i.html#ga46d7935db00fd7092430dbf4f36c2850" target="_top" xlink:title="memeq">
<polygon fill="none" stroke="black" points="1144.5,-19.5 1144.5,-38.5 1193.5,-38.5 1193.5,-19.5 1144.5,-19.5"/>
<text text-anchor="middle" x="1169" y="-26.5" font-family="Helvetica,sans-Serif" font-size="10.00">memeq</text>
</a>
</g>
</g>
<!-- Node13&#45;&gt;Node14 -->
<g id="edge13" class="edge"><title>Node13&#45;&gt;Node14</title>
<path fill="none" stroke="midnightblue" d="M1108.33,-29C1116.62,-29 1125.76,-29 1134.34,-29"/>
<polygon fill="midnightblue" stroke="midnightblue" points="1134.44,-32.5001 1144.44,-29 1134.44,-25.5001 1134.44,-32.5001"/>
</g>
<!-- Node18&#45;&gt;Node2 -->
<g id="edge22" class="edge"><title>Node18&#45;&gt;Node2</title>
<path fill="none" stroke="midnightblue" d="M795.553,-105C816.627,-105 838.619,-105 855.014,-105"/>
<polygon fill="midnightblue" stroke="midnightblue" points="855.39,-108.5 865.39,-105 855.39,-101.5 855.39,-108.5"/>
</g>
<!-- Node18&#45;&gt;Node11 -->
<g id="edge20" class="edge"><title>Node18&#45;&gt;Node11</title>
<path fill="none" stroke="midnightblue" d="M775.11,-95.441C782.383,-92.9592 789.596,-89.8599 796,-86 815.925,-73.9902 812.684,-60.9659 832,-48 834.765,-46.1439 837.738,-44.4309 840.803,-42.8578"/>
<polygon fill="midnightblue" stroke="midnightblue" points="842.536,-45.9134 850.159,-38.5555 839.611,-39.5536 842.536,-45.9134"/>
</g>
<!-- Node18&#45;&gt;Node15 -->
<g id="edge21" class="edge"><title>Node18&#45;&gt;Node15</title>
<path fill="none" stroke="midnightblue" d="M766.608,-95.411C786.707,-90.4191 811.475,-84.2676 832.819,-78.9666"/>
<polygon fill="midnightblue" stroke="midnightblue" points="833.808,-82.3274 842.669,-76.5201 832.12,-75.5338 833.808,-82.3274"/>
</g>
</g>
</svg>
