<?xml version="1.0" encoding="UTF-8" standalone="no"?>
<!DOCTYPE svg PUBLIC "-//W3C//DTD SVG 1.1//EN"
 "http://www.w3.org/Graphics/SVG/1.1/DTD/svg11.dtd">
<!-- Generated by graphviz version 2.36.0 (20140111.2315)
 -->
<!-- Title: tkm_kernel_ipsec_create Pages: 1 -->
<svg width="328pt" height="66pt"
 viewBox="0.00 0.00 328.00 66.00" xmlns="http://www.w3.org/2000/svg" xmlns:xlink="http://www.w3.org/1999/xlink">
<g id="graph0" class="graph" transform="scale(1 1) rotate(0) translate(4 62)">
<title>tkm_kernel_ipsec_create</title>
<!-- Node1 -->
<g id="node1" class="node"><title>Node1</title>
<polygon fill="#bfbfbf" stroke="black" points="0.5,-19.5 0.5,-38.5 125.5,-38.5 125.5,-19.5 0.5,-19.5"/>
<text text-anchor="middle" x="63" y="-26.5" font-family="Helvetica,sans-Serif" font-size="10.00">tkm_kernel_ipsec_create</text>
</g>
<!-- Node2 -->
<g id="node2" class="node"><title>Node2</title>
<g id="a_node2"><a xlink:href="../../d4/d9f/charon-tkm_8c.html#a0ddf1224851353fc92bfbff6f499fa97" target="_top" xlink:title="main">
<polygon fill="none" stroke="black" points="185,-38.5 185,-57.5 223,-57.5 223,-38.5 185,-38.5"/>
<text text-anchor="middle" x="204" y="-45.5" font-family="Helvetica,sans-Serif" font-size="10.00">main</text>
</a>
</g>
</g>
<!-- Node1&#45;&gt;Node2 -->
<g id="edge1" class="edge"><title>Node1&#45;&gt;Node2</title>
<path fill="none" stroke="midnightblue" d="M135.878,-38.8251C154.078,-41.3128 172.059,-43.7707 184.824,-45.5155"/>
<polygon fill="midnightblue" stroke="midnightblue" points="136.159,-35.331 125.777,-37.4443 135.211,-42.2665 136.159,-35.331"/>
</g>
<!-- Node3 -->
<g id="node3" class="node"><title>Node3</title>
<g id="a_node3"><a xlink:href="../../d7/d19/charon-tkm_2tests_2tests_8c.html#a4013d304f5b5a4543c1e1f8390c7af54" target="_top" xlink:title="test_runner_init">
<polygon fill="none" stroke="black" points="162.5,-0.5 162.5,-19.5 245.5,-19.5 245.5,-0.5 162.5,-0.5"/>
<text text-anchor="middle" x="204" y="-7.5" font-family="Helvetica,sans-Serif" font-size="10.00">test_runner_init</text>
</a>
</g>
</g>
<!-- Node1&#45;&gt;Node3 -->
<g id="edge2" class="edge"><title>Node1&#45;&gt;Node3</title>
<path fill="none" stroke="midnightblue" d="M135.93,-19.1679C144.93,-17.9376 153.876,-16.7148 162.163,-15.582"/>
<polygon fill="midnightblue" stroke="midnightblue" points="135.211,-15.7335 125.777,-20.5557 136.159,-22.669 135.211,-15.7335"/>
</g>
<!-- Node4 -->
<g id="node4" class="node"><title>Node4</title>
<g id="a_node4"><a xlink:href="../../d7/d19/charon-tkm_2tests_2tests_8c.html#a0ddf1224851353fc92bfbff6f499fa97" target="_top" xlink:title="main">
<polygon fill="none" stroke="black" points="282,-0.5 282,-19.5 320,-19.5 320,-0.5 282,-0.5"/>
<text text-anchor="middle" x="301" y="-7.5" font-family="Helvetica,sans-Serif" font-size="10.00">main</text>
</a>
</g>
</g>
<!-- Node3&#45;&gt;Node4 -->
<g id="edge3" class="edge"><title>Node3&#45;&gt;Node4</title>
<path fill="none" stroke="midnightblue" d="M255.764,-10C265.167,-10 274.399,-10 281.976,-10"/>
<polygon fill="midnightblue" stroke="midnightblue" points="255.564,-6.5001 245.564,-10 255.564,-13.5001 255.564,-6.5001"/>
</g>
</g>
</svg>
