<?xml version="1.0" encoding="UTF-8" standalone="no"?>
<!DOCTYPE svg PUBLIC "-//W3C//DTD SVG 1.1//EN"
 "http://www.w3.org/Graphics/SVG/1.1/DTD/svg11.dtd">
<!-- Generated by graphviz version 2.36.0 (20140111.2315)
 -->
<!-- Title: linked_list_create_from_enumerator Pages: 1 -->
<!--zoomable 583 -->
<svg id="main" version="1.1" xmlns="http://www.w3.org/2000/svg" xmlns:xlink="http://www.w3.org/1999/xlink" xml:space="preserve" onload="init(evt)">
<style type="text/css"><![CDATA[
.edge:hover path { stroke: red; }
.edge:hover polygon { stroke: red; fill: red; }
]]></style>
<script type="text/javascript"><![CDATA[
var edges = document.getElementsByTagName('g');
if (edges && edges.length) {
  for (var i=0;i<edges.length;i++) {
    if (edges[i].id.substr(0,4)=='edge') {
      edges[i].setAttribute('class','edge');
    }
  }
}
]]></script>
        <defs>
                <circle id="rim" cx="0" cy="0" r="7"/>
                <circle id="rim2" cx="0" cy="0" r="3.5"/>
                <g id="zoomPlus">
                        <use xlink:href="#rim" fill="#404040">
                                <set attributeName="fill" to="#808080" begin="zoomplus.mouseover" end="zoomplus.mouseout"/>
                        </use>
                        <path d="M-4,0h8M0,-4v8" fill="none" stroke="white" stroke-width="1.5" pointer-events="none"/>
                </g>
                <g id="zoomMin">
                        <use xlink:href="#rim" fill="#404040">
                                <set attributeName="fill" to="#808080" begin="zoomminus.mouseover" end="zoomminus.mouseout"/>
                        </use>
                        <path d="M-4,0h8" fill="none" stroke="white" stroke-width="1.5" pointer-events="none"/>
                </g>
                <g id="dirArrow">
                        <path fill="none" stroke="white" stroke-width="1.5" d="M0,-3.0v7 M-2.5,-0.5L0,-3.0L2.5,-0.5"/>
                </g>
               <g id="resetDef">
                       <use xlink:href="#rim2" fill="#404040">
                               <set attributeName="fill" to="#808080" begin="reset.mouseover" end="reset.mouseout"/>
                       </use>
               </g>
        </defs>

<script type="text/javascript">
var viewWidth = 1220;
var viewHeight = 583;
var sectionId = 'dynsection-3';
</script>
<script xlink:href="../../svgpan.js"/>
<svg id="graph" class="graph">
<g id="viewport">
<title>linked_list_create_from_enumerator</title>
<!-- Node1 -->
<g id="node1" class="node"><title>Node1</title>
<polygon fill="#bfbfbf" stroke="black" points="0.5,-341 0.5,-371 95.5,-371 95.5,-341 0.5,-341"/>
<text text-anchor="start" x="8.5" y="-359" font-family="Helvetica,sans-Serif" font-size="10.00">linked_list_create</text>
<text text-anchor="middle" x="48" y="-348" font-family="Helvetica,sans-Serif" font-size="10.00">_from_enumerator</text>
</g>
<!-- Node2 -->
<g id="node2" class="node"><title>Node2</title>
<g id="a_node2"><a xlink:href="../../da/d9e/mode__config_8c.html#ab411fb4a72d88a6daf85b1a24b1af4be" target="_top" xlink:title="build_reply">
<polygon fill="none" stroke="black" points="148.5,-555.5 148.5,-574.5 211.5,-574.5 211.5,-555.5 148.5,-555.5"/>
<text text-anchor="middle" x="180" y="-562.5" font-family="Helvetica,sans-Serif" font-size="10.00">build_reply</text>
</a>
</g>
</g>
<!-- Node1&#45;&gt;Node2 -->
<g id="edge1" class="edge"><title>Node1&#45;&gt;Node2</title>
<path fill="none" stroke="midnightblue" d="M53.5914,-381C62.168,-420.991 84.2553,-499.559 132,-546 136.542,-550.418 142.248,-553.854 148.102,-556.511"/>
<polygon fill="midnightblue" stroke="midnightblue" points="56.9861,-380.13 51.5637,-371.028 50.1265,-381.525 56.9861,-380.13"/>
</g>
<!-- Node4 -->
<g id="node4" class="node"><title>Node4</title>
<g id="a_node4"><a xlink:href="../../da/d9e/mode__config_8c.html#ad5c62f88bdbf88dac4a02653c9e552f6" target="_top" xlink:title="build_set">
<polygon fill="none" stroke="black" points="152,-517.5 152,-536.5 208,-536.5 208,-517.5 152,-517.5"/>
<text text-anchor="middle" x="180" y="-524.5" font-family="Helvetica,sans-Serif" font-size="10.00">build_set</text>
</a>
</g>
</g>
<!-- Node1&#45;&gt;Node4 -->
<g id="edge3" class="edge"><title>Node1&#45;&gt;Node4</title>
<path fill="none" stroke="midnightblue" d="M56.6813,-380.968C68.0826,-414.189 92.4915,-472.815 132,-508 137.652,-513.034 144.811,-516.83 151.827,-519.652"/>
<polygon fill="midnightblue" stroke="midnightblue" points="59.8937,-379.534 53.4339,-371.136 53.2469,-381.729 59.8937,-379.534"/>
</g>
<!-- Node6 -->
<g id="node6" class="node"><title>Node6</title>
<g id="a_node6"><a xlink:href="../../d1/d99/quick__delete_8c.html#a64b255e15111501f51a19ab180bd16b1" target="_top" xlink:title="delete_child">
<polygon fill="none" stroke="black" points="146,-479.5 146,-498.5 214,-498.5 214,-479.5 146,-479.5"/>
<text text-anchor="middle" x="180" y="-486.5" font-family="Helvetica,sans-Serif" font-size="10.00">delete_child</text>
</a>
</g>
</g>
<!-- Node1&#45;&gt;Node6 -->
<g id="edge5" class="edge"><title>Node1&#45;&gt;Node6</title>
<path fill="none" stroke="midnightblue" d="M61.1806,-379.995C75.1763,-405.436 100.343,-445.287 132,-470 136.856,-473.791 142.571,-476.929 148.311,-479.489"/>
<polygon fill="midnightblue" stroke="midnightblue" points="64.1775,-378.177 56.3734,-371.011 58.0056,-381.48 64.1775,-378.177"/>
</g>
<!-- Node8 -->
<g id="node8" class="node"><title>Node8</title>
<g id="a_node8"><a xlink:href="../../d7/d58/quick__mode_8c.html#a31e06d75bdbfbe09ac1c0d6ec017e294" target="_top" xlink:title="install">
<polygon fill="none" stroke="black" points="159,-441.5 159,-460.5 201,-460.5 201,-441.5 159,-441.5"/>
<text text-anchor="middle" x="180" y="-448.5" font-family="Helvetica,sans-Serif" font-size="10.00">install</text>
</a>
</g>
</g>
<!-- Node1&#45;&gt;Node8 -->
<g id="edge7" class="edge"><title>Node1&#45;&gt;Node8</title>
<path fill="none" stroke="midnightblue" d="M69.5403,-378.757C85.3518,-395.232 108.426,-417.129 132,-432 140.188,-437.165 150.017,-441.4 158.565,-444.55"/>
<polygon fill="midnightblue" stroke="midnightblue" points="71.7931,-376.043 62.3914,-371.159 66.6951,-380.84 71.7931,-376.043"/>
</g>
<!-- Node10 -->
<g id="node10" class="node"><title>Node10</title>
<g id="a_node10"><a xlink:href="../../dd/df3/stroke__list_8c.html#afc6720fec89976f3b225f84f57b94228" target="_top" xlink:title="log_child_sa">
<polygon fill="none" stroke="black" points="144.5,-403.5 144.5,-422.5 215.5,-422.5 215.5,-403.5 144.5,-403.5"/>
<text text-anchor="middle" x="180" y="-410.5" font-family="Helvetica,sans-Serif" font-size="10.00">log_child_sa</text>
</a>
</g>
</g>
<!-- Node1&#45;&gt;Node10 -->
<g id="edge9" class="edge"><title>Node1&#45;&gt;Node10</title>
<path fill="none" stroke="midnightblue" d="M90.4881,-375.44C103.7,-381.511 118.414,-388.147 132,-394 139.275,-397.134 147.244,-400.413 154.519,-403.347"/>
<polygon fill="midnightblue" stroke="midnightblue" points="91.7166,-372.152 81.1704,-371.138 88.7827,-378.507 91.7166,-372.152"/>
</g>
<!-- Node12 -->
<g id="node12" class="node"><title>Node12</title>
<g id="a_node12"><a xlink:href="../../de/d43/child__delete_8c.html#a9f077030450b5b297b454447a3176bb4" target="_top" xlink:title="log_children">
<polygon fill="none" stroke="black" points="146,-365.5 146,-384.5 214,-384.5 214,-365.5 146,-365.5"/>
<text text-anchor="middle" x="180" y="-372.5" font-family="Helvetica,sans-Serif" font-size="10.00">log_children</text>
</a>
</g>
</g>
<!-- Node1&#45;&gt;Node12 -->
<g id="edge11" class="edge"><title>Node1&#45;&gt;Node12</title>
<path fill="none" stroke="midnightblue" d="M105.463,-364.252C119.231,-366.265 133.519,-368.353 145.799,-370.147"/>
<polygon fill="midnightblue" stroke="midnightblue" points="105.967,-360.789 95.5658,-362.806 104.954,-367.715 105.967,-360.789"/>
</g>
<!-- Node14 -->
<g id="node14" class="node"><title>Node14</title>
<g id="a_node14"><a xlink:href="../../dd/d3a/ike__config_8c.html#af620b48fd0bba141273712012108bc99" target="_top" xlink:title="METHOD">
<polygon fill="none" stroke="black" points="150,-327.5 150,-346.5 210,-346.5 210,-327.5 150,-327.5"/>
<text text-anchor="middle" x="180" y="-334.5" font-family="Helvetica,sans-Serif" font-size="10.00">METHOD</text>
</a>
</g>
</g>
<!-- Node1&#45;&gt;Node14 -->
<g id="edge13" class="edge"><title>Node1&#45;&gt;Node14</title>
<path fill="none" stroke="midnightblue" d="M105.47,-347.747C120.737,-345.515 136.643,-343.191 149.739,-341.277"/>
<polygon fill="midnightblue" stroke="midnightblue" points="104.954,-344.285 95.5658,-349.194 105.967,-351.211 104.954,-344.285"/>
</g>
<!-- Node15 -->
<g id="node15" class="node"><title>Node15</title>
<g id="a_node15"><a xlink:href="../../db/d66/plugin__loader_8c.html#a99988329b42c1a7cae2664e132b0acce" target="_top" xlink:title="plugin_filter">
<polygon fill="none" stroke="black" points="147,-289.5 147,-308.5 213,-308.5 213,-289.5 147,-289.5"/>
<text text-anchor="middle" x="180" y="-296.5" font-family="Helvetica,sans-Serif" font-size="10.00">plugin_filter</text>
</a>
</g>
</g>
<!-- Node1&#45;&gt;Node15 -->
<g id="edge14" class="edge"><title>Node1&#45;&gt;Node15</title>
<path fill="none" stroke="midnightblue" d="M90.4881,-336.56C103.7,-330.489 118.414,-323.853 132,-318 139.275,-314.866 147.244,-311.587 154.519,-308.653"/>
<polygon fill="midnightblue" stroke="midnightblue" points="88.7827,-333.493 81.1704,-340.862 91.7166,-339.848 88.7827,-333.493"/>
</g>
<!-- Node17 -->
<g id="node17" class="node"><title>Node17</title>
<g id="a_node17"><a xlink:href="../../dc/d9a/child__create_8c.html#afcf256f31dd9c48aaebef53f24e420be" target="_top" xlink:title="select_and_install">
<polygon fill="none" stroke="black" points="132.5,-251.5 132.5,-270.5 227.5,-270.5 227.5,-251.5 132.5,-251.5"/>
<text text-anchor="middle" x="180" y="-258.5" font-family="Helvetica,sans-Serif" font-size="10.00">select_and_install</text>
</a>
</g>
</g>
<!-- Node1&#45;&gt;Node17 -->
<g id="edge16" class="edge"><title>Node1&#45;&gt;Node17</title>
<path fill="none" stroke="midnightblue" d="M69.5403,-333.243C85.3518,-316.768 108.426,-294.871 132,-280 137.657,-276.431 144.098,-273.307 150.358,-270.677"/>
<polygon fill="midnightblue" stroke="midnightblue" points="66.6951,-331.16 62.3914,-340.841 71.7931,-335.957 66.6951,-331.16"/>
</g>
<!-- Node19 -->
<g id="node19" class="node"><title>Node19</title>
<g id="a_node19"><a xlink:href="../../d8/dcf/test__linked__list__enumerator_8c.html#a435a9e9786bc6a5ec7c1b1b34a6a39b4" target="_top" xlink:title="START_TEST">
<polygon fill="none" stroke="black" points="140,-213.5 140,-232.5 220,-232.5 220,-213.5 140,-213.5"/>
<text text-anchor="middle" x="180" y="-220.5" font-family="Helvetica,sans-Serif" font-size="10.00">START_TEST</text>
</a>
</g>
</g>
<!-- Node1&#45;&gt;Node19 -->
<g id="edge18" class="edge"><title>Node1&#45;&gt;Node19</title>
<path fill="none" stroke="midnightblue" d="M61.1806,-332.005C75.1763,-306.564 100.343,-266.713 132,-242 136.856,-238.209 142.571,-235.071 148.311,-232.511"/>
<polygon fill="midnightblue" stroke="midnightblue" points="58.0056,-330.52 56.3734,-340.989 64.1775,-333.823 58.0056,-330.52"/>
</g>
<!-- Node20 -->
<g id="node20" class="node"><title>Node20</title>
<g id="a_node20"><a xlink:href="../../d4/d07/uci__control_8c.html#a81f1fe392ee590473d5a33de9032f295" target="_top" xlink:title="status">
<polygon fill="none" stroke="black" points="158,-175.5 158,-194.5 202,-194.5 202,-175.5 158,-175.5"/>
<text text-anchor="middle" x="180" y="-182.5" font-family="Helvetica,sans-Serif" font-size="10.00">status</text>
</a>
</g>
</g>
<!-- Node1&#45;&gt;Node20 -->
<g id="edge19" class="edge"><title>Node1&#45;&gt;Node20</title>
<path fill="none" stroke="midnightblue" d="M56.6813,-331.032C68.0826,-297.811 92.4915,-239.185 132,-204 139.23,-197.561 148.924,-193.148 157.63,-190.208"/>
<polygon fill="midnightblue" stroke="midnightblue" points="53.2469,-330.271 53.4339,-340.864 59.8937,-332.466 53.2469,-330.271"/>
</g>
<!-- Node25 -->
<g id="node25" class="node"><title>Node25</title>
<g id="a_node25"><a xlink:href="../../dc/dfb/smp_8c.html#a8b45595849262022c5a1934ad90518c6" target="_top" xlink:title="write_childend">
<polygon fill="none" stroke="black" points="140.5,-137.5 140.5,-156.5 219.5,-156.5 219.5,-137.5 140.5,-137.5"/>
<text text-anchor="middle" x="180" y="-144.5" font-family="Helvetica,sans-Serif" font-size="10.00">write_childend</text>
</a>
</g>
</g>
<!-- Node1&#45;&gt;Node25 -->
<g id="edge24" class="edge"><title>Node1&#45;&gt;Node25</title>
<path fill="none" stroke="midnightblue" d="M53.5914,-331C62.168,-291.009 84.2553,-212.441 132,-166 135.912,-162.195 140.685,-159.119 145.674,-156.642"/>
<polygon fill="midnightblue" stroke="midnightblue" points="50.1265,-330.475 51.5637,-340.972 56.9861,-331.87 50.1265,-330.475"/>
</g>
<!-- Node3 -->
<g id="node3" class="node"><title>Node3</title>
<g id="a_node3"><a xlink:href="../../da/d9e/mode__config_8c.html#ad99ba1eaa5c51a8d5f1bfd0968983eb8" target="_top" xlink:title="METHOD">
<polygon fill="none" stroke="black" points="266,-555.5 266,-574.5 326,-574.5 326,-555.5 266,-555.5"/>
<text text-anchor="middle" x="296" y="-562.5" font-family="Helvetica,sans-Serif" font-size="10.00">METHOD</text>
</a>
</g>
</g>
<!-- Node2&#45;&gt;Node3 -->
<g id="edge2" class="edge"><title>Node2&#45;&gt;Node3</title>
<path fill="none" stroke="midnightblue" d="M221.837,-565C236.422,-565 252.547,-565 265.938,-565"/>
<polygon fill="midnightblue" stroke="midnightblue" points="221.55,-561.5 211.55,-565 221.55,-568.5 221.55,-561.5"/>
</g>
<!-- Node5 -->
<g id="node5" class="node"><title>Node5</title>
<g id="a_node5"><a xlink:href="../../da/d9e/mode__config_8c.html#a0d58c91da05de1aaae2ad05256f7fcb0" target="_top" xlink:title="METHOD">
<polygon fill="none" stroke="black" points="266,-517.5 266,-536.5 326,-536.5 326,-517.5 266,-517.5"/>
<text text-anchor="middle" x="296" y="-524.5" font-family="Helvetica,sans-Serif" font-size="10.00">METHOD</text>
</a>
</g>
</g>
<!-- Node4&#45;&gt;Node5 -->
<g id="edge4" class="edge"><title>Node4&#45;&gt;Node5</title>
<path fill="none" stroke="midnightblue" d="M218.277,-527C233.699,-527 251.319,-527 265.781,-527"/>
<polygon fill="midnightblue" stroke="midnightblue" points="218.016,-523.5 208.016,-527 218.016,-530.5 218.016,-523.5"/>
</g>
<!-- Node7 -->
<g id="node7" class="node"><title>Node7</title>
<g id="a_node7"><a xlink:href="../../d1/d99/quick__delete_8c.html#a8419c077e6489e69284be825ec9ce1f8" target="_top" xlink:title="METHOD">
<polygon fill="none" stroke="black" points="266,-479.5 266,-498.5 326,-498.5 326,-479.5 266,-479.5"/>
<text text-anchor="middle" x="296" y="-486.5" font-family="Helvetica,sans-Serif" font-size="10.00">METHOD</text>
</a>
</g>
</g>
<!-- Node6&#45;&gt;Node7 -->
<g id="edge6" class="edge"><title>Node6&#45;&gt;Node7</title>
<path fill="none" stroke="midnightblue" d="M224.544,-489C238.325,-489 253.22,-489 265.749,-489"/>
<polygon fill="midnightblue" stroke="midnightblue" points="224.28,-485.5 214.28,-489 224.28,-492.5 224.28,-485.5"/>
</g>
<!-- Node9 -->
<g id="node9" class="node"><title>Node9</title>
<g id="a_node9"><a xlink:href="../../d7/d58/quick__mode_8c.html#a383dcd843aaae199d38b057986d3a4de" target="_top" xlink:title="METHOD">
<polygon fill="none" stroke="black" points="266,-441.5 266,-460.5 326,-460.5 326,-441.5 266,-441.5"/>
<text text-anchor="middle" x="296" y="-448.5" font-family="Helvetica,sans-Serif" font-size="10.00">METHOD</text>
</a>
</g>
</g>
<!-- Node8&#45;&gt;Node9 -->
<g id="edge8" class="edge"><title>Node8&#45;&gt;Node9</title>
<path fill="none" stroke="midnightblue" d="M211.505,-451C228.305,-451 249.054,-451 265.665,-451"/>
<polygon fill="midnightblue" stroke="midnightblue" points="211.119,-447.5 201.118,-451 211.118,-454.5 211.119,-447.5"/>
</g>
<!-- Node11 -->
<g id="node11" class="node"><title>Node11</title>
<g id="a_node11"><a xlink:href="../../dd/df3/stroke__list_8c.html#aac70a792760431e962fdbe349a5684b8" target="_top" xlink:title="METHOD">
<polygon fill="none" stroke="black" points="266,-403.5 266,-422.5 326,-422.5 326,-403.5 266,-403.5"/>
<text text-anchor="middle" x="296" y="-410.5" font-family="Helvetica,sans-Serif" font-size="10.00">METHOD</text>
</a>
</g>
</g>
<!-- Node10&#45;&gt;Node11 -->
<g id="edge10" class="edge"><title>Node10&#45;&gt;Node11</title>
<path fill="none" stroke="midnightblue" d="M225.637,-413C239.196,-413 253.736,-413 265.983,-413"/>
<polygon fill="midnightblue" stroke="midnightblue" points="225.513,-409.5 215.513,-413 225.513,-416.5 225.513,-409.5"/>
</g>
<!-- Node13 -->
<g id="node13" class="node"><title>Node13</title>
<g id="a_node13"><a xlink:href="../../de/d43/child__delete_8c.html#a862fbfcba286d4b6578f60908ee2815e" target="_top" xlink:title="METHOD">
<polygon fill="none" stroke="black" points="266,-365.5 266,-384.5 326,-384.5 326,-365.5 266,-365.5"/>
<text text-anchor="middle" x="296" y="-372.5" font-family="Helvetica,sans-Serif" font-size="10.00">METHOD</text>
</a>
</g>
</g>
<!-- Node12&#45;&gt;Node13 -->
<g id="edge12" class="edge"><title>Node12&#45;&gt;Node13</title>
<path fill="none" stroke="midnightblue" d="M224.544,-375C238.325,-375 253.22,-375 265.749,-375"/>
<polygon fill="midnightblue" stroke="midnightblue" points="224.28,-371.5 214.28,-375 224.28,-378.5 224.28,-371.5"/>
</g>
<!-- Node16 -->
<g id="node16" class="node"><title>Node16</title>
<g id="a_node16"><a xlink:href="../../db/d66/plugin__loader_8c.html#ac8d94334933719d25efe7de42ebf2684" target="_top" xlink:title="METHOD">
<polygon fill="none" stroke="black" points="266,-289.5 266,-308.5 326,-308.5 326,-289.5 266,-289.5"/>
<text text-anchor="middle" x="296" y="-296.5" font-family="Helvetica,sans-Serif" font-size="10.00">METHOD</text>
</a>
</g>
</g>
<!-- Node15&#45;&gt;Node16 -->
<g id="edge15" class="edge"><title>Node15&#45;&gt;Node16</title>
<path fill="none" stroke="midnightblue" d="M223.129,-299C237.358,-299 252.917,-299 265.908,-299"/>
<polygon fill="midnightblue" stroke="midnightblue" points="223.059,-295.5 213.059,-299 223.059,-302.5 223.059,-295.5"/>
</g>
<!-- Node18 -->
<g id="node18" class="node"><title>Node18</title>
<g id="a_node18"><a xlink:href="../../dc/d9a/child__create_8c.html#ae70775d2645043059b37cb2e6fb61985" target="_top" xlink:title="METHOD">
<polygon fill="none" stroke="black" points="266,-251.5 266,-270.5 326,-270.5 326,-251.5 266,-251.5"/>
<text text-anchor="middle" x="296" y="-258.5" font-family="Helvetica,sans-Serif" font-size="10.00">METHOD</text>
</a>
</g>
</g>
<!-- Node17&#45;&gt;Node18 -->
<g id="edge17" class="edge"><title>Node17&#45;&gt;Node18</title>
<path fill="none" stroke="midnightblue" d="M237.782,-261C247.509,-261 257.243,-261 265.854,-261"/>
<polygon fill="midnightblue" stroke="midnightblue" points="237.697,-257.5 227.697,-261 237.697,-264.5 237.697,-257.5"/>
</g>
<!-- Node21 -->
<g id="node21" class="node"><title>Node21</title>
<g id="a_node21"><a xlink:href="../../d4/d07/uci__control_8c.html#a7991be914ecd741cd22ea080bb7d1a2f" target="_top" xlink:title="process">
<polygon fill="none" stroke="black" points="270.5,-175.5 270.5,-194.5 321.5,-194.5 321.5,-175.5 270.5,-175.5"/>
<text text-anchor="middle" x="296" y="-182.5" font-family="Helvetica,sans-Serif" font-size="10.00">process</text>
</a>
</g>
</g>
<!-- Node20&#45;&gt;Node21 -->
<g id="edge20" class="edge"><title>Node20&#45;&gt;Node21</title>
<path fill="none" stroke="midnightblue" d="M212.351,-185C230.639,-185 253.377,-185 270.371,-185"/>
<polygon fill="midnightblue" stroke="midnightblue" points="212.175,-181.5 202.175,-185 212.175,-188.5 212.175,-181.5"/>
</g>
<!-- Node22 -->
<g id="node22" class="node"><title>Node22</title>
<g id="a_node22"><a xlink:href="../../d4/d07/uci__control_8c.html#a9513515899cf5c24b192d857a52411aa" target="_top" xlink:title="receive">
<polygon fill="none" stroke="black" points="394,-175.5 394,-194.5 442,-194.5 442,-175.5 394,-175.5"/>
<text text-anchor="middle" x="418" y="-182.5" font-family="Helvetica,sans-Serif" font-size="10.00">receive</text>
</a>
</g>
</g>
<!-- Node21&#45;&gt;Node22 -->
<g id="edge21" class="edge"><title>Node21&#45;&gt;Node22</title>
<path fill="none" stroke="midnightblue" d="M331.795,-185C351.687,-185 376.096,-185 393.683,-185"/>
<polygon fill="midnightblue" stroke="midnightblue" points="331.573,-181.5 321.573,-185 331.573,-188.5 331.573,-181.5"/>
</g>
<!-- Node23 -->
<g id="node23" class="node"><title>Node23</title>
<g id="a_node23"><a xlink:href="../../d5/df4/group__uci__control__t.html#ga66651aca294b20fd09939dcc48b385aa" target="_top" xlink:title="uci_control_create">
<polygon fill="none" stroke="black" points="508,-175.5 508,-194.5 604,-194.5 604,-175.5 508,-175.5"/>
<text text-anchor="middle" x="556" y="-182.5" font-family="Helvetica,sans-Serif" font-size="10.00">uci_control_create</text>
</a>
</g>
</g>
<!-- Node22&#45;&gt;Node23 -->
<g id="edge22" class="edge"><title>Node22&#45;&gt;Node23</title>
<path fill="none" stroke="midnightblue" d="M452.423,-185C469.1,-185 489.558,-185 507.805,-185"/>
<polygon fill="midnightblue" stroke="midnightblue" points="452.071,-181.5 442.071,-185 452.071,-188.5 452.071,-181.5"/>
</g>
<!-- Node24 -->
<g id="node24" class="node"><title>Node24</title>
<g id="a_node24"><a xlink:href="../../d0/d8b/uci__plugin_8c.html#a9132499a3a5ed364f14edc9eea2d9477" target="_top" xlink:title="uci_plugin_create">
<polygon fill="none" stroke="black" points="640,-175.5 640,-194.5 732,-194.5 732,-175.5 640,-175.5"/>
<text text-anchor="middle" x="686" y="-182.5" font-family="Helvetica,sans-Serif" font-size="10.00">uci_plugin_create</text>
</a>
</g>
</g>
<!-- Node23&#45;&gt;Node24 -->
<g id="edge23" class="edge"><title>Node23&#45;&gt;Node24</title>
<path fill="none" stroke="midnightblue" d="M614.459,-185C622.883,-185 631.46,-185 639.598,-185"/>
<polygon fill="midnightblue" stroke="midnightblue" points="614.299,-181.5 604.299,-185 614.299,-188.5 614.299,-181.5"/>
</g>
<!-- Node26 -->
<g id="node26" class="node"><title>Node26</title>
<g id="a_node26"><a xlink:href="../../dc/dfb/smp_8c.html#ab4fbfaa0292722873d42c834647c3d73" target="_top" xlink:title="write_child">
<polygon fill="none" stroke="black" points="264.5,-137.5 264.5,-156.5 327.5,-156.5 327.5,-137.5 264.5,-137.5"/>
<text text-anchor="middle" x="296" y="-144.5" font-family="Helvetica,sans-Serif" font-size="10.00">write_child</text>
</a>
</g>
</g>
<!-- Node25&#45;&gt;Node26 -->
<g id="edge25" class="edge"><title>Node25&#45;&gt;Node26</title>
<path fill="none" stroke="midnightblue" d="M229.744,-147C241.491,-147 253.716,-147 264.366,-147"/>
<polygon fill="midnightblue" stroke="midnightblue" points="229.595,-143.5 219.595,-147 229.595,-150.5 229.595,-143.5"/>
</g>
<!-- Node27 -->
<g id="node27" class="node"><title>Node27</title>
<g id="a_node27"><a xlink:href="../../dc/dfb/smp_8c.html#af445bbd5f7dbb936c170ba950697320b" target="_top" xlink:title="request_query_ikesa">
<polygon fill="none" stroke="black" points="364.5,-137.5 364.5,-156.5 471.5,-156.5 471.5,-137.5 364.5,-137.5"/>
<text text-anchor="middle" x="418" y="-144.5" font-family="Helvetica,sans-Serif" font-size="10.00">request_query_ikesa</text>
</a>
</g>
</g>
<!-- Node26&#45;&gt;Node27 -->
<g id="edge26" class="edge"><title>Node26&#45;&gt;Node27</title>
<path fill="none" stroke="midnightblue" d="M337.621,-147C346.124,-147 355.208,-147 364.082,-147"/>
<polygon fill="midnightblue" stroke="midnightblue" points="337.592,-143.5 327.592,-147 337.592,-150.5 337.592,-143.5"/>
</g>
<!-- Node28 -->
<g id="node28" class="node"><title>Node28</title>
<g id="a_node28"><a xlink:href="../../dc/dfb/smp_8c.html#a41b93c83388083c10865a791b8d8118e" target="_top" xlink:title="request_query">
<polygon fill="none" stroke="black" points="517,-137.5 517,-156.5 595,-156.5 595,-137.5 517,-137.5"/>
<text text-anchor="middle" x="556" y="-144.5" font-family="Helvetica,sans-Serif" font-size="10.00">request_query</text>
</a>
</g>
</g>
<!-- Node27&#45;&gt;Node28 -->
<g id="edge27" class="edge"><title>Node27&#45;&gt;Node28</title>
<path fill="none" stroke="midnightblue" d="M481.61,-147C493.653,-147 505.922,-147 516.895,-147"/>
<polygon fill="midnightblue" stroke="midnightblue" points="481.581,-143.5 471.581,-147 481.581,-150.5 481.581,-143.5"/>
</g>
<!-- Node29 -->
<g id="node29" class="node"><title>Node29</title>
<g id="a_node29"><a xlink:href="../../dc/dfb/smp_8c.html#ae5ffd6d9c6e452364d061068e1c4affc" target="_top" xlink:title="request">
<polygon fill="none" stroke="black" points="661.5,-137.5 661.5,-156.5 710.5,-156.5 710.5,-137.5 661.5,-137.5"/>
<text text-anchor="middle" x="686" y="-144.5" font-family="Helvetica,sans-Serif" font-size="10.00">request</text>
</a>
</g>
</g>
<!-- Node28&#45;&gt;Node29 -->
<g id="edge28" class="edge"><title>Node28&#45;&gt;Node29</title>
<path fill="none" stroke="midnightblue" d="M605.176,-147C624.39,-147 645.633,-147 661.371,-147"/>
<polygon fill="midnightblue" stroke="midnightblue" points="605.058,-143.5 595.058,-147 605.058,-150.5 605.058,-143.5"/>
</g>
<!-- Node30 -->
<g id="node30" class="node"><title>Node30</title>
<g id="a_node30"><a xlink:href="../../dc/dfb/smp_8c.html#ad33d4cf9bee572100e54c96c6b637335" target="_top" xlink:title="process">
<polygon fill="none" stroke="black" points="768.5,-137.5 768.5,-156.5 819.5,-156.5 819.5,-137.5 768.5,-137.5"/>
<text text-anchor="middle" x="794" y="-144.5" font-family="Helvetica,sans-Serif" font-size="10.00">process</text>
</a>
</g>
</g>
<!-- Node29&#45;&gt;Node30 -->
<g id="edge29" class="edge"><title>Node29&#45;&gt;Node30</title>
<path fill="none" stroke="midnightblue" d="M720.762,-147C736.247,-147 754.267,-147 768.436,-147"/>
<polygon fill="midnightblue" stroke="midnightblue" points="720.525,-143.5 710.525,-147 720.525,-150.5 720.525,-143.5"/>
</g>
<!-- Node31 -->
<g id="node31" class="node"><title>Node31</title>
<g id="a_node31"><a xlink:href="../../dc/dfb/smp_8c.html#a59074c7f4da84573c19332aeb1d5f753" target="_top" xlink:title="dispatch">
<polygon fill="none" stroke="black" points="892.5,-251.5 892.5,-270.5 945.5,-270.5 945.5,-251.5 892.5,-251.5"/>
<text text-anchor="middle" x="919" y="-258.5" font-family="Helvetica,sans-Serif" font-size="10.00">dispatch</text>
</a>
</g>
</g>
<!-- Node30&#45;&gt;Node31 -->
<g id="edge30" class="edge"><title>Node30&#45;&gt;Node31</title>
<path fill="none" stroke="midnightblue" d="M803.387,-165.641C813.311,-185.783 831.616,-217.592 856,-237 866.566,-245.41 880.425,-251.145 892.359,-254.895"/>
<polygon fill="midnightblue" stroke="midnightblue" points="806.526,-164.09 799.086,-156.547 800.198,-167.084 806.526,-164.09"/>
</g>
<!-- Node33 -->
<g id="node33" class="node"><title>Node33</title>
<g id="a_node33"><a xlink:href="../../d6/db0/updown__listener_8c.html#ab9007f42f15718faba87349c32919ca5" target="_top" xlink:title="invoke_once">
<polygon fill="none" stroke="black" points="1031.5,-194.5 1031.5,-213.5 1102.5,-213.5 1102.5,-194.5 1031.5,-194.5"/>
<text text-anchor="middle" x="1067" y="-201.5" font-family="Helvetica,sans-Serif" font-size="10.00">invoke_once</text>
</a>
</g>
</g>
<!-- Node30&#45;&gt;Node33 -->
<g id="edge32" class="edge"><title>Node30&#45;&gt;Node33</title>
<path fill="none" stroke="midnightblue" d="M807.832,-164.767C818.855,-178.39 836.092,-196.146 856,-204 914.164,-226.946 988.644,-219.148 1031.48,-211.5"/>
<polygon fill="midnightblue" stroke="midnightblue" points="810.39,-162.351 801.52,-156.557 804.84,-166.618 810.39,-162.351"/>
</g>
<!-- Node35 -->
<g id="node35" class="node"><title>Node35</title>
<g id="a_node35"><a xlink:href="../../d7/de0/backtrace_8c.html#a0515d17a418c0ca8d656c5bcbc258b70" target="_top" xlink:title="METHOD">
<polygon fill="none" stroke="black" points="889,-175.5 889,-194.5 949,-194.5 949,-175.5 889,-175.5"/>
<text text-anchor="middle" x="919" y="-182.5" font-family="Helvetica,sans-Serif" font-size="10.00">METHOD</text>
</a>
</g>
</g>
<!-- Node30&#45;&gt;Node35 -->
<g id="edge34" class="edge"><title>Node30&#45;&gt;Node35</title>
<path fill="none" stroke="midnightblue" d="M829.44,-157.757C838.107,-160.456 847.393,-163.341 856,-166 866.756,-169.323 878.57,-172.949 888.973,-176.135"/>
<polygon fill="midnightblue" stroke="midnightblue" points="830.215,-154.333 819.627,-154.699 828.132,-161.016 830.215,-154.333"/>
</g>
<!-- Node36 -->
<g id="node36" class="node"><title>Node36</title>
<g id="a_node36"><a xlink:href="../../da/dd7/group__process.html#ga0f95da6e0876b84e024a26447785c21b" target="_top" xlink:title="process_start_shell">
<polygon fill="none" stroke="black" points="868.5,-137.5 868.5,-156.5 969.5,-156.5 969.5,-137.5 868.5,-137.5"/>
<text text-anchor="middle" x="919" y="-144.5" font-family="Helvetica,sans-Serif" font-size="10.00">process_start_shell</text>
</a>
</g>
</g>
<!-- Node30&#45;&gt;Node36 -->
<g id="edge35" class="edge"><title>Node30&#45;&gt;Node36</title>
<path fill="none" stroke="midnightblue" d="M829.636,-147C841.628,-147 855.315,-147 868.278,-147"/>
<polygon fill="midnightblue" stroke="midnightblue" points="829.595,-143.5 819.595,-147 829.595,-150.5 829.595,-143.5"/>
</g>
<!-- Node39 -->
<g id="node39" class="node"><title>Node39</title>
<g id="a_node39"><a xlink:href="../../d0/d68/group__psk__authenticator.html#ga78e056561fea31c0b9aae81c361eb496" target="_top" xlink:title="psk_authenticator_create\l_verifier">
<polygon fill="none" stroke="black" points="856,-88 856,-118 982,-118 982,-88 856,-88"/>
<text text-anchor="start" x="864" y="-106" font-family="Helvetica,sans-Serif" font-size="10.00">psk_authenticator_create</text>
<text text-anchor="middle" x="919" y="-95" font-family="Helvetica,sans-Serif" font-size="10.00">_verifier</text>
</a>
</g>
</g>
<!-- Node30&#45;&gt;Node39 -->
<g id="edge39" class="edge"><title>Node30&#45;&gt;Node39</title>
<path fill="none" stroke="midnightblue" d="M829.179,-134.774C843.685,-129.584 860.738,-123.484 876.002,-118.024"/>
<polygon fill="midnightblue" stroke="midnightblue" points="827.832,-131.538 819.595,-138.202 830.19,-138.129 827.832,-131.538"/>
</g>
<!-- Node40 -->
<g id="node40" class="node"><title>Node40</title>
<g id="a_node40"><a xlink:href="../../d5/d0a/group__pubkey__authenticator.html#gace7c5081ff28045566dd27c2528afc34" target="_top" xlink:title="pubkey_authenticator\l_create_verifier">
<polygon fill="none" stroke="black" points="864,-39 864,-69 974,-69 974,-39 864,-39"/>
<text text-anchor="start" x="872" y="-57" font-family="Helvetica,sans-Serif" font-size="10.00">pubkey_authenticator</text>
<text text-anchor="middle" x="919" y="-46" font-family="Helvetica,sans-Serif" font-size="10.00">_create_verifier</text>
</a>
</g>
</g>
<!-- Node30&#45;&gt;Node40 -->
<g id="edge40" class="edge"><title>Node30&#45;&gt;Node40</title>
<path fill="none" stroke="midnightblue" d="M807.115,-129.007C818.255,-113.647 836.035,-91.8976 856,-78 860.831,-74.637 866.198,-71.6614 871.696,-69.0524"/>
<polygon fill="midnightblue" stroke="midnightblue" points="804.241,-127.009 801.357,-137.204 809.969,-131.033 804.241,-127.009"/>
</g>
<!-- Node41 -->
<g id="node41" class="node"><title>Node41</title>
<g id="a_node41"><a xlink:href="../../de/dc5/test__process_8c.html#a675a6c77ad86f0e9978ec46574225abb" target="_top" xlink:title="START_TEST">
<polygon fill="none" stroke="black" points="879,-0.5 879,-19.5 959,-19.5 959,-0.5 879,-0.5"/>
<text text-anchor="middle" x="919" y="-7.5" font-family="Helvetica,sans-Serif" font-size="10.00">START_TEST</text>
</a>
</g>
</g>
<!-- Node30&#45;&gt;Node41 -->
<g id="edge41" class="edge"><title>Node30&#45;&gt;Node41</title>
<path fill="none" stroke="midnightblue" d="M799.921,-127.586C807.547,-101.421 824.707,-55.1193 856,-29 862.569,-23.5174 870.702,-19.6155 878.891,-16.839"/>
<polygon fill="midnightblue" stroke="midnightblue" points="796.486,-126.879 797.224,-137.448 803.238,-128.726 796.486,-126.879"/>
</g>
<!-- Node32 -->
<g id="node32" class="node"><title>Node32</title>
<g id="a_node32"><a xlink:href="../../dc/dfb/smp_8c.html#afa1f6575884a10b4be97cccf1c5dc5d2" target="_top" xlink:title="smp_plugin_create">
<polygon fill="none" stroke="black" points="1018,-251.5 1018,-270.5 1116,-270.5 1116,-251.5 1018,-251.5"/>
<text text-anchor="middle" x="1067" y="-258.5" font-family="Helvetica,sans-Serif" font-size="10.00">smp_plugin_create</text>
</a>
</g>
</g>
<!-- Node31&#45;&gt;Node32 -->
<g id="edge31" class="edge"><title>Node31&#45;&gt;Node32</title>
<path fill="none" stroke="midnightblue" d="M955.904,-261C974.553,-261 997.6,-261 1017.78,-261"/>
<polygon fill="midnightblue" stroke="midnightblue" points="955.766,-257.5 945.766,-261 955.766,-264.5 955.766,-257.5"/>
</g>
<!-- Node34 -->
<g id="node34" class="node"><title>Node34</title>
<g id="a_node34"><a xlink:href="../../d6/db0/updown__listener_8c.html#a3c70783c1b7de8b1452baeca00810103" target="_top" xlink:title="METHOD">
<polygon fill="none" stroke="black" points="1152,-194.5 1152,-213.5 1212,-213.5 1212,-194.5 1152,-194.5"/>
<text text-anchor="middle" x="1182" y="-201.5" font-family="Helvetica,sans-Serif" font-size="10.00">METHOD</text>
</a>
</g>
</g>
<!-- Node33&#45;&gt;Node34 -->
<g id="edge33" class="edge"><title>Node33&#45;&gt;Node34</title>
<path fill="none" stroke="midnightblue" d="M1112.76,-204C1125.83,-204 1139.79,-204 1151.65,-204"/>
<polygon fill="midnightblue" stroke="midnightblue" points="1112.52,-200.5 1102.52,-204 1112.52,-207.5 1112.52,-200.5"/>
</g>
<!-- Node36&#45;&gt;Node33 -->
<g id="edge38" class="edge"><title>Node36&#45;&gt;Node33</title>
<path fill="none" stroke="midnightblue" d="M963.671,-159.615C969.867,-161.627 976.125,-163.781 982,-166 1004.61,-174.539 1029.77,-186.225 1046.61,-194.376"/>
<polygon fill="midnightblue" stroke="midnightblue" points="964.64,-156.251 954.051,-156.582 962.535,-162.927 964.64,-156.251"/>
</g>
<!-- Node37 -->
<g id="node37" class="node"><title>Node37</title>
<g id="a_node37"><a xlink:href="../../d2/d08/ext__auth__listener_8c.html#aca7155ff0c91f6b6cc0a4414c922119a" target="_top" xlink:title="METHOD">
<polygon fill="none" stroke="black" points="1037,-146.5 1037,-165.5 1097,-165.5 1097,-146.5 1037,-146.5"/>
<text text-anchor="middle" x="1067" y="-153.5" font-family="Helvetica,sans-Serif" font-size="10.00">METHOD</text>
</a>
</g>
</g>
<!-- Node36&#45;&gt;Node37 -->
<g id="edge36" class="edge"><title>Node36&#45;&gt;Node37</title>
<path fill="none" stroke="midnightblue" d="M979.95,-150.696C999.577,-151.905 1020.5,-153.195 1036.81,-154.2"/>
<polygon fill="midnightblue" stroke="midnightblue" points="980.033,-147.194 969.837,-150.072 979.602,-154.181 980.033,-147.194"/>
</g>
<!-- Node38 -->
<g id="node38" class="node"><title>Node38</title>
<g id="a_node38"><a xlink:href="../../de/dc5/test__process_8c.html#ad9979facb94192ab26204af2e3ca94d6" target="_top" xlink:title="START_TEST">
<polygon fill="none" stroke="black" points="1027,-108.5 1027,-127.5 1107,-127.5 1107,-108.5 1027,-108.5"/>
<text text-anchor="middle" x="1067" y="-115.5" font-family="Helvetica,sans-Serif" font-size="10.00">START_TEST</text>
</a>
</g>
</g>
<!-- Node36&#45;&gt;Node38 -->
<g id="edge37" class="edge"><title>Node36&#45;&gt;Node38</title>
<path fill="none" stroke="midnightblue" d="M978.169,-135.446C994.423,-132.217 1011.7,-128.785 1026.6,-125.827"/>
<polygon fill="midnightblue" stroke="midnightblue" points="977.337,-132.043 968.21,-137.424 978.701,-138.909 977.337,-132.043"/>
</g>
</g>
</svg>
        <g id="navigator" transform="translate(0 0)" fill="#404254">
                <rect fill="#f2f5e9" fill-opacity="0.5" stroke="#606060" stroke-width=".5" x="0" y="0" width="60" height="60"/>
                <use id="zoomplus" xlink:href="#zoomPlus" x="17" y="9" onmousedown="handleZoom(evt,'in')"/>
                <use id="zoomminus" xlink:href="#zoomMin" x="42" y="9" onmousedown="handleZoom(evt,'out')"/>
                <use id="reset" xlink:href="#resetDef" x="30" y="36" onmousedown="handleReset()"/>
                <g id="arrowUp" xlink:href="#dirArrow" transform="translate(30 24)" onmousedown="handlePan(0,-1)">
                  <use xlink:href="#rim" fill="#404040">
                        <set attributeName="fill" to="#808080" begin="arrowUp.mouseover" end="arrowUp.mouseout"/>
                  </use>
                  <path fill="none" stroke="white" stroke-width="1.5" d="M0,-3.0v7 M-2.5,-0.5L0,-3.0L2.5,-0.5"/>
                </g>
                <g id="arrowRight" xlink:href="#dirArrow" transform="rotate(90) translate(36 -43)" onmousedown="handlePan(1,0)">
                  <use xlink:href="#rim" fill="#404040">
                        <set attributeName="fill" to="#808080" begin="arrowRight.mouseover" end="arrowRight.mouseout"/>
                  </use>
                  <path fill="none" stroke="white" stroke-width="1.5" d="M0,-3.0v7 M-2.5,-0.5L0,-3.0L2.5,-0.5"/>
                </g>
                <g id="arrowDown" xlink:href="#dirArrow" transform="rotate(180) translate(-30 -48)" onmousedown="handlePan(0,1)">
                  <use xlink:href="#rim" fill="#404040">
                        <set attributeName="fill" to="#808080" begin="arrowDown.mouseover" end="arrowDown.mouseout"/>
                  </use>
                  <path fill="none" stroke="white" stroke-width="1.5" d="M0,-3.0v7 M-2.5,-0.5L0,-3.0L2.5,-0.5"/>
                </g>
                <g id="arrowLeft" xlink:href="#dirArrow" transform="rotate(270) translate(-36 17)" onmousedown="handlePan(-1,0)">
                  <use xlink:href="#rim" fill="#404040">
                        <set attributeName="fill" to="#808080" begin="arrowLeft.mouseover" end="arrowLeft.mouseout"/>
                  </use>
                  <path fill="none" stroke="white" stroke-width="1.5" d="M0,-3.0v7 M-2.5,-0.5L0,-3.0L2.5,-0.5"/>
                </g>
        </g>
        <svg viewBox="0 0 15 15" width="100%" height="30px" preserveAspectRatio="xMaxYMin meet">
         <g id="arrow_out" transform="scale(0.3 0.3)">
          <a xlink:href="group__linked__list_ga0908cf2701fe28985cd8042f5224c9a0_icgraph_org.svg" target="_base">
           <rect id="button" ry="5" rx="5" y="6" x="6" height="38" width="38"
                fill="#f2f5e9" fill-opacity="0.5" stroke="#606060" stroke-width="1.0"/>
           <path id="arrow"
             d="M 11.500037,31.436501 C 11.940474,20.09759 22.043105,11.32322 32.158766,21.979434 L 37.068811,17.246167 C 37.068811,17.246167 37.088388,32 37.088388,32 L 22.160133,31.978069 C 22.160133,31.978069 26.997745,27.140456 26.997745,27.140456 C 18.528582,18.264221 13.291696,25.230495 11.500037,31.436501 z"
             style="fill:#404040;"/>
          </a>
         </g>
        </svg>
</svg>
