<?xml version="1.0" encoding="UTF-8" standalone="no"?>
<!DOCTYPE svg PUBLIC "-//W3C//DTD SVG 1.1//EN"
 "http://www.w3.org/Graphics/SVG/1.1/DTD/svg11.dtd">
<!-- Generated by graphviz version 2.36.0 (20140111.2315)
 -->
<!-- Title: session_hash Pages: 1 -->
<svg width="312pt" height="28pt"
 viewBox="0.00 0.00 312.00 28.00" xmlns="http://www.w3.org/2000/svg" xmlns:xlink="http://www.w3.org/1999/xlink">
<g id="graph0" class="graph" transform="scale(1 1) rotate(0) translate(4 24)">
<title>session_hash</title>
<!-- Node1 -->
<g id="node1" class="node"><title>Node1</title>
<polygon fill="#bfbfbf" stroke="black" points="0.5,-0.5 0.5,-19.5 77.5,-19.5 77.5,-0.5 0.5,-0.5"/>
<text text-anchor="middle" x="39" y="-7.5" font-family="Helvetica,sans-Serif" font-size="10.00">session_hash</text>
</g>
<!-- Node2 -->
<g id="node2" class="node"><title>Node2</title>
<g id="a_node2"><a xlink:href="../../d2/d2c/group__fast__dispatcher.html#gabdf05036f78c7ace26173ac33e797126" target="_top" xlink:title="fast_dispatcher_create">
<polygon fill="none" stroke="black" points="114,-0.5 114,-19.5 230,-19.5 230,-0.5 114,-0.5"/>
<text text-anchor="middle" x="172" y="-7.5" font-family="Helvetica,sans-Serif" font-size="10.00">fast_dispatcher_create</text>
</a>
</g>
</g>
<!-- Node1&#45;&gt;Node2 -->
<g id="edge1" class="edge"><title>Node1&#45;&gt;Node2</title>
<path fill="none" stroke="midnightblue" d="M87.6761,-10C96.1989,-10 105.157,-10 113.912,-10"/>
<polygon fill="midnightblue" stroke="midnightblue" points="87.5394,-6.5001 77.5393,-10 87.5393,-13.5001 87.5394,-6.5001"/>
</g>
<!-- Node3 -->
<g id="node3" class="node"><title>Node3</title>
<g id="a_node3"><a xlink:href="../../db/d06/manager_2main_8c.html#accdee5855b5aa8b3fa2be41ccf9be430" target="_top" xlink:title="main">
<polygon fill="none" stroke="black" points="266,-0.5 266,-19.5 304,-19.5 304,-0.5 266,-0.5"/>
<text text-anchor="middle" x="285" y="-7.5" font-family="Helvetica,sans-Serif" font-size="10.00">main</text>
</a>
</g>
</g>
<!-- Node2&#45;&gt;Node3 -->
<g id="edge2" class="edge"><title>Node2&#45;&gt;Node3</title>
<path fill="none" stroke="midnightblue" d="M240.376,-10C249.702,-10 258.558,-10 265.824,-10"/>
<polygon fill="midnightblue" stroke="midnightblue" points="240.126,-6.5001 230.126,-10 240.126,-13.5001 240.126,-6.5001"/>
</g>
</g>
</svg>
