<?xml version="1.0" encoding="UTF-8" standalone="no"?>
<!DOCTYPE svg PUBLIC "-//W3C//DTD SVG 1.1//EN"
 "http://www.w3.org/Graphics/SVG/1.1/DTD/svg11.dtd">
<!-- Generated by graphviz version 2.36.0 (20140111.2315)
 -->
<!-- Title: build_binary_checksum Pages: 1 -->
<!--zoomable 152 -->
<svg id="main" version="1.1" xmlns="http://www.w3.org/2000/svg" xmlns:xlink="http://www.w3.org/1999/xlink" xml:space="preserve" onload="init(evt)">
<style type="text/css"><![CDATA[
.edge:hover path { stroke: red; }
.edge:hover polygon { stroke: red; fill: red; }
]]></style>
<script type="text/javascript"><![CDATA[
var edges = document.getElementsByTagName('g');
if (edges && edges.length) {
  for (var i=0;i<edges.length;i++) {
    if (edges[i].id.substr(0,4)=='edge') {
      edges[i].setAttribute('class','edge');
    }
  }
}
]]></script>
        <defs>
                <circle id="rim" cx="0" cy="0" r="7"/>
                <circle id="rim2" cx="0" cy="0" r="3.5"/>
                <g id="zoomPlus">
                        <use xlink:href="#rim" fill="#404040">
                                <set attributeName="fill" to="#808080" begin="zoomplus.mouseover" end="zoomplus.mouseout"/>
                        </use>
                        <path d="M-4,0h8M0,-4v8" fill="none" stroke="white" stroke-width="1.5" pointer-events="none"/>
                </g>
                <g id="zoomMin">
                        <use xlink:href="#rim" fill="#404040">
                                <set attributeName="fill" to="#808080" begin="zoomminus.mouseover" end="zoomminus.mouseout"/>
                        </use>
                        <path d="M-4,0h8" fill="none" stroke="white" stroke-width="1.5" pointer-events="none"/>
                </g>
                <g id="dirArrow">
                        <path fill="none" stroke="white" stroke-width="1.5" d="M0,-3.0v7 M-2.5,-0.5L0,-3.0L2.5,-0.5"/>
                </g>
               <g id="resetDef">
                       <use xlink:href="#rim2" fill="#404040">
                               <set attributeName="fill" to="#808080" begin="reset.mouseover" end="reset.mouseout"/>
                       </use>
               </g>
        </defs>

<script type="text/javascript">
var viewWidth = 524;
var viewHeight = 152;
var sectionId = 'dynsection-1';
</script>
<script xlink:href="../../svgpan.js"/>
<svg id="graph" class="graph">
<g id="viewport">
<title>build_binary_checksum</title>
<!-- Node1 -->
<g id="node1" class="node"><title>Node1</title>
<polygon fill="#bfbfbf" stroke="black" points="0.5,-10.5 0.5,-29.5 119.5,-29.5 119.5,-10.5 0.5,-10.5"/>
<text text-anchor="middle" x="60" y="-17.5" font-family="Helvetica,sans-Serif" font-size="10.00">build_binary_checksum</text>
</g>
<!-- Node2 -->
<g id="node2" class="node"><title>Node2</title>
<g id="a_node2"><a xlink:href="../../d6/dc2/checksum__builder_8c.html#aef83eb326801b61ff246ffecf61e42eb" target="_top" xlink:title="build_checksum">
<polygon fill="none" stroke="black" points="156.5,-48.5 156.5,-67.5 243.5,-67.5 243.5,-48.5 156.5,-48.5"/>
<text text-anchor="middle" x="200" y="-55.5" font-family="Helvetica,sans-Serif" font-size="10.00">build_checksum</text>
</a>
</g>
</g>
<!-- Node1&#45;&gt;Node2 -->
<g id="edge1" class="edge"><title>Node1&#45;&gt;Node2</title>
<path fill="none" stroke="midnightblue" d="M95.8232,-29.589C113.638,-34.4944 135.518,-40.5196 154.539,-45.7571"/>
<polygon fill="midnightblue" stroke="midnightblue" points="153.618,-49.1336 164.188,-48.4141 155.476,-42.3848 153.618,-49.1336"/>
</g>
<!-- Node7 -->
<g id="node7" class="node"><title>Node7</title>
<g id="a_node7"><a xlink:href="../../d4/d40/group__string__i.html#ga65c3d08890165aaa4663c72d07f93bb7" target="_top" xlink:title="streq">
<polygon fill="none" stroke="black" points="478,-0.5 478,-19.5 516,-19.5 516,-0.5 478,-0.5"/>
<text text-anchor="middle" x="497" y="-7.5" font-family="Helvetica,sans-Serif" font-size="10.00">streq</text>
</a>
</g>
</g>
<!-- Node1&#45;&gt;Node7 -->
<g id="edge9" class="edge"><title>Node1&#45;&gt;Node7</title>
<path fill="none" stroke="midnightblue" d="M119.524,-12.5317C173.57,-6.42072 256.111,0.924211 328,-1 377.055,-2.31303 434.081,-5.77897 467.487,-8.00646"/>
<polygon fill="midnightblue" stroke="midnightblue" points="467.651,-11.5255 477.865,-8.70949 468.124,-4.54152 467.651,-11.5255"/>
</g>
<!-- Node3 -->
<g id="node3" class="node"><title>Node3</title>
<g id="a_node3"><a xlink:href="../../da/d9b/group__windows.html#gacbb8e127010855b8a74c69caa5e3a9ae" target="_top" xlink:title="dlopen">
<polygon fill="none" stroke="black" points="281.5,-124.5 281.5,-143.5 326.5,-143.5 326.5,-124.5 281.5,-124.5"/>
<text text-anchor="middle" x="304" y="-131.5" font-family="Helvetica,sans-Serif" font-size="10.00">dlopen</text>
</a>
</g>
</g>
<!-- Node2&#45;&gt;Node3 -->
<g id="edge2" class="edge"><title>Node2&#45;&gt;Node3</title>
<path fill="none" stroke="midnightblue" d="M213.918,-67.6255C231.086,-80.417 261.629,-103.175 282.099,-118.427"/>
<polygon fill="midnightblue" stroke="midnightblue" points="280.076,-121.284 290.187,-124.453 284.259,-115.671 280.076,-121.284"/>
</g>
<!-- Node4 -->
<g id="node4" class="node"><title>Node4</title>
<g id="a_node4"><a xlink:href="../../da/d9b/group__windows.html#ga84cb8784df910bfcc3002dc5e9e2f406" target="_top" xlink:title="dlsym">
<polygon fill="none" stroke="black" points="282.5,-86.5 282.5,-105.5 325.5,-105.5 325.5,-86.5 282.5,-86.5"/>
<text text-anchor="middle" x="304" y="-93.5" font-family="Helvetica,sans-Serif" font-size="10.00">dlsym</text>
</a>
</g>
</g>
<!-- Node2&#45;&gt;Node4 -->
<g id="edge3" class="edge"><title>Node2&#45;&gt;Node4</title>
<path fill="none" stroke="midnightblue" d="M226.739,-67.589C240.741,-72.8053 258.141,-79.2878 272.784,-84.743"/>
<polygon fill="midnightblue" stroke="midnightblue" points="271.812,-88.1159 282.405,-88.3273 274.256,-81.5563 271.812,-88.1159"/>
</g>
<!-- Node8 -->
<g id="node8" class="node"><title>Node8</title>
<g id="a_node8"><a xlink:href="../../da/d9b/group__windows.html#ga541c343ae5cdf90926014c65972c86cc" target="_top" xlink:title="dlerror">
<polygon fill="none" stroke="black" points="282,-48.5 282,-67.5 326,-67.5 326,-48.5 282,-48.5"/>
<text text-anchor="middle" x="304" y="-55.5" font-family="Helvetica,sans-Serif" font-size="10.00">dlerror</text>
</a>
</g>
</g>
<!-- Node2&#45;&gt;Node8 -->
<g id="edge7" class="edge"><title>Node2&#45;&gt;Node8</title>
<path fill="none" stroke="midnightblue" d="M243.666,-58C253.058,-58 262.838,-58 271.685,-58"/>
<polygon fill="midnightblue" stroke="midnightblue" points="271.924,-61.5001 281.924,-58 271.924,-54.5001 271.924,-61.5001"/>
</g>
<!-- Node9 -->
<g id="node9" class="node"><title>Node9</title>
<g id="a_node9"><a xlink:href="../../da/d9b/group__windows.html#gaf483b6c4400965aa885f9f1a144138a5" target="_top" xlink:title="dlclose">
<polygon fill="none" stroke="black" points="280.5,-10.5 280.5,-29.5 327.5,-29.5 327.5,-10.5 280.5,-10.5"/>
<text text-anchor="middle" x="304" y="-17.5" font-family="Helvetica,sans-Serif" font-size="10.00">dlclose</text>
</a>
</g>
</g>
<!-- Node2&#45;&gt;Node9 -->
<g id="edge8" class="edge"><title>Node2&#45;&gt;Node9</title>
<path fill="none" stroke="midnightblue" d="M226.739,-48.411C240.165,-43.409 256.717,-37.2429 270.965,-31.9346"/>
<polygon fill="midnightblue" stroke="midnightblue" points="272.246,-35.1926 280.395,-28.4216 269.802,-28.633 272.246,-35.1926"/>
</g>
<!-- Node5 -->
<g id="node5" class="node"><title>Node5</title>
<g id="a_node5"><a xlink:href="../../d1/d3f/windows_8c.html#a4ff3d00dcb8a7bb53cf65f484debcb4b" target="_top" xlink:title="dlsym_default">
<polygon fill="none" stroke="black" points="364.5,-86.5 364.5,-105.5 441.5,-105.5 441.5,-86.5 364.5,-86.5"/>
<text text-anchor="middle" x="403" y="-93.5" font-family="Helvetica,sans-Serif" font-size="10.00">dlsym_default</text>
</a>
</g>
</g>
<!-- Node4&#45;&gt;Node5 -->
<g id="edge4" class="edge"><title>Node4&#45;&gt;Node5</title>
<path fill="none" stroke="midnightblue" d="M325.571,-96C333.996,-96 344.127,-96 354.217,-96"/>
<polygon fill="midnightblue" stroke="midnightblue" points="354.228,-99.5001 364.228,-96 354.228,-92.5001 354.228,-99.5001"/>
</g>
<!-- Node6 -->
<g id="node6" class="node"><title>Node6</title>
<g id="a_node6"><a xlink:href="../../d1/d3f/windows_8c.html#aa71d37bf39d6bbc3bd94a496e3ba6f30" target="_top" xlink:title="dlsym_next">
<polygon fill="none" stroke="black" points="369.5,-29.5 369.5,-48.5 436.5,-48.5 436.5,-29.5 369.5,-29.5"/>
<text text-anchor="middle" x="403" y="-36.5" font-family="Helvetica,sans-Serif" font-size="10.00">dlsym_next</text>
</a>
</g>
</g>
<!-- Node4&#45;&gt;Node6 -->
<g id="edge5" class="edge"><title>Node4&#45;&gt;Node6</title>
<path fill="none" stroke="midnightblue" d="M321.455,-86.3307C336.596,-77.4333 359.279,-64.1038 376.72,-53.8554"/>
<polygon fill="midnightblue" stroke="midnightblue" points="378.94,-56.6104 385.788,-48.5265 375.393,-50.5753 378.94,-56.6104"/>
</g>
<!-- Node6&#45;&gt;Node7 -->
<g id="edge6" class="edge"><title>Node6&#45;&gt;Node7</title>
<path fill="none" stroke="midnightblue" d="M434.379,-29.4239C445.247,-25.9983 457.435,-22.1565 468.084,-18.7995"/>
<polygon fill="midnightblue" stroke="midnightblue" points="469.245,-22.1035 477.73,-15.759 467.14,-15.4273 469.245,-22.1035"/>
</g>
</g>
</svg>
        <g id="navigator" transform="translate(0 0)" fill="#404254">
                <rect fill="#f2f5e9" fill-opacity="0.5" stroke="#606060" stroke-width=".5" x="0" y="0" width="60" height="60"/>
                <use id="zoomplus" xlink:href="#zoomPlus" x="17" y="9" onmousedown="handleZoom(evt,'in')"/>
                <use id="zoomminus" xlink:href="#zoomMin" x="42" y="9" onmousedown="handleZoom(evt,'out')"/>
                <use id="reset" xlink:href="#resetDef" x="30" y="36" onmousedown="handleReset()"/>
                <g id="arrowUp" xlink:href="#dirArrow" transform="translate(30 24)" onmousedown="handlePan(0,-1)">
                  <use xlink:href="#rim" fill="#404040">
                        <set attributeName="fill" to="#808080" begin="arrowUp.mouseover" end="arrowUp.mouseout"/>
                  </use>
                  <path fill="none" stroke="white" stroke-width="1.5" d="M0,-3.0v7 M-2.5,-0.5L0,-3.0L2.5,-0.5"/>
                </g>
                <g id="arrowRight" xlink:href="#dirArrow" transform="rotate(90) translate(36 -43)" onmousedown="handlePan(1,0)">
                  <use xlink:href="#rim" fill="#404040">
                        <set attributeName="fill" to="#808080" begin="arrowRight.mouseover" end="arrowRight.mouseout"/>
                  </use>
                  <path fill="none" stroke="white" stroke-width="1.5" d="M0,-3.0v7 M-2.5,-0.5L0,-3.0L2.5,-0.5"/>
                </g>
                <g id="arrowDown" xlink:href="#dirArrow" transform="rotate(180) translate(-30 -48)" onmousedown="handlePan(0,1)">
                  <use xlink:href="#rim" fill="#404040">
                        <set attributeName="fill" to="#808080" begin="arrowDown.mouseover" end="arrowDown.mouseout"/>
                  </use>
                  <path fill="none" stroke="white" stroke-width="1.5" d="M0,-3.0v7 M-2.5,-0.5L0,-3.0L2.5,-0.5"/>
                </g>
                <g id="arrowLeft" xlink:href="#dirArrow" transform="rotate(270) translate(-36 17)" onmousedown="handlePan(-1,0)">
                  <use xlink:href="#rim" fill="#404040">
                        <set attributeName="fill" to="#808080" begin="arrowLeft.mouseover" end="arrowLeft.mouseout"/>
                  </use>
                  <path fill="none" stroke="white" stroke-width="1.5" d="M0,-3.0v7 M-2.5,-0.5L0,-3.0L2.5,-0.5"/>
                </g>
        </g>
        <svg viewBox="0 0 15 15" width="100%" height="30px" preserveAspectRatio="xMaxYMin meet">
         <g id="arrow_out" transform="scale(0.3 0.3)">
          <a xlink:href="checksum__builder_8c_aeb29123894b7e041dfdb51a06c4a182a_cgraph_org.svg" target="_base">
           <rect id="button" ry="5" rx="5" y="6" x="6" height="38" width="38"
                fill="#f2f5e9" fill-opacity="0.5" stroke="#606060" stroke-width="1.0"/>
           <path id="arrow"
             d="M 11.500037,31.436501 C 11.940474,20.09759 22.043105,11.32322 32.158766,21.979434 L 37.068811,17.246167 C 37.068811,17.246167 37.088388,32 37.088388,32 L 22.160133,31.978069 C 22.160133,31.978069 26.997745,27.140456 26.997745,27.140456 C 18.528582,18.264221 13.291696,25.230495 11.500037,31.436501 z"
             style="fill:#404040;"/>
          </a>
         </g>
        </svg>
</svg>
