<?xml version="1.0" encoding="UTF-8" standalone="no"?>
<!DOCTYPE svg PUBLIC "-//W3C//DTD SVG 1.1//EN"
 "http://www.w3.org/Graphics/SVG/1.1/DTD/svg11.dtd">
<!-- Generated by graphviz version 2.36.0 (20140111.2315)
 -->
<!-- Title: list Pages: 1 -->
<svg width="444pt" height="28pt"
 viewBox="0.00 0.00 444.00 28.00" xmlns="http://www.w3.org/2000/svg" xmlns:xlink="http://www.w3.org/1999/xlink">
<g id="graph0" class="graph" transform="scale(1 1) rotate(0) translate(4 24)">
<title>list</title>
<!-- Node1 -->
<g id="node1" class="node"><title>Node1</title>
<polygon fill="#bfbfbf" stroke="black" points="0.5,-0.5 0.5,-19.5 29.5,-19.5 29.5,-0.5 0.5,-0.5"/>
<text text-anchor="middle" x="15" y="-7.5" font-family="Helvetica,sans-Serif" font-size="10.00">list</text>
</g>
<!-- Node2 -->
<g id="node2" class="node"><title>Node2</title>
<g id="a_node2"><a xlink:href="../../d2/d72/whitelist__control_8c.html#a8a5eb970b277372149ab67f31b75bb13" target="_top" xlink:title="on_accept">
<polygon fill="none" stroke="black" points="66,-0.5 66,-19.5 128,-19.5 128,-0.5 66,-0.5"/>
<text text-anchor="middle" x="97" y="-7.5" font-family="Helvetica,sans-Serif" font-size="10.00">on_accept</text>
</a>
</g>
</g>
<!-- Node1&#45;&gt;Node2 -->
<g id="edge1" class="edge"><title>Node1&#45;&gt;Node2</title>
<path fill="none" stroke="midnightblue" d="M39.8333,-10C47.9634,-10 57.1649,-10 65.7323,-10"/>
<polygon fill="midnightblue" stroke="midnightblue" points="39.5709,-6.5001 29.5709,-10 39.5709,-13.5001 39.5709,-6.5001"/>
</g>
<!-- Node3 -->
<g id="node3" class="node"><title>Node3</title>
<g id="a_node3"><a xlink:href="../../d2/d83/group__whitelist__control.html#gac37a86b9a02691568f8c5436748e18c2" target="_top" xlink:title="whitelist_control_create">
<polygon fill="none" stroke="black" points="164.5,-0.5 164.5,-19.5 283.5,-19.5 283.5,-0.5 164.5,-0.5"/>
<text text-anchor="middle" x="224" y="-7.5" font-family="Helvetica,sans-Serif" font-size="10.00">whitelist_control_create</text>
</a>
</g>
</g>
<!-- Node2&#45;&gt;Node3 -->
<g id="edge2" class="edge"><title>Node2&#45;&gt;Node3</title>
<path fill="none" stroke="midnightblue" d="M138.331,-10C146.573,-10 155.406,-10 164.143,-10"/>
<polygon fill="midnightblue" stroke="midnightblue" points="138.259,-6.5001 128.259,-10 138.259,-13.5001 138.259,-6.5001"/>
</g>
<!-- Node4 -->
<g id="node4" class="node"><title>Node4</title>
<g id="a_node4"><a xlink:href="../../d1/d17/whitelist__plugin_8c.html#a71c1b141ba9caee7d9fdee703bdd3baf" target="_top" xlink:title="whitelist_plugin_create">
<polygon fill="none" stroke="black" points="320,-0.5 320,-19.5 436,-19.5 436,-0.5 320,-0.5"/>
<text text-anchor="middle" x="378" y="-7.5" font-family="Helvetica,sans-Serif" font-size="10.00">whitelist_plugin_create</text>
</a>
</g>
</g>
<!-- Node3&#45;&gt;Node4 -->
<g id="edge3" class="edge"><title>Node3&#45;&gt;Node4</title>
<path fill="none" stroke="midnightblue" d="M293.889,-10C302.584,-10 311.404,-10 319.889,-10"/>
<polygon fill="midnightblue" stroke="midnightblue" points="293.767,-6.5001 283.767,-10 293.767,-13.5001 293.767,-6.5001"/>
</g>
</g>
</svg>
