<?xml version="1.0" encoding="UTF-8" standalone="no"?>
<!DOCTYPE svg PUBLIC "-//W3C//DTD SVG 1.1//EN"
 "http://www.w3.org/Graphics/SVG/1.1/DTD/svg11.dtd">
<!-- Generated by graphviz version 2.36.0 (20140111.2315)
 -->
<!-- Title: add_file_logger Pages: 1 -->
<svg width="468pt" height="142pt"
 viewBox="0.00 0.00 468.00 142.00" xmlns="http://www.w3.org/2000/svg" xmlns:xlink="http://www.w3.org/1999/xlink">
<g id="graph0" class="graph" transform="scale(1 1) rotate(0) translate(4 138)">
<title>add_file_logger</title>
<!-- Node1 -->
<g id="node1" class="node"><title>Node1</title>
<polygon fill="#bfbfbf" stroke="black" points="0,-57.5 0,-76.5 82,-76.5 82,-57.5 0,-57.5"/>
<text text-anchor="middle" x="41" y="-64.5" font-family="Helvetica,sans-Serif" font-size="10.00">add_file_logger</text>
</g>
<!-- Node2 -->
<g id="node2" class="node"><title>Node2</title>
<g id="a_node2"><a xlink:href="../../dc/d21/daemon_8c.html#a32b8f5aa146bd7eebdf41d4fbdb16f43" target="_top" xlink:title="get_logger_entry">
<polygon fill="none" stroke="black" points="118.5,-57.5 118.5,-76.5 207.5,-76.5 207.5,-57.5 118.5,-57.5"/>
<text text-anchor="middle" x="163" y="-64.5" font-family="Helvetica,sans-Serif" font-size="10.00">get_logger_entry</text>
</a>
</g>
</g>
<!-- Node1&#45;&gt;Node2 -->
<g id="edge1" class="edge"><title>Node1&#45;&gt;Node2</title>
<path fill="none" stroke="midnightblue" d="M82.2921,-67C90.6116,-67 99.4999,-67 108.212,-67"/>
<polygon fill="midnightblue" stroke="midnightblue" points="108.313,-70.5001 118.313,-67 108.313,-63.5001 108.313,-70.5001"/>
</g>
<!-- Node3 -->
<g id="node3" class="node"><title>Node3</title>
<g id="a_node3"><a xlink:href="../../dc/d21/daemon_8c.html#a1859a60dd99be35be14aebd33f5aff66" target="_top" xlink:title="logger_entry_match">
<polygon fill="none" stroke="black" points="244,-114.5 244,-133.5 346,-133.5 346,-114.5 244,-114.5"/>
<text text-anchor="middle" x="295" y="-121.5" font-family="Helvetica,sans-Serif" font-size="10.00">logger_entry_match</text>
</a>
</g>
</g>
<!-- Node2&#45;&gt;Node3 -->
<g id="edge2" class="edge"><title>Node2&#45;&gt;Node3</title>
<path fill="none" stroke="midnightblue" d="M183.201,-76.6539C199.284,-84.611 222.928,-96.0087 244,-105 248.513,-106.926 253.294,-108.866 258.039,-110.733"/>
<polygon fill="midnightblue" stroke="midnightblue" points="257.043,-114.1 267.632,-114.433 259.562,-107.569 257.043,-114.1"/>
</g>
<!-- Node5 -->
<g id="node5" class="node"><title>Node5</title>
<g id="a_node5"><a xlink:href="../../d4/d9c/group__file__logger.html#gae11e358236c2d283c46258432f644374" target="_top" xlink:title="file_logger_create">
<polygon fill="none" stroke="black" points="248.5,-38.5 248.5,-57.5 341.5,-57.5 341.5,-38.5 248.5,-38.5"/>
<text text-anchor="middle" x="295" y="-45.5" font-family="Helvetica,sans-Serif" font-size="10.00">file_logger_create</text>
</a>
</g>
</g>
<!-- Node2&#45;&gt;Node5 -->
<g id="edge4" class="edge"><title>Node2&#45;&gt;Node5</title>
<path fill="none" stroke="midnightblue" d="M207.65,-60.6204C217.497,-59.1812 228.08,-57.6345 238.345,-56.1342"/>
<polygon fill="midnightblue" stroke="midnightblue" points="239.077,-59.5645 248.465,-54.6551 238.064,-52.6381 239.077,-59.5645"/>
</g>
<!-- Node8 -->
<g id="node8" class="node"><title>Node8</title>
<g id="a_node8"><a xlink:href="../../d8/d58/group__sys__logger.html#ga8ed10096f9099223387dee3dd9d70f7f" target="_top" xlink:title="sys_logger_create">
<polygon fill="none" stroke="black" points="247,-0.5 247,-19.5 343,-19.5 343,-0.5 247,-0.5"/>
<text text-anchor="middle" x="295" y="-7.5" font-family="Helvetica,sans-Serif" font-size="10.00">sys_logger_create</text>
</a>
</g>
</g>
<!-- Node2&#45;&gt;Node8 -->
<g id="edge7" class="edge"><title>Node2&#45;&gt;Node8</title>
<path fill="none" stroke="midnightblue" d="M183.201,-57.3461C199.284,-49.389 222.928,-37.9913 244,-29 248.513,-27.0742 253.294,-25.1338 258.039,-23.267"/>
<polygon fill="midnightblue" stroke="midnightblue" points="259.562,-26.431 267.632,-19.5666 257.043,-19.9 259.562,-26.431"/>
</g>
<!-- Node9 -->
<g id="node9" class="node"><title>Node9</title>
<g id="a_node9"><a xlink:href="../../dc/d21/daemon_8c.html#ac9887f6d45f6501328923f3740ff4708" target="_top" xlink:title="get_syslog_facility">
<polygon fill="none" stroke="black" points="246,-76.5 246,-95.5 344,-95.5 344,-76.5 246,-76.5"/>
<text text-anchor="middle" x="295" y="-83.5" font-family="Helvetica,sans-Serif" font-size="10.00">get_syslog_facility</text>
</a>
</g>
</g>
<!-- Node2&#45;&gt;Node9 -->
<g id="edge10" class="edge"><title>Node2&#45;&gt;Node9</title>
<path fill="none" stroke="midnightblue" d="M207.65,-73.3796C216.642,-74.6938 226.247,-76.0977 235.664,-77.474"/>
<polygon fill="midnightblue" stroke="midnightblue" points="235.369,-80.968 245.77,-78.951 236.382,-74.0416 235.369,-80.968"/>
</g>
<!-- Node4 -->
<g id="node4" class="node"><title>Node4</title>
<g id="a_node4"><a xlink:href="../../d4/d40/group__string__i.html#ga65c3d08890165aaa4663c72d07f93bb7" target="_top" xlink:title="streq">
<polygon fill="none" stroke="black" points="402,-95.5 402,-114.5 440,-114.5 440,-95.5 402,-95.5"/>
<text text-anchor="middle" x="421" y="-102.5" font-family="Helvetica,sans-Serif" font-size="10.00">streq</text>
</a>
</g>
</g>
<!-- Node3&#45;&gt;Node4 -->
<g id="edge3" class="edge"><title>Node3&#45;&gt;Node4</title>
<path fill="none" stroke="midnightblue" d="M346.078,-116.327C361.671,-113.937 378.31,-111.388 391.845,-109.314"/>
<polygon fill="midnightblue" stroke="midnightblue" points="392.601,-112.739 401.956,-107.765 391.541,-105.82 392.601,-112.739"/>
</g>
<!-- Node6 -->
<g id="node6" class="node"><title>Node6</title>
<g id="a_node6"><a xlink:href="../../d0/d04/group__mutex.html#gacbf89470b1f7a4a0d621faeeb8b485c5" target="_top" xlink:title="mutex_create">
<polygon fill="none" stroke="black" points="383,-0.5 383,-19.5 459,-19.5 459,-0.5 383,-0.5"/>
<text text-anchor="middle" x="421" y="-7.5" font-family="Helvetica,sans-Serif" font-size="10.00">mutex_create</text>
</a>
</g>
</g>
<!-- Node5&#45;&gt;Node6 -->
<g id="edge5" class="edge"><title>Node5&#45;&gt;Node6</title>
<path fill="none" stroke="midnightblue" d="M327.29,-38.411C343.004,-33.5956 362.238,-27.7012 379.106,-22.532"/>
<polygon fill="midnightblue" stroke="midnightblue" points="380.184,-25.8624 388.72,-19.5859 378.133,-19.1696 380.184,-25.8624"/>
</g>
<!-- Node7 -->
<g id="node7" class="node"><title>Node7</title>
<g id="a_node7"><a xlink:href="../../db/ded/group__rwlock.html#ga3646a4244d6c3368a3fbb03354974838" target="_top" xlink:title="rwlock_create">
<polygon fill="none" stroke="black" points="382.5,-38.5 382.5,-57.5 459.5,-57.5 459.5,-38.5 382.5,-38.5"/>
<text text-anchor="middle" x="421" y="-45.5" font-family="Helvetica,sans-Serif" font-size="10.00">rwlock_create</text>
</a>
</g>
</g>
<!-- Node5&#45;&gt;Node7 -->
<g id="edge6" class="edge"><title>Node5&#45;&gt;Node7</title>
<path fill="none" stroke="midnightblue" d="M341.821,-48C351.754,-48 362.284,-48 372.288,-48"/>
<polygon fill="midnightblue" stroke="midnightblue" points="372.477,-51.5001 382.477,-48 372.476,-44.5001 372.477,-51.5001"/>
</g>
<!-- Node8&#45;&gt;Node6 -->
<g id="edge8" class="edge"><title>Node8&#45;&gt;Node6</title>
<path fill="none" stroke="midnightblue" d="M343.233,-10C352.883,-10 363.04,-10 372.693,-10"/>
<polygon fill="midnightblue" stroke="midnightblue" points="372.922,-13.5001 382.922,-10 372.922,-6.5001 372.922,-13.5001"/>
</g>
<!-- Node8&#45;&gt;Node7 -->
<g id="edge9" class="edge"><title>Node8&#45;&gt;Node7</title>
<path fill="none" stroke="midnightblue" d="M327.29,-19.589C343.004,-24.4044 362.238,-30.2988 379.106,-35.468"/>
<polygon fill="midnightblue" stroke="midnightblue" points="378.133,-38.8304 388.72,-38.4141 380.184,-32.1376 378.133,-38.8304"/>
</g>
<!-- Node9&#45;&gt;Node4 -->
<g id="edge11" class="edge"><title>Node9&#45;&gt;Node4</title>
<path fill="none" stroke="midnightblue" d="M344.297,-93.4003C360.337,-95.858 377.665,-98.5132 391.69,-100.662"/>
<polygon fill="midnightblue" stroke="midnightblue" points="391.28,-104.14 401.695,-102.195 392.341,-97.2209 391.28,-104.14"/>
</g>
</g>
</svg>
