<?xml version="1.0" encoding="UTF-8" standalone="no"?>
<!DOCTYPE svg PUBLIC "-//W3C//DTD SVG 1.1//EN"
 "http://www.w3.org/Graphics/SVG/1.1/DTD/svg11.dtd">
<!-- Generated by graphviz version 2.36.0 (20140111.2315)
 -->
<!-- Title: map_action Pages: 1 -->
<svg width="290pt" height="28pt"
 viewBox="0.00 0.00 290.00 28.00" xmlns="http://www.w3.org/2000/svg" xmlns:xlink="http://www.w3.org/1999/xlink">
<g id="graph0" class="graph" transform="scale(1 1) rotate(0) translate(4 24)">
<title>map_action</title>
<!-- Node1 -->
<g id="node1" class="node"><title>Node1</title>
<polygon fill="#bfbfbf" stroke="black" points="0.5,-0.5 0.5,-19.5 67.5,-19.5 67.5,-0.5 0.5,-0.5"/>
<text text-anchor="middle" x="34" y="-7.5" font-family="Helvetica,sans-Serif" font-size="10.00">map_action</text>
</g>
<!-- Node2 -->
<g id="node2" class="node"><title>Node2</title>
<g id="a_node2"><a xlink:href="../../d5/dd9/stroke__config_8c.html#a7fd6378ca1f61b85f24d47e4929477f3" target="_top" xlink:title="build_child_cfg">
<polygon fill="none" stroke="black" points="104.5,-0.5 104.5,-19.5 185.5,-19.5 185.5,-0.5 104.5,-0.5"/>
<text text-anchor="middle" x="145" y="-7.5" font-family="Helvetica,sans-Serif" font-size="10.00">build_child_cfg</text>
</a>
</g>
</g>
<!-- Node1&#45;&gt;Node2 -->
<g id="edge1" class="edge"><title>Node1&#45;&gt;Node2</title>
<path fill="none" stroke="midnightblue" d="M77.7513,-10C86.5269,-10 95.7292,-10 104.388,-10"/>
<polygon fill="midnightblue" stroke="midnightblue" points="77.7036,-6.5001 67.7036,-10 77.7036,-13.5001 77.7036,-6.5001"/>
</g>
<!-- Node3 -->
<g id="node3" class="node"><title>Node3</title>
<g id="a_node3"><a xlink:href="../../d5/dd9/stroke__config_8c.html#ad02e44f8a333774a5c0fee21daeb4f8a" target="_top" xlink:title="METHOD">
<polygon fill="none" stroke="black" points="222,-0.5 222,-19.5 282,-19.5 282,-0.5 222,-0.5"/>
<text text-anchor="middle" x="252" y="-7.5" font-family="Helvetica,sans-Serif" font-size="10.00">METHOD</text>
</a>
</g>
</g>
<!-- Node2&#45;&gt;Node3 -->
<g id="edge2" class="edge"><title>Node2&#45;&gt;Node3</title>
<path fill="none" stroke="midnightblue" d="M195.954,-10C204.782,-10 213.705,-10 221.723,-10"/>
<polygon fill="midnightblue" stroke="midnightblue" points="195.696,-6.5001 185.696,-10 195.696,-13.5001 195.696,-6.5001"/>
</g>
</g>
</svg>
