<?xml version="1.0" encoding="UTF-8" standalone="no"?>
<!DOCTYPE svg PUBLIC "-//W3C//DTD SVG 1.1//EN"
 "http://www.w3.org/Graphics/SVG/1.1/DTD/svg11.dtd">
<!-- Generated by graphviz version 2.36.0 (20140111.2315)
 -->
<!-- Title: swap_ends Pages: 1 -->
<svg width="280pt" height="28pt"
 viewBox="0.00 0.00 280.00 28.00" xmlns="http://www.w3.org/2000/svg" xmlns:xlink="http://www.w3.org/1999/xlink">
<g id="graph0" class="graph" transform="scale(1 1) rotate(0) translate(4 24)">
<title>swap_ends</title>
<!-- Node1 -->
<g id="node1" class="node"><title>Node1</title>
<polygon fill="#bfbfbf" stroke="black" points="0,-0.5 0,-19.5 66,-19.5 66,-0.5 0,-0.5"/>
<text text-anchor="middle" x="33" y="-7.5" font-family="Helvetica,sans-Serif" font-size="10.00">swap_ends</text>
</g>
<!-- Node2 -->
<g id="node2" class="node"><title>Node2</title>
<g id="a_node2"><a xlink:href="../../d5/dd9/stroke__config_8c.html#aef11238a05ecd23a0dec90d979db913a" target="_top" xlink:title="build_ike_cfg">
<polygon fill="none" stroke="black" points="102,-0.5 102,-19.5 176,-19.5 176,-0.5 102,-0.5"/>
<text text-anchor="middle" x="139" y="-7.5" font-family="Helvetica,sans-Serif" font-size="10.00">build_ike_cfg</text>
</a>
</g>
</g>
<!-- Node1&#45;&gt;Node2 -->
<g id="edge1" class="edge"><title>Node1&#45;&gt;Node2</title>
<path fill="none" stroke="midnightblue" d="M76.1952,-10C84.7117,-10 93.5922,-10 101.878,-10"/>
<polygon fill="midnightblue" stroke="midnightblue" points="76.0521,-6.5001 66.052,-10 76.052,-13.5001 76.0521,-6.5001"/>
</g>
<!-- Node3 -->
<g id="node3" class="node"><title>Node3</title>
<g id="a_node3"><a xlink:href="../../d5/dd9/stroke__config_8c.html#ad02e44f8a333774a5c0fee21daeb4f8a" target="_top" xlink:title="METHOD">
<polygon fill="none" stroke="black" points="212,-0.5 212,-19.5 272,-19.5 272,-0.5 212,-0.5"/>
<text text-anchor="middle" x="242" y="-7.5" font-family="Helvetica,sans-Serif" font-size="10.00">METHOD</text>
</a>
</g>
</g>
<!-- Node2&#45;&gt;Node3 -->
<g id="edge2" class="edge"><title>Node2&#45;&gt;Node3</title>
<path fill="none" stroke="midnightblue" d="M186.218,-10C194.89,-10 203.731,-10 211.709,-10"/>
<polygon fill="midnightblue" stroke="midnightblue" points="186.178,-6.5001 176.178,-10 186.178,-13.5001 186.178,-6.5001"/>
</g>
</g>
</svg>
