<?xml version="1.0" encoding="UTF-8" standalone="no"?>
<!DOCTYPE svg PUBLIC "-//W3C//DTD SVG 1.1//EN"
 "http://www.w3.org/Graphics/SVG/1.1/DTD/svg11.dtd">
<!-- Generated by graphviz version 2.36.0 (20140111.2315)
 -->
<!-- Title: build_peer_cfg Pages: 1 -->
<svg width="360pt" height="104pt"
 viewBox="0.00 0.00 360.00 104.00" xmlns="http://www.w3.org/2000/svg" xmlns:xlink="http://www.w3.org/1999/xlink">
<g id="graph0" class="graph" transform="scale(1 1) rotate(0) translate(4 100)">
<title>build_peer_cfg</title>
<!-- Node1 -->
<g id="node1" class="node"><title>Node1</title>
<polygon fill="#bfbfbf" stroke="black" points="0,-57.5 0,-76.5 80,-76.5 80,-57.5 0,-57.5"/>
<text text-anchor="middle" x="40" y="-64.5" font-family="Helvetica,sans-Serif" font-size="10.00">build_peer_cfg</text>
</g>
<!-- Node2 -->
<g id="node2" class="node"><title>Node2</title>
<g id="a_node2"><a xlink:href="../../de/d0b/sql__config_8c.html#aa57726e496f822dfc20afa5039bb92ce" target="_top" xlink:title="get_peer_cfg_by_id">
<polygon fill="none" stroke="black" points="135.5,-76.5 135.5,-95.5 236.5,-95.5 236.5,-76.5 135.5,-76.5"/>
<text text-anchor="middle" x="186" y="-83.5" font-family="Helvetica,sans-Serif" font-size="10.00">get_peer_cfg_by_id</text>
</a>
</g>
</g>
<!-- Node1&#45;&gt;Node2 -->
<g id="edge1" class="edge"><title>Node1&#45;&gt;Node2</title>
<path fill="none" stroke="midnightblue" d="M90.3475,-67.0673C111.947,-69.3149 136.575,-72.8509 155.294,-76.4959"/>
<polygon fill="midnightblue" stroke="midnightblue" points="90.639,-63.5792 80.3486,-66.101 89.9656,-70.5468 90.639,-63.5792"/>
</g>
<!-- Node3 -->
<g id="node3" class="node"><title>Node3</title>
<g id="a_node3"><a xlink:href="../../de/d0b/sql__config_8c.html#ab8a4c85114d17aa7387ccac04fd464dd" target="_top" xlink:title="METHOD">
<polygon fill="none" stroke="black" points="156,-38.5 156,-57.5 216,-57.5 216,-38.5 156,-38.5"/>
<text text-anchor="middle" x="186" y="-45.5" font-family="Helvetica,sans-Serif" font-size="10.00">METHOD</text>
</a>
</g>
</g>
<!-- Node1&#45;&gt;Node3 -->
<g id="edge3" class="edge"><title>Node1&#45;&gt;Node3</title>
<path fill="none" stroke="midnightblue" d="M90.4198,-60.4793C112.178,-57.6084 136.998,-54.3336 155.751,-51.8592"/>
<polygon fill="midnightblue" stroke="midnightblue" points="89.8048,-57.03 80.3486,-61.8082 90.7206,-63.9699 89.8048,-57.03"/>
</g>
<!-- Node4 -->
<g id="node4" class="node"><title>Node4</title>
<g id="a_node4"><a xlink:href="../../de/d0b/sql__config_8c.html#ab851d028c29985d80230a64b629471f3" target="_top" xlink:title="peer_enumerator_enumerate">
<polygon fill="none" stroke="black" points="116,-0.5 116,-19.5 256,-19.5 256,-0.5 116,-0.5"/>
<text text-anchor="middle" x="186" y="-7.5" font-family="Helvetica,sans-Serif" font-size="10.00">peer_enumerator_enumerate</text>
</a>
</g>
</g>
<!-- Node1&#45;&gt;Node4 -->
<g id="edge4" class="edge"><title>Node1&#45;&gt;Node4</title>
<path fill="none" stroke="midnightblue" d="M66.6842,-52.3725C80.9019,-44.691 99.0747,-35.542 116,-29 125.272,-25.4163 135.487,-22.217 145.15,-19.5117"/>
<polygon fill="midnightblue" stroke="midnightblue" points="64.6108,-49.5184 57.5369,-57.4059 67.9855,-55.6513 64.6108,-49.5184"/>
</g>
<!-- Node2&#45;&gt;Node1 -->
<g id="edge2" class="edge"><title>Node2&#45;&gt;Node1</title>
<path fill="none" stroke="midnightblue" d="M125.368,-84.7926C106.573,-82.5865 86.6184,-79.5977 70.8369,-76.5295"/>
<polygon fill="midnightblue" stroke="midnightblue" points="125.033,-88.2768 135.358,-85.9021 125.806,-81.3196 125.033,-88.2768"/>
</g>
<!-- Node5 -->
<g id="node5" class="node"><title>Node5</title>
<g id="a_node5"><a xlink:href="../../de/d0b/sql__config_8c.html#aedfd8404bb6d071ca005a50d7e56c84d" target="_top" xlink:title="METHOD">
<polygon fill="none" stroke="black" points="292,-0.5 292,-19.5 352,-19.5 352,-0.5 292,-0.5"/>
<text text-anchor="middle" x="322" y="-7.5" font-family="Helvetica,sans-Serif" font-size="10.00">METHOD</text>
</a>
</g>
</g>
<!-- Node4&#45;&gt;Node5 -->
<g id="edge5" class="edge"><title>Node4&#45;&gt;Node5</title>
<path fill="none" stroke="midnightblue" d="M266.562,-10C275.518,-10 284.163,-10 291.826,-10"/>
<polygon fill="midnightblue" stroke="midnightblue" points="266.355,-6.5001 256.355,-10 266.355,-13.5001 266.355,-6.5001"/>
</g>
</g>
</svg>
