<?xml version="1.0" encoding="UTF-8" standalone="no"?>
<!DOCTYPE svg PUBLIC "-//W3C//DTD SVG 1.1//EN"
 "http://www.w3.org/Graphics/SVG/1.1/DTD/svg11.dtd">
<!-- Generated by graphviz version 2.36.0 (20140111.2315)
 -->
<!-- Title: traffic_selector_substructure_create Pages: 1 -->
<!--zoomable 91 -->
<svg id="main" version="1.1" xmlns="http://www.w3.org/2000/svg" xmlns:xlink="http://www.w3.org/1999/xlink" xml:space="preserve" onload="init(evt)">
<style type="text/css"><![CDATA[
.edge:hover path { stroke: red; }
.edge:hover polygon { stroke: red; fill: red; }
]]></style>
<script type="text/javascript"><![CDATA[
var edges = document.getElementsByTagName('g');
if (edges && edges.length) {
  for (var i=0;i<edges.length;i++) {
    if (edges[i].id.substr(0,4)=='edge') {
      edges[i].setAttribute('class','edge');
    }
  }
}
]]></script>
        <defs>
                <circle id="rim" cx="0" cy="0" r="7"/>
                <circle id="rim2" cx="0" cy="0" r="3.5"/>
                <g id="zoomPlus">
                        <use xlink:href="#rim" fill="#404040">
                                <set attributeName="fill" to="#808080" begin="zoomplus.mouseover" end="zoomplus.mouseout"/>
                        </use>
                        <path d="M-4,0h8M0,-4v8" fill="none" stroke="white" stroke-width="1.5" pointer-events="none"/>
                </g>
                <g id="zoomMin">
                        <use xlink:href="#rim" fill="#404040">
                                <set attributeName="fill" to="#808080" begin="zoomminus.mouseover" end="zoomminus.mouseout"/>
                        </use>
                        <path d="M-4,0h8" fill="none" stroke="white" stroke-width="1.5" pointer-events="none"/>
                </g>
                <g id="dirArrow">
                        <path fill="none" stroke="white" stroke-width="1.5" d="M0,-3.0v7 M-2.5,-0.5L0,-3.0L2.5,-0.5"/>
                </g>
               <g id="resetDef">
                       <use xlink:href="#rim2" fill="#404040">
                               <set attributeName="fill" to="#808080" begin="reset.mouseover" end="reset.mouseout"/>
                       </use>
               </g>
        </defs>

<script type="text/javascript">
var viewWidth = 738;
var viewHeight = 91;
var sectionId = 'dynsection-1';
</script>
<script xlink:href="../../svgpan.js"/>
<svg id="graph" class="graph">
<g id="viewport">
<title>traffic_selector_substructure_create</title>
<!-- Node1 -->
<g id="node1" class="node"><title>Node1</title>
<polygon fill="#bfbfbf" stroke="black" points="0,-36 0,-66 140,-66 140,-36 0,-36"/>
<text text-anchor="start" x="8" y="-54" font-family="Helvetica,sans-Serif" font-size="10.00">traffic_selector_substructure</text>
<text text-anchor="middle" x="70" y="-43" font-family="Helvetica,sans-Serif" font-size="10.00">_create</text>
</g>
<!-- Node2 -->
<g id="node2" class="node"><title>Node2</title>
<g id="a_node2"><a xlink:href="../../d0/d90/group__payload.html#ga7fdbedfeebbba4a57ae7a8520e7b8a09" target="_top" xlink:title="payload_create">
<polygon fill="none" stroke="black" points="206.5,-63.5 206.5,-82.5 289.5,-82.5 289.5,-63.5 206.5,-63.5"/>
<text text-anchor="middle" x="248" y="-70.5" font-family="Helvetica,sans-Serif" font-size="10.00">payload_create</text>
</a>
</g>
</g>
<!-- Node1&#45;&gt;Node2 -->
<g id="edge1" class="edge"><title>Node1&#45;&gt;Node2</title>
<path fill="none" stroke="midnightblue" d="M150.141,-60.8926C169.568,-63.321 189.577,-65.8222 206.329,-67.9162"/>
<polygon fill="midnightblue" stroke="midnightblue" points="150.412,-57.3993 140.055,-59.6318 149.543,-64.3452 150.412,-57.3993"/>
</g>
<!-- Node4 -->
<g id="node4" class="node"><title>Node4</title>
<g id="a_node4"><a xlink:href="../../d4/dcb/group__traffic__selector__substructure.html#ga1e3a0a8e10e82c3982f8abfbbef1e076" target="_top" xlink:title="traffic_selector_substructure\l_create_from_traffic_selector">
<polygon fill="none" stroke="black" points="176.5,-14 176.5,-44 319.5,-44 319.5,-14 176.5,-14"/>
<text text-anchor="start" x="184.5" y="-32" font-family="Helvetica,sans-Serif" font-size="10.00">traffic_selector_substructure</text>
<text text-anchor="middle" x="248" y="-21" font-family="Helvetica,sans-Serif" font-size="10.00">_create_from_traffic_selector</text>
</a>
</g>
</g>
<!-- Node1&#45;&gt;Node4 -->
<g id="edge3" class="edge"><title>Node1&#45;&gt;Node4</title>
<path fill="none" stroke="midnightblue" d="M150.226,-41.0968C158.953,-40.0059 167.796,-38.9004 176.408,-37.824"/>
<polygon fill="midnightblue" stroke="midnightblue" points="149.543,-37.6548 140.055,-42.3682 150.412,-44.6007 149.543,-37.6548"/>
</g>
<!-- Node3 -->
<g id="node3" class="node"><title>Node3</title>
<g id="a_node3"><a xlink:href="../../db/dd5/libcharon_2encoding_2parser_8c.html#a90930bed63cf51b0e4d8b09b5bd558e3" target="_top" xlink:title="METHOD">
<polygon fill="none" stroke="black" points="387,-63.5 387,-82.5 447,-82.5 447,-63.5 387,-63.5"/>
<text text-anchor="middle" x="417" y="-70.5" font-family="Helvetica,sans-Serif" font-size="10.00">METHOD</text>
</a>
</g>
</g>
<!-- Node2&#45;&gt;Node3 -->
<g id="edge2" class="edge"><title>Node2&#45;&gt;Node3</title>
<path fill="none" stroke="midnightblue" d="M300.037,-73C328.495,-73 362.912,-73 386.825,-73"/>
<polygon fill="midnightblue" stroke="midnightblue" points="299.853,-69.5001 289.853,-73 299.853,-76.5001 299.853,-69.5001"/>
</g>
<!-- Node5 -->
<g id="node5" class="node"><title>Node5</title>
<g id="a_node5"><a xlink:href="../../d5/daa/group__ts__payload.html#gac70c5671195d35a7dde0ff0d6e03c9dc" target="_top" xlink:title="ts_payload_create_from\l_traffic_selectors">
<polygon fill="none" stroke="black" points="356.5,-14 356.5,-44 477.5,-44 477.5,-14 356.5,-14"/>
<text text-anchor="start" x="364.5" y="-32" font-family="Helvetica,sans-Serif" font-size="10.00">ts_payload_create_from</text>
<text text-anchor="middle" x="417" y="-21" font-family="Helvetica,sans-Serif" font-size="10.00">_traffic_selectors</text>
</a>
</g>
</g>
<!-- Node4&#45;&gt;Node5 -->
<g id="edge4" class="edge"><title>Node4&#45;&gt;Node5</title>
<path fill="none" stroke="midnightblue" d="M329.874,-29C338.812,-29 347.789,-29 356.396,-29"/>
<polygon fill="midnightblue" stroke="midnightblue" points="329.823,-25.5001 319.823,-29 329.823,-32.5001 329.823,-25.5001"/>
</g>
<!-- Node6 -->
<g id="node6" class="node"><title>Node6</title>
<g id="a_node6"><a xlink:href="../../dc/d9a/child__create_8c.html#aa23c9fc9c750a07512ca2400fbcfc8d7" target="_top" xlink:title="build_payloads">
<polygon fill="none" stroke="black" points="533.5,-38.5 533.5,-57.5 614.5,-57.5 614.5,-38.5 533.5,-38.5"/>
<text text-anchor="middle" x="574" y="-45.5" font-family="Helvetica,sans-Serif" font-size="10.00">build_payloads</text>
</a>
</g>
</g>
<!-- Node5&#45;&gt;Node6 -->
<g id="edge5" class="edge"><title>Node5&#45;&gt;Node6</title>
<path fill="none" stroke="midnightblue" d="M488.049,-37.5867C503.581,-39.4906 519.516,-41.4439 533.327,-43.1369"/>
<polygon fill="midnightblue" stroke="midnightblue" points="488.279,-34.0887 477.927,-36.3459 487.427,-41.0367 488.279,-34.0887"/>
</g>
<!-- Node8 -->
<g id="node8" class="node"><title>Node8</title>
<g id="a_node8"><a xlink:href="../../d3/db3/pretend__auth_8c.html#a4495356dc82b4163d98ed5adcfd5cac8" target="_top" xlink:title="process_auth_response">
<polygon fill="none" stroke="black" points="514,-0.5 514,-19.5 634,-19.5 634,-0.5 514,-0.5"/>
<text text-anchor="middle" x="574" y="-7.5" font-family="Helvetica,sans-Serif" font-size="10.00">process_auth_response</text>
</a>
</g>
</g>
<!-- Node5&#45;&gt;Node8 -->
<g id="edge7" class="edge"><title>Node5&#45;&gt;Node8</title>
<path fill="none" stroke="midnightblue" d="M488.029,-20.4158C496.706,-19.3522 505.509,-18.2731 513.998,-17.2325"/>
<polygon fill="midnightblue" stroke="midnightblue" points="487.427,-16.9633 477.927,-21.6541 488.279,-23.9113 487.427,-16.9633"/>
</g>
<!-- Node7 -->
<g id="node7" class="node"><title>Node7</title>
<g id="a_node7"><a xlink:href="../../dc/d9a/child__create_8c.html#aed56efb904bf815eb7b0c4fb3aa7e2c1" target="_top" xlink:title="METHOD">
<polygon fill="none" stroke="black" points="670,-38.5 670,-57.5 730,-57.5 730,-38.5 670,-38.5"/>
<text text-anchor="middle" x="700" y="-45.5" font-family="Helvetica,sans-Serif" font-size="10.00">METHOD</text>
</a>
</g>
</g>
<!-- Node6&#45;&gt;Node7 -->
<g id="edge6" class="edge"><title>Node6&#45;&gt;Node7</title>
<path fill="none" stroke="midnightblue" d="M624.878,-48C640.06,-48 656.252,-48 669.616,-48"/>
<polygon fill="midnightblue" stroke="midnightblue" points="624.575,-44.5001 614.575,-48 624.575,-51.5001 624.575,-44.5001"/>
</g>
<!-- Node9 -->
<g id="node9" class="node"><title>Node9</title>
<g id="a_node9"><a xlink:href="../../d3/db3/pretend__auth_8c.html#aadf45f2afe23f71e2c042730808ae155" target="_top" xlink:title="METHOD">
<polygon fill="none" stroke="black" points="670,-0.5 670,-19.5 730,-19.5 730,-0.5 670,-0.5"/>
<text text-anchor="middle" x="700" y="-7.5" font-family="Helvetica,sans-Serif" font-size="10.00">METHOD</text>
</a>
</g>
</g>
<!-- Node8&#45;&gt;Node9 -->
<g id="edge8" class="edge"><title>Node8&#45;&gt;Node9</title>
<path fill="none" stroke="midnightblue" d="M644.322,-10C653.339,-10 662.146,-10 669.967,-10"/>
<polygon fill="midnightblue" stroke="midnightblue" points="644.095,-6.5001 634.095,-10 644.095,-13.5001 644.095,-6.5001"/>
</g>
</g>
</svg>
        <g id="navigator" transform="translate(0 0)" fill="#404254">
                <rect fill="#f2f5e9" fill-opacity="0.5" stroke="#606060" stroke-width=".5" x="0" y="0" width="60" height="60"/>
                <use id="zoomplus" xlink:href="#zoomPlus" x="17" y="9" onmousedown="handleZoom(evt,'in')"/>
                <use id="zoomminus" xlink:href="#zoomMin" x="42" y="9" onmousedown="handleZoom(evt,'out')"/>
                <use id="reset" xlink:href="#resetDef" x="30" y="36" onmousedown="handleReset()"/>
                <g id="arrowUp" xlink:href="#dirArrow" transform="translate(30 24)" onmousedown="handlePan(0,-1)">
                  <use xlink:href="#rim" fill="#404040">
                        <set attributeName="fill" to="#808080" begin="arrowUp.mouseover" end="arrowUp.mouseout"/>
                  </use>
                  <path fill="none" stroke="white" stroke-width="1.5" d="M0,-3.0v7 M-2.5,-0.5L0,-3.0L2.5,-0.5"/>
                </g>
                <g id="arrowRight" xlink:href="#dirArrow" transform="rotate(90) translate(36 -43)" onmousedown="handlePan(1,0)">
                  <use xlink:href="#rim" fill="#404040">
                        <set attributeName="fill" to="#808080" begin="arrowRight.mouseover" end="arrowRight.mouseout"/>
                  </use>
                  <path fill="none" stroke="white" stroke-width="1.5" d="M0,-3.0v7 M-2.5,-0.5L0,-3.0L2.5,-0.5"/>
                </g>
                <g id="arrowDown" xlink:href="#dirArrow" transform="rotate(180) translate(-30 -48)" onmousedown="handlePan(0,1)">
                  <use xlink:href="#rim" fill="#404040">
                        <set attributeName="fill" to="#808080" begin="arrowDown.mouseover" end="arrowDown.mouseout"/>
                  </use>
                  <path fill="none" stroke="white" stroke-width="1.5" d="M0,-3.0v7 M-2.5,-0.5L0,-3.0L2.5,-0.5"/>
                </g>
                <g id="arrowLeft" xlink:href="#dirArrow" transform="rotate(270) translate(-36 17)" onmousedown="handlePan(-1,0)">
                  <use xlink:href="#rim" fill="#404040">
                        <set attributeName="fill" to="#808080" begin="arrowLeft.mouseover" end="arrowLeft.mouseout"/>
                  </use>
                  <path fill="none" stroke="white" stroke-width="1.5" d="M0,-3.0v7 M-2.5,-0.5L0,-3.0L2.5,-0.5"/>
                </g>
        </g>
        <svg viewBox="0 0 15 15" width="100%" height="30px" preserveAspectRatio="xMaxYMin meet">
         <g id="arrow_out" transform="scale(0.3 0.3)">
          <a xlink:href="group__traffic__selector__substructure_ga4ee484aeaf0392f9554a07cf5025f007_icgraph_org.svg" target="_base">
           <rect id="button" ry="5" rx="5" y="6" x="6" height="38" width="38"
                fill="#f2f5e9" fill-opacity="0.5" stroke="#606060" stroke-width="1.0"/>
           <path id="arrow"
             d="M 11.500037,31.436501 C 11.940474,20.09759 22.043105,11.32322 32.158766,21.979434 L 37.068811,17.246167 C 37.068811,17.246167 37.088388,32 37.088388,32 L 22.160133,31.978069 C 22.160133,31.978069 26.997745,27.140456 26.997745,27.140456 C 18.528582,18.264221 13.291696,25.230495 11.500037,31.436501 z"
             style="fill:#404040;"/>
          </a>
         </g>
        </svg>
</svg>
