<?xml version="1.0" encoding="UTF-8" standalone="no"?>
<!DOCTYPE svg PUBLIC "-//W3C//DTD SVG 1.1//EN"
 "http://www.w3.org/Graphics/SVG/1.1/DTD/svg11.dtd">
<!-- Generated by graphviz version 2.36.0 (20140111.2315)
 -->
<!-- Title: random_plugin_get_dev_random Pages: 1 -->
<svg width="360pt" height="38pt"
 viewBox="0.00 0.00 360.00 38.00" xmlns="http://www.w3.org/2000/svg" xmlns:xlink="http://www.w3.org/1999/xlink">
<g id="graph0" class="graph" transform="scale(1 1) rotate(0) translate(4 34)">
<title>random_plugin_get_dev_random</title>
<!-- Node1 -->
<g id="node1" class="node"><title>Node1</title>
<polygon fill="#bfbfbf" stroke="black" points="0.5,-0 0.5,-30 119.5,-30 119.5,-0 0.5,-0"/>
<text text-anchor="start" x="8.5" y="-18" font-family="Helvetica,sans-Serif" font-size="10.00">random_plugin_get_dev</text>
<text text-anchor="middle" x="60" y="-7" font-family="Helvetica,sans-Serif" font-size="10.00">_random</text>
</g>
<!-- Node2 -->
<g id="node2" class="node"><title>Node2</title>
<g id="a_node2"><a xlink:href="../../d8/d43/group__random__rng.html#ga19c1d959aa035e9a34523a13e63176e5" target="_top" xlink:title="random_rng_create">
<polygon fill="none" stroke="black" points="156,-5.5 156,-24.5 256,-24.5 256,-5.5 156,-5.5"/>
<text text-anchor="middle" x="206" y="-12.5" font-family="Helvetica,sans-Serif" font-size="10.00">random_rng_create</text>
</a>
</g>
</g>
<!-- Node1&#45;&gt;Node2 -->
<g id="edge1" class="edge"><title>Node1&#45;&gt;Node2</title>
<path fill="none" stroke="midnightblue" d="M129.779,-15C138.527,-15 147.338,-15 155.695,-15"/>
<polygon fill="midnightblue" stroke="midnightblue" points="129.57,-11.5001 119.57,-15 129.57,-18.5001 129.57,-11.5001"/>
</g>
<!-- Node3 -->
<g id="node3" class="node"><title>Node3</title>
<g id="a_node3"><a xlink:href="../../de/d93/random__plugin_8c.html#a711098cfdbde48b03baab179e8ff570f" target="_top" xlink:title="METHOD">
<polygon fill="none" stroke="black" points="292,-5.5 292,-24.5 352,-24.5 352,-5.5 292,-5.5"/>
<text text-anchor="middle" x="322" y="-12.5" font-family="Helvetica,sans-Serif" font-size="10.00">METHOD</text>
</a>
</g>
</g>
<!-- Node2&#45;&gt;Node3 -->
<g id="edge2" class="edge"><title>Node2&#45;&gt;Node3</title>
<path fill="none" stroke="midnightblue" d="M266.072,-15C275.003,-15 283.865,-15 291.781,-15"/>
<polygon fill="midnightblue" stroke="midnightblue" points="266.008,-11.5001 256.008,-15 266.008,-18.5001 266.008,-11.5001"/>
</g>
</g>
</svg>
