<?xml version="1.0" encoding="UTF-8" standalone="no"?>
<!DOCTYPE svg PUBLIC "-//W3C//DTD SVG 1.1//EN"
 "http://www.w3.org/Graphics/SVG/1.1/DTD/svg11.dtd">
<!-- Generated by graphviz version 2.36.0 (20140111.2315)
 -->
<!-- Title: cleanup_policies Pages: 1 -->
<!--zoomable 123 -->
<svg id="main" version="1.1" xmlns="http://www.w3.org/2000/svg" xmlns:xlink="http://www.w3.org/1999/xlink" xml:space="preserve" onload="init(evt)">
<style type="text/css"><![CDATA[
.edge:hover path { stroke: red; }
.edge:hover polygon { stroke: red; fill: red; }
]]></style>
<script type="text/javascript"><![CDATA[
var edges = document.getElementsByTagName('g');
if (edges && edges.length) {
  for (var i=0;i<edges.length;i++) {
    if (edges[i].id.substr(0,4)=='edge') {
      edges[i].setAttribute('class','edge');
    }
  }
}
]]></script>
        <defs>
                <circle id="rim" cx="0" cy="0" r="7"/>
                <circle id="rim2" cx="0" cy="0" r="3.5"/>
                <g id="zoomPlus">
                        <use xlink:href="#rim" fill="#404040">
                                <set attributeName="fill" to="#808080" begin="zoomplus.mouseover" end="zoomplus.mouseout"/>
                        </use>
                        <path d="M-4,0h8M0,-4v8" fill="none" stroke="white" stroke-width="1.5" pointer-events="none"/>
                </g>
                <g id="zoomMin">
                        <use xlink:href="#rim" fill="#404040">
                                <set attributeName="fill" to="#808080" begin="zoomminus.mouseover" end="zoomminus.mouseout"/>
                        </use>
                        <path d="M-4,0h8" fill="none" stroke="white" stroke-width="1.5" pointer-events="none"/>
                </g>
                <g id="dirArrow">
                        <path fill="none" stroke="white" stroke-width="1.5" d="M0,-3.0v7 M-2.5,-0.5L0,-3.0L2.5,-0.5"/>
                </g>
               <g id="resetDef">
                       <use xlink:href="#rim2" fill="#404040">
                               <set attributeName="fill" to="#808080" begin="reset.mouseover" end="reset.mouseout"/>
                       </use>
               </g>
        </defs>

<script type="text/javascript">
var viewWidth = 794;
var viewHeight = 123;
var sectionId = 'dynsection-15';
</script>
<script xlink:href="../../svgpan.js"/>
<svg id="graph" class="graph">
<g id="viewport">
<title>cleanup_policies</title>
<!-- Node1 -->
<g id="node1" class="node"><title>Node1</title>
<polygon fill="#bfbfbf" stroke="black" points="0.5,-38.5 0.5,-57.5 89.5,-57.5 89.5,-38.5 0.5,-38.5"/>
<text text-anchor="middle" x="45" y="-45.5" font-family="Helvetica,sans-Serif" font-size="10.00">cleanup_policies</text>
</g>
<!-- Node2 -->
<g id="node2" class="node"><title>Node2</title>
<g id="a_node2"><a xlink:href="../../d0/d8e/kernel__wfp__ipsec_8c.html#a4a06503b51b54e63d646f723e951850b" target="_top" xlink:title="entry_destroy">
<polygon fill="none" stroke="black" points="131,-76.5 131,-95.5 207,-95.5 207,-76.5 131,-76.5"/>
<text text-anchor="middle" x="169" y="-83.5" font-family="Helvetica,sans-Serif" font-size="10.00">entry_destroy</text>
</a>
</g>
</g>
<!-- Node1&#45;&gt;Node2 -->
<g id="edge1" class="edge"><title>Node1&#45;&gt;Node2</title>
<path fill="none" stroke="midnightblue" d="M86.7108,-60.6804C103.195,-65.8148 121.91,-71.6441 137.224,-76.4141"/>
<polygon fill="midnightblue" stroke="midnightblue" points="87.3742,-57.2213 76.7858,-57.589 85.2925,-63.9046 87.3742,-57.2213"/>
</g>
<!-- Node7 -->
<g id="node7" class="node"><title>Node7</title>
<g id="a_node7"><a xlink:href="../../d0/d8e/kernel__wfp__ipsec_8c.html#a9b76b87fd30d49f2e13c4ceb062a2526" target="_top" xlink:title="install_transport">
<polygon fill="none" stroke="black" points="126,-38.5 126,-57.5 212,-57.5 212,-38.5 126,-38.5"/>
<text text-anchor="middle" x="169" y="-45.5" font-family="Helvetica,sans-Serif" font-size="10.00">install_transport</text>
</a>
</g>
</g>
<!-- Node1&#45;&gt;Node7 -->
<g id="edge6" class="edge"><title>Node1&#45;&gt;Node7</title>
<path fill="none" stroke="midnightblue" d="M99.8011,-48C108.521,-48 117.439,-48 125.83,-48"/>
<polygon fill="midnightblue" stroke="midnightblue" points="99.7002,-44.5001 89.7002,-48 99.7002,-51.5001 99.7002,-44.5001"/>
</g>
<!-- Node15 -->
<g id="node15" class="node"><title>Node15</title>
<g id="a_node15"><a xlink:href="../../d0/d8e/kernel__wfp__ipsec_8c.html#aef743a375ddbe6cdfa8f20da87917d82" target="_top" xlink:title="install_tunnel">
<polygon fill="none" stroke="black" points="132,-0.5 132,-19.5 206,-19.5 206,-0.5 132,-0.5"/>
<text text-anchor="middle" x="169" y="-7.5" font-family="Helvetica,sans-Serif" font-size="10.00">install_tunnel</text>
</a>
</g>
</g>
<!-- Node1&#45;&gt;Node15 -->
<g id="edge14" class="edge"><title>Node1&#45;&gt;Node15</title>
<path fill="none" stroke="midnightblue" d="M86.7108,-35.3196C103.195,-30.1852 121.91,-24.3559 137.224,-19.5859"/>
<polygon fill="midnightblue" stroke="midnightblue" points="85.2925,-32.0954 76.7858,-38.411 87.3742,-38.7787 85.2925,-32.0954"/>
</g>
<!-- Node3 -->
<g id="node3" class="node"><title>Node3</title>
<g id="a_node3"><a xlink:href="../../d0/d8e/kernel__wfp__ipsec_8c.html#a75627e65f4ea2ebc86082a4d0cb09b24" target="_top" xlink:title="expire_job">
<polygon fill="none" stroke="black" points="248.5,-95.5 248.5,-114.5 309.5,-114.5 309.5,-95.5 248.5,-95.5"/>
<text text-anchor="middle" x="279" y="-102.5" font-family="Helvetica,sans-Serif" font-size="10.00">expire_job</text>
</a>
</g>
</g>
<!-- Node2&#45;&gt;Node3 -->
<g id="edge2" class="edge"><title>Node2&#45;&gt;Node3</title>
<path fill="none" stroke="midnightblue" d="M217.138,-94.2928C227.707,-96.1522 238.634,-98.0744 248.261,-99.7681"/>
<polygon fill="midnightblue" stroke="midnightblue" points="217.623,-90.8244 207.167,-92.5387 216.41,-97.7185 217.623,-90.8244"/>
</g>
<!-- Node6 -->
<g id="node6" class="node"><title>Node6</title>
<g id="a_node6"><a xlink:href="../../d0/d8e/kernel__wfp__ipsec_8c.html#a5eccc88cc20112d4dcdd97ba8663f9fe" target="_top" xlink:title="METHOD">
<polygon fill="none" stroke="black" points="249,-57.5 249,-76.5 309,-76.5 309,-57.5 249,-57.5"/>
<text text-anchor="middle" x="279" y="-64.5" font-family="Helvetica,sans-Serif" font-size="10.00">METHOD</text>
</a>
</g>
</g>
<!-- Node2&#45;&gt;Node6 -->
<g id="edge5" class="edge"><title>Node2&#45;&gt;Node6</title>
<path fill="none" stroke="midnightblue" d="M217.322,-77.6748C228.088,-75.7808 239.214,-73.8235 248.951,-72.1104"/>
<polygon fill="midnightblue" stroke="midnightblue" points="216.41,-74.2815 207.167,-79.4613 217.623,-81.1756 216.41,-74.2815"/>
</g>
<!-- Node4 -->
<g id="node4" class="node"><title>Node4</title>
<g id="a_node4"><a xlink:href="../../d0/d8e/kernel__wfp__ipsec_8c.html#a317ff7c474108672c6bd290575860bdb" target="_top" xlink:title="schedule_expire">
<polygon fill="none" stroke="black" points="354.5,-95.5 354.5,-114.5 441.5,-114.5 441.5,-95.5 354.5,-95.5"/>
<text text-anchor="middle" x="398" y="-102.5" font-family="Helvetica,sans-Serif" font-size="10.00">schedule_expire</text>
</a>
</g>
</g>
<!-- Node3&#45;&gt;Node4 -->
<g id="edge3" class="edge"><title>Node3&#45;&gt;Node4</title>
<path fill="none" stroke="midnightblue" d="M319.788,-105C330.877,-105 342.969,-105 354.222,-105"/>
<polygon fill="midnightblue" stroke="midnightblue" points="319.524,-101.5 309.524,-105 319.524,-108.5 319.524,-101.5"/>
</g>
<!-- Node5 -->
<g id="node5" class="node"><title>Node5</title>
<g id="a_node5"><a xlink:href="../../d0/d8e/kernel__wfp__ipsec_8c.html#a7a0b621ad5bec9c9f0e64b015e85579b" target="_top" xlink:title="METHOD">
<polygon fill="none" stroke="black" points="505,-95.5 505,-114.5 565,-114.5 565,-95.5 505,-95.5"/>
<text text-anchor="middle" x="535" y="-102.5" font-family="Helvetica,sans-Serif" font-size="10.00">METHOD</text>
</a>
</g>
</g>
<!-- Node4&#45;&gt;Node5 -->
<g id="edge4" class="edge"><title>Node4&#45;&gt;Node5</title>
<path fill="none" stroke="midnightblue" d="M451.823,-105C469.838,-105 489.319,-105 504.79,-105"/>
<polygon fill="midnightblue" stroke="midnightblue" points="451.715,-101.5 441.715,-105 451.715,-108.5 451.715,-101.5"/>
</g>
<!-- Node8 -->
<g id="node8" class="node"><title>Node8</title>
<g id="a_node8"><a xlink:href="../../d0/d8e/kernel__wfp__ipsec_8c.html#a7820e93904313d83f7bcae8178e4822a" target="_top" xlink:title="install">
<polygon fill="none" stroke="black" points="258,-19.5 258,-38.5 300,-38.5 300,-19.5 258,-19.5"/>
<text text-anchor="middle" x="279" y="-26.5" font-family="Helvetica,sans-Serif" font-size="10.00">install</text>
</a>
</g>
</g>
<!-- Node7&#45;&gt;Node8 -->
<g id="edge7" class="edge"><title>Node7&#45;&gt;Node8</title>
<path fill="none" stroke="midnightblue" d="M222.171,-38.8217C234.876,-36.5866 247.716,-34.3277 257.874,-32.5407"/>
<polygon fill="midnightblue" stroke="midnightblue" points="221.307,-35.4199 212.065,-40.5997 222.52,-42.314 221.307,-35.4199"/>
</g>
<!-- Node9 -->
<g id="node9" class="node"><title>Node9</title>
<g id="a_node9"><a xlink:href="../../d4/d3d/inactivity__job_8c.html#ae1a8f07a46de52a44dbe2b0f629b268f" target="_top" xlink:title="METHOD">
<polygon fill="none" stroke="black" points="368,-57.5 368,-76.5 428,-76.5 428,-57.5 368,-57.5"/>
<text text-anchor="middle" x="398" y="-64.5" font-family="Helvetica,sans-Serif" font-size="10.00">METHOD</text>
</a>
</g>
</g>
<!-- Node8&#45;&gt;Node9 -->
<g id="edge8" class="edge"><title>Node8&#45;&gt;Node9</title>
<path fill="none" stroke="midnightblue" d="M309.744,-38.6605C327.604,-44.461 350.222,-51.8073 367.955,-57.5667"/>
<polygon fill="midnightblue" stroke="midnightblue" points="310.705,-35.2927 300.113,-35.5324 308.543,-41.9504 310.705,-35.2927"/>
</g>
<!-- Node10 -->
<g id="node10" class="node"><title>Node10</title>
<g id="a_node10"><a xlink:href="../../d8/dcf/vici__control_8c.html#a109fbee55e088f62e93835de06173387" target="_top" xlink:title="manage_commands">
<polygon fill="none" stroke="black" points="346,-19.5 346,-38.5 450,-38.5 450,-19.5 346,-19.5"/>
<text text-anchor="middle" x="398" y="-26.5" font-family="Helvetica,sans-Serif" font-size="10.00">manage_commands</text>
</a>
</g>
</g>
<!-- Node8&#45;&gt;Node10 -->
<g id="edge9" class="edge"><title>Node8&#45;&gt;Node10</title>
<path fill="none" stroke="midnightblue" d="M310.347,-29C321.23,-29 333.819,-29 345.971,-29"/>
<polygon fill="midnightblue" stroke="midnightblue" points="310.113,-25.5001 300.113,-29 310.113,-32.5001 310.113,-25.5001"/>
</g>
<!-- Node11 -->
<g id="node11" class="node"><title>Node11</title>
<g id="a_node11"><a xlink:href="../../d8/dcf/vici__control_8c.html#a63996fa19abd48e2faf63e4fb378ef18" target="_top" xlink:title="METHOD">
<polygon fill="none" stroke="black" points="505,-38.5 505,-57.5 565,-57.5 565,-38.5 505,-38.5"/>
<text text-anchor="middle" x="535" y="-45.5" font-family="Helvetica,sans-Serif" font-size="10.00">METHOD</text>
</a>
</g>
</g>
<!-- Node10&#45;&gt;Node11 -->
<g id="edge10" class="edge"><title>Node10&#45;&gt;Node11</title>
<path fill="none" stroke="midnightblue" d="M460.155,-37.607C475.704,-39.7954 491.706,-42.0475 504.821,-43.8934"/>
<polygon fill="midnightblue" stroke="midnightblue" points="460.428,-34.111 450.038,-36.1831 459.452,-41.0427 460.428,-34.111"/>
</g>
<!-- Node12 -->
<g id="node12" class="node"><title>Node12</title>
<g id="a_node12"><a xlink:href="../../d0/dcb/group__vici__control.html#ga9bb24cf92651f6573ebc2d32f96c2439" target="_top" xlink:title="vici_control_create">
<polygon fill="none" stroke="black" points="486,-0.5 486,-19.5 584,-19.5 584,-0.5 486,-0.5"/>
<text text-anchor="middle" x="535" y="-7.5" font-family="Helvetica,sans-Serif" font-size="10.00">vici_control_create</text>
</a>
</g>
</g>
<!-- Node10&#45;&gt;Node12 -->
<g id="edge11" class="edge"><title>Node10&#45;&gt;Node12</title>
<path fill="none" stroke="midnightblue" d="M459.998,-20.4152C468.566,-19.2093 477.275,-17.9836 485.566,-16.8167"/>
<polygon fill="midnightblue" stroke="midnightblue" points="459.452,-16.9573 450.038,-21.8169 460.428,-23.889 459.452,-16.9573"/>
</g>
<!-- Node13 -->
<g id="node13" class="node"><title>Node13</title>
<g id="a_node13"><a xlink:href="../../d1/d73/vici__plugin_8c.html#a2f71c61365cc9ae07eca95d2cec1c305" target="_top" xlink:title="register_vici">
<polygon fill="none" stroke="black" points="620.5,-0.5 620.5,-19.5 689.5,-19.5 689.5,-0.5 620.5,-0.5"/>
<text text-anchor="middle" x="655" y="-7.5" font-family="Helvetica,sans-Serif" font-size="10.00">register_vici</text>
</a>
</g>
</g>
<!-- Node12&#45;&gt;Node13 -->
<g id="edge12" class="edge"><title>Node12&#45;&gt;Node13</title>
<path fill="none" stroke="midnightblue" d="M594.351,-10C603.267,-10 612.204,-10 620.345,-10"/>
<polygon fill="midnightblue" stroke="midnightblue" points="594.336,-6.5001 584.336,-10 594.336,-13.5001 594.336,-6.5001"/>
</g>
<!-- Node14 -->
<g id="node14" class="node"><title>Node14</title>
<g id="a_node14"><a xlink:href="../../d1/d73/vici__plugin_8c.html#a0fb4568098134ff06cea5d8cbca4cc84" target="_top" xlink:title="METHOD">
<polygon fill="none" stroke="black" points="726,-0.5 726,-19.5 786,-19.5 786,-0.5 726,-0.5"/>
<text text-anchor="middle" x="756" y="-7.5" font-family="Helvetica,sans-Serif" font-size="10.00">METHOD</text>
</a>
</g>
</g>
<!-- Node13&#45;&gt;Node14 -->
<g id="edge13" class="edge"><title>Node13&#45;&gt;Node14</title>
<path fill="none" stroke="midnightblue" d="M699.708,-10C708.547,-10 717.634,-10 725.824,-10"/>
<polygon fill="midnightblue" stroke="midnightblue" points="699.517,-6.5001 689.517,-10 699.517,-13.5001 699.517,-6.5001"/>
</g>
<!-- Node15&#45;&gt;Node8 -->
<g id="edge15" class="edge"><title>Node15&#45;&gt;Node8</title>
<path fill="none" stroke="midnightblue" d="M216.145,-18.118C230.674,-20.6742 245.979,-23.3667 257.73,-25.4339"/>
<polygon fill="midnightblue" stroke="midnightblue" points="216.718,-14.6653 206.263,-16.3796 215.505,-21.5594 216.718,-14.6653"/>
</g>
</g>
</svg>
        <g id="navigator" transform="translate(0 0)" fill="#404254">
                <rect fill="#f2f5e9" fill-opacity="0.5" stroke="#606060" stroke-width=".5" x="0" y="0" width="60" height="60"/>
                <use id="zoomplus" xlink:href="#zoomPlus" x="17" y="9" onmousedown="handleZoom(evt,'in')"/>
                <use id="zoomminus" xlink:href="#zoomMin" x="42" y="9" onmousedown="handleZoom(evt,'out')"/>
                <use id="reset" xlink:href="#resetDef" x="30" y="36" onmousedown="handleReset()"/>
                <g id="arrowUp" xlink:href="#dirArrow" transform="translate(30 24)" onmousedown="handlePan(0,-1)">
                  <use xlink:href="#rim" fill="#404040">
                        <set attributeName="fill" to="#808080" begin="arrowUp.mouseover" end="arrowUp.mouseout"/>
                  </use>
                  <path fill="none" stroke="white" stroke-width="1.5" d="M0,-3.0v7 M-2.5,-0.5L0,-3.0L2.5,-0.5"/>
                </g>
                <g id="arrowRight" xlink:href="#dirArrow" transform="rotate(90) translate(36 -43)" onmousedown="handlePan(1,0)">
                  <use xlink:href="#rim" fill="#404040">
                        <set attributeName="fill" to="#808080" begin="arrowRight.mouseover" end="arrowRight.mouseout"/>
                  </use>
                  <path fill="none" stroke="white" stroke-width="1.5" d="M0,-3.0v7 M-2.5,-0.5L0,-3.0L2.5,-0.5"/>
                </g>
                <g id="arrowDown" xlink:href="#dirArrow" transform="rotate(180) translate(-30 -48)" onmousedown="handlePan(0,1)">
                  <use xlink:href="#rim" fill="#404040">
                        <set attributeName="fill" to="#808080" begin="arrowDown.mouseover" end="arrowDown.mouseout"/>
                  </use>
                  <path fill="none" stroke="white" stroke-width="1.5" d="M0,-3.0v7 M-2.5,-0.5L0,-3.0L2.5,-0.5"/>
                </g>
                <g id="arrowLeft" xlink:href="#dirArrow" transform="rotate(270) translate(-36 17)" onmousedown="handlePan(-1,0)">
                  <use xlink:href="#rim" fill="#404040">
                        <set attributeName="fill" to="#808080" begin="arrowLeft.mouseover" end="arrowLeft.mouseout"/>
                  </use>
                  <path fill="none" stroke="white" stroke-width="1.5" d="M0,-3.0v7 M-2.5,-0.5L0,-3.0L2.5,-0.5"/>
                </g>
        </g>
        <svg viewBox="0 0 15 15" width="100%" height="30px" preserveAspectRatio="xMaxYMin meet">
         <g id="arrow_out" transform="scale(0.3 0.3)">
          <a xlink:href="kernel__wfp__ipsec_8c_a70f4564be1ce9f4dc4a0468ca9220d53_icgraph_org.svg" target="_base">
           <rect id="button" ry="5" rx="5" y="6" x="6" height="38" width="38"
                fill="#f2f5e9" fill-opacity="0.5" stroke="#606060" stroke-width="1.0"/>
           <path id="arrow"
             d="M 11.500037,31.436501 C 11.940474,20.09759 22.043105,11.32322 32.158766,21.979434 L 37.068811,17.246167 C 37.068811,17.246167 37.088388,32 37.088388,32 L 22.160133,31.978069 C 22.160133,31.978069 26.997745,27.140456 26.997745,27.140456 C 18.528582,18.264221 13.291696,25.230495 11.500037,31.436501 z"
             style="fill:#404040;"/>
          </a>
         </g>
        </svg>
</svg>
