<?xml version="1.0" encoding="UTF-8" standalone="no"?>
<!DOCTYPE svg PUBLIC "-//W3C//DTD SVG 1.1//EN"
 "http://www.w3.org/Graphics/SVG/1.1/DTD/svg11.dtd">
<!-- Generated by graphviz version 2.36.0 (20140111.2315)
 -->
<!-- Title: destroy_route Pages: 1 -->
<svg width="1256pt" height="237pt"
 viewBox="0.00 0.00 1256.00 237.00" xmlns="http://www.w3.org/2000/svg" xmlns:xlink="http://www.w3.org/1999/xlink">
<g id="graph0" class="graph" transform="scale(1 1) rotate(0) translate(4 233)">
<title>destroy_route</title>
<!-- Node1 -->
<g id="node1" class="node"><title>Node1</title>
<polygon fill="#bfbfbf" stroke="black" points="0,-38.5 0,-57.5 76,-57.5 76,-38.5 0,-38.5"/>
<text text-anchor="middle" x="38" y="-45.5" font-family="Helvetica,sans-Serif" font-size="10.00">destroy_route</text>
</g>
<!-- Node2 -->
<g id="node2" class="node"><title>Node2</title>
<g id="a_node2"><a xlink:href="../../d0/d8e/kernel__wfp__ipsec_8c.html#a50ac8eb1a5a817da41a4d8579f7b5c61" target="_top" xlink:title="install_route">
<polygon fill="none" stroke="black" points="117.5,-57.5 117.5,-76.5 186.5,-76.5 186.5,-57.5 117.5,-57.5"/>
<text text-anchor="middle" x="152" y="-64.5" font-family="Helvetica,sans-Serif" font-size="10.00">install_route</text>
</a>
</g>
</g>
<!-- Node1&#45;&gt;Node2 -->
<g id="edge1" class="edge"><title>Node1&#45;&gt;Node2</title>
<path fill="none" stroke="midnightblue" d="M86.4626,-56.0517C96.8178,-57.8084 107.572,-59.6327 117.263,-61.2768"/>
<polygon fill="midnightblue" stroke="midnightblue" points="86.7389,-52.5486 76.2944,-54.3267 85.5681,-59.45 86.7389,-52.5486"/>
</g>
<!-- Node25 -->
<g id="node25" class="node"><title>Node25</title>
<g id="a_node25"><a xlink:href="../../d0/d8e/kernel__wfp__ipsec_8c.html#a6153c1139cf41f4ef926c024fdd8402f" target="_top" xlink:title="uninstall_route">
<polygon fill="none" stroke="black" points="112,-19.5 112,-38.5 192,-38.5 192,-19.5 112,-19.5"/>
<text text-anchor="middle" x="152" y="-26.5" font-family="Helvetica,sans-Serif" font-size="10.00">uninstall_route</text>
</a>
</g>
</g>
<!-- Node1&#45;&gt;Node25 -->
<g id="edge26" class="edge"><title>Node1&#45;&gt;Node25</title>
<path fill="none" stroke="midnightblue" d="M86.1888,-39.9947C94.7708,-38.5389 103.636,-37.035 111.951,-35.6244"/>
<polygon fill="midnightblue" stroke="midnightblue" points="85.5681,-36.55 76.2944,-41.6733 86.7389,-43.4514 85.5681,-36.55"/>
</g>
<!-- Node3 -->
<g id="node3" class="node"><title>Node3</title>
<g id="a_node3"><a xlink:href="../../d0/d8e/kernel__wfp__ipsec_8c.html#ad2a4ab300da8171b798d0ec303821b97" target="_top" xlink:title="manage_route">
<polygon fill="none" stroke="black" points="228,-38.5 228,-57.5 306,-57.5 306,-38.5 228,-38.5"/>
<text text-anchor="middle" x="267" y="-45.5" font-family="Helvetica,sans-Serif" font-size="10.00">manage_route</text>
</a>
</g>
</g>
<!-- Node2&#45;&gt;Node3 -->
<g id="edge2" class="edge"><title>Node2&#45;&gt;Node3</title>
<path fill="none" stroke="midnightblue" d="M196.667,-59.6577C206.993,-57.9216 217.922,-56.0839 227.975,-54.3936"/>
<polygon fill="midnightblue" stroke="midnightblue" points="195.879,-56.241 186.598,-61.3508 197.04,-63.1441 195.879,-56.241"/>
</g>
<!-- Node4 -->
<g id="node4" class="node"><title>Node4</title>
<g id="a_node4"><a xlink:href="../../d0/d8e/kernel__wfp__ipsec_8c.html#ad65fd97bbf415013b48a8ce718916914" target="_top" xlink:title="manage_routes">
<polygon fill="none" stroke="black" points="342.5,-95.5 342.5,-114.5 425.5,-114.5 425.5,-95.5 342.5,-95.5"/>
<text text-anchor="middle" x="384" y="-102.5" font-family="Helvetica,sans-Serif" font-size="10.00">manage_routes</text>
</a>
</g>
</g>
<!-- Node3&#45;&gt;Node4 -->
<g id="edge3" class="edge"><title>Node3&#45;&gt;Node4</title>
<path fill="none" stroke="midnightblue" d="M296.321,-62.0372C317.273,-72.4222 345.258,-86.2931 363.689,-95.4284"/>
<polygon fill="midnightblue" stroke="midnightblue" points="297.763,-58.8456 287.248,-57.5405 294.654,-65.1175 297.763,-58.8456"/>
</g>
<!-- Node21 -->
<g id="node21" class="node"><title>Node21</title>
<g id="a_node21"><a xlink:href="../../d0/d8e/kernel__wfp__ipsec_8c.html#a36c54e74acbe3bf2da2d62a799ed63d3" target="_top" xlink:title="add_trap">
<polygon fill="none" stroke="black" points="357,-38.5 357,-57.5 411,-57.5 411,-38.5 357,-38.5"/>
<text text-anchor="middle" x="384" y="-45.5" font-family="Helvetica,sans-Serif" font-size="10.00">add_trap</text>
</a>
</g>
</g>
<!-- Node3&#45;&gt;Node21 -->
<g id="edge22" class="edge"><title>Node3&#45;&gt;Node21</title>
<path fill="none" stroke="midnightblue" d="M316.651,-48C330.444,-48 344.932,-48 356.84,-48"/>
<polygon fill="midnightblue" stroke="midnightblue" points="316.293,-44.5001 306.293,-48 316.293,-51.5001 316.293,-44.5001"/>
</g>
<!-- Node23 -->
<g id="node23" class="node"><title>Node23</title>
<g id="a_node23"><a xlink:href="../../d0/d8e/kernel__wfp__ipsec_8c.html#a457886e7bed1b52cee04b4e4fdbbb61f" target="_top" xlink:title="remove_trap">
<polygon fill="none" stroke="black" points="348.5,-0.5 348.5,-19.5 419.5,-19.5 419.5,-0.5 348.5,-0.5"/>
<text text-anchor="middle" x="384" y="-7.5" font-family="Helvetica,sans-Serif" font-size="10.00">remove_trap</text>
</a>
</g>
</g>
<!-- Node3&#45;&gt;Node23 -->
<g id="edge24" class="edge"><title>Node3&#45;&gt;Node23</title>
<path fill="none" stroke="midnightblue" d="M306.815,-35.1741C322.246,-30.0753 339.691,-24.3109 353.99,-19.5859"/>
<polygon fill="midnightblue" stroke="midnightblue" points="305.416,-31.9502 297.019,-38.411 307.613,-38.5967 305.416,-31.9502"/>
</g>
<!-- Node5 -->
<g id="node5" class="node"><title>Node5</title>
<g id="a_node5"><a xlink:href="../../d0/d8e/kernel__wfp__ipsec_8c.html#a70f4564be1ce9f4dc4a0468ca9220d53" target="_top" xlink:title="cleanup_policies">
<polygon fill="none" stroke="black" points="462.5,-152.5 462.5,-171.5 551.5,-171.5 551.5,-152.5 462.5,-152.5"/>
<text text-anchor="middle" x="507" y="-159.5" font-family="Helvetica,sans-Serif" font-size="10.00">cleanup_policies</text>
</a>
</g>
</g>
<!-- Node4&#45;&gt;Node5 -->
<g id="edge4" class="edge"><title>Node4&#45;&gt;Node5</title>
<path fill="none" stroke="midnightblue" d="M414.501,-118.897C436.578,-129.297 466.202,-143.252 485.681,-152.428"/>
<polygon fill="midnightblue" stroke="midnightblue" points="415.791,-115.636 405.253,-114.541 412.808,-121.968 415.791,-115.636"/>
</g>
<!-- Node19 -->
<g id="node19" class="node"><title>Node19</title>
<g id="a_node19"><a xlink:href="../../d0/d8e/kernel__wfp__ipsec_8c.html#aef743a375ddbe6cdfa8f20da87917d82" target="_top" xlink:title="install_tunnel">
<polygon fill="none" stroke="black" points="594,-114.5 594,-133.5 668,-133.5 668,-114.5 594,-114.5"/>
<text text-anchor="middle" x="631" y="-121.5" font-family="Helvetica,sans-Serif" font-size="10.00">install_tunnel</text>
</a>
</g>
</g>
<!-- Node4&#45;&gt;Node19 -->
<g id="edge20" class="edge"><title>Node4&#45;&gt;Node19</title>
<path fill="none" stroke="midnightblue" d="M435.753,-108.936C482.977,-112.598 552.169,-117.964 593.964,-121.205"/>
<polygon fill="midnightblue" stroke="midnightblue" points="435.973,-105.443 425.732,-108.159 435.431,-112.422 435.973,-105.443"/>
</g>
<!-- Node20 -->
<g id="node20" class="node"><title>Node20</title>
<g id="a_node20"><a xlink:href="../../d0/d8e/kernel__wfp__ipsec_8c.html#a0d1555048566b634c06ba61ce0c50b1a" target="_top" xlink:title="METHOD">
<polygon fill="none" stroke="black" points="477,-76.5 477,-95.5 537,-95.5 537,-76.5 477,-76.5"/>
<text text-anchor="middle" x="507" y="-83.5" font-family="Helvetica,sans-Serif" font-size="10.00">METHOD</text>
</a>
</g>
</g>
<!-- Node4&#45;&gt;Node20 -->
<g id="edge21" class="edge"><title>Node4&#45;&gt;Node20</title>
<path fill="none" stroke="midnightblue" d="M435.661,-97.045C449.676,-94.8443 464.415,-92.5299 476.76,-90.5914"/>
<polygon fill="midnightblue" stroke="midnightblue" points="434.964,-93.6115 425.628,-98.6204 436.05,-100.527 434.964,-93.6115"/>
</g>
<!-- Node6 -->
<g id="node6" class="node"><title>Node6</title>
<g id="a_node6"><a xlink:href="../../d0/d8e/kernel__wfp__ipsec_8c.html#a4a06503b51b54e63d646f723e951850b" target="_top" xlink:title="entry_destroy">
<polygon fill="none" stroke="black" points="593,-190.5 593,-209.5 669,-209.5 669,-190.5 593,-190.5"/>
<text text-anchor="middle" x="631" y="-197.5" font-family="Helvetica,sans-Serif" font-size="10.00">entry_destroy</text>
</a>
</g>
</g>
<!-- Node5&#45;&gt;Node6 -->
<g id="edge5" class="edge"><title>Node5&#45;&gt;Node6</title>
<path fill="none" stroke="midnightblue" d="M548.711,-174.68C565.195,-179.815 583.91,-185.644 599.224,-190.414"/>
<polygon fill="midnightblue" stroke="midnightblue" points="549.374,-171.221 538.786,-171.589 547.292,-177.905 549.374,-171.221"/>
</g>
<!-- Node11 -->
<g id="node11" class="node"><title>Node11</title>
<g id="a_node11"><a xlink:href="../../d0/d8e/kernel__wfp__ipsec_8c.html#a9b76b87fd30d49f2e13c4ceb062a2526" target="_top" xlink:title="install_transport">
<polygon fill="none" stroke="black" points="588,-152.5 588,-171.5 674,-171.5 674,-152.5 588,-152.5"/>
<text text-anchor="middle" x="631" y="-159.5" font-family="Helvetica,sans-Serif" font-size="10.00">install_transport</text>
</a>
</g>
</g>
<!-- Node5&#45;&gt;Node11 -->
<g id="edge10" class="edge"><title>Node5&#45;&gt;Node11</title>
<path fill="none" stroke="midnightblue" d="M561.801,-162C570.521,-162 579.439,-162 587.83,-162"/>
<polygon fill="midnightblue" stroke="midnightblue" points="561.7,-158.5 551.7,-162 561.7,-165.5 561.7,-158.5"/>
</g>
<!-- Node5&#45;&gt;Node19 -->
<g id="edge18" class="edge"><title>Node5&#45;&gt;Node19</title>
<path fill="none" stroke="midnightblue" d="M548.711,-149.32C565.195,-144.185 583.91,-138.356 599.224,-133.586"/>
<polygon fill="midnightblue" stroke="midnightblue" points="547.292,-146.095 538.786,-152.411 549.374,-152.779 547.292,-146.095"/>
</g>
<!-- Node7 -->
<g id="node7" class="node"><title>Node7</title>
<g id="a_node7"><a xlink:href="../../d0/d8e/kernel__wfp__ipsec_8c.html#a75627e65f4ea2ebc86082a4d0cb09b24" target="_top" xlink:title="expire_job">
<polygon fill="none" stroke="black" points="710.5,-209.5 710.5,-228.5 771.5,-228.5 771.5,-209.5 710.5,-209.5"/>
<text text-anchor="middle" x="741" y="-216.5" font-family="Helvetica,sans-Serif" font-size="10.00">expire_job</text>
</a>
</g>
</g>
<!-- Node6&#45;&gt;Node7 -->
<g id="edge6" class="edge"><title>Node6&#45;&gt;Node7</title>
<path fill="none" stroke="midnightblue" d="M679.138,-208.293C689.707,-210.152 700.634,-212.074 710.261,-213.768"/>
<polygon fill="midnightblue" stroke="midnightblue" points="679.623,-204.824 669.167,-206.539 678.41,-211.719 679.623,-204.824"/>
</g>
<!-- Node10 -->
<g id="node10" class="node"><title>Node10</title>
<g id="a_node10"><a xlink:href="../../d0/d8e/kernel__wfp__ipsec_8c.html#a5eccc88cc20112d4dcdd97ba8663f9fe" target="_top" xlink:title="METHOD">
<polygon fill="none" stroke="black" points="711,-171.5 711,-190.5 771,-190.5 771,-171.5 711,-171.5"/>
<text text-anchor="middle" x="741" y="-178.5" font-family="Helvetica,sans-Serif" font-size="10.00">METHOD</text>
</a>
</g>
</g>
<!-- Node6&#45;&gt;Node10 -->
<g id="edge9" class="edge"><title>Node6&#45;&gt;Node10</title>
<path fill="none" stroke="midnightblue" d="M679.322,-191.675C690.088,-189.781 701.214,-187.824 710.951,-186.11"/>
<polygon fill="midnightblue" stroke="midnightblue" points="678.41,-188.281 669.167,-193.461 679.623,-195.176 678.41,-188.281"/>
</g>
<!-- Node8 -->
<g id="node8" class="node"><title>Node8</title>
<g id="a_node8"><a xlink:href="../../d0/d8e/kernel__wfp__ipsec_8c.html#a317ff7c474108672c6bd290575860bdb" target="_top" xlink:title="schedule_expire">
<polygon fill="none" stroke="black" points="816.5,-209.5 816.5,-228.5 903.5,-228.5 903.5,-209.5 816.5,-209.5"/>
<text text-anchor="middle" x="860" y="-216.5" font-family="Helvetica,sans-Serif" font-size="10.00">schedule_expire</text>
</a>
</g>
</g>
<!-- Node7&#45;&gt;Node8 -->
<g id="edge7" class="edge"><title>Node7&#45;&gt;Node8</title>
<path fill="none" stroke="midnightblue" d="M781.788,-219C792.877,-219 804.969,-219 816.222,-219"/>
<polygon fill="midnightblue" stroke="midnightblue" points="781.524,-215.5 771.524,-219 781.524,-222.5 781.524,-215.5"/>
</g>
<!-- Node9 -->
<g id="node9" class="node"><title>Node9</title>
<g id="a_node9"><a xlink:href="../../d0/d8e/kernel__wfp__ipsec_8c.html#a7a0b621ad5bec9c9f0e64b015e85579b" target="_top" xlink:title="METHOD">
<polygon fill="none" stroke="black" points="967,-209.5 967,-228.5 1027,-228.5 1027,-209.5 967,-209.5"/>
<text text-anchor="middle" x="997" y="-216.5" font-family="Helvetica,sans-Serif" font-size="10.00">METHOD</text>
</a>
</g>
</g>
<!-- Node8&#45;&gt;Node9 -->
<g id="edge8" class="edge"><title>Node8&#45;&gt;Node9</title>
<path fill="none" stroke="midnightblue" d="M913.823,-219C931.838,-219 951.319,-219 966.79,-219"/>
<polygon fill="midnightblue" stroke="midnightblue" points="913.715,-215.5 903.715,-219 913.715,-222.5 913.715,-215.5"/>
</g>
<!-- Node12 -->
<g id="node12" class="node"><title>Node12</title>
<g id="a_node12"><a xlink:href="../../d0/d8e/kernel__wfp__ipsec_8c.html#a7820e93904313d83f7bcae8178e4822a" target="_top" xlink:title="install">
<polygon fill="none" stroke="black" points="720,-133.5 720,-152.5 762,-152.5 762,-133.5 720,-133.5"/>
<text text-anchor="middle" x="741" y="-140.5" font-family="Helvetica,sans-Serif" font-size="10.00">install</text>
</a>
</g>
</g>
<!-- Node11&#45;&gt;Node12 -->
<g id="edge11" class="edge"><title>Node11&#45;&gt;Node12</title>
<path fill="none" stroke="midnightblue" d="M684.171,-152.822C696.876,-150.587 709.716,-148.328 719.874,-146.541"/>
<polygon fill="midnightblue" stroke="midnightblue" points="683.307,-149.42 674.065,-154.6 684.52,-156.314 683.307,-149.42"/>
</g>
<!-- Node13 -->
<g id="node13" class="node"><title>Node13</title>
<g id="a_node13"><a xlink:href="../../d4/d3d/inactivity__job_8c.html#ae1a8f07a46de52a44dbe2b0f629b268f" target="_top" xlink:title="METHOD">
<polygon fill="none" stroke="black" points="830,-152.5 830,-171.5 890,-171.5 890,-152.5 830,-152.5"/>
<text text-anchor="middle" x="860" y="-159.5" font-family="Helvetica,sans-Serif" font-size="10.00">METHOD</text>
</a>
</g>
</g>
<!-- Node12&#45;&gt;Node13 -->
<g id="edge12" class="edge"><title>Node12&#45;&gt;Node13</title>
<path fill="none" stroke="midnightblue" d="M771.994,-147.871C789.814,-150.765 812.305,-154.417 829.955,-157.283"/>
<polygon fill="midnightblue" stroke="midnightblue" points="772.545,-144.414 762.113,-146.266 771.423,-151.324 772.545,-144.414"/>
</g>
<!-- Node14 -->
<g id="node14" class="node"><title>Node14</title>
<g id="a_node14"><a xlink:href="../../d8/dcf/vici__control_8c.html#a109fbee55e088f62e93835de06173387" target="_top" xlink:title="manage_commands">
<polygon fill="none" stroke="black" points="808,-114.5 808,-133.5 912,-133.5 912,-114.5 808,-114.5"/>
<text text-anchor="middle" x="860" y="-121.5" font-family="Helvetica,sans-Serif" font-size="10.00">manage_commands</text>
</a>
</g>
</g>
<!-- Node12&#45;&gt;Node14 -->
<g id="edge13" class="edge"><title>Node12&#45;&gt;Node14</title>
<path fill="none" stroke="midnightblue" d="M772.008,-138.127C782.967,-136.347 795.692,-134.281 807.971,-132.287"/>
<polygon fill="midnightblue" stroke="midnightblue" points="771.423,-134.676 762.113,-139.734 772.545,-141.586 771.423,-134.676"/>
</g>
<!-- Node15 -->
<g id="node15" class="node"><title>Node15</title>
<g id="a_node15"><a xlink:href="../../d8/dcf/vici__control_8c.html#a63996fa19abd48e2faf63e4fb378ef18" target="_top" xlink:title="METHOD">
<polygon fill="none" stroke="black" points="967,-133.5 967,-152.5 1027,-152.5 1027,-133.5 967,-133.5"/>
<text text-anchor="middle" x="997" y="-140.5" font-family="Helvetica,sans-Serif" font-size="10.00">METHOD</text>
</a>
</g>
</g>
<!-- Node14&#45;&gt;Node15 -->
<g id="edge14" class="edge"><title>Node14&#45;&gt;Node15</title>
<path fill="none" stroke="midnightblue" d="M922.155,-132.607C937.704,-134.795 953.706,-137.047 966.821,-138.893"/>
<polygon fill="midnightblue" stroke="midnightblue" points="922.428,-129.111 912.038,-131.183 921.452,-136.043 922.428,-129.111"/>
</g>
<!-- Node16 -->
<g id="node16" class="node"><title>Node16</title>
<g id="a_node16"><a xlink:href="../../d0/dcb/group__vici__control.html#ga9bb24cf92651f6573ebc2d32f96c2439" target="_top" xlink:title="vici_control_create">
<polygon fill="none" stroke="black" points="948,-95.5 948,-114.5 1046,-114.5 1046,-95.5 948,-95.5"/>
<text text-anchor="middle" x="997" y="-102.5" font-family="Helvetica,sans-Serif" font-size="10.00">vici_control_create</text>
</a>
</g>
</g>
<!-- Node14&#45;&gt;Node16 -->
<g id="edge15" class="edge"><title>Node14&#45;&gt;Node16</title>
<path fill="none" stroke="midnightblue" d="M921.998,-115.415C930.566,-114.209 939.275,-112.984 947.566,-111.817"/>
<polygon fill="midnightblue" stroke="midnightblue" points="921.452,-111.957 912.038,-116.817 922.428,-118.889 921.452,-111.957"/>
</g>
<!-- Node17 -->
<g id="node17" class="node"><title>Node17</title>
<g id="a_node17"><a xlink:href="../../d1/d73/vici__plugin_8c.html#a2f71c61365cc9ae07eca95d2cec1c305" target="_top" xlink:title="register_vici">
<polygon fill="none" stroke="black" points="1082.5,-95.5 1082.5,-114.5 1151.5,-114.5 1151.5,-95.5 1082.5,-95.5"/>
<text text-anchor="middle" x="1117" y="-102.5" font-family="Helvetica,sans-Serif" font-size="10.00">register_vici</text>
</a>
</g>
</g>
<!-- Node16&#45;&gt;Node17 -->
<g id="edge16" class="edge"><title>Node16&#45;&gt;Node17</title>
<path fill="none" stroke="midnightblue" d="M1056.35,-105C1065.27,-105 1074.2,-105 1082.35,-105"/>
<polygon fill="midnightblue" stroke="midnightblue" points="1056.34,-101.5 1046.34,-105 1056.34,-108.5 1056.34,-101.5"/>
</g>
<!-- Node18 -->
<g id="node18" class="node"><title>Node18</title>
<g id="a_node18"><a xlink:href="../../d1/d73/vici__plugin_8c.html#a0fb4568098134ff06cea5d8cbca4cc84" target="_top" xlink:title="METHOD">
<polygon fill="none" stroke="black" points="1188,-95.5 1188,-114.5 1248,-114.5 1248,-95.5 1188,-95.5"/>
<text text-anchor="middle" x="1218" y="-102.5" font-family="Helvetica,sans-Serif" font-size="10.00">METHOD</text>
</a>
</g>
</g>
<!-- Node17&#45;&gt;Node18 -->
<g id="edge17" class="edge"><title>Node17&#45;&gt;Node18</title>
<path fill="none" stroke="midnightblue" d="M1161.71,-105C1170.55,-105 1179.63,-105 1187.82,-105"/>
<polygon fill="midnightblue" stroke="midnightblue" points="1161.52,-101.5 1151.52,-105 1161.52,-108.5 1161.52,-101.5"/>
</g>
<!-- Node19&#45;&gt;Node12 -->
<g id="edge19" class="edge"><title>Node19&#45;&gt;Node12</title>
<path fill="none" stroke="midnightblue" d="M678.145,-132.118C692.674,-134.674 707.979,-137.367 719.73,-139.434"/>
<polygon fill="midnightblue" stroke="midnightblue" points="678.718,-128.665 668.263,-130.38 677.505,-135.559 678.718,-128.665"/>
</g>
<!-- Node22 -->
<g id="node22" class="node"><title>Node22</title>
<g id="a_node22"><a xlink:href="../../d0/d8e/kernel__wfp__ipsec_8c.html#ace53fc75bc5eb37166ba62b6c7810091" target="_top" xlink:title="METHOD">
<polygon fill="none" stroke="black" points="477,-38.5 477,-57.5 537,-57.5 537,-38.5 477,-38.5"/>
<text text-anchor="middle" x="507" y="-45.5" font-family="Helvetica,sans-Serif" font-size="10.00">METHOD</text>
</a>
</g>
</g>
<!-- Node21&#45;&gt;Node22 -->
<g id="edge23" class="edge"><title>Node21&#45;&gt;Node22</title>
<path fill="none" stroke="midnightblue" d="M421.268,-48C439.029,-48 460.127,-48 476.827,-48"/>
<polygon fill="midnightblue" stroke="midnightblue" points="421.255,-44.5001 411.255,-48 421.255,-51.5001 421.255,-44.5001"/>
</g>
<!-- Node24 -->
<g id="node24" class="node"><title>Node24</title>
<g id="a_node24"><a xlink:href="../../d0/d8e/kernel__wfp__ipsec_8c.html#a6376ac55932fdb0dc52cd247288a81f1" target="_top" xlink:title="METHOD">
<polygon fill="none" stroke="black" points="477,-0.5 477,-19.5 537,-19.5 537,-0.5 477,-0.5"/>
<text text-anchor="middle" x="507" y="-7.5" font-family="Helvetica,sans-Serif" font-size="10.00">METHOD</text>
</a>
</g>
</g>
<!-- Node23&#45;&gt;Node24 -->
<g id="edge25" class="edge"><title>Node23&#45;&gt;Node24</title>
<path fill="none" stroke="midnightblue" d="M429.702,-10C445.369,-10 462.557,-10 476.645,-10"/>
<polygon fill="midnightblue" stroke="midnightblue" points="429.674,-6.5001 419.674,-10 429.674,-13.5001 429.674,-6.5001"/>
</g>
<!-- Node25&#45;&gt;Node3 -->
<g id="edge27" class="edge"><title>Node25&#45;&gt;Node3</title>
<path fill="none" stroke="midnightblue" d="M202.088,-37.2537C210.638,-38.6913 219.418,-40.1677 227.628,-41.548"/>
<polygon fill="midnightblue" stroke="midnightblue" points="202.647,-33.7986 192.205,-35.592 201.486,-40.7017 202.647,-33.7986"/>
</g>
</g>
</svg>
