<?xml version="1.0" encoding="UTF-8" standalone="no"?>
<!DOCTYPE svg PUBLIC "-//W3C//DTD SVG 1.1//EN"
 "http://www.w3.org/Graphics/SVG/1.1/DTD/svg11.dtd">
<!-- Generated by graphviz version 2.36.0 (20140111.2315)
 -->
<!-- Title: hosts2traffic Pages: 1 -->
<svg width="284pt" height="47pt"
 viewBox="0.00 0.00 284.00 47.00" xmlns="http://www.w3.org/2000/svg" xmlns:xlink="http://www.w3.org/1999/xlink">
<g id="graph0" class="graph" transform="scale(1 1) rotate(0) translate(4 43)">
<title>hosts2traffic</title>
<!-- Node1 -->
<g id="node1" class="node"><title>Node1</title>
<polygon fill="#bfbfbf" stroke="black" points="0.5,-0.5 0.5,-19.5 71.5,-19.5 71.5,-0.5 0.5,-0.5"/>
<text text-anchor="middle" x="36" y="-7.5" font-family="Helvetica,sans-Serif" font-size="10.00">hosts2traffic</text>
</g>
<!-- Node2 -->
<g id="node2" class="node"><title>Node2</title>
<g id="a_node2"><a xlink:href="../../d0/d8e/kernel__wfp__ipsec_8c.html#ad8f9f73b1daa0a3f57389fae0095856f" target="_top" xlink:title="host2address6">
<polygon fill="none" stroke="black" points="108,-19.5 108,-38.5 188,-38.5 188,-19.5 108,-19.5"/>
<text text-anchor="middle" x="148" y="-26.5" font-family="Helvetica,sans-Serif" font-size="10.00">host2address6</text>
</a>
</g>
</g>
<!-- Node1&#45;&gt;Node2 -->
<g id="edge1" class="edge"><title>Node1&#45;&gt;Node2</title>
<path fill="none" stroke="midnightblue" d="M71.5029,-15.9596C79.8345,-17.3987 88.8985,-18.9643 97.7607,-20.495"/>
<polygon fill="midnightblue" stroke="midnightblue" points="97.1811,-23.9467 107.631,-22.1999 98.3726,-17.0488 97.1811,-23.9467"/>
</g>
<!-- Node3 -->
<g id="node3" class="node"><title>Node3</title>
<g id="a_node3"><a xlink:href="../../da/da5/group__byteorder__i.html#ga439355baab5e35d632f86318c8330043" target="_top" xlink:title="untoh32">
<polygon fill="none" stroke="black" points="224.5,-0.5 224.5,-19.5 275.5,-19.5 275.5,-0.5 224.5,-0.5"/>
<text text-anchor="middle" x="250" y="-7.5" font-family="Helvetica,sans-Serif" font-size="10.00">untoh32</text>
</a>
</g>
</g>
<!-- Node1&#45;&gt;Node3 -->
<g id="edge3" class="edge"><title>Node1&#45;&gt;Node3</title>
<path fill="none" stroke="midnightblue" d="M71.5333,-10C110.869,-10 174.783,-10 214.221,-10"/>
<polygon fill="midnightblue" stroke="midnightblue" points="214.414,-13.5001 224.414,-10 214.414,-6.5001 214.414,-13.5001"/>
</g>
<!-- Node2&#45;&gt;Node3 -->
<g id="edge2" class="edge"><title>Node2&#45;&gt;Node3</title>
<path fill="none" stroke="midnightblue" d="M188.236,-21.5452C196.872,-19.9044 205.957,-18.1781 214.395,-16.5749"/>
<polygon fill="midnightblue" stroke="midnightblue" points="215.121,-19.9997 224.292,-14.6945 213.814,-13.1227 215.121,-19.9997"/>
</g>
</g>
</svg>
