<?xml version="1.0" encoding="UTF-8" standalone="no"?>
<!DOCTYPE svg PUBLIC "-//W3C//DTD SVG 1.1//EN"
 "http://www.w3.org/Graphics/SVG/1.1/DTD/svg11.dtd">
<!-- Generated by graphviz version 2.36.0 (20140111.2315)
 -->
<!-- Title: hash_route Pages: 1 -->
<svg width="332pt" height="28pt"
 viewBox="0.00 0.00 332.00 28.00" xmlns="http://www.w3.org/2000/svg" xmlns:xlink="http://www.w3.org/1999/xlink">
<g id="graph0" class="graph" transform="scale(1 1) rotate(0) translate(4 24)">
<title>hash_route</title>
<!-- Node1 -->
<g id="node1" class="node"><title>Node1</title>
<polygon fill="#bfbfbf" stroke="black" points="0.5,-0.5 0.5,-19.5 65.5,-19.5 65.5,-0.5 0.5,-0.5"/>
<text text-anchor="middle" x="33" y="-7.5" font-family="Helvetica,sans-Serif" font-size="10.00">hash_route</text>
</g>
<!-- Node2 -->
<g id="node2" class="node"><title>Node2</title>
<g id="a_node2"><a xlink:href="../../da/d60/group__kernel__wfp__ipsec.html#ga406325dc4fe3d10bc493ade0c15780ac" target="_top" xlink:title="kernel_wfp_ipsec_create">
<polygon fill="none" stroke="black" points="102.5,-0.5 102.5,-19.5 227.5,-19.5 227.5,-0.5 102.5,-0.5"/>
<text text-anchor="middle" x="165" y="-7.5" font-family="Helvetica,sans-Serif" font-size="10.00">kernel_wfp_ipsec_create</text>
</a>
</g>
</g>
<!-- Node1&#45;&gt;Node2 -->
<g id="edge1" class="edge"><title>Node1&#45;&gt;Node2</title>
<path fill="none" stroke="midnightblue" d="M76.0553,-10C84.4364,-10 93.4014,-10 102.284,-10"/>
<polygon fill="midnightblue" stroke="midnightblue" points="75.8016,-6.5001 65.8016,-10 75.8015,-13.5001 75.8016,-6.5001"/>
</g>
<!-- Node3 -->
<g id="node3" class="node"><title>Node3</title>
<g id="a_node3"><a xlink:href="../../d4/d31/kernel__wfp__plugin_8c.html#af155e795fa42116c0c890ca5a76c7ac0" target="_top" xlink:title="METHOD">
<polygon fill="none" stroke="black" points="264,-0.5 264,-19.5 324,-19.5 324,-0.5 264,-0.5"/>
<text text-anchor="middle" x="294" y="-7.5" font-family="Helvetica,sans-Serif" font-size="10.00">METHOD</text>
</a>
</g>
</g>
<!-- Node2&#45;&gt;Node3 -->
<g id="edge2" class="edge"><title>Node2&#45;&gt;Node3</title>
<path fill="none" stroke="midnightblue" d="M237.695,-10C246.912,-10 255.895,-10 263.849,-10"/>
<polygon fill="midnightblue" stroke="midnightblue" points="237.64,-6.5001 227.64,-10 237.64,-13.5001 237.64,-6.5001"/>
</g>
</g>
</svg>
