<?xml version="1.0" encoding="UTF-8" standalone="no"?>
<!DOCTYPE svg PUBLIC "-//W3C//DTD SVG 1.1//EN"
 "http://www.w3.org/Graphics/SVG/1.1/DTD/svg11.dtd">
<!-- Generated by graphviz version 2.36.0 (20140111.2315)
 -->
<!-- Title: acquire Pages: 1 -->
<svg width="558pt" height="185pt"
 viewBox="0.00 0.00 558.00 185.00" xmlns="http://www.w3.org/2000/svg" xmlns:xlink="http://www.w3.org/1999/xlink">
<g id="graph0" class="graph" transform="scale(1 1) rotate(0) translate(4 181)">
<title>acquire</title>
<!-- Node1 -->
<g id="node1" class="node"><title>Node1</title>
<polygon fill="#bfbfbf" stroke="black" points="0,-62.5 0,-81.5 48,-81.5 48,-62.5 0,-62.5"/>
<text text-anchor="middle" x="24" y="-69.5" font-family="Helvetica,sans-Serif" font-size="10.00">acquire</text>
</g>
<!-- Node2 -->
<g id="node2" class="node"><title>Node2</title>
<g id="a_node2"><a xlink:href="../../d4/d6d/trap__manager_8c.html#aca5803084aebbae35e9d54299b3883c1" target="_top" xlink:title="complete">
<polygon fill="none" stroke="black" points="100,-119.5 100,-138.5 156,-138.5 156,-119.5 100,-119.5"/>
<text text-anchor="middle" x="128" y="-126.5" font-family="Helvetica,sans-Serif" font-size="10.00">complete</text>
</a>
</g>
</g>
<!-- Node1&#45;&gt;Node2 -->
<g id="edge1" class="edge"><title>Node1&#45;&gt;Node2</title>
<path fill="none" stroke="midnightblue" d="M47.1416,-87.4289C58.0049,-94.6937 71.4301,-103.229 84,-110 90.1794,-113.329 97.0597,-116.565 103.473,-119.396"/>
<polygon fill="midnightblue" stroke="midnightblue" points="48.9329,-84.4146 38.6939,-81.6917 45.0001,-90.2054 48.9329,-84.4146"/>
</g>
<!-- Node6 -->
<g id="node6" class="node"><title>Node6</title>
<g id="a_node6"><a xlink:href="../../d0/d8e/kernel__wfp__ipsec_8c.html#ab48cc4d33c538fd630aedbe3c0ca1638" target="_top" xlink:title="event_callback">
<polygon fill="none" stroke="black" points="87,-81.5 87,-100.5 169,-100.5 169,-81.5 87,-81.5"/>
<text text-anchor="middle" x="128" y="-88.5" font-family="Helvetica,sans-Serif" font-size="10.00">event_callback</text>
</a>
</g>
</g>
<!-- Node1&#45;&gt;Node6 -->
<g id="edge5" class="edge"><title>Node1&#45;&gt;Node6</title>
<path fill="none" stroke="midnightblue" d="M58.0254,-78.1518C67.1759,-79.8563 77.2117,-81.7257 86.7258,-83.4979"/>
<polygon fill="midnightblue" stroke="midnightblue" points="58.6172,-74.7019 48.1454,-76.3114 57.3353,-81.5835 58.6172,-74.7019"/>
</g>
<!-- Node10 -->
<g id="node10" class="node"><title>Node10</title>
<g id="a_node10"><a xlink:href="../../d4/d6d/trap__manager_8c.html#a62ddd92b4635e14e6d52eaf82c8778de" target="_top" xlink:title="METHOD">
<polygon fill="none" stroke="black" points="98,-43.5 98,-62.5 158,-62.5 158,-43.5 98,-43.5"/>
<text text-anchor="middle" x="128" y="-50.5" font-family="Helvetica,sans-Serif" font-size="10.00">METHOD</text>
</a>
</g>
</g>
<!-- Node1&#45;&gt;Node10 -->
<g id="edge9" class="edge"><title>Node1&#45;&gt;Node10</title>
<path fill="none" stroke="midnightblue" d="M58.3453,-65.7886C71.053,-63.4215 85.429,-60.7436 97.7303,-58.4522"/>
<polygon fill="midnightblue" stroke="midnightblue" points="57.3353,-62.4165 48.1454,-67.6886 58.6172,-69.2981 57.3353,-62.4165"/>
</g>
<!-- Node11 -->
<g id="node11" class="node"><title>Node11</title>
<g id="a_node11"><a xlink:href="../../d5/d47/kernel__netlink__ipsec_8c.html#abe04cb8843022c85f67ad24a642d3042" target="_top" xlink:title="process_acquire">
<polygon fill="none" stroke="black" points="84,-5.5 84,-24.5 172,-24.5 172,-5.5 84,-5.5"/>
<text text-anchor="middle" x="128" y="-12.5" font-family="Helvetica,sans-Serif" font-size="10.00">process_acquire</text>
</a>
</g>
</g>
<!-- Node1&#45;&gt;Node11 -->
<g id="edge10" class="edge"><title>Node1&#45;&gt;Node11</title>
<path fill="none" stroke="midnightblue" d="M47.1416,-56.5711C58.0049,-49.3063 71.4301,-40.7715 84,-34 90.1794,-30.6712 97.0597,-27.4347 103.473,-24.6041"/>
<polygon fill="midnightblue" stroke="midnightblue" points="45.0001,-53.7946 38.6939,-62.3083 48.9329,-59.5854 45.0001,-53.7946"/>
</g>
<!-- Node3 -->
<g id="node3" class="node"><title>Node3</title>
<g id="a_node3"><a xlink:href="../../d0/d6d/message_8c.html#a48b41cdef3c57a4d00b378e7d9da1f8b" target="_top" xlink:title="verify">
<polygon fill="none" stroke="black" points="229.5,-157.5 229.5,-176.5 270.5,-176.5 270.5,-157.5 229.5,-157.5"/>
<text text-anchor="middle" x="250" y="-164.5" font-family="Helvetica,sans-Serif" font-size="10.00">verify</text>
</a>
</g>
</g>
<!-- Node2&#45;&gt;Node3 -->
<g id="edge2" class="edge"><title>Node2&#45;&gt;Node3</title>
<path fill="none" stroke="midnightblue" d="M165.799,-140.653C186.753,-147.289 212.17,-155.337 229.354,-160.779"/>
<polygon fill="midnightblue" stroke="midnightblue" points="166.82,-137.305 156.23,-137.623 164.707,-143.978 166.82,-137.305"/>
</g>
<!-- Node5 -->
<g id="node5" class="node"><title>Node5</title>
<g id="a_node5"><a xlink:href="../../d4/d6d/trap__manager_8c.html#ac518a7e5b068112663da397153ed4fc6" target="_top" xlink:title="METHOD">
<polygon fill="none" stroke="black" points="220,-119.5 220,-138.5 280,-138.5 280,-119.5 220,-119.5"/>
<text text-anchor="middle" x="250" y="-126.5" font-family="Helvetica,sans-Serif" font-size="10.00">METHOD</text>
</a>
</g>
</g>
<!-- Node2&#45;&gt;Node5 -->
<g id="edge4" class="edge"><title>Node2&#45;&gt;Node5</title>
<path fill="none" stroke="midnightblue" d="M166.495,-129C183.679,-129 203.742,-129 219.781,-129"/>
<polygon fill="midnightblue" stroke="midnightblue" points="166.23,-125.5 156.23,-129 166.23,-132.5 166.23,-125.5"/>
</g>
<!-- Node4 -->
<g id="node4" class="node"><title>Node4</title>
<g id="a_node4"><a xlink:href="../../d0/d6d/message_8c.html#a0d3da12f5f1d7965d8bd7c39a0ee10fd" target="_top" xlink:title="METHOD">
<polygon fill="none" stroke="black" points="361,-157.5 361,-176.5 421,-176.5 421,-157.5 361,-157.5"/>
<text text-anchor="middle" x="391" y="-164.5" font-family="Helvetica,sans-Serif" font-size="10.00">METHOD</text>
</a>
</g>
</g>
<!-- Node3&#45;&gt;Node4 -->
<g id="edge3" class="edge"><title>Node3&#45;&gt;Node4</title>
<path fill="none" stroke="midnightblue" d="M280.767,-167C304.411,-167 337.294,-167 360.791,-167"/>
<polygon fill="midnightblue" stroke="midnightblue" points="280.621,-163.5 270.62,-167 280.62,-170.5 280.621,-163.5"/>
</g>
<!-- Node7 -->
<g id="node7" class="node"><title>Node7</title>
<g id="a_node7"><a xlink:href="../../d0/d8e/kernel__wfp__ipsec_8c.html#aaf9e8029a793ce029a10f0e2a14fe1ff" target="_top" xlink:title="register_events">
<polygon fill="none" stroke="black" points="208.5,-81.5 208.5,-100.5 291.5,-100.5 291.5,-81.5 208.5,-81.5"/>
<text text-anchor="middle" x="250" y="-88.5" font-family="Helvetica,sans-Serif" font-size="10.00">register_events</text>
</a>
</g>
</g>
<!-- Node6&#45;&gt;Node7 -->
<g id="edge6" class="edge"><title>Node6&#45;&gt;Node7</title>
<path fill="none" stroke="midnightblue" d="M179.501,-91C189.073,-91 198.975,-91 208.201,-91"/>
<polygon fill="midnightblue" stroke="midnightblue" points="179.292,-87.5001 169.292,-91 179.292,-94.5001 179.292,-87.5001"/>
</g>
<!-- Node8 -->
<g id="node8" class="node"><title>Node8</title>
<g id="a_node8"><a xlink:href="../../da/d60/group__kernel__wfp__ipsec.html#ga406325dc4fe3d10bc493ade0c15780ac" target="_top" xlink:title="kernel_wfp_ipsec_create">
<polygon fill="none" stroke="black" points="328.5,-81.5 328.5,-100.5 453.5,-100.5 453.5,-81.5 328.5,-81.5"/>
<text text-anchor="middle" x="391" y="-88.5" font-family="Helvetica,sans-Serif" font-size="10.00">kernel_wfp_ipsec_create</text>
</a>
</g>
</g>
<!-- Node7&#45;&gt;Node8 -->
<g id="edge7" class="edge"><title>Node7&#45;&gt;Node8</title>
<path fill="none" stroke="midnightblue" d="M301.585,-91C310.309,-91 319.463,-91 328.438,-91"/>
<polygon fill="midnightblue" stroke="midnightblue" points="301.578,-87.5001 291.578,-91 301.578,-94.5001 301.578,-87.5001"/>
</g>
<!-- Node9 -->
<g id="node9" class="node"><title>Node9</title>
<g id="a_node9"><a xlink:href="../../d4/d31/kernel__wfp__plugin_8c.html#af155e795fa42116c0c890ca5a76c7ac0" target="_top" xlink:title="METHOD">
<polygon fill="none" stroke="black" points="490,-81.5 490,-100.5 550,-100.5 550,-81.5 490,-81.5"/>
<text text-anchor="middle" x="520" y="-88.5" font-family="Helvetica,sans-Serif" font-size="10.00">METHOD</text>
</a>
</g>
</g>
<!-- Node8&#45;&gt;Node9 -->
<g id="edge8" class="edge"><title>Node8&#45;&gt;Node9</title>
<path fill="none" stroke="midnightblue" d="M463.695,-91C472.912,-91 481.895,-91 489.849,-91"/>
<polygon fill="midnightblue" stroke="midnightblue" points="463.64,-87.5001 453.64,-91 463.64,-94.5001 463.64,-87.5001"/>
</g>
<!-- Node12 -->
<g id="node12" class="node"><title>Node12</title>
<g id="a_node12"><a xlink:href="../../d5/d47/kernel__netlink__ipsec_8c.html#a84660b36c3e23554b6792929dc691cb9" target="_top" xlink:title="receive_events">
<polygon fill="none" stroke="black" points="208.5,-5.5 208.5,-24.5 291.5,-24.5 291.5,-5.5 208.5,-5.5"/>
<text text-anchor="middle" x="250" y="-12.5" font-family="Helvetica,sans-Serif" font-size="10.00">receive_events</text>
</a>
</g>
</g>
<!-- Node11&#45;&gt;Node12 -->
<g id="edge11" class="edge"><title>Node11&#45;&gt;Node12</title>
<path fill="none" stroke="midnightblue" d="M182.352,-15C191.007,-15 199.848,-15 208.143,-15"/>
<polygon fill="midnightblue" stroke="midnightblue" points="182.323,-11.5001 172.323,-15 182.323,-18.5001 182.323,-11.5001"/>
</g>
<!-- Node13 -->
<g id="node13" class="node"><title>Node13</title>
<g id="a_node13"><a xlink:href="../../d6/dd4/group__kernel__netlink__ipsec__i.html#ga007e7cef3af2fab3a400e2f327d2d72d" target="_top" xlink:title="kernel_netlink_ipsec\l_create">
<polygon fill="none" stroke="black" points="338.5,-0 338.5,-30 443.5,-30 443.5,-0 338.5,-0"/>
<text text-anchor="start" x="346.5" y="-18" font-family="Helvetica,sans-Serif" font-size="10.00">kernel_netlink_ipsec</text>
<text text-anchor="middle" x="391" y="-7" font-family="Helvetica,sans-Serif" font-size="10.00">_create</text>
</a>
</g>
</g>
<!-- Node12&#45;&gt;Node13 -->
<g id="edge12" class="edge"><title>Node12&#45;&gt;Node13</title>
<path fill="none" stroke="midnightblue" d="M301.828,-15C313.769,-15 326.504,-15 338.475,-15"/>
<polygon fill="midnightblue" stroke="midnightblue" points="301.578,-11.5001 291.578,-15 301.578,-18.5001 301.578,-11.5001"/>
</g>
<!-- Node14 -->
<g id="node14" class="node"><title>Node14</title>
<g id="a_node14"><a xlink:href="../../da/d4c/kernel__netlink__plugin_8c.html#afff6cb796b37dd206b1f16ec44e924d0" target="_top" xlink:title="METHOD">
<polygon fill="none" stroke="black" points="490,-5.5 490,-24.5 550,-24.5 550,-5.5 490,-5.5"/>
<text text-anchor="middle" x="520" y="-12.5" font-family="Helvetica,sans-Serif" font-size="10.00">METHOD</text>
</a>
</g>
</g>
<!-- Node13&#45;&gt;Node14 -->
<g id="edge13" class="edge"><title>Node13&#45;&gt;Node14</title>
<path fill="none" stroke="midnightblue" d="M453.748,-15C466.404,-15 479.154,-15 489.983,-15"/>
<polygon fill="midnightblue" stroke="midnightblue" points="453.656,-11.5001 443.656,-15 453.656,-18.5001 453.656,-11.5001"/>
</g>
</g>
</svg>
