<?xml version="1.0" encoding="UTF-8" standalone="no"?>
<!DOCTYPE svg PUBLIC "-//W3C//DTD SVG 1.1//EN"
 "http://www.w3.org/Graphics/SVG/1.1/DTD/svg11.dtd">
<!-- Generated by graphviz version 2.36.0 (20140111.2315)
 -->
<!-- Title: find_callout Pages: 1 -->
<!--zoomable 85 -->
<svg id="main" version="1.1" xmlns="http://www.w3.org/2000/svg" xmlns:xlink="http://www.w3.org/1999/xlink" xml:space="preserve" onload="init(evt)">
<style type="text/css"><![CDATA[
.edge:hover path { stroke: red; }
.edge:hover polygon { stroke: red; fill: red; }
]]></style>
<script type="text/javascript"><![CDATA[
var edges = document.getElementsByTagName('g');
if (edges && edges.length) {
  for (var i=0;i<edges.length;i++) {
    if (edges[i].id.substr(0,4)=='edge') {
      edges[i].setAttribute('class','edge');
    }
  }
}
]]></script>
        <defs>
                <circle id="rim" cx="0" cy="0" r="7"/>
                <circle id="rim2" cx="0" cy="0" r="3.5"/>
                <g id="zoomPlus">
                        <use xlink:href="#rim" fill="#404040">
                                <set attributeName="fill" to="#808080" begin="zoomplus.mouseover" end="zoomplus.mouseout"/>
                        </use>
                        <path d="M-4,0h8M0,-4v8" fill="none" stroke="white" stroke-width="1.5" pointer-events="none"/>
                </g>
                <g id="zoomMin">
                        <use xlink:href="#rim" fill="#404040">
                                <set attributeName="fill" to="#808080" begin="zoomminus.mouseover" end="zoomminus.mouseout"/>
                        </use>
                        <path d="M-4,0h8" fill="none" stroke="white" stroke-width="1.5" pointer-events="none"/>
                </g>
                <g id="dirArrow">
                        <path fill="none" stroke="white" stroke-width="1.5" d="M0,-3.0v7 M-2.5,-0.5L0,-3.0L2.5,-0.5"/>
                </g>
               <g id="resetDef">
                       <use xlink:href="#rim2" fill="#404040">
                               <set attributeName="fill" to="#808080" begin="reset.mouseover" end="reset.mouseout"/>
                       </use>
               </g>
        </defs>

<script type="text/javascript">
var viewWidth = 1098;
var viewHeight = 85;
var sectionId = 'dynsection-32';
</script>
<script xlink:href="../../svgpan.js"/>
<svg id="graph" class="graph">
<g id="viewport">
<title>find_callout</title>
<!-- Node1 -->
<g id="node1" class="node"><title>Node1</title>
<polygon fill="#bfbfbf" stroke="black" points="0,-38.5 0,-57.5 66,-57.5 66,-38.5 0,-38.5"/>
<text text-anchor="middle" x="33" y="-45.5" font-family="Helvetica,sans-Serif" font-size="10.00">find_callout</text>
</g>
<!-- Node2 -->
<g id="node2" class="node"><title>Node2</title>
<g id="a_node2"><a xlink:href="../../d0/d8e/kernel__wfp__ipsec_8c.html#ac212eb7132a477d802d4c699f2660913" target="_top" xlink:title="install_ipip_ale">
<polygon fill="none" stroke="black" points="102,-57.5 102,-76.5 182,-76.5 182,-57.5 102,-57.5"/>
<text text-anchor="middle" x="142" y="-64.5" font-family="Helvetica,sans-Serif" font-size="10.00">install_ipip_ale</text>
</a>
</g>
</g>
<!-- Node1&#45;&gt;Node2 -->
<g id="edge1" class="edge"><title>Node1&#45;&gt;Node2</title>
<path fill="none" stroke="midnightblue" d="M76.1348,-55.4819C84.5684,-56.9794 93.3971,-58.5471 101.729,-60.0267"/>
<polygon fill="midnightblue" stroke="midnightblue" points="76.5615,-52.003 66.1035,-53.7006 75.3376,-58.8952 76.5615,-52.003"/>
</g>
<!-- Node14 -->
<g id="node14" class="node"><title>Node14</title>
<g id="a_node14"><a xlink:href="../../d0/d8e/kernel__wfp__ipsec_8c.html#aba16ffb49570953d455414a11d944bcc" target="_top" xlink:title="install_sp">
<polygon fill="none" stroke="black" points="113,-19.5 113,-38.5 171,-38.5 171,-19.5 113,-19.5"/>
<text text-anchor="middle" x="142" y="-26.5" font-family="Helvetica,sans-Serif" font-size="10.00">install_sp</text>
</a>
</g>
</g>
<!-- Node1&#45;&gt;Node14 -->
<g id="edge14" class="edge"><title>Node1&#45;&gt;Node14</title>
<path fill="none" stroke="midnightblue" d="M76.199,-40.5067C88.5249,-38.318 101.689,-35.9804 112.911,-33.9878"/>
<polygon fill="midnightblue" stroke="midnightblue" points="75.3376,-37.1048 66.1035,-42.2994 76.5615,-43.997 75.3376,-37.1048"/>
</g>
<!-- Node3 -->
<g id="node3" class="node"><title>Node3</title>
<g id="a_node3"><a xlink:href="../../d0/d8e/kernel__wfp__ipsec_8c.html#a424060de2d0334bc56bccfbaeb6d1fac" target="_top" xlink:title="install_sps">
<polygon fill="none" stroke="black" points="218.5,-38.5 218.5,-57.5 281.5,-57.5 281.5,-38.5 218.5,-38.5"/>
<text text-anchor="middle" x="250" y="-45.5" font-family="Helvetica,sans-Serif" font-size="10.00">install_sps</text>
</a>
</g>
</g>
<!-- Node2&#45;&gt;Node3 -->
<g id="edge2" class="edge"><title>Node2&#45;&gt;Node3</title>
<path fill="none" stroke="midnightblue" d="M192.113,-58.1968C201.023,-56.5997 210.08,-54.9762 218.27,-53.5081"/>
<polygon fill="midnightblue" stroke="midnightblue" points="191.395,-54.7696 182.169,-59.9791 192.63,-61.6598 191.395,-54.7696"/>
</g>
<!-- Node4 -->
<g id="node4" class="node"><title>Node4</title>
<g id="a_node4"><a xlink:href="../../d0/d8e/kernel__wfp__ipsec_8c.html#a9b76b87fd30d49f2e13c4ceb062a2526" target="_top" xlink:title="install_transport">
<polygon fill="none" stroke="black" points="450,-57.5 450,-76.5 536,-76.5 536,-57.5 450,-57.5"/>
<text text-anchor="middle" x="493" y="-64.5" font-family="Helvetica,sans-Serif" font-size="10.00">install_transport</text>
</a>
</g>
</g>
<!-- Node3&#45;&gt;Node4 -->
<g id="edge3" class="edge"><title>Node3&#45;&gt;Node4</title>
<path fill="none" stroke="midnightblue" d="M291.547,-51.1967C335.401,-54.654 405,-60.141 449.573,-63.6551"/>
<polygon fill="midnightblue" stroke="midnightblue" points="291.767,-47.7032 281.523,-50.4064 291.217,-54.6816 291.767,-47.7032"/>
</g>
<!-- Node12 -->
<g id="node12" class="node"><title>Node12</title>
<g id="a_node12"><a xlink:href="../../d0/d8e/kernel__wfp__ipsec_8c.html#a6353e1937d8b11913cae3f2635c35bcc" target="_top" xlink:title="install_tunnel_sps">
<polygon fill="none" stroke="black" points="318.5,-19.5 318.5,-38.5 413.5,-38.5 413.5,-19.5 318.5,-19.5"/>
<text text-anchor="middle" x="366" y="-26.5" font-family="Helvetica,sans-Serif" font-size="10.00">install_tunnel_sps</text>
</a>
</g>
</g>
<!-- Node3&#45;&gt;Node12 -->
<g id="edge11" class="edge"><title>Node3&#45;&gt;Node12</title>
<path fill="none" stroke="midnightblue" d="M291.492,-41.2513C300.23,-39.7949 309.535,-38.2441 318.483,-36.7529"/>
<polygon fill="midnightblue" stroke="midnightblue" points="290.838,-37.8119 281.55,-42.9083 291.989,-44.7167 290.838,-37.8119"/>
</g>
<!-- Node5 -->
<g id="node5" class="node"><title>Node5</title>
<g id="a_node5"><a xlink:href="../../d0/d8e/kernel__wfp__ipsec_8c.html#a7820e93904313d83f7bcae8178e4822a" target="_top" xlink:title="install">
<polygon fill="none" stroke="black" points="572,-38.5 572,-57.5 614,-57.5 614,-38.5 572,-38.5"/>
<text text-anchor="middle" x="593" y="-45.5" font-family="Helvetica,sans-Serif" font-size="10.00">install</text>
</a>
</g>
</g>
<!-- Node4&#45;&gt;Node5 -->
<g id="edge4" class="edge"><title>Node4&#45;&gt;Node5</title>
<path fill="none" stroke="midnightblue" d="M546.117,-56.8957C555.325,-55.1105 564.385,-53.3538 571.991,-51.8793"/>
<polygon fill="midnightblue" stroke="midnightblue" points="545.281,-53.4926 536.13,-58.832 546.613,-60.3646 545.281,-53.4926"/>
</g>
<!-- Node6 -->
<g id="node6" class="node"><title>Node6</title>
<g id="a_node6"><a xlink:href="../../d4/d3d/inactivity__job_8c.html#ae1a8f07a46de52a44dbe2b0f629b268f" target="_top" xlink:title="METHOD">
<polygon fill="none" stroke="black" points="672,-57.5 672,-76.5 732,-76.5 732,-57.5 672,-57.5"/>
<text text-anchor="middle" x="702" y="-64.5" font-family="Helvetica,sans-Serif" font-size="10.00">METHOD</text>
</a>
</g>
</g>
<!-- Node5&#45;&gt;Node6 -->
<g id="edge5" class="edge"><title>Node5&#45;&gt;Node6</title>
<path fill="none" stroke="midnightblue" d="M624.326,-53.385C639.169,-56.0207 656.962,-59.1801 671.669,-61.7917"/>
<polygon fill="midnightblue" stroke="midnightblue" points="624.584,-49.8761 614.126,-51.5738 623.36,-56.7683 624.584,-49.8761"/>
</g>
<!-- Node7 -->
<g id="node7" class="node"><title>Node7</title>
<g id="a_node7"><a xlink:href="../../d8/dcf/vici__control_8c.html#a109fbee55e088f62e93835de06173387" target="_top" xlink:title="manage_commands">
<polygon fill="none" stroke="black" points="650,-19.5 650,-38.5 754,-38.5 754,-19.5 650,-19.5"/>
<text text-anchor="middle" x="702" y="-26.5" font-family="Helvetica,sans-Serif" font-size="10.00">manage_commands</text>
</a>
</g>
</g>
<!-- Node5&#45;&gt;Node7 -->
<g id="edge6" class="edge"><title>Node5&#45;&gt;Node7</title>
<path fill="none" stroke="midnightblue" d="M624.088,-42.6573C632.11,-41.2328 641.008,-39.6528 649.821,-38.0879"/>
<polygon fill="midnightblue" stroke="midnightblue" points="623.36,-39.2317 614.126,-44.4262 624.584,-46.1239 623.36,-39.2317"/>
</g>
<!-- Node8 -->
<g id="node8" class="node"><title>Node8</title>
<g id="a_node8"><a xlink:href="../../d8/dcf/vici__control_8c.html#a63996fa19abd48e2faf63e4fb378ef18" target="_top" xlink:title="METHOD">
<polygon fill="none" stroke="black" points="809,-38.5 809,-57.5 869,-57.5 869,-38.5 809,-38.5"/>
<text text-anchor="middle" x="839" y="-45.5" font-family="Helvetica,sans-Serif" font-size="10.00">METHOD</text>
</a>
</g>
</g>
<!-- Node7&#45;&gt;Node8 -->
<g id="edge7" class="edge"><title>Node7&#45;&gt;Node8</title>
<path fill="none" stroke="midnightblue" d="M764.155,-37.607C779.704,-39.7954 795.706,-42.0475 808.821,-43.8934"/>
<polygon fill="midnightblue" stroke="midnightblue" points="764.428,-34.111 754.038,-36.1831 763.452,-41.0427 764.428,-34.111"/>
</g>
<!-- Node9 -->
<g id="node9" class="node"><title>Node9</title>
<g id="a_node9"><a xlink:href="../../d0/dcb/group__vici__control.html#ga9bb24cf92651f6573ebc2d32f96c2439" target="_top" xlink:title="vici_control_create">
<polygon fill="none" stroke="black" points="790,-0.5 790,-19.5 888,-19.5 888,-0.5 790,-0.5"/>
<text text-anchor="middle" x="839" y="-7.5" font-family="Helvetica,sans-Serif" font-size="10.00">vici_control_create</text>
</a>
</g>
</g>
<!-- Node7&#45;&gt;Node9 -->
<g id="edge8" class="edge"><title>Node7&#45;&gt;Node9</title>
<path fill="none" stroke="midnightblue" d="M763.998,-20.4152C772.566,-19.2093 781.275,-17.9836 789.566,-16.8167"/>
<polygon fill="midnightblue" stroke="midnightblue" points="763.452,-16.9573 754.038,-21.8169 764.428,-23.889 763.452,-16.9573"/>
</g>
<!-- Node10 -->
<g id="node10" class="node"><title>Node10</title>
<g id="a_node10"><a xlink:href="../../d1/d73/vici__plugin_8c.html#a2f71c61365cc9ae07eca95d2cec1c305" target="_top" xlink:title="register_vici">
<polygon fill="none" stroke="black" points="924.5,-0.5 924.5,-19.5 993.5,-19.5 993.5,-0.5 924.5,-0.5"/>
<text text-anchor="middle" x="959" y="-7.5" font-family="Helvetica,sans-Serif" font-size="10.00">register_vici</text>
</a>
</g>
</g>
<!-- Node9&#45;&gt;Node10 -->
<g id="edge9" class="edge"><title>Node9&#45;&gt;Node10</title>
<path fill="none" stroke="midnightblue" d="M898.351,-10C907.267,-10 916.204,-10 924.345,-10"/>
<polygon fill="midnightblue" stroke="midnightblue" points="898.336,-6.5001 888.336,-10 898.336,-13.5001 898.336,-6.5001"/>
</g>
<!-- Node11 -->
<g id="node11" class="node"><title>Node11</title>
<g id="a_node11"><a xlink:href="../../d1/d73/vici__plugin_8c.html#a0fb4568098134ff06cea5d8cbca4cc84" target="_top" xlink:title="METHOD">
<polygon fill="none" stroke="black" points="1030,-0.5 1030,-19.5 1090,-19.5 1090,-0.5 1030,-0.5"/>
<text text-anchor="middle" x="1060" y="-7.5" font-family="Helvetica,sans-Serif" font-size="10.00">METHOD</text>
</a>
</g>
</g>
<!-- Node10&#45;&gt;Node11 -->
<g id="edge10" class="edge"><title>Node10&#45;&gt;Node11</title>
<path fill="none" stroke="midnightblue" d="M1003.71,-10C1012.55,-10 1021.63,-10 1029.82,-10"/>
<polygon fill="midnightblue" stroke="midnightblue" points="1003.52,-6.5001 993.517,-10 1003.52,-13.5001 1003.52,-6.5001"/>
</g>
<!-- Node13 -->
<g id="node13" class="node"><title>Node13</title>
<g id="a_node13"><a xlink:href="../../d0/d8e/kernel__wfp__ipsec_8c.html#aef743a375ddbe6cdfa8f20da87917d82" target="_top" xlink:title="install_tunnel">
<polygon fill="none" stroke="black" points="456,-19.5 456,-38.5 530,-38.5 530,-19.5 456,-19.5"/>
<text text-anchor="middle" x="493" y="-26.5" font-family="Helvetica,sans-Serif" font-size="10.00">install_tunnel</text>
</a>
</g>
</g>
<!-- Node12&#45;&gt;Node13 -->
<g id="edge12" class="edge"><title>Node12&#45;&gt;Node13</title>
<path fill="none" stroke="midnightblue" d="M423.554,-29C434.571,-29 445.837,-29 455.965,-29"/>
<polygon fill="midnightblue" stroke="midnightblue" points="423.545,-25.5001 413.545,-29 423.545,-32.5001 423.545,-25.5001"/>
</g>
<!-- Node13&#45;&gt;Node5 -->
<g id="edge13" class="edge"><title>Node13&#45;&gt;Node5</title>
<path fill="none" stroke="midnightblue" d="M540.288,-37.9742C551.386,-40.1259 562.671,-42.3138 571.855,-44.0943"/>
<polygon fill="midnightblue" stroke="midnightblue" points="540.697,-34.4883 530.213,-36.0209 539.364,-41.3603 540.697,-34.4883"/>
</g>
<!-- Node14&#45;&gt;Node3 -->
<g id="edge15" class="edge"><title>Node14&#45;&gt;Node3</title>
<path fill="none" stroke="midnightblue" d="M181.023,-35.8155C193.201,-37.9982 206.527,-40.3869 218.129,-42.4665"/>
<polygon fill="midnightblue" stroke="midnightblue" points="181.588,-32.3611 171.128,-34.0418 180.353,-39.2513 181.588,-32.3611"/>
</g>
</g>
</svg>
        <g id="navigator" transform="translate(0 0)" fill="#404254">
                <rect fill="#f2f5e9" fill-opacity="0.5" stroke="#606060" stroke-width=".5" x="0" y="0" width="60" height="60"/>
                <use id="zoomplus" xlink:href="#zoomPlus" x="17" y="9" onmousedown="handleZoom(evt,'in')"/>
                <use id="zoomminus" xlink:href="#zoomMin" x="42" y="9" onmousedown="handleZoom(evt,'out')"/>
                <use id="reset" xlink:href="#resetDef" x="30" y="36" onmousedown="handleReset()"/>
                <g id="arrowUp" xlink:href="#dirArrow" transform="translate(30 24)" onmousedown="handlePan(0,-1)">
                  <use xlink:href="#rim" fill="#404040">
                        <set attributeName="fill" to="#808080" begin="arrowUp.mouseover" end="arrowUp.mouseout"/>
                  </use>
                  <path fill="none" stroke="white" stroke-width="1.5" d="M0,-3.0v7 M-2.5,-0.5L0,-3.0L2.5,-0.5"/>
                </g>
                <g id="arrowRight" xlink:href="#dirArrow" transform="rotate(90) translate(36 -43)" onmousedown="handlePan(1,0)">
                  <use xlink:href="#rim" fill="#404040">
                        <set attributeName="fill" to="#808080" begin="arrowRight.mouseover" end="arrowRight.mouseout"/>
                  </use>
                  <path fill="none" stroke="white" stroke-width="1.5" d="M0,-3.0v7 M-2.5,-0.5L0,-3.0L2.5,-0.5"/>
                </g>
                <g id="arrowDown" xlink:href="#dirArrow" transform="rotate(180) translate(-30 -48)" onmousedown="handlePan(0,1)">
                  <use xlink:href="#rim" fill="#404040">
                        <set attributeName="fill" to="#808080" begin="arrowDown.mouseover" end="arrowDown.mouseout"/>
                  </use>
                  <path fill="none" stroke="white" stroke-width="1.5" d="M0,-3.0v7 M-2.5,-0.5L0,-3.0L2.5,-0.5"/>
                </g>
                <g id="arrowLeft" xlink:href="#dirArrow" transform="rotate(270) translate(-36 17)" onmousedown="handlePan(-1,0)">
                  <use xlink:href="#rim" fill="#404040">
                        <set attributeName="fill" to="#808080" begin="arrowLeft.mouseover" end="arrowLeft.mouseout"/>
                  </use>
                  <path fill="none" stroke="white" stroke-width="1.5" d="M0,-3.0v7 M-2.5,-0.5L0,-3.0L2.5,-0.5"/>
                </g>
        </g>
        <svg viewBox="0 0 15 15" width="100%" height="30px" preserveAspectRatio="xMaxYMin meet">
         <g id="arrow_out" transform="scale(0.3 0.3)">
          <a xlink:href="kernel__wfp__ipsec_8c_a13c4b71ff66a1aeb283d5525affcb84c_icgraph_org.svg" target="_base">
           <rect id="button" ry="5" rx="5" y="6" x="6" height="38" width="38"
                fill="#f2f5e9" fill-opacity="0.5" stroke="#606060" stroke-width="1.0"/>
           <path id="arrow"
             d="M 11.500037,31.436501 C 11.940474,20.09759 22.043105,11.32322 32.158766,21.979434 L 37.068811,17.246167 C 37.068811,17.246167 37.088388,32 37.088388,32 L 22.160133,31.978069 C 22.160133,31.978069 26.997745,27.140456 26.997745,27.140456 C 18.528582,18.264221 13.291696,25.230495 11.500037,31.436501 z"
             style="fill:#404040;"/>
          </a>
         </g>
        </svg>
</svg>
