<?xml version="1.0" encoding="UTF-8" standalone="no"?>
<!DOCTYPE svg PUBLIC "-//W3C//DTD SVG 1.1//EN"
 "http://www.w3.org/Graphics/SVG/1.1/DTD/svg11.dtd">
<!-- Generated by graphviz version 2.36.0 (20140111.2315)
 -->
<!-- Title: kernel_netlink_net.h Pages: 1 -->
<svg width="246pt" height="84pt"
 viewBox="0.00 0.00 246.00 84.00" xmlns="http://www.w3.org/2000/svg" xmlns:xlink="http://www.w3.org/1999/xlink">
<g id="graph0" class="graph" transform="scale(1 1) rotate(0) translate(4 80)">
<title>kernel_netlink_net.h</title>
<!-- Node1 -->
<g id="node1" class="node"><title>Node1</title>
<polygon fill="#bfbfbf" stroke="black" points="64,-56.5 64,-75.5 168,-75.5 168,-56.5 64,-56.5"/>
<text text-anchor="middle" x="116" y="-63.5" font-family="Helvetica,sans-Serif" font-size="10.00">kernel_netlink_net.h</text>
</g>
<!-- Node2 -->
<g id="node2" class="node"><title>Node2</title>
<g id="a_node2"><a xlink:href="../../d5/d90/kernel__netlink__net_8c.html" target="_top" xlink:title="kernel_netlink_net.c">
<polygon fill="none" stroke="black" points="0,-0.5 0,-19.5 104,-19.5 104,-0.5 0,-0.5"/>
<text text-anchor="middle" x="52" y="-7.5" font-family="Helvetica,sans-Serif" font-size="10.00">kernel_netlink_net.c</text>
</a>
</g>
</g>
<!-- Node1&#45;&gt;Node2 -->
<g id="edge1" class="edge"><title>Node1&#45;&gt;Node2</title>
<path fill="none" stroke="midnightblue" d="M98.0085,-49.8197C86.5424,-40.1452 72.0867,-27.9481 62.4698,-19.8339"/>
<polygon fill="midnightblue" stroke="midnightblue" points="95.8173,-52.5502 105.717,-56.324 100.331,-47.2002 95.8173,-52.5502"/>
</g>
<!-- Node3 -->
<g id="node3" class="node"><title>Node3</title>
<g id="a_node3"><a xlink:href="../../da/d4c/kernel__netlink__plugin_8c.html" target="_top" xlink:title="kernel_netlink_plugin.c">
<polygon fill="none" stroke="black" points="122,-0.5 122,-19.5 238,-19.5 238,-0.5 122,-0.5"/>
<text text-anchor="middle" x="180" y="-7.5" font-family="Helvetica,sans-Serif" font-size="10.00">kernel_netlink_plugin.c</text>
</a>
</g>
</g>
<!-- Node1&#45;&gt;Node3 -->
<g id="edge2" class="edge"><title>Node1&#45;&gt;Node3</title>
<path fill="none" stroke="midnightblue" d="M133.991,-49.8197C145.458,-40.1452 159.913,-27.9481 169.53,-19.8339"/>
<polygon fill="midnightblue" stroke="midnightblue" points="131.669,-47.2002 126.283,-56.324 136.183,-52.5502 131.669,-47.2002"/>
</g>
</g>
</svg>
