<?xml version="1.0" encoding="UTF-8" standalone="no"?>
<!DOCTYPE svg PUBLIC "-//W3C//DTD SVG 1.1//EN"
 "http://www.w3.org/Graphics/SVG/1.1/DTD/svg11.dtd">
<!-- Generated by graphviz version 2.36.0 (20140111.2315)
 -->
<!-- Title: tcg_pts_attr_file_meas.h Pages: 1 -->
<svg width="506pt" height="84pt"
 viewBox="0.00 0.00 506.00 84.00" xmlns="http://www.w3.org/2000/svg" xmlns:xlink="http://www.w3.org/1999/xlink">
<g id="graph0" class="graph" transform="scale(1 1) rotate(0) translate(4 80)">
<title>tcg_pts_attr_file_meas.h</title>
<!-- Node1 -->
<g id="node1" class="node"><title>Node1</title>
<polygon fill="#bfbfbf" stroke="black" points="225,-56.5 225,-75.5 349,-75.5 349,-56.5 225,-56.5"/>
<text text-anchor="middle" x="287" y="-63.5" font-family="Helvetica,sans-Serif" font-size="10.00">tcg_pts_attr_file_meas.h</text>
</g>
<!-- Node2 -->
<g id="node2" class="node"><title>Node2</title>
<g id="a_node2"><a xlink:href="../../df/dea/imc__attestation__process_8c.html" target="_top" xlink:title="imc_attestation_process.c">
<polygon fill="none" stroke="black" points="-0.5,-0.5 -0.5,-19.5 130.5,-19.5 130.5,-0.5 -0.5,-0.5"/>
<text text-anchor="middle" x="65" y="-7.5" font-family="Helvetica,sans-Serif" font-size="10.00">imc_attestation_process.c</text>
</a>
</g>
</g>
<!-- Node1&#45;&gt;Node2 -->
<g id="edge1" class="edge"><title>Node1&#45;&gt;Node2</title>
<path fill="none" stroke="midnightblue" d="M241.875,-54.0237C199.94,-43.8232 138.348,-28.8414 100.012,-19.5164"/>
<polygon fill="midnightblue" stroke="midnightblue" points="241.28,-57.4808 251.823,-56.4435 242.934,-50.6791 241.28,-57.4808"/>
</g>
<!-- Node3 -->
<g id="node3" class="node"><title>Node3</title>
<g id="a_node3"><a xlink:href="../../d9/dff/imv__attestation__process_8c.html" target="_top" xlink:title="imv_attestation_process.c">
<polygon fill="none" stroke="black" points="148.5,-0.5 148.5,-19.5 279.5,-19.5 279.5,-0.5 148.5,-0.5"/>
<text text-anchor="middle" x="214" y="-7.5" font-family="Helvetica,sans-Serif" font-size="10.00">imv_attestation_process.c</text>
</a>
</g>
</g>
<!-- Node1&#45;&gt;Node3 -->
<g id="edge2" class="edge"><title>Node1&#45;&gt;Node3</title>
<path fill="none" stroke="midnightblue" d="M266.858,-50.1008C253.721,-40.3824 237.018,-28.0269 225.942,-19.8339"/>
<polygon fill="midnightblue" stroke="midnightblue" points="265.15,-53.1907 275.271,-56.324 269.313,-47.5631 265.15,-53.1907"/>
</g>
<!-- Node4 -->
<g id="node4" class="node"><title>Node4</title>
<g id="a_node4"><a xlink:href="../../dc/d95/tcg__pts__attr__file__meas_8c.html" target="_top" xlink:title="tcg_pts_attr_file_meas.c">
<polygon fill="none" stroke="black" points="298,-0.5 298,-19.5 422,-19.5 422,-0.5 298,-0.5"/>
<text text-anchor="middle" x="360" y="-7.5" font-family="Helvetica,sans-Serif" font-size="10.00">tcg_pts_attr_file_meas.c</text>
</a>
</g>
</g>
<!-- Node1&#45;&gt;Node4 -->
<g id="edge3" class="edge"><title>Node1&#45;&gt;Node4</title>
<path fill="none" stroke="midnightblue" d="M307.142,-50.1008C320.279,-40.3824 336.982,-28.0269 348.058,-19.8339"/>
<polygon fill="midnightblue" stroke="midnightblue" points="304.687,-47.5631 298.729,-56.324 308.85,-53.1907 304.687,-47.5631"/>
</g>
<!-- Node5 -->
<g id="node5" class="node"><title>Node5</title>
<g id="a_node5"><a xlink:href="../../dd/d54/tcg__attr_8c.html" target="_top" xlink:title="tcg_attr.c">
<polygon fill="none" stroke="black" points="440,-0.5 440,-19.5 498,-19.5 498,-0.5 440,-0.5"/>
<text text-anchor="middle" x="469" y="-7.5" font-family="Helvetica,sans-Serif" font-size="10.00">tcg_attr.c</text>
</a>
</g>
</g>
<!-- Node1&#45;&gt;Node5 -->
<g id="edge4" class="edge"><title>Node1&#45;&gt;Node5</title>
<path fill="none" stroke="midnightblue" d="M325.531,-53.5677C359.864,-43.381 409.333,-28.7034 440.296,-19.5164"/>
<polygon fill="midnightblue" stroke="midnightblue" points="324.43,-50.2436 315.838,-56.4435 326.421,-56.9544 324.43,-50.2436"/>
</g>
</g>
</svg>
