<?xml version="1.0" encoding="UTF-8" standalone="no"?>
<!DOCTYPE svg PUBLIC "-//W3C//DTD SVG 1.1//EN"
 "http://www.w3.org/Graphics/SVG/1.1/DTD/svg11.dtd">
<!-- Generated by graphviz version 2.36.0 (20140111.2315)
 -->
<!-- Title: start_cron Pages: 1 -->
<svg width="572pt" height="175pt"
 viewBox="0.00 0.00 572.00 175.00" xmlns="http://www.w3.org/2000/svg" xmlns:xlink="http://www.w3.org/1999/xlink">
<g id="graph0" class="graph" transform="scale(1 1) rotate(0) translate(4 171)">
<title>start_cron</title>
<!-- Node1 -->
<g id="node1" class="node"><title>Node1</title>
<polygon fill="#bfbfbf" stroke="black" points="0,-38.5 0,-57.5 60,-57.5 60,-38.5 0,-38.5"/>
<text text-anchor="middle" x="30" y="-45.5" font-family="Helvetica,sans-Serif" font-size="10.00">start_cron</text>
</g>
<!-- Node2 -->
<g id="node2" class="node"><title>Node2</title>
<g id="a_node2"><a xlink:href="../../dc/d68/certexpire__cron_8c.html#a0e992e3e54f7da5529c2f865293de2c2" target="_top" xlink:title="check_cron">
<polygon fill="none" stroke="black" points="100.5,-76.5 100.5,-95.5 167.5,-95.5 167.5,-76.5 100.5,-76.5"/>
<text text-anchor="middle" x="134" y="-83.5" font-family="Helvetica,sans-Serif" font-size="10.00">check_cron</text>
</a>
</g>
</g>
<!-- Node1&#45;&gt;Node2 -->
<g id="edge1" class="edge"><title>Node1&#45;&gt;Node2</title>
<path fill="none" stroke="midnightblue" d="M56.7389,-57.589C69.1813,-62.2244 84.3075,-67.8596 97.7975,-72.8853"/>
<polygon fill="midnightblue" stroke="midnightblue" points="96.6766,-76.2027 107.269,-76.4141 99.1204,-69.6431 96.6766,-76.2027"/>
</g>
<!-- Node7 -->
<g id="node7" class="node"><title>Node7</title>
<g id="a_node7"><a xlink:href="../../d3/de6/group__enumerator.html#gacd5e29348cf29bd815aa2bc04101c174" target="_top" xlink:title="enumerator_create_token">
<polygon fill="none" stroke="black" points="208.5,-38.5 208.5,-57.5 335.5,-57.5 335.5,-38.5 208.5,-38.5"/>
<text text-anchor="middle" x="272" y="-45.5" font-family="Helvetica,sans-Serif" font-size="10.00">enumerator_create_token</text>
</a>
</g>
</g>
<!-- Node1&#45;&gt;Node7 -->
<g id="edge6" class="edge"><title>Node1&#45;&gt;Node7</title>
<path fill="none" stroke="midnightblue" d="M60.4287,-48C94.4084,-48 151.552,-48 197.744,-48"/>
<polygon fill="midnightblue" stroke="midnightblue" points="198.021,-51.5001 208.021,-48 198.021,-44.5001 198.021,-51.5001"/>
</g>
<!-- Node11 -->
<g id="node11" class="node"><title>Node11</title>
<g id="a_node11"><a xlink:href="../../dc/d68/certexpire__cron_8c.html#a735882ad380f9702fb125982eecb5a10" target="_top" xlink:title="parse_ranges">
<polygon fill="none" stroke="black" points="96.5,-0.5 96.5,-19.5 171.5,-19.5 171.5,-0.5 96.5,-0.5"/>
<text text-anchor="middle" x="134" y="-7.5" font-family="Helvetica,sans-Serif" font-size="10.00">parse_ranges</text>
</a>
</g>
</g>
<!-- Node1&#45;&gt;Node11 -->
<g id="edge10" class="edge"><title>Node1&#45;&gt;Node11</title>
<path fill="none" stroke="midnightblue" d="M56.7389,-38.411C69.1813,-33.7756 84.3075,-28.1404 97.7975,-23.1147"/>
<polygon fill="midnightblue" stroke="midnightblue" points="99.1204,-26.3569 107.269,-19.5859 96.6766,-19.7973 99.1204,-26.3569"/>
</g>
<!-- Node3 -->
<g id="node3" class="node"><title>Node3</title>
<g id="a_node3"><a xlink:href="../../d0/d8f/group__callback__job.html#gadfa6801d50c2e34bb3f9e1c98efe02d0" target="_top" xlink:title="callback_job_create\l_with_prio">
<polygon fill="none" stroke="black" points="220.5,-115 220.5,-145 323.5,-145 323.5,-115 220.5,-115"/>
<text text-anchor="start" x="228.5" y="-133" font-family="Helvetica,sans-Serif" font-size="10.00">callback_job_create</text>
<text text-anchor="middle" x="272" y="-122" font-family="Helvetica,sans-Serif" font-size="10.00">_with_prio</text>
</a>
</g>
</g>
<!-- Node2&#45;&gt;Node3 -->
<g id="edge2" class="edge"><title>Node2&#45;&gt;Node3</title>
<path fill="none" stroke="midnightblue" d="M164.51,-95.5473C179.138,-100.28 197.31,-106.159 214.477,-111.713"/>
<polygon fill="midnightblue" stroke="midnightblue" points="213.842,-115.186 224.434,-114.935 215.997,-108.526 213.842,-115.186"/>
</g>
<!-- Node6 -->
<g id="node6" class="node"><title>Node6</title>
<g id="a_node6"><a xlink:href="../../da/d9b/group__windows.html#ga94f18bb769a798add21d8ca4a5649589" target="_top" xlink:title="localtime_r">
<polygon fill="none" stroke="black" points="240,-76.5 240,-95.5 304,-95.5 304,-76.5 240,-76.5"/>
<text text-anchor="middle" x="272" y="-83.5" font-family="Helvetica,sans-Serif" font-size="10.00">localtime_r</text>
</a>
</g>
</g>
<!-- Node2&#45;&gt;Node6 -->
<g id="edge5" class="edge"><title>Node2&#45;&gt;Node6</title>
<path fill="none" stroke="midnightblue" d="M167.575,-86C186.179,-86 209.69,-86 229.593,-86"/>
<polygon fill="midnightblue" stroke="midnightblue" points="229.627,-89.5001 239.627,-86 229.627,-82.5001 229.627,-89.5001"/>
</g>
<!-- Node4 -->
<g id="node4" class="node"><title>Node4</title>
<g id="a_node4"><a xlink:href="../../d1/d14/fetch_8c.html#a17dd1592e9f4ebc44d5126c03a3a9697" target="_top" xlink:title="cb">
<polygon fill="none" stroke="black" points="418.5,-147.5 418.5,-166.5 447.5,-166.5 447.5,-147.5 418.5,-147.5"/>
<text text-anchor="middle" x="433" y="-154.5" font-family="Helvetica,sans-Serif" font-size="10.00">cb</text>
</a>
</g>
</g>
<!-- Node3&#45;&gt;Node4 -->
<g id="edge3" class="edge"><title>Node3&#45;&gt;Node4</title>
<path fill="none" stroke="midnightblue" d="M323.746,-138.617C352.175,-143.445 386.275,-149.235 408.504,-153.01"/>
<polygon fill="midnightblue" stroke="midnightblue" points="407.941,-156.465 418.386,-154.688 409.113,-149.563 407.941,-156.465"/>
</g>
<!-- Node5 -->
<g id="node5" class="node"><title>Node5</title>
<g id="a_node5"><a xlink:href="../../d2/dca/nm__backend_8c.html#a22ea158445c16ed72f5ab270e1dc691b" target="_top" xlink:title="cancel">
<polygon fill="none" stroke="black" points="410.5,-109.5 410.5,-128.5 455.5,-128.5 455.5,-109.5 410.5,-109.5"/>
<text text-anchor="middle" x="433" y="-116.5" font-family="Helvetica,sans-Serif" font-size="10.00">cancel</text>
</a>
</g>
</g>
<!-- Node3&#45;&gt;Node5 -->
<g id="edge4" class="edge"><title>Node3&#45;&gt;Node5</title>
<path fill="none" stroke="midnightblue" d="M323.746,-126.489C348.895,-124.749 378.481,-122.703 400.362,-121.189"/>
<polygon fill="midnightblue" stroke="midnightblue" points="400.697,-124.674 410.431,-120.492 400.213,-117.691 400.697,-124.674"/>
</g>
<!-- Node8 -->
<g id="node8" class="node"><title>Node8</title>
<g id="a_node8"><a xlink:href="../../de/d46/enumerator_8c.html#abd5b850e1cf14a510a91e614cf8aaaf9" target="_top" xlink:title="enumerate_token_enum">
<polygon fill="none" stroke="black" points="372.5,-60.5 372.5,-79.5 493.5,-79.5 493.5,-60.5 372.5,-60.5"/>
<text text-anchor="middle" x="433" y="-67.5" font-family="Helvetica,sans-Serif" font-size="10.00">enumerate_token_enum</text>
</a>
</g>
</g>
<!-- Node7&#45;&gt;Node8 -->
<g id="edge7" class="edge"><title>Node7&#45;&gt;Node8</title>
<path fill="none" stroke="midnightblue" d="M335.841,-56.695C344.607,-57.9079 353.657,-59.1601 362.537,-60.3887"/>
<polygon fill="midnightblue" stroke="midnightblue" points="362.08,-63.8588 372.466,-61.7625 363.04,-56.9249 362.08,-63.8588"/>
</g>
<!-- Node9 -->
<g id="node9" class="node"><title>Node9</title>
<g id="a_node9"><a xlink:href="../../de/d46/enumerator_8c.html#a2bdb7cb5feb4186044641fc893b245dc" target="_top" xlink:title="destroy_token_enum">
<polygon fill="none" stroke="black" points="379.5,-22.5 379.5,-41.5 486.5,-41.5 486.5,-22.5 379.5,-22.5"/>
<text text-anchor="middle" x="433" y="-29.5" font-family="Helvetica,sans-Serif" font-size="10.00">destroy_token_enum</text>
</a>
</g>
</g>
<!-- Node7&#45;&gt;Node9 -->
<g id="edge8" class="edge"><title>Node7&#45;&gt;Node9</title>
<path fill="none" stroke="midnightblue" d="M335.841,-41.6764C346.873,-40.5662 358.353,-39.411 369.38,-38.3014"/>
<polygon fill="midnightblue" stroke="midnightblue" points="369.753,-41.7816 379.352,-37.2979 369.052,-34.8168 369.753,-41.7816"/>
</g>
<!-- Node10 -->
<g id="node10" class="node"><title>Node10</title>
<g id="a_node10"><a xlink:href="../../da/dfc/settings__parser_8c.html#af07d89f5ceaea0c7c8252cc41fd75f37" target="_top" xlink:title="free">
<polygon fill="none" stroke="black" points="530.5,-22.5 530.5,-41.5 563.5,-41.5 563.5,-22.5 530.5,-22.5"/>
<text text-anchor="middle" x="547" y="-29.5" font-family="Helvetica,sans-Serif" font-size="10.00">free</text>
</a>
</g>
</g>
<!-- Node9&#45;&gt;Node10 -->
<g id="edge9" class="edge"><title>Node9&#45;&gt;Node10</title>
<path fill="none" stroke="midnightblue" d="M486.72,-32C498.387,-32 510.244,-32 520.257,-32"/>
<polygon fill="midnightblue" stroke="midnightblue" points="520.302,-35.5001 530.302,-32 520.302,-28.5001 520.302,-35.5001"/>
</g>
<!-- Node11&#45;&gt;Node7 -->
<g id="edge11" class="edge"><title>Node11&#45;&gt;Node7</title>
<path fill="none" stroke="midnightblue" d="M169.319,-19.589C186.794,-24.4719 208.241,-30.4643 226.925,-35.685"/>
<polygon fill="midnightblue" stroke="midnightblue" points="226.119,-39.0938 236.692,-38.4141 228.003,-32.3521 226.119,-39.0938"/>
</g>
<!-- Node12 -->
<g id="node12" class="node"><title>Node12</title>
<g id="a_node12"><a xlink:href="../../d4/d40/group__string__i.html#ga65c3d08890165aaa4663c72d07f93bb7" target="_top" xlink:title="streq">
<polygon fill="none" stroke="black" points="253,-0.5 253,-19.5 291,-19.5 291,-0.5 253,-0.5"/>
<text text-anchor="middle" x="272" y="-7.5" font-family="Helvetica,sans-Serif" font-size="10.00">streq</text>
</a>
</g>
</g>
<!-- Node11&#45;&gt;Node12 -->
<g id="edge12" class="edge"><title>Node11&#45;&gt;Node12</title>
<path fill="none" stroke="midnightblue" d="M171.804,-10C194.178,-10 222.305,-10 242.889,-10"/>
<polygon fill="midnightblue" stroke="midnightblue" points="242.895,-13.5001 252.895,-10 242.895,-6.5001 242.895,-13.5001"/>
</g>
</g>
</svg>
