<?xml version="1.0" encoding="UTF-8" standalone="no"?>
<!DOCTYPE svg PUBLIC "-//W3C//DTD SVG 1.1//EN"
 "http://www.w3.org/Graphics/SVG/1.1/DTD/svg11.dtd">
<!-- Generated by graphviz version 2.36.0 (20140111.2315)
 -->
<!-- Title: mac.h Pages: 1 -->
<svg width="750pt" height="140pt"
 viewBox="0.00 0.00 750.00 140.00" xmlns="http://www.w3.org/2000/svg" xmlns:xlink="http://www.w3.org/1999/xlink">
<g id="graph0" class="graph" transform="scale(1 1) rotate(0) translate(4 136)">
<title>mac.h</title>
<!-- Node1 -->
<g id="node1" class="node"><title>Node1</title>
<polygon fill="#bfbfbf" stroke="black" points="398,-112.5 398,-131.5 442,-131.5 442,-112.5 398,-112.5"/>
<text text-anchor="middle" x="420" y="-119.5" font-family="Helvetica,sans-Serif" font-size="10.00">mac.h</text>
</g>
<!-- Node2 -->
<g id="node2" class="node"><title>Node2</title>
<g id="a_node2"><a xlink:href="../../d5/dcd/mac__prf_8h.html" target="_top" xlink:title="mac_prf.h">
<polygon fill="none" stroke="black" points="348,-56.5 348,-75.5 408,-75.5 408,-56.5 348,-56.5"/>
<text text-anchor="middle" x="378" y="-63.5" font-family="Helvetica,sans-Serif" font-size="10.00">mac_prf.h</text>
</a>
</g>
</g>
<!-- Node1&#45;&gt;Node2 -->
<g id="edge1" class="edge"><title>Node1&#45;&gt;Node2</title>
<path fill="none" stroke="midnightblue" d="M406.89,-104.144C399.572,-94.7357 390.759,-83.4046 384.806,-75.7511"/>
<polygon fill="midnightblue" stroke="midnightblue" points="404.162,-106.338 413.065,-112.083 409.688,-102.041 404.162,-106.338"/>
</g>
<!-- Node6 -->
<g id="node6" class="node"><title>Node6</title>
<g id="a_node6"><a xlink:href="../../dc/d33/cmac_8c.html" target="_top" xlink:title="cmac.c">
<polygon fill="none" stroke="black" points="284.5,-0.5 284.5,-19.5 333.5,-19.5 333.5,-0.5 284.5,-0.5"/>
<text text-anchor="middle" x="309" y="-7.5" font-family="Helvetica,sans-Serif" font-size="10.00">cmac.c</text>
</a>
</g>
</g>
<!-- Node1&#45;&gt;Node6 -->
<g id="edge23" class="edge"><title>Node1&#45;&gt;Node6</title>
<path fill="none" stroke="midnightblue" d="M388.645,-109.208C372.171,-101.735 352.629,-90.6874 339,-76 323.444,-59.2369 314.752,-32.9916 311.093,-19.5547"/>
<polygon fill="midnightblue" stroke="midnightblue" points="387.353,-112.463 397.922,-113.196 390.117,-106.031 387.353,-112.463"/>
</g>
<!-- Node7 -->
<g id="node7" class="node"><title>Node7</title>
<g id="a_node7"><a xlink:href="../../d4/d13/hmac_8c.html" target="_top" xlink:title="hmac.c">
<polygon fill="none" stroke="black" points="693.5,-0.5 693.5,-19.5 742.5,-19.5 742.5,-0.5 693.5,-0.5"/>
<text text-anchor="middle" x="718" y="-7.5" font-family="Helvetica,sans-Serif" font-size="10.00">hmac.c</text>
</a>
</g>
</g>
<!-- Node1&#45;&gt;Node7 -->
<g id="edge24" class="edge"><title>Node1&#45;&gt;Node7</title>
<path fill="none" stroke="midnightblue" d="M452.088,-111.361C480.412,-102.675 522.72,-89.2674 559,-76 609.694,-57.4617 668.187,-32.6447 698.108,-19.6946"/>
<polygon fill="midnightblue" stroke="midnightblue" points="450.868,-108.074 442.323,-114.338 452.909,-114.77 450.868,-108.074"/>
</g>
<!-- Node8 -->
<g id="node8" class="node"><title>Node8</title>
<g id="a_node8"><a xlink:href="../../d2/d7a/openssl__hmac_8c.html" target="_top" xlink:title="openssl_hmac.c">
<polygon fill="none" stroke="black" points="430,-0.5 430,-19.5 518,-19.5 518,-0.5 430,-0.5"/>
<text text-anchor="middle" x="474" y="-7.5" font-family="Helvetica,sans-Serif" font-size="10.00">openssl_hmac.c</text>
</a>
</g>
</g>
<!-- Node1&#45;&gt;Node8 -->
<g id="edge25" class="edge"><title>Node1&#45;&gt;Node8</title>
<path fill="none" stroke="midnightblue" d="M451.815,-113.95C472.004,-107.652 496.586,-96.1873 509,-76 521.085,-56.3483 498.872,-32.1968 484.618,-19.5888"/>
<polygon fill="midnightblue" stroke="midnightblue" points="450.707,-110.626 442.038,-116.717 452.613,-117.361 450.707,-110.626"/>
</g>
<!-- Node9 -->
<g id="node9" class="node"><title>Node9</title>
<g id="a_node9"><a xlink:href="../../d2/d54/xcbc_8c.html" target="_top" xlink:title="xcbc.c">
<polygon fill="none" stroke="black" points="629,-0.5 629,-19.5 675,-19.5 675,-0.5 629,-0.5"/>
<text text-anchor="middle" x="652" y="-7.5" font-family="Helvetica,sans-Serif" font-size="10.00">xcbc.c</text>
</a>
</g>
</g>
<!-- Node1&#45;&gt;Node9 -->
<g id="edge26" class="edge"><title>Node1&#45;&gt;Node9</title>
<path fill="none" stroke="midnightblue" d="M450.512,-108.569C471.598,-99.8219 500.203,-87.6427 525,-76 565.581,-56.9463 612.264,-32.3427 636.135,-19.5619"/>
<polygon fill="midnightblue" stroke="midnightblue" points="449.014,-105.401 441.105,-112.451 451.684,-111.872 449.014,-105.401"/>
</g>
<!-- Node10 -->
<g id="node10" class="node"><title>Node10</title>
<g id="a_node10"><a xlink:href="../../d7/da0/mac__signer_8h.html" target="_top" xlink:title="mac_signer.h">
<polygon fill="none" stroke="black" points="425.5,-56.5 425.5,-75.5 500.5,-75.5 500.5,-56.5 425.5,-56.5"/>
<text text-anchor="middle" x="463" y="-63.5" font-family="Helvetica,sans-Serif" font-size="10.00">mac_signer.h</text>
</a>
</g>
</g>
<!-- Node1&#45;&gt;Node10 -->
<g id="edge9" class="edge"><title>Node1&#45;&gt;Node10</title>
<path fill="none" stroke="midnightblue" d="M433.422,-104.144C440.914,-94.7357 449.937,-83.4046 456.032,-75.7511"/>
<polygon fill="midnightblue" stroke="midnightblue" points="430.592,-102.08 427.101,-112.083 436.068,-106.44 430.592,-102.08"/>
</g>
<!-- Node12 -->
<g id="node12" class="node"><title>Node12</title>
<g id="a_node12"><a xlink:href="../../d3/d83/aesni__cmac_8h.html" target="_top" xlink:title="aesni_cmac.h">
<polygon fill="none" stroke="black" points="189.5,-56.5 189.5,-75.5 266.5,-75.5 266.5,-56.5 189.5,-56.5"/>
<text text-anchor="middle" x="228" y="-63.5" font-family="Helvetica,sans-Serif" font-size="10.00">aesni_cmac.h</text>
</a>
</g>
</g>
<!-- Node1&#45;&gt;Node12 -->
<g id="edge17" class="edge"><title>Node1&#45;&gt;Node12</title>
<path fill="none" stroke="midnightblue" d="M387.975,-111.993C351.875,-101.84 293.62,-85.4557 258.261,-75.5108"/>
<polygon fill="midnightblue" stroke="midnightblue" points="387.401,-115.467 397.975,-114.806 389.296,-108.729 387.401,-115.467"/>
</g>
<!-- Node14 -->
<g id="node14" class="node"><title>Node14</title>
<g id="a_node14"><a xlink:href="../../df/dde/aesni__xcbc_8h.html" target="_top" xlink:title="aesni_xcbc.h">
<polygon fill="none" stroke="black" points="97,-56.5 97,-75.5 171,-75.5 171,-56.5 97,-56.5"/>
<text text-anchor="middle" x="134" y="-63.5" font-family="Helvetica,sans-Serif" font-size="10.00">aesni_xcbc.h</text>
</a>
</g>
</g>
<!-- Node1&#45;&gt;Node14 -->
<g id="edge20" class="edge"><title>Node1&#45;&gt;Node14</title>
<path fill="none" stroke="midnightblue" d="M387.834,-115.052C341.768,-106.515 254.357,-90.2447 180,-76 177.123,-75.4488 174.145,-74.8747 171.152,-74.2949"/>
<polygon fill="midnightblue" stroke="midnightblue" points="387.35,-118.522 397.82,-116.901 388.625,-111.639 387.35,-118.522"/>
</g>
<!-- Node3 -->
<g id="node3" class="node"><title>Node3</title>
<g id="a_node3"><a xlink:href="../../df/d8e/mac__prf_8c.html" target="_top" xlink:title="mac_prf.c">
<polygon fill="none" stroke="black" points="352,-0.5 352,-19.5 412,-19.5 412,-0.5 352,-0.5"/>
<text text-anchor="middle" x="382" y="-7.5" font-family="Helvetica,sans-Serif" font-size="10.00">mac_prf.c</text>
</a>
</g>
</g>
<!-- Node2&#45;&gt;Node3 -->
<g id="edge2" class="edge"><title>Node2&#45;&gt;Node3</title>
<path fill="none" stroke="midnightblue" d="M379.4,-46.1005C380.064,-37.1357 380.825,-26.8579 381.352,-19.7511"/>
<polygon fill="midnightblue" stroke="midnightblue" points="375.909,-45.8517 378.661,-56.083 382.89,-46.3689 375.909,-45.8517"/>
</g>
<!-- Node4 -->
<g id="node4" class="node"><title>Node4</title>
<g id="a_node4"><a xlink:href="../../d1/de4/aesni__cmac_8c.html" target="_top" xlink:title="aesni_cmac.c">
<polygon fill="none" stroke="black" points="189.5,-0.5 189.5,-19.5 266.5,-19.5 266.5,-0.5 189.5,-0.5"/>
<text text-anchor="middle" x="228" y="-7.5" font-family="Helvetica,sans-Serif" font-size="10.00">aesni_cmac.c</text>
</a>
</g>
</g>
<!-- Node2&#45;&gt;Node4 -->
<g id="edge3" class="edge"><title>Node2&#45;&gt;Node4</title>
<path fill="none" stroke="midnightblue" d="M344.775,-53.0392C316.552,-42.8786 276.738,-28.5457 251.657,-19.5164"/>
<polygon fill="midnightblue" stroke="midnightblue" points="343.638,-56.3494 354.232,-56.4435 346.009,-49.7632 343.638,-56.3494"/>
</g>
<!-- Node5 -->
<g id="node5" class="node"><title>Node5</title>
<g id="a_node5"><a xlink:href="../../df/d09/aesni__xcbc_8c.html" target="_top" xlink:title="aesni_xcbc.c">
<polygon fill="none" stroke="black" points="97,-0.5 97,-19.5 171,-19.5 171,-0.5 97,-0.5"/>
<text text-anchor="middle" x="134" y="-7.5" font-family="Helvetica,sans-Serif" font-size="10.00">aesni_xcbc.c</text>
</a>
</g>
</g>
<!-- Node2&#45;&gt;Node5 -->
<g id="edge4" class="edge"><title>Node2&#45;&gt;Node5</title>
<path fill="none" stroke="midnightblue" d="M337.611,-56.0614C291.324,-45.8176 216.089,-29.1672 171.189,-19.2303"/>
<polygon fill="midnightblue" stroke="midnightblue" points="337.071,-59.5265 347.591,-58.27 338.583,-52.6918 337.071,-59.5265"/>
</g>
<!-- Node2&#45;&gt;Node6 -->
<g id="edge5" class="edge"><title>Node2&#45;&gt;Node6</title>
<path fill="none" stroke="midnightblue" d="M358.962,-50.1008C346.544,-40.3824 330.757,-28.0269 320.288,-19.8339"/>
<polygon fill="midnightblue" stroke="midnightblue" points="356.882,-52.9171 366.914,-56.324 361.196,-47.4046 356.882,-52.9171"/>
</g>
<!-- Node2&#45;&gt;Node7 -->
<g id="edge6" class="edge"><title>Node2&#45;&gt;Node7</title>
<path fill="none" stroke="midnightblue" d="M418.35,-55.7061C535.985,-34.6084 569.347,-42.7822 684,-20 686.994,-19.405 690.116,-18.6991 693.201,-17.9483"/>
<polygon fill="midnightblue" stroke="midnightblue" points="417.434,-52.3156 408.226,-57.5562 418.692,-59.2016 417.434,-52.3156"/>
</g>
<!-- Node2&#45;&gt;Node8 -->
<g id="edge7" class="edge"><title>Node2&#45;&gt;Node8</title>
<path fill="none" stroke="midnightblue" d="M402.574,-51.1774C420.239,-41.2407 443.513,-28.1492 458.614,-19.6545"/>
<polygon fill="midnightblue" stroke="midnightblue" points="400.424,-48.3708 393.424,-56.324 403.856,-54.4718 400.424,-48.3708"/>
</g>
<!-- Node2&#45;&gt;Node9 -->
<g id="edge8" class="edge"><title>Node2&#45;&gt;Node9</title>
<path fill="none" stroke="midnightblue" d="M418.263,-55.62C507.488,-37.5913 532.739,-39.3696 619,-20 622.245,-19.2714 625.649,-18.4309 628.988,-17.5623"/>
<polygon fill="midnightblue" stroke="midnightblue" points="417.342,-52.2358 408.248,-57.6717 418.747,-59.0934 417.342,-52.2358"/>
</g>
<!-- Node10&#45;&gt;Node4 -->
<g id="edge11" class="edge"><title>Node10&#45;&gt;Node4</title>
<path fill="none" stroke="midnightblue" d="M415.795,-54.1529C371.393,-43.95 305.815,-28.8809 265.062,-19.5164"/>
<polygon fill="midnightblue" stroke="midnightblue" points="415.234,-57.6151 425.764,-56.4435 416.801,-50.7929 415.234,-57.6151"/>
</g>
<!-- Node10&#45;&gt;Node5 -->
<g id="edge12" class="edge"><title>Node10&#45;&gt;Node5</title>
<path fill="none" stroke="midnightblue" d="M415.205,-55.9236C309.733,-38.0129 281.367,-37.6397 180,-20 177.114,-19.4978 174.13,-18.9588 171.132,-18.4034"/>
<polygon fill="midnightblue" stroke="midnightblue" points="414.866,-59.4164 425.313,-57.6534 416.046,-52.5167 414.866,-59.4164"/>
</g>
<!-- Node10&#45;&gt;Node6 -->
<g id="edge13" class="edge"><title>Node10&#45;&gt;Node6</title>
<path fill="none" stroke="midnightblue" d="M428.889,-53.0392C399.913,-42.8786 359.038,-28.5457 333.288,-19.5164"/>
<polygon fill="midnightblue" stroke="midnightblue" points="428.003,-56.4373 438.598,-56.4435 430.32,-49.8317 428.003,-56.4373"/>
</g>
<!-- Node10&#45;&gt;Node7 -->
<g id="edge14" class="edge"><title>Node10&#45;&gt;Node7</title>
<path fill="none" stroke="midnightblue" d="M510.716,-56.1116C555.593,-47.5565 624.577,-33.9023 684,-20 686.973,-19.3045 690.081,-18.5374 693.159,-17.7531"/>
<polygon fill="midnightblue" stroke="midnightblue" points="509.855,-52.7123 500.683,-58.0157 511.161,-59.5896 509.855,-52.7123"/>
</g>
<!-- Node10&#45;&gt;Node8 -->
<g id="edge15" class="edge"><title>Node10&#45;&gt;Node8</title>
<path fill="none" stroke="midnightblue" d="M466.85,-46.1005C468.676,-37.1357 470.77,-26.8579 472.217,-19.7511"/>
<polygon fill="midnightblue" stroke="midnightblue" points="463.383,-45.5856 464.816,-56.083 470.242,-46.9829 463.383,-45.5856"/>
</g>
<!-- Node10&#45;&gt;Node9 -->
<g id="edge16" class="edge"><title>Node10&#45;&gt;Node9</title>
<path fill="none" stroke="midnightblue" d="M502.719,-53.6517C540.912,-42.7393 597.341,-26.6168 628.746,-17.6439"/>
<polygon fill="midnightblue" stroke="midnightblue" points="501.601,-50.3309 492.948,-56.4435 503.524,-57.0616 501.601,-50.3309"/>
</g>
<!-- Node11 -->
<g id="node11" class="node"><title>Node11</title>
<g id="a_node11"><a xlink:href="../../d6/d14/mac__signer_8c.html" target="_top" xlink:title="mac_signer.c">
<polygon fill="none" stroke="black" points="535.5,-0.5 535.5,-19.5 610.5,-19.5 610.5,-0.5 535.5,-0.5"/>
<text text-anchor="middle" x="573" y="-7.5" font-family="Helvetica,sans-Serif" font-size="10.00">mac_signer.c</text>
</a>
</g>
</g>
<!-- Node10&#45;&gt;Node11 -->
<g id="edge10" class="edge"><title>Node10&#45;&gt;Node11</title>
<path fill="none" stroke="midnightblue" d="M489.762,-51.8622C510.159,-41.8492 537.666,-28.3458 555.37,-19.6545"/>
<polygon fill="midnightblue" stroke="midnightblue" points="488.108,-48.7753 480.673,-56.324 491.192,-55.059 488.108,-48.7753"/>
</g>
<!-- Node12&#45;&gt;Node4 -->
<g id="edge18" class="edge"><title>Node12&#45;&gt;Node4</title>
<path fill="none" stroke="midnightblue" d="M228,-45.8045C228,-36.9102 228,-26.7798 228,-19.7511"/>
<polygon fill="midnightblue" stroke="midnightblue" points="224.5,-46.083 228,-56.083 231.5,-46.083 224.5,-46.083"/>
</g>
<!-- Node13 -->
<g id="node13" class="node"><title>Node13</title>
<g id="a_node13"><a xlink:href="../../d5/d28/aesni__plugin_8c.html" target="_top" xlink:title="aesni_plugin.c">
<polygon fill="none" stroke="black" points="-0.5,-0.5 -0.5,-19.5 78.5,-19.5 78.5,-0.5 -0.5,-0.5"/>
<text text-anchor="middle" x="39" y="-7.5" font-family="Helvetica,sans-Serif" font-size="10.00">aesni_plugin.c</text>
</a>
</g>
</g>
<!-- Node12&#45;&gt;Node13 -->
<g id="edge19" class="edge"><title>Node12&#45;&gt;Node13</title>
<path fill="none" stroke="midnightblue" d="M187.987,-53.5677C152.333,-43.381 100.962,-28.7034 68.8075,-19.5164"/>
<polygon fill="midnightblue" stroke="midnightblue" points="187.476,-57.0616 198.052,-56.4435 189.399,-50.3309 187.476,-57.0616"/>
</g>
<!-- Node14&#45;&gt;Node5 -->
<g id="edge22" class="edge"><title>Node14&#45;&gt;Node5</title>
<path fill="none" stroke="midnightblue" d="M134,-45.8045C134,-36.9102 134,-26.7798 134,-19.7511"/>
<polygon fill="midnightblue" stroke="midnightblue" points="130.5,-46.083 134,-56.083 137.5,-46.083 130.5,-46.083"/>
</g>
<!-- Node14&#45;&gt;Node13 -->
<g id="edge21" class="edge"><title>Node14&#45;&gt;Node13</title>
<path fill="none" stroke="midnightblue" d="M109.682,-51.1774C92.2012,-41.2407 69.1699,-28.1492 54.2255,-19.6545"/>
<polygon fill="midnightblue" stroke="midnightblue" points="108.313,-54.425 118.737,-56.324 111.773,-48.3395 108.313,-54.425"/>
</g>
</g>
</svg>
