<?xml version="1.0" encoding="UTF-8" standalone="no"?>
<!DOCTYPE svg PUBLIC "-//W3C//DTD SVG 1.1//EN"
 "http://www.w3.org/Graphics/SVG/1.1/DTD/svg11.dtd">
<!-- Generated by graphviz version 2.36.0 (20140111.2315)
 -->
<!-- Title: host2offset Pages: 1 -->
<svg width="276pt" height="66pt"
 viewBox="0.00 0.00 276.00 66.00" xmlns="http://www.w3.org/2000/svg" xmlns:xlink="http://www.w3.org/1999/xlink">
<g id="graph0" class="graph" transform="scale(1 1) rotate(0) translate(4 62)">
<title>host2offset</title>
<!-- Node1 -->
<g id="node1" class="node"><title>Node1</title>
<polygon fill="#bfbfbf" stroke="black" points="0.5,-19.5 0.5,-38.5 65.5,-38.5 65.5,-19.5 0.5,-19.5"/>
<text text-anchor="middle" x="33" y="-26.5" font-family="Helvetica,sans-Serif" font-size="10.00">host2offset</text>
</g>
<!-- Node2 -->
<g id="node2" class="node"><title>Node2</title>
<g id="a_node2"><a xlink:href="../../d9/d73/mem__pool_8c.html#aee54c0393ce02a8a37cf35d20785ee4f" target="_top" xlink:title="get_existing">
<polygon fill="none" stroke="black" points="102.5,-38.5 102.5,-57.5 171.5,-57.5 171.5,-38.5 102.5,-38.5"/>
<text text-anchor="middle" x="137" y="-45.5" font-family="Helvetica,sans-Serif" font-size="10.00">get_existing</text>
</a>
</g>
</g>
<!-- Node1&#45;&gt;Node2 -->
<g id="edge1" class="edge"><title>Node1&#45;&gt;Node2</title>
<path fill="none" stroke="midnightblue" d="M75.7881,-36.7841C84.5728,-38.4204 93.7345,-40.127 102.184,-41.7009"/>
<polygon fill="midnightblue" stroke="midnightblue" points="76.1862,-33.2981 65.7143,-34.9076 74.9042,-40.1797 76.1862,-33.2981"/>
</g>
<!-- Node4 -->
<g id="node4" class="node"><title>Node4</title>
<g id="a_node4"><a xlink:href="../../d9/d73/mem__pool_8c.html#a6c8297edb24a0a75fa6e6a4a0f38d692" target="_top" xlink:title="METHOD">
<polygon fill="none" stroke="black" points="107,-0.5 107,-19.5 167,-19.5 167,-0.5 107,-0.5"/>
<text text-anchor="middle" x="137" y="-7.5" font-family="Helvetica,sans-Serif" font-size="10.00">METHOD</text>
</a>
</g>
</g>
<!-- Node1&#45;&gt;Node4 -->
<g id="edge3" class="edge"><title>Node1&#45;&gt;Node4</title>
<path fill="none" stroke="midnightblue" d="M75.846,-21.2052C86.2182,-19.2731 97.1127,-17.2437 106.737,-15.451"/>
<polygon fill="midnightblue" stroke="midnightblue" points="74.9042,-17.8203 65.7143,-23.0924 76.1862,-24.7019 74.9042,-17.8203"/>
</g>
<!-- Node3 -->
<g id="node3" class="node"><title>Node3</title>
<g id="a_node3"><a xlink:href="../../d9/d73/mem__pool_8c.html#a1a5d865917c5b1c2505ac39997ef122e" target="_top" xlink:title="METHOD">
<polygon fill="none" stroke="black" points="208,-38.5 208,-57.5 268,-57.5 268,-38.5 208,-38.5"/>
<text text-anchor="middle" x="238" y="-45.5" font-family="Helvetica,sans-Serif" font-size="10.00">METHOD</text>
</a>
</g>
</g>
<!-- Node2&#45;&gt;Node3 -->
<g id="edge2" class="edge"><title>Node2&#45;&gt;Node3</title>
<path fill="none" stroke="midnightblue" d="M181.708,-48C190.547,-48 199.634,-48 207.824,-48"/>
<polygon fill="midnightblue" stroke="midnightblue" points="181.517,-44.5001 171.517,-48 181.517,-51.5001 181.517,-44.5001"/>
</g>
</g>
</svg>
