<?xml version="1.0" encoding="UTF-8" standalone="no"?>
<!DOCTYPE svg PUBLIC "-//W3C//DTD SVG 1.1//EN"
 "http://www.w3.org/Graphics/SVG/1.1/DTD/svg11.dtd">
<!-- Generated by graphviz version 2.36.0 (20140111.2315)
 -->
<!-- Title: is_opaque Pages: 1 -->
<svg width="908pt" height="370pt"
 viewBox="0.00 0.00 908.00 370.00" xmlns="http://www.w3.org/2000/svg" xmlns:xlink="http://www.w3.org/1999/xlink">
<g id="graph0" class="graph" transform="scale(1 1) rotate(0) translate(4 366)">
<title>is_opaque</title>
<!-- Node1 -->
<g id="node1" class="node"><title>Node1</title>
<polygon fill="#bfbfbf" stroke="black" points="0.5,-171.5 0.5,-190.5 61.5,-190.5 61.5,-171.5 0.5,-171.5"/>
<text text-anchor="middle" x="31" y="-178.5" font-family="Helvetica,sans-Serif" font-size="10.00">is_opaque</text>
</g>
<!-- Node2 -->
<g id="node2" class="node"><title>Node2</title>
<g id="a_node2"><a xlink:href="../../d3/d58/traffic__selector_8c.html#adc168f929903baa5578cc6590bab14d3" target="_top" xlink:title="METHOD">
<polygon fill="none" stroke="black" points="135,-190.5 135,-209.5 195,-209.5 195,-190.5 135,-190.5"/>
<text text-anchor="middle" x="165" y="-197.5" font-family="Helvetica,sans-Serif" font-size="10.00">METHOD</text>
</a>
</g>
</g>
<!-- Node1&#45;&gt;Node2 -->
<g id="edge1" class="edge"><title>Node1&#45;&gt;Node2</title>
<path fill="none" stroke="midnightblue" d="M71.5547,-186.693C91.9223,-189.625 116.316,-193.136 134.93,-195.816"/>
<polygon fill="midnightblue" stroke="midnightblue" points="72.02,-183.224 61.6234,-185.264 71.0227,-190.153 72.02,-183.224"/>
</g>
<!-- Node3 -->
<g id="node3" class="node"><title>Node3</title>
<g id="a_node3"><a xlink:href="../../d7/dff/group__traffic__selector.html#ga21d390799800674b78bc3374f05e4135" target="_top" xlink:title="traffic_selector_printf_hook">
<polygon fill="none" stroke="black" points="98,-152.5 98,-171.5 232,-171.5 232,-152.5 98,-152.5"/>
<text text-anchor="middle" x="165" y="-159.5" font-family="Helvetica,sans-Serif" font-size="10.00">traffic_selector_printf_hook</text>
</a>
</g>
</g>
<!-- Node1&#45;&gt;Node3 -->
<g id="edge2" class="edge"><title>Node1&#45;&gt;Node3</title>
<path fill="none" stroke="midnightblue" d="M71.6865,-175.288C79.9475,-174.098 88.8662,-172.815 97.79,-171.53"/>
<polygon fill="midnightblue" stroke="midnightblue" points="71.0227,-171.847 61.6234,-176.736 72.02,-178.776 71.0227,-171.847"/>
</g>
<!-- Node4 -->
<g id="node4" class="node"><title>Node4</title>
<g id="a_node4"><a xlink:href="../../d3/d99/group__library.html#ga18cf1ca25ca811f74ba75c1de79cee4f" target="_top" xlink:title="library_init">
<polygon fill="none" stroke="black" points="268.5,-152.5 268.5,-171.5 329.5,-171.5 329.5,-152.5 268.5,-152.5"/>
<text text-anchor="middle" x="299" y="-159.5" font-family="Helvetica,sans-Serif" font-size="10.00">library_init</text>
</a>
</g>
</g>
<!-- Node3&#45;&gt;Node4 -->
<g id="edge3" class="edge"><title>Node3&#45;&gt;Node4</title>
<path fill="none" stroke="midnightblue" d="M242.667,-162C251.703,-162 260.465,-162 268.251,-162"/>
<polygon fill="midnightblue" stroke="midnightblue" points="242.387,-158.5 232.387,-162 242.387,-165.5 242.387,-158.5"/>
</g>
<!-- Node4&#45;&gt;Node4 -->
<g id="edge17" class="edge"><title>Node4&#45;&gt;Node4</title>
<path fill="none" stroke="midnightblue" d="M280.112,-181.4C281.373,-186.315 287.669,-190 299,-190 317.129,-190 322.369,-180.565 314.721,-171.757"/>
<polygon fill="midnightblue" stroke="midnightblue" points="283.484,-182.35 283.279,-171.757 276.833,-180.166 283.484,-182.35"/>
</g>
<!-- Node5 -->
<g id="node5" class="node"><title>Node5</title>
<g id="a_node5"><a xlink:href="../../de/dca/__copyright_8c.html#a0ddf1224851353fc92bfbff6f499fa97" target="_top" xlink:title="main">
<polygon fill="none" stroke="black" points="382,-323.5 382,-342.5 420,-342.5 420,-323.5 382,-323.5"/>
<text text-anchor="middle" x="401" y="-330.5" font-family="Helvetica,sans-Serif" font-size="10.00">main</text>
</a>
</g>
</g>
<!-- Node4&#45;&gt;Node5 -->
<g id="edge4" class="edge"><title>Node4&#45;&gt;Node5</title>
<path fill="none" stroke="midnightblue" d="M304.253,-181.808C311.855,-213.156 330.416,-274.669 366,-314 370.355,-318.814 376.225,-322.689 381.861,-325.653"/>
<polygon fill="midnightblue" stroke="midnightblue" points="307.586,-180.684 301.937,-171.721 300.764,-182.25 307.586,-180.684"/>
</g>
<!-- Node6 -->
<g id="node6" class="node"><title>Node6</title>
<g id="a_node6"><a xlink:href="../../dd/dcc/charon-svc_8c.html#a2a57519866b925dd058567c145b8ae45" target="_top" xlink:title="init_and_run">
<polygon fill="none" stroke="black" points="366.5,-285.5 366.5,-304.5 435.5,-304.5 435.5,-285.5 366.5,-285.5"/>
<text text-anchor="middle" x="401" y="-292.5" font-family="Helvetica,sans-Serif" font-size="10.00">init_and_run</text>
</a>
</g>
</g>
<!-- Node4&#45;&gt;Node6 -->
<g id="edge5" class="edge"><title>Node4&#45;&gt;Node6</title>
<path fill="none" stroke="midnightblue" d="M313.376,-179.791C334.734,-208.197 375.836,-262.861 392.604,-285.163"/>
<polygon fill="midnightblue" stroke="midnightblue" points="315.999,-177.454 307.192,-171.565 310.404,-181.661 315.999,-177.454"/>
</g>
<!-- Node10 -->
<g id="node10" class="node"><title>Node10</title>
<g id="a_node10"><a xlink:href="../../d1/d4c/ext_2dumm_8c.html#a483775b052d2c5ac3e09664bcbe4f09b" target="_top" xlink:title="Init_dumm">
<polygon fill="none" stroke="black" points="370,-209.5 370,-228.5 432,-228.5 432,-209.5 370,-209.5"/>
<text text-anchor="middle" x="401" y="-216.5" font-family="Helvetica,sans-Serif" font-size="10.00">Init_dumm</text>
</a>
</g>
</g>
<!-- Node4&#45;&gt;Node10 -->
<g id="edge10" class="edge"><title>Node4&#45;&gt;Node10</title>
<path fill="none" stroke="midnightblue" d="M325.299,-176.667C337.566,-183.753 352.528,-192.358 366,-200 371.411,-203.069 377.324,-206.387 382.679,-209.377"/>
<polygon fill="midnightblue" stroke="midnightblue" points="326.921,-173.562 316.512,-171.585 323.416,-179.621 326.921,-173.562"/>
</g>
<!-- Node11 -->
<g id="node11" class="node"><title>Node11</title>
<g id="a_node11"><a xlink:href="../../d0/d9e/group__libimcv.html#ga1a2bc69328f409c080b8814e28972ecf" target="_top" xlink:title="libimcv_init">
<polygon fill="none" stroke="black" points="368.5,-171.5 368.5,-190.5 433.5,-190.5 433.5,-171.5 368.5,-171.5"/>
<text text-anchor="middle" x="401" y="-178.5" font-family="Helvetica,sans-Serif" font-size="10.00">libimcv_init</text>
</a>
</g>
</g>
<!-- Node4&#45;&gt;Node11 -->
<g id="edge11" class="edge"><title>Node4&#45;&gt;Node11</title>
<path fill="none" stroke="midnightblue" d="M339.8,-169.562C349.328,-171.372 359.373,-173.281 368.469,-175.009"/>
<polygon fill="midnightblue" stroke="midnightblue" points="340.21,-166.077 329.733,-167.649 338.903,-172.954 340.21,-166.077"/>
</g>
<!-- Node17 -->
<g id="node17" class="node"><title>Node17</title>
<g id="a_node17"><a xlink:href="../../dc/d7a/group__libvici.html#ga51b7da53077930dc9e0f9de1298a4f9c" target="_top" xlink:title="vici_init">
<polygon fill="none" stroke="black" points="376,-133.5 376,-152.5 426,-152.5 426,-133.5 376,-133.5"/>
<text text-anchor="middle" x="401" y="-140.5" font-family="Helvetica,sans-Serif" font-size="10.00">vici_init</text>
</a>
</g>
</g>
<!-- Node4&#45;&gt;Node17 -->
<g id="edge18" class="edge"><title>Node4&#45;&gt;Node17</title>
<path fill="none" stroke="midnightblue" d="M339.743,-154.449C351.98,-152.124 365.075,-149.636 375.92,-147.575"/>
<polygon fill="midnightblue" stroke="midnightblue" points="338.903,-151.046 329.733,-156.351 340.21,-157.923 338.903,-151.046"/>
</g>
<!-- Node19 -->
<g id="node19" class="node"><title>Node19</title>
<g id="a_node19"><a xlink:href="../../d7/d9b/pt-tls-client_8c.html#aedc913c139bb562646d3459b0ca28997" target="_top" xlink:title="init">
<polygon fill="none" stroke="black" points="386.5,-95.5 386.5,-114.5 415.5,-114.5 415.5,-95.5 386.5,-95.5"/>
<text text-anchor="middle" x="401" y="-102.5" font-family="Helvetica,sans-Serif" font-size="10.00">init</text>
</a>
</g>
</g>
<!-- Node4&#45;&gt;Node19 -->
<g id="edge20" class="edge"><title>Node4&#45;&gt;Node19</title>
<path fill="none" stroke="midnightblue" d="M325.299,-147.333C337.566,-140.247 352.528,-131.642 366,-124 372.705,-120.197 380.181,-116.013 386.411,-112.542"/>
<polygon fill="midnightblue" stroke="midnightblue" points="323.416,-144.379 316.512,-152.415 326.921,-150.438 323.416,-144.379"/>
</g>
<!-- Node21 -->
<g id="node21" class="node"><title>Node21</title>
<g id="a_node21"><a xlink:href="../../d8/df9/test__runner_8c.html#a4581d637b94ffd7a3cb7dc3c8aa7946d" target="_top" xlink:title="load_suites">
<polygon fill="none" stroke="black" points="621,-38.5 621,-57.5 687,-57.5 687,-38.5 621,-38.5"/>
<text text-anchor="middle" x="654" y="-45.5" font-family="Helvetica,sans-Serif" font-size="10.00">load_suites</text>
</a>
</g>
</g>
<!-- Node4&#45;&gt;Node21 -->
<g id="edge22" class="edge"><title>Node4&#45;&gt;Node21</title>
<path fill="none" stroke="midnightblue" d="M310.739,-143.602C322.115,-125.87 341.768,-99.763 366,-86 448.382,-39.2097 565.049,-40.7226 620.845,-44.7734"/>
<polygon fill="midnightblue" stroke="midnightblue" points="307.55,-142.107 305.294,-152.46 313.513,-145.773 307.55,-142.107"/>
</g>
<!-- Node24 -->
<g id="node24" class="node"><title>Node24</title>
<g id="a_node24"><a xlink:href="../../d8/df9/test__runner_8c.html#a9a715421b4e66be894fcf98820d3312b" target="_top" xlink:title="pre_test">
<polygon fill="none" stroke="black" points="375,-0.5 375,-19.5 427,-19.5 427,-0.5 375,-0.5"/>
<text text-anchor="middle" x="401" y="-7.5" font-family="Helvetica,sans-Serif" font-size="10.00">pre_test</text>
</a>
</g>
</g>
<!-- Node4&#45;&gt;Node24 -->
<g id="edge25" class="edge"><title>Node4&#45;&gt;Node24</title>
<path fill="none" stroke="midnightblue" d="M306.587,-142.736C316.395,-116.089 336.861,-67.4858 366,-34 370.838,-28.4405 377.218,-23.5012 383.144,-19.5704"/>
<polygon fill="midnightblue" stroke="midnightblue" points="303.203,-141.808 303.146,-152.402 309.797,-144.156 303.203,-141.808"/>
</g>
<!-- Node7 -->
<g id="node7" class="node"><title>Node7</title>
<g id="a_node7"><a xlink:href="../../dd/dcc/charon-svc_8c.html#abbee77e5d66102b8a8b52c080af297b0" target="_top" xlink:title="console_main">
<polygon fill="none" stroke="black" points="480.5,-342.5 480.5,-361.5 557.5,-361.5 557.5,-342.5 480.5,-342.5"/>
<text text-anchor="middle" x="519" y="-349.5" font-family="Helvetica,sans-Serif" font-size="10.00">console_main</text>
</a>
</g>
</g>
<!-- Node6&#45;&gt;Node7 -->
<g id="edge6" class="edge"><title>Node6&#45;&gt;Node7</title>
<path fill="none" stroke="midnightblue" d="M428.333,-309.67C444.449,-318.573 463.547,-328.974 472,-333 478.865,-336.27 486.445,-339.537 493.439,-342.416"/>
<polygon fill="midnightblue" stroke="midnightblue" points="429.736,-306.445 419.293,-304.66 426.343,-312.568 429.736,-306.445"/>
</g>
<!-- Node9 -->
<g id="node9" class="node"><title>Node9</title>
<g id="a_node9"><a xlink:href="../../dd/dcc/charon-svc_8c.html#a2187fa70ac95082f38e9cf770aa45af2" target="_top" xlink:title="service_main">
<polygon fill="none" stroke="black" points="482,-304.5 482,-323.5 556,-323.5 556,-304.5 482,-304.5"/>
<text text-anchor="middle" x="519" y="-311.5" font-family="Helvetica,sans-Serif" font-size="10.00">service_main</text>
</a>
</g>
</g>
<!-- Node6&#45;&gt;Node9 -->
<g id="edge8" class="edge"><title>Node6&#45;&gt;Node9</title>
<path fill="none" stroke="midnightblue" d="M445.703,-302.158C457.565,-304.101 470.279,-306.184 481.685,-308.052"/>
<polygon fill="midnightblue" stroke="midnightblue" points="445.986,-298.658 435.552,-300.496 444.855,-305.566 445.986,-298.658"/>
</g>
<!-- Node8 -->
<g id="node8" class="node"><title>Node8</title>
<g id="a_node8"><a xlink:href="../../dd/dcc/charon-svc_8c.html#a0ddf1224851353fc92bfbff6f499fa97" target="_top" xlink:title="main">
<polygon fill="none" stroke="black" points="635,-323.5 635,-342.5 673,-342.5 673,-323.5 635,-323.5"/>
<text text-anchor="middle" x="654" y="-330.5" font-family="Helvetica,sans-Serif" font-size="10.00">main</text>
</a>
</g>
</g>
<!-- Node7&#45;&gt;Node8 -->
<g id="edge7" class="edge"><title>Node7&#45;&gt;Node8</title>
<path fill="none" stroke="midnightblue" d="M567.797,-345.172C590.994,-341.858 617.496,-338.072 634.699,-335.614"/>
<polygon fill="midnightblue" stroke="midnightblue" points="567.161,-341.727 557.757,-346.606 568.151,-348.657 567.161,-341.727"/>
</g>
<!-- Node9&#45;&gt;Node8 -->
<g id="edge9" class="edge"><title>Node9&#45;&gt;Node8</title>
<path fill="none" stroke="midnightblue" d="M566.486,-320.641C589.973,-323.996 617.134,-327.876 634.664,-330.381"/>
<polygon fill="midnightblue" stroke="midnightblue" points="566.737,-317.141 556.343,-319.192 565.747,-324.071 566.737,-317.141"/>
</g>
<!-- Node12 -->
<g id="node12" class="node"><title>Node12</title>
<g id="a_node12"><a xlink:href="../../da/d03/attest_8c.html#a0ddf1224851353fc92bfbff6f499fa97" target="_top" xlink:title="main">
<polygon fill="none" stroke="black" points="500,-266.5 500,-285.5 538,-285.5 538,-266.5 500,-266.5"/>
<text text-anchor="middle" x="519" y="-273.5" font-family="Helvetica,sans-Serif" font-size="10.00">main</text>
</a>
</g>
</g>
<!-- Node11&#45;&gt;Node12 -->
<g id="edge12" class="edge"><title>Node11&#45;&gt;Node12</title>
<path fill="none" stroke="midnightblue" d="M431.391,-196.11C433.013,-197.342 434.564,-198.64 436,-200 457.748,-220.61 449.075,-237.707 472,-257 479.933,-263.676 490.536,-268.268 499.563,-271.263"/>
<polygon fill="midnightblue" stroke="midnightblue" points="433.179,-193.097 422.902,-190.521 429.329,-198.944 433.179,-193.097"/>
</g>
<!-- Node13 -->
<g id="node13" class="node"><title>Node13</title>
<g id="a_node13"><a xlink:href="../../da/df6/group__imc__agent__t.html#ga4e3d8335be0a5db3f9057bbe23ce97e1" target="_top" xlink:title="imc_agent_create">
<polygon fill="none" stroke="black" points="472,-228.5 472,-247.5 566,-247.5 566,-228.5 472,-228.5"/>
<text text-anchor="middle" x="519" y="-235.5" font-family="Helvetica,sans-Serif" font-size="10.00">imc_agent_create</text>
</a>
</g>
</g>
<!-- Node11&#45;&gt;Node13 -->
<g id="edge13" class="edge"><title>Node11&#45;&gt;Node13</title>
<path fill="none" stroke="midnightblue" d="M428.333,-195.67C444.449,-204.573 463.547,-214.974 472,-219 478.865,-222.27 486.445,-225.537 493.439,-228.416"/>
<polygon fill="midnightblue" stroke="midnightblue" points="429.736,-192.445 419.293,-190.66 426.343,-198.568 429.736,-192.445"/>
</g>
<!-- Node15 -->
<g id="node15" class="node"><title>Node15</title>
<g id="a_node15"><a xlink:href="../../dd/dd4/group__imv__agent__t.html#ga207ef25d8bf8c613ac61d089d0874d9b" target="_top" xlink:title="imv_agent_create">
<polygon fill="none" stroke="black" points="472,-190.5 472,-209.5 566,-209.5 566,-190.5 472,-190.5"/>
<text text-anchor="middle" x="519" y="-197.5" font-family="Helvetica,sans-Serif" font-size="10.00">imv_agent_create</text>
</a>
</g>
</g>
<!-- Node11&#45;&gt;Node15 -->
<g id="edge15" class="edge"><title>Node11&#45;&gt;Node15</title>
<path fill="none" stroke="midnightblue" d="M443.742,-187.837C452.908,-189.338 462.664,-190.936 471.987,-192.463"/>
<polygon fill="midnightblue" stroke="midnightblue" points="444.132,-184.354 433.698,-186.192 443,-191.262 444.132,-184.354"/>
</g>
<!-- Node16 -->
<g id="node16" class="node"><title>Node16</title>
<g id="a_node16"><a xlink:href="../../df/da3/test__imcv__seg_8c.html#ac72d7ad0385a61efdaf1d769d5b7da2b" target="_top" xlink:title="START_TEST">
<polygon fill="none" stroke="black" points="479,-152.5 479,-171.5 559,-171.5 559,-152.5 479,-152.5"/>
<text text-anchor="middle" x="519" y="-159.5" font-family="Helvetica,sans-Serif" font-size="10.00">START_TEST</text>
</a>
</g>
</g>
<!-- Node11&#45;&gt;Node16 -->
<g id="edge16" class="edge"><title>Node11&#45;&gt;Node16</title>
<path fill="none" stroke="midnightblue" d="M443.876,-174.141C455.299,-172.27 467.627,-170.251 478.889,-168.406"/>
<polygon fill="midnightblue" stroke="midnightblue" points="443,-170.738 433.698,-175.808 444.132,-177.646 443,-170.738"/>
</g>
<!-- Node14 -->
<g id="node14" class="node"><title>Node14</title>
<g id="a_node14"><a xlink:href="../../de/d10/group__tncifimc.html#ga6a4653276d3fc1d46b7703d41a2dc5b5" target="_top" xlink:title="TNC_IMC_Initialize">
<polygon fill="none" stroke="black" points="602.5,-228.5 602.5,-247.5 705.5,-247.5 705.5,-228.5 602.5,-228.5"/>
<text text-anchor="middle" x="654" y="-235.5" font-family="Helvetica,sans-Serif" font-size="10.00">TNC_IMC_Initialize</text>
</a>
</g>
</g>
<!-- Node13&#45;&gt;Node14 -->
<g id="edge14" class="edge"><title>Node13&#45;&gt;Node14</title>
<path fill="none" stroke="midnightblue" d="M576.203,-238C584.898,-238 593.833,-238 602.395,-238"/>
<polygon fill="midnightblue" stroke="midnightblue" points="576.144,-234.5 566.144,-238 576.144,-241.5 576.144,-234.5"/>
</g>
<!-- Node18 -->
<g id="node18" class="node"><title>Node18</title>
<g id="a_node18"><a xlink:href="../../d6/dca/test__event_8c.html#afe8c30a13467d05abe5f4f9f0961b716" target="_top" xlink:title="START_TEST">
<polygon fill="none" stroke="black" points="479,-114.5 479,-133.5 559,-133.5 559,-114.5 479,-114.5"/>
<text text-anchor="middle" x="519" y="-121.5" font-family="Helvetica,sans-Serif" font-size="10.00">START_TEST</text>
</a>
</g>
</g>
<!-- Node17&#45;&gt;Node18 -->
<g id="edge19" class="edge"><title>Node17&#45;&gt;Node18</title>
<path fill="none" stroke="midnightblue" d="M436.271,-137.387C449.667,-135.193 465.103,-132.664 478.927,-130.4"/>
<polygon fill="midnightblue" stroke="midnightblue" points="435.338,-133.993 426.035,-139.063 436.47,-140.901 435.338,-133.993"/>
</g>
<!-- Node20 -->
<g id="node20" class="node"><title>Node20</title>
<g id="a_node20"><a xlink:href="../../d7/d9b/pt-tls-client_8c.html#a0ddf1224851353fc92bfbff6f499fa97" target="_top" xlink:title="main">
<polygon fill="none" stroke="black" points="500,-76.5 500,-95.5 538,-95.5 538,-76.5 500,-76.5"/>
<text text-anchor="middle" x="519" y="-83.5" font-family="Helvetica,sans-Serif" font-size="10.00">main</text>
</a>
</g>
</g>
<!-- Node19&#45;&gt;Node20 -->
<g id="edge21" class="edge"><title>Node19&#45;&gt;Node20</title>
<path fill="none" stroke="midnightblue" d="M425.892,-101.087C447.787,-97.5003 479.741,-92.2665 499.679,-89.0008"/>
<polygon fill="midnightblue" stroke="midnightblue" points="425.065,-97.6754 415.762,-102.746 426.197,-104.583 425.065,-97.6754"/>
</g>
<!-- Node22 -->
<g id="node22" class="node"><title>Node22</title>
<g id="a_node22"><a xlink:href="../../d7/deb/group__test__runner.html#ga8946393b8d2910f2fd2ccb191070c2bf" target="_top" xlink:title="test_runner_run">
<polygon fill="none" stroke="black" points="742,-19.5 742,-38.5 826,-38.5 826,-19.5 742,-19.5"/>
<text text-anchor="middle" x="784" y="-26.5" font-family="Helvetica,sans-Serif" font-size="10.00">test_runner_run</text>
</a>
</g>
</g>
<!-- Node21&#45;&gt;Node22 -->
<g id="edge23" class="edge"><title>Node21&#45;&gt;Node22</title>
<path fill="none" stroke="midnightblue" d="M697.407,-41.7052C711.752,-39.5759 727.736,-37.2033 741.972,-35.0901"/>
<polygon fill="midnightblue" stroke="midnightblue" points="696.677,-38.2751 687.3,-43.2055 697.705,-45.1992 696.677,-38.2751"/>
</g>
<!-- Node23 -->
<g id="node23" class="node"><title>Node23</title>
<g id="a_node23"><a xlink:href="../../db/da5/bliss__tests_8c.html#a0ddf1224851353fc92bfbff6f499fa97" target="_top" xlink:title="main">
<polygon fill="none" stroke="black" points="862,-19.5 862,-38.5 900,-38.5 900,-19.5 862,-19.5"/>
<text text-anchor="middle" x="881" y="-26.5" font-family="Helvetica,sans-Serif" font-size="10.00">main</text>
</a>
</g>
</g>
<!-- Node22&#45;&gt;Node23 -->
<g id="edge24" class="edge"><title>Node22&#45;&gt;Node23</title>
<path fill="none" stroke="midnightblue" d="M836.379,-29C845.462,-29 854.353,-29 861.715,-29"/>
<polygon fill="midnightblue" stroke="midnightblue" points="836.116,-25.5001 826.116,-29 836.116,-32.5001 836.116,-25.5001"/>
</g>
<!-- Node25 -->
<g id="node25" class="node"><title>Node25</title>
<g id="a_node25"><a xlink:href="../../d8/df9/test__runner_8c.html#a91aeafa598c15ed7c3b23ac4d7e1506b" target="_top" xlink:title="run_case">
<polygon fill="none" stroke="black" points="491,-0.5 491,-19.5 547,-19.5 547,-0.5 491,-0.5"/>
<text text-anchor="middle" x="519" y="-7.5" font-family="Helvetica,sans-Serif" font-size="10.00">run_case</text>
</a>
</g>
</g>
<!-- Node24&#45;&gt;Node25 -->
<g id="edge26" class="edge"><title>Node24&#45;&gt;Node25</title>
<path fill="none" stroke="midnightblue" d="M437.399,-10C454.588,-10 474.915,-10 490.856,-10"/>
<polygon fill="midnightblue" stroke="midnightblue" points="437.17,-6.5001 427.17,-10 437.17,-13.5001 437.17,-6.5001"/>
</g>
<!-- Node26 -->
<g id="node26" class="node"><title>Node26</title>
<g id="a_node26"><a xlink:href="../../d8/df9/test__runner_8c.html#a5440bde1f37dd6de5b8ee9646002e3eb" target="_top" xlink:title="run_suite">
<polygon fill="none" stroke="black" points="626,-0.5 626,-19.5 682,-19.5 682,-0.5 626,-0.5"/>
<text text-anchor="middle" x="654" y="-7.5" font-family="Helvetica,sans-Serif" font-size="10.00">run_suite</text>
</a>
</g>
</g>
<!-- Node25&#45;&gt;Node26 -->
<g id="edge27" class="edge"><title>Node25&#45;&gt;Node26</title>
<path fill="none" stroke="midnightblue" d="M557.441,-10C579.184,-10 606.086,-10 625.801,-10"/>
<polygon fill="midnightblue" stroke="midnightblue" points="557.236,-6.5001 547.235,-10 557.235,-13.5001 557.236,-6.5001"/>
</g>
<!-- Node26&#45;&gt;Node22 -->
<g id="edge28" class="edge"><title>Node26&#45;&gt;Node22</title>
<path fill="none" stroke="midnightblue" d="M692.406,-15.5525C707.893,-17.8513 725.907,-20.5252 741.773,-22.8804"/>
<polygon fill="midnightblue" stroke="midnightblue" points="692.551,-12.0357 682.146,-14.0294 691.523,-18.9598 692.551,-12.0357"/>
</g>
</g>
</svg>
