<?xml version="1.0" encoding="UTF-8" standalone="no"?>
<!DOCTYPE svg PUBLIC "-//W3C//DTD SVG 1.1//EN"
 "http://www.w3.org/Graphics/SVG/1.1/DTD/svg11.dtd">
<!-- Generated by graphviz version 2.36.0 (20140111.2315)
 -->
<!-- Title: METHOD Pages: 1 -->
<svg width="938pt" height="449pt"
 viewBox="0.00 0.00 938.00 449.00" xmlns="http://www.w3.org/2000/svg" xmlns:xlink="http://www.w3.org/1999/xlink">
<g id="graph0" class="graph" transform="scale(1 1) rotate(0) translate(4 445)">
<title>METHOD</title>
<!-- Node1 -->
<g id="node1" class="node"><title>Node1</title>
<polygon fill="#bfbfbf" stroke="black" points="0,-288.5 0,-307.5 60,-307.5 60,-288.5 0,-288.5"/>
<text text-anchor="middle" x="30" y="-295.5" font-family="Helvetica,sans-Serif" font-size="10.00">METHOD</text>
</g>
<!-- Node2 -->
<g id="node2" class="node"><title>Node2</title>
<g id="a_node2"><a xlink:href="../../d9/d75/ike__natd_8c.html#a3cc3a1ef506e00ffda29d7df7942f395" target="_top" xlink:title="build_natd_payload">
<polygon fill="none" stroke="black" points="96,-288.5 96,-307.5 196,-307.5 196,-288.5 96,-288.5"/>
<text text-anchor="middle" x="146" y="-295.5" font-family="Helvetica,sans-Serif" font-size="10.00">build_natd_payload</text>
</a>
</g>
</g>
<!-- Node1&#45;&gt;Node2 -->
<g id="edge1" class="edge"><title>Node1&#45;&gt;Node2</title>
<path fill="none" stroke="midnightblue" d="M60.062,-298C67.9224,-298 76.7246,-298 85.6044,-298"/>
<polygon fill="midnightblue" stroke="midnightblue" points="85.617,-301.5 95.617,-298 85.6169,-294.5 85.617,-301.5"/>
</g>
<!-- Node13 -->
<g id="node13" class="node"><title>Node13</title>
<g id="a_node13"><a xlink:href="../../d9/d75/ike__natd_8c.html#ae8d843d66cdbcaa73d070980adbf4654" target="_top" xlink:title="force_encap">
<polygon fill="none" stroke="black" points="259,-402.5 259,-421.5 329,-421.5 329,-402.5 259,-402.5"/>
<text text-anchor="middle" x="294" y="-409.5" font-family="Helvetica,sans-Serif" font-size="10.00">force_encap</text>
</a>
</g>
</g>
<!-- Node1&#45;&gt;Node13 -->
<g id="edge38" class="edge"><title>Node1&#45;&gt;Node13</title>
<path fill="none" stroke="midnightblue" d="M48.9177,-307.512C83.5966,-325.687 162.595,-365.942 232,-393 237.627,-395.194 243.621,-397.314 249.57,-399.293"/>
<polygon fill="midnightblue" stroke="midnightblue" points="248.876,-402.746 259.467,-402.477 251.02,-396.083 248.876,-402.746"/>
</g>
<!-- Node21 -->
<g id="node21" class="node"><title>Node21</title>
<g id="a_node21"><a xlink:href="../../d4/da5/watcher_8c.html#a8f0e10b20c0f4d75132f5af69278c063" target="_top" xlink:title="notify">
<polygon fill="none" stroke="black" points="273.5,-174.5 273.5,-193.5 314.5,-193.5 314.5,-174.5 273.5,-174.5"/>
<text text-anchor="middle" x="294" y="-181.5" font-family="Helvetica,sans-Serif" font-size="10.00">notify</text>
</a>
</g>
</g>
<!-- Node1&#45;&gt;Node21 -->
<g id="edge39" class="edge"><title>Node1&#45;&gt;Node21</title>
<path fill="none" stroke="midnightblue" d="M48.9177,-288.488C83.5966,-270.313 162.595,-230.058 232,-203 242.154,-199.041 253.499,-195.323 263.625,-192.243"/>
<polygon fill="midnightblue" stroke="midnightblue" points="264.661,-195.587 273.255,-189.391 262.673,-188.875 264.661,-195.587"/>
</g>
<!-- Node3 -->
<g id="node3" class="node"><title>Node3</title>
<g id="a_node3"><a xlink:href="../../d4/d87/group__chunk.html#gaa86c84493369a4254d5801cdca20d458" target="_top" xlink:title="chunk_free">
<polygon fill="none" stroke="black" points="411.5,-250.5 411.5,-269.5 476.5,-269.5 476.5,-250.5 411.5,-250.5"/>
<text text-anchor="middle" x="444" y="-257.5" font-family="Helvetica,sans-Serif" font-size="10.00">chunk_free</text>
</a>
</g>
</g>
<!-- Node2&#45;&gt;Node3 -->
<g id="edge2" class="edge"><title>Node2&#45;&gt;Node3</title>
<path fill="none" stroke="midnightblue" d="M184.88,-288.425C199.521,-285.016 216.462,-281.426 232,-279 290.415,-269.881 358.663,-264.723 401.364,-262.146"/>
<polygon fill="midnightblue" stroke="midnightblue" points="401.607,-265.638 411.386,-261.561 401.198,-258.65 401.607,-265.638"/>
</g>
<!-- Node5 -->
<g id="node5" class="node"><title>Node5</title>
<g id="a_node5"><a xlink:href="../../d4/d87/group__chunk.html#ga714bd1cb9e1f743523c2a58a49f1b6a4" target="_top" xlink:title="chunk_hash">
<polygon fill="none" stroke="black" points="259.5,-288.5 259.5,-307.5 328.5,-307.5 328.5,-288.5 259.5,-288.5"/>
<text text-anchor="middle" x="294" y="-295.5" font-family="Helvetica,sans-Serif" font-size="10.00">chunk_hash</text>
</a>
</g>
</g>
<!-- Node2&#45;&gt;Node5 -->
<g id="edge4" class="edge"><title>Node2&#45;&gt;Node5</title>
<path fill="none" stroke="midnightblue" d="M196.022,-298C213.173,-298 232.31,-298 249.023,-298"/>
<polygon fill="midnightblue" stroke="midnightblue" points="249.076,-301.5 259.076,-298 249.076,-294.5 249.076,-301.5"/>
</g>
<!-- Node2&#45;&gt;Node13 -->
<g id="edge13" class="edge"><title>Node2&#45;&gt;Node13</title>
<path fill="none" stroke="midnightblue" d="M154.494,-307.605C171.561,-329.267 213.292,-380.971 232,-393 237.327,-396.425 243.312,-399.267 249.396,-401.617"/>
<polygon fill="midnightblue" stroke="midnightblue" points="248.365,-404.963 258.959,-404.915 250.647,-398.346 248.365,-404.963"/>
</g>
<!-- Node14 -->
<g id="node14" class="node"><title>Node14</title>
<g id="a_node14"><a xlink:href="../../d9/d75/ike__natd_8c.html#a7bf85ca0f40466b2869585fa410759b5" target="_top" xlink:title="generate_natd_hash">
<polygon fill="none" stroke="black" points="242,-212.5 242,-231.5 346,-231.5 346,-212.5 242,-212.5"/>
<text text-anchor="middle" x="294" y="-219.5" font-family="Helvetica,sans-Serif" font-size="10.00">generate_natd_hash</text>
</a>
</g>
</g>
<!-- Node2&#45;&gt;Node14 -->
<g id="edge14" class="edge"><title>Node2&#45;&gt;Node14</title>
<path fill="none" stroke="midnightblue" d="M161.004,-288.382C177.507,-277.3 205.983,-258.953 232,-246 239.762,-242.136 248.306,-238.446 256.48,-235.169"/>
<polygon fill="midnightblue" stroke="midnightblue" points="257.788,-238.416 265.837,-231.526 255.248,-231.893 257.788,-238.416"/>
</g>
<!-- Node15 -->
<g id="node15" class="node"><title>Node15</title>
<g id="a_node15"><a xlink:href="../../d7/df1/group__host.html#gaf40fcca3c58e789ff4f82bbf875727e4" target="_top" xlink:title="host_create_from_chunk">
<polygon fill="none" stroke="black" points="232,-364.5 232,-383.5 356,-383.5 356,-364.5 232,-364.5"/>
<text text-anchor="middle" x="294" y="-371.5" font-family="Helvetica,sans-Serif" font-size="10.00">host_create_from_chunk</text>
</a>
</g>
</g>
<!-- Node2&#45;&gt;Node15 -->
<g id="edge16" class="edge"><title>Node2&#45;&gt;Node15</title>
<path fill="none" stroke="midnightblue" d="M158.992,-307.69C174.867,-320.118 204.113,-341.655 232,-355 236.634,-357.217 241.587,-359.254 246.593,-361.104"/>
<polygon fill="midnightblue" stroke="midnightblue" points="245.62,-364.47 256.215,-364.426 247.905,-357.854 245.62,-364.47"/>
</g>
<!-- Node2&#45;&gt;Node21 -->
<g id="edge23" class="edge"><title>Node2&#45;&gt;Node21</title>
<path fill="none" stroke="midnightblue" d="M154.494,-288.395C171.561,-266.733 213.292,-215.029 232,-203 241.447,-196.926 252.963,-192.685 263.434,-189.776"/>
<polygon fill="midnightblue" stroke="midnightblue" points="264.578,-193.099 273.441,-187.294 262.892,-186.304 264.578,-193.099"/>
</g>
<!-- Node32 -->
<g id="node32" class="node"><title>Node32</title>
<g id="a_node32"><a xlink:href="../../da/d2c/group__notify__payload.html#ga3fbf18951a2b31fadb0cb192cfb035dd" target="_top" xlink:title="notify_payload_create">
<polygon fill="none" stroke="black" points="238,-326.5 238,-345.5 350,-345.5 350,-326.5 238,-326.5"/>
<text text-anchor="middle" x="294" y="-333.5" font-family="Helvetica,sans-Serif" font-size="10.00">notify_payload_create</text>
</a>
</g>
</g>
<!-- Node2&#45;&gt;Node32 -->
<g id="edge36" class="edge"><title>Node2&#45;&gt;Node32</title>
<path fill="none" stroke="midnightblue" d="M183.842,-307.589C202.848,-312.536 226.229,-318.621 246.469,-323.889"/>
<polygon fill="midnightblue" stroke="midnightblue" points="245.864,-327.348 256.423,-326.48 247.627,-320.574 245.864,-327.348"/>
</g>
<!-- Node4 -->
<g id="node4" class="node"><title>Node4</title>
<g id="a_node4"><a xlink:href="../../da/dfc/settings__parser_8c.html#af07d89f5ceaea0c7c8252cc41fd75f37" target="_top" xlink:title="free">
<polygon fill="none" stroke="black" points="570.5,-250.5 570.5,-269.5 603.5,-269.5 603.5,-250.5 570.5,-250.5"/>
<text text-anchor="middle" x="587" y="-257.5" font-family="Helvetica,sans-Serif" font-size="10.00">free</text>
</a>
</g>
</g>
<!-- Node3&#45;&gt;Node4 -->
<g id="edge3" class="edge"><title>Node3&#45;&gt;Node4</title>
<path fill="none" stroke="midnightblue" d="M476.643,-260C501.737,-260 536.381,-260 559.904,-260"/>
<polygon fill="midnightblue" stroke="midnightblue" points="560.16,-263.5 570.16,-260 560.16,-256.5 560.16,-263.5"/>
</g>
<!-- Node6 -->
<g id="node6" class="node"><title>Node6</title>
<g id="a_node6"><a xlink:href="../../d4/d87/group__chunk.html#gac5619cf208f72c56bf142cbc4378e388" target="_top" xlink:title="chunk_mac">
<polygon fill="none" stroke="black" points="410.5,-288.5 410.5,-307.5 477.5,-307.5 477.5,-288.5 410.5,-288.5"/>
<text text-anchor="middle" x="444" y="-295.5" font-family="Helvetica,sans-Serif" font-size="10.00">chunk_mac</text>
</a>
</g>
</g>
<!-- Node5&#45;&gt;Node6 -->
<g id="edge5" class="edge"><title>Node5&#45;&gt;Node6</title>
<path fill="none" stroke="midnightblue" d="M328.583,-298C349.81,-298 377.435,-298 400.224,-298"/>
<polygon fill="midnightblue" stroke="midnightblue" points="400.313,-301.5 410.313,-298 400.313,-294.5 400.313,-301.5"/>
</g>
<!-- Node7 -->
<g id="node7" class="node"><title>Node7</title>
<g id="a_node7"><a xlink:href="../../d8/d39/chunk_8c.html#a09c1163fbcb7fd5f8dc5652c9083511a" target="_top" xlink:title="chunk_mac_inc">
<polygon fill="none" stroke="black" points="544.5,-288.5 544.5,-307.5 629.5,-307.5 629.5,-288.5 544.5,-288.5"/>
<text text-anchor="middle" x="587" y="-295.5" font-family="Helvetica,sans-Serif" font-size="10.00">chunk_mac_inc</text>
</a>
</g>
</g>
<!-- Node6&#45;&gt;Node7 -->
<g id="edge6" class="edge"><title>Node6&#45;&gt;Node7</title>
<path fill="none" stroke="midnightblue" d="M477.703,-298C494.451,-298 515.241,-298 534.113,-298"/>
<polygon fill="midnightblue" stroke="midnightblue" points="534.363,-301.5 544.363,-298 534.363,-294.5 534.363,-301.5"/>
</g>
<!-- Node8 -->
<g id="node8" class="node"><title>Node8</title>
<g id="a_node8"><a xlink:href="../../d8/d39/chunk_8c.html#ab5aaa633967a7323bfda1d3b7773374e" target="_top" xlink:title="sipcompress">
<polygon fill="none" stroke="black" points="678,-307.5 678,-326.5 750,-326.5 750,-307.5 678,-307.5"/>
<text text-anchor="middle" x="714" y="-314.5" font-family="Helvetica,sans-Serif" font-size="10.00">sipcompress</text>
</a>
</g>
</g>
<!-- Node7&#45;&gt;Node8 -->
<g id="edge7" class="edge"><title>Node7&#45;&gt;Node8</title>
<path fill="none" stroke="midnightblue" d="M629.623,-304.327C641.83,-306.182 655.237,-308.22 667.663,-310.109"/>
<polygon fill="midnightblue" stroke="midnightblue" points="667.409,-313.61 677.822,-311.653 668.461,-306.69 667.409,-313.61"/>
</g>
<!-- Node9 -->
<g id="node9" class="node"><title>Node9</title>
<g id="a_node9"><a xlink:href="../../d8/d39/chunk_8c.html#a9ef077ebff7df5d4b102da51b511e597" target="_top" xlink:title="sipround">
<polygon fill="none" stroke="black" points="786.5,-326.5 786.5,-345.5 839.5,-345.5 839.5,-326.5 786.5,-326.5"/>
<text text-anchor="middle" x="813" y="-333.5" font-family="Helvetica,sans-Serif" font-size="10.00">sipround</text>
</a>
</g>
</g>
<!-- Node7&#45;&gt;Node9 -->
<g id="edge12" class="edge"><title>Node7&#45;&gt;Node9</title>
<path fill="none" stroke="midnightblue" d="M604.926,-307.577C622.539,-316.949 651.236,-330.581 678,-336 710.71,-342.622 748.839,-341.823 776.042,-339.84"/>
<polygon fill="midnightblue" stroke="midnightblue" points="776.579,-343.307 786.26,-339.002 776.007,-336.331 776.579,-343.307"/>
</g>
<!-- Node11 -->
<g id="node11" class="node"><title>Node11</title>
<g id="a_node11"><a xlink:href="../../d8/d39/chunk_8c.html#a740b095c15858f572fbedfe727233276" target="_top" xlink:title="sipget">
<polygon fill="none" stroke="black" points="692.5,-269.5 692.5,-288.5 735.5,-288.5 735.5,-269.5 692.5,-269.5"/>
<text text-anchor="middle" x="714" y="-276.5" font-family="Helvetica,sans-Serif" font-size="10.00">sipget</text>
</a>
</g>
</g>
<!-- Node7&#45;&gt;Node11 -->
<g id="edge10" class="edge"><title>Node7&#45;&gt;Node11</title>
<path fill="none" stroke="midnightblue" d="M629.623,-291.673C646.704,-289.077 666.134,-286.124 681.939,-283.721"/>
<polygon fill="midnightblue" stroke="midnightblue" points="682.867,-287.121 692.227,-282.157 681.815,-280.2 682.867,-287.121"/>
</g>
<!-- Node12 -->
<g id="node12" class="node"><title>Node12</title>
<g id="a_node12"><a xlink:href="../../d8/d39/chunk_8c.html#a16bb91c5f20c585526fb6f76b5ffc6d3" target="_top" xlink:title="siplast">
<polygon fill="none" stroke="black" points="691.5,-231.5 691.5,-250.5 736.5,-250.5 736.5,-231.5 691.5,-231.5"/>
<text text-anchor="middle" x="714" y="-238.5" font-family="Helvetica,sans-Serif" font-size="10.00">siplast</text>
</a>
</g>
</g>
<!-- Node7&#45;&gt;Node12 -->
<g id="edge11" class="edge"><title>Node7&#45;&gt;Node12</title>
<path fill="none" stroke="midnightblue" d="M617.745,-288.451C625.719,-285.644 634.269,-282.405 642,-279 644.337,-277.971 667.129,-265.741 686.269,-255.429"/>
<polygon fill="midnightblue" stroke="midnightblue" points="688.125,-258.405 695.266,-250.579 684.803,-252.243 688.125,-258.405"/>
</g>
<!-- Node8&#45;&gt;Node9 -->
<g id="edge8" class="edge"><title>Node8&#45;&gt;Node9</title>
<path fill="none" stroke="midnightblue" d="M750.019,-323.859C758.678,-325.556 767.96,-327.374 776.635,-329.073"/>
<polygon fill="midnightblue" stroke="midnightblue" points="775.981,-332.511 786.467,-330.999 777.326,-325.642 775.981,-332.511"/>
</g>
<!-- Node10 -->
<g id="node10" class="node"><title>Node10</title>
<g id="a_node10"><a xlink:href="../../d8/d39/chunk_8c.html#a63c97c2d77838dbe2e7876ad6933d602" target="_top" xlink:title="siprotate">
<polygon fill="none" stroke="black" points="876,-326.5 876,-345.5 930,-345.5 930,-326.5 876,-326.5"/>
<text text-anchor="middle" x="903" y="-333.5" font-family="Helvetica,sans-Serif" font-size="10.00">siprotate</text>
</a>
</g>
</g>
<!-- Node9&#45;&gt;Node10 -->
<g id="edge9" class="edge"><title>Node9&#45;&gt;Node10</title>
<path fill="none" stroke="midnightblue" d="M839.927,-336C848.001,-336 857.057,-336 865.704,-336"/>
<polygon fill="midnightblue" stroke="midnightblue" points="865.954,-339.5 875.954,-336 865.954,-332.5 865.954,-339.5"/>
</g>
<!-- Node14&#45;&gt;Node3 -->
<g id="edge15" class="edge"><title>Node14&#45;&gt;Node3</title>
<path fill="none" stroke="midnightblue" d="M332.347,-231.589C353.341,-236.98 379.602,-243.722 401.271,-249.286"/>
<polygon fill="midnightblue" stroke="midnightblue" points="400.626,-252.734 411.182,-251.831 402.367,-245.954 400.626,-252.734"/>
</g>
<!-- Node16 -->
<g id="node16" class="node"><title>Node16</title>
<g id="a_node16"><a xlink:href="../../df/da9/host_8c.html#ac3854e66d5a7563cae9608acbcad6eb5" target="_top" xlink:title="host_create_empty">
<polygon fill="none" stroke="black" points="394,-402.5 394,-421.5 494,-421.5 494,-402.5 394,-402.5"/>
<text text-anchor="middle" x="444" y="-409.5" font-family="Helvetica,sans-Serif" font-size="10.00">host_create_empty</text>
</a>
</g>
</g>
<!-- Node15&#45;&gt;Node16 -->
<g id="edge17" class="edge"><title>Node15&#45;&gt;Node16</title>
<path fill="none" stroke="midnightblue" d="M332.347,-383.589C351.701,-388.558 375.53,-394.677 396.113,-399.961"/>
<polygon fill="midnightblue" stroke="midnightblue" points="395.366,-403.383 405.922,-402.48 397.107,-396.603 395.366,-403.383"/>
</g>
<!-- Node20 -->
<g id="node20" class="node"><title>Node20</title>
<g id="a_node20"><a xlink:href="../../df/da9/host_8c.html#a1fb6a6590d2576c32709b890623cad8c" target="_top" xlink:title="update_sa_len">
<polygon fill="none" stroke="black" points="404,-364.5 404,-383.5 484,-383.5 484,-364.5 404,-364.5"/>
<text text-anchor="middle" x="444" y="-371.5" font-family="Helvetica,sans-Serif" font-size="10.00">update_sa_len</text>
</a>
</g>
</g>
<!-- Node15&#45;&gt;Node20 -->
<g id="edge22" class="edge"><title>Node15&#45;&gt;Node20</title>
<path fill="none" stroke="midnightblue" d="M356.052,-374C368.492,-374 381.436,-374 393.418,-374"/>
<polygon fill="midnightblue" stroke="midnightblue" points="393.664,-377.5 403.664,-374 393.664,-370.5 393.664,-377.5"/>
</g>
<!-- Node17 -->
<g id="node17" class="node"><title>Node17</title>
<g id="a_node17"><a xlink:href="../../df/da9/host_8c.html#a809d5cf7574c1f5e27758950d53653f4" target="_top" xlink:title="equals">
<polygon fill="none" stroke="black" points="564.5,-421.5 564.5,-440.5 609.5,-440.5 609.5,-421.5 564.5,-421.5"/>
<text text-anchor="middle" x="587" y="-428.5" font-family="Helvetica,sans-Serif" font-size="10.00">equals</text>
</a>
</g>
</g>
<!-- Node16&#45;&gt;Node17 -->
<g id="edge18" class="edge"><title>Node16&#45;&gt;Node17</title>
<path fill="none" stroke="midnightblue" d="M494.315,-418.645C514.176,-421.322 536.51,-424.331 554.162,-426.71"/>
<polygon fill="midnightblue" stroke="midnightblue" points="554.107,-430.234 564.484,-428.101 555.041,-423.297 554.107,-430.234"/>
</g>
<!-- Node18 -->
<g id="node18" class="node"><title>Node18</title>
<g id="a_node18"><a xlink:href="../../df/da9/host_8c.html#a0ea5fbf16ec81f3c5eaf6dc5da8d452a" target="_top" xlink:title="ip_equals">
<polygon fill="none" stroke="black" points="685,-383.5 685,-402.5 743,-402.5 743,-383.5 685,-383.5"/>
<text text-anchor="middle" x="714" y="-390.5" font-family="Helvetica,sans-Serif" font-size="10.00">ip_equals</text>
</a>
</g>
</g>
<!-- Node16&#45;&gt;Node18 -->
<g id="edge21" class="edge"><title>Node16&#45;&gt;Node18</title>
<path fill="none" stroke="midnightblue" d="M494.155,-408.515C546.135,-404.83 627.051,-399.093 674.56,-395.725"/>
<polygon fill="midnightblue" stroke="midnightblue" points="675.012,-399.202 684.739,-395.004 674.517,-392.22 675.012,-399.202"/>
</g>
<!-- Node17&#45;&gt;Node18 -->
<g id="edge19" class="edge"><title>Node17&#45;&gt;Node18</title>
<path fill="none" stroke="midnightblue" d="M609.773,-424.381C627.768,-418.911 653.74,-411.015 675.131,-404.512"/>
<polygon fill="midnightblue" stroke="midnightblue" points="676.349,-407.8 684.899,-401.543 674.313,-401.103 676.349,-407.8"/>
</g>
<!-- Node19 -->
<g id="node19" class="node"><title>Node19</title>
<g id="a_node19"><a xlink:href="../../dd/d74/group__memory__i.html#ga46d7935db00fd7092430dbf4f36c2850" target="_top" xlink:title="memeq">
<polygon fill="none" stroke="black" points="788.5,-383.5 788.5,-402.5 837.5,-402.5 837.5,-383.5 788.5,-383.5"/>
<text text-anchor="middle" x="813" y="-390.5" font-family="Helvetica,sans-Serif" font-size="10.00">memeq</text>
</a>
</g>
</g>
<!-- Node18&#45;&gt;Node19 -->
<g id="edge20" class="edge"><title>Node18&#45;&gt;Node19</title>
<path fill="none" stroke="midnightblue" d="M743.056,-393C754.023,-393 766.697,-393 778.163,-393"/>
<polygon fill="midnightblue" stroke="midnightblue" points="778.271,-396.5 788.271,-393 778.271,-389.5 778.271,-396.5"/>
</g>
<!-- Node22 -->
<g id="node22" class="node"><title>Node22</title>
<g id="a_node22"><a xlink:href="../../d0/d8f/group__callback__job.html#gadfa6801d50c2e34bb3f9e1c98efe02d0" target="_top" xlink:title="callback_job_create\l_with_prio">
<polygon fill="none" stroke="black" points="392.5,-33 392.5,-63 495.5,-63 495.5,-33 392.5,-33"/>
<text text-anchor="start" x="400.5" y="-51" font-family="Helvetica,sans-Serif" font-size="10.00">callback_job_create</text>
<text text-anchor="middle" x="444" y="-40" font-family="Helvetica,sans-Serif" font-size="10.00">_with_prio</text>
</a>
</g>
</g>
<!-- Node21&#45;&gt;Node22 -->
<g id="edge24" class="edge"><title>Node21&#45;&gt;Node22</title>
<path fill="none" stroke="midnightblue" d="M304.339,-174.242C321.3,-156.662 358.509,-118.734 392,-89 399.362,-82.4639 407.583,-75.6548 415.239,-69.5066"/>
<polygon fill="midnightblue" stroke="midnightblue" points="417.603,-72.0987 423.257,-63.1385 413.249,-66.6173 417.603,-72.0987"/>
</g>
<!-- Node25 -->
<g id="node25" class="node"><title>Node25</title>
<g id="a_node25"><a xlink:href="../../d4/da5/watcher_8c.html#aa9f8d5f98b20ea9cea8adaa68b6e4ab5" target="_top" xlink:title="notify_async">
<polygon fill="none" stroke="black" points="408,-98.5 408,-117.5 480,-117.5 480,-98.5 408,-98.5"/>
<text text-anchor="middle" x="444" y="-105.5" font-family="Helvetica,sans-Serif" font-size="10.00">notify_async</text>
</a>
</g>
</g>
<!-- Node21&#45;&gt;Node25 -->
<g id="edge27" class="edge"><title>Node21&#45;&gt;Node25</title>
<path fill="none" stroke="midnightblue" d="M309.354,-174.487C327.914,-162.442 361.484,-141.514 392,-127 396.144,-125.029 400.551,-123.122 404.972,-121.326"/>
<polygon fill="midnightblue" stroke="midnightblue" points="406.526,-124.477 414.576,-117.589 403.987,-117.954 406.526,-124.477"/>
</g>
<!-- Node29 -->
<g id="node29" class="node"><title>Node29</title>
<g id="a_node29"><a xlink:href="../../d4/da5/watcher_8c.html#aa35392aaf7997cfd0f06e6bbe86feb73" target="_top" xlink:title="notify_end">
<polygon fill="none" stroke="black" points="413,-212.5 413,-231.5 475,-231.5 475,-212.5 413,-212.5"/>
<text text-anchor="middle" x="444" y="-219.5" font-family="Helvetica,sans-Serif" font-size="10.00">notify_end</text>
</a>
</g>
</g>
<!-- Node21&#45;&gt;Node29 -->
<g id="edge31" class="edge"><title>Node21&#45;&gt;Node29</title>
<path fill="none" stroke="midnightblue" d="M314.653,-189.046C337.091,-194.807 374.385,-204.383 403.007,-211.731"/>
<polygon fill="midnightblue" stroke="midnightblue" points="402.174,-215.131 412.73,-214.228 403.914,-208.351 402.174,-215.131"/>
</g>
<!-- Node31 -->
<g id="node31" class="node"><title>Node31</title>
<g id="a_node31"><a xlink:href="../../d6/d87/group__utils__i.html#ga9336a4d5728eb7ed977aacaeb8fd2c41" target="_top" xlink:title="return_false">
<polygon fill="none" stroke="black" points="410,-136.5 410,-155.5 478,-155.5 478,-136.5 410,-136.5"/>
<text text-anchor="middle" x="444" y="-143.5" font-family="Helvetica,sans-Serif" font-size="10.00">return_false</text>
</a>
</g>
</g>
<!-- Node21&#45;&gt;Node31 -->
<g id="edge35" class="edge"><title>Node21&#45;&gt;Node31</title>
<path fill="none" stroke="midnightblue" d="M314.653,-178.954C336.293,-173.398 371.75,-164.294 399.92,-157.061"/>
<polygon fill="midnightblue" stroke="midnightblue" points="401.114,-160.368 409.929,-154.491 399.373,-153.588 401.114,-160.368"/>
</g>
<!-- Node23 -->
<g id="node23" class="node"><title>Node23</title>
<g id="a_node23"><a xlink:href="../../d1/d14/fetch_8c.html#a17dd1592e9f4ebc44d5126c03a3a9697" target="_top" xlink:title="cb">
<polygon fill="none" stroke="black" points="572.5,-38.5 572.5,-57.5 601.5,-57.5 601.5,-38.5 572.5,-38.5"/>
<text text-anchor="middle" x="587" y="-45.5" font-family="Helvetica,sans-Serif" font-size="10.00">cb</text>
</a>
</g>
</g>
<!-- Node22&#45;&gt;Node23 -->
<g id="edge25" class="edge"><title>Node22&#45;&gt;Node23</title>
<path fill="none" stroke="midnightblue" d="M495.506,-48C518.255,-48 544.031,-48 562.238,-48"/>
<polygon fill="midnightblue" stroke="midnightblue" points="562.253,-51.5001 572.253,-48 562.253,-44.5001 562.253,-51.5001"/>
</g>
<!-- Node24 -->
<g id="node24" class="node"><title>Node24</title>
<g id="a_node24"><a xlink:href="../../d2/dca/nm__backend_8c.html#a22ea158445c16ed72f5ab270e1dc691b" target="_top" xlink:title="cancel">
<polygon fill="none" stroke="black" points="564.5,-0.5 564.5,-19.5 609.5,-19.5 609.5,-0.5 564.5,-0.5"/>
<text text-anchor="middle" x="587" y="-7.5" font-family="Helvetica,sans-Serif" font-size="10.00">cancel</text>
</a>
</g>
</g>
<!-- Node22&#45;&gt;Node24 -->
<g id="edge26" class="edge"><title>Node22&#45;&gt;Node24</title>
<path fill="none" stroke="midnightblue" d="M495.506,-34.3885C515.138,-29.0977 537.024,-23.1992 554.355,-18.5284"/>
<polygon fill="midnightblue" stroke="midnightblue" points="555.752,-21.777 564.496,-15.7953 553.93,-15.0181 555.752,-21.777"/>
</g>
<!-- Node26 -->
<g id="node26" class="node"><title>Node26</title>
<g id="a_node26"><a xlink:href="../../da/dd8/group__thread.html#ga5c78b3b4d797a5e3fd535b81d1120857" target="_top" xlink:title="thread_cleanup_push">
<polygon fill="none" stroke="black" points="532.5,-114.5 532.5,-133.5 641.5,-133.5 641.5,-114.5 532.5,-114.5"/>
<text text-anchor="middle" x="587" y="-121.5" font-family="Helvetica,sans-Serif" font-size="10.00">thread_cleanup_push</text>
</a>
</g>
</g>
<!-- Node25&#45;&gt;Node26 -->
<g id="edge28" class="edge"><title>Node25&#45;&gt;Node26</title>
<path fill="none" stroke="midnightblue" d="M480.217,-111.996C493.008,-113.448 507.886,-115.136 522.374,-116.78"/>
<polygon fill="midnightblue" stroke="midnightblue" points="521.98,-120.258 532.311,-117.908 522.77,-113.302 521.98,-120.258"/>
</g>
<!-- Node27 -->
<g id="node27" class="node"><title>Node27</title>
<g id="a_node27"><a xlink:href="../../d4/da5/watcher_8c.html#af07a8ce292029fcffea96da307cbaec9" target="_top" xlink:title="unregister">
<polygon fill="none" stroke="black" points="557.5,-76.5 557.5,-95.5 616.5,-95.5 616.5,-76.5 557.5,-76.5"/>
<text text-anchor="middle" x="587" y="-83.5" font-family="Helvetica,sans-Serif" font-size="10.00">unregister</text>
</a>
</g>
</g>
<!-- Node25&#45;&gt;Node27 -->
<g id="edge29" class="edge"><title>Node25&#45;&gt;Node27</title>
<path fill="none" stroke="midnightblue" d="M480.217,-102.505C500.592,-99.326 526.266,-95.3203 547.217,-92.0512"/>
<polygon fill="midnightblue" stroke="midnightblue" points="548.043,-95.4647 557.384,-90.4649 546.964,-88.5484 548.043,-95.4647"/>
</g>
<!-- Node28 -->
<g id="node28" class="node"><title>Node28</title>
<g id="a_node28"><a xlink:href="../../da/dd8/group__thread.html#ga669a6d403cfb4dc30e7a389b3b6cf48b" target="_top" xlink:title="thread_cleanup_pop">
<polygon fill="none" stroke="black" points="535,-152.5 535,-171.5 639,-171.5 639,-152.5 535,-152.5"/>
<text text-anchor="middle" x="587" y="-159.5" font-family="Helvetica,sans-Serif" font-size="10.00">thread_cleanup_pop</text>
</a>
</g>
</g>
<!-- Node25&#45;&gt;Node28 -->
<g id="edge30" class="edge"><title>Node25&#45;&gt;Node28</title>
<path fill="none" stroke="midnightblue" d="M471.59,-117.554C479.486,-120.485 488.126,-123.787 496,-127 512.211,-133.615 515.729,-136.534 532,-143 537.137,-145.042 542.592,-147.093 547.983,-149.054"/>
<polygon fill="midnightblue" stroke="midnightblue" points="546.941,-152.398 557.536,-152.463 549.294,-145.805 546.941,-152.398"/>
</g>
<!-- Node29&#45;&gt;Node4 -->
<g id="edge32" class="edge"><title>Node29&#45;&gt;Node4</title>
<path fill="none" stroke="midnightblue" d="M475.248,-230.152C500.624,-236.991 536.462,-246.649 560.428,-253.108"/>
<polygon fill="midnightblue" stroke="midnightblue" points="559.648,-256.523 570.215,-255.746 561.47,-249.764 559.648,-256.523"/>
</g>
<!-- Node30 -->
<g id="node30" class="node"><title>Node30</title>
<g id="a_node30"><a xlink:href="../../d4/da5/watcher_8c.html#a555c5ce92a336acef1ff02fb00381924" target="_top" xlink:title="update">
<polygon fill="none" stroke="black" points="564,-201.5 564,-220.5 610,-220.5 610,-201.5 564,-201.5"/>
<text text-anchor="middle" x="587" y="-208.5" font-family="Helvetica,sans-Serif" font-size="10.00">update</text>
</a>
</g>
</g>
<!-- Node29&#45;&gt;Node30 -->
<g id="edge33" class="edge"><title>Node29&#45;&gt;Node30</title>
<path fill="none" stroke="midnightblue" d="M475.248,-219.64C498.264,-217.845 529.889,-215.377 553.453,-213.539"/>
<polygon fill="midnightblue" stroke="midnightblue" points="553.956,-217.011 563.653,-212.743 553.411,-210.032 553.956,-217.011"/>
</g>
<!-- Node30&#45;&gt;Node21 -->
<g id="edge34" class="edge"><title>Node30&#45;&gt;Node21</title>
<path fill="none" stroke="midnightblue" d="M563.791,-208.939C511.964,-204.131 383.016,-192.166 324.598,-186.746"/>
<polygon fill="midnightblue" stroke="midnightblue" points="324.826,-183.252 314.545,-185.813 324.179,-190.222 324.826,-183.252"/>
</g>
<!-- Node33 -->
<g id="node33" class="node"><title>Node33</title>
<g id="a_node33"><a xlink:href="../../db/d98/notify__payload_8c.html#a879fe5606599141c97616a5c3c5c2bed" target="_top" xlink:title="compute_length">
<polygon fill="none" stroke="black" points="401,-326.5 401,-345.5 487,-345.5 487,-326.5 401,-326.5"/>
<text text-anchor="middle" x="444" y="-333.5" font-family="Helvetica,sans-Serif" font-size="10.00">compute_length</text>
</a>
</g>
</g>
<!-- Node32&#45;&gt;Node33 -->
<g id="edge37" class="edge"><title>Node32&#45;&gt;Node33</title>
<path fill="none" stroke="midnightblue" d="M350.11,-336C363.339,-336 377.431,-336 390.536,-336"/>
<polygon fill="midnightblue" stroke="midnightblue" points="390.8,-339.5 400.8,-336 390.8,-332.5 390.8,-339.5"/>
</g>
</g>
</svg>
