<?xml version="1.0" encoding="UTF-8" standalone="no"?>
<!DOCTYPE svg PUBLIC "-//W3C//DTD SVG 1.1//EN"
 "http://www.w3.org/Graphics/SVG/1.1/DTD/svg11.dtd">
<!-- Generated by graphviz version 2.36.0 (20140111.2315)
 -->
<!-- Title: load_pools.c Pages: 1 -->
<svg width="390pt" height="140pt"
 viewBox="0.00 0.00 390.00 140.00" xmlns="http://www.w3.org/2000/svg" xmlns:xlink="http://www.w3.org/1999/xlink">
<g id="graph0" class="graph" transform="scale(1 1) rotate(0) translate(4 136)">
<title>load_pools.c</title>
<!-- Node1 -->
<g id="node1" class="node"><title>Node1</title>
<polygon fill="#bfbfbf" stroke="black" points="144.5,-112.5 144.5,-131.5 215.5,-131.5 215.5,-112.5 144.5,-112.5"/>
<text text-anchor="middle" x="180" y="-119.5" font-family="Helvetica,sans-Serif" font-size="10.00">load_pools.c</text>
</g>
<!-- Node2 -->
<g id="node2" class="node"><title>Node2</title>
<polygon fill="none" stroke="#bfbfbf" points="0,-56.5 0,-75.5 46,-75.5 46,-56.5 0,-56.5"/>
<text text-anchor="middle" x="23" y="-63.5" font-family="Helvetica,sans-Serif" font-size="10.00">stdio.h</text>
</g>
<!-- Node1&#45;&gt;Node2 -->
<g id="edge1" class="edge"><title>Node1&#45;&gt;Node2</title>
<path fill="none" stroke="midnightblue" d="M155.123,-112.444C128.245,-103.199 85.3003,-88.4281 55.707,-78.2495"/>
<polygon fill="midnightblue" stroke="midnightblue" points="56.82,-74.9312 46.2253,-74.9883 54.5432,-81.5506 56.82,-74.9312"/>
</g>
<!-- Node3 -->
<g id="node3" class="node"><title>Node3</title>
<polygon fill="none" stroke="#bfbfbf" points="64.5,-56.5 64.5,-75.5 111.5,-75.5 111.5,-56.5 64.5,-56.5"/>
<text text-anchor="middle" x="88" y="-63.5" font-family="Helvetica,sans-Serif" font-size="10.00">errno.h</text>
</g>
<!-- Node1&#45;&gt;Node3 -->
<g id="edge2" class="edge"><title>Node1&#45;&gt;Node3</title>
<path fill="none" stroke="midnightblue" d="M165.219,-112.324C150.733,-103.822 128.427,-90.7288 111.507,-80.7975"/>
<polygon fill="midnightblue" stroke="midnightblue" points="113.141,-77.6981 102.745,-75.6545 109.597,-83.735 113.141,-77.6981"/>
</g>
<!-- Node4 -->
<g id="node4" class="node"><title>Node4</title>
<polygon fill="none" stroke="#bfbfbf" points="130,-56.5 130,-75.5 178,-75.5 178,-56.5 130,-56.5"/>
<text text-anchor="middle" x="154" y="-63.5" font-family="Helvetica,sans-Serif" font-size="10.00">limits.h</text>
</g>
<!-- Node1&#45;&gt;Node4 -->
<g id="edge3" class="edge"><title>Node1&#45;&gt;Node4</title>
<path fill="none" stroke="midnightblue" d="M175.707,-112.083C172.148,-104.691 166.978,-93.9533 162.576,-84.8111"/>
<polygon fill="midnightblue" stroke="midnightblue" points="165.705,-83.2427 158.213,-75.7511 159.398,-86.2795 165.705,-83.2427"/>
</g>
<!-- Node5 -->
<g id="node5" class="node"><title>Node5</title>
<polygon fill="none" stroke="#bfbfbf" points="242,-0.5 242,-19.5 310,-19.5 310,-0.5 242,-0.5"/>
<text text-anchor="middle" x="276" y="-7.5" font-family="Helvetica,sans-Serif" font-size="10.00">command.h</text>
</g>
<!-- Node1&#45;&gt;Node5 -->
<g id="edge4" class="edge"><title>Node1&#45;&gt;Node5</title>
<path fill="none" stroke="midnightblue" d="M185.383,-112.132C193.439,-99.1753 209.462,-74.5942 226,-56 235.484,-45.336 247.307,-34.599 257.075,-26.2886"/>
<polygon fill="midnightblue" stroke="midnightblue" points="259.575,-28.7619 265.019,-19.6731 255.095,-23.3828 259.575,-28.7619"/>
</g>
<!-- Node6 -->
<g id="node6" class="node"><title>Node6</title>
<g id="a_node6"><a xlink:href="../../d7/d34/swanctl_8h.html" target="_top" xlink:title="swanctl.h">
<polygon fill="none" stroke="black" points="234.5,-56.5 234.5,-75.5 293.5,-75.5 293.5,-56.5 234.5,-56.5"/>
<text text-anchor="middle" x="264" y="-63.5" font-family="Helvetica,sans-Serif" font-size="10.00">swanctl.h</text>
</a>
</g>
</g>
<!-- Node1&#45;&gt;Node6 -->
<g id="edge5" class="edge"><title>Node1&#45;&gt;Node6</title>
<path fill="none" stroke="midnightblue" d="M193.496,-112.324C206.6,-103.9 226.712,-90.9709 242.107,-81.0741"/>
<polygon fill="midnightblue" stroke="midnightblue" points="244.018,-84.0063 250.537,-75.6545 240.233,-78.118 244.018,-84.0063"/>
</g>
<!-- Node7 -->
<g id="node7" class="node"><title>Node7</title>
<g id="a_node7"><a xlink:href="../../d0/d33/load__pools_8h.html" target="_top" xlink:title="load_pools.h">
<polygon fill="none" stroke="black" points="311.5,-56.5 311.5,-75.5 382.5,-75.5 382.5,-56.5 311.5,-56.5"/>
<text text-anchor="middle" x="347" y="-63.5" font-family="Helvetica,sans-Serif" font-size="10.00">load_pools.h</text>
</a>
</g>
</g>
<!-- Node1&#45;&gt;Node7 -->
<g id="edge6" class="edge"><title>Node1&#45;&gt;Node7</title>
<path fill="none" stroke="midnightblue" d="M206.462,-112.444C234.678,-103.32 279.54,-88.8133 310.968,-78.6509"/>
<polygon fill="midnightblue" stroke="midnightblue" points="312.224,-81.9234 320.662,-75.5164 310.07,-75.263 312.224,-81.9234"/>
</g>
<!-- Node7&#45;&gt;Node5 -->
<g id="edge7" class="edge"><title>Node7&#45;&gt;Node5</title>
<path fill="none" stroke="midnightblue" d="M335.593,-56.324C324.891,-48.1849 308.659,-35.8395 295.837,-26.0874"/>
<polygon fill="midnightblue" stroke="midnightblue" points="297.693,-23.1018 287.615,-19.8339 293.456,-28.6734 297.693,-23.1018"/>
</g>
</g>
</svg>
