<?xml version="1.0" encoding="UTF-8" standalone="no"?>
<!DOCTYPE svg PUBLIC "-//W3C//DTD SVG 1.1//EN"
 "http://www.w3.org/Graphics/SVG/1.1/DTD/svg11.dtd">
<!-- Generated by graphviz version 2.36.0 (20140111.2315)
 -->
<!-- Title: main Pages: 1 -->
<!--zoomable 446 -->
<svg id="main" version="1.1" xmlns="http://www.w3.org/2000/svg" xmlns:xlink="http://www.w3.org/1999/xlink" xml:space="preserve" onload="init(evt)">
<style type="text/css"><![CDATA[
.edge:hover path { stroke: red; }
.edge:hover polygon { stroke: red; fill: red; }
]]></style>
<script type="text/javascript"><![CDATA[
var edges = document.getElementsByTagName('g');
if (edges && edges.length) {
  for (var i=0;i<edges.length;i++) {
    if (edges[i].id.substr(0,4)=='edge') {
      edges[i].setAttribute('class','edge');
    }
  }
}
]]></script>
        <defs>
                <circle id="rim" cx="0" cy="0" r="7"/>
                <circle id="rim2" cx="0" cy="0" r="3.5"/>
                <g id="zoomPlus">
                        <use xlink:href="#rim" fill="#404040">
                                <set attributeName="fill" to="#808080" begin="zoomplus.mouseover" end="zoomplus.mouseout"/>
                        </use>
                        <path d="M-4,0h8M0,-4v8" fill="none" stroke="white" stroke-width="1.5" pointer-events="none"/>
                </g>
                <g id="zoomMin">
                        <use xlink:href="#rim" fill="#404040">
                                <set attributeName="fill" to="#808080" begin="zoomminus.mouseover" end="zoomminus.mouseout"/>
                        </use>
                        <path d="M-4,0h8" fill="none" stroke="white" stroke-width="1.5" pointer-events="none"/>
                </g>
                <g id="dirArrow">
                        <path fill="none" stroke="white" stroke-width="1.5" d="M0,-3.0v7 M-2.5,-0.5L0,-3.0L2.5,-0.5"/>
                </g>
               <g id="resetDef">
                       <use xlink:href="#rim2" fill="#404040">
                               <set attributeName="fill" to="#808080" begin="reset.mouseover" end="reset.mouseout"/>
                       </use>
               </g>
        </defs>

<script type="text/javascript">
var viewWidth = 992;
var viewHeight = 446;
var sectionId = 'dynsection-1';
</script>
<script xlink:href="../../svgpan.js"/>
<svg id="graph" class="graph">
<g id="viewport">
<title>main</title>
<!-- Node1 -->
<g id="node1" class="node"><title>Node1</title>
<polygon fill="#bfbfbf" stroke="black" points="0,-210.5 0,-229.5 38,-229.5 38,-210.5 0,-210.5"/>
<text text-anchor="middle" x="19" y="-217.5" font-family="Helvetica,sans-Serif" font-size="10.00">main</text>
</g>
<!-- Node2 -->
<g id="node2" class="node"><title>Node2</title>
<g id="a_node2"><a xlink:href="../../d5/d8d/group__identification.html#ga23065d7dd9165080ce47e4c20089761e" target="_top" xlink:title="identification_create\l_from_string">
<polygon fill="none" stroke="black" points="74,-205 74,-235 178,-235 178,-205 74,-205"/>
<text text-anchor="start" x="82" y="-223" font-family="Helvetica,sans-Serif" font-size="10.00">identification_create</text>
<text text-anchor="middle" x="126" y="-212" font-family="Helvetica,sans-Serif" font-size="10.00">_from_string</text>
</a>
</g>
</g>
<!-- Node1&#45;&gt;Node2 -->
<g id="edge1" class="edge"><title>Node1&#45;&gt;Node2</title>
<path fill="none" stroke="midnightblue" d="M38.2896,-220C45.625,-220 54.5385,-220 63.8245,-220"/>
<polygon fill="midnightblue" stroke="midnightblue" points="63.9899,-223.5 73.9898,-220 63.9898,-216.5 63.9899,-223.5"/>
</g>
<!-- Node3 -->
<g id="node3" class="node"><title>Node3</title>
<g id="a_node3"><a xlink:href="../../d6/d2f/identification_8c.html#afd254ae787b9b095e0c4cdb0e493b216" target="_top" xlink:title="create_from_string\l_with_prefix_type">
<polygon fill="none" stroke="black" points="214,-298 214,-328 312,-328 312,-298 214,-298"/>
<text text-anchor="start" x="222" y="-316" font-family="Helvetica,sans-Serif" font-size="10.00">create_from_string</text>
<text text-anchor="middle" x="263" y="-305" font-family="Helvetica,sans-Serif" font-size="10.00">_with_prefix_type</text>
</a>
</g>
</g>
<!-- Node2&#45;&gt;Node3 -->
<g id="edge2" class="edge"><title>Node2&#45;&gt;Node3</title>
<path fill="none" stroke="midnightblue" d="M144.289,-235.06C161.359,-249.548 188.529,-271.609 214,-288 216.602,-289.675 219.33,-291.332 222.107,-292.95"/>
<polygon fill="midnightblue" stroke="midnightblue" points="220.617,-296.126 231.054,-297.949 224.031,-290.015 220.617,-296.126"/>
</g>
<!-- Node6 -->
<g id="node6" class="node"><title>Node6</title>
<g id="a_node6"><a xlink:href="../../d6/d2f/identification_8c.html#a2c4638c8ff8771dbda52e0c3b7aac28b" target="_top" xlink:title="identification_create">
<polygon fill="none" stroke="black" points="354,-342.5 354,-361.5 458,-361.5 458,-342.5 354,-342.5"/>
<text text-anchor="middle" x="406" y="-349.5" font-family="Helvetica,sans-Serif" font-size="10.00">identification_create</text>
</a>
</g>
</g>
<!-- Node2&#45;&gt;Node6 -->
<g id="edge32" class="edge"><title>Node2&#45;&gt;Node6</title>
<path fill="none" stroke="midnightblue" d="M133.154,-235.092C144.663,-261.115 172.128,-313.859 214,-337 253.367,-358.757 304.439,-361.714 343.866,-359.662"/>
<polygon fill="midnightblue" stroke="midnightblue" points="344.126,-363.152 353.882,-359.021 343.679,-356.166 344.126,-363.152"/>
</g>
<!-- Node9 -->
<g id="node9" class="node"><title>Node9</title>
<g id="a_node9"><a xlink:href="../../d4/d87/group__chunk.html#gaadc119e547e9a456a8c2c6271290b584" target="_top" xlink:title="chunk_from_hex">
<polygon fill="none" stroke="black" points="361.5,-258.5 361.5,-277.5 450.5,-277.5 450.5,-258.5 361.5,-258.5"/>
<text text-anchor="middle" x="406" y="-265.5" font-family="Helvetica,sans-Serif" font-size="10.00">chunk_from_hex</text>
</a>
</g>
</g>
<!-- Node2&#45;&gt;Node9 -->
<g id="edge35" class="edge"><title>Node2&#45;&gt;Node9</title>
<path fill="none" stroke="midnightblue" d="M178.034,-222.972C215.405,-225.763 267.2,-230.915 312,-240 330.925,-243.838 351.53,-249.845 368.524,-255.313"/>
<polygon fill="midnightblue" stroke="midnightblue" points="367.479,-258.654 378.072,-258.45 369.664,-252.004 367.479,-258.654"/>
</g>
<!-- Node13 -->
<g id="node13" class="node"><title>Node13</title>
<g id="a_node13"><a xlink:href="../../d6/d2f/identification_8c.html#ad1d2bbb8825975270a82317092f0dc8c" target="_top" xlink:title="create_from_string\l_with_num_type">
<polygon fill="none" stroke="black" points="214,-249 214,-279 312,-279 312,-249 214,-249"/>
<text text-anchor="start" x="222" y="-267" font-family="Helvetica,sans-Serif" font-size="10.00">create_from_string</text>
<text text-anchor="middle" x="263" y="-256" font-family="Helvetica,sans-Serif" font-size="10.00">_with_num_type</text>
</a>
</g>
</g>
<!-- Node2&#45;&gt;Node13 -->
<g id="edge12" class="edge"><title>Node2&#45;&gt;Node13</title>
<path fill="none" stroke="midnightblue" d="M173.082,-235.019C183.716,-238.485 195.141,-242.209 206.141,-245.794"/>
<polygon fill="midnightblue" stroke="midnightblue" points="205.075,-249.128 215.668,-248.899 207.244,-242.472 205.075,-249.128"/>
</g>
<!-- Node14 -->
<g id="node14" class="node"><title>Node14</title>
<g id="a_node14"><a xlink:href="../../d6/d2f/identification_8c.html#a40ec64238fd9138c59eb02096163c9a1" target="_top" xlink:title="atodn">
<polygon fill="none" stroke="black" points="242.5,-156.5 242.5,-175.5 283.5,-175.5 283.5,-156.5 242.5,-156.5"/>
<text text-anchor="middle" x="263" y="-163.5" font-family="Helvetica,sans-Serif" font-size="10.00">atodn</text>
</a>
</g>
</g>
<!-- Node2&#45;&gt;Node14 -->
<g id="edge15" class="edge"><title>Node2&#45;&gt;Node14</title>
<path fill="none" stroke="midnightblue" d="M164.605,-204.958C186.23,-196.308 212.984,-185.606 232.977,-177.609"/>
<polygon fill="midnightblue" stroke="midnightblue" points="234.489,-180.774 242.474,-173.811 231.889,-174.275 234.489,-180.774"/>
</g>
<!-- Node26 -->
<g id="node26" class="node"><title>Node26</title>
<g id="a_node26"><a xlink:href="../../d4/d40/group__string__i.html#ga65c3d08890165aaa4663c72d07f93bb7" target="_top" xlink:title="streq">
<polygon fill="none" stroke="black" points="244,-118.5 244,-137.5 282,-137.5 282,-118.5 244,-118.5"/>
<text text-anchor="middle" x="263" y="-125.5" font-family="Helvetica,sans-Serif" font-size="10.00">streq</text>
</a>
</g>
</g>
<!-- Node2&#45;&gt;Node26 -->
<g id="edge33" class="edge"><title>Node2&#45;&gt;Node26</title>
<path fill="none" stroke="midnightblue" d="M141.871,-204.907C158.331,-188.859 186.224,-163.556 214,-147 220.207,-143.3 227.265,-140.046 234.023,-137.324"/>
<polygon fill="midnightblue" stroke="midnightblue" points="235.45,-140.527 243.575,-133.727 232.983,-133.976 235.45,-140.527"/>
</g>
<!-- Node27 -->
<g id="node27" class="node"><title>Node27</title>
<g id="a_node27"><a xlink:href="../../da/d9b/group__windows.html#ga7fb1f8a8f40e09fa09e625d2a09dc04e" target="_top" xlink:title="inet_pton">
<polygon fill="none" stroke="black" points="235,-80.5 235,-99.5 291,-99.5 291,-80.5 235,-80.5"/>
<text text-anchor="middle" x="263" y="-87.5" font-family="Helvetica,sans-Serif" font-size="10.00">inet_pton</text>
</a>
</g>
</g>
<!-- Node2&#45;&gt;Node27 -->
<g id="edge34" class="edge"><title>Node2&#45;&gt;Node27</title>
<path fill="none" stroke="midnightblue" d="M135.209,-204.995C148.751,-181.506 177.904,-135.958 214,-109 217.474,-106.406 221.349,-104.113 225.349,-102.102"/>
<polygon fill="midnightblue" stroke="midnightblue" points="227.067,-105.168 234.781,-97.9065 224.222,-98.7725 227.067,-105.168"/>
</g>
<!-- Node4 -->
<g id="node4" class="node"><title>Node4</title>
<g id="a_node4"><a xlink:href="../../d4/d40/group__string__i.html#gad04895c77cc61acb068222c88d72dff0" target="_top" xlink:title="strcasepfx">
<polygon fill="none" stroke="black" points="375,-399.5 375,-418.5 437,-418.5 437,-399.5 375,-399.5"/>
<text text-anchor="middle" x="406" y="-406.5" font-family="Helvetica,sans-Serif" font-size="10.00">strcasepfx</text>
</a>
</g>
</g>
<!-- Node3&#45;&gt;Node4 -->
<g id="edge3" class="edge"><title>Node3&#45;&gt;Node4</title>
<path fill="none" stroke="midnightblue" d="M285.689,-328.119C302.611,-339.881 326.736,-356.572 348,-371 359.113,-378.541 371.513,-386.822 381.902,-393.725"/>
<polygon fill="midnightblue" stroke="midnightblue" points="380.163,-396.771 390.431,-399.382 384.032,-390.937 380.163,-396.771"/>
</g>
<!-- Node3&#45;&gt;Node6 -->
<g id="edge5" class="edge"><title>Node3&#45;&gt;Node6</title>
<path fill="none" stroke="midnightblue" d="M312.13,-326.313C327.836,-330.657 345.195,-335.458 360.614,-339.723"/>
<polygon fill="midnightblue" stroke="midnightblue" points="359.857,-343.145 370.429,-342.438 361.724,-336.398 359.857,-343.145"/>
</g>
<!-- Node3&#45;&gt;Node9 -->
<g id="edge8" class="edge"><title>Node3&#45;&gt;Node9</title>
<path fill="none" stroke="midnightblue" d="M311.343,-297.89C328.999,-292.256 348.835,-285.925 365.691,-280.545"/>
<polygon fill="midnightblue" stroke="midnightblue" points="366.77,-283.875 375.232,-277.5 364.641,-277.207 366.77,-283.875"/>
</g>
<!-- Node5 -->
<g id="node5" class="node"><title>Node5</title>
<g id="a_node5"><a xlink:href="../../d4/d40/group__string__i.html#ga9642181c8684012e619edccbc9f52d1c" target="_top" xlink:title="strncaseeq">
<polygon fill="none" stroke="black" points="515.5,-418.5 515.5,-437.5 580.5,-437.5 580.5,-418.5 515.5,-418.5"/>
<text text-anchor="middle" x="548" y="-425.5" font-family="Helvetica,sans-Serif" font-size="10.00">strncaseeq</text>
</a>
</g>
</g>
<!-- Node4&#45;&gt;Node5 -->
<g id="edge4" class="edge"><title>Node4&#45;&gt;Node5</title>
<path fill="none" stroke="midnightblue" d="M437.034,-413.076C456.871,-415.768 483.147,-419.334 505.04,-422.305"/>
<polygon fill="midnightblue" stroke="midnightblue" points="504.689,-425.79 515.069,-423.667 505.631,-418.853 504.689,-425.79"/>
</g>
<!-- Node7 -->
<g id="node7" class="node"><title>Node7</title>
<g id="a_node7"><a xlink:href="../../d6/d87/group__utils__i.html#ga2cd701fdf8284f1c4c85d3334d5072cf" target="_top" xlink:title="return_true">
<polygon fill="none" stroke="black" points="516.5,-380.5 516.5,-399.5 579.5,-399.5 579.5,-380.5 516.5,-380.5"/>
<text text-anchor="middle" x="548" y="-387.5" font-family="Helvetica,sans-Serif" font-size="10.00">return_true</text>
</a>
</g>
</g>
<!-- Node6&#45;&gt;Node7 -->
<g id="edge6" class="edge"><title>Node6&#45;&gt;Node7</title>
<path fill="none" stroke="midnightblue" d="M442.328,-361.589C461.869,-366.893 486.234,-373.506 506.538,-379.017"/>
<polygon fill="midnightblue" stroke="midnightblue" points="505.871,-382.463 516.439,-381.705 507.705,-375.707 505.871,-382.463"/>
</g>
<!-- Node8 -->
<g id="node8" class="node"><title>Node8</title>
<g id="a_node8"><a xlink:href="../../d6/d87/group__utils__i.html#ga9336a4d5728eb7ed977aacaeb8fd2c41" target="_top" xlink:title="return_false">
<polygon fill="none" stroke="black" points="514,-342.5 514,-361.5 582,-361.5 582,-342.5 514,-342.5"/>
<text text-anchor="middle" x="548" y="-349.5" font-family="Helvetica,sans-Serif" font-size="10.00">return_false</text>
</a>
</g>
</g>
<!-- Node6&#45;&gt;Node8 -->
<g id="edge7" class="edge"><title>Node6&#45;&gt;Node8</title>
<path fill="none" stroke="midnightblue" d="M458.336,-352C473.282,-352 489.452,-352 503.839,-352"/>
<polygon fill="midnightblue" stroke="midnightblue" points="503.958,-355.5 513.958,-352 503.958,-348.5 503.958,-355.5"/>
</g>
<!-- Node10 -->
<g id="node10" class="node"><title>Node10</title>
<g id="a_node10"><a xlink:href="../../da/dfc/settings__parser_8c.html#a5faf6a2d99f50a4655dd390199a8db7b" target="_top" xlink:title="malloc">
<polygon fill="none" stroke="black" points="657.5,-266.5 657.5,-285.5 702.5,-285.5 702.5,-266.5 657.5,-266.5"/>
<text text-anchor="middle" x="680" y="-273.5" font-family="Helvetica,sans-Serif" font-size="10.00">malloc</text>
</a>
</g>
</g>
<!-- Node9&#45;&gt;Node10 -->
<g id="edge9" class="edge"><title>Node9&#45;&gt;Node10</title>
<path fill="none" stroke="midnightblue" d="M450.702,-269.285C505.569,-270.899 598.387,-273.629 647.051,-275.06"/>
<polygon fill="midnightblue" stroke="midnightblue" points="647.201,-278.566 657.299,-275.362 647.406,-271.569 647.201,-278.566"/>
</g>
<!-- Node11 -->
<g id="node11" class="node"><title>Node11</title>
<g id="a_node11"><a xlink:href="../../d8/d39/chunk_8c.html#a0674de9b4dc86d182ca6a08b9595279f" target="_top" xlink:title="hex2bin">
<polygon fill="none" stroke="black" points="523,-228.5 523,-247.5 573,-247.5 573,-228.5 523,-228.5"/>
<text text-anchor="middle" x="548" y="-235.5" font-family="Helvetica,sans-Serif" font-size="10.00">hex2bin</text>
</a>
</g>
</g>
<!-- Node9&#45;&gt;Node11 -->
<g id="edge10" class="edge"><title>Node9&#45;&gt;Node11</title>
<path fill="none" stroke="midnightblue" d="M450.529,-258.672C470.576,-254.376 494.02,-249.353 512.777,-245.334"/>
<polygon fill="midnightblue" stroke="midnightblue" points="513.619,-248.733 522.664,-243.215 512.152,-241.888 513.619,-248.733"/>
</g>
<!-- Node12 -->
<g id="node12" class="node"><title>Node12</title>
<g id="a_node12"><a xlink:href="../../d4/d87/group__chunk.html#gad94ca029616a107e89eaa618408fd7b6" target="_top" xlink:title="chunk_create">
<polygon fill="none" stroke="black" points="510.5,-304.5 510.5,-323.5 585.5,-323.5 585.5,-304.5 510.5,-304.5"/>
<text text-anchor="middle" x="548" y="-311.5" font-family="Helvetica,sans-Serif" font-size="10.00">chunk_create</text>
</a>
</g>
</g>
<!-- Node9&#45;&gt;Node12 -->
<g id="edge11" class="edge"><title>Node9&#45;&gt;Node12</title>
<path fill="none" stroke="midnightblue" d="M436.008,-277.531C456.938,-284.408 485.418,-293.766 508.287,-301.28"/>
<polygon fill="midnightblue" stroke="midnightblue" points="507.436,-304.684 518.029,-304.481 509.621,-298.034 507.436,-304.684"/>
</g>
<!-- Node13&#45;&gt;Node6 -->
<g id="edge13" class="edge"><title>Node13&#45;&gt;Node6</title>
<path fill="none" stroke="midnightblue" d="M294.25,-279.079C300.203,-282.235 306.351,-285.631 312,-289 337.189,-304.023 364.878,-323.138 383.437,-336.351"/>
<polygon fill="midnightblue" stroke="midnightblue" points="381.597,-339.339 391.763,-342.32 385.675,-333.649 381.597,-339.339"/>
</g>
<!-- Node13&#45;&gt;Node9 -->
<g id="edge14" class="edge"><title>Node13&#45;&gt;Node9</title>
<path fill="none" stroke="midnightblue" d="M312.13,-265.365C324.72,-265.723 338.372,-266.11 351.235,-266.475"/>
<polygon fill="midnightblue" stroke="midnightblue" points="351.251,-269.977 361.346,-266.762 351.45,-262.979 351.251,-269.977"/>
</g>
<!-- Node15 -->
<g id="node15" class="node"><title>Node15</title>
<g id="a_node15"><a xlink:href="../../d0/da0/group__asn1i.html#gae7dc25238f49a79e26e78b7078871319" target="_top" xlink:title="asn1_is_printablestring">
<polygon fill="none" stroke="black" points="348,-38.5 348,-57.5 464,-57.5 464,-38.5 348,-38.5"/>
<text text-anchor="middle" x="406" y="-45.5" font-family="Helvetica,sans-Serif" font-size="10.00">asn1_is_printablestring</text>
</a>
</g>
</g>
<!-- Node14&#45;&gt;Node15 -->
<g id="edge16" class="edge"><title>Node14&#45;&gt;Node15</title>
<path fill="none" stroke="midnightblue" d="M283.585,-161.818C293.093,-158.965 304.131,-154.332 312,-147 339.051,-121.794 321.222,-97.4966 348,-72 352.082,-68.1128 356.888,-64.8106 361.948,-62.017"/>
<polygon fill="midnightblue" stroke="midnightblue" points="363.755,-65.0304 371.229,-57.5211 360.704,-58.7305 363.755,-65.0304"/>
</g>
<!-- Node16 -->
<g id="node16" class="node"><title>Node16</title>
<g id="a_node16"><a xlink:href="../../d0/da0/group__asn1i.html#gafc47ce497a7d333125fe7b4919ecf156" target="_top" xlink:title="asn1_build_known_oid">
<polygon fill="none" stroke="black" points="348.5,-0.5 348.5,-19.5 463.5,-19.5 463.5,-0.5 348.5,-0.5"/>
<text text-anchor="middle" x="406" y="-7.5" font-family="Helvetica,sans-Serif" font-size="10.00">asn1_build_known_oid</text>
</a>
</g>
</g>
<!-- Node14&#45;&gt;Node16 -->
<g id="edge17" class="edge"><title>Node14&#45;&gt;Node16</title>
<path fill="none" stroke="midnightblue" d="M283.593,-162.439C293.338,-159.729 304.587,-155.038 312,-147 349.174,-106.695 309.729,-68.265 348,-29 349.42,-27.5434 350.954,-26.1984 352.577,-24.9566"/>
<polygon fill="midnightblue" stroke="midnightblue" points="354.64,-27.7965 361.312,-19.5669 350.964,-21.8391 354.64,-27.7965"/>
</g>
<!-- Node17 -->
<g id="node17" class="node"><title>Node17</title>
<g id="a_node17"><a xlink:href="../../d0/da0/group__asn1i.html#gaa5b766a452be068282b808b6b6f85f7e" target="_top" xlink:title="asn1_wrap">
<polygon fill="none" stroke="black" points="374,-152.5 374,-171.5 438,-171.5 438,-152.5 374,-152.5"/>
<text text-anchor="middle" x="406" y="-159.5" font-family="Helvetica,sans-Serif" font-size="10.00">asn1_wrap</text>
</a>
</g>
</g>
<!-- Node14&#45;&gt;Node17 -->
<g id="edge18" class="edge"><title>Node14&#45;&gt;Node17</title>
<path fill="none" stroke="midnightblue" d="M283.605,-165.444C304.247,-164.858 337.353,-163.919 363.783,-163.169"/>
<polygon fill="midnightblue" stroke="midnightblue" points="364.013,-166.664 373.91,-162.882 363.814,-159.667 364.013,-166.664"/>
</g>
<!-- Node18 -->
<g id="node18" class="node"><title>Node18</title>
<g id="a_node18"><a xlink:href="../../d0/da0/group__asn1i.html#gaa4b22cdadd3251eef380d585a8d3adc1" target="_top" xlink:title="asn1_build_object">
<polygon fill="none" stroke="black" points="500.5,-190.5 500.5,-209.5 595.5,-209.5 595.5,-190.5 500.5,-190.5"/>
<text text-anchor="middle" x="548" y="-197.5" font-family="Helvetica,sans-Serif" font-size="10.00">asn1_build_object</text>
</a>
</g>
</g>
<!-- Node14&#45;&gt;Node18 -->
<g id="edge30" class="edge"><title>Node14&#45;&gt;Node18</title>
<path fill="none" stroke="midnightblue" d="M283.616,-169.97C300.595,-173.294 325.837,-177.968 348,-181 395.764,-187.534 450.285,-192.571 490.166,-195.812"/>
<polygon fill="midnightblue" stroke="midnightblue" points="489.987,-199.309 500.234,-196.618 490.545,-192.331 489.987,-199.309"/>
</g>
<!-- Node25 -->
<g id="node25" class="node"><title>Node25</title>
<g id="a_node25"><a xlink:href="../../da/dfc/settings__parser_8c.html#af07d89f5ceaea0c7c8252cc41fd75f37" target="_top" xlink:title="free">
<polygon fill="none" stroke="black" points="796.5,-114.5 796.5,-133.5 829.5,-133.5 829.5,-114.5 796.5,-114.5"/>
<text text-anchor="middle" x="813" y="-121.5" font-family="Helvetica,sans-Serif" font-size="10.00">free</text>
</a>
</g>
</g>
<!-- Node14&#45;&gt;Node25 -->
<g id="edge31" class="edge"><title>Node14&#45;&gt;Node25</title>
<path fill="none" stroke="midnightblue" d="M283.801,-159.519C300.681,-154.251 325.684,-147.05 348,-143 512.527,-113.137 715.024,-119.191 785.974,-122.566"/>
<polygon fill="midnightblue" stroke="midnightblue" points="786.043,-126.074 796.206,-123.078 786.393,-119.082 786.043,-126.074"/>
</g>
<!-- Node17&#45;&gt;Node18 -->
<g id="edge19" class="edge"><title>Node17&#45;&gt;Node18</title>
<path fill="none" stroke="midnightblue" d="M438.071,-170.433C456.831,-175.526 481.063,-182.103 501.906,-187.76"/>
<polygon fill="midnightblue" stroke="midnightblue" points="501.26,-191.211 511.827,-190.453 503.093,-184.456 501.26,-191.211"/>
</g>
<!-- Node20 -->
<g id="node20" class="node"><title>Node20</title>
<g id="a_node20"><a xlink:href="../../d4/d87/group__chunk.html#gaaa5a9811df1bd2ae5e331748f7fbaf75" target="_top" xlink:title="chunk_clear">
<polygon fill="none" stroke="black" points="513.5,-152.5 513.5,-171.5 582.5,-171.5 582.5,-152.5 513.5,-152.5"/>
<text text-anchor="middle" x="548" y="-159.5" font-family="Helvetica,sans-Serif" font-size="10.00">chunk_clear</text>
</a>
</g>
</g>
<!-- Node17&#45;&gt;Node20 -->
<g id="edge22" class="edge"><title>Node17&#45;&gt;Node20</title>
<path fill="none" stroke="midnightblue" d="M438.071,-162C457.178,-162 481.959,-162 503.056,-162"/>
<polygon fill="midnightblue" stroke="midnightblue" points="503.076,-165.5 513.076,-162 503.076,-158.5 503.076,-165.5"/>
</g>
<!-- Node17&#45;&gt;Node25 -->
<g id="edge29" class="edge"><title>Node17&#45;&gt;Node25</title>
<path fill="none" stroke="midnightblue" d="M438.239,-154.474C456.201,-150.435 479.251,-145.737 500,-143 605.479,-129.084 732.389,-125.339 786.04,-124.348"/>
<polygon fill="midnightblue" stroke="midnightblue" points="786.403,-127.843 796.343,-124.176 786.286,-120.844 786.403,-127.843"/>
</g>
<!-- Node18&#45;&gt;Node10 -->
<g id="edge21" class="edge"><title>Node18&#45;&gt;Node10</title>
<path fill="none" stroke="midnightblue" d="M578.329,-209.593C584.421,-212.197 590.618,-215.332 596,-219 615.223,-232.103 612.777,-243.897 632,-257 636.818,-260.284 642.29,-263.141 647.755,-265.572"/>
<polygon fill="midnightblue" stroke="midnightblue" points="646.858,-268.984 657.441,-269.487 649.481,-262.494 646.858,-268.984"/>
</g>
<!-- Node19 -->
<g id="node19" class="node"><title>Node19</title>
<g id="a_node19"><a xlink:href="../../d6/d36/asn1_8c.html#a72c37051a4d4cda52b0ab80893884abd" target="_top" xlink:title="asn1_code_length">
<polygon fill="none" stroke="black" points="632.5,-228.5 632.5,-247.5 727.5,-247.5 727.5,-228.5 632.5,-228.5"/>
<text text-anchor="middle" x="680" y="-235.5" font-family="Helvetica,sans-Serif" font-size="10.00">asn1_code_length</text>
</a>
</g>
</g>
<!-- Node18&#45;&gt;Node19 -->
<g id="edge20" class="edge"><title>Node18&#45;&gt;Node19</title>
<path fill="none" stroke="midnightblue" d="M581.804,-209.589C598.278,-214.404 618.443,-220.299 636.127,-225.468"/>
<polygon fill="midnightblue" stroke="midnightblue" points="635.626,-228.968 646.206,-228.414 637.59,-222.249 635.626,-228.968"/>
</g>
<!-- Node21 -->
<g id="node21" class="node"><title>Node21</title>
<g id="a_node21"><a xlink:href="../../dd/d74/group__memory__i.html#ga6d5ce21860b55e0c54353999c4f4f077" target="_top" xlink:title="memwipe">
<polygon fill="none" stroke="black" points="650.5,-190.5 650.5,-209.5 709.5,-209.5 709.5,-190.5 650.5,-190.5"/>
<text text-anchor="middle" x="680" y="-197.5" font-family="Helvetica,sans-Serif" font-size="10.00">memwipe</text>
</a>
</g>
</g>
<!-- Node20&#45;&gt;Node21 -->
<g id="edge23" class="edge"><title>Node20&#45;&gt;Node21</title>
<path fill="none" stroke="midnightblue" d="M581.804,-171.589C599.657,-176.807 621.844,-183.293 640.511,-188.749"/>
<polygon fill="midnightblue" stroke="midnightblue" points="639.609,-192.132 650.189,-191.578 641.573,-185.413 639.609,-192.132"/>
</g>
<!-- Node24 -->
<g id="node24" class="node"><title>Node24</title>
<g id="a_node24"><a xlink:href="../../d4/d87/group__chunk.html#gaa86c84493369a4254d5801cdca20d458" target="_top" xlink:title="chunk_free">
<polygon fill="none" stroke="black" points="647.5,-152.5 647.5,-171.5 712.5,-171.5 712.5,-152.5 647.5,-152.5"/>
<text text-anchor="middle" x="680" y="-159.5" font-family="Helvetica,sans-Serif" font-size="10.00">chunk_free</text>
</a>
</g>
</g>
<!-- Node20&#45;&gt;Node24 -->
<g id="edge27" class="edge"><title>Node20&#45;&gt;Node24</title>
<path fill="none" stroke="midnightblue" d="M582.817,-162C599.264,-162 619.202,-162 636.652,-162"/>
<polygon fill="midnightblue" stroke="midnightblue" points="637.141,-165.5 647.141,-162 637.141,-158.5 637.141,-165.5"/>
</g>
<!-- Node22 -->
<g id="node22" class="node"><title>Node22</title>
<g id="a_node22"><a xlink:href="../../dd/d74/group__memory__i.html#ga4d6f7708d6b8ea1ec0fbe97b3885ce1e" target="_top" xlink:title="memwipe_inline">
<polygon fill="none" stroke="black" points="898,-190.5 898,-209.5 984,-209.5 984,-190.5 898,-190.5"/>
<text text-anchor="middle" x="941" y="-197.5" font-family="Helvetica,sans-Serif" font-size="10.00">memwipe_inline</text>
</a>
</g>
</g>
<!-- Node21&#45;&gt;Node22 -->
<g id="edge24" class="edge"><title>Node21&#45;&gt;Node22</title>
<path fill="none" stroke="midnightblue" d="M709.707,-200C752.642,-200 834.261,-200 887.899,-200"/>
<polygon fill="midnightblue" stroke="midnightblue" points="887.903,-203.5 897.903,-200 887.903,-196.5 887.903,-203.5"/>
</g>
<!-- Node23 -->
<g id="node23" class="node"><title>Node23</title>
<g id="a_node23"><a xlink:href="../../dd/d74/group__memory__i.html#gabf6fa8b701d6f2052a551333b3694063" target="_top" xlink:title="memwipe_noinline">
<polygon fill="none" stroke="black" points="764.5,-171.5 764.5,-190.5 861.5,-190.5 861.5,-171.5 764.5,-171.5"/>
<text text-anchor="middle" x="813" y="-178.5" font-family="Helvetica,sans-Serif" font-size="10.00">memwipe_noinline</text>
</a>
</g>
</g>
<!-- Node21&#45;&gt;Node23 -->
<g id="edge25" class="edge"><title>Node21&#45;&gt;Node23</title>
<path fill="none" stroke="midnightblue" d="M709.749,-195.83C722.846,-193.931 738.843,-191.61 754.259,-189.375"/>
<polygon fill="midnightblue" stroke="midnightblue" points="754.875,-192.822 764.269,-187.923 753.87,-185.895 754.875,-192.822"/>
</g>
<!-- Node23&#45;&gt;Node22 -->
<g id="edge26" class="edge"><title>Node23&#45;&gt;Node22</title>
<path fill="none" stroke="midnightblue" d="M861.635,-188.183C870.15,-189.467 879.064,-190.811 887.702,-192.114"/>
<polygon fill="midnightblue" stroke="midnightblue" points="887.264,-195.587 897.674,-193.618 888.308,-188.665 887.264,-195.587"/>
</g>
<!-- Node24&#45;&gt;Node25 -->
<g id="edge28" class="edge"><title>Node24&#45;&gt;Node25</title>
<path fill="none" stroke="midnightblue" d="M712.711,-152.801C735.384,-146.225 765.494,-137.49 786.589,-131.371"/>
<polygon fill="midnightblue" stroke="midnightblue" points="787.801,-134.664 796.43,-128.517 785.851,-127.941 787.801,-134.664"/>
</g>
</g>
</svg>
        <g id="navigator" transform="translate(0 0)" fill="#404254">
                <rect fill="#f2f5e9" fill-opacity="0.5" stroke="#606060" stroke-width=".5" x="0" y="0" width="60" height="60"/>
                <use id="zoomplus" xlink:href="#zoomPlus" x="17" y="9" onmousedown="handleZoom(evt,'in')"/>
                <use id="zoomminus" xlink:href="#zoomMin" x="42" y="9" onmousedown="handleZoom(evt,'out')"/>
                <use id="reset" xlink:href="#resetDef" x="30" y="36" onmousedown="handleReset()"/>
                <g id="arrowUp" xlink:href="#dirArrow" transform="translate(30 24)" onmousedown="handlePan(0,-1)">
                  <use xlink:href="#rim" fill="#404040">
                        <set attributeName="fill" to="#808080" begin="arrowUp.mouseover" end="arrowUp.mouseout"/>
                  </use>
                  <path fill="none" stroke="white" stroke-width="1.5" d="M0,-3.0v7 M-2.5,-0.5L0,-3.0L2.5,-0.5"/>
                </g>
                <g id="arrowRight" xlink:href="#dirArrow" transform="rotate(90) translate(36 -43)" onmousedown="handlePan(1,0)">
                  <use xlink:href="#rim" fill="#404040">
                        <set attributeName="fill" to="#808080" begin="arrowRight.mouseover" end="arrowRight.mouseout"/>
                  </use>
                  <path fill="none" stroke="white" stroke-width="1.5" d="M0,-3.0v7 M-2.5,-0.5L0,-3.0L2.5,-0.5"/>
                </g>
                <g id="arrowDown" xlink:href="#dirArrow" transform="rotate(180) translate(-30 -48)" onmousedown="handlePan(0,1)">
                  <use xlink:href="#rim" fill="#404040">
                        <set attributeName="fill" to="#808080" begin="arrowDown.mouseover" end="arrowDown.mouseout"/>
                  </use>
                  <path fill="none" stroke="white" stroke-width="1.5" d="M0,-3.0v7 M-2.5,-0.5L0,-3.0L2.5,-0.5"/>
                </g>
                <g id="arrowLeft" xlink:href="#dirArrow" transform="rotate(270) translate(-36 17)" onmousedown="handlePan(-1,0)">
                  <use xlink:href="#rim" fill="#404040">
                        <set attributeName="fill" to="#808080" begin="arrowLeft.mouseover" end="arrowLeft.mouseout"/>
                  </use>
                  <path fill="none" stroke="white" stroke-width="1.5" d="M0,-3.0v7 M-2.5,-0.5L0,-3.0L2.5,-0.5"/>
                </g>
        </g>
        <svg viewBox="0 0 15 15" width="100%" height="30px" preserveAspectRatio="xMaxYMin meet">
         <g id="arrow_out" transform="scale(0.3 0.3)">
          <a xlink:href="id2sql_8c_a0ddf1224851353fc92bfbff6f499fa97_cgraph_org.svg" target="_base">
           <rect id="button" ry="5" rx="5" y="6" x="6" height="38" width="38"
                fill="#f2f5e9" fill-opacity="0.5" stroke="#606060" stroke-width="1.0"/>
           <path id="arrow"
             d="M 11.500037,31.436501 C 11.940474,20.09759 22.043105,11.32322 32.158766,21.979434 L 37.068811,17.246167 C 37.068811,17.246167 37.088388,32 37.088388,32 L 22.160133,31.978069 C 22.160133,31.978069 26.997745,27.140456 26.997745,27.140456 C 18.528582,18.264221 13.291696,25.230495 11.500037,31.436501 z"
             style="fill:#404040;"/>
          </a>
         </g>
        </svg>
</svg>
