<?xml version="1.0" encoding="UTF-8" standalone="no"?>
<!DOCTYPE svg PUBLIC "-//W3C//DTD SVG 1.1//EN"
 "http://www.w3.org/Graphics/SVG/1.1/DTD/svg11.dtd">
<!-- Generated by graphviz version 2.36.0 (20140111.2315)
 -->
<!-- Title: attr_sql Pages: 1 -->
<svg width="268pt" height="66pt"
 viewBox="0.00 0.00 268.00 66.00" xmlns="http://www.w3.org/2000/svg" xmlns:xlink="http://www.w3.org/1999/xlink">
<g id="graph0" class="graph" transform="scale(1 1) rotate(0) translate(4 62)">
<title>attr_sql</title>
<!-- Node2 -->
<g id="node1" class="node"><title>Node2</title>
<g id="a_node1"><a xlink:href="../../d0/db2/group__attr__sql__plugin.html" target="_top" xlink:title="attr_sql_plugin">
<polygon fill="none" stroke="black" points="175,-38.5 175,-57.5 255,-57.5 255,-38.5 175,-38.5"/>
<text text-anchor="middle" x="215" y="-45.5" font-family="Helvetica,sans-Serif" font-size="10.00">attr_sql_plugin</text>
</a>
</g>
</g>
<!-- Node3 -->
<g id="node2" class="node"><title>Node3</title>
<g id="a_node2"><a xlink:href="../../dd/d4f/group__attr__sql__provider.html" target="_top" xlink:title="attr_sql_provider">
<polygon fill="none" stroke="black" points="170.5,-0.5 170.5,-19.5 259.5,-19.5 259.5,-0.5 170.5,-0.5"/>
<text text-anchor="middle" x="215" y="-7.5" font-family="Helvetica,sans-Serif" font-size="10.00">attr_sql_provider</text>
</a>
</g>
</g>
<!-- Node1 -->
<g id="node3" class="node"><title>Node1</title>
<g id="a_node3"><a xlink:href="../../d8/dd9/group__cplugins.html" target="_top" xlink:title="plugins">
<polygon fill="none" stroke="black" points="0.5,-19.5 0.5,-38.5 47.5,-38.5 47.5,-19.5 0.5,-19.5"/>
<text text-anchor="middle" x="24" y="-26.5" font-family="Helvetica,sans-Serif" font-size="10.00">plugins</text>
</a>
</g>
</g>
<!-- Node0 -->
<g id="node4" class="node"><title>Node0</title>
<polygon fill="#bfbfbf" stroke="black" points="84.5,-19.5 84.5,-38.5 133.5,-38.5 133.5,-19.5 84.5,-19.5"/>
<text text-anchor="middle" x="109" y="-26.5" font-family="Helvetica,sans-Serif" font-size="10.00">attr_sql</text>
</g>
<!-- Node1&#45;&gt;Node0 -->
<g id="edge1" class="edge"><title>Node1&#45;&gt;Node0</title>
<path fill="none" stroke="midnightblue" d="M57.7866,-29C66.7051,-29 76.1858,-29 84.4791,-29"/>
<polygon fill="midnightblue" stroke="midnightblue" points="57.6801,-25.5001 47.6801,-29 57.6801,-32.5001 57.6801,-25.5001"/>
</g>
<!-- Node0&#45;&gt;Node2 -->
<g id="edge2" class="edge"><title>Node0&#45;&gt;Node2</title>
<path fill="none" stroke="midnightblue" d="M143.583,-35.1354C153.599,-36.9651 164.661,-38.9861 174.992,-40.8736"/>
<polygon fill="midnightblue" stroke="midnightblue" points="144.065,-31.6656 133.599,-33.3114 142.807,-38.5517 144.065,-31.6656"/>
</g>
<!-- Node0&#45;&gt;Node3 -->
<g id="edge3" class="edge"><title>Node0&#45;&gt;Node3</title>
<path fill="none" stroke="midnightblue" d="M143.586,-22.8641C152.146,-21.3003 161.469,-19.5969 170.448,-17.9566"/>
<polygon fill="midnightblue" stroke="midnightblue" points="142.807,-19.4483 133.599,-24.6886 144.065,-26.3344 142.807,-19.4483"/>
</g>
</g>
</svg>
