<?xml version="1.0" encoding="UTF-8" standalone="no"?>
<!DOCTYPE svg PUBLIC "-//W3C//DTD SVG 1.1//EN"
 "http://www.w3.org/Graphics/SVG/1.1/DTD/svg11.dtd">
<!-- Generated by graphviz version 2.36.0 (20140111.2315)
 -->
<!-- Title: METHOD Pages: 1 -->
<svg width="1102pt" height="161pt"
 viewBox="0.00 0.00 1102.00 161.00" xmlns="http://www.w3.org/2000/svg" xmlns:xlink="http://www.w3.org/1999/xlink">
<g id="graph0" class="graph" transform="scale(1 1) rotate(0) translate(4 157)">
<title>METHOD</title>
<!-- Node1 -->
<g id="node1" class="node"><title>Node1</title>
<polygon fill="#bfbfbf" stroke="black" points="0,-95.5 0,-114.5 60,-114.5 60,-95.5 0,-95.5"/>
<text text-anchor="middle" x="30" y="-102.5" font-family="Helvetica,sans-Serif" font-size="10.00">METHOD</text>
</g>
<!-- Node2 -->
<g id="node2" class="node"><title>Node2</title>
<g id="a_node2"><a xlink:href="../../d1/d49/group__gateway.html#gadb561eb23db11239ef700d7357e7f642" target="_top" xlink:title="gateway_create_tcp">
<polygon fill="none" stroke="black" points="105,-95.5 105,-114.5 209,-114.5 209,-95.5 105,-95.5"/>
<text text-anchor="middle" x="157" y="-102.5" font-family="Helvetica,sans-Serif" font-size="10.00">gateway_create_tcp</text>
</a>
</g>
</g>
<!-- Node1&#45;&gt;Node2 -->
<g id="edge1" class="edge"><title>Node1&#45;&gt;Node2</title>
<path fill="none" stroke="midnightblue" d="M60.3069,-105C70.68,-105 82.7716,-105 94.799,-105"/>
<polygon fill="midnightblue" stroke="midnightblue" points="94.8478,-108.5 104.848,-105 94.8478,-101.5 94.8478,-108.5"/>
</g>
<!-- Node4 -->
<g id="node4" class="node"><title>Node4</title>
<g id="a_node4"><a xlink:href="../../d1/d49/group__gateway.html#ga7405b202590beb35d5dd9e9c72c74165" target="_top" xlink:title="gateway_create_unix">
<polygon fill="none" stroke="black" points="102.5,-133.5 102.5,-152.5 211.5,-152.5 211.5,-133.5 102.5,-133.5"/>
<text text-anchor="middle" x="157" y="-140.5" font-family="Helvetica,sans-Serif" font-size="10.00">gateway_create_unix</text>
</a>
</g>
</g>
<!-- Node1&#45;&gt;Node4 -->
<g id="edge3" class="edge"><title>Node1&#45;&gt;Node4</title>
<path fill="none" stroke="midnightblue" d="M60.3069,-113.909C76.6243,-118.87 97.1939,-125.123 115.077,-130.559"/>
<polygon fill="midnightblue" stroke="midnightblue" points="114.106,-133.922 124.692,-133.482 116.142,-127.225 114.106,-133.922"/>
</g>
<!-- Node5 -->
<g id="node5" class="node"><title>Node5</title>
<g id="a_node5"><a xlink:href="../../d7/df1/group__host.html#gad1ee7d1c0d17eee7f6e204e22ea2c206" target="_top" xlink:title="host_create_from_string">
<polygon fill="none" stroke="black" points="96,-57.5 96,-76.5 218,-76.5 218,-57.5 96,-57.5"/>
<text text-anchor="middle" x="157" y="-64.5" font-family="Helvetica,sans-Serif" font-size="10.00">host_create_from_string</text>
</a>
</g>
</g>
<!-- Node1&#45;&gt;Node5 -->
<g id="edge5" class="edge"><title>Node1&#45;&gt;Node5</title>
<path fill="none" stroke="midnightblue" d="M60.3069,-96.0907C76.6243,-91.1302 97.1939,-84.8771 115.077,-79.4406"/>
<polygon fill="midnightblue" stroke="midnightblue" points="116.142,-82.7751 124.692,-76.5178 114.106,-76.0777 116.142,-82.7751"/>
</g>
<!-- Node3 -->
<g id="node3" class="node"><title>Node3</title>
<g id="a_node3"><a xlink:href="../../db/db7/gateway_8c.html#acc253ddedf9a4971ca33c4ce61a3c190" target="_top" xlink:title="gateway_create">
<polygon fill="none" stroke="black" points="272,-117.5 272,-136.5 358,-136.5 358,-117.5 272,-117.5"/>
<text text-anchor="middle" x="315" y="-124.5" font-family="Helvetica,sans-Serif" font-size="10.00">gateway_create</text>
</a>
</g>
</g>
<!-- Node2&#45;&gt;Node3 -->
<g id="edge2" class="edge"><title>Node2&#45;&gt;Node3</title>
<path fill="none" stroke="midnightblue" d="M209.08,-112.204C225.932,-114.58 244.694,-117.226 261.639,-119.616"/>
<polygon fill="midnightblue" stroke="midnightblue" points="261.531,-123.135 271.922,-121.066 262.509,-116.204 261.531,-123.135"/>
</g>
<!-- Node4&#45;&gt;Node3 -->
<g id="edge4" class="edge"><title>Node4&#45;&gt;Node3</title>
<path fill="none" stroke="midnightblue" d="M211.686,-137.494C227.737,-135.848 245.313,-134.045 261.299,-132.405"/>
<polygon fill="midnightblue" stroke="midnightblue" points="261.952,-135.857 271.543,-131.355 261.238,-128.893 261.952,-135.857"/>
</g>
<!-- Node6 -->
<g id="node6" class="node"><title>Node6</title>
<g id="a_node6"><a xlink:href="../../d7/df1/group__host.html#ga75f9b1e7905a80d69bc3cc7a7c3775a5" target="_top" xlink:title="host_create_from_string\l_and_family">
<polygon fill="none" stroke="black" points="254,-52 254,-82 376,-82 376,-52 254,-52"/>
<text text-anchor="start" x="262" y="-70" font-family="Helvetica,sans-Serif" font-size="10.00">host_create_from_string</text>
<text text-anchor="middle" x="315" y="-59" font-family="Helvetica,sans-Serif" font-size="10.00">_and_family</text>
</a>
</g>
</g>
<!-- Node5&#45;&gt;Node6 -->
<g id="edge6" class="edge"><title>Node5&#45;&gt;Node6</title>
<path fill="none" stroke="midnightblue" d="M218.314,-67C226.604,-67 235.175,-67 243.626,-67"/>
<polygon fill="midnightblue" stroke="midnightblue" points="243.847,-70.5001 253.847,-67 243.847,-63.5001 243.847,-70.5001"/>
</g>
<!-- Node7 -->
<g id="node7" class="node"><title>Node7</title>
<g id="a_node7"><a xlink:href="../../d4/d40/group__string__i.html#ga65c3d08890165aaa4663c72d07f93bb7" target="_top" xlink:title="streq">
<polygon fill="none" stroke="black" points="448,-114.5 448,-133.5 486,-133.5 486,-114.5 448,-114.5"/>
<text text-anchor="middle" x="467" y="-121.5" font-family="Helvetica,sans-Serif" font-size="10.00">streq</text>
</a>
</g>
</g>
<!-- Node6&#45;&gt;Node7 -->
<g id="edge7" class="edge"><title>Node6&#45;&gt;Node7</title>
<path fill="none" stroke="midnightblue" d="M355.803,-82.1253C381.812,-92.0084 415.123,-104.667 438.28,-113.466"/>
<polygon fill="midnightblue" stroke="midnightblue" points="437.245,-116.817 447.836,-117.098 439.732,-110.274 437.245,-116.817"/>
</g>
<!-- Node8 -->
<g id="node8" class="node"><title>Node8</title>
<g id="a_node8"><a xlink:href="../../df/da9/host_8c.html#a2670c8aac87ed6960c4e45f42f843b73" target="_top" xlink:title="host_create_any_port">
<polygon fill="none" stroke="black" points="412,-38.5 412,-57.5 522,-57.5 522,-38.5 412,-38.5"/>
<text text-anchor="middle" x="467" y="-45.5" font-family="Helvetica,sans-Serif" font-size="10.00">host_create_any_port</text>
</a>
</g>
</g>
<!-- Node6&#45;&gt;Node8 -->
<g id="edge8" class="edge"><title>Node6&#45;&gt;Node8</title>
<path fill="none" stroke="midnightblue" d="M376.146,-59.3815C384.491,-58.3245 393.09,-57.2352 401.51,-56.1688"/>
<polygon fill="midnightblue" stroke="midnightblue" points="402.18,-59.6119 411.661,-54.8829 401.3,-52.6674 402.18,-59.6119"/>
</g>
<!-- Node17 -->
<g id="node17" class="node"><title>Node17</title>
<g id="a_node17"><a xlink:href="../../da/d9b/group__windows.html#ga7fb1f8a8f40e09fa09e625d2a09dc04e" target="_top" xlink:title="inet_pton">
<polygon fill="none" stroke="black" points="439,-0.5 439,-19.5 495,-19.5 495,-0.5 439,-0.5"/>
<text text-anchor="middle" x="467" y="-7.5" font-family="Helvetica,sans-Serif" font-size="10.00">inet_pton</text>
</a>
</g>
</g>
<!-- Node6&#45;&gt;Node17 -->
<g id="edge18" class="edge"><title>Node6&#45;&gt;Node17</title>
<path fill="none" stroke="midnightblue" d="M353.255,-51.8662C370.986,-44.763 392.523,-36.2784 412,-29 417.546,-26.9274 423.436,-24.7904 429.209,-22.7312"/>
<polygon fill="midnightblue" stroke="midnightblue" points="430.47,-25.9976 438.732,-19.3645 428.137,-19.3978 430.47,-25.9976"/>
</g>
<!-- Node18 -->
<g id="node18" class="node"><title>Node18</title>
<g id="a_node18"><a xlink:href="../../d7/df1/group__host.html#ga3183b60055297ceaa19b4a5996496830" target="_top" xlink:title="host_create_from_sockaddr">
<polygon fill="none" stroke="black" points="558.5,-76.5 558.5,-95.5 695.5,-95.5 695.5,-76.5 558.5,-76.5"/>
<text text-anchor="middle" x="627" y="-83.5" font-family="Helvetica,sans-Serif" font-size="10.00">host_create_from_sockaddr</text>
</a>
</g>
</g>
<!-- Node6&#45;&gt;Node18 -->
<g id="edge19" class="edge"><title>Node6&#45;&gt;Node18</title>
<path fill="none" stroke="midnightblue" d="M376.139,-70.6859C425.266,-73.697 495.052,-77.9742 548.391,-81.2433"/>
<polygon fill="midnightblue" stroke="midnightblue" points="548.294,-84.7438 558.489,-81.8622 548.722,-77.7569 548.294,-84.7438"/>
</g>
<!-- Node9 -->
<g id="node9" class="node"><title>Node9</title>
<g id="a_node9"><a xlink:href="../../d7/df1/group__host.html#ga5f2c94740339664ce118776e13829cd0" target="_top" xlink:title="host_create_any">
<polygon fill="none" stroke="black" points="582.5,-38.5 582.5,-57.5 671.5,-57.5 671.5,-38.5 582.5,-38.5"/>
<text text-anchor="middle" x="627" y="-45.5" font-family="Helvetica,sans-Serif" font-size="10.00">host_create_any</text>
</a>
</g>
</g>
<!-- Node8&#45;&gt;Node9 -->
<g id="edge9" class="edge"><title>Node8&#45;&gt;Node9</title>
<path fill="none" stroke="midnightblue" d="M522.375,-48C538.484,-48 556.112,-48 572.186,-48"/>
<polygon fill="midnightblue" stroke="midnightblue" points="572.493,-51.5001 582.493,-48 572.493,-44.5001 572.493,-51.5001"/>
</g>
<!-- Node16 -->
<g id="node16" class="node"><title>Node16</title>
<g id="a_node16"><a xlink:href="../../d9/dbc/kernel__pfkey__ipsec_8c.html#a5da61ec055ea1dffbb84ffe3caddb7dc" target="_top" xlink:title="set_port">
<polygon fill="none" stroke="black" points="601,-0.5 601,-19.5 653,-19.5 653,-0.5 601,-0.5"/>
<text text-anchor="middle" x="627" y="-7.5" font-family="Helvetica,sans-Serif" font-size="10.00">set_port</text>
</a>
</g>
</g>
<!-- Node8&#45;&gt;Node16 -->
<g id="edge17" class="edge"><title>Node8&#45;&gt;Node16</title>
<path fill="none" stroke="midnightblue" d="M507.87,-38.411C533.467,-32.2547 566.397,-24.3349 590.984,-18.4216"/>
<polygon fill="midnightblue" stroke="midnightblue" points="592.06,-21.7626 600.964,-16.0212 590.423,-14.9567 592.06,-21.7626"/>
</g>
<!-- Node10 -->
<g id="node10" class="node"><title>Node10</title>
<g id="a_node10"><a xlink:href="../../df/da9/host_8c.html#ac3854e66d5a7563cae9608acbcad6eb5" target="_top" xlink:title="host_create_empty">
<polygon fill="none" stroke="black" points="732,-95.5 732,-114.5 832,-114.5 832,-95.5 732,-95.5"/>
<text text-anchor="middle" x="782" y="-102.5" font-family="Helvetica,sans-Serif" font-size="10.00">host_create_empty</text>
</a>
</g>
</g>
<!-- Node9&#45;&gt;Node10 -->
<g id="edge10" class="edge"><title>Node9&#45;&gt;Node10</title>
<path fill="none" stroke="midnightblue" d="M667.668,-57.5498C677.084,-60.2357 687.004,-63.4168 696,-67 712.808,-73.6945 715.538,-78.4949 732,-86 736.224,-87.9256 740.704,-89.8363 745.172,-91.6618"/>
<polygon fill="midnightblue" stroke="midnightblue" points="744.243,-95.0587 754.828,-95.4952 746.825,-88.5526 744.243,-95.0587"/>
</g>
<!-- Node14 -->
<g id="node14" class="node"><title>Node14</title>
<g id="a_node14"><a xlink:href="../../df/da9/host_8c.html#a1fb6a6590d2576c32709b890623cad8c" target="_top" xlink:title="update_sa_len">
<polygon fill="none" stroke="black" points="742,-57.5 742,-76.5 822,-76.5 822,-57.5 742,-57.5"/>
<text text-anchor="middle" x="782" y="-64.5" font-family="Helvetica,sans-Serif" font-size="10.00">update_sa_len</text>
</a>
</g>
</g>
<!-- Node9&#45;&gt;Node14 -->
<g id="edge15" class="edge"><title>Node9&#45;&gt;Node14</title>
<path fill="none" stroke="midnightblue" d="M671.844,-53.4446C690.556,-55.7684 712.478,-58.4908 731.747,-60.8837"/>
<polygon fill="midnightblue" stroke="midnightblue" points="731.49,-64.3785 741.845,-62.1377 732.353,-57.4319 731.49,-64.3785"/>
</g>
<!-- Node15 -->
<g id="node15" class="node"><title>Node15</title>
<g id="a_node15"><a xlink:href="../../da/dfc/settings__parser_8c.html#af07d89f5ceaea0c7c8252cc41fd75f37" target="_top" xlink:title="free">
<polygon fill="none" stroke="black" points="765.5,-19.5 765.5,-38.5 798.5,-38.5 798.5,-19.5 765.5,-19.5"/>
<text text-anchor="middle" x="782" y="-26.5" font-family="Helvetica,sans-Serif" font-size="10.00">free</text>
</a>
</g>
</g>
<!-- Node9&#45;&gt;Node15 -->
<g id="edge16" class="edge"><title>Node9&#45;&gt;Node15</title>
<path fill="none" stroke="midnightblue" d="M671.844,-42.5554C698.707,-39.2194 732.185,-35.062 754.932,-32.2372"/>
<polygon fill="midnightblue" stroke="midnightblue" points="755.669,-35.6727 765.161,-30.9669 754.806,-28.726 755.669,-35.6727"/>
</g>
<!-- Node11 -->
<g id="node11" class="node"><title>Node11</title>
<g id="a_node11"><a xlink:href="../../df/da9/host_8c.html#a809d5cf7574c1f5e27758950d53653f4" target="_top" xlink:title="equals">
<polygon fill="none" stroke="black" points="868.5,-76.5 868.5,-95.5 913.5,-95.5 913.5,-76.5 868.5,-76.5"/>
<text text-anchor="middle" x="891" y="-83.5" font-family="Helvetica,sans-Serif" font-size="10.00">equals</text>
</a>
</g>
</g>
<!-- Node10&#45;&gt;Node11 -->
<g id="edge11" class="edge"><title>Node10&#45;&gt;Node11</title>
<path fill="none" stroke="midnightblue" d="M832.116,-96.2785C841.078,-94.6872 850.205,-93.0665 858.482,-91.5967"/>
<polygon fill="midnightblue" stroke="midnightblue" points="859.201,-95.0237 868.435,-89.8292 857.978,-88.1316 859.201,-95.0237"/>
</g>
<!-- Node12 -->
<g id="node12" class="node"><title>Node12</title>
<g id="a_node12"><a xlink:href="../../df/da9/host_8c.html#a0ea5fbf16ec81f3c5eaf6dc5da8d452a" target="_top" xlink:title="ip_equals">
<polygon fill="none" stroke="black" points="950,-95.5 950,-114.5 1008,-114.5 1008,-95.5 950,-95.5"/>
<text text-anchor="middle" x="979" y="-102.5" font-family="Helvetica,sans-Serif" font-size="10.00">ip_equals</text>
</a>
</g>
</g>
<!-- Node10&#45;&gt;Node12 -->
<g id="edge14" class="edge"><title>Node10&#45;&gt;Node12</title>
<path fill="none" stroke="midnightblue" d="M832.207,-105C865.513,-105 908.877,-105 939.63,-105"/>
<polygon fill="midnightblue" stroke="midnightblue" points="939.945,-108.5 949.945,-105 939.944,-101.5 939.945,-108.5"/>
</g>
<!-- Node11&#45;&gt;Node12 -->
<g id="edge12" class="edge"><title>Node11&#45;&gt;Node12</title>
<path fill="none" stroke="midnightblue" d="M913.701,-90.7945C921.655,-92.5517 930.91,-94.5963 939.877,-96.5775"/>
<polygon fill="midnightblue" stroke="midnightblue" points="939.276,-100.029 949.796,-98.7688 940.786,-93.1939 939.276,-100.029"/>
</g>
<!-- Node13 -->
<g id="node13" class="node"><title>Node13</title>
<g id="a_node13"><a xlink:href="../../dd/d74/group__memory__i.html#ga46d7935db00fd7092430dbf4f36c2850" target="_top" xlink:title="memeq">
<polygon fill="none" stroke="black" points="1044.5,-95.5 1044.5,-114.5 1093.5,-114.5 1093.5,-95.5 1044.5,-95.5"/>
<text text-anchor="middle" x="1069" y="-102.5" font-family="Helvetica,sans-Serif" font-size="10.00">memeq</text>
</a>
</g>
</g>
<!-- Node12&#45;&gt;Node13 -->
<g id="edge13" class="edge"><title>Node12&#45;&gt;Node13</title>
<path fill="none" stroke="midnightblue" d="M1008.33,-105C1016.62,-105 1025.76,-105 1034.34,-105"/>
<polygon fill="midnightblue" stroke="midnightblue" points="1034.44,-108.5 1044.44,-105 1034.44,-101.5 1034.44,-108.5"/>
</g>
<!-- Node18&#45;&gt;Node10 -->
<g id="edge20" class="edge"><title>Node18&#45;&gt;Node10</title>
<path fill="none" stroke="midnightblue" d="M695.553,-94.389C704.204,-95.4632 713.009,-96.5567 721.519,-97.6134"/>
<polygon fill="midnightblue" stroke="midnightblue" points="721.366,-101.121 731.721,-98.8804 722.229,-94.1747 721.366,-101.121"/>
</g>
<!-- Node18&#45;&gt;Node14 -->
<g id="edge21" class="edge"><title>Node18&#45;&gt;Node14</title>
<path fill="none" stroke="midnightblue" d="M695.553,-77.611C707.689,-76.104 720.129,-74.5592 731.629,-73.1311"/>
<polygon fill="midnightblue" stroke="midnightblue" points="732.398,-76.5625 741.89,-71.8567 731.535,-69.6159 732.398,-76.5625"/>
</g>
<!-- Node18&#45;&gt;Node15 -->
<g id="edge22" class="edge"><title>Node18&#45;&gt;Node15</title>
<path fill="none" stroke="midnightblue" d="M667.668,-76.4502C677.084,-73.7643 687.004,-70.5832 696,-67 712.808,-60.3055 715.538,-55.5051 732,-48 739.62,-44.5261 748.074,-41.1009 755.785,-38.136"/>
<polygon fill="midnightblue" stroke="midnightblue" points="757.231,-41.3317 765.361,-34.5382 754.769,-34.7789 757.231,-41.3317"/>
</g>
</g>
</svg>
