<?xml version="1.0" encoding="UTF-8" standalone="no"?>
<!DOCTYPE svg PUBLIC "-//W3C//DTD SVG 1.1//EN"
 "http://www.w3.org/Graphics/SVG/1.1/DTD/svg11.dtd">
<!-- Generated by graphviz version 2.36.0 (20140111.2315)
 -->
<!-- Title: add_installed_packages Pages: 1 -->
<svg width="460pt" height="66pt"
 viewBox="0.00 0.00 460.00 66.00" xmlns="http://www.w3.org/2000/svg" xmlns:xlink="http://www.w3.org/1999/xlink">
<g id="graph0" class="graph" transform="scale(1 1) rotate(0) translate(4 62)">
<title>add_installed_packages</title>
<!-- Node1 -->
<g id="node1" class="node"><title>Node1</title>
<polygon fill="#bfbfbf" stroke="black" points="0.5,-19.5 0.5,-38.5 121.5,-38.5 121.5,-19.5 0.5,-19.5"/>
<text text-anchor="middle" x="61" y="-26.5" font-family="Helvetica,sans-Serif" font-size="10.00">add_installed_packages</text>
</g>
<!-- Node2 -->
<g id="node2" class="node"><title>Node2</title>
<g id="a_node2"><a xlink:href="../../da/d3e/imc__os_8c.html#a229947183624681536a133815b79b96e" target="_top" xlink:title="receive_message">
<polygon fill="none" stroke="black" points="158.5,-19.5 158.5,-38.5 251.5,-38.5 251.5,-19.5 158.5,-19.5"/>
<text text-anchor="middle" x="205" y="-26.5" font-family="Helvetica,sans-Serif" font-size="10.00">receive_message</text>
</a>
</g>
</g>
<!-- Node1&#45;&gt;Node2 -->
<g id="edge1" class="edge"><title>Node1&#45;&gt;Node2</title>
<path fill="none" stroke="midnightblue" d="M131.828,-29C140.737,-29 149.671,-29 158.068,-29"/>
<polygon fill="midnightblue" stroke="midnightblue" points="131.809,-25.5001 121.809,-29 131.809,-32.5001 131.809,-25.5001"/>
</g>
<!-- Node3 -->
<g id="node3" class="node"><title>Node3</title>
<g id="a_node3"><a xlink:href="../../de/d10/group__tncifimc.html#gac0904e90c720bf61161ebdcaa848ee28" target="_top" xlink:title="TNC_IMC_ReceiveMessage">
<polygon fill="none" stroke="black" points="298.5,-38.5 298.5,-57.5 441.5,-57.5 441.5,-38.5 298.5,-38.5"/>
<text text-anchor="middle" x="370" y="-45.5" font-family="Helvetica,sans-Serif" font-size="10.00">TNC_IMC_ReceiveMessage</text>
</a>
</g>
</g>
<!-- Node2&#45;&gt;Node3 -->
<g id="edge2" class="edge"><title>Node2&#45;&gt;Node3</title>
<path fill="none" stroke="midnightblue" d="M261.888,-35.5145C273.585,-36.878 286.065,-38.3327 298.222,-39.7498"/>
<polygon fill="midnightblue" stroke="midnightblue" points="262.176,-32.0246 251.838,-34.3431 261.366,-38.9775 262.176,-32.0246"/>
</g>
<!-- Node4 -->
<g id="node4" class="node"><title>Node4</title>
<g id="a_node4"><a xlink:href="../../de/d10/group__tncifimc.html#ga5a587fd64b9841c507b9638d218f1aca" target="_top" xlink:title="TNC_IMC_ReceiveMessageLong">
<polygon fill="none" stroke="black" points="288,-0.5 288,-19.5 452,-19.5 452,-0.5 288,-0.5"/>
<text text-anchor="middle" x="370" y="-7.5" font-family="Helvetica,sans-Serif" font-size="10.00">TNC_IMC_ReceiveMessageLong</text>
</a>
</g>
</g>
<!-- Node2&#45;&gt;Node4 -->
<g id="edge3" class="edge"><title>Node2&#45;&gt;Node4</title>
<path fill="none" stroke="midnightblue" d="M261.895,-22.4846C270.328,-21.5017 279.168,-20.4712 288,-19.4417"/>
<polygon fill="midnightblue" stroke="midnightblue" points="261.366,-19.0225 251.838,-23.6569 262.176,-25.9754 261.366,-19.0225"/>
</g>
</g>
</svg>
