<?xml version="1.0" encoding="UTF-8" standalone="no"?>
<!DOCTYPE svg PUBLIC "-//W3C//DTD SVG 1.1//EN"
 "http://www.w3.org/Graphics/SVG/1.1/DTD/svg11.dtd">
<!-- Generated by graphviz version 2.36.0 (20140111.2315)
 -->
<!-- Title: private_ntru_ke_t Pages: 1 -->
<svg width="537pt" height="254pt"
 viewBox="0.00 0.00 537.00 254.00" xmlns="http://www.w3.org/2000/svg" xmlns:xlink="http://www.w3.org/1999/xlink">
<g id="graph0" class="graph" transform="scale(1 1) rotate(0) translate(4 250)">
<title>private_ntru_ke_t</title>
<!-- Node1 -->
<g id="node1" class="node"><title>Node1</title>
<polygon fill="#bfbfbf" stroke="black" points="235,-0.5 235,-19.5 327,-19.5 327,-0.5 235,-0.5"/>
<text text-anchor="middle" x="281" y="-7.5" font-family="Helvetica,sans-Serif" font-size="10.00">private_ntru_ke_t</text>
</g>
<!-- Node2 -->
<g id="node2" class="node"><title>Node2</title>
<g id="a_node2"><a xlink:href="../../d8/ddf/structntru__drbg__t.html" target="_top" xlink:title="ntru_drbg_t">
<polygon fill="none" stroke="black" points="-0.5,-90.5 -0.5,-109.5 64.5,-109.5 64.5,-90.5 -0.5,-90.5"/>
<text text-anchor="middle" x="32" y="-97.5" font-family="Helvetica,sans-Serif" font-size="10.00">ntru_drbg_t</text>
</a>
</g>
</g>
<!-- Node2&#45;&gt;Node1 -->
<g id="edge1" class="edge"><title>Node2&#45;&gt;Node1</title>
<path fill="none" stroke="#9a32cd" stroke-dasharray="5,2" d="M51.835,-84.5254C72.0218,-70.4986 104.709,-49.6809 136,-38 167.906,-26.0895 205.797,-19.2671 234.842,-15.4608"/>
<polygon fill="#9a32cd" stroke="#9a32cd" points="49.6279,-81.7996 43.4896,-90.435 53.6733,-87.5123 49.6279,-81.7996"/>
<text text-anchor="middle" x="147" y="-52.5" font-family="Helvetica,sans-Serif" font-size="10.00"> drbg</text>
</g>
<!-- Node2&#45;&gt;Node2 -->
<g id="edge2" class="edge"><title>Node2&#45;&gt;Node2</title>
<path fill="none" stroke="#9a32cd" stroke-dasharray="5,2" d="M74.791,-105.255C79.1888,-104.22 82,-102.468 82,-100 82,-95.9492 74.4296,-93.8289 64.7005,-93.639"/>
<polygon fill="#9a32cd" stroke="#9a32cd" points="74.2595,-101.792 64.7005,-106.361 75.0224,-108.75 74.2595,-101.792"/>
<text text-anchor="middle" x="99" y="-97.5" font-family="Helvetica,sans-Serif" font-size="10.00"> get_ref</text>
</g>
<!-- Node3 -->
<g id="node3" class="node"><title>Node3</title>
<polygon fill="none" stroke="#bfbfbf" points="134.5,-90.5 134.5,-109.5 175.5,-109.5 175.5,-90.5 134.5,-90.5"/>
<text text-anchor="middle" x="155" y="-97.5" font-family="Helvetica,sans-Serif" font-size="10.00">struct</text>
</g>
<!-- Node3&#45;&gt;Node1 -->
<g id="edge3" class="edge"><title>Node3&#45;&gt;Node1</title>
<path fill="none" stroke="#9a32cd" stroke-dasharray="5,2" d="M158.42,-80.3247C161.864,-66.7222 168.525,-48.849 181,-38 195.858,-25.0783 216.302,-18.2708 234.833,-14.7112"/>
<polygon fill="#9a32cd" stroke="#9a32cd" points="154.999,-79.5874 156.298,-90.1023 161.84,-81.0721 154.999,-79.5874"/>
<text text-anchor="middle" x="212" y="-63.5" font-family="Helvetica,sans-Serif" font-size="10.00"> ciphertext</text>
<text text-anchor="middle" x="212" y="-52.5" font-family="Helvetica,sans-Serif" font-size="10.00">public</text>
<text text-anchor="middle" x="212" y="-41.5" font-family="Helvetica,sans-Serif" font-size="10.00">shared_secret</text>
</g>
<!-- Node4 -->
<g id="node4" class="node"><title>Node4</title>
<g id="a_node4"><a xlink:href="../../dc/d82/structntru__param__set__t.html" target="_top" xlink:title="ntru_param_set_t">
<polygon fill="none" stroke="black" points="194,-90.5 194,-109.5 286,-109.5 286,-90.5 194,-90.5"/>
<text text-anchor="middle" x="240" y="-97.5" font-family="Helvetica,sans-Serif" font-size="10.00">ntru_param_set_t</text>
</a>
</g>
</g>
<!-- Node4&#45;&gt;Node1 -->
<g id="edge4" class="edge"><title>Node4&#45;&gt;Node1</title>
<path fill="none" stroke="#9a32cd" stroke-dasharray="5,2" d="M243.887,-80.1933C246.926,-67.7431 251.848,-51.3176 259,-38 262.547,-31.3945 267.82,-24.8534 272.314,-19.864"/>
<polygon fill="#9a32cd" stroke="#9a32cd" points="240.392,-79.7825 241.615,-90.3065 247.222,-81.3168 240.392,-79.7825"/>
<text text-anchor="middle" x="283.5" y="-52.5" font-family="Helvetica,sans-Serif" font-size="10.00"> param_set</text>
</g>
<!-- Node5 -->
<g id="node5" class="node"><title>Node5</title>
<g id="a_node5"><a xlink:href="../../d5/d41/structntru__public__key__t.html" target="_top" xlink:title="ntru_public_key_t">
<polygon fill="none" stroke="black" points="308.5,-158.5 308.5,-177.5 401.5,-177.5 401.5,-158.5 308.5,-158.5"/>
<text text-anchor="middle" x="355" y="-165.5" font-family="Helvetica,sans-Serif" font-size="10.00">ntru_public_key_t</text>
</a>
</g>
</g>
<!-- Node5&#45;&gt;Node1 -->
<g id="edge5" class="edge"><title>Node5&#45;&gt;Node1</title>
<path fill="none" stroke="#9a32cd" stroke-dasharray="5,2" d="M346.835,-148.772C341.983,-137.664 335.85,-123.128 331,-110 319.359,-78.4883 325.481,-66.6862 308,-38 303.722,-30.9806 297.254,-24.4265 291.721,-19.5339"/>
<polygon fill="#9a32cd" stroke="#9a32cd" points="343.765,-150.483 351.011,-158.212 350.166,-147.651 343.765,-150.483"/>
<text text-anchor="middle" x="348.5" y="-97.5" font-family="Helvetica,sans-Serif" font-size="10.00"> pubkey</text>
</g>
<!-- Node7 -->
<g id="node7" class="node"><title>Node7</title>
<g id="a_node7"><a xlink:href="../../da/d43/structntru__private__key__t.html" target="_top" xlink:title="ntru_private_key_t">
<polygon fill="none" stroke="black" points="375.5,-90.5 375.5,-109.5 472.5,-109.5 472.5,-90.5 375.5,-90.5"/>
<text text-anchor="middle" x="424" y="-97.5" font-family="Helvetica,sans-Serif" font-size="10.00">ntru_private_key_t</text>
</a>
</g>
</g>
<!-- Node5&#45;&gt;Node7 -->
<g id="edge9" class="edge"><title>Node5&#45;&gt;Node7</title>
<path fill="none" stroke="#9a32cd" stroke-dasharray="5,2" d="M351.386,-148.388C351.031,-141.441 351.93,-133.832 356,-128 361.96,-119.458 371.079,-113.618 380.721,-109.626"/>
<polygon fill="#9a32cd" stroke="#9a32cd" points="347.929,-148.95 352.7,-158.409 354.87,-148.039 347.929,-148.95"/>
<text text-anchor="middle" x="390.5" y="-131.5" font-family="Helvetica,sans-Serif" font-size="10.00"> get_public_key</text>
</g>
<!-- Node6 -->
<g id="node6" class="node"><title>Node6</title>
<g id="a_node6"><a xlink:href="../../d0/d14/structchunk__t.html" target="_top" xlink:title="chunk_t">
<polygon fill="none" stroke="black" points="373.5,-226.5 373.5,-245.5 424.5,-245.5 424.5,-226.5 373.5,-226.5"/>
<text text-anchor="middle" x="399" y="-233.5" font-family="Helvetica,sans-Serif" font-size="10.00">chunk_t</text>
</a>
</g>
</g>
<!-- Node6&#45;&gt;Node5 -->
<g id="edge6" class="edge"><title>Node6&#45;&gt;Node5</title>
<path fill="none" stroke="#9a32cd" stroke-dasharray="5,2" d="M375.136,-220.217C370.908,-216.67 366.929,-212.566 364,-208 358.073,-198.758 356.034,-186.068 355.341,-177.707"/>
<polygon fill="#9a32cd" stroke="#9a32cd" points="373.245,-223.173 383.358,-226.33 377.421,-217.555 373.245,-223.173"/>
<text text-anchor="middle" x="394.5" y="-199.5" font-family="Helvetica,sans-Serif" font-size="10.00"> get_encoding</text>
</g>
<!-- Node6&#45;&gt;Node7 -->
<g id="edge8" class="edge"><title>Node6&#45;&gt;Node7</title>
<path fill="none" stroke="#9a32cd" stroke-dasharray="5,2" d="M417.859,-219.268C420.773,-215.877 423.357,-212.074 425,-208 438.755,-173.886 430.635,-128.534 426.249,-109.735"/>
<polygon fill="#9a32cd" stroke="#9a32cd" points="415.35,-216.827 410.745,-226.368 420.295,-221.781 415.35,-216.827"/>
<text text-anchor="middle" x="463.5" y="-165.5" font-family="Helvetica,sans-Serif" font-size="10.00"> get_encoding</text>
</g>
<!-- Node7&#45;&gt;Node1 -->
<g id="edge7" class="edge"><title>Node7&#45;&gt;Node1</title>
<path fill="none" stroke="#9a32cd" stroke-dasharray="5,2" d="M404.44,-84.1745C386.967,-71.2419 360.43,-52.355 336,-38 324.444,-31.2101 310.94,-24.5633 300.205,-19.5636"/>
<polygon fill="#9a32cd" stroke="#9a32cd" points="402.586,-87.1582 412.692,-90.3391 406.775,-81.5502 402.586,-87.1582"/>
<text text-anchor="middle" x="404.5" y="-52.5" font-family="Helvetica,sans-Serif" font-size="10.00"> privkey</text>
</g>
<!-- Node8 -->
<g id="node8" class="node"><title>Node8</title>
<g id="a_node8"><a xlink:href="../../d9/ddb/structrng__t.html" target="_top" xlink:title="rng_t">
<polygon fill="none" stroke="black" points="491,-90.5 491,-109.5 529,-109.5 529,-90.5 491,-90.5"/>
<text text-anchor="middle" x="510" y="-97.5" font-family="Helvetica,sans-Serif" font-size="10.00">rng_t</text>
</a>
</g>
</g>
<!-- Node8&#45;&gt;Node1 -->
<g id="edge10" class="edge"><title>Node8&#45;&gt;Node1</title>
<path fill="none" stroke="#9a32cd" stroke-dasharray="5,2" d="M493.596,-83.6184C477.597,-69.5069 451.943,-49.1554 426,-38 394.596,-24.4964 356.513,-17.734 327.257,-14.3543"/>
<polygon fill="#9a32cd" stroke="#9a32cd" points="491.27,-86.2335 501.033,-90.3472 495.966,-81.0427 491.27,-86.2335"/>
<text text-anchor="middle" x="497" y="-52.5" font-family="Helvetica,sans-Serif" font-size="10.00"> entropy</text>
</g>
</g>
</svg>
