<?xml version="1.0" encoding="UTF-8" standalone="no"?>
<!DOCTYPE svg PUBLIC "-//W3C//DTD SVG 1.1//EN"
 "http://www.w3.org/Graphics/SVG/1.1/DTD/svg11.dtd">
<!-- Generated by graphviz version 2.36.0 (20140111.2315)
 -->
<!-- Title: thread_current_id Pages: 1 -->
<!--zoomable 412 -->
<svg id="main" version="1.1" xmlns="http://www.w3.org/2000/svg" xmlns:xlink="http://www.w3.org/1999/xlink" xml:space="preserve" onload="init(evt)">
<style type="text/css"><![CDATA[
.edge:hover path { stroke: red; }
.edge:hover polygon { stroke: red; fill: red; }
]]></style>
<script type="text/javascript"><![CDATA[
var edges = document.getElementsByTagName('g');
if (edges && edges.length) {
  for (var i=0;i<edges.length;i++) {
    if (edges[i].id.substr(0,4)=='edge') {
      edges[i].setAttribute('class','edge');
    }
  }
}
]]></script>
        <defs>
                <circle id="rim" cx="0" cy="0" r="7"/>
                <circle id="rim2" cx="0" cy="0" r="3.5"/>
                <g id="zoomPlus">
                        <use xlink:href="#rim" fill="#404040">
                                <set attributeName="fill" to="#808080" begin="zoomplus.mouseover" end="zoomplus.mouseout"/>
                        </use>
                        <path d="M-4,0h8M0,-4v8" fill="none" stroke="white" stroke-width="1.5" pointer-events="none"/>
                </g>
                <g id="zoomMin">
                        <use xlink:href="#rim" fill="#404040">
                                <set attributeName="fill" to="#808080" begin="zoomminus.mouseover" end="zoomminus.mouseout"/>
                        </use>
                        <path d="M-4,0h8" fill="none" stroke="white" stroke-width="1.5" pointer-events="none"/>
                </g>
                <g id="dirArrow">
                        <path fill="none" stroke="white" stroke-width="1.5" d="M0,-3.0v7 M-2.5,-0.5L0,-3.0L2.5,-0.5"/>
                </g>
               <g id="resetDef">
                       <use xlink:href="#rim2" fill="#404040">
                               <set attributeName="fill" to="#808080" begin="reset.mouseover" end="reset.mouseout"/>
                       </use>
               </g>
        </defs>

<script type="text/javascript">
var viewWidth = 1122;
var viewHeight = 412;
var sectionId = 'dynsection-15';
</script>
<script xlink:href="../../svgpan.js"/>
<svg id="graph" class="graph">
<g id="viewport">
<title>thread_current_id</title>
<!-- Node1 -->
<g id="node1" class="node"><title>Node1</title>
<polygon fill="#bfbfbf" stroke="black" points="0,-270.5 0,-289.5 92,-289.5 92,-270.5 0,-270.5"/>
<text text-anchor="middle" x="46" y="-277.5" font-family="Helvetica,sans-Serif" font-size="10.00">thread_current_id</text>
</g>
<!-- Node2 -->
<g id="node2" class="node"><title>Node2</title>
<g id="a_node2"><a xlink:href="../../db/dd6/starter_8c.html#adfbd1da9b18112cc4f19974d29965638" target="_top" xlink:title="fatal_signal_handler">
<polygon fill="none" stroke="black" points="128.5,-384.5 128.5,-403.5 231.5,-403.5 231.5,-384.5 128.5,-384.5"/>
<text text-anchor="middle" x="180" y="-391.5" font-family="Helvetica,sans-Serif" font-size="10.00">fatal_signal_handler</text>
</a>
</g>
</g>
<!-- Node1&#45;&gt;Node2 -->
<g id="edge1" class="edge"><title>Node1&#45;&gt;Node2</title>
<path fill="none" stroke="midnightblue" d="M58.311,-298.183C72.3055,-319.325 97.9927,-353.996 128,-375 133.419,-378.793 139.687,-381.932 145.935,-384.491"/>
<polygon fill="midnightblue" stroke="midnightblue" points="61.2503,-296.283 52.8902,-289.775 55.3669,-300.076 61.2503,-296.283"/>
</g>
<!-- Node4 -->
<g id="node4" class="node"><title>Node4</title>
<g id="a_node4"><a xlink:href="../../d5/dea/openssl__plugin_8c.html#a7aaba8504c966bf7b77be534d661183e" target="_top" xlink:title="id_function">
<polygon fill="none" stroke="black" points="148,-346.5 148,-365.5 212,-365.5 212,-346.5 148,-346.5"/>
<text text-anchor="middle" x="180" y="-353.5" font-family="Helvetica,sans-Serif" font-size="10.00">id_function</text>
</a>
</g>
</g>
<!-- Node1&#45;&gt;Node4 -->
<g id="edge3" class="edge"><title>Node1&#45;&gt;Node4</title>
<path fill="none" stroke="midnightblue" d="M66.4468,-295.84C82.3081,-308.215 105.665,-325.233 128,-337 134.687,-340.523 142.176,-343.7 149.311,-346.403"/>
<polygon fill="midnightblue" stroke="midnightblue" points="68.4699,-292.978 58.4602,-289.505 64.1198,-298.462 68.4699,-292.978"/>
</g>
<!-- Node7 -->
<g id="node7" class="node"><title>Node7</title>
<g id="a_node7"><a xlink:href="../../d3/d94/bus_8c.html#ab8e736a12ddb2a084e6ea7930674cf1a" target="_top" xlink:title="METHOD">
<polygon fill="none" stroke="black" points="150,-308.5 150,-327.5 210,-327.5 210,-308.5 150,-308.5"/>
<text text-anchor="middle" x="180" y="-315.5" font-family="Helvetica,sans-Serif" font-size="10.00">METHOD</text>
</a>
</g>
</g>
<!-- Node1&#45;&gt;Node7 -->
<g id="edge6" class="edge"><title>Node1&#45;&gt;Node7</title>
<path fill="none" stroke="midnightblue" d="M89.9259,-292.357C109.501,-297.993 132.174,-304.52 149.746,-309.578"/>
<polygon fill="midnightblue" stroke="midnightblue" points="90.8872,-288.992 80.3092,-289.589 88.9506,-295.719 90.8872,-288.992"/>
</g>
<!-- Node8 -->
<g id="node8" class="node"><title>Node8</title>
<g id="a_node8"><a xlink:href="../../d0/d1e/processor_8c.html#aa3edcae66226b7b01c7cb355c458d535" target="_top" xlink:title="process_jobs">
<polygon fill="none" stroke="black" points="143,-270.5 143,-289.5 217,-289.5 217,-270.5 143,-270.5"/>
<text text-anchor="middle" x="180" y="-277.5" font-family="Helvetica,sans-Serif" font-size="10.00">process_jobs</text>
</a>
</g>
</g>
<!-- Node1&#45;&gt;Node8 -->
<g id="edge7" class="edge"><title>Node1&#45;&gt;Node8</title>
<path fill="none" stroke="midnightblue" d="M102.364,-280C116.055,-280 130.373,-280 142.877,-280"/>
<polygon fill="midnightblue" stroke="midnightblue" points="102.058,-276.5 92.0577,-280 102.058,-283.5 102.058,-276.5"/>
</g>
<!-- Node10 -->
<g id="node10" class="node"><title>Node10</title>
<g id="a_node10"><a xlink:href="../../d0/d1e/processor_8c.html#adfb282ae4aa51d03fb008cc95e76e8b6" target="_top" xlink:title="restart">
<polygon fill="none" stroke="black" points="311,-232.5 311,-251.5 355,-251.5 355,-232.5 311,-232.5"/>
<text text-anchor="middle" x="333" y="-239.5" font-family="Helvetica,sans-Serif" font-size="10.00">restart</text>
</a>
</g>
</g>
<!-- Node1&#45;&gt;Node10 -->
<g id="edge13" class="edge"><title>Node1&#45;&gt;Node10</title>
<path fill="none" stroke="midnightblue" d="M92.8554,-268.087C104.275,-265.44 116.533,-262.87 128,-261 194.175,-250.21 273.502,-245.008 310.733,-243.016"/>
<polygon fill="midnightblue" stroke="midnightblue" points="91.9935,-264.694 83.0767,-270.416 93.6156,-271.504 91.9935,-264.694"/>
</g>
<!-- Node13 -->
<g id="node13" class="node"><title>Node13</title>
<g id="a_node13"><a xlink:href="../../d6/d89/charon-cmd_8c.html#a746c32bae21d390a6221482bcc41d8b2" target="_top" xlink:title="segv_handler">
<polygon fill="none" stroke="black" points="143,-194.5 143,-213.5 217,-213.5 217,-194.5 143,-194.5"/>
<text text-anchor="middle" x="180" y="-201.5" font-family="Helvetica,sans-Serif" font-size="10.00">segv_handler</text>
</a>
</g>
</g>
<!-- Node1&#45;&gt;Node13 -->
<g id="edge14" class="edge"><title>Node1&#45;&gt;Node13</title>
<path fill="none" stroke="midnightblue" d="M69.3483,-264.529C85.3495,-253.732 107.586,-239.292 128,-228 137.333,-222.837 147.965,-217.72 157.096,-213.545"/>
<polygon fill="midnightblue" stroke="midnightblue" points="67.0033,-261.891 60.7085,-270.413 70.9438,-267.677 67.0033,-261.891"/>
</g>
<!-- Node15 -->
<g id="node15" class="node"><title>Node15</title>
<g id="a_node15"><a xlink:href="../../dc/dfb/smp_8c.html#a994caefb45488b328e6ed75ddd088ba4" target="_top" xlink:title="xml_callback">
<polygon fill="none" stroke="black" points="143,-156.5 143,-175.5 217,-175.5 217,-156.5 143,-156.5"/>
<text text-anchor="middle" x="180" y="-163.5" font-family="Helvetica,sans-Serif" font-size="10.00">xml_callback</text>
</a>
</g>
</g>
<!-- Node1&#45;&gt;Node15 -->
<g id="edge16" class="edge"><title>Node1&#45;&gt;Node15</title>
<path fill="none" stroke="midnightblue" d="M58.311,-261.817C72.3055,-240.675 97.9927,-206.004 128,-185 133.419,-181.207 139.687,-178.068 145.935,-175.509"/>
<polygon fill="midnightblue" stroke="midnightblue" points="55.3669,-259.924 52.8902,-270.225 61.2503,-263.717 55.3669,-259.924"/>
</g>
<!-- Node3 -->
<g id="node3" class="node"><title>Node3</title>
<g id="a_node3"><a xlink:href="../../db/dd6/starter_8c.html#a3c04138a5bfe5d72780bb7e82a18e627" target="_top" xlink:title="main">
<polygon fill="none" stroke="black" points="314,-384.5 314,-403.5 352,-403.5 352,-384.5 314,-384.5"/>
<text text-anchor="middle" x="333" y="-391.5" font-family="Helvetica,sans-Serif" font-size="10.00">main</text>
</a>
</g>
</g>
<!-- Node2&#45;&gt;Node3 -->
<g id="edge2" class="edge"><title>Node2&#45;&gt;Node3</title>
<path fill="none" stroke="midnightblue" d="M241.826,-394C267.643,-394 295.84,-394 313.707,-394"/>
<polygon fill="midnightblue" stroke="midnightblue" points="241.701,-390.5 231.701,-394 241.701,-397.5 241.701,-390.5"/>
</g>
<!-- Node5 -->
<g id="node5" class="node"><title>Node5</title>
<g id="a_node5"><a xlink:href="../../d5/dea/openssl__plugin_8c.html#ac26efbd96d2a941b3aa2e4c3e286c3cd" target="_top" xlink:title="threading_init">
<polygon fill="none" stroke="black" points="296,-346.5 296,-365.5 370,-365.5 370,-346.5 296,-346.5"/>
<text text-anchor="middle" x="333" y="-353.5" font-family="Helvetica,sans-Serif" font-size="10.00">threading_init</text>
</a>
</g>
</g>
<!-- Node4&#45;&gt;Node5 -->
<g id="edge4" class="edge"><title>Node4&#45;&gt;Node5</title>
<path fill="none" stroke="midnightblue" d="M222.453,-356C245.49,-356 273.875,-356 295.979,-356"/>
<polygon fill="midnightblue" stroke="midnightblue" points="222.287,-352.5 212.287,-356 222.287,-359.5 222.287,-352.5"/>
</g>
<!-- Node6 -->
<g id="node6" class="node"><title>Node6</title>
<g id="a_node6"><a xlink:href="../../d5/dea/openssl__plugin_8c.html#acf2f8a64766c798c26cad2be3a3daa76" target="_top" xlink:title="openssl_plugin_create">
<polygon fill="none" stroke="black" points="434.5,-346.5 434.5,-365.5 547.5,-365.5 547.5,-346.5 434.5,-346.5"/>
<text text-anchor="middle" x="491" y="-353.5" font-family="Helvetica,sans-Serif" font-size="10.00">openssl_plugin_create</text>
</a>
</g>
</g>
<!-- Node5&#45;&gt;Node6 -->
<g id="edge5" class="edge"><title>Node5&#45;&gt;Node6</title>
<path fill="none" stroke="midnightblue" d="M380.404,-356C397.38,-356 416.758,-356 434.451,-356"/>
<polygon fill="midnightblue" stroke="midnightblue" points="380.182,-352.5 370.182,-356 380.182,-359.5 380.182,-352.5"/>
</g>
<!-- Node9 -->
<g id="node9" class="node"><title>Node9</title>
<g id="a_node9"><a xlink:href="../../d0/d1e/processor_8c.html#a90082fff1b27eb6aad4987ef898e03d5" target="_top" xlink:title="METHOD">
<polygon fill="none" stroke="black" points="303,-308.5 303,-327.5 363,-327.5 363,-308.5 303,-308.5"/>
<text text-anchor="middle" x="333" y="-315.5" font-family="Helvetica,sans-Serif" font-size="10.00">METHOD</text>
</a>
</g>
</g>
<!-- Node8&#45;&gt;Node9 -->
<g id="edge8" class="edge"><title>Node8&#45;&gt;Node9</title>
<path fill="none" stroke="midnightblue" d="M227.028,-291.583C251.648,-297.779 281.228,-305.223 302.704,-310.627"/>
<polygon fill="midnightblue" stroke="midnightblue" points="227.72,-288.148 217.168,-289.102 226.012,-294.937 227.72,-288.148"/>
</g>
<!-- Node8&#45;&gt;Node10 -->
<g id="edge9" class="edge"><title>Node8&#45;&gt;Node10</title>
<path fill="none" stroke="midnightblue" d="M227.085,-268.402C254.869,-261.41 288.953,-252.833 310.58,-247.391"/>
<polygon fill="midnightblue" stroke="midnightblue" points="226.012,-265.063 217.168,-270.898 227.72,-271.852 226.012,-265.063"/>
</g>
<!-- Node11 -->
<g id="node11" class="node"><title>Node11</title>
<g id="a_node11"><a xlink:href="../../d5/dbf/ike__sa_8c.html#a027a90cab4abfaae8f6b654a198ae0b8" target="_top" xlink:title="METHOD">
<polygon fill="none" stroke="black" points="461,-232.5 461,-251.5 521,-251.5 521,-232.5 461,-232.5"/>
<text text-anchor="middle" x="491" y="-239.5" font-family="Helvetica,sans-Serif" font-size="10.00">METHOD</text>
</a>
</g>
</g>
<!-- Node10&#45;&gt;Node11 -->
<g id="edge10" class="edge"><title>Node10&#45;&gt;Node11</title>
<path fill="none" stroke="midnightblue" d="M365.042,-242C392.911,-242 433.519,-242 460.806,-242"/>
<polygon fill="midnightblue" stroke="midnightblue" points="365.039,-238.5 355.039,-242 365.039,-245.5 365.039,-238.5"/>
</g>
<!-- Node12 -->
<g id="node12" class="node"><title>Node12</title>
<g id="a_node12"><a xlink:href="../../d0/d1e/processor_8c.html#af9721f2f236042e925a8b73ffacb2586" target="_top" xlink:title="process_job">
<polygon fill="none" stroke="black" points="456.5,-270.5 456.5,-289.5 525.5,-289.5 525.5,-270.5 456.5,-270.5"/>
<text text-anchor="middle" x="491" y="-277.5" font-family="Helvetica,sans-Serif" font-size="10.00">process_job</text>
</a>
</g>
</g>
<!-- Node10&#45;&gt;Node12 -->
<g id="edge11" class="edge"><title>Node10&#45;&gt;Node12</title>
<path fill="none" stroke="midnightblue" d="M364.905,-249.528C391.342,-255.968 429.318,-265.218 456.482,-271.835"/>
<polygon fill="midnightblue" stroke="midnightblue" points="365.583,-246.091 355.039,-247.125 363.926,-252.892 365.583,-246.091"/>
</g>
<!-- Node12&#45;&gt;Node8 -->
<g id="edge12" class="edge"><title>Node12&#45;&gt;Node8</title>
<path fill="none" stroke="midnightblue" d="M445.896,-280C384.368,-280 273.938,-280 217.051,-280"/>
<polygon fill="midnightblue" stroke="midnightblue" points="446.064,-283.5 456.064,-280 446.064,-276.5 446.064,-283.5"/>
</g>
<!-- Node14 -->
<g id="node14" class="node"><title>Node14</title>
<g id="a_node14"><a xlink:href="../../d6/d89/charon-cmd_8c.html#a0ddf1224851353fc92bfbff6f499fa97" target="_top" xlink:title="main">
<polygon fill="none" stroke="black" points="314,-194.5 314,-213.5 352,-213.5 352,-194.5 314,-194.5"/>
<text text-anchor="middle" x="333" y="-201.5" font-family="Helvetica,sans-Serif" font-size="10.00">main</text>
</a>
</g>
</g>
<!-- Node13&#45;&gt;Node14 -->
<g id="edge15" class="edge"><title>Node13&#45;&gt;Node14</title>
<path fill="none" stroke="midnightblue" d="M227.192,-204C256.452,-204 292.664,-204 313.958,-204"/>
<polygon fill="midnightblue" stroke="midnightblue" points="227.168,-200.5 217.168,-204 227.168,-207.5 227.168,-200.5"/>
</g>
<!-- Node16 -->
<g id="node16" class="node"><title>Node16</title>
<g id="a_node16"><a xlink:href="../../dc/dfb/smp_8c.html#a3a7e581b77cf8957f08b45663124a847" target="_top" xlink:title="request_control_initiate">
<polygon fill="none" stroke="black" points="274.5,-156.5 274.5,-175.5 391.5,-175.5 391.5,-156.5 274.5,-156.5"/>
<text text-anchor="middle" x="333" y="-163.5" font-family="Helvetica,sans-Serif" font-size="10.00">request_control_initiate</text>
</a>
</g>
</g>
<!-- Node15&#45;&gt;Node16 -->
<g id="edge17" class="edge"><title>Node15&#45;&gt;Node16</title>
<path fill="none" stroke="midnightblue" d="M227.576,-166C242.346,-166 258.856,-166 274.311,-166"/>
<polygon fill="midnightblue" stroke="midnightblue" points="227.168,-162.5 217.168,-166 227.168,-169.5 227.168,-162.5"/>
</g>
<!-- Node31 -->
<g id="node31" class="node"><title>Node31</title>
<g id="a_node31"><a xlink:href="../../dc/dfb/smp_8c.html#a6758d07c4c52a6e21e7b0295acff5f69" target="_top" xlink:title="request_control_terminate">
<polygon fill="none" stroke="black" points="268.5,-118.5 268.5,-137.5 397.5,-137.5 397.5,-118.5 268.5,-118.5"/>
<text text-anchor="middle" x="333" y="-125.5" font-family="Helvetica,sans-Serif" font-size="10.00">request_control_terminate</text>
</a>
</g>
</g>
<!-- Node15&#45;&gt;Node31 -->
<g id="edge33" class="edge"><title>Node15&#45;&gt;Node31</title>
<path fill="none" stroke="midnightblue" d="M227.039,-154.414C248.482,-149.018 273.685,-142.675 294.02,-137.558"/>
<polygon fill="midnightblue" stroke="midnightblue" points="226.012,-151.063 217.168,-156.898 227.72,-157.852 226.012,-151.063"/>
</g>
<!-- Node17 -->
<g id="node17" class="node"><title>Node17</title>
<g id="a_node17"><a xlink:href="../../dc/dfb/smp_8c.html#a53516df832b0d3726da54edec64c6f69" target="_top" xlink:title="request_control">
<polygon fill="none" stroke="black" points="449.5,-137.5 449.5,-156.5 532.5,-156.5 532.5,-137.5 449.5,-137.5"/>
<text text-anchor="middle" x="491" y="-144.5" font-family="Helvetica,sans-Serif" font-size="10.00">request_control</text>
</a>
</g>
</g>
<!-- Node16&#45;&gt;Node17 -->
<g id="edge18" class="edge"><title>Node16&#45;&gt;Node17</title>
<path fill="none" stroke="midnightblue" d="M401.621,-157.764C417.809,-155.793 434.604,-153.747 449.15,-151.975"/>
<polygon fill="midnightblue" stroke="midnightblue" points="401.149,-154.296 391.645,-158.979 401.995,-161.244 401.149,-154.296"/>
</g>
<!-- Node18 -->
<g id="node18" class="node"><title>Node18</title>
<g id="a_node18"><a xlink:href="../../dc/dfb/smp_8c.html#ae5ffd6d9c6e452364d061068e1c4affc" target="_top" xlink:title="request">
<polygon fill="none" stroke="black" points="584.5,-137.5 584.5,-156.5 633.5,-156.5 633.5,-137.5 584.5,-137.5"/>
<text text-anchor="middle" x="609" y="-144.5" font-family="Helvetica,sans-Serif" font-size="10.00">request</text>
</a>
</g>
</g>
<!-- Node17&#45;&gt;Node18 -->
<g id="edge19" class="edge"><title>Node17&#45;&gt;Node18</title>
<path fill="none" stroke="midnightblue" d="M542.885,-147C557.265,-147 572.237,-147 584.193,-147"/>
<polygon fill="midnightblue" stroke="midnightblue" points="542.571,-143.5 532.571,-147 542.571,-150.5 542.571,-143.5"/>
</g>
<!-- Node19 -->
<g id="node19" class="node"><title>Node19</title>
<g id="a_node19"><a xlink:href="../../dc/dfb/smp_8c.html#ad33d4cf9bee572100e54c96c6b637335" target="_top" xlink:title="process">
<polygon fill="none" stroke="black" points="670.5,-137.5 670.5,-156.5 721.5,-156.5 721.5,-137.5 670.5,-137.5"/>
<text text-anchor="middle" x="696" y="-144.5" font-family="Helvetica,sans-Serif" font-size="10.00">process</text>
</a>
</g>
</g>
<!-- Node18&#45;&gt;Node19 -->
<g id="edge20" class="edge"><title>Node18&#45;&gt;Node19</title>
<path fill="none" stroke="midnightblue" d="M643.732,-147C652.589,-147 661.976,-147 670.265,-147"/>
<polygon fill="midnightblue" stroke="midnightblue" points="643.677,-143.5 633.677,-147 643.677,-150.5 643.677,-143.5"/>
</g>
<!-- Node20 -->
<g id="node20" class="node"><title>Node20</title>
<g id="a_node20"><a xlink:href="../../dc/dfb/smp_8c.html#a59074c7f4da84573c19332aeb1d5f753" target="_top" xlink:title="dispatch">
<polygon fill="none" stroke="black" points="794.5,-251.5 794.5,-270.5 847.5,-270.5 847.5,-251.5 794.5,-251.5"/>
<text text-anchor="middle" x="821" y="-258.5" font-family="Helvetica,sans-Serif" font-size="10.00">dispatch</text>
</a>
</g>
</g>
<!-- Node19&#45;&gt;Node20 -->
<g id="edge21" class="edge"><title>Node19&#45;&gt;Node20</title>
<path fill="none" stroke="midnightblue" d="M705.387,-165.641C715.311,-185.783 733.616,-217.592 758,-237 768.566,-245.41 782.425,-251.145 794.359,-254.895"/>
<polygon fill="midnightblue" stroke="midnightblue" points="708.526,-164.09 701.086,-156.547 702.198,-167.084 708.526,-164.09"/>
</g>
<!-- Node22 -->
<g id="node22" class="node"><title>Node22</title>
<g id="a_node22"><a xlink:href="../../d6/db0/updown__listener_8c.html#ab9007f42f15718faba87349c32919ca5" target="_top" xlink:title="invoke_once">
<polygon fill="none" stroke="black" points="933.5,-194.5 933.5,-213.5 1004.5,-213.5 1004.5,-194.5 933.5,-194.5"/>
<text text-anchor="middle" x="969" y="-201.5" font-family="Helvetica,sans-Serif" font-size="10.00">invoke_once</text>
</a>
</g>
</g>
<!-- Node19&#45;&gt;Node22 -->
<g id="edge23" class="edge"><title>Node19&#45;&gt;Node22</title>
<path fill="none" stroke="midnightblue" d="M709.832,-164.767C720.855,-178.39 738.092,-196.146 758,-204 816.164,-226.946 890.644,-219.148 933.476,-211.5"/>
<polygon fill="midnightblue" stroke="midnightblue" points="712.39,-162.351 703.52,-156.557 706.84,-166.618 712.39,-162.351"/>
</g>
<!-- Node24 -->
<g id="node24" class="node"><title>Node24</title>
<g id="a_node24"><a xlink:href="../../d7/de0/backtrace_8c.html#a0515d17a418c0ca8d656c5bcbc258b70" target="_top" xlink:title="METHOD">
<polygon fill="none" stroke="black" points="791,-175.5 791,-194.5 851,-194.5 851,-175.5 791,-175.5"/>
<text text-anchor="middle" x="821" y="-182.5" font-family="Helvetica,sans-Serif" font-size="10.00">METHOD</text>
</a>
</g>
</g>
<!-- Node19&#45;&gt;Node24 -->
<g id="edge25" class="edge"><title>Node19&#45;&gt;Node24</title>
<path fill="none" stroke="midnightblue" d="M731.44,-157.757C740.107,-160.456 749.393,-163.341 758,-166 768.756,-169.323 780.57,-172.949 790.973,-176.135"/>
<polygon fill="midnightblue" stroke="midnightblue" points="732.215,-154.333 721.627,-154.699 730.132,-161.016 732.215,-154.333"/>
</g>
<!-- Node25 -->
<g id="node25" class="node"><title>Node25</title>
<g id="a_node25"><a xlink:href="../../da/dd7/group__process.html#ga0f95da6e0876b84e024a26447785c21b" target="_top" xlink:title="process_start_shell">
<polygon fill="none" stroke="black" points="770.5,-137.5 770.5,-156.5 871.5,-156.5 871.5,-137.5 770.5,-137.5"/>
<text text-anchor="middle" x="821" y="-144.5" font-family="Helvetica,sans-Serif" font-size="10.00">process_start_shell</text>
</a>
</g>
</g>
<!-- Node19&#45;&gt;Node25 -->
<g id="edge26" class="edge"><title>Node19&#45;&gt;Node25</title>
<path fill="none" stroke="midnightblue" d="M731.636,-147C743.628,-147 757.315,-147 770.278,-147"/>
<polygon fill="midnightblue" stroke="midnightblue" points="731.595,-143.5 721.595,-147 731.595,-150.5 731.595,-143.5"/>
</g>
<!-- Node28 -->
<g id="node28" class="node"><title>Node28</title>
<g id="a_node28"><a xlink:href="../../d0/d68/group__psk__authenticator.html#ga78e056561fea31c0b9aae81c361eb496" target="_top" xlink:title="psk_authenticator_create\l_verifier">
<polygon fill="none" stroke="black" points="758,-88 758,-118 884,-118 884,-88 758,-88"/>
<text text-anchor="start" x="766" y="-106" font-family="Helvetica,sans-Serif" font-size="10.00">psk_authenticator_create</text>
<text text-anchor="middle" x="821" y="-95" font-family="Helvetica,sans-Serif" font-size="10.00">_verifier</text>
</a>
</g>
</g>
<!-- Node19&#45;&gt;Node28 -->
<g id="edge30" class="edge"><title>Node19&#45;&gt;Node28</title>
<path fill="none" stroke="midnightblue" d="M731.179,-134.774C745.685,-129.584 762.738,-123.484 778.002,-118.024"/>
<polygon fill="midnightblue" stroke="midnightblue" points="729.832,-131.538 721.595,-138.202 732.19,-138.129 729.832,-131.538"/>
</g>
<!-- Node29 -->
<g id="node29" class="node"><title>Node29</title>
<g id="a_node29"><a xlink:href="../../d5/d0a/group__pubkey__authenticator.html#gace7c5081ff28045566dd27c2528afc34" target="_top" xlink:title="pubkey_authenticator\l_create_verifier">
<polygon fill="none" stroke="black" points="766,-39 766,-69 876,-69 876,-39 766,-39"/>
<text text-anchor="start" x="774" y="-57" font-family="Helvetica,sans-Serif" font-size="10.00">pubkey_authenticator</text>
<text text-anchor="middle" x="821" y="-46" font-family="Helvetica,sans-Serif" font-size="10.00">_create_verifier</text>
</a>
</g>
</g>
<!-- Node19&#45;&gt;Node29 -->
<g id="edge31" class="edge"><title>Node19&#45;&gt;Node29</title>
<path fill="none" stroke="midnightblue" d="M709.115,-129.007C720.255,-113.647 738.035,-91.8976 758,-78 762.831,-74.637 768.198,-71.6614 773.696,-69.0524"/>
<polygon fill="midnightblue" stroke="midnightblue" points="706.241,-127.009 703.357,-137.204 711.969,-131.033 706.241,-127.009"/>
</g>
<!-- Node30 -->
<g id="node30" class="node"><title>Node30</title>
<g id="a_node30"><a xlink:href="../../de/dc5/test__process_8c.html#a675a6c77ad86f0e9978ec46574225abb" target="_top" xlink:title="START_TEST">
<polygon fill="none" stroke="black" points="781,-0.5 781,-19.5 861,-19.5 861,-0.5 781,-0.5"/>
<text text-anchor="middle" x="821" y="-7.5" font-family="Helvetica,sans-Serif" font-size="10.00">START_TEST</text>
</a>
</g>
</g>
<!-- Node19&#45;&gt;Node30 -->
<g id="edge32" class="edge"><title>Node19&#45;&gt;Node30</title>
<path fill="none" stroke="midnightblue" d="M701.921,-127.586C709.547,-101.421 726.707,-55.1193 758,-29 764.569,-23.5174 772.702,-19.6155 780.891,-16.839"/>
<polygon fill="midnightblue" stroke="midnightblue" points="698.486,-126.879 699.224,-137.448 705.238,-128.726 698.486,-126.879"/>
</g>
<!-- Node21 -->
<g id="node21" class="node"><title>Node21</title>
<g id="a_node21"><a xlink:href="../../dc/dfb/smp_8c.html#afa1f6575884a10b4be97cccf1c5dc5d2" target="_top" xlink:title="smp_plugin_create">
<polygon fill="none" stroke="black" points="920,-251.5 920,-270.5 1018,-270.5 1018,-251.5 920,-251.5"/>
<text text-anchor="middle" x="969" y="-258.5" font-family="Helvetica,sans-Serif" font-size="10.00">smp_plugin_create</text>
</a>
</g>
</g>
<!-- Node20&#45;&gt;Node21 -->
<g id="edge22" class="edge"><title>Node20&#45;&gt;Node21</title>
<path fill="none" stroke="midnightblue" d="M857.904,-261C876.553,-261 899.6,-261 919.781,-261"/>
<polygon fill="midnightblue" stroke="midnightblue" points="857.766,-257.5 847.766,-261 857.766,-264.5 857.766,-257.5"/>
</g>
<!-- Node23 -->
<g id="node23" class="node"><title>Node23</title>
<g id="a_node23"><a xlink:href="../../d6/db0/updown__listener_8c.html#a3c70783c1b7de8b1452baeca00810103" target="_top" xlink:title="METHOD">
<polygon fill="none" stroke="black" points="1054,-194.5 1054,-213.5 1114,-213.5 1114,-194.5 1054,-194.5"/>
<text text-anchor="middle" x="1084" y="-201.5" font-family="Helvetica,sans-Serif" font-size="10.00">METHOD</text>
</a>
</g>
</g>
<!-- Node22&#45;&gt;Node23 -->
<g id="edge24" class="edge"><title>Node22&#45;&gt;Node23</title>
<path fill="none" stroke="midnightblue" d="M1014.76,-204C1027.83,-204 1041.79,-204 1053.65,-204"/>
<polygon fill="midnightblue" stroke="midnightblue" points="1014.52,-200.5 1004.52,-204 1014.52,-207.5 1014.52,-200.5"/>
</g>
<!-- Node25&#45;&gt;Node22 -->
<g id="edge29" class="edge"><title>Node25&#45;&gt;Node22</title>
<path fill="none" stroke="midnightblue" d="M865.671,-159.615C871.867,-161.627 878.125,-163.781 884,-166 906.611,-174.539 931.773,-186.225 948.61,-194.376"/>
<polygon fill="midnightblue" stroke="midnightblue" points="866.64,-156.251 856.051,-156.582 864.535,-162.927 866.64,-156.251"/>
</g>
<!-- Node26 -->
<g id="node26" class="node"><title>Node26</title>
<g id="a_node26"><a xlink:href="../../d2/d08/ext__auth__listener_8c.html#aca7155ff0c91f6b6cc0a4414c922119a" target="_top" xlink:title="METHOD">
<polygon fill="none" stroke="black" points="939,-147.5 939,-166.5 999,-166.5 999,-147.5 939,-147.5"/>
<text text-anchor="middle" x="969" y="-154.5" font-family="Helvetica,sans-Serif" font-size="10.00">METHOD</text>
</a>
</g>
</g>
<!-- Node25&#45;&gt;Node26 -->
<g id="edge27" class="edge"><title>Node25&#45;&gt;Node26</title>
<path fill="none" stroke="midnightblue" d="M881.95,-151.106C901.577,-152.45 922.505,-153.884 938.807,-155"/>
<polygon fill="midnightblue" stroke="midnightblue" points="882.052,-147.605 871.837,-150.413 881.574,-154.589 882.052,-147.605"/>
</g>
<!-- Node27 -->
<g id="node27" class="node"><title>Node27</title>
<g id="a_node27"><a xlink:href="../../de/dc5/test__process_8c.html#ad9979facb94192ab26204af2e3ca94d6" target="_top" xlink:title="START_TEST">
<polygon fill="none" stroke="black" points="929,-109.5 929,-128.5 1009,-128.5 1009,-109.5 929,-109.5"/>
<text text-anchor="middle" x="969" y="-116.5" font-family="Helvetica,sans-Serif" font-size="10.00">START_TEST</text>
</a>
</g>
</g>
<!-- Node25&#45;&gt;Node27 -->
<g id="edge28" class="edge"><title>Node25&#45;&gt;Node27</title>
<path fill="none" stroke="midnightblue" d="M882.086,-135.477C897.917,-132.441 914.584,-129.244 928.981,-126.483"/>
<polygon fill="midnightblue" stroke="midnightblue" points="880.998,-132.121 871.837,-137.442 882.317,-138.996 880.998,-132.121"/>
</g>
<!-- Node31&#45;&gt;Node17 -->
<g id="edge34" class="edge"><title>Node31&#45;&gt;Node17</title>
<path fill="none" stroke="midnightblue" d="M408.141,-137.03C422.281,-138.752 436.591,-140.495 449.205,-142.031"/>
<polygon fill="midnightblue" stroke="midnightblue" points="408.251,-133.518 397.901,-135.783 407.405,-140.466 408.251,-133.518"/>
</g>
</g>
</svg>
        <g id="navigator" transform="translate(0 0)" fill="#404254">
                <rect fill="#f2f5e9" fill-opacity="0.5" stroke="#606060" stroke-width=".5" x="0" y="0" width="60" height="60"/>
                <use id="zoomplus" xlink:href="#zoomPlus" x="17" y="9" onmousedown="handleZoom(evt,'in')"/>
                <use id="zoomminus" xlink:href="#zoomMin" x="42" y="9" onmousedown="handleZoom(evt,'out')"/>
                <use id="reset" xlink:href="#resetDef" x="30" y="36" onmousedown="handleReset()"/>
                <g id="arrowUp" xlink:href="#dirArrow" transform="translate(30 24)" onmousedown="handlePan(0,-1)">
                  <use xlink:href="#rim" fill="#404040">
                        <set attributeName="fill" to="#808080" begin="arrowUp.mouseover" end="arrowUp.mouseout"/>
                  </use>
                  <path fill="none" stroke="white" stroke-width="1.5" d="M0,-3.0v7 M-2.5,-0.5L0,-3.0L2.5,-0.5"/>
                </g>
                <g id="arrowRight" xlink:href="#dirArrow" transform="rotate(90) translate(36 -43)" onmousedown="handlePan(1,0)">
                  <use xlink:href="#rim" fill="#404040">
                        <set attributeName="fill" to="#808080" begin="arrowRight.mouseover" end="arrowRight.mouseout"/>
                  </use>
                  <path fill="none" stroke="white" stroke-width="1.5" d="M0,-3.0v7 M-2.5,-0.5L0,-3.0L2.5,-0.5"/>
                </g>
                <g id="arrowDown" xlink:href="#dirArrow" transform="rotate(180) translate(-30 -48)" onmousedown="handlePan(0,1)">
                  <use xlink:href="#rim" fill="#404040">
                        <set attributeName="fill" to="#808080" begin="arrowDown.mouseover" end="arrowDown.mouseout"/>
                  </use>
                  <path fill="none" stroke="white" stroke-width="1.5" d="M0,-3.0v7 M-2.5,-0.5L0,-3.0L2.5,-0.5"/>
                </g>
                <g id="arrowLeft" xlink:href="#dirArrow" transform="rotate(270) translate(-36 17)" onmousedown="handlePan(-1,0)">
                  <use xlink:href="#rim" fill="#404040">
                        <set attributeName="fill" to="#808080" begin="arrowLeft.mouseover" end="arrowLeft.mouseout"/>
                  </use>
                  <path fill="none" stroke="white" stroke-width="1.5" d="M0,-3.0v7 M-2.5,-0.5L0,-3.0L2.5,-0.5"/>
                </g>
        </g>
        <svg viewBox="0 0 15 15" width="100%" height="30px" preserveAspectRatio="xMaxYMin meet">
         <g id="arrow_out" transform="scale(0.3 0.3)">
          <a xlink:href="group__thread_ga25c5a8b5c130b45df0d1fc0a4c1d5063_icgraph_org.svg" target="_base">
           <rect id="button" ry="5" rx="5" y="6" x="6" height="38" width="38"
                fill="#f2f5e9" fill-opacity="0.5" stroke="#606060" stroke-width="1.0"/>
           <path id="arrow"
             d="M 11.500037,31.436501 C 11.940474,20.09759 22.043105,11.32322 32.158766,21.979434 L 37.068811,17.246167 C 37.068811,17.246167 37.088388,32 37.088388,32 L 22.160133,31.978069 C 22.160133,31.978069 26.997745,27.140456 26.997745,27.140456 C 18.528582,18.264221 13.291696,25.230495 11.500037,31.436501 z"
             style="fill:#404040;"/>
          </a>
         </g>
        </svg>
</svg>
