<?xml version="1.0" encoding="UTF-8" standalone="no"?>
<!DOCTYPE svg PUBLIC "-//W3C//DTD SVG 1.1//EN"
 "http://www.w3.org/Graphics/SVG/1.1/DTD/svg11.dtd">
<!-- Generated by graphviz version 2.36.0 (20140111.2315)
 -->
<!-- Title: thread_current_id Pages: 1 -->
<svg width="1456pt" height="800pt"
 viewBox="0.00 0.00 1456.00 800.00" xmlns="http://www.w3.org/2000/svg" xmlns:xlink="http://www.w3.org/1999/xlink">
<g id="graph0" class="graph" transform="scale(1 1) rotate(0) translate(4 796)">
<title>thread_current_id</title>
<!-- Node1 -->
<g id="node1" class="node"><title>Node1</title>
<polygon fill="#bfbfbf" stroke="black" points="0,-24.5 0,-43.5 92,-43.5 92,-24.5 0,-24.5"/>
<text text-anchor="middle" x="46" y="-31.5" font-family="Helvetica,sans-Serif" font-size="10.00">thread_current_id</text>
</g>
<!-- Node2 -->
<g id="node2" class="node"><title>Node2</title>
<g id="a_node2"><a xlink:href="../../d4/ddc/windows_2thread_8c.html#aa6f9626256b5d10ca9a0f173f3351b39" target="_top" xlink:title="get_current_thread">
<polygon fill="none" stroke="black" points="128,-43.5 128,-62.5 226,-62.5 226,-43.5 128,-43.5"/>
<text text-anchor="middle" x="177" y="-50.5" font-family="Helvetica,sans-Serif" font-size="10.00">get_current_thread</text>
</a>
</g>
</g>
<!-- Node1&#45;&gt;Node2 -->
<g id="edge1" class="edge"><title>Node1&#45;&gt;Node2</title>
<path fill="none" stroke="midnightblue" d="M92.1179,-40.6453C100.369,-41.8605 109.086,-43.1445 117.658,-44.4069"/>
<polygon fill="midnightblue" stroke="midnightblue" points="117.212,-47.879 127.615,-45.8736 118.232,-40.9537 117.212,-47.879"/>
</g>
<!-- Node50 -->
<g id="node50" class="node"><title>Node50</title>
<g id="a_node50"><a xlink:href="../../da/dd8/group__thread.html#gaa19dc254d3a8e97795afcdc25d30bcb5" target="_top" xlink:title="thread_current">
<polygon fill="none" stroke="black" points="137.5,-5.5 137.5,-24.5 216.5,-24.5 216.5,-5.5 137.5,-5.5"/>
<text text-anchor="middle" x="177" y="-12.5" font-family="Helvetica,sans-Serif" font-size="10.00">thread_current</text>
</a>
</g>
</g>
<!-- Node1&#45;&gt;Node50 -->
<g id="edge63" class="edge"><title>Node1&#45;&gt;Node50</title>
<path fill="none" stroke="midnightblue" d="M92.1179,-27.3547C103.469,-25.6828 115.704,-23.8809 127.225,-22.1839"/>
<polygon fill="midnightblue" stroke="midnightblue" points="127.743,-25.6455 137.126,-20.7256 126.723,-18.7202 127.743,-25.6455"/>
</g>
<!-- Node3 -->
<g id="node3" class="node"><title>Node3</title>
<g id="a_node3"><a xlink:href="../../d4/ddc/windows_2thread_8c.html#a0ff83fe14667ac14575bde4eac63b73f" target="_top" xlink:title="create_internal">
<polygon fill="none" stroke="black" points="262,-66.5 262,-85.5 342,-85.5 342,-66.5 262,-66.5"/>
<text text-anchor="middle" x="302" y="-73.5" font-family="Helvetica,sans-Serif" font-size="10.00">create_internal</text>
</a>
</g>
</g>
<!-- Node2&#45;&gt;Node3 -->
<g id="edge2" class="edge"><title>Node2&#45;&gt;Node3</title>
<path fill="none" stroke="midnightblue" d="M226.26,-62.0242C234.681,-63.5989 243.45,-65.2386 251.894,-66.8176"/>
<polygon fill="midnightblue" stroke="midnightblue" points="251.514,-70.3071 261.987,-68.7049 252.801,-63.4264 251.514,-70.3071"/>
</g>
<!-- Node49 -->
<g id="node49" class="node"><title>Node49</title>
<g id="a_node49"><a xlink:href="../../d4/ddc/windows_2thread_8c.html#ab7fcfa7668694788ddf0f699e6e79bde" target="_top" xlink:title="put_thread">
<polygon fill="none" stroke="black" points="271,-19.5 271,-38.5 333,-38.5 333,-19.5 271,-19.5"/>
<text text-anchor="middle" x="302" y="-26.5" font-family="Helvetica,sans-Serif" font-size="10.00">put_thread</text>
</a>
</g>
</g>
<!-- Node2&#45;&gt;Node49 -->
<g id="edge61" class="edge"><title>Node2&#45;&gt;Node49</title>
<path fill="none" stroke="midnightblue" d="M226.26,-43.5834C237.802,-41.3313 249.998,-38.9516 261.114,-36.7826"/>
<polygon fill="midnightblue" stroke="midnightblue" points="261.825,-40.2099 270.97,-34.8595 260.485,-33.3395 261.825,-40.2099"/>
</g>
<!-- Node4 -->
<g id="node4" class="node"><title>Node4</title>
<g id="a_node4"><a xlink:href="../../d1/d0e/group__array.html#ga9acc78bc2e06102ff37133b5aa0e0a4f" target="_top" xlink:title="array_create">
<polygon fill="none" stroke="black" points="397.5,-38.5 397.5,-57.5 468.5,-57.5 468.5,-38.5 397.5,-38.5"/>
<text text-anchor="middle" x="433" y="-45.5" font-family="Helvetica,sans-Serif" font-size="10.00">array_create</text>
</a>
</g>
</g>
<!-- Node3&#45;&gt;Node4 -->
<g id="edge3" class="edge"><title>Node3&#45;&gt;Node4</title>
<path fill="none" stroke="midnightblue" d="M342.054,-67.5231C356.394,-64.4105 372.733,-60.8642 387.514,-57.6558"/>
<polygon fill="midnightblue" stroke="midnightblue" points="388.426,-61.0396 397.456,-55.498 386.941,-54.1989 388.426,-61.0396"/>
</g>
<!-- Node7 -->
<g id="node7" class="node"><title>Node7</title>
<g id="a_node7"><a xlink:href="../../db/dcc/group__hashtable.html#gae6df65038e6d4d725832e59eff4c1d90" target="_top" xlink:title="hashtable_create">
<polygon fill="none" stroke="black" points="387.5,-152.5 387.5,-171.5 478.5,-171.5 478.5,-152.5 387.5,-152.5"/>
<text text-anchor="middle" x="433" y="-159.5" font-family="Helvetica,sans-Serif" font-size="10.00">hashtable_create</text>
</a>
</g>
</g>
<!-- Node3&#45;&gt;Node7 -->
<g id="edge6" class="edge"><title>Node3&#45;&gt;Node7</title>
<path fill="none" stroke="midnightblue" d="M311.32,-85.5061C324.277,-99.79 350.643,-126.834 378,-143 381.416,-145.018 385.079,-146.869 388.831,-148.556"/>
<polygon fill="midnightblue" stroke="midnightblue" points="387.663,-151.86 398.244,-152.412 390.317,-145.383 387.663,-151.86"/>
</g>
<!-- Node43 -->
<g id="node43" class="node"><title>Node43</title>
<g id="a_node43"><a xlink:href="../../db/dcc/group__hashtable.html#gab59fa0d194a4242b850ce16f61b81a5a" target="_top" xlink:title="hashtable_equals_ptr">
<polygon fill="none" stroke="black" points="378.5,-114.5 378.5,-133.5 487.5,-133.5 487.5,-114.5 378.5,-114.5"/>
<text text-anchor="middle" x="433" y="-121.5" font-family="Helvetica,sans-Serif" font-size="10.00">hashtable_equals_ptr</text>
</a>
</g>
</g>
<!-- Node3&#45;&gt;Node43 -->
<g id="edge55" class="edge"><title>Node3&#45;&gt;Node43</title>
<path fill="none" stroke="midnightblue" d="M327.248,-85.5925C341.9,-91.3348 360.975,-98.7149 378,-105 383.495,-107.029 389.322,-109.13 395.037,-111.164"/>
<polygon fill="midnightblue" stroke="midnightblue" points="393.876,-114.465 404.47,-114.496 396.207,-107.865 393.876,-114.465"/>
</g>
<!-- Node44 -->
<g id="node44" class="node"><title>Node44</title>
<g id="a_node44"><a xlink:href="../../db/dcc/group__hashtable.html#ga5d67f24221afa38fc171188808c6b30a" target="_top" xlink:title="hashtable_hash_ptr">
<polygon fill="none" stroke="black" points="382.5,-76.5 382.5,-95.5 483.5,-95.5 483.5,-76.5 382.5,-76.5"/>
<text text-anchor="middle" x="433" y="-83.5" font-family="Helvetica,sans-Serif" font-size="10.00">hashtable_hash_ptr</text>
</a>
</g>
</g>
<!-- Node3&#45;&gt;Node44 -->
<g id="edge56" class="edge"><title>Node3&#45;&gt;Node44</title>
<path fill="none" stroke="midnightblue" d="M342.054,-79.0275C351.509,-79.7604 361.833,-80.5607 372.006,-81.3493"/>
<polygon fill="midnightblue" stroke="midnightblue" points="371.851,-84.8477 382.092,-82.1312 372.393,-77.8687 371.851,-84.8477"/>
</g>
<!-- Node48 -->
<g id="node48" class="node"><title>Node48</title>
<g id="a_node48"><a xlink:href="../../d4/ddc/windows_2thread_8c.html#a135e731d9487e0225434d339e1343de5" target="_top" xlink:title="set_leak_detective">
<polygon fill="none" stroke="black" points="384,-0.5 384,-19.5 482,-19.5 482,-0.5 384,-0.5"/>
<text text-anchor="middle" x="433" y="-7.5" font-family="Helvetica,sans-Serif" font-size="10.00">set_leak_detective</text>
</a>
</g>
</g>
<!-- Node3&#45;&gt;Node48 -->
<g id="edge60" class="edge"><title>Node3&#45;&gt;Node48</title>
<path fill="none" stroke="midnightblue" d="M316.301,-66.3914C330.903,-56.152 355.298,-39.9401 378,-29 382.306,-26.925 386.9,-24.9591 391.521,-23.1345"/>
<polygon fill="midnightblue" stroke="midnightblue" points="392.827,-26.3831 400.964,-19.598 390.371,-19.8278 392.827,-26.3831"/>
</g>
<!-- Node5 -->
<g id="node5" class="node"><title>Node5</title>
<g id="a_node5"><a xlink:href="../../da/dfc/settings__parser_8c.html#a5faf6a2d99f50a4655dd390199a8db7b" target="_top" xlink:title="malloc">
<polygon fill="none" stroke="black" points="550.5,-38.5 550.5,-57.5 595.5,-57.5 595.5,-38.5 550.5,-38.5"/>
<text text-anchor="middle" x="573" y="-45.5" font-family="Helvetica,sans-Serif" font-size="10.00">malloc</text>
</a>
</g>
</g>
<!-- Node4&#45;&gt;Node5 -->
<g id="edge4" class="edge"><title>Node4&#45;&gt;Node5</title>
<path fill="none" stroke="midnightblue" d="M468.823,-48C490.681,-48 518.661,-48 539.967,-48"/>
<polygon fill="midnightblue" stroke="midnightblue" points="540.134,-51.5001 550.133,-48 540.133,-44.5001 540.134,-51.5001"/>
</g>
<!-- Node6 -->
<g id="node6" class="node"><title>Node6</title>
<g id="a_node6"><a xlink:href="../../dc/dcc/array_8c.html#a1814774789ffaf948b25734a7dd0f3ed" target="_top" xlink:title="get_size">
<polygon fill="none" stroke="black" points="546.5,-0.5 546.5,-19.5 599.5,-19.5 599.5,-0.5 546.5,-0.5"/>
<text text-anchor="middle" x="573" y="-7.5" font-family="Helvetica,sans-Serif" font-size="10.00">get_size</text>
</a>
</g>
</g>
<!-- Node4&#45;&gt;Node6 -->
<g id="edge5" class="edge"><title>Node4&#45;&gt;Node6</title>
<path fill="none" stroke="midnightblue" d="M468.823,-38.411C489.546,-32.7048 515.771,-25.4834 536.595,-19.7492"/>
<polygon fill="midnightblue" stroke="midnightblue" points="537.624,-23.0961 546.336,-17.0668 535.766,-16.3473 537.624,-23.0961"/>
</g>
<!-- Node8 -->
<g id="node8" class="node"><title>Node8</title>
<g id="a_node8"><a xlink:href="../../d3/d7e/crypto__factory_8c.html#a232a78e6f892cf38a9a97e311c44ed89" target="_top" xlink:title="create_enumerator">
<polygon fill="none" stroke="black" points="524,-658.5 524,-677.5 622,-677.5 622,-658.5 524,-658.5"/>
<text text-anchor="middle" x="573" y="-665.5" font-family="Helvetica,sans-Serif" font-size="10.00">create_enumerator</text>
</a>
</g>
</g>
<!-- Node7&#45;&gt;Node8 -->
<g id="edge7" class="edge"><title>Node7&#45;&gt;Node8</title>
<path fill="none" stroke="midnightblue" d="M436.634,-171.656C453.252,-232.59 543.625,-563.959 566.657,-648.408"/>
<polygon fill="midnightblue" stroke="midnightblue" points="563.331,-649.516 569.339,-658.242 570.084,-647.674 563.331,-649.516"/>
</g>
<!-- Node19 -->
<g id="node19" class="node"><title>Node19</title>
<g id="a_node19"><a xlink:href="../../dc/d21/daemon_8c.html#a1e824dfeaa337e709772cb0c8e6c8dcc" target="_top" xlink:title="destroy">
<polygon fill="none" stroke="black" points="548.5,-209.5 548.5,-228.5 597.5,-228.5 597.5,-209.5 548.5,-209.5"/>
<text text-anchor="middle" x="573" y="-216.5" font-family="Helvetica,sans-Serif" font-size="10.00">destroy</text>
</a>
</g>
</g>
<!-- Node7&#45;&gt;Node19 -->
<g id="edge20" class="edge"><title>Node7&#45;&gt;Node19</title>
<path fill="none" stroke="midnightblue" d="M457.098,-171.541C479.587,-180.829 513.981,-195.036 539.281,-205.486"/>
<polygon fill="midnightblue" stroke="midnightblue" points="538.248,-208.846 548.827,-209.428 540.92,-202.376 538.248,-208.846"/>
</g>
<!-- Node40 -->
<g id="node40" class="node"><title>Node40</title>
<g id="a_node40"><a xlink:href="../../d5/dea/openssl__plugin_8c.html#aa87fbc0aaf3d4f1344dae1a9b326d120" target="_top" xlink:title="destroy_function">
<polygon fill="none" stroke="black" points="1279.5,-152.5 1279.5,-171.5 1368.5,-171.5 1368.5,-152.5 1279.5,-152.5"/>
<text text-anchor="middle" x="1324" y="-159.5" font-family="Helvetica,sans-Serif" font-size="10.00">destroy_function</text>
</a>
</g>
</g>
<!-- Node7&#45;&gt;Node40 -->
<g id="edge51" class="edge"><title>Node7&#45;&gt;Node40</title>
<path fill="none" stroke="midnightblue" d="M478.762,-162C534.72,-162 633.441,-162 718,-162 718,-162 718,-162 1027,-162 1111.59,-162 1209.79,-162 1269.11,-162"/>
<polygon fill="midnightblue" stroke="midnightblue" points="1269.37,-165.5 1279.37,-162 1269.37,-158.5 1269.37,-165.5"/>
</g>
<!-- Node41 -->
<g id="node41" class="node"><title>Node41</title>
<g id="a_node41"><a xlink:href="../../d8/de9/hashtable_8c.html#a053c183893f9804d2487335c70840dba" target="_top" xlink:title="init_hashtable">
<polygon fill="none" stroke="black" points="534.5,-114.5 534.5,-133.5 611.5,-133.5 611.5,-114.5 534.5,-114.5"/>
<text text-anchor="middle" x="573" y="-121.5" font-family="Helvetica,sans-Serif" font-size="10.00">init_hashtable</text>
</a>
</g>
</g>
<!-- Node7&#45;&gt;Node41 -->
<g id="edge53" class="edge"><title>Node7&#45;&gt;Node41</title>
<path fill="none" stroke="midnightblue" d="M468.823,-152.411C486.638,-147.506 508.518,-141.48 527.539,-136.243"/>
<polygon fill="midnightblue" stroke="midnightblue" points="528.476,-139.615 537.188,-133.586 526.618,-132.866 528.476,-139.615"/>
</g>
<!-- Node9 -->
<g id="node9" class="node"><title>Node9</title>
<g id="a_node9"><a xlink:href="../../d3/de6/group__enumerator.html#ga7e32271ea79eb88b576ca6eb1c582751" target="_top" xlink:title="enumerator_create_filter">
<polygon fill="none" stroke="black" points="658,-658.5 658,-677.5 780,-677.5 780,-658.5 658,-658.5"/>
<text text-anchor="middle" x="719" y="-665.5" font-family="Helvetica,sans-Serif" font-size="10.00">enumerator_create_filter</text>
</a>
</g>
</g>
<!-- Node8&#45;&gt;Node9 -->
<g id="edge8" class="edge"><title>Node8&#45;&gt;Node9</title>
<path fill="none" stroke="midnightblue" d="M622.351,-668C630.513,-668 639.133,-668 647.719,-668"/>
<polygon fill="midnightblue" stroke="midnightblue" points="647.755,-671.5 657.755,-668 647.755,-664.5 647.755,-671.5"/>
</g>
<!-- Node11 -->
<g id="node11" class="node"><title>Node11</title>
<g id="a_node11"><a xlink:href="../../dd/df8/x509__crl_8c.html#a39e3ce1a2351f3e2d5414c75a694290c" target="_top" xlink:title="filter">
<polygon fill="none" stroke="black" points="1008.5,-655.5 1008.5,-674.5 1043.5,-674.5 1043.5,-655.5 1008.5,-655.5"/>
<text text-anchor="middle" x="1026" y="-662.5" font-family="Helvetica,sans-Serif" font-size="10.00">filter</text>
</a>
</g>
</g>
<!-- Node8&#45;&gt;Node11 -->
<g id="edge14" class="edge"><title>Node8&#45;&gt;Node11</title>
<path fill="none" stroke="midnightblue" d="M609.723,-658.495C624.553,-654.923 642.002,-651.198 658,-649 778.696,-632.42 811.14,-625.657 932,-641 954.923,-643.91 980.279,-650.702 998.718,-656.32"/>
<polygon fill="midnightblue" stroke="midnightblue" points="997.858,-659.719 1008.45,-659.372 999.953,-653.04 997.858,-659.719"/>
</g>
<!-- Node14 -->
<g id="node14" class="node"><title>Node14</title>
<g id="a_node14"><a xlink:href="../../d3/dc0/group__linked__list.html#ga15bb4333e53dbef32d196e4388f43fdf" target="_top" xlink:title="linked_list_create">
<polygon fill="none" stroke="black" points="673,-762.5 673,-781.5 765,-781.5 765,-762.5 673,-762.5"/>
<text text-anchor="middle" x="719" y="-769.5" font-family="Helvetica,sans-Serif" font-size="10.00">linked_list_create</text>
</a>
</g>
</g>
<!-- Node8&#45;&gt;Node14 -->
<g id="edge15" class="edge"><title>Node8&#45;&gt;Node14</title>
<path fill="none" stroke="midnightblue" d="M583.042,-677.904C597.647,-693.481 627.852,-723.987 658,-744 666.018,-749.322 675.208,-754.158 683.947,-758.256"/>
<polygon fill="midnightblue" stroke="midnightblue" points="682.619,-761.497 693.175,-762.402 685.488,-755.111 682.619,-761.497"/>
</g>
<!-- Node17 -->
<g id="node17" class="node"><title>Node17</title>
<g id="a_node17"><a xlink:href="../../d3/d7e/crypto__factory_8c.html#a4e4b3de361576a5459952730cc042ca5" target="_top" xlink:title="unique_check">
<polygon fill="none" stroke="black" points="680.5,-715.5 680.5,-734.5 757.5,-734.5 757.5,-715.5 680.5,-715.5"/>
<text text-anchor="middle" x="719" y="-722.5" font-family="Helvetica,sans-Serif" font-size="10.00">unique_check</text>
</a>
</g>
</g>
<!-- Node8&#45;&gt;Node17 -->
<g id="edge18" class="edge"><title>Node8&#45;&gt;Node17</title>
<path fill="none" stroke="midnightblue" d="M598.102,-677.541C621.673,-686.87 657.777,-701.162 684.209,-711.624"/>
<polygon fill="midnightblue" stroke="midnightblue" points="683.233,-715.002 693.819,-715.428 685.809,-708.493 683.233,-715.002"/>
</g>
<!-- Node10 -->
<g id="node10" class="node"><title>Node10</title>
<g id="a_node10"><a xlink:href="../../de/d46/enumerator_8c.html#a801ada63221011518bb6957f3ef2c747" target="_top" xlink:title="enumerate_filter">
<polygon fill="none" stroke="black" points="831,-658.5 831,-677.5 917,-677.5 917,-658.5 831,-658.5"/>
<text text-anchor="middle" x="874" y="-665.5" font-family="Helvetica,sans-Serif" font-size="10.00">enumerate_filter</text>
</a>
</g>
</g>
<!-- Node9&#45;&gt;Node10 -->
<g id="edge9" class="edge"><title>Node9&#45;&gt;Node10</title>
<path fill="none" stroke="midnightblue" d="M780.031,-668C793.374,-668 807.42,-668 820.438,-668"/>
<polygon fill="midnightblue" stroke="midnightblue" points="820.624,-671.5 830.624,-668 820.624,-664.5 820.624,-671.5"/>
</g>
<!-- Node9&#45;&gt;Node11 -->
<g id="edge13" class="edge"><title>Node9&#45;&gt;Node11</title>
<path fill="none" stroke="midnightblue" d="M758.977,-658.49C776.32,-654.725 797.062,-650.856 816,-649 867.31,-643.971 880.631,-644.613 932,-649 954.515,-650.923 979.766,-655.418 998.268,-659.156"/>
<polygon fill="midnightblue" stroke="midnightblue" points="997.807,-662.635 1008.31,-661.244 999.232,-655.782 997.807,-662.635"/>
</g>
<!-- Node12 -->
<g id="node12" class="node"><title>Node12</title>
<g id="a_node12"><a xlink:href="../../de/d46/enumerator_8c.html#a01c799700a22a2e067044a03731d13bc" target="_top" xlink:title="destroy_filter">
<polygon fill="none" stroke="black" points="1287.5,-632.5 1287.5,-651.5 1360.5,-651.5 1360.5,-632.5 1287.5,-632.5"/>
<text text-anchor="middle" x="1324" y="-639.5" font-family="Helvetica,sans-Serif" font-size="10.00">destroy_filter</text>
</a>
</g>
</g>
<!-- Node9&#45;&gt;Node12 -->
<g id="edge11" class="edge"><title>Node9&#45;&gt;Node12</title>
<path fill="none" stroke="midnightblue" d="M758.977,-677.51C776.32,-681.275 797.062,-685.144 816,-687 934.551,-698.619 965.44,-695.518 1084,-684 1151.78,-677.415 1229.25,-662.402 1277.15,-652.228"/>
<polygon fill="midnightblue" stroke="midnightblue" points="1278.16,-655.592 1287.2,-650.072 1276.69,-648.748 1278.16,-655.592"/>
</g>
<!-- Node10&#45;&gt;Node11 -->
<g id="edge10" class="edge"><title>Node10&#45;&gt;Node11</title>
<path fill="none" stroke="midnightblue" d="M917.183,-667.156C943.097,-666.638 975.523,-665.99 998.012,-665.54"/>
<polygon fill="midnightblue" stroke="midnightblue" points="998.254,-669.036 1008.18,-665.336 998.114,-662.037 998.254,-669.036"/>
</g>
<!-- Node13 -->
<g id="node13" class="node"><title>Node13</title>
<g id="a_node13"><a xlink:href="../../da/dfc/settings__parser_8c.html#af07d89f5ceaea0c7c8252cc41fd75f37" target="_top" xlink:title="free">
<polygon fill="none" stroke="black" points="1414.5,-360.5 1414.5,-379.5 1447.5,-379.5 1447.5,-360.5 1414.5,-360.5"/>
<text text-anchor="middle" x="1431" y="-367.5" font-family="Helvetica,sans-Serif" font-size="10.00">free</text>
</a>
</g>
</g>
<!-- Node12&#45;&gt;Node13 -->
<g id="edge12" class="edge"><title>Node12&#45;&gt;Node13</title>
<path fill="none" stroke="midnightblue" d="M1329.9,-632.223C1339.71,-612.45 1362.18,-566.173 1378,-526 1397.02,-477.715 1415.24,-419.347 1424.22,-389.56"/>
<polygon fill="midnightblue" stroke="midnightblue" points="1427.68,-390.207 1427.18,-379.624 1420.97,-388.204 1427.68,-390.207"/>
</g>
<!-- Node15 -->
<g id="node15" class="node"><title>Node15</title>
<g id="a_node15"><a xlink:href="../../d9/d78/duplicheck__listener_8c.html#a42e92cbe3b8fa821d53d1fdb7db5a639" target="_top" xlink:title="remove_first">
<polygon fill="none" stroke="black" points="838.5,-772.5 838.5,-791.5 909.5,-791.5 909.5,-772.5 838.5,-772.5"/>
<text text-anchor="middle" x="874" y="-779.5" font-family="Helvetica,sans-Serif" font-size="10.00">remove_first</text>
</a>
</g>
</g>
<!-- Node14&#45;&gt;Node15 -->
<g id="edge16" class="edge"><title>Node14&#45;&gt;Node15</title>
<path fill="none" stroke="midnightblue" d="M765.078,-774.946C785.044,-776.251 808.467,-777.782 828.381,-779.084"/>
<polygon fill="midnightblue" stroke="midnightblue" points="828.23,-782.581 838.437,-779.741 828.687,-775.596 828.23,-782.581"/>
</g>
<!-- Node16 -->
<g id="node16" class="node"><title>Node16</title>
<g id="a_node16"><a xlink:href="../../d9/d78/duplicheck__listener_8c.html#acaae3ea9f18caab2a2e47637da396ca9" target="_top" xlink:title="remove_if_empty">
<polygon fill="none" stroke="red" points="980,-772.5 980,-791.5 1072,-791.5 1072,-772.5 980,-772.5"/>
<text text-anchor="middle" x="1026" y="-779.5" font-family="Helvetica,sans-Serif" font-size="10.00">remove_if_empty</text>
</a>
</g>
</g>
<!-- Node15&#45;&gt;Node16 -->
<g id="edge17" class="edge"><title>Node15&#45;&gt;Node16</title>
<path fill="none" stroke="midnightblue" d="M909.79,-782C927.552,-782 949.585,-782 969.611,-782"/>
<polygon fill="midnightblue" stroke="midnightblue" points="969.868,-785.5 979.868,-782 969.868,-778.5 969.868,-785.5"/>
</g>
<!-- Node18 -->
<g id="node18" class="node"><title>Node18</title>
<g id="a_node18"><a xlink:href="../../d3/d7e/crypto__factory_8c.html#a1bec9a4fd91abbb0271d27bb5ab69bd4" target="_top" xlink:title="entry_match">
<polygon fill="none" stroke="black" points="838.5,-734.5 838.5,-753.5 909.5,-753.5 909.5,-734.5 838.5,-734.5"/>
<text text-anchor="middle" x="874" y="-741.5" font-family="Helvetica,sans-Serif" font-size="10.00">entry_match</text>
</a>
</g>
</g>
<!-- Node17&#45;&gt;Node18 -->
<g id="edge19" class="edge"><title>Node17&#45;&gt;Node18</title>
<path fill="none" stroke="midnightblue" d="M757.82,-729.697C779.23,-732.355 806.126,-735.695 828.541,-738.479"/>
<polygon fill="midnightblue" stroke="midnightblue" points="828.134,-741.955 838.489,-739.714 828.997,-735.009 828.134,-741.955"/>
</g>
<!-- Node19&#45;&gt;Node13 -->
<g id="edge21" class="edge"><title>Node19&#45;&gt;Node13</title>
<path fill="none" stroke="midnightblue" d="M597.612,-221.523C648.089,-226.691 770.272,-238 873,-238 873,-238 873,-238 1178,-238 1276.21,-238 1373.9,-317.647 1412.62,-353.205"/>
<polygon fill="midnightblue" stroke="midnightblue" points="1410.27,-355.802 1419.96,-360.079 1415.05,-350.69 1410.27,-355.802"/>
</g>
<!-- Node20 -->
<g id="node20" class="node"><title>Node20</title>
<g id="a_node20"><a xlink:href="../../dc/d21/daemon_8c.html#a1b7023117168a75858bd535a56e709e2" target="_top" xlink:title="logger_entry_destroy">
<polygon fill="none" stroke="black" points="1270.5,-190.5 1270.5,-209.5 1377.5,-209.5 1377.5,-190.5 1270.5,-190.5"/>
<text text-anchor="middle" x="1324" y="-197.5" font-family="Helvetica,sans-Serif" font-size="10.00">logger_entry_destroy</text>
</a>
</g>
</g>
<!-- Node19&#45;&gt;Node20 -->
<g id="edge22" class="edge"><title>Node19&#45;&gt;Node20</title>
<path fill="none" stroke="midnightblue" d="M597.612,-216.477C648.089,-211.309 770.272,-200 873,-200 873,-200 873,-200 1027,-200 1107.52,-200 1200.36,-200 1260.27,-200"/>
<polygon fill="midnightblue" stroke="midnightblue" points="1260.33,-203.5 1270.33,-200 1260.33,-196.5 1260.33,-203.5"/>
</g>
<!-- Node21 -->
<g id="node21" class="node"><title>Node21</title>
<g id="a_node21"><a xlink:href="../../d9/d32/connect__manager_8c.html#a3b4dd773d88779165dc7243cb4e4fbee" target="_top" xlink:title="sender">
<polygon fill="none" stroke="black" points="696,-411.5 696,-430.5 742,-430.5 742,-411.5 696,-411.5"/>
<text text-anchor="middle" x="719" y="-418.5" font-family="Helvetica,sans-Serif" font-size="10.00">sender</text>
</a>
</g>
</g>
<!-- Node19&#45;&gt;Node21 -->
<g id="edge24" class="edge"><title>Node19&#45;&gt;Node21</title>
<path fill="none" stroke="midnightblue" d="M580.945,-228.743C603.613,-260.541 675.669,-361.62 705.195,-403.037"/>
<polygon fill="midnightblue" stroke="midnightblue" points="702.469,-405.244 711.124,-411.355 708.169,-401.18 702.469,-405.244"/>
</g>
<!-- Node20&#45;&gt;Node13 -->
<g id="edge23" class="edge"><title>Node20&#45;&gt;Node13</title>
<path fill="none" stroke="midnightblue" d="M1357.12,-209.615C1364.76,-213.139 1372.32,-217.831 1378,-224 1411.28,-260.167 1423.54,-319.054 1427.84,-349.824"/>
<polygon fill="midnightblue" stroke="midnightblue" points="1424.41,-350.644 1429.12,-360.135 1431.36,-349.779 1424.41,-350.644"/>
</g>
<!-- Node22 -->
<g id="node22" class="node"><title>Node22</title>
<g id="a_node22"><a xlink:href="../../d9/d32/connect__manager_8c.html#ad295327b74b1c4e19a7096ad2979765b" target="_top" xlink:title="check_create">
<polygon fill="none" stroke="black" points="836.5,-392.5 836.5,-411.5 911.5,-411.5 911.5,-392.5 836.5,-392.5"/>
<text text-anchor="middle" x="874" y="-399.5" font-family="Helvetica,sans-Serif" font-size="10.00">check_create</text>
</a>
</g>
</g>
<!-- Node21&#45;&gt;Node22 -->
<g id="edge25" class="edge"><title>Node21&#45;&gt;Node22</title>
<path fill="none" stroke="midnightblue" d="M742.248,-418.237C764.17,-415.515 798.34,-411.271 826.251,-407.805"/>
<polygon fill="midnightblue" stroke="midnightblue" points="826.724,-411.274 836.217,-406.568 825.861,-404.327 826.724,-411.274"/>
</g>
<!-- Node23 -->
<g id="node23" class="node"><title>Node23</title>
<g id="a_node23"><a xlink:href="../../d9/d32/connect__manager_8c.html#a204f99a4a38f8c08c42cd120bcf1b9f7" target="_top" xlink:title="check_destroy">
<polygon fill="none" stroke="black" points="1137,-360.5 1137,-379.5 1217,-379.5 1217,-360.5 1137,-360.5"/>
<text text-anchor="middle" x="1177" y="-367.5" font-family="Helvetica,sans-Serif" font-size="10.00">check_destroy</text>
</a>
</g>
</g>
<!-- Node21&#45;&gt;Node23 -->
<g id="edge26" class="edge"><title>Node21&#45;&gt;Node23</title>
<path fill="none" stroke="midnightblue" d="M742.304,-426.751C782.373,-435.871 868.294,-449.842 932,-421 954.091,-410.999 946.155,-390.529 968,-380 1018.05,-355.876 1082.97,-357.112 1126.86,-361.954"/>
<polygon fill="midnightblue" stroke="midnightblue" points="1126.65,-365.454 1137,-363.177 1127.49,-358.504 1126.65,-365.454"/>
</g>
<!-- Node25 -->
<g id="node25" class="node"><title>Node25</title>
<g id="a_node25"><a xlink:href="../../d7/d87/group__endpoint__notify.html#ga89474ccd935bd6aeb2db5ae84c2fcbcf" target="_top" xlink:title="endpoint_notify_create\l_from_host">
<polygon fill="none" stroke="black" points="816.5,-305 816.5,-335 931.5,-335 931.5,-305 816.5,-305"/>
<text text-anchor="start" x="824.5" y="-323" font-family="Helvetica,sans-Serif" font-size="10.00">endpoint_notify_create</text>
<text text-anchor="middle" x="874" y="-312" font-family="Helvetica,sans-Serif" font-size="10.00">_from_host</text>
</a>
</g>
</g>
<!-- Node21&#45;&gt;Node25 -->
<g id="edge30" class="edge"><title>Node21&#45;&gt;Node25</title>
<path fill="none" stroke="midnightblue" d="M730.28,-411.382C747.173,-395.933 782.3,-365.269 816,-345 819.148,-343.106 822.466,-341.275 825.852,-339.522"/>
<polygon fill="midnightblue" stroke="midnightblue" points="827.472,-342.626 834.907,-335.079 824.388,-336.342 827.472,-342.626"/>
</g>
<!-- Node27 -->
<g id="node27" class="node"><title>Node27</title>
<g id="a_node27"><a xlink:href="../../d9/d32/connect__manager_8c.html#a7f4c528dceb6dc21cbeeb405365db27d" target="_top" xlink:title="get_checklist_by_id">
<polygon fill="none" stroke="black" points="822.5,-266.5 822.5,-285.5 925.5,-285.5 925.5,-266.5 822.5,-266.5"/>
<text text-anchor="middle" x="874" y="-273.5" font-family="Helvetica,sans-Serif" font-size="10.00">get_checklist_by_id</text>
</a>
</g>
</g>
<!-- Node21&#45;&gt;Node27 -->
<g id="edge32" class="edge"><title>Node21&#45;&gt;Node27</title>
<path fill="none" stroke="midnightblue" d="M724.855,-411.334C737.006,-388.088 771.008,-328.575 816,-296 819.252,-293.646 822.806,-291.548 826.499,-289.683"/>
<polygon fill="midnightblue" stroke="midnightblue" points="828.158,-292.776 835.872,-285.514 825.312,-286.38 828.158,-292.776"/>
</g>
<!-- Node29 -->
<g id="node29" class="node"><title>Node29</title>
<g id="a_node29"><a xlink:href="../../d9/d32/connect__manager_8c.html#a0c6f96218c9be021da288127130acaea" target="_top" xlink:title="get_triggered_pair">
<polygon fill="none" stroke="black" points="827,-544.5 827,-563.5 921,-563.5 921,-544.5 827,-544.5"/>
<text text-anchor="middle" x="874" y="-551.5" font-family="Helvetica,sans-Serif" font-size="10.00">get_triggered_pair</text>
</a>
</g>
</g>
<!-- Node21&#45;&gt;Node29 -->
<g id="edge34" class="edge"><title>Node21&#45;&gt;Node29</title>
<path fill="none" stroke="midnightblue" d="M725.625,-430.807C738.674,-452.705 773.183,-505.937 816,-535 818.893,-536.963 822.005,-538.738 825.23,-540.341"/>
<polygon fill="midnightblue" stroke="midnightblue" points="823.962,-543.606 834.527,-544.412 826.77,-537.194 823.962,-543.606"/>
</g>
<!-- Node30 -->
<g id="node30" class="node"><title>Node30</title>
<g id="a_node30"><a xlink:href="../../d9/d32/connect__manager_8c.html#a7bcdfc183dd5ea52c1db9112000121eb" target="_top" xlink:title="match_waiting_pair">
<polygon fill="none" stroke="black" points="823.5,-354.5 823.5,-373.5 924.5,-373.5 924.5,-354.5 823.5,-354.5"/>
<text text-anchor="middle" x="874" y="-361.5" font-family="Helvetica,sans-Serif" font-size="10.00">match_waiting_pair</text>
</a>
</g>
</g>
<!-- Node21&#45;&gt;Node30 -->
<g id="edge35" class="edge"><title>Node21&#45;&gt;Node30</title>
<path fill="none" stroke="midnightblue" d="M742.367,-411.741C761.738,-403.82 790.568,-392.264 816,-383 821.651,-380.942 827.648,-378.847 833.548,-376.836"/>
<polygon fill="midnightblue" stroke="midnightblue" points="834.946,-380.058 843.308,-373.553 832.714,-373.424 834.946,-380.058"/>
</g>
<!-- Node31 -->
<g id="node31" class="node"><title>Node31</title>
<g id="a_node31"><a xlink:href="../../d9/d32/connect__manager_8c.html#ab04c347706d661bcbd52ba901be05697" target="_top" xlink:title="schedule_checks">
<polygon fill="none" stroke="black" points="828,-506.5 828,-525.5 920,-525.5 920,-506.5 828,-506.5"/>
<text text-anchor="middle" x="874" y="-513.5" font-family="Helvetica,sans-Serif" font-size="10.00">schedule_checks</text>
</a>
</g>
</g>
<!-- Node21&#45;&gt;Node31 -->
<g id="edge36" class="edge"><title>Node21&#45;&gt;Node31</title>
<path fill="none" stroke="midnightblue" d="M736.736,-430.601C754.936,-445.215 785.521,-471.519 816,-488 826.986,-493.941 840.165,-498.481 851.082,-502.551"/>
<polygon fill="midnightblue" stroke="midnightblue" points="850.123,-505.935 860.71,-506.341 852.686,-499.422 850.123,-505.935"/>
</g>
<!-- Node35 -->
<g id="node35" class="node"><title>Node35</title>
<g id="a_node35"><a xlink:href="../../d9/d32/connect__manager_8c.html#a84c6b0f36d7353c32bb874be21759a5f" target="_top" xlink:title="send_check">
<polygon fill="none" stroke="black" points="839.5,-468.5 839.5,-487.5 908.5,-487.5 908.5,-468.5 839.5,-468.5"/>
<text text-anchor="middle" x="874" y="-475.5" font-family="Helvetica,sans-Serif" font-size="10.00">send_check</text>
</a>
</g>
</g>
<!-- Node21&#45;&gt;Node35 -->
<g id="edge43" class="edge"><title>Node21&#45;&gt;Node35</title>
<path fill="none" stroke="midnightblue" d="M742.248,-429.288C767.341,-438.637 808.48,-453.963 837.913,-464.928"/>
<polygon fill="midnightblue" stroke="midnightblue" points="836.813,-468.253 847.405,-468.465 839.256,-461.694 836.813,-468.253"/>
</g>
<!-- Node23&#45;&gt;Node13 -->
<g id="edge29" class="edge"><title>Node23&#45;&gt;Node13</title>
<path fill="none" stroke="midnightblue" d="M1217.1,-370C1269.22,-370 1360.04,-370 1404.29,-370"/>
<polygon fill="midnightblue" stroke="midnightblue" points="1404.48,-373.5 1414.48,-370 1404.48,-366.5 1404.48,-373.5"/>
</g>
<!-- Node24 -->
<g id="node24" class="node"><title>Node24</title>
<g id="a_node24"><a xlink:href="../../d4/d87/group__chunk.html#gaa86c84493369a4254d5801cdca20d458" target="_top" xlink:title="chunk_free">
<polygon fill="none" stroke="black" points="1291.5,-417.5 1291.5,-436.5 1356.5,-436.5 1356.5,-417.5 1291.5,-417.5"/>
<text text-anchor="middle" x="1324" y="-424.5" font-family="Helvetica,sans-Serif" font-size="10.00">chunk_free</text>
</a>
</g>
</g>
<!-- Node23&#45;&gt;Node24 -->
<g id="edge27" class="edge"><title>Node23&#45;&gt;Node24</title>
<path fill="none" stroke="midnightblue" d="M1202.27,-379.541C1226.11,-388.912 1262.68,-403.288 1289.33,-413.762"/>
<polygon fill="midnightblue" stroke="midnightblue" points="1288.06,-417.027 1298.65,-417.428 1290.62,-410.512 1288.06,-417.027"/>
</g>
<!-- Node24&#45;&gt;Node13 -->
<g id="edge28" class="edge"><title>Node24&#45;&gt;Node13</title>
<path fill="none" stroke="midnightblue" d="M1342.81,-417.331C1360.03,-407.984 1386.26,-393.745 1405.45,-383.326"/>
<polygon fill="midnightblue" stroke="midnightblue" points="1407.38,-386.261 1414.5,-378.414 1404.04,-380.109 1407.38,-386.261"/>
</g>
<!-- Node26 -->
<g id="node26" class="node"><title>Node26</title>
<g id="a_node26"><a xlink:href="../../da/d0c/endpoint__notify_8c.html#a55fdd0651a0e929c599c0ffd77626082" target="_top" xlink:title="endpoint_notify_create">
<polygon fill="none" stroke="black" points="968.5,-310.5 968.5,-329.5 1083.5,-329.5 1083.5,-310.5 968.5,-310.5"/>
<text text-anchor="middle" x="1026" y="-317.5" font-family="Helvetica,sans-Serif" font-size="10.00">endpoint_notify_create</text>
</a>
</g>
</g>
<!-- Node25&#45;&gt;Node26 -->
<g id="edge31" class="edge"><title>Node25&#45;&gt;Node26</title>
<path fill="none" stroke="midnightblue" d="M931.709,-320C940.295,-320 949.223,-320 958.002,-320"/>
<polygon fill="midnightblue" stroke="midnightblue" points="958.211,-323.5 968.211,-320 958.211,-316.5 958.211,-323.5"/>
</g>
<!-- Node28 -->
<g id="node28" class="node"><title>Node28</title>
<g id="a_node28"><a xlink:href="../../d9/d32/connect__manager_8c.html#a48e6c7d1bc525dc1f2627c117ec8fcdf" target="_top" xlink:title="match_checklist_by_id">
<polygon fill="none" stroke="red" points="968,-266.5 968,-285.5 1084,-285.5 1084,-266.5 968,-266.5"/>
<text text-anchor="middle" x="1026" y="-273.5" font-family="Helvetica,sans-Serif" font-size="10.00">match_checklist_by_id</text>
</a>
</g>
</g>
<!-- Node27&#45;&gt;Node28 -->
<g id="edge33" class="edge"><title>Node27&#45;&gt;Node28</title>
<path fill="none" stroke="midnightblue" d="M925.783,-276C936.024,-276 946.94,-276 957.646,-276"/>
<polygon fill="midnightblue" stroke="midnightblue" points="957.817,-279.5 967.817,-276 957.817,-272.5 957.817,-279.5"/>
</g>
<!-- Node31&#45;&gt;Node21 -->
<g id="edge42" class="edge"><title>Node31&#45;&gt;Node21</title>
<path fill="none" stroke="midnightblue" d="M827.878,-511.573C823.781,-509.904 819.762,-508.034 816,-506 782.609,-487.945 749.09,-458.098 731.869,-438.641"/>
<polygon fill="midnightblue" stroke="midnightblue" points="734.419,-436.232 725.348,-430.758 729.025,-440.694 734.419,-436.232"/>
</g>
<!-- Node32 -->
<g id="node32" class="node"><title>Node32</title>
<g id="a_node32"><a xlink:href="../../d9/d32/connect__manager_8c.html#a77eb11570d14635d5e6f46bc56b6efcf" target="_top" xlink:title="callback_data_create">
<polygon fill="none" stroke="black" points="971.5,-579.5 971.5,-598.5 1080.5,-598.5 1080.5,-579.5 971.5,-579.5"/>
<text text-anchor="middle" x="1026" y="-586.5" font-family="Helvetica,sans-Serif" font-size="10.00">callback_data_create</text>
</a>
</g>
</g>
<!-- Node31&#45;&gt;Node32 -->
<g id="edge37" class="edge"><title>Node31&#45;&gt;Node32</title>
<path fill="none" stroke="midnightblue" d="M910.541,-525.565C917.854,-528.157 925.348,-531.294 932,-535 950.195,-545.136 950.208,-554.174 968,-565 974.369,-568.876 981.477,-572.414 988.454,-575.514"/>
<polygon fill="midnightblue" stroke="midnightblue" points="987.231,-578.797 997.805,-579.459 989.952,-572.347 987.231,-578.797"/>
</g>
<!-- Node33 -->
<g id="node33" class="node"><title>Node33</title>
<g id="a_node33"><a xlink:href="../../d9/d32/connect__manager_8c.html#a4674a63e69fa1940f68b6d6d4532d1dc" target="_top" xlink:title="callback_data_destroy">
<polygon fill="none" stroke="black" points="1120,-522.5 1120,-541.5 1234,-541.5 1234,-522.5 1120,-522.5"/>
<text text-anchor="middle" x="1177" y="-529.5" font-family="Helvetica,sans-Serif" font-size="10.00">callback_data_destroy</text>
</a>
</g>
</g>
<!-- Node31&#45;&gt;Node33 -->
<g id="edge38" class="edge"><title>Node31&#45;&gt;Node33</title>
<path fill="none" stroke="midnightblue" d="M916.658,-525.509C922.208,-527.982 927.519,-531.092 932,-535 959.263,-558.777 937.28,-588.897 968,-608 1011.78,-635.225 1035.49,-625.447 1084,-608 1116.29,-596.388 1145.31,-567.987 1161.77,-549.384"/>
<polygon fill="midnightblue" stroke="midnightblue" points="1164.57,-551.493 1168.42,-541.621 1159.26,-546.94 1164.57,-551.493"/>
</g>
<!-- Node34 -->
<g id="node34" class="node"><title>Node34</title>
<g id="a_node34"><a xlink:href="../../d0/d8f/group__callback__job.html#ga6934f856d27d82413610263e27a5cfa1" target="_top" xlink:title="callback_job_create">
<polygon fill="none" stroke="red" points="1125.5,-484.5 1125.5,-503.5 1228.5,-503.5 1228.5,-484.5 1125.5,-484.5"/>
<text text-anchor="middle" x="1177" y="-491.5" font-family="Helvetica,sans-Serif" font-size="10.00">callback_job_create</text>
</a>
</g>
</g>
<!-- Node31&#45;&gt;Node34 -->
<g id="edge41" class="edge"><title>Node31&#45;&gt;Node34</title>
<path fill="none" stroke="midnightblue" d="M911.073,-525.583C953.193,-535.215 1024.66,-546.699 1084,-532 1101.56,-527.65 1103.38,-520.151 1120,-513 1124.83,-510.923 1129.96,-508.917 1135.09,-507.036"/>
<polygon fill="midnightblue" stroke="midnightblue" points="1136.59,-510.217 1144.86,-503.589 1134.26,-503.616 1136.59,-510.217"/>
</g>
<!-- Node33&#45;&gt;Node13 -->
<g id="edge40" class="edge"><title>Node33&#45;&gt;Node13</title>
<path fill="none" stroke="midnightblue" d="M1217.81,-522.411C1261.09,-510.394 1330.43,-486.324 1378,-446 1396.79,-430.077 1411.79,-405.802 1420.76,-388.989"/>
<polygon fill="midnightblue" stroke="midnightblue" points="1424.11,-390.124 1425.55,-379.627 1417.88,-386.937 1424.11,-390.124"/>
</g>
<!-- Node33&#45;&gt;Node24 -->
<g id="edge39" class="edge"><title>Node33&#45;&gt;Node24</title>
<path fill="none" stroke="midnightblue" d="M1214.01,-522.411C1220.9,-519.858 1227.86,-516.742 1234,-513 1264.38,-494.469 1292.71,-463.916 1308.92,-444.656"/>
<polygon fill="midnightblue" stroke="midnightblue" points="1311.83,-446.63 1315.48,-436.684 1306.42,-442.182 1311.83,-446.63"/>
</g>
<!-- Node36 -->
<g id="node36" class="node"><title>Node36</title>
<g id="a_node36"><a xlink:href="../../d9/d32/connect__manager_8c.html#aedcaf4b4ca6bc58701b4c01f1e6c3b54" target="_top" xlink:title="build_signature">
<polygon fill="none" stroke="black" points="1136,-427.5 1136,-446.5 1218,-446.5 1218,-427.5 1136,-427.5"/>
<text text-anchor="middle" x="1177" y="-434.5" font-family="Helvetica,sans-Serif" font-size="10.00">build_signature</text>
</a>
</g>
</g>
<!-- Node35&#45;&gt;Node36 -->
<g id="edge44" class="edge"><title>Node35&#45;&gt;Node36</title>
<path fill="none" stroke="midnightblue" d="M908.797,-475.476C950.233,-472.144 1022.53,-465.559 1084,-456 1097.61,-453.883 1112.26,-451.095 1125.77,-448.308"/>
<polygon fill="midnightblue" stroke="midnightblue" points="1126.79,-451.672 1135.85,-446.189 1125.35,-444.822 1126.79,-451.672"/>
</g>
<!-- Node37 -->
<g id="node37" class="node"><title>Node37</title>
<g id="a_node37"><a xlink:href="../../d1/d7f/group__ike__sa__id.html#gaa080d65d35119ab2dd69b73309c14566" target="_top" xlink:title="ike_sa_id_create">
<polygon fill="none" stroke="black" points="981,-389.5 981,-408.5 1071,-408.5 1071,-389.5 981,-389.5"/>
<text text-anchor="middle" x="1026" y="-396.5" font-family="Helvetica,sans-Serif" font-size="10.00">ike_sa_id_create</text>
</a>
</g>
</g>
<!-- Node35&#45;&gt;Node37 -->
<g id="edge46" class="edge"><title>Node35&#45;&gt;Node37</title>
<path fill="none" stroke="midnightblue" d="M903.649,-468.451C913.08,-464.665 923.357,-459.812 932,-454 950.777,-441.374 948.752,-429.896 968,-418 971.348,-415.931 974.948,-414.059 978.652,-412.37"/>
<polygon fill="midnightblue" stroke="midnightblue" points="980.063,-415.575 987.991,-408.546 977.411,-409.097 980.063,-415.575"/>
</g>
<!-- Node38 -->
<g id="node38" class="node"><title>Node38</title>
<g id="a_node38"><a xlink:href="../../de/d9a/group__message.html#gac4bba880d7840360ecb8e4137526420b" target="_top" xlink:title="message_create">
<polygon fill="none" stroke="red" points="981.5,-427.5 981.5,-446.5 1070.5,-446.5 1070.5,-427.5 981.5,-427.5"/>
<text text-anchor="middle" x="1026" y="-434.5" font-family="Helvetica,sans-Serif" font-size="10.00">message_create</text>
</a>
</g>
</g>
<!-- Node35&#45;&gt;Node38 -->
<g id="edge47" class="edge"><title>Node35&#45;&gt;Node38</title>
<path fill="none" stroke="midnightblue" d="M908.663,-468.799C929.806,-463.02 957.323,-455.498 980.287,-449.222"/>
<polygon fill="midnightblue" stroke="midnightblue" points="981.424,-452.539 990.147,-446.526 979.578,-445.787 981.424,-452.539"/>
</g>
<!-- Node39 -->
<g id="node39" class="node"><title>Node39</title>
<g id="a_node39"><a xlink:href="../../d9/d32/connect__manager_8c.html#a78416603d2ebd2bb0dcf49e3ccd4ae9c" target="_top" xlink:title="queue_retransmission">
<polygon fill="none" stroke="red" points="970,-503.5 970,-522.5 1082,-522.5 1082,-503.5 970,-503.5"/>
<text text-anchor="middle" x="1026" y="-510.5" font-family="Helvetica,sans-Serif" font-size="10.00">queue_retransmission</text>
</a>
</g>
</g>
<!-- Node35&#45;&gt;Node39 -->
<g id="edge48" class="edge"><title>Node35&#45;&gt;Node39</title>
<path fill="none" stroke="midnightblue" d="M908.663,-485.855C927.976,-490.361 952.607,-496.108 974.229,-501.153"/>
<polygon fill="midnightblue" stroke="midnightblue" points="973.708,-504.626 984.242,-503.49 975.299,-497.809 973.708,-504.626"/>
</g>
<!-- Node36&#45;&gt;Node24 -->
<g id="edge45" class="edge"><title>Node36&#45;&gt;Node24</title>
<path fill="none" stroke="midnightblue" d="M1218.01,-434.241C1237.71,-432.882 1261.45,-431.245 1281.36,-429.871"/>
<polygon fill="midnightblue" stroke="midnightblue" points="1281.65,-433.36 1291.39,-429.18 1281.17,-426.376 1281.65,-433.36"/>
</g>
<!-- Node39&#45;&gt;Node33 -->
<g id="edge49" class="edge"><title>Node39&#45;&gt;Node33</title>
<path fill="none" stroke="midnightblue" d="M1082.06,-520.021C1091.07,-521.17 1100.49,-522.371 1109.73,-523.55"/>
<polygon fill="midnightblue" stroke="midnightblue" points="1109.31,-527.024 1119.67,-524.817 1110.2,-520.08 1109.31,-527.024"/>
</g>
<!-- Node39&#45;&gt;Node34 -->
<g id="edge50" class="edge"><title>Node39&#45;&gt;Node34</title>
<path fill="none" stroke="midnightblue" d="M1082.06,-505.979C1092.85,-504.603 1104.22,-503.153 1115.19,-501.754"/>
<polygon fill="midnightblue" stroke="midnightblue" points="1115.64,-505.226 1125.11,-500.489 1114.75,-498.282 1115.64,-505.226"/>
</g>
<!-- Node40&#45;&gt;Node13 -->
<g id="edge52" class="edge"><title>Node40&#45;&gt;Node13</title>
<path fill="none" stroke="midnightblue" d="M1365.22,-171.59C1369.98,-174.046 1374.41,-177.129 1378,-181 1422.66,-229.176 1429.53,-312.158 1430.22,-350.065"/>
<polygon fill="midnightblue" stroke="midnightblue" points="1426.72,-350.31 1430.26,-360.294 1433.72,-350.278 1426.72,-350.31"/>
</g>
<!-- Node42 -->
<g id="node42" class="node"><title>Node42</title>
<g id="a_node42"><a xlink:href="../../d8/de9/hashtable_8c.html#adc1f54b2244040a4e4de073db4ed27fa" target="_top" xlink:title="get_nearest_powerof2">
<polygon fill="none" stroke="black" points="662.5,-114.5 662.5,-133.5 775.5,-133.5 775.5,-114.5 662.5,-114.5"/>
<text text-anchor="middle" x="719" y="-121.5" font-family="Helvetica,sans-Serif" font-size="10.00">get_nearest_powerof2</text>
</a>
</g>
</g>
<!-- Node41&#45;&gt;Node42 -->
<g id="edge54" class="edge"><title>Node41&#45;&gt;Node42</title>
<path fill="none" stroke="midnightblue" d="M611.834,-124C624.239,-124 638.406,-124 652.261,-124"/>
<polygon fill="midnightblue" stroke="midnightblue" points="652.265,-127.5 662.265,-124 652.265,-120.5 652.265,-127.5"/>
</g>
<!-- Node45 -->
<g id="node45" class="node"><title>Node45</title>
<g id="a_node45"><a xlink:href="../../d4/d87/group__chunk.html#ga714bd1cb9e1f743523c2a58a49f1b6a4" target="_top" xlink:title="chunk_hash">
<polygon fill="none" stroke="black" points="538.5,-76.5 538.5,-95.5 607.5,-95.5 607.5,-76.5 538.5,-76.5"/>
<text text-anchor="middle" x="573" y="-83.5" font-family="Helvetica,sans-Serif" font-size="10.00">chunk_hash</text>
</a>
</g>
</g>
<!-- Node44&#45;&gt;Node45 -->
<g id="edge57" class="edge"><title>Node44&#45;&gt;Node45</title>
<path fill="none" stroke="midnightblue" d="M483.821,-86C498.217,-86 513.823,-86 527.849,-86"/>
<polygon fill="midnightblue" stroke="midnightblue" points="528.219,-89.5001 538.219,-86 528.219,-82.5001 528.219,-89.5001"/>
</g>
<!-- Node46 -->
<g id="node46" class="node"><title>Node46</title>
<g id="a_node46"><a xlink:href="../../d4/d87/group__chunk.html#gac5619cf208f72c56bf142cbc4378e388" target="_top" xlink:title="chunk_mac">
<polygon fill="none" stroke="black" points="685.5,-76.5 685.5,-95.5 752.5,-95.5 752.5,-76.5 685.5,-76.5"/>
<text text-anchor="middle" x="719" y="-83.5" font-family="Helvetica,sans-Serif" font-size="10.00">chunk_mac</text>
</a>
</g>
</g>
<!-- Node45&#45;&gt;Node46 -->
<g id="edge58" class="edge"><title>Node45&#45;&gt;Node46</title>
<path fill="none" stroke="midnightblue" d="M607.762,-86C627.907,-86 653.68,-86 675.239,-86"/>
<polygon fill="midnightblue" stroke="midnightblue" points="675.441,-89.5001 685.441,-86 675.441,-82.5001 675.441,-89.5001"/>
</g>
<!-- Node47 -->
<g id="node47" class="node"><title>Node47</title>
<g id="a_node47"><a xlink:href="../../d8/d39/chunk_8c.html#a09c1163fbcb7fd5f8dc5652c9083511a" target="_top" xlink:title="chunk_mac_inc">
<polygon fill="none" stroke="red" points="831.5,-76.5 831.5,-95.5 916.5,-95.5 916.5,-76.5 831.5,-76.5"/>
<text text-anchor="middle" x="874" y="-83.5" font-family="Helvetica,sans-Serif" font-size="10.00">chunk_mac_inc</text>
</a>
</g>
</g>
<!-- Node46&#45;&gt;Node47 -->
<g id="edge59" class="edge"><title>Node46&#45;&gt;Node47</title>
<path fill="none" stroke="midnightblue" d="M752.822,-86C772.772,-86 798.681,-86 821.333,-86"/>
<polygon fill="midnightblue" stroke="midnightblue" points="821.478,-89.5001 831.478,-86 821.478,-82.5001 821.478,-89.5001"/>
</g>
<!-- Node49&#45;&gt;Node48 -->
<g id="edge62" class="edge"><title>Node49&#45;&gt;Node48</title>
<path fill="none" stroke="midnightblue" d="M333.245,-24.5453C345.35,-22.7625 359.722,-20.6456 373.702,-18.5865"/>
<polygon fill="midnightblue" stroke="midnightblue" points="374.391,-22.0228 383.775,-17.103 373.371,-15.0976 374.391,-22.0228"/>
</g>
</g>
</svg>
