<?xml version="1.0" encoding="UTF-8" standalone="no"?>
<!DOCTYPE svg PUBLIC "-//W3C//DTD SVG 1.1//EN"
 "http://www.w3.org/Graphics/SVG/1.1/DTD/svg11.dtd">
<!-- Generated by graphviz version 2.36.0 (20140111.2315)
 -->
<!-- Title: check_lease Pages: 1 -->
<svg width="638pt" height="66pt"
 viewBox="0.00 0.00 638.00 66.00" xmlns="http://www.w3.org/2000/svg" xmlns:xlink="http://www.w3.org/1999/xlink">
<g id="graph0" class="graph" transform="scale(1 1) rotate(0) translate(4 62)">
<title>check_lease</title>
<!-- Node1 -->
<g id="node1" class="node"><title>Node1</title>
<polygon fill="#bfbfbf" stroke="black" points="0.5,-19.5 0.5,-38.5 71.5,-38.5 71.5,-19.5 0.5,-19.5"/>
<text text-anchor="middle" x="36" y="-26.5" font-family="Helvetica,sans-Serif" font-size="10.00">check_lease</text>
</g>
<!-- Node2 -->
<g id="node2" class="node"><title>Node2</title>
<g id="a_node2"><a xlink:href="../../d7/df1/group__host.html#gaf40fcca3c58e789ff4f82bbf875727e4" target="_top" xlink:title="host_create_from_chunk">
<polygon fill="none" stroke="black" points="108,-19.5 108,-38.5 232,-38.5 232,-19.5 108,-19.5"/>
<text text-anchor="middle" x="170" y="-26.5" font-family="Helvetica,sans-Serif" font-size="10.00">host_create_from_chunk</text>
</a>
</g>
</g>
<!-- Node1&#45;&gt;Node2 -->
<g id="edge1" class="edge"><title>Node1&#45;&gt;Node2</title>
<path fill="none" stroke="midnightblue" d="M71.6814,-29C79.7288,-29 88.5848,-29 97.5759,-29"/>
<polygon fill="midnightblue" stroke="midnightblue" points="97.7488,-32.5001 107.749,-29 97.7487,-25.5001 97.7488,-32.5001"/>
</g>
<!-- Node3 -->
<g id="node3" class="node"><title>Node3</title>
<g id="a_node3"><a xlink:href="../../df/da9/host_8c.html#ac3854e66d5a7563cae9608acbcad6eb5" target="_top" xlink:title="host_create_empty">
<polygon fill="none" stroke="black" points="268,-38.5 268,-57.5 368,-57.5 368,-38.5 268,-38.5"/>
<text text-anchor="middle" x="318" y="-45.5" font-family="Helvetica,sans-Serif" font-size="10.00">host_create_empty</text>
</a>
</g>
</g>
<!-- Node2&#45;&gt;Node3 -->
<g id="edge2" class="edge"><title>Node2&#45;&gt;Node3</title>
<path fill="none" stroke="midnightblue" d="M232.071,-36.9476C240.515,-38.0465 249.178,-39.1739 257.591,-40.2687"/>
<polygon fill="midnightblue" stroke="midnightblue" points="257.33,-43.7642 267.698,-41.584 258.234,-36.8227 257.33,-43.7642"/>
</g>
<!-- Node7 -->
<g id="node7" class="node"><title>Node7</title>
<g id="a_node7"><a xlink:href="../../df/da9/host_8c.html#a1fb6a6590d2576c32709b890623cad8c" target="_top" xlink:title="update_sa_len">
<polygon fill="none" stroke="black" points="278,-0.5 278,-19.5 358,-19.5 358,-0.5 278,-0.5"/>
<text text-anchor="middle" x="318" y="-7.5" font-family="Helvetica,sans-Serif" font-size="10.00">update_sa_len</text>
</a>
</g>
</g>
<!-- Node2&#45;&gt;Node7 -->
<g id="edge7" class="edge"><title>Node2&#45;&gt;Node7</title>
<path fill="none" stroke="midnightblue" d="M232.071,-21.0524C243.917,-19.5108 256.193,-17.9132 267.607,-16.4279"/>
<polygon fill="midnightblue" stroke="midnightblue" points="268.344,-19.8615 277.809,-15.1002 267.441,-12.9201 268.344,-19.8615"/>
</g>
<!-- Node4 -->
<g id="node4" class="node"><title>Node4</title>
<g id="a_node4"><a xlink:href="../../df/da9/host_8c.html#a0ea5fbf16ec81f3c5eaf6dc5da8d452a" target="_top" xlink:title="ip_equals">
<polygon fill="none" stroke="black" points="486,-38.5 486,-57.5 544,-57.5 544,-38.5 486,-38.5"/>
<text text-anchor="middle" x="515" y="-45.5" font-family="Helvetica,sans-Serif" font-size="10.00">ip_equals</text>
</a>
</g>
</g>
<!-- Node3&#45;&gt;Node4 -->
<g id="edge3" class="edge"><title>Node3&#45;&gt;Node4</title>
<path fill="none" stroke="midnightblue" d="M368.207,-48C401.513,-48 444.877,-48 475.63,-48"/>
<polygon fill="midnightblue" stroke="midnightblue" points="475.945,-51.5001 485.945,-48 475.944,-44.5001 475.945,-51.5001"/>
</g>
<!-- Node6 -->
<g id="node6" class="node"><title>Node6</title>
<g id="a_node6"><a xlink:href="../../df/da9/host_8c.html#a809d5cf7574c1f5e27758950d53653f4" target="_top" xlink:title="equals">
<polygon fill="none" stroke="black" points="404.5,-19.5 404.5,-38.5 449.5,-38.5 449.5,-19.5 404.5,-19.5"/>
<text text-anchor="middle" x="427" y="-26.5" font-family="Helvetica,sans-Serif" font-size="10.00">equals</text>
</a>
</g>
</g>
<!-- Node3&#45;&gt;Node6 -->
<g id="edge5" class="edge"><title>Node3&#45;&gt;Node6</title>
<path fill="none" stroke="midnightblue" d="M368.116,-39.2785C377.078,-37.6872 386.205,-36.0665 394.482,-34.5967"/>
<polygon fill="midnightblue" stroke="midnightblue" points="395.201,-38.0237 404.435,-32.8292 393.978,-31.1316 395.201,-38.0237"/>
</g>
<!-- Node5 -->
<g id="node5" class="node"><title>Node5</title>
<g id="a_node5"><a xlink:href="../../dd/d74/group__memory__i.html#ga46d7935db00fd7092430dbf4f36c2850" target="_top" xlink:title="memeq">
<polygon fill="none" stroke="black" points="580.5,-38.5 580.5,-57.5 629.5,-57.5 629.5,-38.5 580.5,-38.5"/>
<text text-anchor="middle" x="605" y="-45.5" font-family="Helvetica,sans-Serif" font-size="10.00">memeq</text>
</a>
</g>
</g>
<!-- Node4&#45;&gt;Node5 -->
<g id="edge4" class="edge"><title>Node4&#45;&gt;Node5</title>
<path fill="none" stroke="midnightblue" d="M544.328,-48C552.615,-48 561.756,-48 570.34,-48"/>
<polygon fill="midnightblue" stroke="midnightblue" points="570.439,-51.5001 580.439,-48 570.439,-44.5001 570.439,-51.5001"/>
</g>
<!-- Node6&#45;&gt;Node4 -->
<g id="edge6" class="edge"><title>Node6&#45;&gt;Node4</title>
<path fill="none" stroke="midnightblue" d="M449.701,-33.7945C457.655,-35.5517 466.91,-37.5963 475.877,-39.5775"/>
<polygon fill="midnightblue" stroke="midnightblue" points="475.276,-43.0291 485.796,-41.7688 476.786,-36.1939 475.276,-43.0291"/>
</g>
</g>
</svg>
