<?xml version="1.0" encoding="UTF-8" standalone="no"?>
<!DOCTYPE svg PUBLIC "-//W3C//DTD SVG 1.1//EN"
 "http://www.w3.org/Graphics/SVG/1.1/DTD/svg11.dtd">
<!-- Generated by graphviz version 2.36.0 (20140111.2315)
 -->
<!-- Title: query_destroy Pages: 1 -->
<svg width="462pt" height="61pt"
 viewBox="0.00 0.00 462.00 61.43" xmlns="http://www.w3.org/2000/svg" xmlns:xlink="http://www.w3.org/1999/xlink">
<g id="graph0" class="graph" transform="scale(1 1) rotate(0) translate(4 57.4311)">
<title>query_destroy</title>
<!-- Node1 -->
<g id="node1" class="node"><title>Node1</title>
<polygon fill="#bfbfbf" stroke="black" points="0,-14.9311 0,-33.9311 78,-33.9311 78,-14.9311 0,-14.9311"/>
<text text-anchor="middle" x="39" y="-21.9311" font-family="Helvetica,sans-Serif" font-size="10.00">query_destroy</text>
</g>
<!-- Node2 -->
<g id="node2" class="node"><title>Node2</title>
<g id="a_node2"><a xlink:href="../../d2/d97/host__resolver_8c.html#a074d22e540af7e2543a8ecdecff23a2a" target="_top" xlink:title="METHOD">
<polygon fill="none" stroke="black" points="394,-33.9311 394,-52.9311 454,-52.9311 454,-33.9311 394,-33.9311"/>
<text text-anchor="middle" x="424" y="-40.9311" font-family="Helvetica,sans-Serif" font-size="10.00">METHOD</text>
</a>
</g>
</g>
<!-- Node1&#45;&gt;Node2 -->
<g id="edge1" class="edge"><title>Node1&#45;&gt;Node2</title>
<path fill="none" stroke="midnightblue" d="M79.6819,-36.5725C90.6885,-39.4033 102.716,-42.0056 114,-43.4311 216.188,-56.3405 338.906,-49.8858 393.879,-45.8516"/>
<polygon fill="midnightblue" stroke="midnightblue" points="80.4779,-33.1622 69.9113,-33.9357 78.654,-39.9204 80.4779,-33.1622"/>
</g>
<!-- Node3 -->
<g id="node3" class="node"><title>Node3</title>
<g id="a_node3"><a xlink:href="../../d2/d97/host__resolver_8c.html#ad97ff610850942fdee16d9c6c01dc9e7" target="_top" xlink:title="query_signal_and_destroy">
<polygon fill="none" stroke="black" points="114,-14.9311 114,-33.9311 244,-33.9311 244,-14.9311 114,-14.9311"/>
<text text-anchor="middle" x="179" y="-21.9311" font-family="Helvetica,sans-Serif" font-size="10.00">query_signal_and_destroy</text>
</a>
</g>
</g>
<!-- Node1&#45;&gt;Node3 -->
<g id="edge2" class="edge"><title>Node1&#45;&gt;Node3</title>
<path fill="none" stroke="midnightblue" d="M88.2657,-24.4311C96.528,-24.4311 105.228,-24.4311 113.827,-24.4311"/>
<polygon fill="midnightblue" stroke="midnightblue" points="88.0744,-20.9312 78.0744,-24.4311 88.0744,-27.9312 88.0744,-20.9312"/>
</g>
<!-- Node4 -->
<g id="node4" class="node"><title>Node4</title>
<g id="a_node4"><a xlink:href="../../d2/d97/host__resolver_8c.html#a12a8c75295d25f96fee365f25ffa4611" target="_top" xlink:title="resolve_hosts">
<polygon fill="none" stroke="black" points="280.5,-14.9311 280.5,-33.9311 357.5,-33.9311 357.5,-14.9311 280.5,-14.9311"/>
<text text-anchor="middle" x="319" y="-21.9311" font-family="Helvetica,sans-Serif" font-size="10.00">resolve_hosts</text>
</a>
</g>
</g>
<!-- Node1&#45;&gt;Node4 -->
<g id="edge5" class="edge"><title>Node1&#45;&gt;Node4</title>
<path fill="none" stroke="midnightblue" d="M79.6819,-12.2897C90.6885,-9.45895 102.716,-6.85663 114,-5.43111 171.322,1.81037 186.678,1.81037 244,-5.43111 258.738,-7.29302 274.745,-11.1625 288.089,-14.9265"/>
<polygon fill="midnightblue" stroke="midnightblue" points="78.654,-8.94185 69.9113,-14.9265 80.4779,-15.7001 78.654,-8.94185"/>
</g>
<!-- Node3&#45;&gt;Node4 -->
<g id="edge3" class="edge"><title>Node3&#45;&gt;Node4</title>
<path fill="none" stroke="midnightblue" d="M254.328,-24.4311C263.325,-24.4311 272.2,-24.4311 280.336,-24.4311"/>
<polygon fill="midnightblue" stroke="midnightblue" points="254.152,-20.9312 244.152,-24.4311 254.152,-27.9312 254.152,-20.9312"/>
</g>
<!-- Node4&#45;&gt;Node2 -->
<g id="edge4" class="edge"><title>Node4&#45;&gt;Node2</title>
<path fill="none" stroke="midnightblue" d="M367.745,-33.2385C376.69,-34.8886 385.787,-36.5666 393.949,-38.0722"/>
<polygon fill="midnightblue" stroke="midnightblue" points="368.238,-29.7703 357.769,-31.3981 366.968,-36.6542 368.238,-29.7703"/>
</g>
</g>
</svg>
