<?xml version="1.0" encoding="UTF-8" standalone="no"?>
<!DOCTYPE svg PUBLIC "-//W3C//DTD SVG 1.1//EN"
 "http://www.w3.org/Graphics/SVG/1.1/DTD/svg11.dtd">
<!-- Generated by graphviz version 2.36.0 (20140111.2315)
 -->
<!-- Title: esp_context.h Pages: 1 -->
<!--zoomable 252 -->
<svg id="main" version="1.1" xmlns="http://www.w3.org/2000/svg" xmlns:xlink="http://www.w3.org/1999/xlink" xml:space="preserve" onload="init(evt)">
<style type="text/css"><![CDATA[
.edge:hover path { stroke: red; }
.edge:hover polygon { stroke: red; fill: red; }
]]></style>
<script type="text/javascript"><![CDATA[
var edges = document.getElementsByTagName('g');
if (edges && edges.length) {
  for (var i=0;i<edges.length;i++) {
    if (edges[i].id.substr(0,4)=='edge') {
      edges[i].setAttribute('class','edge');
    }
  }
}
]]></script>
        <defs>
                <circle id="rim" cx="0" cy="0" r="7"/>
                <circle id="rim2" cx="0" cy="0" r="3.5"/>
                <g id="zoomPlus">
                        <use xlink:href="#rim" fill="#404040">
                                <set attributeName="fill" to="#808080" begin="zoomplus.mouseover" end="zoomplus.mouseout"/>
                        </use>
                        <path d="M-4,0h8M0,-4v8" fill="none" stroke="white" stroke-width="1.5" pointer-events="none"/>
                </g>
                <g id="zoomMin">
                        <use xlink:href="#rim" fill="#404040">
                                <set attributeName="fill" to="#808080" begin="zoomminus.mouseover" end="zoomminus.mouseout"/>
                        </use>
                        <path d="M-4,0h8" fill="none" stroke="white" stroke-width="1.5" pointer-events="none"/>
                </g>
                <g id="dirArrow">
                        <path fill="none" stroke="white" stroke-width="1.5" d="M0,-3.0v7 M-2.5,-0.5L0,-3.0L2.5,-0.5"/>
                </g>
               <g id="resetDef">
                       <use xlink:href="#rim2" fill="#404040">
                               <set attributeName="fill" to="#808080" begin="reset.mouseover" end="reset.mouseout"/>
                       </use>
               </g>
        </defs>

<script type="text/javascript">
var viewWidth = 768;
var viewHeight = 252;
var sectionId = 'dynsection-1';
</script>
<script xlink:href="../../svgpan.js"/>
<svg id="graph" class="graph">
<g id="viewport">
<title>esp_context.h</title>
<!-- Node1 -->
<g id="node1" class="node"><title>Node1</title>
<polygon fill="#bfbfbf" stroke="black" points="431,-224.5 431,-243.5 509,-243.5 509,-224.5 431,-224.5"/>
<text text-anchor="middle" x="470" y="-231.5" font-family="Helvetica,sans-Serif" font-size="10.00">esp_context.h</text>
</g>
<!-- Node2 -->
<g id="node2" class="node"><title>Node2</title>
<g id="a_node2"><a xlink:href="../../d6/dce/esp__context_8c.html" target="_top" xlink:title="esp_context.c">
<polygon fill="none" stroke="black" points="336,-168.5 336,-187.5 414,-187.5 414,-168.5 336,-168.5"/>
<text text-anchor="middle" x="375" y="-175.5" font-family="Helvetica,sans-Serif" font-size="10.00">esp_context.c</text>
</a>
</g>
</g>
<!-- Node1&#45;&gt;Node2 -->
<g id="edge1" class="edge"><title>Node1&#45;&gt;Node2</title>
<path fill="none" stroke="midnightblue" d="M445.682,-219.177C428.201,-209.241 405.17,-196.149 390.226,-187.655"/>
<polygon fill="midnightblue" stroke="midnightblue" points="444.313,-222.425 454.737,-224.324 447.773,-216.339 444.313,-222.425"/>
</g>
<!-- Node3 -->
<g id="node3" class="node"><title>Node3</title>
<g id="a_node3"><a xlink:href="../../d8/db6/esp__packet_8h.html" target="_top" xlink:title="esp_packet.h">
<polygon fill="none" stroke="black" points="432.5,-168.5 432.5,-187.5 507.5,-187.5 507.5,-168.5 432.5,-168.5"/>
<text text-anchor="middle" x="470" y="-175.5" font-family="Helvetica,sans-Serif" font-size="10.00">esp_packet.h</text>
</a>
</g>
</g>
<!-- Node1&#45;&gt;Node3 -->
<g id="edge2" class="edge"><title>Node1&#45;&gt;Node3</title>
<path fill="none" stroke="midnightblue" d="M470,-213.805C470,-204.91 470,-194.78 470,-187.751"/>
<polygon fill="midnightblue" stroke="midnightblue" points="466.5,-214.083 470,-224.083 473.5,-214.083 466.5,-214.083"/>
</g>
<!-- Node15 -->
<g id="node15" class="node"><title>Node15</title>
<g id="a_node15"><a xlink:href="../../d5/d0a/ipsec__sa_8h.html" target="_top" xlink:title="ipsec_sa.h">
<polygon fill="none" stroke="black" points="599,-168.5 599,-187.5 663,-187.5 663,-168.5 599,-168.5"/>
<text text-anchor="middle" x="631" y="-175.5" font-family="Helvetica,sans-Serif" font-size="10.00">ipsec_sa.h</text>
</a>
</g>
</g>
<!-- Node1&#45;&gt;Node15 -->
<g id="edge15" class="edge"><title>Node1&#45;&gt;Node15</title>
<path fill="none" stroke="midnightblue" d="M505.265,-221.172C535.581,-211.004 578.57,-196.585 605.608,-187.516"/>
<polygon fill="midnightblue" stroke="midnightblue" points="503.879,-217.945 495.511,-224.444 506.105,-224.582 503.879,-217.945"/>
</g>
<!-- Node4 -->
<g id="node4" class="node"><title>Node4</title>
<g id="a_node4"><a xlink:href="../../d4/d26/esp__packet_8c.html" target="_top" xlink:title="esp_packet.c">
<polygon fill="none" stroke="black" points="275.5,-112.5 275.5,-131.5 350.5,-131.5 350.5,-112.5 275.5,-112.5"/>
<text text-anchor="middle" x="313" y="-119.5" font-family="Helvetica,sans-Serif" font-size="10.00">esp_packet.c</text>
</a>
</g>
</g>
<!-- Node3&#45;&gt;Node4 -->
<g id="edge3" class="edge"><title>Node3&#45;&gt;Node4</title>
<path fill="none" stroke="midnightblue" d="M435.611,-165.172C406.048,-155.004 364.127,-140.585 337.761,-131.516"/>
<polygon fill="midnightblue" stroke="midnightblue" points="434.528,-168.501 445.123,-168.444 436.805,-161.881 434.528,-168.501"/>
</g>
<!-- Node5 -->
<g id="node5" class="node"><title>Node5</title>
<g id="a_node5"><a xlink:href="../../d6/d0c/ipsec__processor_8h.html" target="_top" xlink:title="ipsec_processor.h">
<polygon fill="none" stroke="black" points="369,-112.5 369,-131.5 465,-131.5 465,-112.5 369,-112.5"/>
<text text-anchor="middle" x="417" y="-119.5" font-family="Helvetica,sans-Serif" font-size="10.00">ipsec_processor.h</text>
</a>
</g>
</g>
<!-- Node3&#45;&gt;Node5 -->
<g id="edge4" class="edge"><title>Node3&#45;&gt;Node5</title>
<path fill="none" stroke="midnightblue" d="M454.019,-160.718C444.678,-151.2 433.254,-139.561 425.589,-131.751"/>
<polygon fill="midnightblue" stroke="midnightblue" points="451.746,-163.398 461.248,-168.083 456.741,-158.494 451.746,-163.398"/>
</g>
<!-- Node14 -->
<g id="node14" class="node"><title>Node14</title>
<g id="a_node14"><a xlink:href="../../df/d22/test__chapoly_8c.html" target="_top" xlink:title="test_chapoly.c">
<polygon fill="none" stroke="black" points="483,-112.5 483,-131.5 563,-131.5 563,-112.5 483,-112.5"/>
<text text-anchor="middle" x="523" y="-119.5" font-family="Helvetica,sans-Serif" font-size="10.00">test_chapoly.c</text>
</a>
</g>
</g>
<!-- Node3&#45;&gt;Node14 -->
<g id="edge14" class="edge"><title>Node3&#45;&gt;Node14</title>
<path fill="none" stroke="midnightblue" d="M485.981,-160.718C495.322,-151.2 506.746,-139.561 514.411,-131.751"/>
<polygon fill="midnightblue" stroke="midnightblue" points="483.259,-158.494 478.752,-168.083 488.254,-163.398 483.259,-158.494"/>
</g>
<!-- Node6 -->
<g id="node6" class="node"><title>Node6</title>
<g id="a_node6"><a xlink:href="../../d2/dd3/libipsec_2ipsec_8h.html" target="_top" xlink:title="ipsec.h">
<polygon fill="none" stroke="black" points="393,-56.5 393,-75.5 441,-75.5 441,-56.5 393,-56.5"/>
<text text-anchor="middle" x="417" y="-63.5" font-family="Helvetica,sans-Serif" font-size="10.00">ipsec.h</text>
</a>
</g>
</g>
<!-- Node5&#45;&gt;Node6 -->
<g id="edge5" class="edge"><title>Node5&#45;&gt;Node6</title>
<path fill="none" stroke="midnightblue" d="M417,-101.805C417,-92.9102 417,-82.7798 417,-75.7511"/>
<polygon fill="midnightblue" stroke="midnightblue" points="413.5,-102.083 417,-112.083 420.5,-102.083 413.5,-102.083"/>
</g>
<!-- Node11 -->
<g id="node11" class="node"><title>Node11</title>
<g id="a_node11"><a xlink:href="../../d9/d45/ipsec__processor_8c.html" target="_top" xlink:title="ipsec_processor.c">
<polygon fill="none" stroke="black" points="0,-0.5 0,-19.5 96,-19.5 96,-0.5 0,-0.5"/>
<text text-anchor="middle" x="48" y="-7.5" font-family="Helvetica,sans-Serif" font-size="10.00">ipsec_processor.c</text>
</a>
</g>
</g>
<!-- Node5&#45;&gt;Node11 -->
<g id="edge13" class="edge"><title>Node5&#45;&gt;Node11</title>
<path fill="none" stroke="midnightblue" d="M378.458,-109.51C304.092,-87.3417 142.353,-39.127 76.6295,-19.5345"/>
<polygon fill="midnightblue" stroke="midnightblue" points="377.769,-112.957 388.352,-112.46 379.769,-106.249 377.769,-112.957"/>
</g>
<!-- Node7 -->
<g id="node7" class="node"><title>Node7</title>
<g id="a_node7"><a xlink:href="../../db/d51/kernel__libipsec__ipsec_8c.html" target="_top" xlink:title="kernel_libipsec_ipsec.c">
<polygon fill="none" stroke="black" points="456,-0.5 456,-19.5 574,-19.5 574,-0.5 456,-0.5"/>
<text text-anchor="middle" x="515" y="-7.5" font-family="Helvetica,sans-Serif" font-size="10.00">kernel_libipsec_ipsec.c</text>
</a>
</g>
</g>
<!-- Node6&#45;&gt;Node7 -->
<g id="edge6" class="edge"><title>Node6&#45;&gt;Node7</title>
<path fill="none" stroke="midnightblue" d="M441.586,-51.4526C459.678,-41.4835 483.735,-28.2279 499.294,-19.6545"/>
<polygon fill="midnightblue" stroke="midnightblue" points="439.815,-48.4324 432.745,-56.324 443.193,-54.5633 439.815,-48.4324"/>
</g>
<!-- Node8 -->
<g id="node8" class="node"><title>Node8</title>
<g id="a_node8"><a xlink:href="../../d2/d00/kernel__libipsec__plugin_8c.html" target="_top" xlink:title="kernel_libipsec_plugin.c">
<polygon fill="none" stroke="black" points="114,-0.5 114,-19.5 234,-19.5 234,-0.5 114,-0.5"/>
<text text-anchor="middle" x="174" y="-7.5" font-family="Helvetica,sans-Serif" font-size="10.00">kernel_libipsec_plugin.c</text>
</a>
</g>
</g>
<!-- Node6&#45;&gt;Node8 -->
<g id="edge7" class="edge"><title>Node6&#45;&gt;Node8</title>
<path fill="none" stroke="midnightblue" d="M382.972,-57.4382C338.091,-47.4646 259.321,-29.9603 212.37,-19.5267"/>
<polygon fill="midnightblue" stroke="midnightblue" points="382.291,-60.8721 392.812,-59.6249 383.809,-54.0388 382.291,-60.8721"/>
</g>
<!-- Node9 -->
<g id="node9" class="node"><title>Node9</title>
<g id="a_node9"><a xlink:href="../../d8/dd3/kernel__libipsec__router_8c.html" target="_top" xlink:title="kernel_libipsec_router.c">
<polygon fill="none" stroke="black" points="252.5,-0.5 252.5,-19.5 371.5,-19.5 371.5,-0.5 252.5,-0.5"/>
<text text-anchor="middle" x="312" y="-7.5" font-family="Helvetica,sans-Serif" font-size="10.00">kernel_libipsec_router.c</text>
</a>
</g>
</g>
<!-- Node6&#45;&gt;Node9 -->
<g id="edge8" class="edge"><title>Node6&#45;&gt;Node9</title>
<path fill="none" stroke="midnightblue" d="M391.19,-51.7261C371.747,-41.7271 345.652,-28.3065 328.828,-19.6545"/>
<polygon fill="midnightblue" stroke="midnightblue" points="389.636,-54.8629 400.13,-56.324 392.838,-48.6379 389.636,-54.8629"/>
</g>
<!-- Node10 -->
<g id="node10" class="node"><title>Node10</title>
<g id="a_node10"><a xlink:href="../../d5/dab/ipsec_8c.html" target="_top" xlink:title="ipsec.c">
<polygon fill="none" stroke="black" points="390,-0.5 390,-19.5 438,-19.5 438,-0.5 390,-0.5"/>
<text text-anchor="middle" x="414" y="-7.5" font-family="Helvetica,sans-Serif" font-size="10.00">ipsec.c</text>
</a>
</g>
</g>
<!-- Node6&#45;&gt;Node10 -->
<g id="edge9" class="edge"><title>Node6&#45;&gt;Node10</title>
<path fill="none" stroke="midnightblue" d="M415.934,-45.8045C415.439,-36.9102 414.877,-26.7798 414.486,-19.7511"/>
<polygon fill="midnightblue" stroke="midnightblue" points="412.455,-46.2926 416.505,-56.083 419.444,-45.9042 412.455,-46.2926"/>
</g>
<!-- Node6&#45;&gt;Node11 -->
<g id="edge10" class="edge"><title>Node6&#45;&gt;Node11</title>
<path fill="none" stroke="midnightblue" d="M382.72,-60.2084C325.256,-52.1421 205.866,-35.2364 105,-20 102.127,-19.5661 99.1739,-19.1149 96.1951,-18.6561"/>
<polygon fill="midnightblue" stroke="midnightblue" points="382.322,-63.6867 392.711,-61.6094 383.294,-56.7545 382.322,-63.6867"/>
</g>
<!-- Node12 -->
<g id="node12" class="node"><title>Node12</title>
<g id="a_node12"><a xlink:href="../../d3/d51/ipsec__sa_8c.html" target="_top" xlink:title="ipsec_sa.c">
<polygon fill="none" stroke="black" points="696,-0.5 696,-19.5 760,-19.5 760,-0.5 696,-0.5"/>
<text text-anchor="middle" x="728" y="-7.5" font-family="Helvetica,sans-Serif" font-size="10.00">ipsec_sa.c</text>
</a>
</g>
</g>
<!-- Node6&#45;&gt;Node12 -->
<g id="edge11" class="edge"><title>Node6&#45;&gt;Node12</title>
<path fill="none" stroke="midnightblue" d="M451.173,-59.8759C502.512,-52.0489 602.531,-36.2992 687,-20 689.862,-19.4477 692.831,-18.8483 695.803,-18.2299"/>
<polygon fill="midnightblue" stroke="midnightblue" points="450.638,-56.4169 441.277,-61.3784 451.689,-63.3376 450.638,-56.4169"/>
</g>
<!-- Node13 -->
<g id="node13" class="node"><title>Node13</title>
<g id="a_node13"><a xlink:href="../../de/d14/ipsec__sa__mgr_8c.html" target="_top" xlink:title="ipsec_sa_mgr.c">
<polygon fill="none" stroke="black" points="592,-0.5 592,-19.5 678,-19.5 678,-0.5 592,-0.5"/>
<text text-anchor="middle" x="635" y="-7.5" font-family="Helvetica,sans-Serif" font-size="10.00">ipsec_sa_mgr.c</text>
</a>
</g>
</g>
<!-- Node6&#45;&gt;Node13 -->
<g id="edge12" class="edge"><title>Node6&#45;&gt;Node13</title>
<path fill="none" stroke="midnightblue" d="M450.881,-56.6074C491.536,-46.537 559.335,-29.7427 600.335,-19.5868"/>
<polygon fill="midnightblue" stroke="midnightblue" points="450.028,-53.2129 441.163,-59.0147 451.711,-60.0076 450.028,-53.2129"/>
</g>
<!-- Node15&#45;&gt;Node12 -->
<g id="edge19" class="edge"><title>Node15&#45;&gt;Node12</title>
<path fill="none" stroke="midnightblue" d="M652.437,-162.42C662.832,-154.448 674.81,-143.8 683,-132 708.943,-94.6233 722.038,-40.439 726.348,-19.6053"/>
<polygon fill="midnightblue" stroke="midnightblue" points="650.196,-159.723 644.194,-168.455 654.331,-165.372 650.196,-159.723"/>
</g>
<!-- Node16 -->
<g id="node16" class="node"><title>Node16</title>
<g id="a_node16"><a xlink:href="../../db/df4/ipsec__sa__mgr_8h.html" target="_top" xlink:title="ipsec_sa_mgr.h">
<polygon fill="none" stroke="black" points="588,-112.5 588,-131.5 674,-131.5 674,-112.5 588,-112.5"/>
<text text-anchor="middle" x="631" y="-119.5" font-family="Helvetica,sans-Serif" font-size="10.00">ipsec_sa_mgr.h</text>
</a>
</g>
</g>
<!-- Node15&#45;&gt;Node16 -->
<g id="edge16" class="edge"><title>Node15&#45;&gt;Node16</title>
<path fill="none" stroke="midnightblue" d="M631,-157.805C631,-148.91 631,-138.78 631,-131.751"/>
<polygon fill="midnightblue" stroke="midnightblue" points="627.5,-158.083 631,-168.083 634.5,-158.083 627.5,-158.083"/>
</g>
<!-- Node16&#45;&gt;Node6 -->
<g id="edge17" class="edge"><title>Node16&#45;&gt;Node6</title>
<path fill="none" stroke="midnightblue" d="M587.205,-109.949C543.046,-98.806 476.501,-82.0142 441.12,-73.0865"/>
<polygon fill="midnightblue" stroke="midnightblue" points="586.539,-113.39 597.091,-112.444 588.251,-106.603 586.539,-113.39"/>
</g>
<!-- Node16&#45;&gt;Node13 -->
<g id="edge18" class="edge"><title>Node16&#45;&gt;Node13</title>
<path fill="none" stroke="midnightblue" d="M631.678,-102.348C632.554,-78.2538 634.043,-37.3079 634.688,-19.5914"/>
<polygon fill="midnightblue" stroke="midnightblue" points="628.18,-102.248 631.314,-112.368 635.175,-102.502 628.18,-102.248"/>
</g>
</g>
</svg>
        <g id="navigator" transform="translate(0 0)" fill="#404254">
                <rect fill="#f2f5e9" fill-opacity="0.5" stroke="#606060" stroke-width=".5" x="0" y="0" width="60" height="60"/>
                <use id="zoomplus" xlink:href="#zoomPlus" x="17" y="9" onmousedown="handleZoom(evt,'in')"/>
                <use id="zoomminus" xlink:href="#zoomMin" x="42" y="9" onmousedown="handleZoom(evt,'out')"/>
                <use id="reset" xlink:href="#resetDef" x="30" y="36" onmousedown="handleReset()"/>
                <g id="arrowUp" xlink:href="#dirArrow" transform="translate(30 24)" onmousedown="handlePan(0,-1)">
                  <use xlink:href="#rim" fill="#404040">
                        <set attributeName="fill" to="#808080" begin="arrowUp.mouseover" end="arrowUp.mouseout"/>
                  </use>
                  <path fill="none" stroke="white" stroke-width="1.5" d="M0,-3.0v7 M-2.5,-0.5L0,-3.0L2.5,-0.5"/>
                </g>
                <g id="arrowRight" xlink:href="#dirArrow" transform="rotate(90) translate(36 -43)" onmousedown="handlePan(1,0)">
                  <use xlink:href="#rim" fill="#404040">
                        <set attributeName="fill" to="#808080" begin="arrowRight.mouseover" end="arrowRight.mouseout"/>
                  </use>
                  <path fill="none" stroke="white" stroke-width="1.5" d="M0,-3.0v7 M-2.5,-0.5L0,-3.0L2.5,-0.5"/>
                </g>
                <g id="arrowDown" xlink:href="#dirArrow" transform="rotate(180) translate(-30 -48)" onmousedown="handlePan(0,1)">
                  <use xlink:href="#rim" fill="#404040">
                        <set attributeName="fill" to="#808080" begin="arrowDown.mouseover" end="arrowDown.mouseout"/>
                  </use>
                  <path fill="none" stroke="white" stroke-width="1.5" d="M0,-3.0v7 M-2.5,-0.5L0,-3.0L2.5,-0.5"/>
                </g>
                <g id="arrowLeft" xlink:href="#dirArrow" transform="rotate(270) translate(-36 17)" onmousedown="handlePan(-1,0)">
                  <use xlink:href="#rim" fill="#404040">
                        <set attributeName="fill" to="#808080" begin="arrowLeft.mouseover" end="arrowLeft.mouseout"/>
                  </use>
                  <path fill="none" stroke="white" stroke-width="1.5" d="M0,-3.0v7 M-2.5,-0.5L0,-3.0L2.5,-0.5"/>
                </g>
        </g>
        <svg viewBox="0 0 15 15" width="100%" height="30px" preserveAspectRatio="xMaxYMin meet">
         <g id="arrow_out" transform="scale(0.3 0.3)">
          <a xlink:href="esp__context_8h__dep__incl_org.svg" target="_base">
           <rect id="button" ry="5" rx="5" y="6" x="6" height="38" width="38"
                fill="#f2f5e9" fill-opacity="0.5" stroke="#606060" stroke-width="1.0"/>
           <path id="arrow"
             d="M 11.500037,31.436501 C 11.940474,20.09759 22.043105,11.32322 32.158766,21.979434 L 37.068811,17.246167 C 37.068811,17.246167 37.088388,32 37.088388,32 L 22.160133,31.978069 C 22.160133,31.978069 26.997745,27.140456 26.997745,27.140456 C 18.528582,18.264221 13.291696,25.230495 11.500037,31.436501 z"
             style="fill:#404040;"/>
          </a>
         </g>
        </svg>
</svg>
