<?xml version="1.0" encoding="UTF-8" standalone="no"?>
<!DOCTYPE svg PUBLIC "-//W3C//DTD SVG 1.1//EN"
 "http://www.w3.org/Graphics/SVG/1.1/DTD/svg11.dtd">
<!-- Generated by graphviz version 2.36.0 (20140111.2315)
 -->
<!-- Title: tkm_keymat.h Pages: 1 -->
<svg width="497pt" height="84pt"
 viewBox="0.00 0.00 497.00 84.00" xmlns="http://www.w3.org/2000/svg" xmlns:xlink="http://www.w3.org/1999/xlink">
<g id="graph0" class="graph" transform="scale(1 1) rotate(0) translate(4 80)">
<title>tkm_keymat.h</title>
<!-- Node1 -->
<g id="node1" class="node"><title>Node1</title>
<polygon fill="#bfbfbf" stroke="black" points="211.5,-56.5 211.5,-75.5 290.5,-75.5 290.5,-56.5 211.5,-56.5"/>
<text text-anchor="middle" x="251" y="-63.5" font-family="Helvetica,sans-Serif" font-size="10.00">tkm_keymat.h</text>
</g>
<!-- Node2 -->
<g id="node2" class="node"><title>Node2</title>
<g id="a_node2"><a xlink:href="../../d4/d9f/charon-tkm_8c.html" target="_top" xlink:title="charon&#45;tkm.c">
<polygon fill="none" stroke="black" points="0,-0.5 0,-19.5 74,-19.5 74,-0.5 0,-0.5"/>
<text text-anchor="middle" x="37" y="-7.5" font-family="Helvetica,sans-Serif" font-size="10.00">charon&#45;tkm.c</text>
</a>
</g>
</g>
<!-- Node1&#45;&gt;Node2 -->
<g id="edge1" class="edge"><title>Node1&#45;&gt;Node2</title>
<path fill="none" stroke="midnightblue" d="M207.245,-53.959C166.826,-43.7598 107.627,-28.8217 70.7503,-19.5164"/>
<polygon fill="midnightblue" stroke="midnightblue" points="206.539,-57.3904 217.091,-56.4435 208.251,-50.6032 206.539,-57.3904"/>
</g>
<!-- Node3 -->
<g id="node3" class="node"><title>Node3</title>
<g id="a_node3"><a xlink:href="../../df/d27/tkm__kernel__ipsec_8c.html" target="_top" xlink:title="tkm_kernel_ipsec.c">
<polygon fill="none" stroke="black" points="92.5,-0.5 92.5,-19.5 193.5,-19.5 193.5,-0.5 92.5,-0.5"/>
<text text-anchor="middle" x="143" y="-7.5" font-family="Helvetica,sans-Serif" font-size="10.00">tkm_kernel_ipsec.c</text>
</a>
</g>
</g>
<!-- Node1&#45;&gt;Node3 -->
<g id="edge2" class="edge"><title>Node1&#45;&gt;Node3</title>
<path fill="none" stroke="midnightblue" d="M224.452,-51.7261C204.454,-41.7271 177.613,-28.3065 160.309,-19.6545"/>
<polygon fill="midnightblue" stroke="midnightblue" points="223.138,-54.9823 233.648,-56.324 226.269,-48.7213 223.138,-54.9823"/>
</g>
<!-- Node4 -->
<g id="node4" class="node"><title>Node4</title>
<g id="a_node4"><a xlink:href="../../d9/d3b/tkm__keymat_8c.html" target="_top" xlink:title="tkm_keymat.c">
<polygon fill="none" stroke="black" points="211.5,-0.5 211.5,-19.5 290.5,-19.5 290.5,-0.5 211.5,-0.5"/>
<text text-anchor="middle" x="251" y="-7.5" font-family="Helvetica,sans-Serif" font-size="10.00">tkm_keymat.c</text>
</a>
</g>
</g>
<!-- Node1&#45;&gt;Node4 -->
<g id="edge3" class="edge"><title>Node1&#45;&gt;Node4</title>
<path fill="none" stroke="midnightblue" d="M251,-45.8045C251,-36.9102 251,-26.7798 251,-19.7511"/>
<polygon fill="midnightblue" stroke="midnightblue" points="247.5,-46.083 251,-56.083 254.5,-46.083 247.5,-46.083"/>
</g>
<!-- Node5 -->
<g id="node5" class="node"><title>Node5</title>
<g id="a_node5"><a xlink:href="../../d4/dea/tkm__listener_8c.html" target="_top" xlink:title="tkm_listener.c">
<polygon fill="none" stroke="black" points="309,-0.5 309,-19.5 387,-19.5 387,-0.5 309,-0.5"/>
<text text-anchor="middle" x="348" y="-7.5" font-family="Helvetica,sans-Serif" font-size="10.00">tkm_listener.c</text>
</a>
</g>
</g>
<!-- Node1&#45;&gt;Node5 -->
<g id="edge4" class="edge"><title>Node1&#45;&gt;Node5</title>
<path fill="none" stroke="midnightblue" d="M275.335,-51.4526C293.243,-41.4835 317.054,-28.2279 332.454,-19.6545"/>
<polygon fill="midnightblue" stroke="midnightblue" points="273.62,-48.4018 266.585,-56.324 277.025,-54.5179 273.62,-48.4018"/>
</g>
<!-- Node6 -->
<g id="node6" class="node"><title>Node6</title>
<g id="a_node6"><a xlink:href="../../d7/d52/keymat__tests_8c.html" target="_top" xlink:title="keymat_tests.c">
<polygon fill="none" stroke="black" points="405,-0.5 405,-19.5 489,-19.5 489,-0.5 405,-0.5"/>
<text text-anchor="middle" x="447" y="-7.5" font-family="Helvetica,sans-Serif" font-size="10.00">keymat_tests.c</text>
</a>
</g>
</g>
<!-- Node1&#45;&gt;Node6 -->
<g id="edge5" class="edge"><title>Node1&#45;&gt;Node6</title>
<path fill="none" stroke="midnightblue" d="M292.02,-53.6986C329.011,-43.507 382.6,-28.7429 416.089,-19.5164"/>
<polygon fill="midnightblue" stroke="midnightblue" points="290.768,-50.4131 282.057,-56.4435 292.627,-57.1616 290.768,-50.4131"/>
</g>
</g>
</svg>
