<?xml version="1.0" encoding="UTF-8" standalone="no"?>
<!DOCTYPE svg PUBLIC "-//W3C//DTD SVG 1.1//EN"
 "http://www.w3.org/Graphics/SVG/1.1/DTD/svg11.dtd">
<!-- Generated by graphviz version 2.36.0 (20140111.2315)
 -->
<!-- Title: METHOD Pages: 1 -->
<svg width="690pt" height="218pt"
 viewBox="0.00 0.00 690.00 218.00" xmlns="http://www.w3.org/2000/svg" xmlns:xlink="http://www.w3.org/1999/xlink">
<g id="graph0" class="graph" transform="scale(1 1) rotate(0) translate(4 214)">
<title>METHOD</title>
<!-- Node1 -->
<g id="node1" class="node"><title>Node1</title>
<polygon fill="#bfbfbf" stroke="black" points="0,-85.5 0,-104.5 60,-104.5 60,-85.5 0,-85.5"/>
<text text-anchor="middle" x="30" y="-92.5" font-family="Helvetica,sans-Serif" font-size="10.00">METHOD</text>
</g>
<!-- Node2 -->
<g id="node2" class="node"><title>Node2</title>
<g id="a_node2"><a xlink:href="../../d4/d87/group__chunk.html#gad94ca029616a107e89eaa618408fd7b6" target="_top" xlink:title="chunk_create">
<polygon fill="none" stroke="black" points="305.5,-190.5 305.5,-209.5 380.5,-209.5 380.5,-190.5 305.5,-190.5"/>
<text text-anchor="middle" x="343" y="-197.5" font-family="Helvetica,sans-Serif" font-size="10.00">chunk_create</text>
</a>
</g>
</g>
<!-- Node1&#45;&gt;Node2 -->
<g id="edge1" class="edge"><title>Node1&#45;&gt;Node2</title>
<path fill="none" stroke="midnightblue" d="M57.5265,-104.51C69.2943,-108.697 83.3206,-113.644 96,-118 168.939,-143.059 254.422,-171.301 302.996,-187.243"/>
<polygon fill="midnightblue" stroke="midnightblue" points="302.19,-190.663 312.783,-190.453 304.372,-184.011 302.19,-190.663"/>
</g>
<!-- Node3 -->
<g id="node3" class="node"><title>Node3</title>
<g id="a_node3"><a xlink:href="../../d4/d87/group__chunk.html#gaaabd31666a00f250bb4a339c82373be8" target="_top" xlink:title="chunk_skip">
<polygon fill="none" stroke="black" points="310,-0.5 310,-19.5 376,-19.5 376,-0.5 310,-0.5"/>
<text text-anchor="middle" x="343" y="-7.5" font-family="Helvetica,sans-Serif" font-size="10.00">chunk_skip</text>
</a>
</g>
</g>
<!-- Node1&#45;&gt;Node3 -->
<g id="edge2" class="edge"><title>Node1&#45;&gt;Node3</title>
<path fill="none" stroke="midnightblue" d="M44.2662,-85.4137C56.9471,-76.7066 76.9075,-64.1626 96,-57 164.602,-31.2635 249.481,-19.0443 299.483,-13.6983"/>
<polygon fill="midnightblue" stroke="midnightblue" points="300.014,-17.1622 309.605,-12.6595 299.299,-10.1988 300.014,-17.1622"/>
</g>
<!-- Node4 -->
<g id="node4" class="node"><title>Node4</title>
<g id="a_node4"><a xlink:href="../../d1/d6a/simaka__message_8c.html#aeb8423bf0d815bf3264707d140c045d3" target="_top" xlink:title="decrypt">
<polygon fill="none" stroke="black" points="96.5,-66.5 96.5,-85.5 145.5,-85.5 145.5,-66.5 96.5,-66.5"/>
<text text-anchor="middle" x="121" y="-73.5" font-family="Helvetica,sans-Serif" font-size="10.00">decrypt</text>
</a>
</g>
</g>
<!-- Node1&#45;&gt;Node4 -->
<g id="edge3" class="edge"><title>Node1&#45;&gt;Node4</title>
<path fill="none" stroke="midnightblue" d="M60.1419,-88.7787C68.5954,-86.974 77.8917,-84.9894 86.5852,-83.1335"/>
<polygon fill="midnightblue" stroke="midnightblue" points="87.3782,-86.5432 96.427,-81.0324 85.9167,-79.6974 87.3782,-86.5432"/>
</g>
<!-- Node6 -->
<g id="node6" class="node"><title>Node6</title>
<g id="a_node6"><a xlink:href="../../d1/d6a/simaka__message_8c.html#a20750bd4712bbe1d598be2db86e5ac48" target="_top" xlink:title="parse_attributes">
<polygon fill="none" stroke="black" points="182,-104.5 182,-123.5 268,-123.5 268,-104.5 182,-104.5"/>
<text text-anchor="middle" x="225" y="-111.5" font-family="Helvetica,sans-Serif" font-size="10.00">parse_attributes</text>
</a>
</g>
</g>
<!-- Node1&#45;&gt;Node6 -->
<g id="edge14" class="edge"><title>Node1&#45;&gt;Node6</title>
<path fill="none" stroke="midnightblue" d="M60.3125,-97.8857C89.7776,-100.786 135.833,-105.32 171.596,-108.841"/>
<polygon fill="midnightblue" stroke="midnightblue" points="171.565,-112.355 181.86,-109.851 172.251,-105.388 171.565,-112.355"/>
</g>
<!-- Node5 -->
<g id="node5" class="node"><title>Node5</title>
<g id="a_node5"><a xlink:href="../../da/dfc/settings__parser_8c.html#af07d89f5ceaea0c7c8252cc41fd75f37" target="_top" xlink:title="free">
<polygon fill="none" stroke="black" points="208.5,-66.5 208.5,-85.5 241.5,-85.5 241.5,-66.5 208.5,-66.5"/>
<text text-anchor="middle" x="225" y="-73.5" font-family="Helvetica,sans-Serif" font-size="10.00">free</text>
</a>
</g>
</g>
<!-- Node4&#45;&gt;Node5 -->
<g id="edge4" class="edge"><title>Node4&#45;&gt;Node5</title>
<path fill="none" stroke="midnightblue" d="M145.657,-76C161.341,-76 181.923,-76 198.055,-76"/>
<polygon fill="midnightblue" stroke="midnightblue" points="198.397,-79.5001 208.397,-76 198.397,-72.5001 198.397,-79.5001"/>
</g>
<!-- Node4&#45;&gt;Node6 -->
<g id="edge5" class="edge"><title>Node4&#45;&gt;Node6</title>
<path fill="none" stroke="midnightblue" d="M145.657,-84.8135C158.472,-89.5876 174.557,-95.5801 188.813,-100.891"/>
<polygon fill="midnightblue" stroke="midnightblue" points="187.734,-104.224 198.327,-104.436 190.178,-97.6646 187.734,-104.224"/>
</g>
<!-- Node6&#45;&gt;Node2 -->
<g id="edge9" class="edge"><title>Node6&#45;&gt;Node2</title>
<path fill="none" stroke="midnightblue" d="M235.466,-123.506C249.549,-137.314 277.24,-163.212 304,-181 306.419,-182.608 308.992,-184.17 311.616,-185.664"/>
<polygon fill="midnightblue" stroke="midnightblue" points="310.106,-188.825 320.577,-190.439 313.398,-182.647 310.106,-188.825"/>
</g>
<!-- Node6&#45;&gt;Node3 -->
<g id="edge8" class="edge"><title>Node6&#45;&gt;Node3</title>
<path fill="none" stroke="midnightblue" d="M254.231,-104.299C259.178,-101.778 264.011,-98.7021 268,-95 292.49,-72.2697 279.955,-52.2013 304,-29 305.433,-27.6172 306.987,-26.3147 308.619,-25.0909"/>
<polygon fill="midnightblue" stroke="midnightblue" points="310.676,-27.9309 317.25,-19.6216 306.929,-22.0182 310.676,-27.9309"/>
</g>
<!-- Node7 -->
<g id="node7" class="node"><title>Node7</title>
<g id="a_node7"><a xlink:href="../../d1/d6a/simaka__message_8c.html#af128ef8059e0cd33c43d7fd46bb09a70" target="_top" xlink:title="not_encrypted">
<polygon fill="none" stroke="black" points="304,-152.5 304,-171.5 382,-171.5 382,-152.5 304,-152.5"/>
<text text-anchor="middle" x="343" y="-159.5" font-family="Helvetica,sans-Serif" font-size="10.00">not_encrypted</text>
</a>
</g>
</g>
<!-- Node6&#45;&gt;Node7 -->
<g id="edge6" class="edge"><title>Node6&#45;&gt;Node7</title>
<path fill="none" stroke="midnightblue" d="M249.196,-123.598C266.503,-130.76 290.372,-140.637 309.569,-148.58"/>
<polygon fill="midnightblue" stroke="midnightblue" points="308.266,-151.829 318.845,-152.418 310.943,-145.361 308.266,-151.829"/>
</g>
<!-- Node8 -->
<g id="node8" class="node"><title>Node8</title>
<g id="a_node8"><a xlink:href="../../d1/d6a/simaka__message_8c.html#a4f548acd28b7d16f8eb4e165732abae4" target="_top" xlink:title="invalid_length">
<polygon fill="none" stroke="black" points="305,-114.5 305,-133.5 381,-133.5 381,-114.5 305,-114.5"/>
<text text-anchor="middle" x="343" y="-121.5" font-family="Helvetica,sans-Serif" font-size="10.00">invalid_length</text>
</a>
</g>
</g>
<!-- Node6&#45;&gt;Node8 -->
<g id="edge7" class="edge"><title>Node6&#45;&gt;Node8</title>
<path fill="none" stroke="midnightblue" d="M268.207,-117.639C276.774,-118.377 285.839,-119.159 294.572,-119.911"/>
<polygon fill="midnightblue" stroke="midnightblue" points="294.36,-123.406 304.623,-120.778 294.961,-116.432 294.36,-123.406"/>
</g>
<!-- Node9 -->
<g id="node9" class="node"><title>Node9</title>
<g id="a_node9"><a xlink:href="../../da/d9e/mode__config_8c.html#a0f6b13639d25b3de1966b5a4c5f6bb90" target="_top" xlink:title="add_attribute">
<polygon fill="none" stroke="black" points="306.5,-76.5 306.5,-95.5 379.5,-95.5 379.5,-76.5 306.5,-76.5"/>
<text text-anchor="middle" x="343" y="-83.5" font-family="Helvetica,sans-Serif" font-size="10.00">add_attribute</text>
</a>
</g>
</g>
<!-- Node6&#45;&gt;Node9 -->
<g id="edge10" class="edge"><title>Node6&#45;&gt;Node9</title>
<path fill="none" stroke="midnightblue" d="M265.596,-104.442C275.54,-102.042 286.288,-99.4477 296.495,-96.984"/>
<polygon fill="midnightblue" stroke="midnightblue" points="297.571,-100.325 306.471,-94.576 295.929,-93.5202 297.571,-100.325"/>
</g>
<!-- Node12 -->
<g id="node12" class="node"><title>Node12</title>
<g id="a_node12"><a xlink:href="../../d1/d6a/simaka__message_8c.html#a7b576f73ac811995354dcf0388586956" target="_top" xlink:title="call_hook">
<polygon fill="none" stroke="black" points="314,-38.5 314,-57.5 372,-57.5 372,-38.5 314,-38.5"/>
<text text-anchor="middle" x="343" y="-45.5" font-family="Helvetica,sans-Serif" font-size="10.00">call_hook</text>
</a>
</g>
</g>
<!-- Node6&#45;&gt;Node12 -->
<g id="edge13" class="edge"><title>Node6&#45;&gt;Node12</title>
<path fill="none" stroke="midnightblue" d="M249.607,-104.498C255.744,-101.713 262.244,-98.4732 268,-95 285.355,-84.5275 286.852,-77.8073 304,-67 306.599,-65.3618 309.359,-63.7537 312.158,-62.2092"/>
<polygon fill="midnightblue" stroke="midnightblue" points="313.849,-65.2743 321.084,-57.5337 310.601,-59.0735 313.849,-65.2743"/>
</g>
<!-- Node10 -->
<g id="node10" class="node"><title>Node10</title>
<g id="a_node10"><a xlink:href="../../d9/deb/group__configuration__attribute.html#ga798de12d4d07bb9ea37583a5316ba4e9" target="_top" xlink:title="configuration_attribute\l_create_chunk">
<polygon fill="none" stroke="black" points="418.5,-71 418.5,-101 531.5,-101 531.5,-71 418.5,-71"/>
<text text-anchor="start" x="426.5" y="-89" font-family="Helvetica,sans-Serif" font-size="10.00">configuration_attribute</text>
<text text-anchor="middle" x="475" y="-78" font-family="Helvetica,sans-Serif" font-size="10.00">_create_chunk</text>
</a>
</g>
</g>
<!-- Node9&#45;&gt;Node10 -->
<g id="edge11" class="edge"><title>Node9&#45;&gt;Node10</title>
<path fill="none" stroke="midnightblue" d="M379.523,-86C388.45,-86 398.319,-86 408.212,-86"/>
<polygon fill="midnightblue" stroke="midnightblue" points="408.491,-89.5001 418.491,-86 408.491,-82.5001 408.491,-89.5001"/>
</g>
<!-- Node11 -->
<g id="node11" class="node"><title>Node11</title>
<g id="a_node11"><a xlink:href="../../d9/deb/group__configuration__attribute.html#ga4751fb80cd7a70cab7bb88cbaef9131c" target="_top" xlink:title="configuration_attribute\l_create">
<polygon fill="none" stroke="black" points="568.5,-71 568.5,-101 681.5,-101 681.5,-71 568.5,-71"/>
<text text-anchor="start" x="576.5" y="-89" font-family="Helvetica,sans-Serif" font-size="10.00">configuration_attribute</text>
<text text-anchor="middle" x="625" y="-78" font-family="Helvetica,sans-Serif" font-size="10.00">_create</text>
</a>
</g>
</g>
<!-- Node10&#45;&gt;Node11 -->
<g id="edge12" class="edge"><title>Node10&#45;&gt;Node11</title>
<path fill="none" stroke="midnightblue" d="M531.531,-86C540.138,-86 549.101,-86 557.913,-86"/>
<polygon fill="midnightblue" stroke="midnightblue" points="558.158,-89.5001 568.158,-86 558.158,-82.5001 558.158,-89.5001"/>
</g>
</g>
</svg>
