<?xml version="1.0" encoding="UTF-8" standalone="no"?>
<!DOCTYPE svg PUBLIC "-//W3C//DTD SVG 1.1//EN"
 "http://www.w3.org/Graphics/SVG/1.1/DTD/svg11.dtd">
<!-- Generated by graphviz version 2.36.0 (20140111.2315)
 -->
<!-- Title: METHOD Pages: 1 -->
<svg width="156pt" height="104pt"
 viewBox="0.00 0.00 156.00 104.00" xmlns="http://www.w3.org/2000/svg" xmlns:xlink="http://www.w3.org/1999/xlink">
<g id="graph0" class="graph" transform="scale(1 1) rotate(0) translate(4 100)">
<title>METHOD</title>
<!-- Node1 -->
<g id="node1" class="node"><title>Node1</title>
<polygon fill="#bfbfbf" stroke="black" points="0,-38.5 0,-57.5 60,-57.5 60,-38.5 0,-38.5"/>
<text text-anchor="middle" x="30" y="-45.5" font-family="Helvetica,sans-Serif" font-size="10.00">METHOD</text>
</g>
<!-- Node2 -->
<g id="node2" class="node"><title>Node2</title>
<g id="a_node2"><a xlink:href="../../da/da5/group__byteorder__i.html#gae457d068dd73c9bf13c7755ac9f968ba" target="_top" xlink:title="htoun16">
<polygon fill="none" stroke="black" points="96.5,-76.5 96.5,-95.5 147.5,-95.5 147.5,-76.5 96.5,-76.5"/>
<text text-anchor="middle" x="122" y="-83.5" font-family="Helvetica,sans-Serif" font-size="10.00">htoun16</text>
</a>
</g>
</g>
<!-- Node1&#45;&gt;Node2 -->
<g id="edge1" class="edge"><title>Node1&#45;&gt;Node2</title>
<path fill="none" stroke="midnightblue" d="M53.7108,-57.589C64.3696,-62.0894 77.2605,-67.5322 88.8953,-72.4447"/>
<polygon fill="midnightblue" stroke="midnightblue" points="87.7225,-75.7487 98.2965,-76.4141 90.4454,-69.2999 87.7225,-75.7487"/>
</g>
<!-- Node3 -->
<g id="node3" class="node"><title>Node3</title>
<g id="a_node3"><a xlink:href="../../da/da5/group__byteorder__i.html#ga5276e20f3978cf58721fcc613ec6ed62" target="_top" xlink:title="htoun64">
<polygon fill="none" stroke="black" points="96.5,-38.5 96.5,-57.5 147.5,-57.5 147.5,-38.5 96.5,-38.5"/>
<text text-anchor="middle" x="122" y="-45.5" font-family="Helvetica,sans-Serif" font-size="10.00">htoun64</text>
</a>
</g>
</g>
<!-- Node1&#45;&gt;Node3 -->
<g id="edge2" class="edge"><title>Node1&#45;&gt;Node3</title>
<path fill="none" stroke="midnightblue" d="M60.4694,-48C68.7062,-48 77.7344,-48 86.2461,-48"/>
<polygon fill="midnightblue" stroke="midnightblue" points="86.2844,-51.5001 96.2843,-48 86.2843,-44.5001 86.2844,-51.5001"/>
</g>
<!-- Node4 -->
<g id="node4" class="node"><title>Node4</title>
<g id="a_node4"><a xlink:href="../../da/dbd/group__align__i.html#ga2e30c21b6abf68fad660942e484d459c" target="_top" xlink:title="pad_len">
<polygon fill="none" stroke="black" points="97,-0.5 97,-19.5 147,-19.5 147,-0.5 97,-0.5"/>
<text text-anchor="middle" x="122" y="-7.5" font-family="Helvetica,sans-Serif" font-size="10.00">pad_len</text>
</a>
</g>
</g>
<!-- Node1&#45;&gt;Node4 -->
<g id="edge3" class="edge"><title>Node1&#45;&gt;Node4</title>
<path fill="none" stroke="midnightblue" d="M53.7108,-38.411C64.3696,-33.9106 77.2605,-28.4678 88.8953,-23.5553"/>
<polygon fill="midnightblue" stroke="midnightblue" points="90.4454,-26.7001 98.2965,-19.5859 87.7225,-20.2513 90.4454,-26.7001"/>
</g>
</g>
</svg>
