<?xml version="1.0" encoding="UTF-8" standalone="no"?>
<!DOCTYPE svg PUBLIC "-//W3C//DTD SVG 1.1//EN"
 "http://www.w3.org/Graphics/SVG/1.1/DTD/svg11.dtd">
<!-- Generated by graphviz version 2.36.0 (20140111.2315)
 -->
<!-- Title: tcg_swid_attr_req.h Pages: 1 -->
<svg width="384pt" height="84pt"
 viewBox="0.00 0.00 384.00 84.00" xmlns="http://www.w3.org/2000/svg" xmlns:xlink="http://www.w3.org/1999/xlink">
<g id="graph0" class="graph" transform="scale(1 1) rotate(0) translate(4 80)">
<title>tcg_swid_attr_req.h</title>
<!-- Node1 -->
<g id="node1" class="node"><title>Node1</title>
<polygon fill="#bfbfbf" stroke="black" points="139,-56.5 139,-75.5 241,-75.5 241,-56.5 139,-56.5"/>
<text text-anchor="middle" x="190" y="-63.5" font-family="Helvetica,sans-Serif" font-size="10.00">tcg_swid_attr_req.h</text>
</g>
<!-- Node2 -->
<g id="node2" class="node"><title>Node2</title>
<g id="a_node2"><a xlink:href="../../d3/de6/imc__swid_8c.html" target="_top" xlink:title="imc_swid.c">
<polygon fill="none" stroke="black" points="0,-0.5 0,-19.5 66,-19.5 66,-0.5 0,-0.5"/>
<text text-anchor="middle" x="33" y="-7.5" font-family="Helvetica,sans-Serif" font-size="10.00">imc_swid.c</text>
</a>
</g>
</g>
<!-- Node1&#45;&gt;Node2 -->
<g id="edge1" class="edge"><title>Node1&#45;&gt;Node2</title>
<path fill="none" stroke="midnightblue" d="M155.611,-53.172C126.048,-43.0039 84.1272,-28.5852 57.7607,-19.5164"/>
<polygon fill="midnightblue" stroke="midnightblue" points="154.528,-56.5007 165.123,-56.4435 156.805,-49.8813 154.528,-56.5007"/>
</g>
<!-- Node3 -->
<g id="node3" class="node"><title>Node3</title>
<g id="a_node3"><a xlink:href="../../db/d4a/imv__swid__agent_8c.html" target="_top" xlink:title="imv_swid_agent.c">
<polygon fill="none" stroke="black" points="84.5,-0.5 84.5,-19.5 179.5,-19.5 179.5,-0.5 84.5,-0.5"/>
<text text-anchor="middle" x="132" y="-7.5" font-family="Helvetica,sans-Serif" font-size="10.00">imv_swid_agent.c</text>
</a>
</g>
</g>
<!-- Node1&#45;&gt;Node3 -->
<g id="edge2" class="edge"><title>Node1&#45;&gt;Node3</title>
<path fill="none" stroke="midnightblue" d="M173.087,-49.2533C162.797,-39.6731 150.034,-27.7906 141.488,-19.8339"/>
<polygon fill="midnightblue" stroke="midnightblue" points="170.977,-52.0714 180.681,-56.324 175.747,-46.9481 170.977,-52.0714"/>
</g>
<!-- Node4 -->
<g id="node4" class="node"><title>Node4</title>
<g id="a_node4"><a xlink:href="../../df/df7/tcg__swid__attr__req_8c.html" target="_top" xlink:title="tcg_swid_attr_req.c">
<polygon fill="none" stroke="black" points="198,-0.5 198,-19.5 300,-19.5 300,-0.5 198,-0.5"/>
<text text-anchor="middle" x="249" y="-7.5" font-family="Helvetica,sans-Serif" font-size="10.00">tcg_swid_attr_req.c</text>
</a>
</g>
</g>
<!-- Node1&#45;&gt;Node4 -->
<g id="edge3" class="edge"><title>Node1&#45;&gt;Node4</title>
<path fill="none" stroke="midnightblue" d="M206.895,-49.5372C217.415,-39.9087 230.569,-27.8694 239.348,-19.8339"/>
<polygon fill="midnightblue" stroke="midnightblue" points="204.493,-46.9905 199.479,-56.324 209.219,-52.1542 204.493,-46.9905"/>
</g>
<!-- Node5 -->
<g id="node5" class="node"><title>Node5</title>
<g id="a_node5"><a xlink:href="../../dd/d54/tcg__attr_8c.html" target="_top" xlink:title="tcg_attr.c">
<polygon fill="none" stroke="black" points="318,-0.5 318,-19.5 376,-19.5 376,-0.5 318,-0.5"/>
<text text-anchor="middle" x="347" y="-7.5" font-family="Helvetica,sans-Serif" font-size="10.00">tcg_attr.c</text>
</a>
</g>
</g>
<!-- Node1&#45;&gt;Node5 -->
<g id="edge4" class="edge"><title>Node1&#45;&gt;Node5</title>
<path fill="none" stroke="midnightblue" d="M224.389,-53.172C253.952,-43.0039 295.873,-28.5852 322.239,-19.5164"/>
<polygon fill="midnightblue" stroke="midnightblue" points="223.195,-49.8813 214.877,-56.4435 225.472,-56.5007 223.195,-49.8813"/>
</g>
</g>
</svg>
