<?xml version="1.0" encoding="UTF-8" standalone="no"?>
<!DOCTYPE svg PUBLIC "-//W3C//DTD SVG 1.1//EN"
 "http://www.w3.org/Graphics/SVG/1.1/DTD/svg11.dtd">
<!-- Generated by graphviz version 2.36.0 (20140111.2315)
 -->
<!-- Title: purge Pages: 1 -->
<svg width="524pt" height="85pt"
 viewBox="0.00 0.00 524.00 85.00" xmlns="http://www.w3.org/2000/svg" xmlns:xlink="http://www.w3.org/1999/xlink">
<g id="graph0" class="graph" transform="scale(1 1) rotate(0) translate(4 81)">
<title>purge</title>
<!-- Node1 -->
<g id="node1" class="node"><title>Node1</title>
<polygon fill="#bfbfbf" stroke="black" points="0.5,-19.5 0.5,-38.5 41.5,-38.5 41.5,-19.5 0.5,-19.5"/>
<text text-anchor="middle" x="21" y="-26.5" font-family="Helvetica,sans-Serif" font-size="10.00">purge</text>
</g>
<!-- Node2 -->
<g id="node2" class="node"><title>Node2</title>
<g id="a_node2"><a xlink:href="../../d4/de5/pool_8c.html#af124cd71b9027deb4a9199eb62c0ac70" target="_top" xlink:title="do_args">
<polygon fill="none" stroke="black" points="82.5,-38.5 82.5,-57.5 133.5,-57.5 133.5,-38.5 82.5,-38.5"/>
<text text-anchor="middle" x="108" y="-45.5" font-family="Helvetica,sans-Serif" font-size="10.00">do_args</text>
</a>
</g>
</g>
<!-- Node1&#45;&gt;Node2 -->
<g id="edge1" class="edge"><title>Node1&#45;&gt;Node2</title>
<path fill="none" stroke="midnightblue" d="M51.634,-35.6241C61.6169,-37.8555 72.6454,-40.3207 82.2146,-42.4597"/>
<polygon fill="midnightblue" stroke="midnightblue" points="52.2371,-32.1726 41.7144,-33.4067 50.71,-39.004 52.2371,-32.1726"/>
</g>
<!-- Node8 -->
<g id="node8" class="node"><title>Node8</title>
<g id="a_node8"><a xlink:href="../../df/d31/auth__cfg_8c.html#a40d775250d33eb2cf23b02b12e471a36" target="_top" xlink:title="METHOD">
<polygon fill="none" stroke="black" points="78,-0.5 78,-19.5 138,-19.5 138,-0.5 78,-0.5"/>
<text text-anchor="middle" x="108" y="-7.5" font-family="Helvetica,sans-Serif" font-size="10.00">METHOD</text>
</a>
</g>
</g>
<!-- Node1&#45;&gt;Node8 -->
<g id="edge8" class="edge"><title>Node1&#45;&gt;Node8</title>
<path fill="none" stroke="midnightblue" d="M51.5674,-22.3908C60.0375,-20.4975 69.2652,-18.4348 77.7181,-16.5454"/>
<polygon fill="midnightblue" stroke="midnightblue" points="50.71,-18.996 41.7144,-24.5933 52.2371,-25.8274 50.71,-18.996"/>
</g>
<!-- Node3 -->
<g id="node3" class="node"><title>Node3</title>
<g id="a_node3"><a xlink:href="../../d4/de5/pool_8c.html#a98be8995305549fb26164b966a501503" target="_top" xlink:title="batch">
<polygon fill="none" stroke="black" points="174.5,-38.5 174.5,-57.5 215.5,-57.5 215.5,-38.5 174.5,-38.5"/>
<text text-anchor="middle" x="195" y="-45.5" font-family="Helvetica,sans-Serif" font-size="10.00">batch</text>
</a>
</g>
</g>
<!-- Node2&#45;&gt;Node3 -->
<g id="edge2" class="edge"><title>Node2&#45;&gt;Node3</title>
<path fill="none" stroke="midnightblue" d="M143.705,-41.3519C154.138,-41.0763 165.22,-41.3597 174.319,-42.2023"/>
<polygon fill="midnightblue" stroke="midnightblue" points="143.415,-37.8614 133.586,-41.814 143.735,-44.8541 143.415,-37.8614"/>
</g>
<!-- Node7 -->
<g id="node7" class="node"><title>Node7</title>
<g id="a_node7"><a xlink:href="../../d4/de5/pool_8c.html#a0ddf1224851353fc92bfbff6f499fa97" target="_top" xlink:title="main">
<polygon fill="none" stroke="black" points="176,-0.5 176,-19.5 214,-19.5 214,-0.5 176,-0.5"/>
<text text-anchor="middle" x="195" y="-7.5" font-family="Helvetica,sans-Serif" font-size="10.00">main</text>
</a>
</g>
</g>
<!-- Node2&#45;&gt;Node7 -->
<g id="edge7" class="edge"><title>Node2&#45;&gt;Node7</title>
<path fill="none" stroke="midnightblue" d="M139.747,-34.2543C151.81,-28.8614 165.244,-22.8556 175.726,-18.1695"/>
<polygon fill="midnightblue" stroke="midnightblue" points="138.15,-31.1344 130.449,-38.411 141.007,-37.5249 138.15,-31.1344"/>
</g>
<!-- Node3&#45;&gt;Node2 -->
<g id="edge5" class="edge"><title>Node3&#45;&gt;Node2</title>
<path fill="none" stroke="midnightblue" d="M164.34,-54.4684C154.294,-54.9218 143.192,-54.8277 133.586,-54.186"/>
<polygon fill="midnightblue" stroke="midnightblue" points="164.576,-57.9605 174.319,-53.7977 164.107,-50.9763 164.576,-57.9605"/>
</g>
<!-- Node4 -->
<g id="node4" class="node"><title>Node4</title>
<g id="a_node4"><a xlink:href="../../d6/dad/tnccs__11_8c.html#ac5adc733f4793916ccd01c0c2cfc185d" target="_top" xlink:title="check_and_build_recommendation">
<polygon fill="none" stroke="black" points="252.5,-57.5 252.5,-76.5 419.5,-76.5 419.5,-57.5 252.5,-57.5"/>
<text text-anchor="middle" x="336" y="-64.5" font-family="Helvetica,sans-Serif" font-size="10.00">check_and_build_recommendation</text>
</a>
</g>
</g>
<!-- Node3&#45;&gt;Node4 -->
<g id="edge3" class="edge"><title>Node3&#45;&gt;Node4</title>
<path fill="none" stroke="midnightblue" d="M225.649,-52.0527C237.334,-53.65 251.29,-55.5576 265.258,-57.4669"/>
<polygon fill="midnightblue" stroke="midnightblue" points="226.002,-48.5686 215.62,-50.6819 225.054,-55.5041 226.002,-48.5686"/>
</g>
<!-- Node6 -->
<g id="node6" class="node"><title>Node6</title>
<g id="a_node6"><a xlink:href="../../d6/dad/tnccs__11_8c.html#a7c1ab79b55a15bd474230d66c7a5202c" target="_top" xlink:title="METHOD">
<polygon fill="none" stroke="black" points="306,-19.5 306,-38.5 366,-38.5 366,-19.5 306,-19.5"/>
<text text-anchor="middle" x="336" y="-26.5" font-family="Helvetica,sans-Serif" font-size="10.00">METHOD</text>
</a>
</g>
</g>
<!-- Node3&#45;&gt;Node6 -->
<g id="edge6" class="edge"><title>Node3&#45;&gt;Node6</title>
<path fill="none" stroke="midnightblue" d="M225.767,-43.9311C249.411,-40.6992 282.294,-36.2044 305.791,-32.9926"/>
<polygon fill="midnightblue" stroke="midnightblue" points="225.054,-40.4959 215.62,-45.3181 226.002,-47.4314 225.054,-40.4959"/>
</g>
<!-- Node5 -->
<g id="node5" class="node"><title>Node5</title>
<g id="a_node5"><a xlink:href="../../d6/dad/tnccs__11_8c.html#ad9280d69aa4c1159a11ab577031d85db" target="_top" xlink:title="METHOD">
<polygon fill="none" stroke="black" points="456,-57.5 456,-76.5 516,-76.5 516,-57.5 456,-57.5"/>
<text text-anchor="middle" x="486" y="-64.5" font-family="Helvetica,sans-Serif" font-size="10.00">METHOD</text>
</a>
</g>
</g>
<!-- Node4&#45;&gt;Node5 -->
<g id="edge4" class="edge"><title>Node4&#45;&gt;Node5</title>
<path fill="none" stroke="midnightblue" d="M429.889,-67C439.195,-67 448.074,-67 455.881,-67"/>
<polygon fill="midnightblue" stroke="midnightblue" points="429.654,-63.5001 419.654,-67 429.654,-70.5001 429.654,-63.5001"/>
</g>
</g>
</svg>
