<?xml version="1.0" encoding="UTF-8" standalone="no"?>
<!DOCTYPE svg PUBLIC "-//W3C//DTD SVG 1.1//EN"
 "http://www.w3.org/Graphics/SVG/1.1/DTD/svg11.dtd">
<!-- Generated by graphviz version 2.36.0 (20140111.2315)
 -->
<!-- Title: get_ike_match Pages: 1 -->
<svg width="1194pt" height="174pt"
 viewBox="0.00 0.00 1194.00 173.72" xmlns="http://www.w3.org/2000/svg" xmlns:xlink="http://www.w3.org/1999/xlink">
<g id="graph0" class="graph" transform="scale(1 1) rotate(0) translate(4 169.721)">
<title>get_ike_match</title>
<!-- Node1 -->
<g id="node1" class="node"><title>Node1</title>
<polygon fill="#bfbfbf" stroke="black" points="0,-13.2208 0,-32.2208 80,-32.2208 80,-13.2208 0,-13.2208"/>
<text text-anchor="middle" x="40" y="-20.2208" font-family="Helvetica,sans-Serif" font-size="10.00">get_ike_match</text>
</g>
<!-- Node2 -->
<g id="node2" class="node"><title>Node2</title>
<g id="a_node2"><a xlink:href="../../d4/d7b/ike__cfg_8c.html#afd2ad039e594563627520b9a6908b6c5" target="_top" xlink:title="match">
<polygon fill="none" stroke="black" points="116,-13.2208 116,-32.2208 160,-32.2208 160,-13.2208 116,-13.2208"/>
<text text-anchor="middle" x="138" y="-20.2208" font-family="Helvetica,sans-Serif" font-size="10.00">match</text>
</a>
</g>
</g>
<!-- Node1&#45;&gt;Node2 -->
<g id="edge1" class="edge"><title>Node1&#45;&gt;Node2</title>
<path fill="none" stroke="midnightblue" d="M80.0469,-22.7208C88.565,-22.7208 97.4732,-22.7208 105.646,-22.7208"/>
<polygon fill="midnightblue" stroke="midnightblue" points="105.873,-26.2209 115.873,-22.7208 105.873,-19.2209 105.873,-26.2209"/>
</g>
<!-- Node3 -->
<g id="node3" class="node"><title>Node3</title>
<g id="a_node3"><a xlink:href="../../d7/df1/group__host.html#gaa0dc359dc1c8e327bb484e3e12df59d7" target="_top" xlink:title="host_create_from_dns">
<polygon fill="none" stroke="black" points="196.5,-13.2208 196.5,-32.2208 309.5,-32.2208 309.5,-13.2208 196.5,-13.2208"/>
<text text-anchor="middle" x="253" y="-20.2208" font-family="Helvetica,sans-Serif" font-size="10.00">host_create_from_dns</text>
</a>
</g>
</g>
<!-- Node2&#45;&gt;Node3 -->
<g id="edge2" class="edge"><title>Node2&#45;&gt;Node3</title>
<path fill="none" stroke="midnightblue" d="M160.254,-22.7208C167.766,-22.7208 176.663,-22.7208 185.912,-22.7208"/>
<polygon fill="midnightblue" stroke="midnightblue" points="186.038,-26.2209 196.038,-22.7208 186.038,-19.2209 186.038,-26.2209"/>
</g>
<!-- Node4 -->
<g id="node4" class="node"><title>Node4</title>
<g id="a_node4"><a xlink:href="../../d7/df1/group__host.html#ga75f9b1e7905a80d69bc3cc7a7c3775a5" target="_top" xlink:title="host_create_from_string\l_and_family">
<polygon fill="none" stroke="black" points="346,-45.7208 346,-75.7208 468,-75.7208 468,-45.7208 346,-45.7208"/>
<text text-anchor="start" x="354" y="-63.7208" font-family="Helvetica,sans-Serif" font-size="10.00">host_create_from_string</text>
<text text-anchor="middle" x="407" y="-52.7208" font-family="Helvetica,sans-Serif" font-size="10.00">_and_family</text>
</a>
</g>
</g>
<!-- Node3&#45;&gt;Node4 -->
<g id="edge3" class="edge"><title>Node3&#45;&gt;Node4</title>
<path fill="none" stroke="midnightblue" d="M292.356,-32.3098C305.63,-35.6284 320.955,-39.4595 335.967,-43.2125"/>
<polygon fill="midnightblue" stroke="midnightblue" points="335.212,-46.6313 345.762,-45.6613 336.909,-39.8403 335.212,-46.6313"/>
</g>
<!-- Node14 -->
<g id="node14" class="node"><title>Node14</title>
<g id="a_node14"><a xlink:href="../../d9/dbc/kernel__pfkey__ipsec_8c.html#a5da61ec055ea1dffbb84ffe3caddb7dc" target="_top" xlink:title="set_port">
<polygon fill="none" stroke="black" points="693,-13.2208 693,-32.2208 745,-32.2208 745,-13.2208 693,-13.2208"/>
<text text-anchor="middle" x="719" y="-20.2208" font-family="Helvetica,sans-Serif" font-size="10.00">set_port</text>
</a>
</g>
</g>
<!-- Node3&#45;&gt;Node14 -->
<g id="edge20" class="edge"><title>Node3&#45;&gt;Node14</title>
<path fill="none" stroke="midnightblue" d="M309.597,-14.8663C380.403,-5.99307 506.478,6.02033 614,-3.72079 637.194,-5.82205 662.944,-10.5078 683.019,-14.7"/>
<polygon fill="midnightblue" stroke="midnightblue" points="682.445,-18.1563 692.957,-16.8309 683.913,-11.3119 682.445,-18.1563"/>
</g>
<!-- Node5 -->
<g id="node5" class="node"><title>Node5</title>
<g id="a_node5"><a xlink:href="../../d4/d40/group__string__i.html#ga65c3d08890165aaa4663c72d07f93bb7" target="_top" xlink:title="streq">
<polygon fill="none" stroke="black" points="540,-13.2208 540,-32.2208 578,-32.2208 578,-13.2208 540,-13.2208"/>
<text text-anchor="middle" x="559" y="-20.2208" font-family="Helvetica,sans-Serif" font-size="10.00">streq</text>
</a>
</g>
</g>
<!-- Node4&#45;&gt;Node5 -->
<g id="edge4" class="edge"><title>Node4&#45;&gt;Node5</title>
<path fill="none" stroke="midnightblue" d="M467.284,-45.7022C488.714,-40.2734 511.935,-34.3905 529.519,-29.9359"/>
<polygon fill="midnightblue" stroke="midnightblue" points="530.838,-33.2124 539.673,-27.3637 529.119,-26.4267 530.838,-33.2124"/>
</g>
<!-- Node6 -->
<g id="node6" class="node"><title>Node6</title>
<g id="a_node6"><a xlink:href="../../df/da9/host_8c.html#a2670c8aac87ed6960c4e45f42f843b73" target="_top" xlink:title="host_create_any_port">
<polygon fill="none" stroke="black" points="504,-89.2208 504,-108.221 614,-108.221 614,-89.2208 504,-89.2208"/>
<text text-anchor="middle" x="559" y="-96.2208" font-family="Helvetica,sans-Serif" font-size="10.00">host_create_any_port</text>
</a>
</g>
</g>
<!-- Node4&#45;&gt;Node6 -->
<g id="edge5" class="edge"><title>Node4&#45;&gt;Node6</title>
<path fill="none" stroke="midnightblue" d="M467.284,-75.7394C481.649,-79.3786 496.82,-83.2218 510.558,-86.7021"/>
<polygon fill="midnightblue" stroke="midnightblue" points="509.722,-90.101 520.276,-89.164 511.442,-83.3153 509.722,-90.101"/>
</g>
<!-- Node15 -->
<g id="node15" class="node"><title>Node15</title>
<g id="a_node15"><a xlink:href="../../da/d9b/group__windows.html#ga7fb1f8a8f40e09fa09e625d2a09dc04e" target="_top" xlink:title="inet_pton">
<polygon fill="none" stroke="black" points="531,-51.2208 531,-70.2208 587,-70.2208 587,-51.2208 531,-51.2208"/>
<text text-anchor="middle" x="559" y="-58.2208" font-family="Helvetica,sans-Serif" font-size="10.00">inet_pton</text>
</a>
</g>
</g>
<!-- Node4&#45;&gt;Node15 -->
<g id="edge15" class="edge"><title>Node4&#45;&gt;Node15</title>
<path fill="none" stroke="midnightblue" d="M468.146,-60.7208C485.762,-60.7208 504.516,-60.7208 520.309,-60.7208"/>
<polygon fill="midnightblue" stroke="midnightblue" points="520.719,-64.2209 530.719,-60.7208 520.719,-57.2209 520.719,-64.2209"/>
</g>
<!-- Node16 -->
<g id="node16" class="node"><title>Node16</title>
<g id="a_node16"><a xlink:href="../../d7/df1/group__host.html#ga3183b60055297ceaa19b4a5996496830" target="_top" xlink:title="host_create_from_sockaddr">
<polygon fill="none" stroke="black" points="650.5,-127.221 650.5,-146.221 787.5,-146.221 787.5,-127.221 650.5,-127.221"/>
<text text-anchor="middle" x="719" y="-134.221" font-family="Helvetica,sans-Serif" font-size="10.00">host_create_from_sockaddr</text>
</a>
</g>
</g>
<!-- Node4&#45;&gt;Node16 -->
<g id="edge16" class="edge"><title>Node4&#45;&gt;Node16</title>
<path fill="none" stroke="midnightblue" d="M427.329,-75.7671C445.87,-89.299 475.224,-108.434 504,-117.721 547.778,-131.849 599.043,-136.775 640.42,-138.085"/>
<polygon fill="midnightblue" stroke="midnightblue" points="640.359,-141.584 650.444,-138.338 640.536,-134.587 640.359,-141.584"/>
</g>
<!-- Node7 -->
<g id="node7" class="node"><title>Node7</title>
<g id="a_node7"><a xlink:href="../../d7/df1/group__host.html#ga5f2c94740339664ce118776e13829cd0" target="_top" xlink:title="host_create_any">
<polygon fill="none" stroke="black" points="674.5,-89.2208 674.5,-108.221 763.5,-108.221 763.5,-89.2208 674.5,-89.2208"/>
<text text-anchor="middle" x="719" y="-96.2208" font-family="Helvetica,sans-Serif" font-size="10.00">host_create_any</text>
</a>
</g>
</g>
<!-- Node6&#45;&gt;Node7 -->
<g id="edge6" class="edge"><title>Node6&#45;&gt;Node7</title>
<path fill="none" stroke="midnightblue" d="M614.375,-98.7208C630.484,-98.7208 648.112,-98.7208 664.186,-98.7208"/>
<polygon fill="midnightblue" stroke="midnightblue" points="664.493,-102.221 674.493,-98.7208 664.493,-95.2209 664.493,-102.221"/>
</g>
<!-- Node6&#45;&gt;Node14 -->
<g id="edge14" class="edge"><title>Node6&#45;&gt;Node14</title>
<path fill="none" stroke="midnightblue" d="M590.05,-89.1237C597.942,-86.3391 606.377,-83.1237 614,-79.7208 642.207,-67.1298 673.07,-49.7207 693.79,-37.4647"/>
<polygon fill="midnightblue" stroke="midnightblue" points="695.759,-40.3649 702.549,-32.232 692.17,-34.3554 695.759,-40.3649"/>
</g>
<!-- Node8 -->
<g id="node8" class="node"><title>Node8</title>
<g id="a_node8"><a xlink:href="../../df/da9/host_8c.html#ac3854e66d5a7563cae9608acbcad6eb5" target="_top" xlink:title="host_create_empty">
<polygon fill="none" stroke="black" points="824,-146.221 824,-165.221 924,-165.221 924,-146.221 824,-146.221"/>
<text text-anchor="middle" x="874" y="-153.221" font-family="Helvetica,sans-Serif" font-size="10.00">host_create_empty</text>
</a>
</g>
</g>
<!-- Node7&#45;&gt;Node8 -->
<g id="edge7" class="edge"><title>Node7&#45;&gt;Node8</title>
<path fill="none" stroke="midnightblue" d="M759.668,-108.271C769.084,-110.956 779.004,-114.138 788,-117.721 804.808,-124.415 807.538,-129.216 824,-136.721 828.224,-138.646 832.704,-140.557 837.172,-142.383"/>
<polygon fill="midnightblue" stroke="midnightblue" points="836.243,-145.779 846.828,-146.216 838.825,-139.273 836.243,-145.779"/>
</g>
<!-- Node12 -->
<g id="node12" class="node"><title>Node12</title>
<g id="a_node12"><a xlink:href="../../df/da9/host_8c.html#a1fb6a6590d2576c32709b890623cad8c" target="_top" xlink:title="update_sa_len">
<polygon fill="none" stroke="black" points="834,-108.221 834,-127.221 914,-127.221 914,-108.221 834,-108.221"/>
<text text-anchor="middle" x="874" y="-115.221" font-family="Helvetica,sans-Serif" font-size="10.00">update_sa_len</text>
</a>
</g>
</g>
<!-- Node7&#45;&gt;Node12 -->
<g id="edge12" class="edge"><title>Node7&#45;&gt;Node12</title>
<path fill="none" stroke="midnightblue" d="M763.844,-104.165C782.556,-106.489 804.478,-109.212 823.747,-111.604"/>
<polygon fill="midnightblue" stroke="midnightblue" points="823.49,-115.099 833.845,-112.858 824.353,-108.153 823.49,-115.099"/>
</g>
<!-- Node13 -->
<g id="node13" class="node"><title>Node13</title>
<g id="a_node13"><a xlink:href="../../da/dfc/settings__parser_8c.html#af07d89f5ceaea0c7c8252cc41fd75f37" target="_top" xlink:title="free">
<polygon fill="none" stroke="black" points="857.5,-70.2208 857.5,-89.2208 890.5,-89.2208 890.5,-70.2208 857.5,-70.2208"/>
<text text-anchor="middle" x="874" y="-77.2208" font-family="Helvetica,sans-Serif" font-size="10.00">free</text>
</a>
</g>
</g>
<!-- Node7&#45;&gt;Node13 -->
<g id="edge13" class="edge"><title>Node7&#45;&gt;Node13</title>
<path fill="none" stroke="midnightblue" d="M763.844,-93.2762C790.707,-89.9402 824.185,-85.7828 846.932,-82.958"/>
<polygon fill="midnightblue" stroke="midnightblue" points="847.669,-86.3935 857.161,-81.6877 846.806,-79.4468 847.669,-86.3935"/>
</g>
<!-- Node9 -->
<g id="node9" class="node"><title>Node9</title>
<g id="a_node9"><a xlink:href="../../df/da9/host_8c.html#a0ea5fbf16ec81f3c5eaf6dc5da8d452a" target="_top" xlink:title="ip_equals">
<polygon fill="none" stroke="black" points="1042,-146.221 1042,-165.221 1100,-165.221 1100,-146.221 1042,-146.221"/>
<text text-anchor="middle" x="1071" y="-153.221" font-family="Helvetica,sans-Serif" font-size="10.00">ip_equals</text>
</a>
</g>
</g>
<!-- Node8&#45;&gt;Node9 -->
<g id="edge8" class="edge"><title>Node8&#45;&gt;Node9</title>
<path fill="none" stroke="midnightblue" d="M924.207,-155.721C957.513,-155.721 1000.88,-155.721 1031.63,-155.721"/>
<polygon fill="midnightblue" stroke="midnightblue" points="1031.94,-159.221 1041.94,-155.721 1031.94,-152.221 1031.94,-159.221"/>
</g>
<!-- Node11 -->
<g id="node11" class="node"><title>Node11</title>
<g id="a_node11"><a xlink:href="../../df/da9/host_8c.html#a809d5cf7574c1f5e27758950d53653f4" target="_top" xlink:title="equals">
<polygon fill="none" stroke="black" points="960.5,-127.221 960.5,-146.221 1005.5,-146.221 1005.5,-127.221 960.5,-127.221"/>
<text text-anchor="middle" x="983" y="-134.221" font-family="Helvetica,sans-Serif" font-size="10.00">equals</text>
</a>
</g>
</g>
<!-- Node8&#45;&gt;Node11 -->
<g id="edge10" class="edge"><title>Node8&#45;&gt;Node11</title>
<path fill="none" stroke="midnightblue" d="M924.116,-146.999C933.078,-145.408 942.205,-143.787 950.482,-142.317"/>
<polygon fill="midnightblue" stroke="midnightblue" points="951.201,-145.745 960.435,-140.55 949.978,-138.852 951.201,-145.745"/>
</g>
<!-- Node10 -->
<g id="node10" class="node"><title>Node10</title>
<g id="a_node10"><a xlink:href="../../dd/d74/group__memory__i.html#ga46d7935db00fd7092430dbf4f36c2850" target="_top" xlink:title="memeq">
<polygon fill="none" stroke="black" points="1136.5,-146.221 1136.5,-165.221 1185.5,-165.221 1185.5,-146.221 1136.5,-146.221"/>
<text text-anchor="middle" x="1161" y="-153.221" font-family="Helvetica,sans-Serif" font-size="10.00">memeq</text>
</a>
</g>
</g>
<!-- Node9&#45;&gt;Node10 -->
<g id="edge9" class="edge"><title>Node9&#45;&gt;Node10</title>
<path fill="none" stroke="midnightblue" d="M1100.33,-155.721C1108.62,-155.721 1117.76,-155.721 1126.34,-155.721"/>
<polygon fill="midnightblue" stroke="midnightblue" points="1126.44,-159.221 1136.44,-155.721 1126.44,-152.221 1126.44,-159.221"/>
</g>
<!-- Node11&#45;&gt;Node9 -->
<g id="edge11" class="edge"><title>Node11&#45;&gt;Node9</title>
<path fill="none" stroke="midnightblue" d="M1005.7,-141.515C1013.66,-143.273 1022.91,-145.317 1031.88,-147.298"/>
<polygon fill="midnightblue" stroke="midnightblue" points="1031.28,-150.75 1041.8,-149.49 1032.79,-143.915 1031.28,-150.75"/>
</g>
<!-- Node16&#45;&gt;Node8 -->
<g id="edge17" class="edge"><title>Node16&#45;&gt;Node8</title>
<path fill="none" stroke="midnightblue" d="M787.553,-145.11C796.204,-146.184 805.009,-147.278 813.519,-148.334"/>
<polygon fill="midnightblue" stroke="midnightblue" points="813.366,-151.842 823.721,-149.601 814.229,-144.895 813.366,-151.842"/>
</g>
<!-- Node16&#45;&gt;Node12 -->
<g id="edge18" class="edge"><title>Node16&#45;&gt;Node12</title>
<path fill="none" stroke="midnightblue" d="M787.553,-128.332C799.689,-126.825 812.129,-125.28 823.629,-123.852"/>
<polygon fill="midnightblue" stroke="midnightblue" points="824.398,-127.283 833.89,-122.578 823.535,-120.337 824.398,-127.283"/>
</g>
<!-- Node16&#45;&gt;Node13 -->
<g id="edge19" class="edge"><title>Node16&#45;&gt;Node13</title>
<path fill="none" stroke="midnightblue" d="M759.668,-127.171C769.084,-124.485 779.004,-121.304 788,-117.721 804.808,-111.026 807.538,-106.226 824,-98.7208 831.62,-95.2469 840.074,-91.8217 847.785,-88.8568"/>
<polygon fill="midnightblue" stroke="midnightblue" points="849.231,-92.0525 857.361,-85.259 846.769,-85.4997 849.231,-92.0525"/>
</g>
</g>
</svg>
