<?xml version="1.0" encoding="UTF-8" standalone="no"?>
<!DOCTYPE svg PUBLIC "-//W3C//DTD SVG 1.1//EN"
 "http://www.w3.org/Graphics/SVG/1.1/DTD/svg11.dtd">
<!-- Generated by graphviz version 2.36.0 (20140111.2315)
 -->
<!-- Title: generate_message Pages: 1 -->
<!--zoomable 256 -->
<svg id="main" version="1.1" xmlns="http://www.w3.org/2000/svg" xmlns:xlink="http://www.w3.org/1999/xlink" xml:space="preserve" onload="init(evt)">
<style type="text/css"><![CDATA[
.edge:hover path { stroke: red; }
.edge:hover polygon { stroke: red; fill: red; }
]]></style>
<script type="text/javascript"><![CDATA[
var edges = document.getElementsByTagName('g');
if (edges && edges.length) {
  for (var i=0;i<edges.length;i++) {
    if (edges[i].id.substr(0,4)=='edge') {
      edges[i].setAttribute('class','edge');
    }
  }
}
]]></script>
        <defs>
                <circle id="rim" cx="0" cy="0" r="7"/>
                <circle id="rim2" cx="0" cy="0" r="3.5"/>
                <g id="zoomPlus">
                        <use xlink:href="#rim" fill="#404040">
                                <set attributeName="fill" to="#808080" begin="zoomplus.mouseover" end="zoomplus.mouseout"/>
                        </use>
                        <path d="M-4,0h8M0,-4v8" fill="none" stroke="white" stroke-width="1.5" pointer-events="none"/>
                </g>
                <g id="zoomMin">
                        <use xlink:href="#rim" fill="#404040">
                                <set attributeName="fill" to="#808080" begin="zoomminus.mouseover" end="zoomminus.mouseout"/>
                        </use>
                        <path d="M-4,0h8" fill="none" stroke="white" stroke-width="1.5" pointer-events="none"/>
                </g>
                <g id="dirArrow">
                        <path fill="none" stroke="white" stroke-width="1.5" d="M0,-3.0v7 M-2.5,-0.5L0,-3.0L2.5,-0.5"/>
                </g>
               <g id="resetDef">
                       <use xlink:href="#rim2" fill="#404040">
                               <set attributeName="fill" to="#808080" begin="reset.mouseover" end="reset.mouseout"/>
                       </use>
               </g>
        </defs>

<script type="text/javascript">
var viewWidth = 676;
var viewHeight = 256;
var sectionId = 'dynsection-7';
</script>
<script xlink:href="../../svgpan.js"/>
<svg id="graph" class="graph">
<g id="viewport">
<title>generate_message</title>
<!-- Node1 -->
<g id="node1" class="node"><title>Node1</title>
<polygon fill="#bfbfbf" stroke="black" points="0.5,-194.5 0.5,-213.5 99.5,-213.5 99.5,-194.5 0.5,-194.5"/>
<text text-anchor="middle" x="50" y="-201.5" font-family="Helvetica,sans-Serif" font-size="10.00">generate_message</text>
</g>
<!-- Node2 -->
<g id="node2" class="node"><title>Node2</title>
<g id="a_node2"><a xlink:href="../../d1/d0e/group__array.html#ga26cb748cd8a50b54dfa0b21dca9deff8" target="_top" xlink:title="array_compress">
<polygon fill="none" stroke="black" points="143,-218.5 143,-237.5 229,-237.5 229,-218.5 143,-218.5"/>
<text text-anchor="middle" x="186" y="-225.5" font-family="Helvetica,sans-Serif" font-size="10.00">array_compress</text>
</a>
</g>
</g>
<!-- Node1&#45;&gt;Node2 -->
<g id="edge1" class="edge"><title>Node1&#45;&gt;Node2</title>
<path fill="none" stroke="midnightblue" d="M99.7561,-212.732C110.417,-214.642 121.746,-216.671 132.544,-218.605"/>
<polygon fill="midnightblue" stroke="midnightblue" points="132.236,-222.105 142.696,-220.423 133.47,-215.215 132.236,-222.105"/>
</g>
<!-- Node4 -->
<g id="node4" class="node"><title>Node4</title>
<g id="a_node4"><a xlink:href="../../d1/d0e/group__array.html#gad2155c6672a55d685efbd8737b7873f8" target="_top" xlink:title="array_insert_create">
<polygon fill="none" stroke="black" points="136,-171.5 136,-190.5 236,-190.5 236,-171.5 136,-171.5"/>
<text text-anchor="middle" x="186" y="-178.5" font-family="Helvetica,sans-Serif" font-size="10.00">array_insert_create</text>
</a>
</g>
</g>
<!-- Node1&#45;&gt;Node4 -->
<g id="edge3" class="edge"><title>Node1&#45;&gt;Node4</title>
<path fill="none" stroke="midnightblue" d="M99.7561,-195.631C108.147,-194.191 116.95,-192.68 125.584,-191.198"/>
<polygon fill="midnightblue" stroke="midnightblue" points="126.342,-194.619 135.606,-189.478 125.158,-187.72 126.342,-194.619"/>
</g>
<!-- Node3 -->
<g id="node3" class="node"><title>Node3</title>
<g id="a_node3"><a xlink:href="../../dc/dcc/array_8c.html#a1814774789ffaf948b25734a7dd0f3ed" target="_top" xlink:title="get_size">
<polygon fill="none" stroke="black" points="614.5,-114.5 614.5,-133.5 667.5,-133.5 667.5,-114.5 614.5,-114.5"/>
<text text-anchor="middle" x="641" y="-121.5" font-family="Helvetica,sans-Serif" font-size="10.00">get_size</text>
</a>
</g>
</g>
<!-- Node2&#45;&gt;Node3 -->
<g id="edge2" class="edge"><title>Node2&#45;&gt;Node3</title>
<path fill="none" stroke="midnightblue" d="M229.084,-236.13C304.141,-248.407 463.918,-264.323 578,-204 603.281,-190.632 621.476,-161.928 631.377,-142.79"/>
<polygon fill="midnightblue" stroke="midnightblue" points="634.651,-144.063 635.905,-133.543 628.364,-140.985 634.651,-144.063"/>
</g>
<!-- Node5 -->
<g id="node5" class="node"><title>Node5</title>
<g id="a_node5"><a xlink:href="../../d1/d0e/group__array.html#ga9acc78bc2e06102ff37133b5aa0e0a4f" target="_top" xlink:title="array_create">
<polygon fill="none" stroke="black" points="272.5,-171.5 272.5,-190.5 343.5,-190.5 343.5,-171.5 272.5,-171.5"/>
<text text-anchor="middle" x="308" y="-178.5" font-family="Helvetica,sans-Serif" font-size="10.00">array_create</text>
</a>
</g>
</g>
<!-- Node4&#45;&gt;Node5 -->
<g id="edge4" class="edge"><title>Node4&#45;&gt;Node5</title>
<path fill="none" stroke="midnightblue" d="M236.155,-181C244.806,-181 253.768,-181 262.289,-181"/>
<polygon fill="midnightblue" stroke="midnightblue" points="262.414,-184.5 272.414,-181 262.414,-177.5 262.414,-184.5"/>
</g>
<!-- Node7 -->
<g id="node7" class="node"><title>Node7</title>
<g id="a_node7"><a xlink:href="../../d1/d0e/group__array.html#ga47238d69e35235b059ea47cdd82120e2" target="_top" xlink:title="array_insert">
<polygon fill="none" stroke="black" points="274,-76.5 274,-95.5 342,-95.5 342,-76.5 274,-76.5"/>
<text text-anchor="middle" x="308" y="-83.5" font-family="Helvetica,sans-Serif" font-size="10.00">array_insert</text>
</a>
</g>
</g>
<!-- Node4&#45;&gt;Node7 -->
<g id="edge7" class="edge"><title>Node4&#45;&gt;Node7</title>
<path fill="none" stroke="midnightblue" d="M199.39,-171.191C220.067,-154.822 261.797,-121.786 286.78,-102.008"/>
<polygon fill="midnightblue" stroke="midnightblue" points="289.188,-104.565 294.856,-95.614 284.843,-99.0769 289.188,-104.565"/>
</g>
<!-- Node5&#45;&gt;Node3 -->
<g id="edge6" class="edge"><title>Node5&#45;&gt;Node3</title>
<path fill="none" stroke="midnightblue" d="M343.585,-188.738C396.256,-198.847 498.808,-211.871 578,-181 598.115,-173.159 615.652,-155.4 626.893,-141.773"/>
<polygon fill="midnightblue" stroke="midnightblue" points="629.917,-143.589 633.335,-133.561 624.409,-139.269 629.917,-143.589"/>
</g>
<!-- Node6 -->
<g id="node6" class="node"><title>Node6</title>
<g id="a_node6"><a xlink:href="../../da/dfc/settings__parser_8c.html#a5faf6a2d99f50a4655dd390199a8db7b" target="_top" xlink:title="malloc">
<polygon fill="none" stroke="black" points="391.5,-152.5 391.5,-171.5 436.5,-171.5 436.5,-152.5 391.5,-152.5"/>
<text text-anchor="middle" x="414" y="-159.5" font-family="Helvetica,sans-Serif" font-size="10.00">malloc</text>
</a>
</g>
</g>
<!-- Node5&#45;&gt;Node6 -->
<g id="edge5" class="edge"><title>Node5&#45;&gt;Node6</title>
<path fill="none" stroke="midnightblue" d="M343.63,-174.673C355.787,-172.452 369.375,-169.97 381.28,-167.795"/>
<polygon fill="midnightblue" stroke="midnightblue" points="382.024,-171.217 391.232,-165.977 380.766,-164.331 382.024,-171.217"/>
</g>
<!-- Node7&#45;&gt;Node3 -->
<g id="edge18" class="edge"><title>Node7&#45;&gt;Node3</title>
<path fill="none" stroke="midnightblue" d="M342.253,-89.8176C404.837,-97.0024 539.619,-112.476 604.146,-119.884"/>
<polygon fill="midnightblue" stroke="midnightblue" points="603.911,-123.38 614.245,-121.043 604.709,-116.425 603.911,-123.38"/>
</g>
<!-- Node8 -->
<g id="node8" class="node"><title>Node8</title>
<g id="a_node8"><a xlink:href="../../d1/d0e/group__array.html#ga37bb7fb1dde90d6fb84dac0027bb3606" target="_top" xlink:title="array_count">
<polygon fill="none" stroke="black" points="380,-0.5 380,-19.5 448,-19.5 448,-0.5 380,-0.5"/>
<text text-anchor="middle" x="414" y="-7.5" font-family="Helvetica,sans-Serif" font-size="10.00">array_count</text>
</a>
</g>
</g>
<!-- Node7&#45;&gt;Node8 -->
<g id="edge8" class="edge"><title>Node7&#45;&gt;Node8</title>
<path fill="none" stroke="midnightblue" d="M320.143,-76.1567C333.783,-64.3218 357.813,-44.1606 380,-29 382.101,-27.5641 384.317,-26.1303 386.565,-24.7305"/>
<polygon fill="midnightblue" stroke="midnightblue" points="388.427,-27.6955 395.223,-19.5677 384.842,-21.6833 388.427,-27.6955"/>
</g>
<!-- Node9 -->
<g id="node9" class="node"><title>Node9</title>
<g id="a_node9"><a xlink:href="../../dc/dcc/array_8c.html#ac4d67e4df8ac1f0185b4e122fdd39169" target="_top" xlink:title="insert_head">
<polygon fill="none" stroke="black" points="380.5,-38.5 380.5,-57.5 447.5,-57.5 447.5,-38.5 380.5,-38.5"/>
<text text-anchor="middle" x="414" y="-45.5" font-family="Helvetica,sans-Serif" font-size="10.00">insert_head</text>
</a>
</g>
</g>
<!-- Node7&#45;&gt;Node9 -->
<g id="edge9" class="edge"><title>Node7&#45;&gt;Node9</title>
<path fill="none" stroke="midnightblue" d="M335.244,-76.411C347.93,-71.7756 363.353,-66.1404 377.107,-61.1147"/>
<polygon fill="midnightblue" stroke="midnightblue" points="378.573,-64.3054 386.765,-57.5859 376.171,-57.7305 378.573,-64.3054"/>
</g>
<!-- Node12 -->
<g id="node12" class="node"><title>Node12</title>
<g id="a_node12"><a xlink:href="../../dc/dcc/array_8c.html#a7734db8d12ada729da8d593e21e9f161" target="_top" xlink:title="insert_tail">
<polygon fill="none" stroke="black" points="384.5,-114.5 384.5,-133.5 443.5,-133.5 443.5,-114.5 384.5,-114.5"/>
<text text-anchor="middle" x="414" y="-121.5" font-family="Helvetica,sans-Serif" font-size="10.00">insert_tail</text>
</a>
</g>
</g>
<!-- Node7&#45;&gt;Node12 -->
<g id="edge14" class="edge"><title>Node7&#45;&gt;Node12</title>
<path fill="none" stroke="midnightblue" d="M335.244,-95.589C347.93,-100.224 363.353,-105.86 377.107,-110.885"/>
<polygon fill="midnightblue" stroke="midnightblue" points="376.171,-114.269 386.765,-114.414 378.573,-107.695 376.171,-114.269"/>
</g>
<!-- Node9&#45;&gt;Node3 -->
<g id="edge10" class="edge"><title>Node9&#45;&gt;Node3</title>
<path fill="none" stroke="midnightblue" d="M447.693,-47.6536C481.683,-48.4497 535.728,-53.0187 578,-72 596.118,-80.1357 613.134,-95.1443 624.739,-106.954"/>
<polygon fill="midnightblue" stroke="midnightblue" points="622.446,-109.624 631.855,-114.494 627.537,-104.819 622.446,-109.624"/>
</g>
<!-- Node10 -->
<g id="node10" class="node"><title>Node10</title>
<g id="a_node10"><a xlink:href="../../dc/dcc/array_8c.html#a49bc76dddc601773d22e55854d80d599" target="_top" xlink:title="make_head_room">
<polygon fill="none" stroke="black" points="484,-0.5 484,-19.5 578,-19.5 578,-0.5 484,-0.5"/>
<text text-anchor="middle" x="531" y="-7.5" font-family="Helvetica,sans-Serif" font-size="10.00">make_head_room</text>
</a>
</g>
</g>
<!-- Node9&#45;&gt;Node10 -->
<g id="edge11" class="edge"><title>Node9&#45;&gt;Node10</title>
<path fill="none" stroke="midnightblue" d="M444.019,-38.411C458.32,-33.6856 475.765,-27.9211 491.195,-22.8226"/>
<polygon fill="midnightblue" stroke="midnightblue" points="492.593,-26.0468 500.99,-19.5859 490.397,-19.4002 492.593,-26.0468"/>
</g>
<!-- Node10&#45;&gt;Node3 -->
<g id="edge12" class="edge"><title>Node10&#45;&gt;Node3</title>
<path fill="none" stroke="midnightblue" d="M555.855,-19.6921C563.435,-23.4632 571.523,-28.2706 578,-34 601.342,-54.6481 620.254,-85.8492 630.812,-105.562"/>
<polygon fill="midnightblue" stroke="midnightblue" points="627.717,-107.198 635.429,-114.463 633.931,-103.975 627.717,-107.198"/>
</g>
<!-- Node11 -->
<g id="node11" class="node"><title>Node11</title>
<g id="a_node11"><a xlink:href="../../d3/d18/bio__writer_8c.html#ac0780abbf27cfe6586832be791da0554" target="_top" xlink:title="increase">
<polygon fill="none" stroke="black" points="614.5,-0.5 614.5,-19.5 667.5,-19.5 667.5,-0.5 614.5,-0.5"/>
<text text-anchor="middle" x="641" y="-7.5" font-family="Helvetica,sans-Serif" font-size="10.00">increase</text>
</a>
</g>
</g>
<!-- Node10&#45;&gt;Node11 -->
<g id="edge13" class="edge"><title>Node10&#45;&gt;Node11</title>
<path fill="none" stroke="midnightblue" d="M578.115,-10C586.822,-10 595.809,-10 604.144,-10"/>
<polygon fill="midnightblue" stroke="midnightblue" points="604.281,-13.5001 614.281,-10 604.281,-6.5001 604.281,-13.5001"/>
</g>
<!-- Node12&#45;&gt;Node3 -->
<g id="edge15" class="edge"><title>Node12&#45;&gt;Node3</title>
<path fill="none" stroke="midnightblue" d="M443.954,-124C484.94,-124 559.817,-124 604.226,-124"/>
<polygon fill="midnightblue" stroke="midnightblue" points="604.286,-127.5 614.286,-124 604.286,-120.5 604.286,-127.5"/>
</g>
<!-- Node13 -->
<g id="node13" class="node"><title>Node13</title>
<g id="a_node13"><a xlink:href="../../dc/dcc/array_8c.html#a0d1a5fbba30c6ff74cd9cfa9d2789952" target="_top" xlink:title="make_tail_room">
<polygon fill="none" stroke="black" points="488,-152.5 488,-171.5 574,-171.5 574,-152.5 488,-152.5"/>
<text text-anchor="middle" x="531" y="-159.5" font-family="Helvetica,sans-Serif" font-size="10.00">make_tail_room</text>
</a>
</g>
</g>
<!-- Node12&#45;&gt;Node13 -->
<g id="edge16" class="edge"><title>Node12&#45;&gt;Node13</title>
<path fill="none" stroke="midnightblue" d="M443.723,-133.491C458.13,-138.252 475.785,-144.086 491.363,-149.233"/>
<polygon fill="midnightblue" stroke="midnightblue" points="490.652,-152.684 501.245,-152.498 492.848,-146.037 490.652,-152.684"/>
</g>
<!-- Node13&#45;&gt;Node3 -->
<g id="edge17" class="edge"><title>Node13&#45;&gt;Node3</title>
<path fill="none" stroke="midnightblue" d="M559.253,-152.411C572.961,-147.588 589.746,-141.682 604.455,-136.507"/>
<polygon fill="midnightblue" stroke="midnightblue" points="605.971,-139.683 614.243,-133.063 603.648,-133.08 605.971,-139.683"/>
</g>
</g>
</svg>
        <g id="navigator" transform="translate(0 0)" fill="#404254">
                <rect fill="#f2f5e9" fill-opacity="0.5" stroke="#606060" stroke-width=".5" x="0" y="0" width="60" height="60"/>
                <use id="zoomplus" xlink:href="#zoomPlus" x="17" y="9" onmousedown="handleZoom(evt,'in')"/>
                <use id="zoomminus" xlink:href="#zoomMin" x="42" y="9" onmousedown="handleZoom(evt,'out')"/>
                <use id="reset" xlink:href="#resetDef" x="30" y="36" onmousedown="handleReset()"/>
                <g id="arrowUp" xlink:href="#dirArrow" transform="translate(30 24)" onmousedown="handlePan(0,-1)">
                  <use xlink:href="#rim" fill="#404040">
                        <set attributeName="fill" to="#808080" begin="arrowUp.mouseover" end="arrowUp.mouseout"/>
                  </use>
                  <path fill="none" stroke="white" stroke-width="1.5" d="M0,-3.0v7 M-2.5,-0.5L0,-3.0L2.5,-0.5"/>
                </g>
                <g id="arrowRight" xlink:href="#dirArrow" transform="rotate(90) translate(36 -43)" onmousedown="handlePan(1,0)">
                  <use xlink:href="#rim" fill="#404040">
                        <set attributeName="fill" to="#808080" begin="arrowRight.mouseover" end="arrowRight.mouseout"/>
                  </use>
                  <path fill="none" stroke="white" stroke-width="1.5" d="M0,-3.0v7 M-2.5,-0.5L0,-3.0L2.5,-0.5"/>
                </g>
                <g id="arrowDown" xlink:href="#dirArrow" transform="rotate(180) translate(-30 -48)" onmousedown="handlePan(0,1)">
                  <use xlink:href="#rim" fill="#404040">
                        <set attributeName="fill" to="#808080" begin="arrowDown.mouseover" end="arrowDown.mouseout"/>
                  </use>
                  <path fill="none" stroke="white" stroke-width="1.5" d="M0,-3.0v7 M-2.5,-0.5L0,-3.0L2.5,-0.5"/>
                </g>
                <g id="arrowLeft" xlink:href="#dirArrow" transform="rotate(270) translate(-36 17)" onmousedown="handlePan(-1,0)">
                  <use xlink:href="#rim" fill="#404040">
                        <set attributeName="fill" to="#808080" begin="arrowLeft.mouseover" end="arrowLeft.mouseout"/>
                  </use>
                  <path fill="none" stroke="white" stroke-width="1.5" d="M0,-3.0v7 M-2.5,-0.5L0,-3.0L2.5,-0.5"/>
                </g>
        </g>
        <svg viewBox="0 0 15 15" width="100%" height="30px" preserveAspectRatio="xMaxYMin meet">
         <g id="arrow_out" transform="scale(0.3 0.3)">
          <a xlink:href="task__manager__v2_8c_a7062e59ff0a1af956240ed019a0eae96_cgraph_org.svg" target="_base">
           <rect id="button" ry="5" rx="5" y="6" x="6" height="38" width="38"
                fill="#f2f5e9" fill-opacity="0.5" stroke="#606060" stroke-width="1.0"/>
           <path id="arrow"
             d="M 11.500037,31.436501 C 11.940474,20.09759 22.043105,11.32322 32.158766,21.979434 L 37.068811,17.246167 C 37.068811,17.246167 37.088388,32 37.088388,32 L 22.160133,31.978069 C 22.160133,31.978069 26.997745,27.140456 26.997745,27.140456 C 18.528582,18.264221 13.291696,25.230495 11.500037,31.436501 z"
             style="fill:#404040;"/>
          </a>
         </g>
        </svg>
</svg>
