<?xml version="1.0" encoding="UTF-8" standalone="no"?>
<!DOCTYPE svg PUBLIC "-//W3C//DTD SVG 1.1//EN"
 "http://www.w3.org/Graphics/SVG/1.1/DTD/svg11.dtd">
<!-- Generated by graphviz version 2.36.0 (20140111.2315)
 -->
<!-- Title: event_cb Pages: 1 -->
<svg width="526pt" height="107pt"
 viewBox="0.00 0.00 526.00 107.00" xmlns="http://www.w3.org/2000/svg" xmlns:xlink="http://www.w3.org/1999/xlink">
<g id="graph0" class="graph" transform="scale(1 1) rotate(0) translate(4 103)">
<title>event_cb</title>
<!-- Node1 -->
<g id="node1" class="node"><title>Node1</title>
<polygon fill="#bfbfbf" stroke="black" points="0,-18.5 0,-37.5 56,-37.5 56,-18.5 0,-18.5"/>
<text text-anchor="middle" x="28" y="-25.5" font-family="Helvetica,sans-Serif" font-size="10.00">event_cb</text>
</g>
<!-- Node2 -->
<g id="node2" class="node"><title>Node2</title>
<g id="a_node2"><a xlink:href="../../dd/dd1/lookip__socket_8c.html#a1d878aa2d09ef45c5bc93f63341dad84" target="_top" xlink:title="disconnect">
<polygon fill="none" stroke="black" points="92,-18.5 92,-37.5 156,-37.5 156,-18.5 92,-18.5"/>
<text text-anchor="middle" x="124" y="-25.5" font-family="Helvetica,sans-Serif" font-size="10.00">disconnect</text>
</a>
</g>
</g>
<!-- Node1&#45;&gt;Node2 -->
<g id="edge1" class="edge"><title>Node1&#45;&gt;Node2</title>
<path fill="none" stroke="midnightblue" d="M56.1887,-28C64.217,-28 73.1892,-28 81.8881,-28"/>
<polygon fill="midnightblue" stroke="midnightblue" points="81.9013,-31.5001 91.9013,-28 81.9012,-24.5001 81.9013,-31.5001"/>
</g>
<!-- Node3 -->
<g id="node3" class="node"><title>Node3</title>
<g id="a_node3"><a xlink:href="../../d0/d8f/group__callback__job.html#ga6934f856d27d82413610263e27a5cfa1" target="_top" xlink:title="callback_job_create">
<polygon fill="none" stroke="black" points="192.5,-59.5 192.5,-78.5 295.5,-78.5 295.5,-59.5 192.5,-59.5"/>
<text text-anchor="middle" x="244" y="-66.5" font-family="Helvetica,sans-Serif" font-size="10.00">callback_job_create</text>
</a>
</g>
</g>
<!-- Node2&#45;&gt;Node3 -->
<g id="edge2" class="edge"><title>Node2&#45;&gt;Node3</title>
<path fill="none" stroke="midnightblue" d="M152.368,-37.5093C168.19,-43.0067 188.321,-50.0012 205.589,-56.0013"/>
<polygon fill="midnightblue" stroke="midnightblue" points="204.777,-59.4242 215.371,-59.4003 207.074,-52.812 204.777,-59.4242"/>
</g>
<!-- Node7 -->
<g id="node7" class="node"><title>Node7</title>
<g id="a_node7"><a xlink:href="../../dd/dd1/lookip__socket_8c.html#a2ce21d2e38f77ae3214fc7c78eb7d20a" target="_top" xlink:title="disconnect_async">
<polygon fill="none" stroke="black" points="196.5,-18.5 196.5,-37.5 291.5,-37.5 291.5,-18.5 196.5,-18.5"/>
<text text-anchor="middle" x="244" y="-25.5" font-family="Helvetica,sans-Serif" font-size="10.00">disconnect_async</text>
</a>
</g>
</g>
<!-- Node2&#45;&gt;Node7 -->
<g id="edge6" class="edge"><title>Node2&#45;&gt;Node7</title>
<path fill="none" stroke="midnightblue" d="M156.003,-28C165.221,-28 175.627,-28 185.952,-28"/>
<polygon fill="midnightblue" stroke="midnightblue" points="186.204,-31.5001 196.204,-28 186.204,-24.5001 186.204,-31.5001"/>
</g>
<!-- Node9 -->
<g id="node9" class="node"><title>Node9</title>
<g id="a_node9"><a xlink:href="../../da/dfc/settings__parser_8c.html#af07d89f5ceaea0c7c8252cc41fd75f37" target="_top" xlink:title="free">
<polygon fill="none" stroke="black" points="478.5,-0.5 478.5,-19.5 511.5,-19.5 511.5,-0.5 478.5,-0.5"/>
<text text-anchor="middle" x="495" y="-7.5" font-family="Helvetica,sans-Serif" font-size="10.00">free</text>
</a>
</g>
</g>
<!-- Node2&#45;&gt;Node9 -->
<g id="edge9" class="edge"><title>Node2&#45;&gt;Node9</title>
<path fill="none" stroke="midnightblue" d="M152.017,-18.4983C164.087,-14.7348 178.588,-10.865 192,-9 293.571,5.12342 416.222,-2.91789 468.453,-7.49967"/>
<polygon fill="midnightblue" stroke="midnightblue" points="468.22,-10.9929 478.496,-8.41564 468.856,-4.0218 468.22,-10.9929"/>
</g>
<!-- Node4 -->
<g id="node4" class="node"><title>Node4</title>
<g id="a_node4"><a xlink:href="../../d0/d8f/group__callback__job.html#gadfa6801d50c2e34bb3f9e1c98efe02d0" target="_top" xlink:title="callback_job_create\l_with_prio">
<polygon fill="none" stroke="black" points="332.5,-57 332.5,-87 435.5,-87 435.5,-57 332.5,-57"/>
<text text-anchor="start" x="340.5" y="-75" font-family="Helvetica,sans-Serif" font-size="10.00">callback_job_create</text>
<text text-anchor="middle" x="384" y="-64" font-family="Helvetica,sans-Serif" font-size="10.00">_with_prio</text>
</a>
</g>
</g>
<!-- Node3&#45;&gt;Node4 -->
<g id="edge3" class="edge"><title>Node3&#45;&gt;Node4</title>
<path fill="none" stroke="midnightblue" d="M295.603,-70.1001C304.228,-70.2876 313.266,-70.4841 322.124,-70.6766"/>
<polygon fill="midnightblue" stroke="midnightblue" points="322.33,-74.1818 332.404,-70.9001 322.482,-67.1835 322.33,-74.1818"/>
</g>
<!-- Node5 -->
<g id="node5" class="node"><title>Node5</title>
<g id="a_node5"><a xlink:href="../../d1/d14/fetch_8c.html#a17dd1592e9f4ebc44d5126c03a3a9697" target="_top" xlink:title="cb">
<polygon fill="none" stroke="black" points="480.5,-79.5 480.5,-98.5 509.5,-98.5 509.5,-79.5 480.5,-79.5"/>
<text text-anchor="middle" x="495" y="-86.5" font-family="Helvetica,sans-Serif" font-size="10.00">cb</text>
</a>
</g>
</g>
<!-- Node4&#45;&gt;Node5 -->
<g id="edge4" class="edge"><title>Node4&#45;&gt;Node5</title>
<path fill="none" stroke="midnightblue" d="M435.671,-79.9028C447.756,-81.7876 460.093,-83.7118 470.29,-85.3021"/>
<polygon fill="midnightblue" stroke="midnightblue" points="469.982,-88.7963 480.402,-86.8792 471.061,-81.8799 469.982,-88.7963"/>
</g>
<!-- Node6 -->
<g id="node6" class="node"><title>Node6</title>
<g id="a_node6"><a xlink:href="../../d2/dca/nm__backend_8c.html#a22ea158445c16ed72f5ab270e1dc691b" target="_top" xlink:title="cancel">
<polygon fill="none" stroke="black" points="472.5,-41.5 472.5,-60.5 517.5,-60.5 517.5,-41.5 472.5,-41.5"/>
<text text-anchor="middle" x="495" y="-48.5" font-family="Helvetica,sans-Serif" font-size="10.00">cancel</text>
</a>
</g>
</g>
<!-- Node4&#45;&gt;Node6 -->
<g id="edge5" class="edge"><title>Node4&#45;&gt;Node6</title>
<path fill="none" stroke="midnightblue" d="M435.671,-62.2377C444.74,-60.4905 453.951,-58.7159 462.293,-57.1087"/>
<polygon fill="midnightblue" stroke="midnightblue" points="463.161,-60.5059 472.318,-55.1772 461.837,-53.6323 463.161,-60.5059"/>
</g>
<!-- Node8 -->
<g id="node8" class="node"><title>Node8</title>
<g id="a_node8"><a xlink:href="../../dd/dd1/lookip__socket_8c.html#acd3e5f73aaf0c41e962aeb2dfd7d6745" target="_top" xlink:title="entry_destroy">
<polygon fill="none" stroke="black" points="346,-18.5 346,-37.5 422,-37.5 422,-18.5 346,-18.5"/>
<text text-anchor="middle" x="384" y="-25.5" font-family="Helvetica,sans-Serif" font-size="10.00">entry_destroy</text>
</a>
</g>
</g>
<!-- Node7&#45;&gt;Node8 -->
<g id="edge7" class="edge"><title>Node7&#45;&gt;Node8</title>
<path fill="none" stroke="midnightblue" d="M291.721,-28C305.941,-28 321.575,-28 335.825,-28"/>
<polygon fill="midnightblue" stroke="midnightblue" points="335.916,-31.5001 345.916,-28 335.916,-24.5001 335.916,-31.5001"/>
</g>
<!-- Node8&#45;&gt;Node9 -->
<g id="edge8" class="edge"><title>Node8&#45;&gt;Node9</title>
<path fill="none" stroke="midnightblue" d="M422.207,-21.8558C437.292,-19.3645 454.35,-16.5476 468.053,-14.2849"/>
<polygon fill="midnightblue" stroke="midnightblue" points="468.924,-17.6884 478.221,-12.6058 467.784,-10.7819 468.924,-17.6884"/>
</g>
</g>
</svg>
