<?xml version="1.0" encoding="UTF-8" standalone="no"?>
<!DOCTYPE svg PUBLIC "-//W3C//DTD SVG 1.1//EN"
 "http://www.w3.org/Graphics/SVG/1.1/DTD/svg11.dtd">
<!-- Generated by graphviz version 2.36.0 (20140111.2315)
 -->
<!-- Title: start_phase2_tnc Pages: 1 -->
<svg width="342pt" height="28pt"
 viewBox="0.00 0.00 342.00 28.00" xmlns="http://www.w3.org/2000/svg" xmlns:xlink="http://www.w3.org/1999/xlink">
<g id="graph0" class="graph" transform="scale(1 1) rotate(0) translate(4 24)">
<title>start_phase2_tnc</title>
<!-- Node1 -->
<g id="node1" class="node"><title>Node1</title>
<polygon fill="#bfbfbf" stroke="black" points="0,-0.5 0,-19.5 92,-19.5 92,-0.5 0,-0.5"/>
<text text-anchor="middle" x="46" y="-7.5" font-family="Helvetica,sans-Serif" font-size="10.00">start_phase2_tnc</text>
</g>
<!-- Node2 -->
<g id="node2" class="node"><title>Node2</title>
<g id="a_node2"><a xlink:href="../../d5/d4c/group__leap.html#ga8af7319ead3f7b0ae1e9319d4539caef" target="_top" xlink:title="eap_type_from_string">
<polygon fill="none" stroke="black" points="128,-0.5 128,-19.5 238,-19.5 238,-0.5 128,-0.5"/>
<text text-anchor="middle" x="183" y="-7.5" font-family="Helvetica,sans-Serif" font-size="10.00">eap_type_from_string</text>
</a>
</g>
</g>
<!-- Node1&#45;&gt;Node2 -->
<g id="edge1" class="edge"><title>Node1&#45;&gt;Node2</title>
<path fill="none" stroke="midnightblue" d="M92.3286,-10C100.388,-10 108.922,-10 117.396,-10"/>
<polygon fill="midnightblue" stroke="midnightblue" points="117.665,-13.5001 127.665,-10 117.665,-6.5001 117.665,-13.5001"/>
</g>
<!-- Node3 -->
<g id="node3" class="node"><title>Node3</title>
<g id="a_node3"><a xlink:href="../../d4/d40/group__string__i.html#ga74aa090049b1a330542e013117a60f1e" target="_top" xlink:title="strcaseeq">
<polygon fill="none" stroke="black" points="274.5,-0.5 274.5,-19.5 333.5,-19.5 333.5,-0.5 274.5,-0.5"/>
<text text-anchor="middle" x="304" y="-7.5" font-family="Helvetica,sans-Serif" font-size="10.00">strcaseeq</text>
</a>
</g>
</g>
<!-- Node2&#45;&gt;Node3 -->
<g id="edge2" class="edge"><title>Node2&#45;&gt;Node3</title>
<path fill="none" stroke="midnightblue" d="M238.276,-10C247.069,-10 256.015,-10 264.338,-10"/>
<polygon fill="midnightblue" stroke="midnightblue" points="264.489,-13.5001 274.489,-10 264.489,-6.5001 264.489,-13.5001"/>
</g>
</g>
</svg>
