<?xml version="1.0" encoding="UTF-8" standalone="no"?>
<!DOCTYPE svg PUBLIC "-//W3C//DTD SVG 1.1//EN"
 "http://www.w3.org/Graphics/SVG/1.1/DTD/svg11.dtd">
<!-- Generated by graphviz version 2.36.0 (20140111.2315)
 -->
<!-- Title: ike_cert_pre.h Pages: 1 -->
<svg width="206pt" height="84pt"
 viewBox="0.00 0.00 206.00 84.00" xmlns="http://www.w3.org/2000/svg" xmlns:xlink="http://www.w3.org/1999/xlink">
<g id="graph0" class="graph" transform="scale(1 1) rotate(0) translate(4 80)">
<title>ike_cert_pre.h</title>
<!-- Node1 -->
<g id="node1" class="node"><title>Node1</title>
<polygon fill="#bfbfbf" stroke="black" points="66,-56.5 66,-75.5 144,-75.5 144,-56.5 66,-56.5"/>
<text text-anchor="middle" x="105" y="-63.5" font-family="Helvetica,sans-Serif" font-size="10.00">ike_cert_pre.h</text>
</g>
<!-- Node2 -->
<g id="node2" class="node"><title>Node2</title>
<g id="a_node2"><a xlink:href="../../d3/d0b/task__manager__v2_8c.html" target="_top" xlink:title="task_manager_v2.c">
<polygon fill="none" stroke="black" points="0,-0.5 0,-19.5 102,-19.5 102,-0.5 0,-0.5"/>
<text text-anchor="middle" x="51" y="-7.5" font-family="Helvetica,sans-Serif" font-size="10.00">task_manager_v2.c</text>
</a>
</g>
</g>
<!-- Node1&#45;&gt;Node2 -->
<g id="edge1" class="edge"><title>Node1&#45;&gt;Node2</title>
<path fill="none" stroke="midnightblue" d="M89.0024,-49.0024C79.4329,-39.4329 67.6389,-27.6389 59.7511,-19.7511"/>
<polygon fill="midnightblue" stroke="midnightblue" points="86.537,-51.4868 96.083,-56.083 91.4868,-46.537 86.537,-51.4868"/>
</g>
<!-- Node3 -->
<g id="node3" class="node"><title>Node3</title>
<g id="a_node3"><a xlink:href="../../da/d8c/ike__cert__pre_8c.html" target="_top" xlink:title="ike_cert_pre.c">
<polygon fill="none" stroke="black" points="120,-0.5 120,-19.5 198,-19.5 198,-0.5 120,-0.5"/>
<text text-anchor="middle" x="159" y="-7.5" font-family="Helvetica,sans-Serif" font-size="10.00">ike_cert_pre.c</text>
</a>
</g>
</g>
<!-- Node1&#45;&gt;Node3 -->
<g id="edge2" class="edge"><title>Node1&#45;&gt;Node3</title>
<path fill="none" stroke="midnightblue" d="M120.998,-49.0024C130.567,-39.4329 142.361,-27.6389 150.249,-19.7511"/>
<polygon fill="midnightblue" stroke="midnightblue" points="118.513,-46.537 113.917,-56.083 123.463,-51.4868 118.513,-46.537"/>
</g>
</g>
</svg>
