<?xml version="1.0" encoding="UTF-8" standalone="no"?>
<!DOCTYPE svg PUBLIC "-//W3C//DTD SVG 1.1//EN"
 "http://www.w3.org/Graphics/SVG/1.1/DTD/svg11.dtd">
<!-- Generated by graphviz version 2.36.0 (20140111.2315)
 -->
<!-- Title: ha_socket_t Pages: 1 -->
<svg width="228pt" height="164pt"
 viewBox="0.00 0.00 228.00 164.00" xmlns="http://www.w3.org/2000/svg" xmlns:xlink="http://www.w3.org/1999/xlink">
<g id="graph0" class="graph" transform="scale(1 1) rotate(0) translate(4 160)">
<title>ha_socket_t</title>
<!-- Node1 -->
<g id="node1" class="node"><title>Node1</title>
<polygon fill="#bfbfbf" stroke="black" points="32,-0.5 32,-19.5 102,-19.5 102,-0.5 32,-0.5"/>
<text text-anchor="middle" x="67" y="-7.5" font-family="Helvetica,sans-Serif" font-size="10.00">ha_socket_t</text>
</g>
<!-- Node2 -->
<g id="node2" class="node"><title>Node2</title>
<g id="a_node2"><a xlink:href="../../d9/d99/structha__message__t.html" target="_top" xlink:title="ha_message_t">
<polygon fill="none" stroke="black" points="27,-68.5 27,-87.5 107,-87.5 107,-68.5 27,-68.5"/>
<text text-anchor="middle" x="67" y="-75.5" font-family="Helvetica,sans-Serif" font-size="10.00">ha_message_t</text>
</a>
</g>
</g>
<!-- Node2&#45;&gt;Node1 -->
<g id="edge1" class="edge"><title>Node2&#45;&gt;Node1</title>
<path fill="none" stroke="#9a32cd" stroke-dasharray="5,2" d="M67,-58.0413C67,-45.4724 67,-29.5631 67,-19.8411"/>
<polygon fill="#9a32cd" stroke="#9a32cd" points="63.5001,-58.3716 67,-68.3717 70.5001,-58.3717 63.5001,-58.3716"/>
<text text-anchor="middle" x="76.5" y="-41.5" font-family="Helvetica,sans-Serif" font-size="10.00"> pull</text>
</g>
<!-- Node3 -->
<g id="node3" class="node"><title>Node3</title>
<g id="a_node3"><a xlink:href="../../d0/d14/structchunk__t.html" target="_top" xlink:title="chunk_t">
<polygon fill="none" stroke="black" points="-0.5,-136.5 -0.5,-155.5 50.5,-155.5 50.5,-136.5 -0.5,-136.5"/>
<text text-anchor="middle" x="25" y="-143.5" font-family="Helvetica,sans-Serif" font-size="10.00">chunk_t</text>
</a>
</g>
</g>
<!-- Node3&#45;&gt;Node2 -->
<g id="edge2" class="edge"><title>Node3&#45;&gt;Node2</title>
<path fill="none" stroke="#9a32cd" stroke-dasharray="5,2" d="M22.0038,-126.042C21.8181,-119.344 22.671,-111.993 26,-106 30.4697,-97.9534 38.4652,-91.8907 46.2161,-87.5701"/>
<polygon fill="#9a32cd" stroke="#9a32cd" points="18.5568,-126.745 23.0429,-136.343 25.5215,-126.042 18.5568,-126.745"/>
<text text-anchor="middle" x="56.5" y="-109.5" font-family="Helvetica,sans-Serif" font-size="10.00"> get_encoding</text>
</g>
<!-- Node4 -->
<g id="node4" class="node"><title>Node4</title>
<g id="a_node4"><a xlink:href="../../db/dd3/structenumerator__t.html" target="_top" xlink:title="enumerator_t">
<polygon fill="none" stroke="black" points="72,-136.5 72,-155.5 146,-155.5 146,-136.5 72,-136.5"/>
<text text-anchor="middle" x="109" y="-143.5" font-family="Helvetica,sans-Serif" font-size="10.00">enumerator_t</text>
</a>
</g>
</g>
<!-- Node4&#45;&gt;Node2 -->
<g id="edge3" class="edge"><title>Node4&#45;&gt;Node2</title>
<path fill="none" stroke="#9a32cd" stroke-dasharray="5,2" d="M99.6843,-127.411C95.9263,-120.611 91.4351,-112.835 87,-106 82.9357,-99.7363 77.9357,-92.9863 73.9518,-87.8022"/>
<polygon fill="#9a32cd" stroke="#9a32cd" points="96.7384,-129.322 104.574,-136.453 102.896,-125.992 96.7384,-129.322"/>
<text text-anchor="middle" x="157.5" y="-109.5" font-family="Helvetica,sans-Serif" font-size="10.00"> create_attribute_enumerator</text>
</g>
</g>
</svg>
