<?xml version="1.0" encoding="UTF-8" standalone="no"?>
<!DOCTYPE svg PUBLIC "-//W3C//DTD SVG 1.1//EN"
 "http://www.w3.org/Graphics/SVG/1.1/DTD/svg11.dtd">
<!-- Generated by graphviz version 2.36.0 (20140111.2315)
 -->
<!-- Title: resolve_plugin_create Pages: 1 -->
<svg width="386pt" height="28pt"
 viewBox="0.00 0.00 386.00 28.00" xmlns="http://www.w3.org/2000/svg" xmlns:xlink="http://www.w3.org/1999/xlink">
<g id="graph0" class="graph" transform="scale(1 1) rotate(0) translate(4 24)">
<title>resolve_plugin_create</title>
<!-- Node1 -->
<g id="node1" class="node"><title>Node1</title>
<polygon fill="#bfbfbf" stroke="black" points="0.5,-0.5 0.5,-19.5 111.5,-19.5 111.5,-0.5 0.5,-0.5"/>
<text text-anchor="middle" x="56" y="-7.5" font-family="Helvetica,sans-Serif" font-size="10.00">resolve_plugin_create</text>
</g>
<!-- Node2 -->
<g id="node2" class="node"><title>Node2</title>
<g id="a_node2"><a xlink:href="../../df/d37/group__resolve__handler.html#ga6745dde01c5668efd035f05298f1ad2c" target="_top" xlink:title="resolve_handler_create">
<polygon fill="none" stroke="black" points="148.5,-0.5 148.5,-19.5 265.5,-19.5 265.5,-0.5 148.5,-0.5"/>
<text text-anchor="middle" x="207" y="-7.5" font-family="Helvetica,sans-Serif" font-size="10.00">resolve_handler_create</text>
</a>
</g>
</g>
<!-- Node1&#45;&gt;Node2 -->
<g id="edge1" class="edge"><title>Node1&#45;&gt;Node2</title>
<path fill="none" stroke="midnightblue" d="M111.636,-10C120.326,-10 129.404,-10 138.35,-10"/>
<polygon fill="midnightblue" stroke="midnightblue" points="138.366,-13.5001 148.366,-10 138.366,-6.5001 138.366,-13.5001"/>
</g>
<!-- Node3 -->
<g id="node3" class="node"><title>Node3</title>
<g id="a_node3"><a xlink:href="../../d0/d04/group__mutex.html#gacbf89470b1f7a4a0d621faeeb8b485c5" target="_top" xlink:title="mutex_create">
<polygon fill="none" stroke="black" points="302,-0.5 302,-19.5 378,-19.5 378,-0.5 302,-0.5"/>
<text text-anchor="middle" x="340" y="-7.5" font-family="Helvetica,sans-Serif" font-size="10.00">mutex_create</text>
</a>
</g>
</g>
<!-- Node2&#45;&gt;Node3 -->
<g id="edge2" class="edge"><title>Node2&#45;&gt;Node3</title>
<path fill="none" stroke="midnightblue" d="M265.84,-10C274.514,-10 283.369,-10 291.786,-10"/>
<polygon fill="midnightblue" stroke="midnightblue" points="291.795,-13.5001 301.795,-10 291.795,-6.5001 291.795,-13.5001"/>
</g>
</g>
</svg>
