<?xml version="1.0" encoding="UTF-8" standalone="no"?>
<!DOCTYPE svg PUBLIC "-//W3C//DTD SVG 1.1//EN"
 "http://www.w3.org/Graphics/SVG/1.1/DTD/svg11.dtd">
<!-- Generated by graphviz version 2.36.0 (20140111.2315)
 -->
<!-- Title: watchdog Pages: 1 -->
<svg width="642pt" height="66pt"
 viewBox="0.00 0.00 642.00 66.00" xmlns="http://www.w3.org/2000/svg" xmlns:xlink="http://www.w3.org/1999/xlink">
<g id="graph0" class="graph" transform="scale(1 1) rotate(0) translate(4 62)">
<title>watchdog</title>
<!-- Node1 -->
<g id="node1" class="node"><title>Node1</title>
<polygon fill="#bfbfbf" stroke="black" points="0.5,-19.5 0.5,-38.5 59.5,-38.5 59.5,-19.5 0.5,-19.5"/>
<text text-anchor="middle" x="30" y="-26.5" font-family="Helvetica,sans-Serif" font-size="10.00">watchdog</text>
</g>
<!-- Node2 -->
<g id="node2" class="node"><title>Node2</title>
<g id="a_node2"><a xlink:href="../../da/dfd/ha__segments_8c.html#aef914a86f4c59476df8463714ce79bba" target="_top" xlink:title="start_watchdog">
<polygon fill="none" stroke="black" points="96.5,-19.5 96.5,-38.5 179.5,-38.5 179.5,-19.5 96.5,-19.5"/>
<text text-anchor="middle" x="138" y="-26.5" font-family="Helvetica,sans-Serif" font-size="10.00">start_watchdog</text>
</a>
</g>
</g>
<!-- Node1&#45;&gt;Node2 -->
<g id="edge1" class="edge"><title>Node1&#45;&gt;Node2</title>
<path fill="none" stroke="midnightblue" d="M69.871,-29C78.4962,-29 87.6599,-29 96.3539,-29"/>
<polygon fill="midnightblue" stroke="midnightblue" points="69.6852,-25.5001 59.6851,-29 69.6851,-32.5001 69.6852,-25.5001"/>
</g>
<!-- Node3 -->
<g id="node3" class="node"><title>Node3</title>
<g id="a_node3"><a xlink:href="../../d0/ddb/group__ha__segments.html#gae186dec5644a7dbad0660436474ab7ef" target="_top" xlink:title="ha_segments_create">
<polygon fill="none" stroke="black" points="216.5,-38.5 216.5,-57.5 323.5,-57.5 323.5,-38.5 216.5,-38.5"/>
<text text-anchor="middle" x="270" y="-45.5" font-family="Helvetica,sans-Serif" font-size="10.00">ha_segments_create</text>
</a>
</g>
</g>
<!-- Node2&#45;&gt;Node3 -->
<g id="edge2" class="edge"><title>Node2&#45;&gt;Node3</title>
<path fill="none" stroke="midnightblue" d="M189.823,-36.4279C198.556,-37.7043 207.648,-39.0331 216.426,-40.316"/>
<polygon fill="midnightblue" stroke="midnightblue" points="190.177,-32.9426 179.776,-34.9596 189.165,-39.8691 190.177,-32.9426"/>
</g>
<!-- Node7 -->
<g id="node7" class="node"><title>Node7</title>
<g id="a_node7"><a xlink:href="../../da/dfd/ha__segments_8c.html#accb7beba9d8f7b541640bb5ce84d8dcc" target="_top" xlink:title="METHOD">
<polygon fill="none" stroke="black" points="240,-0.5 240,-19.5 300,-19.5 300,-0.5 240,-0.5"/>
<text text-anchor="middle" x="270" y="-7.5" font-family="Helvetica,sans-Serif" font-size="10.00">METHOD</text>
</a>
</g>
</g>
<!-- Node2&#45;&gt;Node7 -->
<g id="edge6" class="edge"><title>Node2&#45;&gt;Node7</title>
<path fill="none" stroke="midnightblue" d="M190.093,-21.5326C207.006,-19.0606 225.237,-16.3961 239.91,-14.2516"/>
<polygon fill="midnightblue" stroke="midnightblue" points="189.165,-18.1309 179.776,-23.0404 190.177,-25.0574 189.165,-18.1309"/>
</g>
<!-- Node4 -->
<g id="node4" class="node"><title>Node4</title>
<g id="a_node4"><a xlink:href="../../d2/dbc/ha__plugin_8c.html#ac3b62ac20197d1c242926fae531a3bfa" target="_top" xlink:title="initialize_plugin">
<polygon fill="none" stroke="black" points="360.5,-38.5 360.5,-57.5 443.5,-57.5 443.5,-38.5 360.5,-38.5"/>
<text text-anchor="middle" x="402" y="-45.5" font-family="Helvetica,sans-Serif" font-size="10.00">initialize_plugin</text>
</a>
</g>
</g>
<!-- Node3&#45;&gt;Node4 -->
<g id="edge3" class="edge"><title>Node3&#45;&gt;Node4</title>
<path fill="none" stroke="midnightblue" d="M333.66,-48C342.714,-48 351.829,-48 360.3,-48"/>
<polygon fill="midnightblue" stroke="midnightblue" points="333.501,-44.5001 323.501,-48 333.501,-51.5001 333.501,-44.5001"/>
</g>
<!-- Node5 -->
<g id="node5" class="node"><title>Node5</title>
<g id="a_node5"><a xlink:href="../../d2/dbc/ha__plugin_8c.html#ac04b0147cc74be4316f3db3a9aa6b4a6" target="_top" xlink:title="plugin_cb">
<polygon fill="none" stroke="black" points="480,-38.5 480,-57.5 538,-57.5 538,-38.5 480,-38.5"/>
<text text-anchor="middle" x="509" y="-45.5" font-family="Helvetica,sans-Serif" font-size="10.00">plugin_cb</text>
</a>
</g>
</g>
<!-- Node4&#45;&gt;Node5 -->
<g id="edge4" class="edge"><title>Node4&#45;&gt;Node5</title>
<path fill="none" stroke="midnightblue" d="M453.681,-48C462.69,-48 471.771,-48 479.861,-48"/>
<polygon fill="midnightblue" stroke="midnightblue" points="453.596,-44.5001 443.596,-48 453.596,-51.5001 453.596,-44.5001"/>
</g>
<!-- Node6 -->
<g id="node6" class="node"><title>Node6</title>
<g id="a_node6"><a xlink:href="../../d2/dbc/ha__plugin_8c.html#ab76e28aa86319749526a5d4a267616e2" target="_top" xlink:title="METHOD">
<polygon fill="none" stroke="black" points="574,-38.5 574,-57.5 634,-57.5 634,-38.5 574,-38.5"/>
<text text-anchor="middle" x="604" y="-45.5" font-family="Helvetica,sans-Serif" font-size="10.00">METHOD</text>
</a>
</g>
</g>
<!-- Node5&#45;&gt;Node6 -->
<g id="edge5" class="edge"><title>Node5&#45;&gt;Node6</title>
<path fill="none" stroke="midnightblue" d="M548.337,-48C556.905,-48 565.856,-48 573.975,-48"/>
<polygon fill="midnightblue" stroke="midnightblue" points="548.155,-44.5001 538.155,-48 548.155,-51.5001 548.155,-44.5001"/>
</g>
</g>
</svg>
