<?xml version="1.0" encoding="UTF-8" standalone="no"?>
<!DOCTYPE svg PUBLIC "-//W3C//DTD SVG 1.1//EN"
 "http://www.w3.org/Graphics/SVG/1.1/DTD/svg11.dtd">
<!-- Generated by graphviz version 2.36.0 (20140111.2315)
 -->
<!-- Title: start_watchdog Pages: 1 -->
<svg width="378pt" height="183pt"
 viewBox="0.00 0.00 378.00 183.00" xmlns="http://www.w3.org/2000/svg" xmlns:xlink="http://www.w3.org/1999/xlink">
<g id="graph0" class="graph" transform="scale(1 1) rotate(0) translate(4 179)">
<title>start_watchdog</title>
<!-- Node1 -->
<g id="node1" class="node"><title>Node1</title>
<polygon fill="#bfbfbf" stroke="black" points="0.5,-76.5 0.5,-95.5 83.5,-95.5 83.5,-76.5 0.5,-76.5"/>
<text text-anchor="middle" x="42" y="-83.5" font-family="Helvetica,sans-Serif" font-size="10.00">start_watchdog</text>
</g>
<!-- Node2 -->
<g id="node2" class="node"><title>Node2</title>
<g id="a_node2"><a xlink:href="../../d0/d8f/group__callback__job.html#gadfa6801d50c2e34bb3f9e1c98efe02d0" target="_top" xlink:title="callback_job_create\l_with_prio">
<polygon fill="none" stroke="black" points="120.5,-115 120.5,-145 223.5,-145 223.5,-115 120.5,-115"/>
<text text-anchor="start" x="128.5" y="-133" font-family="Helvetica,sans-Serif" font-size="10.00">callback_job_create</text>
<text text-anchor="middle" x="172" y="-122" font-family="Helvetica,sans-Serif" font-size="10.00">_with_prio</text>
</a>
</g>
</g>
<!-- Node1&#45;&gt;Node2 -->
<g id="edge1" class="edge"><title>Node1&#45;&gt;Node2</title>
<path fill="none" stroke="midnightblue" d="M70.7741,-95.5473C84.4134,-100.236 101.326,-106.049 117.349,-111.557"/>
<polygon fill="midnightblue" stroke="midnightblue" points="116.579,-114.994 127.173,-114.935 118.854,-108.374 116.579,-114.994"/>
</g>
<!-- Node5 -->
<g id="node5" class="node"><title>Node5</title>
<g id="a_node5"><a xlink:href="../../d6/d87/group__utils__i.html#ga9336a4d5728eb7ed977aacaeb8fd2c41" target="_top" xlink:title="return_false">
<polygon fill="none" stroke="black" points="138,-76.5 138,-95.5 206,-95.5 206,-76.5 138,-76.5"/>
<text text-anchor="middle" x="172" y="-83.5" font-family="Helvetica,sans-Serif" font-size="10.00">return_false</text>
</a>
</g>
</g>
<!-- Node1&#45;&gt;Node5 -->
<g id="edge4" class="edge"><title>Node1&#45;&gt;Node5</title>
<path fill="none" stroke="midnightblue" d="M83.8519,-86C97.864,-86 113.587,-86 127.78,-86"/>
<polygon fill="midnightblue" stroke="midnightblue" points="127.799,-89.5001 137.799,-86 127.799,-82.5001 127.799,-89.5001"/>
</g>
<!-- Node6 -->
<g id="node6" class="node"><title>Node6</title>
<g id="a_node6"><a xlink:href="../../da/dfd/ha__segments_8c.html#a257444e9d3af8ad2fd75de57d876ab72" target="_top" xlink:title="watchdog">
<polygon fill="none" stroke="black" points="142.5,-38.5 142.5,-57.5 201.5,-57.5 201.5,-38.5 142.5,-38.5"/>
<text text-anchor="middle" x="172" y="-45.5" font-family="Helvetica,sans-Serif" font-size="10.00">watchdog</text>
</a>
</g>
</g>
<!-- Node1&#45;&gt;Node6 -->
<g id="edge5" class="edge"><title>Node1&#45;&gt;Node6</title>
<path fill="none" stroke="midnightblue" d="M75.2998,-76.411C92.6716,-71.2537 114.212,-64.8589 132.456,-59.4428"/>
<polygon fill="midnightblue" stroke="midnightblue" points="133.614,-62.75 142.205,-56.5487 131.622,-56.0394 133.614,-62.75"/>
</g>
<!-- Node3 -->
<g id="node3" class="node"><title>Node3</title>
<g id="a_node3"><a xlink:href="../../d1/d14/fetch_8c.html#a17dd1592e9f4ebc44d5126c03a3a9697" target="_top" xlink:title="cb">
<polygon fill="none" stroke="black" points="300.5,-155.5 300.5,-174.5 329.5,-174.5 329.5,-155.5 300.5,-155.5"/>
<text text-anchor="middle" x="315" y="-162.5" font-family="Helvetica,sans-Serif" font-size="10.00">cb</text>
</a>
</g>
</g>
<!-- Node2&#45;&gt;Node3 -->
<g id="edge2" class="edge"><title>Node2&#45;&gt;Node3</title>
<path fill="none" stroke="midnightblue" d="M223.506,-142.537C246.361,-148.21 272.273,-154.642 290.494,-159.165"/>
<polygon fill="midnightblue" stroke="midnightblue" points="289.704,-162.575 300.253,-161.588 291.391,-155.781 289.704,-162.575"/>
</g>
<!-- Node4 -->
<g id="node4" class="node"><title>Node4</title>
<g id="a_node4"><a xlink:href="../../d2/dca/nm__backend_8c.html#a22ea158445c16ed72f5ab270e1dc691b" target="_top" xlink:title="cancel">
<polygon fill="none" stroke="black" points="292.5,-117.5 292.5,-136.5 337.5,-136.5 337.5,-117.5 292.5,-117.5"/>
<text text-anchor="middle" x="315" y="-124.5" font-family="Helvetica,sans-Serif" font-size="10.00">cancel</text>
</a>
</g>
</g>
<!-- Node2&#45;&gt;Node4 -->
<g id="edge3" class="edge"><title>Node2&#45;&gt;Node4</title>
<path fill="none" stroke="midnightblue" d="M223.506,-128.925C243.138,-128.508 265.024,-128.042 282.355,-127.673"/>
<polygon fill="midnightblue" stroke="midnightblue" points="282.573,-131.17 292.496,-127.458 282.424,-124.171 282.573,-131.17"/>
</g>
<!-- Node7 -->
<g id="node7" class="node"><title>Node7</title>
<g id="a_node7"><a xlink:href="../../da/dd8/group__thread.html#ga5c78b3b4d797a5e3fd535b81d1120857" target="_top" xlink:title="thread_cleanup_push">
<polygon fill="none" stroke="black" points="260.5,-76.5 260.5,-95.5 369.5,-95.5 369.5,-76.5 260.5,-76.5"/>
<text text-anchor="middle" x="315" y="-83.5" font-family="Helvetica,sans-Serif" font-size="10.00">thread_cleanup_push</text>
</a>
</g>
</g>
<!-- Node6&#45;&gt;Node7 -->
<g id="edge6" class="edge"><title>Node6&#45;&gt;Node7</title>
<path fill="none" stroke="midnightblue" d="M201.533,-55.6899C220.793,-60.8805 246.623,-67.8418 268.672,-73.784"/>
<polygon fill="midnightblue" stroke="midnightblue" points="267.933,-77.2096 278.499,-76.4325 269.755,-70.4508 267.933,-77.2096"/>
</g>
<!-- Node8 -->
<g id="node8" class="node"><title>Node8</title>
<g id="a_node8"><a xlink:href="../../da/dd8/group__thread.html#gac2bd836b3ee4e108d0aeff4e3e3ea88c" target="_top" xlink:title="thread_cancelability">
<polygon fill="none" stroke="black" points="263.5,-38.5 263.5,-57.5 366.5,-57.5 366.5,-38.5 263.5,-38.5"/>
<text text-anchor="middle" x="315" y="-45.5" font-family="Helvetica,sans-Serif" font-size="10.00">thread_cancelability</text>
</a>
</g>
</g>
<!-- Node6&#45;&gt;Node8 -->
<g id="edge7" class="edge"><title>Node6&#45;&gt;Node8</title>
<path fill="none" stroke="midnightblue" d="M201.533,-48C216.402,-48 235.185,-48 253.122,-48"/>
<polygon fill="midnightblue" stroke="midnightblue" points="253.258,-51.5001 263.258,-48 253.258,-44.5001 253.258,-51.5001"/>
</g>
<!-- Node9 -->
<g id="node9" class="node"><title>Node9</title>
<g id="a_node9"><a xlink:href="../../da/dd8/group__thread.html#ga669a6d403cfb4dc30e7a389b3b6cf48b" target="_top" xlink:title="thread_cleanup_pop">
<polygon fill="none" stroke="black" points="263,-0.5 263,-19.5 367,-19.5 367,-0.5 263,-0.5"/>
<text text-anchor="middle" x="315" y="-7.5" font-family="Helvetica,sans-Serif" font-size="10.00">thread_cleanup_pop</text>
</a>
</g>
</g>
<!-- Node6&#45;&gt;Node9 -->
<g id="edge8" class="edge"><title>Node6&#45;&gt;Node9</title>
<path fill="none" stroke="midnightblue" d="M201.533,-40.3101C220.793,-35.1195 246.623,-28.1582 268.672,-22.216"/>
<polygon fill="midnightblue" stroke="midnightblue" points="269.755,-25.5492 278.499,-19.5675 267.933,-18.7904 269.755,-25.5492"/>
</g>
</g>
</svg>
