<?xml version="1.0" encoding="UTF-8" standalone="no"?>
<!DOCTYPE svg PUBLIC "-//W3C//DTD SVG 1.1//EN"
 "http://www.w3.org/Graphics/SVG/1.1/DTD/svg11.dtd">
<!-- Generated by graphviz version 2.36.0 (20140111.2315)
 -->
<!-- Title: METHOD Pages: 1 -->
<svg width="418pt" height="66pt"
 viewBox="0.00 0.00 418.00 66.00" xmlns="http://www.w3.org/2000/svg" xmlns:xlink="http://www.w3.org/1999/xlink">
<g id="graph0" class="graph" transform="scale(1 1) rotate(0) translate(4 62)">
<title>METHOD</title>
<!-- Node1 -->
<g id="node1" class="node"><title>Node1</title>
<polygon fill="#bfbfbf" stroke="black" points="0,-19.5 0,-38.5 60,-38.5 60,-19.5 0,-19.5"/>
<text text-anchor="middle" x="30" y="-26.5" font-family="Helvetica,sans-Serif" font-size="10.00">METHOD</text>
</g>
<!-- Node2 -->
<g id="node2" class="node"><title>Node2</title>
<g id="a_node2"><a xlink:href="../../d2/dc5/sha2__hasher_8c.html#a4cd6c992bb6547439aa575e7098f9b5d" target="_top" xlink:title="sha512_final">
<polygon fill="none" stroke="black" points="96.5,-0.5 96.5,-19.5 167.5,-19.5 167.5,-0.5 96.5,-0.5"/>
<text text-anchor="middle" x="132" y="-7.5" font-family="Helvetica,sans-Serif" font-size="10.00">sha512_final</text>
</a>
</g>
</g>
<!-- Node1&#45;&gt;Node2 -->
<g id="edge1" class="edge"><title>Node1&#45;&gt;Node2</title>
<path fill="none" stroke="midnightblue" d="M60.193,-23.4533C68.4026,-21.8935 77.523,-20.1606 86.4126,-18.4716"/>
<polygon fill="midnightblue" stroke="midnightblue" points="87.1193,-21.9 96.2902,-16.5949 85.8126,-15.0231 87.1193,-21.9"/>
</g>
<!-- Node3 -->
<g id="node3" class="node"><title>Node3</title>
<g id="a_node3"><a xlink:href="../../d2/dc5/sha2__hasher_8c.html#a6b91a66f29028ac09be2751974143c2e" target="_top" xlink:title="sha512_write">
<polygon fill="none" stroke="black" points="204,-38.5 204,-57.5 278,-57.5 278,-38.5 204,-38.5"/>
<text text-anchor="middle" x="241" y="-45.5" font-family="Helvetica,sans-Serif" font-size="10.00">sha512_write</text>
</a>
</g>
</g>
<!-- Node1&#45;&gt;Node3 -->
<g id="edge5" class="edge"><title>Node1&#45;&gt;Node3</title>
<path fill="none" stroke="midnightblue" d="M60.0606,-31.6419C94.6997,-34.7909 153.018,-40.0926 193.848,-43.8043"/>
<polygon fill="midnightblue" stroke="midnightblue" points="193.55,-47.2916 203.826,-44.7115 194.184,-40.3204 193.55,-47.2916"/>
</g>
<!-- Node2&#45;&gt;Node3 -->
<g id="edge2" class="edge"><title>Node2&#45;&gt;Node3</title>
<path fill="none" stroke="midnightblue" d="M160.001,-19.589C173.18,-24.2694 189.229,-29.9692 203.484,-35.0315"/>
<polygon fill="midnightblue" stroke="midnightblue" points="202.413,-38.3656 213.008,-38.4141 204.756,-31.7692 202.413,-38.3656"/>
</g>
<!-- Node4 -->
<g id="node4" class="node"><title>Node4</title>
<g id="a_node4"><a xlink:href="../../d2/dc5/sha2__hasher_8c.html#a67500fe89e55758a7c1f302ffa4b5b05" target="_top" xlink:title="sha512_transform">
<polygon fill="none" stroke="black" points="314.5,-19.5 314.5,-38.5 409.5,-38.5 409.5,-19.5 314.5,-19.5"/>
<text text-anchor="middle" x="362" y="-26.5" font-family="Helvetica,sans-Serif" font-size="10.00">sha512_transform</text>
</a>
</g>
</g>
<!-- Node2&#45;&gt;Node4 -->
<g id="edge4" class="edge"><title>Node2&#45;&gt;Node4</title>
<path fill="none" stroke="midnightblue" d="M167.628,-12.8857C203.842,-15.9035 261.268,-20.689 304.146,-24.2622"/>
<polygon fill="midnightblue" stroke="midnightblue" points="303.904,-27.754 314.16,-25.0966 304.485,-20.7782 303.904,-27.754"/>
</g>
<!-- Node3&#45;&gt;Node4 -->
<g id="edge3" class="edge"><title>Node3&#45;&gt;Node4</title>
<path fill="none" stroke="midnightblue" d="M278.027,-42.2478C286.277,-40.9305 295.245,-39.4987 304.134,-38.0794"/>
<polygon fill="midnightblue" stroke="midnightblue" points="304.772,-41.522 314.095,-36.4891 303.668,-34.6096 304.772,-41.522"/>
</g>
</g>
</svg>
