<?xml version="1.0" encoding="UTF-8" standalone="no"?>
<!DOCTYPE svg PUBLIC "-//W3C//DTD SVG 1.1//EN"
 "http://www.w3.org/Graphics/SVG/1.1/DTD/svg11.dtd">
<!-- Generated by graphviz version 2.36.0 (20140111.2315)
 -->
<!-- Title: sha256_write Pages: 1 -->
<svg width="286pt" height="47pt"
 viewBox="0.00 0.00 286.00 47.00" xmlns="http://www.w3.org/2000/svg" xmlns:xlink="http://www.w3.org/1999/xlink">
<g id="graph0" class="graph" transform="scale(1 1) rotate(0) translate(4 43)">
<title>sha256_write</title>
<!-- Node1 -->
<g id="node1" class="node"><title>Node1</title>
<polygon fill="#bfbfbf" stroke="black" points="0,-19.5 0,-38.5 74,-38.5 74,-19.5 0,-19.5"/>
<text text-anchor="middle" x="37" y="-26.5" font-family="Helvetica,sans-Serif" font-size="10.00">sha256_write</text>
</g>
<!-- Node2 -->
<g id="node2" class="node"><title>Node2</title>
<g id="a_node2"><a xlink:href="../../d2/dc5/sha2__hasher_8c.html#a15a7487f8db14433f7d517198cee2842" target="_top" xlink:title="METHOD">
<polygon fill="none" stroke="black" points="218,-19.5 218,-38.5 278,-38.5 278,-19.5 218,-19.5"/>
<text text-anchor="middle" x="248" y="-26.5" font-family="Helvetica,sans-Serif" font-size="10.00">METHOD</text>
</a>
</g>
</g>
<!-- Node1&#45;&gt;Node2 -->
<g id="edge1" class="edge"><title>Node1&#45;&gt;Node2</title>
<path fill="none" stroke="midnightblue" d="M84.6253,-29C125.355,-29 183.218,-29 217.747,-29"/>
<polygon fill="midnightblue" stroke="midnightblue" points="84.4051,-25.5001 74.405,-29 84.405,-32.5001 84.4051,-25.5001"/>
</g>
<!-- Node3 -->
<g id="node3" class="node"><title>Node3</title>
<g id="a_node3"><a xlink:href="../../d2/dc5/sha2__hasher_8c.html#ae929e69b9c5670444e21b4851d5c0dfa" target="_top" xlink:title="sha256_final">
<polygon fill="none" stroke="black" points="110.5,-0.5 110.5,-19.5 181.5,-19.5 181.5,-0.5 110.5,-0.5"/>
<text text-anchor="middle" x="146" y="-7.5" font-family="Helvetica,sans-Serif" font-size="10.00">sha256_final</text>
</a>
</g>
</g>
<!-- Node1&#45;&gt;Node3 -->
<g id="edge2" class="edge"><title>Node1&#45;&gt;Node3</title>
<path fill="none" stroke="midnightblue" d="M84.2803,-20.782C92.9959,-19.2344 101.972,-17.6405 110.26,-16.1688"/>
<polygon fill="midnightblue" stroke="midnightblue" points="83.4593,-17.3729 74.2253,-22.5675 84.6832,-24.2651 83.4593,-17.3729"/>
</g>
<!-- Node3&#45;&gt;Node2 -->
<g id="edge3" class="edge"><title>Node3&#45;&gt;Node2</title>
<path fill="none" stroke="midnightblue" d="M191.538,-18.4623C200.398,-20.1456 209.489,-21.8729 217.681,-23.4294"/>
<polygon fill="midnightblue" stroke="midnightblue" points="192.172,-15.0202 181.695,-16.592 190.865,-21.8971 192.172,-15.0202"/>
</g>
</g>
</svg>
