<?xml version="1.0" encoding="UTF-8" standalone="no"?>
<!DOCTYPE svg PUBLIC "-//W3C//DTD SVG 1.1//EN"
 "http://www.w3.org/Graphics/SVG/1.1/DTD/svg11.dtd">
<!-- Generated by graphviz version 2.36.0 (20140111.2315)
 -->
<!-- Title: host_create_from_range Pages: 1 -->
<!--zoomable 170 -->
<svg id="main" version="1.1" xmlns="http://www.w3.org/2000/svg" xmlns:xlink="http://www.w3.org/1999/xlink" xml:space="preserve" onload="init(evt)">
<style type="text/css"><![CDATA[
.edge:hover path { stroke: red; }
.edge:hover polygon { stroke: red; fill: red; }
]]></style>
<script type="text/javascript"><![CDATA[
var edges = document.getElementsByTagName('g');
if (edges && edges.length) {
  for (var i=0;i<edges.length;i++) {
    if (edges[i].id.substr(0,4)=='edge') {
      edges[i].setAttribute('class','edge');
    }
  }
}
]]></script>
        <defs>
                <circle id="rim" cx="0" cy="0" r="7"/>
                <circle id="rim2" cx="0" cy="0" r="3.5"/>
                <g id="zoomPlus">
                        <use xlink:href="#rim" fill="#404040">
                                <set attributeName="fill" to="#808080" begin="zoomplus.mouseover" end="zoomplus.mouseout"/>
                        </use>
                        <path d="M-4,0h8M0,-4v8" fill="none" stroke="white" stroke-width="1.5" pointer-events="none"/>
                </g>
                <g id="zoomMin">
                        <use xlink:href="#rim" fill="#404040">
                                <set attributeName="fill" to="#808080" begin="zoomminus.mouseover" end="zoomminus.mouseout"/>
                        </use>
                        <path d="M-4,0h8" fill="none" stroke="white" stroke-width="1.5" pointer-events="none"/>
                </g>
                <g id="dirArrow">
                        <path fill="none" stroke="white" stroke-width="1.5" d="M0,-3.0v7 M-2.5,-0.5L0,-3.0L2.5,-0.5"/>
                </g>
               <g id="resetDef">
                       <use xlink:href="#rim2" fill="#404040">
                               <set attributeName="fill" to="#808080" begin="reset.mouseover" end="reset.mouseout"/>
                       </use>
               </g>
        </defs>

<script type="text/javascript">
var viewWidth = 1164;
var viewHeight = 170;
var sectionId = 'dynsection-7';
</script>
<script xlink:href="../../svgpan.js"/>
<svg id="graph" class="graph">
<g id="viewport">
<title>host_create_from_range</title>
<!-- Node1 -->
<g id="node1" class="node"><title>Node1</title>
<polygon fill="#bfbfbf" stroke="black" points="0,-94.5 0,-113.5 122,-113.5 122,-94.5 0,-94.5"/>
<text text-anchor="middle" x="61" y="-101.5" font-family="Helvetica,sans-Serif" font-size="10.00">host_create_from_range</text>
</g>
<!-- Node2 -->
<g id="node2" class="node"><title>Node2</title>
<g id="a_node2"><a xlink:href="../../da/dfc/settings__parser_8c.html#af07d89f5ceaea0c7c8252cc41fd75f37" target="_top" xlink:title="free">
<polygon fill="none" stroke="black" points="827.5,-95.5 827.5,-114.5 860.5,-114.5 860.5,-95.5 827.5,-95.5"/>
<text text-anchor="middle" x="844" y="-102.5" font-family="Helvetica,sans-Serif" font-size="10.00">free</text>
</a>
</g>
</g>
<!-- Node1&#45;&gt;Node2 -->
<g id="edge1" class="edge"><title>Node1&#45;&gt;Node2</title>
<path fill="none" stroke="midnightblue" d="M92.848,-113.578C148.725,-130.051 270.671,-162 376,-162 376,-162 376,-162 530,-162 638.257,-162 764.217,-128.589 817.317,-112.926"/>
<polygon fill="midnightblue" stroke="midnightblue" points="818.649,-116.181 827.224,-109.959 816.641,-109.475 818.649,-116.181"/>
</g>
<!-- Node3 -->
<g id="node3" class="node"><title>Node3</title>
<g id="a_node3"><a xlink:href="../../d7/df1/group__host.html#gad1ee7d1c0d17eee7f6e204e22ea2c206" target="_top" xlink:title="host_create_from_string">
<polygon fill="none" stroke="black" points="158,-75.5 158,-94.5 280,-94.5 280,-75.5 158,-75.5"/>
<text text-anchor="middle" x="219" y="-82.5" font-family="Helvetica,sans-Serif" font-size="10.00">host_create_from_string</text>
</a>
</g>
</g>
<!-- Node1&#45;&gt;Node3 -->
<g id="edge2" class="edge"><title>Node1&#45;&gt;Node3</title>
<path fill="none" stroke="midnightblue" d="M122.314,-96.6541C130.695,-95.6333 139.363,-94.5776 147.904,-93.5373"/>
<polygon fill="midnightblue" stroke="midnightblue" points="148.343,-97.0098 157.847,-92.3264 147.497,-90.0611 148.343,-97.0098"/>
</g>
<!-- Node4 -->
<g id="node4" class="node"><title>Node4</title>
<g id="a_node4"><a xlink:href="../../d7/df1/group__host.html#ga75f9b1e7905a80d69bc3cc7a7c3775a5" target="_top" xlink:title="host_create_from_string\l_and_family">
<polygon fill="none" stroke="black" points="316,-71 316,-101 438,-101 438,-71 316,-71"/>
<text text-anchor="start" x="324" y="-89" font-family="Helvetica,sans-Serif" font-size="10.00">host_create_from_string</text>
<text text-anchor="middle" x="377" y="-78" font-family="Helvetica,sans-Serif" font-size="10.00">_and_family</text>
</a>
</g>
</g>
<!-- Node1&#45;&gt;Node4 -->
<g id="edge20" class="edge"><title>Node1&#45;&gt;Node4</title>
<path fill="none" stroke="midnightblue" d="M122.284,-106.99C166.129,-108.437 226.864,-108.938 280,-104 288.374,-103.222 297.106,-102.07 305.743,-100.717"/>
<polygon fill="midnightblue" stroke="midnightblue" points="306.519,-104.137 315.812,-99.0487 305.374,-97.2308 306.519,-104.137"/>
</g>
<!-- Node16 -->
<g id="node16" class="node"><title>Node16</title>
<g id="a_node16"><a xlink:href="../../da/d9b/group__windows.html#ga8b860ba32fef12da8acd4507c059e509" target="_top" xlink:title="strndup">
<polygon fill="none" stroke="black" points="194.5,-34.5 194.5,-53.5 243.5,-53.5 243.5,-34.5 194.5,-34.5"/>
<text text-anchor="middle" x="219" y="-41.5" font-family="Helvetica,sans-Serif" font-size="10.00">strndup</text>
</a>
</g>
</g>
<!-- Node1&#45;&gt;Node16 -->
<g id="edge21" class="edge"><title>Node1&#45;&gt;Node16</title>
<path fill="none" stroke="midnightblue" d="M85.6058,-94.4621C104.998,-86.6733 133.211,-75.449 158,-66 166.662,-62.6981 176.062,-59.208 184.794,-56.0043"/>
<polygon fill="midnightblue" stroke="midnightblue" points="186.103,-59.2524 194.296,-52.5341 183.702,-52.6772 186.103,-59.2524"/>
</g>
<!-- Node3&#45;&gt;Node4 -->
<g id="edge3" class="edge"><title>Node3&#45;&gt;Node4</title>
<path fill="none" stroke="midnightblue" d="M280.314,-85.3866C288.604,-85.4398 297.175,-85.4947 305.626,-85.5489"/>
<polygon fill="midnightblue" stroke="midnightblue" points="305.824,-89.0501 315.847,-85.6144 305.869,-82.0503 305.824,-89.0501"/>
</g>
<!-- Node5 -->
<g id="node5" class="node"><title>Node5</title>
<g id="a_node5"><a xlink:href="../../d4/d40/group__string__i.html#ga65c3d08890165aaa4663c72d07f93bb7" target="_top" xlink:title="streq">
<polygon fill="none" stroke="black" points="510,-76.5 510,-95.5 548,-95.5 548,-76.5 510,-76.5"/>
<text text-anchor="middle" x="529" y="-83.5" font-family="Helvetica,sans-Serif" font-size="10.00">streq</text>
</a>
</g>
</g>
<!-- Node4&#45;&gt;Node5 -->
<g id="edge4" class="edge"><title>Node4&#45;&gt;Node5</title>
<path fill="none" stroke="midnightblue" d="M438.146,-86C459.476,-86 482.474,-86 499.864,-86"/>
<polygon fill="midnightblue" stroke="midnightblue" points="499.902,-89.5001 509.902,-86 499.902,-82.5001 499.902,-89.5001"/>
</g>
<!-- Node6 -->
<g id="node6" class="node"><title>Node6</title>
<g id="a_node6"><a xlink:href="../../df/da9/host_8c.html#a2670c8aac87ed6960c4e45f42f843b73" target="_top" xlink:title="host_create_any_port">
<polygon fill="none" stroke="black" points="474,-0.5 474,-19.5 584,-19.5 584,-0.5 474,-0.5"/>
<text text-anchor="middle" x="529" y="-7.5" font-family="Helvetica,sans-Serif" font-size="10.00">host_create_any_port</text>
</a>
</g>
</g>
<!-- Node4&#45;&gt;Node6 -->
<g id="edge5" class="edge"><title>Node4&#45;&gt;Node6</title>
<path fill="none" stroke="midnightblue" d="M419.256,-70.9539C425.712,-67.9963 432.17,-64.6607 438,-61 456.129,-49.6158 455.557,-39.8679 474,-29 477.418,-26.9858 481.084,-25.1377 484.836,-23.4529"/>
<polygon fill="midnightblue" stroke="midnightblue" points="486.322,-26.6268 494.251,-19.5999 483.67,-20.1483 486.322,-26.6268"/>
</g>
<!-- Node14 -->
<g id="node14" class="node"><title>Node14</title>
<g id="a_node14"><a xlink:href="../../da/d9b/group__windows.html#ga7fb1f8a8f40e09fa09e625d2a09dc04e" target="_top" xlink:title="inet_pton">
<polygon fill="none" stroke="black" points="501,-38.5 501,-57.5 557,-57.5 557,-38.5 501,-38.5"/>
<text text-anchor="middle" x="529" y="-45.5" font-family="Helvetica,sans-Serif" font-size="10.00">inet_pton</text>
</a>
</g>
</g>
<!-- Node4&#45;&gt;Node14 -->
<g id="edge15" class="edge"><title>Node4&#45;&gt;Node14</title>
<path fill="none" stroke="midnightblue" d="M437.284,-70.9814C455.287,-66.4206 474.555,-61.5394 490.682,-57.4538"/>
<polygon fill="midnightblue" stroke="midnightblue" points="491.948,-60.7439 500.782,-54.8953 490.228,-53.9583 491.948,-60.7439"/>
</g>
<!-- Node15 -->
<g id="node15" class="node"><title>Node15</title>
<g id="a_node15"><a xlink:href="../../d7/df1/group__host.html#ga3183b60055297ceaa19b4a5996496830" target="_top" xlink:title="host_create_from_sockaddr">
<polygon fill="none" stroke="black" points="620.5,-95.5 620.5,-114.5 757.5,-114.5 757.5,-95.5 620.5,-95.5"/>
<text text-anchor="middle" x="689" y="-102.5" font-family="Helvetica,sans-Serif" font-size="10.00">host_create_from_sockaddr</text>
</a>
</g>
</g>
<!-- Node4&#45;&gt;Node15 -->
<g id="edge16" class="edge"><title>Node4&#45;&gt;Node15</title>
<path fill="none" stroke="midnightblue" d="M438.161,-99.7728C449.981,-101.949 462.333,-103.857 474,-105 518.995,-109.41 569.567,-109.627 610.248,-108.642"/>
<polygon fill="midnightblue" stroke="midnightblue" points="610.466,-112.137 620.368,-108.367 610.276,-105.14 610.466,-112.137"/>
</g>
<!-- Node7 -->
<g id="node7" class="node"><title>Node7</title>
<g id="a_node7"><a xlink:href="../../d7/df1/group__host.html#ga5f2c94740339664ce118776e13829cd0" target="_top" xlink:title="host_create_any">
<polygon fill="none" stroke="black" points="644.5,-19.5 644.5,-38.5 733.5,-38.5 733.5,-19.5 644.5,-19.5"/>
<text text-anchor="middle" x="689" y="-26.5" font-family="Helvetica,sans-Serif" font-size="10.00">host_create_any</text>
</a>
</g>
</g>
<!-- Node6&#45;&gt;Node7 -->
<g id="edge6" class="edge"><title>Node6&#45;&gt;Node7</title>
<path fill="none" stroke="midnightblue" d="M584.375,-16.5387C600.484,-18.4759 618.112,-20.5957 634.186,-22.5287"/>
<polygon fill="midnightblue" stroke="midnightblue" points="634.146,-26.049 644.493,-23.7681 634.982,-19.0991 634.146,-26.049"/>
</g>
<!-- Node13 -->
<g id="node13" class="node"><title>Node13</title>
<g id="a_node13"><a xlink:href="../../d9/dbc/kernel__pfkey__ipsec_8c.html#a5da61ec055ea1dffbb84ffe3caddb7dc" target="_top" xlink:title="set_port">
<polygon fill="none" stroke="black" points="663,-57.5 663,-76.5 715,-76.5 715,-57.5 663,-57.5"/>
<text text-anchor="middle" x="689" y="-64.5" font-family="Helvetica,sans-Serif" font-size="10.00">set_port</text>
</a>
</g>
</g>
<!-- Node6&#45;&gt;Node13 -->
<g id="edge14" class="edge"><title>Node6&#45;&gt;Node13</title>
<path fill="none" stroke="midnightblue" d="M559.732,-19.5793C567.706,-22.3864 576.259,-25.6174 584,-29 600.578,-36.2442 603.192,-41.3055 620,-48 630.442,-52.1591 642.128,-55.7763 652.827,-58.7063"/>
<polygon fill="midnightblue" stroke="midnightblue" points="652.148,-62.1468 662.709,-61.3002 653.925,-55.3761 652.148,-62.1468"/>
</g>
<!-- Node7&#45;&gt;Node2 -->
<g id="edge13" class="edge"><title>Node7&#45;&gt;Node2</title>
<path fill="none" stroke="midnightblue" d="M733.532,-37.3875C741.997,-40.0451 750.546,-43.5073 758,-48 777.925,-60.0098 774.684,-73.0341 794,-86 801.138,-90.7911 809.659,-94.6292 817.578,-97.5668"/>
<polygon fill="midnightblue" stroke="midnightblue" points="816.544,-100.912 827.138,-100.81 818.793,-94.2828 816.544,-100.912"/>
</g>
<!-- Node8 -->
<g id="node8" class="node"><title>Node8</title>
<g id="a_node8"><a xlink:href="../../df/da9/host_8c.html#ac3854e66d5a7563cae9608acbcad6eb5" target="_top" xlink:title="host_create_empty">
<polygon fill="none" stroke="black" points="794,-19.5 794,-38.5 894,-38.5 894,-19.5 794,-19.5"/>
<text text-anchor="middle" x="844" y="-26.5" font-family="Helvetica,sans-Serif" font-size="10.00">host_create_empty</text>
</a>
</g>
</g>
<!-- Node7&#45;&gt;Node8 -->
<g id="edge7" class="edge"><title>Node7&#45;&gt;Node8</title>
<path fill="none" stroke="midnightblue" d="M733.844,-29C749.346,-29 767.052,-29 783.627,-29"/>
<polygon fill="midnightblue" stroke="midnightblue" points="783.771,-32.5001 793.771,-29 783.771,-25.5001 783.771,-32.5001"/>
</g>
<!-- Node12 -->
<g id="node12" class="node"><title>Node12</title>
<g id="a_node12"><a xlink:href="../../df/da9/host_8c.html#a1fb6a6590d2576c32709b890623cad8c" target="_top" xlink:title="update_sa_len">
<polygon fill="none" stroke="black" points="804,-57.5 804,-76.5 884,-76.5 884,-57.5 804,-57.5"/>
<text text-anchor="middle" x="844" y="-64.5" font-family="Helvetica,sans-Serif" font-size="10.00">update_sa_len</text>
</a>
</g>
</g>
<!-- Node7&#45;&gt;Node12 -->
<g id="edge12" class="edge"><title>Node7&#45;&gt;Node12</title>
<path fill="none" stroke="midnightblue" d="M728.608,-38.589C748.707,-43.5809 773.475,-49.7324 794.819,-55.0334"/>
<polygon fill="midnightblue" stroke="midnightblue" points="794.12,-58.4662 804.669,-57.4799 795.808,-51.6726 794.12,-58.4662"/>
</g>
<!-- Node9 -->
<g id="node9" class="node"><title>Node9</title>
<g id="a_node9"><a xlink:href="../../df/da9/host_8c.html#a809d5cf7574c1f5e27758950d53653f4" target="_top" xlink:title="equals">
<polygon fill="none" stroke="black" points="930.5,-0.5 930.5,-19.5 975.5,-19.5 975.5,-0.5 930.5,-0.5"/>
<text text-anchor="middle" x="953" y="-7.5" font-family="Helvetica,sans-Serif" font-size="10.00">equals</text>
</a>
</g>
</g>
<!-- Node8&#45;&gt;Node9 -->
<g id="edge8" class="edge"><title>Node8&#45;&gt;Node9</title>
<path fill="none" stroke="midnightblue" d="M894.116,-20.2785C903.078,-18.6872 912.205,-17.0665 920.482,-15.5967"/>
<polygon fill="midnightblue" stroke="midnightblue" points="921.201,-19.0237 930.435,-13.8292 919.978,-12.1316 921.201,-19.0237"/>
</g>
<!-- Node10 -->
<g id="node10" class="node"><title>Node10</title>
<g id="a_node10"><a xlink:href="../../df/da9/host_8c.html#a0ea5fbf16ec81f3c5eaf6dc5da8d452a" target="_top" xlink:title="ip_equals">
<polygon fill="none" stroke="black" points="1012,-19.5 1012,-38.5 1070,-38.5 1070,-19.5 1012,-19.5"/>
<text text-anchor="middle" x="1041" y="-26.5" font-family="Helvetica,sans-Serif" font-size="10.00">ip_equals</text>
</a>
</g>
</g>
<!-- Node8&#45;&gt;Node10 -->
<g id="edge11" class="edge"><title>Node8&#45;&gt;Node10</title>
<path fill="none" stroke="midnightblue" d="M894.207,-29C927.513,-29 970.877,-29 1001.63,-29"/>
<polygon fill="midnightblue" stroke="midnightblue" points="1001.94,-32.5001 1011.94,-29 1001.94,-25.5001 1001.94,-32.5001"/>
</g>
<!-- Node9&#45;&gt;Node10 -->
<g id="edge9" class="edge"><title>Node9&#45;&gt;Node10</title>
<path fill="none" stroke="midnightblue" d="M975.701,-14.7945C983.655,-16.5517 992.91,-18.5963 1001.88,-20.5775"/>
<polygon fill="midnightblue" stroke="midnightblue" points="1001.28,-24.0291 1011.8,-22.7688 1002.79,-17.1939 1001.28,-24.0291"/>
</g>
<!-- Node11 -->
<g id="node11" class="node"><title>Node11</title>
<g id="a_node11"><a xlink:href="../../dd/d74/group__memory__i.html#ga46d7935db00fd7092430dbf4f36c2850" target="_top" xlink:title="memeq">
<polygon fill="none" stroke="black" points="1106.5,-19.5 1106.5,-38.5 1155.5,-38.5 1155.5,-19.5 1106.5,-19.5"/>
<text text-anchor="middle" x="1131" y="-26.5" font-family="Helvetica,sans-Serif" font-size="10.00">memeq</text>
</a>
</g>
</g>
<!-- Node10&#45;&gt;Node11 -->
<g id="edge10" class="edge"><title>Node10&#45;&gt;Node11</title>
<path fill="none" stroke="midnightblue" d="M1070.33,-29C1078.62,-29 1087.76,-29 1096.34,-29"/>
<polygon fill="midnightblue" stroke="midnightblue" points="1096.44,-32.5001 1106.44,-29 1096.44,-25.5001 1096.44,-32.5001"/>
</g>
<!-- Node15&#45;&gt;Node2 -->
<g id="edge19" class="edge"><title>Node15&#45;&gt;Node2</title>
<path fill="none" stroke="midnightblue" d="M757.553,-105C778.627,-105 800.619,-105 817.014,-105"/>
<polygon fill="midnightblue" stroke="midnightblue" points="817.39,-108.5 827.39,-105 817.39,-101.5 817.39,-108.5"/>
</g>
<!-- Node15&#45;&gt;Node8 -->
<g id="edge17" class="edge"><title>Node15&#45;&gt;Node8</title>
<path fill="none" stroke="midnightblue" d="M737.11,-95.441C744.383,-92.9592 751.596,-89.8599 758,-86 777.925,-73.9902 774.684,-60.9659 794,-48 796.765,-46.1439 799.738,-44.4309 802.803,-42.8578"/>
<polygon fill="midnightblue" stroke="midnightblue" points="804.536,-45.9134 812.159,-38.5555 801.611,-39.5536 804.536,-45.9134"/>
</g>
<!-- Node15&#45;&gt;Node12 -->
<g id="edge18" class="edge"><title>Node15&#45;&gt;Node12</title>
<path fill="none" stroke="midnightblue" d="M728.608,-95.411C748.707,-90.4191 773.475,-84.2676 794.819,-78.9666"/>
<polygon fill="midnightblue" stroke="midnightblue" points="795.808,-82.3274 804.669,-76.5201 794.12,-75.5338 795.808,-82.3274"/>
</g>
<!-- Node17 -->
<g id="node17" class="node"><title>Node17</title>
<g id="a_node17"><a xlink:href="../../da/dfc/settings__parser_8c.html#a5faf6a2d99f50a4655dd390199a8db7b" target="_top" xlink:title="malloc">
<polygon fill="none" stroke="black" points="354.5,-32.5 354.5,-51.5 399.5,-51.5 399.5,-32.5 354.5,-32.5"/>
<text text-anchor="middle" x="377" y="-39.5" font-family="Helvetica,sans-Serif" font-size="10.00">malloc</text>
</a>
</g>
</g>
<!-- Node16&#45;&gt;Node17 -->
<g id="edge22" class="edge"><title>Node16&#45;&gt;Node17</title>
<path fill="none" stroke="midnightblue" d="M243.693,-43.6962C270.414,-43.3537 314.017,-42.7947 343.809,-42.4127"/>
<polygon fill="midnightblue" stroke="midnightblue" points="344.149,-45.9087 354.103,-42.2807 344.059,-38.9093 344.149,-45.9087"/>
</g>
</g>
</svg>
        <g id="navigator" transform="translate(0 0)" fill="#404254">
                <rect fill="#f2f5e9" fill-opacity="0.5" stroke="#606060" stroke-width=".5" x="0" y="0" width="60" height="60"/>
                <use id="zoomplus" xlink:href="#zoomPlus" x="17" y="9" onmousedown="handleZoom(evt,'in')"/>
                <use id="zoomminus" xlink:href="#zoomMin" x="42" y="9" onmousedown="handleZoom(evt,'out')"/>
                <use id="reset" xlink:href="#resetDef" x="30" y="36" onmousedown="handleReset()"/>
                <g id="arrowUp" xlink:href="#dirArrow" transform="translate(30 24)" onmousedown="handlePan(0,-1)">
                  <use xlink:href="#rim" fill="#404040">
                        <set attributeName="fill" to="#808080" begin="arrowUp.mouseover" end="arrowUp.mouseout"/>
                  </use>
                  <path fill="none" stroke="white" stroke-width="1.5" d="M0,-3.0v7 M-2.5,-0.5L0,-3.0L2.5,-0.5"/>
                </g>
                <g id="arrowRight" xlink:href="#dirArrow" transform="rotate(90) translate(36 -43)" onmousedown="handlePan(1,0)">
                  <use xlink:href="#rim" fill="#404040">
                        <set attributeName="fill" to="#808080" begin="arrowRight.mouseover" end="arrowRight.mouseout"/>
                  </use>
                  <path fill="none" stroke="white" stroke-width="1.5" d="M0,-3.0v7 M-2.5,-0.5L0,-3.0L2.5,-0.5"/>
                </g>
                <g id="arrowDown" xlink:href="#dirArrow" transform="rotate(180) translate(-30 -48)" onmousedown="handlePan(0,1)">
                  <use xlink:href="#rim" fill="#404040">
                        <set attributeName="fill" to="#808080" begin="arrowDown.mouseover" end="arrowDown.mouseout"/>
                  </use>
                  <path fill="none" stroke="white" stroke-width="1.5" d="M0,-3.0v7 M-2.5,-0.5L0,-3.0L2.5,-0.5"/>
                </g>
                <g id="arrowLeft" xlink:href="#dirArrow" transform="rotate(270) translate(-36 17)" onmousedown="handlePan(-1,0)">
                  <use xlink:href="#rim" fill="#404040">
                        <set attributeName="fill" to="#808080" begin="arrowLeft.mouseover" end="arrowLeft.mouseout"/>
                  </use>
                  <path fill="none" stroke="white" stroke-width="1.5" d="M0,-3.0v7 M-2.5,-0.5L0,-3.0L2.5,-0.5"/>
                </g>
        </g>
        <svg viewBox="0 0 15 15" width="100%" height="30px" preserveAspectRatio="xMaxYMin meet">
         <g id="arrow_out" transform="scale(0.3 0.3)">
          <a xlink:href="group__host_ga370889b3134a9d9e429f96f633d0c4c2_cgraph_org.svg" target="_base">
           <rect id="button" ry="5" rx="5" y="6" x="6" height="38" width="38"
                fill="#f2f5e9" fill-opacity="0.5" stroke="#606060" stroke-width="1.0"/>
           <path id="arrow"
             d="M 11.500037,31.436501 C 11.940474,20.09759 22.043105,11.32322 32.158766,21.979434 L 37.068811,17.246167 C 37.068811,17.246167 37.088388,32 37.088388,32 L 22.160133,31.978069 C 22.160133,31.978069 26.997745,27.140456 26.997745,27.140456 C 18.528582,18.264221 13.291696,25.230495 11.500037,31.436501 z"
             style="fill:#404040;"/>
          </a>
         </g>
        </svg>
</svg>
