<?xml version="1.0" encoding="UTF-8" standalone="no"?>
<!DOCTYPE svg PUBLIC "-//W3C//DTD SVG 1.1//EN"
 "http://www.w3.org/Graphics/SVG/1.1/DTD/svg11.dtd">
<!-- Generated by graphviz version 2.36.0 (20140111.2315)
 -->
<!-- Title: METHOD Pages: 1 -->
<svg width="352pt" height="199pt"
 viewBox="0.00 0.00 352.00 199.00" xmlns="http://www.w3.org/2000/svg" xmlns:xlink="http://www.w3.org/1999/xlink">
<g id="graph0" class="graph" transform="scale(1 1) rotate(0) translate(4 195)">
<title>METHOD</title>
<!-- Node1 -->
<g id="node1" class="node"><title>Node1</title>
<polygon fill="#bfbfbf" stroke="black" points="0,-95.5 0,-114.5 60,-114.5 60,-95.5 0,-95.5"/>
<text text-anchor="middle" x="30" y="-102.5" font-family="Helvetica,sans-Serif" font-size="10.00">METHOD</text>
</g>
<!-- Node2 -->
<g id="node2" class="node"><title>Node2</title>
<g id="a_node2"><a xlink:href="../../da/d9b/group__windows.html#ga1af9acc6b6efdca3576cb8223d95f401" target="_top" xlink:title="asprintf">
<polygon fill="none" stroke="black" points="109.5,-171.5 109.5,-190.5 158.5,-190.5 158.5,-171.5 109.5,-171.5"/>
<text text-anchor="middle" x="134" y="-178.5" font-family="Helvetica,sans-Serif" font-size="10.00">asprintf</text>
</a>
</g>
</g>
<!-- Node1&#45;&gt;Node2 -->
<g id="edge1" class="edge"><title>Node1&#45;&gt;Node2</title>
<path fill="none" stroke="midnightblue" d="M40.5069,-114.695C52.6484,-126.743 74.6521,-147.484 96,-162 98.2728,-163.545 100.688,-165.051 103.152,-166.495"/>
<polygon fill="midnightblue" stroke="midnightblue" points="101.678,-169.678 112.129,-171.413 105.041,-163.539 101.678,-169.678"/>
</g>
<!-- Node3 -->
<g id="node3" class="node"><title>Node3</title>
<g id="a_node3"><a xlink:href="../../d4/d87/group__chunk.html#gad94ca029616a107e89eaa618408fd7b6" target="_top" xlink:title="chunk_create">
<polygon fill="none" stroke="black" points="96.5,-133.5 96.5,-152.5 171.5,-152.5 171.5,-133.5 96.5,-133.5"/>
<text text-anchor="middle" x="134" y="-140.5" font-family="Helvetica,sans-Serif" font-size="10.00">chunk_create</text>
</a>
</g>
</g>
<!-- Node1&#45;&gt;Node3 -->
<g id="edge2" class="edge"><title>Node1&#45;&gt;Node3</title>
<path fill="none" stroke="midnightblue" d="M56.7389,-114.589C69.1813,-119.224 84.3075,-124.86 97.7975,-129.885"/>
<polygon fill="midnightblue" stroke="midnightblue" points="96.6766,-133.203 107.269,-133.414 99.1204,-126.643 96.6766,-133.203"/>
</g>
<!-- Node4 -->
<g id="node4" class="node"><title>Node4</title>
<g id="a_node4"><a xlink:href="../../da/dfc/settings__parser_8c.html#af07d89f5ceaea0c7c8252cc41fd75f37" target="_top" xlink:title="free">
<polygon fill="none" stroke="black" points="117.5,-95.5 117.5,-114.5 150.5,-114.5 150.5,-95.5 117.5,-95.5"/>
<text text-anchor="middle" x="134" y="-102.5" font-family="Helvetica,sans-Serif" font-size="10.00">free</text>
</a>
</g>
</g>
<!-- Node1&#45;&gt;Node4 -->
<g id="edge3" class="edge"><title>Node1&#45;&gt;Node4</title>
<path fill="none" stroke="midnightblue" d="M60.2291,-105C75.053,-105 92.8979,-105 107.206,-105"/>
<polygon fill="midnightblue" stroke="midnightblue" points="107.35,-108.5 117.35,-105 107.35,-101.5 107.35,-108.5"/>
</g>
<!-- Node5 -->
<g id="node5" class="node"><title>Node5</title>
<g id="a_node5"><a xlink:href="../../da/dfc/settings__parser_8c.html#a5faf6a2d99f50a4655dd390199a8db7b" target="_top" xlink:title="malloc">
<polygon fill="none" stroke="black" points="111.5,-57.5 111.5,-76.5 156.5,-76.5 156.5,-57.5 111.5,-57.5"/>
<text text-anchor="middle" x="134" y="-64.5" font-family="Helvetica,sans-Serif" font-size="10.00">malloc</text>
</a>
</g>
</g>
<!-- Node1&#45;&gt;Node5 -->
<g id="edge4" class="edge"><title>Node1&#45;&gt;Node5</title>
<path fill="none" stroke="midnightblue" d="M56.7389,-95.411C70.453,-90.3018 87.4273,-83.9781 101.878,-78.5946"/>
<polygon fill="midnightblue" stroke="midnightblue" points="103.258,-81.8152 111.407,-75.0443 100.815,-75.2557 103.258,-81.8152"/>
</g>
<!-- Node6 -->
<g id="node6" class="node"><title>Node6</title>
<g id="a_node6"><a xlink:href="../../df/d12/mconsole_8c.html#a251c32cfa402f283bd6349486d9caac0" target="_top" xlink:title="request">
<polygon fill="none" stroke="black" points="109.5,-19.5 109.5,-38.5 158.5,-38.5 158.5,-19.5 109.5,-19.5"/>
<text text-anchor="middle" x="134" y="-26.5" font-family="Helvetica,sans-Serif" font-size="10.00">request</text>
</a>
</g>
</g>
<!-- Node1&#45;&gt;Node6 -->
<g id="edge5" class="edge"><title>Node1&#45;&gt;Node6</title>
<path fill="none" stroke="midnightblue" d="M40.5069,-95.3051C52.6484,-83.2568 74.6521,-62.516 96,-48 98.2728,-46.4545 100.688,-44.9486 103.152,-43.5046"/>
<polygon fill="midnightblue" stroke="midnightblue" points="105.041,-46.4608 112.129,-38.5866 101.678,-40.3217 105.041,-46.4608"/>
</g>
<!-- Node7 -->
<g id="node7" class="node"><title>Node7</title>
<g id="a_node7"><a xlink:href="../../d1/d14/fetch_8c.html#a17dd1592e9f4ebc44d5126c03a3a9697" target="_top" xlink:title="cb">
<polygon fill="none" stroke="black" points="209.5,-38.5 209.5,-57.5 238.5,-57.5 238.5,-38.5 209.5,-38.5"/>
<text text-anchor="middle" x="224" y="-45.5" font-family="Helvetica,sans-Serif" font-size="10.00">cb</text>
</a>
</g>
</g>
<!-- Node6&#45;&gt;Node7 -->
<g id="edge6" class="edge"><title>Node6&#45;&gt;Node7</title>
<path fill="none" stroke="midnightblue" d="M158.582,-34.0917C171.31,-36.8397 186.967,-40.2201 199.658,-42.9602"/>
<polygon fill="midnightblue" stroke="midnightblue" points="198.977,-46.3939 209.491,-45.0833 200.455,-39.5516 198.977,-46.3939"/>
</g>
<!-- Node8 -->
<g id="node8" class="node"><title>Node8</title>
<g id="a_node8"><a xlink:href="../../d0/d83/dumm_2main_8c.html#a01131b63acf241e9db91704d89ce15d2" target="_top" xlink:title="idle">
<polygon fill="none" stroke="black" points="208,-0.5 208,-19.5 240,-19.5 240,-0.5 208,-0.5"/>
<text text-anchor="middle" x="224" y="-7.5" font-family="Helvetica,sans-Serif" font-size="10.00">idle</text>
</a>
</g>
</g>
<!-- Node6&#45;&gt;Node8 -->
<g id="edge7" class="edge"><title>Node6&#45;&gt;Node8</title>
<path fill="none" stroke="midnightblue" d="M158.582,-23.9083C170.71,-21.2898 185.498,-18.0971 197.844,-15.4313"/>
<polygon fill="midnightblue" stroke="midnightblue" points="198.902,-18.7837 207.938,-13.252 197.424,-11.9414 198.902,-18.7837"/>
</g>
<!-- Node9 -->
<g id="node9" class="node"><title>Node9</title>
<g id="a_node9"><a xlink:href="../../da/d9b/group__windows.html#gaa1124f0d208ff28b7d9cf563ff183e8d" target="_top" xlink:title="sched_yield">
<polygon fill="none" stroke="black" points="276,-0.5 276,-19.5 344,-19.5 344,-0.5 276,-0.5"/>
<text text-anchor="middle" x="310" y="-7.5" font-family="Helvetica,sans-Serif" font-size="10.00">sched_yield</text>
</a>
</g>
</g>
<!-- Node8&#45;&gt;Node9 -->
<g id="edge8" class="edge"><title>Node8&#45;&gt;Node9</title>
<path fill="none" stroke="midnightblue" d="M240.018,-10C247.218,-10 256.253,-10 265.389,-10"/>
<polygon fill="midnightblue" stroke="midnightblue" points="265.656,-13.5001 275.656,-10 265.656,-6.5001 265.656,-13.5001"/>
</g>
</g>
</svg>
