<?xml version="1.0" encoding="UTF-8" standalone="no"?>
<!DOCTYPE svg PUBLIC "-//W3C//DTD SVG 1.1//EN"
 "http://www.w3.org/Graphics/SVG/1.1/DTD/svg11.dtd">
<!-- Generated by graphviz version 2.36.0 (20140111.2315)
 -->
<!-- Title: controller Pages: 1 -->
<svg width="288pt" height="180pt"
 viewBox="0.00 0.00 288.00 180.00" xmlns="http://www.w3.org/2000/svg" xmlns:xlink="http://www.w3.org/1999/xlink">
<g id="graph0" class="graph" transform="scale(1 1) rotate(0) translate(4 176)">
<title>controller</title>
<!-- Node1 -->
<g id="node1" class="node"><title>Node1</title>
<g id="a_node1"><a xlink:href="../../d6/db5/group__manager.html" target="_top" xlink:title="manager">
<polygon fill="none" stroke="black" points="0,-76.5 0,-95.5 54,-95.5 54,-76.5 0,-76.5"/>
<text text-anchor="middle" x="27" y="-83.5" font-family="Helvetica,sans-Serif" font-size="10.00">manager</text>
</a>
</g>
</g>
<!-- Node0 -->
<g id="node6" class="node"><title>Node0</title>
<polygon fill="#bfbfbf" stroke="black" points="90,-76.5 90,-95.5 146,-95.5 146,-76.5 90,-76.5"/>
<text text-anchor="middle" x="118" y="-83.5" font-family="Helvetica,sans-Serif" font-size="10.00">controller</text>
</g>
<!-- Node1&#45;&gt;Node0 -->
<g id="edge1" class="edge"><title>Node1&#45;&gt;Node0</title>
<path fill="none" stroke="midnightblue" d="M64.2945,-86C72.7922,-86 81.7034,-86 89.7301,-86"/>
<polygon fill="midnightblue" stroke="midnightblue" points="64.2216,-82.5001 54.2216,-86 64.2215,-89.5001 64.2216,-82.5001"/>
</g>
<!-- Node2 -->
<g id="node2" class="node"><title>Node2</title>
<g id="a_node2"><a xlink:href="../../df/de9/group__auth__controller.html" target="_top" xlink:title="auth_controller">
<polygon fill="none" stroke="black" points="191,-152.5 191,-171.5 271,-171.5 271,-152.5 191,-152.5"/>
<text text-anchor="middle" x="231" y="-159.5" font-family="Helvetica,sans-Serif" font-size="10.00">auth_controller</text>
</a>
</g>
</g>
<!-- Node3 -->
<g id="node3" class="node"><title>Node3</title>
<g id="a_node3"><a xlink:href="../../d5/d11/group__config__controller.html" target="_top" xlink:title="config_controller">
<polygon fill="none" stroke="black" points="187,-114.5 187,-133.5 275,-133.5 275,-114.5 187,-114.5"/>
<text text-anchor="middle" x="231" y="-121.5" font-family="Helvetica,sans-Serif" font-size="10.00">config_controller</text>
</a>
</g>
</g>
<!-- Node4 -->
<g id="node4" class="node"><title>Node4</title>
<g id="a_node4"><a xlink:href="../../d2/de8/group__control__controller.html" target="_top" xlink:title="control_controller">
<polygon fill="none" stroke="black" points="185.5,-76.5 185.5,-95.5 276.5,-95.5 276.5,-76.5 185.5,-76.5"/>
<text text-anchor="middle" x="231" y="-83.5" font-family="Helvetica,sans-Serif" font-size="10.00">control_controller</text>
</a>
</g>
</g>
<!-- Node6 -->
<g id="node5" class="node"><title>Node6</title>
<g id="a_node5"><a xlink:href="../../d4/d35/group__ikesa__controller.html" target="_top" xlink:title="ikesa_controller">
<polygon fill="none" stroke="black" points="188.5,-38.5 188.5,-57.5 273.5,-57.5 273.5,-38.5 188.5,-38.5"/>
<text text-anchor="middle" x="231" y="-45.5" font-family="Helvetica,sans-Serif" font-size="10.00">ikesa_controller</text>
</a>
</g>
</g>
<!-- Node0&#45;&gt;Node2 -->
<g id="edge2" class="edge"><title>Node0&#45;&gt;Node2</title>
<path fill="none" stroke="midnightblue" d="M134.585,-103.073C146.594,-115.445 164.12,-131.885 182,-143 187.861,-146.643 194.539,-149.814 201.012,-152.467"/>
<polygon fill="midnightblue" stroke="midnightblue" points="136.956,-100.487 127.542,-95.6276 131.871,-105.298 136.956,-100.487"/>
</g>
<!-- Node0&#45;&gt;Node3 -->
<g id="edge3" class="edge"><title>Node0&#45;&gt;Node3</title>
<path fill="none" stroke="midnightblue" d="M155.699,-98.5638C170.768,-103.723 187.934,-109.599 201.968,-114.403"/>
<polygon fill="midnightblue" stroke="midnightblue" points="156.748,-95.2235 146.154,-95.2958 154.481,-101.846 156.748,-95.2235"/>
</g>
<!-- Node0&#45;&gt;Node4 -->
<g id="edge4" class="edge"><title>Node0&#45;&gt;Node4</title>
<path fill="none" stroke="midnightblue" d="M156.301,-86C165.637,-86 175.746,-86 185.397,-86"/>
<polygon fill="midnightblue" stroke="midnightblue" points="156.154,-82.5001 146.154,-86 156.154,-89.5001 156.154,-82.5001"/>
</g>
<!-- Node0&#45;&gt;Node6 -->
<g id="edge6" class="edge"><title>Node0&#45;&gt;Node6</title>
<path fill="none" stroke="midnightblue" d="M155.699,-73.4362C170.768,-68.2775 187.934,-62.4008 201.968,-57.5967"/>
<polygon fill="midnightblue" stroke="midnightblue" points="154.481,-70.1539 146.154,-76.7042 156.748,-76.7765 154.481,-70.1539"/>
</g>
<!-- Node5 -->
<g id="node7" class="node"><title>Node5</title>
<g id="a_node7"><a xlink:href="../../d9/d89/group__gateway__controller.html" target="_top" xlink:title="gateway_controller">
<polygon fill="none" stroke="black" points="182,-0.5 182,-19.5 280,-19.5 280,-0.5 182,-0.5"/>
<text text-anchor="middle" x="231" y="-7.5" font-family="Helvetica,sans-Serif" font-size="10.00">gateway_controller</text>
</a>
</g>
</g>
<!-- Node0&#45;&gt;Node5 -->
<g id="edge5" class="edge"><title>Node0&#45;&gt;Node5</title>
<path fill="none" stroke="midnightblue" d="M134.585,-68.9267C146.594,-56.5548 164.12,-40.1148 182,-29 187.861,-25.3566 194.539,-22.1861 201.012,-19.5335"/>
<polygon fill="midnightblue" stroke="midnightblue" points="131.871,-66.7024 127.542,-76.3724 136.956,-71.5128 131.871,-66.7024"/>
</g>
</g>
</svg>
