<?xml version="1.0" encoding="UTF-8" standalone="no"?>
<!DOCTYPE svg PUBLIC "-//W3C//DTD SVG 1.1//EN"
 "http://www.w3.org/Graphics/SVG/1.1/DTD/svg11.dtd">
<!-- Generated by graphviz version 2.36.0 (20140111.2315)
 -->
<!-- Title: METHOD Pages: 1 -->
<svg width="1994pt" height="594pt"
 viewBox="0.00 0.00 1994.00 594.00" xmlns="http://www.w3.org/2000/svg" xmlns:xlink="http://www.w3.org/1999/xlink">
<g id="graph0" class="graph" transform="scale(1 1) rotate(0) translate(4 590)">
<title>METHOD</title>
<!-- Node1 -->
<g id="node1" class="node"><title>Node1</title>
<polygon fill="#bfbfbf" stroke="black" points="0,-279.5 0,-298.5 60,-298.5 60,-279.5 0,-279.5"/>
<text text-anchor="middle" x="30" y="-286.5" font-family="Helvetica,sans-Serif" font-size="10.00">METHOD</text>
</g>
<!-- Node2 -->
<g id="node2" class="node"><title>Node2</title>
<g id="a_node2"><a xlink:href="../../d6/d63/eap__radius__xauth_8c.html#add3beba680da49ae1d6f4e0b08968e99" target="_top" xlink:title="build_round">
<polygon fill="none" stroke="black" points="124,-317.5 124,-336.5 190,-336.5 190,-317.5 124,-317.5"/>
<text text-anchor="middle" x="157" y="-324.5" font-family="Helvetica,sans-Serif" font-size="10.00">build_round</text>
</a>
</g>
</g>
<!-- Node1&#45;&gt;Node2 -->
<g id="edge1" class="edge"><title>Node1&#45;&gt;Node2</title>
<path fill="none" stroke="midnightblue" d="M60.3069,-297.909C76.6243,-302.87 97.1939,-309.123 115.077,-314.559"/>
<polygon fill="midnightblue" stroke="midnightblue" points="114.106,-317.922 124.692,-317.482 116.142,-311.225 114.106,-317.922"/>
</g>
<!-- Node10 -->
<g id="node10" class="node"><title>Node10</title>
<g id="a_node10"><a xlink:href="../../d9/deb/group__configuration__attribute.html#ga798de12d4d07bb9ea37583a5316ba4e9" target="_top" xlink:title="configuration_attribute\l_create_chunk">
<polygon fill="none" stroke="black" points="254.5,-276 254.5,-306 367.5,-306 367.5,-276 254.5,-276"/>
<text text-anchor="start" x="262.5" y="-294" font-family="Helvetica,sans-Serif" font-size="10.00">configuration_attribute</text>
<text text-anchor="middle" x="311" y="-283" font-family="Helvetica,sans-Serif" font-size="10.00">_create_chunk</text>
</a>
</g>
</g>
<!-- Node1&#45;&gt;Node10 -->
<g id="edge15" class="edge"><title>Node1&#45;&gt;Node10</title>
<path fill="none" stroke="midnightblue" d="M60.0683,-289.208C103.32,-289.518 185.774,-290.109 244.131,-290.528"/>
<polygon fill="midnightblue" stroke="midnightblue" points="244.344,-294.029 254.368,-290.601 244.394,-287.03 244.344,-294.029"/>
</g>
<!-- Node12 -->
<g id="node12" class="node"><title>Node12</title>
<g id="a_node12"><a xlink:href="../../df/d04/group__cp__payload.html#ga8f166edcb4e4e1123751faa92c4edf77" target="_top" xlink:title="cp_payload_create_type">
<polygon fill="none" stroke="black" points="96,-240.5 96,-259.5 218,-259.5 218,-240.5 96,-240.5"/>
<text text-anchor="middle" x="157" y="-247.5" font-family="Helvetica,sans-Serif" font-size="10.00">cp_payload_create_type</text>
</a>
</g>
</g>
<!-- Node1&#45;&gt;Node12 -->
<g id="edge16" class="edge"><title>Node1&#45;&gt;Node12</title>
<path fill="none" stroke="midnightblue" d="M60.3069,-279.856C76.746,-274.727 97.5011,-268.252 115.477,-262.643"/>
<polygon fill="midnightblue" stroke="midnightblue" points="116.629,-265.95 125.132,-259.631 114.544,-259.268 116.629,-265.95"/>
</g>
<!-- Node3 -->
<g id="node3" class="node"><title>Node3</title>
<g id="a_node3"><a xlink:href="../../d1/d0e/group__array.html#ga55955a8b760f395c97d9ba0e24ed1f16" target="_top" xlink:title="array_remove">
<polygon fill="none" stroke="black" points="273,-382.5 273,-401.5 349,-401.5 349,-382.5 273,-382.5"/>
<text text-anchor="middle" x="311" y="-389.5" font-family="Helvetica,sans-Serif" font-size="10.00">array_remove</text>
</a>
</g>
</g>
<!-- Node2&#45;&gt;Node3 -->
<g id="edge2" class="edge"><title>Node2&#45;&gt;Node3</title>
<path fill="none" stroke="midnightblue" d="M180.428,-336.591C206.248,-347.632 248.851,-365.851 278.112,-378.364"/>
<polygon fill="midnightblue" stroke="midnightblue" points="276.909,-381.656 287.48,-382.37 279.661,-375.22 276.909,-381.656"/>
</g>
<!-- Node2&#45;&gt;Node10 -->
<g id="edge13" class="edge"><title>Node2&#45;&gt;Node10</title>
<path fill="none" stroke="midnightblue" d="M190.235,-319.365C206.116,-315.604 225.864,-310.927 244.715,-306.462"/>
<polygon fill="midnightblue" stroke="midnightblue" points="245.542,-309.863 254.466,-304.153 243.928,-303.052 245.542,-309.863"/>
</g>
<!-- Node4 -->
<g id="node4" class="node"><title>Node4</title>
<g id="a_node4"><a xlink:href="../../d1/d0e/group__array.html#ga8f49cd8981e317a31801562481a983fe" target="_top" xlink:title="array_get">
<polygon fill="none" stroke="black" points="432.5,-439.5 432.5,-458.5 489.5,-458.5 489.5,-439.5 432.5,-439.5"/>
<text text-anchor="middle" x="461" y="-446.5" font-family="Helvetica,sans-Serif" font-size="10.00">array_get</text>
</a>
</g>
</g>
<!-- Node3&#45;&gt;Node4 -->
<g id="edge3" class="edge"><title>Node3&#45;&gt;Node4</title>
<path fill="none" stroke="midnightblue" d="M334.149,-401.62C352.685,-409.557 379.896,-420.944 404,-430 409.992,-432.251 416.386,-434.533 422.632,-436.696"/>
<polygon fill="midnightblue" stroke="midnightblue" points="421.651,-440.06 432.245,-439.978 423.912,-433.435 421.651,-440.06"/>
</g>
<!-- Node5 -->
<g id="node5" class="node"><title>Node5</title>
<g id="a_node5"><a xlink:href="../../d1/d0e/group__array.html#ga37bb7fb1dde90d6fb84dac0027bb3606" target="_top" xlink:title="array_count">
<polygon fill="none" stroke="black" points="566,-458.5 566,-477.5 634,-477.5 634,-458.5 566,-458.5"/>
<text text-anchor="middle" x="600" y="-465.5" font-family="Helvetica,sans-Serif" font-size="10.00">array_count</text>
</a>
</g>
</g>
<!-- Node3&#45;&gt;Node5 -->
<g id="edge6" class="edge"><title>Node3&#45;&gt;Node5</title>
<path fill="none" stroke="midnightblue" d="M319.58,-401.621C333.879,-418.894 366.765,-454.609 404,-468 453.673,-485.864 515.179,-481.966 555.674,-476.189"/>
<polygon fill="midnightblue" stroke="midnightblue" points="556.393,-479.62 565.75,-474.651 555.336,-472.7 556.393,-479.62"/>
</g>
<!-- Node7 -->
<g id="node7" class="node"><title>Node7</title>
<g id="a_node7"><a xlink:href="../../dc/dcc/array_8c.html#ab6b79352671c52c64680b40ec8f4b564" target="_top" xlink:title="remove_tail">
<polygon fill="none" stroke="black" points="427.5,-401.5 427.5,-420.5 494.5,-420.5 494.5,-401.5 427.5,-401.5"/>
<text text-anchor="middle" x="461" y="-408.5" font-family="Helvetica,sans-Serif" font-size="10.00">remove_tail</text>
</a>
</g>
</g>
<!-- Node3&#45;&gt;Node7 -->
<g id="edge7" class="edge"><title>Node3&#45;&gt;Node7</title>
<path fill="none" stroke="midnightblue" d="M349.347,-396.795C369.952,-399.44 395.63,-402.736 417.061,-405.488"/>
<polygon fill="midnightblue" stroke="midnightblue" points="416.836,-408.987 427.2,-406.789 417.727,-402.044 416.836,-408.987"/>
</g>
<!-- Node8 -->
<g id="node8" class="node"><title>Node8</title>
<g id="a_node8"><a xlink:href="../../dc/dcc/array_8c.html#adf752ea38951fc12706edf7f731b5417" target="_top" xlink:title="remove_head">
<polygon fill="none" stroke="black" points="423.5,-363.5 423.5,-382.5 498.5,-382.5 498.5,-363.5 423.5,-363.5"/>
<text text-anchor="middle" x="461" y="-370.5" font-family="Helvetica,sans-Serif" font-size="10.00">remove_head</text>
</a>
</g>
</g>
<!-- Node3&#45;&gt;Node8 -->
<g id="edge9" class="edge"><title>Node3&#45;&gt;Node8</title>
<path fill="none" stroke="midnightblue" d="M349.347,-387.205C368.759,-384.713 392.675,-381.643 413.299,-378.995"/>
<polygon fill="midnightblue" stroke="midnightblue" points="413.961,-382.439 423.434,-377.694 413.069,-375.496 413.961,-382.439"/>
</g>
<!-- Node9 -->
<g id="node9" class="node"><title>Node9</title>
<g id="a_node9"><a xlink:href="../../d1/d0e/group__array.html#ga26cb748cd8a50b54dfa0b21dca9deff8" target="_top" xlink:title="array_compress">
<polygon fill="none" stroke="black" points="418,-325.5 418,-344.5 504,-344.5 504,-325.5 418,-325.5"/>
<text text-anchor="middle" x="461" y="-332.5" font-family="Helvetica,sans-Serif" font-size="10.00">array_compress</text>
</a>
</g>
</g>
<!-- Node3&#45;&gt;Node9 -->
<g id="edge11" class="edge"><title>Node3&#45;&gt;Node9</title>
<path fill="none" stroke="midnightblue" d="M334.149,-382.38C352.685,-374.443 379.896,-363.056 404,-354 409.541,-351.918 415.427,-349.81 421.221,-347.794"/>
<polygon fill="midnightblue" stroke="midnightblue" points="422.484,-351.061 430.808,-344.507 420.214,-344.439 422.484,-351.061"/>
</g>
<!-- Node4&#45;&gt;Node5 -->
<g id="edge4" class="edge"><title>Node4&#45;&gt;Node5</title>
<path fill="none" stroke="midnightblue" d="M489.724,-452.845C508.623,-455.466 534.034,-458.99 555.595,-461.98"/>
<polygon fill="midnightblue" stroke="midnightblue" points="555.122,-465.448 565.508,-463.355 556.084,-458.514 555.122,-465.448"/>
</g>
<!-- Node6 -->
<g id="node6" class="node"><title>Node6</title>
<g id="a_node6"><a xlink:href="../../dc/dcc/array_8c.html#a1814774789ffaf948b25734a7dd0f3ed" target="_top" xlink:title="get_size">
<polygon fill="none" stroke="black" points="573.5,-382.5 573.5,-401.5 626.5,-401.5 626.5,-382.5 573.5,-382.5"/>
<text text-anchor="middle" x="600" y="-389.5" font-family="Helvetica,sans-Serif" font-size="10.00">get_size</text>
</a>
</g>
</g>
<!-- Node4&#45;&gt;Node6 -->
<g id="edge5" class="edge"><title>Node4&#45;&gt;Node6</title>
<path fill="none" stroke="midnightblue" d="M489.568,-440.327C498.697,-437.274 508.858,-433.682 518,-430 536.017,-422.744 555.759,-413.509 571.242,-405.961"/>
<polygon fill="midnightblue" stroke="midnightblue" points="572.853,-409.069 580.279,-401.512 569.761,-402.789 572.853,-409.069"/>
</g>
<!-- Node7&#45;&gt;Node6 -->
<g id="edge8" class="edge"><title>Node7&#45;&gt;Node6</title>
<path fill="none" stroke="midnightblue" d="M494.815,-406.449C515.496,-403.581 542.197,-399.878 563.391,-396.939"/>
<polygon fill="midnightblue" stroke="midnightblue" points="563.877,-400.405 573.302,-395.564 562.916,-393.471 563.877,-400.405"/>
</g>
<!-- Node8&#45;&gt;Node6 -->
<g id="edge10" class="edge"><title>Node8&#45;&gt;Node6</title>
<path fill="none" stroke="midnightblue" d="M498.713,-378.092C518.827,-380.881 543.638,-384.322 563.55,-387.084"/>
<polygon fill="midnightblue" stroke="midnightblue" points="563.079,-390.552 573.465,-388.459 564.04,-383.618 563.079,-390.552"/>
</g>
<!-- Node9&#45;&gt;Node6 -->
<g id="edge12" class="edge"><title>Node9&#45;&gt;Node6</title>
<path fill="none" stroke="midnightblue" d="M492.161,-344.546C500.593,-347.4 509.715,-350.663 518,-354 536.017,-361.256 555.759,-370.491 571.242,-378.039"/>
<polygon fill="midnightblue" stroke="midnightblue" points="569.761,-381.211 580.279,-382.488 572.853,-374.931 569.761,-381.211"/>
</g>
<!-- Node11 -->
<g id="node11" class="node"><title>Node11</title>
<g id="a_node11"><a xlink:href="../../d9/deb/group__configuration__attribute.html#ga4751fb80cd7a70cab7bb88cbaef9131c" target="_top" xlink:title="configuration_attribute\l_create">
<polygon fill="none" stroke="black" points="404.5,-276 404.5,-306 517.5,-306 517.5,-276 404.5,-276"/>
<text text-anchor="start" x="412.5" y="-294" font-family="Helvetica,sans-Serif" font-size="10.00">configuration_attribute</text>
<text text-anchor="middle" x="461" y="-283" font-family="Helvetica,sans-Serif" font-size="10.00">_create</text>
</a>
</g>
</g>
<!-- Node10&#45;&gt;Node11 -->
<g id="edge14" class="edge"><title>Node10&#45;&gt;Node11</title>
<path fill="none" stroke="midnightblue" d="M367.531,-291C376.138,-291 385.101,-291 393.913,-291"/>
<polygon fill="midnightblue" stroke="midnightblue" points="394.158,-294.5 404.158,-291 394.158,-287.5 394.158,-294.5"/>
</g>
<!-- Node13 -->
<g id="node13" class="node"><title>Node13</title>
<g id="a_node13"><a xlink:href="../../d3/dc0/group__linked__list.html#ga15bb4333e53dbef32d196e4388f43fdf" target="_top" xlink:title="linked_list_create">
<polygon fill="none" stroke="black" points="265,-237.5 265,-256.5 357,-256.5 357,-237.5 265,-237.5"/>
<text text-anchor="middle" x="311" y="-244.5" font-family="Helvetica,sans-Serif" font-size="10.00">linked_list_create</text>
</a>
</g>
</g>
<!-- Node12&#45;&gt;Node13 -->
<g id="edge17" class="edge"><title>Node12&#45;&gt;Node13</title>
<path fill="none" stroke="midnightblue" d="M218.074,-248.814C230.14,-248.576 242.767,-248.327 254.663,-248.092"/>
<polygon fill="midnightblue" stroke="midnightblue" points="254.967,-251.587 264.896,-247.89 254.829,-244.588 254.967,-251.587"/>
</g>
<!-- Node14 -->
<g id="node14" class="node"><title>Node14</title>
<g id="a_node14"><a xlink:href="../../d9/d78/duplicheck__listener_8c.html#a42e92cbe3b8fa821d53d1fdb7db5a639" target="_top" xlink:title="remove_first">
<polygon fill="none" stroke="black" points="425.5,-237.5 425.5,-256.5 496.5,-256.5 496.5,-237.5 425.5,-237.5"/>
<text text-anchor="middle" x="461" y="-244.5" font-family="Helvetica,sans-Serif" font-size="10.00">remove_first</text>
</a>
</g>
</g>
<!-- Node13&#45;&gt;Node14 -->
<g id="edge18" class="edge"><title>Node13&#45;&gt;Node14</title>
<path fill="none" stroke="midnightblue" d="M357.209,-247C375.629,-247 396.868,-247 415.241,-247"/>
<polygon fill="midnightblue" stroke="midnightblue" points="415.4,-250.5 425.4,-247 415.4,-243.5 415.4,-250.5"/>
</g>
<!-- Node15 -->
<g id="node15" class="node"><title>Node15</title>
<g id="a_node15"><a xlink:href="../../d9/d78/duplicheck__listener_8c.html#acaae3ea9f18caab2a2e47637da396ca9" target="_top" xlink:title="remove_if_empty">
<polygon fill="none" stroke="black" points="554,-290.5 554,-309.5 646,-309.5 646,-290.5 554,-290.5"/>
<text text-anchor="middle" x="600" y="-297.5" font-family="Helvetica,sans-Serif" font-size="10.00">remove_if_empty</text>
</a>
</g>
</g>
<!-- Node14&#45;&gt;Node15 -->
<g id="edge19" class="edge"><title>Node14&#45;&gt;Node15</title>
<path fill="none" stroke="midnightblue" d="M491.493,-256.573C500.084,-259.479 509.456,-262.762 518,-266 534.729,-272.34 553.134,-280.009 568.167,-286.457"/>
<polygon fill="midnightblue" stroke="midnightblue" points="566.939,-289.739 577.507,-290.492 569.715,-283.313 566.939,-289.739"/>
</g>
<!-- Node16 -->
<g id="node16" class="node"><title>Node16</title>
<g id="a_node16"><a xlink:href="../../d9/d78/duplicheck__listener_8c.html#aede77291d80d98c60a53f8438d3bd5bd" target="_top" xlink:title="entry_destroy">
<polygon fill="none" stroke="black" points="682,-500.5 682,-519.5 758,-519.5 758,-500.5 682,-500.5"/>
<text text-anchor="middle" x="720" y="-507.5" font-family="Helvetica,sans-Serif" font-size="10.00">entry_destroy</text>
</a>
</g>
</g>
<!-- Node15&#45;&gt;Node16 -->
<g id="edge20" class="edge"><title>Node15&#45;&gt;Node16</title>
<path fill="none" stroke="midnightblue" d="M607.313,-309.8C616.206,-323.701 632.809,-350.015 646,-373 669.909,-414.661 695.91,-464.718 709.502,-491.286"/>
<polygon fill="midnightblue" stroke="midnightblue" points="706.413,-492.933 714.073,-500.252 712.649,-489.754 706.413,-492.933"/>
</g>
<!-- Node17 -->
<g id="node17" class="node"><title>Node17</title>
<g id="a_node17"><a xlink:href="../../dc/d21/daemon_8c.html#a1e824dfeaa337e709772cb0c8e6c8dcc" target="_top" xlink:title="destroy">
<polygon fill="none" stroke="black" points="794.5,-500.5 794.5,-519.5 843.5,-519.5 843.5,-500.5 794.5,-500.5"/>
<text text-anchor="middle" x="819" y="-507.5" font-family="Helvetica,sans-Serif" font-size="10.00">destroy</text>
</a>
</g>
</g>
<!-- Node16&#45;&gt;Node17 -->
<g id="edge21" class="edge"><title>Node16&#45;&gt;Node17</title>
<path fill="none" stroke="midnightblue" d="M758.225,-510C766.79,-510 775.852,-510 784.259,-510"/>
<polygon fill="midnightblue" stroke="midnightblue" points="784.473,-513.5 794.473,-510 784.473,-506.5 784.473,-513.5"/>
</g>
<!-- Node18 -->
<g id="node18" class="node"><title>Node18</title>
<g id="a_node18"><a xlink:href="../../da/dfc/settings__parser_8c.html#af07d89f5ceaea0c7c8252cc41fd75f37" target="_top" xlink:title="free">
<polygon fill="none" stroke="black" points="1685.5,-481.5 1685.5,-500.5 1718.5,-500.5 1718.5,-481.5 1685.5,-481.5"/>
<text text-anchor="middle" x="1702" y="-488.5" font-family="Helvetica,sans-Serif" font-size="10.00">free</text>
</a>
</g>
</g>
<!-- Node16&#45;&gt;Node18 -->
<g id="edge69" class="edge"><title>Node16&#45;&gt;Node18</title>
<path fill="none" stroke="midnightblue" d="M736.278,-519.625C770.248,-540.076 855.193,-586 933,-586 933,-586 933,-586 1387,-586 1486.9,-586 1514.32,-579.7 1608,-545 1633.94,-535.391 1661.01,-518.815 1679.21,-506.556"/>
<polygon fill="midnightblue" stroke="midnightblue" points="1681.61,-509.151 1687.86,-500.599 1677.64,-503.385 1681.61,-509.151"/>
</g>
<!-- Node17&#45;&gt;Node18 -->
<g id="edge22" class="edge"><title>Node17&#45;&gt;Node18</title>
<path fill="none" stroke="midnightblue" d="M843.635,-518.763C854.56,-522.481 867.793,-526.52 880,-529 967.935,-546.868 991.268,-548 1081,-548 1081,-548 1081,-548 1387,-548 1486.12,-548 1511.03,-538.541 1608,-518 1631.21,-513.084 1657.08,-505.386 1675.64,-499.465"/>
<polygon fill="midnightblue" stroke="midnightblue" points="1676.95,-502.718 1685.38,-496.303 1674.79,-496.06 1676.95,-502.718"/>
</g>
<!-- Node19 -->
<g id="node19" class="node"><title>Node19</title>
<g id="a_node19"><a xlink:href="../../dc/d21/daemon_8c.html#a1b7023117168a75858bd535a56e709e2" target="_top" xlink:title="logger_entry_destroy">
<polygon fill="none" stroke="black" points="880.5,-500.5 880.5,-519.5 987.5,-519.5 987.5,-500.5 880.5,-500.5"/>
<text text-anchor="middle" x="934" y="-507.5" font-family="Helvetica,sans-Serif" font-size="10.00">logger_entry_destroy</text>
</a>
</g>
</g>
<!-- Node17&#45;&gt;Node19 -->
<g id="edge23" class="edge"><title>Node17&#45;&gt;Node19</title>
<path fill="none" stroke="midnightblue" d="M843.689,-510C851.578,-510 860.774,-510 870.206,-510"/>
<polygon fill="midnightblue" stroke="midnightblue" points="870.484,-513.5 880.484,-510 870.484,-506.5 870.484,-513.5"/>
</g>
<!-- Node20 -->
<g id="node20" class="node"><title>Node20</title>
<g id="a_node20"><a xlink:href="../../d9/d32/connect__manager_8c.html#a3b4dd773d88779165dc7243cb4e4fbee" target="_top" xlink:title="sender">
<polygon fill="none" stroke="black" points="911,-211.5 911,-230.5 957,-230.5 957,-211.5 911,-211.5"/>
<text text-anchor="middle" x="934" y="-218.5" font-family="Helvetica,sans-Serif" font-size="10.00">sender</text>
</a>
</g>
</g>
<!-- Node17&#45;&gt;Node20 -->
<g id="edge25" class="edge"><title>Node17&#45;&gt;Node20</title>
<path fill="none" stroke="midnightblue" d="M823.76,-500.384C839.913,-459.071 903.596,-296.201 925.53,-240.106"/>
<polygon fill="midnightblue" stroke="midnightblue" points="928.844,-241.24 929.226,-230.652 922.325,-238.69 928.844,-241.24"/>
</g>
<!-- Node19&#45;&gt;Node18 -->
<g id="edge24" class="edge"><title>Node19&#45;&gt;Node18</title>
<path fill="none" stroke="midnightblue" d="M987.754,-510C1047.31,-510 1147.12,-510 1233,-510 1233,-510 1233,-510 1387,-510 1494.3,-510 1621.84,-498.81 1675.36,-493.605"/>
<polygon fill="midnightblue" stroke="midnightblue" points="1675.73,-497.086 1685.34,-492.62 1675.04,-490.119 1675.73,-497.086"/>
</g>
<!-- Node21 -->
<g id="node21" class="node"><title>Node21</title>
<g id="a_node21"><a xlink:href="../../d9/d32/connect__manager_8c.html#ad295327b74b1c4e19a7096ad2979765b" target="_top" xlink:title="check_create">
<polygon fill="none" stroke="black" points="1044.5,-154.5 1044.5,-173.5 1119.5,-173.5 1119.5,-154.5 1044.5,-154.5"/>
<text text-anchor="middle" x="1082" y="-161.5" font-family="Helvetica,sans-Serif" font-size="10.00">check_create</text>
</a>
</g>
</g>
<!-- Node20&#45;&gt;Node21 -->
<g id="edge26" class="edge"><title>Node20&#45;&gt;Node21</title>
<path fill="none" stroke="midnightblue" d="M957.174,-212.343C981.046,-203.023 1019.31,-188.083 1046.99,-177.277"/>
<polygon fill="midnightblue" stroke="midnightblue" points="1048.62,-180.398 1056.67,-173.5 1046.08,-173.877 1048.62,-180.398"/>
</g>
<!-- Node22 -->
<g id="node22" class="node"><title>Node22</title>
<g id="a_node22"><a xlink:href="../../d9/d32/connect__manager_8c.html#a204f99a4a38f8c08c42cd120bcf1b9f7" target="_top" xlink:title="check_destroy">
<polygon fill="none" stroke="black" points="1346,-462.5 1346,-481.5 1426,-481.5 1426,-462.5 1346,-462.5"/>
<text text-anchor="middle" x="1386" y="-469.5" font-family="Helvetica,sans-Serif" font-size="10.00">check_destroy</text>
</a>
</g>
</g>
<!-- Node20&#45;&gt;Node22 -->
<g id="edge27" class="edge"><title>Node20&#45;&gt;Node22</title>
<path fill="none" stroke="midnightblue" d="M946.314,-230.586C963.021,-244.641 995.404,-271.505 1024,-293 1089.83,-342.487 1102.66,-361.517 1176,-399 1229.34,-426.263 1295.2,-447.388 1338.56,-459.743"/>
<polygon fill="midnightblue" stroke="midnightblue" points="1337.7,-463.135 1348.27,-462.47 1339.59,-456.396 1337.7,-463.135"/>
</g>
<!-- Node24 -->
<g id="node24" class="node"><title>Node24</title>
<g id="a_node24"><a xlink:href="../../d7/d87/group__endpoint__notify.html#ga89474ccd935bd6aeb2db5ae84c2fcbcf" target="_top" xlink:title="endpoint_notify_create\l_from_host">
<polygon fill="none" stroke="black" points="1024.5,-105 1024.5,-135 1139.5,-135 1139.5,-105 1024.5,-105"/>
<text text-anchor="start" x="1032.5" y="-123" font-family="Helvetica,sans-Serif" font-size="10.00">endpoint_notify_create</text>
<text text-anchor="middle" x="1082" y="-112" font-family="Helvetica,sans-Serif" font-size="10.00">_from_host</text>
</a>
</g>
</g>
<!-- Node20&#45;&gt;Node24 -->
<g id="edge31" class="edge"><title>Node20&#45;&gt;Node24</title>
<path fill="none" stroke="midnightblue" d="M944.644,-211.059C960.206,-195.433 992.326,-164.861 1024,-145 1026.97,-143.135 1030.11,-141.341 1033.32,-139.63"/>
<polygon fill="midnightblue" stroke="midnightblue" points="1035.12,-142.645 1042.49,-135.037 1031.98,-136.386 1035.12,-142.645"/>
</g>
<!-- Node26 -->
<g id="node26" class="node"><title>Node26</title>
<g id="a_node26"><a xlink:href="../../d9/d32/connect__manager_8c.html#a7f4c528dceb6dc21cbeeb405365db27d" target="_top" xlink:title="get_checklist_by_id">
<polygon fill="none" stroke="black" points="1492.5,-158.5 1492.5,-177.5 1595.5,-177.5 1595.5,-158.5 1492.5,-158.5"/>
<text text-anchor="middle" x="1544" y="-165.5" font-family="Helvetica,sans-Serif" font-size="10.00">get_checklist_by_id</text>
</a>
</g>
</g>
<!-- Node20&#45;&gt;Node26 -->
<g id="edge33" class="edge"><title>Node20&#45;&gt;Node26</title>
<path fill="none" stroke="midnightblue" d="M957.183,-217.2C999.564,-210.09 1095.03,-194.792 1176,-187 1283.44,-176.66 1409.16,-171.689 1482.07,-169.506"/>
<polygon fill="midnightblue" stroke="midnightblue" points="1482.54,-172.994 1492.44,-169.204 1482.34,-165.997 1482.54,-172.994"/>
</g>
<!-- Node30 -->
<g id="node30" class="node"><title>Node30</title>
<g id="a_node30"><a xlink:href="../../d9/d32/connect__manager_8c.html#a0c6f96218c9be021da288127130acaea" target="_top" xlink:title="get_triggered_pair">
<polygon fill="none" stroke="black" points="1035,-66.5 1035,-85.5 1129,-85.5 1129,-66.5 1035,-66.5"/>
<text text-anchor="middle" x="1082" y="-73.5" font-family="Helvetica,sans-Serif" font-size="10.00">get_triggered_pair</text>
</a>
</g>
</g>
<!-- Node20&#45;&gt;Node30 -->
<g id="edge37" class="edge"><title>Node20&#45;&gt;Node30</title>
<path fill="none" stroke="midnightblue" d="M939.252,-211.202C949.964,-187.65 980.353,-127.415 1024,-95 1026.51,-93.1323 1029.22,-91.4413 1032.05,-89.9113"/>
<polygon fill="midnightblue" stroke="midnightblue" points="1033.78,-92.9634 1041.36,-85.5533 1030.82,-86.6238 1033.78,-92.9634"/>
</g>
<!-- Node31 -->
<g id="node31" class="node"><title>Node31</title>
<g id="a_node31"><a xlink:href="../../d9/d32/connect__manager_8c.html#a7bcdfc183dd5ea52c1db9112000121eb" target="_top" xlink:title="match_waiting_pair">
<polygon fill="none" stroke="black" points="1031.5,-28.5 1031.5,-47.5 1132.5,-47.5 1132.5,-28.5 1031.5,-28.5"/>
<text text-anchor="middle" x="1082" y="-35.5" font-family="Helvetica,sans-Serif" font-size="10.00">match_waiting_pair</text>
</a>
</g>
</g>
<!-- Node20&#45;&gt;Node31 -->
<g id="edge38" class="edge"><title>Node20&#45;&gt;Node31</title>
<path fill="none" stroke="midnightblue" d="M937.538,-211.251C945.375,-183.064 971.867,-100.704 1024,-57 1026.03,-55.2995 1028.21,-53.7495 1030.51,-52.3368"/>
<polygon fill="midnightblue" stroke="midnightblue" points="1032.5,-55.2463 1039.77,-47.5408 1029.28,-49.0299 1032.5,-55.2463"/>
</g>
<!-- Node32 -->
<g id="node32" class="node"><title>Node32</title>
<g id="a_node32"><a xlink:href="../../d9/d32/connect__manager_8c.html#ab04c347706d661bcbd52ba901be05697" target="_top" xlink:title="schedule_checks">
<polygon fill="none" stroke="black" points="1188,-277.5 1188,-296.5 1280,-296.5 1280,-277.5 1188,-277.5"/>
<text text-anchor="middle" x="1234" y="-284.5" font-family="Helvetica,sans-Serif" font-size="10.00">schedule_checks</text>
</a>
</g>
</g>
<!-- Node20&#45;&gt;Node32 -->
<g id="edge39" class="edge"><title>Node20&#45;&gt;Node32</title>
<path fill="none" stroke="midnightblue" d="M957.075,-225.086C974.727,-232.051 1000.35,-243.496 1024,-250 1075.03,-264.034 1135.09,-271.147 1177.69,-276.301"/>
<polygon fill="midnightblue" stroke="midnightblue" points="1177.51,-279.805 1187.86,-277.539 1178.36,-272.856 1177.51,-279.805"/>
</g>
<!-- Node39 -->
<g id="node39" class="node"><title>Node39</title>
<g id="a_node39"><a xlink:href="../../d9/d32/connect__manager_8c.html#a84c6b0f36d7353c32bb874be21759a5f" target="_top" xlink:title="send_check">
<polygon fill="none" stroke="black" points="1047.5,-230.5 1047.5,-249.5 1116.5,-249.5 1116.5,-230.5 1047.5,-230.5"/>
<text text-anchor="middle" x="1082" y="-237.5" font-family="Helvetica,sans-Serif" font-size="10.00">send_check</text>
</a>
</g>
</g>
<!-- Node20&#45;&gt;Node39 -->
<g id="edge49" class="edge"><title>Node20&#45;&gt;Node39</title>
<path fill="none" stroke="midnightblue" d="M957.174,-223.886C978.372,-226.644 1010.92,-230.88 1037.33,-234.317"/>
<polygon fill="midnightblue" stroke="midnightblue" points="1037.11,-237.818 1047.48,-235.637 1038.01,-230.876 1037.11,-237.818"/>
</g>
<!-- Node22&#45;&gt;Node18 -->
<g id="edge30" class="edge"><title>Node22&#45;&gt;Node18</title>
<path fill="none" stroke="midnightblue" d="M1426.13,-474.368C1491.19,-478.305 1619.89,-486.092 1674.98,-489.426"/>
<polygon fill="midnightblue" stroke="midnightblue" points="1675.08,-492.938 1685.27,-490.048 1675.5,-485.951 1675.08,-492.938"/>
</g>
<!-- Node23 -->
<g id="node23" class="node"><title>Node23</title>
<g id="a_node23"><a xlink:href="../../d4/d87/group__chunk.html#gaa86c84493369a4254d5801cdca20d458" target="_top" xlink:title="chunk_free">
<polygon fill="none" stroke="black" points="1511.5,-424.5 1511.5,-443.5 1576.5,-443.5 1576.5,-424.5 1511.5,-424.5"/>
<text text-anchor="middle" x="1544" y="-431.5" font-family="Helvetica,sans-Serif" font-size="10.00">chunk_free</text>
</a>
</g>
</g>
<!-- Node22&#45;&gt;Node23 -->
<g id="edge28" class="edge"><title>Node22&#45;&gt;Node23</title>
<path fill="none" stroke="midnightblue" d="M1426.37,-462.411C1449.25,-456.838 1478.06,-449.819 1501.32,-444.152"/>
<polygon fill="midnightblue" stroke="midnightblue" points="1502.36,-447.502 1511.25,-441.734 1500.7,-440.7 1502.36,-447.502"/>
</g>
<!-- Node23&#45;&gt;Node18 -->
<g id="edge29" class="edge"><title>Node23&#45;&gt;Node18</title>
<path fill="none" stroke="midnightblue" d="M1571.11,-443.541C1600.16,-454.154 1646.77,-471.186 1675.55,-481.701"/>
<polygon fill="midnightblue" stroke="midnightblue" points="1674.68,-485.111 1685.28,-485.256 1677.09,-478.536 1674.68,-485.111"/>
</g>
<!-- Node25 -->
<g id="node25" class="node"><title>Node25</title>
<g id="a_node25"><a xlink:href="../../da/d0c/endpoint__notify_8c.html#a55fdd0651a0e929c599c0ffd77626082" target="_top" xlink:title="endpoint_notify_create">
<polygon fill="none" stroke="black" points="1176.5,-79.5 1176.5,-98.5 1291.5,-98.5 1291.5,-79.5 1176.5,-79.5"/>
<text text-anchor="middle" x="1234" y="-86.5" font-family="Helvetica,sans-Serif" font-size="10.00">endpoint_notify_create</text>
</a>
</g>
</g>
<!-- Node24&#45;&gt;Node25 -->
<g id="edge32" class="edge"><title>Node24&#45;&gt;Node25</title>
<path fill="none" stroke="midnightblue" d="M1139.71,-108.28C1151.89,-105.762 1164.77,-103.102 1176.93,-100.589"/>
<polygon fill="midnightblue" stroke="midnightblue" points="1177.86,-103.97 1186.94,-98.5183 1176.44,-97.1147 1177.86,-103.97"/>
</g>
<!-- Node27 -->
<g id="node27" class="node"><title>Node27</title>
<g id="a_node27"><a xlink:href="../../d9/d32/connect__manager_8c.html#a48e6c7d1bc525dc1f2627c117ec8fcdf" target="_top" xlink:title="match_checklist_by_id">
<polygon fill="none" stroke="black" points="1644,-158.5 1644,-177.5 1760,-177.5 1760,-158.5 1644,-158.5"/>
<text text-anchor="middle" x="1702" y="-165.5" font-family="Helvetica,sans-Serif" font-size="10.00">match_checklist_by_id</text>
</a>
</g>
</g>
<!-- Node26&#45;&gt;Node27 -->
<g id="edge34" class="edge"><title>Node26&#45;&gt;Node27</title>
<path fill="none" stroke="midnightblue" d="M1595.65,-168C1607.79,-168 1620.95,-168 1633.72,-168"/>
<polygon fill="midnightblue" stroke="midnightblue" points="1633.85,-171.5 1643.85,-168 1633.85,-164.5 1633.85,-171.5"/>
</g>
<!-- Node28 -->
<g id="node28" class="node"><title>Node28</title>
<g id="a_node28"><a xlink:href="../../d4/d87/group__chunk.html#gae6aabf03218cda073ab2173e02bff4ba" target="_top" xlink:title="chunk_equals">
<polygon fill="none" stroke="black" points="1809.5,-158.5 1809.5,-177.5 1886.5,-177.5 1886.5,-158.5 1809.5,-158.5"/>
<text text-anchor="middle" x="1848" y="-165.5" font-family="Helvetica,sans-Serif" font-size="10.00">chunk_equals</text>
</a>
</g>
</g>
<!-- Node27&#45;&gt;Node28 -->
<g id="edge35" class="edge"><title>Node27&#45;&gt;Node28</title>
<path fill="none" stroke="midnightblue" d="M1760.33,-168C1773.19,-168 1786.71,-168 1799.15,-168"/>
<polygon fill="midnightblue" stroke="midnightblue" points="1799.3,-171.5 1809.3,-168 1799.3,-164.5 1799.3,-171.5"/>
</g>
<!-- Node29 -->
<g id="node29" class="node"><title>Node29</title>
<g id="a_node29"><a xlink:href="../../dd/d74/group__memory__i.html#ga46d7935db00fd7092430dbf4f36c2850" target="_top" xlink:title="memeq">
<polygon fill="none" stroke="black" points="1936.5,-158.5 1936.5,-177.5 1985.5,-177.5 1985.5,-158.5 1936.5,-158.5"/>
<text text-anchor="middle" x="1961" y="-165.5" font-family="Helvetica,sans-Serif" font-size="10.00">memeq</text>
</a>
</g>
</g>
<!-- Node28&#45;&gt;Node29 -->
<g id="edge36" class="edge"><title>Node28&#45;&gt;Node29</title>
<path fill="none" stroke="midnightblue" d="M1886.58,-168C1899.45,-168 1913.77,-168 1926.31,-168"/>
<polygon fill="midnightblue" stroke="midnightblue" points="1926.37,-171.5 1936.37,-168 1926.37,-164.5 1926.37,-171.5"/>
</g>
<!-- Node32&#45;&gt;Node20 -->
<g id="edge48" class="edge"><title>Node32&#45;&gt;Node20</title>
<path fill="none" stroke="midnightblue" d="M1187.86,-291.427C1145.05,-290.273 1079.24,-283.191 1024,-268 997.757,-260.783 969.087,-247.483 951.572,-236.408"/>
<polygon fill="midnightblue" stroke="midnightblue" points="953.291,-233.342 943.074,-230.537 949.312,-239.101 953.291,-233.342"/>
</g>
<!-- Node33 -->
<g id="node33" class="node"><title>Node33</title>
<g id="a_node33"><a xlink:href="../../d9/d32/connect__manager_8c.html#a77eb11570d14635d5e6f46bc56b6efcf" target="_top" xlink:title="callback_data_create">
<polygon fill="none" stroke="black" points="1489.5,-329.5 1489.5,-348.5 1598.5,-348.5 1598.5,-329.5 1489.5,-329.5"/>
<text text-anchor="middle" x="1544" y="-336.5" font-family="Helvetica,sans-Serif" font-size="10.00">callback_data_create</text>
</a>
</g>
</g>
<!-- Node32&#45;&gt;Node33 -->
<g id="edge40" class="edge"><title>Node32&#45;&gt;Node33</title>
<path fill="none" stroke="midnightblue" d="M1247.34,-296.655C1264.35,-309.291 1296.5,-330.79 1328,-339 1377.66,-351.94 1435.99,-350.982 1479.35,-347.321"/>
<polygon fill="midnightblue" stroke="midnightblue" points="1479.84,-350.791 1489.48,-346.394 1479.2,-343.82 1479.84,-350.791"/>
</g>
<!-- Node34 -->
<g id="node34" class="node"><title>Node34</title>
<g id="a_node34"><a xlink:href="../../d9/d32/connect__manager_8c.html#a4674a63e69fa1940f68b6d6d4532d1dc" target="_top" xlink:title="callback_data_destroy">
<polygon fill="none" stroke="black" points="1329,-386.5 1329,-405.5 1443,-405.5 1443,-386.5 1329,-386.5"/>
<text text-anchor="middle" x="1386" y="-393.5" font-family="Helvetica,sans-Serif" font-size="10.00">callback_data_destroy</text>
</a>
</g>
</g>
<!-- Node32&#45;&gt;Node34 -->
<g id="edge41" class="edge"><title>Node32&#45;&gt;Node34</title>
<path fill="none" stroke="midnightblue" d="M1243.38,-296.567C1258.72,-313.623 1293,-349.59 1328,-372 1334.01,-375.851 1340.75,-379.321 1347.43,-382.348"/>
<polygon fill="midnightblue" stroke="midnightblue" points="1346.51,-385.76 1357.08,-386.459 1349.25,-379.32 1346.51,-385.76"/>
</g>
<!-- Node35 -->
<g id="node35" class="node"><title>Node35</title>
<g id="a_node35"><a xlink:href="../../d0/d8f/group__callback__job.html#ga6934f856d27d82413610263e27a5cfa1" target="_top" xlink:title="callback_job_create">
<polygon fill="none" stroke="black" points="1650.5,-234.5 1650.5,-253.5 1753.5,-253.5 1753.5,-234.5 1650.5,-234.5"/>
<text text-anchor="middle" x="1702" y="-241.5" font-family="Helvetica,sans-Serif" font-size="10.00">callback_job_create</text>
</a>
</g>
</g>
<!-- Node32&#45;&gt;Node35 -->
<g id="edge44" class="edge"><title>Node32&#45;&gt;Node35</title>
<path fill="none" stroke="midnightblue" d="M1280.17,-284.538C1350.43,-280.472 1490.06,-271.444 1608,-258 1618.45,-256.809 1629.53,-255.331 1640.26,-253.785"/>
<polygon fill="midnightblue" stroke="midnightblue" points="1641.02,-257.211 1650.41,-252.291 1640,-250.285 1641.02,-257.211"/>
</g>
<!-- Node34&#45;&gt;Node18 -->
<g id="edge43" class="edge"><title>Node34&#45;&gt;Node18</title>
<path fill="none" stroke="midnightblue" d="M1443.15,-391.863C1489.13,-390.549 1555.01,-393.499 1608,-415 1639.84,-427.917 1669.22,-455.689 1686.11,-473.844"/>
<polygon fill="midnightblue" stroke="midnightblue" points="1683.66,-476.349 1692.96,-481.42 1688.85,-471.655 1683.66,-476.349"/>
</g>
<!-- Node34&#45;&gt;Node23 -->
<g id="edge42" class="edge"><title>Node34&#45;&gt;Node23</title>
<path fill="none" stroke="midnightblue" d="M1426.37,-405.589C1449.25,-411.162 1478.06,-418.181 1501.32,-423.848"/>
<polygon fill="midnightblue" stroke="midnightblue" points="1500.7,-427.3 1511.25,-426.266 1502.36,-420.498 1500.7,-427.3"/>
</g>
<!-- Node36 -->
<g id="node36" class="node"><title>Node36</title>
<g id="a_node36"><a xlink:href="../../d0/d8f/group__callback__job.html#gadfa6801d50c2e34bb3f9e1c98efe02d0" target="_top" xlink:title="callback_job_create\l_with_prio">
<polygon fill="none" stroke="black" points="1796.5,-229 1796.5,-259 1899.5,-259 1899.5,-229 1796.5,-229"/>
<text text-anchor="start" x="1804.5" y="-247" font-family="Helvetica,sans-Serif" font-size="10.00">callback_job_create</text>
<text text-anchor="middle" x="1848" y="-236" font-family="Helvetica,sans-Serif" font-size="10.00">_with_prio</text>
</a>
</g>
</g>
<!-- Node35&#45;&gt;Node36 -->
<g id="edge45" class="edge"><title>Node35&#45;&gt;Node36</title>
<path fill="none" stroke="midnightblue" d="M1753.77,-244C1764.2,-244 1775.29,-244 1786.03,-244"/>
<polygon fill="midnightblue" stroke="midnightblue" points="1786.2,-247.5 1796.2,-244 1786.2,-240.5 1786.2,-247.5"/>
</g>
<!-- Node37 -->
<g id="node37" class="node"><title>Node37</title>
<g id="a_node37"><a xlink:href="../../d1/d14/fetch_8c.html#a17dd1592e9f4ebc44d5126c03a3a9697" target="_top" xlink:title="cb">
<polygon fill="none" stroke="black" points="1946.5,-253.5 1946.5,-272.5 1975.5,-272.5 1975.5,-253.5 1946.5,-253.5"/>
<text text-anchor="middle" x="1961" y="-260.5" font-family="Helvetica,sans-Serif" font-size="10.00">cb</text>
</a>
</g>
</g>
<!-- Node36&#45;&gt;Node37 -->
<g id="edge46" class="edge"><title>Node36&#45;&gt;Node37</title>
<path fill="none" stroke="midnightblue" d="M1899.63,-252.666C1912.49,-254.868 1925.71,-257.13 1936.48,-258.975"/>
<polygon fill="midnightblue" stroke="midnightblue" points="1935.9,-262.425 1946.34,-260.662 1937.08,-255.525 1935.9,-262.425"/>
</g>
<!-- Node38 -->
<g id="node38" class="node"><title>Node38</title>
<g id="a_node38"><a xlink:href="../../d2/dca/nm__backend_8c.html#a22ea158445c16ed72f5ab270e1dc691b" target="_top" xlink:title="cancel">
<polygon fill="none" stroke="black" points="1938.5,-215.5 1938.5,-234.5 1983.5,-234.5 1983.5,-215.5 1938.5,-215.5"/>
<text text-anchor="middle" x="1961" y="-222.5" font-family="Helvetica,sans-Serif" font-size="10.00">cancel</text>
</a>
</g>
</g>
<!-- Node36&#45;&gt;Node38 -->
<g id="edge47" class="edge"><title>Node36&#45;&gt;Node38</title>
<path fill="none" stroke="midnightblue" d="M1899.63,-235.334C1909.41,-233.66 1919.39,-231.951 1928.35,-230.417"/>
<polygon fill="midnightblue" stroke="midnightblue" points="1929.06,-233.847 1938.33,-228.71 1927.88,-226.947 1929.06,-233.847"/>
</g>
<!-- Node40 -->
<g id="node40" class="node"><title>Node40</title>
<g id="a_node40"><a xlink:href="../../d9/d32/connect__manager_8c.html#aedcaf4b4ca6bc58701b4c01f1e6c3b54" target="_top" xlink:title="build_signature">
<polygon fill="none" stroke="black" points="1193,-370.5 1193,-389.5 1275,-389.5 1275,-370.5 1193,-370.5"/>
<text text-anchor="middle" x="1234" y="-377.5" font-family="Helvetica,sans-Serif" font-size="10.00">build_signature</text>
</a>
</g>
</g>
<!-- Node39&#45;&gt;Node40 -->
<g id="edge50" class="edge"><title>Node39&#45;&gt;Node40</title>
<path fill="none" stroke="midnightblue" d="M1093.31,-249.623C1118.46,-273.101 1183.24,-333.557 1214.96,-363.161"/>
<polygon fill="midnightblue" stroke="midnightblue" points="1212.92,-366.045 1222.62,-370.31 1217.7,-360.928 1212.92,-366.045"/>
</g>
<!-- Node41 -->
<g id="node41" class="node"><title>Node41</title>
<g id="a_node41"><a xlink:href="../../d1/d7f/group__ike__sa__id.html#gaa080d65d35119ab2dd69b73309c14566" target="_top" xlink:title="ike_sa_id_create">
<polygon fill="none" stroke="black" points="1189,-196.5 1189,-215.5 1279,-215.5 1279,-196.5 1189,-196.5"/>
<text text-anchor="middle" x="1234" y="-203.5" font-family="Helvetica,sans-Serif" font-size="10.00">ike_sa_id_create</text>
</a>
</g>
</g>
<!-- Node39&#45;&gt;Node41 -->
<g id="edge52" class="edge"><title>Node39&#45;&gt;Node41</title>
<path fill="none" stroke="midnightblue" d="M1116.66,-232.37C1135.6,-228.077 1159.66,-222.624 1180.97,-217.793"/>
<polygon fill="midnightblue" stroke="midnightblue" points="1181.88,-221.175 1190.86,-215.551 1180.34,-214.348 1181.88,-221.175"/>
</g>
<!-- Node42 -->
<g id="node42" class="node"><title>Node42</title>
<g id="a_node42"><a xlink:href="../../de/d9a/group__message.html#gac4bba880d7840360ecb8e4137526420b" target="_top" xlink:title="message_create">
<polygon fill="none" stroke="black" points="1189.5,-117.5 1189.5,-136.5 1278.5,-136.5 1278.5,-117.5 1189.5,-117.5"/>
<text text-anchor="middle" x="1234" y="-124.5" font-family="Helvetica,sans-Serif" font-size="10.00">message_create</text>
</a>
</g>
</g>
<!-- Node39&#45;&gt;Node42 -->
<g id="edge53" class="edge"><title>Node39&#45;&gt;Node42</title>
<path fill="none" stroke="midnightblue" d="M1095.79,-230.366C1121.69,-210.851 1180.57,-166.496 1212.12,-142.73"/>
<polygon fill="midnightblue" stroke="midnightblue" points="1214.36,-145.423 1220.24,-136.61 1210.15,-139.831 1214.36,-145.423"/>
</g>
<!-- Node47 -->
<g id="node47" class="node"><title>Node47</title>
<g id="a_node47"><a xlink:href="../../d9/d32/connect__manager_8c.html#a78416603d2ebd2bb0dcf49e3ccd4ae9c" target="_top" xlink:title="queue_retransmission">
<polygon fill="none" stroke="black" points="1178,-234.5 1178,-253.5 1290,-253.5 1290,-234.5 1178,-234.5"/>
<text text-anchor="middle" x="1234" y="-241.5" font-family="Helvetica,sans-Serif" font-size="10.00">queue_retransmission</text>
</a>
</g>
</g>
<!-- Node39&#45;&gt;Node47 -->
<g id="edge59" class="edge"><title>Node39&#45;&gt;Node47</title>
<path fill="none" stroke="midnightblue" d="M1116.66,-240.898C1131.75,-241.3 1150.09,-241.789 1167.7,-242.259"/>
<polygon fill="midnightblue" stroke="midnightblue" points="1167.87,-245.764 1177.96,-242.532 1168.06,-238.767 1167.87,-245.764"/>
</g>
<!-- Node40&#45;&gt;Node23 -->
<g id="edge51" class="edge"><title>Node40&#45;&gt;Node23</title>
<path fill="none" stroke="midnightblue" d="M1255.55,-389.59C1274.07,-397.779 1302.27,-409.136 1328,-415 1387.07,-428.46 1457.28,-432.497 1501,-433.644"/>
<polygon fill="midnightblue" stroke="midnightblue" points="1501.18,-437.149 1511.25,-433.873 1501.33,-430.151 1501.18,-437.149"/>
</g>
<!-- Node43 -->
<g id="node43" class="node"><title>Node43</title>
<g id="a_node43"><a xlink:href="../../de/d9a/group__message.html#ga2c4a060592f02346b2dbf3d1df2e6e3c" target="_top" xlink:title="message_create_from\l_packet">
<polygon fill="none" stroke="black" points="1329.5,-109 1329.5,-139 1442.5,-139 1442.5,-109 1329.5,-109"/>
<text text-anchor="start" x="1337.5" y="-127" font-family="Helvetica,sans-Serif" font-size="10.00">message_create_from</text>
<text text-anchor="middle" x="1386" y="-116" font-family="Helvetica,sans-Serif" font-size="10.00">_packet</text>
</a>
</g>
</g>
<!-- Node42&#45;&gt;Node43 -->
<g id="edge54" class="edge"><title>Node42&#45;&gt;Node43</title>
<path fill="none" stroke="midnightblue" d="M1278.79,-126.124C1291.4,-125.872 1305.44,-125.591 1319.08,-125.318"/>
<polygon fill="midnightblue" stroke="midnightblue" points="1319.47,-128.811 1329.4,-125.112 1319.33,-121.813 1319.47,-128.811"/>
</g>
<!-- Node45 -->
<g id="node45" class="node"><title>Node45</title>
<g id="a_node45"><a xlink:href="../../db/dd9/group__packet.html#ga860fd5eabb20eac45cf95ab30dc56a34" target="_top" xlink:title="packet_create">
<polygon fill="none" stroke="black" points="1347,-70.5 1347,-89.5 1425,-89.5 1425,-70.5 1347,-70.5"/>
<text text-anchor="middle" x="1386" y="-77.5" font-family="Helvetica,sans-Serif" font-size="10.00">packet_create</text>
</a>
</g>
</g>
<!-- Node42&#45;&gt;Node45 -->
<g id="edge57" class="edge"><title>Node42&#45;&gt;Node45</title>
<path fill="none" stroke="midnightblue" d="M1265.35,-117.489C1288.25,-110.314 1319.88,-100.403 1344.87,-92.5741"/>
<polygon fill="midnightblue" stroke="midnightblue" points="1345.94,-95.9075 1354.43,-89.5776 1343.84,-89.2277 1345.94,-95.9075"/>
</g>
<!-- Node43&#45;&gt;Node13 -->
<g id="edge55" class="edge"><title>Node43&#45;&gt;Node13</title>
<path fill="none" stroke="midnightblue" d="M1346.88,-108.964C1340.43,-105.947 1333.91,-102.59 1328,-99 1310.44,-88.336 1310.02,-79.8667 1292,-70 1198.42,-18.7656 1106.09,-0 1083,-0 599,-0 599,-0 599,-0 459.156,-0 353.548,-170.555 321.842,-228.214"/>
<polygon fill="midnightblue" stroke="midnightblue" points="318.599,-226.853 316.938,-237.317 324.762,-230.173 318.599,-226.853"/>
</g>
<!-- Node44 -->
<g id="node44" class="node"><title>Node44</title>
<g id="a_node44"><a xlink:href="../../dd/da8/group__parser.html#ga4f907e86ca85c0c5c10ad1d70a2db48b" target="_top" xlink:title="parser_create">
<polygon fill="none" stroke="black" points="1506,-114.5 1506,-133.5 1582,-133.5 1582,-114.5 1506,-114.5"/>
<text text-anchor="middle" x="1544" y="-121.5" font-family="Helvetica,sans-Serif" font-size="10.00">parser_create</text>
</a>
</g>
</g>
<!-- Node43&#45;&gt;Node44 -->
<g id="edge56" class="edge"><title>Node43&#45;&gt;Node44</title>
<path fill="none" stroke="midnightblue" d="M1442.88,-124C1460.11,-124 1478.91,-124 1495.52,-124"/>
<polygon fill="midnightblue" stroke="midnightblue" points="1495.55,-127.5 1505.55,-124 1495.55,-120.5 1495.55,-127.5"/>
</g>
<!-- Node46 -->
<g id="node46" class="node"><title>Node46</title>
<g id="a_node46"><a xlink:href="../../db/dd9/group__packet.html#ga09772f9176b3dc9c958bc821f515be79" target="_top" xlink:title="packet_create_from_data">
<polygon fill="none" stroke="black" points="1480.5,-70.5 1480.5,-89.5 1607.5,-89.5 1607.5,-70.5 1480.5,-70.5"/>
<text text-anchor="middle" x="1544" y="-77.5" font-family="Helvetica,sans-Serif" font-size="10.00">packet_create_from_data</text>
</a>
</g>
</g>
<!-- Node45&#45;&gt;Node46 -->
<g id="edge58" class="edge"><title>Node45&#45;&gt;Node46</title>
<path fill="none" stroke="midnightblue" d="M1425.16,-80C1438.78,-80 1454.61,-80 1470.16,-80"/>
<polygon fill="midnightblue" stroke="midnightblue" points="1470.31,-83.5001 1480.31,-80 1470.31,-76.5001 1470.31,-83.5001"/>
</g>
<!-- Node47&#45;&gt;Node34 -->
<g id="edge60" class="edge"><title>Node47&#45;&gt;Node34</title>
<path fill="none" stroke="midnightblue" d="M1268.68,-253.618C1277,-257.155 1285.4,-261.852 1292,-268 1317.89,-292.117 1307.23,-310.356 1328,-339 1338.95,-354.097 1353.94,-368.921 1365.8,-379.666"/>
<polygon fill="midnightblue" stroke="midnightblue" points="1363.62,-382.404 1373.43,-386.406 1368.25,-377.16 1363.62,-382.404"/>
</g>
<!-- Node47&#45;&gt;Node35 -->
<g id="edge61" class="edge"><title>Node47&#45;&gt;Node35</title>
<path fill="none" stroke="midnightblue" d="M1290.29,-244C1378.15,-244 1549.03,-244 1640.23,-244"/>
<polygon fill="midnightblue" stroke="midnightblue" points="1640.4,-247.5 1650.4,-244 1640.4,-240.5 1640.4,-247.5"/>
</g>
<!-- Node48 -->
<g id="node48" class="node"><title>Node48</title>
<g id="a_node48"><a xlink:href="../../d9/d32/connect__manager_8c.html#a13543d329388560c587b6f8b6a014329" target="_top" xlink:title="retransmit">
<polygon fill="none" stroke="red" points="1356,-196.5 1356,-215.5 1416,-215.5 1416,-196.5 1356,-196.5"/>
<text text-anchor="middle" x="1386" y="-203.5" font-family="Helvetica,sans-Serif" font-size="10.00">retransmit</text>
</a>
</g>
</g>
<!-- Node47&#45;&gt;Node48 -->
<g id="edge62" class="edge"><title>Node47&#45;&gt;Node48</title>
<path fill="none" stroke="midnightblue" d="M1254.3,-234.408C1277.38,-226.373 1316.57,-216.011 1346.03,-209.869"/>
<polygon fill="midnightblue" stroke="midnightblue" points="1346.88,-213.269 1356,-207.884 1345.51,-206.404 1346.88,-213.269"/>
</g>
<!-- Node50 -->
<g id="node50" class="node"><title>Node50</title>
<g id="a_node50"><a xlink:href="../../d9/d32/connect__manager_8c.html#a07f604baaa16961bf7bc5a2df1139e24" target="_top" xlink:title="retransmit_data_create">
<polygon fill="none" stroke="black" points="1328,-310.5 1328,-329.5 1444,-329.5 1444,-310.5 1328,-310.5"/>
<text text-anchor="middle" x="1386" y="-317.5" font-family="Helvetica,sans-Serif" font-size="10.00">retransmit_data_create</text>
</a>
</g>
</g>
<!-- Node47&#45;&gt;Node50 -->
<g id="edge67" class="edge"><title>Node47&#45;&gt;Node50</title>
<path fill="none" stroke="midnightblue" d="M1259.4,-253.573C1269.59,-257.752 1281.48,-262.865 1292,-268 1315.75,-279.594 1341.95,-294.442 1360.48,-305.302"/>
<polygon fill="midnightblue" stroke="midnightblue" points="1358.77,-308.358 1369.16,-310.429 1362.33,-302.33 1358.77,-308.358"/>
</g>
<!-- Node48&#45;&gt;Node26 -->
<g id="edge65" class="edge"><title>Node48&#45;&gt;Node26</title>
<path fill="none" stroke="midnightblue" d="M1416.34,-198.852C1438.16,-193.538 1468.43,-186.164 1493.91,-179.958"/>
<polygon fill="midnightblue" stroke="midnightblue" points="1494.89,-183.323 1503.77,-177.555 1493.23,-176.521 1494.89,-183.323"/>
</g>
<!-- Node48&#45;&gt;Node47 -->
<g id="edge66" class="edge"><title>Node48&#45;&gt;Node47</title>
<path fill="none" stroke="midnightblue" d="M1365.87,-215.532C1349.11,-221.381 1323.74,-228.476 1299.79,-234.279"/>
<polygon fill="midnightblue" stroke="midnightblue" points="1298.93,-230.888 1290,-236.598 1300.54,-237.7 1298.93,-230.888"/>
</g>
<!-- Node49 -->
<g id="node49" class="node"><title>Node49</title>
<g id="a_node49"><a xlink:href="../../d9/d32/connect__manager_8c.html#a9dcaddd1fa6089a78bc2c65fde83817a" target="_top" xlink:title="finish_checks">
<polygon fill="none" stroke="red" points="1505.5,-196.5 1505.5,-215.5 1582.5,-215.5 1582.5,-196.5 1505.5,-196.5"/>
<text text-anchor="middle" x="1544" y="-203.5" font-family="Helvetica,sans-Serif" font-size="10.00">finish_checks</text>
</a>
</g>
</g>
<!-- Node48&#45;&gt;Node49 -->
<g id="edge63" class="edge"><title>Node48&#45;&gt;Node49</title>
<path fill="none" stroke="midnightblue" d="M1416.34,-206C1438.45,-206 1469.24,-206 1494.93,-206"/>
<polygon fill="midnightblue" stroke="midnightblue" points="1495.22,-209.5 1505.22,-206 1495.22,-202.5 1495.22,-209.5"/>
</g>
<!-- Node49&#45;&gt;Node35 -->
<g id="edge64" class="edge"><title>Node49&#45;&gt;Node35</title>
<path fill="none" stroke="midnightblue" d="M1582.76,-215.199C1603.56,-220.266 1629.62,-226.613 1651.98,-232.058"/>
<polygon fill="midnightblue" stroke="midnightblue" points="1651.41,-235.523 1661.96,-234.489 1653.07,-228.722 1651.41,-235.523"/>
</g>
<!-- Node50&#45;&gt;Node33 -->
<g id="edge68" class="edge"><title>Node50&#45;&gt;Node33</title>
<path fill="none" stroke="midnightblue" d="M1444.2,-326.967C1455.64,-328.36 1467.71,-329.83 1479.35,-331.248"/>
<polygon fill="midnightblue" stroke="midnightblue" points="1479.08,-334.741 1489.43,-332.476 1479.93,-327.792 1479.08,-334.741"/>
</g>
</g>
</svg>
