<?xml version="1.0" encoding="UTF-8" standalone="no"?>
<!DOCTYPE svg PUBLIC "-//W3C//DTD SVG 1.1//EN"
 "http://www.w3.org/Graphics/SVG/1.1/DTD/svg11.dtd">
<!-- Generated by graphviz version 2.36.0 (20140111.2315)
 -->
<!-- Title: read_triplets Pages: 1 -->
<svg width="422pt" height="38pt"
 viewBox="0.00 0.00 422.00 38.00" xmlns="http://www.w3.org/2000/svg" xmlns:xlink="http://www.w3.org/1999/xlink">
<g id="graph0" class="graph" transform="scale(1 1) rotate(0) translate(4 34)">
<title>read_triplets</title>
<!-- Node1 -->
<g id="node1" class="node"><title>Node1</title>
<polygon fill="#bfbfbf" stroke="black" points="0,-5.5 0,-24.5 70,-24.5 70,-5.5 0,-5.5"/>
<text text-anchor="middle" x="35" y="-12.5" font-family="Helvetica,sans-Serif" font-size="10.00">read_triplets</text>
</g>
<!-- Node2 -->
<g id="node2" class="node"><title>Node2</title>
<g id="a_node2"><a xlink:href="../../de/db7/group__eap__sim__file__triplets.html#ga7ee0a13e6b962d44c1cea9908184ce2a" target="_top" xlink:title="eap_sim_file_triplets\l_create">
<polygon fill="none" stroke="black" points="106,-0 106,-30 212,-30 212,-0 106,-0"/>
<text text-anchor="start" x="114" y="-18" font-family="Helvetica,sans-Serif" font-size="10.00">eap_sim_file_triplets</text>
<text text-anchor="middle" x="159" y="-7" font-family="Helvetica,sans-Serif" font-size="10.00">_create</text>
</a>
</g>
</g>
<!-- Node1&#45;&gt;Node2 -->
<g id="edge1" class="edge"><title>Node1&#45;&gt;Node2</title>
<path fill="none" stroke="midnightblue" d="M80.4318,-15C88.6462,-15 97.2944,-15 105.716,-15"/>
<polygon fill="midnightblue" stroke="midnightblue" points="80.3085,-11.5001 70.3085,-15 80.3084,-18.5001 80.3085,-11.5001"/>
</g>
<!-- Node3 -->
<g id="node3" class="node"><title>Node3</title>
<g id="a_node3"><a xlink:href="../../d6/d1a/eap__sim__file__plugin_8c.html#ae79628eac4658818d83909b7ca50cb86" target="_top" xlink:title="load_triplets">
<polygon fill="none" stroke="black" points="248.5,-5.5 248.5,-24.5 317.5,-24.5 317.5,-5.5 248.5,-5.5"/>
<text text-anchor="middle" x="283" y="-12.5" font-family="Helvetica,sans-Serif" font-size="10.00">load_triplets</text>
</a>
</g>
</g>
<!-- Node2&#45;&gt;Node3 -->
<g id="edge2" class="edge"><title>Node2&#45;&gt;Node3</title>
<path fill="none" stroke="midnightblue" d="M222.256,-15C231.281,-15 240.269,-15 248.43,-15"/>
<polygon fill="midnightblue" stroke="midnightblue" points="222.093,-11.5001 212.093,-15 222.093,-18.5001 222.093,-11.5001"/>
</g>
<!-- Node4 -->
<g id="node4" class="node"><title>Node4</title>
<g id="a_node4"><a xlink:href="../../d6/d1a/eap__sim__file__plugin_8c.html#ad625359ddc8adf99eee6f5257e512133" target="_top" xlink:title="METHOD">
<polygon fill="none" stroke="black" points="354,-5.5 354,-24.5 414,-24.5 414,-5.5 354,-5.5"/>
<text text-anchor="middle" x="384" y="-12.5" font-family="Helvetica,sans-Serif" font-size="10.00">METHOD</text>
</a>
</g>
</g>
<!-- Node3&#45;&gt;Node4 -->
<g id="edge3" class="edge"><title>Node3&#45;&gt;Node4</title>
<path fill="none" stroke="midnightblue" d="M327.708,-15C336.547,-15 345.634,-15 353.824,-15"/>
<polygon fill="midnightblue" stroke="midnightblue" points="327.517,-11.5001 317.517,-15 327.517,-18.5001 327.517,-11.5001"/>
</g>
</g>
</svg>
