<?xml version="1.0" encoding="UTF-8" standalone="no"?>
<!DOCTYPE svg PUBLIC "-//W3C//DTD SVG 1.1//EN"
 "http://www.w3.org/Graphics/SVG/1.1/DTD/svg11.dtd">
<!-- Generated by graphviz version 2.36.0 (20140111.2315)
 -->
<!-- Title: sys_logger.h Pages: 1 -->
<svg width="157pt" height="84pt"
 viewBox="0.00 0.00 157.00 84.00" xmlns="http://www.w3.org/2000/svg" xmlns:xlink="http://www.w3.org/1999/xlink">
<g id="graph0" class="graph" transform="scale(1 1) rotate(0) translate(4 80)">
<title>sys_logger.h</title>
<!-- Node1 -->
<g id="node1" class="node"><title>Node1</title>
<polygon fill="#bfbfbf" stroke="black" points="42,-56.5 42,-75.5 114,-75.5 114,-56.5 42,-56.5"/>
<text text-anchor="middle" x="78" y="-63.5" font-family="Helvetica,sans-Serif" font-size="10.00">sys_logger.h</text>
</g>
<!-- Node2 -->
<g id="node2" class="node"><title>Node2</title>
<g id="a_node2"><a xlink:href="../../d0/d90/sys__logger_8c.html" target="_top" xlink:title="sys_logger.c">
<polygon fill="none" stroke="black" points="0,-0.5 0,-19.5 72,-19.5 72,-0.5 0,-0.5"/>
<text text-anchor="middle" x="36" y="-7.5" font-family="Helvetica,sans-Serif" font-size="10.00">sys_logger.c</text>
</a>
</g>
</g>
<!-- Node1&#45;&gt;Node2 -->
<g id="edge1" class="edge"><title>Node1&#45;&gt;Node2</title>
<path fill="none" stroke="midnightblue" d="M64.8898,-48.144C57.5722,-38.7357 48.7591,-27.4046 42.8064,-19.7511"/>
<polygon fill="midnightblue" stroke="midnightblue" points="62.1624,-50.3383 71.0646,-56.083 67.6878,-46.0406 62.1624,-50.3383"/>
</g>
<!-- Node3 -->
<g id="node3" class="node"><title>Node3</title>
<g id="a_node3"><a xlink:href="../../dc/d21/daemon_8c.html" target="_top" xlink:title="daemon.c">
<polygon fill="none" stroke="black" points="90.5,-0.5 90.5,-19.5 149.5,-19.5 149.5,-0.5 90.5,-0.5"/>
<text text-anchor="middle" x="120" y="-7.5" font-family="Helvetica,sans-Serif" font-size="10.00">daemon.c</text>
</a>
</g>
</g>
<!-- Node1&#45;&gt;Node3 -->
<g id="edge2" class="edge"><title>Node1&#45;&gt;Node3</title>
<path fill="none" stroke="midnightblue" d="M91.1102,-48.144C98.4278,-38.7357 107.241,-27.4046 113.194,-19.7511"/>
<polygon fill="midnightblue" stroke="midnightblue" points="88.3122,-46.0406 84.9354,-56.083 93.8376,-50.3383 88.3122,-46.0406"/>
</g>
</g>
</svg>
