<?xml version="1.0" encoding="UTF-8" standalone="no"?>
<!DOCTYPE svg PUBLIC "-//W3C//DTD SVG 1.1//EN"
 "http://www.w3.org/Graphics/SVG/1.1/DTD/svg11.dtd">
<!-- Generated by graphviz version 2.36.0 (20140111.2315)
 -->
<!-- Title: check_list_destroy Pages: 1 -->
<svg width="1662pt" height="1218pt"
 viewBox="0.00 0.00 1662.00 1218.19" xmlns="http://www.w3.org/2000/svg" xmlns:xlink="http://www.w3.org/1999/xlink">
<g id="graph0" class="graph" transform="scale(1 1) rotate(0) translate(4 1214.19)">
<title>check_list_destroy</title>
<!-- Node1 -->
<g id="node1" class="node"><title>Node1</title>
<polygon fill="#bfbfbf" stroke="black" points="0,-142.5 0,-161.5 98,-161.5 98,-142.5 0,-142.5"/>
<text text-anchor="middle" x="49" y="-149.5" font-family="Helvetica,sans-Serif" font-size="10.00">check_list_destroy</text>
</g>
<!-- Node2 -->
<g id="node2" class="node"><title>Node2</title>
<g id="a_node2"><a xlink:href="../../d9/d32/connect__manager_8c.html#a0d29eaeb694f6f1788cfc3d61d071c40" target="_top" xlink:title="initiate_data_destroy">
<polygon fill="none" stroke="black" points="134.5,-142.5 134.5,-161.5 241.5,-161.5 241.5,-142.5 134.5,-142.5"/>
<text text-anchor="middle" x="188" y="-149.5" font-family="Helvetica,sans-Serif" font-size="10.00">initiate_data_destroy</text>
</a>
</g>
</g>
<!-- Node1&#45;&gt;Node2 -->
<g id="edge1" class="edge"><title>Node1&#45;&gt;Node2</title>
<path fill="none" stroke="midnightblue" d="M108.352,-152C117.03,-152 125.93,-152 134.479,-152"/>
<polygon fill="midnightblue" stroke="midnightblue" points="108.301,-148.5 98.3011,-152 108.301,-155.5 108.301,-148.5"/>
</g>
<!-- Node50 -->
<g id="node50" class="node"><title>Node50</title>
<g id="a_node50"><a xlink:href="../../d9/d32/connect__manager_8c.html#a34faf890e63b4ea96f344f51103d66f4" target="_top" xlink:title="METHOD">
<polygon fill="none" stroke="black" points="158,-104.5 158,-123.5 218,-123.5 218,-104.5 158,-104.5"/>
<text text-anchor="middle" x="188" y="-111.5" font-family="Helvetica,sans-Serif" font-size="10.00">METHOD</text>
</a>
</g>
</g>
<!-- Node1&#45;&gt;Node50 -->
<g id="edge58" class="edge"><title>Node1&#45;&gt;Node50</title>
<path fill="none" stroke="midnightblue" d="M94.4883,-139.66C115.328,-133.88 139.562,-127.158 157.998,-122.044"/>
<polygon fill="midnightblue" stroke="midnightblue" points="93.2716,-136.365 84.5709,-142.411 95.1426,-143.111 93.2716,-136.365"/>
</g>
<!-- Node3 -->
<g id="node3" class="node"><title>Node3</title>
<g id="a_node3"><a xlink:href="../../d9/d32/connect__manager_8c.html#a9dcaddd1fa6089a78bc2c65fde83817a" target="_top" xlink:title="finish_checks">
<polygon fill="none" stroke="black" points="278.5,-66.5 278.5,-85.5 355.5,-85.5 355.5,-66.5 278.5,-66.5"/>
<text text-anchor="middle" x="317" y="-73.5" font-family="Helvetica,sans-Serif" font-size="10.00">finish_checks</text>
</a>
</g>
</g>
<!-- Node2&#45;&gt;Node3 -->
<g id="edge2" class="edge"><title>Node2&#45;&gt;Node3</title>
<path fill="none" stroke="midnightblue" d="M230.269,-138.653C234.31,-136.918 238.285,-135.031 242,-133 266.759,-119.465 292.047,-97.9966 305.707,-85.6321"/>
<polygon fill="midnightblue" stroke="midnightblue" points="228.809,-135.467 220.813,-142.418 231.399,-141.97 228.809,-135.467"/>
</g>
<!-- Node4 -->
<g id="node4" class="node"><title>Node4</title>
<g id="a_node4"><a xlink:href="../../d9/d32/connect__manager_8c.html#a9a5d8c42d5ad5532c0b1e90126b158eb" target="_top" xlink:title="initiator_finish">
<polygon fill="none" stroke="black" points="392.5,-47.5 392.5,-66.5 469.5,-66.5 469.5,-47.5 392.5,-47.5"/>
<text text-anchor="middle" x="431" y="-54.5" font-family="Helvetica,sans-Serif" font-size="10.00">initiator_finish</text>
</a>
</g>
</g>
<!-- Node3&#45;&gt;Node4 -->
<g id="edge3" class="edge"><title>Node3&#45;&gt;Node4</title>
<path fill="none" stroke="midnightblue" d="M365.528,-67.9372C374.471,-66.42 383.71,-64.8528 392.303,-63.3951"/>
<polygon fill="midnightblue" stroke="midnightblue" points="364.88,-64.4971 355.606,-69.6204 366.051,-71.3985 364.88,-64.4971"/>
</g>
<!-- Node6 -->
<g id="node6" class="node"><title>Node6</title>
<g id="a_node6"><a xlink:href="../../d9/d32/connect__manager_8c.html#a13543d329388560c587b6f8b6a014329" target="_top" xlink:title="retransmit">
<polygon fill="none" stroke="black" points="678,-66.5 678,-85.5 738,-85.5 738,-66.5 678,-66.5"/>
<text text-anchor="middle" x="708" y="-73.5" font-family="Helvetica,sans-Serif" font-size="10.00">retransmit</text>
</a>
</g>
</g>
<!-- Node3&#45;&gt;Node6 -->
<g id="edge56" class="edge"><title>Node3&#45;&gt;Node6</title>
<path fill="none" stroke="midnightblue" d="M366.145,-76C447.834,-76 611.19,-76 677.755,-76"/>
<polygon fill="midnightblue" stroke="midnightblue" points="365.652,-72.5001 355.652,-76 365.652,-79.5001 365.652,-72.5001"/>
</g>
<!-- Node49 -->
<g id="node49" class="node"><title>Node49</title>
<g id="a_node49"><a xlink:href="../../d9/d32/connect__manager_8c.html#a04428344799f36588b11b05dfcd6d032" target="_top" xlink:title="process_response">
<polygon fill="none" stroke="black" points="660,-9.5 660,-28.5 756,-28.5 756,-9.5 660,-9.5"/>
<text text-anchor="middle" x="708" y="-16.5" font-family="Helvetica,sans-Serif" font-size="10.00">process_response</text>
</a>
</g>
</g>
<!-- Node3&#45;&gt;Node49 -->
<g id="edge57" class="edge"><title>Node3&#45;&gt;Node49</title>
<path fill="none" stroke="midnightblue" d="M340.833,-61.1324C354.968,-52.7454 373.832,-42.9757 392,-38 484.34,-12.7103 597.393,-13.0936 659.854,-15.8844"/>
<polygon fill="midnightblue" stroke="midnightblue" points="338.975,-58.1664 332.282,-66.3799 342.636,-64.1325 338.975,-58.1664"/>
</g>
<!-- Node5 -->
<g id="node5" class="node"><title>Node5</title>
<g id="a_node5"><a xlink:href="../../d9/d32/connect__manager_8c.html#ac98deeff0f6b21552e296f73f8aeac5a" target="_top" xlink:title="update_checklist_state">
<polygon fill="none" stroke="black" points="506.5,-47.5 506.5,-66.5 623.5,-66.5 623.5,-47.5 506.5,-47.5"/>
<text text-anchor="middle" x="565" y="-54.5" font-family="Helvetica,sans-Serif" font-size="10.00">update_checklist_state</text>
</a>
</g>
</g>
<!-- Node4&#45;&gt;Node5 -->
<g id="edge4" class="edge"><title>Node4&#45;&gt;Node5</title>
<path fill="none" stroke="midnightblue" d="M480.04,-57C488.628,-57 497.655,-57 506.476,-57"/>
<polygon fill="midnightblue" stroke="midnightblue" points="479.826,-53.5001 469.826,-57 479.826,-60.5001 479.826,-53.5001"/>
</g>
<!-- Node5&#45;&gt;Node6 -->
<g id="edge5" class="edge"><title>Node5&#45;&gt;Node6</title>
<path fill="none" stroke="midnightblue" d="M633.847,-66.1425C649.286,-68.223 664.896,-70.3263 677.707,-72.0527"/>
<polygon fill="midnightblue" stroke="midnightblue" points="634.135,-62.6497 623.757,-64.7828 633.2,-69.587 634.135,-62.6497"/>
</g>
<!-- Node5&#45;&gt;Node49 -->
<g id="edge54" class="edge"><title>Node5&#45;&gt;Node49</title>
<path fill="none" stroke="midnightblue" d="M611.44,-44.7538C630.875,-39.516 653.231,-33.4909 671.431,-28.5859"/>
<polygon fill="midnightblue" stroke="midnightblue" points="610.325,-41.4293 601.58,-47.411 612.147,-48.1882 610.325,-41.4293"/>
</g>
<!-- Node7 -->
<g id="node7" class="node"><title>Node7</title>
<g id="a_node7"><a xlink:href="../../d9/d32/connect__manager_8c.html#a78416603d2ebd2bb0dcf49e3ccd4ae9c" target="_top" xlink:title="queue_retransmission">
<polygon fill="none" stroke="black" points="792,-66.5 792,-85.5 904,-85.5 904,-66.5 792,-66.5"/>
<text text-anchor="middle" x="848" y="-73.5" font-family="Helvetica,sans-Serif" font-size="10.00">queue_retransmission</text>
</a>
</g>
</g>
<!-- Node6&#45;&gt;Node7 -->
<g id="edge6" class="edge"><title>Node6&#45;&gt;Node7</title>
<path fill="none" stroke="midnightblue" d="M748.626,-69.826C762.099,-69.2648 777.408,-69.1137 791.87,-69.3727"/>
<polygon fill="midnightblue" stroke="midnightblue" points="748.071,-66.35 738.266,-70.364 748.434,-73.3406 748.071,-66.35"/>
</g>
<!-- Node45 -->
<g id="node45" class="node"><title>Node45</title>
<g id="a_node45"><a xlink:href="../../da/d10/radius__socket_8c.html#ada8f4f4ee654ec2c04fbd0610b19eb7b" target="_top" xlink:title="METHOD">
<polygon fill="none" stroke="black" points="818,-104.5 818,-123.5 878,-123.5 878,-104.5 818,-104.5"/>
<text text-anchor="middle" x="848" y="-111.5" font-family="Helvetica,sans-Serif" font-size="10.00">METHOD</text>
</a>
</g>
</g>
<!-- Node6&#45;&gt;Node45 -->
<g id="edge50" class="edge"><title>Node6&#45;&gt;Node45</title>
<path fill="none" stroke="midnightblue" d="M748.044,-86.7513C770.203,-92.853 797.477,-100.363 817.776,-105.953"/>
<polygon fill="midnightblue" stroke="midnightblue" points="748.837,-83.3393 738.266,-84.0588 746.978,-90.0881 748.837,-83.3393"/>
</g>
<!-- Node46 -->
<g id="node46" class="node"><title>Node46</title>
<g id="a_node46"><a xlink:href="../../dd/d65/task__manager__v1_8c.html#a4e51f0d370b0cb7eb17fdddf8ea4e8ce" target="_top" xlink:title="build_response">
<polygon fill="none" stroke="black" points="807,-28.5 807,-47.5 889,-47.5 889,-28.5 807,-28.5"/>
<text text-anchor="middle" x="848" y="-35.5" font-family="Helvetica,sans-Serif" font-size="10.00">build_response</text>
</a>
</g>
</g>
<!-- Node6&#45;&gt;Node46 -->
<g id="edge51" class="edge"><title>Node6&#45;&gt;Node46</title>
<path fill="none" stroke="midnightblue" d="M748.119,-65.2281C768.364,-59.6533 792.863,-52.9072 812.411,-47.5246"/>
<polygon fill="midnightblue" stroke="midnightblue" points="746.978,-61.9119 738.266,-67.9412 748.837,-68.6607 746.978,-61.9119"/>
</g>
<!-- Node7&#45;&gt;Node6 -->
<g id="edge7" class="edge"><title>Node7&#45;&gt;Node6</title>
<path fill="none" stroke="midnightblue" d="M781.453,-82.7425C766.303,-82.8085 750.93,-82.4397 738.266,-81.636"/>
<polygon fill="midnightblue" stroke="midnightblue" points="781.909,-86.2377 791.87,-82.6273 781.832,-79.2382 781.909,-86.2377"/>
</g>
<!-- Node8 -->
<g id="node8" class="node"><title>Node8</title>
<g id="a_node8"><a xlink:href="../../d9/d32/connect__manager_8c.html#a84c6b0f36d7353c32bb874be21759a5f" target="_top" xlink:title="send_check">
<polygon fill="none" stroke="black" points="950.5,-66.5 950.5,-85.5 1019.5,-85.5 1019.5,-66.5 950.5,-66.5"/>
<text text-anchor="middle" x="985" y="-73.5" font-family="Helvetica,sans-Serif" font-size="10.00">send_check</text>
</a>
</g>
</g>
<!-- Node7&#45;&gt;Node8 -->
<g id="edge8" class="edge"><title>Node7&#45;&gt;Node8</title>
<path fill="none" stroke="midnightblue" d="M914.618,-76C926.969,-76 939.404,-76 950.267,-76"/>
<polygon fill="midnightblue" stroke="midnightblue" points="914.299,-72.5001 904.299,-76 914.299,-79.5001 914.299,-72.5001"/>
</g>
<!-- Node9 -->
<g id="node9" class="node"><title>Node9</title>
<g id="a_node9"><a xlink:href="../../d9/d32/connect__manager_8c.html#a3b4dd773d88779165dc7243cb4e4fbee" target="_top" xlink:title="sender">
<polygon fill="none" stroke="black" points="1073,-66.5 1073,-85.5 1119,-85.5 1119,-66.5 1073,-66.5"/>
<text text-anchor="middle" x="1096" y="-73.5" font-family="Helvetica,sans-Serif" font-size="10.00">sender</text>
</a>
</g>
</g>
<!-- Node8&#45;&gt;Node9 -->
<g id="edge9" class="edge"><title>Node8&#45;&gt;Node9</title>
<path fill="none" stroke="midnightblue" d="M1029.6,-76C1044.38,-76 1060.29,-76 1072.71,-76"/>
<polygon fill="midnightblue" stroke="midnightblue" points="1029.59,-72.5001 1019.59,-76 1029.59,-79.5001 1029.59,-72.5001"/>
</g>
<!-- Node12 -->
<g id="node12" class="node"><title>Node12</title>
<g id="a_node12"><a xlink:href="../../d9/d32/connect__manager_8c.html#a596ec077ad11e4d472e8046683b85beb" target="_top" xlink:title="process_request">
<polygon fill="none" stroke="black" points="1465.5,-66.5 1465.5,-85.5 1554.5,-85.5 1554.5,-66.5 1465.5,-66.5"/>
<text text-anchor="middle" x="1510" y="-73.5" font-family="Helvetica,sans-Serif" font-size="10.00">process_request</text>
</a>
</g>
</g>
<!-- Node8&#45;&gt;Node12 -->
<g id="edge49" class="edge"><title>Node8&#45;&gt;Node12</title>
<path fill="none" stroke="midnightblue" d="M1028.23,-87.9699C1040.32,-90.8676 1053.59,-93.547 1066,-95 1224.91,-113.612 1267.01,-112.965 1426,-95 1442.45,-93.141 1460.39,-89.2719 1475.38,-85.5074"/>
<polygon fill="midnightblue" stroke="midnightblue" points="1028.94,-84.54 1018.39,-85.5066 1027.24,-91.3305 1028.94,-84.54"/>
</g>
<!-- Node10 -->
<g id="node10" class="node"><title>Node10</title>
<g id="a_node10"><a xlink:href="../../d9/d32/connect__manager_8c.html#ab04c347706d661bcbd52ba901be05697" target="_top" xlink:title="schedule_checks">
<polygon fill="none" stroke="black" points="1167,-28.5 1167,-47.5 1259,-47.5 1259,-28.5 1167,-28.5"/>
<text text-anchor="middle" x="1213" y="-35.5" font-family="Helvetica,sans-Serif" font-size="10.00">schedule_checks</text>
</a>
</g>
</g>
<!-- Node9&#45;&gt;Node10 -->
<g id="edge10" class="edge"><title>Node9&#45;&gt;Node10</title>
<path fill="none" stroke="midnightblue" d="M1121.38,-62.3078C1134.62,-56.9269 1151.4,-51.0565 1166.92,-46.2887"/>
<polygon fill="midnightblue" stroke="midnightblue" points="1119.86,-59.1539 1112.03,-66.3009 1122.61,-65.5912 1119.86,-59.1539"/>
</g>
<!-- Node15 -->
<g id="node15" class="node"><title>Node15</title>
<g id="a_node15"><a xlink:href="../../dc/d21/daemon_8c.html#a1e824dfeaa337e709772cb0c8e6c8dcc" target="_top" xlink:title="destroy">
<polygon fill="none" stroke="red" points="1188.5,-629.5 1188.5,-648.5 1237.5,-648.5 1237.5,-629.5 1188.5,-629.5"/>
<text text-anchor="middle" x="1213" y="-636.5" font-family="Helvetica,sans-Serif" font-size="10.00">destroy</text>
</a>
</g>
</g>
<!-- Node9&#45;&gt;Node15 -->
<g id="edge16" class="edge"><title>Node9&#45;&gt;Node15</title>
<path fill="none" stroke="midnightblue" d="M1101,-95.5834C1119.53,-186.32 1196.72,-564.199 1210.04,-629.398"/>
<polygon fill="midnightblue" stroke="midnightblue" points="1104.43,-94.8691 1099,-85.7719 1097.57,-96.2701 1104.43,-94.8691"/>
</g>
<!-- Node44 -->
<g id="node44" class="node"><title>Node44</title>
<g id="a_node44"><a xlink:href="../../dc/d21/daemon_8c.html#a9855945718e95854c7188893dba56359" target="_top" xlink:title="sender_receiver_cb">
<polygon fill="none" stroke="red" points="1162.5,-66.5 1162.5,-85.5 1263.5,-85.5 1263.5,-66.5 1162.5,-66.5"/>
<text text-anchor="middle" x="1213" y="-73.5" font-family="Helvetica,sans-Serif" font-size="10.00">sender_receiver_cb</text>
</a>
</g>
</g>
<!-- Node9&#45;&gt;Node44 -->
<g id="edge48" class="edge"><title>Node9&#45;&gt;Node44</title>
<path fill="none" stroke="midnightblue" d="M1129.29,-76C1139.53,-76 1151.1,-76 1162.27,-76"/>
<polygon fill="midnightblue" stroke="midnightblue" points="1129.17,-72.5001 1119.17,-76 1129.17,-79.5001 1129.17,-72.5001"/>
</g>
<!-- Node10&#45;&gt;Node9 -->
<g id="edge14" class="edge"><title>Node10&#45;&gt;Node9</title>
<path fill="none" stroke="midnightblue" d="M1187.73,-51.6452C1167.47,-59.8923 1138.83,-69.3013 1119.17,-74.1312"/>
<polygon fill="midnightblue" stroke="midnightblue" points="1189.39,-54.7453 1197.2,-47.5924 1186.63,-48.3101 1189.39,-54.7453"/>
</g>
<!-- Node11 -->
<g id="node11" class="node"><title>Node11</title>
<g id="a_node11"><a xlink:href="../../d9/d32/connect__manager_8c.html#af584ff3c884c769246784fed3318b7fa" target="_top" xlink:title="queue_triggered_check">
<polygon fill="none" stroke="black" points="1304.5,-66.5 1304.5,-85.5 1421.5,-85.5 1421.5,-66.5 1304.5,-66.5"/>
<text text-anchor="middle" x="1363" y="-73.5" font-family="Helvetica,sans-Serif" font-size="10.00">queue_triggered_check</text>
</a>
</g>
</g>
<!-- Node10&#45;&gt;Node11 -->
<g id="edge11" class="edge"><title>Node10&#45;&gt;Node11</title>
<path fill="none" stroke="midnightblue" d="M1261.17,-50.1121C1281.79,-55.4044 1305.61,-61.5213 1324.92,-66.4799"/>
<polygon fill="midnightblue" stroke="midnightblue" points="1261.9,-46.6859 1251.35,-47.589 1260.16,-53.466 1261.9,-46.6859"/>
</g>
<!-- Node14 -->
<g id="node14" class="node"><title>Node14</title>
<g id="a_node14"><a xlink:href="../../d9/d32/connect__manager_8c.html#a4f449262c53c390af00b91b57ae56cda" target="_top" xlink:title="METHOD">
<polygon fill="none" stroke="black" points="1333,-28.5 1333,-47.5 1393,-47.5 1393,-28.5 1333,-28.5"/>
<text text-anchor="middle" x="1363" y="-35.5" font-family="Helvetica,sans-Serif" font-size="10.00">METHOD</text>
</a>
</g>
</g>
<!-- Node10&#45;&gt;Node14 -->
<g id="edge15" class="edge"><title>Node10&#45;&gt;Node14</title>
<path fill="none" stroke="midnightblue" d="M1269.28,-38C1290.9,-38 1314.8,-38 1332.92,-38"/>
<polygon fill="midnightblue" stroke="midnightblue" points="1269.21,-34.5001 1259.21,-38 1269.21,-41.5001 1269.21,-34.5001"/>
</g>
<!-- Node11&#45;&gt;Node12 -->
<g id="edge12" class="edge"><title>Node11&#45;&gt;Node12</title>
<path fill="none" stroke="midnightblue" d="M1432.05,-76C1443.37,-76 1454.83,-76 1465.33,-76"/>
<polygon fill="midnightblue" stroke="midnightblue" points="1431.72,-72.5001 1421.72,-76 1431.72,-79.5001 1431.72,-72.5001"/>
</g>
<!-- Node13 -->
<g id="node13" class="node"><title>Node13</title>
<g id="a_node13"><a xlink:href="../../d9/d32/connect__manager_8c.html#ace3ca9e4598a81261e1e2722c52b6899" target="_top" xlink:title="METHOD">
<polygon fill="none" stroke="black" points="1594,-28.5 1594,-47.5 1654,-47.5 1654,-28.5 1594,-28.5"/>
<text text-anchor="middle" x="1624" y="-35.5" font-family="Helvetica,sans-Serif" font-size="10.00">METHOD</text>
</a>
</g>
</g>
<!-- Node12&#45;&gt;Node13 -->
<g id="edge13" class="edge"><title>Node12&#45;&gt;Node13</title>
<path fill="none" stroke="midnightblue" d="M1548.8,-63.1741C1563.83,-58.0753 1580.82,-52.3109 1594.75,-47.5859"/>
<polygon fill="midnightblue" stroke="midnightblue" points="1547.61,-59.8835 1539.26,-66.411 1549.86,-66.5124 1547.61,-59.8835"/>
</g>
<!-- Node15&#45;&gt;Node1 -->
<g id="edge36" class="edge"><title>Node15&#45;&gt;Node1</title>
<path fill="none" stroke="midnightblue" d="M1203.99,-619.817C1179.86,-565.405 1102.27,-414 986,-414 316,-414 316,-414 316,-414 169.183,-414 73.9357,-208.904 53.9338,-161.635"/>
<polygon fill="midnightblue" stroke="midnightblue" points="1200.92,-621.539 1208.1,-629.332 1207.35,-618.764 1200.92,-621.539"/>
</g>
<!-- Node16 -->
<g id="node16" class="node"><title>Node16</title>
<g id="a_node16"><a xlink:href="../../d0/d49/adopt__children__job_8c.html#a6f289b8fcdc9676a1f40032224d1afe2" target="_top" xlink:title="METHOD">
<polygon fill="none" stroke="black" points="1333,-686.5 1333,-705.5 1393,-705.5 1393,-686.5 1333,-686.5"/>
<text text-anchor="middle" x="1363" y="-693.5" font-family="Helvetica,sans-Serif" font-size="10.00">METHOD</text>
</a>
</g>
</g>
<!-- Node15&#45;&gt;Node16 -->
<g id="edge17" class="edge"><title>Node15&#45;&gt;Node16</title>
<path fill="none" stroke="midnightblue" d="M1243.01,-652.848C1259.52,-660.467 1280.69,-669.805 1300,-677 1310.55,-680.931 1322.32,-684.69 1332.74,-687.812"/>
<polygon fill="midnightblue" stroke="midnightblue" points="1244.42,-649.645 1233.88,-648.59 1241.46,-655.989 1244.42,-649.645"/>
</g>
<!-- Node17 -->
<g id="node17" class="node"><title>Node17</title>
<g id="a_node17"><a xlink:href="../../d5/d28/aesni__plugin_8c.html#afdb69fee0f5b8bf4cf2893dc98670599" target="_top" xlink:title="aesni_plugin_create">
<polygon fill="none" stroke="black" points="1311.5,-648.5 1311.5,-667.5 1414.5,-667.5 1414.5,-648.5 1311.5,-648.5"/>
<text text-anchor="middle" x="1363" y="-655.5" font-family="Helvetica,sans-Serif" font-size="10.00">aesni_plugin_create</text>
</a>
</g>
</g>
<!-- Node15&#45;&gt;Node17 -->
<g id="edge18" class="edge"><title>Node15&#45;&gt;Node17</title>
<path fill="none" stroke="midnightblue" d="M1247.92,-643.355C1266.69,-645.764 1290.38,-648.805 1311.3,-651.491"/>
<polygon fill="midnightblue" stroke="midnightblue" points="1248.14,-639.855 1237.78,-642.053 1247.25,-646.798 1248.14,-639.855"/>
</g>
<!-- Node18 -->
<g id="node18" class="node"><title>Node18</title>
<g id="a_node18"><a xlink:href="../../d9/df3/group__af__alg__ops.html#ga58d4d12cb191659f66407d38532f19e3" target="_top" xlink:title="af_alg_ops_create">
<polygon fill="none" stroke="red" points="1315,-610.5 1315,-629.5 1411,-629.5 1411,-610.5 1315,-610.5"/>
<text text-anchor="middle" x="1363" y="-617.5" font-family="Helvetica,sans-Serif" font-size="10.00">af_alg_ops_create</text>
</a>
</g>
</g>
<!-- Node15&#45;&gt;Node18 -->
<g id="edge19" class="edge"><title>Node15&#45;&gt;Node18</title>
<path fill="none" stroke="midnightblue" d="M1247.91,-634.647C1267.78,-632.096 1293.18,-628.835 1314.97,-626.037"/>
<polygon fill="midnightblue" stroke="midnightblue" points="1247.25,-631.202 1237.78,-635.947 1248.14,-638.145 1247.25,-631.202"/>
</g>
<!-- Node19 -->
<g id="node19" class="node"><title>Node19</title>
<g id="a_node19"><a xlink:href="../../da/d8f/group__agent__private__key.html#ga894ae16895862d5baf8afc02a5d07d73" target="_top" xlink:title="agent_private_key_open">
<polygon fill="none" stroke="red" points="1302,-572.5 1302,-591.5 1424,-591.5 1424,-572.5 1302,-572.5"/>
<text text-anchor="middle" x="1363" y="-579.5" font-family="Helvetica,sans-Serif" font-size="10.00">agent_private_key_open</text>
</a>
</g>
</g>
<!-- Node15&#45;&gt;Node19 -->
<g id="edge20" class="edge"><title>Node15&#45;&gt;Node19</title>
<path fill="none" stroke="midnightblue" d="M1243.01,-625.152C1259.52,-617.533 1280.69,-608.195 1300,-601 1309.07,-597.619 1319.05,-594.366 1328.29,-591.535"/>
<polygon fill="midnightblue" stroke="midnightblue" points="1241.46,-622.011 1233.88,-629.41 1244.42,-628.355 1241.46,-622.011"/>
</g>
<!-- Node20 -->
<g id="node20" class="node"><title>Node20</title>
<g id="a_node20"><a xlink:href="../../d1/d0e/group__array.html#ga58c74ec30d19f124535db5b5b94a1abc" target="_top" xlink:title="array_create_enumerator">
<polygon fill="none" stroke="red" points="1300.5,-534.5 1300.5,-553.5 1425.5,-553.5 1425.5,-534.5 1300.5,-534.5"/>
<text text-anchor="middle" x="1363" y="-541.5" font-family="Helvetica,sans-Serif" font-size="10.00">array_create_enumerator</text>
</a>
</g>
</g>
<!-- Node15&#45;&gt;Node20 -->
<g id="edge21" class="edge"><title>Node15&#45;&gt;Node20</title>
<path fill="none" stroke="midnightblue" d="M1229.27,-621.751C1245.31,-604.598 1272.06,-578.647 1300,-563 1306.78,-559.204 1314.41,-556.074 1321.93,-553.527"/>
<polygon fill="midnightblue" stroke="midnightblue" points="1226.45,-619.639 1222.29,-629.381 1231.62,-624.362 1226.45,-619.639"/>
</g>
<!-- Node21 -->
<g id="node21" class="node"><title>Node21</title>
<g id="a_node21"><a xlink:href="../../d9/dd3/group__attest__db__t.html#gadc4b5f286474edc4478a41e43c9badf7" target="_top" xlink:title="attest_db_create">
<polygon fill="none" stroke="red" points="1318.5,-496.5 1318.5,-515.5 1407.5,-515.5 1407.5,-496.5 1318.5,-496.5"/>
<text text-anchor="middle" x="1363" y="-503.5" font-family="Helvetica,sans-Serif" font-size="10.00">attest_db_create</text>
</a>
</g>
</g>
<!-- Node15&#45;&gt;Node21 -->
<g id="edge22" class="edge"><title>Node15&#45;&gt;Node21</title>
<path fill="none" stroke="midnightblue" d="M1223.14,-620.513C1236.57,-595.258 1263.97,-550.235 1300,-525 1305.53,-521.125 1311.88,-518.023 1318.35,-515.544"/>
<polygon fill="midnightblue" stroke="midnightblue" points="1220.02,-618.94 1218.55,-629.433 1226.24,-622.145 1220.02,-618.94"/>
</g>
<!-- Node22 -->
<g id="node22" class="node"><title>Node22</title>
<g id="a_node22"><a xlink:href="../../db/d95/group__auth__cfg__wrapper.html#ga607ad3dadcfd48a50fb2545df93ddf56" target="_top" xlink:title="auth_cfg_wrapper_create">
<polygon fill="none" stroke="red" points="1300,-458.5 1300,-477.5 1426,-477.5 1426,-458.5 1300,-458.5"/>
<text text-anchor="middle" x="1363" y="-465.5" font-family="Helvetica,sans-Serif" font-size="10.00">auth_cfg_wrapper_create</text>
</a>
</g>
</g>
<!-- Node15&#45;&gt;Node22 -->
<g id="edge23" class="edge"><title>Node15&#45;&gt;Node22</title>
<path fill="none" stroke="midnightblue" d="M1219.76,-619.498C1230.32,-587.157 1255.82,-522.479 1300,-487 1304.83,-483.123 1310.44,-480.035 1316.28,-477.575"/>
<polygon fill="midnightblue" stroke="midnightblue" points="1216.39,-618.549 1216.75,-629.138 1223.07,-620.636 1216.39,-618.549"/>
</g>
<!-- Node23 -->
<g id="node23" class="node"><title>Node23</title>
<g id="a_node23"><a xlink:href="../../db/d74/group__bliss__private__key.html#ga9824d75b75befd39dafc31674573d643" target="_top" xlink:title="bliss_private_key_gen">
<polygon fill="none" stroke="red" points="1306.5,-420.5 1306.5,-439.5 1419.5,-439.5 1419.5,-420.5 1306.5,-420.5"/>
<text text-anchor="middle" x="1363" y="-427.5" font-family="Helvetica,sans-Serif" font-size="10.00">bliss_private_key_gen</text>
</a>
</g>
</g>
<!-- Node15&#45;&gt;Node23 -->
<g id="edge24" class="edge"><title>Node15&#45;&gt;Node23</title>
<path fill="none" stroke="midnightblue" d="M1217.32,-619.588C1224.89,-581.268 1247.05,-495.585 1300,-449 1304.4,-445.133 1309.56,-442.053 1315.01,-439.6"/>
<polygon fill="midnightblue" stroke="midnightblue" points="1213.87,-618.998 1215.49,-629.469 1220.75,-620.274 1213.87,-618.998"/>
</g>
<!-- Node24 -->
<g id="node24" class="node"><title>Node24</title>
<g id="a_node24"><a xlink:href="../../db/d74/group__bliss__private__key.html#ga1daa52fbb7d6bdbbcebe0fbd89d621e0" target="_top" xlink:title="bliss_private_key_load">
<polygon fill="none" stroke="red" points="1305,-382.5 1305,-401.5 1421,-401.5 1421,-382.5 1305,-382.5"/>
<text text-anchor="middle" x="1363" y="-389.5" font-family="Helvetica,sans-Serif" font-size="10.00">bliss_private_key_load</text>
</a>
</g>
</g>
<!-- Node15&#45;&gt;Node24 -->
<g id="edge25" class="edge"><title>Node15&#45;&gt;Node24</title>
<path fill="none" stroke="midnightblue" d="M1215.72,-619.107C1220.59,-575.092 1238.42,-468.796 1300,-411 1304.1,-407.148 1308.97,-404.075 1314.14,-401.625"/>
<polygon fill="midnightblue" stroke="midnightblue" points="1212.23,-618.814 1214.72,-629.112 1219.19,-619.508 1212.23,-618.814"/>
</g>
<!-- Node25 -->
<g id="node25" class="node"><title>Node25</title>
<g id="a_node25"><a xlink:href="../../d1/d4c/group__bliss__public__key.html#ga509639968cecc3bb5ce6a2bd4d10a513" target="_top" xlink:title="bliss_public_key_load">
<polygon fill="none" stroke="red" points="1307,-344.5 1307,-363.5 1419,-363.5 1419,-344.5 1307,-344.5"/>
<text text-anchor="middle" x="1363" y="-351.5" font-family="Helvetica,sans-Serif" font-size="10.00">bliss_public_key_load</text>
</a>
</g>
</g>
<!-- Node15&#45;&gt;Node25 -->
<g id="edge26" class="edge"><title>Node15&#45;&gt;Node25</title>
<path fill="none" stroke="midnightblue" d="M1214.47,-619.229C1216.71,-570.304 1229.41,-442.517 1300,-373 1303.93,-369.129 1308.63,-366.044 1313.65,-363.586"/>
<polygon fill="midnightblue" stroke="midnightblue" points="1210.96,-619.287 1214.1,-629.405 1217.96,-619.536 1210.96,-619.287"/>
</g>
<!-- Node26 -->
<g id="node26" class="node"><title>Node26</title>
<g id="a_node26"><a xlink:href="../../dc/d22/group__bliss__signature.html#gade3fed5d586d01eddf64d1f103faede4" target="_top" xlink:title="bliss_signature_create\l_from_data">
<polygon fill="none" stroke="red" points="1306,-295 1306,-325 1420,-325 1420,-295 1306,-295"/>
<text text-anchor="start" x="1314" y="-313" font-family="Helvetica,sans-Serif" font-size="10.00">bliss_signature_create</text>
<text text-anchor="middle" x="1363" y="-302" font-family="Helvetica,sans-Serif" font-size="10.00">_from_data</text>
</a>
</g>
</g>
<!-- Node15&#45;&gt;Node26 -->
<g id="edge27" class="edge"><title>Node15&#45;&gt;Node26</title>
<path fill="none" stroke="midnightblue" d="M1213.91,-619.359C1214.71,-566.515 1224.04,-419.602 1300,-335 1303.49,-331.114 1307.67,-327.821 1312.18,-325.034"/>
<polygon fill="midnightblue" stroke="midnightblue" points="1210.41,-619.389 1213.84,-629.41 1217.41,-619.432 1210.41,-619.389"/>
</g>
<!-- Node27 -->
<g id="node27" class="node"><title>Node27</title>
<g id="a_node27"><a xlink:href="../../df/dcc/callback__cred_8c.html#a55dce245285bc66d92c9c0c8844bf442" target="_top" xlink:title="create_generic">
<polygon fill="none" stroke="red" points="1323,-256.5 1323,-275.5 1403,-275.5 1403,-256.5 1323,-256.5"/>
<text text-anchor="middle" x="1363" y="-263.5" font-family="Helvetica,sans-Serif" font-size="10.00">create_generic</text>
</a>
</g>
</g>
<!-- Node15&#45;&gt;Node27 -->
<g id="edge28" class="edge"><title>Node15&#45;&gt;Node27</title>
<path fill="none" stroke="midnightblue" d="M1216.25,-619.497C1224.28,-552.907 1253.62,-335.899 1300,-286 1306.08,-279.455 1314.32,-275.046 1322.79,-272.076"/>
<polygon fill="midnightblue" stroke="midnightblue" points="1212.76,-619.141 1215.07,-629.482 1219.71,-619.962 1212.76,-619.141"/>
</g>
<!-- Node28 -->
<g id="node28" class="node"><title>Node28</title>
<g id="a_node28"><a xlink:href="../../d1/d5e/certexpire__export_8c.html#a85842a4e35d1b6f4d520ad9c27740745" target="_top" xlink:title="add_local_certs">
<polygon fill="none" stroke="red" points="1320.5,-218.5 1320.5,-237.5 1405.5,-237.5 1405.5,-218.5 1320.5,-218.5"/>
<text text-anchor="middle" x="1363" y="-225.5" font-family="Helvetica,sans-Serif" font-size="10.00">add_local_certs</text>
</a>
</g>
</g>
<!-- Node15&#45;&gt;Node28 -->
<g id="edge29" class="edge"><title>Node15&#45;&gt;Node28</title>
<path fill="none" stroke="midnightblue" d="M1215.73,-619.192C1222.39,-547.493 1248.56,-302.802 1300,-247 1305.49,-241.04 1312.8,-236.929 1320.47,-234.1"/>
<polygon fill="midnightblue" stroke="midnightblue" points="1212.25,-618.883 1214.83,-629.158 1219.22,-619.514 1212.25,-618.883"/>
</g>
<!-- Node29 -->
<g id="node29" class="node"><title>Node29</title>
<g id="a_node29"><a xlink:href="../../dc/d9a/child__create_8c.html#a6a6c5cf0ae85184deb9468b36a8a24ca" target="_top" xlink:title="narrow_ts">
<polygon fill="none" stroke="black" points="1333.5,-180.5 1333.5,-199.5 1392.5,-199.5 1392.5,-180.5 1333.5,-180.5"/>
<text text-anchor="middle" x="1363" y="-187.5" font-family="Helvetica,sans-Serif" font-size="10.00">narrow_ts</text>
</a>
</g>
</g>
<!-- Node15&#45;&gt;Node29 -->
<g id="edge30" class="edge"><title>Node15&#45;&gt;Node29</title>
<path fill="none" stroke="midnightblue" d="M1215.31,-619.277C1220.74,-543.339 1243.89,-271.022 1300,-209 1308.46,-199.65 1321.38,-194.844 1333.25,-192.397"/>
<polygon fill="midnightblue" stroke="midnightblue" points="1211.81,-619.146 1214.61,-629.364 1218.8,-619.63 1211.81,-619.146"/>
</g>
<!-- Node30 -->
<g id="node30" class="node"><title>Node30</title>
<g id="a_node30"><a xlink:href="../../dc/d9a/child__create_8c.html#afcf256f31dd9c48aaebef53f24e420be" target="_top" xlink:title="select_and_install">
<polygon fill="none" stroke="red" points="1462.5,-686.5 1462.5,-705.5 1557.5,-705.5 1557.5,-686.5 1462.5,-686.5"/>
<text text-anchor="middle" x="1510" y="-693.5" font-family="Helvetica,sans-Serif" font-size="10.00">select_and_install</text>
</a>
</g>
</g>
<!-- Node15&#45;&gt;Node30 -->
<g id="edge32" class="edge"><title>Node15&#45;&gt;Node30</title>
<path fill="none" stroke="midnightblue" d="M1213.88,-658.905C1213.79,-748.544 1218.51,-1113.38 1300,-1183 1342.58,-1219.38 1383.2,-1219.12 1426,-1183 1502.36,-1118.55 1508.48,-767.997 1508.96,-705.526"/>
<polygon fill="midnightblue" stroke="midnightblue" points="1217.38,-658.764 1213.91,-648.752 1210.38,-658.741 1217.38,-658.764"/>
</g>
<!-- Node31 -->
<g id="node31" class="node"><title>Node31</title>
<g id="a_node31"><a xlink:href="../../dc/d9a/child__create_8c.html#ae9f9c6297fd0e3a37dd63dc93cec1921" target="_top" xlink:title="select_child_cfg">
<polygon fill="none" stroke="red" points="1319.5,-1154.5 1319.5,-1173.5 1406.5,-1173.5 1406.5,-1154.5 1319.5,-1154.5"/>
<text text-anchor="middle" x="1363" y="-1161.5" font-family="Helvetica,sans-Serif" font-size="10.00">select_child_cfg</text>
</a>
</g>
</g>
<!-- Node15&#45;&gt;Node31 -->
<g id="edge33" class="edge"><title>Node15&#45;&gt;Node31</title>
<path fill="none" stroke="midnightblue" d="M1214.67,-658.863C1217.91,-743.177 1234.56,-1070.52 1300,-1145 1305.13,-1150.84 1311.99,-1154.91 1319.29,-1157.74"/>
<polygon fill="midnightblue" stroke="midnightblue" points="1218.16,-658.497 1214.3,-648.631 1211.16,-658.751 1218.16,-658.497"/>
</g>
<!-- Node32 -->
<g id="node32" class="node"><title>Node32</title>
<g id="a_node32"><a xlink:href="../../dc/d9a/child__create_8c.html#a52597735ce29444b368c97ed86ff1d15" target="_top" xlink:title="raise_alerts">
<polygon fill="none" stroke="red" points="1329.5,-1116.5 1329.5,-1135.5 1396.5,-1135.5 1396.5,-1116.5 1329.5,-1116.5"/>
<text text-anchor="middle" x="1363" y="-1123.5" font-family="Helvetica,sans-Serif" font-size="10.00">raise_alerts</text>
</a>
</g>
</g>
<!-- Node15&#45;&gt;Node32 -->
<g id="edge34" class="edge"><title>Node15&#45;&gt;Node32</title>
<path fill="none" stroke="midnightblue" d="M1214.97,-658.892C1219.29,-739.242 1239.26,-1038.79 1300,-1107 1307.49,-1115.41 1318.59,-1120.15 1329.33,-1122.8"/>
<polygon fill="midnightblue" stroke="midnightblue" points="1218.46,-658.488 1214.45,-648.682 1211.46,-658.848 1218.46,-658.488"/>
</g>
<!-- Node33 -->
<g id="node33" class="node"><title>Node33</title>
<g id="a_node33"><a xlink:href="../../dd/d99/child__sa_8c.html#ab58d444bee87c985dcdfcfc7a1cd4dac" target="_top" xlink:title="get_proxy_addr">
<polygon fill="none" stroke="red" points="1321.5,-1078.5 1321.5,-1097.5 1404.5,-1097.5 1404.5,-1078.5 1321.5,-1078.5"/>
<text text-anchor="middle" x="1363" y="-1085.5" font-family="Helvetica,sans-Serif" font-size="10.00">get_proxy_addr</text>
</a>
</g>
</g>
<!-- Node15&#45;&gt;Node33 -->
<g id="edge35" class="edge"><title>Node15&#45;&gt;Node33</title>
<path fill="none" stroke="midnightblue" d="M1215.31,-658.723C1220.74,-734.661 1243.89,-1006.98 1300,-1069 1305.66,-1075.26 1313.33,-1079.48 1321.34,-1082.33"/>
<polygon fill="midnightblue" stroke="midnightblue" points="1218.8,-658.37 1214.61,-648.636 1211.81,-658.854 1218.8,-658.37"/>
</g>
<!-- Node34 -->
<g id="node34" class="node"><title>Node34</title>
<g id="a_node34"><a xlink:href="../../d9/d32/connect__manager_8c.html#a6474c642f606518d9696b236c4c7b8a0" target="_top" xlink:title="initiated_destroy">
<polygon fill="none" stroke="red" points="1319,-142.5 1319,-161.5 1407,-161.5 1407,-142.5 1319,-142.5"/>
<text text-anchor="middle" x="1363" y="-149.5" font-family="Helvetica,sans-Serif" font-size="10.00">initiated_destroy</text>
</a>
</g>
</g>
<!-- Node15&#45;&gt;Node34 -->
<g id="edge37" class="edge"><title>Node15&#45;&gt;Node34</title>
<path fill="none" stroke="midnightblue" d="M1214.97,-619.108C1219.29,-538.758 1239.26,-239.208 1300,-171 1305.02,-165.367 1311.65,-161.381 1318.72,-158.566"/>
<polygon fill="midnightblue" stroke="midnightblue" points="1211.46,-619.152 1214.45,-629.318 1218.46,-619.512 1211.46,-619.152"/>
</g>
<!-- Node35 -->
<g id="node35" class="node"><title>Node35</title>
<g id="a_node35"><a xlink:href="../../dd/da9/group__connect__manager.html#gab34eec8fdfd6bdbabec1182dddc46d92" target="_top" xlink:title="connect_manager_create">
<polygon fill="none" stroke="red" points="1300,-1040.5 1300,-1059.5 1426,-1059.5 1426,-1040.5 1300,-1040.5"/>
<text text-anchor="middle" x="1363" y="-1047.5" font-family="Helvetica,sans-Serif" font-size="10.00">connect_manager_create</text>
</a>
</g>
</g>
<!-- Node15&#45;&gt;Node35 -->
<g id="edge39" class="edge"><title>Node15&#45;&gt;Node35</title>
<path fill="none" stroke="midnightblue" d="M1215.81,-659.176C1222.66,-731.166 1249.19,-974.088 1300,-1030 1303.96,-1034.35 1308.86,-1037.76 1314.17,-1040.43"/>
<polygon fill="midnightblue" stroke="midnightblue" points="1219.26,-658.439 1214.85,-648.804 1212.29,-659.085 1219.26,-658.439"/>
</g>
<!-- Node36 -->
<g id="node36" class="node"><title>Node36</title>
<g id="a_node36"><a xlink:href="../../d9/df8/group__coupling__validator.html#ga63cdb6b6835629d0a0065a0e6e1c4bfb" target="_top" xlink:title="coupling_validator\l_create">
<polygon fill="none" stroke="red" points="1315.5,-991 1315.5,-1021 1410.5,-1021 1410.5,-991 1315.5,-991"/>
<text text-anchor="start" x="1323.5" y="-1009" font-family="Helvetica,sans-Serif" font-size="10.00">coupling_validator</text>
<text text-anchor="middle" x="1363" y="-998" font-family="Helvetica,sans-Serif" font-size="10.00">_create</text>
</a>
</g>
</g>
<!-- Node15&#45;&gt;Node36 -->
<g id="edge40" class="edge"><title>Node15&#45;&gt;Node36</title>
<path fill="none" stroke="midnightblue" d="M1216.63,-659.042C1225.6,-724.627 1256.83,-931.476 1300,-981 1304.27,-985.899 1309.64,-989.852 1315.42,-993.037"/>
<polygon fill="midnightblue" stroke="midnightblue" points="1220.06,-658.266 1215.26,-648.82 1213.12,-659.197 1220.06,-658.266"/>
</g>
<!-- Node37 -->
<g id="node37" class="node"><title>Node37</title>
<g id="a_node37"><a xlink:href="../../de/dac/cp__payload_8c.html#aa838fafa304f8ab1ea30a81fca462f8d" target="_top" xlink:title="METHOD2">
<polygon fill="none" stroke="black" points="1330.5,-952.5 1330.5,-971.5 1395.5,-971.5 1395.5,-952.5 1330.5,-952.5"/>
<text text-anchor="middle" x="1363" y="-959.5" font-family="Helvetica,sans-Serif" font-size="10.00">METHOD2</text>
</a>
</g>
</g>
<!-- Node15&#45;&gt;Node37 -->
<g id="edge41" class="edge"><title>Node15&#45;&gt;Node37</title>
<path fill="none" stroke="midnightblue" d="M1213.52,-659.004C1213.35,-712.756 1220.48,-861.738 1300,-943 1308.03,-951.207 1319.51,-955.891 1330.4,-958.555"/>
<polygon fill="midnightblue" stroke="midnightblue" points="1217.02,-658.817 1213.65,-648.774 1210.02,-658.729 1217.02,-658.817"/>
</g>
<!-- Node38 -->
<g id="node38" class="node"><title>Node38</title>
<g id="a_node38"><a xlink:href="../../d4/d66/group__cred__encoding.html#gac7af53016079589a659a72721f7587e5" target="_top" xlink:title="cred_encoding_create">
<polygon fill="none" stroke="red" points="1307,-914.5 1307,-933.5 1419,-933.5 1419,-914.5 1307,-914.5"/>
<text text-anchor="middle" x="1363" y="-921.5" font-family="Helvetica,sans-Serif" font-size="10.00">cred_encoding_create</text>
</a>
</g>
</g>
<!-- Node15&#45;&gt;Node38 -->
<g id="edge42" class="edge"><title>Node15&#45;&gt;Node38</title>
<path fill="none" stroke="midnightblue" d="M1214.47,-658.771C1216.71,-707.696 1229.41,-835.483 1300,-905 1303.93,-908.871 1308.63,-911.956 1313.65,-914.414"/>
<polygon fill="midnightblue" stroke="midnightblue" points="1217.96,-658.464 1214.1,-648.595 1210.96,-658.713 1217.96,-658.464"/>
</g>
<!-- Node39 -->
<g id="node39" class="node"><title>Node39</title>
<g id="a_node39"><a xlink:href="../../d1/d05/credential__manager_8c.html#a72cec86d09302075ac4d01c746ef324d" target="_top" xlink:title="create_sets_enumerator">
<polygon fill="none" stroke="red" points="1302,-876.5 1302,-895.5 1424,-895.5 1424,-876.5 1302,-876.5"/>
<text text-anchor="middle" x="1363" y="-883.5" font-family="Helvetica,sans-Serif" font-size="10.00">create_sets_enumerator</text>
</a>
</g>
</g>
<!-- Node15&#45;&gt;Node39 -->
<g id="edge43" class="edge"><title>Node15&#45;&gt;Node39</title>
<path fill="none" stroke="midnightblue" d="M1215.72,-658.893C1220.59,-702.908 1238.42,-809.204 1300,-867 1304.1,-870.852 1308.97,-873.925 1314.14,-876.375"/>
<polygon fill="midnightblue" stroke="midnightblue" points="1219.19,-658.492 1214.72,-648.888 1212.23,-659.186 1219.19,-658.492"/>
</g>
<!-- Node40 -->
<g id="node40" class="node"><title>Node40</title>
<g id="a_node40"><a xlink:href="../../d6/da8/curl__plugin_8c.html#a5885d34f8c1cc2eae3b4be69bae4de0e" target="_top" xlink:title="curl_plugin_create">
<polygon fill="none" stroke="black" points="1315.5,-838.5 1315.5,-857.5 1410.5,-857.5 1410.5,-838.5 1315.5,-838.5"/>
<text text-anchor="middle" x="1363" y="-845.5" font-family="Helvetica,sans-Serif" font-size="10.00">curl_plugin_create</text>
</a>
</g>
</g>
<!-- Node15&#45;&gt;Node40 -->
<g id="edge44" class="edge"><title>Node15&#45;&gt;Node40</title>
<path fill="none" stroke="midnightblue" d="M1217.32,-658.412C1224.89,-696.732 1247.05,-782.415 1300,-829 1304.48,-832.941 1309.76,-836.065 1315.32,-838.541"/>
<polygon fill="midnightblue" stroke="midnightblue" points="1220.75,-657.726 1215.49,-648.531 1213.87,-659.002 1220.75,-657.726"/>
</g>
<!-- Node41 -->
<g id="node41" class="node"><title>Node41</title>
<g id="a_node41"><a xlink:href="../../d0/db7/group__libcharon.html#ga3cb8c2e066a22e30b3814bfd915e689f" target="_top" xlink:title="libcharon_deinit">
<polygon fill="none" stroke="red" points="1321,-800.5 1321,-819.5 1405,-819.5 1405,-800.5 1321,-800.5"/>
<text text-anchor="middle" x="1363" y="-807.5" font-family="Helvetica,sans-Serif" font-size="10.00">libcharon_deinit</text>
</a>
</g>
</g>
<!-- Node15&#45;&gt;Node41 -->
<g id="edge45" class="edge"><title>Node15&#45;&gt;Node41</title>
<path fill="none" stroke="midnightblue" d="M1219.76,-658.502C1230.32,-690.843 1255.82,-755.521 1300,-791 1306.06,-795.864 1313.35,-799.486 1320.78,-802.183"/>
<polygon fill="midnightblue" stroke="midnightblue" points="1223.07,-657.364 1216.75,-648.862 1216.39,-659.451 1223.07,-657.364"/>
</g>
<!-- Node42 -->
<g id="node42" class="node"><title>Node42</title>
<g id="a_node42"><a xlink:href="../../d5/dcb/group__dhcp__socket.html#ga9a7544edfbcbc54c6890592fcd674504" target="_top" xlink:title="dhcp_socket_create">
<polygon fill="none" stroke="red" points="1311,-762.5 1311,-781.5 1415,-781.5 1415,-762.5 1311,-762.5"/>
<text text-anchor="middle" x="1363" y="-769.5" font-family="Helvetica,sans-Serif" font-size="10.00">dhcp_socket_create</text>
</a>
</g>
</g>
<!-- Node15&#45;&gt;Node42 -->
<g id="edge46" class="edge"><title>Node15&#45;&gt;Node42</title>
<path fill="none" stroke="midnightblue" d="M1223.14,-657.487C1236.57,-682.742 1263.97,-727.765 1300,-753 1305.53,-756.875 1311.88,-759.977 1318.35,-762.456"/>
<polygon fill="midnightblue" stroke="midnightblue" points="1226.24,-655.855 1218.55,-648.567 1220.02,-659.06 1226.24,-655.855"/>
</g>
<!-- Node43 -->
<g id="node43" class="node"><title>Node43</title>
<g id="a_node43"><a xlink:href="../../d0/d55/dumm_8h.html#ad0d53400c6ee3b458390d1987a5090f6" target="_top" xlink:title="dumm_create">
<polygon fill="none" stroke="red" points="1325,-724.5 1325,-743.5 1401,-743.5 1401,-724.5 1325,-724.5"/>
<text text-anchor="middle" x="1363" y="-731.5" font-family="Helvetica,sans-Serif" font-size="10.00">dumm_create</text>
</a>
</g>
</g>
<!-- Node15&#45;&gt;Node43 -->
<g id="edge47" class="edge"><title>Node15&#45;&gt;Node43</title>
<path fill="none" stroke="midnightblue" d="M1229.27,-656.249C1245.31,-673.402 1272.06,-699.353 1300,-715 1307.66,-719.291 1316.41,-722.731 1324.87,-725.44"/>
<polygon fill="midnightblue" stroke="midnightblue" points="1231.62,-653.638 1222.29,-648.619 1226.45,-658.361 1231.62,-653.638"/>
</g>
<!-- Node29&#45;&gt;Node30 -->
<g id="edge31" class="edge"><title>Node29&#45;&gt;Node30</title>
<path fill="none" stroke="midnightblue" d="M1402.51,-194.781C1411.33,-197.614 1419.9,-202.058 1426,-209 1491.83,-283.885 1506.55,-624.442 1508.69,-686.335"/>
<polygon fill="midnightblue" stroke="midnightblue" points="1403.12,-191.323 1392.56,-192.218 1401.37,-198.102 1403.12,-191.323"/>
</g>
<!-- Node34&#45;&gt;Node2 -->
<g id="edge38" class="edge"><title>Node34&#45;&gt;Node2</title>
<path fill="none" stroke="midnightblue" d="M1308.58,-152C1255.06,-152 1170.32,-152 1097,-152 430,-152 430,-152 430,-152 365.148,-152 290.479,-152 241.655,-152"/>
<polygon fill="midnightblue" stroke="midnightblue" points="1308.85,-155.5 1318.85,-152 1308.85,-148.5 1308.85,-155.5"/>
</g>
<!-- Node47 -->
<g id="node47" class="node"><title>Node47</title>
<g id="a_node47"><a xlink:href="../../dd/d65/task__manager__v1_8c.html#a59c7285b6e10f3a3ac399f08a50bc59d" target="_top" xlink:title="process_request">
<polygon fill="none" stroke="black" points="940.5,-28.5 940.5,-47.5 1029.5,-47.5 1029.5,-28.5 940.5,-28.5"/>
<text text-anchor="middle" x="985" y="-35.5" font-family="Helvetica,sans-Serif" font-size="10.00">process_request</text>
</a>
</g>
</g>
<!-- Node46&#45;&gt;Node47 -->
<g id="edge52" class="edge"><title>Node46&#45;&gt;Node47</title>
<path fill="none" stroke="midnightblue" d="M899.263,-38C912.806,-38 927.342,-38 940.484,-38"/>
<polygon fill="midnightblue" stroke="midnightblue" points="899.139,-34.5001 889.139,-38 899.139,-41.5001 899.139,-34.5001"/>
</g>
<!-- Node48 -->
<g id="node48" class="node"><title>Node48</title>
<g id="a_node48"><a xlink:href="../../dd/d65/task__manager__v1_8c.html#a07ec61bf95a7a5b12b888a1945587189" target="_top" xlink:title="METHOD">
<polygon fill="none" stroke="black" points="1066,-28.5 1066,-47.5 1126,-47.5 1126,-28.5 1066,-28.5"/>
<text text-anchor="middle" x="1096" y="-35.5" font-family="Helvetica,sans-Serif" font-size="10.00">METHOD</text>
</a>
</g>
</g>
<!-- Node47&#45;&gt;Node48 -->
<g id="edge53" class="edge"><title>Node47&#45;&gt;Node48</title>
<path fill="none" stroke="midnightblue" d="M1039.83,-38C1048.85,-38 1057.9,-38 1065.98,-38"/>
<polygon fill="midnightblue" stroke="midnightblue" points="1039.71,-34.5001 1029.71,-38 1039.71,-41.5001 1039.71,-34.5001"/>
</g>
<!-- Node49&#45;&gt;Node13 -->
<g id="edge55" class="edge"><title>Node49&#45;&gt;Node13</title>
<path fill="none" stroke="midnightblue" d="M766.135,-12.7456C821.701,-7.20871 908.537,-7.10543e-15 984,-0 984,-0 984,-0 1364,-0 1448.08,-0 1545.89,-19.8448 1593.69,-30.8525"/>
<polygon fill="midnightblue" stroke="midnightblue" points="765.73,-9.26862 756.133,-13.7579 766.435,-16.233 765.73,-9.26862"/>
</g>
</g>
</svg>
