<?xml version="1.0" encoding="UTF-8" standalone="no"?>
<!DOCTYPE svg PUBLIC "-//W3C//DTD SVG 1.1//EN"
 "http://www.w3.org/Graphics/SVG/1.1/DTD/svg11.dtd">
<!-- Generated by graphviz version 2.36.0 (20140111.2315)
 -->
<!-- Title: get_checklist_by_id Pages: 1 -->
<svg width="1300pt" height="1366pt"
 viewBox="0.00 0.00 1300.00 1366.00" xmlns="http://www.w3.org/2000/svg" xmlns:xlink="http://www.w3.org/1999/xlink">
<g id="graph0" class="graph" transform="scale(1 1) rotate(0) translate(4 1362)">
<title>get_checklist_by_id</title>
<!-- Node1 -->
<g id="node1" class="node"><title>Node1</title>
<polygon fill="#bfbfbf" stroke="black" points="0.5,-623.5 0.5,-642.5 103.5,-642.5 103.5,-623.5 0.5,-623.5"/>
<text text-anchor="middle" x="52" y="-630.5" font-family="Helvetica,sans-Serif" font-size="10.00">get_checklist_by_id</text>
</g>
<!-- Node2 -->
<g id="node2" class="node"><title>Node2</title>
<g id="a_node2"><a xlink:href="../../d9/d32/connect__manager_8c.html#a9a5d8c42d5ad5532c0b1e90126b158eb" target="_top" xlink:title="initiator_finish">
<polygon fill="none" stroke="black" points="140.5,-604.5 140.5,-623.5 217.5,-623.5 217.5,-604.5 140.5,-604.5"/>
<text text-anchor="middle" x="179" y="-611.5" font-family="Helvetica,sans-Serif" font-size="10.00">initiator_finish</text>
</a>
</g>
</g>
<!-- Node1&#45;&gt;Node2 -->
<g id="edge1" class="edge"><title>Node1&#45;&gt;Node2</title>
<path fill="none" stroke="midnightblue" d="M113.92,-623.74C122.898,-622.376 131.919,-621.004 140.242,-619.739"/>
<polygon fill="midnightblue" stroke="midnightblue" points="113.203,-620.309 103.842,-625.272 114.255,-627.229 113.203,-620.309"/>
</g>
<!-- Node4 -->
<g id="node4" class="node"><title>Node4</title>
<g id="a_node4"><a xlink:href="../../d9/d32/connect__manager_8c.html#a13543d329388560c587b6f8b6a014329" target="_top" xlink:title="retransmit">
<polygon fill="none" stroke="black" points="426,-642.5 426,-661.5 486,-661.5 486,-642.5 426,-642.5"/>
<text text-anchor="middle" x="456" y="-649.5" font-family="Helvetica,sans-Serif" font-size="10.00">retransmit</text>
</a>
</g>
</g>
<!-- Node1&#45;&gt;Node4 -->
<g id="edge54" class="edge"><title>Node1&#45;&gt;Node4</title>
<path fill="none" stroke="midnightblue" d="M113.585,-635.863C201.343,-640.011 360.462,-647.532 425.799,-650.62"/>
<polygon fill="midnightblue" stroke="midnightblue" points="113.661,-632.363 103.507,-635.387 113.33,-639.355 113.661,-632.363"/>
</g>
<!-- Node7 -->
<g id="node7" class="node"><title>Node7</title>
<g id="a_node7"><a xlink:href="../../d9/d32/connect__manager_8c.html#a3b4dd773d88779165dc7243cb4e4fbee" target="_top" xlink:title="sender">
<polygon fill="none" stroke="black" points="814,-699.5 814,-718.5 860,-718.5 860,-699.5 814,-699.5"/>
<text text-anchor="middle" x="837" y="-706.5" font-family="Helvetica,sans-Serif" font-size="10.00">sender</text>
</a>
</g>
</g>
<!-- Node1&#45;&gt;Node7 -->
<g id="edge55" class="edge"><title>Node1&#45;&gt;Node7</title>
<path fill="none" stroke="midnightblue" d="M76.3277,-647.905C120.486,-674.644 220.112,-728 312,-728 312,-728 312,-728 597,-728 677.126,-728 771.889,-717.257 813.97,-711.927"/>
<polygon fill="midnightblue" stroke="midnightblue" points="78.1193,-644.898 67.7695,-642.632 74.4473,-650.857 78.1193,-644.898"/>
</g>
<!-- Node50 -->
<g id="node50" class="node"><title>Node50</title>
<g id="a_node50"><a xlink:href="../../d9/d32/connect__manager_8c.html#ace3ca9e4598a81261e1e2722c52b6899" target="_top" xlink:title="METHOD">
<polygon fill="none" stroke="black" points="566,-566.5 566,-585.5 626,-585.5 626,-566.5 566,-566.5"/>
<text text-anchor="middle" x="596" y="-573.5" font-family="Helvetica,sans-Serif" font-size="10.00">METHOD</text>
</a>
</g>
</g>
<!-- Node1&#45;&gt;Node50 -->
<g id="edge53" class="edge"><title>Node1&#45;&gt;Node50</title>
<path fill="none" stroke="midnightblue" d="M78.8754,-618.67C95.7366,-610.106 118.52,-599.956 140,-595 297.157,-558.738 492.774,-568.203 565.76,-573.545"/>
<polygon fill="midnightblue" stroke="midnightblue" points="76.9246,-615.741 69.6868,-623.478 80.1699,-621.943 76.9246,-615.741"/>
</g>
<!-- Node3 -->
<g id="node3" class="node"><title>Node3</title>
<g id="a_node3"><a xlink:href="../../d9/d32/connect__manager_8c.html#ac98deeff0f6b21552e296f73f8aeac5a" target="_top" xlink:title="update_checklist_state">
<polygon fill="none" stroke="black" points="254.5,-604.5 254.5,-623.5 371.5,-623.5 371.5,-604.5 254.5,-604.5"/>
<text text-anchor="middle" x="313" y="-611.5" font-family="Helvetica,sans-Serif" font-size="10.00">update_checklist_state</text>
</a>
</g>
</g>
<!-- Node2&#45;&gt;Node3 -->
<g id="edge2" class="edge"><title>Node2&#45;&gt;Node3</title>
<path fill="none" stroke="midnightblue" d="M228.04,-614C236.628,-614 245.655,-614 254.476,-614"/>
<polygon fill="midnightblue" stroke="midnightblue" points="227.826,-610.5 217.826,-614 227.826,-617.5 227.826,-610.5"/>
</g>
<!-- Node3&#45;&gt;Node4 -->
<g id="edge3" class="edge"><title>Node3&#45;&gt;Node4</title>
<path fill="none" stroke="midnightblue" d="M359.272,-626.201C381.009,-632.059 406.432,-638.911 425.613,-644.08"/>
<polygon fill="midnightblue" stroke="midnightblue" points="360.147,-622.812 349.58,-623.589 358.325,-629.571 360.147,-622.812"/>
</g>
<!-- Node49 -->
<g id="node49" class="node"><title>Node49</title>
<g id="a_node49"><a xlink:href="../../d9/d32/connect__manager_8c.html#a04428344799f36588b11b05dfcd6d032" target="_top" xlink:title="process_response">
<polygon fill="none" stroke="black" points="408,-604.5 408,-623.5 504,-623.5 504,-604.5 408,-604.5"/>
<text text-anchor="middle" x="456" y="-611.5" font-family="Helvetica,sans-Serif" font-size="10.00">process_response</text>
</a>
</g>
</g>
<!-- Node3&#45;&gt;Node49 -->
<g id="edge51" class="edge"><title>Node3&#45;&gt;Node49</title>
<path fill="none" stroke="midnightblue" d="M381.984,-614C390.745,-614 399.557,-614 407.879,-614"/>
<polygon fill="midnightblue" stroke="midnightblue" points="381.757,-610.5 371.757,-614 381.757,-617.5 381.757,-610.5"/>
</g>
<!-- Node5 -->
<g id="node5" class="node"><title>Node5</title>
<g id="a_node5"><a xlink:href="../../d9/d32/connect__manager_8c.html#a78416603d2ebd2bb0dcf49e3ccd4ae9c" target="_top" xlink:title="queue_retransmission">
<polygon fill="none" stroke="black" points="540,-680.5 540,-699.5 652,-699.5 652,-680.5 540,-680.5"/>
<text text-anchor="middle" x="596" y="-687.5" font-family="Helvetica,sans-Serif" font-size="10.00">queue_retransmission</text>
</a>
</g>
</g>
<!-- Node4&#45;&gt;Node5 -->
<g id="edge4" class="edge"><title>Node4&#45;&gt;Node5</title>
<path fill="none" stroke="midnightblue" d="M496.072,-656.608C522.716,-662.809 556.744,-672.658 577.153,-680.374"/>
<polygon fill="midnightblue" stroke="midnightblue" points="496.788,-653.182 486.266,-654.423 495.265,-660.014 496.788,-653.182"/>
</g>
<!-- Node46 -->
<g id="node46" class="node"><title>Node46</title>
<g id="a_node46"><a xlink:href="../../da/d10/radius__socket_8c.html#ada8f4f4ee654ec2c04fbd0610b19eb7b" target="_top" xlink:title="METHOD">
<polygon fill="none" stroke="black" points="566,-642.5 566,-661.5 626,-661.5 626,-642.5 566,-642.5"/>
<text text-anchor="middle" x="596" y="-649.5" font-family="Helvetica,sans-Serif" font-size="10.00">METHOD</text>
</a>
</g>
</g>
<!-- Node4&#45;&gt;Node46 -->
<g id="edge48" class="edge"><title>Node4&#45;&gt;Node46</title>
<path fill="none" stroke="midnightblue" d="M496.344,-652C518.449,-652 545.568,-652 565.776,-652"/>
<polygon fill="midnightblue" stroke="midnightblue" points="496.266,-648.5 486.266,-652 496.266,-655.5 496.266,-648.5"/>
</g>
<!-- Node47 -->
<g id="node47" class="node"><title>Node47</title>
<g id="a_node47"><a xlink:href="../../dd/d65/task__manager__v1_8c.html#a4e51f0d370b0cb7eb17fdddf8ea4e8ce" target="_top" xlink:title="build_response">
<polygon fill="none" stroke="black" points="555,-604.5 555,-623.5 637,-623.5 637,-604.5 555,-604.5"/>
<text text-anchor="middle" x="596" y="-611.5" font-family="Helvetica,sans-Serif" font-size="10.00">build_response</text>
</a>
</g>
</g>
<!-- Node4&#45;&gt;Node47 -->
<g id="edge49" class="edge"><title>Node4&#45;&gt;Node47</title>
<path fill="none" stroke="midnightblue" d="M496.119,-641.228C516.364,-635.653 540.863,-628.907 560.411,-623.525"/>
<polygon fill="midnightblue" stroke="midnightblue" points="494.978,-637.912 486.266,-643.941 496.837,-644.661 494.978,-637.912"/>
</g>
<!-- Node5&#45;&gt;Node4 -->
<g id="edge5" class="edge"><title>Node5&#45;&gt;Node4</title>
<path fill="none" stroke="midnightblue" d="M529.878,-678.808C509.611,-673.327 488.897,-666.944 474.759,-661.592"/>
<polygon fill="midnightblue" stroke="midnightblue" points="529.198,-682.249 539.76,-681.418 530.985,-675.481 529.198,-682.249"/>
</g>
<!-- Node6 -->
<g id="node6" class="node"><title>Node6</title>
<g id="a_node6"><a xlink:href="../../d9/d32/connect__manager_8c.html#a84c6b0f36d7353c32bb874be21759a5f" target="_top" xlink:title="send_check">
<polygon fill="none" stroke="red" points="698.5,-680.5 698.5,-699.5 767.5,-699.5 767.5,-680.5 698.5,-680.5"/>
<text text-anchor="middle" x="733" y="-687.5" font-family="Helvetica,sans-Serif" font-size="10.00">send_check</text>
</a>
</g>
</g>
<!-- Node5&#45;&gt;Node6 -->
<g id="edge6" class="edge"><title>Node5&#45;&gt;Node6</title>
<path fill="none" stroke="midnightblue" d="M662.618,-690C674.969,-690 687.404,-690 698.267,-690"/>
<polygon fill="midnightblue" stroke="midnightblue" points="662.299,-686.5 652.299,-690 662.299,-693.5 662.299,-686.5"/>
</g>
<!-- Node6&#45;&gt;Node7 -->
<g id="edge7" class="edge"><title>Node6&#45;&gt;Node7</title>
<path fill="none" stroke="midnightblue" d="M777.553,-698.113C790.102,-700.45 803.265,-702.902 813.916,-704.886"/>
<polygon fill="midnightblue" stroke="midnightblue" points="778.153,-694.664 767.681,-696.274 776.871,-701.546 778.153,-694.664"/>
</g>
<!-- Node8 -->
<g id="node8" class="node"><title>Node8</title>
<g id="a_node8"><a xlink:href="../../d9/d32/connect__manager_8c.html#ab04c347706d661bcbd52ba901be05697" target="_top" xlink:title="schedule_checks">
<polygon fill="none" stroke="black" points="901,-1009.5 901,-1028.5 993,-1028.5 993,-1009.5 901,-1009.5"/>
<text text-anchor="middle" x="947" y="-1016.5" font-family="Helvetica,sans-Serif" font-size="10.00">schedule_checks</text>
</a>
</g>
</g>
<!-- Node7&#45;&gt;Node8 -->
<g id="edge8" class="edge"><title>Node7&#45;&gt;Node8</title>
<path fill="none" stroke="midnightblue" d="M846.045,-728.332C868.301,-787.783 929.942,-965.211 943.388,-1009.23"/>
<polygon fill="midnightblue" stroke="midnightblue" points="849.193,-726.766 842.367,-718.663 842.651,-729.254 849.193,-726.766"/>
</g>
<!-- Node11 -->
<g id="node11" class="node"><title>Node11</title>
<g id="a_node11"><a xlink:href="../../dc/d21/daemon_8c.html#a1e824dfeaa337e709772cb0c8e6c8dcc" target="_top" xlink:title="destroy">
<polygon fill="none" stroke="red" points="922.5,-680.5 922.5,-699.5 971.5,-699.5 971.5,-680.5 922.5,-680.5"/>
<text text-anchor="middle" x="947" y="-687.5" font-family="Helvetica,sans-Serif" font-size="10.00">destroy</text>
</a>
</g>
</g>
<!-- Node7&#45;&gt;Node11 -->
<g id="edge12" class="edge"><title>Node7&#45;&gt;Node11</title>
<path fill="none" stroke="midnightblue" d="M870.06,-703.36C886.859,-700.405 907.07,-696.849 922.417,-694.149"/>
<polygon fill="midnightblue" stroke="midnightblue" points="869.358,-699.929 860.116,-705.109 870.571,-706.824 869.358,-699.929"/>
</g>
<!-- Node45 -->
<g id="node45" class="node"><title>Node45</title>
<g id="a_node45"><a xlink:href="../../dc/d21/daemon_8c.html#a9855945718e95854c7188893dba56359" target="_top" xlink:title="sender_receiver_cb">
<polygon fill="none" stroke="red" points="896.5,-642.5 896.5,-661.5 997.5,-661.5 997.5,-642.5 896.5,-642.5"/>
<text text-anchor="middle" x="947" y="-649.5" font-family="Helvetica,sans-Serif" font-size="10.00">sender_receiver_cb</text>
</a>
</g>
</g>
<!-- Node7&#45;&gt;Node45 -->
<g id="edge47" class="edge"><title>Node7&#45;&gt;Node45</title>
<path fill="none" stroke="midnightblue" d="M859.156,-693.544C869.865,-686.14 883.265,-677.494 896,-671 902.866,-667.499 910.536,-664.27 917.767,-661.506"/>
<polygon fill="midnightblue" stroke="midnightblue" points="857.018,-690.769 850.869,-699.397 861.056,-696.487 857.018,-690.769"/>
</g>
<!-- Node8&#45;&gt;Node7 -->
<g id="edge10" class="edge"><title>Node8&#45;&gt;Node7</title>
<path fill="none" stroke="midnightblue" d="M937.991,-999.763C915.737,-940.333 853.915,-762.38 840.563,-718.608"/>
<polygon fill="midnightblue" stroke="midnightblue" points="934.838,-1001.32 941.665,-1009.42 941.381,-998.83 934.838,-1001.32"/>
</g>
<!-- Node9 -->
<g id="node9" class="node"><title>Node9</title>
<g id="a_node9"><a xlink:href="../../d9/d32/connect__manager_8c.html#af584ff3c884c769246784fed3318b7fa" target="_top" xlink:title="queue_triggered_check">
<polygon fill="none" stroke="red" points="1038.5,-1338.5 1038.5,-1357.5 1155.5,-1357.5 1155.5,-1338.5 1038.5,-1338.5"/>
<text text-anchor="middle" x="1097" y="-1345.5" font-family="Helvetica,sans-Serif" font-size="10.00">queue_triggered_check</text>
</a>
</g>
</g>
<!-- Node8&#45;&gt;Node9 -->
<g id="edge9" class="edge"><title>Node8&#45;&gt;Node9</title>
<path fill="none" stroke="midnightblue" d="M947.391,-1038.68C946.825,-1092.86 952.885,-1245.69 1034,-1329 1037.77,-1332.87 1042.31,-1335.96 1047.19,-1338.42"/>
<polygon fill="midnightblue" stroke="midnightblue" points="950.89,-1038.74 947.587,-1028.68 943.892,-1038.61 950.89,-1038.74"/>
</g>
<!-- Node10 -->
<g id="node10" class="node"><title>Node10</title>
<g id="a_node10"><a xlink:href="../../d9/d32/connect__manager_8c.html#a4f449262c53c390af00b91b57ae56cda" target="_top" xlink:title="METHOD">
<polygon fill="none" stroke="black" points="1067,-1300.5 1067,-1319.5 1127,-1319.5 1127,-1300.5 1067,-1300.5"/>
<text text-anchor="middle" x="1097" y="-1307.5" font-family="Helvetica,sans-Serif" font-size="10.00">METHOD</text>
</a>
</g>
</g>
<!-- Node8&#45;&gt;Node10 -->
<g id="edge11" class="edge"><title>Node8&#45;&gt;Node10</title>
<path fill="none" stroke="midnightblue" d="M948.293,-1038.55C950.118,-1088.06 961.88,-1219.52 1034,-1291 1042.72,-1299.64 1055.25,-1304.37 1066.77,-1306.95"/>
<polygon fill="midnightblue" stroke="midnightblue" points="951.792,-1038.44 948.024,-1028.54 944.794,-1038.63 951.792,-1038.44"/>
</g>
<!-- Node12 -->
<g id="node12" class="node"><title>Node12</title>
<g id="a_node12"><a xlink:href="../../d0/d49/adopt__children__job_8c.html#a6f289b8fcdc9676a1f40032224d1afe2" target="_top" xlink:title="METHOD">
<polygon fill="none" stroke="black" points="1067,-1262.5 1067,-1281.5 1127,-1281.5 1127,-1262.5 1067,-1262.5"/>
<text text-anchor="middle" x="1097" y="-1269.5" font-family="Helvetica,sans-Serif" font-size="10.00">METHOD</text>
</a>
</g>
</g>
<!-- Node11&#45;&gt;Node12 -->
<g id="edge13" class="edge"><title>Node11&#45;&gt;Node12</title>
<path fill="none" stroke="midnightblue" d="M951.325,-709.802C959.54,-758.902 981.339,-890.226 998,-1000 1006.52,-1056.15 997.096,-1209.84 1034,-1253 1042.19,-1262.58 1055.09,-1267.42 1067,-1269.82"/>
<polygon fill="midnightblue" stroke="midnightblue" points="954.725,-708.916 949.621,-699.632 947.821,-710.073 954.725,-708.916"/>
</g>
<!-- Node13 -->
<g id="node13" class="node"><title>Node13</title>
<g id="a_node13"><a xlink:href="../../d5/d28/aesni__plugin_8c.html#afdb69fee0f5b8bf4cf2893dc98670599" target="_top" xlink:title="aesni_plugin_create">
<polygon fill="none" stroke="black" points="1045.5,-1224.5 1045.5,-1243.5 1148.5,-1243.5 1148.5,-1224.5 1045.5,-1224.5"/>
<text text-anchor="middle" x="1097" y="-1231.5" font-family="Helvetica,sans-Serif" font-size="10.00">aesni_plugin_create</text>
</a>
</g>
</g>
<!-- Node11&#45;&gt;Node13 -->
<g id="edge14" class="edge"><title>Node11&#45;&gt;Node13</title>
<path fill="none" stroke="midnightblue" d="M951.16,-709.509C966.547,-804.462 1032.93,-1213.77 1034,-1215 1037.41,-1218.9 1041.59,-1222.01 1046.16,-1224.49"/>
<polygon fill="midnightblue" stroke="midnightblue" points="954.599,-708.847 949.545,-699.536 947.689,-709.967 954.599,-708.847"/>
</g>
<!-- Node14 -->
<g id="node14" class="node"><title>Node14</title>
<g id="a_node14"><a xlink:href="../../d9/df3/group__af__alg__ops.html#ga58d4d12cb191659f66407d38532f19e3" target="_top" xlink:title="af_alg_ops_create">
<polygon fill="none" stroke="red" points="1049,-1186.5 1049,-1205.5 1145,-1205.5 1145,-1186.5 1049,-1186.5"/>
<text text-anchor="middle" x="1097" y="-1193.5" font-family="Helvetica,sans-Serif" font-size="10.00">af_alg_ops_create</text>
</a>
</g>
</g>
<!-- Node11&#45;&gt;Node14 -->
<g id="edge15" class="edge"><title>Node11&#45;&gt;Node14</title>
<path fill="none" stroke="midnightblue" d="M951.149,-709.437C965.693,-799.002 1026.01,-1167.96 1034,-1177 1038.1,-1181.64 1043.3,-1185.16 1048.94,-1187.83"/>
<polygon fill="midnightblue" stroke="midnightblue" points="954.598,-708.839 949.541,-699.529 947.688,-709.96 954.598,-708.839"/>
</g>
<!-- Node15 -->
<g id="node15" class="node"><title>Node15</title>
<g id="a_node15"><a xlink:href="../../da/d8f/group__agent__private__key.html#ga894ae16895862d5baf8afc02a5d07d73" target="_top" xlink:title="agent_private_key_open">
<polygon fill="none" stroke="red" points="1036,-1148.5 1036,-1167.5 1158,-1167.5 1158,-1148.5 1036,-1148.5"/>
<text text-anchor="middle" x="1097" y="-1155.5" font-family="Helvetica,sans-Serif" font-size="10.00">agent_private_key_open</text>
</a>
</g>
</g>
<!-- Node11&#45;&gt;Node15 -->
<g id="edge16" class="edge"><title>Node11&#45;&gt;Node15</title>
<path fill="none" stroke="midnightblue" d="M951.227,-709.911C965.05,-794.756 1019.24,-1122.55 1034,-1139 1037.46,-1142.85 1041.68,-1145.94 1046.27,-1148.4"/>
<polygon fill="midnightblue" stroke="midnightblue" points="954.643,-709.114 949.584,-699.805 947.734,-710.237 954.643,-709.114"/>
</g>
<!-- Node16 -->
<g id="node16" class="node"><title>Node16</title>
<g id="a_node16"><a xlink:href="../../d1/d0e/group__array.html#ga58c74ec30d19f124535db5b5b94a1abc" target="_top" xlink:title="array_create_enumerator">
<polygon fill="none" stroke="red" points="1034.5,-1110.5 1034.5,-1129.5 1159.5,-1129.5 1159.5,-1110.5 1034.5,-1110.5"/>
<text text-anchor="middle" x="1097" y="-1117.5" font-family="Helvetica,sans-Serif" font-size="10.00">array_create_enumerator</text>
</a>
</g>
</g>
<!-- Node11&#45;&gt;Node16 -->
<g id="edge17" class="edge"><title>Node11&#45;&gt;Node16</title>
<path fill="none" stroke="midnightblue" d="M950.916,-709.649C962.624,-787.471 1006.89,-1071.3 1034,-1101 1037.49,-1104.82 1041.73,-1107.89 1046.33,-1110.34"/>
<polygon fill="midnightblue" stroke="midnightblue" points="954.371,-709.089 949.431,-699.716 947.448,-710.124 954.371,-709.089"/>
</g>
<!-- Node17 -->
<g id="node17" class="node"><title>Node17</title>
<g id="a_node17"><a xlink:href="../../d9/dd3/group__attest__db__t.html#gadc4b5f286474edc4478a41e43c9badf7" target="_top" xlink:title="attest_db_create">
<polygon fill="none" stroke="red" points="1052.5,-1072.5 1052.5,-1091.5 1141.5,-1091.5 1141.5,-1072.5 1052.5,-1072.5"/>
<text text-anchor="middle" x="1097" y="-1079.5" font-family="Helvetica,sans-Serif" font-size="10.00">attest_db_create</text>
</a>
</g>
</g>
<!-- Node11&#45;&gt;Node17 -->
<g id="edge18" class="edge"><title>Node11&#45;&gt;Node17</title>
<path fill="none" stroke="midnightblue" d="M949.965,-709.733C957.251,-779.08 984.867,-1010.26 1034,-1063 1038.99,-1068.35 1045.44,-1072.21 1052.29,-1074.99"/>
<polygon fill="midnightblue" stroke="midnightblue" points="953.44,-709.305 948.937,-699.714 946.476,-710.019 953.44,-709.305"/>
</g>
<!-- Node18 -->
<g id="node18" class="node"><title>Node18</title>
<g id="a_node18"><a xlink:href="../../db/d95/group__auth__cfg__wrapper.html#ga607ad3dadcfd48a50fb2545df93ddf56" target="_top" xlink:title="auth_cfg_wrapper_create">
<polygon fill="none" stroke="red" points="1034,-1034.5 1034,-1053.5 1160,-1053.5 1160,-1034.5 1034,-1034.5"/>
<text text-anchor="middle" x="1097" y="-1041.5" font-family="Helvetica,sans-Serif" font-size="10.00">auth_cfg_wrapper_create</text>
</a>
</g>
</g>
<!-- Node11&#45;&gt;Node18 -->
<g id="edge19" class="edge"><title>Node11&#45;&gt;Node18</title>
<path fill="none" stroke="midnightblue" d="M950.527,-709.781C959.171,-774.492 989.5,-978.401 1034,-1025 1037.73,-1028.91 1042.24,-1032.02 1047.11,-1034.49"/>
<polygon fill="midnightblue" stroke="midnightblue" points="953.975,-709.156 949.206,-699.695 947.034,-710.065 953.975,-709.156"/>
</g>
<!-- Node19 -->
<g id="node19" class="node"><title>Node19</title>
<g id="a_node19"><a xlink:href="../../db/d74/group__bliss__private__key.html#ga9824d75b75befd39dafc31674573d643" target="_top" xlink:title="bliss_private_key_gen">
<polygon fill="none" stroke="red" points="1040.5,-996.5 1040.5,-1015.5 1153.5,-1015.5 1153.5,-996.5 1040.5,-996.5"/>
<text text-anchor="middle" x="1097" y="-1003.5" font-family="Helvetica,sans-Serif" font-size="10.00">bliss_private_key_gen</text>
</a>
</g>
</g>
<!-- Node11&#45;&gt;Node19 -->
<g id="edge20" class="edge"><title>Node11&#45;&gt;Node19</title>
<path fill="none" stroke="midnightblue" d="M947.678,-709.886C947.938,-762.706 956.093,-907.875 1034,-987 1037.79,-990.851 1042.34,-993.925 1047.23,-996.379"/>
<polygon fill="midnightblue" stroke="midnightblue" points="951.179,-709.571 947.728,-699.554 944.179,-709.537 951.179,-709.571"/>
</g>
<!-- Node20 -->
<g id="node20" class="node"><title>Node20</title>
<g id="a_node20"><a xlink:href="../../db/d74/group__bliss__private__key.html#ga1daa52fbb7d6bdbbcebe0fbd89d621e0" target="_top" xlink:title="bliss_private_key_load">
<polygon fill="none" stroke="red" points="1039,-958.5 1039,-977.5 1155,-977.5 1155,-958.5 1039,-958.5"/>
<text text-anchor="middle" x="1097" y="-965.5" font-family="Helvetica,sans-Serif" font-size="10.00">bliss_private_key_load</text>
</a>
</g>
</g>
<!-- Node11&#45;&gt;Node20 -->
<g id="edge21" class="edge"><title>Node11&#45;&gt;Node20</title>
<path fill="none" stroke="midnightblue" d="M948.676,-709.892C951.405,-758.015 965.123,-881.705 1034,-949 1037.95,-952.855 1042.65,-955.931 1047.68,-958.384"/>
<polygon fill="midnightblue" stroke="midnightblue" points="952.159,-709.431 948.201,-699.603 945.166,-709.754 952.159,-709.431"/>
</g>
<!-- Node21 -->
<g id="node21" class="node"><title>Node21</title>
<g id="a_node21"><a xlink:href="../../d1/d4c/group__bliss__public__key.html#ga509639968cecc3bb5ce6a2bd4d10a513" target="_top" xlink:title="bliss_public_key_load">
<polygon fill="none" stroke="red" points="1041,-920.5 1041,-939.5 1153,-939.5 1153,-920.5 1041,-920.5"/>
<text text-anchor="middle" x="1097" y="-927.5" font-family="Helvetica,sans-Serif" font-size="10.00">bliss_public_key_load</text>
</a>
</g>
</g>
<!-- Node11&#45;&gt;Node21 -->
<g id="edge22" class="edge"><title>Node11&#45;&gt;Node21</title>
<path fill="none" stroke="midnightblue" d="M950.072,-709.689C955.613,-752.385 974.64,-854.132 1034,-910 1038.61,-914.341 1044.17,-917.74 1050.05,-920.401"/>
<polygon fill="midnightblue" stroke="midnightblue" points="953.519,-709.035 948.868,-699.516 946.568,-709.858 953.519,-709.035"/>
</g>
<!-- Node22 -->
<g id="node22" class="node"><title>Node22</title>
<g id="a_node22"><a xlink:href="../../dc/d22/group__bliss__signature.html#gade3fed5d586d01eddf64d1f103faede4" target="_top" xlink:title="bliss_signature_create\l_from_data">
<polygon fill="none" stroke="red" points="1040,-871 1040,-901 1154,-901 1154,-871 1040,-871"/>
<text text-anchor="start" x="1048" y="-889" font-family="Helvetica,sans-Serif" font-size="10.00">bliss_signature_create</text>
<text text-anchor="middle" x="1097" y="-878" font-family="Helvetica,sans-Serif" font-size="10.00">_from_data</text>
</a>
</g>
</g>
<!-- Node11&#45;&gt;Node22 -->
<g id="edge23" class="edge"><title>Node11&#45;&gt;Node22</title>
<path fill="none" stroke="midnightblue" d="M952.878,-709.493C962.572,-744.452 987.451,-818.15 1034,-861 1038.18,-864.852 1043.04,-868.145 1048.15,-870.952"/>
<polygon fill="midnightblue" stroke="midnightblue" points="956.199,-708.362 950.256,-699.592 949.433,-710.154 956.199,-708.362"/>
</g>
<!-- Node23 -->
<g id="node23" class="node"><title>Node23</title>
<g id="a_node23"><a xlink:href="../../df/dcc/callback__cred_8c.html#a55dce245285bc66d92c9c0c8844bf442" target="_top" xlink:title="create_generic">
<polygon fill="none" stroke="red" points="1057,-832.5 1057,-851.5 1137,-851.5 1137,-832.5 1057,-832.5"/>
<text text-anchor="middle" x="1097" y="-839.5" font-family="Helvetica,sans-Serif" font-size="10.00">create_generic</text>
</a>
</g>
</g>
<!-- Node11&#45;&gt;Node23 -->
<g id="edge24" class="edge"><title>Node11&#45;&gt;Node23</title>
<path fill="none" stroke="midnightblue" d="M955.28,-709.076C967.281,-737.989 993.945,-792.734 1034,-823 1040.74,-828.09 1048.85,-831.829 1056.95,-834.571"/>
<polygon fill="midnightblue" stroke="midnightblue" points="958.488,-707.672 951.525,-699.686 951.988,-710.271 958.488,-707.672"/>
</g>
<!-- Node24 -->
<g id="node24" class="node"><title>Node24</title>
<g id="a_node24"><a xlink:href="../../d1/d5e/certexpire__export_8c.html#a85842a4e35d1b6f4d520ad9c27740745" target="_top" xlink:title="add_local_certs">
<polygon fill="none" stroke="red" points="1054.5,-794.5 1054.5,-813.5 1139.5,-813.5 1139.5,-794.5 1054.5,-794.5"/>
<text text-anchor="middle" x="1097" y="-801.5" font-family="Helvetica,sans-Serif" font-size="10.00">add_local_certs</text>
</a>
</g>
</g>
<!-- Node11&#45;&gt;Node24 -->
<g id="edge25" class="edge"><title>Node11&#45;&gt;Node24</title>
<path fill="none" stroke="midnightblue" d="M961.212,-707.983C976.697,-727.958 1004.07,-760.018 1034,-780 1042.93,-785.961 1053.55,-790.758 1063.46,-794.45"/>
<polygon fill="midnightblue" stroke="midnightblue" points="963.796,-705.598 954.967,-699.742 958.217,-709.826 963.796,-705.598"/>
</g>
<!-- Node25 -->
<g id="node25" class="node"><title>Node25</title>
<g id="a_node25"><a xlink:href="../../dc/d9a/child__create_8c.html#a6a6c5cf0ae85184deb9468b36a8a24ca" target="_top" xlink:title="narrow_ts">
<polygon fill="none" stroke="black" points="1067.5,-718.5 1067.5,-737.5 1126.5,-737.5 1126.5,-718.5 1067.5,-718.5"/>
<text text-anchor="middle" x="1097" y="-725.5" font-family="Helvetica,sans-Serif" font-size="10.00">narrow_ts</text>
</a>
</g>
</g>
<!-- Node11&#45;&gt;Node25 -->
<g id="edge26" class="edge"><title>Node11&#45;&gt;Node25</title>
<path fill="none" stroke="midnightblue" d="M981.543,-698.612C1007.45,-705.264 1042.91,-714.369 1067.47,-720.674"/>
<polygon fill="midnightblue" stroke="midnightblue" points="982.335,-695.202 971.779,-696.105 980.594,-701.982 982.335,-695.202"/>
</g>
<!-- Node26 -->
<g id="node26" class="node"><title>Node26</title>
<g id="a_node26"><a xlink:href="../../dc/d9a/child__create_8c.html#afcf256f31dd9c48aaebef53f24e420be" target="_top" xlink:title="select_and_install">
<polygon fill="none" stroke="red" points="1196.5,-737.5 1196.5,-756.5 1291.5,-756.5 1291.5,-737.5 1196.5,-737.5"/>
<text text-anchor="middle" x="1244" y="-744.5" font-family="Helvetica,sans-Serif" font-size="10.00">select_and_install</text>
</a>
</g>
</g>
<!-- Node11&#45;&gt;Node26 -->
<g id="edge28" class="edge"><title>Node11&#45;&gt;Node26</title>
<path fill="none" stroke="midnightblue" d="M965.729,-706.34C982.072,-720.209 1007.71,-739.079 1034,-747 1087.85,-763.225 1153.11,-759.803 1196.22,-754.577"/>
<polygon fill="midnightblue" stroke="midnightblue" points="967.902,-703.591 958.076,-699.629 963.287,-708.854 967.902,-703.591"/>
</g>
<!-- Node27 -->
<g id="node27" class="node"><title>Node27</title>
<g id="a_node27"><a xlink:href="../../dc/d9a/child__create_8c.html#ae9f9c6297fd0e3a37dd63dc93cec1921" target="_top" xlink:title="select_child_cfg">
<polygon fill="none" stroke="red" points="1053.5,-680.5 1053.5,-699.5 1140.5,-699.5 1140.5,-680.5 1053.5,-680.5"/>
<text text-anchor="middle" x="1097" y="-687.5" font-family="Helvetica,sans-Serif" font-size="10.00">select_child_cfg</text>
</a>
</g>
</g>
<!-- Node11&#45;&gt;Node27 -->
<g id="edge29" class="edge"><title>Node11&#45;&gt;Node27</title>
<path fill="none" stroke="midnightblue" d="M981.957,-690C1003.21,-690 1030.77,-690 1053.47,-690"/>
<polygon fill="midnightblue" stroke="midnightblue" points="981.779,-686.5 971.779,-690 981.779,-693.5 981.779,-686.5"/>
</g>
<!-- Node28 -->
<g id="node28" class="node"><title>Node28</title>
<g id="a_node28"><a xlink:href="../../dc/d9a/child__create_8c.html#a52597735ce29444b368c97ed86ff1d15" target="_top" xlink:title="raise_alerts">
<polygon fill="none" stroke="red" points="1063.5,-642.5 1063.5,-661.5 1130.5,-661.5 1130.5,-642.5 1063.5,-642.5"/>
<text text-anchor="middle" x="1097" y="-649.5" font-family="Helvetica,sans-Serif" font-size="10.00">raise_alerts</text>
</a>
</g>
</g>
<!-- Node11&#45;&gt;Node28 -->
<g id="edge30" class="edge"><title>Node11&#45;&gt;Node28</title>
<path fill="none" stroke="midnightblue" d="M981.714,-681.344C1006.22,-675.051 1039.22,-666.58 1063.45,-660.357"/>
<polygon fill="midnightblue" stroke="midnightblue" points="980.594,-678.018 971.779,-683.895 982.335,-684.798 980.594,-678.018"/>
</g>
<!-- Node29 -->
<g id="node29" class="node"><title>Node29</title>
<g id="a_node29"><a xlink:href="../../dd/d99/child__sa_8c.html#ab58d444bee87c985dcdfcfc7a1cd4dac" target="_top" xlink:title="get_proxy_addr">
<polygon fill="none" stroke="red" points="1055.5,-604.5 1055.5,-623.5 1138.5,-623.5 1138.5,-604.5 1055.5,-604.5"/>
<text text-anchor="middle" x="1097" y="-611.5" font-family="Helvetica,sans-Serif" font-size="10.00">get_proxy_addr</text>
</a>
</g>
</g>
<!-- Node11&#45;&gt;Node29 -->
<g id="edge31" class="edge"><title>Node11&#45;&gt;Node29</title>
<path fill="none" stroke="midnightblue" d="M981.319,-679.752C987.109,-677.306 992.901,-674.398 998,-671 1017.36,-658.099 1014.23,-645.257 1034,-633 1040.51,-628.967 1047.93,-625.736 1055.33,-623.165"/>
<polygon fill="midnightblue" stroke="midnightblue" points="979.788,-676.59 971.702,-683.436 982.292,-683.127 979.788,-676.59"/>
</g>
<!-- Node30 -->
<g id="node30" class="node"><title>Node30</title>
<g id="a_node30"><a xlink:href="../../d9/d32/connect__manager_8c.html#a20afb9d63f35523080da47f0ab738227" target="_top" xlink:title="check_list_destroy">
<polygon fill="none" stroke="red" points="1048,-566.5 1048,-585.5 1146,-585.5 1146,-566.5 1048,-566.5"/>
<text text-anchor="middle" x="1097" y="-573.5" font-family="Helvetica,sans-Serif" font-size="10.00">check_list_destroy</text>
</a>
</g>
</g>
<!-- Node11&#45;&gt;Node30 -->
<g id="edge32" class="edge"><title>Node11&#45;&gt;Node30</title>
<path fill="none" stroke="midnightblue" d="M981.211,-681.495C987.286,-678.851 993.21,-675.425 998,-671 1025.45,-645.639 1005.73,-619.445 1034,-595 1038.51,-591.098 1043.82,-587.997 1049.39,-585.533"/>
<polygon fill="midnightblue" stroke="midnightblue" points="979.835,-678.272 971.68,-685.035 982.273,-684.834 979.835,-678.272"/>
</g>
<!-- Node31 -->
<g id="node31" class="node"><title>Node31</title>
<g id="a_node31"><a xlink:href="../../d9/d32/connect__manager_8c.html#a6474c642f606518d9696b236c4c7b8a0" target="_top" xlink:title="initiated_destroy">
<polygon fill="none" stroke="red" points="1053,-528.5 1053,-547.5 1141,-547.5 1141,-528.5 1053,-528.5"/>
<text text-anchor="middle" x="1097" y="-535.5" font-family="Helvetica,sans-Serif" font-size="10.00">initiated_destroy</text>
</a>
</g>
</g>
<!-- Node11&#45;&gt;Node31 -->
<g id="edge33" class="edge"><title>Node11&#45;&gt;Node31</title>
<path fill="none" stroke="midnightblue" d="M981.366,-682.144C987.524,-679.444 993.439,-675.83 998,-671 1034.48,-632.369 996.27,-594.41 1034,-557 1039.28,-551.768 1045.95,-547.971 1052.96,-545.217"/>
<polygon fill="midnightblue" stroke="midnightblue" points="979.851,-678.971 971.651,-685.68 982.245,-685.549 979.851,-678.971"/>
</g>
<!-- Node32 -->
<g id="node32" class="node"><title>Node32</title>
<g id="a_node32"><a xlink:href="../../dd/da9/group__connect__manager.html#gab34eec8fdfd6bdbabec1182dddc46d92" target="_top" xlink:title="connect_manager_create">
<polygon fill="none" stroke="red" points="1034,-490.5 1034,-509.5 1160,-509.5 1160,-490.5 1034,-490.5"/>
<text text-anchor="middle" x="1097" y="-497.5" font-family="Helvetica,sans-Serif" font-size="10.00">connect_manager_create</text>
</a>
</g>
</g>
<!-- Node11&#45;&gt;Node32 -->
<g id="edge34" class="edge"><title>Node11&#45;&gt;Node32</title>
<path fill="none" stroke="midnightblue" d="M981.478,-682.474C987.676,-679.747 993.579,-676.039 998,-671 1043.78,-618.811 986.526,-569.655 1034,-519 1037.62,-515.139 1042,-512.056 1046.74,-509.594"/>
<polygon fill="midnightblue" stroke="midnightblue" points="979.892,-679.325 971.666,-686.002 982.26,-685.912 979.892,-679.325"/>
</g>
<!-- Node33 -->
<g id="node33" class="node"><title>Node33</title>
<g id="a_node33"><a xlink:href="../../d9/df8/group__coupling__validator.html#ga63cdb6b6835629d0a0065a0e6e1c4bfb" target="_top" xlink:title="coupling_validator\l_create">
<polygon fill="none" stroke="red" points="1049.5,-441 1049.5,-471 1144.5,-471 1144.5,-441 1049.5,-441"/>
<text text-anchor="start" x="1057.5" y="-459" font-family="Helvetica,sans-Serif" font-size="10.00">coupling_validator</text>
<text text-anchor="middle" x="1097" y="-448" font-family="Helvetica,sans-Serif" font-size="10.00">_create</text>
</a>
</g>
</g>
<!-- Node11&#45;&gt;Node33 -->
<g id="edge35" class="edge"><title>Node11&#45;&gt;Node33</title>
<path fill="none" stroke="midnightblue" d="M981.041,-682.896C987.452,-680.136 993.552,-676.308 998,-671 1053.2,-605.123 979.465,-547.429 1034,-481 1038.2,-475.887 1043.6,-471.811 1049.46,-468.565"/>
<polygon fill="midnightblue" stroke="midnightblue" points="979.852,-679.603 971.58,-686.222 982.174,-686.207 979.852,-679.603"/>
</g>
<!-- Node34 -->
<g id="node34" class="node"><title>Node34</title>
<g id="a_node34"><a xlink:href="../../de/dac/cp__payload_8c.html#aa838fafa304f8ab1ea30a81fca462f8d" target="_top" xlink:title="METHOD2">
<polygon fill="none" stroke="black" points="1064.5,-402.5 1064.5,-421.5 1129.5,-421.5 1129.5,-402.5 1064.5,-402.5"/>
<text text-anchor="middle" x="1097" y="-409.5" font-family="Helvetica,sans-Serif" font-size="10.00">METHOD2</text>
</a>
</g>
</g>
<!-- Node11&#45;&gt;Node34 -->
<g id="edge36" class="edge"><title>Node11&#45;&gt;Node34</title>
<path fill="none" stroke="midnightblue" d="M981.195,-683.023C987.598,-680.256 993.655,-676.393 998,-671 1065.68,-587.014 963.598,-512.715 1034,-431 1041.64,-422.13 1053.31,-417.331 1064.47,-414.759"/>
<polygon fill="midnightblue" stroke="midnightblue" points="980.005,-679.731 971.727,-686.343 982.321,-686.337 980.005,-679.731"/>
</g>
<!-- Node35 -->
<g id="node35" class="node"><title>Node35</title>
<g id="a_node35"><a xlink:href="../../d4/d66/group__cred__encoding.html#gac7af53016079589a659a72721f7587e5" target="_top" xlink:title="cred_encoding_create">
<polygon fill="none" stroke="red" points="1041,-364.5 1041,-383.5 1153,-383.5 1153,-364.5 1041,-364.5"/>
<text text-anchor="middle" x="1097" y="-371.5" font-family="Helvetica,sans-Serif" font-size="10.00">cred_encoding_create</text>
</a>
</g>
</g>
<!-- Node11&#45;&gt;Node35 -->
<g id="edge37" class="edge"><title>Node11&#45;&gt;Node35</title>
<path fill="none" stroke="midnightblue" d="M981.104,-683.163C987.566,-680.387 993.67,-676.485 998,-671 1075.19,-573.208 953.633,-488.201 1034,-393 1037.27,-389.129 1041.3,-386.032 1045.73,-383.556"/>
<polygon fill="midnightblue" stroke="midnightblue" points="979.848,-679.894 971.546,-686.477 982.141,-686.508 979.848,-679.894"/>
</g>
<!-- Node36 -->
<g id="node36" class="node"><title>Node36</title>
<g id="a_node36"><a xlink:href="../../d1/d05/credential__manager_8c.html#a72cec86d09302075ac4d01c746ef324d" target="_top" xlink:title="create_sets_enumerator">
<polygon fill="none" stroke="red" points="1036,-326.5 1036,-345.5 1158,-345.5 1158,-326.5 1036,-326.5"/>
<text text-anchor="middle" x="1097" y="-333.5" font-family="Helvetica,sans-Serif" font-size="10.00">create_sets_enumerator</text>
</a>
</g>
</g>
<!-- Node11&#45;&gt;Node36 -->
<g id="edge38" class="edge"><title>Node11&#45;&gt;Node36</title>
<path fill="none" stroke="midnightblue" d="M981.167,-683.212C987.626,-680.434 993.713,-676.518 998,-671 1084.73,-559.379 943.65,-463.708 1034,-355 1037.24,-351.104 1041.25,-347.99 1045.67,-345.505"/>
<polygon fill="midnightblue" stroke="midnightblue" points="979.91,-679.944 971.606,-686.524 982.201,-686.558 979.91,-679.944"/>
</g>
<!-- Node37 -->
<g id="node37" class="node"><title>Node37</title>
<g id="a_node37"><a xlink:href="../../d6/da8/curl__plugin_8c.html#a5885d34f8c1cc2eae3b4be69bae4de0e" target="_top" xlink:title="curl_plugin_create">
<polygon fill="none" stroke="black" points="1049.5,-288.5 1049.5,-307.5 1144.5,-307.5 1144.5,-288.5 1049.5,-288.5"/>
<text text-anchor="middle" x="1097" y="-295.5" font-family="Helvetica,sans-Serif" font-size="10.00">curl_plugin_create</text>
</a>
</g>
</g>
<!-- Node11&#45;&gt;Node37 -->
<g id="edge39" class="edge"><title>Node11&#45;&gt;Node37</title>
<path fill="none" stroke="midnightblue" d="M981.217,-683.251C987.673,-680.47 993.746,-676.544 998,-671 1094.27,-545.535 933.654,-439.231 1034,-317 1038.07,-312.04 1043.4,-308.347 1049.23,-305.603"/>
<polygon fill="midnightblue" stroke="midnightblue" points="979.959,-679.983 971.653,-686.56 982.248,-686.598 979.959,-679.983"/>
</g>
<!-- Node38 -->
<g id="node38" class="node"><title>Node38</title>
<g id="a_node38"><a xlink:href="../../d0/db7/group__libcharon.html#ga3cb8c2e066a22e30b3814bfd915e689f" target="_top" xlink:title="libcharon_deinit">
<polygon fill="none" stroke="red" points="1055,-250.5 1055,-269.5 1139,-269.5 1139,-250.5 1055,-250.5"/>
<text text-anchor="middle" x="1097" y="-257.5" font-family="Helvetica,sans-Serif" font-size="10.00">libcharon_deinit</text>
</a>
</g>
</g>
<!-- Node11&#45;&gt;Node38 -->
<g id="edge40" class="edge"><title>Node11&#45;&gt;Node38</title>
<path fill="none" stroke="midnightblue" d="M981.258,-683.282C987.711,-680.499 993.773,-676.565 998,-671 1050.91,-601.34 978.824,-346.882 1034,-279 1039.33,-272.448 1046.85,-268.104 1054.83,-265.237"/>
<polygon fill="midnightblue" stroke="midnightblue" points="979.999,-680.014 971.692,-686.59 982.286,-686.63 979.999,-680.014"/>
</g>
<!-- Node39 -->
<g id="node39" class="node"><title>Node39</title>
<g id="a_node39"><a xlink:href="../../d5/dcb/group__dhcp__socket.html#ga9a7544edfbcbc54c6890592fcd674504" target="_top" xlink:title="dhcp_socket_create">
<polygon fill="none" stroke="red" points="1045,-212.5 1045,-231.5 1149,-231.5 1149,-212.5 1045,-212.5"/>
<text text-anchor="middle" x="1097" y="-219.5" font-family="Helvetica,sans-Serif" font-size="10.00">dhcp_socket_create</text>
</a>
</g>
</g>
<!-- Node11&#45;&gt;Node39 -->
<g id="edge41" class="edge"><title>Node11&#45;&gt;Node39</title>
<path fill="none" stroke="midnightblue" d="M981.291,-683.307C987.743,-680.523 993.796,-676.582 998,-671 1055.69,-594.408 973.819,-315.653 1034,-241 1037.11,-237.144 1040.98,-234.051 1045.26,-231.575"/>
<polygon fill="midnightblue" stroke="midnightblue" points="980.032,-680.039 971.723,-686.614 982.318,-686.656 980.032,-680.039"/>
</g>
<!-- Node40 -->
<g id="node40" class="node"><title>Node40</title>
<g id="a_node40"><a xlink:href="../../d0/d55/dumm_8h.html#ad0d53400c6ee3b458390d1987a5090f6" target="_top" xlink:title="dumm_create">
<polygon fill="none" stroke="red" points="1059,-174.5 1059,-193.5 1135,-193.5 1135,-174.5 1059,-174.5"/>
<text text-anchor="middle" x="1097" y="-181.5" font-family="Helvetica,sans-Serif" font-size="10.00">dumm_create</text>
</a>
</g>
</g>
<!-- Node11&#45;&gt;Node40 -->
<g id="edge42" class="edge"><title>Node11&#45;&gt;Node40</title>
<path fill="none" stroke="midnightblue" d="M981.32,-683.328C987.769,-680.543 993.815,-676.596 998,-671 1060.48,-587.474 968.81,-284.427 1034,-203 1040.19,-195.266 1049.45,-190.604 1058.94,-187.816"/>
<polygon fill="midnightblue" stroke="midnightblue" points="980.059,-680.061 971.75,-686.634 982.345,-686.677 980.059,-680.061"/>
</g>
<!-- Node41 -->
<g id="node41" class="node"><title>Node41</title>
<g id="a_node41"><a xlink:href="../../d9/d78/duplicheck__listener_8c.html#aede77291d80d98c60a53f8438d3bd5bd" target="_top" xlink:title="entry_destroy">
<polygon fill="none" stroke="red" points="1059,-136.5 1059,-155.5 1135,-155.5 1135,-136.5 1059,-136.5"/>
<text text-anchor="middle" x="1097" y="-143.5" font-family="Helvetica,sans-Serif" font-size="10.00">entry_destroy</text>
</a>
</g>
</g>
<!-- Node11&#45;&gt;Node41 -->
<g id="edge43" class="edge"><title>Node11&#45;&gt;Node41</title>
<path fill="none" stroke="midnightblue" d="M981.171,-683.421C987.684,-680.631 993.793,-676.658 998,-671 1065.26,-580.536 963.8,-253.203 1034,-165 1040.17,-157.248 1049.42,-152.581 1058.91,-149.793"/>
<polygon fill="midnightblue" stroke="midnightblue" points="979.845,-680.175 971.514,-686.72 982.108,-686.799 979.845,-680.175"/>
</g>
<!-- Node42 -->
<g id="node42" class="node"><title>Node42</title>
<g id="a_node42"><a xlink:href="../../d2/d99/group__duplicheck__notify.html#gaa63c55950c4975b9970450596a258417" target="_top" xlink:title="duplicheck_notify_create">
<polygon fill="none" stroke="red" points="1034.5,-98.5 1034.5,-117.5 1159.5,-117.5 1159.5,-98.5 1034.5,-98.5"/>
<text text-anchor="middle" x="1097" y="-105.5" font-family="Helvetica,sans-Serif" font-size="10.00">duplicheck_notify_create</text>
</a>
</g>
</g>
<!-- Node11&#45;&gt;Node42 -->
<g id="edge44" class="edge"><title>Node11&#45;&gt;Node42</title>
<path fill="none" stroke="midnightblue" d="M981.192,-683.436C987.704,-680.645 993.807,-676.668 998,-671 1070.05,-573.597 958.789,-221.981 1034,-127 1037.08,-123.117 1040.92,-120.007 1045.19,-117.519"/>
<polygon fill="midnightblue" stroke="midnightblue" points="979.865,-680.191 971.533,-686.735 982.128,-686.815 979.865,-680.191"/>
</g>
<!-- Node43 -->
<g id="node43" class="node"><title>Node43</title>
<g id="a_node43"><a xlink:href="../../d4/d7c/group__eap__aka__3gpp2__card.html#gacd6c11443537f59d06e9cf5d6bfc83c0" target="_top" xlink:title="eap_aka_3gpp2_card\l_create">
<polygon fill="none" stroke="red" points="1042.5,-49 1042.5,-79 1151.5,-79 1151.5,-49 1042.5,-49"/>
<text text-anchor="start" x="1050.5" y="-67" font-family="Helvetica,sans-Serif" font-size="10.00">eap_aka_3gpp2_card</text>
<text text-anchor="middle" x="1097" y="-56" font-family="Helvetica,sans-Serif" font-size="10.00">_create</text>
</a>
</g>
</g>
<!-- Node11&#45;&gt;Node43 -->
<g id="edge45" class="edge"><title>Node11&#45;&gt;Node43</title>
<path fill="none" stroke="midnightblue" d="M981.21,-683.45C987.721,-680.658 993.82,-676.677 998,-671 1074.83,-566.656 958.22,-194.112 1034,-89 1036.78,-85.1401 1040.26,-81.8753 1044.15,-79.114"/>
<polygon fill="midnightblue" stroke="midnightblue" points="979.883,-680.204 971.55,-686.747 982.145,-686.829 979.883,-680.204"/>
</g>
<!-- Node44 -->
<g id="node44" class="node"><title>Node44</title>
<g id="a_node44"><a xlink:href="../../dd/d07/group__eap__aka__3gpp2__provider.html#ga3f0d9b6168857af1f7475a94d10d0949" target="_top" xlink:title="eap_aka_3gpp2_provider\l_create">
<polygon fill="none" stroke="red" points="1034.5,-0 1034.5,-30 1159.5,-30 1159.5,-0 1034.5,-0"/>
<text text-anchor="start" x="1042.5" y="-18" font-family="Helvetica,sans-Serif" font-size="10.00">eap_aka_3gpp2_provider</text>
<text text-anchor="middle" x="1097" y="-7" font-family="Helvetica,sans-Serif" font-size="10.00">_create</text>
</a>
</g>
</g>
<!-- Node11&#45;&gt;Node44 -->
<g id="edge46" class="edge"><title>Node11&#45;&gt;Node44</title>
<path fill="none" stroke="midnightblue" d="M981.23,-683.465C987.741,-680.672 993.833,-676.687 998,-671 1081.13,-557.522 951.217,-152.735 1034,-39 1036.51,-35.5472 1039.6,-32.5911 1043.03,-30.0603"/>
<polygon fill="midnightblue" stroke="midnightblue" points="979.903,-680.219 971.569,-686.762 982.164,-686.844 979.903,-680.219"/>
</g>
<!-- Node25&#45;&gt;Node26 -->
<g id="edge27" class="edge"><title>Node25&#45;&gt;Node26</title>
<path fill="none" stroke="midnightblue" d="M1136.7,-733.071C1155.07,-735.478 1177.16,-738.372 1196.43,-740.898"/>
<polygon fill="midnightblue" stroke="midnightblue" points="1137.02,-729.583 1126.65,-731.754 1136.11,-736.523 1137.02,-729.583"/>
</g>
<!-- Node48 -->
<g id="node48" class="node"><title>Node48</title>
<g id="a_node48"><a xlink:href="../../dd/d65/task__manager__v1_8c.html#a59c7285b6e10f3a3ac399f08a50bc59d" target="_top" xlink:title="process_request">
<polygon fill="none" stroke="red" points="688.5,-604.5 688.5,-623.5 777.5,-623.5 777.5,-604.5 688.5,-604.5"/>
<text text-anchor="middle" x="733" y="-611.5" font-family="Helvetica,sans-Serif" font-size="10.00">process_request</text>
</a>
</g>
</g>
<!-- Node47&#45;&gt;Node48 -->
<g id="edge50" class="edge"><title>Node47&#45;&gt;Node48</title>
<path fill="none" stroke="midnightblue" d="M647.263,-614C660.806,-614 675.342,-614 688.484,-614"/>
<polygon fill="midnightblue" stroke="midnightblue" points="647.139,-610.5 637.139,-614 647.139,-617.5 647.139,-610.5"/>
</g>
<!-- Node49&#45;&gt;Node50 -->
<g id="edge52" class="edge"><title>Node49&#45;&gt;Node50</title>
<path fill="none" stroke="midnightblue" d="M501.527,-601.739C522.583,-595.941 547.132,-589.181 565.786,-584.044"/>
<polygon fill="midnightblue" stroke="midnightblue" points="500.535,-598.382 491.823,-604.411 502.394,-605.131 500.535,-598.382"/>
</g>
</g>
</svg>
