<?xml version="1.0" encoding="UTF-8" standalone="no"?>
<!DOCTYPE svg PUBLIC "-//W3C//DTD SVG 1.1//EN"
 "http://www.w3.org/Graphics/SVG/1.1/DTD/svg11.dtd">
<!-- Generated by graphviz version 2.36.0 (20140111.2315)
 -->
<!-- Title: thread_value.h Pages: 1 -->
<svg width="1701pt" height="84pt"
 viewBox="0.00 0.00 1701.00 84.00" xmlns="http://www.w3.org/2000/svg" xmlns:xlink="http://www.w3.org/1999/xlink">
<g id="graph0" class="graph" transform="scale(1 1) rotate(0) translate(4 80)">
<title>thread_value.h</title>
<!-- Node1 -->
<g id="node1" class="node"><title>Node1</title>
<polygon fill="#bfbfbf" stroke="black" points="833,-56.5 833,-75.5 913,-75.5 913,-56.5 833,-56.5"/>
<text text-anchor="middle" x="873" y="-63.5" font-family="Helvetica,sans-Serif" font-size="10.00">thread_value.h</text>
</g>
<!-- Node2 -->
<g id="node2" class="node"><title>Node2</title>
<g id="a_node2"><a xlink:href="../../d3/d94/bus_8c.html" target="_top" xlink:title="bus.c">
<polygon fill="none" stroke="black" points="-0.5,-0.5 -0.5,-19.5 40.5,-19.5 40.5,-0.5 -0.5,-0.5"/>
<text text-anchor="middle" x="20" y="-7.5" font-family="Helvetica,sans-Serif" font-size="10.00">bus.c</text>
</a>
</g>
</g>
<!-- Node1&#45;&gt;Node2 -->
<g id="edge1" class="edge"><title>Node1&#45;&gt;Node2</title>
<path fill="none" stroke="midnightblue" d="M822.404,-63.8681C667.106,-60.1366 198.733,-46.8973 49,-20 46.302,-19.5153 43.5034,-18.8562 40.7566,-18.1135"/>
<polygon fill="midnightblue" stroke="midnightblue" points="822.525,-67.3719 832.606,-64.1103 822.691,-60.3738 822.525,-67.3719"/>
</g>
<!-- Node3 -->
<g id="node3" class="node"><title>Node3</title>
<g id="a_node3"><a xlink:href="../../de/d1b/sql__logger_8c.html" target="_top" xlink:title="sql_logger.c">
<polygon fill="none" stroke="black" points="58.5,-0.5 58.5,-19.5 127.5,-19.5 127.5,-0.5 58.5,-0.5"/>
<text text-anchor="middle" x="93" y="-7.5" font-family="Helvetica,sans-Serif" font-size="10.00">sql_logger.c</text>
</a>
</g>
</g>
<!-- Node1&#45;&gt;Node3 -->
<g id="edge2" class="edge"><title>Node1&#45;&gt;Node3</title>
<path fill="none" stroke="midnightblue" d="M822.547,-64.4413C702.85,-62.5675 392.515,-54.4896 136,-20 133.279,-19.6341 130.473,-19.1932 127.659,-18.7055"/>
<polygon fill="midnightblue" stroke="midnightblue" points="822.806,-67.9454 832.857,-64.5945 822.91,-60.9462 822.806,-67.9454"/>
</g>
<!-- Node4 -->
<g id="node4" class="node"><title>Node4</title>
<g id="a_node4"><a xlink:href="../../dd/dd2/fast__request_8c.html" target="_top" xlink:title="fast_request.c">
<polygon fill="none" stroke="black" points="145.5,-0.5 145.5,-19.5 224.5,-19.5 224.5,-0.5 145.5,-0.5"/>
<text text-anchor="middle" x="185" y="-7.5" font-family="Helvetica,sans-Serif" font-size="10.00">fast_request.c</text>
</a>
</g>
</g>
<!-- Node1&#45;&gt;Node4 -->
<g id="edge3" class="edge"><title>Node1&#45;&gt;Node4</title>
<path fill="none" stroke="midnightblue" d="M822.471,-63.4255C714.087,-59.6145 451.378,-48.0556 233,-20 230.309,-19.6543 227.541,-19.2544 224.757,-18.8192"/>
<polygon fill="midnightblue" stroke="midnightblue" points="822.663,-66.9341 832.778,-63.7807 822.904,-59.9382 822.663,-66.9341"/>
</g>
<!-- Node5 -->
<g id="node5" class="node"><title>Node5</title>
<g id="a_node5"><a xlink:href="../../dc/dcc/array_8c.html" target="_top" xlink:title="array.c">
<polygon fill="none" stroke="black" points="242.5,-0.5 242.5,-19.5 289.5,-19.5 289.5,-0.5 242.5,-0.5"/>
<text text-anchor="middle" x="266" y="-7.5" font-family="Helvetica,sans-Serif" font-size="10.00">array.c</text>
</a>
</g>
</g>
<!-- Node1&#45;&gt;Node5 -->
<g id="edge4" class="edge"><title>Node1&#45;&gt;Node5</title>
<path fill="none" stroke="midnightblue" d="M822.499,-64.2215C722.061,-61.9748 490.416,-53.3003 299,-20 295.958,-19.4707 292.79,-18.7852 289.673,-18.0286"/>
<polygon fill="midnightblue" stroke="midnightblue" points="822.59,-67.7241 832.662,-64.4367 822.738,-60.7257 822.59,-67.7241"/>
</g>
<!-- Node6 -->
<g id="node6" class="node"><title>Node6</title>
<g id="a_node6"><a xlink:href="../../d6/d88/credential__factory_8c.html" target="_top" xlink:title="credential_factory.c">
<polygon fill="none" stroke="black" points="308,-0.5 308,-19.5 410,-19.5 410,-0.5 308,-0.5"/>
<text text-anchor="middle" x="359" y="-7.5" font-family="Helvetica,sans-Serif" font-size="10.00">credential_factory.c</text>
</a>
</g>
</g>
<!-- Node1&#45;&gt;Node6 -->
<g id="edge5" class="edge"><title>Node1&#45;&gt;Node6</title>
<path fill="none" stroke="midnightblue" d="M822.836,-60.8549C739.047,-53.7461 565.377,-38.221 419,-20 416.073,-19.6357 413.069,-19.2434 410.039,-18.8336"/>
<polygon fill="midnightblue" stroke="midnightblue" points="822.583,-64.346 832.842,-61.7001 823.172,-57.3708 822.583,-64.346"/>
</g>
<!-- Node7 -->
<g id="node7" class="node"><title>Node7</title>
<g id="a_node7"><a xlink:href="../../d1/d05/credential__manager_8c.html" target="_top" xlink:title="credential_manager.c">
<polygon fill="none" stroke="black" points="428,-0.5 428,-19.5 538,-19.5 538,-0.5 428,-0.5"/>
<text text-anchor="middle" x="483" y="-7.5" font-family="Helvetica,sans-Serif" font-size="10.00">credential_manager.c</text>
</a>
</g>
</g>
<!-- Node1&#45;&gt;Node7 -->
<g id="edge6" class="edge"><title>Node1&#45;&gt;Node7</title>
<path fill="none" stroke="midnightblue" d="M822.623,-58.0865C758.567,-49.2864 644.558,-33.5928 547,-20 544.111,-19.5974 541.148,-19.1838 538.157,-18.7655"/>
<polygon fill="midnightblue" stroke="midnightblue" points="822.462,-61.5972 832.845,-59.4906 823.415,-54.6623 822.462,-61.5972"/>
</g>
<!-- Node8 -->
<g id="node8" class="node"><title>Node8</title>
<g id="a_node8"><a xlink:href="../../dc/d29/mysql__database_8c.html" target="_top" xlink:title="mysql_database.c">
<polygon fill="none" stroke="black" points="556,-0.5 556,-19.5 652,-19.5 652,-0.5 556,-0.5"/>
<text text-anchor="middle" x="604" y="-7.5" font-family="Helvetica,sans-Serif" font-size="10.00">mysql_database.c</text>
</a>
</g>
</g>
<!-- Node1&#45;&gt;Node8 -->
<g id="edge7" class="edge"><title>Node1&#45;&gt;Node8</title>
<path fill="none" stroke="midnightblue" d="M822.648,-54.8921C771.95,-44.7148 694.591,-29.1855 646.774,-19.5865"/>
<polygon fill="midnightblue" stroke="midnightblue" points="822.235,-58.3789 832.728,-56.9157 823.612,-51.5159 822.235,-58.3789"/>
</g>
<!-- Node9 -->
<g id="node9" class="node"><title>Node9</title>
<g id="a_node9"><a xlink:href="../../d5/dea/openssl__plugin_8c.html" target="_top" xlink:title="openssl_plugin.c">
<polygon fill="none" stroke="black" points="670.5,-0.5 670.5,-19.5 759.5,-19.5 759.5,-0.5 670.5,-0.5"/>
<text text-anchor="middle" x="715" y="-7.5" font-family="Helvetica,sans-Serif" font-size="10.00">openssl_plugin.c</text>
</a>
</g>
</g>
<!-- Node1&#45;&gt;Node9 -->
<g id="edge8" class="edge"><title>Node1&#45;&gt;Node9</title>
<path fill="none" stroke="midnightblue" d="M838.392,-53.172C808.641,-43.0039 766.453,-28.5852 739.918,-19.5164"/>
<polygon fill="midnightblue" stroke="midnightblue" points="837.37,-56.5213 847.964,-56.4435 839.634,-49.8975 837.37,-56.5213"/>
</g>
<!-- Node10 -->
<g id="node10" class="node"><title>Node10</title>
<g id="a_node10"><a xlink:href="../../de/dfc/sqlite__database_8c.html" target="_top" xlink:title="sqlite_database.c">
<polygon fill="none" stroke="black" points="777.5,-0.5 777.5,-19.5 870.5,-19.5 870.5,-0.5 777.5,-0.5"/>
<text text-anchor="middle" x="824" y="-7.5" font-family="Helvetica,sans-Serif" font-size="10.00">sqlite_database.c</text>
</a>
</g>
</g>
<!-- Node1&#45;&gt;Node10 -->
<g id="edge9" class="edge"><title>Node1&#45;&gt;Node10</title>
<path fill="none" stroke="midnightblue" d="M857.966,-48.4314C849.378,-38.9673 838.957,-27.4827 831.941,-19.7511"/>
<polygon fill="midnightblue" stroke="midnightblue" points="855.597,-51.0293 864.909,-56.083 860.781,-46.3254 855.597,-51.0293"/>
</g>
<!-- Node11 -->
<g id="node11" class="node"><title>Node11</title>
<g id="a_node11"><a xlink:href="../../d0/d1e/processor_8c.html" target="_top" xlink:title="processor.c">
<polygon fill="none" stroke="black" points="889,-0.5 889,-19.5 957,-19.5 957,-0.5 889,-0.5"/>
<text text-anchor="middle" x="923" y="-7.5" font-family="Helvetica,sans-Serif" font-size="10.00">processor.c</text>
</a>
</g>
</g>
<!-- Node1&#45;&gt;Node11 -->
<g id="edge10" class="edge"><title>Node1&#45;&gt;Node11</title>
<path fill="none" stroke="midnightblue" d="M888.076,-48.7175C896.889,-39.1997 907.666,-27.5608 914.897,-19.7511"/>
<polygon fill="midnightblue" stroke="midnightblue" points="885.482,-46.3674 881.256,-56.083 890.619,-51.1233 885.482,-46.3674"/>
</g>
<!-- Node12 -->
<g id="node12" class="node"><title>Node12</title>
<g id="a_node12"><a xlink:href="../../d4/ded/test__threading_8c.html" target="_top" xlink:title="test_threading.c">
<polygon fill="none" stroke="black" points="975,-0.5 975,-19.5 1061,-19.5 1061,-0.5 975,-0.5"/>
<text text-anchor="middle" x="1018" y="-7.5" font-family="Helvetica,sans-Serif" font-size="10.00">test_threading.c</text>
</a>
</g>
</g>
<!-- Node1&#45;&gt;Node12 -->
<g id="edge11" class="edge"><title>Node1&#45;&gt;Node12</title>
<path fill="none" stroke="midnightblue" d="M905.475,-52.9058C932.736,-42.7536 970.992,-28.5063 995.132,-19.5164"/>
<polygon fill="midnightblue" stroke="midnightblue" points="904.125,-49.6736 895.976,-56.4435 906.568,-56.2334 904.125,-49.6736"/>
</g>
<!-- Node13 -->
<g id="node13" class="node"><title>Node13</title>
<g id="a_node13"><a xlink:href="../../d3/de7/thread_8c.html" target="_top" xlink:title="thread.c">
<polygon fill="none" stroke="black" points="1079,-0.5 1079,-19.5 1131,-19.5 1131,-0.5 1079,-0.5"/>
<text text-anchor="middle" x="1105" y="-7.5" font-family="Helvetica,sans-Serif" font-size="10.00">thread.c</text>
</a>
</g>
</g>
<!-- Node1&#45;&gt;Node13 -->
<g id="edge12" class="edge"><title>Node1&#45;&gt;Node13</title>
<path fill="none" stroke="midnightblue" d="M921.947,-54.2064C961.86,-45.3118 1019.66,-32.2185 1070,-20 1072.8,-19.3192 1075.73,-18.5925 1078.65,-17.8583"/>
<polygon fill="midnightblue" stroke="midnightblue" points="920.949,-50.8428 911.947,-56.4304 922.468,-57.6758 920.949,-50.8428"/>
</g>
<!-- Node14 -->
<g id="node14" class="node"><title>Node14</title>
<g id="a_node14"><a xlink:href="../../d6/dd4/thread__value_8c.html" target="_top" xlink:title="thread_value.c">
<polygon fill="none" stroke="black" points="1149,-0.5 1149,-19.5 1229,-19.5 1229,-0.5 1149,-0.5"/>
<text text-anchor="middle" x="1189" y="-7.5" font-family="Helvetica,sans-Serif" font-size="10.00">thread_value.c</text>
</a>
</g>
</g>
<!-- Node1&#45;&gt;Node14 -->
<g id="edge13" class="edge"><title>Node1&#45;&gt;Node14</title>
<path fill="none" stroke="midnightblue" d="M923.237,-56.7589C976.933,-47.8976 1064.54,-33.2882 1140,-20 1142.9,-19.49 1145.89,-18.9567 1148.9,-18.4153"/>
<polygon fill="midnightblue" stroke="midnightblue" points="922.587,-53.3187 913.29,-58.3987 923.726,-60.2255 922.587,-53.3187"/>
</g>
<!-- Node15 -->
<g id="node15" class="node"><title>Node15</title>
<g id="a_node15"><a xlink:href="../../d7/d24/windows_2rwlock_8c.html" target="_top" xlink:title="rwlock.c">
<polygon fill="none" stroke="black" points="1247.5,-0.5 1247.5,-19.5 1300.5,-19.5 1300.5,-0.5 1247.5,-0.5"/>
<text text-anchor="middle" x="1274" y="-7.5" font-family="Helvetica,sans-Serif" font-size="10.00">rwlock.c</text>
</a>
</g>
</g>
<!-- Node1&#45;&gt;Node15 -->
<g id="edge14" class="edge"><title>Node1&#45;&gt;Node15</title>
<path fill="none" stroke="midnightblue" d="M923.175,-60.7726C993.811,-54.3777 1126.42,-40.7457 1238,-20 1241.04,-19.4348 1244.21,-18.7651 1247.34,-18.05"/>
<polygon fill="midnightblue" stroke="midnightblue" points="922.862,-57.2865 913.213,-61.6635 923.485,-64.2587 922.862,-57.2865"/>
</g>
<!-- Node16 -->
<g id="node16" class="node"><title>Node16</title>
<g id="a_node16"><a xlink:href="../../dc/d0b/windows_2thread__value_8c.html" target="_top" xlink:title="thread_value.c">
<polygon fill="none" stroke="black" points="1319,-0.5 1319,-19.5 1399,-19.5 1399,-0.5 1319,-0.5"/>
<text text-anchor="middle" x="1359" y="-7.5" font-family="Helvetica,sans-Serif" font-size="10.00">thread_value.c</text>
</a>
</g>
</g>
<!-- Node1&#45;&gt;Node16 -->
<g id="edge15" class="edge"><title>Node1&#45;&gt;Node16</title>
<path fill="none" stroke="midnightblue" d="M923.545,-61.0265C1004.94,-54.3487 1170.01,-39.6535 1309,-20 1312.23,-19.5431 1315.57,-19.0303 1318.93,-18.4872"/>
<polygon fill="midnightblue" stroke="midnightblue" points="922.78,-57.5771 913.097,-61.8772 923.348,-64.554 922.78,-57.5771"/>
</g>
<!-- Node17 -->
<g id="node17" class="node"><title>Node17</title>
<g id="a_node17"><a xlink:href="../../d4/d2b/leak__detective_8c.html" target="_top" xlink:title="leak_detective.c">
<polygon fill="none" stroke="black" points="1417,-0.5 1417,-19.5 1505,-19.5 1505,-0.5 1417,-0.5"/>
<text text-anchor="middle" x="1461" y="-7.5" font-family="Helvetica,sans-Serif" font-size="10.00">leak_detective.c</text>
</a>
</g>
</g>
<!-- Node1&#45;&gt;Node17 -->
<g id="edge16" class="edge"><title>Node1&#45;&gt;Node17</title>
<path fill="none" stroke="midnightblue" d="M923.229,-62.192C1018.18,-56.5702 1230.41,-42.5064 1408,-20 1410.87,-19.6362 1413.82,-19.2286 1416.8,-18.7931"/>
<polygon fill="midnightblue" stroke="midnightblue" points="922.832,-58.7093 913.054,-62.7887 923.241,-65.6973 922.832,-58.7093"/>
</g>
<!-- Node18 -->
<g id="node18" class="node"><title>Node18</title>
<g id="a_node18"><a xlink:href="../../dc/d20/printf__hook__vstr_8c.html" target="_top" xlink:title="printf_hook_vstr.c">
<polygon fill="none" stroke="black" points="1523.5,-0.5 1523.5,-19.5 1618.5,-19.5 1618.5,-0.5 1523.5,-0.5"/>
<text text-anchor="middle" x="1571" y="-7.5" font-family="Helvetica,sans-Serif" font-size="10.00">printf_hook_vstr.c</text>
</a>
</g>
</g>
<!-- Node1&#45;&gt;Node18 -->
<g id="edge17" class="edge"><title>Node1&#45;&gt;Node18</title>
<path fill="none" stroke="midnightblue" d="M923.465,-62.8909C1031.72,-58.0504 1294.21,-44.6234 1513,-20 1516.34,-19.6239 1519.79,-19.1953 1523.25,-18.7338"/>
<polygon fill="midnightblue" stroke="midnightblue" points="923.006,-59.4076 913.17,-63.346 923.315,-66.4008 923.006,-59.4076"/>
</g>
<!-- Node19 -->
<g id="node19" class="node"><title>Node19</title>
<g id="a_node19"><a xlink:href="../../d5/d04/strerror_8c.html" target="_top" xlink:title="strerror.c">
<polygon fill="none" stroke="black" points="1637,-0.5 1637,-19.5 1693,-19.5 1693,-0.5 1637,-0.5"/>
<text text-anchor="middle" x="1665" y="-7.5" font-family="Helvetica,sans-Serif" font-size="10.00">strerror.c</text>
</a>
</g>
</g>
<!-- Node1&#45;&gt;Node19 -->
<g id="edge18" class="edge"><title>Node1&#45;&gt;Node19</title>
<path fill="none" stroke="midnightblue" d="M923.433,-64.991C1045.11,-64.3185 1364.16,-58.6729 1627,-20 1630.22,-19.5263 1633.57,-18.9138 1636.88,-18.2313"/>
<polygon fill="midnightblue" stroke="midnightblue" points="923.287,-61.4916 913.304,-65.0379 923.32,-68.4915 923.287,-61.4916"/>
</g>
</g>
</svg>
