<?xml version="1.0" encoding="UTF-8" standalone="no"?>
<!DOCTYPE svg PUBLIC "-//W3C//DTD SVG 1.1//EN"
 "http://www.w3.org/Graphics/SVG/1.1/DTD/svg11.dtd">
<!-- Generated by graphviz version 2.36.0 (20140111.2315)
 -->
<!-- Title: xfrm_usersa_info Pages: 1 -->
<svg width="150pt" height="140pt"
 viewBox="0.00 0.00 150.00 140.00" xmlns="http://www.w3.org/2000/svg" xmlns:xlink="http://www.w3.org/1999/xlink">
<g id="graph0" class="graph" transform="scale(1 1) rotate(0) translate(4 136)">
<title>xfrm_usersa_info</title>
<!-- Node1 -->
<g id="node1" class="node"><title>Node1</title>
<polygon fill="#bfbfbf" stroke="black" points="14,-0.5 14,-19.5 106,-19.5 106,-0.5 14,-0.5"/>
<text text-anchor="middle" x="60" y="-7.5" font-family="Helvetica,sans-Serif" font-size="10.00">xfrm_usersa_info</text>
</g>
<!-- Node2 -->
<g id="node2" class="node"><title>Node2</title>
<polygon fill="none" stroke="#bfbfbf" points="-0.5,-112.5 -0.5,-131.5 40.5,-131.5 40.5,-112.5 -0.5,-112.5"/>
<text text-anchor="middle" x="20" y="-119.5" font-family="Helvetica,sans-Serif" font-size="10.00">struct</text>
</g>
<!-- Node2&#45;&gt;Node1 -->
<g id="edge1" class="edge"><title>Node2&#45;&gt;Node1</title>
<path fill="none" stroke="#9a32cd" stroke-dasharray="5,2" d="M26.6639,-102.674C35.4092,-78.6248 50.4043,-37.3881 56.8758,-19.5914"/>
<polygon fill="#9a32cd" stroke="#9a32cd" points="23.2669,-101.774 23.1387,-112.368 29.8455,-104.167 23.2669,-101.774"/>
<text text-anchor="middle" x="61" y="-85.5" font-family="Helvetica,sans-Serif" font-size="10.00"> lft</text>
<text text-anchor="middle" x="61" y="-74.5" font-family="Helvetica,sans-Serif" font-size="10.00">sel</text>
<text text-anchor="middle" x="61" y="-63.5" font-family="Helvetica,sans-Serif" font-size="10.00">curlft</text>
<text text-anchor="middle" x="61" y="-52.5" font-family="Helvetica,sans-Serif" font-size="10.00">stats</text>
<text text-anchor="middle" x="61" y="-41.5" font-family="Helvetica,sans-Serif" font-size="10.00">id</text>
</g>
<!-- Node3 -->
<g id="node3" class="node"><title>Node3</title>
<g id="a_node3"><a xlink:href="../../d8/d11/unionxfrm__address__t.html" target="_top" xlink:title="xfrm_address_t">
<polygon fill="none" stroke="black" points="59,-112.5 59,-131.5 143,-131.5 143,-112.5 59,-112.5"/>
<text text-anchor="middle" x="101" y="-119.5" font-family="Helvetica,sans-Serif" font-size="10.00">xfrm_address_t</text>
</a>
</g>
</g>
<!-- Node3&#45;&gt;Node1 -->
<g id="edge2" class="edge"><title>Node3&#45;&gt;Node1</title>
<path fill="none" stroke="#9a32cd" stroke-dasharray="5,2" d="M96.7119,-102.15C92.4925,-85.0187 85.3311,-59.2502 76,-38 73.1959,-31.6141 69.1959,-24.8641 65.8969,-19.7106"/>
<polygon fill="#9a32cd" stroke="#9a32cd" points="93.3407,-103.103 99.0531,-112.026 100.152,-101.488 93.3407,-103.103"/>
<text text-anchor="middle" x="109" y="-63.5" font-family="Helvetica,sans-Serif" font-size="10.00"> saddr</text>
</g>
</g>
</svg>
