<?xml version="1.0" encoding="UTF-8" standalone="no"?>
<!DOCTYPE svg PUBLIC "-//W3C//DTD SVG 1.1//EN"
 "http://www.w3.org/Graphics/SVG/1.1/DTD/svg11.dtd">
<!-- Generated by graphviz version 2.36.0 (20140111.2315)
 -->
<!-- Title: tcg_pts_attr_proto_caps_create_from_data Pages: 1 -->
<svg width="672pt" height="142pt"
 viewBox="0.00 0.00 672.00 142.00" xmlns="http://www.w3.org/2000/svg" xmlns:xlink="http://www.w3.org/1999/xlink">
<g id="graph0" class="graph" transform="scale(1 1) rotate(0) translate(4 138)">
<title>tcg_pts_attr_proto_caps_create_from_data</title>
<!-- Node1 -->
<g id="node1" class="node"><title>Node1</title>
<polygon fill="#bfbfbf" stroke="black" points="0,-52 0,-82 124,-82 124,-52 0,-52"/>
<text text-anchor="start" x="8" y="-70" font-family="Helvetica,sans-Serif" font-size="10.00">tcg_pts_attr_proto</text>
<text text-anchor="middle" x="62" y="-59" font-family="Helvetica,sans-Serif" font-size="10.00">_caps_create_from_data</text>
</g>
<!-- Node2 -->
<g id="node2" class="node"><title>Node2</title>
<g id="a_node2"><a xlink:href="../../dc/db5/group__tcg__attr.html#gab9831529026993369a7ef4538d09cd13" target="_top" xlink:title="tcg_attr_create_from_data">
<polygon fill="none" stroke="black" points="160.5,-57.5 160.5,-76.5 291.5,-76.5 291.5,-57.5 160.5,-57.5"/>
<text text-anchor="middle" x="226" y="-64.5" font-family="Helvetica,sans-Serif" font-size="10.00">tcg_attr_create_from_data</text>
</a>
</g>
</g>
<!-- Node1&#45;&gt;Node2 -->
<g id="edge1" class="edge"><title>Node1&#45;&gt;Node2</title>
<path fill="none" stroke="midnightblue" d="M134.342,-67C143.023,-67 151.853,-67 160.428,-67"/>
<polygon fill="midnightblue" stroke="midnightblue" points="134.245,-63.5001 124.245,-67 134.245,-70.5001 134.245,-63.5001"/>
</g>
<!-- Node3 -->
<g id="node3" class="node"><title>Node3</title>
<g id="a_node3"><a xlink:href="../../d0/d9e/group__libimcv.html#ga1a2bc69328f409c080b8814e28972ecf" target="_top" xlink:title="libimcv_init">
<polygon fill="none" stroke="black" points="328.5,-57.5 328.5,-76.5 393.5,-76.5 393.5,-57.5 328.5,-57.5"/>
<text text-anchor="middle" x="361" y="-64.5" font-family="Helvetica,sans-Serif" font-size="10.00">libimcv_init</text>
</a>
</g>
</g>
<!-- Node2&#45;&gt;Node3 -->
<g id="edge2" class="edge"><title>Node2&#45;&gt;Node3</title>
<path fill="none" stroke="midnightblue" d="M301.768,-67C311.136,-67 320.281,-67 328.445,-67"/>
<polygon fill="midnightblue" stroke="midnightblue" points="301.552,-63.5001 291.552,-67 301.552,-70.5001 301.552,-63.5001"/>
</g>
<!-- Node4 -->
<g id="node4" class="node"><title>Node4</title>
<g id="a_node4"><a xlink:href="../../da/df6/group__imc__agent__t.html#ga4e3d8335be0a5db3f9057bbe23ce97e1" target="_top" xlink:title="imc_agent_create">
<polygon fill="none" stroke="black" points="430,-114.5 430,-133.5 524,-133.5 524,-114.5 430,-114.5"/>
<text text-anchor="middle" x="477" y="-121.5" font-family="Helvetica,sans-Serif" font-size="10.00">imc_agent_create</text>
</a>
</g>
</g>
<!-- Node3&#45;&gt;Node4 -->
<g id="edge3" class="edge"><title>Node3&#45;&gt;Node4</title>
<path fill="none" stroke="midnightblue" d="M386.591,-81.6653C399.351,-89.0372 415.306,-97.8903 430,-105 436.845,-108.312 444.419,-111.592 451.413,-114.471"/>
<polygon fill="midnightblue" stroke="midnightblue" points="388.329,-78.6268 377.928,-76.6054 384.798,-84.6713 388.329,-78.6268"/>
</g>
<!-- Node6 -->
<g id="node6" class="node"><title>Node6</title>
<g id="a_node6"><a xlink:href="../../dd/dd4/group__imv__agent__t.html#ga207ef25d8bf8c613ac61d089d0874d9b" target="_top" xlink:title="imv_agent_create">
<polygon fill="none" stroke="black" points="430,-76.5 430,-95.5 524,-95.5 524,-76.5 430,-76.5"/>
<text text-anchor="middle" x="477" y="-83.5" font-family="Helvetica,sans-Serif" font-size="10.00">imv_agent_create</text>
</a>
</g>
</g>
<!-- Node3&#45;&gt;Node6 -->
<g id="edge5" class="edge"><title>Node3&#45;&gt;Node6</title>
<path fill="none" stroke="midnightblue" d="M403.82,-73.9701C412.315,-75.3858 421.295,-76.8825 429.927,-78.3212"/>
<polygon fill="midnightblue" stroke="midnightblue" points="404.195,-70.4843 393.755,-72.2926 403.044,-77.389 404.195,-70.4843"/>
</g>
<!-- Node7 -->
<g id="node7" class="node"><title>Node7</title>
<g id="a_node7"><a xlink:href="../../da/d03/attest_8c.html#a0ddf1224851353fc92bfbff6f499fa97" target="_top" xlink:title="main">
<polygon fill="none" stroke="black" points="458,-38.5 458,-57.5 496,-57.5 496,-38.5 458,-38.5"/>
<text text-anchor="middle" x="477" y="-45.5" font-family="Helvetica,sans-Serif" font-size="10.00">main</text>
</a>
</g>
</g>
<!-- Node3&#45;&gt;Node7 -->
<g id="edge6" class="edge"><title>Node3&#45;&gt;Node7</title>
<path fill="none" stroke="midnightblue" d="M403.804,-60.0327C422.424,-56.9294 443.377,-53.4371 457.895,-51.0175"/>
<polygon fill="midnightblue" stroke="midnightblue" points="403.044,-56.611 393.755,-61.7074 404.195,-63.5157 403.044,-56.611"/>
</g>
<!-- Node8 -->
<g id="node8" class="node"><title>Node8</title>
<g id="a_node8"><a xlink:href="../../df/da3/test__imcv__seg_8c.html#ac72d7ad0385a61efdaf1d769d5b7da2b" target="_top" xlink:title="START_TEST">
<polygon fill="none" stroke="black" points="437,-0.5 437,-19.5 517,-19.5 517,-0.5 437,-0.5"/>
<text text-anchor="middle" x="477" y="-7.5" font-family="Helvetica,sans-Serif" font-size="10.00">START_TEST</text>
</a>
</g>
</g>
<!-- Node3&#45;&gt;Node8 -->
<g id="edge7" class="edge"><title>Node3&#45;&gt;Node8</title>
<path fill="none" stroke="midnightblue" d="M386.591,-52.3347C399.351,-44.9628 415.306,-36.1097 430,-29 436.845,-25.6882 444.419,-22.4082 451.413,-19.5294"/>
<polygon fill="midnightblue" stroke="midnightblue" points="384.798,-49.3287 377.928,-57.3946 388.329,-55.3732 384.798,-49.3287"/>
</g>
<!-- Node5 -->
<g id="node5" class="node"><title>Node5</title>
<g id="a_node5"><a xlink:href="../../de/d10/group__tncifimc.html#ga6a4653276d3fc1d46b7703d41a2dc5b5" target="_top" xlink:title="TNC_IMC_Initialize">
<polygon fill="none" stroke="black" points="560.5,-114.5 560.5,-133.5 663.5,-133.5 663.5,-114.5 560.5,-114.5"/>
<text text-anchor="middle" x="612" y="-121.5" font-family="Helvetica,sans-Serif" font-size="10.00">TNC_IMC_Initialize</text>
</a>
</g>
</g>
<!-- Node4&#45;&gt;Node5 -->
<g id="edge4" class="edge"><title>Node4&#45;&gt;Node5</title>
<path fill="none" stroke="midnightblue" d="M534.203,-124C542.898,-124 551.833,-124 560.395,-124"/>
<polygon fill="midnightblue" stroke="midnightblue" points="534.144,-120.5 524.144,-124 534.144,-127.5 534.144,-120.5"/>
</g>
</g>
</svg>
