<?xml version="1.0" encoding="UTF-8" standalone="no"?>
<!DOCTYPE svg PUBLIC "-//W3C//DTD SVG 1.1//EN"
 "http://www.w3.org/Graphics/SVG/1.1/DTD/svg11.dtd">
<!-- Generated by graphviz version 2.36.0 (20140111.2315)
 -->
<!-- Title: METHOD Pages: 1 -->
<svg width="282pt" height="123pt"
 viewBox="0.00 0.00 282.00 123.00" xmlns="http://www.w3.org/2000/svg" xmlns:xlink="http://www.w3.org/1999/xlink">
<g id="graph0" class="graph" transform="scale(1 1) rotate(0) translate(4 119)">
<title>METHOD</title>
<!-- Node1 -->
<g id="node1" class="node"><title>Node1</title>
<polygon fill="#bfbfbf" stroke="black" points="0,-38.5 0,-57.5 60,-57.5 60,-38.5 0,-38.5"/>
<text text-anchor="middle" x="30" y="-45.5" font-family="Helvetica,sans-Serif" font-size="10.00">METHOD</text>
</g>
<!-- Node2 -->
<g id="node2" class="node"><title>Node2</title>
<g id="a_node2"><a xlink:href="../../d2/d43/cert__cache_8c.html#adaf6833e5a54ee5de2a99117efda19e9" target="_top" xlink:title="cache">
<polygon fill="none" stroke="black" points="111.5,-76.5 111.5,-95.5 154.5,-95.5 154.5,-76.5 111.5,-76.5"/>
<text text-anchor="middle" x="133" y="-83.5" font-family="Helvetica,sans-Serif" font-size="10.00">cache</text>
</a>
</g>
</g>
<!-- Node1&#45;&gt;Node2 -->
<g id="edge1" class="edge"><title>Node1&#45;&gt;Node2</title>
<path fill="none" stroke="midnightblue" d="M56.4866,-57.589C70.2561,-62.7696 87.3449,-69.1991 101.782,-74.6307"/>
<polygon fill="midnightblue" stroke="midnightblue" points="100.687,-77.9584 111.279,-78.2041 103.152,-71.4068 100.687,-77.9584"/>
</g>
<!-- Node5 -->
<g id="node5" class="node"><title>Node5</title>
<g id="a_node5"><a xlink:href="../../d1/d05/credential__manager_8c.html#af94c07deb5af4ac108d18870de155a05" target="_top" xlink:title="cache_queue">
<polygon fill="none" stroke="black" points="96,-38.5 96,-57.5 170,-57.5 170,-38.5 96,-38.5"/>
<text text-anchor="middle" x="133" y="-45.5" font-family="Helvetica,sans-Serif" font-size="10.00">cache_queue</text>
</a>
</g>
</g>
<!-- Node1&#45;&gt;Node5 -->
<g id="edge4" class="edge"><title>Node1&#45;&gt;Node5</title>
<path fill="none" stroke="midnightblue" d="M60.2134,-48C68.1695,-48 76.9885,-48 85.644,-48"/>
<polygon fill="midnightblue" stroke="midnightblue" points="85.6683,-51.5001 95.6682,-48 85.6682,-44.5001 85.6683,-51.5001"/>
</g>
<!-- Node6 -->
<g id="node6" class="node"><title>Node6</title>
<g id="a_node6"><a xlink:href="../../da/dfc/settings__parser_8c.html#af07d89f5ceaea0c7c8252cc41fd75f37" target="_top" xlink:title="free">
<polygon fill="none" stroke="black" points="116.5,-0.5 116.5,-19.5 149.5,-19.5 149.5,-0.5 116.5,-0.5"/>
<text text-anchor="middle" x="133" y="-7.5" font-family="Helvetica,sans-Serif" font-size="10.00">free</text>
</a>
</g>
</g>
<!-- Node1&#45;&gt;Node6 -->
<g id="edge5" class="edge"><title>Node1&#45;&gt;Node6</title>
<path fill="none" stroke="midnightblue" d="M56.4866,-38.411C71.9225,-32.6034 91.5297,-25.2264 106.896,-19.4451"/>
<polygon fill="midnightblue" stroke="midnightblue" points="108.168,-22.7061 116.295,-15.9088 105.703,-16.1545 108.168,-22.7061"/>
</g>
<!-- Node3 -->
<g id="node3" class="node"><title>Node3</title>
<g id="a_node3"><a xlink:href="../../d8/d11/cowfs_8c.html#ab23d75daf8d24eb797a720b189f0c319" target="_top" xlink:title="rel">
<polygon fill="none" stroke="black" points="225.5,-95.5 225.5,-114.5 254.5,-114.5 254.5,-95.5 225.5,-95.5"/>
<text text-anchor="middle" x="240" y="-102.5" font-family="Helvetica,sans-Serif" font-size="10.00">rel</text>
</a>
</g>
</g>
<!-- Node2&#45;&gt;Node3 -->
<g id="edge2" class="edge"><title>Node2&#45;&gt;Node3</title>
<path fill="none" stroke="midnightblue" d="M154.745,-89.7538C172.231,-92.918 197.246,-97.4444 215.475,-100.743"/>
<polygon fill="midnightblue" stroke="midnightblue" points="214.852,-104.187 225.315,-102.524 216.098,-97.2989 214.852,-104.187"/>
</g>
<!-- Node4 -->
<g id="node4" class="node"><title>Node4</title>
<g id="a_node4"><a xlink:href="../../da/d9b/group__windows.html#gaa1124f0d208ff28b7d9cf563ff183e8d" target="_top" xlink:title="sched_yield">
<polygon fill="none" stroke="black" points="206,-57.5 206,-76.5 274,-76.5 274,-57.5 206,-57.5"/>
<text text-anchor="middle" x="240" y="-64.5" font-family="Helvetica,sans-Serif" font-size="10.00">sched_yield</text>
</a>
</g>
</g>
<!-- Node2&#45;&gt;Node4 -->
<g id="edge3" class="edge"><title>Node2&#45;&gt;Node4</title>
<path fill="none" stroke="midnightblue" d="M154.745,-82.2462C166.479,-80.1228 181.604,-77.3859 195.794,-74.8182"/>
<polygon fill="midnightblue" stroke="midnightblue" points="196.682,-78.2145 205.899,-72.9897 195.436,-71.3263 196.682,-78.2145"/>
</g>
</g>
</svg>
