<?xml version="1.0" encoding="UTF-8" standalone="no"?>
<!DOCTYPE svg PUBLIC "-//W3C//DTD SVG 1.1//EN"
 "http://www.w3.org/Graphics/SVG/1.1/DTD/svg11.dtd">
<!-- Generated by graphviz version 2.36.0 (20140111.2315)
 -->
<!-- Title: libipsec_init Pages: 1 -->
<svg width="1482pt" height="781pt"
 viewBox="0.00 0.00 1482.00 781.00" xmlns="http://www.w3.org/2000/svg" xmlns:xlink="http://www.w3.org/1999/xlink">
<g id="graph0" class="graph" transform="scale(1 1) rotate(0) translate(4 777)">
<title>libipsec_init</title>
<!-- Node1 -->
<g id="node1" class="node"><title>Node1</title>
<polygon fill="#bfbfbf" stroke="black" points="0,-475.5 0,-494.5 68,-494.5 68,-475.5 0,-475.5"/>
<text text-anchor="middle" x="34" y="-482.5" font-family="Helvetica,sans-Serif" font-size="10.00">libipsec_init</text>
</g>
<!-- Node1&#45;&gt;Node1 -->
<g id="edge69" class="edge"><title>Node1&#45;&gt;Node1</title>
<path fill="none" stroke="midnightblue" d="M14.888,-494.757C5.59027,-503.565 11.9609,-513 34,-513 48.1188,-513 55.8072,-509.128 57.0654,-504.029"/>
<polygon fill="midnightblue" stroke="midnightblue" points="60.2537,-502.583 53.112,-494.757 53.8146,-505.329 60.2537,-502.583"/>
</g>
<!-- Node2 -->
<g id="node2" class="node"><title>Node2</title>
<g id="a_node2"><a xlink:href="../../da/d2c/group__ipsec__event__relay.html#ga92c28b48d184374a7327e3c3c62ad402" target="_top" xlink:title="ipsec_event_relay_create">
<polygon fill="none" stroke="black" points="250,-494.5 250,-513.5 378,-513.5 378,-494.5 250,-494.5"/>
<text text-anchor="middle" x="314" y="-501.5" font-family="Helvetica,sans-Serif" font-size="10.00">ipsec_event_relay_create</text>
</a>
</g>
</g>
<!-- Node1&#45;&gt;Node2 -->
<g id="edge1" class="edge"><title>Node1&#45;&gt;Node2</title>
<path fill="none" stroke="midnightblue" d="M68.2572,-487.273C110.385,-490.152 184.182,-495.196 239.756,-498.994"/>
<polygon fill="midnightblue" stroke="midnightblue" points="239.694,-502.498 249.909,-499.688 240.171,-495.514 239.694,-502.498"/>
</g>
<!-- Node29 -->
<g id="node29" class="node"><title>Node29</title>
<g id="a_node29"><a xlink:href="../../df/d37/group__ipsec__policy__mgr.html#ga5057ca51c2d56b3827328f5b23b1ebcb" target="_top" xlink:title="ipsec_policy_mgr_create">
<polygon fill="none" stroke="black" points="251.5,-570.5 251.5,-589.5 376.5,-589.5 376.5,-570.5 251.5,-570.5"/>
<text text-anchor="middle" x="314" y="-577.5" font-family="Helvetica,sans-Serif" font-size="10.00">ipsec_policy_mgr_create</text>
</a>
</g>
</g>
<!-- Node1&#45;&gt;Node29 -->
<g id="edge35" class="edge"><title>Node1&#45;&gt;Node29</title>
<path fill="none" stroke="midnightblue" d="M62.9285,-494.544C113.196,-511.722 218.923,-547.851 275.461,-567.172"/>
<polygon fill="midnightblue" stroke="midnightblue" points="274.495,-570.541 285.09,-570.462 276.759,-563.917 274.495,-570.541"/>
</g>
<!-- Node30 -->
<g id="node30" class="node"><title>Node30</title>
<g id="a_node30"><a xlink:href="../../d3/d53/group__ipsec__processor.html#gaca9a0ac254bdfae0d02a62e96fc818ce" target="_top" xlink:title="ipsec_processor_create">
<polygon fill="none" stroke="black" points="254,-456.5 254,-475.5 374,-475.5 374,-456.5 254,-456.5"/>
<text text-anchor="middle" x="314" y="-463.5" font-family="Helvetica,sans-Serif" font-size="10.00">ipsec_processor_create</text>
</a>
</g>
</g>
<!-- Node1&#45;&gt;Node30 -->
<g id="edge38" class="edge"><title>Node1&#45;&gt;Node30</title>
<path fill="none" stroke="midnightblue" d="M68.2572,-482.727C111.402,-479.778 187.765,-474.559 243.75,-470.733"/>
<polygon fill="midnightblue" stroke="midnightblue" points="244.216,-474.209 253.954,-470.035 243.739,-467.226 244.216,-474.209"/>
</g>
<!-- Node38 -->
<g id="node38" class="node"><title>Node38</title>
<g id="a_node38"><a xlink:href="../../de/d04/group__ipsec__sa__mgr.html#gad88a8c0c1bae42dd50709da5030de1f4" target="_top" xlink:title="ipsec_sa_mgr_create">
<polygon fill="none" stroke="black" points="104,-285.5 104,-304.5 214,-304.5 214,-285.5 104,-285.5"/>
<text text-anchor="middle" x="159" y="-292.5" font-family="Helvetica,sans-Serif" font-size="10.00">ipsec_sa_mgr_create</text>
</a>
</g>
</g>
<!-- Node1&#45;&gt;Node38 -->
<g id="edge50" class="edge"><title>Node1&#45;&gt;Node38</title>
<path fill="none" stroke="midnightblue" d="M41.2687,-475.317C60.757,-445.213 120.507,-352.915 146.13,-313.335"/>
<polygon fill="midnightblue" stroke="midnightblue" points="149.1,-315.188 151.596,-304.892 143.224,-311.384 149.1,-315.188"/>
</g>
<!-- Node3 -->
<g id="node3" class="node"><title>Node3</title>
<g id="a_node3"><a xlink:href="../../d3/dc0/group__linked__list.html#ga15bb4333e53dbef32d196e4388f43fdf" target="_top" xlink:title="linked_list_create">
<polygon fill="none" stroke="black" points="582,-468.5 582,-487.5 674,-487.5 674,-468.5 582,-468.5"/>
<text text-anchor="middle" x="628" y="-475.5" font-family="Helvetica,sans-Serif" font-size="10.00">linked_list_create</text>
</a>
</g>
</g>
<!-- Node2&#45;&gt;Node3 -->
<g id="edge2" class="edge"><title>Node2&#45;&gt;Node3</title>
<path fill="none" stroke="midnightblue" d="M378.138,-498.739C434.846,-494.013 517.294,-487.142 571.519,-482.623"/>
<polygon fill="midnightblue" stroke="midnightblue" points="571.963,-486.099 581.638,-481.78 571.382,-479.123 571.963,-486.099"/>
</g>
<!-- Node11 -->
<g id="node11" class="node"><title>Node11</title>
<g id="a_node11"><a xlink:href="../../db/ded/group__rwlock.html#ga3646a4244d6c3368a3fbb03354974838" target="_top" xlink:title="rwlock_create">
<polygon fill="none" stroke="black" points="433.5,-570.5 433.5,-589.5 510.5,-589.5 510.5,-570.5 433.5,-570.5"/>
<text text-anchor="middle" x="472" y="-577.5" font-family="Helvetica,sans-Serif" font-size="10.00">rwlock_create</text>
</a>
</g>
</g>
<!-- Node2&#45;&gt;Node11 -->
<g id="edge12" class="edge"><title>Node2&#45;&gt;Node11</title>
<path fill="none" stroke="midnightblue" d="M329.601,-513.657C348.493,-525.855 382.7,-546.944 414,-561 418.755,-563.135 423.825,-565.161 428.907,-567.038"/>
<polygon fill="midnightblue" stroke="midnightblue" points="428.017,-570.436 438.612,-570.456 430.342,-563.833 428.017,-570.436"/>
</g>
<!-- Node12 -->
<g id="node12" class="node"><title>Node12</title>
<g id="a_node12"><a xlink:href="../../d0/d65/group__blocking__queue.html#ga344c29c15813a79bce9d3ad71ed8882a" target="_top" xlink:title="blocking_queue_create">
<polygon fill="none" stroke="black" points="414,-456.5 414,-475.5 530,-475.5 530,-456.5 414,-456.5"/>
<text text-anchor="middle" x="472" y="-463.5" font-family="Helvetica,sans-Serif" font-size="10.00">blocking_queue_create</text>
</a>
</g>
</g>
<!-- Node2&#45;&gt;Node12 -->
<g id="edge13" class="edge"><title>Node2&#45;&gt;Node12</title>
<path fill="none" stroke="midnightblue" d="M354.365,-494.411C374.951,-489.396 400.34,-483.212 422.169,-477.895"/>
<polygon fill="midnightblue" stroke="midnightblue" points="423.03,-481.287 431.918,-475.52 421.373,-474.486 423.03,-481.287"/>
</g>
<!-- Node15 -->
<g id="node15" class="node"><title>Node15</title>
<g id="a_node15"><a xlink:href="../../d0/d8f/group__callback__job.html#ga6934f856d27d82413610263e27a5cfa1" target="_top" xlink:title="callback_job_create">
<polygon fill="none" stroke="black" points="420.5,-532.5 420.5,-551.5 523.5,-551.5 523.5,-532.5 420.5,-532.5"/>
<text text-anchor="middle" x="472" y="-539.5" font-family="Helvetica,sans-Serif" font-size="10.00">callback_job_create</text>
</a>
</g>
</g>
<!-- Node2&#45;&gt;Node15 -->
<g id="edge18" class="edge"><title>Node2&#45;&gt;Node15</title>
<path fill="none" stroke="midnightblue" d="M354.365,-513.589C374.951,-518.604 400.34,-524.788 422.169,-530.105"/>
<polygon fill="midnightblue" stroke="midnightblue" points="421.373,-533.514 431.918,-532.48 423.03,-526.713 421.373,-533.514"/>
</g>
<!-- Node19 -->
<g id="node19" class="node"><title>Node19</title>
<g id="a_node19"><a xlink:href="../../d9/dad/ipsec__event__relay_8c.html#a9703e0d39f9456fa90b0d514a5411e07" target="_top" xlink:title="handle_events">
<polygon fill="none" stroke="black" points="432,-646.5 432,-665.5 512,-665.5 512,-646.5 432,-646.5"/>
<text text-anchor="middle" x="472" y="-653.5" font-family="Helvetica,sans-Serif" font-size="10.00">handle_events</text>
</a>
</g>
</g>
<!-- Node2&#45;&gt;Node19 -->
<g id="edge22" class="edge"><title>Node2&#45;&gt;Node19</title>
<path fill="none" stroke="midnightblue" d="M326.392,-513.836C339.198,-525 360.489,-543.886 378,-561 394.638,-577.261 397.773,-582.329 414,-599 427.324,-612.689 442.645,-627.985 454.045,-639.283"/>
<polygon fill="midnightblue" stroke="midnightblue" points="451.666,-641.854 461.238,-646.397 456.589,-636.877 451.666,-641.854"/>
</g>
<!-- Node28 -->
<g id="node28" class="node"><title>Node28</title>
<g id="a_node28"><a xlink:href="../../d6/d87/group__utils__i.html#ga9336a4d5728eb7ed977aacaeb8fd2c41" target="_top" xlink:title="return_false">
<polygon fill="none" stroke="black" points="438,-418.5 438,-437.5 506,-437.5 506,-418.5 438,-418.5"/>
<text text-anchor="middle" x="472" y="-425.5" font-family="Helvetica,sans-Serif" font-size="10.00">return_false</text>
</a>
</g>
</g>
<!-- Node2&#45;&gt;Node28 -->
<g id="edge34" class="edge"><title>Node2&#45;&gt;Node28</title>
<path fill="none" stroke="midnightblue" d="M357.655,-494.446C364.728,-491.945 371.777,-488.838 378,-485 397.801,-472.787 394.377,-459.497 414,-447 418.396,-444.2 423.248,-441.769 428.21,-439.67"/>
<polygon fill="midnightblue" stroke="midnightblue" points="429.689,-442.853 437.797,-436.033 427.206,-436.308 429.689,-442.853"/>
</g>
<!-- Node4 -->
<g id="node4" class="node"><title>Node4</title>
<g id="a_node4"><a xlink:href="../../d9/d78/duplicheck__listener_8c.html#a42e92cbe3b8fa821d53d1fdb7db5a639" target="_top" xlink:title="remove_first">
<polygon fill="none" stroke="black" points="758.5,-468.5 758.5,-487.5 829.5,-487.5 829.5,-468.5 758.5,-468.5"/>
<text text-anchor="middle" x="794" y="-475.5" font-family="Helvetica,sans-Serif" font-size="10.00">remove_first</text>
</a>
</g>
</g>
<!-- Node3&#45;&gt;Node4 -->
<g id="edge3" class="edge"><title>Node3&#45;&gt;Node4</title>
<path fill="none" stroke="midnightblue" d="M674.248,-478C697.269,-478 725.163,-478 748.131,-478"/>
<polygon fill="midnightblue" stroke="midnightblue" points="748.301,-481.5 758.301,-478 748.301,-474.5 748.301,-481.5"/>
</g>
<!-- Node5 -->
<g id="node5" class="node"><title>Node5</title>
<g id="a_node5"><a xlink:href="../../d9/d78/duplicheck__listener_8c.html#acaae3ea9f18caab2a2e47637da396ca9" target="_top" xlink:title="remove_if_empty">
<polygon fill="none" stroke="black" points="898,-468.5 898,-487.5 990,-487.5 990,-468.5 898,-468.5"/>
<text text-anchor="middle" x="944" y="-475.5" font-family="Helvetica,sans-Serif" font-size="10.00">remove_if_empty</text>
</a>
</g>
</g>
<!-- Node4&#45;&gt;Node5 -->
<g id="edge4" class="edge"><title>Node4&#45;&gt;Node5</title>
<path fill="none" stroke="midnightblue" d="M829.699,-478C846.936,-478 868.18,-478 887.597,-478"/>
<polygon fill="midnightblue" stroke="midnightblue" points="887.856,-481.5 897.855,-478 887.855,-474.5 887.856,-481.5"/>
</g>
<!-- Node6 -->
<g id="node6" class="node"><title>Node6</title>
<g id="a_node6"><a xlink:href="../../d9/d78/duplicheck__listener_8c.html#aede77291d80d98c60a53f8438d3bd5bd" target="_top" xlink:title="entry_destroy">
<polygon fill="none" stroke="black" points="1033,-468.5 1033,-487.5 1109,-487.5 1109,-468.5 1033,-468.5"/>
<text text-anchor="middle" x="1071" y="-475.5" font-family="Helvetica,sans-Serif" font-size="10.00">entry_destroy</text>
</a>
</g>
</g>
<!-- Node5&#45;&gt;Node6 -->
<g id="edge5" class="edge"><title>Node5&#45;&gt;Node6</title>
<path fill="none" stroke="midnightblue" d="M990.128,-478C1000.73,-478 1012.05,-478 1022.74,-478"/>
<polygon fill="midnightblue" stroke="midnightblue" points="1022.75,-481.5 1032.75,-478 1022.75,-474.5 1022.75,-481.5"/>
</g>
<!-- Node7 -->
<g id="node7" class="node"><title>Node7</title>
<g id="a_node7"><a xlink:href="../../dc/d21/daemon_8c.html#a1e824dfeaa337e709772cb0c8e6c8dcc" target="_top" xlink:title="destroy">
<polygon fill="none" stroke="black" points="1181.5,-406.5 1181.5,-425.5 1230.5,-425.5 1230.5,-406.5 1181.5,-406.5"/>
<text text-anchor="middle" x="1206" y="-413.5" font-family="Helvetica,sans-Serif" font-size="10.00">destroy</text>
</a>
</g>
</g>
<!-- Node6&#45;&gt;Node7 -->
<g id="edge6" class="edge"><title>Node6&#45;&gt;Node7</title>
<path fill="none" stroke="midnightblue" d="M1092.49,-468.448C1114.59,-458.147 1149.98,-441.649 1175.16,-429.909"/>
<polygon fill="midnightblue" stroke="midnightblue" points="1176.68,-433.062 1184.27,-425.665 1173.73,-426.718 1176.68,-433.062"/>
</g>
<!-- Node8 -->
<g id="node8" class="node"><title>Node8</title>
<g id="a_node8"><a xlink:href="../../da/dfc/settings__parser_8c.html#af07d89f5ceaea0c7c8252cc41fd75f37" target="_top" xlink:title="free">
<polygon fill="none" stroke="black" points="1440.5,-397.5 1440.5,-416.5 1473.5,-416.5 1473.5,-397.5 1440.5,-397.5"/>
<text text-anchor="middle" x="1457" y="-404.5" font-family="Helvetica,sans-Serif" font-size="10.00">free</text>
</a>
</g>
</g>
<!-- Node6&#45;&gt;Node8 -->
<g id="edge11" class="edge"><title>Node6&#45;&gt;Node8</title>
<path fill="none" stroke="midnightblue" d="M1109.03,-485.271C1172.74,-495.919 1305.72,-509.871 1404,-464 1421.55,-455.806 1435.87,-438.679 1445,-425.326"/>
<polygon fill="midnightblue" stroke="midnightblue" points="1448,-427.143 1450.48,-416.842 1442.12,-423.349 1448,-427.143"/>
</g>
<!-- Node7&#45;&gt;Node8 -->
<g id="edge7" class="edge"><title>Node7&#45;&gt;Node8</title>
<path fill="none" stroke="midnightblue" d="M1230.88,-415.137C1277.74,-413.443 1381.42,-409.696 1429.97,-407.941"/>
<polygon fill="midnightblue" stroke="midnightblue" points="1430.39,-411.428 1440.26,-407.569 1430.14,-404.432 1430.39,-411.428"/>
</g>
<!-- Node9 -->
<g id="node9" class="node"><title>Node9</title>
<g id="a_node9"><a xlink:href="../../dc/d21/daemon_8c.html#a1b7023117168a75858bd535a56e709e2" target="_top" xlink:title="logger_entry_destroy">
<polygon fill="none" stroke="black" points="1296.5,-359.5 1296.5,-378.5 1403.5,-378.5 1403.5,-359.5 1296.5,-359.5"/>
<text text-anchor="middle" x="1350" y="-366.5" font-family="Helvetica,sans-Serif" font-size="10.00">logger_entry_destroy</text>
</a>
</g>
</g>
<!-- Node7&#45;&gt;Node9 -->
<g id="edge8" class="edge"><title>Node7&#45;&gt;Node9</title>
<path fill="none" stroke="midnightblue" d="M1230.77,-408.133C1252.51,-400.935 1285.08,-390.157 1310.53,-381.733"/>
<polygon fill="midnightblue" stroke="midnightblue" points="1311.85,-384.981 1320.25,-378.516 1309.65,-378.336 1311.85,-384.981"/>
</g>
<!-- Node10 -->
<g id="node10" class="node"><title>Node10</title>
<g id="a_node10"><a xlink:href="../../d9/d32/connect__manager_8c.html#a3b4dd773d88779165dc7243cb4e4fbee" target="_top" xlink:title="sender">
<polygon fill="none" stroke="red" points="1327,-435.5 1327,-454.5 1373,-454.5 1373,-435.5 1327,-435.5"/>
<text text-anchor="middle" x="1350" y="-442.5" font-family="Helvetica,sans-Serif" font-size="10.00">sender</text>
</a>
</g>
</g>
<!-- Node7&#45;&gt;Node10 -->
<g id="edge10" class="edge"><title>Node7&#45;&gt;Node10</title>
<path fill="none" stroke="midnightblue" d="M1230.77,-420.854C1254.33,-425.665 1290.58,-433.07 1316.74,-438.411"/>
<polygon fill="midnightblue" stroke="midnightblue" points="1316.06,-441.846 1326.56,-440.418 1317.46,-434.987 1316.06,-441.846"/>
</g>
<!-- Node9&#45;&gt;Node8 -->
<g id="edge9" class="edge"><title>Node9&#45;&gt;Node8</title>
<path fill="none" stroke="midnightblue" d="M1377.5,-378.589C1393.74,-384.469 1414.43,-391.957 1430.5,-397.77"/>
<polygon fill="midnightblue" stroke="midnightblue" points="1429.69,-401.202 1440.29,-401.314 1432.08,-394.619 1429.69,-401.202"/>
</g>
<!-- Node12&#45;&gt;Node3 -->
<g id="edge14" class="edge"><title>Node12&#45;&gt;Node3</title>
<path fill="none" stroke="midnightblue" d="M530.344,-470.468C543.837,-471.52 558.193,-472.638 571.598,-473.683"/>
<polygon fill="midnightblue" stroke="midnightblue" points="571.393,-477.177 581.634,-474.465 571.937,-470.199 571.393,-477.177"/>
</g>
<!-- Node13 -->
<g id="node13" class="node"><title>Node13</title>
<g id="a_node13"><a xlink:href="../../d0/d04/group__mutex.html#gacbf89470b1f7a4a0d621faeeb8b485c5" target="_top" xlink:title="mutex_create">
<polygon fill="none" stroke="black" points="590,-354.5 590,-373.5 666,-373.5 666,-354.5 590,-354.5"/>
<text text-anchor="middle" x="628" y="-361.5" font-family="Helvetica,sans-Serif" font-size="10.00">mutex_create</text>
</a>
</g>
</g>
<!-- Node12&#45;&gt;Node13 -->
<g id="edge15" class="edge"><title>Node12&#45;&gt;Node13</title>
<path fill="none" stroke="midnightblue" d="M514.175,-456.396C519.857,-453.933 525.334,-450.851 530,-447 555.168,-426.224 540.627,-403.526 566,-383 570.312,-379.512 575.266,-376.662 580.448,-374.333"/>
<polygon fill="midnightblue" stroke="midnightblue" points="581.857,-377.541 589.93,-370.68 579.341,-371.009 581.857,-377.541"/>
</g>
<!-- Node14 -->
<g id="node14" class="node"><title>Node14</title>
<g id="a_node14"><a xlink:href="../../d2/d75/group__condvar.html#ga37ffb5a6e3c2694ba9dcff5fb56dc2f7" target="_top" xlink:title="condvar_create">
<polygon fill="none" stroke="black" points="1029.5,-425.5 1029.5,-444.5 1112.5,-444.5 1112.5,-425.5 1029.5,-425.5"/>
<text text-anchor="middle" x="1071" y="-432.5" font-family="Helvetica,sans-Serif" font-size="10.00">condvar_create</text>
</a>
</g>
</g>
<!-- Node12&#45;&gt;Node14 -->
<g id="edge16" class="edge"><title>Node12&#45;&gt;Node14</title>
<path fill="none" stroke="midnightblue" d="M530.035,-461.458C541.917,-460.581 554.364,-459.715 566,-459 731.854,-448.811 928.638,-440.545 1019.46,-436.946"/>
<polygon fill="midnightblue" stroke="midnightblue" points="1019.62,-440.442 1029.48,-436.551 1019.35,-433.447 1019.62,-440.442"/>
</g>
<!-- Node14&#45;&gt;Node7 -->
<g id="edge17" class="edge"><title>Node14&#45;&gt;Node7</title>
<path fill="none" stroke="midnightblue" d="M1112.63,-429.196C1131.4,-426.514 1153.44,-423.366 1171.27,-420.818"/>
<polygon fill="midnightblue" stroke="midnightblue" points="1171.83,-424.274 1181.24,-419.395 1170.84,-417.344 1171.83,-424.274"/>
</g>
<!-- Node16 -->
<g id="node16" class="node"><title>Node16</title>
<g id="a_node16"><a xlink:href="../../d0/d8f/group__callback__job.html#gadfa6801d50c2e34bb3f9e1c98efe02d0" target="_top" xlink:title="callback_job_create\l_with_prio">
<polygon fill="none" stroke="black" points="576.5,-527 576.5,-557 679.5,-557 679.5,-527 576.5,-527"/>
<text text-anchor="start" x="584.5" y="-545" font-family="Helvetica,sans-Serif" font-size="10.00">callback_job_create</text>
<text text-anchor="middle" x="628" y="-534" font-family="Helvetica,sans-Serif" font-size="10.00">_with_prio</text>
</a>
</g>
</g>
<!-- Node15&#45;&gt;Node16 -->
<g id="edge19" class="edge"><title>Node15&#45;&gt;Node16</title>
<path fill="none" stroke="midnightblue" d="M523.852,-542C537.459,-542 552.301,-542 566.378,-542"/>
<polygon fill="midnightblue" stroke="midnightblue" points="566.464,-545.5 576.464,-542 566.464,-538.5 566.464,-545.5"/>
</g>
<!-- Node17 -->
<g id="node17" class="node"><title>Node17</title>
<g id="a_node17"><a xlink:href="../../d1/d14/fetch_8c.html#a17dd1592e9f4ebc44d5126c03a3a9697" target="_top" xlink:title="cb">
<polygon fill="none" stroke="black" points="779.5,-519.5 779.5,-538.5 808.5,-538.5 808.5,-519.5 779.5,-519.5"/>
<text text-anchor="middle" x="794" y="-526.5" font-family="Helvetica,sans-Serif" font-size="10.00">cb</text>
</a>
</g>
</g>
<!-- Node16&#45;&gt;Node17 -->
<g id="edge20" class="edge"><title>Node16&#45;&gt;Node17</title>
<path fill="none" stroke="midnightblue" d="M679.544,-537.993C709.443,-535.623 745.919,-532.732 769.299,-530.879"/>
<polygon fill="midnightblue" stroke="midnightblue" points="769.651,-534.362 779.343,-530.083 769.098,-527.384 769.651,-534.362"/>
</g>
<!-- Node18 -->
<g id="node18" class="node"><title>Node18</title>
<g id="a_node18"><a xlink:href="../../d2/dca/nm__backend_8c.html#a22ea158445c16ed72f5ab270e1dc691b" target="_top" xlink:title="cancel">
<polygon fill="none" stroke="black" points="771.5,-557.5 771.5,-576.5 816.5,-576.5 816.5,-557.5 771.5,-557.5"/>
<text text-anchor="middle" x="794" y="-564.5" font-family="Helvetica,sans-Serif" font-size="10.00">cancel</text>
</a>
</g>
</g>
<!-- Node16&#45;&gt;Node18 -->
<g id="edge21" class="edge"><title>Node16&#45;&gt;Node18</title>
<path fill="none" stroke="midnightblue" d="M679.544,-549.705C706.15,-553.761 737.965,-558.611 761.125,-562.141"/>
<polygon fill="midnightblue" stroke="midnightblue" points="760.694,-565.616 771.107,-563.663 761.748,-558.696 760.694,-565.616"/>
</g>
<!-- Node20 -->
<g id="node20" class="node"><title>Node20</title>
<g id="a_node20"><a xlink:href="../../d9/dad/ipsec__event__relay_8c.html#a0ebad5a6f643f77e488fe67cd0b03807" target="_top" xlink:title="ipsec_event_destroy">
<polygon fill="none" stroke="black" points="1152.5,-572.5 1152.5,-591.5 1259.5,-591.5 1259.5,-572.5 1152.5,-572.5"/>
<text text-anchor="middle" x="1206" y="-579.5" font-family="Helvetica,sans-Serif" font-size="10.00">ipsec_event_destroy</text>
</a>
</g>
</g>
<!-- Node19&#45;&gt;Node20 -->
<g id="edge23" class="edge"><title>Node19&#45;&gt;Node20</title>
<path fill="none" stroke="midnightblue" d="M511.634,-646.402C571.501,-632.394 690.477,-608 793,-608 793,-608 793,-608 945,-608 1012.62,-608 1089.65,-599.185 1142.2,-591.82"/>
<polygon fill="midnightblue" stroke="midnightblue" points="1142.96,-595.246 1152.37,-590.37 1141.98,-588.316 1142.96,-595.246"/>
</g>
<!-- Node21 -->
<g id="node21" class="node"><title>Node21</title>
<g id="a_node21"><a xlink:href="../../d1/dfe/kernel__netlink__shared_8c.html#a98596c51ac8127965694091c541e5a51" target="_top" xlink:title="queue">
<polygon fill="none" stroke="black" points="606.5,-646.5 606.5,-665.5 649.5,-665.5 649.5,-646.5 606.5,-646.5"/>
<text text-anchor="middle" x="628" y="-653.5" font-family="Helvetica,sans-Serif" font-size="10.00">queue</text>
</a>
</g>
</g>
<!-- Node19&#45;&gt;Node21 -->
<g id="edge25" class="edge"><title>Node19&#45;&gt;Node21</title>
<path fill="none" stroke="midnightblue" d="M512.259,-656C538.342,-656 572.1,-656 596.235,-656"/>
<polygon fill="midnightblue" stroke="midnightblue" points="596.261,-659.5 606.261,-656 596.261,-652.5 596.261,-659.5"/>
</g>
<!-- Node20&#45;&gt;Node8 -->
<g id="edge24" class="edge"><title>Node20&#45;&gt;Node8</title>
<path fill="none" stroke="midnightblue" d="M1248.15,-572.476C1291.18,-560.783 1358.64,-537.359 1404,-497 1425.94,-477.478 1441,-446.403 1449.06,-426.354"/>
<polygon fill="midnightblue" stroke="midnightblue" points="1452.43,-427.335 1452.73,-416.744 1445.89,-424.84 1452.43,-427.335"/>
</g>
<!-- Node22 -->
<g id="node22" class="node"><title>Node22</title>
<g id="a_node22"><a xlink:href="../../d1/d0e/group__array.html#ga47238d69e35235b059ea47cdd82120e2" target="_top" xlink:title="array_insert">
<polygon fill="none" stroke="black" points="760,-680.5 760,-699.5 828,-699.5 828,-680.5 760,-680.5"/>
<text text-anchor="middle" x="794" y="-687.5" font-family="Helvetica,sans-Serif" font-size="10.00">array_insert</text>
</a>
</g>
</g>
<!-- Node21&#45;&gt;Node22 -->
<g id="edge26" class="edge"><title>Node21&#45;&gt;Node22</title>
<path fill="none" stroke="midnightblue" d="M649.771,-660.306C674.814,-665.498 717.56,-674.36 749.851,-681.055"/>
<polygon fill="midnightblue" stroke="midnightblue" points="749.43,-684.542 759.932,-683.145 750.851,-677.687 749.43,-684.542"/>
</g>
<!-- Node27 -->
<g id="node27" class="node"><title>Node27</title>
<g id="a_node27"><a xlink:href="../../da/dfc/settings__parser_8c.html#a5faf6a2d99f50a4655dd390199a8db7b" target="_top" xlink:title="malloc">
<polygon fill="none" stroke="black" points="771.5,-642.5 771.5,-661.5 816.5,-661.5 816.5,-642.5 771.5,-642.5"/>
<text text-anchor="middle" x="794" y="-649.5" font-family="Helvetica,sans-Serif" font-size="10.00">malloc</text>
</a>
</g>
</g>
<!-- Node21&#45;&gt;Node27 -->
<g id="edge33" class="edge"><title>Node21&#45;&gt;Node27</title>
<path fill="none" stroke="midnightblue" d="M649.771,-655.493C677.925,-654.807 728.453,-653.574 761.347,-652.772"/>
<polygon fill="midnightblue" stroke="midnightblue" points="761.445,-656.271 771.357,-652.528 761.275,-649.273 761.445,-656.271"/>
</g>
<!-- Node23 -->
<g id="node23" class="node"><title>Node23</title>
<g id="a_node23"><a xlink:href="../../d1/d0e/group__array.html#ga37bb7fb1dde90d6fb84dac0027bb3606" target="_top" xlink:title="array_count">
<polygon fill="none" stroke="black" points="910,-715.5 910,-734.5 978,-734.5 978,-715.5 910,-715.5"/>
<text text-anchor="middle" x="944" y="-722.5" font-family="Helvetica,sans-Serif" font-size="10.00">array_count</text>
</a>
</g>
</g>
<!-- Node22&#45;&gt;Node23 -->
<g id="edge27" class="edge"><title>Node22&#45;&gt;Node23</title>
<path fill="none" stroke="midnightblue" d="M828.214,-697.855C849.446,-702.876 877.194,-709.438 900.088,-714.852"/>
<polygon fill="midnightblue" stroke="midnightblue" points="899.36,-718.276 909.897,-717.172 900.971,-711.464 899.36,-718.276"/>
</g>
<!-- Node24 -->
<g id="node24" class="node"><title>Node24</title>
<g id="a_node24"><a xlink:href="../../dc/dcc/array_8c.html#ac4d67e4df8ac1f0185b4e122fdd39169" target="_top" xlink:title="insert_head">
<polygon fill="none" stroke="red" points="910.5,-753.5 910.5,-772.5 977.5,-772.5 977.5,-753.5 910.5,-753.5"/>
<text text-anchor="middle" x="944" y="-760.5" font-family="Helvetica,sans-Serif" font-size="10.00">insert_head</text>
</a>
</g>
</g>
<!-- Node22&#45;&gt;Node24 -->
<g id="edge28" class="edge"><title>Node22&#45;&gt;Node24</title>
<path fill="none" stroke="midnightblue" d="M812.272,-699.621C832.555,-710.786 867.328,-729.515 898,-744 901.796,-745.793 905.806,-747.602 909.806,-749.355"/>
<polygon fill="midnightblue" stroke="midnightblue" points="908.445,-752.58 919.015,-753.309 911.207,-746.148 908.445,-752.58"/>
</g>
<!-- Node25 -->
<g id="node25" class="node"><title>Node25</title>
<g id="a_node25"><a xlink:href="../../dc/dcc/array_8c.html#a1814774789ffaf948b25734a7dd0f3ed" target="_top" xlink:title="get_size">
<polygon fill="none" stroke="black" points="1044.5,-677.5 1044.5,-696.5 1097.5,-696.5 1097.5,-677.5 1044.5,-677.5"/>
<text text-anchor="middle" x="1071" y="-684.5" font-family="Helvetica,sans-Serif" font-size="10.00">get_size</text>
</a>
</g>
</g>
<!-- Node22&#45;&gt;Node25 -->
<g id="edge32" class="edge"><title>Node22&#45;&gt;Node25</title>
<path fill="none" stroke="midnightblue" d="M828.171,-689.638C880.269,-689.07 980.84,-687.973 1034.4,-687.388"/>
<polygon fill="midnightblue" stroke="midnightblue" points="1034.5,-690.888 1044.46,-687.279 1034.42,-683.888 1034.5,-690.888"/>
</g>
<!-- Node26 -->
<g id="node26" class="node"><title>Node26</title>
<g id="a_node26"><a xlink:href="../../dc/dcc/array_8c.html#a7734db8d12ada729da8d593e21e9f161" target="_top" xlink:title="insert_tail">
<polygon fill="none" stroke="red" points="914.5,-639.5 914.5,-658.5 973.5,-658.5 973.5,-639.5 914.5,-639.5"/>
<text text-anchor="middle" x="944" y="-646.5" font-family="Helvetica,sans-Serif" font-size="10.00">insert_tail</text>
</a>
</g>
</g>
<!-- Node22&#45;&gt;Node26 -->
<g id="edge30" class="edge"><title>Node22&#45;&gt;Node26</title>
<path fill="none" stroke="midnightblue" d="M828.214,-680.799C850.884,-674.519 880.981,-666.181 904.668,-659.619"/>
<polygon fill="midnightblue" stroke="midnightblue" points="905.685,-662.969 914.387,-656.926 903.816,-656.223 905.685,-662.969"/>
</g>
<!-- Node24&#45;&gt;Node25 -->
<g id="edge29" class="edge"><title>Node24&#45;&gt;Node25</title>
<path fill="none" stroke="midnightblue" d="M970.222,-753.498C976.798,-750.713 983.781,-747.473 990,-744 1011.73,-731.863 1034.69,-715.035 1050.41,-702.812"/>
<polygon fill="midnightblue" stroke="midnightblue" points="1052.66,-705.494 1058.35,-696.554 1048.33,-699.998 1052.66,-705.494"/>
</g>
<!-- Node26&#45;&gt;Node25 -->
<g id="edge31" class="edge"><title>Node26&#45;&gt;Node25</title>
<path fill="none" stroke="midnightblue" d="M973.678,-657.718C991.846,-663.241 1015.47,-670.423 1034.78,-676.292"/>
<polygon fill="midnightblue" stroke="midnightblue" points="1033.84,-679.666 1044.43,-679.226 1035.88,-672.968 1033.84,-679.666"/>
</g>
<!-- Node29&#45;&gt;Node3 -->
<g id="edge36" class="edge"><title>Node29&#45;&gt;Node3</title>
<path fill="none" stroke="midnightblue" d="M335.384,-589.528C376.098,-607.017 468.822,-638.956 530,-599 563.324,-577.236 540.122,-547.241 566,-517 574.492,-507.077 586.139,-498.784 596.982,-492.433"/>
<polygon fill="midnightblue" stroke="midnightblue" points="598.748,-495.456 605.814,-487.561 595.367,-489.327 598.748,-495.456"/>
</g>
<!-- Node29&#45;&gt;Node11 -->
<g id="edge37" class="edge"><title>Node29&#45;&gt;Node11</title>
<path fill="none" stroke="midnightblue" d="M376.655,-580C392.006,-580 408.242,-580 422.836,-580"/>
<polygon fill="midnightblue" stroke="midnightblue" points="423.137,-583.5 433.137,-580 423.137,-576.5 423.137,-583.5"/>
</g>
<!-- Node30&#45;&gt;Node11 -->
<g id="edge40" class="edge"><title>Node30&#45;&gt;Node11</title>
<path fill="none" stroke="midnightblue" d="M362.681,-475.584C368.225,-478.04 373.498,-481.125 378,-485 406.328,-509.382 386.026,-536.212 414,-561 417.031,-563.686 420.454,-565.994 424.081,-567.978"/>
<polygon fill="midnightblue" stroke="midnightblue" points="422.858,-571.268 433.406,-572.269 425.784,-564.909 422.858,-571.268"/>
</g>
<!-- Node30&#45;&gt;Node12 -->
<g id="edge39" class="edge"><title>Node30&#45;&gt;Node12</title>
<path fill="none" stroke="midnightblue" d="M374.422,-466C384.008,-466 393.991,-466 403.746,-466"/>
<polygon fill="midnightblue" stroke="midnightblue" points="403.802,-469.5 413.802,-466 403.802,-462.5 403.802,-469.5"/>
</g>
<!-- Node30&#45;&gt;Node15 -->
<g id="edge41" class="edge"><title>Node30&#45;&gt;Node15</title>
<path fill="none" stroke="midnightblue" d="M352.556,-475.6C361.075,-478.25 369.973,-481.402 378,-485 403.84,-496.582 431.223,-514.081 449.531,-526.633"/>
<polygon fill="midnightblue" stroke="midnightblue" points="447.536,-529.509 457.742,-532.35 451.535,-523.764 447.536,-529.509"/>
</g>
<!-- Node30&#45;&gt;Node28 -->
<g id="edge44" class="edge"><title>Node30&#45;&gt;Node28</title>
<path fill="none" stroke="midnightblue" d="M354.365,-456.411C376.852,-450.933 405.071,-444.06 428.119,-438.445"/>
<polygon fill="midnightblue" stroke="midnightblue" points="429.088,-441.812 437.976,-436.044 427.432,-435.011 429.088,-441.812"/>
</g>
<!-- Node31 -->
<g id="node31" class="node"><title>Node31</title>
<g id="a_node31"><a xlink:href="../../d9/d45/ipsec__processor_8c.html#a1106ada73120f2ea693247f6136f23e9" target="_top" xlink:title="process_inbound">
<polygon fill="none" stroke="black" points="427,-380.5 427,-399.5 517,-399.5 517,-380.5 427,-380.5"/>
<text text-anchor="middle" x="472" y="-387.5" font-family="Helvetica,sans-Serif" font-size="10.00">process_inbound</text>
</a>
</g>
</g>
<!-- Node30&#45;&gt;Node31 -->
<g id="edge42" class="edge"><title>Node30&#45;&gt;Node31</title>
<path fill="none" stroke="midnightblue" d="M329.601,-456.343C348.493,-444.145 382.7,-423.056 414,-409 418.755,-406.865 423.825,-404.839 428.907,-402.962"/>
<polygon fill="midnightblue" stroke="midnightblue" points="430.342,-406.167 438.612,-399.544 428.017,-399.564 430.342,-406.167"/>
</g>
<!-- Node33 -->
<g id="node33" class="node"><title>Node33</title>
<g id="a_node33"><a xlink:href="../../d9/d45/ipsec__processor_8c.html#a3ebaace4688833196889f066a5cd863e" target="_top" xlink:title="process_outbound">
<polygon fill="none" stroke="black" points="424,-266.5 424,-285.5 520,-285.5 520,-266.5 424,-266.5"/>
<text text-anchor="middle" x="472" y="-273.5" font-family="Helvetica,sans-Serif" font-size="10.00">process_outbound</text>
</a>
</g>
</g>
<!-- Node30&#45;&gt;Node33 -->
<g id="edge45" class="edge"><title>Node30&#45;&gt;Node33</title>
<path fill="none" stroke="midnightblue" d="M322.951,-456.317C347.772,-426.086 424.089,-333.135 456.355,-293.837"/>
<polygon fill="midnightblue" stroke="midnightblue" points="459.238,-295.841 462.878,-285.892 453.828,-291.399 459.238,-295.841"/>
</g>
<!-- Node32 -->
<g id="node32" class="node"><title>Node32</title>
<g id="a_node32"><a xlink:href="../../d9/d45/ipsec__processor_8c.html#ae2bf11a871b17653b61dda5013e8c715" target="_top" xlink:title="deliver_inbound">
<polygon fill="none" stroke="black" points="586,-392.5 586,-411.5 670,-411.5 670,-392.5 586,-392.5"/>
<text text-anchor="middle" x="628" y="-399.5" font-family="Helvetica,sans-Serif" font-size="10.00">deliver_inbound</text>
</a>
</g>
</g>
<!-- Node31&#45;&gt;Node32 -->
<g id="edge43" class="edge"><title>Node31&#45;&gt;Node32</title>
<path fill="none" stroke="midnightblue" d="M517.13,-393.439C535.438,-394.865 556.797,-396.53 575.79,-398.01"/>
<polygon fill="midnightblue" stroke="midnightblue" points="575.528,-401.5 585.77,-398.787 576.072,-394.521 575.528,-401.5"/>
</g>
<!-- Node34 -->
<g id="node34" class="node"><title>Node34</title>
<g id="a_node34"><a xlink:href="../../da/d8a/group__esp__packet.html#ga2df5215b7e039ebd13a1265375ff1c99" target="_top" xlink:title="esp_packet_create_from\l_payload">
<polygon fill="none" stroke="black" points="566,-305 566,-335 690,-335 690,-305 566,-305"/>
<text text-anchor="start" x="574" y="-323" font-family="Helvetica,sans-Serif" font-size="10.00">esp_packet_create_from</text>
<text text-anchor="middle" x="628" y="-312" font-family="Helvetica,sans-Serif" font-size="10.00">_payload</text>
</a>
</g>
</g>
<!-- Node33&#45;&gt;Node34 -->
<g id="edge46" class="edge"><title>Node33&#45;&gt;Node34</title>
<path fill="none" stroke="midnightblue" d="M506.416,-285.547C523.445,-290.413 544.714,-296.49 564.629,-302.18"/>
<polygon fill="midnightblue" stroke="midnightblue" points="563.694,-305.553 574.271,-304.935 565.618,-298.822 563.694,-305.553"/>
</g>
<!-- Node37 -->
<g id="node37" class="node"><title>Node37</title>
<g id="a_node37"><a xlink:href="../../d9/d45/ipsec__processor_8c.html#a883f27fea9d6edde666ca9b5ea104f31" target="_top" xlink:title="send_outbound">
<polygon fill="none" stroke="black" points="586.5,-266.5 586.5,-285.5 669.5,-285.5 669.5,-266.5 586.5,-266.5"/>
<text text-anchor="middle" x="628" y="-273.5" font-family="Helvetica,sans-Serif" font-size="10.00">send_outbound</text>
</a>
</g>
</g>
<!-- Node33&#45;&gt;Node37 -->
<g id="edge49" class="edge"><title>Node33&#45;&gt;Node37</title>
<path fill="none" stroke="midnightblue" d="M520.042,-276C537.871,-276 558.239,-276 576.383,-276"/>
<polygon fill="midnightblue" stroke="midnightblue" points="576.488,-279.5 586.488,-276 576.488,-272.5 576.488,-279.5"/>
</g>
<!-- Node35 -->
<g id="node35" class="node"><title>Node35</title>
<g id="a_node35"><a xlink:href="../../db/dd9/group__packet.html#ga09772f9176b3dc9c958bc821f515be79" target="_top" xlink:title="packet_create_from_data">
<polygon fill="none" stroke="black" points="730.5,-329.5 730.5,-348.5 857.5,-348.5 857.5,-329.5 730.5,-329.5"/>
<text text-anchor="middle" x="794" y="-336.5" font-family="Helvetica,sans-Serif" font-size="10.00">packet_create_from_data</text>
</a>
</g>
</g>
<!-- Node34&#45;&gt;Node35 -->
<g id="edge47" class="edge"><title>Node34&#45;&gt;Node35</title>
<path fill="none" stroke="midnightblue" d="M690.068,-327.075C699.903,-328.214 710.169,-329.404 720.247,-330.571"/>
<polygon fill="midnightblue" stroke="midnightblue" points="719.902,-334.055 730.238,-331.729 720.707,-327.101 719.902,-334.055"/>
</g>
<!-- Node36 -->
<g id="node36" class="node"><title>Node36</title>
<g id="a_node36"><a xlink:href="../../d4/d26/esp__packet_8c.html#ad6c907817b9d4d2f9cf3172c6c90e7f2" target="_top" xlink:title="esp_packet_create_internal">
<polygon fill="none" stroke="black" points="726,-291.5 726,-310.5 862,-310.5 862,-291.5 726,-291.5"/>
<text text-anchor="middle" x="794" y="-298.5" font-family="Helvetica,sans-Serif" font-size="10.00">esp_packet_create_internal</text>
</a>
</g>
</g>
<!-- Node34&#45;&gt;Node36 -->
<g id="edge48" class="edge"><title>Node34&#45;&gt;Node36</title>
<path fill="none" stroke="midnightblue" d="M690.068,-312.925C698.446,-311.954 707.137,-310.948 715.757,-309.949"/>
<polygon fill="midnightblue" stroke="midnightblue" points="716.291,-313.411 725.822,-308.783 715.485,-306.457 716.291,-313.411"/>
</g>
<!-- Node38&#45;&gt;Node3 -->
<g id="edge51" class="edge"><title>Node38&#45;&gt;Node3</title>
<path fill="none" stroke="midnightblue" d="M187.311,-304.528C205.02,-310.448 228.679,-317.879 250,-323 311.384,-337.742 476.455,-337.559 530,-371 553.225,-385.505 547.91,-400.443 566,-421 578.882,-435.638 595.07,-450.633 607.533,-461.566"/>
<polygon fill="midnightblue" stroke="midnightblue" points="605.259,-464.227 615.112,-468.12 609.837,-458.932 605.259,-464.227"/>
</g>
<!-- Node38&#45;&gt;Node13 -->
<g id="edge52" class="edge"><title>Node38&#45;&gt;Node13</title>
<path fill="none" stroke="midnightblue" d="M214.299,-298.812C286.756,-304.466 418.841,-316.761 530,-338 548.61,-341.556 568.9,-346.778 586.089,-351.611"/>
<polygon fill="midnightblue" stroke="midnightblue" points="585.239,-355.008 595.816,-354.396 587.166,-348.278 585.239,-355.008"/>
</g>
<!-- Node39 -->
<g id="node39" class="node"><title>Node39</title>
<g id="a_node39"><a xlink:href="../../db/dcc/group__hashtable.html#gae6df65038e6d4d725832e59eff4c1d90" target="_top" xlink:title="hashtable_create">
<polygon fill="none" stroke="black" points="268.5,-171.5 268.5,-190.5 359.5,-190.5 359.5,-171.5 268.5,-171.5"/>
<text text-anchor="middle" x="314" y="-178.5" font-family="Helvetica,sans-Serif" font-size="10.00">hashtable_create</text>
</a>
</g>
</g>
<!-- Node38&#45;&gt;Node39 -->
<g id="edge53" class="edge"><title>Node38&#45;&gt;Node39</title>
<path fill="none" stroke="midnightblue" d="M172.782,-285.477C199.041,-265.911 259.301,-221.011 291.61,-196.937"/>
<polygon fill="midnightblue" stroke="midnightblue" points="294.003,-199.519 299.931,-190.738 289.82,-193.906 294.003,-199.519"/>
</g>
<!-- Node47 -->
<g id="node47" class="node"><title>Node47</title>
<g id="a_node47"><a xlink:href="../../de/d14/ipsec__sa__mgr_8c.html#acaa9eade16e1e08a211f23a47fb3c317" target="_top" xlink:title="spi_hash">
<polygon fill="none" stroke="black" points="286,-57.5 286,-76.5 342,-76.5 342,-57.5 286,-57.5"/>
<text text-anchor="middle" x="314" y="-64.5" font-family="Helvetica,sans-Serif" font-size="10.00">spi_hash</text>
</a>
</g>
</g>
<!-- Node38&#45;&gt;Node47 -->
<g id="edge65" class="edge"><title>Node38&#45;&gt;Node47</title>
<path fill="none" stroke="midnightblue" d="M166.379,-285.493C189.66,-250.801 270.281,-130.66 300.992,-84.8948"/>
<polygon fill="midnightblue" stroke="midnightblue" points="303.927,-86.8011 306.593,-76.5472 298.115,-82.9006 303.927,-86.8011"/>
</g>
<!-- Node50 -->
<g id="node50" class="node"><title>Node50</title>
<g id="a_node50"><a xlink:href="../../de/d14/ipsec__sa__mgr_8c.html#af211e56648f7e655a114dee662bd6393" target="_top" xlink:title="spi_equals">
<polygon fill="none" stroke="black" points="282.5,-266.5 282.5,-285.5 345.5,-285.5 345.5,-266.5 282.5,-266.5"/>
<text text-anchor="middle" x="314" y="-273.5" font-family="Helvetica,sans-Serif" font-size="10.00">spi_equals</text>
</a>
</g>
</g>
<!-- Node38&#45;&gt;Node50 -->
<g id="edge68" class="edge"><title>Node38&#45;&gt;Node50</title>
<path fill="none" stroke="midnightblue" d="M214.373,-288.248C233.472,-285.876 254.584,-283.254 272.358,-281.047"/>
<polygon fill="midnightblue" stroke="midnightblue" points="272.905,-284.506 282.397,-279.8 272.042,-277.559 272.905,-284.506"/>
</g>
<!-- Node39&#45;&gt;Node7 -->
<g id="edge60" class="edge"><title>Node39&#45;&gt;Node7</title>
<path fill="none" stroke="midnightblue" d="M333.049,-171.368C380.046,-147.216 510.642,-86 627,-86 627,-86 627,-86 945,-86 1104.24,-86 1180.97,-326.006 1200.11,-396.657"/>
<polygon fill="midnightblue" stroke="midnightblue" points="1196.76,-397.697 1202.69,-406.48 1203.53,-395.918 1196.76,-397.697"/>
</g>
<!-- Node40 -->
<g id="node40" class="node"><title>Node40</title>
<g id="a_node40"><a xlink:href="../../d3/d7e/crypto__factory_8c.html#a232a78e6f892cf38a9a97e311c44ed89" target="_top" xlink:title="create_enumerator">
<polygon fill="none" stroke="black" points="423,-171.5 423,-190.5 521,-190.5 521,-171.5 423,-171.5"/>
<text text-anchor="middle" x="472" y="-178.5" font-family="Helvetica,sans-Serif" font-size="10.00">create_enumerator</text>
</a>
</g>
</g>
<!-- Node39&#45;&gt;Node40 -->
<g id="edge54" class="edge"><title>Node39&#45;&gt;Node40</title>
<path fill="none" stroke="midnightblue" d="M359.703,-181C376.186,-181 395.111,-181 412.624,-181"/>
<polygon fill="midnightblue" stroke="midnightblue" points="412.743,-184.5 422.743,-181 412.743,-177.5 412.743,-184.5"/>
</g>
<!-- Node44 -->
<g id="node44" class="node"><title>Node44</title>
<g id="a_node44"><a xlink:href="../../d5/dea/openssl__plugin_8c.html#aa87fbc0aaf3d4f1344dae1a9b326d120" target="_top" xlink:title="destroy_function">
<polygon fill="none" stroke="black" points="1026.5,-248.5 1026.5,-267.5 1115.5,-267.5 1115.5,-248.5 1026.5,-248.5"/>
<text text-anchor="middle" x="1071" y="-255.5" font-family="Helvetica,sans-Serif" font-size="10.00">destroy_function</text>
</a>
</g>
</g>
<!-- Node39&#45;&gt;Node44 -->
<g id="edge61" class="edge"><title>Node39&#45;&gt;Node44</title>
<path fill="none" stroke="midnightblue" d="M346.099,-190.541C401.83,-206.767 522.655,-238 627,-238 627,-238 627,-238 795,-238 871.9,-238 960.578,-245.876 1015.97,-251.743"/>
<polygon fill="midnightblue" stroke="midnightblue" points="1015.94,-255.259 1026.25,-252.85 1016.69,-248.299 1015.94,-255.259"/>
</g>
<!-- Node45 -->
<g id="node45" class="node"><title>Node45</title>
<g id="a_node45"><a xlink:href="../../d8/de9/hashtable_8c.html#a053c183893f9804d2487335c70840dba" target="_top" xlink:title="init_hashtable">
<polygon fill="none" stroke="black" points="433.5,-38.5 433.5,-57.5 510.5,-57.5 510.5,-38.5 433.5,-38.5"/>
<text text-anchor="middle" x="472" y="-45.5" font-family="Helvetica,sans-Serif" font-size="10.00">init_hashtable</text>
</a>
</g>
</g>
<!-- Node39&#45;&gt;Node45 -->
<g id="edge63" class="edge"><title>Node39&#45;&gt;Node45</title>
<path fill="none" stroke="midnightblue" d="M321.581,-171.254C336.057,-150.456 372.686,-101.244 414,-72 419.594,-68.0404 425.942,-64.5633 432.32,-61.5743"/>
<polygon fill="midnightblue" stroke="midnightblue" points="433.822,-64.7376 441.602,-57.5449 431.035,-58.3165 433.822,-64.7376"/>
</g>
<!-- Node40&#45;&gt;Node3 -->
<g id="edge58" class="edge"><title>Node40&#45;&gt;Node3</title>
<path fill="none" stroke="midnightblue" d="M482.677,-190.896C495.499,-204.586 517.905,-230.612 530,-257 561.095,-324.837 529.071,-356.154 566,-421 575.414,-437.531 591.209,-452.094 604.368,-462.362"/>
<polygon fill="midnightblue" stroke="midnightblue" points="602.435,-465.286 612.541,-468.466 606.624,-459.678 602.435,-465.286"/>
</g>
<!-- Node41 -->
<g id="node41" class="node"><title>Node41</title>
<g id="a_node41"><a xlink:href="../../d3/de6/group__enumerator.html#ga7e32271ea79eb88b576ca6eb1c582751" target="_top" xlink:title="enumerator_create_filter">
<polygon fill="none" stroke="red" points="567,-114.5 567,-133.5 689,-133.5 689,-114.5 567,-114.5"/>
<text text-anchor="middle" x="628" y="-121.5" font-family="Helvetica,sans-Serif" font-size="10.00">enumerator_create_filter</text>
</a>
</g>
</g>
<!-- Node40&#45;&gt;Node41 -->
<g id="edge55" class="edge"><title>Node40&#45;&gt;Node41</title>
<path fill="none" stroke="midnightblue" d="M498.776,-171.459C524.205,-162.047 563.276,-147.586 591.607,-137.1"/>
<polygon fill="midnightblue" stroke="midnightblue" points="592.976,-140.325 601.14,-133.572 590.547,-133.76 592.976,-140.325"/>
</g>
<!-- Node42 -->
<g id="node42" class="node"><title>Node42</title>
<g id="a_node42"><a xlink:href="../../dd/df8/x509__crl_8c.html#a39e3ce1a2351f3e2d5414c75a694290c" target="_top" xlink:title="filter">
<polygon fill="none" stroke="black" points="776.5,-133.5 776.5,-152.5 811.5,-152.5 811.5,-133.5 776.5,-133.5"/>
<text text-anchor="middle" x="794" y="-140.5" font-family="Helvetica,sans-Serif" font-size="10.00">filter</text>
</a>
</g>
</g>
<!-- Node40&#45;&gt;Node42 -->
<g id="edge57" class="edge"><title>Node40&#45;&gt;Node42</title>
<path fill="none" stroke="midnightblue" d="M521.254,-175.27C589.532,-167.162 712.039,-152.614 766.105,-146.194"/>
<polygon fill="midnightblue" stroke="midnightblue" points="766.747,-149.642 776.264,-144.987 765.921,-142.691 766.747,-149.642"/>
</g>
<!-- Node43 -->
<g id="node43" class="node"><title>Node43</title>
<g id="a_node43"><a xlink:href="../../d3/d7e/crypto__factory_8c.html#a4e4b3de361576a5459952730cc042ca5" target="_top" xlink:title="unique_check">
<polygon fill="none" stroke="red" points="589.5,-190.5 589.5,-209.5 666.5,-209.5 666.5,-190.5 589.5,-190.5"/>
<text text-anchor="middle" x="628" y="-197.5" font-family="Helvetica,sans-Serif" font-size="10.00">unique_check</text>
</a>
</g>
</g>
<!-- Node40&#45;&gt;Node43 -->
<g id="edge59" class="edge"><title>Node40&#45;&gt;Node43</title>
<path fill="none" stroke="midnightblue" d="M521.304,-186.96C539.762,-189.237 560.787,-191.831 579.198,-194.102"/>
<polygon fill="midnightblue" stroke="midnightblue" points="578.771,-197.576 589.124,-195.327 579.628,-190.629 578.771,-197.576"/>
</g>
<!-- Node41&#45;&gt;Node42 -->
<g id="edge56" class="edge"><title>Node41&#45;&gt;Node42</title>
<path fill="none" stroke="midnightblue" d="M689.136,-130.967C715.604,-134.033 745.351,-137.48 766.204,-139.896"/>
<polygon fill="midnightblue" stroke="midnightblue" points="765.898,-143.383 776.234,-141.058 766.703,-136.43 765.898,-143.383"/>
</g>
<!-- Node44&#45;&gt;Node8 -->
<g id="edge62" class="edge"><title>Node44&#45;&gt;Node8</title>
<path fill="none" stroke="midnightblue" d="M1115.66,-262.303C1182.22,-270.503 1311.11,-292.952 1404,-350 1420.17,-359.928 1434.36,-376.317 1443.82,-388.979"/>
<polygon fill="midnightblue" stroke="midnightblue" points="1441.17,-391.29 1449.82,-397.395 1446.86,-387.222 1441.17,-391.29"/>
</g>
<!-- Node46 -->
<g id="node46" class="node"><title>Node46</title>
<g id="a_node46"><a xlink:href="../../d8/de9/hashtable_8c.html#adc1f54b2244040a4e4de073db4ed27fa" target="_top" xlink:title="get_nearest_powerof2">
<polygon fill="none" stroke="black" points="571.5,-38.5 571.5,-57.5 684.5,-57.5 684.5,-38.5 571.5,-38.5"/>
<text text-anchor="middle" x="628" y="-45.5" font-family="Helvetica,sans-Serif" font-size="10.00">get_nearest_powerof2</text>
</a>
</g>
</g>
<!-- Node45&#45;&gt;Node46 -->
<g id="edge64" class="edge"><title>Node45&#45;&gt;Node46</title>
<path fill="none" stroke="midnightblue" d="M510.673,-48C525.932,-48 544.009,-48 561.307,-48"/>
<polygon fill="midnightblue" stroke="midnightblue" points="561.374,-51.5001 571.374,-48 561.374,-44.5001 561.374,-51.5001"/>
</g>
<!-- Node48 -->
<g id="node48" class="node"><title>Node48</title>
<g id="a_node48"><a xlink:href="../../d4/d87/group__chunk.html#ga714bd1cb9e1f743523c2a58a49f1b6a4" target="_top" xlink:title="chunk_hash">
<polygon fill="none" stroke="black" points="437.5,-0.5 437.5,-19.5 506.5,-19.5 506.5,-0.5 437.5,-0.5"/>
<text text-anchor="middle" x="472" y="-7.5" font-family="Helvetica,sans-Serif" font-size="10.00">chunk_hash</text>
</a>
</g>
</g>
<!-- Node47&#45;&gt;Node48 -->
<g id="edge66" class="edge"><title>Node47&#45;&gt;Node48</title>
<path fill="none" stroke="midnightblue" d="M338.894,-57.484C358.876,-49.6091 388.177,-38.2545 414,-29 419.724,-26.9484 425.798,-24.846 431.764,-22.8221"/>
<polygon fill="midnightblue" stroke="midnightblue" points="433.256,-26.0132 441.623,-19.5133 431.029,-19.3769 433.256,-26.0132"/>
</g>
<!-- Node49 -->
<g id="node49" class="node"><title>Node49</title>
<g id="a_node49"><a xlink:href="../../d4/d87/group__chunk.html#gac5619cf208f72c56bf142cbc4378e388" target="_top" xlink:title="chunk_mac">
<polygon fill="none" stroke="red" points="594.5,-0.5 594.5,-19.5 661.5,-19.5 661.5,-0.5 594.5,-0.5"/>
<text text-anchor="middle" x="628" y="-7.5" font-family="Helvetica,sans-Serif" font-size="10.00">chunk_mac</text>
</a>
</g>
</g>
<!-- Node48&#45;&gt;Node49 -->
<g id="edge67" class="edge"><title>Node48&#45;&gt;Node49</title>
<path fill="none" stroke="midnightblue" d="M506.796,-10C529.573,-10 559.807,-10 584.254,-10"/>
<polygon fill="midnightblue" stroke="midnightblue" points="584.339,-13.5001 594.339,-10 584.339,-6.5001 584.339,-13.5001"/>
</g>
</g>
</svg>
