<?xml version="1.0" encoding="UTF-8" standalone="no"?>
<!DOCTYPE svg PUBLIC "-//W3C//DTD SVG 1.1//EN"
 "http://www.w3.org/Graphics/SVG/1.1/DTD/svg11.dtd">
<!-- Generated by graphviz version 2.36.0 (20140111.2315)
 -->
<!-- Title: handle_keyword Pages: 1 -->
<svg width="424pt" height="66pt"
 viewBox="0.00 0.00 424.00 66.00" xmlns="http://www.w3.org/2000/svg" xmlns:xlink="http://www.w3.org/1999/xlink">
<g id="graph0" class="graph" transform="scale(1 1) rotate(0) translate(4 62)">
<title>handle_keyword</title>
<!-- Node1 -->
<g id="node1" class="node"><title>Node1</title>
<polygon fill="#bfbfbf" stroke="black" points="0.5,-19.5 0.5,-38.5 87.5,-38.5 87.5,-19.5 0.5,-19.5"/>
<text text-anchor="middle" x="44" y="-26.5" font-family="Helvetica,sans-Serif" font-size="10.00">handle_keyword</text>
</g>
<!-- Node2 -->
<g id="node2" class="node"><title>Node2</title>
<g id="a_node2"><a xlink:href="../../d3/d2d/group__ipsec__types.html#gaafee0a8be9ddc148ab4af41b7cab0273" target="_top" xlink:title="mark_from_string">
<polygon fill="none" stroke="black" points="124,-38.5 124,-57.5 216,-57.5 216,-38.5 124,-38.5"/>
<text text-anchor="middle" x="170" y="-45.5" font-family="Helvetica,sans-Serif" font-size="10.00">mark_from_string</text>
</a>
</g>
</g>
<!-- Node1&#45;&gt;Node2 -->
<g id="edge1" class="edge"><title>Node1&#45;&gt;Node2</title>
<path fill="none" stroke="midnightblue" d="M87.6738,-35.5387C96.0323,-36.8195 104.912,-38.18 113.615,-39.5136"/>
<polygon fill="midnightblue" stroke="midnightblue" points="113.295,-43.0053 123.71,-41.0603 114.355,-36.086 113.295,-43.0053"/>
</g>
<!-- Node5 -->
<g id="node5" class="node"><title>Node5</title>
<g id="a_node5"><a xlink:href="../../d4/d40/group__string__i.html#ga65c3d08890165aaa4663c72d07f93bb7" target="_top" xlink:title="streq">
<polygon fill="none" stroke="black" points="151,-0.5 151,-19.5 189,-19.5 189,-0.5 151,-0.5"/>
<text text-anchor="middle" x="170" y="-7.5" font-family="Helvetica,sans-Serif" font-size="10.00">streq</text>
</a>
</g>
</g>
<!-- Node1&#45;&gt;Node5 -->
<g id="edge4" class="edge"><title>Node1&#45;&gt;Node5</title>
<path fill="none" stroke="midnightblue" d="M87.6738,-22.4613C105.205,-19.775 125.028,-16.7377 140.713,-14.3343"/>
<polygon fill="midnightblue" stroke="midnightblue" points="141.478,-17.758 150.832,-12.7837 140.418,-10.8388 141.478,-17.758"/>
</g>
<!-- Node3 -->
<g id="node3" class="node"><title>Node3</title>
<g id="a_node3"><a xlink:href="../../d4/d40/group__string__i.html#gad04895c77cc61acb068222c88d72dff0" target="_top" xlink:title="strcasepfx">
<polygon fill="none" stroke="black" points="252,-38.5 252,-57.5 314,-57.5 314,-38.5 252,-38.5"/>
<text text-anchor="middle" x="283" y="-45.5" font-family="Helvetica,sans-Serif" font-size="10.00">strcasepfx</text>
</a>
</g>
</g>
<!-- Node2&#45;&gt;Node3 -->
<g id="edge2" class="edge"><title>Node2&#45;&gt;Node3</title>
<path fill="none" stroke="midnightblue" d="M216.148,-48C224.588,-48 233.36,-48 241.644,-48"/>
<polygon fill="midnightblue" stroke="midnightblue" points="241.815,-51.5001 251.815,-48 241.815,-44.5001 241.815,-51.5001"/>
</g>
<!-- Node4 -->
<g id="node4" class="node"><title>Node4</title>
<g id="a_node4"><a xlink:href="../../d4/d40/group__string__i.html#ga9642181c8684012e619edccbc9f52d1c" target="_top" xlink:title="strncaseeq">
<polygon fill="none" stroke="black" points="350.5,-38.5 350.5,-57.5 415.5,-57.5 415.5,-38.5 350.5,-38.5"/>
<text text-anchor="middle" x="383" y="-45.5" font-family="Helvetica,sans-Serif" font-size="10.00">strncaseeq</text>
</a>
</g>
</g>
<!-- Node3&#45;&gt;Node4 -->
<g id="edge3" class="edge"><title>Node3&#45;&gt;Node4</title>
<path fill="none" stroke="midnightblue" d="M314.203,-48C322.449,-48 331.532,-48 340.297,-48"/>
<polygon fill="midnightblue" stroke="midnightblue" points="340.37,-51.5001 350.37,-48 340.37,-44.5001 340.37,-51.5001"/>
</g>
</g>
</svg>
