<?xml version="1.0" encoding="UTF-8" standalone="no"?>
<!DOCTYPE svg PUBLIC "-//W3C//DTD SVG 1.1//EN"
 "http://www.w3.org/Graphics/SVG/1.1/DTD/svg11.dtd">
<!-- Generated by graphviz version 2.36.0 (20140111.2315)
 -->
<!-- Title: handle_keyword Pages: 1 -->
<svg width="668pt" height="104pt"
 viewBox="0.00 0.00 668.00 104.00" xmlns="http://www.w3.org/2000/svg" xmlns:xlink="http://www.w3.org/1999/xlink">
<g id="graph0" class="graph" transform="scale(1 1) rotate(0) translate(4 100)">
<title>handle_keyword</title>
<!-- Node1 -->
<g id="node1" class="node"><title>Node1</title>
<polygon fill="#bfbfbf" stroke="black" points="0.5,-57.5 0.5,-76.5 87.5,-76.5 87.5,-57.5 0.5,-57.5"/>
<text text-anchor="middle" x="44" y="-64.5" font-family="Helvetica,sans-Serif" font-size="10.00">handle_keyword</text>
</g>
<!-- Node2 -->
<g id="node2" class="node"><title>Node2</title>
<g id="a_node2"><a xlink:href="../../dc/d42/confread_8c.html#a9390ef00603dacf4ebce48a5d7f19e8d" target="_top" xlink:title="load_conn">
<polygon fill="none" stroke="black" points="124.5,-57.5 124.5,-76.5 185.5,-76.5 185.5,-57.5 124.5,-57.5"/>
<text text-anchor="middle" x="155" y="-64.5" font-family="Helvetica,sans-Serif" font-size="10.00">load_conn</text>
</a>
</g>
</g>
<!-- Node1&#45;&gt;Node2 -->
<g id="edge1" class="edge"><title>Node1&#45;&gt;Node2</title>
<path fill="none" stroke="midnightblue" d="M97.9784,-67C107.093,-67 116.263,-67 124.47,-67"/>
<polygon fill="midnightblue" stroke="midnightblue" points="97.7669,-63.5001 87.7668,-67 97.7668,-70.5001 97.7669,-63.5001"/>
</g>
<!-- Node3 -->
<g id="node3" class="node"><title>Node3</title>
<g id="a_node3"><a xlink:href="../../dc/d19/confread_8h.html#a4ca8fdff466f4e6c6b9ef4140c3d5a93" target="_top" xlink:title="confread_load">
<polygon fill="none" stroke="black" points="235.5,-76.5 235.5,-95.5 312.5,-95.5 312.5,-76.5 235.5,-76.5"/>
<text text-anchor="middle" x="274" y="-83.5" font-family="Helvetica,sans-Serif" font-size="10.00">confread_load</text>
</a>
</g>
</g>
<!-- Node2&#45;&gt;Node3 -->
<g id="edge2" class="edge"><title>Node2&#45;&gt;Node3</title>
<path fill="none" stroke="midnightblue" d="M195.528,-73.4191C208.441,-75.5161 222.738,-77.8378 235.498,-79.9099"/>
<polygon fill="midnightblue" stroke="midnightblue" points="195.956,-69.9428 185.524,-71.7945 194.834,-76.8523 195.956,-69.9428"/>
</g>
<!-- Node5 -->
<g id="node5" class="node"><title>Node5</title>
<g id="a_node5"><a xlink:href="../../da/de3/vici__config_8c.html#a466ad41f3b7e4c86bf8b5909131f3f99" target="_top" xlink:title="manage_commands">
<polygon fill="none" stroke="black" points="222,-38.5 222,-57.5 326,-57.5 326,-38.5 222,-38.5"/>
<text text-anchor="middle" x="274" y="-45.5" font-family="Helvetica,sans-Serif" font-size="10.00">manage_commands</text>
</a>
</g>
</g>
<!-- Node2&#45;&gt;Node5 -->
<g id="edge4" class="edge"><title>Node2&#45;&gt;Node5</title>
<path fill="none" stroke="midnightblue" d="M195.436,-60.5959C203.846,-59.2302 212.846,-57.7686 221.629,-56.3423"/>
<polygon fill="midnightblue" stroke="midnightblue" points="194.834,-57.1477 185.524,-62.2055 195.956,-64.0572 194.834,-57.1477"/>
</g>
<!-- Node4 -->
<g id="node4" class="node"><title>Node4</title>
<g id="a_node4"><a xlink:href="../../db/dd6/starter_8c.html#a3c04138a5bfe5d72780bb7e82a18e627" target="_top" xlink:title="main">
<polygon fill="none" stroke="black" points="391,-76.5 391,-95.5 429,-95.5 429,-76.5 391,-76.5"/>
<text text-anchor="middle" x="410" y="-83.5" font-family="Helvetica,sans-Serif" font-size="10.00">main</text>
</a>
</g>
</g>
<!-- Node3&#45;&gt;Node4 -->
<g id="edge3" class="edge"><title>Node3&#45;&gt;Node4</title>
<path fill="none" stroke="midnightblue" d="M322.873,-86C346.43,-86 373.43,-86 390.825,-86"/>
<polygon fill="midnightblue" stroke="midnightblue" points="322.683,-82.5001 312.683,-86 322.683,-89.5001 322.683,-82.5001"/>
</g>
<!-- Node6 -->
<g id="node6" class="node"><title>Node6</title>
<g id="a_node6"><a xlink:href="../../da/de3/vici__config_8c.html#a749e3bc93bd23c80bb0baf33bca444c1" target="_top" xlink:title="METHOD">
<polygon fill="none" stroke="black" points="380,-38.5 380,-57.5 440,-57.5 440,-38.5 380,-38.5"/>
<text text-anchor="middle" x="410" y="-45.5" font-family="Helvetica,sans-Serif" font-size="10.00">METHOD</text>
</a>
</g>
</g>
<!-- Node5&#45;&gt;Node6 -->
<g id="edge5" class="edge"><title>Node5&#45;&gt;Node6</title>
<path fill="none" stroke="midnightblue" d="M336.414,-48C351.539,-48 367.047,-48 379.825,-48"/>
<polygon fill="midnightblue" stroke="midnightblue" points="336.042,-44.5001 326.042,-48 336.042,-51.5001 336.042,-44.5001"/>
</g>
<!-- Node7 -->
<g id="node7" class="node"><title>Node7</title>
<g id="a_node7"><a xlink:href="../../d1/d9c/group__vici__config.html#gaccd56c0526fffe0f0edc99483b8033c8" target="_top" xlink:title="vici_config_create">
<polygon fill="none" stroke="black" points="362.5,-0.5 362.5,-19.5 457.5,-19.5 457.5,-0.5 362.5,-0.5"/>
<text text-anchor="middle" x="410" y="-7.5" font-family="Helvetica,sans-Serif" font-size="10.00">vici_config_create</text>
</a>
</g>
</g>
<!-- Node5&#45;&gt;Node7 -->
<g id="edge6" class="edge"><title>Node5&#45;&gt;Node7</title>
<path fill="none" stroke="midnightblue" d="M318.438,-35.6817C336.849,-30.4607 357.98,-24.4684 375.197,-19.5859"/>
<polygon fill="midnightblue" stroke="midnightblue" points="317.48,-32.3155 308.814,-38.411 319.389,-39.0499 317.48,-32.3155"/>
</g>
<!-- Node8 -->
<g id="node8" class="node"><title>Node8</title>
<g id="a_node8"><a xlink:href="../../d1/d73/vici__plugin_8c.html#a2f71c61365cc9ae07eca95d2cec1c305" target="_top" xlink:title="register_vici">
<polygon fill="none" stroke="black" points="494.5,-0.5 494.5,-19.5 563.5,-19.5 563.5,-0.5 494.5,-0.5"/>
<text text-anchor="middle" x="529" y="-7.5" font-family="Helvetica,sans-Serif" font-size="10.00">register_vici</text>
</a>
</g>
</g>
<!-- Node7&#45;&gt;Node8 -->
<g id="edge7" class="edge"><title>Node7&#45;&gt;Node8</title>
<path fill="none" stroke="midnightblue" d="M467.731,-10C476.787,-10 485.898,-10 494.198,-10"/>
<polygon fill="midnightblue" stroke="midnightblue" points="467.578,-6.5001 457.578,-10 467.578,-13.5001 467.578,-6.5001"/>
</g>
<!-- Node9 -->
<g id="node9" class="node"><title>Node9</title>
<g id="a_node9"><a xlink:href="../../d1/d73/vici__plugin_8c.html#a0fb4568098134ff06cea5d8cbca4cc84" target="_top" xlink:title="METHOD">
<polygon fill="none" stroke="black" points="600,-0.5 600,-19.5 660,-19.5 660,-0.5 600,-0.5"/>
<text text-anchor="middle" x="630" y="-7.5" font-family="Helvetica,sans-Serif" font-size="10.00">METHOD</text>
</a>
</g>
</g>
<!-- Node8&#45;&gt;Node9 -->
<g id="edge8" class="edge"><title>Node8&#45;&gt;Node9</title>
<path fill="none" stroke="midnightblue" d="M573.708,-10C582.547,-10 591.634,-10 599.824,-10"/>
<polygon fill="midnightblue" stroke="midnightblue" points="573.517,-6.5001 563.517,-10 573.517,-13.5001 573.517,-6.5001"/>
</g>
</g>
</svg>
