<?xml version="1.0" encoding="UTF-8" standalone="no"?>
<!DOCTYPE svg PUBLIC "-//W3C//DTD SVG 1.1//EN"
 "http://www.w3.org/Graphics/SVG/1.1/DTD/svg11.dtd">
<!-- Generated by graphviz version 2.36.0 (20140111.2315)
 -->
<!-- Title: in_word_set Pages: 1 -->
<svg width="652pt" height="142pt"
 viewBox="0.00 0.00 652.00 142.00" xmlns="http://www.w3.org/2000/svg" xmlns:xlink="http://www.w3.org/1999/xlink">
<g id="graph0" class="graph" transform="scale(1 1) rotate(0) translate(4 138)">
<title>in_word_set</title>
<!-- Node1 -->
<g id="node1" class="node"><title>Node1</title>
<polygon fill="#bfbfbf" stroke="black" points="0.5,-57.5 0.5,-76.5 69.5,-76.5 69.5,-57.5 0.5,-57.5"/>
<text text-anchor="middle" x="35" y="-64.5" font-family="Helvetica,sans-Serif" font-size="10.00">in_word_set</text>
</g>
<!-- Node2 -->
<g id="node2" class="node"><title>Node2</title>
<g id="a_node2"><a xlink:href="../../dc/d42/confread_8c.html#a810515d98ee20d67495c2a45bfb4ef4c" target="_top" xlink:title="load_ca">
<polygon fill="none" stroke="black" points="113,-114.5 113,-133.5 163,-133.5 163,-114.5 113,-114.5"/>
<text text-anchor="middle" x="138" y="-121.5" font-family="Helvetica,sans-Serif" font-size="10.00">load_ca</text>
</a>
</g>
</g>
<!-- Node1&#45;&gt;Node2 -->
<g id="edge1" class="edge"><title>Node1&#45;&gt;Node2</title>
<path fill="none" stroke="midnightblue" d="M61.8595,-81.5939C80.1758,-91.9309 104.221,-105.501 120.12,-114.474"/>
<polygon fill="midnightblue" stroke="midnightblue" points="63.5624,-78.5361 53.1333,-76.6693 60.1219,-84.6323 63.5624,-78.5361"/>
</g>
<!-- Node5 -->
<g id="node5" class="node"><title>Node5</title>
<g id="a_node5"><a xlink:href="../../dc/d42/confread_8c.html#a9390ef00603dacf4ebce48a5d7f19e8d" target="_top" xlink:title="load_conn">
<polygon fill="none" stroke="black" points="107.5,-38.5 107.5,-57.5 168.5,-57.5 168.5,-38.5 107.5,-38.5"/>
<text text-anchor="middle" x="138" y="-45.5" font-family="Helvetica,sans-Serif" font-size="10.00">load_conn</text>
</a>
</g>
</g>
<!-- Node1&#45;&gt;Node5 -->
<g id="edge4" class="edge"><title>Node1&#45;&gt;Node5</title>
<path fill="none" stroke="midnightblue" d="M79.5763,-58.8025C88.9147,-57.0458 98.575,-55.2285 107.247,-53.5971"/>
<polygon fill="midnightblue" stroke="midnightblue" points="78.8121,-55.3848 69.6315,-60.6733 80.1063,-62.2641 78.8121,-55.3848"/>
</g>
<!-- Node11 -->
<g id="node11" class="node"><title>Node11</title>
<g id="a_node11"><a xlink:href="../../dc/d42/confread_8c.html#a8edbea4eee4aec63ea2e377174ae22db" target="_top" xlink:title="load_setup">
<polygon fill="none" stroke="black" points="106,-76.5 106,-95.5 170,-95.5 170,-76.5 106,-76.5"/>
<text text-anchor="middle" x="138" y="-83.5" font-family="Helvetica,sans-Serif" font-size="10.00">load_setup</text>
</a>
</g>
</g>
<!-- Node1&#45;&gt;Node11 -->
<g id="edge11" class="edge"><title>Node1&#45;&gt;Node11</title>
<path fill="none" stroke="midnightblue" d="M79.4807,-75.1795C88.369,-76.8516 97.5531,-78.5793 105.903,-80.15"/>
<polygon fill="midnightblue" stroke="midnightblue" points="80.1063,-71.7359 69.6315,-73.3267 78.8121,-78.6152 80.1063,-71.7359"/>
</g>
<!-- Node12 -->
<g id="node12" class="node"><title>Node12</title>
<g id="a_node12"><a xlink:href="../../d9/d93/stroke_8c.html#a0ddf1224851353fc92bfbff6f499fa97" target="_top" xlink:title="main">
<polygon fill="none" stroke="black" points="119,-0.5 119,-19.5 157,-19.5 157,-0.5 119,-0.5"/>
<text text-anchor="middle" x="138" y="-7.5" font-family="Helvetica,sans-Serif" font-size="10.00">main</text>
</a>
</g>
</g>
<!-- Node1&#45;&gt;Node12 -->
<g id="edge13" class="edge"><title>Node1&#45;&gt;Node12</title>
<path fill="none" stroke="midnightblue" d="M61.8595,-52.4061C80.1758,-42.0691 104.221,-28.4991 120.12,-19.5265"/>
<polygon fill="midnightblue" stroke="midnightblue" points="60.1219,-49.3677 53.1333,-57.3307 63.5624,-55.4639 60.1219,-49.3677"/>
</g>
<!-- Node3 -->
<g id="node3" class="node"><title>Node3</title>
<g id="a_node3"><a xlink:href="../../dc/d19/confread_8h.html#a4ca8fdff466f4e6c6b9ef4140c3d5a93" target="_top" xlink:title="confread_load">
<polygon fill="none" stroke="black" points="219.5,-76.5 219.5,-95.5 296.5,-95.5 296.5,-76.5 219.5,-76.5"/>
<text text-anchor="middle" x="258" y="-83.5" font-family="Helvetica,sans-Serif" font-size="10.00">confread_load</text>
</a>
</g>
</g>
<!-- Node2&#45;&gt;Node3 -->
<g id="edge2" class="edge"><title>Node2&#45;&gt;Node3</title>
<path fill="none" stroke="midnightblue" d="M172.847,-113.1C190.083,-107.55 210.843,-100.864 227.431,-95.5223"/>
<polygon fill="midnightblue" stroke="midnightblue" points="171.61,-109.822 163.164,-116.218 173.755,-116.485 171.61,-109.822"/>
</g>
<!-- Node4 -->
<g id="node4" class="node"><title>Node4</title>
<g id="a_node4"><a xlink:href="../../db/dd6/starter_8c.html#a3c04138a5bfe5d72780bb7e82a18e627" target="_top" xlink:title="main">
<polygon fill="none" stroke="black" points="375,-76.5 375,-95.5 413,-95.5 413,-76.5 375,-76.5"/>
<text text-anchor="middle" x="394" y="-83.5" font-family="Helvetica,sans-Serif" font-size="10.00">main</text>
</a>
</g>
</g>
<!-- Node3&#45;&gt;Node4 -->
<g id="edge3" class="edge"><title>Node3&#45;&gt;Node4</title>
<path fill="none" stroke="midnightblue" d="M306.873,-86C330.43,-86 357.43,-86 374.825,-86"/>
<polygon fill="midnightblue" stroke="midnightblue" points="306.683,-82.5001 296.683,-86 306.683,-89.5001 306.683,-82.5001"/>
</g>
<!-- Node5&#45;&gt;Node3 -->
<g id="edge5" class="edge"><title>Node5&#45;&gt;Node3</title>
<path fill="none" stroke="midnightblue" d="M178.376,-60.6804C194.32,-65.8148 212.421,-71.6441 227.233,-76.4141"/>
<polygon fill="midnightblue" stroke="midnightblue" points="179.368,-57.3229 168.776,-57.589 177.222,-63.9859 179.368,-57.3229"/>
</g>
<!-- Node6 -->
<g id="node6" class="node"><title>Node6</title>
<g id="a_node6"><a xlink:href="../../da/de3/vici__config_8c.html#a466ad41f3b7e4c86bf8b5909131f3f99" target="_top" xlink:title="manage_commands">
<polygon fill="none" stroke="black" points="206,-38.5 206,-57.5 310,-57.5 310,-38.5 206,-38.5"/>
<text text-anchor="middle" x="258" y="-45.5" font-family="Helvetica,sans-Serif" font-size="10.00">manage_commands</text>
</a>
</g>
</g>
<!-- Node5&#45;&gt;Node6 -->
<g id="edge6" class="edge"><title>Node5&#45;&gt;Node6</title>
<path fill="none" stroke="midnightblue" d="M178.9,-48C187.493,-48 196.692,-48 205.651,-48"/>
<polygon fill="midnightblue" stroke="midnightblue" points="178.776,-44.5001 168.776,-48 178.776,-51.5001 178.776,-44.5001"/>
</g>
<!-- Node7 -->
<g id="node7" class="node"><title>Node7</title>
<g id="a_node7"><a xlink:href="../../da/de3/vici__config_8c.html#a749e3bc93bd23c80bb0baf33bca444c1" target="_top" xlink:title="METHOD">
<polygon fill="none" stroke="black" points="364,-38.5 364,-57.5 424,-57.5 424,-38.5 364,-38.5"/>
<text text-anchor="middle" x="394" y="-45.5" font-family="Helvetica,sans-Serif" font-size="10.00">METHOD</text>
</a>
</g>
</g>
<!-- Node6&#45;&gt;Node7 -->
<g id="edge7" class="edge"><title>Node6&#45;&gt;Node7</title>
<path fill="none" stroke="midnightblue" d="M320.414,-48C335.539,-48 351.047,-48 363.825,-48"/>
<polygon fill="midnightblue" stroke="midnightblue" points="320.042,-44.5001 310.042,-48 320.042,-51.5001 320.042,-44.5001"/>
</g>
<!-- Node8 -->
<g id="node8" class="node"><title>Node8</title>
<g id="a_node8"><a xlink:href="../../d1/d9c/group__vici__config.html#gaccd56c0526fffe0f0edc99483b8033c8" target="_top" xlink:title="vici_config_create">
<polygon fill="none" stroke="black" points="346.5,-0.5 346.5,-19.5 441.5,-19.5 441.5,-0.5 346.5,-0.5"/>
<text text-anchor="middle" x="394" y="-7.5" font-family="Helvetica,sans-Serif" font-size="10.00">vici_config_create</text>
</a>
</g>
</g>
<!-- Node6&#45;&gt;Node8 -->
<g id="edge8" class="edge"><title>Node6&#45;&gt;Node8</title>
<path fill="none" stroke="midnightblue" d="M302.438,-35.6817C320.849,-30.4607 341.98,-24.4684 359.197,-19.5859"/>
<polygon fill="midnightblue" stroke="midnightblue" points="301.48,-32.3155 292.814,-38.411 303.389,-39.0499 301.48,-32.3155"/>
</g>
<!-- Node9 -->
<g id="node9" class="node"><title>Node9</title>
<g id="a_node9"><a xlink:href="../../d1/d73/vici__plugin_8c.html#a2f71c61365cc9ae07eca95d2cec1c305" target="_top" xlink:title="register_vici">
<polygon fill="none" stroke="black" points="478.5,-0.5 478.5,-19.5 547.5,-19.5 547.5,-0.5 478.5,-0.5"/>
<text text-anchor="middle" x="513" y="-7.5" font-family="Helvetica,sans-Serif" font-size="10.00">register_vici</text>
</a>
</g>
</g>
<!-- Node8&#45;&gt;Node9 -->
<g id="edge9" class="edge"><title>Node8&#45;&gt;Node9</title>
<path fill="none" stroke="midnightblue" d="M451.731,-10C460.787,-10 469.898,-10 478.198,-10"/>
<polygon fill="midnightblue" stroke="midnightblue" points="451.578,-6.5001 441.578,-10 451.578,-13.5001 451.578,-6.5001"/>
</g>
<!-- Node10 -->
<g id="node10" class="node"><title>Node10</title>
<g id="a_node10"><a xlink:href="../../d1/d73/vici__plugin_8c.html#a0fb4568098134ff06cea5d8cbca4cc84" target="_top" xlink:title="METHOD">
<polygon fill="none" stroke="black" points="584,-0.5 584,-19.5 644,-19.5 644,-0.5 584,-0.5"/>
<text text-anchor="middle" x="614" y="-7.5" font-family="Helvetica,sans-Serif" font-size="10.00">METHOD</text>
</a>
</g>
</g>
<!-- Node9&#45;&gt;Node10 -->
<g id="edge10" class="edge"><title>Node9&#45;&gt;Node10</title>
<path fill="none" stroke="midnightblue" d="M557.708,-10C566.547,-10 575.634,-10 583.824,-10"/>
<polygon fill="midnightblue" stroke="midnightblue" points="557.517,-6.5001 547.517,-10 557.517,-13.5001 557.517,-6.5001"/>
</g>
<!-- Node11&#45;&gt;Node3 -->
<g id="edge12" class="edge"><title>Node11&#45;&gt;Node3</title>
<path fill="none" stroke="midnightblue" d="M180.353,-86C193.083,-86 207.019,-86 219.477,-86"/>
<polygon fill="midnightblue" stroke="midnightblue" points="180.003,-82.5001 170.003,-86 180.003,-89.5001 180.003,-82.5001"/>
</g>
</g>
</svg>
