<?xml version="1.0" encoding="UTF-8" standalone="no"?>
<!DOCTYPE svg PUBLIC "-//W3C//DTD SVG 1.1//EN"
 "http://www.w3.org/Graphics/SVG/1.1/DTD/svg11.dtd">
<!-- Generated by graphviz version 2.36.0 (20140111.2315)
 -->
<!-- Title: dnskey_encoder.c Pages: 1 -->
<svg width="2890pt" height="556pt"
 viewBox="0.00 0.00 2890.00 556.00" xmlns="http://www.w3.org/2000/svg" xmlns:xlink="http://www.w3.org/1999/xlink">
<g id="graph0" class="graph" transform="scale(1 1) rotate(0) translate(4 552)">
<title>dnskey_encoder.c</title>
<!-- Node1 -->
<g id="node1" class="node"><title>Node1</title>
<polygon fill="#bfbfbf" stroke="black" points="924,-528.5 924,-547.5 1020,-547.5 1020,-528.5 924,-528.5"/>
<text text-anchor="middle" x="972" y="-535.5" font-family="Helvetica,sans-Serif" font-size="10.00">dnskey_encoder.c</text>
</g>
<!-- Node2 -->
<g id="node2" class="node"><title>Node2</title>
<g id="a_node2"><a xlink:href="../../de/d29/dnskey__encoder_8h.html" target="_top" xlink:title="dnskey_encoder.h">
<polygon fill="none" stroke="black" points="1170,-472.5 1170,-491.5 1266,-491.5 1266,-472.5 1170,-472.5"/>
<text text-anchor="middle" x="1218" y="-479.5" font-family="Helvetica,sans-Serif" font-size="10.00">dnskey_encoder.h</text>
</a>
</g>
</g>
<!-- Node1&#45;&gt;Node2 -->
<g id="edge1" class="edge"><title>Node1&#45;&gt;Node2</title>
<path fill="none" stroke="midnightblue" d="M1010.98,-528.444C1053.89,-519.023 1122.95,-503.866 1169.37,-493.675"/>
<polygon fill="midnightblue" stroke="midnightblue" points="1170.19,-497.079 1179.2,-491.516 1168.69,-490.242 1170.19,-497.079"/>
</g>
<!-- Node48 -->
<g id="node48" class="node"><title>Node48</title>
<g id="a_node48"><a xlink:href="../../db/d16/debug_8h.html" target="_top" xlink:title="utils/debug.h">
<polygon fill="none" stroke="black" points="720,-236.5 720,-255.5 792,-255.5 792,-236.5 720,-236.5"/>
<text text-anchor="middle" x="756" y="-243.5" font-family="Helvetica,sans-Serif" font-size="10.00">utils/debug.h</text>
</a>
</g>
</g>
<!-- Node1&#45;&gt;Node48 -->
<g id="edge69" class="edge"><title>Node1&#45;&gt;Node48</title>
<path fill="none" stroke="midnightblue" d="M923.985,-536.186C852.394,-532.143 726,-512.848 726,-427 726,-427 726,-427 726,-369 726,-331.171 739.77,-288.602 748.652,-265.079"/>
<polygon fill="midnightblue" stroke="midnightblue" points="751.938,-266.285 752.321,-255.697 745.419,-263.735 751.938,-266.285"/>
</g>
<!-- Node3 -->
<g id="node3" class="node"><title>Node3</title>
<g id="a_node3"><a xlink:href="../../d6/d2f/cred__encoding_8h.html" target="_top" xlink:title="credentials/cred_encoding.h">
<polygon fill="none" stroke="black" points="1566,-416.5 1566,-435.5 1704,-435.5 1704,-416.5 1566,-416.5"/>
<text text-anchor="middle" x="1635" y="-423.5" font-family="Helvetica,sans-Serif" font-size="10.00">credentials/cred_encoding.h</text>
</a>
</g>
</g>
<!-- Node2&#45;&gt;Node3 -->
<g id="edge2" class="edge"><title>Node2&#45;&gt;Node3</title>
<path fill="none" stroke="midnightblue" d="M1266.24,-474.753C1338.04,-465.455 1473.67,-447.891 1558.92,-436.852"/>
<polygon fill="midnightblue" stroke="midnightblue" points="1559.59,-440.294 1569.06,-435.539 1558.69,-433.352 1559.59,-440.294"/>
</g>
<!-- Node4 -->
<g id="node4" class="node"><title>Node4</title>
<g id="a_node4"><a xlink:href="../../dd/d08/library_8h.html" target="_top" xlink:title="library.h">
<polygon fill="none" stroke="black" points="1609.5,-360.5 1609.5,-379.5 1660.5,-379.5 1660.5,-360.5 1609.5,-360.5"/>
<text text-anchor="middle" x="1635" y="-367.5" font-family="Helvetica,sans-Serif" font-size="10.00">library.h</text>
</a>
</g>
</g>
<!-- Node3&#45;&gt;Node4 -->
<g id="edge3" class="edge"><title>Node3&#45;&gt;Node4</title>
<path fill="none" stroke="midnightblue" d="M1629.83,-416.083C1628.32,-408.927 1627.89,-398.635 1628.54,-389.691"/>
<polygon fill="midnightblue" stroke="midnightblue" points="1632.02,-390.126 1629.87,-379.751 1625.08,-389.2 1632.02,-390.126"/>
</g>
<!-- Node4&#45;&gt;Node3 -->
<g id="edge52" class="edge"><title>Node4&#45;&gt;Node3</title>
<path fill="none" stroke="midnightblue" d="M1640.13,-379.751C1641.66,-386.858 1642.1,-397.136 1641.47,-406.101"/>
<polygon fill="midnightblue" stroke="midnightblue" points="1637.99,-405.713 1640.17,-416.083 1644.93,-406.622 1637.99,-405.713"/>
</g>
<!-- Node5 -->
<g id="node5" class="node"><title>Node5</title>
<g id="a_node5"><a xlink:href="../../dc/d6a/printf__hook_8h.html" target="_top" xlink:title="utils/printf_hook/printf\l_hook.h">
<polygon fill="none" stroke="black" points="2172,-57 2172,-87 2282,-87 2282,-57 2172,-57"/>
<text text-anchor="start" x="2180" y="-75" font-family="Helvetica,sans-Serif" font-size="10.00">utils/printf_hook/printf</text>
<text text-anchor="middle" x="2227" y="-64" font-family="Helvetica,sans-Serif" font-size="10.00">_hook.h</text>
</a>
</g>
</g>
<!-- Node4&#45;&gt;Node5 -->
<g id="edge4" class="edge"><title>Node4&#45;&gt;Node5</title>
<path fill="none" stroke="midnightblue" d="M1660.75,-368.716C1830.32,-366.759 2781.49,-354.448 2834,-324 2868.89,-303.772 2882,-287.327 2882,-247 2882,-247 2882,-247 2882,-189 2882,-129.543 2458.13,-90.6785 2292.35,-77.7519"/>
<polygon fill="midnightblue" stroke="midnightblue" points="2292.52,-74.2549 2282.28,-76.9741 2291.98,-81.2341 2292.52,-74.2549"/>
</g>
<!-- Node7 -->
<g id="node7" class="node"><title>Node7</title>
<g id="a_node7"><a xlink:href="../../d5/d60/utils_8h.html" target="_top" xlink:title="utils/utils.h">
<polygon fill="none" stroke="black" points="948,-180.5 948,-199.5 1012,-199.5 1012,-180.5 948,-180.5"/>
<text text-anchor="middle" x="980" y="-187.5" font-family="Helvetica,sans-Serif" font-size="10.00">utils/utils.h</text>
</a>
</g>
</g>
<!-- Node4&#45;&gt;Node7 -->
<g id="edge6" class="edge"><title>Node4&#45;&gt;Node7</title>
<path fill="none" stroke="midnightblue" d="M1609.19,-368.475C1497.07,-366.02 1055.41,-354.473 1002,-324 970.09,-305.793 965.941,-291.072 955,-256 949.843,-239.468 958.283,-221.087 966.719,-208.102"/>
<polygon fill="midnightblue" stroke="midnightblue" points="969.743,-209.887 972.667,-199.704 964.031,-205.842 969.743,-209.887"/>
</g>
<!-- Node31 -->
<g id="node31" class="node"><title>Node31</title>
<g id="a_node31"><a xlink:href="../../d2/d0c/host__resolver_8h.html" target="_top" xlink:title="networking/host_resolver.h">
<polygon fill="none" stroke="red" points="1040,-298.5 1040,-317.5 1174,-317.5 1174,-298.5 1040,-298.5"/>
<text text-anchor="middle" x="1107" y="-305.5" font-family="Helvetica,sans-Serif" font-size="10.00">networking/host_resolver.h</text>
</a>
</g>
</g>
<!-- Node4&#45;&gt;Node31 -->
<g id="edge32" class="edge"><title>Node4&#45;&gt;Node31</title>
<path fill="none" stroke="midnightblue" d="M1609.41,-367.314C1540.34,-362.578 1344.48,-347.918 1183,-324 1174.3,-322.711 1165.09,-321.103 1156.19,-319.421"/>
<polygon fill="midnightblue" stroke="midnightblue" points="1156.81,-315.975 1146.32,-317.505 1155.47,-322.847 1156.81,-315.975"/>
</g>
<!-- Node32 -->
<g id="node32" class="node"><title>Node32</title>
<g id="a_node32"><a xlink:href="../../d7/d82/stream__manager_8h.html" target="_top" xlink:title="networking/streams\l/stream_manager.h">
<polygon fill="none" stroke="red" points="1192,-293 1192,-323 1294,-323 1294,-293 1192,-293"/>
<text text-anchor="start" x="1200" y="-311" font-family="Helvetica,sans-Serif" font-size="10.00">networking/streams</text>
<text text-anchor="middle" x="1243" y="-300" font-family="Helvetica,sans-Serif" font-size="10.00">/stream_manager.h</text>
</a>
</g>
</g>
<!-- Node4&#45;&gt;Node32 -->
<g id="edge33" class="edge"><title>Node4&#45;&gt;Node32</title>
<path fill="none" stroke="midnightblue" d="M1609.45,-366.956C1553.73,-361.817 1418.21,-347.22 1299.2,-324.941"/>
<polygon fill="midnightblue" stroke="midnightblue" points="1299.68,-321.47 1289.2,-323.043 1298.37,-328.347 1299.68,-321.47"/>
</g>
<!-- Node33 -->
<g id="node33" class="node"><title>Node33</title>
<g id="a_node33"><a xlink:href="../../d9/d99/processor_8h.html" target="_top" xlink:title="processing/processor.h">
<polygon fill="none" stroke="red" points="2516,-236.5 2516,-255.5 2634,-255.5 2634,-236.5 2516,-236.5"/>
<text text-anchor="middle" x="2575" y="-243.5" font-family="Helvetica,sans-Serif" font-size="10.00">processing/processor.h</text>
</a>
</g>
</g>
<!-- Node4&#45;&gt;Node33 -->
<g id="edge35" class="edge"><title>Node4&#45;&gt;Node33</title>
<path fill="none" stroke="midnightblue" d="M1660.57,-369.009C1827.6,-368.929 2756.09,-366.513 2797,-324 2847.23,-271.805 2726.72,-254.985 2644.24,-249.569"/>
<polygon fill="midnightblue" stroke="midnightblue" points="2644.33,-246.068 2634.13,-248.949 2643.9,-253.055 2644.33,-246.068"/>
</g>
<!-- Node34 -->
<g id="node34" class="node"><title>Node34</title>
<g id="a_node34"><a xlink:href="../../d2/dd8/scheduler_8h.html" target="_top" xlink:title="processing/scheduler.h">
<polygon fill="none" stroke="red" points="1312.5,-298.5 1312.5,-317.5 1429.5,-317.5 1429.5,-298.5 1312.5,-298.5"/>
<text text-anchor="middle" x="1371" y="-305.5" font-family="Helvetica,sans-Serif" font-size="10.00">processing/scheduler.h</text>
</a>
</g>
</g>
<!-- Node4&#45;&gt;Node34 -->
<g id="edge39" class="edge"><title>Node4&#45;&gt;Node34</title>
<path fill="none" stroke="midnightblue" d="M1609.48,-364.09C1564.07,-354.499 1469.29,-333.07 1413.8,-319.944"/>
<polygon fill="midnightblue" stroke="midnightblue" points="1414.45,-316.502 1403.92,-317.595 1412.84,-323.312 1414.45,-316.502"/>
</g>
<!-- Node35 -->
<g id="node35" class="node"><title>Node35</title>
<g id="a_node35"><a xlink:href="../../dd/d33/watcher_8h.html" target="_top" xlink:title="processing/watcher.h">
<polygon fill="none" stroke="black" points="1448,-298.5 1448,-317.5 1558,-317.5 1558,-298.5 1448,-298.5"/>
<text text-anchor="middle" x="1503" y="-305.5" font-family="Helvetica,sans-Serif" font-size="10.00">processing/watcher.h</text>
</a>
</g>
</g>
<!-- Node4&#45;&gt;Node35 -->
<g id="edge41" class="edge"><title>Node4&#45;&gt;Node35</title>
<path fill="none" stroke="midnightblue" d="M1611.19,-360.403C1586.96,-350.379 1550.01,-333.701 1526.07,-322.07"/>
<polygon fill="midnightblue" stroke="midnightblue" points="1527.5,-318.872 1516.98,-317.581 1524.4,-325.148 1527.5,-318.872"/>
</g>
<!-- Node36 -->
<g id="node36" class="node"><title>Node36</title>
<g id="a_node36"><a xlink:href="../../d4/d1b/crypto__factory_8h.html" target="_top" xlink:title="crypto/crypto_factory.h">
<polygon fill="none" stroke="red" points="1576.5,-298.5 1576.5,-317.5 1693.5,-317.5 1693.5,-298.5 1576.5,-298.5"/>
<text text-anchor="middle" x="1635" y="-305.5" font-family="Helvetica,sans-Serif" font-size="10.00">crypto/crypto_factory.h</text>
</a>
</g>
</g>
<!-- Node4&#45;&gt;Node36 -->
<g id="edge43" class="edge"><title>Node4&#45;&gt;Node36</title>
<path fill="none" stroke="midnightblue" d="M1630.1,-360.403C1628.27,-351.938 1627.8,-338.728 1628.69,-327.82"/>
<polygon fill="midnightblue" stroke="midnightblue" points="1632.2,-327.966 1630.1,-317.581 1625.26,-327.006 1632.2,-327.966"/>
</g>
<!-- Node37 -->
<g id="node37" class="node"><title>Node37</title>
<g id="a_node37"><a xlink:href="../../d3/dc3/proposal__keywords_8h.html" target="_top" xlink:title="crypto/proposal/proposal\l_keywords.h">
<polygon fill="none" stroke="red" points="1711.5,-293 1711.5,-323 1834.5,-323 1834.5,-293 1711.5,-293"/>
<text text-anchor="start" x="1719.5" y="-311" font-family="Helvetica,sans-Serif" font-size="10.00">crypto/proposal/proposal</text>
<text text-anchor="middle" x="1773" y="-300" font-family="Helvetica,sans-Serif" font-size="10.00">_keywords.h</text>
</a>
</g>
</g>
<!-- Node4&#45;&gt;Node37 -->
<g id="edge45" class="edge"><title>Node4&#45;&gt;Node37</title>
<path fill="none" stroke="midnightblue" d="M1649.87,-360.403C1667.97,-351.717 1698.99,-338.035 1725.43,-326.969"/>
<polygon fill="midnightblue" stroke="midnightblue" points="1727.03,-330.093 1734.93,-323.025 1724.35,-323.628 1727.03,-330.093"/>
</g>
<!-- Node38 -->
<g id="node38" class="node"><title>Node38</title>
<g id="a_node38"><a xlink:href="../../d3/db8/fetcher__manager_8h.html" target="_top" xlink:title="fetcher/fetcher_manager.h">
<polygon fill="none" stroke="red" points="1852.5,-298.5 1852.5,-317.5 1983.5,-317.5 1983.5,-298.5 1852.5,-298.5"/>
<text text-anchor="middle" x="1918" y="-305.5" font-family="Helvetica,sans-Serif" font-size="10.00">fetcher/fetcher_manager.h</text>
</a>
</g>
</g>
<!-- Node4&#45;&gt;Node38 -->
<g id="edge47" class="edge"><title>Node4&#45;&gt;Node38</title>
<path fill="none" stroke="midnightblue" d="M1660.61,-363.57C1707.3,-353.671 1807.02,-332.529 1867.72,-319.661"/>
<polygon fill="midnightblue" stroke="midnightblue" points="1868.78,-323.012 1877.84,-317.514 1867.33,-316.164 1868.78,-323.012"/>
</g>
<!-- Node39 -->
<g id="node39" class="node"><title>Node39</title>
<g id="a_node39"><a xlink:href="../../d0/d65/resolver__manager_8h.html" target="_top" xlink:title="resolver/resolver_manager.h">
<polygon fill="none" stroke="red" points="2002,-298.5 2002,-317.5 2142,-317.5 2142,-298.5 2002,-298.5"/>
<text text-anchor="middle" x="2072" y="-305.5" font-family="Helvetica,sans-Serif" font-size="10.00">resolver/resolver_manager.h</text>
</a>
</g>
</g>
<!-- Node4&#45;&gt;Node39 -->
<g id="edge48" class="edge"><title>Node4&#45;&gt;Node39</title>
<path fill="none" stroke="midnightblue" d="M1660.61,-366.305C1719.36,-360.007 1868.26,-343.382 1992,-324 2000.72,-322.634 2009.95,-321.041 2018.93,-319.413"/>
<polygon fill="midnightblue" stroke="midnightblue" points="2019.7,-322.829 2028.9,-317.571 2018.43,-315.945 2019.7,-322.829"/>
</g>
<!-- Node40 -->
<g id="node40" class="node"><title>Node40</title>
<g id="a_node40"><a xlink:href="../../d7/db6/database__factory_8h.html" target="_top" xlink:title="database/database_factory.h">
<polygon fill="none" stroke="red" points="2160.5,-298.5 2160.5,-317.5 2303.5,-317.5 2303.5,-298.5 2160.5,-298.5"/>
<text text-anchor="middle" x="2232" y="-305.5" font-family="Helvetica,sans-Serif" font-size="10.00">database/database_factory.h</text>
</a>
</g>
</g>
<!-- Node4&#45;&gt;Node40 -->
<g id="edge49" class="edge"><title>Node4&#45;&gt;Node40</title>
<path fill="none" stroke="midnightblue" d="M1660.6,-367.641C1735.99,-363.452 1963.66,-349.456 2151,-324 2160.47,-322.714 2170.51,-321.078 2180.18,-319.362"/>
<polygon fill="midnightblue" stroke="midnightblue" points="2180.87,-322.793 2190.08,-317.556 2179.62,-315.906 2180.87,-322.793"/>
</g>
<!-- Node41 -->
<g id="node41" class="node"><title>Node41</title>
<g id="a_node41"><a xlink:href="../../d3/dc9/credential__factory_8h.html" target="_top" xlink:title="credentials/credential\l_factory.h">
<polygon fill="none" stroke="red" points="2321.5,-293 2321.5,-323 2430.5,-323 2430.5,-293 2321.5,-293"/>
<text text-anchor="start" x="2329.5" y="-311" font-family="Helvetica,sans-Serif" font-size="10.00">credentials/credential</text>
<text text-anchor="middle" x="2376" y="-300" font-family="Helvetica,sans-Serif" font-size="10.00">_factory.h</text>
</a>
</g>
</g>
<!-- Node4&#45;&gt;Node41 -->
<g id="edge50" class="edge"><title>Node4&#45;&gt;Node41</title>
<path fill="none" stroke="midnightblue" d="M1660.68,-368.804C1749.54,-367.811 2052.25,-361.793 2311.33,-323.919"/>
<polygon fill="midnightblue" stroke="midnightblue" points="2311.92,-327.369 2321.3,-322.442 2310.9,-320.445 2311.92,-327.369"/>
</g>
<!-- Node42 -->
<g id="node42" class="node"><title>Node42</title>
<g id="a_node42"><a xlink:href="../../d1/db3/credential__manager_8h.html" target="_top" xlink:title="credentials/credential\l_manager.h">
<polygon fill="none" stroke="red" points="2448.5,-293 2448.5,-323 2557.5,-323 2557.5,-293 2448.5,-293"/>
<text text-anchor="start" x="2456.5" y="-311" font-family="Helvetica,sans-Serif" font-size="10.00">credentials/credential</text>
<text text-anchor="middle" x="2503" y="-300" font-family="Helvetica,sans-Serif" font-size="10.00">_manager.h</text>
</a>
</g>
</g>
<!-- Node4&#45;&gt;Node42 -->
<g id="edge51" class="edge"><title>Node4&#45;&gt;Node42</title>
<path fill="none" stroke="midnightblue" d="M1660.51,-369.183C1759.39,-369.559 2126.91,-367.84 2438.19,-323.926"/>
<polygon fill="midnightblue" stroke="midnightblue" points="2438.9,-327.359 2448.31,-322.48 2437.91,-320.429 2438.9,-327.359"/>
</g>
<!-- Node43 -->
<g id="node43" class="node"><title>Node43</title>
<g id="a_node43"><a xlink:href="../../dd/dd5/chunk_8h.html" target="_top" xlink:title="utils/chunk.h">
<polygon fill="none" stroke="red" points="1265,-236.5 1265,-255.5 1337,-255.5 1337,-236.5 1265,-236.5"/>
<text text-anchor="middle" x="1301" y="-243.5" font-family="Helvetica,sans-Serif" font-size="10.00">utils/chunk.h</text>
</a>
</g>
</g>
<!-- Node4&#45;&gt;Node43 -->
<g id="edge53" class="edge"><title>Node4&#45;&gt;Node43</title>
<path fill="none" stroke="midnightblue" d="M1609.47,-369.091C1499.6,-369.223 1070.88,-366.964 1031,-324 965.554,-253.497 1161.47,-245.935 1254.68,-246.171"/>
<polygon fill="midnightblue" stroke="midnightblue" points="1254.69,-249.671 1264.71,-246.228 1254.73,-242.671 1254.69,-249.671"/>
</g>
<!-- Node44 -->
<g id="node44" class="node"><title>Node44</title>
<g id="a_node44"><a xlink:href="../../d8/d14/capabilities_8h.html" target="_top" xlink:title="utils/capabilities.h">
<polygon fill="none" stroke="black" points="2575.5,-298.5 2575.5,-317.5 2670.5,-317.5 2670.5,-298.5 2575.5,-298.5"/>
<text text-anchor="middle" x="2623" y="-305.5" font-family="Helvetica,sans-Serif" font-size="10.00">utils/capabilities.h</text>
</a>
</g>
</g>
<!-- Node4&#45;&gt;Node44 -->
<g id="edge57" class="edge"><title>Node4&#45;&gt;Node44</title>
<path fill="none" stroke="midnightblue" d="M1660.54,-368.428C1790.36,-365.564 2376.47,-351.803 2557,-324 2563.52,-322.995 2570.38,-321.545 2577.13,-319.937"/>
<polygon fill="midnightblue" stroke="midnightblue" points="2578.03,-323.318 2586.89,-317.502 2576.34,-316.526 2578.03,-323.318"/>
</g>
<!-- Node45 -->
<g id="node45" class="node"><title>Node45</title>
<g id="a_node45"><a xlink:href="../../df/d43/integrity__checker_8h.html" target="_top" xlink:title="utils/integrity_checker.h">
<polygon fill="none" stroke="black" points="964,-236.5 964,-255.5 1084,-255.5 1084,-236.5 964,-236.5"/>
<text text-anchor="middle" x="1024" y="-243.5" font-family="Helvetica,sans-Serif" font-size="10.00">utils/integrity_checker.h</text>
</a>
</g>
</g>
<!-- Node4&#45;&gt;Node45 -->
<g id="edge59" class="edge"><title>Node4&#45;&gt;Node45</title>
<path fill="none" stroke="midnightblue" d="M1609.13,-369.148C1496.79,-369.525 1055.09,-368.175 1014,-324 999.341,-308.24 1006.86,-282.187 1014.59,-264.81"/>
<polygon fill="midnightblue" stroke="midnightblue" points="1017.78,-266.25 1019,-255.725 1011.48,-263.192 1017.78,-266.25"/>
</g>
<!-- Node46 -->
<g id="node46" class="node"><title>Node46</title>
<g id="a_node46"><a xlink:href="../../de/d86/leak__detective_8h.html" target="_top" xlink:title="utils/leak_detective.h">
<polygon fill="none" stroke="red" points="2688.5,-298.5 2688.5,-317.5 2797.5,-317.5 2797.5,-298.5 2688.5,-298.5"/>
<text text-anchor="middle" x="2743" y="-305.5" font-family="Helvetica,sans-Serif" font-size="10.00">utils/leak_detective.h</text>
</a>
</g>
</g>
<!-- Node4&#45;&gt;Node46 -->
<g id="edge61" class="edge"><title>Node4&#45;&gt;Node46</title>
<path fill="none" stroke="midnightblue" d="M1660.65,-368.496C1799.99,-365.797 2465.56,-352.111 2670,-324 2677.63,-322.951 2685.69,-321.412 2693.58,-319.715"/>
<polygon fill="midnightblue" stroke="midnightblue" points="2694.45,-323.106 2703.44,-317.505 2692.92,-316.276 2694.45,-323.106"/>
</g>
<!-- Node47 -->
<g id="node47" class="node"><title>Node47</title>
<g id="a_node47"><a xlink:href="../../de/db6/plugin__loader_8h.html" target="_top" xlink:title="plugins/plugin_loader.h">
<polygon fill="none" stroke="red" points="754,-298.5 754,-317.5 870,-317.5 870,-298.5 754,-298.5"/>
<text text-anchor="middle" x="812" y="-305.5" font-family="Helvetica,sans-Serif" font-size="10.00">plugins/plugin_loader.h</text>
</a>
</g>
</g>
<!-- Node4&#45;&gt;Node47 -->
<g id="edge63" class="edge"><title>Node4&#45;&gt;Node47</title>
<path fill="none" stroke="midnightblue" d="M1609.26,-368.812C1513.18,-367.824 1166.57,-361.696 884,-324 875.449,-322.859 866.397,-321.276 857.703,-319.563"/>
<polygon fill="midnightblue" stroke="midnightblue" points="858.214,-316.095 847.714,-317.511 856.805,-322.952 858.214,-316.095"/>
</g>
<!-- Node50 -->
<g id="node50" class="node"><title>Node50</title>
<g id="a_node50"><a xlink:href="../../de/d60/settings_8h.html" target="_top" xlink:title="settings/settings.h">
<polygon fill="none" stroke="red" points="810.5,-236.5 810.5,-255.5 907.5,-255.5 907.5,-236.5 810.5,-236.5"/>
<text text-anchor="middle" x="859" y="-243.5" font-family="Helvetica,sans-Serif" font-size="10.00">settings/settings.h</text>
</a>
</g>
</g>
<!-- Node4&#45;&gt;Node50 -->
<g id="edge67" class="edge"><title>Node4&#45;&gt;Node50</title>
<path fill="none" stroke="midnightblue" d="M1609.3,-368.588C1488.93,-366.498 984.143,-355.884 922,-324 896.729,-311.034 877.928,-282.953 867.713,-264.526"/>
<polygon fill="midnightblue" stroke="midnightblue" points="870.806,-262.887 863.05,-255.67 864.612,-266.149 870.806,-262.887"/>
</g>
<!-- Node6 -->
<g id="node6" class="node"><title>Node6</title>
<polygon fill="none" stroke="#bfbfbf" points="2120,-0.5 2120,-19.5 2168,-19.5 2168,-0.5 2120,-0.5"/>
<text text-anchor="middle" x="2144" y="-7.5" font-family="Helvetica,sans-Serif" font-size="10.00">stdlib.h</text>
</g>
<!-- Node5&#45;&gt;Node6 -->
<g id="edge5" class="edge"><title>Node5&#45;&gt;Node6</title>
<path fill="none" stroke="midnightblue" d="M2207.33,-56.7808C2194.4,-47.4329 2177.51,-35.2273 2164.43,-25.77"/>
<polygon fill="midnightblue" stroke="midnightblue" points="2166.23,-22.7526 2156.08,-19.7305 2162.13,-28.4255 2166.23,-22.7526"/>
</g>
<!-- Node7&#45;&gt;Node6 -->
<g id="edge8" class="edge"><title>Node7&#45;&gt;Node6</title>
<path fill="none" stroke="midnightblue" d="M1012.21,-187.832C1110.71,-184.005 1406.76,-170.541 1499,-144 1517.72,-138.614 1519.57,-130.296 1538,-124 1748.4,-52.1442 2016.39,-22.4963 2109.95,-13.8722"/>
<polygon fill="midnightblue" stroke="midnightblue" points="2110.33,-17.3521 2119.97,-12.9675 2109.7,-10.3804 2110.33,-17.3521"/>
</g>
<!-- Node8 -->
<g id="node8" class="node"><title>Node8</title>
<polygon fill="none" stroke="#bfbfbf" points="1765,-124.5 1765,-143.5 1833,-143.5 1833,-124.5 1765,-124.5"/>
<text text-anchor="middle" x="1799" y="-131.5" font-family="Helvetica,sans-Serif" font-size="10.00">sys/types.h</text>
</g>
<!-- Node7&#45;&gt;Node8 -->
<g id="edge7" class="edge"><title>Node7&#45;&gt;Node8</title>
<path fill="none" stroke="midnightblue" d="M1012.27,-188.784C1118.78,-187.717 1468.68,-181.399 1755,-144 1755.1,-143.987 1755.2,-143.973 1755.3,-143.96"/>
<polygon fill="midnightblue" stroke="midnightblue" points="1755.62,-147.452 1764.97,-142.464 1754.55,-140.535 1755.62,-147.452"/>
</g>
<!-- Node9 -->
<g id="node9" class="node"><title>Node9</title>
<polygon fill="none" stroke="#bfbfbf" points="1615,-124.5 1615,-143.5 1667,-143.5 1667,-124.5 1615,-124.5"/>
<text text-anchor="middle" x="1641" y="-131.5" font-family="Helvetica,sans-Serif" font-size="10.00">stddef.h</text>
</g>
<!-- Node7&#45;&gt;Node9 -->
<g id="edge9" class="edge"><title>Node7&#45;&gt;Node9</title>
<path fill="none" stroke="midnightblue" d="M1012.1,-188.644C1103.36,-187.22 1372.18,-180.16 1604.76,-143.706"/>
<polygon fill="midnightblue" stroke="midnightblue" points="1605.44,-147.143 1614.76,-142.117 1604.34,-140.23 1605.44,-147.143"/>
</g>
<!-- Node10 -->
<g id="node10" class="node"><title>Node10</title>
<polygon fill="none" stroke="#bfbfbf" points="1685,-124.5 1685,-143.5 1747,-143.5 1747,-124.5 1685,-124.5"/>
<text text-anchor="middle" x="1716" y="-131.5" font-family="Helvetica,sans-Serif" font-size="10.00">sys/time.h</text>
</g>
<!-- Node7&#45;&gt;Node10 -->
<g id="edge10" class="edge"><title>Node7&#45;&gt;Node10</title>
<path fill="none" stroke="midnightblue" d="M1012.1,-188.71C1110.09,-187.447 1414.06,-180.741 1674.61,-143.976"/>
<polygon fill="midnightblue" stroke="midnightblue" points="1675.24,-147.423 1684.64,-142.543 1674.25,-140.493 1675.24,-147.423"/>
</g>
<!-- Node11 -->
<g id="node11" class="node"><title>Node11</title>
<g id="a_node11"><a xlink:href="../../da/d66/string_8h.html" target="_top" xlink:title="string.h">
<polygon fill="none" stroke="black" points="1851.5,-124.5 1851.5,-143.5 1900.5,-143.5 1900.5,-124.5 1851.5,-124.5"/>
<text text-anchor="middle" x="1876" y="-131.5" font-family="Helvetica,sans-Serif" font-size="10.00">string.h</text>
</a>
</g>
</g>
<!-- Node7&#45;&gt;Node11 -->
<g id="edge11" class="edge"><title>Node7&#45;&gt;Node11</title>
<path fill="none" stroke="midnightblue" d="M1012.42,-188.204C1146.39,-184.78 1658,-170.335 1841.21,-143.709"/>
<polygon fill="midnightblue" stroke="midnightblue" points="1841.88,-147.147 1851.24,-142.186 1840.83,-140.226 1841.88,-147.147"/>
</g>
<!-- Node12 -->
<g id="node12" class="node"><title>Node12</title>
<polygon fill="none" stroke="#bfbfbf" points="0,-124.5 0,-143.5 62,-143.5 62,-124.5 0,-124.5"/>
<text text-anchor="middle" x="31" y="-131.5" font-family="Helvetica,sans-Serif" font-size="10.00">arpa/inet.h</text>
</g>
<!-- Node7&#45;&gt;Node12 -->
<g id="edge12" class="edge"><title>Node7&#45;&gt;Node12</title>
<path fill="none" stroke="midnightblue" d="M947.98,-187.49C797.434,-180.383 163.798,-150.367 72.3176,-143.499"/>
<polygon fill="midnightblue" stroke="midnightblue" points="72.6271,-140.013 62.3502,-142.589 71.9904,-146.984 72.6271,-140.013"/>
</g>
<!-- Node13 -->
<g id="node13" class="node"><title>Node13</title>
<polygon fill="none" stroke="#bfbfbf" points="80.5,-124.5 80.5,-143.5 153.5,-143.5 153.5,-124.5 80.5,-124.5"/>
<text text-anchor="middle" x="117" y="-131.5" font-family="Helvetica,sans-Serif" font-size="10.00">sys/socket.h</text>
</g>
<!-- Node7&#45;&gt;Node13 -->
<g id="edge13" class="edge"><title>Node7&#45;&gt;Node13</title>
<path fill="none" stroke="midnightblue" d="M947.608,-187.492C810.224,-181.06 277.87,-155.761 163.987,-143.963"/>
<polygon fill="midnightblue" stroke="midnightblue" points="164.099,-140.453 153.767,-142.797 163.305,-147.408 164.099,-140.453"/>
</g>
<!-- Node14 -->
<g id="node14" class="node"><title>Node14</title>
<polygon fill="none" stroke="#bfbfbf" points="171.5,-124.5 171.5,-143.5 220.5,-143.5 220.5,-124.5 171.5,-124.5"/>
<text text-anchor="middle" x="196" y="-131.5" font-family="Helvetica,sans-Serif" font-size="10.00">netdb.h</text>
</g>
<!-- Node7&#45;&gt;Node14 -->
<g id="edge14" class="edge"><title>Node7&#45;&gt;Node14</title>
<path fill="none" stroke="midnightblue" d="M947.563,-187.452C817.502,-181.194 336.08,-157.516 230.728,-143.796"/>
<polygon fill="midnightblue" stroke="midnightblue" points="231.146,-140.32 220.745,-142.337 230.134,-147.247 231.146,-140.32"/>
</g>
<!-- Node15 -->
<g id="node15" class="node"><title>Node15</title>
<polygon fill="none" stroke="#bfbfbf" points="238.5,-124.5 238.5,-143.5 303.5,-143.5 303.5,-124.5 238.5,-124.5"/>
<text text-anchor="middle" x="271" y="-131.5" font-family="Helvetica,sans-Serif" font-size="10.00">netinet/in.h</text>
</g>
<!-- Node7&#45;&gt;Node15 -->
<g id="edge15" class="edge"><title>Node7&#45;&gt;Node15</title>
<path fill="none" stroke="midnightblue" d="M947.71,-187.464C834.655,-181.988 456.245,-162.817 313.834,-144.023"/>
<polygon fill="midnightblue" stroke="midnightblue" points="313.978,-140.51 303.594,-142.613 313.023,-147.445 313.978,-140.51"/>
</g>
<!-- Node16 -->
<g id="node16" class="node"><title>Node16</title>
<polygon fill="none" stroke="#bfbfbf" points="321.5,-124.5 321.5,-143.5 372.5,-143.5 372.5,-124.5 321.5,-124.5"/>
<text text-anchor="middle" x="347" y="-131.5" font-family="Helvetica,sans-Serif" font-size="10.00">sched.h</text>
</g>
<!-- Node7&#45;&gt;Node16 -->
<g id="edge16" class="edge"><title>Node7&#45;&gt;Node16</title>
<path fill="none" stroke="midnightblue" d="M947.771,-187.328C842.813,-181.768 510.713,-163.241 382.466,-143.702"/>
<polygon fill="midnightblue" stroke="midnightblue" points="382.93,-140.232 372.503,-142.113 381.827,-147.145 382.93,-140.232"/>
</g>
<!-- Node17 -->
<g id="node17" class="node"><title>Node17</title>
<polygon fill="none" stroke="#bfbfbf" points="391,-124.5 391,-143.5 431,-143.5 431,-124.5 391,-124.5"/>
<text text-anchor="middle" x="411" y="-131.5" font-family="Helvetica,sans-Serif" font-size="10.00">poll.h</text>
</g>
<!-- Node7&#45;&gt;Node17 -->
<g id="edge17" class="edge"><title>Node7&#45;&gt;Node17</title>
<path fill="none" stroke="midnightblue" d="M947.736,-187.236C849.823,-181.742 556.247,-164.192 441.069,-143.726"/>
<polygon fill="midnightblue" stroke="midnightblue" points="441.612,-140.266 431.138,-141.865 440.322,-147.147 441.612,-140.266"/>
</g>
<!-- Node18 -->
<g id="node18" class="node"><title>Node18</title>
<polygon fill="none" stroke="#bfbfbf" points="449,-124.5 449,-143.5 499,-143.5 499,-124.5 449,-124.5"/>
<text text-anchor="middle" x="474" y="-131.5" font-family="Helvetica,sans-Serif" font-size="10.00">signal.h</text>
</g>
<!-- Node7&#45;&gt;Node18 -->
<g id="edge18" class="edge"><title>Node7&#45;&gt;Node18</title>
<path fill="none" stroke="midnightblue" d="M947.989,-187.757C872.882,-184.455 679.441,-173.719 509.045,-143.906"/>
<polygon fill="midnightblue" stroke="midnightblue" points="509.606,-140.451 499.148,-142.148 508.382,-147.343 509.606,-140.451"/>
</g>
<!-- Node19 -->
<g id="node19" class="node"><title>Node19</title>
<g id="a_node19"><a xlink:href="../../d9/d49/types_8h.html" target="_top" xlink:title="utils/types.h">
<polygon fill="none" stroke="black" points="517,-124.5 517,-143.5 587,-143.5 587,-124.5 517,-124.5"/>
<text text-anchor="middle" x="552" y="-131.5" font-family="Helvetica,sans-Serif" font-size="10.00">utils/types.h</text>
</a>
</g>
</g>
<!-- Node7&#45;&gt;Node19 -->
<g id="edge19" class="edge"><title>Node7&#45;&gt;Node19</title>
<path fill="none" stroke="midnightblue" d="M947.76,-186.157C883.2,-180.263 733.288,-165.572 597.204,-144.069"/>
<polygon fill="midnightblue" stroke="midnightblue" points="597.442,-140.563 587.015,-142.442 596.338,-147.475 597.442,-140.563"/>
</g>
<!-- Node20 -->
<g id="node20" class="node"><title>Node20</title>
<g id="a_node20"><a xlink:href="../../d0/d9b/enum_8h.html" target="_top" xlink:title="enum.h">
<polygon fill="none" stroke="black" points="1547.5,-124.5 1547.5,-143.5 1596.5,-143.5 1596.5,-124.5 1547.5,-124.5"/>
<text text-anchor="middle" x="1572" y="-131.5" font-family="Helvetica,sans-Serif" font-size="10.00">enum.h</text>
</a>
</g>
</g>
<!-- Node7&#45;&gt;Node20 -->
<g id="edge20" class="edge"><title>Node7&#45;&gt;Node20</title>
<path fill="none" stroke="midnightblue" d="M1012.29,-188.015C1097.75,-185.054 1336.68,-174.474 1533,-144 1534.46,-143.774 1535.94,-143.523 1537.44,-143.253"/>
<polygon fill="midnightblue" stroke="midnightblue" points="1538.23,-146.664 1547.35,-141.26 1536.85,-139.801 1538.23,-146.664"/>
</g>
<!-- Node21 -->
<g id="node21" class="node"><title>Node21</title>
<g id="a_node21"><a xlink:href="../../d8/d19/atomics_8h.html" target="_top" xlink:title="utils/atomics.h">
<polygon fill="none" stroke="black" points="605,-124.5 605,-143.5 685,-143.5 685,-124.5 605,-124.5"/>
<text text-anchor="middle" x="645" y="-131.5" font-family="Helvetica,sans-Serif" font-size="10.00">utils/atomics.h</text>
</a>
</g>
</g>
<!-- Node7&#45;&gt;Node21 -->
<g id="edge22" class="edge"><title>Node7&#45;&gt;Node21</title>
<path fill="none" stroke="midnightblue" d="M947.788,-184.206C896.55,-176.522 793.082,-160.761 695.163,-144.164"/>
<polygon fill="midnightblue" stroke="midnightblue" points="695.542,-140.678 685.097,-142.451 694.368,-147.579 695.542,-140.678"/>
</g>
<!-- Node22 -->
<g id="node22" class="node"><title>Node22</title>
<g id="a_node22"><a xlink:href="../../d1/ddf/align_8h.html" target="_top" xlink:title="utils/align.h">
<polygon fill="none" stroke="black" points="703,-124.5 703,-143.5 769,-143.5 769,-124.5 703,-124.5"/>
<text text-anchor="middle" x="736" y="-131.5" font-family="Helvetica,sans-Serif" font-size="10.00">utils/align.h</text>
</a>
</g>
</g>
<!-- Node7&#45;&gt;Node22 -->
<g id="edge23" class="edge"><title>Node7&#45;&gt;Node22</title>
<path fill="none" stroke="midnightblue" d="M947.85,-181.885C904.478,-172.286 827.109,-155.163 778.838,-144.48"/>
<polygon fill="midnightblue" stroke="midnightblue" points="779.522,-141.047 769.002,-142.304 778.009,-147.882 779.522,-141.047"/>
</g>
<!-- Node23 -->
<g id="node23" class="node"><title>Node23</title>
<g id="a_node23"><a xlink:href="../../d5/d17/byteorder_8h.html" target="_top" xlink:title="utils/byteorder.h">
<polygon fill="none" stroke="black" points="787,-124.5 787,-143.5 873,-143.5 873,-124.5 787,-124.5"/>
<text text-anchor="middle" x="830" y="-131.5" font-family="Helvetica,sans-Serif" font-size="10.00">utils/byteorder.h</text>
</a>
</g>
</g>
<!-- Node7&#45;&gt;Node23 -->
<g id="edge24" class="edge"><title>Node7&#45;&gt;Node23</title>
<path fill="none" stroke="midnightblue" d="M956.232,-180.444C931.107,-171.399 891.289,-157.064 863.1,-146.916"/>
<polygon fill="midnightblue" stroke="midnightblue" points="864.251,-143.611 853.657,-143.516 861.88,-150.197 864.251,-143.611"/>
</g>
<!-- Node24 -->
<g id="node24" class="node"><title>Node24</title>
<g id="a_node24"><a xlink:href="../../dc/d18/memory_8h.html" target="_top" xlink:title="utils/memory.h">
<polygon fill="none" stroke="black" points="891.5,-124.5 891.5,-143.5 972.5,-143.5 972.5,-124.5 891.5,-124.5"/>
<text text-anchor="middle" x="932" y="-131.5" font-family="Helvetica,sans-Serif" font-size="10.00">utils/memory.h</text>
</a>
</g>
</g>
<!-- Node7&#45;&gt;Node24 -->
<g id="edge25" class="edge"><title>Node7&#45;&gt;Node24</title>
<path fill="none" stroke="midnightblue" d="M972.074,-180.083C965.154,-172.298 954.935,-160.801 946.548,-151.367"/>
<polygon fill="midnightblue" stroke="midnightblue" points="949.038,-148.9 939.779,-143.751 943.806,-153.55 949.038,-148.9"/>
</g>
<!-- Node25 -->
<g id="node25" class="node"><title>Node25</title>
<g id="a_node25"><a xlink:href="../../d9/dd1/strerror_8h.html" target="_top" xlink:title="utils/strerror.h">
<polygon fill="none" stroke="black" points="990.5,-124.5 990.5,-143.5 1067.5,-143.5 1067.5,-124.5 990.5,-124.5"/>
<text text-anchor="middle" x="1029" y="-131.5" font-family="Helvetica,sans-Serif" font-size="10.00">utils/strerror.h</text>
</a>
</g>
</g>
<!-- Node7&#45;&gt;Node25 -->
<g id="edge26" class="edge"><title>Node7&#45;&gt;Node25</title>
<path fill="none" stroke="midnightblue" d="M988.091,-180.083C995.155,-172.298 1005.59,-160.801 1014.15,-151.367"/>
<polygon fill="midnightblue" stroke="midnightblue" points="1016.93,-153.509 1021.06,-143.751 1011.75,-148.805 1016.93,-153.509"/>
</g>
<!-- Node26 -->
<g id="node26" class="node"><title>Node26</title>
<g id="a_node26"><a xlink:href="../../d1/d13/status_8h.html" target="_top" xlink:title="utils/status.h">
<polygon fill="none" stroke="black" points="1085.5,-124.5 1085.5,-143.5 1158.5,-143.5 1158.5,-124.5 1085.5,-124.5"/>
<text text-anchor="middle" x="1122" y="-131.5" font-family="Helvetica,sans-Serif" font-size="10.00">utils/status.h</text>
</a>
</g>
</g>
<!-- Node7&#45;&gt;Node26 -->
<g id="edge27" class="edge"><title>Node7&#45;&gt;Node26</title>
<path fill="none" stroke="midnightblue" d="M1002.5,-180.444C1026.08,-171.478 1063.32,-157.314 1089.96,-147.183"/>
<polygon fill="midnightblue" stroke="midnightblue" points="1091.5,-150.342 1099.6,-143.516 1089.01,-143.8 1091.5,-150.342"/>
</g>
<!-- Node27 -->
<g id="node27" class="node"><title>Node27</title>
<g id="a_node27"><a xlink:href="../../de/d10/object_8h.html" target="_top" xlink:title="utils/object.h">
<polygon fill="none" stroke="black" points="1177,-124.5 1177,-143.5 1249,-143.5 1249,-124.5 1177,-124.5"/>
<text text-anchor="middle" x="1213" y="-131.5" font-family="Helvetica,sans-Serif" font-size="10.00">utils/object.h</text>
</a>
</g>
</g>
<!-- Node7&#45;&gt;Node27 -->
<g id="edge28" class="edge"><title>Node7&#45;&gt;Node27</title>
<path fill="none" stroke="midnightblue" d="M1012.4,-181.492C1052.5,-172.196 1121.09,-156.302 1166.73,-145.724"/>
<polygon fill="midnightblue" stroke="midnightblue" points="1167.71,-149.088 1176.67,-143.421 1166.13,-142.269 1167.71,-149.088"/>
</g>
<!-- Node28 -->
<g id="node28" class="node"><title>Node28</title>
<g id="a_node28"><a xlink:href="../../d7/dd4/path_8h.html" target="_top" xlink:title="utils/path.h">
<polygon fill="none" stroke="black" points="1267.5,-124.5 1267.5,-143.5 1332.5,-143.5 1332.5,-124.5 1267.5,-124.5"/>
<text text-anchor="middle" x="1300" y="-131.5" font-family="Helvetica,sans-Serif" font-size="10.00">utils/path.h</text>
</a>
</g>
</g>
<!-- Node7&#45;&gt;Node28 -->
<g id="edge29" class="edge"><title>Node7&#45;&gt;Node28</title>
<path fill="none" stroke="midnightblue" d="M1012.2,-184.329C1062.31,-176.943 1162.21,-161.748 1257.39,-144.03"/>
<polygon fill="midnightblue" stroke="midnightblue" points="1258.29,-147.422 1267.47,-142.14 1257,-140.542 1258.29,-147.422"/>
</g>
<!-- Node29 -->
<g id="node29" class="node"><title>Node29</title>
<g id="a_node29"><a xlink:href="../../de/df7/time_8h.html" target="_top" xlink:title="utils/time.h">
<polygon fill="none" stroke="black" points="1350.5,-124.5 1350.5,-143.5 1415.5,-143.5 1415.5,-124.5 1350.5,-124.5"/>
<text text-anchor="middle" x="1383" y="-131.5" font-family="Helvetica,sans-Serif" font-size="10.00">utils/time.h</text>
</a>
</g>
</g>
<!-- Node7&#45;&gt;Node29 -->
<g id="edge30" class="edge"><title>Node7&#45;&gt;Node29</title>
<path fill="none" stroke="midnightblue" d="M1012.01,-185.956C1073.56,-179.898 1212.88,-165.205 1340.54,-143.934"/>
<polygon fill="midnightblue" stroke="midnightblue" points="1341.21,-147.37 1350.49,-142.258 1340.05,-140.467 1341.21,-147.37"/>
</g>
<!-- Node30 -->
<g id="node30" class="node"><title>Node30</title>
<g id="a_node30"><a xlink:href="../../dd/d71/tty_8h.html" target="_top" xlink:title="utils/tty.h">
<polygon fill="none" stroke="black" points="1433.5,-124.5 1433.5,-143.5 1490.5,-143.5 1490.5,-124.5 1433.5,-124.5"/>
<text text-anchor="middle" x="1462" y="-131.5" font-family="Helvetica,sans-Serif" font-size="10.00">utils/tty.h</text>
</a>
</g>
</g>
<!-- Node7&#45;&gt;Node30 -->
<g id="edge31" class="edge"><title>Node7&#45;&gt;Node30</title>
<path fill="none" stroke="midnightblue" d="M1012.23,-187.192C1084.18,-182.844 1263.45,-170.286 1423.43,-143.865"/>
<polygon fill="midnightblue" stroke="midnightblue" points="1424.16,-147.291 1433.45,-142.188 1423.01,-140.387 1424.16,-147.291"/>
</g>
<!-- Node20&#45;&gt;Node5 -->
<g id="edge21" class="edge"><title>Node20&#45;&gt;Node5</title>
<path fill="none" stroke="midnightblue" d="M1596.77,-125.901C1599.86,-125.176 1602.99,-124.518 1606,-124 1806.56,-89.4987 2047.71,-78.1636 2161.48,-74.5783"/>
<polygon fill="midnightblue" stroke="midnightblue" points="2161.87,-78.0681 2171.76,-74.2647 2161.66,-71.0714 2161.87,-78.0681"/>
</g>
<!-- Node32&#45;&gt;Node4 -->
<g id="edge34" class="edge"><title>Node32&#45;&gt;Node4</title>
<path fill="none" stroke="midnightblue" d="M1294.07,-320.159C1300.12,-321.558 1306.2,-322.886 1312,-324 1415.73,-343.933 1539.36,-358.23 1599.24,-364.857"/>
<polygon fill="midnightblue" stroke="midnightblue" points="1599,-368.352 1609.32,-365.968 1599.77,-361.394 1599,-368.352"/>
</g>
<!-- Node33&#45;&gt;Node4 -->
<g id="edge38" class="edge"><title>Node33&#45;&gt;Node4</title>
<path fill="none" stroke="midnightblue" d="M2634.09,-248.367C2721.69,-252.248 2869.74,-267.115 2815,-324 2774.5,-366.084 1864.25,-368.876 1670.86,-369.005"/>
<polygon fill="midnightblue" stroke="midnightblue" points="1670.67,-365.505 1660.67,-369.01 1670.67,-372.505 1670.67,-365.505"/>
</g>
<!-- Node33&#45;&gt;Node6 -->
<g id="edge37" class="edge"><title>Node33&#45;&gt;Node6</title>
<path fill="none" stroke="midnightblue" d="M2515.88,-239.527C2426,-227.963 2255.69,-192.768 2163,-88 2148.84,-71.9966 2144.87,-47.0998 2143.93,-29.9729"/>
<polygon fill="midnightblue" stroke="midnightblue" points="2147.42,-29.4753 2143.68,-19.562 2140.42,-29.6429 2147.42,-29.4753"/>
</g>
<!-- Node33&#45;&gt;Node7 -->
<g id="edge36" class="edge"><title>Node33&#45;&gt;Node7</title>
<path fill="none" stroke="midnightblue" d="M2515.86,-242.998C2258.9,-234.298 1242.32,-199.881 1022.18,-192.428"/>
<polygon fill="midnightblue" stroke="midnightblue" points="1022.13,-188.924 1012.02,-192.084 1021.89,-195.92 1022.13,-188.924"/>
</g>
<!-- Node34&#45;&gt;Node4 -->
<g id="edge40" class="edge"><title>Node34&#45;&gt;Node4</title>
<path fill="none" stroke="midnightblue" d="M1413.44,-317.535C1465,-328.7 1550.82,-348.192 1599.19,-359.716"/>
<polygon fill="midnightblue" stroke="midnightblue" points="1598.67,-363.189 1609.21,-362.117 1600.3,-356.382 1598.67,-363.189"/>
</g>
<!-- Node35&#45;&gt;Node4 -->
<g id="edge42" class="edge"><title>Node35&#45;&gt;Node4</title>
<path fill="none" stroke="midnightblue" d="M1526.77,-317.581C1550.98,-327.598 1587.94,-344.276 1611.89,-355.912"/>
<polygon fill="midnightblue" stroke="midnightblue" points="1610.47,-359.113 1620.99,-360.403 1613.57,-352.837 1610.47,-359.113"/>
</g>
<!-- Node36&#45;&gt;Node4 -->
<g id="edge44" class="edge"><title>Node36&#45;&gt;Node4</title>
<path fill="none" stroke="midnightblue" d="M1639.9,-317.581C1641.73,-326.04 1642.2,-339.248 1641.32,-350.16"/>
<polygon fill="midnightblue" stroke="midnightblue" points="1637.8,-350.018 1639.9,-360.403 1644.74,-350.977 1637.8,-350.018"/>
</g>
<!-- Node37&#45;&gt;Node4 -->
<g id="edge46" class="edge"><title>Node37&#45;&gt;Node4</title>
<path fill="none" stroke="midnightblue" d="M1746.56,-323.025C1724.48,-333.197 1693.05,-346.828 1669.1,-356.602"/>
<polygon fill="midnightblue" stroke="midnightblue" points="1667.64,-353.418 1659.67,-360.403 1670.26,-359.911 1667.64,-353.418"/>
</g>
<!-- Node43&#45;&gt;Node7 -->
<g id="edge56" class="edge"><title>Node43&#45;&gt;Node7</title>
<path fill="none" stroke="midnightblue" d="M1264.8,-238.91C1205,-228.851 1085.89,-208.814 1022.31,-198.117"/>
<polygon fill="midnightblue" stroke="midnightblue" points="1022.67,-194.628 1012.22,-196.421 1021.5,-201.531 1022.67,-194.628"/>
</g>
<!-- Node43&#45;&gt;Node8 -->
<g id="edge55" class="edge"><title>Node43&#45;&gt;Node8</title>
<path fill="none" stroke="midnightblue" d="M1337.22,-237C1426.71,-217.232 1658.06,-166.131 1755.12,-144.693"/>
<polygon fill="midnightblue" stroke="midnightblue" points="1755.9,-148.105 1764.91,-142.531 1754.39,-141.27 1755.9,-148.105"/>
</g>
<!-- Node43&#45;&gt;Node11 -->
<g id="edge54" class="edge"><title>Node43&#45;&gt;Node11</title>
<path fill="none" stroke="midnightblue" d="M1337.32,-239.359C1423.28,-225.766 1646,-189.122 1841.29,-144.049"/>
<polygon fill="midnightblue" stroke="midnightblue" points="1842.21,-147.429 1851.16,-141.759 1840.63,-140.611 1842.21,-147.429"/>
</g>
<!-- Node44&#45;&gt;Node4 -->
<g id="edge58" class="edge"><title>Node44&#45;&gt;Node4</title>
<path fill="none" stroke="midnightblue" d="M2603.94,-317.502C2595.15,-320.022 2584.71,-322.505 2575,-324 2396.36,-351.512 1820.58,-365.275 1670.8,-368.335"/>
<polygon fill="midnightblue" stroke="midnightblue" points="1670.69,-364.836 1660.76,-368.537 1670.83,-371.835 1670.69,-364.836"/>
</g>
<!-- Node45&#45;&gt;Node7 -->
<g id="edge60" class="edge"><title>Node45&#45;&gt;Node7</title>
<path fill="none" stroke="midnightblue" d="M1016.73,-236.083C1010.46,-228.377 1001.21,-217.033 993.569,-207.653"/>
<polygon fill="midnightblue" stroke="midnightblue" points="996.161,-205.293 987.131,-199.751 990.734,-209.714 996.161,-205.293"/>
</g>
<!-- Node46&#45;&gt;Node4 -->
<g id="edge62" class="edge"><title>Node46&#45;&gt;Node4</title>
<path fill="none" stroke="midnightblue" d="M2720.49,-317.505C2710.57,-320.025 2698.85,-322.508 2688,-324 2485.74,-351.812 1832.11,-365.504 1671.05,-368.406"/>
<polygon fill="midnightblue" stroke="midnightblue" points="1670.67,-364.912 1660.73,-368.589 1670.8,-371.911 1670.67,-364.912"/>
</g>
<!-- Node47&#45;&gt;Node48 -->
<g id="edge64" class="edge"><title>Node47&#45;&gt;Node48</title>
<path fill="none" stroke="midnightblue" d="M803.977,-298.403C795.41,-289.225 781.639,-274.47 771.043,-263.117"/>
<polygon fill="midnightblue" stroke="midnightblue" points="773.39,-260.503 764.009,-255.581 768.273,-265.279 773.39,-260.503"/>
</g>
<!-- Node48&#45;&gt;Node7 -->
<g id="edge66" class="edge"><title>Node48&#45;&gt;Node7</title>
<path fill="none" stroke="midnightblue" d="M791.493,-236.444C831.268,-226.855 895.7,-211.322 937.963,-201.134"/>
<polygon fill="midnightblue" stroke="midnightblue" points="939.038,-204.475 947.939,-198.729 937.397,-197.67 939.038,-204.475"/>
</g>
<!-- Node49 -->
<g id="node49" class="node"><title>Node49</title>
<polygon fill="none" stroke="#bfbfbf" points="733,-180.5 733,-199.5 779,-199.5 779,-180.5 733,-180.5"/>
<text text-anchor="middle" x="756" y="-187.5" font-family="Helvetica,sans-Serif" font-size="10.00">stdio.h</text>
</g>
<!-- Node48&#45;&gt;Node49 -->
<g id="edge65" class="edge"><title>Node48&#45;&gt;Node49</title>
<path fill="none" stroke="midnightblue" d="M756,-236.083C756,-229.006 756,-218.861 756,-209.986"/>
<polygon fill="midnightblue" stroke="midnightblue" points="759.5,-209.751 756,-199.751 752.5,-209.751 759.5,-209.751"/>
</g>
<!-- Node50&#45;&gt;Node7 -->
<g id="edge68" class="edge"><title>Node50&#45;&gt;Node7</title>
<path fill="none" stroke="midnightblue" d="M878.173,-236.444C897.909,-227.636 928.885,-213.812 951.493,-203.722"/>
<polygon fill="midnightblue" stroke="midnightblue" points="953.211,-206.788 960.917,-199.516 950.359,-200.396 953.211,-206.788"/>
</g>
</g>
</svg>
