<?xml version="1.0" encoding="UTF-8" standalone="no"?>
<!DOCTYPE svg PUBLIC "-//W3C//DTD SVG 1.1//EN"
 "http://www.w3.org/Graphics/SVG/1.1/DTD/svg11.dtd">
<!-- Generated by graphviz version 2.36.0 (20140111.2315)
 -->
<!-- Title: client Pages: 1 -->
<!--zoomable 716 -->
<svg id="main" version="1.1" xmlns="http://www.w3.org/2000/svg" xmlns:xlink="http://www.w3.org/1999/xlink" xml:space="preserve" onload="init(evt)">
<style type="text/css"><![CDATA[
.edge:hover path { stroke: red; }
.edge:hover polygon { stroke: red; fill: red; }
]]></style>
<script type="text/javascript"><![CDATA[
var edges = document.getElementsByTagName('g');
if (edges && edges.length) {
  for (var i=0;i<edges.length;i++) {
    if (edges[i].id.substr(0,4)=='edge') {
      edges[i].setAttribute('class','edge');
    }
  }
}
]]></script>
        <defs>
                <circle id="rim" cx="0" cy="0" r="7"/>
                <circle id="rim2" cx="0" cy="0" r="3.5"/>
                <g id="zoomPlus">
                        <use xlink:href="#rim" fill="#404040">
                                <set attributeName="fill" to="#808080" begin="zoomplus.mouseover" end="zoomplus.mouseout"/>
                        </use>
                        <path d="M-4,0h8M0,-4v8" fill="none" stroke="white" stroke-width="1.5" pointer-events="none"/>
                </g>
                <g id="zoomMin">
                        <use xlink:href="#rim" fill="#404040">
                                <set attributeName="fill" to="#808080" begin="zoomminus.mouseover" end="zoomminus.mouseout"/>
                        </use>
                        <path d="M-4,0h8" fill="none" stroke="white" stroke-width="1.5" pointer-events="none"/>
                </g>
                <g id="dirArrow">
                        <path fill="none" stroke="white" stroke-width="1.5" d="M0,-3.0v7 M-2.5,-0.5L0,-3.0L2.5,-0.5"/>
                </g>
               <g id="resetDef">
                       <use xlink:href="#rim2" fill="#404040">
                               <set attributeName="fill" to="#808080" begin="reset.mouseover" end="reset.mouseout"/>
                       </use>
               </g>
        </defs>

<script type="text/javascript">
var viewWidth = 904;
var viewHeight = 716;
var sectionId = 'dynsection-4';
</script>
<script xlink:href="../../svgpan.js"/>
<svg id="graph" class="graph">
<g id="viewport">
<title>client</title>
<!-- Node1 -->
<g id="node1" class="node"><title>Node1</title>
<polygon fill="#bfbfbf" stroke="black" points="0,-361.5 0,-380.5 40,-380.5 40,-361.5 0,-361.5"/>
<text text-anchor="middle" x="20" y="-368.5" font-family="Helvetica,sans-Serif" font-size="10.00">client</text>
</g>
<!-- Node2 -->
<g id="node2" class="node"><title>Node2</title>
<g id="a_node2"><a xlink:href="../../da/d7d/group__eap__radius__i.html#gabef6d0859b23ba12021a9329efffe2f4" target="_top" xlink:title="eap_radius_create">
<polygon fill="none" stroke="black" points="689,-688.5 689,-707.5 785,-707.5 785,-688.5 689,-688.5"/>
<text text-anchor="middle" x="737" y="-695.5" font-family="Helvetica,sans-Serif" font-size="10.00">eap_radius_create</text>
</a>
</g>
</g>
<!-- Node1&#45;&gt;Node2 -->
<g id="edge1" class="edge"><title>Node1&#45;&gt;Node2</title>
<path fill="none" stroke="midnightblue" d="M21.7361,-390.639C24.4096,-450.611 35.6832,-629.613 76,-668 145.831,-734.488 194.579,-697 291,-697 291,-697 291,-697 440,-697 527.876,-697 630.425,-697.446 688.836,-697.742"/>
<polygon fill="midnightblue" stroke="midnightblue" points="25.2311,-390.444 21.3209,-380.597 18.237,-390.733 25.2311,-390.444"/>
</g>
<!-- Node4 -->
<g id="node4" class="node"><title>Node4</title>
<g id="a_node4"><a xlink:href="../../da/dbd/group__eap__radius__xauth.html#ga18cff6e33e86879894328b00c192b205" target="_top" xlink:title="eap_radius_xauth_create\l_server">
<polygon fill="none" stroke="black" points="674.5,-639 674.5,-669 799.5,-669 799.5,-639 674.5,-639"/>
<text text-anchor="start" x="682.5" y="-657" font-family="Helvetica,sans-Serif" font-size="10.00">eap_radius_xauth_create</text>
<text text-anchor="middle" x="737" y="-646" font-family="Helvetica,sans-Serif" font-size="10.00">_server</text>
</a>
</g>
</g>
<!-- Node1&#45;&gt;Node4 -->
<g id="edge3" class="edge"><title>Node1&#45;&gt;Node4</title>
<path fill="none" stroke="midnightblue" d="M22.1299,-390.839C25.756,-446.829 39.0979,-604.14 76,-637 147.641,-700.794 195.072,-656 291,-656 291,-656 291,-656 440,-656 521.068,-656 614.622,-655.241 674.491,-654.658"/>
<polygon fill="midnightblue" stroke="midnightblue" points="25.619,-390.551 21.5143,-380.783 18.632,-390.978 25.619,-390.551"/>
</g>
<!-- Node5 -->
<g id="node5" class="node"><title>Node5</title>
<g id="a_node5"><a xlink:href="../../d0/d39/tls__test_8c.html#a69519b20e862ff4aae04cd31be4c2997" target="_top" xlink:title="find_client_id">
<polygon fill="none" stroke="black" points="96,-608.5 96,-627.5 170,-627.5 170,-608.5 96,-608.5"/>
<text text-anchor="middle" x="133" y="-615.5" font-family="Helvetica,sans-Serif" font-size="10.00">find_client_id</text>
</a>
</g>
</g>
<!-- Node1&#45;&gt;Node5 -->
<g id="edge5" class="edge"><title>Node1&#45;&gt;Node5</title>
<path fill="none" stroke="midnightblue" d="M20.3212,-390.975C19.953,-433.469 24.9406,-533.853 76,-594 81.3394,-600.29 88.6238,-604.975 96.1723,-608.449"/>
<polygon fill="midnightblue" stroke="midnightblue" points="23.8235,-390.891 20.5261,-380.822 16.8249,-390.75 23.8235,-390.891"/>
</g>
<!-- Node7 -->
<g id="node7" class="node"><title>Node7</title>
<g id="a_node7"><a xlink:href="../../d1/d52/eap__radius__dae_8c.html#ac97031db41f8537ad7cb339be0333ff0" target="_top" xlink:title="get_matching_ike_sas">
<polygon fill="none" stroke="black" points="76,-532.5 76,-551.5 190,-551.5 190,-532.5 76,-532.5"/>
<text text-anchor="middle" x="133" y="-539.5" font-family="Helvetica,sans-Serif" font-size="10.00">get_matching_ike_sas</text>
</a>
</g>
</g>
<!-- Node1&#45;&gt;Node7 -->
<g id="edge7" class="edge"><title>Node1&#45;&gt;Node7</title>
<path fill="none" stroke="midnightblue" d="M22.7732,-391.074C26.6777,-423.292 38.8721,-486.61 76,-523 79.9593,-526.881 84.74,-529.969 89.8194,-532.428"/>
<polygon fill="midnightblue" stroke="midnightblue" points="26.2105,-390.295 21.679,-380.718 19.2492,-391.031 26.2105,-390.295"/>
</g>
<!-- Node9 -->
<g id="node9" class="node"><title>Node9</title>
<g id="a_node9"><a xlink:href="../../d1/d52/eap__radius__dae_8c.html#a197338cad946b2dd3c3e6d751ee66bf8" target="_top" xlink:title="receive">
<polygon fill="none" stroke="black" points="415,-528.5 415,-547.5 463,-547.5 463,-528.5 415,-528.5"/>
<text text-anchor="middle" x="439" y="-535.5" font-family="Helvetica,sans-Serif" font-size="10.00">receive</text>
</a>
</g>
</g>
<!-- Node1&#45;&gt;Node9 -->
<g id="edge36" class="edge"><title>Node1&#45;&gt;Node9</title>
<path fill="none" stroke="midnightblue" d="M23.7497,-390.973C30.3223,-435.439 48.474,-540.312 76,-561 181.716,-640.454 357.586,-574.077 417.376,-547.657"/>
<polygon fill="midnightblue" stroke="midnightblue" points="27.1795,-390.233 22.2979,-380.83 20.2501,-391.225 27.1795,-390.233"/>
</g>
<!-- Node18 -->
<g id="node18" class="node"><title>Node18</title>
<g id="a_node18"><a xlink:href="../../d7/d9b/pt-tls-client_8c.html#a0ddf1224851353fc92bfbff6f499fa97" target="_top" xlink:title="main">
<polygon fill="none" stroke="black" points="114,-494.5 114,-513.5 152,-513.5 152,-494.5 114,-494.5"/>
<text text-anchor="middle" x="133" y="-501.5" font-family="Helvetica,sans-Serif" font-size="10.00">main</text>
</a>
</g>
</g>
<!-- Node1&#45;&gt;Node18 -->
<g id="edge20" class="edge"><title>Node1&#45;&gt;Node18</title>
<path fill="none" stroke="midnightblue" d="M26.2227,-390.205C33.6308,-414.145 49.3407,-454.955 76,-480 86.5615,-489.922 101.857,-496.098 113.795,-499.695"/>
<polygon fill="midnightblue" stroke="midnightblue" points="29.5548,-389.129 23.3936,-380.51 22.835,-391.09 29.5548,-389.129"/>
</g>
<!-- Node19 -->
<g id="node19" class="node"><title>Node19</title>
<g id="a_node19"><a xlink:href="../../d2/d9f/pt__tls__client_8c.html#afb8fff8181632a78d41f39e929729c36" target="_top" xlink:title="make_connection">
<polygon fill="none" stroke="black" points="86.5,-304.5 86.5,-323.5 179.5,-323.5 179.5,-304.5 86.5,-304.5"/>
<text text-anchor="middle" x="133" y="-311.5" font-family="Helvetica,sans-Serif" font-size="10.00">make_connection</text>
</a>
</g>
</g>
<!-- Node1&#45;&gt;Node19 -->
<g id="edge21" class="edge"><title>Node1&#45;&gt;Node19</title>
<path fill="none" stroke="midnightblue" d="M41.1616,-355.058C51.2166,-347.642 63.8096,-339.129 76,-333 83.1546,-329.403 91.1481,-326.234 98.8051,-323.566"/>
<polygon fill="midnightblue" stroke="midnightblue" points="38.9077,-352.374 33.0526,-361.204 43.1362,-357.953 38.9077,-352.374"/>
</g>
<!-- Node21 -->
<g id="node21" class="node"><title>Node21</title>
<g id="a_node21"><a xlink:href="../../d5/d7f/eap__radius_8c.html#ad2b278048c1855ca840d64d50fc76ef7" target="_top" xlink:title="METHOD">
<polygon fill="none" stroke="black" points="103,-418.5 103,-437.5 163,-437.5 163,-418.5 103,-418.5"/>
<text text-anchor="middle" x="133" y="-425.5" font-family="Helvetica,sans-Serif" font-size="10.00">METHOD</text>
</a>
</g>
</g>
<!-- Node1&#45;&gt;Node21 -->
<g id="edge23" class="edge"><title>Node1&#45;&gt;Node21</title>
<path fill="none" stroke="midnightblue" d="M41.1616,-386.942C51.2166,-394.358 63.8096,-402.871 76,-409 84.4388,-413.243 94.0446,-416.89 102.889,-419.821"/>
<polygon fill="midnightblue" stroke="midnightblue" points="43.1362,-384.047 33.0526,-380.796 38.9077,-389.626 43.1362,-384.047"/>
</g>
<!-- Node22 -->
<g id="node22" class="node"><title>Node22</title>
<g id="a_node22"><a xlink:href="../../d7/d6a/pt__tls__server_8c.html#aa1071c3dd3fee0baa973b64c3c2373f3" target="_top" xlink:title="process_sasl">
<polygon fill="none" stroke="black" points="96,-380.5 96,-399.5 170,-399.5 170,-380.5 96,-380.5"/>
<text text-anchor="middle" x="133" y="-387.5" font-family="Helvetica,sans-Serif" font-size="10.00">process_sasl</text>
</a>
</g>
</g>
<!-- Node1&#45;&gt;Node22 -->
<g id="edge24" class="edge"><title>Node1&#45;&gt;Node22</title>
<path fill="none" stroke="midnightblue" d="M50.104,-375.982C64.0577,-378.37 80.9133,-381.255 95.6965,-383.786"/>
<polygon fill="midnightblue" stroke="midnightblue" points="50.5288,-372.504 40.0816,-374.266 49.3477,-379.403 50.5288,-372.504"/>
</g>
<!-- Node27 -->
<g id="node27" class="node"><title>Node27</title>
<g id="a_node27"><a xlink:href="../../dd/d6d/group__pt__tls__client.html#gabe3d3392196788cfaf2c2a861e4fb7da" target="_top" xlink:title="pt_tls_client_create">
<polygon fill="none" stroke="black" points="82.5,-342.5 82.5,-361.5 183.5,-361.5 183.5,-342.5 82.5,-342.5"/>
<text text-anchor="middle" x="133" y="-349.5" font-family="Helvetica,sans-Serif" font-size="10.00">pt_tls_client_create</text>
</a>
</g>
</g>
<!-- Node1&#45;&gt;Node27 -->
<g id="edge30" class="edge"><title>Node1&#45;&gt;Node27</title>
<path fill="none" stroke="midnightblue" d="M50.0973,-360C59.9241,-357.73 71.1907,-355.568 82.1593,-353.813"/>
<polygon fill="midnightblue" stroke="midnightblue" points="48.9408,-356.681 40.0816,-362.492 50.6308,-363.474 48.9408,-356.681"/>
</g>
<!-- Node28 -->
<g id="node28" class="node"><title>Node28</title>
<g id="a_node28"><a xlink:href="../../d3/d61/tnc__pdp_8c.html#ae46bfa489abfcaacb3f2e502f23c0faf" target="_top" xlink:title="radius_receive">
<polygon fill="none" stroke="black" points="93,-228.5 93,-247.5 173,-247.5 173,-228.5 93,-228.5"/>
<text text-anchor="middle" x="133" y="-235.5" font-family="Helvetica,sans-Serif" font-size="10.00">radius_receive</text>
</a>
</g>
</g>
<!-- Node1&#45;&gt;Node28 -->
<g id="edge32" class="edge"><title>Node1&#45;&gt;Node28</title>
<path fill="none" stroke="midnightblue" d="M25.4731,-351.296C32.2058,-326.003 47.3239,-282.364 76,-257 80.8447,-252.715 86.6964,-249.388 92.766,-246.808"/>
<polygon fill="midnightblue" stroke="midnightblue" points="22.0268,-350.653 23.0183,-361.201 28.8212,-352.337 22.0268,-350.653"/>
</g>
<!-- Node32 -->
<g id="node32" class="node"><title>Node32</title>
<g id="a_node32"><a xlink:href="../../de/dcb/libtls_2tests_2suites_2test__socket_8c.html#ab0bb9ef647f2319f96ededd2394977c3" target="_top" xlink:title="run_echo_client">
<polygon fill="none" stroke="black" points="90.5,-86.5 90.5,-105.5 175.5,-105.5 175.5,-86.5 90.5,-86.5"/>
<text text-anchor="middle" x="133" y="-93.5" font-family="Helvetica,sans-Serif" font-size="10.00">run_echo_client</text>
</a>
</g>
</g>
<!-- Node1&#45;&gt;Node32 -->
<g id="edge37" class="edge"><title>Node1&#45;&gt;Node32</title>
<path fill="none" stroke="midnightblue" d="M20.8913,-351.422C21.576,-308.286 28.3996,-203.381 76,-134 84.5745,-121.502 98.7271,-111.951 110.659,-105.55"/>
<polygon fill="midnightblue" stroke="midnightblue" points="17.3914,-351.416 20.8301,-361.437 24.3913,-351.459 17.3914,-351.416"/>
</g>
<!-- Node36 -->
<g id="node36" class="node"><title>Node36</title>
<g id="a_node36"><a xlink:href="../../d2/d9f/pt__tls__client_8c.html#a6754ca153a16e414fae63b4ca6c5e2b1" target="_top" xlink:title="select_and_do_sasl">
<polygon fill="none" stroke="black" points="81.5,-266.5 81.5,-285.5 184.5,-285.5 184.5,-266.5 81.5,-266.5"/>
<text text-anchor="middle" x="133" y="-273.5" font-family="Helvetica,sans-Serif" font-size="10.00">select_and_do_sasl</text>
</a>
</g>
</g>
<!-- Node1&#45;&gt;Node36 -->
<g id="edge41" class="edge"><title>Node1&#45;&gt;Node36</title>
<path fill="none" stroke="midnightblue" d="M30.2044,-352.281C39.5389,-335.11 55.5138,-310.117 76,-295 81.2044,-291.16 87.2387,-288.059 93.3793,-285.566"/>
<polygon fill="midnightblue" stroke="midnightblue" points="26.9955,-350.866 25.4918,-361.354 33.2074,-354.093 26.9955,-350.866"/>
</g>
<!-- Node38 -->
<g id="node38" class="node"><title>Node38</title>
<g id="a_node38"><a xlink:href="../../d1/dd0/eap__radius__accounting_8c.html#afe0bd878a94a4d04a2ffa8f7c5b7e071" target="_top" xlink:title="send_message">
<polygon fill="none" stroke="black" points="91.5,-190.5 91.5,-209.5 174.5,-209.5 174.5,-190.5 91.5,-190.5"/>
<text text-anchor="middle" x="133" y="-197.5" font-family="Helvetica,sans-Serif" font-size="10.00">send_message</text>
</a>
</g>
</g>
<!-- Node1&#45;&gt;Node38 -->
<g id="edge44" class="edge"><title>Node1&#45;&gt;Node38</title>
<path fill="none" stroke="midnightblue" d="M22.7732,-350.926C26.6777,-318.708 38.8721,-255.39 76,-219 80.3259,-214.76 85.6324,-211.465 91.2376,-208.905"/>
<polygon fill="midnightblue" stroke="midnightblue" points="19.2492,-350.969 21.679,-361.282 26.2105,-351.705 19.2492,-350.969"/>
</g>
<!-- Node46 -->
<g id="node46" class="node"><title>Node46</title>
<g id="a_node46"><a xlink:href="../../d1/d52/eap__radius__dae_8c.html#a6ceb920afa583cd84d2e48c1b9c2f13d" target="_top" xlink:title="send_retransmit">
<polygon fill="none" stroke="black" points="249,-456.5 249,-475.5 335,-475.5 335,-456.5 249,-456.5"/>
<text text-anchor="middle" x="292" y="-463.5" font-family="Helvetica,sans-Serif" font-size="10.00">send_retransmit</text>
</a>
</g>
</g>
<!-- Node1&#45;&gt;Node46 -->
<g id="edge54" class="edge"><title>Node1&#45;&gt;Node46</title>
<path fill="none" stroke="midnightblue" d="M28.9114,-389.766C37.6032,-407.807 53.3976,-434.171 76,-447 129.608,-477.427 203.096,-476.596 248.78,-472.115"/>
<polygon fill="midnightblue" stroke="midnightblue" points="32.0303,-388.169 24.7157,-380.504 25.6541,-391.057 32.0303,-388.169"/>
</g>
<!-- Node47 -->
<g id="node47" class="node"><title>Node47</title>
<g id="a_node47"><a xlink:href="../../de/dcb/libtls_2tests_2suites_2test__socket_8c.html#a83ce985fd78c1b926fd57a95efef0c3c" target="_top" xlink:title="serve_echo">
<polygon fill="none" stroke="black" points="99.5,-143.5 99.5,-162.5 166.5,-162.5 166.5,-143.5 99.5,-143.5"/>
<text text-anchor="middle" x="133" y="-150.5" font-family="Helvetica,sans-Serif" font-size="10.00">serve_echo</text>
</a>
</g>
</g>
<!-- Node1&#45;&gt;Node47 -->
<g id="edge56" class="edge"><title>Node1&#45;&gt;Node47</title>
<path fill="none" stroke="midnightblue" d="M21.646,-351.414C23.86,-314.083 33.5779,-231.935 76,-181 82.7476,-172.898 92.4218,-166.916 101.836,-162.611"/>
<polygon fill="midnightblue" stroke="midnightblue" points="18.1465,-351.323 21.1719,-361.476 25.1387,-351.652 18.1465,-351.323"/>
</g>
<!-- Node49 -->
<g id="node49" class="node"><title>Node49</title>
<g id="a_node49"><a xlink:href="../../d6/d63/eap__radius__xauth_8c.html#a8ac33026734eb7c66eca0e35e7ca3841" target="_top" xlink:title="verify_radius">
<polygon fill="none" stroke="black" points="97,-10.5 97,-29.5 169,-29.5 169,-10.5 97,-10.5"/>
<text text-anchor="middle" x="133" y="-17.5" font-family="Helvetica,sans-Serif" font-size="10.00">verify_radius</text>
</a>
</g>
</g>
<!-- Node1&#45;&gt;Node49 -->
<g id="edge59" class="edge"><title>Node1&#45;&gt;Node49</title>
<path fill="none" stroke="midnightblue" d="M20.8217,-351.26C21.1659,-302.023 26.9809,-170.986 76,-77 86.2644,-57.3197 105.573,-39.9742 118.612,-29.7325"/>
<polygon fill="midnightblue" stroke="midnightblue" points="17.3217,-351.465 20.825,-361.464 24.3217,-351.463 17.3217,-351.465"/>
</g>
<!-- Node3 -->
<g id="node3" class="node"><title>Node3</title>
<g id="a_node3"><a xlink:href="../../d3/de7/eap__radius__plugin_8c.html#a45ad894365a8157f1d82bb26f26f5f8e" target="_top" xlink:title="METHOD">
<polygon fill="none" stroke="black" points="836,-644.5 836,-663.5 896,-663.5 896,-644.5 836,-644.5"/>
<text text-anchor="middle" x="866" y="-651.5" font-family="Helvetica,sans-Serif" font-size="10.00">METHOD</text>
</a>
</g>
</g>
<!-- Node2&#45;&gt;Node3 -->
<g id="edge2" class="edge"><title>Node2&#45;&gt;Node3</title>
<path fill="none" stroke="midnightblue" d="M778.104,-685.333C785.407,-682.95 792.945,-680.439 800,-678 813.188,-673.44 827.77,-668.085 839.776,-663.592"/>
<polygon fill="midnightblue" stroke="midnightblue" points="776.795,-682.078 768.357,-688.486 778.949,-688.738 776.795,-682.078"/>
</g>
<!-- Node4&#45;&gt;Node3 -->
<g id="edge4" class="edge"><title>Node4&#45;&gt;Node3</title>
<path fill="none" stroke="midnightblue" d="M809.695,-654C818.912,-654 827.895,-654 835.849,-654"/>
<polygon fill="midnightblue" stroke="midnightblue" points="809.64,-650.5 799.64,-654 809.64,-657.5 809.64,-650.5"/>
</g>
<!-- Node6 -->
<g id="node6" class="node"><title>Node6</title>
<g id="a_node6"><a xlink:href="../../d0/d39/tls__test_8c.html#a0ddf1224851353fc92bfbff6f499fa97" target="_top" xlink:title="main">
<polygon fill="none" stroke="black" points="273,-608.5 273,-627.5 311,-627.5 311,-608.5 273,-608.5"/>
<text text-anchor="middle" x="292" y="-615.5" font-family="Helvetica,sans-Serif" font-size="10.00">main</text>
</a>
</g>
</g>
<!-- Node5&#45;&gt;Node6 -->
<g id="edge6" class="edge"><title>Node5&#45;&gt;Node6</title>
<path fill="none" stroke="midnightblue" d="M180.166,-618C211.111,-618 250.179,-618 272.703,-618"/>
<polygon fill="midnightblue" stroke="midnightblue" points="180.019,-614.5 170.019,-618 180.019,-621.5 180.019,-614.5"/>
</g>
<!-- Node8 -->
<g id="node8" class="node"><title>Node8</title>
<g id="a_node8"><a xlink:href="../../d1/d52/eap__radius__dae_8c.html#a55f6ff41898fd7c9dc3dcc70bf15f1af" target="_top" xlink:title="process_coa">
<polygon fill="none" stroke="black" points="256,-532.5 256,-551.5 328,-551.5 328,-532.5 256,-532.5"/>
<text text-anchor="middle" x="292" y="-539.5" font-family="Helvetica,sans-Serif" font-size="10.00">process_coa</text>
</a>
</g>
</g>
<!-- Node7&#45;&gt;Node8 -->
<g id="edge8" class="edge"><title>Node7&#45;&gt;Node8</title>
<path fill="none" stroke="midnightblue" d="M200.357,-542C219.352,-542 239.318,-542 255.662,-542"/>
<polygon fill="midnightblue" stroke="midnightblue" points="200.237,-538.5 190.237,-542 200.237,-545.5 200.237,-538.5"/>
</g>
<!-- Node17 -->
<g id="node17" class="node"><title>Node17</title>
<g id="a_node17"><a xlink:href="../../d1/d52/eap__radius__dae_8c.html#a4eb197bec814c7db73ce76339104ccdb" target="_top" xlink:title="process_disconnect">
<polygon fill="none" stroke="black" points="240,-494.5 240,-513.5 344,-513.5 344,-494.5 240,-494.5"/>
<text text-anchor="middle" x="292" y="-501.5" font-family="Helvetica,sans-Serif" font-size="10.00">process_disconnect</text>
</a>
</g>
</g>
<!-- Node7&#45;&gt;Node17 -->
<g id="edge18" class="edge"><title>Node7&#45;&gt;Node17</title>
<path fill="none" stroke="midnightblue" d="M183.447,-530.032C205.448,-524.707 230.994,-518.524 251.667,-513.52"/>
<polygon fill="midnightblue" stroke="midnightblue" points="182.514,-526.657 173.618,-532.411 184.16,-533.46 182.514,-526.657"/>
</g>
<!-- Node8&#45;&gt;Node9 -->
<g id="edge9" class="edge"><title>Node8&#45;&gt;Node9</title>
<path fill="none" stroke="midnightblue" d="M338.283,-540.751C363.739,-540.049 394.43,-539.202 414.979,-538.635"/>
<polygon fill="midnightblue" stroke="midnightblue" points="338,-537.257 328.1,-541.032 338.193,-544.255 338,-537.257"/>
</g>
<!-- Node10 -->
<g id="node10" class="node"><title>Node10</title>
<g id="a_node10"><a xlink:href="../../d5/dcb/group__dhcp__socket.html#ga9a7544edfbcbc54c6890592fcd674504" target="_top" xlink:title="dhcp_socket_create">
<polygon fill="none" stroke="black" points="527,-486.5 527,-505.5 631,-505.5 631,-486.5 527,-486.5"/>
<text text-anchor="middle" x="579" y="-493.5" font-family="Helvetica,sans-Serif" font-size="10.00">dhcp_socket_create</text>
</a>
</g>
</g>
<!-- Node9&#45;&gt;Node10 -->
<g id="edge10" class="edge"><title>Node9&#45;&gt;Node10</title>
<path fill="none" stroke="midnightblue" d="M472.808,-528.015C495.134,-521.22 524.511,-512.279 546.544,-505.574"/>
<polygon fill="midnightblue" stroke="midnightblue" points="471.646,-524.71 463.098,-530.97 473.684,-531.407 471.646,-524.71"/>
</g>
<!-- Node12 -->
<g id="node12" class="node"><title>Node12</title>
<g id="a_node12"><a xlink:href="../../d1/db7/group__eap__radius__dae.html#ga194870382a0fc028739b146d5e59627a" target="_top" xlink:title="eap_radius_dae_create">
<polygon fill="none" stroke="black" points="520.5,-600.5 520.5,-619.5 637.5,-619.5 637.5,-600.5 520.5,-600.5"/>
<text text-anchor="middle" x="579" y="-607.5" font-family="Helvetica,sans-Serif" font-size="10.00">eap_radius_dae_create</text>
</a>
</g>
</g>
<!-- Node9&#45;&gt;Node12 -->
<g id="edge12" class="edge"><title>Node9&#45;&gt;Node12</title>
<path fill="none" stroke="midnightblue" d="M460.485,-553.809C476.124,-565.31 498.564,-580.623 520,-591 527.439,-594.601 535.729,-597.772 543.662,-600.44"/>
<polygon fill="midnightblue" stroke="midnightblue" points="462.223,-550.738 452.121,-547.543 458.026,-556.34 462.223,-550.738"/>
</g>
<!-- Node14 -->
<g id="node14" class="node"><title>Node14</title>
<g id="a_node14"><a xlink:href="../../d1/d74/revocation__validator_8c.html#a2fb04f8dee889356b88a31c221a092ea" target="_top" xlink:title="fetch_ocsp">
<polygon fill="none" stroke="black" points="546.5,-562.5 546.5,-581.5 611.5,-581.5 611.5,-562.5 546.5,-562.5"/>
<text text-anchor="middle" x="579" y="-569.5" font-family="Helvetica,sans-Serif" font-size="10.00">fetch_ocsp</text>
</a>
</g>
</g>
<!-- Node9&#45;&gt;Node14 -->
<g id="edge15" class="edge"><title>Node9&#45;&gt;Node14</title>
<path fill="none" stroke="midnightblue" d="M473.075,-546.149C495.281,-551.62 524.371,-558.787 546.288,-564.187"/>
<polygon fill="midnightblue" stroke="midnightblue" points="473.645,-542.685 463.098,-543.691 471.97,-549.482 473.645,-542.685"/>
</g>
<!-- Node16 -->
<g id="node16" class="node"><title>Node16</title>
<g id="a_node16"><a xlink:href="../../d7/d9c/dhcp__socket_8c.html#aabce5046a77a10beebdeb94f019d7171" target="_top" xlink:title="METHOD">
<polygon fill="none" stroke="black" points="549,-524.5 549,-543.5 609,-543.5 609,-524.5 549,-524.5"/>
<text text-anchor="middle" x="579" y="-531.5" font-family="Helvetica,sans-Serif" font-size="10.00">METHOD</text>
</a>
</g>
</g>
<!-- Node9&#45;&gt;Node16 -->
<g id="edge17" class="edge"><title>Node9&#45;&gt;Node16</title>
<path fill="none" stroke="midnightblue" d="M473.395,-537.032C496.342,-536.367 526.525,-535.492 548.569,-534.853"/>
<polygon fill="midnightblue" stroke="midnightblue" points="472.992,-533.542 463.098,-537.33 473.195,-540.539 472.992,-533.542"/>
</g>
<!-- Node11 -->
<g id="node11" class="node"><title>Node11</title>
<g id="a_node11"><a xlink:href="../../df/da0/dhcp__plugin_8c.html#a4d463038ce5b1946f5e7f959ec9420cd" target="_top" xlink:title="plugin_cb">
<polygon fill="none" stroke="red" points="708,-486.5 708,-505.5 766,-505.5 766,-486.5 708,-486.5"/>
<text text-anchor="middle" x="737" y="-493.5" font-family="Helvetica,sans-Serif" font-size="10.00">plugin_cb</text>
</a>
</g>
</g>
<!-- Node10&#45;&gt;Node11 -->
<g id="edge11" class="edge"><title>Node10&#45;&gt;Node11</title>
<path fill="none" stroke="midnightblue" d="M641.098,-496C664.026,-496 689.002,-496 707.574,-496"/>
<polygon fill="midnightblue" stroke="midnightblue" points="641.08,-492.5 631.08,-496 641.08,-499.5 641.08,-492.5"/>
</g>
<!-- Node13 -->
<g id="node13" class="node"><title>Node13</title>
<g id="a_node13"><a xlink:href="../../d3/de7/eap__radius__plugin_8c.html#abd3973b01f8d04957f7a3fc8e88fd716" target="_top" xlink:title="plugin_cb">
<polygon fill="none" stroke="black" points="708,-600.5 708,-619.5 766,-619.5 766,-600.5 708,-600.5"/>
<text text-anchor="middle" x="737" y="-607.5" font-family="Helvetica,sans-Serif" font-size="10.00">plugin_cb</text>
</a>
</g>
</g>
<!-- Node12&#45;&gt;Node13 -->
<g id="edge13" class="edge"><title>Node12&#45;&gt;Node13</title>
<path fill="none" stroke="midnightblue" d="M647.887,-610C668.971,-610 691.057,-610 707.843,-610"/>
<polygon fill="midnightblue" stroke="midnightblue" points="647.645,-606.5 637.645,-610 647.645,-613.5 647.645,-606.5"/>
</g>
<!-- Node13&#45;&gt;Node3 -->
<g id="edge14" class="edge"><title>Node13&#45;&gt;Node3</title>
<path fill="none" stroke="midnightblue" d="M775.714,-621.889C783.75,-624.499 792.173,-627.294 800,-630 813.188,-634.56 827.77,-639.915 839.776,-644.408"/>
<polygon fill="midnightblue" stroke="midnightblue" points="776.76,-618.549 766.169,-618.813 774.614,-625.211 776.76,-618.549"/>
</g>
<!-- Node15 -->
<g id="node15" class="node"><title>Node15</title>
<g id="a_node15"><a xlink:href="../../d1/d74/revocation__validator_8c.html#ae83d089d797a1ee3cc4040c6af2a008b" target="_top" xlink:title="check_ocsp">
<polygon fill="none" stroke="red" points="702.5,-562.5 702.5,-581.5 771.5,-581.5 771.5,-562.5 702.5,-562.5"/>
<text text-anchor="middle" x="737" y="-569.5" font-family="Helvetica,sans-Serif" font-size="10.00">check_ocsp</text>
</a>
</g>
</g>
<!-- Node14&#45;&gt;Node15 -->
<g id="edge16" class="edge"><title>Node14&#45;&gt;Node15</title>
<path fill="none" stroke="midnightblue" d="M621.593,-572C646.842,-572 678.653,-572 702.318,-572"/>
<polygon fill="midnightblue" stroke="midnightblue" points="621.569,-568.5 611.569,-572 621.569,-575.5 621.569,-568.5"/>
</g>
<!-- Node17&#45;&gt;Node9 -->
<g id="edge19" class="edge"><title>Node17&#45;&gt;Node9</title>
<path fill="none" stroke="midnightblue" d="M343.54,-515.851C367.735,-521.524 395.534,-528.042 414.678,-532.531"/>
<polygon fill="midnightblue" stroke="midnightblue" points="344.311,-512.437 333.776,-513.561 342.713,-519.252 344.311,-512.437"/>
</g>
<!-- Node20 -->
<g id="node20" class="node"><title>Node20</title>
<g id="a_node20"><a xlink:href="../../d2/d9f/pt__tls__client_8c.html#aeb65c394c911cfe99ccf34a5f4bcdfab" target="_top" xlink:title="METHOD">
<polygon fill="none" stroke="black" points="409,-323.5 409,-342.5 469,-342.5 469,-323.5 409,-323.5"/>
<text text-anchor="middle" x="439" y="-330.5" font-family="Helvetica,sans-Serif" font-size="10.00">METHOD</text>
</a>
</g>
</g>
<!-- Node19&#45;&gt;Node20 -->
<g id="edge22" class="edge"><title>Node19&#45;&gt;Node20</title>
<path fill="none" stroke="midnightblue" d="M181.404,-325.712C195.648,-328.709 211.377,-331.506 226,-333 290.991,-339.641 367.776,-337.073 408.756,-334.873"/>
<polygon fill="midnightblue" stroke="midnightblue" points="181.848,-322.226 171.331,-323.509 180.353,-329.065 181.848,-322.226"/>
</g>
<!-- Node23 -->
<g id="node23" class="node"><title>Node23</title>
<g id="a_node23"><a xlink:href="../../d7/d6a/pt__tls__server_8c.html#acbbf5dff3000a4c419ae30ac62ccda9e" target="_top" xlink:title="read_sasl">
<polygon fill="none" stroke="black" points="262.5,-380.5 262.5,-399.5 321.5,-399.5 321.5,-380.5 262.5,-380.5"/>
<text text-anchor="middle" x="292" y="-387.5" font-family="Helvetica,sans-Serif" font-size="10.00">read_sasl</text>
</a>
</g>
</g>
<!-- Node22&#45;&gt;Node23 -->
<g id="edge25" class="edge"><title>Node22&#45;&gt;Node23</title>
<path fill="none" stroke="midnightblue" d="M180.276,-390C206.919,-390 239.556,-390 262.47,-390"/>
<polygon fill="midnightblue" stroke="midnightblue" points="180.019,-386.5 170.019,-390 180.019,-393.5 180.019,-386.5"/>
</g>
<!-- Node26 -->
<g id="node26" class="node"><title>Node26</title>
<g id="a_node26"><a xlink:href="../../d7/d6a/pt__tls__server_8c.html#acf26fb32d65a8d6894226aead50152fd" target="_top" xlink:title="read_sasl_mech_selection">
<polygon fill="none" stroke="black" points="226,-418.5 226,-437.5 358,-437.5 358,-418.5 226,-418.5"/>
<text text-anchor="middle" x="292" y="-425.5" font-family="Helvetica,sans-Serif" font-size="10.00">read_sasl_mech_selection</text>
</a>
</g>
</g>
<!-- Node22&#45;&gt;Node26 -->
<g id="edge28" class="edge"><title>Node22&#45;&gt;Node26</title>
<path fill="none" stroke="midnightblue" d="M179.794,-401.084C202.544,-406.59 229.758,-413.177 251.57,-418.456"/>
<polygon fill="midnightblue" stroke="midnightblue" points="180.562,-397.669 170.019,-398.718 178.915,-404.472 180.562,-397.669"/>
</g>
<!-- Node24 -->
<g id="node24" class="node"><title>Node24</title>
<g id="a_node24"><a xlink:href="../../d7/d6a/pt__tls__server_8c.html#a684d6f661f6c86ca310bb47a93b3c2e7" target="_top" xlink:title="do_sasl">
<polygon fill="none" stroke="black" points="414,-399.5 414,-418.5 464,-418.5 464,-399.5 414,-399.5"/>
<text text-anchor="middle" x="439" y="-406.5" font-family="Helvetica,sans-Serif" font-size="10.00">do_sasl</text>
</a>
</g>
</g>
<!-- Node23&#45;&gt;Node24 -->
<g id="edge26" class="edge"><title>Node23&#45;&gt;Node24</title>
<path fill="none" stroke="midnightblue" d="M331.594,-395.057C357.686,-398.476 391.341,-402.886 413.743,-405.821"/>
<polygon fill="midnightblue" stroke="midnightblue" points="332.017,-391.583 321.647,-393.754 331.108,-398.523 332.017,-391.583"/>
</g>
<!-- Node25 -->
<g id="node25" class="node"><title>Node25</title>
<g id="a_node25"><a xlink:href="../../d7/d6a/pt__tls__server_8c.html#a7ea8b635513dc7a24eeb92db968b53b2" target="_top" xlink:title="authenticate">
<polygon fill="none" stroke="red" points="544,-399.5 544,-418.5 614,-418.5 614,-399.5 544,-399.5"/>
<text text-anchor="middle" x="579" y="-406.5" font-family="Helvetica,sans-Serif" font-size="10.00">authenticate</text>
</a>
</g>
</g>
<!-- Node24&#45;&gt;Node25 -->
<g id="edge27" class="edge"><title>Node24&#45;&gt;Node25</title>
<path fill="none" stroke="midnightblue" d="M474.239,-409C495.484,-409 522.68,-409 543.899,-409"/>
<polygon fill="midnightblue" stroke="midnightblue" points="474.038,-405.5 464.038,-409 474.038,-412.5 474.038,-405.5"/>
</g>
<!-- Node26&#45;&gt;Node24 -->
<g id="edge29" class="edge"><title>Node26&#45;&gt;Node24</title>
<path fill="none" stroke="midnightblue" d="M368.555,-418.1C385.049,-415.938 401.331,-413.805 413.98,-412.147"/>
<polygon fill="midnightblue" stroke="midnightblue" points="367.749,-414.675 358.289,-419.445 368.659,-421.616 367.749,-414.675"/>
</g>
<!-- Node27&#45;&gt;Node1 -->
<g id="edge31" class="edge"><title>Node27&#45;&gt;Node1</title>
<path fill="none" stroke="midnightblue" d="M99.0686,-363.864C79.8439,-368.095 56.2646,-371.803 40.0816,-372.976"/>
<polygon fill="midnightblue" stroke="midnightblue" points="100.01,-367.239 108.944,-361.544 98.4084,-360.424 100.01,-367.239"/>
</g>
<!-- Node29 -->
<g id="node29" class="node"><title>Node29</title>
<g id="a_node29"><a xlink:href="../../d7/d72/group__tnc__pdp__t.html#ga21f951db22d811c7fb73430fdb96a605" target="_top" xlink:title="tnc_pdp_create">
<polygon fill="none" stroke="black" points="250.5,-266.5 250.5,-285.5 333.5,-285.5 333.5,-266.5 250.5,-266.5"/>
<text text-anchor="middle" x="292" y="-273.5" font-family="Helvetica,sans-Serif" font-size="10.00">tnc_pdp_create</text>
</a>
</g>
</g>
<!-- Node28&#45;&gt;Node29 -->
<g id="edge33" class="edge"><title>Node28&#45;&gt;Node29</title>
<path fill="none" stroke="midnightblue" d="M183.084,-249.88C205.194,-255.232 230.943,-261.464 251.743,-266.498"/>
<polygon fill="midnightblue" stroke="midnightblue" points="183.755,-246.442 173.213,-247.491 182.109,-253.245 183.755,-246.442"/>
</g>
<!-- Node30 -->
<g id="node30" class="node"><title>Node30</title>
<g id="a_node30"><a xlink:href="../../d6/d91/tnc__pdp__plugin_8c.html#ad0f1703d701d219c3599d72be3217dff" target="_top" xlink:title="plugin_cb">
<polygon fill="none" stroke="black" points="410,-266.5 410,-285.5 468,-285.5 468,-266.5 410,-266.5"/>
<text text-anchor="middle" x="439" y="-273.5" font-family="Helvetica,sans-Serif" font-size="10.00">plugin_cb</text>
</a>
</g>
</g>
<!-- Node29&#45;&gt;Node30 -->
<g id="edge34" class="edge"><title>Node29&#45;&gt;Node30</title>
<path fill="none" stroke="midnightblue" d="M344.035,-276C366.168,-276 391.236,-276 409.91,-276"/>
<polygon fill="midnightblue" stroke="midnightblue" points="343.776,-272.5 333.776,-276 343.776,-279.5 343.776,-272.5"/>
</g>
<!-- Node31 -->
<g id="node31" class="node"><title>Node31</title>
<g id="a_node31"><a xlink:href="../../d6/d91/tnc__pdp__plugin_8c.html#a15a1f1e6f41713b4fef97e4fc26d2dc6" target="_top" xlink:title="METHOD">
<polygon fill="none" stroke="black" points="549,-266.5 549,-285.5 609,-285.5 609,-266.5 549,-266.5"/>
<text text-anchor="middle" x="579" y="-273.5" font-family="Helvetica,sans-Serif" font-size="10.00">METHOD</text>
</a>
</g>
</g>
<!-- Node30&#45;&gt;Node31 -->
<g id="edge35" class="edge"><title>Node30&#45;&gt;Node31</title>
<path fill="none" stroke="midnightblue" d="M478.399,-276C500.69,-276 528.326,-276 548.827,-276"/>
<polygon fill="midnightblue" stroke="midnightblue" points="478.259,-272.5 468.259,-276 478.259,-279.5 478.259,-272.5"/>
</g>
<!-- Node33 -->
<g id="node33" class="node"><title>Node33</title>
<g id="a_node33"><a xlink:href="../../de/dcb/libtls_2tests_2suites_2test__socket_8c.html#ab74d2178e43d8a7a809ccbdbef66b060" target="_top" xlink:title="test_tls">
<polygon fill="none" stroke="black" points="414.5,-57.5 414.5,-76.5 463.5,-76.5 463.5,-57.5 414.5,-57.5"/>
<text text-anchor="middle" x="439" y="-64.5" font-family="Helvetica,sans-Serif" font-size="10.00">test_tls</text>
</a>
</g>
</g>
<!-- Node32&#45;&gt;Node33 -->
<g id="edge38" class="edge"><title>Node32&#45;&gt;Node33</title>
<path fill="none" stroke="midnightblue" d="M166.971,-82.915C184.248,-76.7523 205.937,-70.0872 226,-67 293.662,-56.5884 374.916,-61.3062 414.293,-64.6646"/>
<polygon fill="midnightblue" stroke="midnightblue" points="165.529,-79.716 157.353,-86.4547 167.947,-86.2852 165.529,-79.716"/>
</g>
<!-- Node34 -->
<g id="node34" class="node"><title>Node34</title>
<g id="a_node34"><a xlink:href="../../de/dcb/libtls_2tests_2suites_2test__socket_8c.html#a1eea2e528e1d4949dddbb55396230be7" target="_top" xlink:title="START_TEST">
<polygon fill="none" stroke="black" points="539,-76.5 539,-95.5 619,-95.5 619,-76.5 539,-76.5"/>
<text text-anchor="middle" x="579" y="-83.5" font-family="Helvetica,sans-Serif" font-size="10.00">START_TEST</text>
</a>
</g>
</g>
<!-- Node33&#45;&gt;Node34 -->
<g id="edge39" class="edge"><title>Node33&#45;&gt;Node34</title>
<path fill="none" stroke="midnightblue" d="M473.781,-71.651C493.479,-74.363 518.409,-77.7955 538.948,-80.6232"/>
<polygon fill="midnightblue" stroke="midnightblue" points="474.107,-68.163 463.723,-70.2662 473.152,-75.0975 474.107,-68.163"/>
</g>
<!-- Node35 -->
<g id="node35" class="node"><title>Node35</title>
<g id="a_node35"><a xlink:href="../../d4/ded/test__threading_8c.html#a2355c3944b2e107393932088b9b9f16b" target="_top" xlink:title="threading_suite_create">
<polygon fill="none" stroke="black" points="521.5,-38.5 521.5,-57.5 636.5,-57.5 636.5,-38.5 521.5,-38.5"/>
<text text-anchor="middle" x="579" y="-45.5" font-family="Helvetica,sans-Serif" font-size="10.00">threading_suite_create</text>
</a>
</g>
</g>
<!-- Node33&#45;&gt;Node35 -->
<g id="edge40" class="edge"><title>Node33&#45;&gt;Node35</title>
<path fill="none" stroke="midnightblue" d="M474.045,-62.3126C488.313,-60.3482 505.29,-58.0107 521.346,-55.8002"/>
<polygon fill="midnightblue" stroke="midnightblue" points="473.152,-58.9025 463.723,-63.7338 474.107,-65.837 473.152,-58.9025"/>
</g>
<!-- Node37 -->
<g id="node37" class="node"><title>Node37</title>
<g id="a_node37"><a xlink:href="../../d2/d9f/pt__tls__client_8c.html#a428de355d7d97ac7377ef8d11f4a73b2" target="_top" xlink:title="authenticate">
<polygon fill="none" stroke="black" points="257,-304.5 257,-323.5 327,-323.5 327,-304.5 257,-304.5"/>
<text text-anchor="middle" x="292" y="-311.5" font-family="Helvetica,sans-Serif" font-size="10.00">authenticate</text>
</a>
</g>
</g>
<!-- Node36&#45;&gt;Node37 -->
<g id="edge42" class="edge"><title>Node36&#45;&gt;Node37</title>
<path fill="none" stroke="midnightblue" d="M183.576,-287.999C207.478,-293.785 235.54,-300.577 256.988,-305.768"/>
<polygon fill="midnightblue" stroke="midnightblue" points="184.16,-284.54 173.618,-285.589 182.514,-291.343 184.16,-284.54"/>
</g>
<!-- Node37&#45;&gt;Node20 -->
<g id="edge43" class="edge"><title>Node37&#45;&gt;Node20</title>
<path fill="none" stroke="midnightblue" d="M337.326,-319.808C360.528,-322.848 388.289,-326.486 408.777,-329.171"/>
<polygon fill="midnightblue" stroke="midnightblue" points="337.733,-316.332 327.363,-318.503 336.823,-323.272 337.733,-316.332"/>
</g>
<!-- Node39 -->
<g id="node39" class="node"><title>Node39</title>
<g id="a_node39"><a xlink:href="../../d7/d1e/imc__agent_8c.html#a5d71c00304456607c3367272c46be913" target="_top" xlink:title="METHOD">
<polygon fill="none" stroke="black" points="262,-152.5 262,-171.5 322,-171.5 322,-152.5 262,-152.5"/>
<text text-anchor="middle" x="292" y="-159.5" font-family="Helvetica,sans-Serif" font-size="10.00">METHOD</text>
</a>
</g>
</g>
<!-- Node38&#45;&gt;Node39 -->
<g id="edge45" class="edge"><title>Node38&#45;&gt;Node39</title>
<path fill="none" stroke="midnightblue" d="M183.58,-188C209.316,-181.771 239.872,-174.375 261.803,-169.067"/>
<polygon fill="midnightblue" stroke="midnightblue" points="182.514,-184.657 173.618,-190.411 184.16,-191.46 182.514,-184.657"/>
</g>
<!-- Node40 -->
<g id="node40" class="node"><title>Node40</title>
<g id="a_node40"><a xlink:href="../../d1/dd0/eap__radius__accounting_8c.html#a78610f1a32d59d8ab888b0f84ec3799e" target="_top" xlink:title="send_interim">
<polygon fill="none" stroke="black" points="256,-228.5 256,-247.5 328,-247.5 328,-228.5 256,-228.5"/>
<text text-anchor="middle" x="292" y="-235.5" font-family="Helvetica,sans-Serif" font-size="10.00">send_interim</text>
</a>
</g>
</g>
<!-- Node38&#45;&gt;Node40 -->
<g id="edge46" class="edge"><title>Node38&#45;&gt;Node40</title>
<path fill="none" stroke="midnightblue" d="M183.431,-211.964C206.979,-217.664 234.591,-224.347 255.943,-229.515"/>
<polygon fill="midnightblue" stroke="midnightblue" points="184.16,-208.54 173.618,-209.589 182.514,-215.343 184.16,-208.54"/>
</g>
<!-- Node42 -->
<g id="node42" class="node"><title>Node42</title>
<g id="a_node42"><a xlink:href="../../d1/dd0/eap__radius__accounting_8c.html#a1824636242462a6b05f546a58b31ceba" target="_top" xlink:title="send_start">
<polygon fill="none" stroke="black" points="548,-209.5 548,-228.5 610,-228.5 610,-209.5 548,-209.5"/>
<text text-anchor="middle" x="579" y="-216.5" font-family="Helvetica,sans-Serif" font-size="10.00">send_start</text>
</a>
</g>
</g>
<!-- Node38&#45;&gt;Node42 -->
<g id="edge51" class="edge"><title>Node38&#45;&gt;Node42</title>
<path fill="none" stroke="midnightblue" d="M184.595,-202.165C277.602,-206.145 473.063,-214.509 547.937,-217.714"/>
<polygon fill="midnightblue" stroke="midnightblue" points="184.72,-198.667 174.579,-201.736 184.42,-205.661 184.72,-198.667"/>
</g>
<!-- Node44 -->
<g id="node44" class="node"><title>Node44</title>
<g id="a_node44"><a xlink:href="../../d1/dd0/eap__radius__accounting_8c.html#ae370423a364793ed03011a2ca7a2a3bd" target="_top" xlink:title="send_stop">
<polygon fill="none" stroke="black" points="261,-114.5 261,-133.5 323,-133.5 323,-114.5 261,-114.5"/>
<text text-anchor="middle" x="292" y="-121.5" font-family="Helvetica,sans-Serif" font-size="10.00">send_stop</text>
</a>
</g>
</g>
<!-- Node38&#45;&gt;Node44 -->
<g id="edge52" class="edge"><title>Node38&#45;&gt;Node44</title>
<path fill="none" stroke="midnightblue" d="M164.958,-186.001C173.289,-181.839 182.159,-177.036 190,-172 207.288,-160.898 207.788,-152.51 226,-143 236.838,-137.34 249.598,-133.143 260.929,-130.155"/>
<polygon fill="midnightblue" stroke="midnightblue" points="163.34,-182.896 155.866,-190.405 166.392,-189.195 163.34,-182.896"/>
</g>
<!-- Node41 -->
<g id="node41" class="node"><title>Node41</title>
<g id="a_node41"><a xlink:href="../../d1/dd0/eap__radius__accounting_8c.html#a94aa6f1d1b4a4cde8cb9758a26495d4a" target="_top" xlink:title="schedule_interim">
<polygon fill="none" stroke="red" points="394,-228.5 394,-247.5 484,-247.5 484,-228.5 394,-228.5"/>
<text text-anchor="middle" x="439" y="-235.5" font-family="Helvetica,sans-Serif" font-size="10.00">schedule_interim</text>
</a>
</g>
</g>
<!-- Node40&#45;&gt;Node41 -->
<g id="edge47" class="edge"><title>Node40&#45;&gt;Node41</title>
<path fill="none" stroke="midnightblue" d="M338.21,-231.694C355.947,-231.09 376.236,-231.102 393.868,-231.732"/>
<polygon fill="midnightblue" stroke="midnightblue" points="337.944,-228.202 328.1,-232.122 338.239,-235.196 337.944,-228.202"/>
</g>
<!-- Node41&#45;&gt;Node40 -->
<g id="edge48" class="edge"><title>Node41&#45;&gt;Node40</title>
<path fill="none" stroke="midnightblue" d="M383.736,-244.557C365.121,-244.959 344.79,-244.733 328.1,-243.878"/>
<polygon fill="midnightblue" stroke="midnightblue" points="383.971,-248.051 393.868,-244.268 383.772,-241.054 383.971,-248.051"/>
</g>
<!-- Node41&#45;&gt;Node42 -->
<g id="edge49" class="edge"><title>Node41&#45;&gt;Node42</title>
<path fill="none" stroke="midnightblue" d="M494.027,-230.562C512.333,-228.041 532.116,-225.317 547.881,-223.147"/>
<polygon fill="midnightblue" stroke="midnightblue" points="493.473,-227.105 484.043,-231.936 494.427,-234.039 493.473,-227.105"/>
</g>
<!-- Node43 -->
<g id="node43" class="node"><title>Node43</title>
<g id="a_node43"><a xlink:href="../../d1/dd0/eap__radius__accounting_8c.html#ac299d1d8cbcaf2afa591571c78ff1833" target="_top" xlink:title="METHOD">
<polygon fill="none" stroke="black" points="707,-209.5 707,-228.5 767,-228.5 767,-209.5 707,-209.5"/>
<text text-anchor="middle" x="737" y="-216.5" font-family="Helvetica,sans-Serif" font-size="10.00">METHOD</text>
</a>
</g>
</g>
<!-- Node42&#45;&gt;Node43 -->
<g id="edge50" class="edge"><title>Node42&#45;&gt;Node43</title>
<path fill="none" stroke="midnightblue" d="M620.39,-219C647.445,-219 682.438,-219 706.806,-219"/>
<polygon fill="midnightblue" stroke="midnightblue" points="620.078,-215.5 610.078,-219 620.078,-222.5 620.078,-215.5"/>
</g>
<!-- Node45 -->
<g id="node45" class="node"><title>Node45</title>
<g id="a_node45"><a xlink:href="../../d1/dd0/eap__radius__accounting_8c.html#a1058467d052355d8fa61a6ed123c03f1" target="_top" xlink:title="METHOD">
<polygon fill="none" stroke="black" points="409,-114.5 409,-133.5 469,-133.5 469,-114.5 409,-114.5"/>
<text text-anchor="middle" x="439" y="-121.5" font-family="Helvetica,sans-Serif" font-size="10.00">METHOD</text>
</a>
</g>
</g>
<!-- Node44&#45;&gt;Node45 -->
<g id="edge53" class="edge"><title>Node44&#45;&gt;Node45</title>
<path fill="none" stroke="midnightblue" d="M333.278,-124C357.31,-124 387.273,-124 408.984,-124"/>
<polygon fill="midnightblue" stroke="midnightblue" points="333.044,-120.5 323.044,-124 333.044,-127.5 333.044,-120.5"/>
</g>
<!-- Node46&#45;&gt;Node9 -->
<g id="edge55" class="edge"><title>Node46&#45;&gt;Node9</title>
<path fill="none" stroke="midnightblue" d="M342.47,-478.751C347.797,-480.627 353.068,-482.71 358,-485 383.839,-496.999 410.853,-516.616 425.944,-528.32"/>
<polygon fill="midnightblue" stroke="midnightblue" points="343.474,-475.397 332.881,-475.599 341.288,-482.047 343.474,-475.397"/>
</g>
<!-- Node48 -->
<g id="node48" class="node"><title>Node48</title>
<g id="a_node48"><a xlink:href="../../de/dcb/libtls_2tests_2suites_2test__socket_8c.html#a52e665104566fbb4bd8fcd9d3b336110" target="_top" xlink:title="start_echo_server">
<polygon fill="none" stroke="black" points="244.5,-76.5 244.5,-95.5 339.5,-95.5 339.5,-76.5 244.5,-76.5"/>
<text text-anchor="middle" x="292" y="-83.5" font-family="Helvetica,sans-Serif" font-size="10.00">start_echo_server</text>
</a>
</g>
</g>
<!-- Node47&#45;&gt;Node48 -->
<g id="edge57" class="edge"><title>Node47&#45;&gt;Node48</title>
<path fill="none" stroke="midnightblue" d="M158.941,-138.277C177.097,-127.987 202.517,-114.451 226,-105 234.834,-101.444 244.586,-98.2367 253.789,-95.5126"/>
<polygon fill="midnightblue" stroke="midnightblue" points="157.084,-135.307 150.157,-143.324 160.571,-141.377 157.084,-135.307"/>
</g>
<!-- Node48&#45;&gt;Node33 -->
<g id="edge58" class="edge"><title>Node48&#45;&gt;Node33</title>
<path fill="none" stroke="midnightblue" d="M349.786,-78.559C372.182,-75.6244 396.679,-72.4145 414.163,-70.1235"/>
<polygon fill="midnightblue" stroke="midnightblue" points="349.138,-75.114 339.677,-79.8837 350.047,-82.0547 349.138,-75.114"/>
</g>
<!-- Node50 -->
<g id="node50" class="node"><title>Node50</title>
<g id="a_node50"><a xlink:href="../../d6/d63/eap__radius__xauth_8c.html#af56283fa00519460fbfec662b20c433f" target="_top" xlink:title="METHOD">
<polygon fill="none" stroke="black" points="262,-0.5 262,-19.5 322,-19.5 322,-0.5 262,-0.5"/>
<text text-anchor="middle" x="292" y="-7.5" font-family="Helvetica,sans-Serif" font-size="10.00">METHOD</text>
</a>
</g>
</g>
<!-- Node49&#45;&gt;Node50 -->
<g id="edge60" class="edge"><title>Node49&#45;&gt;Node50</title>
<path fill="none" stroke="midnightblue" d="M179.456,-17.1047C206.039,-15.4115 238.807,-13.3244 261.928,-11.8517"/>
<polygon fill="midnightblue" stroke="midnightblue" points="178.991,-13.6271 169.234,-17.7558 179.436,-20.613 178.991,-13.6271"/>
</g>
</g>
</svg>
        <g id="navigator" transform="translate(0 0)" fill="#404254">
                <rect fill="#f2f5e9" fill-opacity="0.5" stroke="#606060" stroke-width=".5" x="0" y="0" width="60" height="60"/>
                <use id="zoomplus" xlink:href="#zoomPlus" x="17" y="9" onmousedown="handleZoom(evt,'in')"/>
                <use id="zoomminus" xlink:href="#zoomMin" x="42" y="9" onmousedown="handleZoom(evt,'out')"/>
                <use id="reset" xlink:href="#resetDef" x="30" y="36" onmousedown="handleReset()"/>
                <g id="arrowUp" xlink:href="#dirArrow" transform="translate(30 24)" onmousedown="handlePan(0,-1)">
                  <use xlink:href="#rim" fill="#404040">
                        <set attributeName="fill" to="#808080" begin="arrowUp.mouseover" end="arrowUp.mouseout"/>
                  </use>
                  <path fill="none" stroke="white" stroke-width="1.5" d="M0,-3.0v7 M-2.5,-0.5L0,-3.0L2.5,-0.5"/>
                </g>
                <g id="arrowRight" xlink:href="#dirArrow" transform="rotate(90) translate(36 -43)" onmousedown="handlePan(1,0)">
                  <use xlink:href="#rim" fill="#404040">
                        <set attributeName="fill" to="#808080" begin="arrowRight.mouseover" end="arrowRight.mouseout"/>
                  </use>
                  <path fill="none" stroke="white" stroke-width="1.5" d="M0,-3.0v7 M-2.5,-0.5L0,-3.0L2.5,-0.5"/>
                </g>
                <g id="arrowDown" xlink:href="#dirArrow" transform="rotate(180) translate(-30 -48)" onmousedown="handlePan(0,1)">
                  <use xlink:href="#rim" fill="#404040">
                        <set attributeName="fill" to="#808080" begin="arrowDown.mouseover" end="arrowDown.mouseout"/>
                  </use>
                  <path fill="none" stroke="white" stroke-width="1.5" d="M0,-3.0v7 M-2.5,-0.5L0,-3.0L2.5,-0.5"/>
                </g>
                <g id="arrowLeft" xlink:href="#dirArrow" transform="rotate(270) translate(-36 17)" onmousedown="handlePan(-1,0)">
                  <use xlink:href="#rim" fill="#404040">
                        <set attributeName="fill" to="#808080" begin="arrowLeft.mouseover" end="arrowLeft.mouseout"/>
                  </use>
                  <path fill="none" stroke="white" stroke-width="1.5" d="M0,-3.0v7 M-2.5,-0.5L0,-3.0L2.5,-0.5"/>
                </g>
        </g>
        <svg viewBox="0 0 15 15" width="100%" height="30px" preserveAspectRatio="xMaxYMin meet">
         <g id="arrow_out" transform="scale(0.3 0.3)">
          <a xlink:href="pt-tls-client_8c_a909fb6319573549ef7cd13f84fdd5090_icgraph_org.svg" target="_base">
           <rect id="button" ry="5" rx="5" y="6" x="6" height="38" width="38"
                fill="#f2f5e9" fill-opacity="0.5" stroke="#606060" stroke-width="1.0"/>
           <path id="arrow"
             d="M 11.500037,31.436501 C 11.940474,20.09759 22.043105,11.32322 32.158766,21.979434 L 37.068811,17.246167 C 37.068811,17.246167 37.088388,32 37.088388,32 L 22.160133,31.978069 C 22.160133,31.978069 26.997745,27.140456 26.997745,27.140456 C 18.528582,18.264221 13.291696,25.230495 11.500037,31.436501 z"
             style="fill:#404040;"/>
          </a>
         </g>
        </svg>
</svg>
