<?xml version="1.0" encoding="UTF-8" standalone="no"?>
<!DOCTYPE svg PUBLIC "-//W3C//DTD SVG 1.1//EN"
 "http://www.w3.org/Graphics/SVG/1.1/DTD/svg11.dtd">
<!-- Generated by graphviz version 2.36.0 (20140111.2315)
 -->
<!-- Title: client Pages: 1 -->
<svg width="1160pt" height="576pt"
 viewBox="0.00 0.00 1160.00 575.73" xmlns="http://www.w3.org/2000/svg" xmlns:xlink="http://www.w3.org/1999/xlink">
<g id="graph0" class="graph" transform="scale(1 1) rotate(0) translate(4 571.732)">
<title>client</title>
<!-- Node1 -->
<g id="node1" class="node"><title>Node1</title>
<polygon fill="#bfbfbf" stroke="black" points="0,-266.5 0,-285.5 40,-285.5 40,-266.5 0,-266.5"/>
<text text-anchor="middle" x="20" y="-273.5" font-family="Helvetica,sans-Serif" font-size="10.00">client</text>
</g>
<!-- Node2 -->
<g id="node2" class="node"><title>Node2</title>
<g id="a_node2"><a xlink:href="../../d7/df1/group__host.html#ga5f2c94740339664ce118776e13829cd0" target="_top" xlink:title="host_create_any">
<polygon fill="none" stroke="black" points="560.5,-532.5 560.5,-551.5 649.5,-551.5 649.5,-532.5 560.5,-532.5"/>
<text text-anchor="middle" x="605" y="-539.5" font-family="Helvetica,sans-Serif" font-size="10.00">host_create_any</text>
</a>
</g>
</g>
<!-- Node1&#45;&gt;Node2 -->
<g id="edge1" class="edge"><title>Node1&#45;&gt;Node2</title>
<path fill="none" stroke="midnightblue" d="M20.8044,-285.856C20.7408,-316.903 24.8474,-413.716 76,-466 202.425,-595.221 443.041,-571.565 550.198,-553.041"/>
<polygon fill="midnightblue" stroke="midnightblue" points="550.911,-556.469 560.143,-551.27 549.684,-549.578 550.911,-556.469"/>
</g>
<!-- Node9 -->
<g id="node9" class="node"><title>Node9</title>
<g id="a_node9"><a xlink:href="../../d7/df1/group__host.html#gaa0dc359dc1c8e327bb484e3e12df59d7" target="_top" xlink:title="host_create_from_dns">
<polygon fill="none" stroke="black" points="76.5,-437.5 76.5,-456.5 189.5,-456.5 189.5,-437.5 76.5,-437.5"/>
<text text-anchor="middle" x="133" y="-444.5" font-family="Helvetica,sans-Serif" font-size="10.00">host_create_from_dns</text>
</a>
</g>
</g>
<!-- Node1&#45;&gt;Node9 -->
<g id="edge9" class="edge"><title>Node1&#45;&gt;Node9</title>
<path fill="none" stroke="midnightblue" d="M27.2859,-285.684C45.2204,-313.313 96.8447,-392.842 120.233,-428.873"/>
<polygon fill="midnightblue" stroke="midnightblue" points="117.403,-430.94 125.783,-437.423 123.274,-427.129 117.403,-430.94"/>
</g>
<!-- Node16 -->
<g id="node16" class="node"><title>Node16</title>
<g id="a_node16"><a xlink:href="../../d5/d8d/group__identification.html#ga23065d7dd9165080ce47e4c20089761e" target="_top" xlink:title="identification_create\l_from_string">
<polygon fill="none" stroke="black" points="81,-261 81,-291 185,-291 185,-261 81,-261"/>
<text text-anchor="start" x="89" y="-279" font-family="Helvetica,sans-Serif" font-size="10.00">identification_create</text>
<text text-anchor="middle" x="133" y="-268" font-family="Helvetica,sans-Serif" font-size="10.00">_from_string</text>
</a>
</g>
</g>
<!-- Node1&#45;&gt;Node16 -->
<g id="edge21" class="edge"><title>Node1&#45;&gt;Node16</title>
<path fill="none" stroke="midnightblue" d="M40.0816,-276C48.7189,-276 59.4631,-276 70.5276,-276"/>
<polygon fill="midnightblue" stroke="midnightblue" points="70.7277,-279.5 80.7277,-276 70.7277,-272.5 70.7277,-279.5"/>
</g>
<!-- Node39 -->
<g id="node39" class="node"><title>Node39</title>
<g id="a_node39"><a xlink:href="../../dd/d6d/group__pt__tls__client.html#gabe3d3392196788cfaf2c2a861e4fb7da" target="_top" xlink:title="pt_tls_client_create">
<polygon fill="none" stroke="black" points="82.5,-222.5 82.5,-241.5 183.5,-241.5 183.5,-222.5 82.5,-222.5"/>
<text text-anchor="middle" x="133" y="-229.5" font-family="Helvetica,sans-Serif" font-size="10.00">pt_tls_client_create</text>
</a>
</g>
</g>
<!-- Node1&#45;&gt;Node39 -->
<g id="edge56" class="edge"><title>Node1&#45;&gt;Node39</title>
<path fill="none" stroke="midnightblue" d="M28.3715,-266.391C37.4011,-259.383 53.3984,-251.418 72.9118,-243.358"/>
<polygon fill="midnightblue" stroke="midnightblue" points="74.464,-246.506 82.4337,-239.525 71.8501,-240.013 74.464,-246.506"/>
</g>
<!-- Node3 -->
<g id="node3" class="node"><title>Node3</title>
<g id="a_node3"><a xlink:href="../../df/da9/host_8c.html#ac3854e66d5a7563cae9608acbcad6eb5" target="_top" xlink:title="host_create_empty">
<polygon fill="none" stroke="black" points="710,-532.5 710,-551.5 810,-551.5 810,-532.5 710,-532.5"/>
<text text-anchor="middle" x="760" y="-539.5" font-family="Helvetica,sans-Serif" font-size="10.00">host_create_empty</text>
</a>
</g>
</g>
<!-- Node2&#45;&gt;Node3 -->
<g id="edge2" class="edge"><title>Node2&#45;&gt;Node3</title>
<path fill="none" stroke="midnightblue" d="M649.844,-542C665.346,-542 683.052,-542 699.627,-542"/>
<polygon fill="midnightblue" stroke="midnightblue" points="699.771,-545.5 709.771,-542 699.771,-538.5 699.771,-545.5"/>
</g>
<!-- Node7 -->
<g id="node7" class="node"><title>Node7</title>
<g id="a_node7"><a xlink:href="../../df/da9/host_8c.html#a1fb6a6590d2576c32709b890623cad8c" target="_top" xlink:title="update_sa_len">
<polygon fill="none" stroke="black" points="720,-456.5 720,-475.5 800,-475.5 800,-456.5 720,-456.5"/>
<text text-anchor="middle" x="760" y="-463.5" font-family="Helvetica,sans-Serif" font-size="10.00">update_sa_len</text>
</a>
</g>
</g>
<!-- Node2&#45;&gt;Node7 -->
<g id="edge7" class="edge"><title>Node2&#45;&gt;Node7</title>
<path fill="none" stroke="midnightblue" d="M649.65,-533.085C658.017,-530.477 666.5,-527.168 674,-523 692.973,-512.457 692.07,-502.232 710,-490 715.113,-486.512 720.808,-483.24 726.456,-480.303"/>
<polygon fill="midnightblue" stroke="midnightblue" points="728.381,-483.256 735.803,-475.694 725.286,-476.977 728.381,-483.256"/>
</g>
<!-- Node8 -->
<g id="node8" class="node"><title>Node8</title>
<g id="a_node8"><a xlink:href="../../da/dfc/settings__parser_8c.html#af07d89f5ceaea0c7c8252cc41fd75f37" target="_top" xlink:title="free">
<polygon fill="none" stroke="black" points="878.5,-342.5 878.5,-361.5 911.5,-361.5 911.5,-342.5 878.5,-342.5"/>
<text text-anchor="middle" x="895" y="-349.5" font-family="Helvetica,sans-Serif" font-size="10.00">free</text>
</a>
</g>
</g>
<!-- Node2&#45;&gt;Node8 -->
<g id="edge8" class="edge"><title>Node2&#45;&gt;Node8</title>
<path fill="none" stroke="midnightblue" d="M649.739,-533.624C701.748,-523.013 784.707,-503.831 810,-485 849.995,-455.224 875.668,-400.27 887.104,-371.197"/>
<polygon fill="midnightblue" stroke="midnightblue" points="890.413,-372.343 890.674,-361.752 883.865,-369.869 890.413,-372.343"/>
</g>
<!-- Node4 -->
<g id="node4" class="node"><title>Node4</title>
<g id="a_node4"><a xlink:href="../../df/da9/host_8c.html#a809d5cf7574c1f5e27758950d53653f4" target="_top" xlink:title="equals">
<polygon fill="none" stroke="black" points="872.5,-513.5 872.5,-532.5 917.5,-532.5 917.5,-513.5 872.5,-513.5"/>
<text text-anchor="middle" x="895" y="-520.5" font-family="Helvetica,sans-Serif" font-size="10.00">equals</text>
</a>
</g>
</g>
<!-- Node3&#45;&gt;Node4 -->
<g id="edge3" class="edge"><title>Node3&#45;&gt;Node4</title>
<path fill="none" stroke="midnightblue" d="M810.146,-534.979C827.582,-532.488 846.729,-529.753 862.319,-527.526"/>
<polygon fill="midnightblue" stroke="midnightblue" points="863.075,-530.953 872.48,-526.074 862.085,-524.024 863.075,-530.953"/>
</g>
<!-- Node5 -->
<g id="node5" class="node"><title>Node5</title>
<g id="a_node5"><a xlink:href="../../df/da9/host_8c.html#a0ea5fbf16ec81f3c5eaf6dc5da8d452a" target="_top" xlink:title="ip_equals">
<polygon fill="none" stroke="black" points="994,-532.5 994,-551.5 1052,-551.5 1052,-532.5 994,-532.5"/>
<text text-anchor="middle" x="1023" y="-539.5" font-family="Helvetica,sans-Serif" font-size="10.00">ip_equals</text>
</a>
</g>
</g>
<!-- Node3&#45;&gt;Node5 -->
<g id="edge6" class="edge"><title>Node3&#45;&gt;Node5</title>
<path fill="none" stroke="midnightblue" d="M810.092,-542C860.369,-542 937.488,-542 983.516,-542"/>
<polygon fill="midnightblue" stroke="midnightblue" points="983.679,-545.5 993.679,-542 983.679,-538.5 983.679,-545.5"/>
</g>
<!-- Node4&#45;&gt;Node5 -->
<g id="edge4" class="edge"><title>Node4&#45;&gt;Node5</title>
<path fill="none" stroke="midnightblue" d="M917.66,-526.266C935.679,-528.983 961.777,-532.919 983.363,-536.174"/>
<polygon fill="midnightblue" stroke="midnightblue" points="983.133,-539.679 993.543,-537.709 984.176,-532.757 983.133,-539.679"/>
</g>
<!-- Node6 -->
<g id="node6" class="node"><title>Node6</title>
<g id="a_node6"><a xlink:href="../../dd/d74/group__memory__i.html#ga46d7935db00fd7092430dbf4f36c2850" target="_top" xlink:title="memeq">
<polygon fill="none" stroke="black" points="1102.5,-532.5 1102.5,-551.5 1151.5,-551.5 1151.5,-532.5 1102.5,-532.5"/>
<text text-anchor="middle" x="1127" y="-539.5" font-family="Helvetica,sans-Serif" font-size="10.00">memeq</text>
</a>
</g>
</g>
<!-- Node5&#45;&gt;Node6 -->
<g id="edge5" class="edge"><title>Node5&#45;&gt;Node6</title>
<path fill="none" stroke="midnightblue" d="M1052.14,-542C1064.61,-542 1079.38,-542 1092.42,-542"/>
<polygon fill="midnightblue" stroke="midnightblue" points="1092.43,-545.5 1102.43,-542 1092.43,-538.5 1092.43,-545.5"/>
</g>
<!-- Node10 -->
<g id="node10" class="node"><title>Node10</title>
<g id="a_node10"><a xlink:href="../../d7/df1/group__host.html#ga75f9b1e7905a80d69bc3cc7a7c3775a5" target="_top" xlink:title="host_create_from_string\l_and_family">
<polygon fill="none" stroke="black" points="226,-432 226,-462 348,-462 348,-432 226,-432"/>
<text text-anchor="start" x="234" y="-450" font-family="Helvetica,sans-Serif" font-size="10.00">host_create_from_string</text>
<text text-anchor="middle" x="287" y="-439" font-family="Helvetica,sans-Serif" font-size="10.00">_and_family</text>
</a>
</g>
</g>
<!-- Node9&#45;&gt;Node10 -->
<g id="edge10" class="edge"><title>Node9&#45;&gt;Node10</title>
<path fill="none" stroke="midnightblue" d="M189.736,-447C198.201,-447 207.028,-447 215.753,-447"/>
<polygon fill="midnightblue" stroke="midnightblue" points="215.92,-450.5 225.92,-447 215.92,-443.5 215.92,-450.5"/>
</g>
<!-- Node13 -->
<g id="node13" class="node"><title>Node13</title>
<g id="a_node13"><a xlink:href="../../d9/dbc/kernel__pfkey__ipsec_8c.html#a5da61ec055ea1dffbb84ffe3caddb7dc" target="_top" xlink:title="set_port">
<polygon fill="none" stroke="black" points="579,-494.5 579,-513.5 631,-513.5 631,-494.5 579,-494.5"/>
<text text-anchor="middle" x="605" y="-501.5" font-family="Helvetica,sans-Serif" font-size="10.00">set_port</text>
</a>
</g>
</g>
<!-- Node9&#45;&gt;Node13 -->
<g id="edge20" class="edge"><title>Node9&#45;&gt;Node13</title>
<path fill="none" stroke="midnightblue" d="M157.249,-456.61C200.807,-474.036 298.072,-510.228 384,-523 434.995,-530.58 448.655,-527.652 500,-523 523.194,-520.899 548.944,-516.213 569.019,-512.021"/>
<polygon fill="midnightblue" stroke="midnightblue" points="569.913,-515.409 578.957,-509.89 568.445,-508.564 569.913,-515.409"/>
</g>
<!-- Node11 -->
<g id="node11" class="node"><title>Node11</title>
<g id="a_node11"><a xlink:href="../../d4/d40/group__string__i.html#ga65c3d08890165aaa4663c72d07f93bb7" target="_top" xlink:title="streq">
<polygon fill="none" stroke="black" points="423,-380.5 423,-399.5 461,-399.5 461,-380.5 423,-380.5"/>
<text text-anchor="middle" x="442" y="-387.5" font-family="Helvetica,sans-Serif" font-size="10.00">streq</text>
</a>
</g>
</g>
<!-- Node10&#45;&gt;Node11 -->
<g id="edge11" class="edge"><title>Node10&#45;&gt;Node11</title>
<path fill="none" stroke="midnightblue" d="M324.744,-431.905C342.549,-424.732 364.295,-416.178 384,-409 393.501,-405.539 403.98,-401.975 413.333,-398.882"/>
<polygon fill="midnightblue" stroke="midnightblue" points="414.526,-402.174 422.942,-395.738 412.349,-395.521 414.526,-402.174"/>
</g>
<!-- Node12 -->
<g id="node12" class="node"><title>Node12</title>
<g id="a_node12"><a xlink:href="../../df/da9/host_8c.html#a2670c8aac87ed6960c4e45f42f843b73" target="_top" xlink:title="host_create_any_port">
<polygon fill="none" stroke="black" points="387,-494.5 387,-513.5 497,-513.5 497,-494.5 387,-494.5"/>
<text text-anchor="middle" x="442" y="-501.5" font-family="Helvetica,sans-Serif" font-size="10.00">host_create_any_port</text>
</a>
</g>
</g>
<!-- Node10&#45;&gt;Node12 -->
<g id="edge12" class="edge"><title>Node10&#45;&gt;Node12</title>
<path fill="none" stroke="midnightblue" d="M328.6,-462.125C352.613,-471.072 382.73,-482.292 405.744,-490.865"/>
<polygon fill="midnightblue" stroke="midnightblue" points="404.541,-494.152 415.134,-494.363 406.985,-487.593 404.541,-494.152"/>
</g>
<!-- Node14 -->
<g id="node14" class="node"><title>Node14</title>
<g id="a_node14"><a xlink:href="../../da/d9b/group__windows.html#ga7fb1f8a8f40e09fa09e625d2a09dc04e" target="_top" xlink:title="inet_pton">
<polygon fill="none" stroke="black" points="414,-418.5 414,-437.5 470,-437.5 470,-418.5 414,-418.5"/>
<text text-anchor="middle" x="442" y="-425.5" font-family="Helvetica,sans-Serif" font-size="10.00">inet_pton</text>
</a>
</g>
</g>
<!-- Node10&#45;&gt;Node14 -->
<g id="edge15" class="edge"><title>Node10&#45;&gt;Node14</title>
<path fill="none" stroke="midnightblue" d="M348.031,-439.545C366.888,-437.203 387.147,-434.688 403.925,-432.604"/>
<polygon fill="midnightblue" stroke="midnightblue" points="404.386,-436.074 413.878,-431.368 403.523,-429.127 404.386,-436.074"/>
</g>
<!-- Node15 -->
<g id="node15" class="node"><title>Node15</title>
<g id="a_node15"><a xlink:href="../../d7/df1/group__host.html#ga3183b60055297ceaa19b4a5996496830" target="_top" xlink:title="host_create_from_sockaddr">
<polygon fill="none" stroke="black" points="536.5,-456.5 536.5,-475.5 673.5,-475.5 673.5,-456.5 536.5,-456.5"/>
<text text-anchor="middle" x="605" y="-463.5" font-family="Helvetica,sans-Serif" font-size="10.00">host_create_from_sockaddr</text>
</a>
</g>
</g>
<!-- Node10&#45;&gt;Node15 -->
<g id="edge16" class="edge"><title>Node10&#45;&gt;Node15</title>
<path fill="none" stroke="midnightblue" d="M348.181,-450.618C398.755,-453.659 471.373,-458.026 526.327,-461.33"/>
<polygon fill="midnightblue" stroke="midnightblue" points="526.182,-464.827 536.374,-461.934 526.602,-457.84 526.182,-464.827"/>
</g>
<!-- Node12&#45;&gt;Node2 -->
<g id="edge13" class="edge"><title>Node12&#45;&gt;Node2</title>
<path fill="none" stroke="midnightblue" d="M483.627,-513.589C504.968,-518.626 531.312,-524.844 553.908,-530.177"/>
<polygon fill="midnightblue" stroke="midnightblue" points="553.128,-533.589 563.665,-532.48 554.736,-526.776 553.128,-533.589"/>
</g>
<!-- Node12&#45;&gt;Node13 -->
<g id="edge14" class="edge"><title>Node12&#45;&gt;Node13</title>
<path fill="none" stroke="midnightblue" d="M497.059,-504C520.659,-504 547.671,-504 568.643,-504"/>
<polygon fill="midnightblue" stroke="midnightblue" points="568.71,-507.5 578.71,-504 568.71,-500.5 568.71,-507.5"/>
</g>
<!-- Node15&#45;&gt;Node3 -->
<g id="edge17" class="edge"><title>Node15&#45;&gt;Node3</title>
<path fill="none" stroke="midnightblue" d="M648.106,-475.508C656.851,-478.104 665.872,-481.257 674,-485 697.83,-495.975 722.448,-513.252 739.017,-525.91"/>
<polygon fill="midnightblue" stroke="midnightblue" points="737.3,-529.01 747.338,-532.398 741.604,-523.489 737.3,-529.01"/>
</g>
<!-- Node15&#45;&gt;Node7 -->
<g id="edge18" class="edge"><title>Node15&#45;&gt;Node7</title>
<path fill="none" stroke="midnightblue" d="M673.553,-466C685.689,-466 698.129,-466 709.629,-466"/>
<polygon fill="midnightblue" stroke="midnightblue" points="709.89,-469.5 719.89,-466 709.89,-462.5 709.89,-469.5"/>
</g>
<!-- Node15&#45;&gt;Node8 -->
<g id="edge19" class="edge"><title>Node15&#45;&gt;Node8</title>
<path fill="none" stroke="midnightblue" d="M630.059,-456.477C684.022,-435.116 814.263,-383.562 869.052,-361.875"/>
<polygon fill="midnightblue" stroke="midnightblue" points="870.359,-365.122 878.369,-358.187 867.783,-358.613 870.359,-365.122"/>
</g>
<!-- Node16&#45;&gt;Node11 -->
<g id="edge53" class="edge"><title>Node16&#45;&gt;Node11</title>
<path fill="none" stroke="midnightblue" d="M174.451,-291.021C237.777,-314.536 358.705,-359.441 413.18,-379.669"/>
<polygon fill="midnightblue" stroke="midnightblue" points="412.258,-383.06 422.851,-383.261 414.695,-376.498 412.258,-383.06"/>
</g>
<!-- Node16&#45;&gt;Node14 -->
<g id="edge54" class="edge"><title>Node16&#45;&gt;Node14</title>
<path fill="none" stroke="midnightblue" d="M150.601,-291.17C168.276,-306.733 197.565,-330.885 226,-347 291.628,-384.194 313.083,-383.286 384,-409 390.523,-411.365 397.504,-413.784 404.265,-416.069"/>
<polygon fill="midnightblue" stroke="midnightblue" points="403.341,-419.45 413.934,-419.299 405.559,-412.811 403.341,-419.45"/>
</g>
<!-- Node17 -->
<g id="node17" class="node"><title>Node17</title>
<g id="a_node17"><a xlink:href="../../d6/d2f/identification_8c.html#afd254ae787b9b095e0c4cdb0e493b216" target="_top" xlink:title="create_from_string\l_with_prefix_type">
<polygon fill="none" stroke="black" points="238,-181 238,-211 336,-211 336,-181 238,-181"/>
<text text-anchor="start" x="246" y="-199" font-family="Helvetica,sans-Serif" font-size="10.00">create_from_string</text>
<text text-anchor="middle" x="287" y="-188" font-family="Helvetica,sans-Serif" font-size="10.00">_with_prefix_type</text>
</a>
</g>
</g>
<!-- Node16&#45;&gt;Node17 -->
<g id="edge22" class="edge"><title>Node16&#45;&gt;Node17</title>
<path fill="none" stroke="midnightblue" d="M169.206,-260.932C176.158,-257.775 183.355,-254.376 190,-251 210.999,-240.331 233.908,-227.264 252.078,-216.543"/>
<polygon fill="midnightblue" stroke="midnightblue" points="254.303,-219.293 261.113,-211.176 250.728,-213.274 254.303,-219.293"/>
</g>
<!-- Node18 -->
<g id="node18" class="node"><title>Node18</title>
<g id="a_node18"><a xlink:href="../../d4/d87/group__chunk.html#gaadc119e547e9a456a8c2c6271290b584" target="_top" xlink:title="chunk_from_hex">
<polygon fill="none" stroke="black" points="397.5,-114.5 397.5,-133.5 486.5,-133.5 486.5,-114.5 397.5,-114.5"/>
<text text-anchor="middle" x="442" y="-121.5" font-family="Helvetica,sans-Serif" font-size="10.00">chunk_from_hex</text>
</a>
</g>
</g>
<!-- Node16&#45;&gt;Node18 -->
<g id="edge55" class="edge"><title>Node16&#45;&gt;Node18</title>
<path fill="none" stroke="midnightblue" d="M176.821,-260.957C181.619,-258.132 186.155,-254.834 190,-251 217.611,-223.471 195.721,-195.564 226,-171 250.371,-151.228 331.997,-137.478 387.361,-130.163"/>
<polygon fill="midnightblue" stroke="midnightblue" points="387.903,-133.622 397.374,-128.872 387.008,-126.679 387.903,-133.622"/>
</g>
<!-- Node22 -->
<g id="node22" class="node"><title>Node22</title>
<g id="a_node22"><a xlink:href="../../d6/d2f/identification_8c.html#a2c4638c8ff8771dbda52e0c3b7aac28b" target="_top" xlink:title="identification_create">
<polygon fill="none" stroke="black" points="390,-54.5 390,-73.5 494,-73.5 494,-54.5 390,-54.5"/>
<text text-anchor="middle" x="442" y="-61.5" font-family="Helvetica,sans-Serif" font-size="10.00">identification_create</text>
</a>
</g>
</g>
<!-- Node16&#45;&gt;Node22 -->
<g id="edge52" class="edge"><title>Node16&#45;&gt;Node22</title>
<path fill="none" stroke="midnightblue" d="M178.731,-260.993C182.968,-258.191 186.85,-254.888 190,-251 238.075,-191.671 168.789,-133.577 226,-83 270.164,-43.9576 341.236,-45.7234 389.469,-52.8871"/>
<polygon fill="midnightblue" stroke="midnightblue" points="388.968,-56.3514 399.397,-54.485 390.08,-49.4404 388.968,-56.3514"/>
</g>
<!-- Node27 -->
<g id="node27" class="node"><title>Node27</title>
<g id="a_node27"><a xlink:href="../../d6/d2f/identification_8c.html#ad1d2bbb8825975270a82317092f0dc8c" target="_top" xlink:title="create_from_string\l_with_num_type">
<polygon fill="none" stroke="black" points="238,-93 238,-123 336,-123 336,-93 238,-93"/>
<text text-anchor="start" x="246" y="-111" font-family="Helvetica,sans-Serif" font-size="10.00">create_from_string</text>
<text text-anchor="middle" x="287" y="-100" font-family="Helvetica,sans-Serif" font-size="10.00">_with_num_type</text>
</a>
</g>
</g>
<!-- Node16&#45;&gt;Node27 -->
<g id="edge32" class="edge"><title>Node16&#45;&gt;Node27</title>
<path fill="none" stroke="midnightblue" d="M178.085,-260.852C182.495,-258.069 186.593,-254.809 190,-251 225.137,-211.711 191.731,-178.049 226,-138 228.977,-134.521 232.454,-131.404 236.208,-128.618"/>
<polygon fill="midnightblue" stroke="midnightblue" points="238.309,-131.427 244.782,-123.039 234.491,-125.56 238.309,-131.427"/>
</g>
<!-- Node28 -->
<g id="node28" class="node"><title>Node28</title>
<g id="a_node28"><a xlink:href="../../d6/d2f/identification_8c.html#a40ec64238fd9138c59eb02096163c9a1" target="_top" xlink:title="atodn">
<polygon fill="none" stroke="black" points="266.5,-266.5 266.5,-285.5 307.5,-285.5 307.5,-266.5 266.5,-266.5"/>
<text text-anchor="middle" x="287" y="-273.5" font-family="Helvetica,sans-Serif" font-size="10.00">atodn</text>
</a>
</g>
</g>
<!-- Node16&#45;&gt;Node28 -->
<g id="edge35" class="edge"><title>Node16&#45;&gt;Node28</title>
<path fill="none" stroke="midnightblue" d="M185.037,-276C208.723,-276 236.049,-276 256.294,-276"/>
<polygon fill="midnightblue" stroke="midnightblue" points="256.462,-279.5 266.462,-276 256.462,-272.5 256.462,-279.5"/>
</g>
<!-- Node17&#45;&gt;Node18 -->
<g id="edge23" class="edge"><title>Node17&#45;&gt;Node18</title>
<path fill="none" stroke="midnightblue" d="M319.777,-180.887C328.986,-176.299 338.985,-171.115 348,-166 364.514,-156.63 366.864,-151.175 384,-143 388.416,-140.893 393.127,-138.921 397.878,-137.104"/>
<polygon fill="midnightblue" stroke="midnightblue" points="399.379,-140.283 407.601,-133.6 397.006,-133.698 399.379,-140.283"/>
</g>
<!-- Node17&#45;&gt;Node22 -->
<g id="edge27" class="edge"><title>Node17&#45;&gt;Node22</title>
<path fill="none" stroke="midnightblue" d="M302.715,-180.844C321.073,-162.224 353.741,-130.03 384,-105 394.86,-96.0162 407.538,-86.7837 418.176,-79.36"/>
<polygon fill="midnightblue" stroke="midnightblue" points="420.297,-82.1491 426.548,-73.5945 416.327,-76.384 420.297,-82.1491"/>
</g>
<!-- Node25 -->
<g id="node25" class="node"><title>Node25</title>
<g id="a_node25"><a xlink:href="../../d4/d40/group__string__i.html#gad04895c77cc61acb068222c88d72dff0" target="_top" xlink:title="strcasepfx">
<polygon fill="none" stroke="black" points="411,-152.5 411,-171.5 473,-171.5 473,-152.5 411,-152.5"/>
<text text-anchor="middle" x="442" y="-159.5" font-family="Helvetica,sans-Serif" font-size="10.00">strcasepfx</text>
</a>
</g>
</g>
<!-- Node17&#45;&gt;Node25 -->
<g id="edge30" class="edge"><title>Node17&#45;&gt;Node25</title>
<path fill="none" stroke="midnightblue" d="M336.41,-185.242C357.136,-180.637 381.055,-175.321 400.785,-170.937"/>
<polygon fill="midnightblue" stroke="midnightblue" points="401.678,-174.324 410.681,-168.738 400.16,-167.49 401.678,-174.324"/>
</g>
<!-- Node19 -->
<g id="node19" class="node"><title>Node19</title>
<g id="a_node19"><a xlink:href="../../da/dfc/settings__parser_8c.html#a5faf6a2d99f50a4655dd390199a8db7b" target="_top" xlink:title="malloc">
<polygon fill="none" stroke="black" points="737.5,-114.5 737.5,-133.5 782.5,-133.5 782.5,-114.5 737.5,-114.5"/>
<text text-anchor="middle" x="760" y="-121.5" font-family="Helvetica,sans-Serif" font-size="10.00">malloc</text>
</a>
</g>
</g>
<!-- Node18&#45;&gt;Node19 -->
<g id="edge24" class="edge"><title>Node18&#45;&gt;Node19</title>
<path fill="none" stroke="midnightblue" d="M480.743,-114.49C497.541,-110.725 517.637,-106.857 536,-105 597.022,-98.8303 613.037,-98.2695 674,-105 691.877,-106.974 711.492,-111.215 727.37,-115.191"/>
<polygon fill="midnightblue" stroke="midnightblue" points="726.651,-118.62 737.209,-117.738 728.405,-111.843 726.651,-118.62"/>
</g>
<!-- Node20 -->
<g id="node20" class="node"><title>Node20</title>
<g id="a_node20"><a xlink:href="../../d8/d39/chunk_8c.html#a0674de9b4dc86d182ca6a08b9595279f" target="_top" xlink:title="hex2bin">
<polygon fill="none" stroke="black" points="580,-152.5 580,-171.5 630,-171.5 630,-152.5 580,-152.5"/>
<text text-anchor="middle" x="605" y="-159.5" font-family="Helvetica,sans-Serif" font-size="10.00">hex2bin</text>
</a>
</g>
</g>
<!-- Node18&#45;&gt;Node20 -->
<g id="edge25" class="edge"><title>Node18&#45;&gt;Node20</title>
<path fill="none" stroke="midnightblue" d="M483.627,-133.589C510.318,-139.889 544.833,-148.035 570.056,-153.988"/>
<polygon fill="midnightblue" stroke="midnightblue" points="569.371,-157.423 579.908,-156.314 570.979,-150.61 569.371,-157.423"/>
</g>
<!-- Node21 -->
<g id="node21" class="node"><title>Node21</title>
<g id="a_node21"><a xlink:href="../../d4/d87/group__chunk.html#gad94ca029616a107e89eaa618408fd7b6" target="_top" xlink:title="chunk_create">
<polygon fill="none" stroke="black" points="567.5,-114.5 567.5,-133.5 642.5,-133.5 642.5,-114.5 567.5,-114.5"/>
<text text-anchor="middle" x="605" y="-121.5" font-family="Helvetica,sans-Serif" font-size="10.00">chunk_create</text>
</a>
</g>
</g>
<!-- Node18&#45;&gt;Node21 -->
<g id="edge26" class="edge"><title>Node18&#45;&gt;Node21</title>
<path fill="none" stroke="midnightblue" d="M486.569,-124C508.436,-124 534.945,-124 557.239,-124"/>
<polygon fill="midnightblue" stroke="midnightblue" points="557.479,-127.5 567.479,-124 557.479,-120.5 557.479,-127.5"/>
</g>
<!-- Node23 -->
<g id="node23" class="node"><title>Node23</title>
<g id="a_node23"><a xlink:href="../../d6/d87/group__utils__i.html#ga9336a4d5728eb7ed977aacaeb8fd2c41" target="_top" xlink:title="return_false">
<polygon fill="none" stroke="black" points="571,-38.5 571,-57.5 639,-57.5 639,-38.5 571,-38.5"/>
<text text-anchor="middle" x="605" y="-45.5" font-family="Helvetica,sans-Serif" font-size="10.00">return_false</text>
</a>
</g>
</g>
<!-- Node22&#45;&gt;Node23 -->
<g id="edge28" class="edge"><title>Node22&#45;&gt;Node23</title>
<path fill="none" stroke="midnightblue" d="M494.384,-58.8935C515.798,-56.7655 540.388,-54.3217 560.844,-52.2887"/>
<polygon fill="midnightblue" stroke="midnightblue" points="561.219,-55.7689 570.824,-51.297 560.527,-48.8032 561.219,-55.7689"/>
</g>
<!-- Node24 -->
<g id="node24" class="node"><title>Node24</title>
<g id="a_node24"><a xlink:href="../../d6/d87/group__utils__i.html#ga2cd701fdf8284f1c4c85d3334d5072cf" target="_top" xlink:title="return_true">
<polygon fill="none" stroke="black" points="573.5,-0.5 573.5,-19.5 636.5,-19.5 636.5,-0.5 573.5,-0.5"/>
<text text-anchor="middle" x="605" y="-7.5" font-family="Helvetica,sans-Serif" font-size="10.00">return_true</text>
</a>
</g>
</g>
<!-- Node22&#45;&gt;Node24 -->
<g id="edge29" class="edge"><title>Node22&#45;&gt;Node24</title>
<path fill="none" stroke="midnightblue" d="M466.882,-54.353C485.547,-46.9741 512.226,-36.7786 536,-29 544.898,-26.0888 554.539,-23.2235 563.688,-20.6359"/>
<polygon fill="midnightblue" stroke="midnightblue" points="564.665,-23.997 573.364,-17.948 562.792,-17.2524 564.665,-23.997"/>
</g>
<!-- Node26 -->
<g id="node26" class="node"><title>Node26</title>
<g id="a_node26"><a xlink:href="../../d4/d40/group__string__i.html#ga9642181c8684012e619edccbc9f52d1c" target="_top" xlink:title="strncaseeq">
<polygon fill="none" stroke="black" points="572.5,-190.5 572.5,-209.5 637.5,-209.5 637.5,-190.5 572.5,-190.5"/>
<text text-anchor="middle" x="605" y="-197.5" font-family="Helvetica,sans-Serif" font-size="10.00">strncaseeq</text>
</a>
</g>
</g>
<!-- Node25&#45;&gt;Node26 -->
<g id="edge31" class="edge"><title>Node25&#45;&gt;Node26</title>
<path fill="none" stroke="midnightblue" d="M473.283,-169.148C498.513,-175.102 534.701,-183.644 562.607,-190.23"/>
<polygon fill="midnightblue" stroke="midnightblue" points="561.941,-193.669 572.478,-192.56 563.55,-186.856 561.941,-193.669"/>
</g>
<!-- Node27&#45;&gt;Node18 -->
<g id="edge33" class="edge"><title>Node27&#45;&gt;Node18</title>
<path fill="none" stroke="midnightblue" d="M336.41,-113.062C352.578,-114.753 370.689,-116.647 387.239,-118.378"/>
<polygon fill="midnightblue" stroke="midnightblue" points="387,-121.872 397.31,-119.431 387.728,-114.91 387,-121.872"/>
</g>
<!-- Node27&#45;&gt;Node22 -->
<g id="edge34" class="edge"><title>Node27&#45;&gt;Node22</title>
<path fill="none" stroke="midnightblue" d="M336.41,-94.0781C356.241,-88.3751 378.996,-81.8311 398.207,-76.3065"/>
<polygon fill="midnightblue" stroke="midnightblue" points="399.252,-79.6478 407.896,-73.5202 397.318,-72.9204 399.252,-79.6478"/>
</g>
<!-- Node28&#45;&gt;Node8 -->
<g id="edge51" class="edge"><title>Node28&#45;&gt;Node8</title>
<path fill="none" stroke="midnightblue" d="M306.346,-285.568C318.344,-291.952 334.279,-300.674 348,-309 364.44,-318.976 365.702,-327.086 384,-333 561.588,-390.4 792.214,-366.204 868.366,-355.828"/>
<polygon fill="midnightblue" stroke="midnightblue" points="869.041,-359.268 878.456,-354.409 868.066,-352.336 869.041,-359.268"/>
</g>
<!-- Node29 -->
<g id="node29" class="node"><title>Node29</title>
<g id="a_node29"><a xlink:href="../../d0/da0/group__asn1i.html#gafc47ce497a7d333125fe7b4919ecf156" target="_top" xlink:title="asn1_build_known_oid">
<polygon fill="none" stroke="black" points="384.5,-266.5 384.5,-285.5 499.5,-285.5 499.5,-266.5 384.5,-266.5"/>
<text text-anchor="middle" x="442" y="-273.5" font-family="Helvetica,sans-Serif" font-size="10.00">asn1_build_known_oid</text>
</a>
</g>
</g>
<!-- Node28&#45;&gt;Node29 -->
<g id="edge36" class="edge"><title>Node28&#45;&gt;Node29</title>
<path fill="none" stroke="midnightblue" d="M307.689,-276C324.567,-276 349.898,-276 373.96,-276"/>
<polygon fill="midnightblue" stroke="midnightblue" points="374.167,-279.5 384.167,-276 374.167,-272.5 374.167,-279.5"/>
</g>
<!-- Node30 -->
<g id="node30" class="node"><title>Node30</title>
<g id="a_node30"><a xlink:href="../../d0/da0/group__asn1i.html#gaa4b22cdadd3251eef380d585a8d3adc1" target="_top" xlink:title="asn1_build_object">
<polygon fill="none" stroke="black" points="557.5,-228.5 557.5,-247.5 652.5,-247.5 652.5,-228.5 557.5,-228.5"/>
<text text-anchor="middle" x="605" y="-235.5" font-family="Helvetica,sans-Serif" font-size="10.00">asn1_build_object</text>
</a>
</g>
</g>
<!-- Node28&#45;&gt;Node30 -->
<g id="edge37" class="edge"><title>Node28&#45;&gt;Node30</title>
<path fill="none" stroke="midnightblue" d="M307.749,-271.435C327.082,-267.121 357.421,-260.766 384,-257 439.287,-249.165 502.879,-244.095 547.429,-241.18"/>
<polygon fill="midnightblue" stroke="midnightblue" points="547.723,-244.669 557.48,-240.538 547.277,-237.683 547.723,-244.669"/>
</g>
<!-- Node32 -->
<g id="node32" class="node"><title>Node32</title>
<g id="a_node32"><a xlink:href="../../d0/da0/group__asn1i.html#gae7dc25238f49a79e26e78b7078871319" target="_top" xlink:title="asn1_is_printablestring">
<polygon fill="none" stroke="black" points="384,-190.5 384,-209.5 500,-209.5 500,-190.5 384,-190.5"/>
<text text-anchor="middle" x="442" y="-197.5" font-family="Helvetica,sans-Serif" font-size="10.00">asn1_is_printablestring</text>
</a>
</g>
</g>
<!-- Node28&#45;&gt;Node32 -->
<g id="edge40" class="edge"><title>Node28&#45;&gt;Node32</title>
<path fill="none" stroke="midnightblue" d="M304.394,-266.481C323.304,-255.652 355.462,-237.696 384,-224 391.57,-220.367 399.834,-216.714 407.662,-213.392"/>
<polygon fill="midnightblue" stroke="midnightblue" points="409.038,-216.61 416.918,-209.528 406.341,-210.151 409.038,-216.61"/>
</g>
<!-- Node33 -->
<g id="node33" class="node"><title>Node33</title>
<g id="a_node33"><a xlink:href="../../d0/da0/group__asn1i.html#gaa5b766a452be068282b808b6b6f85f7e" target="_top" xlink:title="asn1_wrap">
<polygon fill="none" stroke="black" points="410,-304.5 410,-323.5 474,-323.5 474,-304.5 410,-304.5"/>
<text text-anchor="middle" x="442" y="-311.5" font-family="Helvetica,sans-Serif" font-size="10.00">asn1_wrap</text>
</a>
</g>
</g>
<!-- Node28&#45;&gt;Node33 -->
<g id="edge41" class="edge"><title>Node28&#45;&gt;Node33</title>
<path fill="none" stroke="midnightblue" d="M307.689,-280.89C330.893,-286.653 370.072,-296.384 399.969,-303.809"/>
<polygon fill="midnightblue" stroke="midnightblue" points="399.166,-307.216 409.715,-306.23 400.854,-300.423 399.166,-307.216"/>
</g>
<!-- Node30&#45;&gt;Node19 -->
<g id="edge39" class="edge"><title>Node30&#45;&gt;Node19</title>
<path fill="none" stroke="midnightblue" d="M652.85,-228.722C660.232,-226.2 667.548,-223.016 674,-219 678.323,-216.309 720.378,-168.369 743.666,-141.645"/>
<polygon fill="midnightblue" stroke="midnightblue" points="746.571,-143.638 750.497,-133.798 741.291,-139.043 746.571,-143.638"/>
</g>
<!-- Node31 -->
<g id="node31" class="node"><title>Node31</title>
<g id="a_node31"><a xlink:href="../../d6/d36/asn1_8c.html#a72c37051a4d4cda52b0ab80893884abd" target="_top" xlink:title="asn1_code_length">
<polygon fill="none" stroke="black" points="712.5,-190.5 712.5,-209.5 807.5,-209.5 807.5,-190.5 712.5,-190.5"/>
<text text-anchor="middle" x="760" y="-197.5" font-family="Helvetica,sans-Serif" font-size="10.00">asn1_code_length</text>
</a>
</g>
</g>
<!-- Node30&#45;&gt;Node31 -->
<g id="edge38" class="edge"><title>Node30&#45;&gt;Node31</title>
<path fill="none" stroke="midnightblue" d="M644.608,-228.411C664.707,-223.419 689.475,-217.268 710.819,-211.967"/>
<polygon fill="midnightblue" stroke="midnightblue" points="711.808,-215.327 720.669,-209.52 710.12,-208.534 711.808,-215.327"/>
</g>
<!-- Node33&#45;&gt;Node8 -->
<g id="edge50" class="edge"><title>Node33&#45;&gt;Node8</title>
<path fill="none" stroke="midnightblue" d="M474.027,-314.983C537.357,-317.22 685.998,-323.648 810,-338 829.637,-340.273 851.677,-343.991 868.252,-347.024"/>
<polygon fill="midnightblue" stroke="midnightblue" points="867.802,-350.501 878.275,-348.896 869.088,-343.62 867.802,-350.501"/>
</g>
<!-- Node33&#45;&gt;Node30 -->
<g id="edge42" class="edge"><title>Node33&#45;&gt;Node30</title>
<path fill="none" stroke="midnightblue" d="M474.125,-306.659C482.894,-303.803 492.169,-299.987 500,-295 519.623,-282.503 516.075,-269.01 536,-257 539.661,-254.793 543.587,-252.835 547.637,-251.099"/>
<polygon fill="midnightblue" stroke="midnightblue" points="549.149,-254.268 557.247,-247.437 546.656,-247.727 549.149,-254.268"/>
</g>
<!-- Node34 -->
<g id="node34" class="node"><title>Node34</title>
<g id="a_node34"><a xlink:href="../../d4/d87/group__chunk.html#gaaa5a9811df1bd2ae5e331748f7fbaf75" target="_top" xlink:title="chunk_clear">
<polygon fill="none" stroke="black" points="570.5,-266.5 570.5,-285.5 639.5,-285.5 639.5,-266.5 570.5,-266.5"/>
<text text-anchor="middle" x="605" y="-273.5" font-family="Helvetica,sans-Serif" font-size="10.00">chunk_clear</text>
</a>
</g>
</g>
<!-- Node33&#45;&gt;Node34 -->
<g id="edge43" class="edge"><title>Node33&#45;&gt;Node34</title>
<path fill="none" stroke="midnightblue" d="M474.042,-306.673C498.512,-300.898 532.936,-292.773 560.207,-286.336"/>
<polygon fill="midnightblue" stroke="midnightblue" points="561.345,-289.664 570.274,-283.96 559.737,-282.851 561.345,-289.664"/>
</g>
<!-- Node35 -->
<g id="node35" class="node"><title>Node35</title>
<g id="a_node35"><a xlink:href="../../dd/d74/group__memory__i.html#ga6d5ce21860b55e0c54353999c4f4f077" target="_top" xlink:title="memwipe">
<polygon fill="none" stroke="black" points="730.5,-228.5 730.5,-247.5 789.5,-247.5 789.5,-228.5 730.5,-228.5"/>
<text text-anchor="middle" x="760" y="-235.5" font-family="Helvetica,sans-Serif" font-size="10.00">memwipe</text>
</a>
</g>
</g>
<!-- Node34&#45;&gt;Node35 -->
<g id="edge44" class="edge"><title>Node34&#45;&gt;Node35</title>
<path fill="none" stroke="midnightblue" d="M639.576,-267.661C663.466,-261.727 695.613,-253.743 720.536,-247.553"/>
<polygon fill="midnightblue" stroke="midnightblue" points="721.524,-250.914 730.385,-245.107 719.836,-244.121 721.524,-250.914"/>
</g>
<!-- Node38 -->
<g id="node38" class="node"><title>Node38</title>
<g id="a_node38"><a xlink:href="../../d4/d87/group__chunk.html#gaa86c84493369a4254d5801cdca20d458" target="_top" xlink:title="chunk_free">
<polygon fill="none" stroke="black" points="727.5,-266.5 727.5,-285.5 792.5,-285.5 792.5,-266.5 727.5,-266.5"/>
<text text-anchor="middle" x="760" y="-273.5" font-family="Helvetica,sans-Serif" font-size="10.00">chunk_free</text>
</a>
</g>
</g>
<!-- Node34&#45;&gt;Node38 -->
<g id="edge48" class="edge"><title>Node34&#45;&gt;Node38</title>
<path fill="none" stroke="midnightblue" d="M639.576,-276C662.436,-276 692.857,-276 717.274,-276"/>
<polygon fill="midnightblue" stroke="midnightblue" points="717.331,-279.5 727.331,-276 717.331,-272.5 717.331,-279.5"/>
</g>
<!-- Node36 -->
<g id="node36" class="node"><title>Node36</title>
<g id="a_node36"><a xlink:href="../../dd/d74/group__memory__i.html#ga4d6f7708d6b8ea1ec0fbe97b3885ce1e" target="_top" xlink:title="memwipe_inline">
<polygon fill="none" stroke="black" points="980,-228.5 980,-247.5 1066,-247.5 1066,-228.5 980,-228.5"/>
<text text-anchor="middle" x="1023" y="-235.5" font-family="Helvetica,sans-Serif" font-size="10.00">memwipe_inline</text>
</a>
</g>
</g>
<!-- Node35&#45;&gt;Node36 -->
<g id="edge45" class="edge"><title>Node35&#45;&gt;Node36</title>
<path fill="none" stroke="midnightblue" d="M789.678,-238C832.971,-238 915.7,-238 969.85,-238"/>
<polygon fill="midnightblue" stroke="midnightblue" points="969.946,-241.5 979.946,-238 969.946,-234.5 969.946,-241.5"/>
</g>
<!-- Node37 -->
<g id="node37" class="node"><title>Node37</title>
<g id="a_node37"><a xlink:href="../../dd/d74/group__memory__i.html#gabf6fa8b701d6f2052a551333b3694063" target="_top" xlink:title="memwipe_noinline">
<polygon fill="none" stroke="black" points="846.5,-209.5 846.5,-228.5 943.5,-228.5 943.5,-209.5 846.5,-209.5"/>
<text text-anchor="middle" x="895" y="-216.5" font-family="Helvetica,sans-Serif" font-size="10.00">memwipe_noinline</text>
</a>
</g>
</g>
<!-- Node35&#45;&gt;Node37 -->
<g id="edge46" class="edge"><title>Node35&#45;&gt;Node37</title>
<path fill="none" stroke="midnightblue" d="M789.532,-233.924C803.248,-231.965 820.205,-229.542 836.439,-227.223"/>
<polygon fill="midnightblue" stroke="midnightblue" points="837.013,-230.677 846.418,-225.797 836.023,-223.747 837.013,-230.677"/>
</g>
<!-- Node37&#45;&gt;Node36 -->
<g id="edge47" class="edge"><title>Node37&#45;&gt;Node36</title>
<path fill="none" stroke="midnightblue" d="M943.635,-226.183C952.15,-227.467 961.064,-228.811 969.702,-230.114"/>
<polygon fill="midnightblue" stroke="midnightblue" points="969.264,-233.587 979.674,-231.618 970.308,-226.665 969.264,-233.587"/>
</g>
<!-- Node38&#45;&gt;Node8 -->
<g id="edge49" class="edge"><title>Node38&#45;&gt;Node8</title>
<path fill="none" stroke="midnightblue" d="M781.735,-285.597C790.551,-289.82 800.88,-294.96 810,-300 831.026,-311.62 854.189,-326.09 870.857,-336.814"/>
<polygon fill="midnightblue" stroke="midnightblue" points="869.098,-339.845 879.393,-342.344 872.903,-333.97 869.098,-339.845"/>
</g>
<!-- Node39&#45;&gt;Node1 -->
<g id="edge57" class="edge"><title>Node39&#45;&gt;Node1</title>
<path fill="none" stroke="midnightblue" d="M121.978,-241.614C110.688,-247.601 91.8465,-253.728 76,-260 67.3079,-263.44 58.0018,-267.515 49.5627,-270.986"/>
<polygon fill="midnightblue" stroke="midnightblue" points="48.1564,-267.778 40.1429,-274.709 50.7294,-274.288 48.1564,-267.778"/>
</g>
</g>
</svg>
