<?xml version="1.0" encoding="UTF-8" standalone="no"?>
<!DOCTYPE svg PUBLIC "-//W3C//DTD SVG 1.1//EN"
 "http://www.w3.org/Graphics/SVG/1.1/DTD/svg11.dtd">
<!-- Generated by graphviz version 2.36.0 (20140111.2315)
 -->
<!-- Title: manager.c Pages: 1 -->
<!--zoomable 500 -->
<svg id="main" version="1.1" xmlns="http://www.w3.org/2000/svg" xmlns:xlink="http://www.w3.org/1999/xlink" xml:space="preserve" onload="init(evt)">
<style type="text/css"><![CDATA[
.edge:hover path { stroke: red; }
.edge:hover polygon { stroke: red; fill: red; }
]]></style>
<script type="text/javascript"><![CDATA[
var edges = document.getElementsByTagName('g');
if (edges && edges.length) {
  for (var i=0;i<edges.length;i++) {
    if (edges[i].id.substr(0,4)=='edge') {
      edges[i].setAttribute('class','edge');
    }
  }
}
]]></script>
        <defs>
                <circle id="rim" cx="0" cy="0" r="7"/>
                <circle id="rim2" cx="0" cy="0" r="3.5"/>
                <g id="zoomPlus">
                        <use xlink:href="#rim" fill="#404040">
                                <set attributeName="fill" to="#808080" begin="zoomplus.mouseover" end="zoomplus.mouseout"/>
                        </use>
                        <path d="M-4,0h8M0,-4v8" fill="none" stroke="white" stroke-width="1.5" pointer-events="none"/>
                </g>
                <g id="zoomMin">
                        <use xlink:href="#rim" fill="#404040">
                                <set attributeName="fill" to="#808080" begin="zoomminus.mouseover" end="zoomminus.mouseout"/>
                        </use>
                        <path d="M-4,0h8" fill="none" stroke="white" stroke-width="1.5" pointer-events="none"/>
                </g>
                <g id="dirArrow">
                        <path fill="none" stroke="white" stroke-width="1.5" d="M0,-3.0v7 M-2.5,-0.5L0,-3.0L2.5,-0.5"/>
                </g>
               <g id="resetDef">
                       <use xlink:href="#rim2" fill="#404040">
                               <set attributeName="fill" to="#808080" begin="reset.mouseover" end="reset.mouseout"/>
                       </use>
               </g>
        </defs>

<script type="text/javascript">
var viewWidth = 1936;
var viewHeight = 500;
var sectionId = 'dynsection-0';
</script>
<script xlink:href="../../svgpan.js"/>
<svg id="graph" class="graph">
<g id="viewport">
<title>manager.c</title>
<!-- Node1 -->
<g id="node1" class="node"><title>Node1</title>
<polygon fill="#bfbfbf" stroke="black" points="1512,-472.5 1512,-491.5 1574,-491.5 1574,-472.5 1512,-472.5"/>
<text text-anchor="middle" x="1543" y="-479.5" font-family="Helvetica,sans-Serif" font-size="10.00">manager.c</text>
</g>
<!-- Node2 -->
<g id="node2" class="node"><title>Node2</title>
<g id="a_node2"><a xlink:href="../../db/d45/manager_8h.html" target="_top" xlink:title="manager.h">
<polygon fill="none" stroke="black" points="1512,-410.5 1512,-429.5 1574,-429.5 1574,-410.5 1512,-410.5"/>
<text text-anchor="middle" x="1543" y="-417.5" font-family="Helvetica,sans-Serif" font-size="10.00">manager.h</text>
</a>
</g>
</g>
<!-- Node1&#45;&gt;Node2 -->
<g id="edge1" class="edge"><title>Node1&#45;&gt;Node2</title>
<path fill="none" stroke="midnightblue" d="M1543,-472.403C1543,-463.938 1543,-450.728 1543,-439.82"/>
<polygon fill="midnightblue" stroke="midnightblue" points="1546.5,-439.581 1543,-429.581 1539.5,-439.581 1546.5,-439.581"/>
</g>
<!-- Node31 -->
<g id="node31" class="node"><title>Node31</title>
<g id="a_node31"><a xlink:href="../../dc/dc3/gateway_8h.html" target="_top" xlink:title="gateway.h">
<polygon fill="none" stroke="black" points="1590,-348.5 1590,-367.5 1652,-367.5 1652,-348.5 1590,-348.5"/>
<text text-anchor="middle" x="1621" y="-355.5" font-family="Helvetica,sans-Serif" font-size="10.00">gateway.h</text>
</a>
</g>
</g>
<!-- Node1&#45;&gt;Node31 -->
<g id="edge44" class="edge"><title>Node1&#45;&gt;Node31</title>
<path fill="none" stroke="midnightblue" d="M1551.77,-472.227C1560.17,-463.523 1572.89,-449.56 1582,-436 1594.75,-417.02 1606.15,-393.312 1613.29,-377.254"/>
<polygon fill="midnightblue" stroke="midnightblue" points="1616.56,-378.5 1617.33,-367.933 1610.14,-375.714 1616.56,-378.5"/>
</g>
<!-- Node37 -->
<g id="node37" class="node"><title>Node37</title>
<g id="a_node37"><a xlink:href="../../d1/d4a/linked__list_8h.html" target="_top" xlink:title="collections/linked\l_list.h">
<polygon fill="none" stroke="black" points="1373,-405 1373,-435 1465,-435 1465,-405 1373,-405"/>
<text text-anchor="start" x="1381" y="-423" font-family="Helvetica,sans-Serif" font-size="10.00">collections/linked</text>
<text text-anchor="middle" x="1419" y="-412" font-family="Helvetica,sans-Serif" font-size="10.00">_list.h</text>
</a>
</g>
</g>
<!-- Node1&#45;&gt;Node37 -->
<g id="edge45" class="edge"><title>Node1&#45;&gt;Node37</title>
<path fill="none" stroke="midnightblue" d="M1525.23,-472.403C1507.58,-463.86 1479.93,-450.483 1457.27,-439.517"/>
<polygon fill="midnightblue" stroke="midnightblue" points="1458.75,-436.346 1448.22,-435.141 1455.7,-442.647 1458.75,-436.346"/>
</g>
<!-- Node3 -->
<g id="node3" class="node"><title>Node3</title>
<g id="a_node3"><a xlink:href="../../d8/d6b/storage_8h.html" target="_top" xlink:title="storage.h">
<polygon fill="none" stroke="black" points="1514.5,-348.5 1514.5,-367.5 1571.5,-367.5 1571.5,-348.5 1514.5,-348.5"/>
<text text-anchor="middle" x="1543" y="-355.5" font-family="Helvetica,sans-Serif" font-size="10.00">storage.h</text>
</a>
</g>
</g>
<!-- Node2&#45;&gt;Node3 -->
<g id="edge2" class="edge"><title>Node2&#45;&gt;Node3</title>
<path fill="none" stroke="midnightblue" d="M1543,-410.403C1543,-401.938 1543,-388.728 1543,-377.82"/>
<polygon fill="midnightblue" stroke="midnightblue" points="1546.5,-377.581 1543,-367.581 1539.5,-377.581 1546.5,-377.581"/>
</g>
<!-- Node2&#45;&gt;Node31 -->
<g id="edge31" class="edge"><title>Node2&#45;&gt;Node31</title>
<path fill="none" stroke="midnightblue" d="M1554.18,-410.403C1566.57,-400.869 1586.79,-385.315 1601.75,-373.811"/>
<polygon fill="midnightblue" stroke="midnightblue" points="1604.05,-376.452 1609.85,-367.581 1599.78,-370.904 1604.05,-376.452"/>
</g>
<!-- Node36 -->
<g id="node36" class="node"><title>Node36</title>
<g id="a_node36"><a xlink:href="../../d0/da4/fast__context_8h.html" target="_top" xlink:title="fast_context.h">
<polygon fill="none" stroke="black" points="1417.5,-348.5 1417.5,-367.5 1496.5,-367.5 1496.5,-348.5 1417.5,-348.5"/>
<text text-anchor="middle" x="1457" y="-355.5" font-family="Helvetica,sans-Serif" font-size="10.00">fast_context.h</text>
</a>
</g>
</g>
<!-- Node2&#45;&gt;Node36 -->
<g id="edge43" class="edge"><title>Node2&#45;&gt;Node36</title>
<path fill="none" stroke="midnightblue" d="M1530.68,-410.403C1516.88,-400.78 1494.3,-385.024 1477.77,-373.489"/>
<polygon fill="midnightblue" stroke="midnightblue" points="1479.5,-370.432 1469.3,-367.581 1475.5,-376.173 1479.5,-370.432"/>
</g>
<!-- Node4 -->
<g id="node4" class="node"><title>Node4</title>
<g id="a_node4"><a xlink:href="../../d1/d47/enumerator_8h.html" target="_top" xlink:title="collections/enumerator.h">
<polygon fill="none" stroke="black" points="1404.5,-292.5 1404.5,-311.5 1527.5,-311.5 1527.5,-292.5 1404.5,-292.5"/>
<text text-anchor="middle" x="1466" y="-299.5" font-family="Helvetica,sans-Serif" font-size="10.00">collections/enumerator.h</text>
</a>
</g>
</g>
<!-- Node3&#45;&gt;Node4 -->
<g id="edge3" class="edge"><title>Node3&#45;&gt;Node4</title>
<path fill="none" stroke="midnightblue" d="M1530.63,-348.324C1518.84,-340.058 1500.87,-327.453 1486.86,-317.632"/>
<polygon fill="midnightblue" stroke="midnightblue" points="1488.54,-314.531 1478.34,-311.655 1484.52,-320.262 1488.54,-314.531"/>
</g>
<!-- Node5 -->
<g id="node5" class="node"><title>Node5</title>
<g id="a_node5"><a xlink:href="../../d5/d60/utils_8h.html" target="_top" xlink:title="utils/utils.h">
<polygon fill="none" stroke="black" points="1096,-180.5 1096,-199.5 1160,-199.5 1160,-180.5 1096,-180.5"/>
<text text-anchor="middle" x="1128" y="-187.5" font-family="Helvetica,sans-Serif" font-size="10.00">utils/utils.h</text>
</a>
</g>
</g>
<!-- Node4&#45;&gt;Node5 -->
<g id="edge4" class="edge"><title>Node4&#45;&gt;Node5</title>
<path fill="none" stroke="midnightblue" d="M1439.76,-292.46C1379.86,-272.966 1232.96,-225.159 1164.38,-202.839"/>
<polygon fill="midnightblue" stroke="midnightblue" points="1165.05,-199.377 1154.46,-199.61 1162.88,-206.033 1165.05,-199.377"/>
</g>
<!-- Node6 -->
<g id="node6" class="node"><title>Node6</title>
<polygon fill="none" stroke="#bfbfbf" points="1832,-124.5 1832,-143.5 1900,-143.5 1900,-124.5 1832,-124.5"/>
<text text-anchor="middle" x="1866" y="-131.5" font-family="Helvetica,sans-Serif" font-size="10.00">sys/types.h</text>
</g>
<!-- Node5&#45;&gt;Node6 -->
<g id="edge5" class="edge"><title>Node5&#45;&gt;Node6</title>
<path fill="none" stroke="midnightblue" d="M1160.32,-188.476C1259.58,-186.531 1568.6,-177.968 1822,-144 1822.1,-143.986 1822.2,-143.973 1822.3,-143.959"/>
<polygon fill="midnightblue" stroke="midnightblue" points="1822.63,-147.45 1831.97,-142.441 1821.55,-140.535 1822.63,-147.45"/>
</g>
<!-- Node7 -->
<g id="node7" class="node"><title>Node7</title>
<polygon fill="none" stroke="#bfbfbf" points="1406,-0.5 1406,-19.5 1454,-19.5 1454,-0.5 1406,-0.5"/>
<text text-anchor="middle" x="1430" y="-7.5" font-family="Helvetica,sans-Serif" font-size="10.00">stdlib.h</text>
</g>
<!-- Node5&#45;&gt;Node7 -->
<g id="edge6" class="edge"><title>Node5&#45;&gt;Node7</title>
<path fill="none" stroke="midnightblue" d="M1160.4,-185.234C1210.04,-178.887 1301.83,-164.693 1327,-144 1360.05,-116.835 1338.85,-89.0599 1366,-56 1376.47,-43.2458 1391.42,-32.4612 1404.24,-24.6497"/>
<polygon fill="midnightblue" stroke="midnightblue" points="1406.21,-27.5515 1413.1,-19.5016 1402.7,-21.4989 1406.21,-27.5515"/>
</g>
<!-- Node8 -->
<g id="node8" class="node"><title>Node8</title>
<polygon fill="none" stroke="#bfbfbf" points="1443,-124.5 1443,-143.5 1495,-143.5 1495,-124.5 1443,-124.5"/>
<text text-anchor="middle" x="1469" y="-131.5" font-family="Helvetica,sans-Serif" font-size="10.00">stddef.h</text>
</g>
<!-- Node5&#45;&gt;Node8 -->
<g id="edge7" class="edge"><title>Node5&#45;&gt;Node8</title>
<path fill="none" stroke="midnightblue" d="M1160.23,-185.304C1214.38,-178.866 1327.19,-164.476 1432.85,-143.838"/>
<polygon fill="midnightblue" stroke="midnightblue" points="1433.59,-147.26 1442.72,-141.887 1432.23,-140.393 1433.59,-147.26"/>
</g>
<!-- Node9 -->
<g id="node9" class="node"><title>Node9</title>
<polygon fill="none" stroke="#bfbfbf" points="1513,-124.5 1513,-143.5 1575,-143.5 1575,-124.5 1513,-124.5"/>
<text text-anchor="middle" x="1544" y="-131.5" font-family="Helvetica,sans-Serif" font-size="10.00">sys/time.h</text>
</g>
<!-- Node5&#45;&gt;Node9 -->
<g id="edge8" class="edge"><title>Node5&#45;&gt;Node9</title>
<path fill="none" stroke="midnightblue" d="M1160.1,-186.274C1223.65,-180.638 1370.11,-166.459 1502.69,-144.075"/>
<polygon fill="midnightblue" stroke="midnightblue" points="1503.35,-147.514 1512.62,-142.379 1502.17,-140.614 1503.35,-147.514"/>
</g>
<!-- Node10 -->
<g id="node10" class="node"><title>Node10</title>
<g id="a_node10"><a xlink:href="../../da/d66/string_8h.html" target="_top" xlink:title="string.h">
<polygon fill="none" stroke="black" points="1764.5,-124.5 1764.5,-143.5 1813.5,-143.5 1813.5,-124.5 1764.5,-124.5"/>
<text text-anchor="middle" x="1789" y="-131.5" font-family="Helvetica,sans-Serif" font-size="10.00">string.h</text>
</a>
</g>
</g>
<!-- Node5&#45;&gt;Node10 -->
<g id="edge9" class="edge"><title>Node5&#45;&gt;Node10</title>
<path fill="none" stroke="midnightblue" d="M1160.22,-188.807C1251.85,-187.811 1521.69,-181.776 1754.24,-143.786"/>
<polygon fill="midnightblue" stroke="midnightblue" points="1754.94,-147.217 1764.23,-142.129 1753.8,-140.311 1754.94,-147.217"/>
</g>
<!-- Node11 -->
<g id="node11" class="node"><title>Node11</title>
<polygon fill="none" stroke="#bfbfbf" points="1593,-124.5 1593,-143.5 1655,-143.5 1655,-124.5 1593,-124.5"/>
<text text-anchor="middle" x="1624" y="-131.5" font-family="Helvetica,sans-Serif" font-size="10.00">arpa/inet.h</text>
</g>
<!-- Node5&#45;&gt;Node11 -->
<g id="edge10" class="edge"><title>Node5&#45;&gt;Node11</title>
<path fill="none" stroke="midnightblue" d="M1160.16,-187.123C1233.27,-182.578 1417.65,-169.548 1582.41,-143.889"/>
<polygon fill="midnightblue" stroke="midnightblue" points="1583.4,-147.276 1592.73,-142.26 1582.31,-140.361 1583.4,-147.276"/>
</g>
<!-- Node12 -->
<g id="node12" class="node"><title>Node12</title>
<polygon fill="none" stroke="#bfbfbf" points="1673.5,-124.5 1673.5,-143.5 1746.5,-143.5 1746.5,-124.5 1673.5,-124.5"/>
<text text-anchor="middle" x="1710" y="-131.5" font-family="Helvetica,sans-Serif" font-size="10.00">sys/socket.h</text>
</g>
<!-- Node5&#45;&gt;Node12 -->
<g id="edge11" class="edge"><title>Node5&#45;&gt;Node12</title>
<path fill="none" stroke="midnightblue" d="M1160.09,-187.482C1243.39,-183.285 1473.24,-170.076 1663,-144 1663.11,-143.986 1663.21,-143.971 1663.32,-143.956"/>
<polygon fill="midnightblue" stroke="midnightblue" points="1664.02,-147.389 1673.37,-142.4 1662.95,-140.471 1664.02,-147.389"/>
</g>
<!-- Node13 -->
<g id="node13" class="node"><title>Node13</title>
<polygon fill="none" stroke="#bfbfbf" points="-0.5,-124.5 -0.5,-143.5 48.5,-143.5 48.5,-124.5 -0.5,-124.5"/>
<text text-anchor="middle" x="24" y="-131.5" font-family="Helvetica,sans-Serif" font-size="10.00">netdb.h</text>
</g>
<!-- Node5&#45;&gt;Node13 -->
<g id="edge12" class="edge"><title>Node5&#45;&gt;Node13</title>
<path fill="none" stroke="midnightblue" d="M1095.88,-188.621C942.75,-186.667 285.135,-176.594 58.8613,-143.909"/>
<polygon fill="midnightblue" stroke="midnightblue" points="59.1467,-140.413 48.7373,-142.386 58.1053,-147.335 59.1467,-140.413"/>
</g>
<!-- Node14 -->
<g id="node14" class="node"><title>Node14</title>
<polygon fill="none" stroke="#bfbfbf" points="66.5,-124.5 66.5,-143.5 131.5,-143.5 131.5,-124.5 66.5,-124.5"/>
<text text-anchor="middle" x="99" y="-131.5" font-family="Helvetica,sans-Serif" font-size="10.00">netinet/in.h</text>
</g>
<!-- Node5&#45;&gt;Node14 -->
<g id="edge13" class="edge"><title>Node5&#45;&gt;Node14</title>
<path fill="none" stroke="midnightblue" d="M1095.98,-188.277C950.598,-184.884 351.065,-169.668 141.561,-143.95"/>
<polygon fill="midnightblue" stroke="midnightblue" points="141.947,-140.471 131.585,-142.678 141.062,-147.415 141.947,-140.471"/>
</g>
<!-- Node15 -->
<g id="node15" class="node"><title>Node15</title>
<polygon fill="none" stroke="#bfbfbf" points="149.5,-124.5 149.5,-143.5 200.5,-143.5 200.5,-124.5 149.5,-124.5"/>
<text text-anchor="middle" x="175" y="-131.5" font-family="Helvetica,sans-Serif" font-size="10.00">sched.h</text>
</g>
<!-- Node5&#45;&gt;Node15 -->
<g id="edge14" class="edge"><title>Node5&#45;&gt;Node15</title>
<path fill="none" stroke="midnightblue" d="M1095.89,-188.3C956.96,-185.137 406.147,-171.208 211.002,-143.762"/>
<polygon fill="midnightblue" stroke="midnightblue" points="211.275,-140.265 200.873,-142.276 210.259,-147.191 211.275,-140.265"/>
</g>
<!-- Node16 -->
<g id="node16" class="node"><title>Node16</title>
<polygon fill="none" stroke="#bfbfbf" points="219,-124.5 219,-143.5 259,-143.5 259,-124.5 219,-124.5"/>
<text text-anchor="middle" x="239" y="-131.5" font-family="Helvetica,sans-Serif" font-size="10.00">poll.h</text>
</g>
<!-- Node5&#45;&gt;Node16 -->
<g id="edge15" class="edge"><title>Node5&#45;&gt;Node16</title>
<path fill="none" stroke="midnightblue" d="M1095.63,-188.382C961.845,-185.664 451.009,-173.646 269.083,-143.666"/>
<polygon fill="midnightblue" stroke="midnightblue" points="269.572,-140.199 259.123,-141.947 268.381,-147.097 269.572,-140.199"/>
</g>
<!-- Node17 -->
<g id="node17" class="node"><title>Node17</title>
<polygon fill="none" stroke="#bfbfbf" points="277,-124.5 277,-143.5 327,-143.5 327,-124.5 277,-124.5"/>
<text text-anchor="middle" x="302" y="-131.5" font-family="Helvetica,sans-Serif" font-size="10.00">signal.h</text>
</g>
<!-- Node5&#45;&gt;Node17 -->
<g id="edge16" class="edge"><title>Node5&#45;&gt;Node17</title>
<path fill="none" stroke="midnightblue" d="M1095.69,-189.491C988.673,-190.628 636.125,-190.47 337.291,-143.864"/>
<polygon fill="midnightblue" stroke="midnightblue" points="337.554,-140.362 327.13,-142.257 336.461,-147.276 337.554,-140.362"/>
</g>
<!-- Node18 -->
<g id="node18" class="node"><title>Node18</title>
<g id="a_node18"><a xlink:href="../../d9/d49/types_8h.html" target="_top" xlink:title="utils/types.h">
<polygon fill="none" stroke="black" points="345,-124.5 345,-143.5 415,-143.5 415,-124.5 345,-124.5"/>
<text text-anchor="middle" x="380" y="-131.5" font-family="Helvetica,sans-Serif" font-size="10.00">utils/types.h</text>
</a>
</g>
</g>
<!-- Node5&#45;&gt;Node18 -->
<g id="edge17" class="edge"><title>Node5&#45;&gt;Node18</title>
<path fill="none" stroke="midnightblue" d="M1095.92,-188.522C997.271,-186.721 689.604,-178.628 425.631,-144.04"/>
<polygon fill="midnightblue" stroke="midnightblue" points="425.843,-140.538 415.47,-142.693 424.923,-147.477 425.843,-140.538"/>
</g>
<!-- Node19 -->
<g id="node19" class="node"><title>Node19</title>
<g id="a_node19"><a xlink:href="../../d0/d9b/enum_8h.html" target="_top" xlink:title="enum.h">
<polygon fill="none" stroke="black" points="1375.5,-124.5 1375.5,-143.5 1424.5,-143.5 1424.5,-124.5 1375.5,-124.5"/>
<text text-anchor="middle" x="1400" y="-131.5" font-family="Helvetica,sans-Serif" font-size="10.00">enum.h</text>
</a>
</g>
</g>
<!-- Node5&#45;&gt;Node19 -->
<g id="edge18" class="edge"><title>Node5&#45;&gt;Node19</title>
<path fill="none" stroke="midnightblue" d="M1160.11,-183.177C1205.11,-174.93 1289.46,-159.158 1361,-144 1362.44,-143.694 1363.92,-143.377 1365.41,-143.052"/>
<polygon fill="midnightblue" stroke="midnightblue" points="1366.28,-146.444 1375.27,-140.848 1364.75,-139.612 1366.28,-146.444"/>
</g>
<!-- Node21 -->
<g id="node21" class="node"><title>Node21</title>
<g id="a_node21"><a xlink:href="../../d8/d19/atomics_8h.html" target="_top" xlink:title="utils/atomics.h">
<polygon fill="none" stroke="black" points="433,-124.5 433,-143.5 513,-143.5 513,-124.5 433,-124.5"/>
<text text-anchor="middle" x="473" y="-131.5" font-family="Helvetica,sans-Serif" font-size="10.00">utils/atomics.h</text>
</a>
</g>
</g>
<!-- Node5&#45;&gt;Node21 -->
<g id="edge21" class="edge"><title>Node5&#45;&gt;Node21</title>
<path fill="none" stroke="midnightblue" d="M1095.69,-187.825C1006.27,-184.313 747.887,-172.409 523.06,-143.998"/>
<polygon fill="midnightblue" stroke="midnightblue" points="523.419,-140.515 513.056,-142.72 522.532,-147.459 523.419,-140.515"/>
</g>
<!-- Node22 -->
<g id="node22" class="node"><title>Node22</title>
<g id="a_node22"><a xlink:href="../../d1/ddf/align_8h.html" target="_top" xlink:title="utils/align.h">
<polygon fill="none" stroke="black" points="531,-124.5 531,-143.5 597,-143.5 597,-124.5 531,-124.5"/>
<text text-anchor="middle" x="564" y="-131.5" font-family="Helvetica,sans-Serif" font-size="10.00">utils/align.h</text>
</a>
</g>
</g>
<!-- Node5&#45;&gt;Node22 -->
<g id="edge22" class="edge"><title>Node5&#45;&gt;Node22</title>
<path fill="none" stroke="midnightblue" d="M1095.76,-187.626C1015.07,-183.887 797.789,-171.98 607.312,-144.024"/>
<polygon fill="midnightblue" stroke="midnightblue" points="607.808,-140.56 597.402,-142.552 606.778,-147.484 607.808,-140.56"/>
</g>
<!-- Node23 -->
<g id="node23" class="node"><title>Node23</title>
<g id="a_node23"><a xlink:href="../../d5/d17/byteorder_8h.html" target="_top" xlink:title="utils/byteorder.h">
<polygon fill="none" stroke="black" points="615,-124.5 615,-143.5 701,-143.5 701,-124.5 615,-124.5"/>
<text text-anchor="middle" x="658" y="-131.5" font-family="Helvetica,sans-Serif" font-size="10.00">utils/byteorder.h</text>
</a>
</g>
</g>
<!-- Node5&#45;&gt;Node23 -->
<g id="edge23" class="edge"><title>Node5&#45;&gt;Node23</title>
<path fill="none" stroke="midnightblue" d="M1095.92,-186.254C1027.34,-180.231 861.167,-164.831 711.393,-144.115"/>
<polygon fill="midnightblue" stroke="midnightblue" points="711.484,-140.593 701.097,-142.678 710.517,-147.526 711.484,-140.593"/>
</g>
<!-- Node24 -->
<g id="node24" class="node"><title>Node24</title>
<g id="a_node24"><a xlink:href="../../dc/d18/memory_8h.html" target="_top" xlink:title="utils/memory.h">
<polygon fill="none" stroke="black" points="719.5,-124.5 719.5,-143.5 800.5,-143.5 800.5,-124.5 719.5,-124.5"/>
<text text-anchor="middle" x="760" y="-131.5" font-family="Helvetica,sans-Serif" font-size="10.00">utils/memory.h</text>
</a>
</g>
</g>
<!-- Node5&#45;&gt;Node24 -->
<g id="edge24" class="edge"><title>Node5&#45;&gt;Node24</title>
<path fill="none" stroke="midnightblue" d="M1095.79,-184.905C1039.84,-177.697 920.858,-161.938 810.579,-144.206"/>
<polygon fill="midnightblue" stroke="midnightblue" points="811.05,-140.736 800.619,-142.595 809.932,-147.647 811.05,-140.736"/>
</g>
<!-- Node25 -->
<g id="node25" class="node"><title>Node25</title>
<g id="a_node25"><a xlink:href="../../d9/dd1/strerror_8h.html" target="_top" xlink:title="utils/strerror.h">
<polygon fill="none" stroke="black" points="818.5,-124.5 818.5,-143.5 895.5,-143.5 895.5,-124.5 818.5,-124.5"/>
<text text-anchor="middle" x="857" y="-131.5" font-family="Helvetica,sans-Serif" font-size="10.00">utils/strerror.h</text>
</a>
</g>
</g>
<!-- Node5&#45;&gt;Node25 -->
<g id="edge25" class="edge"><title>Node5&#45;&gt;Node25</title>
<path fill="none" stroke="midnightblue" d="M1095.85,-182.593C1048.73,-173.204 960.555,-155.634 905.526,-144.669"/>
<polygon fill="midnightblue" stroke="midnightblue" points="906.146,-141.224 895.654,-142.702 904.778,-148.089 906.146,-141.224"/>
</g>
<!-- Node26 -->
<g id="node26" class="node"><title>Node26</title>
<g id="a_node26"><a xlink:href="../../d1/d13/status_8h.html" target="_top" xlink:title="utils/status.h">
<polygon fill="none" stroke="black" points="913.5,-124.5 913.5,-143.5 986.5,-143.5 986.5,-124.5 913.5,-124.5"/>
<text text-anchor="middle" x="950" y="-131.5" font-family="Helvetica,sans-Serif" font-size="10.00">utils/status.h</text>
</a>
</g>
</g>
<!-- Node5&#45;&gt;Node26 -->
<g id="edge26" class="edge"><title>Node5&#45;&gt;Node26</title>
<path fill="none" stroke="midnightblue" d="M1099.8,-180.444C1069.59,-171.28 1021.49,-156.688 987.971,-146.519"/>
<polygon fill="midnightblue" stroke="midnightblue" points="988.658,-143.07 978.073,-143.516 986.626,-149.769 988.658,-143.07"/>
</g>
<!-- Node27 -->
<g id="node27" class="node"><title>Node27</title>
<g id="a_node27"><a xlink:href="../../de/d10/object_8h.html" target="_top" xlink:title="utils/object.h">
<polygon fill="none" stroke="black" points="1005,-124.5 1005,-143.5 1077,-143.5 1077,-124.5 1005,-124.5"/>
<text text-anchor="middle" x="1041" y="-131.5" font-family="Helvetica,sans-Serif" font-size="10.00">utils/object.h</text>
</a>
</g>
</g>
<!-- Node5&#45;&gt;Node27 -->
<g id="edge27" class="edge"><title>Node5&#45;&gt;Node27</title>
<path fill="none" stroke="midnightblue" d="M1114.02,-180.324C1100.45,-171.9 1079.62,-158.971 1063.68,-149.074"/>
<polygon fill="midnightblue" stroke="midnightblue" points="1065.29,-145.954 1054.94,-143.655 1061.59,-151.902 1065.29,-145.954"/>
</g>
<!-- Node28 -->
<g id="node28" class="node"><title>Node28</title>
<g id="a_node28"><a xlink:href="../../d7/dd4/path_8h.html" target="_top" xlink:title="utils/path.h">
<polygon fill="none" stroke="black" points="1095.5,-124.5 1095.5,-143.5 1160.5,-143.5 1160.5,-124.5 1095.5,-124.5"/>
<text text-anchor="middle" x="1128" y="-131.5" font-family="Helvetica,sans-Serif" font-size="10.00">utils/path.h</text>
</a>
</g>
</g>
<!-- Node5&#45;&gt;Node28 -->
<g id="edge28" class="edge"><title>Node5&#45;&gt;Node28</title>
<path fill="none" stroke="midnightblue" d="M1128,-180.083C1128,-173.006 1128,-162.861 1128,-153.986"/>
<polygon fill="midnightblue" stroke="midnightblue" points="1131.5,-153.751 1128,-143.751 1124.5,-153.751 1131.5,-153.751"/>
</g>
<!-- Node29 -->
<g id="node29" class="node"><title>Node29</title>
<g id="a_node29"><a xlink:href="../../de/df7/time_8h.html" target="_top" xlink:title="utils/time.h">
<polygon fill="none" stroke="black" points="1178.5,-124.5 1178.5,-143.5 1243.5,-143.5 1243.5,-124.5 1178.5,-124.5"/>
<text text-anchor="middle" x="1211" y="-131.5" font-family="Helvetica,sans-Serif" font-size="10.00">utils/time.h</text>
</a>
</g>
</g>
<!-- Node5&#45;&gt;Node29 -->
<g id="edge29" class="edge"><title>Node5&#45;&gt;Node29</title>
<path fill="none" stroke="midnightblue" d="M1141.34,-180.324C1154.16,-171.979 1173.78,-159.212 1188.94,-149.352"/>
<polygon fill="midnightblue" stroke="midnightblue" points="1191.22,-152.042 1197.7,-143.655 1187.41,-146.174 1191.22,-152.042"/>
</g>
<!-- Node30 -->
<g id="node30" class="node"><title>Node30</title>
<g id="a_node30"><a xlink:href="../../dd/d71/tty_8h.html" target="_top" xlink:title="utils/tty.h">
<polygon fill="none" stroke="black" points="1261.5,-124.5 1261.5,-143.5 1318.5,-143.5 1318.5,-124.5 1261.5,-124.5"/>
<text text-anchor="middle" x="1290" y="-131.5" font-family="Helvetica,sans-Serif" font-size="10.00">utils/tty.h</text>
</a>
</g>
</g>
<!-- Node5&#45;&gt;Node30 -->
<g id="edge30" class="edge"><title>Node5&#45;&gt;Node30</title>
<path fill="none" stroke="midnightblue" d="M1153.67,-180.444C1180.92,-171.359 1224.18,-156.939 1254.65,-146.783"/>
<polygon fill="midnightblue" stroke="midnightblue" points="1256.07,-149.999 1264.45,-143.516 1253.86,-143.358 1256.07,-149.999"/>
</g>
<!-- Node20 -->
<g id="node20" class="node"><title>Node20</title>
<g id="a_node20"><a xlink:href="../../dc/d6a/printf__hook_8h.html" target="_top" xlink:title="utils/printf_hook/printf\l_hook.h">
<polygon fill="none" stroke="black" points="1375,-57 1375,-87 1485,-87 1485,-57 1375,-57"/>
<text text-anchor="start" x="1383" y="-75" font-family="Helvetica,sans-Serif" font-size="10.00">utils/printf_hook/printf</text>
<text text-anchor="middle" x="1430" y="-64" font-family="Helvetica,sans-Serif" font-size="10.00">_hook.h</text>
</a>
</g>
</g>
<!-- Node19&#45;&gt;Node20 -->
<g id="edge19" class="edge"><title>Node19&#45;&gt;Node20</title>
<path fill="none" stroke="midnightblue" d="M1404.3,-124.403C1407.98,-117.037 1413.46,-106.077 1418.42,-96.168"/>
<polygon fill="midnightblue" stroke="midnightblue" points="1421.59,-97.6504 1422.93,-87.1408 1415.33,-94.5198 1421.59,-97.6504"/>
</g>
<!-- Node20&#45;&gt;Node7 -->
<g id="edge20" class="edge"><title>Node20&#45;&gt;Node7</title>
<path fill="none" stroke="midnightblue" d="M1430,-56.7808C1430,-48.7812 1430,-38.6887 1430,-30.0168"/>
<polygon fill="midnightblue" stroke="midnightblue" points="1433.5,-29.7305 1430,-19.7305 1426.5,-29.7306 1433.5,-29.7305"/>
</g>
<!-- Node31&#45;&gt;Node4 -->
<g id="edge42" class="edge"><title>Node31&#45;&gt;Node4</title>
<path fill="none" stroke="midnightblue" d="M1596.44,-348.444C1570.48,-339.399 1529.33,-325.064 1500.2,-314.916"/>
<polygon fill="midnightblue" stroke="midnightblue" points="1501.04,-311.501 1490.45,-311.516 1498.74,-318.112 1501.04,-311.501"/>
</g>
<!-- Node32 -->
<g id="node32" class="node"><title>Node32</title>
<g id="a_node32"><a xlink:href="../../df/ded/host_8h.html" target="_top" xlink:title="networking/host.h">
<polygon fill="none" stroke="black" points="1676,-292.5 1676,-311.5 1770,-311.5 1770,-292.5 1676,-292.5"/>
<text text-anchor="middle" x="1723" y="-299.5" font-family="Helvetica,sans-Serif" font-size="10.00">networking/host.h</text>
</a>
</g>
</g>
<!-- Node31&#45;&gt;Node32 -->
<g id="edge32" class="edge"><title>Node31&#45;&gt;Node32</title>
<path fill="none" stroke="midnightblue" d="M1637.39,-348.324C1653.67,-339.703 1678.87,-326.364 1697.72,-316.386"/>
<polygon fill="midnightblue" stroke="midnightblue" points="1699.45,-319.427 1706.65,-311.655 1696.18,-313.24 1699.45,-319.427"/>
</g>
<!-- Node32&#45;&gt;Node5 -->
<g id="edge33" class="edge"><title>Node32&#45;&gt;Node5</title>
<path fill="none" stroke="midnightblue" d="M1676.81,-292.46C1564.39,-271.677 1277.89,-218.711 1169.98,-198.76"/>
<polygon fill="midnightblue" stroke="midnightblue" points="1170.57,-195.311 1160.1,-196.935 1169.3,-202.194 1170.57,-195.311"/>
</g>
<!-- Node32&#45;&gt;Node6 -->
<g id="edge41" class="edge"><title>Node32&#45;&gt;Node6</title>
<path fill="none" stroke="midnightblue" d="M1748.06,-292.4C1766.31,-285.088 1790.59,-273.045 1807,-256 1835.8,-226.078 1853.05,-179.394 1860.9,-153.636"/>
<polygon fill="midnightblue" stroke="midnightblue" points="1864.36,-154.276 1863.78,-143.697 1857.64,-152.33 1864.36,-154.276"/>
</g>
<!-- Node32&#45;&gt;Node7 -->
<g id="edge39" class="edge"><title>Node32&#45;&gt;Node7</title>
<path fill="none" stroke="midnightblue" d="M1770.03,-296.389C1830.55,-287.565 1928,-262.289 1928,-191 1928,-191 1928,-191 1928,-133 1928,-37.2811 1576.54,-16.2856 1464.13,-12.0184"/>
<polygon fill="midnightblue" stroke="midnightblue" points="1464.14,-8.5165 1454.02,-11.6557 1463.89,-15.512 1464.14,-8.5165"/>
</g>
<!-- Node33 -->
<g id="node33" class="node"><title>Node33</title>
<g id="a_node33"><a xlink:href="../../dd/dd5/chunk_8h.html" target="_top" xlink:title="utils/chunk.h">
<polygon fill="none" stroke="black" points="1726,-236.5 1726,-255.5 1798,-255.5 1798,-236.5 1726,-236.5"/>
<text text-anchor="middle" x="1762" y="-243.5" font-family="Helvetica,sans-Serif" font-size="10.00">utils/chunk.h</text>
</a>
</g>
</g>
<!-- Node32&#45;&gt;Node33 -->
<g id="edge34" class="edge"><title>Node32&#45;&gt;Node33</title>
<path fill="none" stroke="midnightblue" d="M1729.44,-292.083C1734.95,-284.455 1743.03,-273.264 1749.76,-263.941"/>
<polygon fill="midnightblue" stroke="midnightblue" points="1752.66,-265.907 1755.68,-255.751 1746.99,-261.809 1752.66,-265.907"/>
</g>
<!-- Node35 -->
<g id="node35" class="node"><title>Node35</title>
<polygon fill="none" stroke="#bfbfbf" points="1662,-236.5 1662,-255.5 1708,-255.5 1708,-236.5 1662,-236.5"/>
<text text-anchor="middle" x="1685" y="-243.5" font-family="Helvetica,sans-Serif" font-size="10.00">stdio.h</text>
</g>
<!-- Node32&#45;&gt;Node35 -->
<g id="edge40" class="edge"><title>Node32&#45;&gt;Node35</title>
<path fill="none" stroke="midnightblue" d="M1716.73,-292.083C1711.36,-284.455 1703.48,-273.264 1696.92,-263.941"/>
<polygon fill="midnightblue" stroke="midnightblue" points="1699.78,-261.915 1691.16,-255.751 1694.05,-265.943 1699.78,-261.915"/>
</g>
<!-- Node33&#45;&gt;Node5 -->
<g id="edge38" class="edge"><title>Node33&#45;&gt;Node5</title>
<path fill="none" stroke="midnightblue" d="M1725.71,-237.351C1722.77,-236.85 1719.84,-236.391 1717,-236 1513.31,-207.956 1267.42,-196.238 1170.35,-192.474"/>
<polygon fill="midnightblue" stroke="midnightblue" points="1170.19,-188.966 1160.07,-192.084 1169.93,-195.961 1170.19,-188.966"/>
</g>
<!-- Node33&#45;&gt;Node6 -->
<g id="edge37" class="edge"><title>Node33&#45;&gt;Node6</title>
<path fill="none" stroke="midnightblue" d="M1770.16,-236.368C1787.55,-217.974 1828.49,-174.671 1850.82,-151.052"/>
<polygon fill="midnightblue" stroke="midnightblue" points="1853.55,-153.262 1857.88,-143.591 1848.46,-148.453 1853.55,-153.262"/>
</g>
<!-- Node33&#45;&gt;Node10 -->
<g id="edge35" class="edge"><title>Node33&#45;&gt;Node10</title>
<path fill="none" stroke="midnightblue" d="M1764.12,-236.368C1768.48,-218.617 1778.53,-177.666 1784.44,-153.597"/>
<polygon fill="midnightblue" stroke="midnightblue" points="1787.91,-154.137 1786.89,-143.591 1781.11,-152.469 1787.91,-154.137"/>
</g>
<!-- Node34 -->
<g id="node34" class="node"><title>Node34</title>
<polygon fill="none" stroke="#bfbfbf" points="1709,-180.5 1709,-199.5 1761,-199.5 1761,-180.5 1709,-180.5"/>
<text text-anchor="middle" x="1735" y="-187.5" font-family="Helvetica,sans-Serif" font-size="10.00">stdarg.h</text>
</g>
<!-- Node33&#45;&gt;Node34 -->
<g id="edge36" class="edge"><title>Node33&#45;&gt;Node34</title>
<path fill="none" stroke="midnightblue" d="M1757.54,-236.083C1753.85,-228.691 1748.48,-217.953 1743.91,-208.811"/>
<polygon fill="midnightblue" stroke="midnightblue" points="1746.98,-207.13 1739.38,-199.751 1740.72,-210.261 1746.98,-207.13"/>
</g>
<!-- Node37&#45;&gt;Node4 -->
<g id="edge46" class="edge"><title>Node37&#45;&gt;Node4</title>
<path fill="none" stroke="midnightblue" d="M1412.16,-404.927C1405.96,-390.05 1399.06,-366.259 1408,-348 1414.52,-334.684 1427.1,-324.177 1438.87,-316.676"/>
<polygon fill="midnightblue" stroke="midnightblue" points="1440.77,-319.621 1447.61,-311.529 1437.22,-313.589 1440.77,-319.621"/>
</g>
</g>
</svg>
        <g id="navigator" transform="translate(0 0)" fill="#404254">
                <rect fill="#f2f5e9" fill-opacity="0.5" stroke="#606060" stroke-width=".5" x="0" y="0" width="60" height="60"/>
                <use id="zoomplus" xlink:href="#zoomPlus" x="17" y="9" onmousedown="handleZoom(evt,'in')"/>
                <use id="zoomminus" xlink:href="#zoomMin" x="42" y="9" onmousedown="handleZoom(evt,'out')"/>
                <use id="reset" xlink:href="#resetDef" x="30" y="36" onmousedown="handleReset()"/>
                <g id="arrowUp" xlink:href="#dirArrow" transform="translate(30 24)" onmousedown="handlePan(0,-1)">
                  <use xlink:href="#rim" fill="#404040">
                        <set attributeName="fill" to="#808080" begin="arrowUp.mouseover" end="arrowUp.mouseout"/>
                  </use>
                  <path fill="none" stroke="white" stroke-width="1.5" d="M0,-3.0v7 M-2.5,-0.5L0,-3.0L2.5,-0.5"/>
                </g>
                <g id="arrowRight" xlink:href="#dirArrow" transform="rotate(90) translate(36 -43)" onmousedown="handlePan(1,0)">
                  <use xlink:href="#rim" fill="#404040">
                        <set attributeName="fill" to="#808080" begin="arrowRight.mouseover" end="arrowRight.mouseout"/>
                  </use>
                  <path fill="none" stroke="white" stroke-width="1.5" d="M0,-3.0v7 M-2.5,-0.5L0,-3.0L2.5,-0.5"/>
                </g>
                <g id="arrowDown" xlink:href="#dirArrow" transform="rotate(180) translate(-30 -48)" onmousedown="handlePan(0,1)">
                  <use xlink:href="#rim" fill="#404040">
                        <set attributeName="fill" to="#808080" begin="arrowDown.mouseover" end="arrowDown.mouseout"/>
                  </use>
                  <path fill="none" stroke="white" stroke-width="1.5" d="M0,-3.0v7 M-2.5,-0.5L0,-3.0L2.5,-0.5"/>
                </g>
                <g id="arrowLeft" xlink:href="#dirArrow" transform="rotate(270) translate(-36 17)" onmousedown="handlePan(-1,0)">
                  <use xlink:href="#rim" fill="#404040">
                        <set attributeName="fill" to="#808080" begin="arrowLeft.mouseover" end="arrowLeft.mouseout"/>
                  </use>
                  <path fill="none" stroke="white" stroke-width="1.5" d="M0,-3.0v7 M-2.5,-0.5L0,-3.0L2.5,-0.5"/>
                </g>
        </g>
        <svg viewBox="0 0 15 15" width="100%" height="30px" preserveAspectRatio="xMaxYMin meet">
         <g id="arrow_out" transform="scale(0.3 0.3)">
          <a xlink:href="manager_8c__incl_org.svg" target="_base">
           <rect id="button" ry="5" rx="5" y="6" x="6" height="38" width="38"
                fill="#f2f5e9" fill-opacity="0.5" stroke="#606060" stroke-width="1.0"/>
           <path id="arrow"
             d="M 11.500037,31.436501 C 11.940474,20.09759 22.043105,11.32322 32.158766,21.979434 L 37.068811,17.246167 C 37.068811,17.246167 37.088388,32 37.088388,32 L 22.160133,31.978069 C 22.160133,31.978069 26.997745,27.140456 26.997745,27.140456 C 18.528582,18.264221 13.291696,25.230495 11.500037,31.436501 z"
             style="fill:#404040;"/>
          </a>
         </g>
        </svg>
</svg>
