<?xml version="1.0" encoding="UTF-8" standalone="no"?>
<!DOCTYPE svg PUBLIC "-//W3C//DTD SVG 1.1//EN"
 "http://www.w3.org/Graphics/SVG/1.1/DTD/svg11.dtd">
<!-- Generated by graphviz version 2.36.0 (20140111.2315)
 -->
<!-- Title: cowfs_chown Pages: 1 -->
<svg width="348pt" height="142pt"
 viewBox="0.00 0.00 348.00 142.00" xmlns="http://www.w3.org/2000/svg" xmlns:xlink="http://www.w3.org/1999/xlink">
<g id="graph0" class="graph" transform="scale(1 1) rotate(0) translate(4 138)">
<title>cowfs_chown</title>
<!-- Node1 -->
<g id="node1" class="node"><title>Node1</title>
<polygon fill="#bfbfbf" stroke="black" points="0.5,-38.5 0.5,-57.5 77.5,-57.5 77.5,-38.5 0.5,-38.5"/>
<text text-anchor="middle" x="39" y="-45.5" font-family="Helvetica,sans-Serif" font-size="10.00">cowfs_chown</text>
</g>
<!-- Node2 -->
<g id="node2" class="node"><title>Node2</title>
<g id="a_node2"><a xlink:href="../../d8/d11/cowfs_8c.html#a5b0505fc0548c5d6cf20d2488e284c14" target="_top" xlink:title="copy">
<polygon fill="none" stroke="black" points="114,-76.5 114,-95.5 152,-95.5 152,-76.5 114,-76.5"/>
<text text-anchor="middle" x="133" y="-83.5" font-family="Helvetica,sans-Serif" font-size="10.00">copy</text>
</a>
</g>
</g>
<!-- Node1&#45;&gt;Node2 -->
<g id="edge1" class="edge"><title>Node1&#45;&gt;Node2</title>
<path fill="none" stroke="midnightblue" d="M63.2155,-57.589C75.6865,-62.7401 91.1466,-69.1258 104.249,-74.5377"/>
<polygon fill="midnightblue" stroke="midnightblue" points="103.142,-77.8671 113.721,-78.4498 105.814,-71.3973 103.142,-77.8671"/>
</g>
<!-- Node4 -->
<g id="node4" class="node"><title>Node4</title>
<g id="a_node4"><a xlink:href="../../d8/d11/cowfs_8c.html#af229e42f46d714577ab5f90bb28b0004" target="_top" xlink:title="get_rd">
<polygon fill="none" stroke="black" points="198,-38.5 198,-57.5 242,-57.5 242,-38.5 198,-38.5"/>
<text text-anchor="middle" x="220" y="-45.5" font-family="Helvetica,sans-Serif" font-size="10.00">get_rd</text>
</a>
</g>
</g>
<!-- Node1&#45;&gt;Node4 -->
<g id="edge7" class="edge"><title>Node1&#45;&gt;Node4</title>
<path fill="none" stroke="midnightblue" d="M77.5243,-48C110.171,-48 156.938,-48 187.63,-48"/>
<polygon fill="midnightblue" stroke="midnightblue" points="187.766,-51.5001 197.766,-48 187.766,-44.5001 187.766,-51.5001"/>
</g>
<!-- Node7 -->
<g id="node7" class="node"><title>Node7</title>
<g id="a_node7"><a xlink:href="../../d8/d11/cowfs_8c.html#ab23d75daf8d24eb797a720b189f0c319" target="_top" xlink:title="rel">
<polygon fill="none" stroke="black" points="118.5,-0.5 118.5,-19.5 147.5,-19.5 147.5,-0.5 118.5,-0.5"/>
<text text-anchor="middle" x="133" y="-7.5" font-family="Helvetica,sans-Serif" font-size="10.00">rel</text>
</a>
</g>
</g>
<!-- Node1&#45;&gt;Node7 -->
<g id="edge8" class="edge"><title>Node1&#45;&gt;Node7</title>
<path fill="none" stroke="midnightblue" d="M63.2155,-38.411C77.2651,-32.6079 95.1085,-25.2378 109.101,-19.4584"/>
<polygon fill="midnightblue" stroke="midnightblue" points="110.593,-22.629 118.499,-15.5764 107.92,-16.1592 110.593,-22.629"/>
</g>
<!-- Node3 -->
<g id="node3" class="node"><title>Node3</title>
<g id="a_node3"><a xlink:href="../../d8/d11/cowfs_8c.html#a6bc193d06d35104f58eca4b16dd22a90" target="_top" xlink:title="clone_path">
<polygon fill="none" stroke="black" points="188,-114.5 188,-133.5 252,-133.5 252,-114.5 188,-114.5"/>
<text text-anchor="middle" x="220" y="-121.5" font-family="Helvetica,sans-Serif" font-size="10.00">clone_path</text>
</a>
</g>
</g>
<!-- Node2&#45;&gt;Node3 -->
<g id="edge2" class="edge"><title>Node2&#45;&gt;Node3</title>
<path fill="none" stroke="midnightblue" d="M152.026,-94.0588C162.562,-98.7691 176.143,-104.84 188.317,-110.283"/>
<polygon fill="midnightblue" stroke="midnightblue" points="187.137,-113.589 197.695,-114.475 189.994,-107.199 187.137,-113.589"/>
</g>
<!-- Node2&#45;&gt;Node4 -->
<g id="edge3" class="edge"><title>Node2&#45;&gt;Node4</title>
<path fill="none" stroke="midnightblue" d="M152.026,-77.9412C162.562,-73.2309 176.143,-67.1598 188.317,-61.717"/>
<polygon fill="midnightblue" stroke="midnightblue" points="189.994,-64.8012 197.695,-57.5246 187.137,-58.4108 189.994,-64.8012"/>
</g>
<!-- Node6 -->
<g id="node6" class="node"><title>Node6</title>
<g id="a_node6"><a xlink:href="../../d8/d11/cowfs_8c.html#ac5b3444ea5c41d728ba6cc339e882d35" target="_top" xlink:title="get_wr">
<polygon fill="none" stroke="black" points="197,-76.5 197,-95.5 243,-95.5 243,-76.5 197,-76.5"/>
<text text-anchor="middle" x="220" y="-83.5" font-family="Helvetica,sans-Serif" font-size="10.00">get_wr</text>
</a>
</g>
</g>
<!-- Node2&#45;&gt;Node6 -->
<g id="edge5" class="edge"><title>Node2&#45;&gt;Node6</title>
<path fill="none" stroke="midnightblue" d="M152.026,-86C162.026,-86 174.767,-86 186.446,-86"/>
<polygon fill="midnightblue" stroke="midnightblue" points="186.764,-89.5001 196.764,-86 186.764,-82.5001 186.764,-89.5001"/>
</g>
<!-- Node5 -->
<g id="node5" class="node"><title>Node5</title>
<g id="a_node5"><a xlink:href="../../d8/d11/cowfs_8c.html#a0495882a58d90abec4b4901207bd17b7" target="_top" xlink:title="get_this">
<polygon fill="none" stroke="black" points="288.5,-57.5 288.5,-76.5 339.5,-76.5 339.5,-57.5 288.5,-57.5"/>
<text text-anchor="middle" x="314" y="-64.5" font-family="Helvetica,sans-Serif" font-size="10.00">get_this</text>
</a>
</g>
</g>
<!-- Node4&#45;&gt;Node5 -->
<g id="edge4" class="edge"><title>Node4&#45;&gt;Node5</title>
<path fill="none" stroke="midnightblue" d="M242.338,-52.4067C253.037,-54.6164 266.264,-57.3479 278.369,-59.848"/>
<polygon fill="midnightblue" stroke="midnightblue" points="277.693,-63.2822 288.194,-61.8771 279.109,-56.4268 277.693,-63.2822"/>
</g>
<!-- Node6&#45;&gt;Node5 -->
<g id="edge6" class="edge"><title>Node6&#45;&gt;Node5</title>
<path fill="none" stroke="midnightblue" d="M243.271,-81.4006C253.8,-79.2261 266.614,-76.5798 278.37,-74.1518"/>
<polygon fill="midnightblue" stroke="midnightblue" points="279.26,-77.5419 288.346,-72.0917 277.844,-70.6866 279.26,-77.5419"/>
</g>
</g>
</svg>
