<?xml version="1.0" encoding="UTF-8" standalone="no"?>
<!DOCTYPE svg PUBLIC "-//W3C//DTD SVG 1.1//EN"
 "http://www.w3.org/Graphics/SVG/1.1/DTD/svg11.dtd">
<!-- Generated by graphviz version 2.36.0 (20140111.2315)
 -->
<!-- Title: cowfs_read Pages: 1 -->
<svg width="244pt" height="104pt"
 viewBox="0.00 0.00 244.00 104.00" xmlns="http://www.w3.org/2000/svg" xmlns:xlink="http://www.w3.org/1999/xlink">
<g id="graph0" class="graph" transform="scale(1 1) rotate(0) translate(4 100)">
<title>cowfs_read</title>
<!-- Node1 -->
<g id="node1" class="node"><title>Node1</title>
<polygon fill="#bfbfbf" stroke="black" points="0.5,-38.5 0.5,-57.5 67.5,-57.5 67.5,-38.5 0.5,-38.5"/>
<text text-anchor="middle" x="34" y="-45.5" font-family="Helvetica,sans-Serif" font-size="10.00">cowfs_read</text>
</g>
<!-- Node2 -->
<g id="node2" class="node"><title>Node2</title>
<g id="a_node2"><a xlink:href="../../d8/d11/cowfs_8c.html#af229e42f46d714577ab5f90bb28b0004" target="_top" xlink:title="get_rd">
<polygon fill="none" stroke="black" points="104,-76.5 104,-95.5 148,-95.5 148,-76.5 104,-76.5"/>
<text text-anchor="middle" x="126" y="-83.5" font-family="Helvetica,sans-Serif" font-size="10.00">get_rd</text>
</a>
</g>
</g>
<!-- Node1&#45;&gt;Node2 -->
<g id="edge1" class="edge"><title>Node1&#45;&gt;Node2</title>
<path fill="none" stroke="midnightblue" d="M57.7108,-57.589C68.8871,-62.3079 82.5175,-68.0629 94.5806,-73.1563"/>
<polygon fill="midnightblue" stroke="midnightblue" points="93.2682,-76.4013 103.842,-77.0667 95.9911,-69.9525 93.2682,-76.4013"/>
</g>
<!-- Node4 -->
<g id="node4" class="node"><title>Node4</title>
<g id="a_node4"><a xlink:href="../../d8/d11/cowfs_8c.html#a67ceebb141dbf6be0be4484804601e5b" target="_top" xlink:title="pread">
<polygon fill="none" stroke="black" points="105.5,-38.5 105.5,-57.5 146.5,-57.5 146.5,-38.5 105.5,-38.5"/>
<text text-anchor="middle" x="126" y="-45.5" font-family="Helvetica,sans-Serif" font-size="10.00">pread</text>
</a>
</g>
</g>
<!-- Node1&#45;&gt;Node4 -->
<g id="edge3" class="edge"><title>Node1&#45;&gt;Node4</title>
<path fill="none" stroke="midnightblue" d="M67.7467,-48C76.6796,-48 86.3099,-48 95.077,-48"/>
<polygon fill="midnightblue" stroke="midnightblue" points="95.2378,-51.5001 105.238,-48 95.2378,-44.5001 95.2378,-51.5001"/>
</g>
<!-- Node5 -->
<g id="node5" class="node"><title>Node5</title>
<g id="a_node5"><a xlink:href="../../d8/d11/cowfs_8c.html#ab23d75daf8d24eb797a720b189f0c319" target="_top" xlink:title="rel">
<polygon fill="none" stroke="black" points="111.5,-0.5 111.5,-19.5 140.5,-19.5 140.5,-0.5 111.5,-0.5"/>
<text text-anchor="middle" x="126" y="-7.5" font-family="Helvetica,sans-Serif" font-size="10.00">rel</text>
</a>
</g>
</g>
<!-- Node1&#45;&gt;Node5 -->
<g id="edge4" class="edge"><title>Node1&#45;&gt;Node5</title>
<path fill="none" stroke="midnightblue" d="M57.7108,-38.411C71.1556,-32.7343 88.1517,-25.5582 101.699,-19.8384"/>
<polygon fill="midnightblue" stroke="midnightblue" points="103.419,-22.9114 111.27,-15.7972 100.696,-16.4626 103.419,-22.9114"/>
</g>
<!-- Node3 -->
<g id="node3" class="node"><title>Node3</title>
<g id="a_node3"><a xlink:href="../../d8/d11/cowfs_8c.html#a0495882a58d90abec4b4901207bd17b7" target="_top" xlink:title="get_this">
<polygon fill="none" stroke="black" points="184.5,-76.5 184.5,-95.5 235.5,-95.5 235.5,-76.5 184.5,-76.5"/>
<text text-anchor="middle" x="210" y="-83.5" font-family="Helvetica,sans-Serif" font-size="10.00">get_this</text>
</a>
</g>
</g>
<!-- Node2&#45;&gt;Node3 -->
<g id="edge2" class="edge"><title>Node2&#45;&gt;Node3</title>
<path fill="none" stroke="midnightblue" d="M148.117,-86C156.098,-86 165.405,-86 174.306,-86"/>
<polygon fill="midnightblue" stroke="midnightblue" points="174.465,-89.5001 184.465,-86 174.465,-82.5001 174.465,-89.5001"/>
</g>
</g>
</svg>
