<?xml version="1.0" encoding="UTF-8" standalone="no"?>
<!DOCTYPE svg PUBLIC "-//W3C//DTD SVG 1.1//EN"
 "http://www.w3.org/Graphics/SVG/1.1/DTD/svg11.dtd">
<!-- Generated by graphviz version 2.36.0 (20140111.2315)
 -->
<!-- Title: METHOD Pages: 1 -->
<svg width="386pt" height="66pt"
 viewBox="0.00 0.00 386.00 66.00" xmlns="http://www.w3.org/2000/svg" xmlns:xlink="http://www.w3.org/1999/xlink">
<g id="graph0" class="graph" transform="scale(1 1) rotate(0) translate(4 62)">
<title>METHOD</title>
<!-- Node1 -->
<g id="node1" class="node"><title>Node1</title>
<polygon fill="#bfbfbf" stroke="black" points="0,-19.5 0,-38.5 60,-38.5 60,-19.5 0,-19.5"/>
<text text-anchor="middle" x="30" y="-26.5" font-family="Helvetica,sans-Serif" font-size="10.00">METHOD</text>
</g>
<!-- Node2 -->
<g id="node2" class="node"><title>Node2</title>
<g id="a_node2"><a xlink:href="../../d8/d11/cowfs_8c.html#a875b309e947ce80230ee08074e50e594" target="_top" xlink:title="overlay_remove">
<polygon fill="none" stroke="black" points="96,-19.5 96,-38.5 182,-38.5 182,-19.5 96,-19.5"/>
<text text-anchor="middle" x="139" y="-26.5" font-family="Helvetica,sans-Serif" font-size="10.00">overlay_remove</text>
</a>
</g>
</g>
<!-- Node1&#45;&gt;Node2 -->
<g id="edge1" class="edge"><title>Node1&#45;&gt;Node2</title>
<path fill="none" stroke="midnightblue" d="M60.2382,-29C68.1545,-29 76.97,-29 85.7409,-29"/>
<polygon fill="midnightblue" stroke="midnightblue" points="85.9603,-32.5001 95.9603,-29 85.9603,-25.5001 85.9603,-32.5001"/>
</g>
<!-- Node3 -->
<g id="node3" class="node"><title>Node3</title>
<g id="a_node3"><a xlink:href="../../d8/d11/cowfs_8c.html#a99573e1afc7b91db6f47f86848d52879" target="_top" xlink:title="overlay_equals">
<polygon fill="none" stroke="black" points="220,-38.5 220,-57.5 302,-57.5 302,-38.5 220,-38.5"/>
<text text-anchor="middle" x="261" y="-45.5" font-family="Helvetica,sans-Serif" font-size="10.00">overlay_equals</text>
</a>
</g>
</g>
<!-- Node2&#45;&gt;Node3 -->
<g id="edge2" class="edge"><title>Node2&#45;&gt;Node3</title>
<path fill="none" stroke="midnightblue" d="M182.308,-35.6987C191.132,-37.096 200.518,-38.582 209.602,-40.0203"/>
<polygon fill="midnightblue" stroke="midnightblue" points="209.26,-43.5097 219.684,-41.6167 210.355,-36.5958 209.26,-43.5097"/>
</g>
<!-- Node5 -->
<g id="node5" class="node"><title>Node5</title>
<g id="a_node5"><a xlink:href="../../d8/d11/cowfs_8c.html#a8d4c7d5bcccd84b52b3523245e3da6a1" target="_top" xlink:title="overlay_destroy">
<polygon fill="none" stroke="black" points="218,-0.5 218,-19.5 304,-19.5 304,-0.5 218,-0.5"/>
<text text-anchor="middle" x="261" y="-7.5" font-family="Helvetica,sans-Serif" font-size="10.00">overlay_destroy</text>
</a>
</g>
</g>
<!-- Node2&#45;&gt;Node5 -->
<g id="edge4" class="edge"><title>Node2&#45;&gt;Node5</title>
<path fill="none" stroke="midnightblue" d="M182.308,-22.3013C190.463,-21.01 199.097,-19.643 207.53,-18.3078"/>
<polygon fill="midnightblue" stroke="midnightblue" points="208.34,-21.7231 217.67,-16.7022 207.246,-14.8092 208.34,-21.7231"/>
</g>
<!-- Node4 -->
<g id="node4" class="node"><title>Node4</title>
<g id="a_node4"><a xlink:href="../../d4/d40/group__string__i.html#ga65c3d08890165aaa4663c72d07f93bb7" target="_top" xlink:title="streq">
<polygon fill="none" stroke="black" points="340,-38.5 340,-57.5 378,-57.5 378,-38.5 340,-38.5"/>
<text text-anchor="middle" x="359" y="-45.5" font-family="Helvetica,sans-Serif" font-size="10.00">streq</text>
</a>
</g>
</g>
<!-- Node3&#45;&gt;Node4 -->
<g id="edge3" class="edge"><title>Node3&#45;&gt;Node4</title>
<path fill="none" stroke="midnightblue" d="M302.156,-48C311.405,-48 321.052,-48 329.676,-48"/>
<polygon fill="midnightblue" stroke="midnightblue" points="329.943,-51.5001 339.943,-48 329.943,-44.5001 329.943,-51.5001"/>
</g>
<!-- Node6 -->
<g id="node6" class="node"><title>Node6</title>
<g id="a_node6"><a xlink:href="../../da/dfc/settings__parser_8c.html#af07d89f5ceaea0c7c8252cc41fd75f37" target="_top" xlink:title="free">
<polygon fill="none" stroke="black" points="342.5,-0.5 342.5,-19.5 375.5,-19.5 375.5,-0.5 342.5,-0.5"/>
<text text-anchor="middle" x="359" y="-7.5" font-family="Helvetica,sans-Serif" font-size="10.00">free</text>
</a>
</g>
</g>
<!-- Node5&#45;&gt;Node6 -->
<g id="edge5" class="edge"><title>Node5&#45;&gt;Node6</title>
<path fill="none" stroke="midnightblue" d="M304.107,-10C313.6,-10 323.406,-10 332.008,-10"/>
<polygon fill="midnightblue" stroke="midnightblue" points="332.146,-13.5001 342.146,-10 332.146,-6.5001 332.146,-13.5001"/>
</g>
</g>
</svg>
