<?xml version="1.0" encoding="UTF-8" standalone="no"?>
<!DOCTYPE svg PUBLIC "-//W3C//DTD SVG 1.1//EN"
 "http://www.w3.org/Graphics/SVG/1.1/DTD/svg11.dtd">
<!-- Generated by graphviz version 2.36.0 (20140111.2315)
 -->
<!-- Title: proposal_add_supported_ike Pages: 1 -->
<svg width="932pt" height="952pt"
 viewBox="0.00 0.00 932.00 952.00" xmlns="http://www.w3.org/2000/svg" xmlns:xlink="http://www.w3.org/1999/xlink">
<g id="graph0" class="graph" transform="scale(1 1) rotate(0) translate(4 948)">
<title>proposal_add_supported_ike</title>
<!-- Node1 -->
<g id="node1" class="node"><title>Node1</title>
<polygon fill="#bfbfbf" stroke="black" points="0,-316.5 0,-335.5 140,-335.5 140,-316.5 0,-316.5"/>
<text text-anchor="middle" x="70" y="-323.5" font-family="Helvetica,sans-Serif" font-size="10.00">proposal_add_supported_ike</text>
</g>
<!-- Node2 -->
<g id="node2" class="node"><title>Node2</title>
<g id="a_node2"><a xlink:href="../../dd/d64/group__proposal.html#ga92ce9c8faeb31edb2410d7182bf22c86" target="_top" xlink:title="proposal_create_default">
<polygon fill="none" stroke="black" points="189,-335.5 189,-354.5 309,-354.5 309,-335.5 189,-335.5"/>
<text text-anchor="middle" x="249" y="-342.5" font-family="Helvetica,sans-Serif" font-size="10.00">proposal_create_default</text>
</a>
</g>
</g>
<!-- Node1&#45;&gt;Node2 -->
<g id="edge1" class="edge"><title>Node1&#45;&gt;Node2</title>
<path fill="none" stroke="midnightblue" d="M150.477,-334.531C163.395,-335.918 176.573,-337.333 188.893,-338.655"/>
<polygon fill="midnightblue" stroke="midnightblue" points="150.51,-331.015 140.193,-333.428 149.763,-337.975 150.51,-331.015"/>
</g>
<!-- Node50 -->
<g id="node50" class="node"><title>Node50</title>
<g id="a_node50"><a xlink:href="../../dd/d64/group__proposal.html#ga1f322ca715b0c2bd794d031e64c6fc43" target="_top" xlink:title="proposal_create_default_aead">
<polygon fill="none" stroke="black" points="176,-297.5 176,-316.5 322,-316.5 322,-297.5 176,-297.5"/>
<text text-anchor="middle" x="249" y="-304.5" font-family="Helvetica,sans-Serif" font-size="10.00">proposal_create_default_aead</text>
</a>
</g>
</g>
<!-- Node1&#45;&gt;Node50 -->
<g id="edge52" class="edge"><title>Node1&#45;&gt;Node50</title>
<path fill="none" stroke="midnightblue" d="M150.186,-317.5C158.76,-316.579 167.453,-315.646 175.937,-314.736"/>
<polygon fill="midnightblue" stroke="midnightblue" points="149.763,-314.025 140.193,-318.572 150.51,-320.985 149.763,-314.025"/>
</g>
<!-- Node3 -->
<g id="node3" class="node"><title>Node3</title>
<g id="a_node3"><a xlink:href="../../d7/d9c/cmd__connection_8c.html#ad383141d47fae75523014ef65e04c018" target="_top" xlink:title="create_peer_cfg">
<polygon fill="none" stroke="black" points="372,-582.5 372,-601.5 458,-601.5 458,-582.5 372,-582.5"/>
<text text-anchor="middle" x="415" y="-589.5" font-family="Helvetica,sans-Serif" font-size="10.00">create_peer_cfg</text>
</a>
</g>
</g>
<!-- Node2&#45;&gt;Node3 -->
<g id="edge2" class="edge"><title>Node2&#45;&gt;Node3</title>
<path fill="none" stroke="midnightblue" d="M253.908,-364.84C263.576,-408.747 292.716,-514.839 358,-573 362.369,-576.893 367.569,-579.994 373.013,-582.463"/>
<polygon fill="midnightblue" stroke="midnightblue" points="257.293,-363.929 251.815,-354.86 250.442,-365.366 257.293,-363.929"/>
</g>
<!-- Node17 -->
<g id="node17" class="node"><title>Node17</title>
<g id="a_node17"><a xlink:href="../../d7/d9c/cmd__connection_8c.html#a1f336f506c2809aaa13a8a7dc31b25ff" target="_top" xlink:title="create_child_cfg">
<polygon fill="none" stroke="black" points="371,-544.5 371,-563.5 459,-563.5 459,-544.5 371,-544.5"/>
<text text-anchor="middle" x="415" y="-551.5" font-family="Helvetica,sans-Serif" font-size="10.00">create_child_cfg</text>
</a>
</g>
</g>
<!-- Node2&#45;&gt;Node17 -->
<g id="edge17" class="edge"><title>Node2&#45;&gt;Node17</title>
<path fill="none" stroke="midnightblue" d="M255.977,-364.867C268.537,-403.297 301.293,-488.149 358,-535 362.67,-538.858 368.161,-541.947 373.848,-544.416"/>
<polygon fill="midnightblue" stroke="midnightblue" points="259.188,-363.41 252.844,-354.924 252.511,-365.514 259.188,-363.41"/>
</g>
<!-- Node18 -->
<g id="node18" class="node"><title>Node18</title>
<g id="a_node18"><a xlink:href="../../d3/d95/config_8c.html#a5b68982080f3db9c9d84fd72fe3628a3" target="_top" xlink:title="load_ike_config">
<polygon fill="none" stroke="black" points="373,-506.5 373,-525.5 457,-525.5 457,-506.5 373,-506.5"/>
<text text-anchor="middle" x="415" y="-513.5" font-family="Helvetica,sans-Serif" font-size="10.00">load_ike_config</text>
</a>
</g>
</g>
<!-- Node2&#45;&gt;Node18 -->
<g id="edge19" class="edge"><title>Node2&#45;&gt;Node18</title>
<path fill="none" stroke="midnightblue" d="M258.557,-363.942C273.941,-395.931 309.269,-460.712 358,-497 363.188,-500.863 369.213,-503.975 375.351,-506.473"/>
<polygon fill="midnightblue" stroke="midnightblue" points="261.68,-362.359 254.271,-354.786 255.34,-365.327 261.68,-362.359"/>
</g>
<!-- Node21 -->
<g id="node21" class="node"><title>Node21</title>
<g id="a_node21"><a xlink:href="../../d3/d95/config_8c.html#a5401d66fadebca151ad7f2b99c1101a0" target="_top" xlink:title="load_child_config">
<polygon fill="none" stroke="black" points="369,-468.5 369,-487.5 461,-487.5 461,-468.5 369,-468.5"/>
<text text-anchor="middle" x="415" y="-475.5" font-family="Helvetica,sans-Serif" font-size="10.00">load_child_config</text>
</a>
</g>
</g>
<!-- Node2&#45;&gt;Node21 -->
<g id="edge22" class="edge"><title>Node2&#45;&gt;Node21</title>
<path fill="none" stroke="midnightblue" d="M262.55,-362.957C280.835,-387.871 317.109,-432.804 358,-459 363.878,-462.766 370.585,-465.872 377.265,-468.402"/>
<polygon fill="midnightblue" stroke="midnightblue" points="265.332,-360.831 256.652,-354.756 259.649,-364.918 265.332,-360.831"/>
</g>
<!-- Node22 -->
<g id="node22" class="node"><title>Node22</title>
<g id="a_node22"><a xlink:href="../../df/d4e/ha__tunnel_8c.html#a2e0ef9846224769ecaaba2b8abf57f4f" target="_top" xlink:title="setup_tunnel">
<polygon fill="none" stroke="black" points="379,-430.5 379,-449.5 451,-449.5 451,-430.5 379,-430.5"/>
<text text-anchor="middle" x="415" y="-437.5" font-family="Helvetica,sans-Serif" font-size="10.00">setup_tunnel</text>
</a>
</g>
</g>
<!-- Node2&#45;&gt;Node22 -->
<g id="edge24" class="edge"><title>Node2&#45;&gt;Node22</title>
<path fill="none" stroke="midnightblue" d="M269.031,-360.953C289.806,-377.735 324.586,-404.02 358,-421 365.139,-424.628 373.126,-427.809 380.783,-430.478"/>
<polygon fill="midnightblue" stroke="midnightblue" points="271.236,-358.234 261.281,-354.606 266.801,-363.65 271.236,-358.234"/>
</g>
<!-- Node25 -->
<g id="node25" class="node"><title>Node25</title>
<g id="a_node25"><a xlink:href="../../d7/d79/maemo__service_8c.html#af04d210533a8ac5ccf2f1b3f396210a5" target="_top" xlink:title="initiate_connection">
<polygon fill="none" stroke="black" points="366,-354.5 366,-373.5 464,-373.5 464,-354.5 366,-354.5"/>
<text text-anchor="middle" x="415" y="-361.5" font-family="Helvetica,sans-Serif" font-size="10.00">initiate_connection</text>
</a>
</g>
</g>
<!-- Node2&#45;&gt;Node25 -->
<g id="edge27" class="edge"><title>Node2&#45;&gt;Node25</title>
<path fill="none" stroke="midnightblue" d="M319.388,-353.039C335.056,-354.854 351.352,-356.742 365.917,-358.429"/>
<polygon fill="midnightblue" stroke="midnightblue" points="319.544,-349.534 309.208,-351.859 318.738,-356.487 319.544,-349.534"/>
</g>
<!-- Node29 -->
<g id="node29" class="node"><title>Node29</title>
<g id="a_node29"><a xlink:href="../../d0/d7f/medcli__config_8c.html#a4ad8755b2ab8b28d88e321d71561a307" target="_top" xlink:title="METHOD">
<polygon fill="none" stroke="black" points="385,-126.5 385,-145.5 445,-145.5 445,-126.5 385,-126.5"/>
<text text-anchor="middle" x="415" y="-133.5" font-family="Helvetica,sans-Serif" font-size="10.00">METHOD</text>
</a>
</g>
</g>
<!-- Node2&#45;&gt;Node29 -->
<g id="edge31" class="edge"><title>Node2&#45;&gt;Node29</title>
<path fill="none" stroke="midnightblue" d="M318.006,-329.704C319.409,-328.553 320.745,-327.32 322,-326 375.514,-269.713 306.462,-213.102 358,-155 364.881,-147.243 375.049,-142.649 384.839,-139.93"/>
<polygon fill="midnightblue" stroke="midnightblue" points="315.741,-327.005 309.323,-335.434 319.597,-332.847 315.741,-327.005"/>
</g>
<!-- Node30 -->
<g id="node30" class="node"><title>Node30</title>
<g id="a_node30"><a xlink:href="../../d4/d6e/group__medcli__config__i.html#ga4d60e569f93a91c0ca367411941cec64" target="_top" xlink:title="medcli_config_create">
<polygon fill="none" stroke="black" points="360.5,-316.5 360.5,-335.5 469.5,-335.5 469.5,-316.5 360.5,-316.5"/>
<text text-anchor="middle" x="415" y="-323.5" font-family="Helvetica,sans-Serif" font-size="10.00">medcli_config_create</text>
</a>
</g>
</g>
<!-- Node2&#45;&gt;Node30 -->
<g id="edge32" class="edge"><title>Node2&#45;&gt;Node30</title>
<path fill="none" stroke="midnightblue" d="M319.527,-336.945C333.176,-335.364 347.296,-333.728 360.329,-332.218"/>
<polygon fill="midnightblue" stroke="midnightblue" points="318.738,-333.513 309.208,-338.141 319.544,-340.466 318.738,-333.513"/>
</g>
<!-- Node33 -->
<g id="node33" class="node"><title>Node33</title>
<g id="a_node33"><a xlink:href="../../d7/d89/group__medsrv__config__i.html#gab2a9518e5067e7efcc160139063b7881" target="_top" xlink:title="medsrv_config_create">
<polygon fill="none" stroke="black" points="358.5,-278.5 358.5,-297.5 471.5,-297.5 471.5,-278.5 358.5,-278.5"/>
<text text-anchor="middle" x="415" y="-285.5" font-family="Helvetica,sans-Serif" font-size="10.00">medsrv_config_create</text>
</a>
</g>
</g>
<!-- Node2&#45;&gt;Node33 -->
<g id="edge35" class="edge"><title>Node2&#45;&gt;Node33</title>
<path fill="none" stroke="midnightblue" d="M302.466,-332.655C309.116,-330.654 315.769,-328.43 322,-326 338.855,-319.427 341.382,-314.151 358,-307 365.922,-303.591 374.674,-300.374 382.859,-297.589"/>
<polygon fill="midnightblue" stroke="midnightblue" points="301.426,-329.312 292.774,-335.427 303.351,-336.042 301.426,-329.312"/>
</g>
<!-- Node36 -->
<g id="node36" class="node"><title>Node36</title>
<g id="a_node36"><a xlink:href="../../d0/d53/nm__service_8c.html#ac66aab0554b998f65f088b4e8a33cb1e" target="_top" xlink:title="connect_">
<polygon fill="none" stroke="black" points="387,-240.5 387,-259.5 443,-259.5 443,-240.5 387,-240.5"/>
<text text-anchor="middle" x="415" y="-247.5" font-family="Helvetica,sans-Serif" font-size="10.00">connect_</text>
</a>
</g>
</g>
<!-- Node2&#45;&gt;Node36 -->
<g id="edge38" class="edge"><title>Node2&#45;&gt;Node36</title>
<path fill="none" stroke="midnightblue" d="M313.534,-331.269C316.498,-329.699 319.342,-327.949 322,-326 346.162,-308.281 334.464,-287.543 358,-269 366.306,-262.456 376.994,-258.102 386.802,-255.235"/>
<polygon fill="midnightblue" stroke="midnightblue" points="311.984,-328.129 304.338,-335.462 314.889,-334.498 311.984,-328.129"/>
</g>
<!-- Node40 -->
<g id="node40" class="node"><title>Node40</title>
<g id="a_node40"><a xlink:href="../../de/d0b/sql__config_8c.html#a324f0575ef7f11779751184513a33859" target="_top" xlink:title="add_esp_proposals">
<polygon fill="none" stroke="black" points="364.5,-202.5 364.5,-221.5 465.5,-221.5 465.5,-202.5 364.5,-202.5"/>
<text text-anchor="middle" x="415" y="-209.5" font-family="Helvetica,sans-Serif" font-size="10.00">add_esp_proposals</text>
</a>
</g>
</g>
<!-- Node2&#45;&gt;Node40 -->
<g id="edge42" class="edge"><title>Node2&#45;&gt;Node40</title>
<path fill="none" stroke="midnightblue" d="M316.409,-330.369C318.372,-329.035 320.244,-327.582 322,-326 355.547,-295.779 325.517,-262.362 358,-231 361.988,-227.149 366.786,-224.078 371.874,-221.628"/>
<polygon fill="midnightblue" stroke="midnightblue" points="314.301,-327.539 307.299,-335.49 317.731,-333.64 314.301,-327.539"/>
</g>
<!-- Node42 -->
<g id="node42" class="node"><title>Node42</title>
<g id="a_node42"><a xlink:href="../../de/d0b/sql__config_8c.html#a63b03899753d89a7f8378145298f26f1" target="_top" xlink:title="add_ike_proposals">
<polygon fill="none" stroke="black" points="366,-164.5 366,-183.5 464,-183.5 464,-164.5 366,-164.5"/>
<text text-anchor="middle" x="415" y="-171.5" font-family="Helvetica,sans-Serif" font-size="10.00">add_ike_proposals</text>
</a>
</g>
</g>
<!-- Node2&#45;&gt;Node42 -->
<g id="edge44" class="edge"><title>Node2&#45;&gt;Node42</title>
<path fill="none" stroke="midnightblue" d="M317.4,-329.999C319.017,-328.766 320.556,-327.435 322,-326 365.439,-282.835 316.078,-237.639 358,-193 361.655,-189.108 366.135,-186.014 370.955,-183.553"/>
<polygon fill="midnightblue" stroke="midnightblue" points="315.384,-327.131 308.748,-335.39 319.086,-333.072 315.384,-327.131"/>
</g>
<!-- Node44 -->
<g id="node44" class="node"><title>Node44</title>
<g id="a_node44"><a xlink:href="../../d5/dd9/stroke__config_8c.html#ad1a345649014414bd0a03a344fdf6a3f" target="_top" xlink:title="add_proposals">
<polygon fill="none" stroke="black" points="375,-88.5 375,-107.5 455,-107.5 455,-88.5 375,-88.5"/>
<text text-anchor="middle" x="415" y="-95.5" font-family="Helvetica,sans-Serif" font-size="10.00">add_proposals</text>
</a>
</g>
</g>
<!-- Node2&#45;&gt;Node44 -->
<g id="edge46" class="edge"><title>Node2&#45;&gt;Node44</title>
<path fill="none" stroke="midnightblue" d="M317.582,-330.174C319.146,-328.89 320.625,-327.501 322,-326 385.673,-256.501 296.765,-188.656 358,-117 362.469,-111.771 368.434,-107.977 374.807,-105.226"/>
<polygon fill="midnightblue" stroke="midnightblue" points="315.544,-327.325 309.133,-335.759 319.405,-333.164 315.544,-327.325"/>
</g>
<!-- Node47 -->
<g id="node47" class="node"><title>Node47</title>
<g id="a_node47"><a xlink:href="../../da/de3/vici__config_8c.html#a9ef8a43699677a6314adc698c71e804e" target="_top" xlink:title="parse_proposal">
<polygon fill="none" stroke="black" points="373.5,-50.5 373.5,-69.5 456.5,-69.5 456.5,-50.5 373.5,-50.5"/>
<text text-anchor="middle" x="415" y="-57.5" font-family="Helvetica,sans-Serif" font-size="10.00">parse_proposal</text>
</a>
</g>
</g>
<!-- Node2&#45;&gt;Node47 -->
<g id="edge49" class="edge"><title>Node2&#45;&gt;Node47</title>
<path fill="none" stroke="midnightblue" d="M317.633,-330.22C319.182,-328.923 320.644,-327.519 322,-326 395.878,-243.24 287.024,-164.262 358,-79 362.072,-74.1079 367.457,-70.471 373.279,-67.7682"/>
<polygon fill="midnightblue" stroke="midnightblue" points="315.591,-327.376 309.242,-335.858 319.494,-333.187 315.591,-327.376"/>
</g>
<!-- Node49 -->
<g id="node49" class="node"><title>Node49</title>
<g id="a_node49"><a xlink:href="../../da/de3/vici__config_8c.html#a15852117bb8b7e4a7ceba8fd84285a7f" target="_top" xlink:title="CALLBACK">
<polygon fill="none" stroke="black" points="380.5,-392.5 380.5,-411.5 449.5,-411.5 449.5,-392.5 380.5,-392.5"/>
<text text-anchor="middle" x="415" y="-399.5" font-family="Helvetica,sans-Serif" font-size="10.00">CALLBACK</text>
</a>
</g>
</g>
<!-- Node2&#45;&gt;Node49 -->
<g id="edge51" class="edge"><title>Node2&#45;&gt;Node49</title>
<path fill="none" stroke="midnightblue" d="M286.506,-357.959C307.416,-365.353 334.159,-374.762 358,-383 367.024,-386.118 376.882,-389.479 385.777,-392.493"/>
<polygon fill="midnightblue" stroke="midnightblue" points="287.64,-354.648 277.045,-354.61 285.304,-361.247 287.64,-354.648"/>
</g>
<!-- Node4 -->
<g id="node4" class="node"><title>Node4</title>
<g id="a_node4"><a xlink:href="../../d7/d9c/cmd__connection_8c.html#a1ef10a08acb2689e03be939316fb0a76" target="_top" xlink:title="initiate">
<polygon fill="none" stroke="black" points="543.5,-677.5 543.5,-696.5 588.5,-696.5 588.5,-677.5 543.5,-677.5"/>
<text text-anchor="middle" x="566" y="-684.5" font-family="Helvetica,sans-Serif" font-size="10.00">initiate</text>
</a>
</g>
</g>
<!-- Node3&#45;&gt;Node4 -->
<g id="edge3" class="edge"><title>Node3&#45;&gt;Node4</title>
<path fill="none" stroke="midnightblue" d="M439.556,-607.019C470.467,-626.727 523.833,-660.752 549.853,-677.343"/>
<polygon fill="midnightblue" stroke="midnightblue" points="441.42,-604.057 431.107,-601.632 437.657,-609.959 441.42,-604.057"/>
</g>
<!-- Node5 -->
<g id="node5" class="node"><title>Node5</title>
<g id="a_node5"><a xlink:href="../../dd/d65/task__manager__v1_8c.html#a4e51f0d370b0cb7eb17fdddf8ea4e8ce" target="_top" xlink:title="build_response">
<polygon fill="none" stroke="black" points="688,-582.5 688,-601.5 770,-601.5 770,-582.5 688,-582.5"/>
<text text-anchor="middle" x="729" y="-589.5" font-family="Helvetica,sans-Serif" font-size="10.00">build_response</text>
</a>
</g>
</g>
<!-- Node4&#45;&gt;Node5 -->
<g id="edge4" class="edge"><title>Node4&#45;&gt;Node5</title>
<path fill="none" stroke="midnightblue" d="M583.229,-670.132C600.682,-652.916 629.989,-626.578 660,-611 668.595,-606.539 678.36,-603.021 687.756,-600.29"/>
<polygon fill="midnightblue" stroke="midnightblue" points="580.646,-667.765 576.084,-677.328 585.614,-672.697 580.646,-667.765"/>
</g>
<!-- Node6 -->
<g id="node6" class="node"><title>Node6</title>
<g id="a_node6"><a xlink:href="../../dd/d65/task__manager__v1_8c.html#a59c7285b6e10f3a3ac399f08a50bc59d" target="_top" xlink:title="process_request">
<polygon fill="none" stroke="red" points="834.5,-563.5 834.5,-582.5 923.5,-582.5 923.5,-563.5 834.5,-563.5"/>
<text text-anchor="middle" x="879" y="-570.5" font-family="Helvetica,sans-Serif" font-size="10.00">process_request</text>
</a>
</g>
</g>
<!-- Node4&#45;&gt;Node6 -->
<g id="edge12" class="edge"><title>Node4&#45;&gt;Node6</title>
<path fill="none" stroke="midnightblue" d="M575.741,-668.039C589.361,-641.07 618.466,-592.718 660,-573 717.781,-545.568 794.279,-554.355 839.6,-563.495"/>
<polygon fill="midnightblue" stroke="midnightblue" points="572.501,-666.699 571.285,-677.224 578.799,-669.754 572.501,-666.699"/>
</g>
<!-- Node7 -->
<g id="node7" class="node"><title>Node7</title>
<g id="a_node7"><a xlink:href="../../d6/d76/group__cmd__connection.html#gac1bbf39b98183c6bab6a662794a6af8b" target="_top" xlink:title="cmd_connection_create">
<polygon fill="none" stroke="red" points="669,-506.5 669,-525.5 789,-525.5 789,-506.5 669,-506.5"/>
<text text-anchor="middle" x="729" y="-513.5" font-family="Helvetica,sans-Serif" font-size="10.00">cmd_connection_create</text>
</a>
</g>
</g>
<!-- Node4&#45;&gt;Node7 -->
<g id="edge6" class="edge"><title>Node4&#45;&gt;Node7</title>
<path fill="none" stroke="midnightblue" d="M574.21,-667.88C586.893,-636.733 616.083,-575.009 660,-540 667.832,-533.757 677.409,-529.072 686.876,-525.581"/>
<polygon fill="midnightblue" stroke="midnightblue" points="570.952,-666.601 570.545,-677.188 577.466,-669.166 570.952,-666.601"/>
</g>
<!-- Node8 -->
<g id="node8" class="node"><title>Node8</title>
<g id="a_node8"><a xlink:href="../../d9/d93/stroke_8c.html#a40ff5da1155ecc33ffa39f92748f0c7f" target="_top" xlink:title="del_connection">
<polygon fill="none" stroke="red" points="688,-924.5 688,-943.5 770,-943.5 770,-924.5 688,-924.5"/>
<text text-anchor="middle" x="729" y="-931.5" font-family="Helvetica,sans-Serif" font-size="10.00">del_connection</text>
</a>
</g>
</g>
<!-- Node4&#45;&gt;Node8 -->
<g id="edge7" class="edge"><title>Node4&#45;&gt;Node8</title>
<path fill="none" stroke="midnightblue" d="M569.275,-707.041C575.392,-751.355 596.294,-858.219 660,-915 667.778,-921.932 677.888,-926.356 687.923,-929.172"/>
<polygon fill="midnightblue" stroke="midnightblue" points="572.728,-706.444 567.996,-696.965 565.784,-707.326 572.728,-706.444"/>
</g>
<!-- Node9 -->
<g id="node9" class="node"><title>Node9</title>
<g id="a_node9"><a xlink:href="../../d9/d93/stroke_8c.html#a6412e347c9d654d7884d838e223cc1fd" target="_top" xlink:title="initiate_connection">
<polygon fill="none" stroke="red" points="680,-886.5 680,-905.5 778,-905.5 778,-886.5 680,-886.5"/>
<text text-anchor="middle" x="729" y="-893.5" font-family="Helvetica,sans-Serif" font-size="10.00">initiate_connection</text>
</a>
</g>
</g>
<!-- Node4&#45;&gt;Node9 -->
<g id="edge8" class="edge"><title>Node4&#45;&gt;Node9</title>
<path fill="none" stroke="midnightblue" d="M570.979,-706.554C579.864,-745.129 605.016,-831.245 660,-877 665.748,-881.783 672.617,-885.365 679.747,-888.047"/>
<polygon fill="midnightblue" stroke="midnightblue" points="574.36,-705.63 568.81,-696.605 567.52,-707.121 574.36,-705.63"/>
</g>
<!-- Node10 -->
<g id="node10" class="node"><title>Node10</title>
<g id="a_node10"><a xlink:href="../../d8/dcf/vici__control_8c.html#a109fbee55e088f62e93835de06173387" target="_top" xlink:title="manage_commands">
<polygon fill="none" stroke="red" points="677,-848.5 677,-867.5 781,-867.5 781,-848.5 677,-848.5"/>
<text text-anchor="middle" x="729" y="-855.5" font-family="Helvetica,sans-Serif" font-size="10.00">manage_commands</text>
</a>
</g>
</g>
<!-- Node4&#45;&gt;Node10 -->
<g id="edge9" class="edge"><title>Node4&#45;&gt;Node10</title>
<path fill="none" stroke="midnightblue" d="M573.42,-706.172C585.261,-738.556 613.653,-803.979 660,-839 665.183,-842.917 671.135,-846.026 677.315,-848.494"/>
<polygon fill="midnightblue" stroke="midnightblue" points="576.655,-704.821 570.037,-696.547 570.051,-707.142 576.655,-704.821"/>
</g>
<!-- Node11 -->
<g id="node11" class="node"><title>Node11</title>
<g id="a_node11"><a xlink:href="../../dc/dcd/eap__dynamic_8c.html#aef7bb76dc65720e71fe985b96a55e686" target="_top" xlink:title="METHOD">
<polygon fill="none" stroke="black" points="699,-810.5 699,-829.5 759,-829.5 759,-810.5 699,-810.5"/>
<text text-anchor="middle" x="729" y="-817.5" font-family="Helvetica,sans-Serif" font-size="10.00">METHOD</text>
</a>
</g>
</g>
<!-- Node4&#45;&gt;Node11 -->
<g id="edge10" class="edge"><title>Node4&#45;&gt;Node11</title>
<path fill="none" stroke="midnightblue" d="M577.184,-705.604C592.044,-730.997 622.076,-776.181 660,-801 671.59,-808.585 686.197,-813.176 698.9,-815.938"/>
<polygon fill="midnightblue" stroke="midnightblue" points="580.069,-703.597 572.085,-696.632 573.983,-707.056 580.069,-703.597"/>
</g>
<!-- Node12 -->
<g id="node12" class="node"><title>Node12</title>
<g id="a_node12"><a xlink:href="../../df/d1c/eap__sim__server_8c.html#a5c715475e36cb706efd0ea0e788bcae6" target="_top" xlink:title="process_reauthentication">
<polygon fill="none" stroke="red" points="666.5,-772.5 666.5,-791.5 791.5,-791.5 791.5,-772.5 666.5,-772.5"/>
<text text-anchor="middle" x="729" y="-779.5" font-family="Helvetica,sans-Serif" font-size="10.00">process_reauthentication</text>
</a>
</g>
</g>
<!-- Node4&#45;&gt;Node12 -->
<g id="edge11" class="edge"><title>Node4&#45;&gt;Node12</title>
<path fill="none" stroke="midnightblue" d="M583.229,-703.868C600.682,-721.084 629.989,-747.422 660,-763 667.289,-766.784 675.421,-769.888 683.454,-772.41"/>
<polygon fill="midnightblue" stroke="midnightblue" points="585.614,-701.303 576.084,-696.672 580.646,-706.235 585.614,-701.303"/>
</g>
<!-- Node13 -->
<g id="node13" class="node"><title>Node13</title>
<g id="a_node13"><a xlink:href="../../dd/d65/task__manager__v1_8c.html#aeb437722d385f437cd878a8697a39585" target="_top" xlink:title="process_response">
<polygon fill="none" stroke="red" points="681,-734.5 681,-753.5 777,-753.5 777,-734.5 681,-734.5"/>
<text text-anchor="middle" x="729" y="-741.5" font-family="Helvetica,sans-Serif" font-size="10.00">process_response</text>
</a>
</g>
</g>
<!-- Node4&#45;&gt;Node13 -->
<g id="edge13" class="edge"><title>Node4&#45;&gt;Node13</title>
<path fill="none" stroke="midnightblue" d="M597.911,-700.678C615.846,-708.35 638.979,-717.795 660,-725 669.856,-728.378 680.664,-731.607 690.705,-734.415"/>
<polygon fill="midnightblue" stroke="midnightblue" points="599.096,-697.378 588.528,-696.625 596.32,-703.804 599.096,-697.378"/>
</g>
<!-- Node14 -->
<g id="node14" class="node"><title>Node14</title>
<g id="a_node14"><a xlink:href="../../df/d1c/eap__sim__server_8c.html#adc5c864cb1363dd78375fc1078af7c62" target="_top" xlink:title="process_start">
<polygon fill="none" stroke="red" points="691,-696.5 691,-715.5 767,-715.5 767,-696.5 691,-696.5"/>
<text text-anchor="middle" x="729" y="-703.5" font-family="Helvetica,sans-Serif" font-size="10.00">process_start</text>
</a>
</g>
</g>
<!-- Node4&#45;&gt;Node14 -->
<g id="edge14" class="edge"><title>Node4&#45;&gt;Node14</title>
<path fill="none" stroke="midnightblue" d="M598.971,-690.773C625.462,-693.899 663.14,-698.346 690.945,-701.627"/>
<polygon fill="midnightblue" stroke="midnightblue" points="599.054,-687.259 588.713,-689.562 598.234,-694.21 599.054,-687.259"/>
</g>
<!-- Node15 -->
<g id="node15" class="node"><title>Node15</title>
<g id="a_node15"><a xlink:href="../../d1/da3/starterstroke_8h.html#a16de976bff82898fcba0133cea7cc861" target="_top" xlink:title="starter_stroke_initiate_conn">
<polygon fill="none" stroke="red" points="660.5,-658.5 660.5,-677.5 797.5,-677.5 797.5,-658.5 660.5,-658.5"/>
<text text-anchor="middle" x="729" y="-665.5" font-family="Helvetica,sans-Serif" font-size="10.00">starter_stroke_initiate_conn</text>
</a>
</g>
</g>
<!-- Node4&#45;&gt;Node15 -->
<g id="edge15" class="edge"><title>Node4&#45;&gt;Node15</title>
<path fill="none" stroke="midnightblue" d="M598.976,-683.226C616.573,-681.15 639.103,-678.491 660.398,-675.978"/>
<polygon fill="midnightblue" stroke="midnightblue" points="598.234,-679.79 588.713,-684.438 599.054,-686.741 598.234,-679.79"/>
</g>
<!-- Node16 -->
<g id="node16" class="node"><title>Node16</title>
<g id="a_node16"><a xlink:href="../../d9/d93/stroke_8c.html#a969015c6087ea300e957ec205c4bc815" target="_top" xlink:title="terminate_connection">
<polygon fill="none" stroke="red" points="674,-620.5 674,-639.5 784,-639.5 784,-620.5 674,-620.5"/>
<text text-anchor="middle" x="729" y="-627.5" font-family="Helvetica,sans-Serif" font-size="10.00">terminate_connection</text>
</a>
</g>
</g>
<!-- Node4&#45;&gt;Node16 -->
<g id="edge16" class="edge"><title>Node4&#45;&gt;Node16</title>
<path fill="none" stroke="midnightblue" d="M597.911,-673.322C615.846,-665.65 638.979,-656.205 660,-649 669.856,-645.622 680.664,-642.393 690.705,-639.585"/>
<polygon fill="midnightblue" stroke="midnightblue" points="596.32,-670.196 588.528,-677.375 599.096,-676.622 596.32,-670.196"/>
</g>
<!-- Node5&#45;&gt;Node6 -->
<g id="edge5" class="edge"><title>Node5&#45;&gt;Node6</title>
<path fill="none" stroke="midnightblue" d="M780.128,-585.565C797.696,-583.309 817.275,-580.796 834.277,-578.613"/>
<polygon fill="midnightblue" stroke="midnightblue" points="779.524,-582.113 770.051,-586.858 780.415,-589.056 779.524,-582.113"/>
</g>
<!-- Node17&#45;&gt;Node4 -->
<g id="edge18" class="edge"><title>Node17&#45;&gt;Node4</title>
<path fill="none" stroke="midnightblue" d="M463.254,-567.808C466.311,-569.372 469.259,-571.097 472,-573 513.964,-602.13 547.122,-655.325 559.621,-677.203"/>
<polygon fill="midnightblue" stroke="midnightblue" points="464.405,-564.489 453.848,-563.592 461.542,-570.876 464.405,-564.489"/>
</g>
<!-- Node19 -->
<g id="node19" class="node"><title>Node19</title>
<g id="a_node19"><a xlink:href="../../d3/d95/config_8c.html#a209dd231bf733f9f8fd289c94214ff08" target="_top" xlink:title="load_peer_config">
<polygon fill="none" stroke="black" points="521,-468.5 521,-487.5 611,-487.5 611,-468.5 521,-468.5"/>
<text text-anchor="middle" x="566" y="-475.5" font-family="Helvetica,sans-Serif" font-size="10.00">load_peer_config</text>
</a>
</g>
</g>
<!-- Node18&#45;&gt;Node19 -->
<g id="edge20" class="edge"><title>Node18&#45;&gt;Node19</title>
<path fill="none" stroke="midnightblue" d="M463.492,-503.888C484.244,-498.596 508.228,-492.479 527.671,-487.52"/>
<polygon fill="midnightblue" stroke="midnightblue" points="462.424,-500.548 453.599,-506.411 464.154,-507.331 462.424,-500.548"/>
</g>
<!-- Node20 -->
<g id="node20" class="node"><title>Node20</title>
<g id="a_node20"><a xlink:href="../../d3/d95/config_8c.html#a492679e9382000ca562915367ac8c779" target="_top" xlink:title="METHOD">
<polygon fill="none" stroke="black" points="699,-468.5 699,-487.5 759,-487.5 759,-468.5 699,-468.5"/>
<text text-anchor="middle" x="729" y="-475.5" font-family="Helvetica,sans-Serif" font-size="10.00">METHOD</text>
</a>
</g>
</g>
<!-- Node19&#45;&gt;Node20 -->
<g id="edge21" class="edge"><title>Node19&#45;&gt;Node20</title>
<path fill="none" stroke="midnightblue" d="M621.508,-478C647.45,-478 677.426,-478 698.952,-478"/>
<polygon fill="midnightblue" stroke="midnightblue" points="621.42,-474.5 611.42,-478 621.42,-481.5 621.42,-474.5"/>
</g>
<!-- Node21&#45;&gt;Node19 -->
<g id="edge23" class="edge"><title>Node21&#45;&gt;Node19</title>
<path fill="none" stroke="midnightblue" d="M471.57,-478C487.824,-478 505.366,-478 520.813,-478"/>
<polygon fill="midnightblue" stroke="midnightblue" points="471.109,-474.5 461.109,-478 471.109,-481.5 471.109,-474.5"/>
</g>
<!-- Node23 -->
<g id="node23" class="node"><title>Node23</title>
<g id="a_node23"><a xlink:href="../../d9/d9f/group__ha__.html#ga3cf24f88395df3f2c6a84eec9f35ce04" target="_top" xlink:title="ha_tunnel_create">
<polygon fill="none" stroke="black" points="520.5,-430.5 520.5,-449.5 611.5,-449.5 611.5,-430.5 520.5,-430.5"/>
<text text-anchor="middle" x="566" y="-437.5" font-family="Helvetica,sans-Serif" font-size="10.00">ha_tunnel_create</text>
</a>
</g>
</g>
<!-- Node22&#45;&gt;Node23 -->
<g id="edge25" class="edge"><title>Node22&#45;&gt;Node23</title>
<path fill="none" stroke="midnightblue" d="M461.366,-440C480.072,-440 501.687,-440 520.32,-440"/>
<polygon fill="midnightblue" stroke="midnightblue" points="461.311,-436.5 451.311,-440 461.311,-443.5 461.311,-436.5"/>
</g>
<!-- Node24 -->
<g id="node24" class="node"><title>Node24</title>
<g id="a_node24"><a xlink:href="../../d2/dbc/ha__plugin_8c.html#ac3b62ac20197d1c242926fae531a3bfa" target="_top" xlink:title="initialize_plugin">
<polygon fill="none" stroke="red" points="687.5,-430.5 687.5,-449.5 770.5,-449.5 770.5,-430.5 687.5,-430.5"/>
<text text-anchor="middle" x="729" y="-437.5" font-family="Helvetica,sans-Serif" font-size="10.00">initialize_plugin</text>
</a>
</g>
</g>
<!-- Node23&#45;&gt;Node24 -->
<g id="edge26" class="edge"><title>Node23&#45;&gt;Node24</title>
<path fill="none" stroke="midnightblue" d="M622.092,-440C643.458,-440 667.485,-440 687.246,-440"/>
<polygon fill="midnightblue" stroke="midnightblue" points="621.848,-436.5 611.847,-440 621.847,-443.5 621.848,-436.5"/>
</g>
<!-- Node26 -->
<g id="node26" class="node"><title>Node26</title>
<g id="a_node26"><a xlink:href="../../d7/d79/maemo__service_8c.html#a82aca93fce2dd44e6e05704c2ab6b179" target="_top" xlink:title="dbus_req_handler">
<polygon fill="none" stroke="black" points="519.5,-354.5 519.5,-373.5 612.5,-373.5 612.5,-354.5 519.5,-354.5"/>
<text text-anchor="middle" x="566" y="-361.5" font-family="Helvetica,sans-Serif" font-size="10.00">dbus_req_handler</text>
</a>
</g>
</g>
<!-- Node25&#45;&gt;Node26 -->
<g id="edge28" class="edge"><title>Node25&#45;&gt;Node26</title>
<path fill="none" stroke="midnightblue" d="M474.524,-364C489.433,-364 505.239,-364 519.397,-364"/>
<polygon fill="midnightblue" stroke="midnightblue" points="474.376,-360.5 464.376,-364 474.376,-367.5 474.376,-360.5"/>
</g>
<!-- Node27 -->
<g id="node27" class="node"><title>Node27</title>
<g id="a_node27"><a xlink:href="../../de/db6/group__maemo__service.html#ga5cb3c1b04ae398aede987915e69315f3" target="_top" xlink:title="maemo_service_create">
<polygon fill="none" stroke="red" points="670,-354.5 670,-373.5 788,-373.5 788,-354.5 670,-354.5"/>
<text text-anchor="middle" x="729" y="-361.5" font-family="Helvetica,sans-Serif" font-size="10.00">maemo_service_create</text>
</a>
</g>
</g>
<!-- Node26&#45;&gt;Node27 -->
<g id="edge29" class="edge"><title>Node26&#45;&gt;Node27</title>
<path fill="none" stroke="midnightblue" d="M622.958,-364C638.108,-364 654.539,-364 669.808,-364"/>
<polygon fill="midnightblue" stroke="midnightblue" points="622.706,-360.5 612.705,-364 622.705,-367.5 622.706,-360.5"/>
</g>
<!-- Node28 -->
<g id="node28" class="node"><title>Node28</title>
<g id="a_node28"><a xlink:href="../../d7/d79/maemo__service_8c.html#aa711fcbe2bdffc19d1eb8cef55427c1b" target="_top" xlink:title="METHOD">
<polygon fill="none" stroke="black" points="699,-392.5 699,-411.5 759,-411.5 759,-392.5 699,-392.5"/>
<text text-anchor="middle" x="729" y="-399.5" font-family="Helvetica,sans-Serif" font-size="10.00">METHOD</text>
</a>
</g>
</g>
<!-- Node26&#45;&gt;Node28 -->
<g id="edge30" class="edge"><title>Node26&#45;&gt;Node28</title>
<path fill="none" stroke="midnightblue" d="M617.56,-375.934C644.208,-382.223 675.96,-389.717 698.564,-395.052"/>
<polygon fill="midnightblue" stroke="midnightblue" points="618.164,-372.48 607.627,-373.589 616.556,-379.293 618.164,-372.48"/>
</g>
<!-- Node31 -->
<g id="node31" class="node"><title>Node31</title>
<g id="a_node31"><a xlink:href="../../db/dfd/medcli__plugin_8c.html#ac5d465b90a4204e9784c677b9ae7d780" target="_top" xlink:title="open_database">
<polygon fill="none" stroke="black" points="524.5,-316.5 524.5,-335.5 607.5,-335.5 607.5,-316.5 524.5,-316.5"/>
<text text-anchor="middle" x="566" y="-323.5" font-family="Helvetica,sans-Serif" font-size="10.00">open_database</text>
</a>
</g>
</g>
<!-- Node30&#45;&gt;Node31 -->
<g id="edge33" class="edge"><title>Node30&#45;&gt;Node31</title>
<path fill="none" stroke="midnightblue" d="M480.074,-326C495.104,-326 510.711,-326 524.384,-326"/>
<polygon fill="midnightblue" stroke="midnightblue" points="479.792,-322.5 469.792,-326 479.792,-329.5 479.792,-322.5"/>
</g>
<!-- Node32 -->
<g id="node32" class="node"><title>Node32</title>
<g id="a_node32"><a xlink:href="../../db/dfd/medcli__plugin_8c.html#a1f2f8f645c86fd806458a9bd8a063e7d" target="_top" xlink:title="METHOD">
<polygon fill="none" stroke="black" points="699,-316.5 699,-335.5 759,-335.5 759,-316.5 699,-316.5"/>
<text text-anchor="middle" x="729" y="-323.5" font-family="Helvetica,sans-Serif" font-size="10.00">METHOD</text>
</a>
</g>
</g>
<!-- Node31&#45;&gt;Node32 -->
<g id="edge34" class="edge"><title>Node31&#45;&gt;Node32</title>
<path fill="none" stroke="midnightblue" d="M617.913,-326C644.488,-326 676.06,-326 698.564,-326"/>
<polygon fill="midnightblue" stroke="midnightblue" points="617.627,-322.5 607.627,-326 617.627,-329.5 617.627,-322.5"/>
</g>
<!-- Node34 -->
<g id="node34" class="node"><title>Node34</title>
<g id="a_node34"><a xlink:href="../../d1/d54/medsrv__plugin_8c.html#a0b657f3932384c3fd7fb96652e25a6f3" target="_top" xlink:title="open_database">
<polygon fill="none" stroke="black" points="524.5,-278.5 524.5,-297.5 607.5,-297.5 607.5,-278.5 524.5,-278.5"/>
<text text-anchor="middle" x="566" y="-285.5" font-family="Helvetica,sans-Serif" font-size="10.00">open_database</text>
</a>
</g>
</g>
<!-- Node33&#45;&gt;Node34 -->
<g id="edge36" class="edge"><title>Node33&#45;&gt;Node34</title>
<path fill="none" stroke="midnightblue" d="M482.201,-288C496.48,-288 511.172,-288 524.142,-288"/>
<polygon fill="midnightblue" stroke="midnightblue" points="481.906,-284.5 471.906,-288 481.906,-291.5 481.906,-284.5"/>
</g>
<!-- Node35 -->
<g id="node35" class="node"><title>Node35</title>
<g id="a_node35"><a xlink:href="../../d1/d54/medsrv__plugin_8c.html#a955cbcbe076c4700b26b21e003e102a5" target="_top" xlink:title="METHOD">
<polygon fill="none" stroke="black" points="699,-278.5 699,-297.5 759,-297.5 759,-278.5 699,-278.5"/>
<text text-anchor="middle" x="729" y="-285.5" font-family="Helvetica,sans-Serif" font-size="10.00">METHOD</text>
</a>
</g>
</g>
<!-- Node34&#45;&gt;Node35 -->
<g id="edge37" class="edge"><title>Node34&#45;&gt;Node35</title>
<path fill="none" stroke="midnightblue" d="M617.913,-288C644.488,-288 676.06,-288 698.564,-288"/>
<polygon fill="midnightblue" stroke="midnightblue" points="617.627,-284.5 607.627,-288 617.627,-291.5 617.627,-284.5"/>
</g>
<!-- Node37 -->
<g id="node37" class="node"><title>Node37</title>
<g id="a_node37"><a xlink:href="../../d0/d53/nm__service_8c.html#ac2ec8a8e03309ad7aa5a4f053bad05a3" target="_top" xlink:title="nm_strongswan_plugin\l_class_init">
<polygon fill="none" stroke="black" points="508,-191 508,-221 624,-221 624,-191 508,-191"/>
<text text-anchor="start" x="516" y="-209" font-family="Helvetica,sans-Serif" font-size="10.00">nm_strongswan_plugin</text>
<text text-anchor="middle" x="566" y="-198" font-family="Helvetica,sans-Serif" font-size="10.00">_class_init</text>
</a>
</g>
</g>
<!-- Node36&#45;&gt;Node37 -->
<g id="edge39" class="edge"><title>Node36&#45;&gt;Node37</title>
<path fill="none" stroke="midnightblue" d="M453.091,-239.047C471.502,-233.61 494.028,-226.958 514.032,-221.051"/>
<polygon fill="midnightblue" stroke="midnightblue" points="451.928,-235.741 443.329,-241.93 453.911,-242.454 451.928,-235.741"/>
</g>
<!-- Node38 -->
<g id="node38" class="node"><title>Node38</title>
<g id="a_node38"><a xlink:href="../../da/d80/group__vici__dispatcher.html#ga6a79fafdbb49a69b40e48449ff7252c4" target="_top" xlink:title="vici_dispatcher_create">
<polygon fill="none" stroke="red" points="509,-240.5 509,-259.5 623,-259.5 623,-240.5 509,-240.5"/>
<text text-anchor="middle" x="566" y="-247.5" font-family="Helvetica,sans-Serif" font-size="10.00">vici_dispatcher_create</text>
</a>
</g>
</g>
<!-- Node36&#45;&gt;Node38 -->
<g id="edge40" class="edge"><title>Node36&#45;&gt;Node38</title>
<path fill="none" stroke="midnightblue" d="M453.777,-250C470.472,-250 490.448,-250 508.835,-250"/>
<polygon fill="midnightblue" stroke="midnightblue" points="453.329,-246.5 443.329,-250 453.329,-253.5 453.329,-246.5"/>
</g>
<!-- Node39 -->
<g id="node39" class="node"><title>Node39</title>
<g id="a_node39"><a xlink:href="../../d6/dca/test__event_8c.html#afe8c30a13467d05abe5f4f9f0961b716" target="_top" xlink:title="START_TEST">
<polygon fill="none" stroke="black" points="689,-240.5 689,-259.5 769,-259.5 769,-240.5 689,-240.5"/>
<text text-anchor="middle" x="729" y="-247.5" font-family="Helvetica,sans-Serif" font-size="10.00">START_TEST</text>
</a>
</g>
</g>
<!-- Node38&#45;&gt;Node39 -->
<g id="edge41" class="edge"><title>Node38&#45;&gt;Node39</title>
<path fill="none" stroke="midnightblue" d="M633.327,-250C652.142,-250 672.025,-250 688.686,-250"/>
<polygon fill="midnightblue" stroke="midnightblue" points="633.31,-246.5 623.31,-250 633.31,-253.5 633.31,-246.5"/>
</g>
<!-- Node41 -->
<g id="node41" class="node"><title>Node41</title>
<g id="a_node41"><a xlink:href="../../de/d0b/sql__config_8c.html#ac04cb6ea6723a8c03504ff59337658e8" target="_top" xlink:title="build_child_cfg">
<polygon fill="none" stroke="red" points="525.5,-152.5 525.5,-171.5 606.5,-171.5 606.5,-152.5 525.5,-152.5"/>
<text text-anchor="middle" x="566" y="-159.5" font-family="Helvetica,sans-Serif" font-size="10.00">build_child_cfg</text>
</a>
</g>
</g>
<!-- Node40&#45;&gt;Node41 -->
<g id="edge43" class="edge"><title>Node40&#45;&gt;Node41</title>
<path fill="none" stroke="midnightblue" d="M454.051,-199.147C470.62,-193.559 490.266,-186.943 508,-181 517.198,-177.917 527.236,-174.567 536.289,-171.55"/>
<polygon fill="midnightblue" stroke="midnightblue" points="452.534,-195.966 444.178,-202.479 454.772,-202.598 452.534,-195.966"/>
</g>
<!-- Node43 -->
<g id="node43" class="node"><title>Node43</title>
<g id="a_node43"><a xlink:href="../../de/d0b/sql__config_8c.html#a77517c58b31db4215d2de4463a4c3c12" target="_top" xlink:title="build_ike_cfg">
<polygon fill="none" stroke="red" points="529,-114.5 529,-133.5 603,-133.5 603,-114.5 529,-114.5"/>
<text text-anchor="middle" x="566" y="-121.5" font-family="Helvetica,sans-Serif" font-size="10.00">build_ike_cfg</text>
</a>
</g>
</g>
<!-- Node42&#45;&gt;Node43 -->
<g id="edge45" class="edge"><title>Node42&#45;&gt;Node43</title>
<path fill="none" stroke="midnightblue" d="M454.051,-161.147C470.62,-155.559 490.266,-148.943 508,-143 517.198,-139.917 527.236,-136.567 536.289,-133.55"/>
<polygon fill="midnightblue" stroke="midnightblue" points="452.534,-157.966 444.178,-164.479 454.772,-164.598 452.534,-157.966"/>
</g>
<!-- Node45 -->
<g id="node45" class="node"><title>Node45</title>
<g id="a_node45"><a xlink:href="../../d5/dd9/stroke__config_8c.html#aef11238a05ecd23a0dec90d979db913a" target="_top" xlink:title="build_ike_cfg">
<polygon fill="none" stroke="red" points="529,-38.5 529,-57.5 603,-57.5 603,-38.5 529,-38.5"/>
<text text-anchor="middle" x="566" y="-45.5" font-family="Helvetica,sans-Serif" font-size="10.00">build_ike_cfg</text>
</a>
</g>
</g>
<!-- Node44&#45;&gt;Node45 -->
<g id="edge47" class="edge"><title>Node44&#45;&gt;Node45</title>
<path fill="none" stroke="midnightblue" d="M454.051,-85.1474C470.62,-79.559 490.266,-72.9434 508,-67 517.198,-63.9173 527.236,-60.5669 536.289,-57.5501"/>
<polygon fill="midnightblue" stroke="midnightblue" points="452.534,-81.9655 444.178,-88.4789 454.772,-88.5982 452.534,-81.9655"/>
</g>
<!-- Node46 -->
<g id="node46" class="node"><title>Node46</title>
<g id="a_node46"><a xlink:href="../../d5/dd9/stroke__config_8c.html#a7fd6378ca1f61b85f24d47e4929477f3" target="_top" xlink:title="build_child_cfg">
<polygon fill="none" stroke="red" points="525.5,-76.5 525.5,-95.5 606.5,-95.5 606.5,-76.5 525.5,-76.5"/>
<text text-anchor="middle" x="566" y="-83.5" font-family="Helvetica,sans-Serif" font-size="10.00">build_child_cfg</text>
</a>
</g>
</g>
<!-- Node44&#45;&gt;Node46 -->
<g id="edge48" class="edge"><title>Node44&#45;&gt;Node46</title>
<path fill="none" stroke="midnightblue" d="M465.363,-94.0244C484.844,-92.4555 506.923,-90.6774 525.337,-89.1944"/>
<polygon fill="midnightblue" stroke="midnightblue" points="464.835,-90.5556 455.148,-94.8471 465.397,-97.533 464.835,-90.5556"/>
</g>
<!-- Node48 -->
<g id="node48" class="node"><title>Node48</title>
<g id="a_node48"><a xlink:href="../../da/de3/vici__config_8c.html#a5bd093a5f3352ee103e3b02f6c14f773" target="_top" xlink:title="CALLBACK">
<polygon fill="none" stroke="black" points="531.5,-0.5 531.5,-19.5 600.5,-19.5 600.5,-0.5 531.5,-0.5"/>
<text text-anchor="middle" x="566" y="-7.5" font-family="Helvetica,sans-Serif" font-size="10.00">CALLBACK</text>
</a>
</g>
</g>
<!-- Node47&#45;&gt;Node48 -->
<g id="edge50" class="edge"><title>Node47&#45;&gt;Node48</title>
<path fill="none" stroke="midnightblue" d="M454.051,-47.1474C470.62,-41.559 490.266,-34.9434 508,-29 517.198,-25.9173 527.236,-22.5669 536.289,-19.5501"/>
<polygon fill="midnightblue" stroke="midnightblue" points="452.534,-43.9655 444.178,-50.4789 454.772,-50.5982 452.534,-43.9655"/>
</g>
<!-- Node50&#45;&gt;Node3 -->
<g id="edge53" class="edge"><title>Node50&#45;&gt;Node3</title>
<path fill="none" stroke="midnightblue" d="M318.219,-322.279C319.552,-323.435 320.816,-324.674 322,-326 395.878,-408.76 287.024,-487.738 358,-573 361.744,-577.498 366.597,-580.934 371.879,-583.559"/>
<polygon fill="midnightblue" stroke="midnightblue" points="320.131,-319.345 309.921,-316.514 316.137,-325.094 320.131,-319.345"/>
</g>
<!-- Node50&#45;&gt;Node17 -->
<g id="edge54" class="edge"><title>Node50&#45;&gt;Node17</title>
<path fill="none" stroke="midnightblue" d="M318.173,-322.32C319.52,-323.465 320.799,-324.689 322,-326 385.673,-395.499 296.765,-463.344 358,-535 361.535,-539.137 366.007,-542.375 370.875,-544.909"/>
<polygon fill="midnightblue" stroke="midnightblue" points="320.047,-319.361 309.815,-316.61 316.098,-325.141 320.047,-319.361"/>
</g>
<!-- Node50&#45;&gt;Node18 -->
<g id="edge55" class="edge"><title>Node50&#45;&gt;Node18</title>
<path fill="none" stroke="midnightblue" d="M318.006,-322.296C319.409,-323.447 320.745,-324.68 322,-326 375.514,-382.287 306.462,-438.898 358,-497 362.088,-501.608 367.335,-505.1 372.975,-507.746"/>
<polygon fill="midnightblue" stroke="midnightblue" points="319.597,-319.153 309.323,-316.566 315.741,-324.995 319.597,-319.153"/>
</g>
<!-- Node50&#45;&gt;Node21 -->
<g id="edge56" class="edge"><title>Node50&#45;&gt;Node21</title>
<path fill="none" stroke="midnightblue" d="M317.4,-322.001C319.017,-323.234 320.556,-324.565 322,-326 365.439,-369.165 316.078,-414.361 358,-459 361.655,-462.892 366.135,-465.986 370.955,-468.447"/>
<polygon fill="midnightblue" stroke="midnightblue" points="319.086,-318.928 308.748,-316.61 315.384,-324.869 319.086,-318.928"/>
</g>
<!-- Node50&#45;&gt;Node22 -->
<g id="edge57" class="edge"><title>Node50&#45;&gt;Node22</title>
<path fill="none" stroke="midnightblue" d="M316.409,-321.631C318.372,-322.965 320.244,-324.418 322,-326 355.547,-356.221 325.517,-389.638 358,-421 363.761,-426.562 371.21,-430.499 378.784,-433.284"/>
<polygon fill="midnightblue" stroke="midnightblue" points="317.731,-318.36 307.299,-316.51 314.301,-324.461 317.731,-318.36"/>
</g>
<!-- Node50&#45;&gt;Node25 -->
<g id="edge58" class="edge"><title>Node50&#45;&gt;Node25</title>
<path fill="none" stroke="midnightblue" d="M302.466,-319.345C309.116,-321.346 315.769,-323.57 322,-326 338.855,-332.573 341.382,-337.849 358,-345 365.922,-348.409 374.674,-351.626 382.859,-354.411"/>
<polygon fill="midnightblue" stroke="midnightblue" points="303.351,-315.958 292.774,-316.573 301.426,-322.688 303.351,-315.958"/>
</g>
<!-- Node50&#45;&gt;Node29 -->
<g id="edge59" class="edge"><title>Node50&#45;&gt;Node29</title>
<path fill="none" stroke="midnightblue" d="M258.557,-288.058C273.941,-256.069 309.269,-191.288 358,-155 365.905,-149.114 375.756,-144.97 384.982,-142.09"/>
<polygon fill="midnightblue" stroke="midnightblue" points="255.34,-286.673 254.271,-297.214 261.68,-289.641 255.34,-286.673"/>
</g>
<!-- Node50&#45;&gt;Node30 -->
<g id="edge60" class="edge"><title>Node50&#45;&gt;Node30</title>
<path fill="none" stroke="midnightblue" d="M332.573,-316.566C341.956,-317.653 351.329,-318.739 360.201,-319.767"/>
<polygon fill="midnightblue" stroke="midnightblue" points="332.747,-313.063 322.41,-315.389 331.941,-320.017 332.747,-313.063"/>
</g>
<!-- Node50&#45;&gt;Node33 -->
<g id="edge61" class="edge"><title>Node50&#45;&gt;Node33</title>
<path fill="none" stroke="midnightblue" d="M332.589,-297.432C341.276,-296.425 349.954,-295.42 358.234,-294.461"/>
<polygon fill="midnightblue" stroke="midnightblue" points="331.941,-293.983 322.41,-298.611 332.747,-300.937 331.941,-293.983"/>
</g>
<!-- Node50&#45;&gt;Node36 -->
<g id="edge62" class="edge"><title>Node50&#45;&gt;Node36</title>
<path fill="none" stroke="midnightblue" d="M286.506,-294.041C307.416,-286.647 334.159,-277.238 358,-269 367.412,-265.747 377.732,-262.232 386.92,-259.12"/>
<polygon fill="midnightblue" stroke="midnightblue" points="285.304,-290.753 277.045,-297.39 287.64,-297.352 285.304,-290.753"/>
</g>
<!-- Node50&#45;&gt;Node40 -->
<g id="edge63" class="edge"><title>Node50&#45;&gt;Node40</title>
<path fill="none" stroke="midnightblue" d="M269.031,-291.047C289.806,-274.265 324.586,-247.98 358,-231 365.139,-227.372 373.126,-224.191 380.783,-221.522"/>
<polygon fill="midnightblue" stroke="midnightblue" points="266.801,-288.35 261.281,-297.394 271.236,-293.766 266.801,-288.35"/>
</g>
<!-- Node50&#45;&gt;Node42 -->
<g id="edge64" class="edge"><title>Node50&#45;&gt;Node42</title>
<path fill="none" stroke="midnightblue" d="M262.55,-289.043C280.835,-264.129 317.109,-219.196 358,-193 363.878,-189.234 370.585,-186.128 377.265,-183.598"/>
<polygon fill="midnightblue" stroke="midnightblue" points="259.649,-287.082 256.652,-297.244 265.332,-291.169 259.649,-287.082"/>
</g>
<!-- Node50&#45;&gt;Node44 -->
<g id="edge65" class="edge"><title>Node50&#45;&gt;Node44</title>
<path fill="none" stroke="midnightblue" d="M255.977,-287.133C268.537,-248.703 301.293,-163.851 358,-117 362.907,-112.946 368.722,-109.741 374.717,-107.212"/>
<polygon fill="midnightblue" stroke="midnightblue" points="252.511,-286.486 252.844,-297.076 259.188,-288.59 252.511,-286.486"/>
</g>
<!-- Node50&#45;&gt;Node47 -->
<g id="edge66" class="edge"><title>Node50&#45;&gt;Node47</title>
<path fill="none" stroke="midnightblue" d="M253.908,-287.16C263.576,-243.253 292.716,-137.161 358,-79 362.446,-75.039 367.752,-71.8975 373.3,-69.4076"/>
<polygon fill="midnightblue" stroke="midnightblue" points="250.442,-286.634 251.815,-297.14 257.293,-288.071 250.442,-286.634"/>
</g>
<!-- Node50&#45;&gt;Node49 -->
<g id="edge67" class="edge"><title>Node50&#45;&gt;Node49</title>
<path fill="none" stroke="midnightblue" d="M313.534,-320.731C316.498,-322.301 319.342,-324.051 322,-326 346.162,-343.719 334.464,-364.457 358,-383 364.532,-388.146 372.537,-391.938 380.429,-394.717"/>
<polygon fill="midnightblue" stroke="midnightblue" points="314.889,-317.502 304.338,-316.538 311.984,-323.871 314.889,-317.502"/>
</g>
</g>
</svg>
