<?xml version="1.0" encoding="UTF-8" standalone="no"?>
<!DOCTYPE svg PUBLIC "-//W3C//DTD SVG 1.1//EN"
 "http://www.w3.org/Graphics/SVG/1.1/DTD/svg11.dtd">
<!-- Generated by graphviz version 2.36.0 (20140111.2315)
 -->
<!-- Title: METHOD Pages: 1 -->
<svg width="1352pt" height="504pt"
 viewBox="0.00 0.00 1352.00 504.00" xmlns="http://www.w3.org/2000/svg" xmlns:xlink="http://www.w3.org/1999/xlink">
<g id="graph0" class="graph" transform="scale(1 1) rotate(0) translate(4 500)">
<title>METHOD</title>
<!-- Node1 -->
<g id="node1" class="node"><title>Node1</title>
<polygon fill="#bfbfbf" stroke="black" points="0,-355.5 0,-374.5 60,-374.5 60,-355.5 0,-355.5"/>
<text text-anchor="middle" x="30" y="-362.5" font-family="Helvetica,sans-Serif" font-size="10.00">METHOD</text>
</g>
<!-- Node2 -->
<g id="node2" class="node"><title>Node2</title>
<g id="a_node2"><a xlink:href="../../d3/ddf/eap__authenticator_8c.html#a1acaafcacee6d81cbf77d45391fe9120" target="_top" xlink:title="server_initiate_eap">
<polygon fill="none" stroke="black" points="240,-422.5 240,-441.5 338,-441.5 338,-422.5 240,-422.5"/>
<text text-anchor="middle" x="289" y="-429.5" font-family="Helvetica,sans-Serif" font-size="10.00">server_initiate_eap</text>
</a>
</g>
</g>
<!-- Node1&#45;&gt;Node2 -->
<g id="edge1" class="edge"><title>Node1&#45;&gt;Node2</title>
<path fill="none" stroke="midnightblue" d="M60.0521,-373.758C71.2583,-377.066 84.1986,-380.801 96,-384 143.947,-396.995 198.976,-410.622 237.796,-420.022"/>
<polygon fill="midnightblue" stroke="midnightblue" points="237.255,-423.492 247.798,-422.437 238.899,-416.688 237.255,-423.492"/>
</g>
<!-- Node10 -->
<g id="node10" class="node"><title>Node10</title>
<g id="a_node10"><a xlink:href="../../d3/ddf/eap__authenticator_8c.html#aea74c02eca9662700f5c2aa6bc2f2eb2" target="_top" xlink:title="server_process_eap">
<polygon fill="none" stroke="black" points="96,-355.5 96,-374.5 200,-374.5 200,-355.5 96,-355.5"/>
<text text-anchor="middle" x="148" y="-362.5" font-family="Helvetica,sans-Serif" font-size="10.00">server_process_eap</text>
</a>
</g>
</g>
<!-- Node1&#45;&gt;Node10 -->
<g id="edge9" class="edge"><title>Node1&#45;&gt;Node10</title>
<path fill="none" stroke="midnightblue" d="M60.2717,-365C67.9902,-365 76.6168,-365 85.3541,-365"/>
<polygon fill="midnightblue" stroke="midnightblue" points="85.6142,-368.5 95.6141,-365 85.6141,-361.5 85.6142,-368.5"/>
</g>
<!-- Node42 -->
<g id="node42" class="node"><title>Node42</title>
<g id="a_node42"><a xlink:href="../../d3/ddf/eap__authenticator_8c.html#a6cd592c839e7edb7b587b9523a5e902a" target="_top" xlink:title="verify_auth">
<polygon fill="none" stroke="black" points="115.5,-92.5 115.5,-111.5 180.5,-111.5 180.5,-92.5 115.5,-92.5"/>
<text text-anchor="middle" x="148" y="-99.5" font-family="Helvetica,sans-Serif" font-size="10.00">verify_auth</text>
</a>
</g>
</g>
<!-- Node1&#45;&gt;Node42 -->
<g id="edge53" class="edge"><title>Node1&#45;&gt;Node42</title>
<path fill="none" stroke="midnightblue" d="M35.2661,-355.328C52.283,-316.746 115.501,-173.416 138.535,-121.192"/>
<polygon fill="midnightblue" stroke="midnightblue" points="141.862,-122.322 142.695,-111.76 135.457,-119.497 141.862,-122.322"/>
</g>
<!-- Node3 -->
<g id="node3" class="node"><title>Node3</title>
<g id="a_node3"><a xlink:href="../../d3/ddf/eap__authenticator_8c.html#a196791e891bdd2223fa024aceba7d1e3" target="_top" xlink:title="load_method">
<polygon fill="none" stroke="black" points="407,-460.5 407,-479.5 479,-479.5 479,-460.5 407,-460.5"/>
<text text-anchor="middle" x="443" y="-467.5" font-family="Helvetica,sans-Serif" font-size="10.00">load_method</text>
</a>
</g>
</g>
<!-- Node2&#45;&gt;Node3 -->
<g id="edge2" class="edge"><title>Node2&#45;&gt;Node3</title>
<path fill="none" stroke="midnightblue" d="M328.356,-441.589C349.253,-446.813 375.23,-453.307 397.071,-458.768"/>
<polygon fill="midnightblue" stroke="midnightblue" points="396.232,-462.166 406.782,-461.195 397.929,-455.375 396.232,-462.166"/>
</g>
<!-- Node4 -->
<g id="node4" class="node"><title>Node4</title>
<g id="a_node4"><a xlink:href="../../d6/d02/group__eap__payload.html#ga7bfdc80613ca6a0fe9de3c5dafd7eddf" target="_top" xlink:title="eap_payload_create_code">
<polygon fill="none" stroke="black" points="378,-422.5 378,-441.5 508,-441.5 508,-422.5 378,-422.5"/>
<text text-anchor="middle" x="443" y="-429.5" font-family="Helvetica,sans-Serif" font-size="10.00">eap_payload_create_code</text>
</a>
</g>
</g>
<!-- Node2&#45;&gt;Node4 -->
<g id="edge3" class="edge"><title>Node2&#45;&gt;Node4</title>
<path fill="none" stroke="midnightblue" d="M338.094,-432C347.552,-432 357.681,-432 367.767,-432"/>
<polygon fill="midnightblue" stroke="midnightblue" points="367.814,-435.5 377.814,-432 367.814,-428.5 367.814,-435.5"/>
</g>
<!-- Node5 -->
<g id="node5" class="node"><title>Node5</title>
<g id="a_node5"><a xlink:href="../../da/da5/group__byteorder__i.html#gae457d068dd73c9bf13c7755ac9f968ba" target="_top" xlink:title="htoun16">
<polygon fill="none" stroke="black" points="582.5,-476.5 582.5,-495.5 633.5,-495.5 633.5,-476.5 582.5,-476.5"/>
<text text-anchor="middle" x="608" y="-483.5" font-family="Helvetica,sans-Serif" font-size="10.00">htoun16</text>
</a>
</g>
</g>
<!-- Node4&#45;&gt;Node5 -->
<g id="edge4" class="edge"><title>Node4&#45;&gt;Node5</title>
<path fill="none" stroke="midnightblue" d="M479.146,-441.543C488.596,-444.35 498.757,-447.59 508,-451 524.427,-457.06 527.586,-460.905 544,-467 553.123,-470.388 563.151,-473.625 572.471,-476.436"/>
<polygon fill="midnightblue" stroke="midnightblue" points="571.648,-479.843 582.229,-479.307 573.624,-473.127 571.648,-479.843"/>
</g>
<!-- Node6 -->
<g id="node6" class="node"><title>Node6</title>
<g id="a_node6"><a xlink:href="../../d6/d02/group__eap__payload.html#gadb59cfd9e9751e29273126d1115df5ea" target="_top" xlink:title="eap_payload_create_data">
<polygon fill="none" stroke="black" points="544,-438.5 544,-457.5 672,-457.5 672,-438.5 544,-438.5"/>
<text text-anchor="middle" x="608" y="-445.5" font-family="Helvetica,sans-Serif" font-size="10.00">eap_payload_create_data</text>
</a>
</g>
</g>
<!-- Node4&#45;&gt;Node6 -->
<g id="edge5" class="edge"><title>Node4&#45;&gt;Node6</title>
<path fill="none" stroke="midnightblue" d="M508.422,-438.324C516.71,-439.137 525.244,-439.975 533.661,-440.801"/>
<polygon fill="midnightblue" stroke="midnightblue" points="533.551,-444.307 543.845,-441.801 534.235,-437.34 533.551,-444.307"/>
</g>
<!-- Node7 -->
<g id="node7" class="node"><title>Node7</title>
<g id="a_node7"><a xlink:href="../../d6/d02/group__eap__payload.html#ga5220ee974b4236a55b1b0bd0a7e1007b" target="_top" xlink:title="eap_payload_create">
<polygon fill="none" stroke="black" points="714,-464.5 714,-483.5 818,-483.5 818,-464.5 714,-464.5"/>
<text text-anchor="middle" x="766" y="-471.5" font-family="Helvetica,sans-Serif" font-size="10.00">eap_payload_create</text>
</a>
</g>
</g>
<!-- Node6&#45;&gt;Node7 -->
<g id="edge6" class="edge"><title>Node6&#45;&gt;Node7</title>
<path fill="none" stroke="midnightblue" d="M666.203,-457.534C678.431,-459.572 691.395,-461.733 703.769,-463.795"/>
<polygon fill="midnightblue" stroke="midnightblue" points="703.555,-467.307 713.994,-465.499 704.705,-460.403 703.555,-467.307"/>
</g>
<!-- Node8 -->
<g id="node8" class="node"><title>Node8</title>
<g id="a_node8"><a xlink:href="../../d6/dba/proposal__substructure_8c.html#aee46d8bf7ed69187788995076df80c18" target="_top" xlink:title="set_data">
<polygon fill="none" stroke="black" points="739,-426.5 739,-445.5 793,-445.5 793,-426.5 739,-426.5"/>
<text text-anchor="middle" x="766" y="-433.5" font-family="Helvetica,sans-Serif" font-size="10.00">set_data</text>
</a>
</g>
</g>
<!-- Node6&#45;&gt;Node8 -->
<g id="edge7" class="edge"><title>Node6&#45;&gt;Node8</title>
<path fill="none" stroke="midnightblue" d="M672.002,-443.154C691.329,-441.667 711.934,-440.082 728.823,-438.783"/>
<polygon fill="midnightblue" stroke="midnightblue" points="729.113,-442.271 738.815,-438.014 728.576,-435.292 729.113,-442.271"/>
</g>
<!-- Node9 -->
<g id="node9" class="node"><title>Node9</title>
<g id="a_node9"><a xlink:href="../../d6/dba/proposal__substructure_8c.html#ae41211f5db0d00daffe91d0391f86909" target="_top" xlink:title="compute_length">
<polygon fill="none" stroke="black" points="865,-426.5 865,-445.5 951,-445.5 951,-426.5 865,-426.5"/>
<text text-anchor="middle" x="908" y="-433.5" font-family="Helvetica,sans-Serif" font-size="10.00">compute_length</text>
</a>
</g>
</g>
<!-- Node8&#45;&gt;Node9 -->
<g id="edge8" class="edge"><title>Node8&#45;&gt;Node9</title>
<path fill="none" stroke="midnightblue" d="M793.005,-436C810.334,-436 833.712,-436 854.786,-436"/>
<polygon fill="midnightblue" stroke="midnightblue" points="854.91,-439.5 864.91,-436 854.91,-432.5 854.91,-439.5"/>
</g>
<!-- Node10&#45;&gt;Node2 -->
<g id="edge52" class="edge"><title>Node10&#45;&gt;Node2</title>
<path fill="none" stroke="midnightblue" d="M167.937,-374.541C185.513,-383.353 212.437,-396.742 236,-408 242.97,-411.33 250.498,-414.849 257.604,-418.136"/>
<polygon fill="midnightblue" stroke="midnightblue" points="256.393,-421.432 266.94,-422.434 259.321,-415.073 256.393,-421.432"/>
</g>
<!-- Node10&#45;&gt;Node4 -->
<g id="edge10" class="edge"><title>Node10&#45;&gt;Node4</title>
<path fill="none" stroke="midnightblue" d="M190.669,-374.528C243.132,-386.525 333.261,-407.135 390.132,-420.139"/>
<polygon fill="midnightblue" stroke="midnightblue" points="389.472,-423.579 400.001,-422.396 391.033,-416.755 389.472,-423.579"/>
</g>
<!-- Node11 -->
<g id="node11" class="node"><title>Node11</title>
<g id="a_node11"><a xlink:href="../../d5/d8d/group__identification.html#gab29a484b3dffdd09b0d355ff9fced2c7" target="_top" xlink:title="identification_create\l_from_data">
<polygon fill="none" stroke="black" points="237,-266 237,-296 341,-296 341,-266 237,-266"/>
<text text-anchor="start" x="245" y="-284" font-family="Helvetica,sans-Serif" font-size="10.00">identification_create</text>
<text text-anchor="middle" x="289" y="-273" font-family="Helvetica,sans-Serif" font-size="10.00">_from_data</text>
</a>
</g>
</g>
<!-- Node10&#45;&gt;Node11 -->
<g id="edge11" class="edge"><title>Node10&#45;&gt;Node11</title>
<path fill="none" stroke="midnightblue" d="M164.945,-355.364C186.63,-342.26 225.964,-318.49 254.333,-301.346"/>
<polygon fill="midnightblue" stroke="midnightblue" points="256.374,-304.202 263.122,-296.034 252.753,-298.211 256.374,-304.202"/>
</g>
<!-- Node41 -->
<g id="node41" class="node"><title>Node41</title>
<g id="a_node41"><a xlink:href="../../d3/ddf/eap__authenticator_8c.html#a328a6d8667851e8ed39c3dda23330875" target="_top" xlink:title="replace_eap_identity">
<polygon fill="none" stroke="black" points="236,-346.5 236,-365.5 342,-365.5 342,-346.5 236,-346.5"/>
<text text-anchor="middle" x="289" y="-353.5" font-family="Helvetica,sans-Serif" font-size="10.00">replace_eap_identity</text>
</a>
</g>
</g>
<!-- Node10&#45;&gt;Node41 -->
<g id="edge51" class="edge"><title>Node10&#45;&gt;Node41</title>
<path fill="none" stroke="midnightblue" d="M200.364,-361.674C208.611,-361.14 217.224,-360.583 225.694,-360.034"/>
<polygon fill="midnightblue" stroke="midnightblue" points="226.166,-363.511 235.919,-359.372 225.713,-356.526 226.166,-363.511"/>
</g>
<!-- Node12 -->
<g id="node12" class="node"><title>Node12</title>
<g id="a_node12"><a xlink:href="../../d0/da0/group__asn1i.html#ga27ea1bb96f8a7a13920184b9d211548a" target="_top" xlink:title="is_asn1">
<polygon fill="none" stroke="black" points="418,-184.5 418,-203.5 468,-203.5 468,-184.5 418,-184.5"/>
<text text-anchor="middle" x="443" y="-191.5" font-family="Helvetica,sans-Serif" font-size="10.00">is_asn1</text>
</a>
</g>
</g>
<!-- Node11&#45;&gt;Node12 -->
<g id="edge12" class="edge"><title>Node11&#45;&gt;Node12</title>
<path fill="none" stroke="midnightblue" d="M316.476,-265.846C344.598,-249.75 388.743,-224.482 416.491,-208.601"/>
<polygon fill="midnightblue" stroke="midnightblue" points="418.285,-211.606 425.226,-203.601 414.808,-205.531 418.285,-211.606"/>
</g>
<!-- Node14 -->
<g id="node14" class="node"><title>Node14</title>
<g id="a_node14"><a xlink:href="../../d5/d8d/group__identification.html#gaaf048646417f796b2b49277141f1cd40" target="_top" xlink:title="identification_create\l_from_encoding">
<polygon fill="none" stroke="black" points="391,-360 391,-390 495,-390 495,-360 391,-360"/>
<text text-anchor="start" x="399" y="-378" font-family="Helvetica,sans-Serif" font-size="10.00">identification_create</text>
<text text-anchor="middle" x="443" y="-367" font-family="Helvetica,sans-Serif" font-size="10.00">_from_encoding</text>
</a>
</g>
</g>
<!-- Node11&#45;&gt;Node14 -->
<g id="edge14" class="edge"><title>Node11&#45;&gt;Node14</title>
<path fill="none" stroke="midnightblue" d="M314.421,-296.103C340.016,-311.931 380.389,-336.898 408.851,-354.5"/>
<polygon fill="midnightblue" stroke="midnightblue" points="407.293,-357.652 417.639,-359.935 410.975,-351.698 407.293,-357.652"/>
</g>
<!-- Node18 -->
<g id="node18" class="node"><title>Node18</title>
<g id="a_node18"><a xlink:href="../../d5/d8d/group__identification.html#ga23065d7dd9165080ce47e4c20089761e" target="_top" xlink:title="identification_create\l_from_string">
<polygon fill="none" stroke="black" points="391,-250 391,-280 495,-280 495,-250 391,-250"/>
<text text-anchor="start" x="399" y="-268" font-family="Helvetica,sans-Serif" font-size="10.00">identification_create</text>
<text text-anchor="middle" x="443" y="-257" font-family="Helvetica,sans-Serif" font-size="10.00">_from_string</text>
</a>
</g>
</g>
<!-- Node11&#45;&gt;Node18 -->
<g id="edge18" class="edge"><title>Node11&#45;&gt;Node18</title>
<path fill="none" stroke="midnightblue" d="M341.037,-275.628C353.82,-274.282 367.663,-272.825 380.881,-271.434"/>
<polygon fill="midnightblue" stroke="midnightblue" points="381.261,-274.913 390.839,-270.385 380.528,-267.952 381.261,-274.913"/>
</g>
<!-- Node13 -->
<g id="node13" class="node"><title>Node13</title>
<g id="a_node13"><a xlink:href="../../d0/da0/group__asn1i.html#ga2c7e03292ddec17485539f5f0e504098" target="_top" xlink:title="asn1_length">
<polygon fill="none" stroke="black" points="573.5,-73.5 573.5,-92.5 642.5,-92.5 642.5,-73.5 573.5,-73.5"/>
<text text-anchor="middle" x="608" y="-80.5" font-family="Helvetica,sans-Serif" font-size="10.00">asn1_length</text>
</a>
</g>
</g>
<!-- Node12&#45;&gt;Node13 -->
<g id="edge13" class="edge"><title>Node12&#45;&gt;Node13</title>
<path fill="none" stroke="midnightblue" d="M451.76,-184.415C467.316,-165.816 504.246,-124.674 544,-102 550.067,-98.5395 556.83,-95.6482 563.61,-93.2516"/>
<polygon fill="midnightblue" stroke="midnightblue" points="565.024,-96.4737 573.476,-90.0856 562.885,-89.8084 565.024,-96.4737"/>
</g>
<!-- Node15 -->
<g id="node15" class="node"><title>Node15</title>
<g id="a_node15"><a xlink:href="../../d6/d2f/identification_8c.html#a2c4638c8ff8771dbda52e0c3b7aac28b" target="_top" xlink:title="identification_create">
<polygon fill="none" stroke="black" points="714,-332.5 714,-351.5 818,-351.5 818,-332.5 714,-332.5"/>
<text text-anchor="middle" x="766" y="-339.5" font-family="Helvetica,sans-Serif" font-size="10.00">identification_create</text>
</a>
</g>
</g>
<!-- Node14&#45;&gt;Node15 -->
<g id="edge15" class="edge"><title>Node14&#45;&gt;Node15</title>
<path fill="none" stroke="midnightblue" d="M495.037,-387.493C541.763,-396.844 612.487,-405.719 672,-391 698.25,-384.508 725.269,-369.116 743.372,-357.301"/>
<polygon fill="midnightblue" stroke="midnightblue" points="745.631,-360 751.976,-351.515 741.724,-354.191 745.631,-360"/>
</g>
<!-- Node16 -->
<g id="node16" class="node"><title>Node16</title>
<g id="a_node16"><a xlink:href="../../d6/d87/group__utils__i.html#ga2cd701fdf8284f1c4c85d3334d5072cf" target="_top" xlink:title="return_true">
<polygon fill="none" stroke="black" points="876.5,-342.5 876.5,-361.5 939.5,-361.5 939.5,-342.5 876.5,-342.5"/>
<text text-anchor="middle" x="908" y="-349.5" font-family="Helvetica,sans-Serif" font-size="10.00">return_true</text>
</a>
</g>
</g>
<!-- Node15&#45;&gt;Node16 -->
<g id="edge16" class="edge"><title>Node15&#45;&gt;Node16</title>
<path fill="none" stroke="midnightblue" d="M818.336,-345.667C834.188,-346.799 851.417,-348.03 866.436,-349.103"/>
<polygon fill="midnightblue" stroke="midnightblue" points="866.212,-352.595 876.436,-349.817 866.711,-345.613 866.212,-352.595"/>
</g>
<!-- Node17 -->
<g id="node17" class="node"><title>Node17</title>
<g id="a_node17"><a xlink:href="../../d6/d87/group__utils__i.html#ga9336a4d5728eb7ed977aacaeb8fd2c41" target="_top" xlink:title="return_false">
<polygon fill="none" stroke="black" points="874,-380.5 874,-399.5 942,-399.5 942,-380.5 874,-380.5"/>
<text text-anchor="middle" x="908" y="-387.5" font-family="Helvetica,sans-Serif" font-size="10.00">return_false</text>
</a>
</g>
</g>
<!-- Node15&#45;&gt;Node17 -->
<g id="edge17" class="edge"><title>Node15&#45;&gt;Node17</title>
<path fill="none" stroke="midnightblue" d="M794.995,-351.598C816.36,-358.923 846.01,-369.089 869.437,-377.121"/>
<polygon fill="midnightblue" stroke="midnightblue" points="868.459,-380.486 879.054,-380.418 870.73,-373.864 868.459,-380.486"/>
</g>
<!-- Node18&#45;&gt;Node15 -->
<g id="edge47" class="edge"><title>Node18&#45;&gt;Node15</title>
<path fill="none" stroke="midnightblue" d="M468.95,-280.114C488.629,-291.309 517.144,-305.962 544,-314 596.591,-329.741 658.805,-336.634 703.802,-339.652"/>
<polygon fill="midnightblue" stroke="midnightblue" points="703.792,-343.158 713.991,-340.289 704.229,-336.172 703.792,-343.158"/>
</g>
<!-- Node19 -->
<g id="node19" class="node"><title>Node19</title>
<g id="a_node19"><a xlink:href="../../d6/d2f/identification_8c.html#afd254ae787b9b095e0c4cdb0e493b216" target="_top" xlink:title="create_from_string\l_with_prefix_type">
<polygon fill="none" stroke="black" points="559,-226 559,-256 657,-256 657,-226 559,-226"/>
<text text-anchor="start" x="567" y="-244" font-family="Helvetica,sans-Serif" font-size="10.00">create_from_string</text>
<text text-anchor="middle" x="608" y="-233" font-family="Helvetica,sans-Serif" font-size="10.00">_with_prefix_type</text>
</a>
</g>
</g>
<!-- Node18&#45;&gt;Node19 -->
<g id="edge19" class="edge"><title>Node18&#45;&gt;Node19</title>
<path fill="none" stroke="midnightblue" d="M495.127,-257.472C512.141,-254.967 531.216,-252.158 548.73,-249.58"/>
<polygon fill="midnightblue" stroke="midnightblue" points="549.45,-253.011 558.834,-248.092 548.43,-246.086 549.45,-253.011"/>
</g>
<!-- Node22 -->
<g id="node22" class="node"><title>Node22</title>
<g id="a_node22"><a xlink:href="../../d4/d87/group__chunk.html#gaadc119e547e9a456a8c2c6271290b584" target="_top" xlink:title="chunk_from_hex">
<polygon fill="none" stroke="black" points="721.5,-266.5 721.5,-285.5 810.5,-285.5 810.5,-266.5 721.5,-266.5"/>
<text text-anchor="middle" x="766" y="-273.5" font-family="Helvetica,sans-Serif" font-size="10.00">chunk_from_hex</text>
</a>
</g>
</g>
<!-- Node18&#45;&gt;Node22 -->
<g id="edge50" class="edge"><title>Node18&#45;&gt;Node22</title>
<path fill="none" stroke="midnightblue" d="M467.098,-249.885C486.666,-238.038 515.938,-222.506 544,-216 599.419,-203.152 620.175,-192.537 672,-216 694.091,-226.001 687.796,-243.589 708,-257 710.958,-258.963 714.136,-260.74 717.425,-262.346"/>
<polygon fill="midnightblue" stroke="midnightblue" points="716.323,-265.682 726.891,-266.429 719.095,-259.255 716.323,-265.682"/>
</g>
<!-- Node26 -->
<g id="node26" class="node"><title>Node26</title>
<g id="a_node26"><a xlink:href="../../d6/d2f/identification_8c.html#ad1d2bbb8825975270a82317092f0dc8c" target="_top" xlink:title="create_from_string\l_with_num_type">
<polygon fill="none" stroke="black" points="559,-275 559,-305 657,-305 657,-275 559,-275"/>
<text text-anchor="start" x="567" y="-293" font-family="Helvetica,sans-Serif" font-size="10.00">create_from_string</text>
<text text-anchor="middle" x="608" y="-282" font-family="Helvetica,sans-Serif" font-size="10.00">_with_num_type</text>
</a>
</g>
</g>
<!-- Node18&#45;&gt;Node26 -->
<g id="edge27" class="edge"><title>Node18&#45;&gt;Node26</title>
<path fill="none" stroke="midnightblue" d="M495.127,-272.842C512.141,-275.451 531.216,-278.377 548.73,-281.063"/>
<polygon fill="midnightblue" stroke="midnightblue" points="548.419,-284.556 558.834,-282.613 549.48,-277.637 548.419,-284.556"/>
</g>
<!-- Node27 -->
<g id="node27" class="node"><title>Node27</title>
<g id="a_node27"><a xlink:href="../../d6/d2f/identification_8c.html#a40ec64238fd9138c59eb02096163c9a1" target="_top" xlink:title="atodn">
<polygon fill="none" stroke="black" points="587.5,-149.5 587.5,-168.5 628.5,-168.5 628.5,-149.5 587.5,-149.5"/>
<text text-anchor="middle" x="608" y="-156.5" font-family="Helvetica,sans-Serif" font-size="10.00">atodn</text>
</a>
</g>
</g>
<!-- Node18&#45;&gt;Node27 -->
<g id="edge30" class="edge"><title>Node18&#45;&gt;Node27</title>
<path fill="none" stroke="midnightblue" d="M462.813,-249.816C475.591,-239.478 492.855,-225.462 508,-213 524.083,-199.766 526.023,-193.517 544,-183 554.442,-176.891 566.722,-171.803 577.653,-167.907"/>
<polygon fill="midnightblue" stroke="midnightblue" points="578.871,-171.19 587.222,-164.669 576.628,-164.559 578.871,-171.19"/>
</g>
<!-- Node39 -->
<g id="node39" class="node"><title>Node39</title>
<g id="a_node39"><a xlink:href="../../d4/d40/group__string__i.html#ga65c3d08890165aaa4663c72d07f93bb7" target="_top" xlink:title="streq">
<polygon fill="none" stroke="black" points="589,-111.5 589,-130.5 627,-130.5 627,-111.5 589,-111.5"/>
<text text-anchor="middle" x="608" y="-118.5" font-family="Helvetica,sans-Serif" font-size="10.00">streq</text>
</a>
</g>
</g>
<!-- Node18&#45;&gt;Node39 -->
<g id="edge48" class="edge"><title>Node18&#45;&gt;Node39</title>
<path fill="none" stroke="midnightblue" d="M467.122,-249.964C480.323,-240.529 496.484,-227.438 508,-213 530.558,-184.72 516.397,-163.381 544,-140 553.776,-131.719 567.077,-127.047 578.939,-124.412"/>
<polygon fill="midnightblue" stroke="midnightblue" points="579.668,-127.836 588.868,-122.58 578.398,-120.952 579.668,-127.836"/>
</g>
<!-- Node40 -->
<g id="node40" class="node"><title>Node40</title>
<g id="a_node40"><a xlink:href="../../da/d9b/group__windows.html#ga7fb1f8a8f40e09fa09e625d2a09dc04e" target="_top" xlink:title="inet_pton">
<polygon fill="none" stroke="black" points="580,-362.5 580,-381.5 636,-381.5 636,-362.5 580,-362.5"/>
<text text-anchor="middle" x="608" y="-369.5" font-family="Helvetica,sans-Serif" font-size="10.00">inet_pton</text>
</a>
</g>
</g>
<!-- Node18&#45;&gt;Node40 -->
<g id="edge49" class="edge"><title>Node18&#45;&gt;Node40</title>
<path fill="none" stroke="midnightblue" d="M459.059,-280.261C477.646,-298.407 510.875,-328.664 544,-348 552.165,-352.766 561.451,-356.915 570.336,-360.36"/>
<polygon fill="midnightblue" stroke="midnightblue" points="569.155,-363.655 579.749,-363.819 571.57,-357.084 569.155,-363.655"/>
</g>
<!-- Node19&#45;&gt;Node15 -->
<g id="edge22" class="edge"><title>Node19&#45;&gt;Node15</title>
<path fill="none" stroke="midnightblue" d="M654.25,-256.141C660.367,-258.788 666.444,-261.749 672,-265 689.977,-275.517 691.965,-281.708 708,-295 720.433,-305.306 734.424,-316.843 745.433,-325.908"/>
<polygon fill="midnightblue" stroke="midnightblue" points="743.25,-328.644 753.195,-332.296 747.698,-323.239 743.25,-328.644"/>
</g>
<!-- Node20 -->
<g id="node20" class="node"><title>Node20</title>
<g id="a_node20"><a xlink:href="../../d4/d40/group__string__i.html#gad04895c77cc61acb068222c88d72dff0" target="_top" xlink:title="strcasepfx">
<polygon fill="none" stroke="black" points="735,-228.5 735,-247.5 797,-247.5 797,-228.5 735,-228.5"/>
<text text-anchor="middle" x="766" y="-235.5" font-family="Helvetica,sans-Serif" font-size="10.00">strcasepfx</text>
</a>
</g>
</g>
<!-- Node19&#45;&gt;Node20 -->
<g id="edge20" class="edge"><title>Node19&#45;&gt;Node20</title>
<path fill="none" stroke="midnightblue" d="M657.078,-240.075C678.828,-239.657 704.237,-239.169 724.935,-238.77"/>
<polygon fill="midnightblue" stroke="midnightblue" points="725.051,-242.269 734.982,-238.577 724.917,-235.27 725.051,-242.269"/>
</g>
<!-- Node19&#45;&gt;Node22 -->
<g id="edge23" class="edge"><title>Node19&#45;&gt;Node22</title>
<path fill="none" stroke="midnightblue" d="M657.078,-251.787C674.754,-255.752 694.845,-260.26 712.861,-264.302"/>
<polygon fill="midnightblue" stroke="midnightblue" points="712.105,-267.719 722.628,-266.494 713.637,-260.889 712.105,-267.719"/>
</g>
<!-- Node21 -->
<g id="node21" class="node"><title>Node21</title>
<g id="a_node21"><a xlink:href="../../d4/d40/group__string__i.html#ga9642181c8684012e619edccbc9f52d1c" target="_top" xlink:title="strncaseeq">
<polygon fill="none" stroke="black" points="875.5,-190.5 875.5,-209.5 940.5,-209.5 940.5,-190.5 875.5,-190.5"/>
<text text-anchor="middle" x="908" y="-197.5" font-family="Helvetica,sans-Serif" font-size="10.00">strncaseeq</text>
</a>
</g>
</g>
<!-- Node20&#45;&gt;Node21 -->
<g id="edge21" class="edge"><title>Node20&#45;&gt;Node21</title>
<path fill="none" stroke="midnightblue" d="M797.034,-229.848C816.96,-224.439 843.385,-217.267 865.337,-211.308"/>
<polygon fill="midnightblue" stroke="midnightblue" points="866.335,-214.664 875.069,-208.667 864.501,-207.909 866.335,-214.664"/>
</g>
<!-- Node23 -->
<g id="node23" class="node"><title>Node23</title>
<g id="a_node23"><a xlink:href="../../da/dfc/settings__parser_8c.html#a5faf6a2d99f50a4655dd390199a8db7b" target="_top" xlink:title="malloc">
<polygon fill="none" stroke="black" points="1017.5,-247.5 1017.5,-266.5 1062.5,-266.5 1062.5,-247.5 1017.5,-247.5"/>
<text text-anchor="middle" x="1040" y="-254.5" font-family="Helvetica,sans-Serif" font-size="10.00">malloc</text>
</a>
</g>
</g>
<!-- Node22&#45;&gt;Node23 -->
<g id="edge24" class="edge"><title>Node22&#45;&gt;Node23</title>
<path fill="none" stroke="midnightblue" d="M810.702,-272.947C865.569,-269.115 958.387,-262.631 1007.05,-259.232"/>
<polygon fill="midnightblue" stroke="midnightblue" points="1007.57,-262.704 1017.3,-258.516 1007.08,-255.721 1007.57,-262.704"/>
</g>
<!-- Node24 -->
<g id="node24" class="node"><title>Node24</title>
<g id="a_node24"><a xlink:href="../../d8/d39/chunk_8c.html#a0674de9b4dc86d182ca6a08b9595279f" target="_top" xlink:title="hex2bin">
<polygon fill="none" stroke="black" points="883,-228.5 883,-247.5 933,-247.5 933,-228.5 883,-228.5"/>
<text text-anchor="middle" x="908" y="-235.5" font-family="Helvetica,sans-Serif" font-size="10.00">hex2bin</text>
</a>
</g>
</g>
<!-- Node22&#45;&gt;Node24 -->
<g id="edge25" class="edge"><title>Node22&#45;&gt;Node24</title>
<path fill="none" stroke="midnightblue" d="M802.328,-266.411C824.006,-260.527 851.619,-253.032 873.04,-247.218"/>
<polygon fill="midnightblue" stroke="midnightblue" points="873.97,-250.592 882.704,-244.595 872.136,-243.836 873.97,-250.592"/>
</g>
<!-- Node25 -->
<g id="node25" class="node"><title>Node25</title>
<g id="a_node25"><a xlink:href="../../d4/d87/group__chunk.html#gad94ca029616a107e89eaa618408fd7b6" target="_top" xlink:title="chunk_create">
<polygon fill="none" stroke="black" points="870.5,-304.5 870.5,-323.5 945.5,-323.5 945.5,-304.5 870.5,-304.5"/>
<text text-anchor="middle" x="908" y="-311.5" font-family="Helvetica,sans-Serif" font-size="10.00">chunk_create</text>
</a>
</g>
</g>
<!-- Node22&#45;&gt;Node25 -->
<g id="edge26" class="edge"><title>Node22&#45;&gt;Node25</title>
<path fill="none" stroke="midnightblue" d="M802.328,-285.589C820.401,-290.494 842.598,-296.52 861.895,-301.757"/>
<polygon fill="midnightblue" stroke="midnightblue" points="861.116,-305.172 871.683,-304.414 862.949,-298.417 861.116,-305.172"/>
</g>
<!-- Node26&#45;&gt;Node15 -->
<g id="edge28" class="edge"><title>Node26&#45;&gt;Node15</title>
<path fill="none" stroke="midnightblue" d="M654.122,-305.041C677.064,-312.688 704.651,-321.884 726.568,-329.189"/>
<polygon fill="midnightblue" stroke="midnightblue" points="725.609,-332.559 736.203,-332.401 727.823,-325.918 725.609,-332.559"/>
</g>
<!-- Node26&#45;&gt;Node22 -->
<g id="edge29" class="edge"><title>Node26&#45;&gt;Node22</title>
<path fill="none" stroke="midnightblue" d="M657.078,-285.685C674.216,-284.147 693.625,-282.405 711.211,-280.827"/>
<polygon fill="midnightblue" stroke="midnightblue" points="711.677,-284.3 721.324,-279.92 711.051,-277.328 711.677,-284.3"/>
</g>
<!-- Node28 -->
<g id="node28" class="node"><title>Node28</title>
<g id="a_node28"><a xlink:href="../../d0/da0/group__asn1i.html#gae7dc25238f49a79e26e78b7078871319" target="_top" xlink:title="asn1_is_printablestring">
<polygon fill="none" stroke="black" points="708,-76.5 708,-95.5 824,-95.5 824,-76.5 708,-76.5"/>
<text text-anchor="middle" x="766" y="-83.5" font-family="Helvetica,sans-Serif" font-size="10.00">asn1_is_printablestring</text>
</a>
</g>
</g>
<!-- Node27&#45;&gt;Node28 -->
<g id="edge31" class="edge"><title>Node27&#45;&gt;Node28</title>
<path fill="none" stroke="midnightblue" d="M628.725,-155.586C641.668,-152.752 658.611,-147.883 672,-140 691.23,-128.678 688.935,-116.598 708,-105 711.411,-102.925 715.077,-101.045 718.845,-99.3492"/>
<polygon fill="midnightblue" stroke="midnightblue" points="720.38,-102.504 728.334,-95.5051 717.751,-96.016 720.38,-102.504"/>
</g>
<!-- Node29 -->
<g id="node29" class="node"><title>Node29</title>
<g id="a_node29"><a xlink:href="../../d0/da0/group__asn1i.html#gafc47ce497a7d333125fe7b4919ecf156" target="_top" xlink:title="asn1_build_known_oid">
<polygon fill="none" stroke="black" points="708.5,-190.5 708.5,-209.5 823.5,-209.5 823.5,-190.5 708.5,-190.5"/>
<text text-anchor="middle" x="766" y="-197.5" font-family="Helvetica,sans-Serif" font-size="10.00">asn1_build_known_oid</text>
</a>
</g>
</g>
<!-- Node27&#45;&gt;Node29 -->
<g id="edge32" class="edge"><title>Node27&#45;&gt;Node29</title>
<path fill="none" stroke="midnightblue" d="M628.758,-164.193C651.298,-170.117 688.913,-180.003 718.916,-187.888"/>
<polygon fill="midnightblue" stroke="midnightblue" points="718.205,-191.32 728.766,-190.477 719.984,-184.55 718.205,-191.32"/>
</g>
<!-- Node30 -->
<g id="node30" class="node"><title>Node30</title>
<g id="a_node30"><a xlink:href="../../d0/da0/group__asn1i.html#gaa5b766a452be068282b808b6b6f85f7e" target="_top" xlink:title="asn1_wrap">
<polygon fill="none" stroke="black" points="734,-114.5 734,-133.5 798,-133.5 798,-114.5 734,-114.5"/>
<text text-anchor="middle" x="766" y="-121.5" font-family="Helvetica,sans-Serif" font-size="10.00">asn1_wrap</text>
</a>
</g>
</g>
<!-- Node27&#45;&gt;Node30 -->
<g id="edge33" class="edge"><title>Node27&#45;&gt;Node30</title>
<path fill="none" stroke="midnightblue" d="M628.758,-154.567C652.55,-149.229 693.139,-140.123 723.842,-133.234"/>
<polygon fill="midnightblue" stroke="midnightblue" points="724.845,-136.596 733.837,-130.992 723.313,-129.766 724.845,-136.596"/>
</g>
<!-- Node31 -->
<g id="node31" class="node"><title>Node31</title>
<g id="a_node31"><a xlink:href="../../d0/da0/group__asn1i.html#gaa4b22cdadd3251eef380d585a8d3adc1" target="_top" xlink:title="asn1_build_object">
<polygon fill="none" stroke="black" points="860.5,-152.5 860.5,-171.5 955.5,-171.5 955.5,-152.5 860.5,-152.5"/>
<text text-anchor="middle" x="908" y="-159.5" font-family="Helvetica,sans-Serif" font-size="10.00">asn1_build_object</text>
</a>
</g>
</g>
<!-- Node27&#45;&gt;Node31 -->
<g id="edge45" class="edge"><title>Node27&#45;&gt;Node31</title>
<path fill="none" stroke="midnightblue" d="M628.553,-159.197C672.892,-159.643 782.468,-160.746 850.19,-161.428"/>
<polygon fill="midnightblue" stroke="midnightblue" points="850.239,-164.929 860.274,-161.53 850.309,-157.929 850.239,-164.929"/>
</g>
<!-- Node38 -->
<g id="node38" class="node"><title>Node38</title>
<g id="a_node38"><a xlink:href="../../da/dfc/settings__parser_8c.html#af07d89f5ceaea0c7c8252cc41fd75f37" target="_top" xlink:title="free">
<polygon fill="none" stroke="black" points="1156.5,-38.5 1156.5,-57.5 1189.5,-57.5 1189.5,-38.5 1156.5,-38.5"/>
<text text-anchor="middle" x="1173" y="-45.5" font-family="Helvetica,sans-Serif" font-size="10.00">free</text>
</a>
</g>
</g>
<!-- Node27&#45;&gt;Node38 -->
<g id="edge46" class="edge"><title>Node27&#45;&gt;Node38</title>
<path fill="none" stroke="midnightblue" d="M628.566,-157.2C642.099,-155.051 659.796,-150.337 672,-140 699.603,-116.619 677.677,-86.7274 708,-67 780.747,-19.6721 1059.3,-38.5104 1146.05,-45.6983"/>
<polygon fill="midnightblue" stroke="midnightblue" points="1145.84,-49.1927 1156.1,-46.5506 1146.43,-42.2178 1145.84,-49.1927"/>
</g>
<!-- Node30&#45;&gt;Node31 -->
<g id="edge34" class="edge"><title>Node30&#45;&gt;Node31</title>
<path fill="none" stroke="midnightblue" d="M798.071,-132.433C816.831,-137.526 841.063,-144.103 861.906,-149.76"/>
<polygon fill="midnightblue" stroke="midnightblue" points="861.26,-153.211 871.827,-152.453 863.093,-146.456 861.26,-153.211"/>
</g>
<!-- Node33 -->
<g id="node33" class="node"><title>Node33</title>
<g id="a_node33"><a xlink:href="../../d4/d87/group__chunk.html#gaaa5a9811df1bd2ae5e331748f7fbaf75" target="_top" xlink:title="chunk_clear">
<polygon fill="none" stroke="black" points="873.5,-76.5 873.5,-95.5 942.5,-95.5 942.5,-76.5 873.5,-76.5"/>
<text text-anchor="middle" x="908" y="-83.5" font-family="Helvetica,sans-Serif" font-size="10.00">chunk_clear</text>
</a>
</g>
</g>
<!-- Node30&#45;&gt;Node33 -->
<g id="edge37" class="edge"><title>Node30&#45;&gt;Node33</title>
<path fill="none" stroke="midnightblue" d="M798.071,-115.567C817.264,-110.357 842.184,-103.593 863.344,-97.8495"/>
<polygon fill="midnightblue" stroke="midnightblue" points="864.342,-101.205 873.076,-95.2078 862.509,-94.4496 864.342,-101.205"/>
</g>
<!-- Node30&#45;&gt;Node38 -->
<g id="edge44" class="edge"><title>Node30&#45;&gt;Node38</title>
<path fill="none" stroke="midnightblue" d="M798.313,-122.369C835.974,-120.059 900.997,-114.958 956,-105 1026.07,-92.3154 1106.73,-68.5082 1146.75,-56.0559"/>
<polygon fill="midnightblue" stroke="midnightblue" points="1147.98,-59.3394 1156.47,-53.0057 1145.88,-52.6605 1147.98,-59.3394"/>
</g>
<!-- Node31&#45;&gt;Node23 -->
<g id="edge36" class="edge"><title>Node31&#45;&gt;Node23</title>
<path fill="none" stroke="midnightblue" d="M938.329,-171.593C944.421,-174.197 950.618,-177.332 956,-181 975.223,-194.103 974.917,-203.207 992,-219 1000.23,-226.613 1009.79,-234.492 1018.12,-241.089"/>
<polygon fill="midnightblue" stroke="midnightblue" points="1016.22,-244.044 1026.25,-247.434 1020.52,-238.524 1016.22,-244.044"/>
</g>
<!-- Node32 -->
<g id="node32" class="node"><title>Node32</title>
<g id="a_node32"><a xlink:href="../../d6/d36/asn1_8c.html#a72c37051a4d4cda52b0ab80893884abd" target="_top" xlink:title="asn1_code_length">
<polygon fill="none" stroke="black" points="992.5,-190.5 992.5,-209.5 1087.5,-209.5 1087.5,-190.5 992.5,-190.5"/>
<text text-anchor="middle" x="1040" y="-197.5" font-family="Helvetica,sans-Serif" font-size="10.00">asn1_code_length</text>
</a>
</g>
</g>
<!-- Node31&#45;&gt;Node32 -->
<g id="edge35" class="edge"><title>Node31&#45;&gt;Node32</title>
<path fill="none" stroke="midnightblue" d="M941.804,-171.589C958.278,-176.404 978.443,-182.299 996.127,-187.468"/>
<polygon fill="midnightblue" stroke="midnightblue" points="995.626,-190.968 1006.21,-190.414 997.59,-184.249 995.626,-190.968"/>
</g>
<!-- Node34 -->
<g id="node34" class="node"><title>Node34</title>
<g id="a_node34"><a xlink:href="../../dd/d74/group__memory__i.html#ga6d5ce21860b55e0c54353999c4f4f077" target="_top" xlink:title="memwipe">
<polygon fill="none" stroke="black" points="1010.5,-152.5 1010.5,-171.5 1069.5,-171.5 1069.5,-152.5 1010.5,-152.5"/>
<text text-anchor="middle" x="1040" y="-159.5" font-family="Helvetica,sans-Serif" font-size="10.00">memwipe</text>
</a>
</g>
</g>
<!-- Node33&#45;&gt;Node34 -->
<g id="edge38" class="edge"><title>Node33&#45;&gt;Node34</title>
<path fill="none" stroke="midnightblue" d="M925.465,-95.6255C947.736,-108.645 987.668,-131.991 1013.75,-147.236"/>
<polygon fill="midnightblue" stroke="midnightblue" points="1012.27,-150.427 1022.67,-152.453 1015.8,-144.384 1012.27,-150.427"/>
</g>
<!-- Node37 -->
<g id="node37" class="node"><title>Node37</title>
<g id="a_node37"><a xlink:href="../../d4/d87/group__chunk.html#gaa86c84493369a4254d5801cdca20d458" target="_top" xlink:title="chunk_free">
<polygon fill="none" stroke="black" points="1007.5,-0.5 1007.5,-19.5 1072.5,-19.5 1072.5,-0.5 1007.5,-0.5"/>
<text text-anchor="middle" x="1040" y="-7.5" font-family="Helvetica,sans-Serif" font-size="10.00">chunk_free</text>
</a>
</g>
</g>
<!-- Node33&#45;&gt;Node37 -->
<g id="edge42" class="edge"><title>Node33&#45;&gt;Node37</title>
<path fill="none" stroke="midnightblue" d="M925.465,-76.3745C947.736,-63.3546 987.668,-40.0093 1013.75,-24.7636"/>
<polygon fill="midnightblue" stroke="midnightblue" points="1015.8,-27.6159 1022.67,-19.5473 1012.27,-21.5728 1015.8,-27.6159"/>
</g>
<!-- Node35 -->
<g id="node35" class="node"><title>Node35</title>
<g id="a_node35"><a xlink:href="../../dd/d74/group__memory__i.html#ga4d6f7708d6b8ea1ec0fbe97b3885ce1e" target="_top" xlink:title="memwipe_inline">
<polygon fill="none" stroke="black" points="1258,-152.5 1258,-171.5 1344,-171.5 1344,-152.5 1258,-152.5"/>
<text text-anchor="middle" x="1301" y="-159.5" font-family="Helvetica,sans-Serif" font-size="10.00">memwipe_inline</text>
</a>
</g>
</g>
<!-- Node34&#45;&gt;Node35 -->
<g id="edge39" class="edge"><title>Node34&#45;&gt;Node35</title>
<path fill="none" stroke="midnightblue" d="M1069.71,-162C1112.64,-162 1194.26,-162 1247.9,-162"/>
<polygon fill="midnightblue" stroke="midnightblue" points="1247.9,-165.5 1257.9,-162 1247.9,-158.5 1247.9,-165.5"/>
</g>
<!-- Node36 -->
<g id="node36" class="node"><title>Node36</title>
<g id="a_node36"><a xlink:href="../../dd/d74/group__memory__i.html#gabf6fa8b701d6f2052a551333b3694063" target="_top" xlink:title="memwipe_noinline">
<polygon fill="none" stroke="black" points="1124.5,-171.5 1124.5,-190.5 1221.5,-190.5 1221.5,-171.5 1124.5,-171.5"/>
<text text-anchor="middle" x="1173" y="-178.5" font-family="Helvetica,sans-Serif" font-size="10.00">memwipe_noinline</text>
</a>
</g>
</g>
<!-- Node34&#45;&gt;Node36 -->
<g id="edge40" class="edge"><title>Node34&#45;&gt;Node36</title>
<path fill="none" stroke="midnightblue" d="M1069.75,-166.17C1082.85,-168.069 1098.84,-170.39 1114.26,-172.625"/>
<polygon fill="midnightblue" stroke="midnightblue" points="1113.87,-176.105 1124.27,-174.077 1114.87,-169.178 1113.87,-176.105"/>
</g>
<!-- Node36&#45;&gt;Node35 -->
<g id="edge41" class="edge"><title>Node36&#45;&gt;Node35</title>
<path fill="none" stroke="midnightblue" d="M1221.64,-173.817C1230.15,-172.533 1239.06,-171.189 1247.7,-169.886"/>
<polygon fill="midnightblue" stroke="midnightblue" points="1248.31,-173.335 1257.67,-168.382 1247.26,-166.413 1248.31,-173.335"/>
</g>
<!-- Node37&#45;&gt;Node38 -->
<g id="edge43" class="edge"><title>Node37&#45;&gt;Node38</title>
<path fill="none" stroke="midnightblue" d="M1072.71,-19.1987C1095.38,-25.7754 1125.49,-34.5097 1146.59,-40.6289"/>
<polygon fill="midnightblue" stroke="midnightblue" points="1145.85,-44.0589 1156.43,-43.4835 1147.8,-37.336 1145.85,-44.0589"/>
</g>
<!-- Node42&#45;&gt;Node37 -->
<g id="edge56" class="edge"><title>Node42&#45;&gt;Node37</title>
<path fill="none" stroke="midnightblue" d="M166.565,-92.3283C211.16,-68.7076 332.967,-10 442,-10 442,-10 442,-10 767,-10 848.458,-10 943.639,-10 997.063,-10"/>
<polygon fill="midnightblue" stroke="midnightblue" points="997.175,-13.5001 1007.17,-10 997.175,-6.5001 997.175,-13.5001"/>
</g>
<!-- Node43 -->
<g id="node43" class="node"><title>Node43</title>
<g id="a_node43"><a xlink:href="../../d4/d87/group__chunk.html#gaef4ef97b1a4298f2b3aacb9fe48a2c85" target="_top" xlink:title="chunk_equals_const">
<polygon fill="none" stroke="black" points="236,-92.5 236,-111.5 342,-111.5 342,-92.5 236,-92.5"/>
<text text-anchor="middle" x="289" y="-99.5" font-family="Helvetica,sans-Serif" font-size="10.00">chunk_equals_const</text>
</a>
</g>
</g>
<!-- Node42&#45;&gt;Node43 -->
<g id="edge54" class="edge"><title>Node42&#45;&gt;Node43</title>
<path fill="none" stroke="midnightblue" d="M180.541,-102C193.945,-102 210.067,-102 225.697,-102"/>
<polygon fill="midnightblue" stroke="midnightblue" points="225.865,-105.5 235.865,-102 225.865,-98.5001 225.865,-105.5"/>
</g>
<!-- Node44 -->
<g id="node44" class="node"><title>Node44</title>
<g id="a_node44"><a xlink:href="../../dd/d74/group__memory__i.html#gaf513a161cbe0ba0964578ee21ca4263b" target="_top" xlink:title="memeq_const">
<polygon fill="none" stroke="black" points="404,-92.5 404,-111.5 482,-111.5 482,-92.5 404,-92.5"/>
<text text-anchor="middle" x="443" y="-99.5" font-family="Helvetica,sans-Serif" font-size="10.00">memeq_const</text>
</a>
</g>
</g>
<!-- Node43&#45;&gt;Node44 -->
<g id="edge55" class="edge"><title>Node43&#45;&gt;Node44</title>
<path fill="none" stroke="midnightblue" d="M342.31,-102C358.935,-102 377.24,-102 393.578,-102"/>
<polygon fill="midnightblue" stroke="midnightblue" points="393.993,-105.5 403.993,-102 393.993,-98.5001 393.993,-105.5"/>
</g>
</g>
</svg>
