<?xml version="1.0" encoding="UTF-8" standalone="no"?>
<!DOCTYPE svg PUBLIC "-//W3C//DTD SVG 1.1//EN"
 "http://www.w3.org/Graphics/SVG/1.1/DTD/svg11.dtd">
<!-- Generated by graphviz version 2.36.0 (20140111.2315)
 -->
<!-- Title: printf_hook_glibc.c Pages: 1 -->
<svg width="1930pt" height="308pt"
 viewBox="0.00 0.00 1930.20 308.00" xmlns="http://www.w3.org/2000/svg" xmlns:xlink="http://www.w3.org/1999/xlink">
<g id="graph0" class="graph" transform="scale(1 1) rotate(0) translate(4 304)">
<title>printf_hook_glibc.c</title>
<!-- Node1 -->
<g id="node1" class="node"><title>Node1</title>
<polygon fill="#bfbfbf" stroke="black" points="785.198,-280.5 785.198,-299.5 883.198,-299.5 883.198,-280.5 785.198,-280.5"/>
<text text-anchor="middle" x="834.198" y="-287.5" font-family="Helvetica,sans-Serif" font-size="10.00">printf_hook_glibc.c</text>
</g>
<!-- Node2 -->
<g id="node2" class="node"><title>Node2</title>
<g id="a_node2"><a xlink:href="../../dc/d6a/printf__hook_8h.html" target="_top" xlink:title="printf_hook.h">
<polygon fill="none" stroke="black" points="832.698,-56.5 832.698,-75.5 905.698,-75.5 905.698,-56.5 832.698,-56.5"/>
<text text-anchor="middle" x="869.198" y="-63.5" font-family="Helvetica,sans-Serif" font-size="10.00">printf_hook.h</text>
</a>
</g>
</g>
<!-- Node1&#45;&gt;Node2 -->
<g id="edge1" class="edge"><title>Node1&#45;&gt;Node2</title>
<path fill="none" stroke="midnightblue" d="M785.099,-286.486C592.087,-275.747 -98.6442,-228.815 12.198,-112 40.2749,-82.4101 647.631,-70.5127 822.487,-67.6932"/>
<polygon fill="midnightblue" stroke="midnightblue" points="822.71,-71.1902 832.653,-67.5317 822.599,-64.1911 822.71,-71.1902"/>
</g>
<!-- Node4 -->
<g id="node4" class="node"><title>Node4</title>
<g id="a_node4"><a xlink:href="../../d5/d60/utils_8h.html" target="_top" xlink:title="utils/utils.h">
<polygon fill="none" stroke="black" points="798.198,-168.5 798.198,-187.5 862.198,-187.5 862.198,-168.5 798.198,-168.5"/>
<text text-anchor="middle" x="830.198" y="-175.5" font-family="Helvetica,sans-Serif" font-size="10.00">utils/utils.h</text>
</a>
</g>
</g>
<!-- Node1&#45;&gt;Node4 -->
<g id="edge3" class="edge"><title>Node1&#45;&gt;Node4</title>
<path fill="none" stroke="midnightblue" d="M821.134,-280.436C810.284,-272.471 795.625,-259.515 789.198,-244 781.643,-225.762 796.518,-206.892 810.418,-194.214"/>
<polygon fill="midnightblue" stroke="midnightblue" points="812.951,-196.655 818.313,-187.516 808.423,-191.317 812.951,-196.655"/>
</g>
<!-- Node8 -->
<g id="node8" class="node"><title>Node8</title>
<g id="a_node8"><a xlink:href="../../da/d66/string_8h.html" target="_top" xlink:title="string.h">
<polygon fill="none" stroke="black" points="21.698,-112.5 21.698,-131.5 70.698,-131.5 70.698,-112.5 21.698,-112.5"/>
<text text-anchor="middle" x="46.198" y="-119.5" font-family="Helvetica,sans-Serif" font-size="10.00">string.h</text>
</a>
</g>
</g>
<!-- Node1&#45;&gt;Node8 -->
<g id="edge34" class="edge"><title>Node1&#45;&gt;Node8</title>
<path fill="none" stroke="midnightblue" d="M788.969,-280.458C672.94,-258.359 355.174,-196.654 80.784,-132.04"/>
<polygon fill="midnightblue" stroke="midnightblue" points="81.5785,-128.631 71.0418,-129.74 79.9702,-135.444 81.5785,-128.631"/>
</g>
<!-- Node28 -->
<g id="node28" class="node"><title>Node28</title>
<g id="a_node28"><a xlink:href="../../db/d16/debug_8h.html" target="_top" xlink:title="utils/debug.h">
<polygon fill="none" stroke="black" points="798.198,-224.5 798.198,-243.5 870.198,-243.5 870.198,-224.5 798.198,-224.5"/>
<text text-anchor="middle" x="834.198" y="-231.5" font-family="Helvetica,sans-Serif" font-size="10.00">utils/debug.h</text>
</a>
</g>
</g>
<!-- Node1&#45;&gt;Node28 -->
<g id="edge29" class="edge"><title>Node1&#45;&gt;Node28</title>
<path fill="none" stroke="midnightblue" d="M834.198,-280.083C834.198,-273.006 834.198,-262.861 834.198,-253.986"/>
<polygon fill="midnightblue" stroke="midnightblue" points="837.698,-253.751 834.198,-243.751 830.698,-253.751 837.698,-253.751"/>
</g>
<!-- Node29 -->
<g id="node29" class="node"><title>Node29</title>
<polygon fill="none" stroke="#bfbfbf" points="880.198,-168.5 880.198,-187.5 926.198,-187.5 926.198,-168.5 880.198,-168.5"/>
<text text-anchor="middle" x="903.198" y="-175.5" font-family="Helvetica,sans-Serif" font-size="10.00">stdio.h</text>
</g>
<!-- Node1&#45;&gt;Node29 -->
<g id="edge32" class="edge"><title>Node1&#45;&gt;Node29</title>
<path fill="none" stroke="midnightblue" d="M845.178,-280.409C855.226,-272.05 869.904,-258.515 879.198,-244 888.422,-229.596 894.803,-211.14 898.654,-197.578"/>
<polygon fill="midnightblue" stroke="midnightblue" points="902.137,-198.094 901.301,-187.532 895.368,-196.31 902.137,-198.094"/>
</g>
<!-- Node30 -->
<g id="node30" class="node"><title>Node30</title>
<polygon fill="none" stroke="#bfbfbf" points="926.198,-224.5 926.198,-243.5 978.198,-243.5 978.198,-224.5 926.198,-224.5"/>
<text text-anchor="middle" x="952.198" y="-231.5" font-family="Helvetica,sans-Serif" font-size="10.00">stdarg.h</text>
</g>
<!-- Node1&#45;&gt;Node30 -->
<g id="edge33" class="edge"><title>Node1&#45;&gt;Node30</title>
<path fill="none" stroke="midnightblue" d="M852.895,-280.444C872.142,-271.636 902.35,-257.812 924.398,-247.722"/>
<polygon fill="midnightblue" stroke="midnightblue" points="925.951,-250.86 933.588,-243.516 923.038,-244.495 925.951,-250.86"/>
</g>
<!-- Node31 -->
<g id="node31" class="node"><title>Node31</title>
<polygon fill="none" stroke="#bfbfbf" points="996.698,-224.5 996.698,-243.5 1043.7,-243.5 1043.7,-224.5 996.698,-224.5"/>
<text text-anchor="middle" x="1020.2" y="-231.5" font-family="Helvetica,sans-Serif" font-size="10.00">printf.h</text>
</g>
<!-- Node1&#45;&gt;Node31 -->
<g id="edge35" class="edge"><title>Node1&#45;&gt;Node31</title>
<path fill="none" stroke="midnightblue" d="M863.67,-280.444C897.141,-270.726 951.64,-254.904 986.696,-244.726"/>
<polygon fill="midnightblue" stroke="midnightblue" points="987.843,-248.038 996.47,-241.889 985.891,-241.316 987.843,-248.038"/>
</g>
<!-- Node3 -->
<g id="node3" class="node"><title>Node3</title>
<polygon fill="none" stroke="#bfbfbf" points="1323.2,-0.5 1323.2,-19.5 1371.2,-19.5 1371.2,-0.5 1323.2,-0.5"/>
<text text-anchor="middle" x="1347.2" y="-7.5" font-family="Helvetica,sans-Serif" font-size="10.00">stdlib.h</text>
</g>
<!-- Node2&#45;&gt;Node3 -->
<g id="edge2" class="edge"><title>Node2&#45;&gt;Node3</title>
<path fill="none" stroke="midnightblue" d="M905.912,-60.8524C995.732,-50.7054 1225.56,-24.741 1312.86,-14.8793"/>
<polygon fill="midnightblue" stroke="midnightblue" points="1313.47,-18.3322 1323.02,-13.7317 1312.69,-11.3765 1313.47,-18.3322"/>
</g>
<!-- Node4&#45;&gt;Node3 -->
<g id="edge5" class="edge"><title>Node4&#45;&gt;Node3</title>
<path fill="none" stroke="midnightblue" d="M862.332,-169.381C865.318,-168.844 868.307,-168.37 871.198,-168 922.76,-161.401 1770.15,-169.458 1806.2,-132 1867.98,-67.7924 1497.86,-25.7197 1381.43,-14.2019"/>
<polygon fill="midnightblue" stroke="midnightblue" points="1381.58,-10.7001 1371.29,-13.2128 1380.9,-17.6671 1381.58,-10.7001"/>
</g>
<!-- Node5 -->
<g id="node5" class="node"><title>Node5</title>
<polygon fill="none" stroke="#bfbfbf" points="1854.2,-112.5 1854.2,-131.5 1922.2,-131.5 1922.2,-112.5 1854.2,-112.5"/>
<text text-anchor="middle" x="1888.2" y="-119.5" font-family="Helvetica,sans-Serif" font-size="10.00">sys/types.h</text>
</g>
<!-- Node4&#45;&gt;Node5 -->
<g id="edge4" class="edge"><title>Node4&#45;&gt;Node5</title>
<path fill="none" stroke="midnightblue" d="M862.332,-169.377C865.317,-168.841 868.306,-168.368 871.198,-168 1298.71,-113.581 1411.9,-179.842 1840.2,-132 1841.45,-131.86 1842.73,-131.705 1844.01,-131.539"/>
<polygon fill="midnightblue" stroke="midnightblue" points="1844.57,-134.994 1853.94,-130.061 1843.54,-128.071 1844.57,-134.994"/>
</g>
<!-- Node6 -->
<g id="node6" class="node"><title>Node6</title>
<polygon fill="none" stroke="#bfbfbf" points="89.198,-112.5 89.198,-131.5 141.198,-131.5 141.198,-112.5 89.198,-112.5"/>
<text text-anchor="middle" x="115.198" y="-119.5" font-family="Helvetica,sans-Serif" font-size="10.00">stddef.h</text>
</g>
<!-- Node4&#45;&gt;Node6 -->
<g id="edge6" class="edge"><title>Node4&#45;&gt;Node6</title>
<path fill="none" stroke="midnightblue" d="M798.098,-176.982C701.528,-176.486 405.232,-171.719 151.603,-131.925"/>
<polygon fill="midnightblue" stroke="midnightblue" points="151.887,-128.426 141.461,-130.311 150.787,-135.339 151.887,-128.426"/>
</g>
<!-- Node7 -->
<g id="node7" class="node"><title>Node7</title>
<polygon fill="none" stroke="#bfbfbf" points="159.198,-112.5 159.198,-131.5 221.198,-131.5 221.198,-112.5 159.198,-112.5"/>
<text text-anchor="middle" x="190.198" y="-119.5" font-family="Helvetica,sans-Serif" font-size="10.00">sys/time.h</text>
</g>
<!-- Node4&#45;&gt;Node7 -->
<g id="edge7" class="edge"><title>Node4&#45;&gt;Node7</title>
<path fill="none" stroke="midnightblue" d="M798.142,-176.246C709.499,-173.813 453.52,-164.425 231.759,-132.023"/>
<polygon fill="midnightblue" stroke="midnightblue" points="231.964,-128.515 221.559,-130.512 230.938,-135.439 231.964,-128.515"/>
</g>
<!-- Node4&#45;&gt;Node8 -->
<g id="edge8" class="edge"><title>Node4&#45;&gt;Node8</title>
<path fill="none" stroke="midnightblue" d="M798.151,-177.343C695.156,-177.968 363.387,-176.282 80.9827,-131.765"/>
<polygon fill="midnightblue" stroke="midnightblue" points="81.385,-128.285 70.958,-130.163 80.2805,-135.197 81.385,-128.285"/>
</g>
<!-- Node9 -->
<g id="node9" class="node"><title>Node9</title>
<polygon fill="none" stroke="#bfbfbf" points="239.198,-112.5 239.198,-131.5 301.198,-131.5 301.198,-112.5 239.198,-112.5"/>
<text text-anchor="middle" x="270.198" y="-119.5" font-family="Helvetica,sans-Serif" font-size="10.00">arpa/inet.h</text>
</g>
<!-- Node4&#45;&gt;Node9 -->
<g id="edge9" class="edge"><title>Node4&#45;&gt;Node9</title>
<path fill="none" stroke="midnightblue" d="M798.065,-175.729C717.683,-172.23 501.328,-160.837 311.716,-132.04"/>
<polygon fill="midnightblue" stroke="midnightblue" points="311.98,-128.54 301.564,-130.478 310.915,-135.458 311.98,-128.54"/>
</g>
<!-- Node10 -->
<g id="node10" class="node"><title>Node10</title>
<polygon fill="none" stroke="#bfbfbf" points="319.698,-112.5 319.698,-131.5 392.698,-131.5 392.698,-112.5 319.698,-112.5"/>
<text text-anchor="middle" x="356.198" y="-119.5" font-family="Helvetica,sans-Serif" font-size="10.00">sys/socket.h</text>
</g>
<!-- Node4&#45;&gt;Node10 -->
<g id="edge10" class="edge"><title>Node4&#45;&gt;Node10</title>
<path fill="none" stroke="midnightblue" d="M798.047,-174.654C728.019,-169.326 556.304,-155.069 403.052,-132.168"/>
<polygon fill="midnightblue" stroke="midnightblue" points="403.396,-128.68 392.986,-130.647 402.351,-135.602 403.396,-128.68"/>
</g>
<!-- Node11 -->
<g id="node11" class="node"><title>Node11</title>
<polygon fill="none" stroke="#bfbfbf" points="410.698,-112.5 410.698,-131.5 459.698,-131.5 459.698,-112.5 410.698,-112.5"/>
<text text-anchor="middle" x="435.198" y="-119.5" font-family="Helvetica,sans-Serif" font-size="10.00">netdb.h</text>
</g>
<!-- Node4&#45;&gt;Node11 -->
<g id="edge11" class="edge"><title>Node4&#45;&gt;Node11</title>
<path fill="none" stroke="midnightblue" d="M797.993,-174.548C736.084,-169.503 596.08,-156.486 469.813,-132.094"/>
<polygon fill="midnightblue" stroke="midnightblue" points="470.461,-128.654 459.974,-130.164 469.114,-135.524 470.461,-128.654"/>
</g>
<!-- Node12 -->
<g id="node12" class="node"><title>Node12</title>
<polygon fill="none" stroke="#bfbfbf" points="477.698,-112.5 477.698,-131.5 542.698,-131.5 542.698,-112.5 477.698,-112.5"/>
<text text-anchor="middle" x="510.198" y="-119.5" font-family="Helvetica,sans-Serif" font-size="10.00">netinet/in.h</text>
</g>
<!-- Node4&#45;&gt;Node12 -->
<g id="edge12" class="edge"><title>Node4&#45;&gt;Node12</title>
<path fill="none" stroke="midnightblue" d="M797.874,-172.389C747.569,-165.082 647.286,-149.996 552.84,-132.234"/>
<polygon fill="midnightblue" stroke="midnightblue" points="553.315,-128.761 542.838,-130.338 552.011,-135.639 553.315,-128.761"/>
</g>
<!-- Node13 -->
<g id="node13" class="node"><title>Node13</title>
<polygon fill="none" stroke="#bfbfbf" points="560.698,-112.5 560.698,-131.5 611.698,-131.5 611.698,-112.5 560.698,-112.5"/>
<text text-anchor="middle" x="586.198" y="-119.5" font-family="Helvetica,sans-Serif" font-size="10.00">sched.h</text>
</g>
<!-- Node4&#45;&gt;Node13 -->
<g id="edge13" class="edge"><title>Node4&#45;&gt;Node13</title>
<path fill="none" stroke="midnightblue" d="M797.885,-170.457C758.671,-162.425 690.305,-148.134 621.876,-132.084"/>
<polygon fill="midnightblue" stroke="midnightblue" points="622.32,-128.593 611.783,-129.704 620.713,-135.406 622.32,-128.593"/>
</g>
<!-- Node14 -->
<g id="node14" class="node"><title>Node14</title>
<polygon fill="none" stroke="#bfbfbf" points="630.198,-112.5 630.198,-131.5 670.198,-131.5 670.198,-112.5 630.198,-112.5"/>
<text text-anchor="middle" x="650.198" y="-119.5" font-family="Helvetica,sans-Serif" font-size="10.00">poll.h</text>
</g>
<!-- Node4&#45;&gt;Node14 -->
<g id="edge14" class="edge"><title>Node4&#45;&gt;Node14</title>
<path fill="none" stroke="midnightblue" d="M801.221,-168.47C772.762,-160.069 727.86,-146.754 680.327,-132.321"/>
<polygon fill="midnightblue" stroke="midnightblue" points="681.056,-128.884 670.47,-129.323 679.019,-135.582 681.056,-128.884"/>
</g>
<!-- Node15 -->
<g id="node15" class="node"><title>Node15</title>
<polygon fill="none" stroke="#bfbfbf" points="688.198,-112.5 688.198,-131.5 738.198,-131.5 738.198,-112.5 688.198,-112.5"/>
<text text-anchor="middle" x="713.198" y="-119.5" font-family="Helvetica,sans-Serif" font-size="10.00">signal.h</text>
</g>
<!-- Node4&#45;&gt;Node15 -->
<g id="edge15" class="edge"><title>Node4&#45;&gt;Node15</title>
<path fill="none" stroke="midnightblue" d="M811.659,-168.444C792.575,-159.636 762.623,-145.812 740.762,-135.722"/>
<polygon fill="midnightblue" stroke="midnightblue" points="742.197,-132.529 731.65,-131.516 739.263,-138.885 742.197,-132.529"/>
</g>
<!-- Node16 -->
<g id="node16" class="node"><title>Node16</title>
<g id="a_node16"><a xlink:href="../../d9/d49/types_8h.html" target="_top" xlink:title="utils/types.h">
<polygon fill="none" stroke="black" points="756.198,-112.5 756.198,-131.5 826.198,-131.5 826.198,-112.5 756.198,-112.5"/>
<text text-anchor="middle" x="791.198" y="-119.5" font-family="Helvetica,sans-Serif" font-size="10.00">utils/types.h</text>
</a>
</g>
</g>
<!-- Node4&#45;&gt;Node16 -->
<g id="edge16" class="edge"><title>Node4&#45;&gt;Node16</title>
<path fill="none" stroke="midnightblue" d="M823.758,-168.083C818.249,-160.455 810.167,-149.264 803.433,-139.941"/>
<polygon fill="midnightblue" stroke="midnightblue" points="806.211,-137.809 797.518,-131.751 800.536,-141.907 806.211,-137.809"/>
</g>
<!-- Node17 -->
<g id="node17" class="node"><title>Node17</title>
<g id="a_node17"><a xlink:href="../../d0/d9b/enum_8h.html" target="_top" xlink:title="enum.h">
<polygon fill="none" stroke="black" points="844.698,-112.5 844.698,-131.5 893.698,-131.5 893.698,-112.5 844.698,-112.5"/>
<text text-anchor="middle" x="869.198" y="-119.5" font-family="Helvetica,sans-Serif" font-size="10.00">enum.h</text>
</a>
</g>
</g>
<!-- Node4&#45;&gt;Node17 -->
<g id="edge17" class="edge"><title>Node4&#45;&gt;Node17</title>
<path fill="none" stroke="midnightblue" d="M836.638,-168.083C842.147,-160.455 850.229,-149.264 856.963,-139.941"/>
<polygon fill="midnightblue" stroke="midnightblue" points="859.86,-141.907 862.878,-131.751 854.185,-137.809 859.86,-141.907"/>
</g>
<!-- Node18 -->
<g id="node18" class="node"><title>Node18</title>
<g id="a_node18"><a xlink:href="../../d8/d19/atomics_8h.html" target="_top" xlink:title="utils/atomics.h">
<polygon fill="none" stroke="black" points="912.198,-112.5 912.198,-131.5 992.198,-131.5 992.198,-112.5 912.198,-112.5"/>
<text text-anchor="middle" x="952.198" y="-119.5" font-family="Helvetica,sans-Serif" font-size="10.00">utils/atomics.h</text>
</a>
</g>
</g>
<!-- Node4&#45;&gt;Node18 -->
<g id="edge19" class="edge"><title>Node4&#45;&gt;Node18</title>
<path fill="none" stroke="midnightblue" d="M849.529,-168.444C869.518,-159.596 900.941,-145.687 923.762,-135.586"/>
<polygon fill="midnightblue" stroke="midnightblue" points="925.229,-138.764 932.957,-131.516 922.396,-132.363 925.229,-138.764"/>
</g>
<!-- Node19 -->
<g id="node19" class="node"><title>Node19</title>
<g id="a_node19"><a xlink:href="../../d1/ddf/align_8h.html" target="_top" xlink:title="utils/align.h">
<polygon fill="none" stroke="black" points="1010.2,-112.5 1010.2,-131.5 1076.2,-131.5 1076.2,-112.5 1010.2,-112.5"/>
<text text-anchor="middle" x="1043.2" y="-119.5" font-family="Helvetica,sans-Serif" font-size="10.00">utils/align.h</text>
</a>
</g>
</g>
<!-- Node4&#45;&gt;Node19 -->
<g id="edge20" class="edge"><title>Node4&#45;&gt;Node19</title>
<path fill="none" stroke="midnightblue" d="M862.548,-168.799C899.348,-159.469 959.595,-144.195 1000.29,-133.877"/>
<polygon fill="midnightblue" stroke="midnightblue" points="1001.36,-137.218 1010.19,-131.368 999.639,-130.432 1001.36,-137.218"/>
</g>
<!-- Node20 -->
<g id="node20" class="node"><title>Node20</title>
<g id="a_node20"><a xlink:href="../../d5/d17/byteorder_8h.html" target="_top" xlink:title="utils/byteorder.h">
<polygon fill="none" stroke="black" points="1094.2,-112.5 1094.2,-131.5 1180.2,-131.5 1180.2,-112.5 1094.2,-112.5"/>
<text text-anchor="middle" x="1137.2" y="-119.5" font-family="Helvetica,sans-Serif" font-size="10.00">utils/byteorder.h</text>
</a>
</g>
</g>
<!-- Node4&#45;&gt;Node20 -->
<g id="edge21" class="edge"><title>Node4&#45;&gt;Node20</title>
<path fill="none" stroke="midnightblue" d="M862.396,-169.775C865.368,-169.155 868.336,-168.554 871.198,-168 962.741,-150.264 988.437,-148.338 1083.97,-132.195"/>
<polygon fill="midnightblue" stroke="midnightblue" points="1084.8,-135.606 1094.07,-130.48 1083.63,-128.704 1084.8,-135.606"/>
</g>
<!-- Node21 -->
<g id="node21" class="node"><title>Node21</title>
<g id="a_node21"><a xlink:href="../../dc/d18/memory_8h.html" target="_top" xlink:title="utils/memory.h">
<polygon fill="none" stroke="black" points="1198.7,-112.5 1198.7,-131.5 1279.7,-131.5 1279.7,-112.5 1198.7,-112.5"/>
<text text-anchor="middle" x="1239.2" y="-119.5" font-family="Helvetica,sans-Serif" font-size="10.00">utils/memory.h</text>
</a>
</g>
</g>
<!-- Node4&#45;&gt;Node21 -->
<g id="edge22" class="edge"><title>Node4&#45;&gt;Node21</title>
<path fill="none" stroke="midnightblue" d="M862.366,-169.609C865.344,-169.025 868.322,-168.477 871.198,-168 1008.36,-145.244 1046.75,-152.271 1188.63,-131.984"/>
<polygon fill="midnightblue" stroke="midnightblue" points="1189.18,-135.44 1198.58,-130.541 1188.18,-128.513 1189.18,-135.44"/>
</g>
<!-- Node22 -->
<g id="node22" class="node"><title>Node22</title>
<g id="a_node22"><a xlink:href="../../d9/dd1/strerror_8h.html" target="_top" xlink:title="utils/strerror.h">
<polygon fill="none" stroke="black" points="1297.7,-112.5 1297.7,-131.5 1374.7,-131.5 1374.7,-112.5 1297.7,-112.5"/>
<text text-anchor="middle" x="1336.2" y="-119.5" font-family="Helvetica,sans-Serif" font-size="10.00">utils/strerror.h</text>
</a>
</g>
</g>
<!-- Node4&#45;&gt;Node22 -->
<g id="edge23" class="edge"><title>Node4&#45;&gt;Node22</title>
<path fill="none" stroke="midnightblue" d="M862.353,-169.528C865.334,-168.96 868.316,-168.439 871.198,-168 1051.87,-140.491 1102.13,-156.582 1287.4,-131.962"/>
<polygon fill="midnightblue" stroke="midnightblue" points="1288.04,-135.408 1297.48,-130.601 1287.1,-128.471 1288.04,-135.408"/>
</g>
<!-- Node23 -->
<g id="node23" class="node"><title>Node23</title>
<g id="a_node23"><a xlink:href="../../d1/d13/status_8h.html" target="_top" xlink:title="utils/status.h">
<polygon fill="none" stroke="black" points="1392.7,-112.5 1392.7,-131.5 1465.7,-131.5 1465.7,-112.5 1392.7,-112.5"/>
<text text-anchor="middle" x="1429.2" y="-119.5" font-family="Helvetica,sans-Serif" font-size="10.00">utils/status.h</text>
</a>
</g>
</g>
<!-- Node4&#45;&gt;Node23 -->
<g id="edge24" class="edge"><title>Node4&#45;&gt;Node23</title>
<path fill="none" stroke="midnightblue" d="M862.346,-169.479C865.328,-168.921 868.313,-168.416 871.198,-168 1093.67,-135.935 1155.26,-161.194 1382.37,-131.922"/>
<polygon fill="midnightblue" stroke="midnightblue" points="1383.15,-135.35 1392.61,-130.581 1382.24,-128.41 1383.15,-135.35"/>
</g>
<!-- Node24 -->
<g id="node24" class="node"><title>Node24</title>
<g id="a_node24"><a xlink:href="../../de/d10/object_8h.html" target="_top" xlink:title="utils/object.h">
<polygon fill="none" stroke="black" points="1484.2,-112.5 1484.2,-131.5 1556.2,-131.5 1556.2,-112.5 1484.2,-112.5"/>
<text text-anchor="middle" x="1520.2" y="-119.5" font-family="Helvetica,sans-Serif" font-size="10.00">utils/object.h</text>
</a>
</g>
</g>
<!-- Node4&#45;&gt;Node24 -->
<g id="edge25" class="edge"><title>Node4&#45;&gt;Node24</title>
<path fill="none" stroke="midnightblue" d="M862.341,-169.446C865.325,-168.896 868.311,-168.401 871.198,-168 1137.13,-131.105 1207.86,-165.851 1474.2,-132 1474.3,-131.987 1474.4,-131.974 1474.5,-131.961"/>
<polygon fill="midnightblue" stroke="midnightblue" points="1474.74,-135.465 1484.11,-130.533 1473.71,-128.541 1474.74,-135.465"/>
</g>
<!-- Node25 -->
<g id="node25" class="node"><title>Node25</title>
<g id="a_node25"><a xlink:href="../../d7/dd4/path_8h.html" target="_top" xlink:title="utils/path.h">
<polygon fill="none" stroke="black" points="1574.7,-112.5 1574.7,-131.5 1639.7,-131.5 1639.7,-112.5 1574.7,-112.5"/>
<text text-anchor="middle" x="1607.2" y="-119.5" font-family="Helvetica,sans-Serif" font-size="10.00">utils/path.h</text>
</a>
</g>
</g>
<!-- Node4&#45;&gt;Node25 -->
<g id="edge26" class="edge"><title>Node4&#45;&gt;Node25</title>
<path fill="none" stroke="midnightblue" d="M862.338,-169.422C865.322,-168.877 868.309,-168.389 871.198,-168 1174,-127.193 1257.22,-171.513 1564.19,-131.895"/>
<polygon fill="midnightblue" stroke="midnightblue" points="1564.81,-135.344 1574.27,-130.574 1563.9,-128.403 1564.81,-135.344"/>
</g>
<!-- Node26 -->
<g id="node26" class="node"><title>Node26</title>
<g id="a_node26"><a xlink:href="../../de/df7/time_8h.html" target="_top" xlink:title="utils/time.h">
<polygon fill="none" stroke="black" points="1657.7,-112.5 1657.7,-131.5 1722.7,-131.5 1722.7,-112.5 1657.7,-112.5"/>
<text text-anchor="middle" x="1690.2" y="-119.5" font-family="Helvetica,sans-Serif" font-size="10.00">utils/time.h</text>
</a>
</g>
</g>
<!-- Node4&#45;&gt;Node26 -->
<g id="edge27" class="edge"><title>Node4&#45;&gt;Node26</title>
<path fill="none" stroke="midnightblue" d="M862.336,-169.405C865.32,-168.863 868.308,-168.381 871.198,-168 1210.67,-123.207 1303.59,-175.356 1647.29,-131.873"/>
<polygon fill="midnightblue" stroke="midnightblue" points="1647.8,-135.336 1657.27,-130.592 1646.91,-128.393 1647.8,-135.336"/>
</g>
<!-- Node27 -->
<g id="node27" class="node"><title>Node27</title>
<g id="a_node27"><a xlink:href="../../dd/d71/tty_8h.html" target="_top" xlink:title="utils/tty.h">
<polygon fill="none" stroke="black" points="1740.7,-112.5 1740.7,-131.5 1797.7,-131.5 1797.7,-112.5 1740.7,-112.5"/>
<text text-anchor="middle" x="1769.2" y="-119.5" font-family="Helvetica,sans-Serif" font-size="10.00">utils/tty.h</text>
</a>
</g>
</g>
<!-- Node4&#45;&gt;Node27 -->
<g id="edge28" class="edge"><title>Node4&#45;&gt;Node27</title>
<path fill="none" stroke="midnightblue" d="M862.334,-169.391C865.319,-168.852 868.307,-168.375 871.198,-168 1247.24,-119.234 1350.43,-183.178 1730.5,-131.767"/>
<polygon fill="midnightblue" stroke="midnightblue" points="1731.24,-135.197 1740.67,-130.372 1730.29,-128.262 1731.24,-135.197"/>
</g>
<!-- Node17&#45;&gt;Node2 -->
<g id="edge18" class="edge"><title>Node17&#45;&gt;Node2</title>
<path fill="none" stroke="midnightblue" d="M869.198,-112.083C869.198,-105.006 869.198,-94.8611 869.198,-85.9865"/>
<polygon fill="midnightblue" stroke="midnightblue" points="872.698,-85.751 869.198,-75.7511 865.698,-85.7511 872.698,-85.751"/>
</g>
<!-- Node28&#45;&gt;Node4 -->
<g id="edge31" class="edge"><title>Node28&#45;&gt;Node4</title>
<path fill="none" stroke="midnightblue" d="M833.537,-224.083C833.013,-217.006 832.262,-206.861 831.604,-197.986"/>
<polygon fill="midnightblue" stroke="midnightblue" points="835.075,-197.465 830.846,-187.751 828.095,-197.982 835.075,-197.465"/>
</g>
<!-- Node28&#45;&gt;Node29 -->
<g id="edge30" class="edge"><title>Node28&#45;&gt;Node29</title>
<path fill="none" stroke="midnightblue" d="M845.284,-224.324C855.684,-216.185 871.459,-203.839 883.92,-194.087"/>
<polygon fill="midnightblue" stroke="midnightblue" points="886.192,-196.753 891.91,-187.834 881.878,-191.241 886.192,-196.753"/>
</g>
</g>
</svg>
