<?xml version="1.0" encoding="UTF-8" standalone="no"?>
<!DOCTYPE svg PUBLIC "-//W3C//DTD SVG 1.1//EN"
 "http://www.w3.org/Graphics/SVG/1.1/DTD/svg11.dtd">
<!-- Generated by graphviz version 2.36.0 (20140111.2315)
 -->
<!-- Title: private_openssl_x509_t Pages: 1 -->
<svg width="573pt" height="208pt"
 viewBox="0.00 0.00 573.00 208.00" xmlns="http://www.w3.org/2000/svg" xmlns:xlink="http://www.w3.org/1999/xlink">
<g id="graph0" class="graph" transform="scale(1 1) rotate(0) translate(4 204)">
<title>private_openssl_x509_t</title>
<!-- Node1 -->
<g id="node1" class="node"><title>Node1</title>
<polygon fill="#bfbfbf" stroke="black" points="249.5,-0.5 249.5,-19.5 368.5,-19.5 368.5,-0.5 249.5,-0.5"/>
<text text-anchor="middle" x="309" y="-7.5" font-family="Helvetica,sans-Serif" font-size="10.00">private_openssl_x509_t</text>
</g>
<!-- Node2 -->
<g id="node2" class="node"><title>Node2</title>
<g id="a_node2"><a xlink:href="../../d6/d02/structidentification__t.html" target="_top" xlink:title="identification_t">
<polygon fill="none" stroke="black" points="61,-112.5 61,-131.5 141,-131.5 141,-112.5 61,-112.5"/>
<text text-anchor="middle" x="101" y="-119.5" font-family="Helvetica,sans-Serif" font-size="10.00">identification_t</text>
</a>
</g>
</g>
<!-- Node2&#45;&gt;Node1 -->
<g id="edge1" class="edge"><title>Node2&#45;&gt;Node1</title>
<path fill="none" stroke="#9a32cd" stroke-dasharray="5,2" d="M116.998,-105.396C136.952,-86.7635 172.861,-55.8815 209,-38 225.682,-29.7458 245.22,-23.7526 262.579,-19.5414"/>
<polygon fill="#9a32cd" stroke="#9a32cd" points="114.537,-102.906 109.7,-112.333 119.36,-107.98 114.537,-102.906"/>
<text text-anchor="middle" x="225" y="-69" font-family="Helvetica,sans-Serif" font-size="10.00"> issuer</text>
<text text-anchor="middle" x="225" y="-58" font-family="Helvetica,sans-Serif" font-size="10.00">subject</text>
</g>
<!-- Node2&#45;&gt;Node2 -->
<g id="edge2" class="edge"><title>Node2&#45;&gt;Node2</title>
<path fill="none" stroke="#9a32cd" stroke-dasharray="5,2" d="M151.265,-127.122C156.005,-126.073 159,-124.366 159,-122 159,-118.215 151.332,-116.115 141.119,-115.701"/>
<polygon fill="#9a32cd" stroke="#9a32cd" points="150.649,-123.67 141.119,-128.299 151.455,-130.623 150.649,-123.67"/>
<text text-anchor="middle" x="172.5" y="-119.5" font-family="Helvetica,sans-Serif" font-size="10.00"> clone</text>
</g>
<!-- Node3 -->
<g id="node3" class="node"><title>Node3</title>
<g id="a_node3"><a xlink:href="../../d0/d14/structchunk__t.html" target="_top" xlink:title="chunk_t">
<polygon fill="none" stroke="black" points="-0.5,-180.5 -0.5,-199.5 50.5,-199.5 50.5,-180.5 -0.5,-180.5"/>
<text text-anchor="middle" x="25" y="-187.5" font-family="Helvetica,sans-Serif" font-size="10.00">chunk_t</text>
</a>
</g>
</g>
<!-- Node3&#45;&gt;Node2 -->
<g id="edge3" class="edge"><title>Node3&#45;&gt;Node2</title>
<path fill="none" stroke="#9a32cd" stroke-dasharray="5,2" d="M26.848,-170.066C28.3643,-163.078 31.096,-155.524 36,-150 43.5445,-141.501 54.1858,-135.614 64.678,-131.563"/>
<polygon fill="#9a32cd" stroke="#9a32cd" points="23.3484,-169.803 25.3279,-180.211 30.2712,-170.84 23.3484,-169.803"/>
<text text-anchor="middle" x="66.5" y="-153.5" font-family="Helvetica,sans-Serif" font-size="10.00"> get_encoding</text>
</g>
<!-- Node4 -->
<g id="node4" class="node"><title>Node4</title>
<g id="a_node4"><a xlink:href="../../db/dd3/structenumerator__t.html" target="_top" xlink:title="enumerator_t">
<polygon fill="none" stroke="black" points="136,-180.5 136,-199.5 210,-199.5 210,-180.5 136,-180.5"/>
<text text-anchor="middle" x="173" y="-187.5" font-family="Helvetica,sans-Serif" font-size="10.00">enumerator_t</text>
</a>
</g>
</g>
<!-- Node4&#45;&gt;Node2 -->
<g id="edge4" class="edge"><title>Node4&#45;&gt;Node2</title>
<path fill="none" stroke="#9a32cd" stroke-dasharray="5,2" d="M126.445,-177.79C118.594,-173.967 111.289,-168.849 106,-162 99.3241,-153.356 99.04,-140.282 99.7657,-131.693"/>
<polygon fill="#9a32cd" stroke="#9a32cd" points="125.246,-181.083 135.823,-181.709 127.946,-174.624 125.246,-181.083"/>
<text text-anchor="middle" x="159" y="-153.5" font-family="Helvetica,sans-Serif" font-size="10.00"> create_part_enumerator</text>
</g>
<!-- Node6 -->
<g id="node6" class="node"><title>Node6</title>
<g id="a_node6"><a xlink:href="../../dc/de6/structlinked__list__t.html" target="_top" xlink:title="linked_list_t">
<polygon fill="none" stroke="black" points="204,-112.5 204,-131.5 272,-131.5 272,-112.5 204,-112.5"/>
<text text-anchor="middle" x="238" y="-119.5" font-family="Helvetica,sans-Serif" font-size="10.00">linked_list_t</text>
</a>
</g>
</g>
<!-- Node4&#45;&gt;Node6 -->
<g id="edge8" class="edge"><title>Node4&#45;&gt;Node6</title>
<path fill="none" stroke="#9a32cd" stroke-dasharray="5,2" d="M199.7,-175.126C205.492,-171.361 211.288,-166.939 216,-162 224.586,-153 231.033,-140.016 234.661,-131.543"/>
<polygon fill="#9a32cd" stroke="#9a32cd" points="197.536,-172.342 190.755,-180.482 201.133,-178.347 197.536,-172.342"/>
<text text-anchor="middle" x="267.5" y="-153.5" font-family="Helvetica,sans-Serif" font-size="10.00"> create_enumerator</text>
</g>
<!-- Node5 -->
<g id="node5" class="node"><title>Node5</title>
<polygon fill="none" stroke="#bfbfbf" points="365.5,-112.5 365.5,-131.5 406.5,-131.5 406.5,-112.5 365.5,-112.5"/>
<text text-anchor="middle" x="386" y="-119.5" font-family="Helvetica,sans-Serif" font-size="10.00">struct</text>
</g>
<!-- Node5&#45;&gt;Node1 -->
<g id="edge5" class="edge"><title>Node5&#45;&gt;Node1</title>
<path fill="none" stroke="#9a32cd" stroke-dasharray="5,2" d="M374.397,-103.537C372.498,-100.414 370.624,-97.1513 369,-94 356.675,-70.0824 362.604,-59.1722 346,-38 340.209,-30.6163 331.896,-24.3029 324.616,-19.642"/>
<polygon fill="#9a32cd" stroke="#9a32cd" points="371.609,-105.676 379.936,-112.227 377.512,-101.913 371.609,-105.676"/>
<text text-anchor="middle" x="412.5" y="-85.5" font-family="Helvetica,sans-Serif" font-size="10.00"> authKeyIdentifier</text>
<text text-anchor="middle" x="412.5" y="-74.5" font-family="Helvetica,sans-Serif" font-size="10.00">public</text>
<text text-anchor="middle" x="412.5" y="-63.5" font-family="Helvetica,sans-Serif" font-size="10.00">encoding</text>
<text text-anchor="middle" x="412.5" y="-52.5" font-family="Helvetica,sans-Serif" font-size="10.00">subjectKeyIdentifier</text>
<text text-anchor="middle" x="412.5" y="-41.5" font-family="Helvetica,sans-Serif" font-size="10.00">hash</text>
</g>
<!-- Node6&#45;&gt;Node1 -->
<g id="edge6" class="edge"><title>Node6&#45;&gt;Node1</title>
<path fill="none" stroke="#9a32cd" stroke-dasharray="5,2" d="M241.762,-102.593C246.15,-84.6425 254.817,-57.2985 270,-38 275.907,-30.4923 284.468,-24.2448 292.065,-19.6569"/>
<polygon fill="#9a32cd" stroke="#9a32cd" points="238.335,-101.877 239.562,-112.401 245.166,-103.409 238.335,-101.877"/>
<text text-anchor="middle" x="308" y="-85.5" font-family="Helvetica,sans-Serif" font-size="10.00"> ocsp_uris</text>
<text text-anchor="middle" x="308" y="-74.5" font-family="Helvetica,sans-Serif" font-size="10.00">subjectAltNames</text>
<text text-anchor="middle" x="308" y="-63.5" font-family="Helvetica,sans-Serif" font-size="10.00">crl_uris</text>
<text text-anchor="middle" x="308" y="-52.5" font-family="Helvetica,sans-Serif" font-size="10.00">issuerAltNames</text>
<text text-anchor="middle" x="308" y="-41.5" font-family="Helvetica,sans-Serif" font-size="10.00">ipAddrBlocks</text>
</g>
<!-- Node6&#45;&gt;Node6 -->
<g id="edge7" class="edge"><title>Node6&#45;&gt;Node6</title>
<path fill="none" stroke="#9a32cd" stroke-dasharray="5,2" d="M282.148,-127.333C286.925,-126.309 290,-124.532 290,-122 290,-117.949 282.127,-115.829 272.008,-115.639"/>
<polygon fill="#9a32cd" stroke="#9a32cd" points="281.604,-123.87 272.008,-128.361 282.311,-130.834 281.604,-123.87"/>
<text text-anchor="middle" x="318.5" y="-119.5" font-family="Helvetica,sans-Serif" font-size="10.00"> clone_offset</text>
</g>
<!-- Node7 -->
<g id="node7" class="node"><title>Node7</title>
<g id="a_node7"><a xlink:href="../../d0/d6f/structpublic__key__t.html" target="_top" xlink:title="public_key_t">
<polygon fill="none" stroke="black" points="442.5,-112.5 442.5,-131.5 513.5,-131.5 513.5,-112.5 442.5,-112.5"/>
<text text-anchor="middle" x="478" y="-119.5" font-family="Helvetica,sans-Serif" font-size="10.00">public_key_t</text>
</a>
</g>
</g>
<!-- Node7&#45;&gt;Node1 -->
<g id="edge9" class="edge"><title>Node7&#45;&gt;Node1</title>
<path fill="none" stroke="#9a32cd" stroke-dasharray="5,2" d="M478.452,-102.367C477.839,-83.3709 473.752,-54.4275 456,-38 443.24,-26.1921 403.562,-19.348 368.642,-15.5063"/>
<polygon fill="#9a32cd" stroke="#9a32cd" points="474.952,-102.482 478.482,-112.471 481.952,-102.461 474.952,-102.482"/>
<text text-anchor="middle" x="494.5" y="-63.5" font-family="Helvetica,sans-Serif" font-size="10.00"> pubkey</text>
</g>
<!-- Node7&#45;&gt;Node7 -->
<g id="edge10" class="edge"><title>Node7&#45;&gt;Node7</title>
<path fill="none" stroke="#9a32cd" stroke-dasharray="5,2" d="M523.812,-127.151C528.212,-126.104 531,-124.388 531,-122 531,-118.082 523.493,-115.97 513.669,-115.664"/>
<polygon fill="#9a32cd" stroke="#9a32cd" points="523.195,-123.699 513.669,-128.336 524.008,-130.651 523.195,-123.699"/>
<text text-anchor="middle" x="548" y="-119.5" font-family="Helvetica,sans-Serif" font-size="10.00"> get_ref</text>
</g>
</g>
</svg>
