<?xml version="1.0" encoding="UTF-8" standalone="no"?>
<!DOCTYPE svg PUBLIC "-//W3C//DTD SVG 1.1//EN"
 "http://www.w3.org/Graphics/SVG/1.1/DTD/svg11.dtd">
<!-- Generated by graphviz version 2.36.0 (20140111.2315)
 -->
<!-- Title: plugin_feature_hash Pages: 1 -->
<!--zoomable 142 -->
<svg id="main" version="1.1" xmlns="http://www.w3.org/2000/svg" xmlns:xlink="http://www.w3.org/1999/xlink" xml:space="preserve" onload="init(evt)">
<style type="text/css"><![CDATA[
.edge:hover path { stroke: red; }
.edge:hover polygon { stroke: red; fill: red; }
]]></style>
<script type="text/javascript"><![CDATA[
var edges = document.getElementsByTagName('g');
if (edges && edges.length) {
  for (var i=0;i<edges.length;i++) {
    if (edges[i].id.substr(0,4)=='edge') {
      edges[i].setAttribute('class','edge');
    }
  }
}
]]></script>
        <defs>
                <circle id="rim" cx="0" cy="0" r="7"/>
                <circle id="rim2" cx="0" cy="0" r="3.5"/>
                <g id="zoomPlus">
                        <use xlink:href="#rim" fill="#404040">
                                <set attributeName="fill" to="#808080" begin="zoomplus.mouseover" end="zoomplus.mouseout"/>
                        </use>
                        <path d="M-4,0h8M0,-4v8" fill="none" stroke="white" stroke-width="1.5" pointer-events="none"/>
                </g>
                <g id="zoomMin">
                        <use xlink:href="#rim" fill="#404040">
                                <set attributeName="fill" to="#808080" begin="zoomminus.mouseover" end="zoomminus.mouseout"/>
                        </use>
                        <path d="M-4,0h8" fill="none" stroke="white" stroke-width="1.5" pointer-events="none"/>
                </g>
                <g id="dirArrow">
                        <path fill="none" stroke="white" stroke-width="1.5" d="M0,-3.0v7 M-2.5,-0.5L0,-3.0L2.5,-0.5"/>
                </g>
               <g id="resetDef">
                       <use xlink:href="#rim2" fill="#404040">
                               <set attributeName="fill" to="#808080" begin="reset.mouseover" end="reset.mouseout"/>
                       </use>
               </g>
        </defs>

<script type="text/javascript">
var viewWidth = 758;
var viewHeight = 142;
var sectionId = 'dynsection-5';
</script>
<script xlink:href="../../svgpan.js"/>
<svg id="graph" class="graph">
<g id="viewport">
<title>plugin_feature_hash</title>
<!-- Node1 -->
<g id="node1" class="node"><title>Node1</title>
<polygon fill="#bfbfbf" stroke="black" points="0,-76.5 0,-95.5 104,-95.5 104,-76.5 0,-76.5"/>
<text text-anchor="middle" x="52" y="-83.5" font-family="Helvetica,sans-Serif" font-size="10.00">plugin_feature_hash</text>
</g>
<!-- Node2 -->
<g id="node2" class="node"><title>Node2</title>
<g id="a_node2"><a xlink:href="../../d4/d87/group__chunk.html#gad94ca029616a107e89eaa618408fd7b6" target="_top" xlink:title="chunk_create">
<polygon fill="none" stroke="black" points="140.5,-114.5 140.5,-133.5 215.5,-133.5 215.5,-114.5 140.5,-114.5"/>
<text text-anchor="middle" x="178" y="-121.5" font-family="Helvetica,sans-Serif" font-size="10.00">chunk_create</text>
</a>
</g>
</g>
<!-- Node1&#45;&gt;Node2 -->
<g id="edge1" class="edge"><title>Node1&#45;&gt;Node2</title>
<path fill="none" stroke="midnightblue" d="M84.2904,-95.589C100.004,-100.404 119.238,-106.299 136.106,-111.468"/>
<polygon fill="midnightblue" stroke="midnightblue" points="135.133,-114.83 145.72,-114.414 137.184,-108.138 135.133,-114.83"/>
</g>
<!-- Node3 -->
<g id="node3" class="node"><title>Node3</title>
<g id="a_node3"><a xlink:href="../../d4/d87/group__chunk.html#ga714bd1cb9e1f743523c2a58a49f1b6a4" target="_top" xlink:title="chunk_hash">
<polygon fill="none" stroke="black" points="143.5,-76.5 143.5,-95.5 212.5,-95.5 212.5,-76.5 143.5,-76.5"/>
<text text-anchor="middle" x="178" y="-83.5" font-family="Helvetica,sans-Serif" font-size="10.00">chunk_hash</text>
</a>
</g>
</g>
<!-- Node1&#45;&gt;Node3 -->
<g id="edge2" class="edge"><title>Node1&#45;&gt;Node3</title>
<path fill="none" stroke="midnightblue" d="M104.151,-86C113.749,-86 123.704,-86 133.058,-86"/>
<polygon fill="midnightblue" stroke="midnightblue" points="133.314,-89.5001 143.313,-86 133.313,-82.5001 133.314,-89.5001"/>
</g>
<!-- Node11 -->
<g id="node11" class="node"><title>Node11</title>
<g id="a_node11"><a xlink:href="../../d4/d87/group__chunk.html#ga59c607182e7cb24bb0ef4e6eae302bd9" target="_top" xlink:title="chunk_hash_inc">
<polygon fill="none" stroke="black" points="252.5,-38.5 252.5,-57.5 339.5,-57.5 339.5,-38.5 252.5,-38.5"/>
<text text-anchor="middle" x="296" y="-45.5" font-family="Helvetica,sans-Serif" font-size="10.00">chunk_hash_inc</text>
</a>
</g>
</g>
<!-- Node1&#45;&gt;Node11 -->
<g id="edge11" class="edge"><title>Node1&#45;&gt;Node11</title>
<path fill="none" stroke="midnightblue" d="M93.13,-76.4185C107.817,-73.1284 124.606,-69.6186 140,-67 173.83,-61.2453 212.099,-56.5363 242.147,-53.2459"/>
<polygon fill="midnightblue" stroke="midnightblue" points="242.844,-56.6913 252.412,-52.1418 242.095,-49.7314 242.844,-56.6913"/>
</g>
<!-- Node4 -->
<g id="node4" class="node"><title>Node4</title>
<g id="a_node4"><a xlink:href="../../d4/d87/group__chunk.html#gac5619cf208f72c56bf142cbc4378e388" target="_top" xlink:title="chunk_mac">
<polygon fill="none" stroke="black" points="262.5,-76.5 262.5,-95.5 329.5,-95.5 329.5,-76.5 262.5,-76.5"/>
<text text-anchor="middle" x="296" y="-83.5" font-family="Helvetica,sans-Serif" font-size="10.00">chunk_mac</text>
</a>
</g>
</g>
<!-- Node3&#45;&gt;Node4 -->
<g id="edge3" class="edge"><title>Node3&#45;&gt;Node4</title>
<path fill="none" stroke="midnightblue" d="M212.552,-86C224.907,-86 239.073,-86 252.138,-86"/>
<polygon fill="midnightblue" stroke="midnightblue" points="252.323,-89.5001 262.323,-86 252.323,-82.5001 252.323,-89.5001"/>
</g>
<!-- Node5 -->
<g id="node5" class="node"><title>Node5</title>
<g id="a_node5"><a xlink:href="../../d8/d39/chunk_8c.html#a09c1163fbcb7fd5f8dc5652c9083511a" target="_top" xlink:title="chunk_mac_inc">
<polygon fill="none" stroke="black" points="376.5,-57.5 376.5,-76.5 461.5,-76.5 461.5,-57.5 376.5,-57.5"/>
<text text-anchor="middle" x="419" y="-64.5" font-family="Helvetica,sans-Serif" font-size="10.00">chunk_mac_inc</text>
</a>
</g>
</g>
<!-- Node4&#45;&gt;Node5 -->
<g id="edge4" class="edge"><title>Node4&#45;&gt;Node5</title>
<path fill="none" stroke="midnightblue" d="M329.744,-80.8583C340.899,-79.1068 353.661,-77.1029 365.948,-75.1734"/>
<polygon fill="midnightblue" stroke="midnightblue" points="366.776,-78.5863 376.112,-73.5774 365.69,-71.6711 366.776,-78.5863"/>
</g>
<!-- Node6 -->
<g id="node6" class="node"><title>Node6</title>
<g id="a_node6"><a xlink:href="../../d8/d39/chunk_8c.html#ab5aaa633967a7323bfda1d3b7773374e" target="_top" xlink:title="sipcompress">
<polygon fill="none" stroke="black" points="498,-114.5 498,-133.5 570,-133.5 570,-114.5 498,-114.5"/>
<text text-anchor="middle" x="534" y="-121.5" font-family="Helvetica,sans-Serif" font-size="10.00">sipcompress</text>
</a>
</g>
</g>
<!-- Node5&#45;&gt;Node6 -->
<g id="edge5" class="edge"><title>Node5&#45;&gt;Node6</title>
<path fill="none" stroke="midnightblue" d="M438.914,-76.5405C456.921,-85.6239 484.251,-99.4096 504.823,-109.787"/>
<polygon fill="midnightblue" stroke="midnightblue" points="503.52,-113.05 514.025,-114.428 506.673,-106.8 503.52,-113.05"/>
</g>
<!-- Node7 -->
<g id="node7" class="node"><title>Node7</title>
<g id="a_node7"><a xlink:href="../../d8/d39/chunk_8c.html#a9ef077ebff7df5d4b102da51b511e597" target="_top" xlink:title="sipround">
<polygon fill="none" stroke="black" points="606.5,-95.5 606.5,-114.5 659.5,-114.5 659.5,-95.5 606.5,-95.5"/>
<text text-anchor="middle" x="633" y="-102.5" font-family="Helvetica,sans-Serif" font-size="10.00">sipround</text>
</a>
</g>
</g>
<!-- Node5&#45;&gt;Node7 -->
<g id="edge10" class="edge"><title>Node5&#45;&gt;Node7</title>
<path fill="none" stroke="midnightblue" d="M461.631,-74.4622C500.981,-81.5155 559.377,-91.9827 596.557,-98.6471"/>
<polygon fill="midnightblue" stroke="midnightblue" points="595.987,-102.101 606.448,-100.42 597.222,-95.2104 595.987,-102.101"/>
</g>
<!-- Node9 -->
<g id="node9" class="node"><title>Node9</title>
<g id="a_node9"><a xlink:href="../../d8/d39/chunk_8c.html#a740b095c15858f572fbedfe727233276" target="_top" xlink:title="sipget">
<polygon fill="none" stroke="black" points="512.5,-38.5 512.5,-57.5 555.5,-57.5 555.5,-38.5 512.5,-38.5"/>
<text text-anchor="middle" x="534" y="-45.5" font-family="Helvetica,sans-Serif" font-size="10.00">sipget</text>
</a>
</g>
</g>
<!-- Node5&#45;&gt;Node9 -->
<g id="edge8" class="edge"><title>Node5&#45;&gt;Node9</title>
<path fill="none" stroke="midnightblue" d="M461.756,-59.9791C475.214,-57.7162 489.872,-55.2516 502.374,-53.1494"/>
<polygon fill="midnightblue" stroke="midnightblue" points="503.014,-56.591 512.296,-51.4813 501.854,-49.6879 503.014,-56.591"/>
</g>
<!-- Node10 -->
<g id="node10" class="node"><title>Node10</title>
<g id="a_node10"><a xlink:href="../../d8/d39/chunk_8c.html#a16bb91c5f20c585526fb6f76b5ffc6d3" target="_top" xlink:title="siplast">
<polygon fill="none" stroke="black" points="511.5,-0.5 511.5,-19.5 556.5,-19.5 556.5,-0.5 511.5,-0.5"/>
<text text-anchor="middle" x="534" y="-7.5" font-family="Helvetica,sans-Serif" font-size="10.00">siplast</text>
</a>
</g>
</g>
<!-- Node5&#45;&gt;Node10 -->
<g id="edge9" class="edge"><title>Node5&#45;&gt;Node10</title>
<path fill="none" stroke="midnightblue" d="M438.914,-57.4595C456.921,-48.3761 484.251,-34.5904 504.823,-24.2133"/>
<polygon fill="midnightblue" stroke="midnightblue" points="506.673,-27.2004 514.025,-19.5716 503.52,-20.9505 506.673,-27.2004"/>
</g>
<!-- Node6&#45;&gt;Node7 -->
<g id="edge6" class="edge"><title>Node6&#45;&gt;Node7</title>
<path fill="none" stroke="midnightblue" d="M570.019,-117.141C578.678,-115.444 587.96,-113.626 596.635,-111.927"/>
<polygon fill="midnightblue" stroke="midnightblue" points="597.326,-115.358 606.467,-110.001 595.981,-108.489 597.326,-115.358"/>
</g>
<!-- Node8 -->
<g id="node8" class="node"><title>Node8</title>
<g id="a_node8"><a xlink:href="../../d8/d39/chunk_8c.html#a63c97c2d77838dbe2e7876ad6933d602" target="_top" xlink:title="siprotate">
<polygon fill="none" stroke="black" points="696,-95.5 696,-114.5 750,-114.5 750,-95.5 696,-95.5"/>
<text text-anchor="middle" x="723" y="-102.5" font-family="Helvetica,sans-Serif" font-size="10.00">siprotate</text>
</a>
</g>
</g>
<!-- Node7&#45;&gt;Node8 -->
<g id="edge7" class="edge"><title>Node7&#45;&gt;Node8</title>
<path fill="none" stroke="midnightblue" d="M659.927,-105C668.001,-105 677.057,-105 685.704,-105"/>
<polygon fill="midnightblue" stroke="midnightblue" points="685.954,-108.5 695.954,-105 685.954,-101.5 685.954,-108.5"/>
</g>
<!-- Node11&#45;&gt;Node5 -->
<g id="edge12" class="edge"><title>Node11&#45;&gt;Node5</title>
<path fill="none" stroke="midnightblue" d="M339.66,-54.6987C348.169,-56.0349 357.196,-57.4522 365.979,-58.8314"/>
<polygon fill="midnightblue" stroke="midnightblue" points="365.71,-62.332 376.132,-60.4257 366.796,-55.4168 365.71,-62.332"/>
</g>
</g>
</svg>
        <g id="navigator" transform="translate(0 0)" fill="#404254">
                <rect fill="#f2f5e9" fill-opacity="0.5" stroke="#606060" stroke-width=".5" x="0" y="0" width="60" height="60"/>
                <use id="zoomplus" xlink:href="#zoomPlus" x="17" y="9" onmousedown="handleZoom(evt,'in')"/>
                <use id="zoomminus" xlink:href="#zoomMin" x="42" y="9" onmousedown="handleZoom(evt,'out')"/>
                <use id="reset" xlink:href="#resetDef" x="30" y="36" onmousedown="handleReset()"/>
                <g id="arrowUp" xlink:href="#dirArrow" transform="translate(30 24)" onmousedown="handlePan(0,-1)">
                  <use xlink:href="#rim" fill="#404040">
                        <set attributeName="fill" to="#808080" begin="arrowUp.mouseover" end="arrowUp.mouseout"/>
                  </use>
                  <path fill="none" stroke="white" stroke-width="1.5" d="M0,-3.0v7 M-2.5,-0.5L0,-3.0L2.5,-0.5"/>
                </g>
                <g id="arrowRight" xlink:href="#dirArrow" transform="rotate(90) translate(36 -43)" onmousedown="handlePan(1,0)">
                  <use xlink:href="#rim" fill="#404040">
                        <set attributeName="fill" to="#808080" begin="arrowRight.mouseover" end="arrowRight.mouseout"/>
                  </use>
                  <path fill="none" stroke="white" stroke-width="1.5" d="M0,-3.0v7 M-2.5,-0.5L0,-3.0L2.5,-0.5"/>
                </g>
                <g id="arrowDown" xlink:href="#dirArrow" transform="rotate(180) translate(-30 -48)" onmousedown="handlePan(0,1)">
                  <use xlink:href="#rim" fill="#404040">
                        <set attributeName="fill" to="#808080" begin="arrowDown.mouseover" end="arrowDown.mouseout"/>
                  </use>
                  <path fill="none" stroke="white" stroke-width="1.5" d="M0,-3.0v7 M-2.5,-0.5L0,-3.0L2.5,-0.5"/>
                </g>
                <g id="arrowLeft" xlink:href="#dirArrow" transform="rotate(270) translate(-36 17)" onmousedown="handlePan(-1,0)">
                  <use xlink:href="#rim" fill="#404040">
                        <set attributeName="fill" to="#808080" begin="arrowLeft.mouseover" end="arrowLeft.mouseout"/>
                  </use>
                  <path fill="none" stroke="white" stroke-width="1.5" d="M0,-3.0v7 M-2.5,-0.5L0,-3.0L2.5,-0.5"/>
                </g>
        </g>
        <svg viewBox="0 0 15 15" width="100%" height="30px" preserveAspectRatio="xMaxYMin meet">
         <g id="arrow_out" transform="scale(0.3 0.3)">
          <a xlink:href="group__plugin__feature_ga5b7d45520d3b8e5afb6240a1e52ae572_cgraph_org.svg" target="_base">
           <rect id="button" ry="5" rx="5" y="6" x="6" height="38" width="38"
                fill="#f2f5e9" fill-opacity="0.5" stroke="#606060" stroke-width="1.0"/>
           <path id="arrow"
             d="M 11.500037,31.436501 C 11.940474,20.09759 22.043105,11.32322 32.158766,21.979434 L 37.068811,17.246167 C 37.068811,17.246167 37.088388,32 37.088388,32 L 22.160133,31.978069 C 22.160133,31.978069 26.997745,27.140456 26.997745,27.140456 C 18.528582,18.264221 13.291696,25.230495 11.500037,31.436501 z"
             style="fill:#404040;"/>
          </a>
         </g>
        </svg>
</svg>
