<?xml version="1.0" encoding="UTF-8" standalone="no"?>
<!DOCTYPE svg PUBLIC "-//W3C//DTD SVG 1.1//EN"
 "http://www.w3.org/Graphics/SVG/1.1/DTD/svg11.dtd">
<!-- Generated by graphviz version 2.36.0 (20140111.2315)
 -->
<!-- Title: jobs Pages: 1 -->
<svg width="294pt" height="712pt"
 viewBox="0.00 0.00 294.00 712.00" xmlns="http://www.w3.org/2000/svg" xmlns:xlink="http://www.w3.org/1999/xlink">
<g id="graph0" class="graph" transform="scale(1 1) rotate(0) translate(4 708)">
<title>jobs</title>
<!-- Node14 -->
<g id="node1" class="node"><title>Node14</title>
<g id="a_node1"><a xlink:href="../../d4/d29/group__retransmit__job.html" target="_top" xlink:title="retransmit_job">
<polygon fill="none" stroke="black" points="190,-684.5 190,-703.5 268,-703.5 268,-684.5 190,-684.5"/>
<text text-anchor="middle" x="229" y="-691.5" font-family="Helvetica,sans-Serif" font-size="10.00">retransmit_job</text>
</a>
</g>
</g>
<!-- Node16 -->
<g id="node2" class="node"><title>Node16</title>
<g id="a_node2"><a xlink:href="../../dd/dd5/group__roam__job.html" target="_top" xlink:title="roam_job">
<polygon fill="none" stroke="black" points="201,-646.5 201,-665.5 257,-665.5 257,-646.5 201,-646.5"/>
<text text-anchor="middle" x="229" y="-653.5" font-family="Helvetica,sans-Serif" font-size="10.00">roam_job</text>
</a>
</g>
</g>
<!-- Node8 -->
<g id="node3" class="node"><title>Node8</title>
<g id="a_node3"><a xlink:href="../../d3/d39/group__initiate__tasks__job.html" target="_top" xlink:title="initiate_tasks_job">
<polygon fill="none" stroke="black" points="183,-608.5 183,-627.5 275,-627.5 275,-608.5 183,-608.5"/>
<text text-anchor="middle" x="229" y="-615.5" font-family="Helvetica,sans-Serif" font-size="10.00">initiate_tasks_job</text>
</a>
</g>
</g>
<!-- Node20 -->
<g id="node4" class="node"><title>Node20</title>
<g id="a_node4"><a xlink:href="../../dd/d6e/group__update__sa__job.html" target="_top" xlink:title="update_sa_job">
<polygon fill="none" stroke="black" points="189,-570.5 189,-589.5 269,-589.5 269,-570.5 189,-570.5"/>
<text text-anchor="middle" x="229" y="-577.5" font-family="Helvetica,sans-Serif" font-size="10.00">update_sa_job</text>
</a>
</g>
</g>
<!-- Node11 -->
<g id="node5" class="node"><title>Node11</title>
<g id="a_node5"><a xlink:href="../../d8/da6/group__process__message__job.html" target="_top" xlink:title="process_message_job">
<polygon fill="none" stroke="black" points="172,-532.5 172,-551.5 286,-551.5 286,-532.5 172,-532.5"/>
<text text-anchor="middle" x="229" y="-539.5" font-family="Helvetica,sans-Serif" font-size="10.00">process_message_job</text>
</a>
</g>
</g>
<!-- Node5 -->
<g id="node6" class="node"><title>Node5</title>
<g id="a_node6"><a xlink:href="../../d5/d87/group__dpd__timeout__job.html" target="_top" xlink:title="dpd_timeout_job">
<polygon fill="none" stroke="black" points="185,-494.5 185,-513.5 273,-513.5 273,-494.5 185,-494.5"/>
<text text-anchor="middle" x="229" y="-501.5" font-family="Helvetica,sans-Serif" font-size="10.00">dpd_timeout_job</text>
</a>
</g>
</g>
<!-- Node18 -->
<g id="node7" class="node"><title>Node18</title>
<g id="a_node7"><a xlink:href="../../df/d00/group__send__keepalive__job.html" target="_top" xlink:title="send_keepalive_job">
<polygon fill="none" stroke="black" points="178,-456.5 178,-475.5 280,-475.5 280,-456.5 178,-456.5"/>
<text text-anchor="middle" x="229" y="-463.5" font-family="Helvetica,sans-Serif" font-size="10.00">send_keepalive_job</text>
</a>
</g>
</g>
<!-- Node13 -->
<g id="node8" class="node"><title>Node13</title>
<g id="a_node8"><a xlink:href="../../de/d26/group__rekey__ike__sa__job.html" target="_top" xlink:title="rekey_ike_sa_job">
<polygon fill="none" stroke="black" points="183,-418.5 183,-437.5 275,-437.5 275,-418.5 183,-418.5"/>
<text text-anchor="middle" x="229" y="-425.5" font-family="Helvetica,sans-Serif" font-size="10.00">rekey_ike_sa_job</text>
</a>
</g>
</g>
<!-- Node12 -->
<g id="node9" class="node"><title>Node12</title>
<g id="a_node9"><a xlink:href="../../d0/d77/group__rekey__child__sa__job.html" target="_top" xlink:title="rekey_child_sa_job">
<polygon fill="none" stroke="black" points="179,-380.5 179,-399.5 279,-399.5 279,-380.5 179,-380.5"/>
<text text-anchor="middle" x="229" y="-387.5" font-family="Helvetica,sans-Serif" font-size="10.00">rekey_child_sa_job</text>
</a>
</g>
</g>
<!-- Node9 -->
<g id="node10" class="node"><title>Node9</title>
<g id="a_node10"><a xlink:href="../../df/d6b/group__mediation__job.html" target="_top" xlink:title="mediation_job">
<polygon fill="none" stroke="black" points="190.5,-342.5 190.5,-361.5 267.5,-361.5 267.5,-342.5 190.5,-342.5"/>
<text text-anchor="middle" x="229" y="-349.5" font-family="Helvetica,sans-Serif" font-size="10.00">mediation_job</text>
</a>
</g>
</g>
<!-- Node0 -->
<g id="node11" class="node"><title>Node0</title>
<polygon fill="#bfbfbf" stroke="black" points="100.5,-342.5 100.5,-361.5 135.5,-361.5 135.5,-342.5 100.5,-342.5"/>
<text text-anchor="middle" x="118" y="-349.5" font-family="Helvetica,sans-Serif" font-size="10.00">jobs</text>
</g>
<!-- Node0&#45;&gt;Node14 -->
<g id="edge14" class="edge"><title>Node0&#45;&gt;Node14</title>
<path fill="none" stroke="midnightblue" d="M119.647,-371.749C122.093,-434.618 132.737,-628.684 172,-675 176.714,-680.56 183.12,-684.498 189.918,-687.285"/>
<polygon fill="midnightblue" stroke="midnightblue" points="123.139,-371.469 119.281,-361.602 116.144,-371.721 123.139,-371.469"/>
</g>
<!-- Node0&#45;&gt;Node16 -->
<g id="edge16" class="edge"><title>Node0&#45;&gt;Node16</title>
<path fill="none" stroke="midnightblue" d="M120.118,-371.654C123.782,-429.379 137.249,-596.877 172,-637 179.259,-645.381 190.36,-650.072 200.77,-652.695"/>
<polygon fill="midnightblue" stroke="midnightblue" points="123.61,-371.413 119.513,-361.643 116.623,-371.836 123.61,-371.413"/>
</g>
<!-- Node0&#45;&gt;Node8 -->
<g id="edge8" class="edge"><title>Node0&#45;&gt;Node8</title>
<path fill="none" stroke="midnightblue" d="M120.743,-371.737C125.746,-424.134 141.77,-565.052 172,-599 175.482,-602.91 179.799,-606.017 184.481,-608.484"/>
<polygon fill="midnightblue" stroke="midnightblue" points="124.222,-371.346 119.818,-361.71 117.251,-371.989 124.222,-371.346"/>
</g>
<!-- Node0&#45;&gt;Node20 -->
<g id="edge20" class="edge"><title>Node0&#45;&gt;Node20</title>
<path fill="none" stroke="midnightblue" d="M118.168,-371.853C117.565,-412.729 122.07,-506.974 172,-561 176.599,-565.976 182.549,-569.649 188.847,-572.361"/>
<polygon fill="midnightblue" stroke="midnightblue" points="121.667,-371.908 118.44,-361.817 114.67,-371.719 121.667,-371.908"/>
</g>
<!-- Node0&#45;&gt;Node11 -->
<g id="edge11" class="edge"><title>Node0&#45;&gt;Node11</title>
<path fill="none" stroke="midnightblue" d="M119.551,-372.04C121.604,-407.324 130.894,-480.788 172,-523 175.796,-526.898 180.421,-529.997 185.368,-532.46"/>
<polygon fill="midnightblue" stroke="midnightblue" points="123.029,-371.476 119.096,-361.638 116.036,-371.782 123.029,-371.476"/>
</g>
<!-- Node0&#45;&gt;Node5 -->
<g id="edge5" class="edge"><title>Node0&#45;&gt;Node5</title>
<path fill="none" stroke="midnightblue" d="M121.581,-371.594C126.39,-400.38 139.374,-454.031 172,-485 176.095,-488.887 181.016,-491.981 186.218,-494.444"/>
<polygon fill="midnightblue" stroke="midnightblue" points="125.02,-370.924 120.072,-361.556 118.098,-371.965 125.02,-370.924"/>
</g>
<!-- Node0&#45;&gt;Node18 -->
<g id="edge18" class="edge"><title>Node0&#45;&gt;Node18</title>
<path fill="none" stroke="midnightblue" d="M125.001,-371.214C132.629,-392.613 147.792,-426.837 172,-447 176.654,-450.877 182.138,-453.976 187.821,-456.449"/>
<polygon fill="midnightblue" stroke="midnightblue" points="128.273,-369.963 121.774,-361.596 121.637,-372.19 128.273,-369.963"/>
</g>
<!-- Node0&#45;&gt;Node13 -->
<g id="edge13" class="edge"><title>Node0&#45;&gt;Node13</title>
<path fill="none" stroke="midnightblue" d="M131.999,-370.168C141.753,-382.634 156.117,-398.72 172,-409 177.861,-412.793 184.559,-415.912 191.237,-418.447"/>
<polygon fill="midnightblue" stroke="midnightblue" points="134.562,-367.754 125.754,-361.866 128.968,-371.962 134.562,-367.754"/>
</g>
<!-- Node0&#45;&gt;Node12 -->
<g id="edge12" class="edge"><title>Node0&#45;&gt;Node12</title>
<path fill="none" stroke="midnightblue" d="M145.151,-361.475C153.698,-364.545 163.244,-367.945 172,-371 180.918,-374.111 190.659,-377.44 199.479,-380.428"/>
<polygon fill="midnightblue" stroke="midnightblue" points="146.278,-358.161 135.683,-358.063 143.905,-364.746 146.278,-358.161"/>
</g>
<!-- Node0&#45;&gt;Node9 -->
<g id="edge9" class="edge"><title>Node0&#45;&gt;Node9</title>
<path fill="none" stroke="midnightblue" d="M145.609,-352C159.099,-352 175.71,-352 190.474,-352"/>
<polygon fill="midnightblue" stroke="midnightblue" points="145.555,-348.5 135.555,-352 145.555,-355.5 145.555,-348.5"/>
</g>
<!-- Node19 -->
<g id="node12" class="node"><title>Node19</title>
<g id="a_node12"><a xlink:href="../../dd/df9/group__start__action__job.html" target="_top" xlink:title="start_action_job">
<polygon fill="none" stroke="black" points="186,-304.5 186,-323.5 272,-323.5 272,-304.5 186,-304.5"/>
<text text-anchor="middle" x="229" y="-311.5" font-family="Helvetica,sans-Serif" font-size="10.00">start_action_job</text>
</a>
</g>
</g>
<!-- Node0&#45;&gt;Node19 -->
<g id="edge19" class="edge"><title>Node0&#45;&gt;Node19</title>
<path fill="none" stroke="midnightblue" d="M145.151,-342.525C153.698,-339.455 163.244,-336.055 172,-333 180.918,-329.889 190.659,-326.56 199.479,-323.572"/>
<polygon fill="midnightblue" stroke="midnightblue" points="143.905,-339.254 135.683,-345.937 146.278,-345.839 143.905,-339.254"/>
</g>
<!-- Node10 -->
<g id="node13" class="node"><title>Node10</title>
<g id="a_node13"><a xlink:href="../../d7/d92/group__migrate__job.html" target="_top" xlink:title="migrate_job">
<polygon fill="none" stroke="black" points="195.5,-266.5 195.5,-285.5 262.5,-285.5 262.5,-266.5 195.5,-266.5"/>
<text text-anchor="middle" x="229" y="-273.5" font-family="Helvetica,sans-Serif" font-size="10.00">migrate_job</text>
</a>
</g>
</g>
<!-- Node0&#45;&gt;Node10 -->
<g id="edge10" class="edge"><title>Node0&#45;&gt;Node10</title>
<path fill="none" stroke="midnightblue" d="M131.999,-333.832C141.753,-321.366 156.117,-305.28 172,-295 179.067,-290.426 187.353,-286.832 195.351,-284.061"/>
<polygon fill="midnightblue" stroke="midnightblue" points="128.968,-332.038 125.754,-342.134 134.562,-336.246 128.968,-332.038"/>
</g>
<!-- Node7 -->
<g id="node14" class="node"><title>Node7</title>
<g id="a_node14"><a xlink:href="../../da/def/group__initiate__mediation__job.html" target="_top" xlink:title="initiate_mediation_job">
<polygon fill="none" stroke="black" points="174,-228.5 174,-247.5 284,-247.5 284,-228.5 174,-228.5"/>
<text text-anchor="middle" x="229" y="-235.5" font-family="Helvetica,sans-Serif" font-size="10.00">initiate_mediation_job</text>
</a>
</g>
</g>
<!-- Node0&#45;&gt;Node7 -->
<g id="edge7" class="edge"><title>Node0&#45;&gt;Node7</title>
<path fill="none" stroke="midnightblue" d="M125.001,-332.786C132.629,-311.387 147.792,-277.163 172,-257 176.654,-253.123 182.138,-250.024 187.821,-247.551"/>
<polygon fill="midnightblue" stroke="midnightblue" points="121.637,-331.81 121.774,-342.404 128.273,-334.037 121.637,-331.81"/>
</g>
<!-- Node4 -->
<g id="node15" class="node"><title>Node4</title>
<g id="a_node15"><a xlink:href="../../df/ddf/group__delete__child__sa__job.html" target="_top" xlink:title="delete_child_sa_job">
<polygon fill="none" stroke="black" points="178,-190.5 178,-209.5 280,-209.5 280,-190.5 178,-190.5"/>
<text text-anchor="middle" x="229" y="-197.5" font-family="Helvetica,sans-Serif" font-size="10.00">delete_child_sa_job</text>
</a>
</g>
</g>
<!-- Node0&#45;&gt;Node4 -->
<g id="edge4" class="edge"><title>Node0&#45;&gt;Node4</title>
<path fill="none" stroke="midnightblue" d="M121.581,-332.406C126.39,-303.62 139.374,-249.969 172,-219 176.095,-215.113 181.016,-212.019 186.218,-209.556"/>
<polygon fill="midnightblue" stroke="midnightblue" points="118.098,-332.035 120.072,-342.444 125.02,-333.076 118.098,-332.035"/>
</g>
<!-- Node6 -->
<g id="node16" class="node"><title>Node6</title>
<g id="a_node16"><a xlink:href="../../d6/df4/group__inactivity__job.html" target="_top" xlink:title="inactivity_job">
<polygon fill="none" stroke="black" points="192,-152.5 192,-171.5 266,-171.5 266,-152.5 192,-152.5"/>
<text text-anchor="middle" x="229" y="-159.5" font-family="Helvetica,sans-Serif" font-size="10.00">inactivity_job</text>
</a>
</g>
</g>
<!-- Node0&#45;&gt;Node6 -->
<g id="edge6" class="edge"><title>Node0&#45;&gt;Node6</title>
<path fill="none" stroke="midnightblue" d="M119.551,-331.96C121.604,-296.676 130.894,-223.212 172,-181 177.444,-175.41 184.591,-171.464 191.95,-168.68"/>
<polygon fill="midnightblue" stroke="midnightblue" points="116.036,-332.218 119.096,-342.362 123.029,-332.524 116.036,-332.218"/>
</g>
<!-- Node17 -->
<g id="node17" class="node"><title>Node17</title>
<g id="a_node17"><a xlink:href="../../d0/d25/group__send__dpd__job.html" target="_top" xlink:title="send_dpd_job">
<polygon fill="none" stroke="black" points="190.5,-114.5 190.5,-133.5 267.5,-133.5 267.5,-114.5 190.5,-114.5"/>
<text text-anchor="middle" x="229" y="-121.5" font-family="Helvetica,sans-Serif" font-size="10.00">send_dpd_job</text>
</a>
</g>
</g>
<!-- Node0&#45;&gt;Node17 -->
<g id="edge17" class="edge"><title>Node0&#45;&gt;Node17</title>
<path fill="none" stroke="midnightblue" d="M118.168,-332.147C117.565,-291.271 122.07,-197.026 172,-143 176.947,-137.647 183.458,-133.802 190.284,-131.039"/>
<polygon fill="midnightblue" stroke="midnightblue" points="114.67,-332.281 118.44,-342.183 121.667,-332.092 114.67,-332.281"/>
</g>
<!-- Node3 -->
<g id="node18" class="node"><title>Node3</title>
<g id="a_node18"><a xlink:href="../../d6/d75/group__adopt__children__job.html" target="_top" xlink:title="adopt_children_job">
<polygon fill="none" stroke="black" points="180,-76.5 180,-95.5 278,-95.5 278,-76.5 180,-76.5"/>
<text text-anchor="middle" x="229" y="-83.5" font-family="Helvetica,sans-Serif" font-size="10.00">adopt_children_job</text>
</a>
</g>
</g>
<!-- Node0&#45;&gt;Node3 -->
<g id="edge3" class="edge"><title>Node0&#45;&gt;Node3</title>
<path fill="none" stroke="midnightblue" d="M120.743,-332.263C125.746,-279.866 141.77,-138.948 172,-105 175.482,-101.09 179.799,-97.9833 184.481,-95.5158"/>
<polygon fill="midnightblue" stroke="midnightblue" points="117.251,-332.011 119.818,-342.29 124.222,-332.654 117.251,-332.011"/>
</g>
<!-- Node2 -->
<g id="node19" class="node"><title>Node2</title>
<g id="a_node19"><a xlink:href="../../d1/d5b/group__acquire__job.html" target="_top" xlink:title="acquire_job">
<polygon fill="none" stroke="black" points="196,-38.5 196,-57.5 262,-57.5 262,-38.5 196,-38.5"/>
<text text-anchor="middle" x="229" y="-45.5" font-family="Helvetica,sans-Serif" font-size="10.00">acquire_job</text>
</a>
</g>
</g>
<!-- Node0&#45;&gt;Node2 -->
<g id="edge2" class="edge"><title>Node0&#45;&gt;Node2</title>
<path fill="none" stroke="midnightblue" d="M120.118,-332.346C123.782,-274.621 137.249,-107.123 172,-67 178.117,-59.938 186.961,-55.4959 195.82,-52.7033"/>
<polygon fill="midnightblue" stroke="midnightblue" points="116.623,-332.164 119.513,-342.357 123.61,-332.587 116.623,-332.164"/>
</g>
<!-- Node15 -->
<g id="node20" class="node"><title>Node15</title>
<g id="a_node20"><a xlink:href="../../da/d73/group__retry__initiate__job.html" target="_top" xlink:title="retry_initiate_job">
<polygon fill="none" stroke="black" points="185,-0.5 185,-19.5 273,-19.5 273,-0.5 185,-0.5"/>
<text text-anchor="middle" x="229" y="-7.5" font-family="Helvetica,sans-Serif" font-size="10.00">retry_initiate_job</text>
</a>
</g>
</g>
<!-- Node0&#45;&gt;Node15 -->
<g id="edge15" class="edge"><title>Node0&#45;&gt;Node15</title>
<path fill="none" stroke="midnightblue" d="M119.647,-332.251C122.093,-269.382 132.737,-75.3161 172,-29 175.519,-24.8494 179.98,-21.603 184.844,-19.0644"/>
<polygon fill="midnightblue" stroke="midnightblue" points="116.144,-332.279 119.281,-342.398 123.139,-332.531 116.144,-332.279"/>
</g>
<!-- Node1 -->
<g id="node21" class="node"><title>Node1</title>
<g id="a_node21"><a xlink:href="../../d1/d68/group__cprocessing.html" target="_top" xlink:title="processing">
<polygon fill="none" stroke="black" points="0,-342.5 0,-361.5 64,-361.5 64,-342.5 0,-342.5"/>
<text text-anchor="middle" x="32" y="-349.5" font-family="Helvetica,sans-Serif" font-size="10.00">processing</text>
</a>
</g>
</g>
<!-- Node1&#45;&gt;Node0 -->
<g id="edge1" class="edge"><title>Node1&#45;&gt;Node0</title>
<path fill="none" stroke="midnightblue" d="M74.4233,-352C83.5023,-352 92.6173,-352 100.071,-352"/>
<polygon fill="midnightblue" stroke="midnightblue" points="74.2785,-348.5 64.2785,-352 74.2785,-355.5 74.2785,-348.5"/>
</g>
</g>
</svg>
