<?xml version="1.0" encoding="UTF-8" standalone="no"?>
<!DOCTYPE svg PUBLIC "-//W3C//DTD SVG 1.1//EN"
 "http://www.w3.org/Graphics/SVG/1.1/DTD/svg11.dtd">
<!-- Generated by graphviz version 2.36.0 (20140111.2315)
 -->
<!-- Title: private_nm_handler_t Pages: 1 -->
<svg width="214pt" height="174pt"
 viewBox="0.00 0.00 214.00 174.00" xmlns="http://www.w3.org/2000/svg" xmlns:xlink="http://www.w3.org/1999/xlink">
<g id="graph0" class="graph" transform="scale(1 1) rotate(0) translate(4 170)">
<title>private_nm_handler_t</title>
<!-- Node1 -->
<g id="node1" class="node"><title>Node1</title>
<polygon fill="#bfbfbf" stroke="black" points="0,-0.5 0,-19.5 110,-19.5 110,-0.5 0,-0.5"/>
<text text-anchor="middle" x="55" y="-7.5" font-family="Helvetica,sans-Serif" font-size="10.00">private_nm_handler_t</text>
</g>
<!-- Node2 -->
<g id="node2" class="node"><title>Node2</title>
<polygon fill="none" stroke="#bfbfbf" points="3.5,-78.5 3.5,-97.5 44.5,-97.5 44.5,-78.5 3.5,-78.5"/>
<text text-anchor="middle" x="24" y="-85.5" font-family="Helvetica,sans-Serif" font-size="10.00">struct</text>
</g>
<!-- Node2&#45;&gt;Node1 -->
<g id="edge1" class="edge"><title>Node2&#45;&gt;Node1</title>
<path fill="none" stroke="#9a32cd" stroke-dasharray="5,2" d="M26.2983,-68.4368C27.9236,-59.0168 30.619,-47.573 35,-38 38.0101,-31.4226 42.7965,-24.8823 46.9323,-19.8864"/>
<polygon fill="#9a32cd" stroke="#9a32cd" points="22.8353,-67.9295 24.8451,-78.332 29.7611,-68.9467 22.8353,-67.9295"/>
<text text-anchor="middle" x="49.5" y="-46.5" font-family="Helvetica,sans-Serif" font-size="10.00"> public</text>
</g>
<!-- Node3 -->
<g id="node3" class="node"><title>Node3</title>
<g id="a_node3"><a xlink:href="../../dc/de6/structlinked__list__t.html" target="_top" xlink:title="linked_list_t">
<polygon fill="none" stroke="black" points="63,-78.5 63,-97.5 131,-97.5 131,-78.5 63,-78.5"/>
<text text-anchor="middle" x="97" y="-85.5" font-family="Helvetica,sans-Serif" font-size="10.00">linked_list_t</text>
</a>
</g>
</g>
<!-- Node3&#45;&gt;Node1 -->
<g id="edge2" class="edge"><title>Node3&#45;&gt;Node1</title>
<path fill="none" stroke="#9a32cd" stroke-dasharray="5,2" d="M87.1198,-69.1216C78.5033,-53.5297 66.3766,-31.5862 59.7617,-19.6165"/>
<polygon fill="#9a32cd" stroke="#9a32cd" points="84.2818,-71.2223 92.1821,-78.2818 90.4085,-67.8365 84.2818,-71.2223"/>
<text text-anchor="middle" x="91" y="-52" font-family="Helvetica,sans-Serif" font-size="10.00"> dns</text>
<text text-anchor="middle" x="91" y="-41" font-family="Helvetica,sans-Serif" font-size="10.00">nbns</text>
</g>
<!-- Node3&#45;&gt;Node3 -->
<g id="edge3" class="edge"><title>Node3&#45;&gt;Node3</title>
<path fill="none" stroke="#9a32cd" stroke-dasharray="5,2" d="M141.148,-93.333C145.925,-92.3094 149,-90.5317 149,-88 149,-83.9492 141.127,-81.8289 131.008,-81.639"/>
<polygon fill="#9a32cd" stroke="#9a32cd" points="140.604,-89.87 131.008,-94.361 141.311,-96.8343 140.604,-89.87"/>
<text text-anchor="middle" x="177.5" y="-85.5" font-family="Helvetica,sans-Serif" font-size="10.00"> clone_offset</text>
</g>
<!-- Node4 -->
<g id="node4" class="node"><title>Node4</title>
<g id="a_node4"><a xlink:href="../../db/dd3/structenumerator__t.html" target="_top" xlink:title="enumerator_t">
<polygon fill="none" stroke="black" points="60,-146.5 60,-165.5 134,-165.5 134,-146.5 60,-146.5"/>
<text text-anchor="middle" x="97" y="-153.5" font-family="Helvetica,sans-Serif" font-size="10.00">enumerator_t</text>
</a>
</g>
</g>
<!-- Node4&#45;&gt;Node3 -->
<g id="edge4" class="edge"><title>Node4&#45;&gt;Node3</title>
<path fill="none" stroke="#9a32cd" stroke-dasharray="5,2" d="M97,-136.041C97,-123.472 97,-107.563 97,-97.8411"/>
<polygon fill="#9a32cd" stroke="#9a32cd" points="93.5001,-136.372 97,-146.372 100.5,-136.372 93.5001,-136.372"/>
<text text-anchor="middle" x="139.5" y="-119.5" font-family="Helvetica,sans-Serif" font-size="10.00"> create_enumerator</text>
</g>
</g>
</svg>
