<?xml version="1.0" encoding="UTF-8" standalone="no"?>
<!DOCTYPE svg PUBLIC "-//W3C//DTD SVG 1.1//EN"
 "http://www.w3.org/Graphics/SVG/1.1/DTD/svg11.dtd">
<!-- Generated by graphviz version 2.36.0 (20140111.2315)
 -->
<!-- Title: get_ptr_end Pages: 1 -->
<svg width="312pt" height="218pt"
 viewBox="0.00 0.00 312.00 218.00" xmlns="http://www.w3.org/2000/svg" xmlns:xlink="http://www.w3.org/1999/xlink">
<g id="graph0" class="graph" transform="scale(1 1) rotate(0) translate(4 214)">
<title>get_ptr_end</title>
<!-- Node1 -->
<g id="node1" class="node"><title>Node1</title>
<polygon fill="#bfbfbf" stroke="black" points="0,-95.5 0,-114.5 68,-114.5 68,-95.5 0,-95.5"/>
<text text-anchor="middle" x="34" y="-102.5" font-family="Helvetica,sans-Serif" font-size="10.00">get_ptr_end</text>
</g>
<!-- Node2 -->
<g id="node2" class="node"><title>Node2</title>
<g id="a_node2"><a xlink:href="../../d9/d6f/bio__reader_8c.html#aaee4b3d7fc46d322265bac1334c09ac8" target="_top" xlink:title="read_data_internal">
<polygon fill="none" stroke="black" points="108,-190.5 108,-209.5 204,-209.5 204,-190.5 108,-190.5"/>
<text text-anchor="middle" x="156" y="-197.5" font-family="Helvetica,sans-Serif" font-size="10.00">read_data_internal</text>
</a>
</g>
</g>
<!-- Node1&#45;&gt;Node2 -->
<g id="edge1" class="edge"><title>Node1&#45;&gt;Node2</title>
<path fill="none" stroke="midnightblue" d="M47.3945,-123.016C59.9224,-140.034 80.7158,-165.236 104,-181 109.555,-184.761 115.952,-187.897 122.296,-190.466"/>
<polygon fill="midnightblue" stroke="midnightblue" points="49.9825,-120.618 41.3215,-114.516 44.2867,-124.687 49.9825,-120.618"/>
</g>
<!-- Node4 -->
<g id="node4" class="node"><title>Node4</title>
<g id="a_node4"><a xlink:href="../../d9/d6f/bio__reader_8c.html#a715a580244b6dec613c981bf32d6fd78" target="_top" xlink:title="read_uint16_internal">
<polygon fill="none" stroke="black" points="104,-152.5 104,-171.5 208,-171.5 208,-152.5 104,-152.5"/>
<text text-anchor="middle" x="156" y="-159.5" font-family="Helvetica,sans-Serif" font-size="10.00">read_uint16_internal</text>
</a>
</g>
</g>
<!-- Node1&#45;&gt;Node4 -->
<g id="edge3" class="edge"><title>Node1&#45;&gt;Node4</title>
<path fill="none" stroke="midnightblue" d="M59.6161,-119.708C72.5852,-127.161 88.8958,-136.073 104,-143 111.386,-146.387 119.565,-149.643 127.171,-152.473"/>
<polygon fill="midnightblue" stroke="midnightblue" points="61.2308,-116.599 50.8282,-114.589 57.7074,-122.647 61.2308,-116.599"/>
</g>
<!-- Node6 -->
<g id="node6" class="node"><title>Node6</title>
<g id="a_node6"><a xlink:href="../../d9/d6f/bio__reader_8c.html#abae7530ad4a307622ec0756ccdc40203" target="_top" xlink:title="read_uint24_internal">
<polygon fill="none" stroke="black" points="104,-114.5 104,-133.5 208,-133.5 208,-114.5 104,-114.5"/>
<text text-anchor="middle" x="156" y="-121.5" font-family="Helvetica,sans-Serif" font-size="10.00">read_uint24_internal</text>
</a>
</g>
</g>
<!-- Node1&#45;&gt;Node6 -->
<g id="edge5" class="edge"><title>Node1&#45;&gt;Node6</title>
<path fill="none" stroke="midnightblue" d="M78.2178,-111.843C86.4327,-113.144 95.1039,-114.516 103.545,-115.853"/>
<polygon fill="midnightblue" stroke="midnightblue" points="78.5325,-108.349 68.1082,-110.242 77.4378,-115.263 78.5325,-108.349"/>
</g>
<!-- Node8 -->
<g id="node8" class="node"><title>Node8</title>
<g id="a_node8"><a xlink:href="../../d9/d6f/bio__reader_8c.html#a1fbb622b37fe77cde41f8e9293d06ad3" target="_top" xlink:title="read_uint32_internal">
<polygon fill="none" stroke="black" points="104,-76.5 104,-95.5 208,-95.5 208,-76.5 104,-76.5"/>
<text text-anchor="middle" x="156" y="-83.5" font-family="Helvetica,sans-Serif" font-size="10.00">read_uint32_internal</text>
</a>
</g>
</g>
<!-- Node1&#45;&gt;Node8 -->
<g id="edge7" class="edge"><title>Node1&#45;&gt;Node8</title>
<path fill="none" stroke="midnightblue" d="M78.2178,-98.1572C86.4327,-96.8565 95.1039,-95.4836 103.545,-94.1471"/>
<polygon fill="midnightblue" stroke="midnightblue" points="77.4378,-94.737 68.1082,-99.7579 78.5325,-101.651 77.4378,-94.737"/>
</g>
<!-- Node10 -->
<g id="node10" class="node"><title>Node10</title>
<g id="a_node10"><a xlink:href="../../d9/d6f/bio__reader_8c.html#a556ea0a363737abf9eac4a40ca5649fc" target="_top" xlink:title="read_uint64_internal">
<polygon fill="none" stroke="black" points="104,-38.5 104,-57.5 208,-57.5 208,-38.5 104,-38.5"/>
<text text-anchor="middle" x="156" y="-45.5" font-family="Helvetica,sans-Serif" font-size="10.00">read_uint64_internal</text>
</a>
</g>
</g>
<!-- Node1&#45;&gt;Node10 -->
<g id="edge9" class="edge"><title>Node1&#45;&gt;Node10</title>
<path fill="none" stroke="midnightblue" d="M59.6161,-90.2916C72.5852,-82.8394 88.8958,-73.9273 104,-67 111.386,-63.6125 119.565,-60.3568 127.171,-57.5265"/>
<polygon fill="midnightblue" stroke="midnightblue" points="57.7074,-87.3529 50.8282,-95.4106 61.2308,-93.4015 57.7074,-87.3529"/>
</g>
<!-- Node12 -->
<g id="node12" class="node"><title>Node12</title>
<g id="a_node12"><a xlink:href="../../d9/d6f/bio__reader_8c.html#a02f481c42910a4da3cda093eb480acec" target="_top" xlink:title="read_uint8_internal">
<polygon fill="none" stroke="black" points="107,-0.5 107,-19.5 205,-19.5 205,-0.5 107,-0.5"/>
<text text-anchor="middle" x="156" y="-7.5" font-family="Helvetica,sans-Serif" font-size="10.00">read_uint8_internal</text>
</a>
</g>
</g>
<!-- Node1&#45;&gt;Node12 -->
<g id="edge11" class="edge"><title>Node1&#45;&gt;Node12</title>
<path fill="none" stroke="midnightblue" d="M47.3945,-86.9839C59.9224,-69.9658 80.7158,-44.7636 104,-29 109.555,-25.2391 115.952,-22.1028 122.296,-19.534"/>
<polygon fill="midnightblue" stroke="midnightblue" points="44.2867,-85.313 41.3215,-95.4845 49.9825,-89.3822 44.2867,-85.313"/>
</g>
<!-- Node3 -->
<g id="node3" class="node"><title>Node3</title>
<g id="a_node3"><a xlink:href="../../d9/d6f/bio__reader_8c.html#aa594739f4ad075e3d55be419aad104c6" target="_top" xlink:title="METHOD">
<polygon fill="none" stroke="black" points="244,-190.5 244,-209.5 304,-209.5 304,-190.5 244,-190.5"/>
<text text-anchor="middle" x="274" y="-197.5" font-family="Helvetica,sans-Serif" font-size="10.00">METHOD</text>
</a>
</g>
</g>
<!-- Node2&#45;&gt;Node3 -->
<g id="edge2" class="edge"><title>Node2&#45;&gt;Node3</title>
<path fill="none" stroke="midnightblue" d="M214.352,-200C224.579,-200 234.832,-200 243.841,-200"/>
<polygon fill="midnightblue" stroke="midnightblue" points="214.182,-196.5 204.182,-200 214.182,-203.5 214.182,-196.5"/>
</g>
<!-- Node5 -->
<g id="node5" class="node"><title>Node5</title>
<g id="a_node5"><a xlink:href="../../d9/d6f/bio__reader_8c.html#a05645625bdc5d988a54b8e4bfa2f2270" target="_top" xlink:title="METHOD">
<polygon fill="none" stroke="black" points="244,-152.5 244,-171.5 304,-171.5 304,-152.5 244,-152.5"/>
<text text-anchor="middle" x="274" y="-159.5" font-family="Helvetica,sans-Serif" font-size="10.00">METHOD</text>
</a>
</g>
</g>
<!-- Node4&#45;&gt;Node5 -->
<g id="edge4" class="edge"><title>Node4&#45;&gt;Node5</title>
<path fill="none" stroke="midnightblue" d="M218.32,-162C227.27,-162 236.113,-162 243.995,-162"/>
<polygon fill="midnightblue" stroke="midnightblue" points="218.217,-158.5 208.217,-162 218.217,-165.5 218.217,-158.5"/>
</g>
<!-- Node7 -->
<g id="node7" class="node"><title>Node7</title>
<g id="a_node7"><a xlink:href="../../d9/d6f/bio__reader_8c.html#a1b91278e1b9177b8ed2a63452005ca14" target="_top" xlink:title="METHOD">
<polygon fill="none" stroke="black" points="244,-114.5 244,-133.5 304,-133.5 304,-114.5 244,-114.5"/>
<text text-anchor="middle" x="274" y="-121.5" font-family="Helvetica,sans-Serif" font-size="10.00">METHOD</text>
</a>
</g>
</g>
<!-- Node6&#45;&gt;Node7 -->
<g id="edge6" class="edge"><title>Node6&#45;&gt;Node7</title>
<path fill="none" stroke="midnightblue" d="M218.32,-124C227.27,-124 236.113,-124 243.995,-124"/>
<polygon fill="midnightblue" stroke="midnightblue" points="218.217,-120.5 208.217,-124 218.217,-127.5 218.217,-120.5"/>
</g>
<!-- Node9 -->
<g id="node9" class="node"><title>Node9</title>
<g id="a_node9"><a xlink:href="../../d9/d6f/bio__reader_8c.html#a144c5b6844e797ba68091fc5054a313c" target="_top" xlink:title="METHOD">
<polygon fill="none" stroke="black" points="244,-76.5 244,-95.5 304,-95.5 304,-76.5 244,-76.5"/>
<text text-anchor="middle" x="274" y="-83.5" font-family="Helvetica,sans-Serif" font-size="10.00">METHOD</text>
</a>
</g>
</g>
<!-- Node8&#45;&gt;Node9 -->
<g id="edge8" class="edge"><title>Node8&#45;&gt;Node9</title>
<path fill="none" stroke="midnightblue" d="M218.32,-86C227.27,-86 236.113,-86 243.995,-86"/>
<polygon fill="midnightblue" stroke="midnightblue" points="218.217,-82.5001 208.217,-86 218.217,-89.5001 218.217,-82.5001"/>
</g>
<!-- Node11 -->
<g id="node11" class="node"><title>Node11</title>
<g id="a_node11"><a xlink:href="../../d9/d6f/bio__reader_8c.html#a892354244b5d8d7d9bcac90c3c5aa770" target="_top" xlink:title="METHOD">
<polygon fill="none" stroke="black" points="244,-38.5 244,-57.5 304,-57.5 304,-38.5 244,-38.5"/>
<text text-anchor="middle" x="274" y="-45.5" font-family="Helvetica,sans-Serif" font-size="10.00">METHOD</text>
</a>
</g>
</g>
<!-- Node10&#45;&gt;Node11 -->
<g id="edge10" class="edge"><title>Node10&#45;&gt;Node11</title>
<path fill="none" stroke="midnightblue" d="M218.32,-48C227.27,-48 236.113,-48 243.995,-48"/>
<polygon fill="midnightblue" stroke="midnightblue" points="218.217,-44.5001 208.217,-48 218.217,-51.5001 218.217,-44.5001"/>
</g>
<!-- Node13 -->
<g id="node13" class="node"><title>Node13</title>
<g id="a_node13"><a xlink:href="../../d9/d6f/bio__reader_8c.html#a446834037db5ffc7d3c37d320940b16f" target="_top" xlink:title="METHOD">
<polygon fill="none" stroke="black" points="244,-0.5 244,-19.5 304,-19.5 304,-0.5 244,-0.5"/>
<text text-anchor="middle" x="274" y="-7.5" font-family="Helvetica,sans-Serif" font-size="10.00">METHOD</text>
</a>
</g>
</g>
<!-- Node12&#45;&gt;Node13 -->
<g id="edge12" class="edge"><title>Node12&#45;&gt;Node13</title>
<path fill="none" stroke="midnightblue" d="M215.386,-10C225.214,-10 235.027,-10 243.697,-10"/>
<polygon fill="midnightblue" stroke="midnightblue" points="215.187,-6.5001 205.187,-10 215.187,-13.5001 215.187,-6.5001"/>
</g>
</g>
</svg>
