<?xml version="1.0" encoding="UTF-8" standalone="no"?>
<!DOCTYPE svg PUBLIC "-//W3C//DTD SVG 1.1//EN"
 "http://www.w3.org/Graphics/SVG/1.1/DTD/svg11.dtd">
<!-- Generated by graphviz version 2.36.0 (20140111.2315)
 -->
<!-- Title: lookup_iv Pages: 1 -->
<svg width="360pt" height="66pt"
 viewBox="0.00 0.00 360.00 66.00" xmlns="http://www.w3.org/2000/svg" xmlns:xlink="http://www.w3.org/1999/xlink">
<g id="graph0" class="graph" transform="scale(1 1) rotate(0) translate(4 62)">
<title>lookup_iv</title>
<!-- Node1 -->
<g id="node1" class="node"><title>Node1</title>
<polygon fill="#bfbfbf" stroke="black" points="0,-19.5 0,-38.5 58,-38.5 58,-19.5 0,-19.5"/>
<text text-anchor="middle" x="29" y="-26.5" font-family="Helvetica,sans-Serif" font-size="10.00">lookup_iv</text>
</g>
<!-- Node2 -->
<g id="node2" class="node"><title>Node2</title>
<g id="a_node2"><a xlink:href="../../d7/d40/keymat__v1_8c.html#a1505b0f5a6dc3af207c42b48ea9e1803" target="_top" xlink:title="generate_iv">
<polygon fill="none" stroke="black" points="103.5,-38.5 103.5,-57.5 170.5,-57.5 170.5,-38.5 103.5,-38.5"/>
<text text-anchor="middle" x="137" y="-45.5" font-family="Helvetica,sans-Serif" font-size="10.00">generate_iv</text>
</a>
</g>
</g>
<!-- Node1&#45;&gt;Node2 -->
<g id="edge1" class="edge"><title>Node1&#45;&gt;Node2</title>
<path fill="none" stroke="midnightblue" d="M58.1278,-34.0418C68.8488,-35.9635 81.3258,-38.1999 93.1102,-40.3122"/>
<polygon fill="midnightblue" stroke="midnightblue" points="92.7658,-43.8062 103.226,-42.1255 94.0009,-36.916 92.7658,-43.8062"/>
</g>
<!-- Node5 -->
<g id="node5" class="node"><title>Node5</title>
<g id="a_node5"><a xlink:href="../../d7/d40/keymat__v1_8c.html#afe094700cf566dcd7c1d12883874e1e6" target="_top" xlink:title="iv_data_destroy">
<polygon fill="none" stroke="black" points="94,-0.5 94,-19.5 180,-19.5 180,-0.5 94,-0.5"/>
<text text-anchor="middle" x="137" y="-7.5" font-family="Helvetica,sans-Serif" font-size="10.00">iv_data_destroy</text>
</a>
</g>
</g>
<!-- Node1&#45;&gt;Node5 -->
<g id="edge4" class="edge"><title>Node1&#45;&gt;Node5</title>
<path fill="none" stroke="midnightblue" d="M58.1278,-23.9582C66.06,-22.5364 74.9535,-20.9423 83.8165,-19.3536"/>
<polygon fill="midnightblue" stroke="midnightblue" points="84.5318,-22.7813 93.7574,-17.5718 83.2967,-15.8911 84.5318,-22.7813"/>
</g>
<!-- Node3 -->
<g id="node3" class="node"><title>Node3</title>
<g id="a_node3"><a xlink:href="../../d4/d87/group__chunk.html#gaa86c84493369a4254d5801cdca20d458" target="_top" xlink:title="chunk_free">
<polygon fill="none" stroke="black" points="216.5,-38.5 216.5,-57.5 281.5,-57.5 281.5,-38.5 216.5,-38.5"/>
<text text-anchor="middle" x="249" y="-45.5" font-family="Helvetica,sans-Serif" font-size="10.00">chunk_free</text>
</a>
</g>
</g>
<!-- Node2&#45;&gt;Node3 -->
<g id="edge2" class="edge"><title>Node2&#45;&gt;Node3</title>
<path fill="none" stroke="midnightblue" d="M170.706,-48C181.874,-48 194.518,-48 206.296,-48"/>
<polygon fill="midnightblue" stroke="midnightblue" points="206.366,-51.5001 216.366,-48 206.366,-44.5001 206.366,-51.5001"/>
</g>
<!-- Node4 -->
<g id="node4" class="node"><title>Node4</title>
<g id="a_node4"><a xlink:href="../../da/dfc/settings__parser_8c.html#af07d89f5ceaea0c7c8252cc41fd75f37" target="_top" xlink:title="free">
<polygon fill="none" stroke="black" points="318.5,-19.5 318.5,-38.5 351.5,-38.5 351.5,-19.5 318.5,-19.5"/>
<text text-anchor="middle" x="335" y="-26.5" font-family="Helvetica,sans-Serif" font-size="10.00">free</text>
</a>
</g>
</g>
<!-- Node3&#45;&gt;Node4 -->
<g id="edge3" class="edge"><title>Node3&#45;&gt;Node4</title>
<path fill="none" stroke="midnightblue" d="M281.757,-40.8169C290.512,-38.8367 299.899,-36.7134 308.267,-34.8206"/>
<polygon fill="midnightblue" stroke="midnightblue" points="309.216,-38.1945 318.197,-32.5745 307.671,-31.3669 309.216,-38.1945"/>
</g>
<!-- Node5&#45;&gt;Node3 -->
<g id="edge5" class="edge"><title>Node5&#45;&gt;Node3</title>
<path fill="none" stroke="midnightblue" d="M165.758,-19.589C179.306,-24.2694 195.805,-29.9692 210.46,-35.0315"/>
<polygon fill="midnightblue" stroke="midnightblue" points="209.656,-38.457 220.251,-38.4141 211.942,-31.8406 209.656,-38.457"/>
</g>
<!-- Node5&#45;&gt;Node4 -->
<g id="edge6" class="edge"><title>Node5&#45;&gt;Node4</title>
<path fill="none" stroke="midnightblue" d="M180.047,-14.076C218.854,-17.8378 275.264,-23.3062 307.934,-26.4732"/>
<polygon fill="midnightblue" stroke="midnightblue" points="307.753,-29.9719 318.044,-27.4532 308.428,-23.0046 307.753,-29.9719"/>
</g>
</g>
</svg>
