<?xml version="1.0" encoding="UTF-8" standalone="no"?>
<!DOCTYPE svg PUBLIC "-//W3C//DTD SVG 1.1//EN"
 "http://www.w3.org/Graphics/SVG/1.1/DTD/svg11.dtd">
<!-- Generated by graphviz version 2.36.0 (20140111.2315)
 -->
<!-- Title: sasl Pages: 1 -->
<svg width="252pt" height="66pt"
 viewBox="0.00 0.00 252.00 66.00" xmlns="http://www.w3.org/2000/svg" xmlns:xlink="http://www.w3.org/1999/xlink">
<g id="graph0" class="graph" transform="scale(1 1) rotate(0) translate(4 62)">
<title>sasl</title>
<!-- Node1 -->
<g id="node1" class="node"><title>Node1</title>
<g id="a_node1"><a xlink:href="../../d9/d35/group__pt__tls.html" target="_top" xlink:title="libpttls">
<polygon fill="none" stroke="black" points="0.5,-19.5 0.5,-38.5 45.5,-38.5 45.5,-19.5 0.5,-19.5"/>
<text text-anchor="middle" x="23" y="-26.5" font-family="Helvetica,sans-Serif" font-size="10.00">libpttls</text>
</a>
</g>
</g>
<!-- Node0 -->
<g id="node2" class="node"><title>Node0</title>
<polygon fill="#bfbfbf" stroke="black" points="82.5,-19.5 82.5,-38.5 117.5,-38.5 117.5,-19.5 82.5,-19.5"/>
<text text-anchor="middle" x="100" y="-26.5" font-family="Helvetica,sans-Serif" font-size="10.00">sasl</text>
</g>
<!-- Node1&#45;&gt;Node0 -->
<g id="edge1" class="edge"><title>Node1&#45;&gt;Node0</title>
<path fill="none" stroke="midnightblue" d="M55.9332,-29C64.9368,-29 74.3783,-29 82.1189,-29"/>
<polygon fill="midnightblue" stroke="midnightblue" points="55.6931,-25.5001 45.6931,-29 55.6931,-32.5001 55.6931,-25.5001"/>
</g>
<!-- Node2 -->
<g id="node3" class="node"><title>Node2</title>
<g id="a_node3"><a xlink:href="../../d6/d34/group__sasl__mechanism.html" target="_top" xlink:title="sasl_mechanism">
<polygon fill="none" stroke="black" points="154,-38.5 154,-57.5 244,-57.5 244,-38.5 154,-38.5"/>
<text text-anchor="middle" x="199" y="-45.5" font-family="Helvetica,sans-Serif" font-size="10.00">sasl_mechanism</text>
</a>
</g>
</g>
<!-- Node0&#45;&gt;Node2 -->
<g id="edge2" class="edge"><title>Node0&#45;&gt;Node2</title>
<path fill="none" stroke="midnightblue" d="M127.806,-34.2507C135.862,-35.8287 144.924,-37.6037 153.793,-39.3409"/>
<polygon fill="midnightblue" stroke="midnightblue" points="128.382,-30.7971 117.896,-32.3095 127.037,-37.6666 128.382,-30.7971"/>
</g>
<!-- Node3 -->
<g id="node4" class="node"><title>Node3</title>
<g id="a_node4"><a xlink:href="../../d9/d08/group__sasl__plain.html" target="_top" xlink:title="sasl_plain">
<polygon fill="none" stroke="black" points="169,-0.5 169,-19.5 229,-19.5 229,-0.5 169,-0.5"/>
<text text-anchor="middle" x="199" y="-7.5" font-family="Helvetica,sans-Serif" font-size="10.00">sasl_plain</text>
</a>
</g>
</g>
<!-- Node0&#45;&gt;Node3 -->
<g id="edge3" class="edge"><title>Node0&#45;&gt;Node3</title>
<path fill="none" stroke="midnightblue" d="M127.877,-23.7354C140.579,-21.2475 155.768,-18.2723 168.757,-15.728"/>
<polygon fill="midnightblue" stroke="midnightblue" points="127.037,-20.3334 117.896,-25.6905 128.382,-27.2029 127.037,-20.3334"/>
</g>
</g>
</svg>
