<?xml version="1.0" encoding="UTF-8" standalone="no"?>
<!DOCTYPE svg PUBLIC "-//W3C//DTD SVG 1.1//EN"
 "http://www.w3.org/Graphics/SVG/1.1/DTD/svg11.dtd">
<!-- Generated by graphviz version 2.36.0 (20140111.2315)
 -->
<!-- Title: stream_service_create_unix Pages: 1 -->
<svg width="974pt" height="370pt"
 viewBox="0.00 0.00 974.00 370.00" xmlns="http://www.w3.org/2000/svg" xmlns:xlink="http://www.w3.org/1999/xlink">
<g id="graph0" class="graph" transform="scale(1 1) rotate(0) translate(4 366)">
<title>stream_service_create_unix</title>
<!-- Node1 -->
<g id="node1" class="node"><title>Node1</title>
<polygon fill="#bfbfbf" stroke="black" points="0.5,-152.5 0.5,-171.5 139.5,-171.5 139.5,-152.5 0.5,-152.5"/>
<text text-anchor="middle" x="70" y="-159.5" font-family="Helvetica,sans-Serif" font-size="10.00">stream_service_create_unix</text>
</g>
<!-- Node2 -->
<g id="node2" class="node"><title>Node2</title>
<g id="a_node2"><a xlink:href="../../d8/d57/stream__manager_8c.html#a7a581582f5c22e7f1c14f783b85db2f6" target="_top" xlink:title="METHOD">
<polygon fill="none" stroke="black" points="207,-171.5 207,-190.5 267,-190.5 267,-171.5 207,-171.5"/>
<text text-anchor="middle" x="237" y="-178.5" font-family="Helvetica,sans-Serif" font-size="10.00">METHOD</text>
</a>
</g>
</g>
<!-- Node1&#45;&gt;Node2 -->
<g id="edge1" class="edge"><title>Node1&#45;&gt;Node2</title>
<path fill="none" stroke="midnightblue" d="M149.548,-171.045C170.03,-173.403 190.838,-175.8 206.906,-177.65"/>
<polygon fill="midnightblue" stroke="midnightblue" points="149.876,-167.56 139.541,-169.893 149.075,-174.514 149.876,-167.56"/>
</g>
<!-- Node3 -->
<g id="node3" class="node"><title>Node3</title>
<g id="a_node3"><a xlink:href="../../da/d94/group__stream__manager.html#ga9eb3212e34aa7d5a4aabff6fe623951e" target="_top" xlink:title="stream_manager_create">
<polygon fill="none" stroke="black" points="176,-133.5 176,-152.5 298,-152.5 298,-133.5 176,-133.5"/>
<text text-anchor="middle" x="237" y="-140.5" font-family="Helvetica,sans-Serif" font-size="10.00">stream_manager_create</text>
</a>
</g>
</g>
<!-- Node1&#45;&gt;Node3 -->
<g id="edge2" class="edge"><title>Node1&#45;&gt;Node3</title>
<path fill="none" stroke="midnightblue" d="M149.489,-152.962C158.343,-151.942 167.258,-150.916 175.826,-149.929"/>
<polygon fill="midnightblue" stroke="midnightblue" points="149.075,-149.486 139.541,-154.107 149.876,-156.44 149.075,-149.486"/>
</g>
<!-- Node4 -->
<g id="node4" class="node"><title>Node4</title>
<g id="a_node4"><a xlink:href="../../d3/d99/group__library.html#ga18cf1ca25ca811f74ba75c1de79cee4f" target="_top" xlink:title="library_init">
<polygon fill="none" stroke="black" points="334.5,-133.5 334.5,-152.5 395.5,-152.5 395.5,-133.5 334.5,-133.5"/>
<text text-anchor="middle" x="365" y="-140.5" font-family="Helvetica,sans-Serif" font-size="10.00">library_init</text>
</a>
</g>
</g>
<!-- Node3&#45;&gt;Node4 -->
<g id="edge3" class="edge"><title>Node3&#45;&gt;Node4</title>
<path fill="none" stroke="midnightblue" d="M308.145,-143C317.41,-143 326.466,-143 334.498,-143"/>
<polygon fill="midnightblue" stroke="midnightblue" points="308.048,-139.5 298.048,-143 308.048,-146.5 308.048,-139.5"/>
</g>
<!-- Node4&#45;&gt;Node4 -->
<g id="edge18" class="edge"><title>Node4&#45;&gt;Node4</title>
<path fill="none" stroke="midnightblue" d="M346.112,-162.4C347.373,-167.315 353.669,-171 365,-171 383.129,-171 388.369,-161.565 380.721,-152.757"/>
<polygon fill="midnightblue" stroke="midnightblue" points="349.484,-163.35 349.279,-152.757 342.833,-161.166 349.484,-163.35"/>
</g>
<!-- Node5 -->
<g id="node5" class="node"><title>Node5</title>
<g id="a_node5"><a xlink:href="../../d7/d9b/pt-tls-client_8c.html#aedc913c139bb562646d3459b0ca28997" target="_top" xlink:title="init">
<polygon fill="none" stroke="black" points="452.5,-323.5 452.5,-342.5 481.5,-342.5 481.5,-323.5 452.5,-323.5"/>
<text text-anchor="middle" x="467" y="-330.5" font-family="Helvetica,sans-Serif" font-size="10.00">init</text>
</a>
</g>
</g>
<!-- Node4&#45;&gt;Node5 -->
<g id="edge4" class="edge"><title>Node4&#45;&gt;Node5</title>
<path fill="none" stroke="midnightblue" d="M372.181,-162.423C382.176,-192.316 403.665,-250.772 432,-295 438.781,-305.585 448.5,-316.119 455.812,-323.402"/>
<polygon fill="midnightblue" stroke="midnightblue" points="375.462,-161.198 369.027,-152.781 368.809,-163.374 375.462,-161.198"/>
</g>
<!-- Node7 -->
<g id="node7" class="node"><title>Node7</title>
<g id="a_node7"><a xlink:href="../../dd/dcc/charon-svc_8c.html#a2a57519866b925dd058567c145b8ae45" target="_top" xlink:title="init_and_run">
<polygon fill="none" stroke="black" points="432.5,-266.5 432.5,-285.5 501.5,-285.5 501.5,-266.5 432.5,-266.5"/>
<text text-anchor="middle" x="467" y="-273.5" font-family="Helvetica,sans-Serif" font-size="10.00">init_and_run</text>
</a>
</g>
</g>
<!-- Node4&#45;&gt;Node7 -->
<g id="edge6" class="edge"><title>Node4&#45;&gt;Node7</title>
<path fill="none" stroke="midnightblue" d="M379.376,-160.791C400.734,-189.197 441.836,-243.861 458.604,-266.163"/>
<polygon fill="midnightblue" stroke="midnightblue" points="381.999,-158.454 373.192,-152.565 376.404,-162.661 381.999,-158.454"/>
</g>
<!-- Node11 -->
<g id="node11" class="node"><title>Node11</title>
<g id="a_node11"><a xlink:href="../../d1/d4c/ext_2dumm_8c.html#a483775b052d2c5ac3e09664bcbe4f09b" target="_top" xlink:title="Init_dumm">
<polygon fill="none" stroke="black" points="436,-190.5 436,-209.5 498,-209.5 498,-190.5 436,-190.5"/>
<text text-anchor="middle" x="467" y="-197.5" font-family="Helvetica,sans-Serif" font-size="10.00">Init_dumm</text>
</a>
</g>
</g>
<!-- Node4&#45;&gt;Node11 -->
<g id="edge11" class="edge"><title>Node4&#45;&gt;Node11</title>
<path fill="none" stroke="midnightblue" d="M391.299,-157.667C403.566,-164.753 418.528,-173.358 432,-181 437.411,-184.069 443.324,-187.387 448.679,-190.377"/>
<polygon fill="midnightblue" stroke="midnightblue" points="392.921,-154.562 382.512,-152.585 389.416,-160.621 392.921,-154.562"/>
</g>
<!-- Node12 -->
<g id="node12" class="node"><title>Node12</title>
<g id="a_node12"><a xlink:href="../../d0/d9e/group__libimcv.html#ga1a2bc69328f409c080b8814e28972ecf" target="_top" xlink:title="libimcv_init">
<polygon fill="none" stroke="black" points="434.5,-152.5 434.5,-171.5 499.5,-171.5 499.5,-152.5 434.5,-152.5"/>
<text text-anchor="middle" x="467" y="-159.5" font-family="Helvetica,sans-Serif" font-size="10.00">libimcv_init</text>
</a>
</g>
</g>
<!-- Node4&#45;&gt;Node12 -->
<g id="edge12" class="edge"><title>Node4&#45;&gt;Node12</title>
<path fill="none" stroke="midnightblue" d="M405.8,-150.562C415.328,-152.372 425.373,-154.281 434.469,-156.009"/>
<polygon fill="midnightblue" stroke="midnightblue" points="406.21,-147.077 395.733,-148.649 404.903,-153.954 406.21,-147.077"/>
</g>
<!-- Node18 -->
<g id="node18" class="node"><title>Node18</title>
<g id="a_node18"><a xlink:href="../../d8/df9/test__runner_8c.html#a4581d637b94ffd7a3cb7dc3c8aa7946d" target="_top" xlink:title="load_suites">
<polygon fill="none" stroke="black" points="687,-76.5 687,-95.5 753,-95.5 753,-76.5 687,-76.5"/>
<text text-anchor="middle" x="720" y="-83.5" font-family="Helvetica,sans-Serif" font-size="10.00">load_suites</text>
</a>
</g>
</g>
<!-- Node4&#45;&gt;Node18 -->
<g id="edge19" class="edge"><title>Node4&#45;&gt;Node18</title>
<path fill="none" stroke="midnightblue" d="M405.382,-132.97C440.087,-124.451 492.119,-112.452 538,-105 589.771,-96.5913 650.507,-91.0987 686.813,-88.276"/>
<polygon fill="midnightblue" stroke="midnightblue" points="404.499,-129.583 395.633,-135.384 406.181,-136.378 404.499,-129.583"/>
</g>
<!-- Node21 -->
<g id="node21" class="node"><title>Node21</title>
<g id="a_node21"><a xlink:href="../../de/dca/__copyright_8c.html#a0ddf1224851353fc92bfbff6f499fa97" target="_top" xlink:title="main">
<polygon fill="none" stroke="black" points="448,-76.5 448,-95.5 486,-95.5 486,-76.5 448,-76.5"/>
<text text-anchor="middle" x="467" y="-83.5" font-family="Helvetica,sans-Serif" font-size="10.00">main</text>
</a>
</g>
</g>
<!-- Node4&#45;&gt;Node21 -->
<g id="edge22" class="edge"><title>Node4&#45;&gt;Node21</title>
<path fill="none" stroke="midnightblue" d="M391.852,-128.264C409.956,-117.945 433.617,-104.458 449.287,-95.5265"/>
<polygon fill="midnightblue" stroke="midnightblue" points="389.918,-125.338 382.964,-133.331 393.385,-131.419 389.918,-125.338"/>
</g>
<!-- Node22 -->
<g id="node22" class="node"><title>Node22</title>
<g id="a_node22"><a xlink:href="../../d8/df9/test__runner_8c.html#a9a715421b4e66be894fcf98820d3312b" target="_top" xlink:title="pre_test">
<polygon fill="none" stroke="black" points="441,-38.5 441,-57.5 493,-57.5 493,-38.5 441,-38.5"/>
<text text-anchor="middle" x="467" y="-45.5" font-family="Helvetica,sans-Serif" font-size="10.00">pre_test</text>
</a>
</g>
</g>
<!-- Node4&#45;&gt;Node22 -->
<g id="edge23" class="edge"><title>Node4&#45;&gt;Node22</title>
<path fill="none" stroke="midnightblue" d="M378.84,-124.904C391.158,-108.423 410.949,-84.1152 432,-67 436.302,-63.5021 441.337,-60.2956 446.193,-57.5528"/>
<polygon fill="midnightblue" stroke="midnightblue" points="375.881,-123.021 372.805,-133.16 381.532,-127.152 375.881,-123.021"/>
</g>
<!-- Node25 -->
<g id="node25" class="node"><title>Node25</title>
<g id="a_node25"><a xlink:href="../../dc/d7a/group__libvici.html#ga51b7da53077930dc9e0f9de1298a4f9c" target="_top" xlink:title="vici_init">
<polygon fill="none" stroke="black" points="442,-0.5 442,-19.5 492,-19.5 492,-0.5 442,-0.5"/>
<text text-anchor="middle" x="467" y="-7.5" font-family="Helvetica,sans-Serif" font-size="10.00">vici_init</text>
</a>
</g>
</g>
<!-- Node4&#45;&gt;Node25 -->
<g id="edge27" class="edge"><title>Node4&#45;&gt;Node25</title>
<path fill="none" stroke="midnightblue" d="M373.364,-123.723C383.5,-99.2338 403.756,-56.8182 432,-29 435.661,-25.3939 440.145,-22.2543 444.641,-19.6221"/>
<polygon fill="midnightblue" stroke="midnightblue" points="369.994,-122.726 369.537,-133.311 376.495,-125.322 369.994,-122.726"/>
</g>
<!-- Node6 -->
<g id="node6" class="node"><title>Node6</title>
<g id="a_node6"><a xlink:href="../../d7/d9b/pt-tls-client_8c.html#a0ddf1224851353fc92bfbff6f499fa97" target="_top" xlink:title="main">
<polygon fill="none" stroke="black" points="566,-342.5 566,-361.5 604,-361.5 604,-342.5 566,-342.5"/>
<text text-anchor="middle" x="585" y="-349.5" font-family="Helvetica,sans-Serif" font-size="10.00">main</text>
</a>
</g>
</g>
<!-- Node5&#45;&gt;Node6 -->
<g id="edge5" class="edge"><title>Node5&#45;&gt;Node6</title>
<path fill="none" stroke="midnightblue" d="M491.892,-336.913C513.787,-340.5 545.741,-345.734 565.679,-348.999"/>
<polygon fill="midnightblue" stroke="midnightblue" points="492.197,-333.417 481.762,-335.254 491.065,-340.325 492.197,-333.417"/>
</g>
<!-- Node8 -->
<g id="node8" class="node"><title>Node8</title>
<g id="a_node8"><a xlink:href="../../dd/dcc/charon-svc_8c.html#abbee77e5d66102b8a8b52c080af297b0" target="_top" xlink:title="console_main">
<polygon fill="none" stroke="black" points="546.5,-304.5 546.5,-323.5 623.5,-323.5 623.5,-304.5 546.5,-304.5"/>
<text text-anchor="middle" x="585" y="-311.5" font-family="Helvetica,sans-Serif" font-size="10.00">console_main</text>
</a>
</g>
</g>
<!-- Node7&#45;&gt;Node8 -->
<g id="edge7" class="edge"><title>Node7&#45;&gt;Node8</title>
<path fill="none" stroke="midnightblue" d="M507.153,-288.826C522.718,-293.925 540.314,-299.689 554.738,-304.414"/>
<polygon fill="midnightblue" stroke="midnightblue" points="507.864,-285.376 497.272,-285.589 505.685,-292.028 507.864,-285.376"/>
</g>
<!-- Node10 -->
<g id="node10" class="node"><title>Node10</title>
<g id="a_node10"><a xlink:href="../../dd/dcc/charon-svc_8c.html#a2187fa70ac95082f38e9cf770aa45af2" target="_top" xlink:title="service_main">
<polygon fill="none" stroke="black" points="548,-266.5 548,-285.5 622,-285.5 622,-266.5 548,-266.5"/>
<text text-anchor="middle" x="585" y="-273.5" font-family="Helvetica,sans-Serif" font-size="10.00">service_main</text>
</a>
</g>
</g>
<!-- Node7&#45;&gt;Node10 -->
<g id="edge9" class="edge"><title>Node7&#45;&gt;Node10</title>
<path fill="none" stroke="midnightblue" d="M511.703,-276C523.565,-276 536.279,-276 547.685,-276"/>
<polygon fill="midnightblue" stroke="midnightblue" points="511.552,-272.5 501.552,-276 511.552,-279.5 511.552,-272.5"/>
</g>
<!-- Node9 -->
<g id="node9" class="node"><title>Node9</title>
<g id="a_node9"><a xlink:href="../../dd/dcc/charon-svc_8c.html#a0ddf1224851353fc92bfbff6f499fa97" target="_top" xlink:title="main">
<polygon fill="none" stroke="black" points="701,-285.5 701,-304.5 739,-304.5 739,-285.5 701,-285.5"/>
<text text-anchor="middle" x="720" y="-292.5" font-family="Helvetica,sans-Serif" font-size="10.00">main</text>
</a>
</g>
</g>
<!-- Node8&#45;&gt;Node9 -->
<g id="edge8" class="edge"><title>Node8&#45;&gt;Node9</title>
<path fill="none" stroke="midnightblue" d="M633.797,-307.172C656.994,-303.858 683.496,-300.072 700.699,-297.614"/>
<polygon fill="midnightblue" stroke="midnightblue" points="633.161,-303.727 623.757,-308.606 634.151,-310.657 633.161,-303.727"/>
</g>
<!-- Node10&#45;&gt;Node9 -->
<g id="edge10" class="edge"><title>Node10&#45;&gt;Node9</title>
<path fill="none" stroke="midnightblue" d="M632.486,-282.641C655.973,-285.996 683.134,-289.876 700.664,-292.381"/>
<polygon fill="midnightblue" stroke="midnightblue" points="632.737,-279.141 622.343,-281.192 631.747,-286.071 632.737,-279.141"/>
</g>
<!-- Node13 -->
<g id="node13" class="node"><title>Node13</title>
<g id="a_node13"><a xlink:href="../../da/df6/group__imc__agent__t.html#ga4e3d8335be0a5db3f9057bbe23ce97e1" target="_top" xlink:title="imc_agent_create">
<polygon fill="none" stroke="black" points="538,-228.5 538,-247.5 632,-247.5 632,-228.5 538,-228.5"/>
<text text-anchor="middle" x="585" y="-235.5" font-family="Helvetica,sans-Serif" font-size="10.00">imc_agent_create</text>
</a>
</g>
</g>
<!-- Node12&#45;&gt;Node13 -->
<g id="edge13" class="edge"><title>Node12&#45;&gt;Node13</title>
<path fill="none" stroke="midnightblue" d="M496.386,-176.979C498.331,-178.272 500.222,-179.617 502,-181 520.364,-195.282 518.826,-205.824 538,-219 543.27,-222.621 549.337,-225.736 555.299,-228.336"/>
<polygon fill="midnightblue" stroke="midnightblue" points="498.063,-173.903 487.703,-171.683 494.418,-179.879 498.063,-173.903"/>
</g>
<!-- Node15 -->
<g id="node15" class="node"><title>Node15</title>
<g id="a_node15"><a xlink:href="../../dd/dd4/group__imv__agent__t.html#ga207ef25d8bf8c613ac61d089d0874d9b" target="_top" xlink:title="imv_agent_create">
<polygon fill="none" stroke="black" points="538,-190.5 538,-209.5 632,-209.5 632,-190.5 538,-190.5"/>
<text text-anchor="middle" x="585" y="-197.5" font-family="Helvetica,sans-Serif" font-size="10.00">imv_agent_create</text>
</a>
</g>
</g>
<!-- Node12&#45;&gt;Node15 -->
<g id="edge15" class="edge"><title>Node12&#45;&gt;Node15</title>
<path fill="none" stroke="midnightblue" d="M507.153,-174.826C522.718,-179.925 540.314,-185.689 554.738,-190.414"/>
<polygon fill="midnightblue" stroke="midnightblue" points="507.864,-171.376 497.272,-171.589 505.685,-178.028 507.864,-171.376"/>
</g>
<!-- Node16 -->
<g id="node16" class="node"><title>Node16</title>
<g id="a_node16"><a xlink:href="../../da/d03/attest_8c.html#a0ddf1224851353fc92bfbff6f499fa97" target="_top" xlink:title="main">
<polygon fill="none" stroke="black" points="566,-152.5 566,-171.5 604,-171.5 604,-152.5 566,-152.5"/>
<text text-anchor="middle" x="585" y="-159.5" font-family="Helvetica,sans-Serif" font-size="10.00">main</text>
</a>
</g>
</g>
<!-- Node12&#45;&gt;Node16 -->
<g id="edge16" class="edge"><title>Node12&#45;&gt;Node16</title>
<path fill="none" stroke="midnightblue" d="M509.745,-162C528.946,-162 550.732,-162 565.715,-162"/>
<polygon fill="midnightblue" stroke="midnightblue" points="509.698,-158.5 499.698,-162 509.697,-165.5 509.698,-158.5"/>
</g>
<!-- Node17 -->
<g id="node17" class="node"><title>Node17</title>
<g id="a_node17"><a xlink:href="../../df/da3/test__imcv__seg_8c.html#ac72d7ad0385a61efdaf1d769d5b7da2b" target="_top" xlink:title="START_TEST">
<polygon fill="none" stroke="black" points="545,-114.5 545,-133.5 625,-133.5 625,-114.5 545,-114.5"/>
<text text-anchor="middle" x="585" y="-121.5" font-family="Helvetica,sans-Serif" font-size="10.00">START_TEST</text>
</a>
</g>
</g>
<!-- Node12&#45;&gt;Node17 -->
<g id="edge17" class="edge"><title>Node12&#45;&gt;Node17</title>
<path fill="none" stroke="midnightblue" d="M507.153,-149.174C522.718,-144.075 540.314,-138.311 554.738,-133.586"/>
<polygon fill="midnightblue" stroke="midnightblue" points="505.685,-145.972 497.272,-152.411 507.864,-152.624 505.685,-145.972"/>
</g>
<!-- Node14 -->
<g id="node14" class="node"><title>Node14</title>
<g id="a_node14"><a xlink:href="../../de/d10/group__tncifimc.html#ga6a4653276d3fc1d46b7703d41a2dc5b5" target="_top" xlink:title="TNC_IMC_Initialize">
<polygon fill="none" stroke="black" points="668.5,-228.5 668.5,-247.5 771.5,-247.5 771.5,-228.5 668.5,-228.5"/>
<text text-anchor="middle" x="720" y="-235.5" font-family="Helvetica,sans-Serif" font-size="10.00">TNC_IMC_Initialize</text>
</a>
</g>
</g>
<!-- Node13&#45;&gt;Node14 -->
<g id="edge14" class="edge"><title>Node13&#45;&gt;Node14</title>
<path fill="none" stroke="midnightblue" d="M642.203,-238C650.898,-238 659.833,-238 668.395,-238"/>
<polygon fill="midnightblue" stroke="midnightblue" points="642.144,-234.5 632.144,-238 642.144,-241.5 642.144,-234.5"/>
</g>
<!-- Node19 -->
<g id="node19" class="node"><title>Node19</title>
<g id="a_node19"><a xlink:href="../../d7/deb/group__test__runner.html#ga8946393b8d2910f2fd2ccb191070c2bf" target="_top" xlink:title="test_runner_run">
<polygon fill="none" stroke="black" points="808,-57.5 808,-76.5 892,-76.5 892,-57.5 808,-57.5"/>
<text text-anchor="middle" x="850" y="-64.5" font-family="Helvetica,sans-Serif" font-size="10.00">test_runner_run</text>
</a>
</g>
</g>
<!-- Node18&#45;&gt;Node19 -->
<g id="edge20" class="edge"><title>Node18&#45;&gt;Node19</title>
<path fill="none" stroke="midnightblue" d="M763.407,-79.7052C777.752,-77.5759 793.736,-75.2033 807.972,-73.0901"/>
<polygon fill="midnightblue" stroke="midnightblue" points="762.677,-76.2751 753.3,-81.2055 763.705,-83.1992 762.677,-76.2751"/>
</g>
<!-- Node20 -->
<g id="node20" class="node"><title>Node20</title>
<g id="a_node20"><a xlink:href="../../db/da5/bliss__tests_8c.html#a0ddf1224851353fc92bfbff6f499fa97" target="_top" xlink:title="main">
<polygon fill="none" stroke="black" points="928,-57.5 928,-76.5 966,-76.5 966,-57.5 928,-57.5"/>
<text text-anchor="middle" x="947" y="-64.5" font-family="Helvetica,sans-Serif" font-size="10.00">main</text>
</a>
</g>
</g>
<!-- Node19&#45;&gt;Node20 -->
<g id="edge21" class="edge"><title>Node19&#45;&gt;Node20</title>
<path fill="none" stroke="midnightblue" d="M902.379,-67C911.462,-67 920.353,-67 927.715,-67"/>
<polygon fill="midnightblue" stroke="midnightblue" points="902.116,-63.5001 892.116,-67 902.116,-70.5001 902.116,-63.5001"/>
</g>
<!-- Node23 -->
<g id="node23" class="node"><title>Node23</title>
<g id="a_node23"><a xlink:href="../../d8/df9/test__runner_8c.html#a91aeafa598c15ed7c3b23ac4d7e1506b" target="_top" xlink:title="run_case">
<polygon fill="none" stroke="black" points="557,-38.5 557,-57.5 613,-57.5 613,-38.5 557,-38.5"/>
<text text-anchor="middle" x="585" y="-45.5" font-family="Helvetica,sans-Serif" font-size="10.00">run_case</text>
</a>
</g>
</g>
<!-- Node22&#45;&gt;Node23 -->
<g id="edge24" class="edge"><title>Node22&#45;&gt;Node23</title>
<path fill="none" stroke="midnightblue" d="M503.399,-48C520.588,-48 540.915,-48 556.856,-48"/>
<polygon fill="midnightblue" stroke="midnightblue" points="503.17,-44.5001 493.17,-48 503.17,-51.5001 503.17,-44.5001"/>
</g>
<!-- Node24 -->
<g id="node24" class="node"><title>Node24</title>
<g id="a_node24"><a xlink:href="../../d8/df9/test__runner_8c.html#a5440bde1f37dd6de5b8ee9646002e3eb" target="_top" xlink:title="run_suite">
<polygon fill="none" stroke="black" points="692,-38.5 692,-57.5 748,-57.5 748,-38.5 692,-38.5"/>
<text text-anchor="middle" x="720" y="-45.5" font-family="Helvetica,sans-Serif" font-size="10.00">run_suite</text>
</a>
</g>
</g>
<!-- Node23&#45;&gt;Node24 -->
<g id="edge25" class="edge"><title>Node23&#45;&gt;Node24</title>
<path fill="none" stroke="midnightblue" d="M623.441,-48C645.184,-48 672.086,-48 691.801,-48"/>
<polygon fill="midnightblue" stroke="midnightblue" points="623.236,-44.5001 613.235,-48 623.235,-51.5001 623.236,-44.5001"/>
</g>
<!-- Node24&#45;&gt;Node19 -->
<g id="edge26" class="edge"><title>Node24&#45;&gt;Node19</title>
<path fill="none" stroke="midnightblue" d="M758.406,-53.5525C773.893,-55.8513 791.907,-58.5252 807.773,-60.8804"/>
<polygon fill="midnightblue" stroke="midnightblue" points="758.551,-50.0357 748.146,-52.0294 757.523,-56.9598 758.551,-50.0357"/>
</g>
<!-- Node26 -->
<g id="node26" class="node"><title>Node26</title>
<g id="a_node26"><a xlink:href="../../d6/dca/test__event_8c.html#afe8c30a13467d05abe5f4f9f0961b716" target="_top" xlink:title="START_TEST">
<polygon fill="none" stroke="black" points="545,-0.5 545,-19.5 625,-19.5 625,-0.5 545,-0.5"/>
<text text-anchor="middle" x="585" y="-7.5" font-family="Helvetica,sans-Serif" font-size="10.00">START_TEST</text>
</a>
</g>
</g>
<!-- Node25&#45;&gt;Node26 -->
<g id="edge28" class="edge"><title>Node25&#45;&gt;Node26</title>
<path fill="none" stroke="midnightblue" d="M502.271,-10C515.667,-10 531.103,-10 544.927,-10"/>
<polygon fill="midnightblue" stroke="midnightblue" points="502.035,-6.5001 492.035,-10 502.035,-13.5001 502.035,-6.5001"/>
</g>
</g>
</svg>
