<?xml version="1.0" encoding="UTF-8" standalone="no"?>
<!DOCTYPE svg PUBLIC "-//W3C//DTD SVG 1.1//EN"
 "http://www.w3.org/Graphics/SVG/1.1/DTD/svg11.dtd">
<!-- Generated by graphviz version 2.36.0 (20140111.2315)
 -->
<!-- Title: pgp_certificate_t Pages: 1 -->
<svg width="143pt" height="96pt"
 viewBox="0.00 0.00 143.00 96.00" xmlns="http://www.w3.org/2000/svg" xmlns:xlink="http://www.w3.org/1999/xlink">
<g id="graph0" class="graph" transform="scale(1 1) rotate(0) translate(4 92)">
<title>pgp_certificate_t</title>
<!-- Node1 -->
<g id="node1" class="node"><title>Node1</title>
<polygon fill="#bfbfbf" stroke="black" points="7.5,-0.5 7.5,-19.5 96.5,-19.5 96.5,-0.5 7.5,-0.5"/>
<text text-anchor="middle" x="52" y="-7.5" font-family="Helvetica,sans-Serif" font-size="10.00">pgp_certificate_t</text>
</g>
<!-- Node2 -->
<g id="node2" class="node"><title>Node2</title>
<polygon fill="none" stroke="#bfbfbf" points="-0.5,-68.5 -0.5,-87.5 40.5,-87.5 40.5,-68.5 -0.5,-68.5"/>
<text text-anchor="middle" x="20" y="-75.5" font-family="Helvetica,sans-Serif" font-size="10.00">struct</text>
</g>
<!-- Node2&#45;&gt;Node1 -->
<g id="edge1" class="edge"><title>Node2&#45;&gt;Node1</title>
<path fill="none" stroke="#9a32cd" stroke-dasharray="5,2" d="M17.4526,-58.2718C17.313,-51.5974 18.0803,-44.2028 21,-38 24.5259,-30.5094 31.2215,-24.2634 37.4902,-19.6721"/>
<polygon fill="#9a32cd" stroke="#9a32cd" points="13.9866,-58.8203 18.3237,-68.4867 20.9613,-58.2254 13.9866,-58.8203"/>
<text text-anchor="middle" x="41.5" y="-41.5" font-family="Helvetica,sans-Serif" font-size="10.00"> interface</text>
</g>
<!-- Node3 -->
<g id="node3" class="node"><title>Node3</title>
<g id="a_node3"><a xlink:href="../../d0/d14/structchunk__t.html" target="_top" xlink:title="chunk_t">
<polygon fill="none" stroke="black" points="58.5,-68.5 58.5,-87.5 109.5,-87.5 109.5,-68.5 58.5,-68.5"/>
<text text-anchor="middle" x="84" y="-75.5" font-family="Helvetica,sans-Serif" font-size="10.00">chunk_t</text>
</a>
</g>
</g>
<!-- Node3&#45;&gt;Node1 -->
<g id="edge2" class="edge"><title>Node3&#45;&gt;Node1</title>
<path fill="none" stroke="#9a32cd" stroke-dasharray="5,2" d="M75.3629,-59.1859C69.189,-46.4523 61.1446,-29.8607 56.2866,-19.8411"/>
<polygon fill="#9a32cd" stroke="#9a32cd" points="72.3044,-60.9005 79.8166,-68.3717 78.6031,-57.8465 72.3044,-60.9005"/>
<text text-anchor="middle" x="102.5" y="-41.5" font-family="Helvetica,sans-Serif" font-size="10.00"> get_fingerprint</text>
</g>
</g>
</svg>
