<?xml version="1.0" encoding="UTF-8" standalone="no"?>
<!DOCTYPE svg PUBLIC "-//W3C//DTD SVG 1.1//EN"
 "http://www.w3.org/Graphics/SVG/1.1/DTD/svg11.dtd">
<!-- Generated by graphviz version 2.36.0 (20140111.2315)
 -->
<!-- Title: socket.h Pages: 1 -->
<!--zoomable 252 -->
<svg id="main" version="1.1" xmlns="http://www.w3.org/2000/svg" xmlns:xlink="http://www.w3.org/1999/xlink" xml:space="preserve" onload="init(evt)">
<style type="text/css"><![CDATA[
.edge:hover path { stroke: red; }
.edge:hover polygon { stroke: red; fill: red; }
]]></style>
<script type="text/javascript"><![CDATA[
var edges = document.getElementsByTagName('g');
if (edges && edges.length) {
  for (var i=0;i<edges.length;i++) {
    if (edges[i].id.substr(0,4)=='edge') {
      edges[i].setAttribute('class','edge');
    }
  }
}
]]></script>
        <defs>
                <circle id="rim" cx="0" cy="0" r="7"/>
                <circle id="rim2" cx="0" cy="0" r="3.5"/>
                <g id="zoomPlus">
                        <use xlink:href="#rim" fill="#404040">
                                <set attributeName="fill" to="#808080" begin="zoomplus.mouseover" end="zoomplus.mouseout"/>
                        </use>
                        <path d="M-4,0h8M0,-4v8" fill="none" stroke="white" stroke-width="1.5" pointer-events="none"/>
                </g>
                <g id="zoomMin">
                        <use xlink:href="#rim" fill="#404040">
                                <set attributeName="fill" to="#808080" begin="zoomminus.mouseover" end="zoomminus.mouseout"/>
                        </use>
                        <path d="M-4,0h8" fill="none" stroke="white" stroke-width="1.5" pointer-events="none"/>
                </g>
                <g id="dirArrow">
                        <path fill="none" stroke="white" stroke-width="1.5" d="M0,-3.0v7 M-2.5,-0.5L0,-3.0L2.5,-0.5"/>
                </g>
               <g id="resetDef">
                       <use xlink:href="#rim2" fill="#404040">
                               <set attributeName="fill" to="#808080" begin="reset.mouseover" end="reset.mouseout"/>
                       </use>
               </g>
        </defs>

<script type="text/javascript">
var viewWidth = 4151;
var viewHeight = 252;
var sectionId = 'dynsection-1';
</script>
<script xlink:href="../../svgpan.js"/>
<svg id="graph" class="graph">
<g id="viewport">
<title>socket.h</title>
<!-- Node1 -->
<g id="node1" class="node"><title>Node1</title>
<polygon fill="#bfbfbf" stroke="black" points="2101,-224.5 2101,-243.5 2155,-243.5 2155,-224.5 2101,-224.5"/>
<text text-anchor="middle" x="2128" y="-231.5" font-family="Helvetica,sans-Serif" font-size="10.00">socket.h</text>
</g>
<!-- Node2 -->
<g id="node2" class="node"><title>Node2</title>
<g id="a_node2"><a xlink:href="../../d0/d09/receiver_8c.html" target="_top" xlink:title="receiver.c">
<polygon fill="none" stroke="black" points="-0.5,-56.5 -0.5,-75.5 58.5,-75.5 58.5,-56.5 -0.5,-56.5"/>
<text text-anchor="middle" x="29" y="-63.5" font-family="Helvetica,sans-Serif" font-size="10.00">receiver.c</text>
</a>
</g>
</g>
<!-- Node1&#45;&gt;Node2 -->
<g id="edge1" class="edge"><title>Node1&#45;&gt;Node2</title>
<path fill="none" stroke="midnightblue" d="M2090.76,-232.034C1910.1,-227.08 1106.95,-201.98 453,-132 281.07,-113.601 237.941,-107.912 68,-76 64.9951,-75.4357 61.871,-74.7996 58.7574,-74.1329"/>
<polygon fill="midnightblue" stroke="midnightblue" points="2090.72,-235.534 2100.81,-232.306 2090.91,-228.537 2090.72,-235.534"/>
</g>
<!-- Node3 -->
<g id="node3" class="node"><title>Node3</title>
<g id="a_node3"><a xlink:href="../../d6/d0b/sender_8c.html" target="_top" xlink:title="sender.c">
<polygon fill="none" stroke="black" points="77,-56.5 77,-75.5 131,-75.5 131,-56.5 77,-56.5"/>
<text text-anchor="middle" x="104" y="-63.5" font-family="Helvetica,sans-Serif" font-size="10.00">sender.c</text>
</a>
</g>
</g>
<!-- Node1&#45;&gt;Node3 -->
<g id="edge2" class="edge"><title>Node1&#45;&gt;Node3</title>
<path fill="none" stroke="midnightblue" d="M2090.75,-230.15C1998.46,-223.083 1751.75,-204.149 1546,-188 1233.53,-163.474 449.318,-126.627 140,-76 137.075,-75.5213 134.04,-74.9241 131.027,-74.2663"/>
<polygon fill="midnightblue" stroke="midnightblue" points="2090.49,-233.64 2100.73,-230.914 2091.02,-226.661 2090.49,-233.64"/>
</g>
<!-- Node4 -->
<g id="node4" class="node"><title>Node4</title>
<g id="a_node4"><a xlink:href="../../d5/df8/socket_8c.html" target="_top" xlink:title="socket.c">
<polygon fill="none" stroke="black" points="149,-56.5 149,-75.5 203,-75.5 203,-56.5 149,-56.5"/>
<text text-anchor="middle" x="176" y="-63.5" font-family="Helvetica,sans-Serif" font-size="10.00">socket.c</text>
</a>
</g>
</g>
<!-- Node1&#45;&gt;Node4 -->
<g id="edge3" class="edge"><title>Node1&#45;&gt;Node4</title>
<path fill="none" stroke="midnightblue" d="M2091.04,-228.691C1942.69,-211.532 1375.91,-147.285 908,-112 599.13,-88.7081 518.346,-121.776 212,-76 209.069,-75.562 206.029,-74.9909 203.014,-74.3485"/>
<polygon fill="midnightblue" stroke="midnightblue" points="2090.66,-232.17 2100.99,-229.844 2091.46,-225.216 2090.66,-232.17"/>
</g>
<!-- Node5 -->
<g id="node5" class="node"><title>Node5</title>
<g id="a_node5"><a xlink:href="../../d9/d68/socket__manager_8h.html" target="_top" xlink:title="socket_manager.h">
<polygon fill="none" stroke="black" points="2079.5,-168.5 2079.5,-187.5 2176.5,-187.5 2176.5,-168.5 2079.5,-168.5"/>
<text text-anchor="middle" x="2128" y="-175.5" font-family="Helvetica,sans-Serif" font-size="10.00">socket_manager.h</text>
</a>
</g>
</g>
<!-- Node1&#45;&gt;Node5 -->
<g id="edge4" class="edge"><title>Node1&#45;&gt;Node5</title>
<path fill="none" stroke="midnightblue" d="M2128,-213.805C2128,-204.91 2128,-194.78 2128,-187.751"/>
<polygon fill="midnightblue" stroke="midnightblue" points="2124.5,-214.083 2128,-224.083 2131.5,-214.083 2124.5,-214.083"/>
</g>
<!-- Node48 -->
<g id="node48" class="node"><title>Node48</title>
<g id="a_node48"><a xlink:href="../../d0/d04/socket__default__socket_8h.html" target="_top" xlink:title="socket_default_socket.h">
<polygon fill="none" stroke="black" points="3337.5,-112.5 3337.5,-131.5 3460.5,-131.5 3460.5,-112.5 3337.5,-112.5"/>
<text text-anchor="middle" x="3399" y="-119.5" font-family="Helvetica,sans-Serif" font-size="10.00">socket_default_socket.h</text>
</a>
</g>
</g>
<!-- Node1&#45;&gt;Node48 -->
<g id="edge54" class="edge"><title>Node1&#45;&gt;Node48</title>
<path fill="none" stroke="midnightblue" d="M2165.34,-229.768C2344.08,-214.299 3112.83,-147.767 3337.26,-128.343"/>
<polygon fill="midnightblue" stroke="midnightblue" points="2164.8,-226.302 2155.13,-230.652 2165.4,-233.276 2164.8,-226.302"/>
</g>
<!-- Node49 -->
<g id="node49" class="node"><title>Node49</title>
<g id="a_node49"><a xlink:href="../../d2/da1/socket__dynamic__socket_8h.html" target="_top" xlink:title="socket_dynamic_socket.h">
<polygon fill="none" stroke="black" points="3615.5,-112.5 3615.5,-131.5 3746.5,-131.5 3746.5,-112.5 3615.5,-112.5"/>
<text text-anchor="middle" x="3681" y="-119.5" font-family="Helvetica,sans-Serif" font-size="10.00">socket_dynamic_socket.h</text>
</a>
</g>
</g>
<!-- Node1&#45;&gt;Node49 -->
<g id="edge57" class="edge"><title>Node1&#45;&gt;Node49</title>
<path fill="none" stroke="midnightblue" d="M2165.41,-230.446C2265.02,-223.638 2545.02,-204.45 2778,-188 3091.57,-165.86 3466.34,-138.641 3615.29,-127.792"/>
<polygon fill="midnightblue" stroke="midnightblue" points="2164.99,-226.967 2155.25,-231.14 2165.46,-233.95 2164.99,-226.967"/>
</g>
<!-- Node50 -->
<g id="node50" class="node"><title>Node50</title>
<g id="a_node50"><a xlink:href="../../da/d58/socket__win__socket_8h.html" target="_top" xlink:title="socket_win_socket.h">
<polygon fill="none" stroke="black" points="3909.5,-112.5 3909.5,-131.5 4018.5,-131.5 4018.5,-112.5 3909.5,-112.5"/>
<text text-anchor="middle" x="3964" y="-119.5" font-family="Helvetica,sans-Serif" font-size="10.00">socket_win_socket.h</text>
</a>
</g>
</g>
<!-- Node1&#45;&gt;Node50 -->
<g id="edge60" class="edge"><title>Node1&#45;&gt;Node50</title>
<path fill="none" stroke="midnightblue" d="M2165.31,-230.992C2279.56,-224.823 2634.74,-205.506 2929,-188 3303.95,-165.694 3755.15,-136.576 3909.31,-126.563"/>
<polygon fill="midnightblue" stroke="midnightblue" points="2165.12,-227.497 2155.32,-231.531 2165.49,-234.487 2165.12,-227.497"/>
</g>
<!-- Node6 -->
<g id="node6" class="node"><title>Node6</title>
<g id="a_node6"><a xlink:href="../../d0/d51/daemon_8h.html" target="_top" xlink:title="daemon.h">
<polygon fill="none" stroke="red" points="1986.5,-112.5 1986.5,-131.5 2045.5,-131.5 2045.5,-112.5 1986.5,-112.5"/>
<text text-anchor="middle" x="2016" y="-119.5" font-family="Helvetica,sans-Serif" font-size="10.00">daemon.h</text>
</a>
</g>
</g>
<!-- Node5&#45;&gt;Node6 -->
<g id="edge5" class="edge"><title>Node5&#45;&gt;Node6</title>
<path fill="none" stroke="midnightblue" d="M2100.75,-163.862C2079.98,-153.849 2051.98,-140.346 2033.95,-131.655"/>
<polygon fill="midnightblue" stroke="midnightblue" points="2099.48,-167.134 2110.01,-168.324 2102.52,-160.828 2099.48,-167.134"/>
</g>
<!-- Node41 -->
<g id="node41" class="node"><title>Node41</title>
<g id="a_node41"><a xlink:href="../../db/de8/socket__manager_8c.html" target="_top" xlink:title="socket_manager.c">
<polygon fill="none" stroke="black" points="3224.5,-56.5 3224.5,-75.5 3321.5,-75.5 3321.5,-56.5 3224.5,-56.5"/>
<text text-anchor="middle" x="3273" y="-63.5" font-family="Helvetica,sans-Serif" font-size="10.00">socket_manager.c</text>
</a>
</g>
</g>
<!-- Node5&#45;&gt;Node41 -->
<g id="edge53" class="edge"><title>Node5&#45;&gt;Node41</title>
<path fill="none" stroke="midnightblue" d="M2186.92,-172.802C2350.44,-160.877 2823.67,-124.496 3215,-76 3218.03,-75.624 3221.15,-75.2126 3224.3,-74.7791"/>
<polygon fill="midnightblue" stroke="midnightblue" points="2186.32,-169.337 2176.6,-173.552 2186.83,-176.318 2186.32,-169.337"/>
</g>
<!-- Node6&#45;&gt;Node2 -->
<g id="edge43" class="edge"><title>Node6&#45;&gt;Node2</title>
<path fill="none" stroke="midnightblue" d="M1976.36,-121.184C1734.62,-122.141 456.402,-124.784 68,-76 64.9664,-75.619 61.8235,-75.1031 58.6984,-74.5099"/>
<polygon fill="midnightblue" stroke="midnightblue" points="1976.46,-124.684 1986.45,-121.143 1976.43,-117.684 1976.46,-124.684"/>
</g>
<!-- Node6&#45;&gt;Node3 -->
<g id="edge44" class="edge"><title>Node6&#45;&gt;Node3</title>
<path fill="none" stroke="midnightblue" d="M1975.93,-120.571C1720.78,-117.766 327.583,-101.38 140,-76 137.063,-75.6027 134.02,-75.0575 131.002,-74.4306"/>
<polygon fill="midnightblue" stroke="midnightblue" points="1976.18,-124.073 1986.21,-120.683 1976.25,-117.074 1976.18,-124.073"/>
</g>
<!-- Node6&#45;&gt;Node4 -->
<g id="edge45" class="edge"><title>Node6&#45;&gt;Node4</title>
<path fill="none" stroke="midnightblue" d="M1976.29,-120.534C1727.85,-117.548 392.09,-100.453 212,-76 209.063,-75.6013 206.02,-75.0552 203.003,-74.4277"/>
<polygon fill="midnightblue" stroke="midnightblue" points="1976.27,-124.034 1986.32,-120.654 1976.36,-117.034 1976.27,-124.034"/>
</g>
<!-- Node7 -->
<g id="node7" class="node"><title>Node7</title>
<g id="a_node7"><a xlink:href="../../d9/df7/charon_8c.html" target="_top" xlink:title="charon.c">
<polygon fill="none" stroke="black" points="548,-56.5 548,-75.5 602,-75.5 602,-56.5 548,-56.5"/>
<text text-anchor="middle" x="575" y="-63.5" font-family="Helvetica,sans-Serif" font-size="10.00">charon.c</text>
</a>
</g>
</g>
<!-- Node6&#45;&gt;Node7 -->
<g id="edge6" class="edge"><title>Node6&#45;&gt;Node7</title>
<path fill="none" stroke="midnightblue" d="M1976.4,-120.87C1777.39,-120.043 885.27,-114.231 611,-76 608.065,-75.5909 605.022,-75.0382 602.005,-74.4067"/>
<polygon fill="midnightblue" stroke="midnightblue" points="1976.39,-124.37 1986.41,-120.91 1976.42,-117.37 1976.39,-124.37"/>
</g>
<!-- Node8 -->
<g id="node8" class="node"><title>Node8</title>
<g id="a_node8"><a xlink:href="../../d6/d89/charon-cmd_8c.html" target="_top" xlink:title="charon&#45;cmd.c">
<polygon fill="none" stroke="black" points="620,-56.5 620,-75.5 696,-75.5 696,-56.5 620,-56.5"/>
<text text-anchor="middle" x="658" y="-63.5" font-family="Helvetica,sans-Serif" font-size="10.00">charon&#45;cmd.c</text>
</a>
</g>
</g>
<!-- Node6&#45;&gt;Node8 -->
<g id="edge7" class="edge"><title>Node6&#45;&gt;Node8</title>
<path fill="none" stroke="midnightblue" d="M1976.07,-120.464C1784.72,-117.767 960.436,-104.666 705,-76 702.11,-75.6757 699.132,-75.2719 696.144,-74.8163"/>
<polygon fill="midnightblue" stroke="midnightblue" points="1976.18,-123.966 1986.23,-120.606 1976.28,-116.966 1976.18,-123.966"/>
</g>
<!-- Node9 -->
<g id="node9" class="node"><title>Node9</title>
<g id="a_node9"><a xlink:href="../../d7/d9c/cmd__connection_8c.html" target="_top" xlink:title="cmd_connection.c">
<polygon fill="none" stroke="black" points="714,-56.5 714,-75.5 810,-75.5 810,-56.5 714,-56.5"/>
<text text-anchor="middle" x="762" y="-63.5" font-family="Helvetica,sans-Serif" font-size="10.00">cmd_connection.c</text>
</a>
</g>
</g>
<!-- Node6&#45;&gt;Node9 -->
<g id="edge8" class="edge"><title>Node6&#45;&gt;Node9</title>
<path fill="none" stroke="midnightblue" d="M1976.1,-121.22C1824.76,-121.69 1271.77,-120.098 819,-76 816.108,-75.7184 813.14,-75.385 810.15,-75.0154"/>
<polygon fill="midnightblue" stroke="midnightblue" points="1976.31,-124.719 1986.3,-121.183 1976.29,-117.719 1976.31,-124.719"/>
</g>
<!-- Node10 -->
<g id="node10" class="node"><title>Node10</title>
<g id="a_node10"><a xlink:href="../../df/d4e/charon-nm_8c.html" target="_top" xlink:title="charon&#45;nm.c">
<polygon fill="none" stroke="black" points="828.5,-56.5 828.5,-75.5 899.5,-75.5 899.5,-56.5 828.5,-56.5"/>
<text text-anchor="middle" x="864" y="-63.5" font-family="Helvetica,sans-Serif" font-size="10.00">charon&#45;nm.c</text>
</a>
</g>
</g>
<!-- Node6&#45;&gt;Node10 -->
<g id="edge9" class="edge"><title>Node6&#45;&gt;Node10</title>
<path fill="none" stroke="midnightblue" d="M1976.36,-120.223C1804.38,-116.722 1122.02,-101.473 909,-76 905.994,-75.6405 902.889,-75.1895 899.78,-74.682"/>
<polygon fill="midnightblue" stroke="midnightblue" points="1976.41,-123.724 1986.48,-120.427 1976.55,-116.726 1976.41,-123.724"/>
</g>
<!-- Node11 -->
<g id="node11" class="node"><title>Node11</title>
<g id="a_node11"><a xlink:href="../../d2/dca/nm__backend_8c.html" target="_top" xlink:title="nm_backend.c">
<polygon fill="none" stroke="black" points="918,-56.5 918,-75.5 998,-75.5 998,-56.5 918,-56.5"/>
<text text-anchor="middle" x="958" y="-63.5" font-family="Helvetica,sans-Serif" font-size="10.00">nm_backend.c</text>
</a>
</g>
</g>
<!-- Node6&#45;&gt;Node11 -->
<g id="edge10" class="edge"><title>Node6&#45;&gt;Node11</title>
<path fill="none" stroke="midnightblue" d="M1975.8,-121.181C1839.41,-121.374 1381.89,-118.585 1007,-76 1004.08,-75.6681 1001.07,-75.2656 998.045,-74.8171"/>
<polygon fill="midnightblue" stroke="midnightblue" points="1976.18,-124.68 1986.17,-121.159 1976.16,-117.68 1976.18,-124.68"/>
</g>
<!-- Node12 -->
<g id="node12" class="node"><title>Node12</title>
<g id="a_node12"><a xlink:href="../../df/dfb/nm__creds_8c.html" target="_top" xlink:title="nm_creds.c">
<polygon fill="none" stroke="black" points="1016,-56.5 1016,-75.5 1084,-75.5 1084,-56.5 1016,-56.5"/>
<text text-anchor="middle" x="1050" y="-63.5" font-family="Helvetica,sans-Serif" font-size="10.00">nm_creds.c</text>
</a>
</g>
</g>
<!-- Node6&#45;&gt;Node12 -->
<g id="edge11" class="edge"><title>Node6&#45;&gt;Node12</title>
<path fill="none" stroke="midnightblue" d="M1976.22,-121.293C1847.77,-121.762 1432.74,-119.56 1093,-76 1090.13,-75.6314 1087.16,-75.1739 1084.18,-74.6621"/>
<polygon fill="midnightblue" stroke="midnightblue" points="1976.38,-124.792 1986.36,-121.248 1976.35,-117.792 1976.38,-124.792"/>
</g>
<!-- Node13 -->
<g id="node13" class="node"><title>Node13</title>
<g id="a_node13"><a xlink:href="../../dc/de7/nm__handler_8c.html" target="_top" xlink:title="nm_handler.c">
<polygon fill="none" stroke="black" points="1102.5,-56.5 1102.5,-75.5 1177.5,-75.5 1177.5,-56.5 1102.5,-56.5"/>
<text text-anchor="middle" x="1140" y="-63.5" font-family="Helvetica,sans-Serif" font-size="10.00">nm_handler.c</text>
</a>
</g>
</g>
<!-- Node6&#45;&gt;Node13 -->
<g id="edge12" class="edge"><title>Node6&#45;&gt;Node13</title>
<path fill="none" stroke="midnightblue" d="M1976.31,-120.802C1856.53,-119.784 1488.35,-113.589 1186,-76 1183.25,-75.6587 1180.43,-75.2492 1177.59,-74.7958"/>
<polygon fill="midnightblue" stroke="midnightblue" points="1976.44,-124.303 1986.46,-120.88 1976.49,-117.303 1976.44,-124.303"/>
</g>
<!-- Node14 -->
<g id="node14" class="node"><title>Node14</title>
<g id="a_node14"><a xlink:href="../../d0/d53/nm__service_8c.html" target="_top" xlink:title="nm_service.c">
<polygon fill="none" stroke="black" points="1195.5,-56.5 1195.5,-75.5 1270.5,-75.5 1270.5,-56.5 1195.5,-56.5"/>
<text text-anchor="middle" x="1233" y="-63.5" font-family="Helvetica,sans-Serif" font-size="10.00">nm_service.c</text>
</a>
</g>
</g>
<!-- Node6&#45;&gt;Node14 -->
<g id="edge13" class="edge"><title>Node6&#45;&gt;Node14</title>
<path fill="none" stroke="midnightblue" d="M1976.33,-120.42C1865.59,-118.404 1543.84,-109.843 1279,-76 1276.26,-75.6493 1273.43,-75.233 1270.59,-74.7747"/>
<polygon fill="midnightblue" stroke="midnightblue" points="1976.32,-123.92 1986.38,-120.595 1976.44,-116.921 1976.32,-123.92"/>
</g>
<!-- Node15 -->
<g id="node15" class="node"><title>Node15</title>
<g id="a_node15"><a xlink:href="../../dd/dcc/charon-svc_8c.html" target="_top" xlink:title="charon&#45;svc.c">
<polygon fill="none" stroke="black" points="1288.5,-56.5 1288.5,-75.5 1361.5,-75.5 1361.5,-56.5 1288.5,-56.5"/>
<text text-anchor="middle" x="1325" y="-63.5" font-family="Helvetica,sans-Serif" font-size="10.00">charon&#45;svc.c</text>
</a>
</g>
</g>
<!-- Node6&#45;&gt;Node15 -->
<g id="edge14" class="edge"><title>Node6&#45;&gt;Node15</title>
<path fill="none" stroke="midnightblue" d="M1976.13,-119.995C1874.59,-117.051 1598.15,-106.633 1370,-76 1367.32,-75.6395 1364.55,-75.216 1361.77,-74.7526"/>
<polygon fill="midnightblue" stroke="midnightblue" points="1976.15,-123.497 1986.24,-120.28 1976.35,-116.499 1976.15,-123.497"/>
</g>
<!-- Node16 -->
<g id="node16" class="node"><title>Node16</title>
<g id="a_node16"><a xlink:href="../../de/d51/charon-systemd_8c.html" target="_top" xlink:title="charon&#45;systemd.c">
<polygon fill="none" stroke="black" points="1379.5,-56.5 1379.5,-75.5 1474.5,-75.5 1474.5,-56.5 1379.5,-56.5"/>
<text text-anchor="middle" x="1427" y="-63.5" font-family="Helvetica,sans-Serif" font-size="10.00">charon&#45;systemd.c</text>
</a>
</g>
</g>
<!-- Node6&#45;&gt;Node16 -->
<g id="edge15" class="edge"><title>Node6&#45;&gt;Node16</title>
<path fill="none" stroke="midnightblue" d="M1976.06,-118.611C1887.35,-113.088 1667.26,-98.1891 1484,-76 1480.92,-75.6267 1477.74,-75.2118 1474.55,-74.7709"/>
<polygon fill="midnightblue" stroke="midnightblue" points="1976.02,-122.115 1986.22,-119.238 1976.45,-115.128 1976.02,-122.115"/>
</g>
<!-- Node17 -->
<g id="node17" class="node"><title>Node17</title>
<g id="a_node17"><a xlink:href="../../d4/d9f/charon-tkm_8c.html" target="_top" xlink:title="charon&#45;tkm.c">
<polygon fill="none" stroke="black" points="1493,-56.5 1493,-75.5 1567,-75.5 1567,-56.5 1493,-56.5"/>
<text text-anchor="middle" x="1530" y="-63.5" font-family="Helvetica,sans-Serif" font-size="10.00">charon&#45;tkm.c</text>
</a>
</g>
</g>
<!-- Node6&#45;&gt;Node17 -->
<g id="edge16" class="edge"><title>Node6&#45;&gt;Node17</title>
<path fill="none" stroke="midnightblue" d="M1976,-118.139C1898.53,-112.326 1722.71,-97.8084 1576,-76 1573.1,-75.5693 1570.11,-75.0817 1567.11,-74.5618"/>
<polygon fill="midnightblue" stroke="midnightblue" points="1976.04,-121.651 1986.27,-118.902 1976.56,-114.671 1976.04,-121.651"/>
</g>
<!-- Node18 -->
<g id="node18" class="node"><title>Node18</title>
<g id="a_node18"><a xlink:href="../../d8/dca/tkm_8c.html" target="_top" xlink:title="tkm.c">
<polygon fill="none" stroke="black" points="1585.5,-56.5 1585.5,-75.5 1626.5,-75.5 1626.5,-56.5 1585.5,-56.5"/>
<text text-anchor="middle" x="1606" y="-63.5" font-family="Helvetica,sans-Serif" font-size="10.00">tkm.c</text>
</a>
</g>
</g>
<!-- Node6&#45;&gt;Node18 -->
<g id="edge17" class="edge"><title>Node6&#45;&gt;Node18</title>
<path fill="none" stroke="midnightblue" d="M1975.93,-118.691C1906.07,-114.129 1757.7,-102.056 1635,-76 1632.32,-75.4306 1629.53,-74.7212 1626.79,-73.9521"/>
<polygon fill="midnightblue" stroke="midnightblue" points="1975.85,-122.193 1986.06,-119.335 1976.3,-115.208 1975.85,-122.193"/>
</g>
<!-- Node19 -->
<g id="node19" class="node"><title>Node19</title>
<g id="a_node19"><a xlink:href="../../d1/de8/tkm__diffie__hellman_8c.html" target="_top" xlink:title="tkm_diffie_hellman.c">
<polygon fill="none" stroke="black" points="1644.5,-56.5 1644.5,-75.5 1751.5,-75.5 1751.5,-56.5 1644.5,-56.5"/>
<text text-anchor="middle" x="1698" y="-63.5" font-family="Helvetica,sans-Serif" font-size="10.00">tkm_diffie_hellman.c</text>
</a>
</g>
</g>
<!-- Node6&#45;&gt;Node19 -->
<g id="edge18" class="edge"><title>Node6&#45;&gt;Node19</title>
<path fill="none" stroke="midnightblue" d="M1976.17,-114.236C1918.36,-104.419 1811.23,-86.228 1748.13,-75.512"/>
<polygon fill="midnightblue" stroke="midnightblue" points="1975.92,-117.745 1986.37,-115.968 1977.1,-110.843 1975.92,-117.745"/>
</g>
<!-- Node20 -->
<g id="node20" class="node"><title>Node20</title>
<g id="a_node20"><a xlink:href="../../d9/d3b/tkm__keymat_8c.html" target="_top" xlink:title="tkm_keymat.c">
<polygon fill="none" stroke="black" points="1769.5,-56.5 1769.5,-75.5 1848.5,-75.5 1848.5,-56.5 1769.5,-56.5"/>
<text text-anchor="middle" x="1809" y="-63.5" font-family="Helvetica,sans-Serif" font-size="10.00">tkm_keymat.c</text>
</a>
</g>
</g>
<!-- Node6&#45;&gt;Node20 -->
<g id="edge19" class="edge"><title>Node6&#45;&gt;Node20</title>
<path fill="none" stroke="midnightblue" d="M1976.62,-110.726C1937.51,-100.524 1878.25,-85.0663 1841.68,-75.5243"/>
<polygon fill="midnightblue" stroke="midnightblue" points="1975.78,-114.125 1986.34,-113.263 1977.55,-107.352 1975.78,-114.125"/>
</g>
<!-- Node21 -->
<g id="node21" class="node"><title>Node21</title>
<g id="a_node21"><a xlink:href="../../d4/dea/tkm__listener_8c.html" target="_top" xlink:title="tkm_listener.c">
<polygon fill="none" stroke="black" points="1867,-56.5 1867,-75.5 1945,-75.5 1945,-56.5 1867,-56.5"/>
<text text-anchor="middle" x="1906" y="-63.5" font-family="Helvetica,sans-Serif" font-size="10.00">tkm_listener.c</text>
</a>
</g>
</g>
<!-- Node6&#45;&gt;Node21 -->
<g id="edge20" class="edge"><title>Node6&#45;&gt;Node21</title>
<path fill="none" stroke="midnightblue" d="M1989.24,-107.862C1968.84,-97.8492 1941.33,-84.3458 1923.63,-75.6545"/>
<polygon fill="midnightblue" stroke="midnightblue" points="1987.81,-111.059 1998.33,-112.324 1990.89,-104.775 1987.81,-111.059"/>
</g>
<!-- Node22 -->
<g id="node22" class="node"><title>Node22</title>
<g id="a_node22"><a xlink:href="../../d9/d10/tkm__spi__generator_8c.html" target="_top" xlink:title="tkm_spi_generator.c">
<polygon fill="none" stroke="black" points="1963.5,-56.5 1963.5,-75.5 2068.5,-75.5 2068.5,-56.5 1963.5,-56.5"/>
<text text-anchor="middle" x="2016" y="-63.5" font-family="Helvetica,sans-Serif" font-size="10.00">tkm_spi_generator.c</text>
</a>
</g>
</g>
<!-- Node6&#45;&gt;Node22 -->
<g id="edge21" class="edge"><title>Node6&#45;&gt;Node22</title>
<path fill="none" stroke="midnightblue" d="M2016,-101.805C2016,-92.9102 2016,-82.7798 2016,-75.7511"/>
<polygon fill="midnightblue" stroke="midnightblue" points="2012.5,-102.083 2016,-112.083 2019.5,-102.083 2012.5,-102.083"/>
</g>
<!-- Node23 -->
<g id="node23" class="node"><title>Node23</title>
<g id="a_node23"><a xlink:href="../../dc/d15/diffie__hellman__tests_8c.html" target="_top" xlink:title="diffie_hellman_tests.c">
<polygon fill="none" stroke="black" points="2087,-56.5 2087,-75.5 2199,-75.5 2199,-56.5 2087,-56.5"/>
<text text-anchor="middle" x="2143" y="-63.5" font-family="Helvetica,sans-Serif" font-size="10.00">diffie_hellman_tests.c</text>
</a>
</g>
</g>
<!-- Node6&#45;&gt;Node23 -->
<g id="edge22" class="edge"><title>Node6&#45;&gt;Node23</title>
<path fill="none" stroke="midnightblue" d="M2045.39,-108.503C2069.2,-98.3795 2102.11,-84.388 2122.97,-75.5164"/>
<polygon fill="midnightblue" stroke="midnightblue" points="2043.96,-105.31 2036.12,-112.444 2046.7,-111.751 2043.96,-105.31"/>
</g>
<!-- Node24 -->
<g id="node24" class="node"><title>Node24</title>
<g id="a_node24"><a xlink:href="../../d7/d52/keymat__tests_8c.html" target="_top" xlink:title="keymat_tests.c">
<polygon fill="none" stroke="black" points="2217,-56.5 2217,-75.5 2301,-75.5 2301,-56.5 2217,-56.5"/>
<text text-anchor="middle" x="2259" y="-63.5" font-family="Helvetica,sans-Serif" font-size="10.00">keymat_tests.c</text>
</a>
</g>
</g>
<!-- Node6&#45;&gt;Node24 -->
<g id="edge23" class="edge"><title>Node6&#45;&gt;Node24</title>
<path fill="none" stroke="midnightblue" d="M2055.62,-112.196C2101.18,-102.071 2175.48,-85.5602 2220.55,-75.5453"/>
<polygon fill="midnightblue" stroke="midnightblue" points="2054.8,-108.793 2045.8,-114.379 2056.32,-115.626 2054.8,-108.793"/>
</g>
<!-- Node25 -->
<g id="node25" class="node"><title>Node25</title>
<g id="a_node25"><a xlink:href="../../d7/d19/charon-tkm_2tests_2tests_8c.html" target="_top" xlink:title="tests.c">
<polygon fill="none" stroke="black" points="2319.5,-56.5 2319.5,-75.5 2366.5,-75.5 2366.5,-56.5 2319.5,-56.5"/>
<text text-anchor="middle" x="2343" y="-63.5" font-family="Helvetica,sans-Serif" font-size="10.00">tests.c</text>
</a>
</g>
</g>
<!-- Node6&#45;&gt;Node25 -->
<g id="edge24" class="edge"><title>Node6&#45;&gt;Node25</title>
<path fill="none" stroke="midnightblue" d="M2055.67,-116.268C2112.22,-109.216 2219.12,-94.742 2309,-76 2312.35,-75.302 2315.86,-74.4787 2319.3,-73.6183"/>
<polygon fill="midnightblue" stroke="midnightblue" points="2055.21,-112.799 2045.71,-117.498 2056.07,-119.746 2055.21,-112.799"/>
</g>
<!-- Node26 -->
<g id="node26" class="node"><title>Node26</title>
<g id="a_node26"><a xlink:href="../../d6/dc2/checksum__builder_8c.html" target="_top" xlink:title="checksum_builder.c">
<polygon fill="none" stroke="black" points="2385,-56.5 2385,-75.5 2489,-75.5 2489,-56.5 2385,-56.5"/>
<text text-anchor="middle" x="2437" y="-63.5" font-family="Helvetica,sans-Serif" font-size="10.00">checksum_builder.c</text>
</a>
</g>
</g>
<!-- Node6&#45;&gt;Node26 -->
<g id="edge25" class="edge"><title>Node6&#45;&gt;Node26</title>
<path fill="none" stroke="midnightblue" d="M2055.83,-116.265C2122.1,-108.327 2259.19,-91.6623 2375,-76 2378.23,-75.5627 2381.56,-75.1043 2384.92,-74.6357"/>
<polygon fill="midnightblue" stroke="midnightblue" points="2055.33,-112.799 2045.81,-117.462 2056.16,-119.75 2055.33,-112.799"/>
</g>
<!-- Node27 -->
<g id="node27" class="node"><title>Node27</title>
<g id="a_node27"><a xlink:href="../../da/d29/conftest_8h.html" target="_top" xlink:title="conftest.h">
<polygon fill="none" stroke="red" points="2545,-56.5 2545,-75.5 2605,-75.5 2605,-56.5 2545,-56.5"/>
<text text-anchor="middle" x="2575" y="-63.5" font-family="Helvetica,sans-Serif" font-size="10.00">conftest.h</text>
</a>
</g>
</g>
<!-- Node6&#45;&gt;Node27 -->
<g id="edge26" class="edge"><title>Node6&#45;&gt;Node27</title>
<path fill="none" stroke="midnightblue" d="M2055.94,-119.072C2142.74,-114.541 2354.94,-101.612 2531,-76 2535.48,-75.349 2540.18,-74.531 2544.78,-73.6551"/>
<polygon fill="midnightblue" stroke="midnightblue" points="2055.55,-115.588 2045.75,-119.596 2055.91,-122.578 2055.55,-115.588"/>
</g>
<!-- Node28 -->
<g id="node28" class="node"><title>Node28</title>
<g id="a_node28"><a xlink:href="../../d1/d9c/actions_8c.html" target="_top" xlink:title="actions.c">
<polygon fill="none" stroke="black" points="2491,-0.5 2491,-19.5 2547,-19.5 2547,-0.5 2491,-0.5"/>
<text text-anchor="middle" x="2519" y="-7.5" font-family="Helvetica,sans-Serif" font-size="10.00">actions.c</text>
</a>
</g>
</g>
<!-- Node6&#45;&gt;Node28 -->
<g id="edge30" class="edge"><title>Node6&#45;&gt;Node28</title>
<path fill="none" stroke="midnightblue" d="M2056.01,-119.76C2165.43,-116.024 2463.81,-103.407 2498,-76 2515.21,-62.2041 2518.5,-34.1423 2519.01,-19.8275"/>
<polygon fill="midnightblue" stroke="midnightblue" points="2055.6,-116.272 2045.72,-120.104 2055.83,-123.268 2055.6,-116.272"/>
</g>
<!-- Node29 -->
<g id="node29" class="node"><title>Node29</title>
<g id="a_node29"><a xlink:href="../../d3/d95/config_8c.html" target="_top" xlink:title="config.c">
<polygon fill="none" stroke="black" points="2569.5,-0.5 2569.5,-19.5 2620.5,-19.5 2620.5,-0.5 2569.5,-0.5"/>
<text text-anchor="middle" x="2595" y="-7.5" font-family="Helvetica,sans-Serif" font-size="10.00">config.c</text>
</a>
</g>
</g>
<!-- Node6&#45;&gt;Node29 -->
<g id="edge31" class="edge"><title>Node6&#45;&gt;Node29</title>
<path fill="none" stroke="midnightblue" d="M2055.91,-121.056C2183.47,-120.823 2575.19,-116.769 2613,-76 2627.65,-60.203 2611.94,-33.5351 2601.95,-19.7839"/>
<polygon fill="midnightblue" stroke="midnightblue" points="2055.79,-117.556 2045.79,-121.067 2055.79,-124.556 2055.79,-117.556"/>
</g>
<!-- Node30 -->
<g id="node30" class="node"><title>Node30</title>
<g id="a_node30"><a xlink:href="../../d6/d34/hook_8h.html" target="_top" xlink:title="hook.h">
<polygon fill="none" stroke="red" points="2646,-0.5 2646,-19.5 2692,-19.5 2692,-0.5 2646,-0.5"/>
<text text-anchor="middle" x="2669" y="-7.5" font-family="Helvetica,sans-Serif" font-size="10.00">hook.h</text>
</a>
</g>
</g>
<!-- Node6&#45;&gt;Node30 -->
<g id="edge32" class="edge"><title>Node6&#45;&gt;Node30</title>
<path fill="none" stroke="midnightblue" d="M2055.82,-120.193C2184.12,-117.305 2581.25,-106.007 2630,-76 2651.07,-63.0309 2662.23,-34.0552 2666.67,-19.577"/>
<polygon fill="midnightblue" stroke="midnightblue" points="2055.57,-116.698 2045.65,-120.417 2055.72,-123.696 2055.57,-116.698"/>
</g>
<!-- Node31 -->
<g id="node31" class="node"><title>Node31</title>
<g id="a_node31"><a xlink:href="../../de/ddc/file__logger_8c.html" target="_top" xlink:title="file_logger.c">
<polygon fill="none" stroke="black" points="2699.5,-56.5 2699.5,-75.5 2768.5,-75.5 2768.5,-56.5 2699.5,-56.5"/>
<text text-anchor="middle" x="2734" y="-63.5" font-family="Helvetica,sans-Serif" font-size="10.00">file_logger.c</text>
</a>
</g>
</g>
<!-- Node6&#45;&gt;Node31 -->
<g id="edge33" class="edge"><title>Node6&#45;&gt;Node31</title>
<path fill="none" stroke="midnightblue" d="M2055.84,-119.911C2159.74,-116.728 2447.41,-105.71 2685,-76 2689.63,-75.4204 2694.49,-74.6849 2699.28,-73.8851"/>
<polygon fill="midnightblue" stroke="midnightblue" points="2055.68,-116.414 2045.79,-120.212 2055.89,-123.411 2055.68,-116.414"/>
</g>
<!-- Node32 -->
<g id="node32" class="node"><title>Node32</title>
<g id="a_node32"><a xlink:href="../../dc/dea/backend__manager_8c.html" target="_top" xlink:title="backend_manager.c">
<polygon fill="none" stroke="black" points="2787,-56.5 2787,-75.5 2891,-75.5 2891,-56.5 2787,-56.5"/>
<text text-anchor="middle" x="2839" y="-63.5" font-family="Helvetica,sans-Serif" font-size="10.00">backend_manager.c</text>
</a>
</g>
</g>
<!-- Node6&#45;&gt;Node32 -->
<g id="edge34" class="edge"><title>Node6&#45;&gt;Node32</title>
<path fill="none" stroke="midnightblue" d="M2056.09,-119.832C2169.48,-116.268 2502.13,-104.026 2777,-76 2780.25,-75.669 2783.58,-75.292 2786.94,-74.8843"/>
<polygon fill="midnightblue" stroke="midnightblue" points="2055.7,-116.342 2045.81,-120.15 2055.91,-123.339 2055.7,-116.342"/>
</g>
<!-- Node33 -->
<g id="node33" class="node"><title>Node33</title>
<g id="a_node33"><a xlink:href="../../d7/d1d/child__cfg_8c.html" target="_top" xlink:title="child_cfg.c">
<polygon fill="none" stroke="black" points="2909,-56.5 2909,-75.5 2973,-75.5 2973,-56.5 2909,-56.5"/>
<text text-anchor="middle" x="2941" y="-63.5" font-family="Helvetica,sans-Serif" font-size="10.00">child_cfg.c</text>
</a>
</g>
</g>
<!-- Node6&#45;&gt;Node33 -->
<g id="edge35" class="edge"><title>Node6&#45;&gt;Node33</title>
<path fill="none" stroke="midnightblue" d="M2055.77,-121.307C2180.7,-121.776 2576.27,-119.468 2900,-76 2902.89,-75.6121 2905.88,-75.1257 2908.86,-74.581"/>
<polygon fill="midnightblue" stroke="midnightblue" points="2055.56,-117.807 2045.54,-121.26 2055.52,-124.807 2055.56,-117.807"/>
</g>
<!-- Node34 -->
<g id="node34" class="node"><title>Node34</title>
<g id="a_node34"><a xlink:href="../../d4/d7b/ike__cfg_8c.html" target="_top" xlink:title="ike_cfg.c">
<polygon fill="none" stroke="black" points="2991,-56.5 2991,-75.5 3047,-75.5 3047,-56.5 2991,-56.5"/>
<text text-anchor="middle" x="3019" y="-63.5" font-family="Helvetica,sans-Serif" font-size="10.00">ike_cfg.c</text>
</a>
</g>
</g>
<!-- Node6&#45;&gt;Node34 -->
<g id="edge36" class="edge"><title>Node6&#45;&gt;Node34</title>
<path fill="none" stroke="midnightblue" d="M2056.15,-120.158C2214.87,-116.671 2798.83,-102.294 2982,-76 2984.88,-75.5867 2987.86,-75.0495 2990.83,-74.4434"/>
<polygon fill="midnightblue" stroke="midnightblue" points="2055.81,-116.665 2045.89,-120.381 2055.96,-123.663 2055.81,-116.665"/>
</g>
<!-- Node35 -->
<g id="node35" class="node"><title>Node35</title>
<g id="a_node35"><a xlink:href="../../d9/db5/peer__cfg_8c.html" target="_top" xlink:title="peer_cfg.c">
<polygon fill="none" stroke="black" points="3065,-56.5 3065,-75.5 3127,-75.5 3127,-56.5 3065,-56.5"/>
<text text-anchor="middle" x="3096" y="-63.5" font-family="Helvetica,sans-Serif" font-size="10.00">peer_cfg.c</text>
</a>
</g>
</g>
<!-- Node6&#45;&gt;Node35 -->
<g id="edge37" class="edge"><title>Node6&#45;&gt;Node35</title>
<path fill="none" stroke="midnightblue" d="M2055.87,-120.195C2221.57,-116.709 2856.38,-101.903 3055,-76 3058.18,-75.5853 3061.48,-75.0473 3064.76,-74.4407"/>
<polygon fill="midnightblue" stroke="midnightblue" points="2055.57,-116.701 2045.64,-120.409 2055.71,-123.699 2055.57,-116.701"/>
</g>
<!-- Node36 -->
<g id="node36" class="node"><title>Node36</title>
<g id="a_node36"><a xlink:href="../../dd/d31/proposal_8c.html" target="_top" xlink:title="proposal.c">
<polygon fill="none" stroke="black" points="3145,-56.5 3145,-75.5 3207,-75.5 3207,-56.5 3145,-56.5"/>
<text text-anchor="middle" x="3176" y="-63.5" font-family="Helvetica,sans-Serif" font-size="10.00">proposal.c</text>
</a>
</g>
</g>
<!-- Node6&#45;&gt;Node36 -->
<g id="edge38" class="edge"><title>Node6&#45;&gt;Node36</title>
<path fill="none" stroke="midnightblue" d="M2055.8,-120.339C2229.22,-117.313 2919.8,-103.728 3135,-76 3138.18,-75.5902 3141.48,-75.0555 3144.76,-74.4508"/>
<polygon fill="midnightblue" stroke="midnightblue" points="2055.53,-116.843 2045.6,-120.515 2055.65,-123.842 2055.53,-116.843"/>
</g>
<!-- Node37 -->
<g id="node37" class="node"><title>Node37</title>
<g id="a_node37"><a xlink:href="../../d1/d75/controller_8c.html" target="_top" xlink:title="controller.c">
<polygon fill="none" stroke="black" points="221.5,-56.5 221.5,-75.5 286.5,-75.5 286.5,-56.5 221.5,-56.5"/>
<text text-anchor="middle" x="254" y="-63.5" font-family="Helvetica,sans-Serif" font-size="10.00">controller.c</text>
</a>
</g>
</g>
<!-- Node6&#45;&gt;Node37 -->
<g id="edge39" class="edge"><title>Node6&#45;&gt;Node37</title>
<path fill="none" stroke="midnightblue" d="M1976.24,-120.414C1734.5,-116.788 466.665,-96.8932 295,-76 292.251,-75.6654 289.415,-75.2319 286.578,-74.7361"/>
<polygon fill="midnightblue" stroke="midnightblue" points="1976.28,-123.915 1986.34,-120.564 1976.39,-116.915 1976.28,-123.915"/>
</g>
<!-- Node38 -->
<g id="node38" class="node"><title>Node38</title>
<g id="a_node38"><a xlink:href="../../dc/d21/daemon_8c.html" target="_top" xlink:title="daemon.c">
<polygon fill="none" stroke="black" points="304.5,-56.5 304.5,-75.5 363.5,-75.5 363.5,-56.5 304.5,-56.5"/>
<text text-anchor="middle" x="334" y="-63.5" font-family="Helvetica,sans-Serif" font-size="10.00">daemon.c</text>
</a>
</g>
</g>
<!-- Node6&#45;&gt;Node38 -->
<g id="edge40" class="edge"><title>Node6&#45;&gt;Node38</title>
<path fill="none" stroke="midnightblue" d="M1976.18,-120.4C1740.71,-116.785 535.377,-97.353 372,-76 369.311,-75.6486 366.535,-75.1872 363.764,-74.6589"/>
<polygon fill="midnightblue" stroke="midnightblue" points="1976.29,-123.902 1986.34,-120.555 1976.39,-116.902 1976.29,-123.902"/>
</g>
<!-- Node39 -->
<g id="node39" class="node"><title>Node39</title>
<g id="a_node39"><a xlink:href="../../d3/d52/generator_8c.html" target="_top" xlink:title="generator.c">
<polygon fill="none" stroke="black" points="381.5,-56.5 381.5,-75.5 446.5,-75.5 446.5,-56.5 381.5,-56.5"/>
<text text-anchor="middle" x="414" y="-63.5" font-family="Helvetica,sans-Serif" font-size="10.00">generator.c</text>
</a>
</g>
</g>
<!-- Node6&#45;&gt;Node39 -->
<g id="edge41" class="edge"><title>Node6&#45;&gt;Node39</title>
<path fill="none" stroke="midnightblue" d="M1976.18,-120.862C1763.77,-119.974 762.292,-113.818 455,-76 452.251,-75.6617 449.416,-75.2256 446.579,-74.7281"/>
<polygon fill="midnightblue" stroke="midnightblue" points="1976.24,-124.362 1986.26,-120.903 1976.27,-117.363 1976.24,-124.362"/>
</g>
<!-- Node40 -->
<g id="node40" class="node"><title>Node40</title>
<g id="a_node40"><a xlink:href="../../d0/d6d/message_8c.html" target="_top" xlink:title="message.c">
<polygon fill="none" stroke="black" points="464.5,-56.5 464.5,-75.5 529.5,-75.5 529.5,-56.5 464.5,-56.5"/>
<text text-anchor="middle" x="497" y="-63.5" font-family="Helvetica,sans-Serif" font-size="10.00">message.c</text>
</a>
</g>
</g>
<!-- Node6&#45;&gt;Node40 -->
<g id="edge42" class="edge"><title>Node6&#45;&gt;Node40</title>
<path fill="none" stroke="midnightblue" d="M1976.38,-120.761C1771.32,-119.379 828.904,-111.185 539,-76 536.039,-75.6406 532.978,-75.1738 529.92,-74.6419"/>
<polygon fill="midnightblue" stroke="midnightblue" points="1976.38,-124.261 1986.4,-120.827 1976.42,-117.261 1976.38,-124.261"/>
</g>
<!-- Node6&#45;&gt;Node41 -->
<g id="edge46" class="edge"><title>Node6&#45;&gt;Node41</title>
<path fill="none" stroke="midnightblue" d="M2055.96,-121.185C2207.54,-121.532 2761.42,-119.554 3215,-76 3218.04,-75.7078 3221.17,-75.3605 3224.32,-74.975"/>
<polygon fill="midnightblue" stroke="midnightblue" points="2055.76,-117.685 2045.75,-121.157 2055.74,-124.685 2055.76,-117.685"/>
</g>
<!-- Node42 -->
<g id="node42" class="node"><title>Node42</title>
<g id="a_node42"><a xlink:href="../../de/d3b/socket__default__plugin_8c.html" target="_top" xlink:title="socket_default_plugin.c">
<polygon fill="none" stroke="black" points="3339.5,-56.5 3339.5,-75.5 3458.5,-75.5 3458.5,-56.5 3339.5,-56.5"/>
<text text-anchor="middle" x="3399" y="-63.5" font-family="Helvetica,sans-Serif" font-size="10.00">socket_default_plugin.c</text>
</a>
</g>
</g>
<!-- Node6&#45;&gt;Node42 -->
<g id="edge47" class="edge"><title>Node6&#45;&gt;Node42</title>
<path fill="none" stroke="midnightblue" d="M2056,-121.021C2216.4,-120.812 2828.53,-117.197 3330,-76 3333.01,-75.7527 3336.09,-75.4679 3339.2,-75.1553"/>
<polygon fill="midnightblue" stroke="midnightblue" points="2055.66,-117.521 2045.67,-121.031 2055.67,-124.521 2055.66,-117.521"/>
</g>
<!-- Node43 -->
<g id="node43" class="node"><title>Node43</title>
<g id="a_node43"><a xlink:href="../../da/dbc/socket__default__socket_8c.html" target="_top" xlink:title="socket_default_socket.c">
<polygon fill="none" stroke="black" points="3476.5,-56.5 3476.5,-75.5 3599.5,-75.5 3599.5,-56.5 3476.5,-56.5"/>
<text text-anchor="middle" x="3538" y="-63.5" font-family="Helvetica,sans-Serif" font-size="10.00">socket_default_socket.c</text>
</a>
</g>
</g>
<!-- Node6&#45;&gt;Node43 -->
<g id="edge48" class="edge"><title>Node6&#45;&gt;Node43</title>
<path fill="none" stroke="midnightblue" d="M2055.93,-121.152C2226.23,-121.505 2908.63,-119.948 3467,-76 3470.1,-75.7563 3473.27,-75.4743 3476.46,-75.1639"/>
<polygon fill="midnightblue" stroke="midnightblue" points="2055.69,-117.651 2045.68,-121.127 2055.68,-124.651 2055.69,-117.651"/>
</g>
<!-- Node44 -->
<g id="node44" class="node"><title>Node44</title>
<g id="a_node44"><a xlink:href="../../d1/d8e/socket__dynamic__plugin_8c.html" target="_top" xlink:title="socket_dynamic_plugin.c">
<polygon fill="none" stroke="black" points="3617.5,-56.5 3617.5,-75.5 3744.5,-75.5 3744.5,-56.5 3617.5,-56.5"/>
<text text-anchor="middle" x="3681" y="-63.5" font-family="Helvetica,sans-Serif" font-size="10.00">socket_dynamic_plugin.c</text>
</a>
</g>
</g>
<!-- Node6&#45;&gt;Node44 -->
<g id="edge49" class="edge"><title>Node6&#45;&gt;Node44</title>
<path fill="none" stroke="midnightblue" d="M2055.66,-121.256C2235.3,-122.127 2990.64,-122.677 3608,-76 3611.06,-75.7689 3614.18,-75.5021 3617.33,-75.2082"/>
<polygon fill="midnightblue" stroke="midnightblue" points="2055.64,-117.756 2045.62,-121.204 2055.6,-124.756 2055.64,-117.756"/>
</g>
<!-- Node45 -->
<g id="node45" class="node"><title>Node45</title>
<g id="a_node45"><a xlink:href="../../d4/d48/socket__dynamic__socket_8c.html" target="_top" xlink:title="socket_dynamic_socket.c">
<polygon fill="none" stroke="black" points="3762.5,-56.5 3762.5,-75.5 3893.5,-75.5 3893.5,-56.5 3762.5,-56.5"/>
<text text-anchor="middle" x="3828" y="-63.5" font-family="Helvetica,sans-Serif" font-size="10.00">socket_dynamic_socket.c</text>
</a>
</g>
</g>
<!-- Node6&#45;&gt;Node45 -->
<g id="edge50" class="edge"><title>Node6&#45;&gt;Node45</title>
<path fill="none" stroke="midnightblue" d="M2055.54,-121.341C2244.57,-122.687 3074.95,-125.357 3753,-76 3756.01,-75.781 3759.08,-75.5287 3762.18,-75.2509"/>
<polygon fill="midnightblue" stroke="midnightblue" points="2055.54,-117.841 2045.51,-121.267 2055.49,-124.841 2055.54,-117.841"/>
</g>
<!-- Node46 -->
<g id="node46" class="node"><title>Node46</title>
<g id="a_node46"><a xlink:href="../../d3/db7/socket__win__plugin_8c.html" target="_top" xlink:title="socket_win_plugin.c">
<polygon fill="none" stroke="black" points="3911.5,-56.5 3911.5,-75.5 4016.5,-75.5 4016.5,-56.5 3911.5,-56.5"/>
<text text-anchor="middle" x="3964" y="-63.5" font-family="Helvetica,sans-Serif" font-size="10.00">socket_win_plugin.c</text>
</a>
</g>
</g>
<!-- Node6&#45;&gt;Node46 -->
<g id="edge51" class="edge"><title>Node6&#45;&gt;Node46</title>
<path fill="none" stroke="midnightblue" d="M2055.81,-120.703C2293.28,-118.835 3525.12,-107.734 3902,-76 3905.03,-75.7445 3908.15,-75.4372 3911.28,-75.0925"/>
<polygon fill="midnightblue" stroke="midnightblue" points="2055.55,-117.205 2045.58,-120.783 2055.6,-124.205 2055.55,-117.205"/>
</g>
<!-- Node47 -->
<g id="node47" class="node"><title>Node47</title>
<g id="a_node47"><a xlink:href="../../d4/d34/socket__win__socket_8c.html" target="_top" xlink:title="socket_win_socket.c">
<polygon fill="none" stroke="black" points="4034.5,-56.5 4034.5,-75.5 4143.5,-75.5 4143.5,-56.5 4034.5,-56.5"/>
<text text-anchor="middle" x="4089" y="-63.5" font-family="Helvetica,sans-Serif" font-size="10.00">socket_win_socket.c</text>
</a>
</g>
</g>
<!-- Node6&#45;&gt;Node47 -->
<g id="edge52" class="edge"><title>Node6&#45;&gt;Node47</title>
<path fill="none" stroke="midnightblue" d="M2056.04,-120.745C2303.04,-119.073 3622.19,-108.72 4025,-76 4028.02,-75.7547 4031.11,-75.4611 4034.23,-75.132"/>
<polygon fill="midnightblue" stroke="midnightblue" points="2055.72,-117.247 2045.74,-120.814 2055.77,-124.247 2055.72,-117.247"/>
</g>
<!-- Node27&#45;&gt;Node28 -->
<g id="edge27" class="edge"><title>Node27&#45;&gt;Node28</title>
<path fill="none" stroke="midnightblue" d="M2558.67,-49.2533C2548.74,-39.6731 2536.41,-27.7906 2528.16,-19.8339"/>
<polygon fill="midnightblue" stroke="midnightblue" points="2556.37,-51.902 2566,-56.324 2561.23,-46.8631 2556.37,-51.902"/>
</g>
<!-- Node27&#45;&gt;Node29 -->
<g id="edge28" class="edge"><title>Node27&#45;&gt;Node29</title>
<path fill="none" stroke="midnightblue" d="M2581.78,-46.6897C2585.15,-37.589 2589.07,-27.0141 2591.76,-19.7511"/>
<polygon fill="midnightblue" stroke="midnightblue" points="2578.49,-45.4899 2578.3,-56.083 2585.06,-47.9211 2578.49,-45.4899"/>
</g>
<!-- Node27&#45;&gt;Node30 -->
<g id="edge29" class="edge"><title>Node27&#45;&gt;Node30</title>
<path fill="none" stroke="midnightblue" d="M2599.06,-51.1774C2616.36,-41.2407 2639.15,-28.1492 2653.93,-19.6545"/>
<polygon fill="midnightblue" stroke="midnightblue" points="2597.03,-48.3078 2590.1,-56.324 2600.52,-54.3775 2597.03,-48.3078"/>
</g>
<!-- Node48&#45;&gt;Node42 -->
<g id="edge55" class="edge"><title>Node48&#45;&gt;Node42</title>
<path fill="none" stroke="midnightblue" d="M3399,-101.805C3399,-92.9102 3399,-82.7798 3399,-75.7511"/>
<polygon fill="midnightblue" stroke="midnightblue" points="3395.5,-102.083 3399,-112.083 3402.5,-102.083 3395.5,-102.083"/>
</g>
<!-- Node48&#45;&gt;Node43 -->
<g id="edge56" class="edge"><title>Node48&#45;&gt;Node43</title>
<path fill="none" stroke="midnightblue" d="M3430.48,-108.772C3456.59,-98.6287 3493.04,-84.4669 3516.08,-75.5164"/>
<polygon fill="midnightblue" stroke="midnightblue" points="3429.08,-105.56 3421.02,-112.444 3431.61,-112.085 3429.08,-105.56"/>
</g>
<!-- Node49&#45;&gt;Node44 -->
<g id="edge58" class="edge"><title>Node49&#45;&gt;Node44</title>
<path fill="none" stroke="midnightblue" d="M3681,-101.805C3681,-92.9102 3681,-82.7798 3681,-75.7511"/>
<polygon fill="midnightblue" stroke="midnightblue" points="3677.5,-102.083 3681,-112.083 3684.5,-102.083 3677.5,-102.083"/>
</g>
<!-- Node49&#45;&gt;Node45 -->
<g id="edge59" class="edge"><title>Node49&#45;&gt;Node45</title>
<path fill="none" stroke="midnightblue" d="M3713.92,-108.906C3741.56,-98.7536 3780.34,-84.5063 3804.82,-75.5164"/>
<polygon fill="midnightblue" stroke="midnightblue" points="3712.47,-105.71 3704.29,-112.444 3714.89,-112.281 3712.47,-105.71"/>
</g>
<!-- Node50&#45;&gt;Node46 -->
<g id="edge61" class="edge"><title>Node50&#45;&gt;Node46</title>
<path fill="none" stroke="midnightblue" d="M3964,-101.805C3964,-92.9102 3964,-82.7798 3964,-75.7511"/>
<polygon fill="midnightblue" stroke="midnightblue" points="3960.5,-102.083 3964,-112.083 3967.5,-102.083 3960.5,-102.083"/>
</g>
<!-- Node50&#45;&gt;Node47 -->
<g id="edge62" class="edge"><title>Node50&#45;&gt;Node47</title>
<path fill="none" stroke="midnightblue" d="M3993.24,-108.368C4016.65,-98.2553 4048.84,-84.3486 4069.29,-75.5164"/>
<polygon fill="midnightblue" stroke="midnightblue" points="3991.6,-105.265 3983.81,-112.444 3994.37,-111.691 3991.6,-105.265"/>
</g>
</g>
</svg>
        <g id="navigator" transform="translate(0 0)" fill="#404254">
                <rect fill="#f2f5e9" fill-opacity="0.5" stroke="#606060" stroke-width=".5" x="0" y="0" width="60" height="60"/>
                <use id="zoomplus" xlink:href="#zoomPlus" x="17" y="9" onmousedown="handleZoom(evt,'in')"/>
                <use id="zoomminus" xlink:href="#zoomMin" x="42" y="9" onmousedown="handleZoom(evt,'out')"/>
                <use id="reset" xlink:href="#resetDef" x="30" y="36" onmousedown="handleReset()"/>
                <g id="arrowUp" xlink:href="#dirArrow" transform="translate(30 24)" onmousedown="handlePan(0,-1)">
                  <use xlink:href="#rim" fill="#404040">
                        <set attributeName="fill" to="#808080" begin="arrowUp.mouseover" end="arrowUp.mouseout"/>
                  </use>
                  <path fill="none" stroke="white" stroke-width="1.5" d="M0,-3.0v7 M-2.5,-0.5L0,-3.0L2.5,-0.5"/>
                </g>
                <g id="arrowRight" xlink:href="#dirArrow" transform="rotate(90) translate(36 -43)" onmousedown="handlePan(1,0)">
                  <use xlink:href="#rim" fill="#404040">
                        <set attributeName="fill" to="#808080" begin="arrowRight.mouseover" end="arrowRight.mouseout"/>
                  </use>
                  <path fill="none" stroke="white" stroke-width="1.5" d="M0,-3.0v7 M-2.5,-0.5L0,-3.0L2.5,-0.5"/>
                </g>
                <g id="arrowDown" xlink:href="#dirArrow" transform="rotate(180) translate(-30 -48)" onmousedown="handlePan(0,1)">
                  <use xlink:href="#rim" fill="#404040">
                        <set attributeName="fill" to="#808080" begin="arrowDown.mouseover" end="arrowDown.mouseout"/>
                  </use>
                  <path fill="none" stroke="white" stroke-width="1.5" d="M0,-3.0v7 M-2.5,-0.5L0,-3.0L2.5,-0.5"/>
                </g>
                <g id="arrowLeft" xlink:href="#dirArrow" transform="rotate(270) translate(-36 17)" onmousedown="handlePan(-1,0)">
                  <use xlink:href="#rim" fill="#404040">
                        <set attributeName="fill" to="#808080" begin="arrowLeft.mouseover" end="arrowLeft.mouseout"/>
                  </use>
                  <path fill="none" stroke="white" stroke-width="1.5" d="M0,-3.0v7 M-2.5,-0.5L0,-3.0L2.5,-0.5"/>
                </g>
        </g>
        <svg viewBox="0 0 15 15" width="100%" height="30px" preserveAspectRatio="xMaxYMin meet">
         <g id="arrow_out" transform="scale(0.3 0.3)">
          <a xlink:href="libcharon_2network_2socket_8h__dep__incl_org.svg" target="_base">
           <rect id="button" ry="5" rx="5" y="6" x="6" height="38" width="38"
                fill="#f2f5e9" fill-opacity="0.5" stroke="#606060" stroke-width="1.0"/>
           <path id="arrow"
             d="M 11.500037,31.436501 C 11.940474,20.09759 22.043105,11.32322 32.158766,21.979434 L 37.068811,17.246167 C 37.068811,17.246167 37.088388,32 37.088388,32 L 22.160133,31.978069 C 22.160133,31.978069 26.997745,27.140456 26.997745,27.140456 C 18.528582,18.264221 13.291696,25.230495 11.500037,31.436501 z"
             style="fill:#404040;"/>
          </a>
         </g>
        </svg>
</svg>
