<?xml version="1.0" encoding="UTF-8" standalone="no"?>
<!DOCTYPE svg PUBLIC "-//W3C//DTD SVG 1.1//EN"
 "http://www.w3.org/Graphics/SVG/1.1/DTD/svg11.dtd">
<!-- Generated by graphviz version 2.36.0 (20140111.2315)
 -->
<!-- Title: generic_attr_chunk_create_from_data Pages: 1 -->
<!--zoomable 256 -->
<svg id="main" version="1.1" xmlns="http://www.w3.org/2000/svg" xmlns:xlink="http://www.w3.org/1999/xlink" xml:space="preserve" onload="init(evt)">
<style type="text/css"><![CDATA[
.edge:hover path { stroke: red; }
.edge:hover polygon { stroke: red; fill: red; }
]]></style>
<script type="text/javascript"><![CDATA[
var edges = document.getElementsByTagName('g');
if (edges && edges.length) {
  for (var i=0;i<edges.length;i++) {
    if (edges[i].id.substr(0,4)=='edge') {
      edges[i].setAttribute('class','edge');
    }
  }
}
]]></script>
        <defs>
                <circle id="rim" cx="0" cy="0" r="7"/>
                <circle id="rim2" cx="0" cy="0" r="3.5"/>
                <g id="zoomPlus">
                        <use xlink:href="#rim" fill="#404040">
                                <set attributeName="fill" to="#808080" begin="zoomplus.mouseover" end="zoomplus.mouseout"/>
                        </use>
                        <path d="M-4,0h8M0,-4v8" fill="none" stroke="white" stroke-width="1.5" pointer-events="none"/>
                </g>
                <g id="zoomMin">
                        <use xlink:href="#rim" fill="#404040">
                                <set attributeName="fill" to="#808080" begin="zoomminus.mouseover" end="zoomminus.mouseout"/>
                        </use>
                        <path d="M-4,0h8" fill="none" stroke="white" stroke-width="1.5" pointer-events="none"/>
                </g>
                <g id="dirArrow">
                        <path fill="none" stroke="white" stroke-width="1.5" d="M0,-3.0v7 M-2.5,-0.5L0,-3.0L2.5,-0.5"/>
                </g>
               <g id="resetDef">
                       <use xlink:href="#rim2" fill="#404040">
                               <set attributeName="fill" to="#808080" begin="reset.mouseover" end="reset.mouseout"/>
                       </use>
               </g>
        </defs>

<script type="text/javascript">
var viewWidth = 814;
var viewHeight = 256;
var sectionId = 'dynsection-3';
</script>
<script xlink:href="../../svgpan.js"/>
<svg id="graph" class="graph">
<g id="viewport">
<title>generic_attr_chunk_create_from_data</title>
<!-- Node1 -->
<g id="node1" class="node"><title>Node1</title>
<polygon fill="#bfbfbf" stroke="black" points="0.5,-131 0.5,-161 99.5,-161 99.5,-131 0.5,-131"/>
<text text-anchor="start" x="8.5" y="-149" font-family="Helvetica,sans-Serif" font-size="10.00">generic_attr_chunk</text>
<text text-anchor="middle" x="50" y="-138" font-family="Helvetica,sans-Serif" font-size="10.00">_create_from_data</text>
</g>
<!-- Node2 -->
<g id="node2" class="node"><title>Node2</title>
<g id="a_node2"><a xlink:href="../../d3/df2/group__generic__attr__chunk.html#ga6051a49b2bcfc3f85a823ede9f2335d7" target="_top" xlink:title="generic_attr_chunk\l_create">
<polygon fill="none" stroke="black" points="154.5,-166 154.5,-196 253.5,-196 253.5,-166 154.5,-166"/>
<text text-anchor="start" x="162.5" y="-184" font-family="Helvetica,sans-Serif" font-size="10.00">generic_attr_chunk</text>
<text text-anchor="middle" x="204" y="-173" font-family="Helvetica,sans-Serif" font-size="10.00">_create</text>
</a>
</g>
</g>
<!-- Node1&#45;&gt;Node2 -->
<g id="edge1" class="edge"><title>Node1&#45;&gt;Node2</title>
<path fill="none" stroke="midnightblue" d="M109.592,-159.492C124.412,-162.904 140.164,-166.531 154.428,-169.816"/>
<polygon fill="midnightblue" stroke="midnightblue" points="110.042,-156.004 99.5117,-157.17 108.471,-162.825 110.042,-156.004"/>
</g>
<!-- Node10 -->
<g id="node10" class="node"><title>Node10</title>
<g id="a_node10"><a xlink:href="../../d5/d22/group__pwg__attr.html#gae79e46216fcdb42449e6fd469468f56d" target="_top" xlink:title="pwg_attr_create_from_data">
<polygon fill="none" stroke="black" points="136.5,-102.5 136.5,-121.5 271.5,-121.5 271.5,-102.5 136.5,-102.5"/>
<text text-anchor="middle" x="204" y="-109.5" font-family="Helvetica,sans-Serif" font-size="10.00">pwg_attr_create_from_data</text>
</a>
</g>
</g>
<!-- Node1&#45;&gt;Node10 -->
<g id="edge11" class="edge"><title>Node1&#45;&gt;Node10</title>
<path fill="none" stroke="midnightblue" d="M109.332,-132.952C126.302,-129.156 144.517,-125.082 160.33,-121.545"/>
<polygon fill="midnightblue" stroke="midnightblue" points="108.506,-129.55 99.5117,-135.149 110.035,-136.381 108.506,-129.55"/>
</g>
<!-- Node3 -->
<g id="node3" class="node"><title>Node3</title>
<g id="a_node3"><a xlink:href="../../db/d67/imc__hcd_8c.html#a89213825ab2e9624bef88297a320eff3" target="_top" xlink:title="add_certification_state">
<polygon fill="none" stroke="black" points="310.5,-228.5 310.5,-247.5 425.5,-247.5 425.5,-228.5 310.5,-228.5"/>
<text text-anchor="middle" x="368" y="-235.5" font-family="Helvetica,sans-Serif" font-size="10.00">add_certification_state</text>
</a>
</g>
</g>
<!-- Node2&#45;&gt;Node3 -->
<g id="edge2" class="edge"><title>Node2&#45;&gt;Node3</title>
<path fill="none" stroke="midnightblue" d="M254.199,-199.628C271.189,-205.933 290.379,-212.915 308,-219 317.256,-222.196 327.387,-225.521 336.601,-228.479"/>
<polygon fill="midnightblue" stroke="midnightblue" points="255.072,-196.218 244.479,-196.005 252.627,-202.777 255.072,-196.218"/>
</g>
<!-- Node7 -->
<g id="node7" class="node"><title>Node7</title>
<g id="a_node7"><a xlink:href="../../db/d67/imc__hcd_8c.html#abab80970437ca71752b25181e90449e2" target="_top" xlink:title="add_configuration_state">
<polygon fill="none" stroke="black" points="308,-190.5 308,-209.5 428,-209.5 428,-190.5 308,-190.5"/>
<text text-anchor="middle" x="368" y="-197.5" font-family="Helvetica,sans-Serif" font-size="10.00">add_configuration_state</text>
</a>
</g>
</g>
<!-- Node2&#45;&gt;Node7 -->
<g id="edge6" class="edge"><title>Node2&#45;&gt;Node7</title>
<path fill="none" stroke="midnightblue" d="M263.833,-187.9C278.161,-189.581 293.492,-191.379 307.836,-193.061"/>
<polygon fill="midnightblue" stroke="midnightblue" points="263.945,-184.389 253.605,-186.701 263.13,-191.342 263.945,-184.389"/>
</g>
<!-- Node8 -->
<g id="node8" class="node"><title>Node8</title>
<g id="a_node8"><a xlink:href="../../db/d67/imc__hcd_8c.html#ad70cf5ddbd98ab162e379af46e19b986" target="_top" xlink:title="add_quadruple">
<polygon fill="none" stroke="black" points="328,-152.5 328,-171.5 408,-171.5 408,-152.5 328,-152.5"/>
<text text-anchor="middle" x="368" y="-159.5" font-family="Helvetica,sans-Serif" font-size="10.00">add_quadruple</text>
</a>
</g>
</g>
<!-- Node2&#45;&gt;Node8 -->
<g id="edge8" class="edge"><title>Node2&#45;&gt;Node8</title>
<path fill="none" stroke="midnightblue" d="M263.576,-174.13C284.978,-171.62 308.646,-168.844 327.934,-166.582"/>
<polygon fill="midnightblue" stroke="midnightblue" points="263.13,-170.658 253.605,-175.299 263.945,-177.611 263.13,-170.658"/>
</g>
<!-- Node4 -->
<g id="node4" class="node"><title>Node4</title>
<g id="a_node4"><a xlink:href="../../db/d67/imc__hcd_8c.html#a229947183624681536a133815b79b96e" target="_top" xlink:title="receive_message">
<polygon fill="none" stroke="black" points="488.5,-190.5 488.5,-209.5 581.5,-209.5 581.5,-190.5 488.5,-190.5"/>
<text text-anchor="middle" x="535" y="-197.5" font-family="Helvetica,sans-Serif" font-size="10.00">receive_message</text>
</a>
</g>
</g>
<!-- Node3&#45;&gt;Node4 -->
<g id="edge3" class="edge"><title>Node3&#45;&gt;Node4</title>
<path fill="none" stroke="midnightblue" d="M420.654,-226.104C443.846,-220.763 470.838,-214.546 492.663,-209.52"/>
<polygon fill="midnightblue" stroke="midnightblue" points="419.596,-222.756 410.636,-228.411 421.167,-229.577 419.596,-222.756"/>
</g>
<!-- Node5 -->
<g id="node5" class="node"><title>Node5</title>
<g id="a_node5"><a xlink:href="../../de/d10/group__tncifimc.html#gac0904e90c720bf61161ebdcaa848ee28" target="_top" xlink:title="TNC_IMC_ReceiveMessage">
<polygon fill="none" stroke="black" points="652.5,-209.5 652.5,-228.5 795.5,-228.5 795.5,-209.5 652.5,-209.5"/>
<text text-anchor="middle" x="724" y="-216.5" font-family="Helvetica,sans-Serif" font-size="10.00">TNC_IMC_ReceiveMessage</text>
</a>
</g>
</g>
<!-- Node4&#45;&gt;Node5 -->
<g id="edge4" class="edge"><title>Node4&#45;&gt;Node5</title>
<path fill="none" stroke="midnightblue" d="M591.72,-205.661C610.711,-207.591 632.202,-209.775 652.216,-211.808"/>
<polygon fill="midnightblue" stroke="midnightblue" points="592.048,-202.177 581.745,-204.648 591.34,-209.141 592.048,-202.177"/>
</g>
<!-- Node6 -->
<g id="node6" class="node"><title>Node6</title>
<g id="a_node6"><a xlink:href="../../de/d10/group__tncifimc.html#ga5a587fd64b9841c507b9638d218f1aca" target="_top" xlink:title="TNC_IMC_ReceiveMessageLong">
<polygon fill="none" stroke="black" points="642,-171.5 642,-190.5 806,-190.5 806,-171.5 642,-171.5"/>
<text text-anchor="middle" x="724" y="-178.5" font-family="Helvetica,sans-Serif" font-size="10.00">TNC_IMC_ReceiveMessageLong</text>
</a>
</g>
</g>
<!-- Node4&#45;&gt;Node6 -->
<g id="edge5" class="edge"><title>Node4&#45;&gt;Node6</title>
<path fill="none" stroke="midnightblue" d="M591.832,-194.327C607.594,-192.726 625.07,-190.95 641.99,-189.231"/>
<polygon fill="midnightblue" stroke="midnightblue" points="591.34,-190.859 581.745,-195.352 592.048,-197.823 591.34,-190.859"/>
</g>
<!-- Node7&#45;&gt;Node4 -->
<g id="edge7" class="edge"><title>Node7&#45;&gt;Node4</title>
<path fill="none" stroke="midnightblue" d="M438.454,-200C455.274,-200 472.837,-200 488.249,-200"/>
<polygon fill="midnightblue" stroke="midnightblue" points="438.103,-196.5 428.103,-200 438.103,-203.5 438.103,-196.5"/>
</g>
<!-- Node8&#45;&gt;Node4 -->
<g id="edge9" class="edge"><title>Node8&#45;&gt;Node4</title>
<path fill="none" stroke="midnightblue" d="M417.976,-173.279C441.72,-178.748 469.928,-185.244 492.585,-190.462"/>
<polygon fill="midnightblue" stroke="midnightblue" points="418.633,-169.839 408.103,-171.005 417.062,-176.661 418.633,-169.839"/>
</g>
<!-- Node9 -->
<g id="node9" class="node"><title>Node9</title>
<g id="a_node9"><a xlink:href="../../de/d10/group__tncifimc.html#ga72bb832f2d5fc794ab3c2b9675d9b59e" target="_top" xlink:title="TNC_IMC_BeginHandshake">
<polygon fill="none" stroke="black" points="464.5,-152.5 464.5,-171.5 605.5,-171.5 605.5,-152.5 464.5,-152.5"/>
<text text-anchor="middle" x="535" y="-159.5" font-family="Helvetica,sans-Serif" font-size="10.00">TNC_IMC_BeginHandshake</text>
</a>
</g>
</g>
<!-- Node8&#45;&gt;Node9 -->
<g id="edge10" class="edge"><title>Node8&#45;&gt;Node9</title>
<path fill="none" stroke="midnightblue" d="M418.281,-162C432.698,-162 448.74,-162 464.175,-162"/>
<polygon fill="midnightblue" stroke="midnightblue" points="418.103,-158.5 408.103,-162 418.103,-165.5 418.103,-158.5"/>
</g>
<!-- Node11 -->
<g id="node11" class="node"><title>Node11</title>
<g id="a_node11"><a xlink:href="../../d0/d9e/group__libimcv.html#ga1a2bc69328f409c080b8814e28972ecf" target="_top" xlink:title="libimcv_init">
<polygon fill="none" stroke="black" points="335.5,-76.5 335.5,-95.5 400.5,-95.5 400.5,-76.5 335.5,-76.5"/>
<text text-anchor="middle" x="368" y="-83.5" font-family="Helvetica,sans-Serif" font-size="10.00">libimcv_init</text>
</a>
</g>
</g>
<!-- Node10&#45;&gt;Node11 -->
<g id="edge12" class="edge"><title>Node10&#45;&gt;Node11</title>
<path fill="none" stroke="midnightblue" d="M274.385,-100.864C295.616,-97.4567 317.934,-93.8748 335.341,-91.0811"/>
<polygon fill="midnightblue" stroke="midnightblue" points="273.722,-97.4257 264.403,-102.466 274.831,-104.337 273.722,-97.4257"/>
</g>
<!-- Node12 -->
<g id="node12" class="node"><title>Node12</title>
<g id="a_node12"><a xlink:href="../../da/d03/attest_8c.html#a0ddf1224851353fc92bfbff6f499fa97" target="_top" xlink:title="main">
<polygon fill="none" stroke="black" points="516,-114.5 516,-133.5 554,-133.5 554,-114.5 516,-114.5"/>
<text text-anchor="middle" x="535" y="-121.5" font-family="Helvetica,sans-Serif" font-size="10.00">main</text>
</a>
</g>
</g>
<!-- Node11&#45;&gt;Node12 -->
<g id="edge13" class="edge"><title>Node11&#45;&gt;Node12</title>
<path fill="none" stroke="midnightblue" d="M410.861,-95.6408C444.605,-103.412 490.439,-113.968 515.592,-119.761"/>
<polygon fill="midnightblue" stroke="midnightblue" points="411.344,-92.1604 400.814,-93.3268 409.773,-98.9819 411.344,-92.1604"/>
</g>
<!-- Node13 -->
<g id="node13" class="node"><title>Node13</title>
<g id="a_node13"><a xlink:href="../../da/df6/group__imc__agent__t.html#ga4e3d8335be0a5db3f9057bbe23ce97e1" target="_top" xlink:title="imc_agent_create">
<polygon fill="none" stroke="black" points="488,-76.5 488,-95.5 582,-95.5 582,-76.5 488,-76.5"/>
<text text-anchor="middle" x="535" y="-83.5" font-family="Helvetica,sans-Serif" font-size="10.00">imc_agent_create</text>
</a>
</g>
</g>
<!-- Node11&#45;&gt;Node13 -->
<g id="edge14" class="edge"><title>Node11&#45;&gt;Node13</title>
<path fill="none" stroke="midnightblue" d="M410.833,-86C434.352,-86 463.752,-86 487.929,-86"/>
<polygon fill="midnightblue" stroke="midnightblue" points="410.814,-82.5001 400.814,-86 410.814,-89.5001 410.814,-82.5001"/>
</g>
<!-- Node15 -->
<g id="node15" class="node"><title>Node15</title>
<g id="a_node15"><a xlink:href="../../dd/dd4/group__imv__agent__t.html#ga207ef25d8bf8c613ac61d089d0874d9b" target="_top" xlink:title="imv_agent_create">
<polygon fill="none" stroke="black" points="488,-38.5 488,-57.5 582,-57.5 582,-38.5 488,-38.5"/>
<text text-anchor="middle" x="535" y="-45.5" font-family="Helvetica,sans-Serif" font-size="10.00">imv_agent_create</text>
</a>
</g>
</g>
<!-- Node11&#45;&gt;Node15 -->
<g id="edge16" class="edge"><title>Node11&#45;&gt;Node15</title>
<path fill="none" stroke="midnightblue" d="M410.757,-76.3832C435.822,-70.6106 467.587,-63.2951 492.59,-57.5369"/>
<polygon fill="midnightblue" stroke="midnightblue" points="409.773,-73.0181 400.814,-78.6732 411.344,-79.8396 409.773,-73.0181"/>
</g>
<!-- Node16 -->
<g id="node16" class="node"><title>Node16</title>
<g id="a_node16"><a xlink:href="../../df/da3/test__imcv__seg_8c.html#ac72d7ad0385a61efdaf1d769d5b7da2b" target="_top" xlink:title="START_TEST">
<polygon fill="none" stroke="black" points="495,-0.5 495,-19.5 575,-19.5 575,-0.5 495,-0.5"/>
<text text-anchor="middle" x="535" y="-7.5" font-family="Helvetica,sans-Serif" font-size="10.00">START_TEST</text>
</a>
</g>
</g>
<!-- Node11&#45;&gt;Node16 -->
<g id="edge17" class="edge"><title>Node11&#45;&gt;Node16</title>
<path fill="none" stroke="midnightblue" d="M390.577,-70.6901C409.257,-58.0254 437.388,-40.3371 464,-29 473.731,-24.8543 484.613,-21.3835 494.843,-18.5911"/>
<polygon fill="midnightblue" stroke="midnightblue" points="388.461,-67.8974 382.213,-76.4539 392.433,-73.6612 388.461,-67.8974"/>
</g>
<!-- Node14 -->
<g id="node14" class="node"><title>Node14</title>
<g id="a_node14"><a xlink:href="../../de/d10/group__tncifimc.html#ga6a4653276d3fc1d46b7703d41a2dc5b5" target="_top" xlink:title="TNC_IMC_Initialize">
<polygon fill="none" stroke="black" points="672.5,-76.5 672.5,-95.5 775.5,-95.5 775.5,-76.5 672.5,-76.5"/>
<text text-anchor="middle" x="724" y="-83.5" font-family="Helvetica,sans-Serif" font-size="10.00">TNC_IMC_Initialize</text>
</a>
</g>
</g>
<!-- Node13&#45;&gt;Node14 -->
<g id="edge15" class="edge"><title>Node13&#45;&gt;Node14</title>
<path fill="none" stroke="midnightblue" d="M592.463,-86C617.894,-86 647.685,-86 672.382,-86"/>
<polygon fill="midnightblue" stroke="midnightblue" points="592.225,-82.5001 582.225,-86 592.225,-89.5001 592.225,-82.5001"/>
</g>
</g>
</svg>
        <g id="navigator" transform="translate(0 0)" fill="#404254">
                <rect fill="#f2f5e9" fill-opacity="0.5" stroke="#606060" stroke-width=".5" x="0" y="0" width="60" height="60"/>
                <use id="zoomplus" xlink:href="#zoomPlus" x="17" y="9" onmousedown="handleZoom(evt,'in')"/>
                <use id="zoomminus" xlink:href="#zoomMin" x="42" y="9" onmousedown="handleZoom(evt,'out')"/>
                <use id="reset" xlink:href="#resetDef" x="30" y="36" onmousedown="handleReset()"/>
                <g id="arrowUp" xlink:href="#dirArrow" transform="translate(30 24)" onmousedown="handlePan(0,-1)">
                  <use xlink:href="#rim" fill="#404040">
                        <set attributeName="fill" to="#808080" begin="arrowUp.mouseover" end="arrowUp.mouseout"/>
                  </use>
                  <path fill="none" stroke="white" stroke-width="1.5" d="M0,-3.0v7 M-2.5,-0.5L0,-3.0L2.5,-0.5"/>
                </g>
                <g id="arrowRight" xlink:href="#dirArrow" transform="rotate(90) translate(36 -43)" onmousedown="handlePan(1,0)">
                  <use xlink:href="#rim" fill="#404040">
                        <set attributeName="fill" to="#808080" begin="arrowRight.mouseover" end="arrowRight.mouseout"/>
                  </use>
                  <path fill="none" stroke="white" stroke-width="1.5" d="M0,-3.0v7 M-2.5,-0.5L0,-3.0L2.5,-0.5"/>
                </g>
                <g id="arrowDown" xlink:href="#dirArrow" transform="rotate(180) translate(-30 -48)" onmousedown="handlePan(0,1)">
                  <use xlink:href="#rim" fill="#404040">
                        <set attributeName="fill" to="#808080" begin="arrowDown.mouseover" end="arrowDown.mouseout"/>
                  </use>
                  <path fill="none" stroke="white" stroke-width="1.5" d="M0,-3.0v7 M-2.5,-0.5L0,-3.0L2.5,-0.5"/>
                </g>
                <g id="arrowLeft" xlink:href="#dirArrow" transform="rotate(270) translate(-36 17)" onmousedown="handlePan(-1,0)">
                  <use xlink:href="#rim" fill="#404040">
                        <set attributeName="fill" to="#808080" begin="arrowLeft.mouseover" end="arrowLeft.mouseout"/>
                  </use>
                  <path fill="none" stroke="white" stroke-width="1.5" d="M0,-3.0v7 M-2.5,-0.5L0,-3.0L2.5,-0.5"/>
                </g>
        </g>
        <svg viewBox="0 0 15 15" width="100%" height="30px" preserveAspectRatio="xMaxYMin meet">
         <g id="arrow_out" transform="scale(0.3 0.3)">
          <a xlink:href="group__generic__attr__chunk_ga8a88fc5fe0080be0d8b3d7c4e4cc1851_icgraph_org.svg" target="_base">
           <rect id="button" ry="5" rx="5" y="6" x="6" height="38" width="38"
                fill="#f2f5e9" fill-opacity="0.5" stroke="#606060" stroke-width="1.0"/>
           <path id="arrow"
             d="M 11.500037,31.436501 C 11.940474,20.09759 22.043105,11.32322 32.158766,21.979434 L 37.068811,17.246167 C 37.068811,17.246167 37.088388,32 37.088388,32 L 22.160133,31.978069 C 22.160133,31.978069 26.997745,27.140456 26.997745,27.140456 C 18.528582,18.264221 13.291696,25.230495 11.500037,31.436501 z"
             style="fill:#404040;"/>
          </a>
         </g>
        </svg>
</svg>
