<?xml version="1.0" encoding="UTF-8" standalone="no"?>
<!DOCTYPE svg PUBLIC "-//W3C//DTD SVG 1.1//EN"
 "http://www.w3.org/Graphics/SVG/1.1/DTD/svg11.dtd">
<!-- Generated by graphviz version 2.36.0 (20140111.2315)
 -->
<!-- Title: file_logger_create Pages: 1 -->
<svg width="570pt" height="151pt"
 viewBox="0.00 0.00 570.00 151.00" xmlns="http://www.w3.org/2000/svg" xmlns:xlink="http://www.w3.org/1999/xlink">
<g id="graph0" class="graph" transform="scale(1 1) rotate(0) translate(4 147)">
<title>file_logger_create</title>
<!-- Node1 -->
<g id="node1" class="node"><title>Node1</title>
<polygon fill="#bfbfbf" stroke="black" points="0.5,-28.5 0.5,-47.5 93.5,-47.5 93.5,-28.5 0.5,-28.5"/>
<text text-anchor="middle" x="47" y="-35.5" font-family="Helvetica,sans-Serif" font-size="10.00">file_logger_create</text>
</g>
<!-- Node2 -->
<g id="node2" class="node"><title>Node2</title>
<g id="a_node2"><a xlink:href="../../dc/d21/daemon_8c.html#a32b8f5aa146bd7eebdf41d4fbdb16f43" target="_top" xlink:title="get_logger_entry">
<polygon fill="none" stroke="black" points="130.5,-66.5 130.5,-85.5 219.5,-85.5 219.5,-66.5 130.5,-66.5"/>
<text text-anchor="middle" x="175" y="-73.5" font-family="Helvetica,sans-Serif" font-size="10.00">get_logger_entry</text>
</a>
</g>
</g>
<!-- Node1&#45;&gt;Node2 -->
<g id="edge1" class="edge"><title>Node1&#45;&gt;Node2</title>
<path fill="none" stroke="midnightblue" d="M89.5644,-50.5353C106.705,-55.7048 126.25,-61.5991 142.215,-66.4141"/>
<polygon fill="midnightblue" stroke="midnightblue" points="90.3798,-47.1256 79.7951,-47.589 88.3586,-53.8274 90.3798,-47.1256"/>
</g>
<!-- Node8 -->
<g id="node8" class="node"><title>Node8</title>
<g id="a_node8"><a xlink:href="../../db/d3c/conftest_8c.html#a24ec4e1e1bf77f05b0a6072e22f5f071" target="_top" xlink:title="load_loggers">
<polygon fill="none" stroke="black" points="139.5,-28.5 139.5,-47.5 210.5,-47.5 210.5,-28.5 139.5,-28.5"/>
<text text-anchor="middle" x="175" y="-35.5" font-family="Helvetica,sans-Serif" font-size="10.00">load_loggers</text>
</a>
</g>
</g>
<!-- Node1&#45;&gt;Node8 -->
<g id="edge10" class="edge"><title>Node1&#45;&gt;Node8</title>
<path fill="none" stroke="midnightblue" d="M103.89,-38C115.996,-38 128.455,-38 139.451,-38"/>
<polygon fill="midnightblue" stroke="midnightblue" points="103.845,-34.5001 93.8453,-38 103.845,-41.5001 103.845,-34.5001"/>
</g>
<!-- Node9 -->
<g id="node9" class="node"><title>Node9</title>
<g id="a_node9"><a xlink:href="../../db/d3c/conftest_8c.html#a0ddf1224851353fc92bfbff6f499fa97" target="_top" xlink:title="main">
<polygon fill="none" stroke="black" points="280,-0.5 280,-19.5 318,-19.5 318,-0.5 280,-0.5"/>
<text text-anchor="middle" x="299" y="-7.5" font-family="Helvetica,sans-Serif" font-size="10.00">main</text>
</a>
</g>
</g>
<!-- Node1&#45;&gt;Node9 -->
<g id="edge12" class="edge"><title>Node1&#45;&gt;Node9</title>
<path fill="none" stroke="midnightblue" d="M93.0224,-26.084C104.965,-23.3318 117.905,-20.7119 130,-19 184.081,-11.3455 248.795,-10.0715 279.751,-9.94078"/>
<polygon fill="midnightblue" stroke="midnightblue" points="92.1811,-22.6864 83.2654,-28.41 93.8044,-29.4956 92.1811,-22.6864"/>
</g>
<!-- Node3 -->
<g id="node3" class="node"><title>Node3</title>
<g id="a_node3"><a xlink:href="../../dc/d21/daemon_8c.html#a745850f18ece18e6c4e724f821bc90ea" target="_top" xlink:title="add_file_logger">
<polygon fill="none" stroke="black" points="258,-85.5 258,-104.5 340,-104.5 340,-85.5 258,-85.5"/>
<text text-anchor="middle" x="299" y="-92.5" font-family="Helvetica,sans-Serif" font-size="10.00">add_file_logger</text>
</a>
</g>
</g>
<!-- Node2&#45;&gt;Node3 -->
<g id="edge2" class="edge"><title>Node2&#45;&gt;Node3</title>
<path fill="none" stroke="midnightblue" d="M229.795,-84.3778C239.221,-85.846 248.881,-87.3503 257.856,-88.7481"/>
<polygon fill="midnightblue" stroke="midnightblue" points="230.12,-80.8864 219.7,-82.8058 229.042,-87.803 230.12,-80.8864"/>
</g>
<!-- Node6 -->
<g id="node6" class="node"><title>Node6</title>
<g id="a_node6"><a xlink:href="../../dc/d21/daemon_8c.html#ac0322b043a8fbc2cd46c4581433b6070" target="_top" xlink:title="add_sys_logger">
<polygon fill="none" stroke="black" points="256.5,-47.5 256.5,-66.5 341.5,-66.5 341.5,-47.5 256.5,-47.5"/>
<text text-anchor="middle" x="299" y="-54.5" font-family="Helvetica,sans-Serif" font-size="10.00">add_sys_logger</text>
</a>
</g>
</g>
<!-- Node2&#45;&gt;Node6 -->
<g id="edge6" class="edge"><title>Node2&#45;&gt;Node6</title>
<path fill="none" stroke="midnightblue" d="M229.633,-67.6474C238.547,-66.2591 247.674,-64.8377 256.237,-63.504"/>
<polygon fill="midnightblue" stroke="midnightblue" points="229.042,-64.197 219.7,-69.1942 230.12,-71.1136 229.042,-64.197"/>
</g>
<!-- Node4 -->
<g id="node4" class="node"><title>Node4</title>
<g id="a_node4"><a xlink:href="../../dc/d21/daemon_8c.html#a960a0765bd7c0eb98b409caa07268b78" target="_top" xlink:title="load_file_logger">
<polygon fill="none" stroke="black" points="380,-123.5 380,-142.5 464,-142.5 464,-123.5 380,-123.5"/>
<text text-anchor="middle" x="422" y="-130.5" font-family="Helvetica,sans-Serif" font-size="10.00">load_file_logger</text>
</a>
</g>
</g>
<!-- Node3&#45;&gt;Node4 -->
<g id="edge3" class="edge"><title>Node3&#45;&gt;Node4</title>
<path fill="none" stroke="midnightblue" d="M340.377,-107.68C356.726,-112.815 375.288,-118.644 390.476,-123.414"/>
<polygon fill="midnightblue" stroke="midnightblue" points="341.123,-104.246 330.533,-104.589 339.025,-110.924 341.123,-104.246"/>
</g>
<!-- Node5 -->
<g id="node5" class="node"><title>Node5</title>
<g id="a_node5"><a xlink:href="../../dc/d21/daemon_8c.html#ad460718dd3c3be48f9771503b8a3e471" target="_top" xlink:title="METHOD">
<polygon fill="none" stroke="black" points="502,-66.5 502,-85.5 562,-85.5 562,-66.5 502,-66.5"/>
<text text-anchor="middle" x="532" y="-73.5" font-family="Helvetica,sans-Serif" font-size="10.00">METHOD</text>
</a>
</g>
</g>
<!-- Node3&#45;&gt;Node5 -->
<g id="edge5" class="edge"><title>Node3&#45;&gt;Node5</title>
<path fill="none" stroke="midnightblue" d="M350.371,-90.8569C396.7,-87.0463 463.799,-81.5274 501.824,-78.3997"/>
<polygon fill="midnightblue" stroke="midnightblue" points="349.917,-87.3824 340.237,-91.6905 350.49,-94.3588 349.917,-87.3824"/>
</g>
<!-- Node4&#45;&gt;Node5 -->
<g id="edge4" class="edge"><title>Node4&#45;&gt;Node5</title>
<path fill="none" stroke="midnightblue" d="M450.384,-118.547C470.003,-108.193 495.872,-94.54 512.95,-85.5265"/>
<polygon fill="midnightblue" stroke="midnightblue" points="448.531,-115.568 441.321,-123.331 451.798,-121.758 448.531,-115.568"/>
</g>
<!-- Node6&#45;&gt;Node5 -->
<g id="edge9" class="edge"><title>Node6&#45;&gt;Node5</title>
<path fill="none" stroke="midnightblue" d="M351.703,-61.2526C397.983,-65.0592 464.177,-70.5037 501.837,-73.6013"/>
<polygon fill="midnightblue" stroke="midnightblue" points="351.818,-57.7504 341.565,-60.4188 351.244,-64.7268 351.818,-57.7504"/>
</g>
<!-- Node7 -->
<g id="node7" class="node"><title>Node7</title>
<g id="a_node7"><a xlink:href="../../dc/d21/daemon_8c.html#a8a91f65847ea9199cc238faa2021a533" target="_top" xlink:title="load_sys_logger">
<polygon fill="none" stroke="black" points="378.5,-9.5 378.5,-28.5 465.5,-28.5 465.5,-9.5 378.5,-9.5"/>
<text text-anchor="middle" x="422" y="-16.5" font-family="Helvetica,sans-Serif" font-size="10.00">load_sys_logger</text>
</a>
</g>
</g>
<!-- Node6&#45;&gt;Node7 -->
<g id="edge7" class="edge"><title>Node6&#45;&gt;Node7</title>
<path fill="none" stroke="midnightblue" d="M340.377,-44.3196C356.726,-39.1852 375.288,-33.3559 390.476,-28.5859"/>
<polygon fill="midnightblue" stroke="midnightblue" points="339.025,-41.0755 330.533,-47.411 341.123,-47.7539 339.025,-41.0755"/>
</g>
<!-- Node7&#45;&gt;Node5 -->
<g id="edge8" class="edge"><title>Node7&#45;&gt;Node5</title>
<path fill="none" stroke="midnightblue" d="M450.384,-33.4525C470.003,-43.8069 495.872,-57.46 512.95,-66.4735"/>
<polygon fill="midnightblue" stroke="midnightblue" points="451.798,-30.2416 441.321,-28.6693 448.531,-36.4323 451.798,-30.2416"/>
</g>
<!-- Node8&#45;&gt;Node9 -->
<g id="edge11" class="edge"><title>Node8&#45;&gt;Node9</title>
<path fill="none" stroke="midnightblue" d="M220.452,-27.7979C240.987,-23.0851 264.228,-17.751 279.867,-14.1616"/>
<polygon fill="midnightblue" stroke="midnightblue" points="219.598,-24.4029 210.634,-30.0512 221.164,-31.2255 219.598,-24.4029"/>
</g>
</g>
</svg>
