<?xml version="1.0" encoding="UTF-8" standalone="no"?>
<!DOCTYPE svg PUBLIC "-//W3C//DTD SVG 1.1//EN"
 "http://www.w3.org/Graphics/SVG/1.1/DTD/svg11.dtd">
<!-- Generated by graphviz version 2.36.0 (20140111.2315)
 -->
<!-- Title: stroke Pages: 1 -->
<svg width="256pt" height="370pt"
 viewBox="0.00 0.00 256.00 370.00" xmlns="http://www.w3.org/2000/svg" xmlns:xlink="http://www.w3.org/1999/xlink">
<g id="graph0" class="graph" transform="scale(1 1) rotate(0) translate(4 366)">
<title>stroke</title>
<!-- Node3 -->
<g id="node1" class="node"><title>Node3</title>
<g id="a_node1"><a xlink:href="../../d7/d7f/group__stroke__ca.html" target="_top" xlink:title="stroke_ca">
<polygon fill="none" stroke="black" points="176.5,-342.5 176.5,-361.5 235.5,-361.5 235.5,-342.5 176.5,-342.5"/>
<text text-anchor="middle" x="206" y="-349.5" font-family="Helvetica,sans-Serif" font-size="10.00">stroke_ca</text>
</a>
</g>
</g>
<!-- Node10 -->
<g id="node2" class="node"><title>Node10</title>
<g id="a_node2"><a xlink:href="../../d0/de4/group__stroke__plugin.html" target="_top" xlink:title="stroke_plugin">
<polygon fill="none" stroke="black" points="169,-304.5 169,-323.5 243,-323.5 243,-304.5 169,-304.5"/>
<text text-anchor="middle" x="206" y="-311.5" font-family="Helvetica,sans-Serif" font-size="10.00">stroke_plugin</text>
</a>
</g>
</g>
<!-- Node7 -->
<g id="node3" class="node"><title>Node7</title>
<g id="a_node3"><a xlink:href="../../d4/ddf/group__stroke__cred.html" target="_top" xlink:title="stroke_cred">
<polygon fill="none" stroke="black" points="172,-266.5 172,-285.5 240,-285.5 240,-266.5 172,-266.5"/>
<text text-anchor="middle" x="206" y="-273.5" font-family="Helvetica,sans-Serif" font-size="10.00">stroke_cred</text>
</a>
</g>
</g>
<!-- Node2 -->
<g id="node4" class="node"><title>Node2</title>
<g id="a_node4"><a xlink:href="../../d7/d08/group__stroke__attribute.html" target="_top" xlink:title="stroke_attribute">
<polygon fill="none" stroke="black" points="164,-228.5 164,-247.5 248,-247.5 248,-228.5 164,-228.5"/>
<text text-anchor="middle" x="206" y="-235.5" font-family="Helvetica,sans-Serif" font-size="10.00">stroke_attribute</text>
</a>
</g>
</g>
<!-- Node1 -->
<g id="node5" class="node"><title>Node1</title>
<g id="a_node5"><a xlink:href="../../d8/dd9/group__cplugins.html" target="_top" xlink:title="plugins">
<polygon fill="none" stroke="black" points="0.5,-171.5 0.5,-190.5 47.5,-190.5 47.5,-171.5 0.5,-171.5"/>
<text text-anchor="middle" x="24" y="-178.5" font-family="Helvetica,sans-Serif" font-size="10.00">plugins</text>
</a>
</g>
</g>
<!-- Node0 -->
<g id="node7" class="node"><title>Node0</title>
<polygon fill="#bfbfbf" stroke="black" points="84,-171.5 84,-190.5 128,-190.5 128,-171.5 84,-171.5"/>
<text text-anchor="middle" x="106" y="-178.5" font-family="Helvetica,sans-Serif" font-size="10.00">stroke</text>
</g>
<!-- Node1&#45;&gt;Node0 -->
<g id="edge1" class="edge"><title>Node1&#45;&gt;Node0</title>
<path fill="none" stroke="midnightblue" d="M57.7384,-181C66.5631,-181 75.8757,-181 83.8796,-181"/>
<polygon fill="midnightblue" stroke="midnightblue" points="57.7108,-177.5 47.7108,-181 57.7108,-184.5 57.7108,-177.5"/>
</g>
<!-- Node6 -->
<g id="node6" class="node"><title>Node6</title>
<g id="a_node6"><a xlink:href="../../df/d41/group__stroke__counter.html" target="_top" xlink:title="stroke_counter">
<polygon fill="none" stroke="black" points="165.5,-190.5 165.5,-209.5 246.5,-209.5 246.5,-190.5 165.5,-190.5"/>
<text text-anchor="middle" x="206" y="-197.5" font-family="Helvetica,sans-Serif" font-size="10.00">stroke_counter</text>
</a>
</g>
</g>
<!-- Node0&#45;&gt;Node3 -->
<g id="edge3" class="edge"><title>Node0&#45;&gt;Node3</title>
<path fill="none" stroke="midnightblue" d="M109.592,-201.099C114.663,-232.848 128.666,-294.905 164,-333 167.521,-336.796 171.952,-339.898 176.589,-342.411"/>
<polygon fill="midnightblue" stroke="midnightblue" points="113.008,-200.265 108.105,-190.873 106.081,-201.273 113.008,-200.265"/>
</g>
<!-- Node0&#45;&gt;Node10 -->
<g id="edge10" class="edge"><title>Node0&#45;&gt;Node10</title>
<path fill="none" stroke="midnightblue" d="M112.266,-200.248C119.928,-225.046 136.339,-268.148 164,-295 167.828,-298.716 172.515,-301.798 177.335,-304.321"/>
<polygon fill="midnightblue" stroke="midnightblue" points="115.597,-199.169 109.431,-190.554 108.878,-201.134 115.597,-199.169"/>
</g>
<!-- Node0&#45;&gt;Node7 -->
<g id="edge7" class="edge"><title>Node0&#45;&gt;Node7</title>
<path fill="none" stroke="midnightblue" d="M117.244,-199.486C127.323,-216.292 144.07,-240.863 164,-257 168.512,-260.653 173.841,-263.782 179.138,-266.384"/>
<polygon fill="midnightblue" stroke="midnightblue" points="120.145,-197.511 112.107,-190.61 114.087,-201.018 120.145,-197.511"/>
</g>
<!-- Node0&#45;&gt;Node2 -->
<g id="edge2" class="edge"><title>Node0&#45;&gt;Node2</title>
<path fill="none" stroke="midnightblue" d="M128.695,-196.608C139.131,-203.816 151.964,-212.252 164,-219 169.885,-222.299 176.443,-225.526 182.558,-228.357"/>
<polygon fill="midnightblue" stroke="midnightblue" points="130.417,-193.541 120.221,-190.663 126.397,-199.271 130.417,-193.541"/>
</g>
<!-- Node0&#45;&gt;Node6 -->
<g id="edge6" class="edge"><title>Node0&#45;&gt;Node6</title>
<path fill="none" stroke="midnightblue" d="M138.225,-187.054C146.803,-188.717 156.221,-190.543 165.21,-192.286"/>
<polygon fill="midnightblue" stroke="midnightblue" points="138.748,-183.59 128.265,-185.123 137.416,-190.462 138.748,-183.59"/>
</g>
<!-- Node11 -->
<g id="node8" class="node"><title>Node11</title>
<g id="a_node8"><a xlink:href="../../d3/d5b/group__stroke__socket.html" target="_top" xlink:title="stroke_socket">
<polygon fill="none" stroke="black" points="167,-152.5 167,-171.5 245,-171.5 245,-152.5 167,-152.5"/>
<text text-anchor="middle" x="206" y="-159.5" font-family="Helvetica,sans-Serif" font-size="10.00">stroke_socket</text>
</a>
</g>
</g>
<!-- Node0&#45;&gt;Node11 -->
<g id="edge11" class="edge"><title>Node0&#45;&gt;Node11</title>
<path fill="none" stroke="midnightblue" d="M138.367,-174.919C147.409,-173.166 157.377,-171.233 166.786,-169.409"/>
<polygon fill="midnightblue" stroke="midnightblue" points="137.416,-171.538 128.265,-176.877 138.748,-178.41 137.416,-171.538"/>
</g>
<!-- Node8 -->
<g id="node9" class="node"><title>Node8</title>
<g id="a_node9"><a xlink:href="../../d1/de4/group__stroke__handler.html" target="_top" xlink:title="stroke_handler">
<polygon fill="none" stroke="black" points="166,-114.5 166,-133.5 246,-133.5 246,-114.5 166,-114.5"/>
<text text-anchor="middle" x="206" y="-121.5" font-family="Helvetica,sans-Serif" font-size="10.00">stroke_handler</text>
</a>
</g>
</g>
<!-- Node0&#45;&gt;Node8 -->
<g id="edge8" class="edge"><title>Node0&#45;&gt;Node8</title>
<path fill="none" stroke="midnightblue" d="M128.695,-165.392C139.131,-158.184 151.964,-149.748 164,-143 169.885,-139.701 176.443,-136.474 182.558,-133.643"/>
<polygon fill="midnightblue" stroke="midnightblue" points="126.397,-162.729 120.221,-171.337 130.417,-168.459 126.397,-162.729"/>
</g>
<!-- Node9 -->
<g id="node10" class="node"><title>Node9</title>
<g id="a_node10"><a xlink:href="../../db/d9b/group__stroke__list.html" target="_top" xlink:title="stroke_list">
<polygon fill="none" stroke="black" points="175,-76.5 175,-95.5 237,-95.5 237,-76.5 175,-76.5"/>
<text text-anchor="middle" x="206" y="-83.5" font-family="Helvetica,sans-Serif" font-size="10.00">stroke_list</text>
</a>
</g>
</g>
<!-- Node0&#45;&gt;Node9 -->
<g id="edge9" class="edge"><title>Node0&#45;&gt;Node9</title>
<path fill="none" stroke="midnightblue" d="M117.244,-162.514C127.323,-145.708 144.07,-121.137 164,-105 168.512,-101.347 173.841,-98.2179 179.138,-95.6157"/>
<polygon fill="midnightblue" stroke="midnightblue" points="114.087,-160.982 112.107,-171.39 120.145,-164.489 114.087,-160.982"/>
</g>
<!-- Node4 -->
<g id="node11" class="node"><title>Node4</title>
<g id="a_node11"><a xlink:href="../../d3/d0d/group__stroke__config.html" target="_top" xlink:title="stroke_config">
<polygon fill="none" stroke="black" points="168.5,-38.5 168.5,-57.5 243.5,-57.5 243.5,-38.5 168.5,-38.5"/>
<text text-anchor="middle" x="206" y="-45.5" font-family="Helvetica,sans-Serif" font-size="10.00">stroke_config</text>
</a>
</g>
</g>
<!-- Node0&#45;&gt;Node4 -->
<g id="edge4" class="edge"><title>Node0&#45;&gt;Node4</title>
<path fill="none" stroke="midnightblue" d="M112.266,-161.752C119.928,-136.954 136.339,-93.8517 164,-67 167.828,-63.2842 172.515,-60.2018 177.335,-57.6786"/>
<polygon fill="midnightblue" stroke="midnightblue" points="108.878,-160.866 109.431,-171.446 115.597,-162.831 108.878,-160.866"/>
</g>
<!-- Node5 -->
<g id="node12" class="node"><title>Node5</title>
<g id="a_node12"><a xlink:href="../../dd/df2/group__stroke__control.html" target="_top" xlink:title="stroke_control">
<polygon fill="none" stroke="black" points="167,-0.5 167,-19.5 245,-19.5 245,-0.5 167,-0.5"/>
<text text-anchor="middle" x="206" y="-7.5" font-family="Helvetica,sans-Serif" font-size="10.00">stroke_control</text>
</a>
</g>
</g>
<!-- Node0&#45;&gt;Node5 -->
<g id="edge5" class="edge"><title>Node0&#45;&gt;Node5</title>
<path fill="none" stroke="midnightblue" d="M109.592,-160.901C114.663,-129.152 128.666,-67.0951 164,-29 167.521,-25.2037 171.952,-22.102 176.589,-19.589"/>
<polygon fill="midnightblue" stroke="midnightblue" points="106.081,-160.727 108.105,-171.127 113.008,-161.735 106.081,-160.727"/>
</g>
</g>
</svg>
