<?xml version="1.0" encoding="UTF-8" standalone="no"?>
<!DOCTYPE svg PUBLIC "-//W3C//DTD SVG 1.1//EN"
 "http://www.w3.org/Graphics/SVG/1.1/DTD/svg11.dtd">
<!-- Generated by graphviz version 2.36.0 (20140111.2315)
 -->
<!-- Title: METHOD Pages: 1 -->
<svg width="1746pt" height="741pt"
 viewBox="0.00 0.00 1746.00 741.00" xmlns="http://www.w3.org/2000/svg" xmlns:xlink="http://www.w3.org/1999/xlink">
<g id="graph0" class="graph" transform="scale(1 1) rotate(0) translate(4 737)">
<title>METHOD</title>
<!-- Node1 -->
<g id="node1" class="node"><title>Node1</title>
<polygon fill="#bfbfbf" stroke="black" points="0,-647.5 0,-666.5 60,-666.5 60,-647.5 0,-647.5"/>
<text text-anchor="middle" x="30" y="-654.5" font-family="Helvetica,sans-Serif" font-size="10.00">METHOD</text>
</g>
<!-- Node2 -->
<g id="node2" class="node"><title>Node2</title>
<g id="a_node2"><a xlink:href="../../d0/df4/ike__sa__manager_8c.html#a8902c05cd7a0316ba26c261238bfc555" target="_top" xlink:title="create_table_enumerator">
<polygon fill="none" stroke="black" points="96,-685.5 96,-704.5 220,-704.5 220,-685.5 96,-685.5"/>
<text text-anchor="middle" x="158" y="-692.5" font-family="Helvetica,sans-Serif" font-size="10.00">create_table_enumerator</text>
</a>
</g>
</g>
<!-- Node1&#45;&gt;Node2 -->
<g id="edge1" class="edge"><title>Node1&#45;&gt;Node2</title>
<path fill="none" stroke="midnightblue" d="M60.2236,-665.813C76.6626,-670.771 97.4577,-677.043 115.555,-682.501"/>
<polygon fill="midnightblue" stroke="midnightblue" points="114.702,-685.899 125.286,-685.436 116.723,-679.197 114.702,-685.899"/>
</g>
<!-- Node49 -->
<g id="node49" class="node"><title>Node49</title>
<g id="a_node49"><a xlink:href="../../d4/d40/group__string__i.html#ga65c3d08890165aaa4663c72d07f93bb7" target="_top" xlink:title="streq">
<polygon fill="none" stroke="black" points="139,-647.5 139,-666.5 177,-666.5 177,-647.5 139,-647.5"/>
<text text-anchor="middle" x="158" y="-654.5" font-family="Helvetica,sans-Serif" font-size="10.00">streq</text>
</a>
</g>
</g>
<!-- Node1&#45;&gt;Node49 -->
<g id="edge67" class="edge"><title>Node1&#45;&gt;Node49</title>
<path fill="none" stroke="midnightblue" d="M60.2236,-657C80.8059,-657 108.217,-657 128.611,-657"/>
<polygon fill="midnightblue" stroke="midnightblue" points="128.847,-660.5 138.847,-657 128.847,-653.5 128.847,-660.5"/>
</g>
<!-- Node50 -->
<g id="node50" class="node"><title>Node50</title>
<g id="a_node50"><a xlink:href="../../d0/df4/ike__sa__manager_8c.html#a3c2222f29068fc0acdb491eb070e5970" target="_top" xlink:title="wait_for_entry">
<polygon fill="none" stroke="black" points="119,-609.5 119,-628.5 197,-628.5 197,-609.5 119,-609.5"/>
<text text-anchor="middle" x="158" y="-616.5" font-family="Helvetica,sans-Serif" font-size="10.00">wait_for_entry</text>
</a>
</g>
</g>
<!-- Node1&#45;&gt;Node50 -->
<g id="edge68" class="edge"><title>Node1&#45;&gt;Node50</title>
<path fill="none" stroke="midnightblue" d="M60.2236,-648.187C76.6626,-643.229 97.4577,-636.957 115.555,-631.499"/>
<polygon fill="midnightblue" stroke="midnightblue" points="116.723,-634.803 125.286,-628.564 114.702,-628.101 116.723,-634.803"/>
</g>
<!-- Node3 -->
<g id="node3" class="node"><title>Node3</title>
<g id="a_node3"><a xlink:href="../../dc/d21/daemon_8c.html#a1e824dfeaa337e709772cb0c8e6c8dcc" target="_top" xlink:title="destroy">
<polygon fill="none" stroke="black" points="256.5,-685.5 256.5,-704.5 305.5,-704.5 305.5,-685.5 256.5,-685.5"/>
<text text-anchor="middle" x="281" y="-692.5" font-family="Helvetica,sans-Serif" font-size="10.00">destroy</text>
</a>
</g>
</g>
<!-- Node2&#45;&gt;Node3 -->
<g id="edge2" class="edge"><title>Node2&#45;&gt;Node3</title>
<path fill="none" stroke="midnightblue" d="M220.209,-695C229.176,-695 238.121,-695 246.258,-695"/>
<polygon fill="midnightblue" stroke="midnightblue" points="246.423,-698.5 256.423,-695 246.423,-691.5 246.423,-698.5"/>
</g>
<!-- Node4 -->
<g id="node4" class="node"><title>Node4</title>
<g id="a_node4"><a xlink:href="../../da/dfc/settings__parser_8c.html#af07d89f5ceaea0c7c8252cc41fd75f37" target="_top" xlink:title="free">
<polygon fill="none" stroke="black" points="1583.5,-522.5 1583.5,-541.5 1616.5,-541.5 1616.5,-522.5 1583.5,-522.5"/>
<text text-anchor="middle" x="1600" y="-529.5" font-family="Helvetica,sans-Serif" font-size="10.00">free</text>
</a>
</g>
</g>
<!-- Node3&#45;&gt;Node4 -->
<g id="edge3" class="edge"><title>Node3&#45;&gt;Node4</title>
<path fill="none" stroke="midnightblue" d="M305.635,-703.763C316.56,-707.481 329.793,-711.52 342,-714 429.935,-731.868 453.268,-733 543,-733 543,-733 543,-733 1309,-733 1405.18,-733 1436.03,-716.986 1512,-658 1549.8,-628.655 1577.45,-578.282 1590.54,-550.961"/>
<polygon fill="midnightblue" stroke="midnightblue" points="1593.8,-552.254 1594.84,-541.71 1587.45,-549.307 1593.8,-552.254"/>
</g>
<!-- Node5 -->
<g id="node5" class="node"><title>Node5</title>
<g id="a_node5"><a xlink:href="../../dc/d21/daemon_8c.html#a1b7023117168a75858bd535a56e709e2" target="_top" xlink:title="logger_entry_destroy">
<polygon fill="none" stroke="black" points="342.5,-685.5 342.5,-704.5 449.5,-704.5 449.5,-685.5 342.5,-685.5"/>
<text text-anchor="middle" x="396" y="-692.5" font-family="Helvetica,sans-Serif" font-size="10.00">logger_entry_destroy</text>
</a>
</g>
</g>
<!-- Node3&#45;&gt;Node5 -->
<g id="edge4" class="edge"><title>Node3&#45;&gt;Node5</title>
<path fill="none" stroke="midnightblue" d="M305.689,-695C313.578,-695 322.774,-695 332.206,-695"/>
<polygon fill="midnightblue" stroke="midnightblue" points="332.484,-698.5 342.484,-695 332.484,-691.5 332.484,-698.5"/>
</g>
<!-- Node6 -->
<g id="node6" class="node"><title>Node6</title>
<g id="a_node6"><a xlink:href="../../d9/d32/connect__manager_8c.html#a3b4dd773d88779165dc7243cb4e4fbee" target="_top" xlink:title="sender">
<polygon fill="none" stroke="black" points="373,-502.5 373,-521.5 419,-521.5 419,-502.5 373,-502.5"/>
<text text-anchor="middle" x="396" y="-509.5" font-family="Helvetica,sans-Serif" font-size="10.00">sender</text>
</a>
</g>
</g>
<!-- Node3&#45;&gt;Node6 -->
<g id="edge6" class="edge"><title>Node3&#45;&gt;Node6</title>
<path fill="none" stroke="midnightblue" d="M287.916,-685.419C305.834,-656.402 359.73,-569.119 383.511,-530.606"/>
<polygon fill="midnightblue" stroke="midnightblue" points="386.592,-532.278 388.868,-521.93 380.636,-528.6 386.592,-532.278"/>
</g>
<!-- Node5&#45;&gt;Node4 -->
<g id="edge5" class="edge"><title>Node5&#45;&gt;Node4</title>
<path fill="none" stroke="midnightblue" d="M449.754,-695C509.314,-695 609.118,-695 695,-695 695,-695 695,-695 1309,-695 1427.28,-695 1541.91,-590.679 1583.03,-548.952"/>
<polygon fill="midnightblue" stroke="midnightblue" points="1585.61,-551.326 1590.05,-541.708 1580.58,-546.456 1585.61,-551.326"/>
</g>
<!-- Node7 -->
<g id="node7" class="node"><title>Node7</title>
<g id="a_node7"><a xlink:href="../../d9/d32/connect__manager_8c.html#ad295327b74b1c4e19a7096ad2979765b" target="_top" xlink:title="check_create">
<polygon fill="none" stroke="black" points="506.5,-647.5 506.5,-666.5 581.5,-666.5 581.5,-647.5 506.5,-647.5"/>
<text text-anchor="middle" x="544" y="-654.5" font-family="Helvetica,sans-Serif" font-size="10.00">check_create</text>
</a>
</g>
</g>
<!-- Node6&#45;&gt;Node7 -->
<g id="edge7" class="edge"><title>Node6&#45;&gt;Node7</title>
<path fill="none" stroke="midnightblue" d="M401.307,-521.675C412.14,-544.942 442.777,-604.498 486,-637 489.395,-639.553 493.142,-641.798 497.045,-643.77"/>
<polygon fill="midnightblue" stroke="midnightblue" points="495.783,-647.039 506.343,-647.889 498.618,-640.639 495.783,-647.039"/>
</g>
<!-- Node8 -->
<g id="node8" class="node"><title>Node8</title>
<g id="a_node8"><a xlink:href="../../d9/d32/connect__manager_8c.html#a204f99a4a38f8c08c42cd120bcf1b9f7" target="_top" xlink:title="check_destroy">
<polygon fill="none" stroke="black" points="1123,-521.5 1123,-540.5 1203,-540.5 1203,-521.5 1123,-521.5"/>
<text text-anchor="middle" x="1163" y="-528.5" font-family="Helvetica,sans-Serif" font-size="10.00">check_destroy</text>
</a>
</g>
</g>
<!-- Node6&#45;&gt;Node8 -->
<g id="edge8" class="edge"><title>Node6&#45;&gt;Node8</title>
<path fill="none" stroke="midnightblue" d="M419.147,-511.754C456.744,-511.392 535.456,-510.871 602,-512 790.863,-515.203 1015.4,-524.478 1112.84,-528.771"/>
<polygon fill="midnightblue" stroke="midnightblue" points="1112.83,-532.274 1122.97,-529.22 1113.14,-525.281 1112.83,-532.274"/>
</g>
<!-- Node10 -->
<g id="node10" class="node"><title>Node10</title>
<g id="a_node10"><a xlink:href="../../d7/d87/group__endpoint__notify.html#ga89474ccd935bd6aeb2db5ae84c2fcbcf" target="_top" xlink:title="endpoint_notify_create\l_from_host">
<polygon fill="none" stroke="black" points="486.5,-598 486.5,-628 601.5,-628 601.5,-598 486.5,-598"/>
<text text-anchor="start" x="494.5" y="-616" font-family="Helvetica,sans-Serif" font-size="10.00">endpoint_notify_create</text>
<text text-anchor="middle" x="544" y="-605" font-family="Helvetica,sans-Serif" font-size="10.00">_from_host</text>
</a>
</g>
</g>
<!-- Node6&#45;&gt;Node10 -->
<g id="edge12" class="edge"><title>Node6&#45;&gt;Node10</title>
<path fill="none" stroke="midnightblue" d="M406.644,-521.941C422.206,-537.567 454.326,-568.139 486,-588 488.974,-589.865 492.111,-591.659 495.322,-593.37"/>
<polygon fill="midnightblue" stroke="midnightblue" points="493.983,-596.614 504.492,-597.963 497.118,-590.355 493.983,-596.614"/>
</g>
<!-- Node12 -->
<g id="node12" class="node"><title>Node12</title>
<g id="a_node12"><a xlink:href="../../d9/d32/connect__manager_8c.html#a7f4c528dceb6dc21cbeeb405365db27d" target="_top" xlink:title="get_checklist_by_id">
<polygon fill="none" stroke="black" points="1256.5,-104.5 1256.5,-123.5 1359.5,-123.5 1359.5,-104.5 1256.5,-104.5"/>
<text text-anchor="middle" x="1308" y="-111.5" font-family="Helvetica,sans-Serif" font-size="10.00">get_checklist_by_id</text>
</a>
</g>
</g>
<!-- Node6&#45;&gt;Node12 -->
<g id="edge14" class="edge"><title>Node6&#45;&gt;Node12</title>
<path fill="none" stroke="midnightblue" d="M397.808,-502.229C404.232,-431.445 453.306,-0 695,-0 695,-0 695,-0 1007,-0 1105,-7.10543e-15 1130.55,-16.9741 1220,-57 1244.56,-67.9908 1270.01,-85.501 1286.99,-98.2161"/>
<polygon fill="midnightblue" stroke="midnightblue" points="1284.97,-101.081 1295.05,-104.368 1289.22,-95.5176 1284.97,-101.081"/>
</g>
<!-- Node16 -->
<g id="node16" class="node"><title>Node16</title>
<g id="a_node16"><a xlink:href="../../d9/d32/connect__manager_8c.html#a0c6f96218c9be021da288127130acaea" target="_top" xlink:title="get_triggered_pair">
<polygon fill="none" stroke="black" points="497,-559.5 497,-578.5 591,-578.5 591,-559.5 497,-559.5"/>
<text text-anchor="middle" x="544" y="-566.5" font-family="Helvetica,sans-Serif" font-size="10.00">get_triggered_pair</text>
</a>
</g>
</g>
<!-- Node6&#45;&gt;Node16 -->
<g id="edge18" class="edge"><title>Node6&#45;&gt;Node16</title>
<path fill="none" stroke="midnightblue" d="M418.021,-521.552C435.932,-529.55 462.438,-541.06 486,-550 491.561,-552.11 497.472,-554.222 503.301,-556.232"/>
<polygon fill="midnightblue" stroke="midnightblue" points="502.365,-559.61 512.959,-559.497 504.607,-552.978 502.365,-559.61"/>
</g>
<!-- Node17 -->
<g id="node17" class="node"><title>Node17</title>
<g id="a_node17"><a xlink:href="../../d9/d32/connect__manager_8c.html#a7bcdfc183dd5ea52c1db9112000121eb" target="_top" xlink:title="match_waiting_pair">
<polygon fill="none" stroke="black" points="493.5,-521.5 493.5,-540.5 594.5,-540.5 594.5,-521.5 493.5,-521.5"/>
<text text-anchor="middle" x="544" y="-528.5" font-family="Helvetica,sans-Serif" font-size="10.00">match_waiting_pair</text>
</a>
</g>
</g>
<!-- Node6&#45;&gt;Node17 -->
<g id="edge19" class="edge"><title>Node6&#45;&gt;Node17</title>
<path fill="none" stroke="midnightblue" d="M419.174,-514.886C436.268,-517.11 460.744,-520.295 483.428,-523.248"/>
<polygon fill="midnightblue" stroke="midnightblue" points="482.983,-526.719 493.351,-524.539 483.887,-519.778 482.983,-526.719"/>
</g>
<!-- Node18 -->
<g id="node18" class="node"><title>Node18</title>
<g id="a_node18"><a xlink:href="../../d9/d32/connect__manager_8c.html#ab04c347706d661bcbd52ba901be05697" target="_top" xlink:title="schedule_checks">
<polygon fill="none" stroke="black" points="960,-427.5 960,-446.5 1052,-446.5 1052,-427.5 960,-427.5"/>
<text text-anchor="middle" x="1006" y="-434.5" font-family="Helvetica,sans-Serif" font-size="10.00">schedule_checks</text>
</a>
</g>
</g>
<!-- Node6&#45;&gt;Node18 -->
<g id="edge20" class="edge"><title>Node6&#45;&gt;Node18</title>
<path fill="none" stroke="midnightblue" d="M406.1,-502.234C421.932,-491.355 455.751,-476.698 486,-470 652.058,-433.23 854.362,-427.822 949.94,-431.111"/>
<polygon fill="midnightblue" stroke="midnightblue" points="949.826,-434.609 959.956,-431.504 950.101,-427.614 949.826,-434.609"/>
</g>
<!-- Node25 -->
<g id="node25" class="node"><title>Node25</title>
<g id="a_node25"><a xlink:href="../../d9/d32/connect__manager_8c.html#a84c6b0f36d7353c32bb874be21759a5f" target="_top" xlink:title="send_check">
<polygon fill="none" stroke="black" points="509.5,-351.5 509.5,-370.5 578.5,-370.5 578.5,-351.5 509.5,-351.5"/>
<text text-anchor="middle" x="544" y="-358.5" font-family="Helvetica,sans-Serif" font-size="10.00">send_check</text>
</a>
</g>
</g>
<!-- Node6&#45;&gt;Node25 -->
<g id="edge30" class="edge"><title>Node6&#45;&gt;Node25</title>
<path fill="none" stroke="midnightblue" d="M406.579,-502.092C431.026,-476.809 495.949,-409.663 526.574,-377.989"/>
<polygon fill="midnightblue" stroke="midnightblue" points="529.14,-380.37 533.575,-370.748 524.108,-375.504 529.14,-380.37"/>
</g>
<!-- Node8&#45;&gt;Node4 -->
<g id="edge11" class="edge"><title>Node8&#45;&gt;Node4</title>
<path fill="none" stroke="midnightblue" d="M1203.15,-532.515C1267.56,-534.793 1399.95,-538.575 1512,-536 1532.46,-535.53 1555.6,-534.439 1572.88,-533.515"/>
<polygon fill="midnightblue" stroke="midnightblue" points="1573.5,-536.986 1583.29,-532.94 1573.11,-529.996 1573.5,-536.986"/>
</g>
<!-- Node9 -->
<g id="node9" class="node"><title>Node9</title>
<g id="a_node9"><a xlink:href="../../d4/d87/group__chunk.html#gaa86c84493369a4254d5801cdca20d458" target="_top" xlink:title="chunk_free">
<polygon fill="none" stroke="black" points="1275.5,-503.5 1275.5,-522.5 1340.5,-522.5 1340.5,-503.5 1275.5,-503.5"/>
<text text-anchor="middle" x="1308" y="-510.5" font-family="Helvetica,sans-Serif" font-size="10.00">chunk_free</text>
</a>
</g>
</g>
<!-- Node8&#45;&gt;Node9 -->
<g id="edge9" class="edge"><title>Node8&#45;&gt;Node9</title>
<path fill="none" stroke="midnightblue" d="M1203.08,-526.081C1222.28,-523.664 1245.45,-520.748 1265.03,-518.283"/>
<polygon fill="midnightblue" stroke="midnightblue" points="1265.71,-521.725 1275.2,-517.003 1264.84,-514.78 1265.71,-521.725"/>
</g>
<!-- Node9&#45;&gt;Node4 -->
<g id="edge10" class="edge"><title>Node9&#45;&gt;Node4</title>
<path fill="none" stroke="midnightblue" d="M1340.59,-515.07C1398.29,-518.85 1519.68,-526.803 1572.98,-530.295"/>
<polygon fill="midnightblue" stroke="midnightblue" points="1573.06,-533.808 1583.27,-530.969 1573.52,-526.823 1573.06,-533.808"/>
</g>
<!-- Node11 -->
<g id="node11" class="node"><title>Node11</title>
<g id="a_node11"><a xlink:href="../../da/d0c/endpoint__notify_8c.html#a55fdd0651a0e929c599c0ffd77626082" target="_top" xlink:title="endpoint_notify_create">
<polygon fill="none" stroke="black" points="638.5,-603.5 638.5,-622.5 753.5,-622.5 753.5,-603.5 638.5,-603.5"/>
<text text-anchor="middle" x="696" y="-610.5" font-family="Helvetica,sans-Serif" font-size="10.00">endpoint_notify_create</text>
</a>
</g>
</g>
<!-- Node10&#45;&gt;Node11 -->
<g id="edge13" class="edge"><title>Node10&#45;&gt;Node11</title>
<path fill="none" stroke="midnightblue" d="M601.709,-613C610.295,-613 619.223,-613 628.002,-613"/>
<polygon fill="midnightblue" stroke="midnightblue" points="628.211,-616.5 638.211,-613 628.211,-609.5 628.211,-616.5"/>
</g>
<!-- Node13 -->
<g id="node13" class="node"><title>Node13</title>
<g id="a_node13"><a xlink:href="../../d9/d32/connect__manager_8c.html#a48e6c7d1bc525dc1f2627c117ec8fcdf" target="_top" xlink:title="match_checklist_by_id">
<polygon fill="none" stroke="black" points="1396,-104.5 1396,-123.5 1512,-123.5 1512,-104.5 1396,-104.5"/>
<text text-anchor="middle" x="1454" y="-111.5" font-family="Helvetica,sans-Serif" font-size="10.00">match_checklist_by_id</text>
</a>
</g>
</g>
<!-- Node12&#45;&gt;Node13 -->
<g id="edge15" class="edge"><title>Node12&#45;&gt;Node13</title>
<path fill="none" stroke="midnightblue" d="M1359.77,-114C1368.15,-114 1376.95,-114 1385.66,-114"/>
<polygon fill="midnightblue" stroke="midnightblue" points="1385.82,-117.5 1395.82,-114 1385.82,-110.5 1385.82,-117.5"/>
</g>
<!-- Node14 -->
<g id="node14" class="node"><title>Node14</title>
<g id="a_node14"><a xlink:href="../../d4/d87/group__chunk.html#gae6aabf03218cda073ab2173e02bff4ba" target="_top" xlink:title="chunk_equals">
<polygon fill="none" stroke="black" points="1561.5,-104.5 1561.5,-123.5 1638.5,-123.5 1638.5,-104.5 1561.5,-104.5"/>
<text text-anchor="middle" x="1600" y="-111.5" font-family="Helvetica,sans-Serif" font-size="10.00">chunk_equals</text>
</a>
</g>
</g>
<!-- Node13&#45;&gt;Node14 -->
<g id="edge16" class="edge"><title>Node13&#45;&gt;Node14</title>
<path fill="none" stroke="midnightblue" d="M1512.33,-114C1525.19,-114 1538.71,-114 1551.15,-114"/>
<polygon fill="midnightblue" stroke="midnightblue" points="1551.3,-117.5 1561.3,-114 1551.3,-110.5 1551.3,-117.5"/>
</g>
<!-- Node15 -->
<g id="node15" class="node"><title>Node15</title>
<g id="a_node15"><a xlink:href="../../dd/d74/group__memory__i.html#ga46d7935db00fd7092430dbf4f36c2850" target="_top" xlink:title="memeq">
<polygon fill="none" stroke="black" points="1688.5,-104.5 1688.5,-123.5 1737.5,-123.5 1737.5,-104.5 1688.5,-104.5"/>
<text text-anchor="middle" x="1713" y="-111.5" font-family="Helvetica,sans-Serif" font-size="10.00">memeq</text>
</a>
</g>
</g>
<!-- Node14&#45;&gt;Node15 -->
<g id="edge17" class="edge"><title>Node14&#45;&gt;Node15</title>
<path fill="none" stroke="midnightblue" d="M1638.58,-114C1651.45,-114 1665.77,-114 1678.31,-114"/>
<polygon fill="midnightblue" stroke="midnightblue" points="1678.37,-117.5 1688.37,-114 1678.37,-110.5 1678.37,-117.5"/>
</g>
<!-- Node18&#45;&gt;Node6 -->
<g id="edge29" class="edge"><title>Node18&#45;&gt;Node6</title>
<path fill="none" stroke="midnightblue" d="M959.956,-441.549C869.152,-445.469 658.109,-449.891 486,-488 466.547,-492.307 445.616,-499.907 428.943,-505.78"/>
<polygon fill="midnightblue" stroke="midnightblue" points="427.467,-502.588 419.164,-509.169 429.758,-509.202 427.467,-502.588"/>
</g>
<!-- Node19 -->
<g id="node19" class="node"><title>Node19</title>
<g id="a_node19"><a xlink:href="../../d9/d32/connect__manager_8c.html#a77eb11570d14635d5e6f46bc56b6efcf" target="_top" xlink:title="callback_data_create">
<polygon fill="none" stroke="black" points="1108.5,-351.5 1108.5,-370.5 1217.5,-370.5 1217.5,-351.5 1108.5,-351.5"/>
<text text-anchor="middle" x="1163" y="-358.5" font-family="Helvetica,sans-Serif" font-size="10.00">callback_data_create</text>
</a>
</g>
</g>
<!-- Node18&#45;&gt;Node19 -->
<g id="edge21" class="edge"><title>Node18&#45;&gt;Node19</title>
<path fill="none" stroke="midnightblue" d="M1021.61,-427.369C1040.52,-415.199 1074.74,-394.139 1106,-380 1110.67,-377.886 1115.66,-375.873 1120.65,-374.003"/>
<polygon fill="midnightblue" stroke="midnightblue" points="1121.95,-377.256 1130.19,-370.593 1119.59,-370.664 1121.95,-377.256"/>
</g>
<!-- Node20 -->
<g id="node20" class="node"><title>Node20</title>
<g id="a_node20"><a xlink:href="../../d9/d32/connect__manager_8c.html#a4674a63e69fa1940f68b6d6d4532d1dc" target="_top" xlink:title="callback_data_destroy">
<polygon fill="none" stroke="black" points="1106,-389.5 1106,-408.5 1220,-408.5 1220,-389.5 1106,-389.5"/>
<text text-anchor="middle" x="1163" y="-396.5" font-family="Helvetica,sans-Serif" font-size="10.00">callback_data_destroy</text>
</a>
</g>
</g>
<!-- Node18&#45;&gt;Node20 -->
<g id="edge22" class="edge"><title>Node18&#45;&gt;Node20</title>
<path fill="none" stroke="midnightblue" d="M1046.11,-427.411C1066.47,-422.419 1091.57,-416.268 1113.19,-410.967"/>
<polygon fill="midnightblue" stroke="midnightblue" points="1114.29,-414.301 1123.17,-408.52 1112.62,-407.502 1114.29,-414.301"/>
</g>
<!-- Node21 -->
<g id="node21" class="node"><title>Node21</title>
<g id="a_node21"><a xlink:href="../../d0/d8f/group__callback__job.html#ga6934f856d27d82413610263e27a5cfa1" target="_top" xlink:title="callback_job_create">
<polygon fill="none" stroke="black" points="1402.5,-370.5 1402.5,-389.5 1505.5,-389.5 1505.5,-370.5 1402.5,-370.5"/>
<text text-anchor="middle" x="1454" y="-377.5" font-family="Helvetica,sans-Serif" font-size="10.00">callback_job_create</text>
</a>
</g>
</g>
<!-- Node18&#45;&gt;Node21 -->
<g id="edge25" class="edge"><title>Node18&#45;&gt;Node21</title>
<path fill="none" stroke="midnightblue" d="M1052.39,-433.912C1095.59,-430.746 1162.35,-425.262 1220,-418 1278.72,-410.602 1345.33,-399.46 1392.25,-391.15"/>
<polygon fill="midnightblue" stroke="midnightblue" points="1393.02,-394.569 1402.25,-389.37 1391.79,-387.677 1393.02,-394.569"/>
</g>
<!-- Node20&#45;&gt;Node4 -->
<g id="edge24" class="edge"><title>Node20&#45;&gt;Node4</title>
<path fill="none" stroke="midnightblue" d="M1195.28,-408.565C1277.52,-433.709 1498.6,-501.302 1573.66,-524.252"/>
<polygon fill="midnightblue" stroke="midnightblue" points="1572.67,-527.609 1583.25,-527.185 1574.71,-520.914 1572.67,-527.609"/>
</g>
<!-- Node20&#45;&gt;Node9 -->
<g id="edge23" class="edge"><title>Node20&#45;&gt;Node9</title>
<path fill="none" stroke="midnightblue" d="M1172,-408.751C1186.99,-426.537 1220.95,-464.652 1256,-489 1261.33,-492.7 1267.31,-496.093 1273.26,-499.09"/>
<polygon fill="midnightblue" stroke="midnightblue" points="1271.94,-502.338 1282.48,-503.461 1274.94,-496.013 1271.94,-502.338"/>
</g>
<!-- Node22 -->
<g id="node22" class="node"><title>Node22</title>
<g id="a_node22"><a xlink:href="../../d0/d8f/group__callback__job.html#gadfa6801d50c2e34bb3f9e1c98efe02d0" target="_top" xlink:title="callback_job_create\l_with_prio">
<polygon fill="none" stroke="black" points="1548.5,-365 1548.5,-395 1651.5,-395 1651.5,-365 1548.5,-365"/>
<text text-anchor="start" x="1556.5" y="-383" font-family="Helvetica,sans-Serif" font-size="10.00">callback_job_create</text>
<text text-anchor="middle" x="1600" y="-372" font-family="Helvetica,sans-Serif" font-size="10.00">_with_prio</text>
</a>
</g>
</g>
<!-- Node21&#45;&gt;Node22 -->
<g id="edge26" class="edge"><title>Node21&#45;&gt;Node22</title>
<path fill="none" stroke="midnightblue" d="M1505.77,-380C1516.2,-380 1527.29,-380 1538.03,-380"/>
<polygon fill="midnightblue" stroke="midnightblue" points="1538.2,-383.5 1548.2,-380 1538.2,-376.5 1538.2,-383.5"/>
</g>
<!-- Node23 -->
<g id="node23" class="node"><title>Node23</title>
<g id="a_node23"><a xlink:href="../../d1/d14/fetch_8c.html#a17dd1592e9f4ebc44d5126c03a3a9697" target="_top" xlink:title="cb">
<polygon fill="none" stroke="black" points="1698.5,-389.5 1698.5,-408.5 1727.5,-408.5 1727.5,-389.5 1698.5,-389.5"/>
<text text-anchor="middle" x="1713" y="-396.5" font-family="Helvetica,sans-Serif" font-size="10.00">cb</text>
</a>
</g>
</g>
<!-- Node22&#45;&gt;Node23 -->
<g id="edge27" class="edge"><title>Node22&#45;&gt;Node23</title>
<path fill="none" stroke="midnightblue" d="M1651.63,-388.666C1664.49,-390.868 1677.71,-393.13 1688.48,-394.975"/>
<polygon fill="midnightblue" stroke="midnightblue" points="1687.9,-398.425 1698.34,-396.662 1689.08,-391.525 1687.9,-398.425"/>
</g>
<!-- Node24 -->
<g id="node24" class="node"><title>Node24</title>
<g id="a_node24"><a xlink:href="../../d2/dca/nm__backend_8c.html#a22ea158445c16ed72f5ab270e1dc691b" target="_top" xlink:title="cancel">
<polygon fill="none" stroke="black" points="1690.5,-351.5 1690.5,-370.5 1735.5,-370.5 1735.5,-351.5 1690.5,-351.5"/>
<text text-anchor="middle" x="1713" y="-358.5" font-family="Helvetica,sans-Serif" font-size="10.00">cancel</text>
</a>
</g>
</g>
<!-- Node22&#45;&gt;Node24 -->
<g id="edge28" class="edge"><title>Node22&#45;&gt;Node24</title>
<path fill="none" stroke="midnightblue" d="M1651.63,-371.334C1661.41,-369.66 1671.39,-367.951 1680.35,-366.417"/>
<polygon fill="midnightblue" stroke="midnightblue" points="1681.06,-369.847 1690.33,-364.71 1679.88,-362.947 1681.06,-369.847"/>
</g>
<!-- Node26 -->
<g id="node26" class="node"><title>Node26</title>
<g id="a_node26"><a xlink:href="../../d9/d32/connect__manager_8c.html#aedcaf4b4ca6bc58701b4c01f1e6c3b54" target="_top" xlink:title="build_signature">
<polygon fill="none" stroke="black" points="807,-483.5 807,-502.5 889,-502.5 889,-483.5 807,-483.5"/>
<text text-anchor="middle" x="848" y="-490.5" font-family="Helvetica,sans-Serif" font-size="10.00">build_signature</text>
</a>
</g>
</g>
<!-- Node25&#45;&gt;Node26 -->
<g id="edge31" class="edge"><title>Node25&#45;&gt;Node26</title>
<path fill="none" stroke="midnightblue" d="M567.207,-370.706C620.24,-393.886 754.4,-452.526 815.644,-479.295"/>
<polygon fill="midnightblue" stroke="midnightblue" points="814.603,-482.66 825.168,-483.458 817.407,-476.245 814.603,-482.66"/>
</g>
<!-- Node27 -->
<g id="node27" class="node"><title>Node27</title>
<g id="a_node27"><a xlink:href="../../d1/d7f/group__ike__sa__id.html#gaa080d65d35119ab2dd69b73309c14566" target="_top" xlink:title="ike_sa_id_create">
<polygon fill="none" stroke="black" points="651,-351.5 651,-370.5 741,-370.5 741,-351.5 651,-351.5"/>
<text text-anchor="middle" x="696" y="-358.5" font-family="Helvetica,sans-Serif" font-size="10.00">ike_sa_id_create</text>
</a>
</g>
</g>
<!-- Node25&#45;&gt;Node27 -->
<g id="edge33" class="edge"><title>Node25&#45;&gt;Node27</title>
<path fill="none" stroke="midnightblue" d="M578.663,-361C596.914,-361 619.916,-361 640.638,-361"/>
<polygon fill="midnightblue" stroke="midnightblue" points="640.911,-364.5 650.911,-361 640.911,-357.5 640.911,-364.5"/>
</g>
<!-- Node28 -->
<g id="node28" class="node"><title>Node28</title>
<g id="a_node28"><a xlink:href="../../de/d9a/group__message.html#gac4bba880d7840360ecb8e4137526420b" target="_top" xlink:title="message_create">
<polygon fill="none" stroke="black" points="651.5,-88.5 651.5,-107.5 740.5,-107.5 740.5,-88.5 651.5,-88.5"/>
<text text-anchor="middle" x="696" y="-95.5" font-family="Helvetica,sans-Serif" font-size="10.00">message_create</text>
</a>
</g>
</g>
<!-- Node25&#45;&gt;Node28 -->
<g id="edge34" class="edge"><title>Node25&#45;&gt;Node28</title>
<path fill="none" stroke="midnightblue" d="M550.516,-351.328C572.613,-312.585 654.952,-168.217 684.424,-116.543"/>
<polygon fill="midnightblue" stroke="midnightblue" points="687.519,-118.181 689.433,-107.76 681.439,-114.713 687.519,-118.181"/>
</g>
<!-- Node35 -->
<g id="node35" class="node"><title>Node35</title>
<g id="a_node35"><a xlink:href="../../d9/d32/connect__manager_8c.html#a78416603d2ebd2bb0dcf49e3ccd4ae9c" target="_top" xlink:title="queue_retransmission">
<polygon fill="none" stroke="black" points="640,-313.5 640,-332.5 752,-332.5 752,-313.5 640,-313.5"/>
<text text-anchor="middle" x="696" y="-320.5" font-family="Helvetica,sans-Serif" font-size="10.00">queue_retransmission</text>
</a>
</g>
</g>
<!-- Node25&#45;&gt;Node35 -->
<g id="edge41" class="edge"><title>Node25&#45;&gt;Node35</title>
<path fill="none" stroke="midnightblue" d="M578.663,-352.472C598.962,-347.33 625.137,-340.699 647.516,-335.029"/>
<polygon fill="midnightblue" stroke="midnightblue" points="648.663,-338.349 657.497,-332.501 646.944,-331.564 648.663,-338.349"/>
</g>
<!-- Node26&#45;&gt;Node9 -->
<g id="edge32" class="edge"><title>Node26&#45;&gt;Node9</title>
<path fill="none" stroke="midnightblue" d="M889.243,-494.757C975.557,-498.527 1177.73,-507.355 1265.32,-511.18"/>
<polygon fill="midnightblue" stroke="midnightblue" points="1265.27,-514.681 1275.41,-511.621 1265.58,-507.688 1265.27,-514.681"/>
</g>
<!-- Node29 -->
<g id="node29" class="node"><title>Node29</title>
<g id="a_node29"><a xlink:href="../../de/d9a/group__message.html#ga2c4a060592f02346b2dbf3d1df2e6e3c" target="_top" xlink:title="message_create_from\l_packet">
<polygon fill="none" stroke="black" points="791.5,-83 791.5,-113 904.5,-113 904.5,-83 791.5,-83"/>
<text text-anchor="start" x="799.5" y="-101" font-family="Helvetica,sans-Serif" font-size="10.00">message_create_from</text>
<text text-anchor="middle" x="848" y="-90" font-family="Helvetica,sans-Serif" font-size="10.00">_packet</text>
</a>
</g>
</g>
<!-- Node28&#45;&gt;Node29 -->
<g id="edge35" class="edge"><title>Node28&#45;&gt;Node29</title>
<path fill="none" stroke="midnightblue" d="M740.789,-98C753.4,-98 767.443,-98 781.079,-98"/>
<polygon fill="midnightblue" stroke="midnightblue" points="781.398,-101.5 791.398,-98 781.398,-94.5001 781.398,-101.5"/>
</g>
<!-- Node33 -->
<g id="node33" class="node"><title>Node33</title>
<g id="a_node33"><a xlink:href="../../db/dd9/group__packet.html#ga860fd5eabb20eac45cf95ab30dc56a34" target="_top" xlink:title="packet_create">
<polygon fill="none" stroke="black" points="809,-36.5 809,-55.5 887,-55.5 887,-36.5 809,-36.5"/>
<text text-anchor="middle" x="848" y="-43.5" font-family="Helvetica,sans-Serif" font-size="10.00">packet_create</text>
</a>
</g>
</g>
<!-- Node28&#45;&gt;Node33 -->
<g id="edge39" class="edge"><title>Node28&#45;&gt;Node33</title>
<path fill="none" stroke="midnightblue" d="M724.512,-88.4624C748.436,-80.1688 783.311,-68.0787 809.736,-58.9184"/>
<polygon fill="midnightblue" stroke="midnightblue" points="811.107,-62.1475 819.409,-55.565 808.814,-55.5336 811.107,-62.1475"/>
</g>
<!-- Node30 -->
<g id="node30" class="node"><title>Node30</title>
<g id="a_node30"><a xlink:href="../../d3/dc0/group__linked__list.html#ga15bb4333e53dbef32d196e4388f43fdf" target="_top" xlink:title="linked_list_create">
<polygon fill="none" stroke="black" points="960,-66.5 960,-85.5 1052,-85.5 1052,-66.5 960,-66.5"/>
<text text-anchor="middle" x="1006" y="-73.5" font-family="Helvetica,sans-Serif" font-size="10.00">linked_list_create</text>
</a>
</g>
</g>
<!-- Node29&#45;&gt;Node30 -->
<g id="edge36" class="edge"><title>Node29&#45;&gt;Node30</title>
<path fill="none" stroke="midnightblue" d="M904.879,-90.1196C919.371,-88.0758 934.974,-85.8754 949.45,-83.834"/>
<polygon fill="midnightblue" stroke="midnightblue" points="950.346,-87.2424 959.759,-82.3802 949.368,-80.311 950.346,-87.2424"/>
</g>
<!-- Node32 -->
<g id="node32" class="node"><title>Node32</title>
<g id="a_node32"><a xlink:href="../../dd/da8/group__parser.html#ga4f907e86ca85c0c5c10ad1d70a2db48b" target="_top" xlink:title="parser_create">
<polygon fill="none" stroke="black" points="968,-104.5 968,-123.5 1044,-123.5 1044,-104.5 968,-104.5"/>
<text text-anchor="middle" x="1006" y="-111.5" font-family="Helvetica,sans-Serif" font-size="10.00">parser_create</text>
</a>
</g>
</g>
<!-- Node29&#45;&gt;Node32 -->
<g id="edge38" class="edge"><title>Node29&#45;&gt;Node32</title>
<path fill="none" stroke="midnightblue" d="M904.879,-103.731C922.11,-105.498 940.912,-107.427 957.521,-109.13"/>
<polygon fill="midnightblue" stroke="midnightblue" points="957.241,-112.62 967.546,-110.159 957.955,-105.656 957.241,-112.62"/>
</g>
<!-- Node31 -->
<g id="node31" class="node"><title>Node31</title>
<g id="a_node31"><a xlink:href="../../d9/d78/duplicheck__listener_8c.html#a42e92cbe3b8fa821d53d1fdb7db5a639" target="_top" xlink:title="remove_first">
<polygon fill="none" stroke="red" points="1127.5,-66.5 1127.5,-85.5 1198.5,-85.5 1198.5,-66.5 1127.5,-66.5"/>
<text text-anchor="middle" x="1163" y="-73.5" font-family="Helvetica,sans-Serif" font-size="10.00">remove_first</text>
</a>
</g>
</g>
<!-- Node30&#45;&gt;Node31 -->
<g id="edge37" class="edge"><title>Node30&#45;&gt;Node31</title>
<path fill="none" stroke="midnightblue" d="M1052.25,-76C1072.64,-76 1096.66,-76 1117.02,-76"/>
<polygon fill="midnightblue" stroke="midnightblue" points="1117.3,-79.5001 1127.3,-76 1117.3,-72.5001 1117.3,-79.5001"/>
</g>
<!-- Node34 -->
<g id="node34" class="node"><title>Node34</title>
<g id="a_node34"><a xlink:href="../../db/dd9/group__packet.html#ga09772f9176b3dc9c958bc821f515be79" target="_top" xlink:title="packet_create_from_data">
<polygon fill="none" stroke="black" points="942.5,-28.5 942.5,-47.5 1069.5,-47.5 1069.5,-28.5 942.5,-28.5"/>
<text text-anchor="middle" x="1006" y="-35.5" font-family="Helvetica,sans-Serif" font-size="10.00">packet_create_from_data</text>
</a>
</g>
</g>
<!-- Node33&#45;&gt;Node34 -->
<g id="edge40" class="edge"><title>Node33&#45;&gt;Node34</title>
<path fill="none" stroke="midnightblue" d="M887.162,-44.043C900.777,-43.3448 916.605,-42.5331 932.159,-41.7354"/>
<polygon fill="midnightblue" stroke="midnightblue" points="932.507,-45.2223 942.314,-41.2146 932.148,-38.2315 932.507,-45.2223"/>
</g>
<!-- Node35&#45;&gt;Node20 -->
<g id="edge42" class="edge"><title>Node35&#45;&gt;Node20</title>
<path fill="none" stroke="midnightblue" d="M734.392,-332.526C741.191,-335.063 748.017,-338.19 754,-342 773.623,-354.497 768.87,-370.265 790,-380 889.071,-425.643 1019.09,-419.387 1096.26,-409.808"/>
<polygon fill="midnightblue" stroke="midnightblue" points="1096.86,-413.26 1106.33,-408.502 1095.96,-406.318 1096.86,-413.26"/>
</g>
<!-- Node35&#45;&gt;Node21 -->
<g id="edge43" class="edge"><title>Node35&#45;&gt;Node21</title>
<path fill="none" stroke="midnightblue" d="M752.081,-323C813.704,-323 916.503,-323 1005,-323 1005,-323 1005,-323 1164,-323 1255.23,-323 1359.66,-350.68 1414.58,-367.462"/>
<polygon fill="midnightblue" stroke="midnightblue" points="1413.66,-370.84 1424.25,-370.459 1415.73,-364.154 1413.66,-370.84"/>
</g>
<!-- Node36 -->
<g id="node36" class="node"><title>Node36</title>
<g id="a_node36"><a xlink:href="../../d9/d32/connect__manager_8c.html#a13543d329388560c587b6f8b6a014329" target="_top" xlink:title="retransmit">
<polygon fill="none" stroke="black" points="818,-256.5 818,-275.5 878,-275.5 878,-256.5 818,-256.5"/>
<text text-anchor="middle" x="848" y="-263.5" font-family="Helvetica,sans-Serif" font-size="10.00">retransmit</text>
</a>
</g>
</g>
<!-- Node35&#45;&gt;Node36 -->
<g id="edge44" class="edge"><title>Node35&#45;&gt;Node36</title>
<path fill="none" stroke="midnightblue" d="M711.112,-313.491C733.092,-302.472 776.28,-285.442 808.092,-274.784"/>
<polygon fill="midnightblue" stroke="midnightblue" points="809.556,-277.988 817.98,-271.563 807.388,-271.333 809.556,-277.988"/>
</g>
<!-- Node48 -->
<g id="node48" class="node"><title>Node48</title>
<g id="a_node48"><a xlink:href="../../d9/d32/connect__manager_8c.html#a07f604baaa16961bf7bc5a2df1139e24" target="_top" xlink:title="retransmit_data_create">
<polygon fill="none" stroke="black" points="790,-351.5 790,-370.5 906,-370.5 906,-351.5 790,-351.5"/>
<text text-anchor="middle" x="848" y="-358.5" font-family="Helvetica,sans-Serif" font-size="10.00">retransmit_data_create</text>
</a>
</g>
</g>
<!-- Node35&#45;&gt;Node48 -->
<g id="edge65" class="edge"><title>Node35&#45;&gt;Node48</title>
<path fill="none" stroke="midnightblue" d="M734.851,-332.589C754.467,-337.558 778.619,-343.677 799.479,-348.961"/>
<polygon fill="midnightblue" stroke="midnightblue" points="798.868,-352.417 809.421,-351.48 800.587,-345.631 798.868,-352.417"/>
</g>
<!-- Node36&#45;&gt;Node12 -->
<g id="edge54" class="edge"><title>Node36&#45;&gt;Node12</title>
<path fill="none" stroke="midnightblue" d="M856.479,-256.222C870.881,-238.154 904.387,-199.683 942,-181 1040.92,-131.865 1171.04,-118.492 1246.21,-115.018"/>
<polygon fill="midnightblue" stroke="midnightblue" points="1246.6,-118.505 1256.44,-114.591 1246.31,-111.511 1246.6,-118.505"/>
</g>
<!-- Node36&#45;&gt;Node35 -->
<g id="edge57" class="edge"><title>Node36&#45;&gt;Node35</title>
<path fill="none" stroke="midnightblue" d="M832.578,-275.664C813.174,-285.354 777.654,-299.6 747.838,-310.11"/>
<polygon fill="midnightblue" stroke="midnightblue" points="746.691,-306.803 738.385,-313.381 748.98,-313.418 746.691,-306.803"/>
</g>
<!-- Node37 -->
<g id="node37" class="node"><title>Node37</title>
<g id="a_node37"><a xlink:href="../../d9/d32/connect__manager_8c.html#a9dcaddd1fa6089a78bc2c65fde83817a" target="_top" xlink:title="finish_checks">
<polygon fill="none" stroke="black" points="1269.5,-237.5 1269.5,-256.5 1346.5,-256.5 1346.5,-237.5 1269.5,-237.5"/>
<text text-anchor="middle" x="1308" y="-244.5" font-family="Helvetica,sans-Serif" font-size="10.00">finish_checks</text>
</a>
</g>
</g>
<!-- Node36&#45;&gt;Node37 -->
<g id="edge45" class="edge"><title>Node36&#45;&gt;Node37</title>
<path fill="none" stroke="midnightblue" d="M878.347,-264.783C955.513,-261.581 1164.66,-252.905 1259.32,-248.978"/>
<polygon fill="midnightblue" stroke="midnightblue" points="1259.62,-252.469 1269.47,-248.557 1259.33,-245.475 1259.62,-252.469"/>
</g>
<!-- Node44 -->
<g id="node44" class="node"><title>Node44</title>
<g id="a_node44"><a xlink:href="../../d9/d32/connect__manager_8c.html#ad3444748ac94a8c84f02bee5d2050580" target="_top" xlink:title="get_pair_by_id">
<polygon fill="none" stroke="black" points="966,-190.5 966,-209.5 1046,-209.5 1046,-190.5 966,-190.5"/>
<text text-anchor="middle" x="1006" y="-197.5" font-family="Helvetica,sans-Serif" font-size="10.00">get_pair_by_id</text>
</a>
</g>
</g>
<!-- Node36&#45;&gt;Node44 -->
<g id="edge55" class="edge"><title>Node36&#45;&gt;Node44</title>
<path fill="none" stroke="midnightblue" d="M871.684,-256.403C898.448,-245.08 943.115,-226.182 973.294,-213.414"/>
<polygon fill="midnightblue" stroke="midnightblue" points="974.696,-216.621 982.542,-209.501 971.969,-210.175 974.696,-216.621"/>
</g>
<!-- Node46 -->
<g id="node46" class="node"><title>Node46</title>
<g id="a_node46"><a xlink:href="../../d9/d32/connect__manager_8c.html#ac98deeff0f6b21552e296f73f8aeac5a" target="_top" xlink:title="update_checklist_state">
<polygon fill="none" stroke="black" points="947.5,-275.5 947.5,-294.5 1064.5,-294.5 1064.5,-275.5 947.5,-275.5"/>
<text text-anchor="middle" x="1006" y="-282.5" font-family="Helvetica,sans-Serif" font-size="10.00">update_checklist_state</text>
</a>
</g>
</g>
<!-- Node36&#45;&gt;Node46 -->
<g id="edge58" class="edge"><title>Node36&#45;&gt;Node46</title>
<path fill="none" stroke="midnightblue" d="M878.342,-269.574C895.029,-271.606 916.663,-274.241 937.314,-276.756"/>
<polygon fill="midnightblue" stroke="midnightblue" points="936.998,-280.243 947.348,-277.978 937.844,-273.295 936.998,-280.243"/>
</g>
<!-- Node37&#45;&gt;Node21 -->
<g id="edge46" class="edge"><title>Node37&#45;&gt;Node21</title>
<path fill="none" stroke="midnightblue" d="M1338.96,-256.592C1346.58,-260.157 1354.23,-264.875 1360,-271 1389.55,-302.353 1364.66,-331.445 1396,-361 1397.66,-362.57 1399.46,-364.01 1401.36,-365.332"/>
<polygon fill="midnightblue" stroke="midnightblue" points="1399.78,-368.459 1410.19,-370.397 1403.26,-362.387 1399.78,-368.459"/>
</g>
<!-- Node38 -->
<g id="node38" class="node"><title>Node38</title>
<g id="a_node38"><a xlink:href="../../d9/d32/connect__manager_8c.html#a252718c2e4d5f1bbe3108c6e6a78089d" target="_top" xlink:title="get_initiated_by_ids">
<polygon fill="none" stroke="red" points="1402.5,-256.5 1402.5,-275.5 1505.5,-275.5 1505.5,-256.5 1402.5,-256.5"/>
<text text-anchor="middle" x="1454" y="-263.5" font-family="Helvetica,sans-Serif" font-size="10.00">get_initiated_by_ids</text>
</a>
</g>
</g>
<!-- Node37&#45;&gt;Node38 -->
<g id="edge47" class="edge"><title>Node37&#45;&gt;Node38</title>
<path fill="none" stroke="midnightblue" d="M1346.83,-251.992C1360.78,-253.832 1376.95,-255.966 1392.4,-258.004"/>
<polygon fill="midnightblue" stroke="midnightblue" points="1392.05,-261.488 1402.42,-259.326 1392.96,-254.548 1392.05,-261.488"/>
</g>
<!-- Node39 -->
<g id="node39" class="node"><title>Node39</title>
<g id="a_node39"><a xlink:href="../../d9/d32/connect__manager_8c.html#a8559cb19d0de88fdf10609a877eff37b" target="_top" xlink:title="initiate_data_create">
<polygon fill="none" stroke="black" points="1403.5,-218.5 1403.5,-237.5 1504.5,-237.5 1504.5,-218.5 1403.5,-218.5"/>
<text text-anchor="middle" x="1454" y="-225.5" font-family="Helvetica,sans-Serif" font-size="10.00">initiate_data_create</text>
</a>
</g>
</g>
<!-- Node37&#45;&gt;Node39 -->
<g id="edge48" class="edge"><title>Node37&#45;&gt;Node39</title>
<path fill="none" stroke="midnightblue" d="M1346.83,-242.008C1361.05,-240.132 1377.58,-237.951 1393.31,-235.876"/>
<polygon fill="midnightblue" stroke="midnightblue" points="1394.04,-239.31 1403.49,-234.532 1393.12,-232.37 1394.04,-239.31"/>
</g>
<!-- Node40 -->
<g id="node40" class="node"><title>Node40</title>
<g id="a_node40"><a xlink:href="../../d9/d32/connect__manager_8c.html#a0d29eaeb694f6f1788cfc3d61d071c40" target="_top" xlink:title="initiate_data_destroy">
<polygon fill="none" stroke="red" points="1400.5,-332.5 1400.5,-351.5 1507.5,-351.5 1507.5,-332.5 1400.5,-332.5"/>
<text text-anchor="middle" x="1454" y="-339.5" font-family="Helvetica,sans-Serif" font-size="10.00">initiate_data_destroy</text>
</a>
</g>
</g>
<!-- Node37&#45;&gt;Node40 -->
<g id="edge49" class="edge"><title>Node37&#45;&gt;Node40</title>
<path fill="none" stroke="midnightblue" d="M1335.99,-256.528C1344.24,-260.242 1352.98,-265.056 1360,-271 1381.45,-289.163 1373.51,-306.135 1396,-323 1398.51,-324.88 1401.21,-326.58 1404.03,-328.116"/>
<polygon fill="midnightblue" stroke="midnightblue" points="1402.79,-331.4 1413.32,-332.489 1405.76,-325.066 1402.79,-331.4"/>
</g>
<!-- Node41 -->
<g id="node41" class="node"><title>Node41</title>
<g id="a_node41"><a xlink:href="../../d9/d32/connect__manager_8c.html#afdb47aae9398372e2388293318af306d" target="_top" xlink:title="initiate_mediated">
<polygon fill="none" stroke="red" points="1409,-180.5 1409,-199.5 1499,-199.5 1499,-180.5 1409,-180.5"/>
<text text-anchor="middle" x="1454" y="-187.5" font-family="Helvetica,sans-Serif" font-size="10.00">initiate_mediated</text>
</a>
</g>
</g>
<!-- Node37&#45;&gt;Node41 -->
<g id="edge51" class="edge"><title>Node37&#45;&gt;Node41</title>
<path fill="none" stroke="midnightblue" d="M1329.53,-237.41C1347.02,-229.388 1372.92,-217.866 1396,-209 1401.49,-206.891 1407.33,-204.79 1413.09,-202.795"/>
<polygon fill="midnightblue" stroke="midnightblue" points="1414.3,-206.08 1422.65,-199.555 1412.05,-199.451 1414.3,-206.08"/>
</g>
<!-- Node42 -->
<g id="node42" class="node"><title>Node42</title>
<g id="a_node42"><a xlink:href="../../d9/d32/connect__manager_8c.html#a71a2ee0ed91e3afbeb8131393d883cb6" target="_top" xlink:title="remove_checklist">
<polygon fill="none" stroke="black" points="1407.5,-142.5 1407.5,-161.5 1500.5,-161.5 1500.5,-142.5 1407.5,-142.5"/>
<text text-anchor="middle" x="1454" y="-149.5" font-family="Helvetica,sans-Serif" font-size="10.00">remove_checklist</text>
</a>
</g>
</g>
<!-- Node37&#45;&gt;Node42 -->
<g id="edge52" class="edge"><title>Node37&#45;&gt;Node42</title>
<path fill="none" stroke="midnightblue" d="M1317.46,-237.473C1332.03,-221.596 1363.45,-189.631 1396,-171 1399.67,-168.901 1403.6,-166.991 1407.62,-165.262"/>
<polygon fill="midnightblue" stroke="midnightblue" points="1409.06,-168.46 1417.09,-161.554 1406.5,-161.942 1409.06,-168.46"/>
</g>
<!-- Node43 -->
<g id="node43" class="node"><title>Node43</title>
<g id="a_node43"><a xlink:href="../../d9/d32/connect__manager_8c.html#aa4bec40c6319b65a56f13c6ac927e2a6" target="_top" xlink:title="remove_initiated">
<polygon fill="none" stroke="black" points="1410,-294.5 1410,-313.5 1498,-313.5 1498,-294.5 1410,-294.5"/>
<text text-anchor="middle" x="1454" y="-301.5" font-family="Helvetica,sans-Serif" font-size="10.00">remove_initiated</text>
</a>
</g>
</g>
<!-- Node37&#45;&gt;Node43 -->
<g id="edge53" class="edge"><title>Node37&#45;&gt;Node43</title>
<path fill="none" stroke="midnightblue" d="M1329.53,-256.59C1347.02,-264.612 1372.92,-276.134 1396,-285 1401.49,-287.109 1407.33,-289.21 1413.09,-291.205"/>
<polygon fill="midnightblue" stroke="midnightblue" points="1412.05,-294.549 1422.65,-294.445 1414.3,-287.92 1412.05,-294.549"/>
</g>
<!-- Node40&#45;&gt;Node4 -->
<g id="edge50" class="edge"><title>Node40&#45;&gt;Node4</title>
<path fill="none" stroke="midnightblue" d="M1496.61,-351.56C1502.17,-354.026 1507.49,-357.12 1512,-361 1537.02,-382.549 1575.48,-473.301 1591.54,-513.128"/>
<polygon fill="midnightblue" stroke="midnightblue" points="1588.33,-514.513 1595.29,-522.5 1594.83,-511.915 1588.33,-514.513"/>
</g>
<!-- Node45 -->
<g id="node45" class="node"><title>Node45</title>
<g id="a_node45"><a xlink:href="../../d9/d32/connect__manager_8c.html#a400f08f0e05fafddf2c8309abade7b68" target="_top" xlink:title="match_pair_by_id">
<polygon fill="none" stroke="black" points="1116.5,-161.5 1116.5,-180.5 1209.5,-180.5 1209.5,-161.5 1116.5,-161.5"/>
<text text-anchor="middle" x="1163" y="-168.5" font-family="Helvetica,sans-Serif" font-size="10.00">match_pair_by_id</text>
</a>
</g>
</g>
<!-- Node44&#45;&gt;Node45 -->
<g id="edge56" class="edge"><title>Node44&#45;&gt;Node45</title>
<path fill="none" stroke="midnightblue" d="M1046.11,-192.682C1064.37,-189.266 1086.44,-185.138 1106.39,-181.405"/>
<polygon fill="midnightblue" stroke="midnightblue" points="1107.11,-184.831 1116.29,-179.551 1105.82,-177.95 1107.11,-184.831"/>
</g>
<!-- Node46&#45;&gt;Node19 -->
<g id="edge59" class="edge"><title>Node46&#45;&gt;Node19</title>
<path fill="none" stroke="midnightblue" d="M1026.63,-294.625C1053.65,-307.874 1102.47,-331.813 1133.51,-347.031"/>
<polygon fill="midnightblue" stroke="midnightblue" points="1132.01,-350.193 1142.53,-351.453 1135.09,-343.908 1132.01,-350.193"/>
</g>
<!-- Node46&#45;&gt;Node20 -->
<g id="edge60" class="edge"><title>Node46&#45;&gt;Node20</title>
<path fill="none" stroke="midnightblue" d="M1014.42,-294.503C1029.64,-313.386 1066.3,-355.882 1106,-380 1109.36,-382.041 1112.97,-383.896 1116.67,-385.575"/>
<polygon fill="midnightblue" stroke="midnightblue" points="1115.42,-388.844 1126,-389.394 1118.07,-382.366 1115.42,-388.844"/>
</g>
<!-- Node46&#45;&gt;Node21 -->
<g id="edge61" class="edge"><title>Node46&#45;&gt;Node21</title>
<path fill="none" stroke="midnightblue" d="M1064.82,-282.97C1151.74,-280.904 1311.13,-281.24 1360,-309 1384.44,-322.883 1373.51,-344.135 1396,-361 1398.51,-362.88 1401.21,-364.58 1404.03,-366.116"/>
<polygon fill="midnightblue" stroke="midnightblue" points="1402.79,-369.4 1413.32,-370.489 1405.76,-363.066 1402.79,-369.4"/>
</g>
<!-- Node47 -->
<g id="node47" class="node"><title>Node47</title>
<g id="a_node47"><a xlink:href="../../d9/d32/connect__manager_8c.html#a9a5d8c42d5ad5532c0b1e90126b158eb" target="_top" xlink:title="initiator_finish">
<polygon fill="none" stroke="black" points="1124.5,-199.5 1124.5,-218.5 1201.5,-218.5 1201.5,-199.5 1124.5,-199.5"/>
<text text-anchor="middle" x="1163" y="-206.5" font-family="Helvetica,sans-Serif" font-size="10.00">initiator_finish</text>
</a>
</g>
</g>
<!-- Node46&#45;&gt;Node47 -->
<g id="edge62" class="edge"><title>Node46&#45;&gt;Node47</title>
<path fill="none" stroke="midnightblue" d="M1026.63,-275.375C1053.65,-262.126 1102.47,-238.187 1133.51,-222.969"/>
<polygon fill="midnightblue" stroke="midnightblue" points="1135.09,-226.092 1142.53,-218.547 1132.01,-219.807 1135.09,-226.092"/>
</g>
<!-- Node47&#45;&gt;Node12 -->
<g id="edge64" class="edge"><title>Node47&#45;&gt;Node12</title>
<path fill="none" stroke="midnightblue" d="M1198.98,-199.488C1206.16,-196.893 1213.51,-193.741 1220,-190 1247.93,-173.914 1275.08,-148.075 1291.42,-131.067"/>
<polygon fill="midnightblue" stroke="midnightblue" points="1294.23,-133.19 1298.53,-123.508 1289.13,-128.394 1294.23,-133.19"/>
</g>
<!-- Node47&#45;&gt;Node37 -->
<g id="edge63" class="edge"><title>Node47&#45;&gt;Node37</title>
<path fill="none" stroke="midnightblue" d="M1200.08,-218.589C1218.63,-223.517 1241.43,-229.575 1261.2,-234.829"/>
<polygon fill="midnightblue" stroke="midnightblue" points="1260.36,-238.228 1270.93,-237.414 1262.16,-231.463 1260.36,-238.228"/>
</g>
<!-- Node48&#45;&gt;Node19 -->
<g id="edge66" class="edge"><title>Node48&#45;&gt;Node19</title>
<path fill="none" stroke="midnightblue" d="M906.045,-361C960.326,-361 1041.86,-361 1098.26,-361"/>
<polygon fill="midnightblue" stroke="midnightblue" points="1098.48,-364.5 1108.48,-361 1098.48,-357.5 1098.48,-364.5"/>
</g>
</g>
</svg>
