<?xml version="1.0" encoding="UTF-8" standalone="no"?>
<!DOCTYPE svg PUBLIC "-//W3C//DTD SVG 1.1//EN"
 "http://www.w3.org/Graphics/SVG/1.1/DTD/svg11.dtd">
<!-- Generated by graphviz version 2.36.0 (20140111.2315)
 -->
<!-- Title: equals Pages: 1 -->
<svg width="254pt" height="28pt"
 viewBox="0.00 0.00 254.00 28.00" xmlns="http://www.w3.org/2000/svg" xmlns:xlink="http://www.w3.org/1999/xlink">
<g id="graph0" class="graph" transform="scale(1 1) rotate(0) translate(4 24)">
<title>equals</title>
<!-- Node1 -->
<g id="node1" class="node"><title>Node1</title>
<polygon fill="#bfbfbf" stroke="black" points="0.5,-0.5 0.5,-19.5 45.5,-19.5 45.5,-0.5 0.5,-0.5"/>
<text text-anchor="middle" x="23" y="-7.5" font-family="Helvetica,sans-Serif" font-size="10.00">equals</text>
</g>
<!-- Node2 -->
<g id="node2" class="node"><title>Node2</title>
<g id="a_node2"><a xlink:href="../../d4/d2b/leak__detective_8c.html#a55faf0deacaed98457a040dfdb2bbcad" target="_top" xlink:title="print_traces">
<polygon fill="none" stroke="black" points="82,-0.5 82,-19.5 150,-19.5 150,-0.5 82,-0.5"/>
<text text-anchor="middle" x="116" y="-7.5" font-family="Helvetica,sans-Serif" font-size="10.00">print_traces</text>
</a>
</g>
</g>
<!-- Node1&#45;&gt;Node2 -->
<g id="edge1" class="edge"><title>Node1&#45;&gt;Node2</title>
<path fill="none" stroke="midnightblue" d="M55.7778,-10C64.2112,-10 73.3384,-10 81.8432,-10"/>
<polygon fill="midnightblue" stroke="midnightblue" points="55.5658,-6.5001 45.5657,-10 55.5657,-13.5001 55.5658,-6.5001"/>
</g>
<!-- Node3 -->
<g id="node3" class="node"><title>Node3</title>
<g id="a_node3"><a xlink:href="../../d4/d2b/leak__detective_8c.html#a6896b3f2f88e77c0cf6f2415dd29701b" target="_top" xlink:title="METHOD">
<polygon fill="none" stroke="black" points="186,-0.5 186,-19.5 246,-19.5 246,-0.5 186,-0.5"/>
<text text-anchor="middle" x="216" y="-7.5" font-family="Helvetica,sans-Serif" font-size="10.00">METHOD</text>
</a>
</g>
</g>
<!-- Node2&#45;&gt;Node3 -->
<g id="edge2" class="edge"><title>Node2&#45;&gt;Node3</title>
<path fill="none" stroke="midnightblue" d="M160.452,-10C169.026,-10 177.831,-10 185.796,-10"/>
<polygon fill="midnightblue" stroke="midnightblue" points="160.178,-6.5001 150.178,-10 160.178,-13.5001 160.178,-6.5001"/>
</g>
</g>
</svg>
