<?xml version="1.0" encoding="UTF-8" standalone="no"?>
<!DOCTYPE svg PUBLIC "-//W3C//DTD SVG 1.1//EN"
 "http://www.w3.org/Graphics/SVG/1.1/DTD/svg11.dtd">
<!-- Generated by graphviz version 2.36.0 (20140111.2315)
 -->
<!-- Title: enable_leak_detective Pages: 1 -->
<svg width="938pt" height="370pt"
 viewBox="0.00 0.00 938.00 370.00" xmlns="http://www.w3.org/2000/svg" xmlns:xlink="http://www.w3.org/1999/xlink">
<g id="graph0" class="graph" transform="scale(1 1) rotate(0) translate(4 366)">
<title>enable_leak_detective</title>
<!-- Node1 -->
<g id="node1" class="node"><title>Node1</title>
<polygon fill="#bfbfbf" stroke="black" points="0.5,-152.5 0.5,-171.5 113.5,-171.5 113.5,-152.5 0.5,-152.5"/>
<text text-anchor="middle" x="57" y="-159.5" font-family="Helvetica,sans-Serif" font-size="10.00">enable_leak_detective</text>
</g>
<!-- Node2 -->
<g id="node2" class="node"><title>Node2</title>
<g id="a_node2"><a xlink:href="../../de/db5/group__leak__detective.html#gab1b31ee5288c3c39b39ba2ba2067b72f" target="_top" xlink:title="leak_detective_create">
<polygon fill="none" stroke="black" points="150,-152.5 150,-171.5 262,-171.5 262,-152.5 150,-152.5"/>
<text text-anchor="middle" x="206" y="-159.5" font-family="Helvetica,sans-Serif" font-size="10.00">leak_detective_create</text>
</a>
</g>
</g>
<!-- Node1&#45;&gt;Node2 -->
<g id="edge1" class="edge"><title>Node1&#45;&gt;Node2</title>
<path fill="none" stroke="midnightblue" d="M123.718,-162C132.442,-162 141.314,-162 149.835,-162"/>
<polygon fill="midnightblue" stroke="midnightblue" points="123.574,-158.5 113.574,-162 123.574,-165.5 123.574,-158.5"/>
</g>
<!-- Node3 -->
<g id="node3" class="node"><title>Node3</title>
<g id="a_node3"><a xlink:href="../../d3/d99/group__library.html#ga18cf1ca25ca811f74ba75c1de79cee4f" target="_top" xlink:title="library_init">
<polygon fill="none" stroke="black" points="298.5,-152.5 298.5,-171.5 359.5,-171.5 359.5,-152.5 298.5,-152.5"/>
<text text-anchor="middle" x="329" y="-159.5" font-family="Helvetica,sans-Serif" font-size="10.00">library_init</text>
</a>
</g>
</g>
<!-- Node2&#45;&gt;Node3 -->
<g id="edge2" class="edge"><title>Node2&#45;&gt;Node3</title>
<path fill="none" stroke="midnightblue" d="M272.439,-162C281.5,-162 290.413,-162 298.357,-162"/>
<polygon fill="midnightblue" stroke="midnightblue" points="272.189,-158.5 262.189,-162 272.189,-165.5 272.189,-158.5"/>
</g>
<!-- Node3&#45;&gt;Node3 -->
<g id="edge16" class="edge"><title>Node3&#45;&gt;Node3</title>
<path fill="none" stroke="midnightblue" d="M310.112,-181.4C311.373,-186.315 317.669,-190 329,-190 347.129,-190 352.369,-180.565 344.721,-171.757"/>
<polygon fill="midnightblue" stroke="midnightblue" points="313.484,-182.35 313.279,-171.757 306.833,-180.166 313.484,-182.35"/>
</g>
<!-- Node4 -->
<g id="node4" class="node"><title>Node4</title>
<g id="a_node4"><a xlink:href="../../de/dca/__copyright_8c.html#a0ddf1224851353fc92bfbff6f499fa97" target="_top" xlink:title="main">
<polygon fill="none" stroke="black" points="412,-323.5 412,-342.5 450,-342.5 450,-323.5 412,-323.5"/>
<text text-anchor="middle" x="431" y="-330.5" font-family="Helvetica,sans-Serif" font-size="10.00">main</text>
</a>
</g>
</g>
<!-- Node3&#45;&gt;Node4 -->
<g id="edge3" class="edge"><title>Node3&#45;&gt;Node4</title>
<path fill="none" stroke="midnightblue" d="M334.253,-181.808C341.855,-213.156 360.416,-274.669 396,-314 400.355,-318.814 406.225,-322.689 411.861,-325.653"/>
<polygon fill="midnightblue" stroke="midnightblue" points="337.586,-180.684 331.937,-171.721 330.764,-182.25 337.586,-180.684"/>
</g>
<!-- Node5 -->
<g id="node5" class="node"><title>Node5</title>
<g id="a_node5"><a xlink:href="../../dd/dcc/charon-svc_8c.html#a2a57519866b925dd058567c145b8ae45" target="_top" xlink:title="init_and_run">
<polygon fill="none" stroke="black" points="396.5,-285.5 396.5,-304.5 465.5,-304.5 465.5,-285.5 396.5,-285.5"/>
<text text-anchor="middle" x="431" y="-292.5" font-family="Helvetica,sans-Serif" font-size="10.00">init_and_run</text>
</a>
</g>
</g>
<!-- Node3&#45;&gt;Node5 -->
<g id="edge4" class="edge"><title>Node3&#45;&gt;Node5</title>
<path fill="none" stroke="midnightblue" d="M343.376,-179.791C364.734,-208.197 405.836,-262.861 422.604,-285.163"/>
<polygon fill="midnightblue" stroke="midnightblue" points="345.999,-177.454 337.192,-171.565 340.404,-181.661 345.999,-177.454"/>
</g>
<!-- Node9 -->
<g id="node9" class="node"><title>Node9</title>
<g id="a_node9"><a xlink:href="../../d1/d4c/ext_2dumm_8c.html#a483775b052d2c5ac3e09664bcbe4f09b" target="_top" xlink:title="Init_dumm">
<polygon fill="none" stroke="black" points="400,-209.5 400,-228.5 462,-228.5 462,-209.5 400,-209.5"/>
<text text-anchor="middle" x="431" y="-216.5" font-family="Helvetica,sans-Serif" font-size="10.00">Init_dumm</text>
</a>
</g>
</g>
<!-- Node3&#45;&gt;Node9 -->
<g id="edge9" class="edge"><title>Node3&#45;&gt;Node9</title>
<path fill="none" stroke="midnightblue" d="M355.299,-176.667C367.566,-183.753 382.528,-192.358 396,-200 401.411,-203.069 407.324,-206.387 412.679,-209.377"/>
<polygon fill="midnightblue" stroke="midnightblue" points="356.921,-173.562 346.512,-171.585 353.416,-179.621 356.921,-173.562"/>
</g>
<!-- Node10 -->
<g id="node10" class="node"><title>Node10</title>
<g id="a_node10"><a xlink:href="../../d0/d9e/group__libimcv.html#ga1a2bc69328f409c080b8814e28972ecf" target="_top" xlink:title="libimcv_init">
<polygon fill="none" stroke="black" points="398.5,-171.5 398.5,-190.5 463.5,-190.5 463.5,-171.5 398.5,-171.5"/>
<text text-anchor="middle" x="431" y="-178.5" font-family="Helvetica,sans-Serif" font-size="10.00">libimcv_init</text>
</a>
</g>
</g>
<!-- Node3&#45;&gt;Node10 -->
<g id="edge10" class="edge"><title>Node3&#45;&gt;Node10</title>
<path fill="none" stroke="midnightblue" d="M369.8,-169.562C379.328,-171.372 389.373,-173.281 398.469,-175.009"/>
<polygon fill="midnightblue" stroke="midnightblue" points="370.21,-166.077 359.733,-167.649 368.903,-172.954 370.21,-166.077"/>
</g>
<!-- Node16 -->
<g id="node16" class="node"><title>Node16</title>
<g id="a_node16"><a xlink:href="../../dc/d7a/group__libvici.html#ga51b7da53077930dc9e0f9de1298a4f9c" target="_top" xlink:title="vici_init">
<polygon fill="none" stroke="black" points="406,-133.5 406,-152.5 456,-152.5 456,-133.5 406,-133.5"/>
<text text-anchor="middle" x="431" y="-140.5" font-family="Helvetica,sans-Serif" font-size="10.00">vici_init</text>
</a>
</g>
</g>
<!-- Node3&#45;&gt;Node16 -->
<g id="edge17" class="edge"><title>Node3&#45;&gt;Node16</title>
<path fill="none" stroke="midnightblue" d="M369.743,-154.449C381.98,-152.124 395.075,-149.636 405.92,-147.575"/>
<polygon fill="midnightblue" stroke="midnightblue" points="368.903,-151.046 359.733,-156.351 370.21,-157.923 368.903,-151.046"/>
</g>
<!-- Node18 -->
<g id="node18" class="node"><title>Node18</title>
<g id="a_node18"><a xlink:href="../../d7/d9b/pt-tls-client_8c.html#aedc913c139bb562646d3459b0ca28997" target="_top" xlink:title="init">
<polygon fill="none" stroke="black" points="416.5,-95.5 416.5,-114.5 445.5,-114.5 445.5,-95.5 416.5,-95.5"/>
<text text-anchor="middle" x="431" y="-102.5" font-family="Helvetica,sans-Serif" font-size="10.00">init</text>
</a>
</g>
</g>
<!-- Node3&#45;&gt;Node18 -->
<g id="edge19" class="edge"><title>Node3&#45;&gt;Node18</title>
<path fill="none" stroke="midnightblue" d="M355.299,-147.333C367.566,-140.247 382.528,-131.642 396,-124 402.705,-120.197 410.181,-116.013 416.411,-112.542"/>
<polygon fill="midnightblue" stroke="midnightblue" points="353.416,-144.379 346.512,-152.415 356.921,-150.438 353.416,-144.379"/>
</g>
<!-- Node20 -->
<g id="node20" class="node"><title>Node20</title>
<g id="a_node20"><a xlink:href="../../d8/df9/test__runner_8c.html#a4581d637b94ffd7a3cb7dc3c8aa7946d" target="_top" xlink:title="load_suites">
<polygon fill="none" stroke="black" points="651,-38.5 651,-57.5 717,-57.5 717,-38.5 651,-38.5"/>
<text text-anchor="middle" x="684" y="-45.5" font-family="Helvetica,sans-Serif" font-size="10.00">load_suites</text>
</a>
</g>
</g>
<!-- Node3&#45;&gt;Node20 -->
<g id="edge21" class="edge"><title>Node3&#45;&gt;Node20</title>
<path fill="none" stroke="midnightblue" d="M340.739,-143.602C352.115,-125.87 371.768,-99.763 396,-86 478.382,-39.2097 595.049,-40.7226 650.845,-44.7734"/>
<polygon fill="midnightblue" stroke="midnightblue" points="337.55,-142.107 335.294,-152.46 343.513,-145.773 337.55,-142.107"/>
</g>
<!-- Node23 -->
<g id="node23" class="node"><title>Node23</title>
<g id="a_node23"><a xlink:href="../../d8/df9/test__runner_8c.html#a9a715421b4e66be894fcf98820d3312b" target="_top" xlink:title="pre_test">
<polygon fill="none" stroke="black" points="405,-0.5 405,-19.5 457,-19.5 457,-0.5 405,-0.5"/>
<text text-anchor="middle" x="431" y="-7.5" font-family="Helvetica,sans-Serif" font-size="10.00">pre_test</text>
</a>
</g>
</g>
<!-- Node3&#45;&gt;Node23 -->
<g id="edge24" class="edge"><title>Node3&#45;&gt;Node23</title>
<path fill="none" stroke="midnightblue" d="M336.587,-142.736C346.395,-116.089 366.861,-67.4858 396,-34 400.838,-28.4405 407.218,-23.5012 413.144,-19.5704"/>
<polygon fill="midnightblue" stroke="midnightblue" points="333.203,-141.808 333.146,-152.402 339.797,-144.156 333.203,-141.808"/>
</g>
<!-- Node6 -->
<g id="node6" class="node"><title>Node6</title>
<g id="a_node6"><a xlink:href="../../dd/dcc/charon-svc_8c.html#abbee77e5d66102b8a8b52c080af297b0" target="_top" xlink:title="console_main">
<polygon fill="none" stroke="black" points="510.5,-342.5 510.5,-361.5 587.5,-361.5 587.5,-342.5 510.5,-342.5"/>
<text text-anchor="middle" x="549" y="-349.5" font-family="Helvetica,sans-Serif" font-size="10.00">console_main</text>
</a>
</g>
</g>
<!-- Node5&#45;&gt;Node6 -->
<g id="edge5" class="edge"><title>Node5&#45;&gt;Node6</title>
<path fill="none" stroke="midnightblue" d="M458.333,-309.67C474.449,-318.573 493.547,-328.974 502,-333 508.865,-336.27 516.445,-339.537 523.439,-342.416"/>
<polygon fill="midnightblue" stroke="midnightblue" points="459.736,-306.445 449.293,-304.66 456.343,-312.568 459.736,-306.445"/>
</g>
<!-- Node8 -->
<g id="node8" class="node"><title>Node8</title>
<g id="a_node8"><a xlink:href="../../dd/dcc/charon-svc_8c.html#a2187fa70ac95082f38e9cf770aa45af2" target="_top" xlink:title="service_main">
<polygon fill="none" stroke="black" points="512,-304.5 512,-323.5 586,-323.5 586,-304.5 512,-304.5"/>
<text text-anchor="middle" x="549" y="-311.5" font-family="Helvetica,sans-Serif" font-size="10.00">service_main</text>
</a>
</g>
</g>
<!-- Node5&#45;&gt;Node8 -->
<g id="edge7" class="edge"><title>Node5&#45;&gt;Node8</title>
<path fill="none" stroke="midnightblue" d="M475.703,-302.158C487.565,-304.101 500.279,-306.184 511.685,-308.052"/>
<polygon fill="midnightblue" stroke="midnightblue" points="475.986,-298.658 465.552,-300.496 474.855,-305.566 475.986,-298.658"/>
</g>
<!-- Node7 -->
<g id="node7" class="node"><title>Node7</title>
<g id="a_node7"><a xlink:href="../../dd/dcc/charon-svc_8c.html#a0ddf1224851353fc92bfbff6f499fa97" target="_top" xlink:title="main">
<polygon fill="none" stroke="black" points="665,-323.5 665,-342.5 703,-342.5 703,-323.5 665,-323.5"/>
<text text-anchor="middle" x="684" y="-330.5" font-family="Helvetica,sans-Serif" font-size="10.00">main</text>
</a>
</g>
</g>
<!-- Node6&#45;&gt;Node7 -->
<g id="edge6" class="edge"><title>Node6&#45;&gt;Node7</title>
<path fill="none" stroke="midnightblue" d="M597.797,-345.172C620.994,-341.858 647.496,-338.072 664.699,-335.614"/>
<polygon fill="midnightblue" stroke="midnightblue" points="597.161,-341.727 587.757,-346.606 598.151,-348.657 597.161,-341.727"/>
</g>
<!-- Node8&#45;&gt;Node7 -->
<g id="edge8" class="edge"><title>Node8&#45;&gt;Node7</title>
<path fill="none" stroke="midnightblue" d="M596.486,-320.641C619.973,-323.996 647.134,-327.876 664.664,-330.381"/>
<polygon fill="midnightblue" stroke="midnightblue" points="596.737,-317.141 586.343,-319.192 595.747,-324.071 596.737,-317.141"/>
</g>
<!-- Node11 -->
<g id="node11" class="node"><title>Node11</title>
<g id="a_node11"><a xlink:href="../../da/d03/attest_8c.html#a0ddf1224851353fc92bfbff6f499fa97" target="_top" xlink:title="main">
<polygon fill="none" stroke="black" points="530,-266.5 530,-285.5 568,-285.5 568,-266.5 530,-266.5"/>
<text text-anchor="middle" x="549" y="-273.5" font-family="Helvetica,sans-Serif" font-size="10.00">main</text>
</a>
</g>
</g>
<!-- Node10&#45;&gt;Node11 -->
<g id="edge11" class="edge"><title>Node10&#45;&gt;Node11</title>
<path fill="none" stroke="midnightblue" d="M461.391,-196.11C463.013,-197.342 464.564,-198.64 466,-200 487.748,-220.61 479.075,-237.707 502,-257 509.933,-263.676 520.536,-268.268 529.563,-271.263"/>
<polygon fill="midnightblue" stroke="midnightblue" points="463.179,-193.097 452.902,-190.521 459.329,-198.944 463.179,-193.097"/>
</g>
<!-- Node12 -->
<g id="node12" class="node"><title>Node12</title>
<g id="a_node12"><a xlink:href="../../da/df6/group__imc__agent__t.html#ga4e3d8335be0a5db3f9057bbe23ce97e1" target="_top" xlink:title="imc_agent_create">
<polygon fill="none" stroke="black" points="502,-228.5 502,-247.5 596,-247.5 596,-228.5 502,-228.5"/>
<text text-anchor="middle" x="549" y="-235.5" font-family="Helvetica,sans-Serif" font-size="10.00">imc_agent_create</text>
</a>
</g>
</g>
<!-- Node10&#45;&gt;Node12 -->
<g id="edge12" class="edge"><title>Node10&#45;&gt;Node12</title>
<path fill="none" stroke="midnightblue" d="M458.333,-195.67C474.449,-204.573 493.547,-214.974 502,-219 508.865,-222.27 516.445,-225.537 523.439,-228.416"/>
<polygon fill="midnightblue" stroke="midnightblue" points="459.736,-192.445 449.293,-190.66 456.343,-198.568 459.736,-192.445"/>
</g>
<!-- Node14 -->
<g id="node14" class="node"><title>Node14</title>
<g id="a_node14"><a xlink:href="../../dd/dd4/group__imv__agent__t.html#ga207ef25d8bf8c613ac61d089d0874d9b" target="_top" xlink:title="imv_agent_create">
<polygon fill="none" stroke="black" points="502,-190.5 502,-209.5 596,-209.5 596,-190.5 502,-190.5"/>
<text text-anchor="middle" x="549" y="-197.5" font-family="Helvetica,sans-Serif" font-size="10.00">imv_agent_create</text>
</a>
</g>
</g>
<!-- Node10&#45;&gt;Node14 -->
<g id="edge14" class="edge"><title>Node10&#45;&gt;Node14</title>
<path fill="none" stroke="midnightblue" d="M473.742,-187.837C482.908,-189.338 492.664,-190.936 501.987,-192.463"/>
<polygon fill="midnightblue" stroke="midnightblue" points="474.132,-184.354 463.698,-186.192 473,-191.262 474.132,-184.354"/>
</g>
<!-- Node15 -->
<g id="node15" class="node"><title>Node15</title>
<g id="a_node15"><a xlink:href="../../df/da3/test__imcv__seg_8c.html#ac72d7ad0385a61efdaf1d769d5b7da2b" target="_top" xlink:title="START_TEST">
<polygon fill="none" stroke="black" points="509,-152.5 509,-171.5 589,-171.5 589,-152.5 509,-152.5"/>
<text text-anchor="middle" x="549" y="-159.5" font-family="Helvetica,sans-Serif" font-size="10.00">START_TEST</text>
</a>
</g>
</g>
<!-- Node10&#45;&gt;Node15 -->
<g id="edge15" class="edge"><title>Node10&#45;&gt;Node15</title>
<path fill="none" stroke="midnightblue" d="M473.876,-174.141C485.299,-172.27 497.627,-170.251 508.889,-168.406"/>
<polygon fill="midnightblue" stroke="midnightblue" points="473,-170.738 463.698,-175.808 474.132,-177.646 473,-170.738"/>
</g>
<!-- Node13 -->
<g id="node13" class="node"><title>Node13</title>
<g id="a_node13"><a xlink:href="../../de/d10/group__tncifimc.html#ga6a4653276d3fc1d46b7703d41a2dc5b5" target="_top" xlink:title="TNC_IMC_Initialize">
<polygon fill="none" stroke="black" points="632.5,-228.5 632.5,-247.5 735.5,-247.5 735.5,-228.5 632.5,-228.5"/>
<text text-anchor="middle" x="684" y="-235.5" font-family="Helvetica,sans-Serif" font-size="10.00">TNC_IMC_Initialize</text>
</a>
</g>
</g>
<!-- Node12&#45;&gt;Node13 -->
<g id="edge13" class="edge"><title>Node12&#45;&gt;Node13</title>
<path fill="none" stroke="midnightblue" d="M606.203,-238C614.898,-238 623.833,-238 632.395,-238"/>
<polygon fill="midnightblue" stroke="midnightblue" points="606.144,-234.5 596.144,-238 606.144,-241.5 606.144,-234.5"/>
</g>
<!-- Node17 -->
<g id="node17" class="node"><title>Node17</title>
<g id="a_node17"><a xlink:href="../../d6/dca/test__event_8c.html#afe8c30a13467d05abe5f4f9f0961b716" target="_top" xlink:title="START_TEST">
<polygon fill="none" stroke="black" points="509,-114.5 509,-133.5 589,-133.5 589,-114.5 509,-114.5"/>
<text text-anchor="middle" x="549" y="-121.5" font-family="Helvetica,sans-Serif" font-size="10.00">START_TEST</text>
</a>
</g>
</g>
<!-- Node16&#45;&gt;Node17 -->
<g id="edge18" class="edge"><title>Node16&#45;&gt;Node17</title>
<path fill="none" stroke="midnightblue" d="M466.271,-137.387C479.667,-135.193 495.103,-132.664 508.927,-130.4"/>
<polygon fill="midnightblue" stroke="midnightblue" points="465.338,-133.993 456.035,-139.063 466.47,-140.901 465.338,-133.993"/>
</g>
<!-- Node19 -->
<g id="node19" class="node"><title>Node19</title>
<g id="a_node19"><a xlink:href="../../d7/d9b/pt-tls-client_8c.html#a0ddf1224851353fc92bfbff6f499fa97" target="_top" xlink:title="main">
<polygon fill="none" stroke="black" points="530,-76.5 530,-95.5 568,-95.5 568,-76.5 530,-76.5"/>
<text text-anchor="middle" x="549" y="-83.5" font-family="Helvetica,sans-Serif" font-size="10.00">main</text>
</a>
</g>
</g>
<!-- Node18&#45;&gt;Node19 -->
<g id="edge20" class="edge"><title>Node18&#45;&gt;Node19</title>
<path fill="none" stroke="midnightblue" d="M455.892,-101.087C477.787,-97.5003 509.741,-92.2665 529.679,-89.0008"/>
<polygon fill="midnightblue" stroke="midnightblue" points="455.065,-97.6754 445.762,-102.746 456.197,-104.583 455.065,-97.6754"/>
</g>
<!-- Node21 -->
<g id="node21" class="node"><title>Node21</title>
<g id="a_node21"><a xlink:href="../../d7/deb/group__test__runner.html#ga8946393b8d2910f2fd2ccb191070c2bf" target="_top" xlink:title="test_runner_run">
<polygon fill="none" stroke="black" points="772,-19.5 772,-38.5 856,-38.5 856,-19.5 772,-19.5"/>
<text text-anchor="middle" x="814" y="-26.5" font-family="Helvetica,sans-Serif" font-size="10.00">test_runner_run</text>
</a>
</g>
</g>
<!-- Node20&#45;&gt;Node21 -->
<g id="edge22" class="edge"><title>Node20&#45;&gt;Node21</title>
<path fill="none" stroke="midnightblue" d="M727.407,-41.7052C741.752,-39.5759 757.736,-37.2033 771.972,-35.0901"/>
<polygon fill="midnightblue" stroke="midnightblue" points="726.677,-38.2751 717.3,-43.2055 727.705,-45.1992 726.677,-38.2751"/>
</g>
<!-- Node22 -->
<g id="node22" class="node"><title>Node22</title>
<g id="a_node22"><a xlink:href="../../db/da5/bliss__tests_8c.html#a0ddf1224851353fc92bfbff6f499fa97" target="_top" xlink:title="main">
<polygon fill="none" stroke="black" points="892,-19.5 892,-38.5 930,-38.5 930,-19.5 892,-19.5"/>
<text text-anchor="middle" x="911" y="-26.5" font-family="Helvetica,sans-Serif" font-size="10.00">main</text>
</a>
</g>
</g>
<!-- Node21&#45;&gt;Node22 -->
<g id="edge23" class="edge"><title>Node21&#45;&gt;Node22</title>
<path fill="none" stroke="midnightblue" d="M866.379,-29C875.462,-29 884.353,-29 891.715,-29"/>
<polygon fill="midnightblue" stroke="midnightblue" points="866.116,-25.5001 856.116,-29 866.116,-32.5001 866.116,-25.5001"/>
</g>
<!-- Node24 -->
<g id="node24" class="node"><title>Node24</title>
<g id="a_node24"><a xlink:href="../../d8/df9/test__runner_8c.html#a91aeafa598c15ed7c3b23ac4d7e1506b" target="_top" xlink:title="run_case">
<polygon fill="none" stroke="black" points="521,-0.5 521,-19.5 577,-19.5 577,-0.5 521,-0.5"/>
<text text-anchor="middle" x="549" y="-7.5" font-family="Helvetica,sans-Serif" font-size="10.00">run_case</text>
</a>
</g>
</g>
<!-- Node23&#45;&gt;Node24 -->
<g id="edge25" class="edge"><title>Node23&#45;&gt;Node24</title>
<path fill="none" stroke="midnightblue" d="M467.399,-10C484.588,-10 504.915,-10 520.856,-10"/>
<polygon fill="midnightblue" stroke="midnightblue" points="467.17,-6.5001 457.17,-10 467.17,-13.5001 467.17,-6.5001"/>
</g>
<!-- Node25 -->
<g id="node25" class="node"><title>Node25</title>
<g id="a_node25"><a xlink:href="../../d8/df9/test__runner_8c.html#a5440bde1f37dd6de5b8ee9646002e3eb" target="_top" xlink:title="run_suite">
<polygon fill="none" stroke="black" points="656,-0.5 656,-19.5 712,-19.5 712,-0.5 656,-0.5"/>
<text text-anchor="middle" x="684" y="-7.5" font-family="Helvetica,sans-Serif" font-size="10.00">run_suite</text>
</a>
</g>
</g>
<!-- Node24&#45;&gt;Node25 -->
<g id="edge26" class="edge"><title>Node24&#45;&gt;Node25</title>
<path fill="none" stroke="midnightblue" d="M587.441,-10C609.184,-10 636.086,-10 655.801,-10"/>
<polygon fill="midnightblue" stroke="midnightblue" points="587.236,-6.5001 577.235,-10 587.235,-13.5001 587.236,-6.5001"/>
</g>
<!-- Node25&#45;&gt;Node21 -->
<g id="edge27" class="edge"><title>Node25&#45;&gt;Node21</title>
<path fill="none" stroke="midnightblue" d="M722.406,-15.5525C737.893,-17.8513 755.907,-20.5252 771.773,-22.8804"/>
<polygon fill="midnightblue" stroke="midnightblue" points="722.551,-12.0357 712.146,-14.0294 721.523,-18.9598 722.551,-12.0357"/>
</g>
</g>
</svg>
