<?xml version="1.0" encoding="UTF-8" standalone="no"?>
<!DOCTYPE svg PUBLIC "-//W3C//DTD SVG 1.1//EN"
 "http://www.w3.org/Graphics/SVG/1.1/DTD/svg11.dtd">
<!-- Generated by graphviz version 2.36.0 (20140111.2315)
 -->
<!-- Title: ha_ctl_create Pages: 1 -->
<!--zoomable 249 -->
<svg id="main" version="1.1" xmlns="http://www.w3.org/2000/svg" xmlns:xlink="http://www.w3.org/1999/xlink" xml:space="preserve" onload="init(evt)">
<style type="text/css"><![CDATA[
.edge:hover path { stroke: red; }
.edge:hover polygon { stroke: red; fill: red; }
]]></style>
<script type="text/javascript"><![CDATA[
var edges = document.getElementsByTagName('g');
if (edges && edges.length) {
  for (var i=0;i<edges.length;i++) {
    if (edges[i].id.substr(0,4)=='edge') {
      edges[i].setAttribute('class','edge');
    }
  }
}
]]></script>
        <defs>
                <circle id="rim" cx="0" cy="0" r="7"/>
                <circle id="rim2" cx="0" cy="0" r="3.5"/>
                <g id="zoomPlus">
                        <use xlink:href="#rim" fill="#404040">
                                <set attributeName="fill" to="#808080" begin="zoomplus.mouseover" end="zoomplus.mouseout"/>
                        </use>
                        <path d="M-4,0h8M0,-4v8" fill="none" stroke="white" stroke-width="1.5" pointer-events="none"/>
                </g>
                <g id="zoomMin">
                        <use xlink:href="#rim" fill="#404040">
                                <set attributeName="fill" to="#808080" begin="zoomminus.mouseover" end="zoomminus.mouseout"/>
                        </use>
                        <path d="M-4,0h8" fill="none" stroke="white" stroke-width="1.5" pointer-events="none"/>
                </g>
                <g id="dirArrow">
                        <path fill="none" stroke="white" stroke-width="1.5" d="M0,-3.0v7 M-2.5,-0.5L0,-3.0L2.5,-0.5"/>
                </g>
               <g id="resetDef">
                       <use xlink:href="#rim2" fill="#404040">
                               <set attributeName="fill" to="#808080" begin="reset.mouseover" end="reset.mouseout"/>
                       </use>
               </g>
        </defs>

<script type="text/javascript">
var viewWidth = 526;
var viewHeight = 249;
var sectionId = 'dynsection-1';
</script>
<script xlink:href="../../svgpan.js"/>
<svg id="graph" class="graph">
<g id="viewport">
<title>ha_ctl_create</title>
<!-- Node1 -->
<g id="node1" class="node"><title>Node1</title>
<polygon fill="#bfbfbf" stroke="black" points="0.5,-107.5 0.5,-126.5 75.5,-126.5 75.5,-107.5 0.5,-107.5"/>
<text text-anchor="middle" x="38" y="-114.5" font-family="Helvetica,sans-Serif" font-size="10.00">ha_ctl_create</text>
</g>
<!-- Node2 -->
<g id="node2" class="node"><title>Node2</title>
<g id="a_node2"><a xlink:href="../../d2/d43/cert__cache_8c.html#adaf6833e5a54ee5de2a99117efda19e9" target="_top" xlink:title="cache">
<polygon fill="none" stroke="black" points="282.5,-202.5 282.5,-221.5 325.5,-221.5 325.5,-202.5 282.5,-202.5"/>
<text text-anchor="middle" x="304" y="-209.5" font-family="Helvetica,sans-Serif" font-size="10.00">cache</text>
</a>
</g>
</g>
<!-- Node1&#45;&gt;Node2 -->
<g id="edge1" class="edge"><title>Node1&#45;&gt;Node2</title>
<path fill="none" stroke="midnightblue" d="M45.5575,-126.571C56.9874,-142.392 82.2058,-173.672 112,-188 164.144,-213.076 233.114,-215.212 272.304,-213.967"/>
<polygon fill="midnightblue" stroke="midnightblue" points="272.45,-217.464 282.297,-213.554 272.161,-210.47 272.45,-217.464"/>
</g>
<!-- Node5 -->
<g id="node5" class="node"><title>Node5</title>
<g id="a_node5"><a xlink:href="../../d0/d8f/group__callback__job.html#gadfa6801d50c2e34bb3f9e1c98efe02d0" target="_top" xlink:title="callback_job_create\l_with_prio">
<polygon fill="none" stroke="black" points="112.5,-39 112.5,-69 215.5,-69 215.5,-39 112.5,-39"/>
<text text-anchor="start" x="120.5" y="-57" font-family="Helvetica,sans-Serif" font-size="10.00">callback_job_create</text>
<text text-anchor="middle" x="164" y="-46" font-family="Helvetica,sans-Serif" font-size="10.00">_with_prio</text>
</a>
</g>
</g>
<!-- Node1&#45;&gt;Node5 -->
<g id="edge4" class="edge"><title>Node1&#45;&gt;Node5</title>
<path fill="none" stroke="midnightblue" d="M57.8329,-107.432C75.3805,-98.5164 102.086,-84.948 124.195,-73.7156"/>
<polygon fill="midnightblue" stroke="midnightblue" points="126.018,-76.715 133.348,-69.065 122.847,-70.4743 126.018,-76.715"/>
</g>
<!-- Node8 -->
<g id="node8" class="node"><title>Node8</title>
<g id="a_node8"><a xlink:href="../../d0/d6d/ha__ctl_8c.html#a0d0aebf54a9bb7462a37e22aa026b642" target="_top" xlink:title="change_fifo_permissions">
<polygon fill="none" stroke="black" points="392.5,-126.5 392.5,-145.5 517.5,-145.5 517.5,-126.5 392.5,-126.5"/>
<text text-anchor="middle" x="455" y="-133.5" font-family="Helvetica,sans-Serif" font-size="10.00">change_fifo_permissions</text>
</a>
</g>
</g>
<!-- Node1&#45;&gt;Node8 -->
<g id="edge7" class="edge"><title>Node1&#45;&gt;Node8</title>
<path fill="none" stroke="midnightblue" d="M52.4664,-126.556C66.5431,-135.912 89.6557,-149.533 112,-155 213.78,-179.905 337.474,-161.524 404.697,-147.646"/>
<polygon fill="midnightblue" stroke="midnightblue" points="405.534,-151.047 414.592,-145.551 404.084,-144.198 405.534,-151.047"/>
</g>
<!-- Node9 -->
<g id="node9" class="node"><title>Node9</title>
<g id="a_node9"><a xlink:href="../../d0/d6d/ha__ctl_8c.html#a870b20cb3c30925ddc036ca63956fadf" target="_top" xlink:title="dispatch_fifo">
<polygon fill="none" stroke="black" points="128,-126.5 128,-145.5 200,-145.5 200,-126.5 128,-126.5"/>
<text text-anchor="middle" x="164" y="-133.5" font-family="Helvetica,sans-Serif" font-size="10.00">dispatch_fifo</text>
</a>
</g>
</g>
<!-- Node1&#45;&gt;Node9 -->
<g id="edge8" class="edge"><title>Node1&#45;&gt;Node9</title>
<path fill="none" stroke="midnightblue" d="M75.5334,-122.598C88.6269,-124.604 103.554,-126.891 117.325,-129.001"/>
<polygon fill="midnightblue" stroke="midnightblue" points="117.166,-132.518 127.581,-130.573 118.226,-125.599 117.166,-132.518"/>
</g>
<!-- Node10 -->
<g id="node10" class="node"><title>Node10</title>
<g id="a_node10"><a xlink:href="../../d0/d6d/ha__ctl_8c.html#aaa6700333fab82f63404a3a4f00e2d7d" target="_top" xlink:title="recreate_fifo">
<polygon fill="none" stroke="black" points="268.5,-88.5 268.5,-107.5 339.5,-107.5 339.5,-88.5 268.5,-88.5"/>
<text text-anchor="middle" x="304" y="-95.5" font-family="Helvetica,sans-Serif" font-size="10.00">recreate_fifo</text>
</a>
</g>
</g>
<!-- Node1&#45;&gt;Node10 -->
<g id="edge13" class="edge"><title>Node1&#45;&gt;Node10</title>
<path fill="none" stroke="midnightblue" d="M75.7081,-114.358C123.425,-110.924 206.716,-104.929 258.132,-101.229"/>
<polygon fill="midnightblue" stroke="midnightblue" points="258.56,-104.707 268.283,-100.499 258.058,-97.7255 258.56,-104.707"/>
</g>
<!-- Node12 -->
<g id="node12" class="node"><title>Node12</title>
<g id="a_node12"><a xlink:href="../../d6/d87/group__utils__i.html#ga9336a4d5728eb7ed977aacaeb8fd2c41" target="_top" xlink:title="return_false">
<polygon fill="none" stroke="black" points="130,-0.5 130,-19.5 198,-19.5 198,-0.5 130,-0.5"/>
<text text-anchor="middle" x="164" y="-7.5" font-family="Helvetica,sans-Serif" font-size="10.00">return_false</text>
</a>
</g>
</g>
<!-- Node1&#45;&gt;Node12 -->
<g id="edge14" class="edge"><title>Node1&#45;&gt;Node12</title>
<path fill="none" stroke="midnightblue" d="M44.5797,-107.387C55.4,-89.5329 80.925,-51.0658 112,-29 114.696,-27.0853 117.609,-25.3391 120.628,-23.751"/>
<polygon fill="midnightblue" stroke="midnightblue" points="122.297,-26.8349 129.895,-19.4507 119.35,-20.4852 122.297,-26.8349"/>
</g>
<!-- Node3 -->
<g id="node3" class="node"><title>Node3</title>
<g id="a_node3"><a xlink:href="../../d8/d11/cowfs_8c.html#ab23d75daf8d24eb797a720b189f0c319" target="_top" xlink:title="rel">
<polygon fill="none" stroke="black" points="440.5,-183.5 440.5,-202.5 469.5,-202.5 469.5,-183.5 440.5,-183.5"/>
<text text-anchor="middle" x="455" y="-190.5" font-family="Helvetica,sans-Serif" font-size="10.00">rel</text>
</a>
</g>
</g>
<!-- Node2&#45;&gt;Node3 -->
<g id="edge2" class="edge"><title>Node2&#45;&gt;Node3</title>
<path fill="none" stroke="midnightblue" d="M325.718,-209.358C353.087,-205.868 401.192,-199.734 430.078,-196.05"/>
<polygon fill="midnightblue" stroke="midnightblue" points="430.648,-199.506 440.125,-194.769 429.762,-192.562 430.648,-199.506"/>
</g>
<!-- Node4 -->
<g id="node4" class="node"><title>Node4</title>
<g id="a_node4"><a xlink:href="../../da/d9b/group__windows.html#gaa1124f0d208ff28b7d9cf563ff183e8d" target="_top" xlink:title="sched_yield">
<polygon fill="none" stroke="black" points="421,-221.5 421,-240.5 489,-240.5 489,-221.5 421,-221.5"/>
<text text-anchor="middle" x="455" y="-228.5" font-family="Helvetica,sans-Serif" font-size="10.00">sched_yield</text>
</a>
</g>
</g>
<!-- Node2&#45;&gt;Node4 -->
<g id="edge3" class="edge"><title>Node2&#45;&gt;Node4</title>
<path fill="none" stroke="midnightblue" d="M325.718,-214.642C347.653,-217.439 382.906,-221.934 410.911,-225.505"/>
<polygon fill="midnightblue" stroke="midnightblue" points="410.5,-228.981 420.863,-226.774 411.386,-222.038 410.5,-228.981"/>
</g>
<!-- Node6 -->
<g id="node6" class="node"><title>Node6</title>
<g id="a_node6"><a xlink:href="../../d1/d14/fetch_8c.html#a17dd1592e9f4ebc44d5126c03a3a9697" target="_top" xlink:title="cb">
<polygon fill="none" stroke="black" points="289.5,-47.5 289.5,-66.5 318.5,-66.5 318.5,-47.5 289.5,-47.5"/>
<text text-anchor="middle" x="304" y="-54.5" font-family="Helvetica,sans-Serif" font-size="10.00">cb</text>
</a>
</g>
</g>
<!-- Node5&#45;&gt;Node6 -->
<g id="edge5" class="edge"><title>Node5&#45;&gt;Node6</title>
<path fill="none" stroke="midnightblue" d="M215.603,-55.1001C237.31,-55.5719 261.637,-56.1008 279.103,-56.4805"/>
<polygon fill="midnightblue" stroke="midnightblue" points="279.419,-59.9881 289.493,-56.7064 279.572,-52.9898 279.419,-59.9881"/>
</g>
<!-- Node7 -->
<g id="node7" class="node"><title>Node7</title>
<g id="a_node7"><a xlink:href="../../d2/dca/nm__backend_8c.html#a22ea158445c16ed72f5ab270e1dc691b" target="_top" xlink:title="cancel">
<polygon fill="none" stroke="black" points="281.5,-9.5 281.5,-28.5 326.5,-28.5 326.5,-9.5 281.5,-9.5"/>
<text text-anchor="middle" x="304" y="-16.5" font-family="Helvetica,sans-Serif" font-size="10.00">cancel</text>
</a>
</g>
</g>
<!-- Node5&#45;&gt;Node7 -->
<g id="edge6" class="edge"><title>Node5&#45;&gt;Node7</title>
<path fill="none" stroke="midnightblue" d="M215.603,-41.166C234.331,-36.416 255.011,-31.1712 271.55,-26.9763"/>
<polygon fill="midnightblue" stroke="midnightblue" points="272.427,-30.3649 281.26,-24.5139 270.706,-23.5798 272.427,-30.3649"/>
</g>
<!-- Node9&#45;&gt;Node2 -->
<g id="edge9" class="edge"><title>Node9&#45;&gt;Node2</title>
<path fill="none" stroke="midnightblue" d="M182.478,-145.625C206.223,-158.703 248.882,-182.196 276.556,-197.437"/>
<polygon fill="midnightblue" stroke="midnightblue" points="275.216,-200.694 285.664,-202.453 278.593,-194.563 275.216,-200.694"/>
</g>
<!-- Node9&#45;&gt;Node10 -->
<g id="edge10" class="edge"><title>Node9&#45;&gt;Node10</title>
<path fill="none" stroke="midnightblue" d="M199.823,-126.411C217.638,-121.506 239.518,-115.48 258.539,-110.243"/>
<polygon fill="midnightblue" stroke="midnightblue" points="259.476,-113.615 268.188,-107.586 257.618,-106.866 259.476,-113.615"/>
</g>
<!-- Node11 -->
<g id="node11" class="node"><title>Node11</title>
<g id="a_node11"><a xlink:href="../../da/dd8/group__thread.html#gac2bd836b3ee4e108d0aeff4e3e3ea88c" target="_top" xlink:title="thread_cancelability">
<polygon fill="none" stroke="black" points="252.5,-126.5 252.5,-145.5 355.5,-145.5 355.5,-126.5 252.5,-126.5"/>
<text text-anchor="middle" x="304" y="-133.5" font-family="Helvetica,sans-Serif" font-size="10.00">thread_cancelability</text>
</a>
</g>
</g>
<!-- Node9&#45;&gt;Node11 -->
<g id="edge12" class="edge"><title>Node9&#45;&gt;Node11</title>
<path fill="none" stroke="midnightblue" d="M200.18,-136C212.903,-136 227.665,-136 241.964,-136"/>
<polygon fill="midnightblue" stroke="midnightblue" points="242.258,-139.5 252.258,-136 242.258,-132.5 242.258,-139.5"/>
</g>
<!-- Node10&#45;&gt;Node8 -->
<g id="edge11" class="edge"><title>Node10&#45;&gt;Node8</title>
<path fill="none" stroke="midnightblue" d="M339.558,-106.813C359.538,-111.909 384.959,-118.392 406.765,-123.954"/>
<polygon fill="midnightblue" stroke="midnightblue" points="405.942,-127.356 416.497,-126.436 407.672,-120.573 405.942,-127.356"/>
</g>
</g>
</svg>
        <g id="navigator" transform="translate(0 0)" fill="#404254">
                <rect fill="#f2f5e9" fill-opacity="0.5" stroke="#606060" stroke-width=".5" x="0" y="0" width="60" height="60"/>
                <use id="zoomplus" xlink:href="#zoomPlus" x="17" y="9" onmousedown="handleZoom(evt,'in')"/>
                <use id="zoomminus" xlink:href="#zoomMin" x="42" y="9" onmousedown="handleZoom(evt,'out')"/>
                <use id="reset" xlink:href="#resetDef" x="30" y="36" onmousedown="handleReset()"/>
                <g id="arrowUp" xlink:href="#dirArrow" transform="translate(30 24)" onmousedown="handlePan(0,-1)">
                  <use xlink:href="#rim" fill="#404040">
                        <set attributeName="fill" to="#808080" begin="arrowUp.mouseover" end="arrowUp.mouseout"/>
                  </use>
                  <path fill="none" stroke="white" stroke-width="1.5" d="M0,-3.0v7 M-2.5,-0.5L0,-3.0L2.5,-0.5"/>
                </g>
                <g id="arrowRight" xlink:href="#dirArrow" transform="rotate(90) translate(36 -43)" onmousedown="handlePan(1,0)">
                  <use xlink:href="#rim" fill="#404040">
                        <set attributeName="fill" to="#808080" begin="arrowRight.mouseover" end="arrowRight.mouseout"/>
                  </use>
                  <path fill="none" stroke="white" stroke-width="1.5" d="M0,-3.0v7 M-2.5,-0.5L0,-3.0L2.5,-0.5"/>
                </g>
                <g id="arrowDown" xlink:href="#dirArrow" transform="rotate(180) translate(-30 -48)" onmousedown="handlePan(0,1)">
                  <use xlink:href="#rim" fill="#404040">
                        <set attributeName="fill" to="#808080" begin="arrowDown.mouseover" end="arrowDown.mouseout"/>
                  </use>
                  <path fill="none" stroke="white" stroke-width="1.5" d="M0,-3.0v7 M-2.5,-0.5L0,-3.0L2.5,-0.5"/>
                </g>
                <g id="arrowLeft" xlink:href="#dirArrow" transform="rotate(270) translate(-36 17)" onmousedown="handlePan(-1,0)">
                  <use xlink:href="#rim" fill="#404040">
                        <set attributeName="fill" to="#808080" begin="arrowLeft.mouseover" end="arrowLeft.mouseout"/>
                  </use>
                  <path fill="none" stroke="white" stroke-width="1.5" d="M0,-3.0v7 M-2.5,-0.5L0,-3.0L2.5,-0.5"/>
                </g>
        </g>
        <svg viewBox="0 0 15 15" width="100%" height="30px" preserveAspectRatio="xMaxYMin meet">
         <g id="arrow_out" transform="scale(0.3 0.3)">
          <a xlink:href="group__ha__ctl_gae9a2c72cd878207e3b2ab88974da1640_cgraph_org.svg" target="_base">
           <rect id="button" ry="5" rx="5" y="6" x="6" height="38" width="38"
                fill="#f2f5e9" fill-opacity="0.5" stroke="#606060" stroke-width="1.0"/>
           <path id="arrow"
             d="M 11.500037,31.436501 C 11.940474,20.09759 22.043105,11.32322 32.158766,21.979434 L 37.068811,17.246167 C 37.068811,17.246167 37.088388,32 37.088388,32 L 22.160133,31.978069 C 22.160133,31.978069 26.997745,27.140456 26.997745,27.140456 C 18.528582,18.264221 13.291696,25.230495 11.500037,31.436501 z"
             style="fill:#404040;"/>
          </a>
         </g>
        </svg>
</svg>
