<?xml version="1.0" encoding="UTF-8" standalone="no"?>
<!DOCTYPE svg PUBLIC "-//W3C//DTD SVG 1.1//EN"
 "http://www.w3.org/Graphics/SVG/1.1/DTD/svg11.dtd">
<!-- Generated by graphviz version 2.36.0 (20140111.2315)
 -->
<!-- Title: array_destroy_offset Pages: 1 -->
<svg width="342pt" height="66pt"
 viewBox="0.00 0.00 342.00 66.00" xmlns="http://www.w3.org/2000/svg" xmlns:xlink="http://www.w3.org/1999/xlink">
<g id="graph0" class="graph" transform="scale(1 1) rotate(0) translate(4 62)">
<title>array_destroy_offset</title>
<!-- Node1 -->
<g id="node1" class="node"><title>Node1</title>
<polygon fill="#bfbfbf" stroke="black" points="0,-19.5 0,-38.5 106,-38.5 106,-19.5 0,-19.5"/>
<text text-anchor="middle" x="53" y="-26.5" font-family="Helvetica,sans-Serif" font-size="10.00">array_destroy_offset</text>
</g>
<!-- Node2 -->
<g id="node2" class="node"><title>Node2</title>
<g id="a_node2"><a xlink:href="../../d1/d0e/group__array.html#ga3e37b3536492eca41bedb3d7957729cb" target="_top" xlink:title="array_destroy">
<polygon fill="none" stroke="black" points="155,-38.5 155,-57.5 231,-57.5 231,-38.5 155,-38.5"/>
<text text-anchor="middle" x="193" y="-45.5" font-family="Helvetica,sans-Serif" font-size="10.00">array_destroy</text>
</a>
</g>
</g>
<!-- Node1&#45;&gt;Node2 -->
<g id="edge1" class="edge"><title>Node1&#45;&gt;Node2</title>
<path fill="none" stroke="midnightblue" d="M106.172,-36.1831C118.813,-37.9236 132.258,-39.7746 144.662,-41.4825"/>
<polygon fill="midnightblue" stroke="midnightblue" points="144.413,-44.9811 154.797,-42.8779 145.368,-38.0466 144.413,-44.9811"/>
</g>
<!-- Node4 -->
<g id="node4" class="node"><title>Node4</title>
<g id="a_node4"><a xlink:href="../../d1/d0e/group__array.html#gacc4073b9b3e2a318d5eeb088590106e4" target="_top" xlink:title="array_invoke_offset">
<polygon fill="none" stroke="black" points="142,-0.5 142,-19.5 244,-19.5 244,-0.5 142,-0.5"/>
<text text-anchor="middle" x="193" y="-7.5" font-family="Helvetica,sans-Serif" font-size="10.00">array_invoke_offset</text>
</a>
</g>
</g>
<!-- Node1&#45;&gt;Node4 -->
<g id="edge3" class="edge"><title>Node1&#45;&gt;Node4</title>
<path fill="none" stroke="midnightblue" d="M106.172,-21.8169C114.42,-20.6813 123.01,-19.4987 131.429,-18.3394"/>
<polygon fill="midnightblue" stroke="midnightblue" points="132.152,-21.7731 141.581,-16.9418 131.197,-14.8385 132.152,-21.7731"/>
</g>
<!-- Node3 -->
<g id="node3" class="node"><title>Node3</title>
<g id="a_node3"><a xlink:href="../../da/dfc/settings__parser_8c.html#af07d89f5ceaea0c7c8252cc41fd75f37" target="_top" xlink:title="free">
<polygon fill="none" stroke="black" points="290.5,-38.5 290.5,-57.5 323.5,-57.5 323.5,-38.5 290.5,-38.5"/>
<text text-anchor="middle" x="307" y="-45.5" font-family="Helvetica,sans-Serif" font-size="10.00">free</text>
</a>
</g>
</g>
<!-- Node2&#45;&gt;Node3 -->
<g id="edge2" class="edge"><title>Node2&#45;&gt;Node3</title>
<path fill="none" stroke="midnightblue" d="M231.294,-48C247.318,-48 265.651,-48 280.145,-48"/>
<polygon fill="midnightblue" stroke="midnightblue" points="280.379,-51.5001 290.379,-48 280.379,-44.5001 280.379,-51.5001"/>
</g>
<!-- Node5 -->
<g id="node5" class="node"><title>Node5</title>
<g id="a_node5"><a xlink:href="../../dc/dcc/array_8c.html#a1814774789ffaf948b25734a7dd0f3ed" target="_top" xlink:title="get_size">
<polygon fill="none" stroke="black" points="280.5,-0.5 280.5,-19.5 333.5,-19.5 333.5,-0.5 280.5,-0.5"/>
<text text-anchor="middle" x="307" y="-7.5" font-family="Helvetica,sans-Serif" font-size="10.00">get_size</text>
</a>
</g>
</g>
<!-- Node4&#45;&gt;Node5 -->
<g id="edge4" class="edge"><title>Node4&#45;&gt;Node5</title>
<path fill="none" stroke="midnightblue" d="M244.103,-10C252.949,-10 261.993,-10 270.34,-10"/>
<polygon fill="midnightblue" stroke="midnightblue" points="270.472,-13.5001 280.472,-10 270.472,-6.5001 270.472,-13.5001"/>
</g>
</g>
</svg>
