<?xml version="1.0" encoding="UTF-8" standalone="no"?>
<!DOCTYPE svg PUBLIC "-//W3C//DTD SVG 1.1//EN"
 "http://www.w3.org/Graphics/SVG/1.1/DTD/svg11.dtd">
<!-- Generated by graphviz version 2.36.0 (20140111.2315)
 -->
<!-- Title: array_destroy_function Pages: 1 -->
<svg width="326pt" height="104pt"
 viewBox="0.00 0.00 326.00 104.00" xmlns="http://www.w3.org/2000/svg" xmlns:xlink="http://www.w3.org/1999/xlink">
<g id="graph0" class="graph" transform="scale(1 1) rotate(0) translate(4 100)">
<title>array_destroy_function</title>
<!-- Node1 -->
<g id="node1" class="node"><title>Node1</title>
<polygon fill="#bfbfbf" stroke="black" points="0,-57.5 0,-76.5 116,-76.5 116,-57.5 0,-57.5"/>
<text text-anchor="middle" x="58" y="-64.5" font-family="Helvetica,sans-Serif" font-size="10.00">array_destroy_function</text>
</g>
<!-- Node2 -->
<g id="node2" class="node"><title>Node2</title>
<g id="a_node2"><a xlink:href="../../d1/d0e/group__array.html#ga3e37b3536492eca41bedb3d7957729cb" target="_top" xlink:title="array_destroy">
<polygon fill="none" stroke="black" points="152,-76.5 152,-95.5 228,-95.5 228,-76.5 152,-76.5"/>
<text text-anchor="middle" x="190" y="-83.5" font-family="Helvetica,sans-Serif" font-size="10.00">array_destroy</text>
</a>
</g>
</g>
<!-- Node1&#45;&gt;Node2 -->
<g id="edge1" class="edge"><title>Node1&#45;&gt;Node2</title>
<path fill="none" stroke="midnightblue" d="M116.02,-75.3337C124.653,-76.5955 133.477,-77.8851 141.87,-79.1118"/>
<polygon fill="midnightblue" stroke="midnightblue" points="141.451,-82.5876 151.852,-80.5707 142.463,-75.6612 141.451,-82.5876"/>
</g>
<!-- Node4 -->
<g id="node4" class="node"><title>Node4</title>
<g id="a_node4"><a xlink:href="../../d1/d0e/group__array.html#gaf5ccae527baf76f04a001a10aa93ad47" target="_top" xlink:title="array_invoke">
<polygon fill="none" stroke="black" points="154,-38.5 154,-57.5 226,-57.5 226,-38.5 154,-38.5"/>
<text text-anchor="middle" x="190" y="-45.5" font-family="Helvetica,sans-Serif" font-size="10.00">array_invoke</text>
</a>
</g>
</g>
<!-- Node1&#45;&gt;Node4 -->
<g id="edge3" class="edge"><title>Node1&#45;&gt;Node4</title>
<path fill="none" stroke="midnightblue" d="M116.02,-58.6663C125.238,-57.319 134.674,-55.9399 143.571,-54.6397"/>
<polygon fill="midnightblue" stroke="midnightblue" points="144.332,-58.0656 153.721,-53.1562 143.32,-51.1392 144.332,-58.0656"/>
</g>
<!-- Node3 -->
<g id="node3" class="node"><title>Node3</title>
<g id="a_node3"><a xlink:href="../../da/dfc/settings__parser_8c.html#af07d89f5ceaea0c7c8252cc41fd75f37" target="_top" xlink:title="free">
<polygon fill="none" stroke="black" points="274.5,-76.5 274.5,-95.5 307.5,-95.5 307.5,-76.5 274.5,-76.5"/>
<text text-anchor="middle" x="291" y="-83.5" font-family="Helvetica,sans-Serif" font-size="10.00">free</text>
</a>
</g>
</g>
<!-- Node2&#45;&gt;Node3 -->
<g id="edge2" class="edge"><title>Node2&#45;&gt;Node3</title>
<path fill="none" stroke="midnightblue" d="M228.146,-86C240.161,-86 253.215,-86 264.22,-86"/>
<polygon fill="midnightblue" stroke="midnightblue" points="264.427,-89.5001 274.427,-86 264.427,-82.5001 264.427,-89.5001"/>
</g>
<!-- Node5 -->
<g id="node5" class="node"><title>Node5</title>
<g id="a_node5"><a xlink:href="../../dc/dcc/array_8c.html#a1814774789ffaf948b25734a7dd0f3ed" target="_top" xlink:title="get_size">
<polygon fill="none" stroke="black" points="264.5,-38.5 264.5,-57.5 317.5,-57.5 317.5,-38.5 264.5,-38.5"/>
<text text-anchor="middle" x="291" y="-45.5" font-family="Helvetica,sans-Serif" font-size="10.00">get_size</text>
</a>
</g>
</g>
<!-- Node4&#45;&gt;Node5 -->
<g id="edge4" class="edge"><title>Node4&#45;&gt;Node5</title>
<path fill="none" stroke="midnightblue" d="M226.182,-48C235.21,-48 244.933,-48 254.002,-48"/>
<polygon fill="midnightblue" stroke="midnightblue" points="254.266,-51.5001 264.265,-48 254.265,-44.5001 254.266,-51.5001"/>
</g>
<!-- Node6 -->
<g id="node6" class="node"><title>Node6</title>
<g id="a_node6"><a xlink:href="../../d1/d14/fetch_8c.html#a17dd1592e9f4ebc44d5126c03a3a9697" target="_top" xlink:title="cb">
<polygon fill="none" stroke="black" points="276.5,-0.5 276.5,-19.5 305.5,-19.5 305.5,-0.5 276.5,-0.5"/>
<text text-anchor="middle" x="291" y="-7.5" font-family="Helvetica,sans-Serif" font-size="10.00">cb</text>
</a>
</g>
</g>
<!-- Node4&#45;&gt;Node6 -->
<g id="edge5" class="edge"><title>Node4&#45;&gt;Node6</title>
<path fill="none" stroke="midnightblue" d="M215.982,-38.411C231.527,-32.4444 251.387,-24.8212 266.621,-18.9737"/>
<polygon fill="midnightblue" stroke="midnightblue" points="268.237,-22.1024 276.319,-15.2513 265.729,-15.5673 268.237,-22.1024"/>
</g>
</g>
</svg>
