<?xml version="1.0" encoding="UTF-8" standalone="no"?>
<!DOCTYPE svg PUBLIC "-//W3C//DTD SVG 1.1//EN"
 "http://www.w3.org/Graphics/SVG/1.1/DTD/svg11.dtd">
<!-- Generated by graphviz version 2.36.0 (20140111.2315)
 -->
<!-- Title: make_subnet Pages: 1 -->
<svg width="1432pt" height="275pt"
 viewBox="0.00 0.00 1432.00 275.00" xmlns="http://www.w3.org/2000/svg" xmlns:xlink="http://www.w3.org/1999/xlink">
<g id="graph0" class="graph" transform="scale(1 1) rotate(0) translate(4 271)">
<title>make_subnet</title>
<!-- Node1 -->
<g id="node1" class="node"><title>Node1</title>
<polygon fill="#bfbfbf" stroke="black" points="0.5,-85.5 0.5,-104.5 75.5,-104.5 75.5,-85.5 0.5,-85.5"/>
<text text-anchor="middle" x="38" y="-92.5" font-family="Helvetica,sans-Serif" font-size="10.00">make_subnet</text>
</g>
<!-- Node2 -->
<g id="node2" class="node"><title>Node2</title>
<g id="a_node2"><a xlink:href="../../d7/dff/group__traffic__selector.html#gac0fac1a12e3cf4220dd2787f4a766a52" target="_top" xlink:title="traffic_selector_create\l_from_cidr">
<polygon fill="none" stroke="black" points="112.5,-80 112.5,-110 225.5,-110 225.5,-80 112.5,-80"/>
<text text-anchor="start" x="120.5" y="-98" font-family="Helvetica,sans-Serif" font-size="10.00">traffic_selector_create</text>
<text text-anchor="middle" x="169" y="-87" font-family="Helvetica,sans-Serif" font-size="10.00">_from_cidr</text>
</a>
</g>
</g>
<!-- Node1&#45;&gt;Node2 -->
<g id="edge1" class="edge"><title>Node1&#45;&gt;Node2</title>
<path fill="none" stroke="midnightblue" d="M75.6212,-95C83.9557,-95 93.0593,-95 102.198,-95"/>
<polygon fill="midnightblue" stroke="midnightblue" points="102.491,-98.5001 112.491,-95 102.491,-91.5001 102.491,-98.5001"/>
</g>
<!-- Node3 -->
<g id="node3" class="node"><title>Node3</title>
<g id="a_node3"><a xlink:href="../../d7/df1/group__host.html#gae46a29c83ab33eb8cb3f65a52647e72c" target="_top" xlink:title="host_create_from_subnet">
<polygon fill="none" stroke="black" points="262.5,-120.5 262.5,-139.5 389.5,-139.5 389.5,-120.5 262.5,-120.5"/>
<text text-anchor="middle" x="326" y="-127.5" font-family="Helvetica,sans-Serif" font-size="10.00">host_create_from_subnet</text>
</a>
</g>
</g>
<!-- Node2&#45;&gt;Node3 -->
<g id="edge2" class="edge"><title>Node2&#45;&gt;Node3</title>
<path fill="none" stroke="midnightblue" d="M225.521,-107.537C240.766,-110.979 257.248,-114.701 272.328,-118.106"/>
<polygon fill="midnightblue" stroke="midnightblue" points="271.986,-121.617 282.511,-120.406 273.528,-114.789 271.986,-121.617"/>
</g>
<!-- Node18 -->
<g id="node18" class="node"><title>Node18</title>
<g id="a_node18"><a xlink:href="../../d7/dff/group__traffic__selector.html#gabbed5b326fa118c23b508ebb34b17543" target="_top" xlink:title="traffic_selector_create\l_from_subnet">
<polygon fill="none" stroke="black" points="269.5,-46 269.5,-76 382.5,-76 382.5,-46 269.5,-46"/>
<text text-anchor="start" x="277.5" y="-64" font-family="Helvetica,sans-Serif" font-size="10.00">traffic_selector_create</text>
<text text-anchor="middle" x="326" y="-53" font-family="Helvetica,sans-Serif" font-size="10.00">_from_subnet</text>
</a>
</g>
</g>
<!-- Node2&#45;&gt;Node18 -->
<g id="edge21" class="edge"><title>Node2&#45;&gt;Node18</title>
<path fill="none" stroke="midnightblue" d="M225.521,-82.8213C236.539,-80.4043 248.204,-77.8456 259.518,-75.3637"/>
<polygon fill="midnightblue" stroke="midnightblue" points="260.328,-78.7694 269.346,-73.208 258.828,-71.932 260.328,-78.7694"/>
</g>
<!-- Node4 -->
<g id="node4" class="node"><title>Node4</title>
<g id="a_node4"><a xlink:href="../../d7/df1/group__host.html#gad1ee7d1c0d17eee7f6e204e22ea2c206" target="_top" xlink:title="host_create_from_string">
<polygon fill="none" stroke="black" points="426,-133.5 426,-152.5 548,-152.5 548,-133.5 426,-133.5"/>
<text text-anchor="middle" x="487" y="-140.5" font-family="Helvetica,sans-Serif" font-size="10.00">host_create_from_string</text>
</a>
</g>
</g>
<!-- Node3&#45;&gt;Node4 -->
<g id="edge3" class="edge"><title>Node3&#45;&gt;Node4</title>
<path fill="none" stroke="midnightblue" d="M389.841,-135.138C398.388,-135.837 407.205,-136.558 415.871,-137.266"/>
<polygon fill="midnightblue" stroke="midnightblue" points="415.697,-140.764 425.949,-138.09 416.268,-133.787 415.697,-140.764"/>
</g>
<!-- Node5 -->
<g id="node5" class="node"><title>Node5</title>
<g id="a_node5"><a xlink:href="../../d7/df1/group__host.html#ga75f9b1e7905a80d69bc3cc7a7c3775a5" target="_top" xlink:title="host_create_from_string\l_and_family">
<polygon fill="none" stroke="black" points="584,-147 584,-177 706,-177 706,-147 584,-147"/>
<text text-anchor="start" x="592" y="-165" font-family="Helvetica,sans-Serif" font-size="10.00">host_create_from_string</text>
<text text-anchor="middle" x="645" y="-154" font-family="Helvetica,sans-Serif" font-size="10.00">_and_family</text>
</a>
</g>
</g>
<!-- Node4&#45;&gt;Node5 -->
<g id="edge4" class="edge"><title>Node4&#45;&gt;Node5</title>
<path fill="none" stroke="midnightblue" d="M548.314,-150.346C556.695,-151.367 565.363,-152.422 573.904,-153.463"/>
<polygon fill="midnightblue" stroke="midnightblue" points="573.497,-156.939 583.847,-154.674 574.343,-149.99 573.497,-156.939"/>
</g>
<!-- Node6 -->
<g id="node6" class="node"><title>Node6</title>
<g id="a_node6"><a xlink:href="../../d4/d40/group__string__i.html#ga65c3d08890165aaa4663c72d07f93bb7" target="_top" xlink:title="streq">
<polygon fill="none" stroke="black" points="778,-114.5 778,-133.5 816,-133.5 816,-114.5 778,-114.5"/>
<text text-anchor="middle" x="797" y="-121.5" font-family="Helvetica,sans-Serif" font-size="10.00">streq</text>
</a>
</g>
</g>
<!-- Node5&#45;&gt;Node6 -->
<g id="edge5" class="edge"><title>Node5&#45;&gt;Node6</title>
<path fill="none" stroke="midnightblue" d="M705.284,-146.981C726.714,-141.553 749.935,-135.67 767.519,-131.215"/>
<polygon fill="midnightblue" stroke="midnightblue" points="768.838,-134.492 777.673,-128.643 767.119,-127.706 768.838,-134.492"/>
</g>
<!-- Node7 -->
<g id="node7" class="node"><title>Node7</title>
<g id="a_node7"><a xlink:href="../../df/da9/host_8c.html#a2670c8aac87ed6960c4e45f42f843b73" target="_top" xlink:title="host_create_any_port">
<polygon fill="none" stroke="black" points="742,-228.5 742,-247.5 852,-247.5 852,-228.5 742,-228.5"/>
<text text-anchor="middle" x="797" y="-235.5" font-family="Helvetica,sans-Serif" font-size="10.00">host_create_any_port</text>
</a>
</g>
</g>
<!-- Node5&#45;&gt;Node7 -->
<g id="edge6" class="edge"><title>Node5&#45;&gt;Node7</title>
<path fill="none" stroke="midnightblue" d="M672.604,-177.137C691.712,-187.83 718.19,-202.283 742,-214 749.025,-217.457 756.66,-220.986 763.917,-224.236"/>
<polygon fill="midnightblue" stroke="midnightblue" points="762.925,-227.624 773.487,-228.463 765.753,-221.221 762.925,-227.624"/>
</g>
<!-- Node16 -->
<g id="node16" class="node"><title>Node16</title>
<g id="a_node16"><a xlink:href="../../da/d9b/group__windows.html#ga7fb1f8a8f40e09fa09e625d2a09dc04e" target="_top" xlink:title="inet_pton">
<polygon fill="none" stroke="black" points="769,-152.5 769,-171.5 825,-171.5 825,-152.5 769,-152.5"/>
<text text-anchor="middle" x="797" y="-159.5" font-family="Helvetica,sans-Serif" font-size="10.00">inet_pton</text>
</a>
</g>
</g>
<!-- Node5&#45;&gt;Node16 -->
<g id="edge16" class="edge"><title>Node5&#45;&gt;Node16</title>
<path fill="none" stroke="midnightblue" d="M706.146,-162C723.762,-162 742.516,-162 758.309,-162"/>
<polygon fill="midnightblue" stroke="midnightblue" points="758.719,-165.5 768.719,-162 758.719,-158.5 758.719,-165.5"/>
</g>
<!-- Node17 -->
<g id="node17" class="node"><title>Node17</title>
<g id="a_node17"><a xlink:href="../../d7/df1/group__host.html#ga3183b60055297ceaa19b4a5996496830" target="_top" xlink:title="host_create_from_sockaddr">
<polygon fill="none" stroke="black" points="888.5,-171.5 888.5,-190.5 1025.5,-190.5 1025.5,-171.5 888.5,-171.5"/>
<text text-anchor="middle" x="957" y="-178.5" font-family="Helvetica,sans-Serif" font-size="10.00">host_create_from_sockaddr</text>
</a>
</g>
</g>
<!-- Node5&#45;&gt;Node17 -->
<g id="edge17" class="edge"><title>Node5&#45;&gt;Node17</title>
<path fill="none" stroke="midnightblue" d="M706.161,-175.773C717.981,-177.949 730.333,-179.857 742,-181 786.995,-185.41 837.567,-185.627 878.248,-184.642"/>
<polygon fill="midnightblue" stroke="midnightblue" points="878.466,-188.137 888.368,-184.367 878.276,-181.14 878.466,-188.137"/>
</g>
<!-- Node8 -->
<g id="node8" class="node"><title>Node8</title>
<g id="a_node8"><a xlink:href="../../d7/df1/group__host.html#ga5f2c94740339664ce118776e13829cd0" target="_top" xlink:title="host_create_any">
<polygon fill="none" stroke="black" points="912.5,-209.5 912.5,-228.5 1001.5,-228.5 1001.5,-209.5 912.5,-209.5"/>
<text text-anchor="middle" x="957" y="-216.5" font-family="Helvetica,sans-Serif" font-size="10.00">host_create_any</text>
</a>
</g>
</g>
<!-- Node7&#45;&gt;Node8 -->
<g id="edge7" class="edge"><title>Node7&#45;&gt;Node8</title>
<path fill="none" stroke="midnightblue" d="M852.375,-231.461C868.484,-229.524 886.112,-227.404 902.186,-225.471"/>
<polygon fill="midnightblue" stroke="midnightblue" points="902.982,-228.901 912.493,-224.232 902.146,-221.951 902.982,-228.901"/>
</g>
<!-- Node15 -->
<g id="node15" class="node"><title>Node15</title>
<g id="a_node15"><a xlink:href="../../d9/dbc/kernel__pfkey__ipsec_8c.html#a5da61ec055ea1dffbb84ffe3caddb7dc" target="_top" xlink:title="set_port">
<polygon fill="none" stroke="black" points="931,-247.5 931,-266.5 983,-266.5 983,-247.5 931,-247.5"/>
<text text-anchor="middle" x="957" y="-254.5" font-family="Helvetica,sans-Serif" font-size="10.00">set_port</text>
</a>
</g>
</g>
<!-- Node7&#45;&gt;Node15 -->
<g id="edge15" class="edge"><title>Node7&#45;&gt;Node15</title>
<path fill="none" stroke="midnightblue" d="M852.375,-244.539C875.027,-247.263 900.681,-250.348 920.796,-252.767"/>
<polygon fill="midnightblue" stroke="midnightblue" points="920.419,-256.246 930.765,-253.965 921.255,-249.296 920.419,-256.246"/>
</g>
<!-- Node9 -->
<g id="node9" class="node"><title>Node9</title>
<g id="a_node9"><a xlink:href="../../df/da9/host_8c.html#ac3854e66d5a7563cae9608acbcad6eb5" target="_top" xlink:title="host_create_empty">
<polygon fill="none" stroke="black" points="1062,-171.5 1062,-190.5 1162,-190.5 1162,-171.5 1062,-171.5"/>
<text text-anchor="middle" x="1112" y="-178.5" font-family="Helvetica,sans-Serif" font-size="10.00">host_create_empty</text>
</a>
</g>
</g>
<!-- Node8&#45;&gt;Node9 -->
<g id="edge8" class="edge"><title>Node8&#45;&gt;Node9</title>
<path fill="none" stroke="midnightblue" d="M996.608,-209.411C1016.71,-204.419 1041.48,-198.268 1062.82,-192.967"/>
<polygon fill="midnightblue" stroke="midnightblue" points="1063.81,-196.327 1072.67,-190.52 1062.12,-189.534 1063.81,-196.327"/>
</g>
<!-- Node13 -->
<g id="node13" class="node"><title>Node13</title>
<g id="a_node13"><a xlink:href="../../df/da9/host_8c.html#a1fb6a6590d2576c32709b890623cad8c" target="_top" xlink:title="update_sa_len">
<polygon fill="none" stroke="black" points="1072,-209.5 1072,-228.5 1152,-228.5 1152,-209.5 1072,-209.5"/>
<text text-anchor="middle" x="1112" y="-216.5" font-family="Helvetica,sans-Serif" font-size="10.00">update_sa_len</text>
</a>
</g>
</g>
<!-- Node8&#45;&gt;Node13 -->
<g id="edge13" class="edge"><title>Node8&#45;&gt;Node13</title>
<path fill="none" stroke="midnightblue" d="M1001.84,-219C1020.56,-219 1042.48,-219 1061.75,-219"/>
<polygon fill="midnightblue" stroke="midnightblue" points="1061.85,-222.5 1071.85,-219 1061.85,-215.5 1061.85,-222.5"/>
</g>
<!-- Node14 -->
<g id="node14" class="node"><title>Node14</title>
<g id="a_node14"><a xlink:href="../../da/dfc/settings__parser_8c.html#af07d89f5ceaea0c7c8252cc41fd75f37" target="_top" xlink:title="free">
<polygon fill="none" stroke="black" points="1095.5,-133.5 1095.5,-152.5 1128.5,-152.5 1128.5,-133.5 1095.5,-133.5"/>
<text text-anchor="middle" x="1112" y="-140.5" font-family="Helvetica,sans-Serif" font-size="10.00">free</text>
</a>
</g>
</g>
<!-- Node8&#45;&gt;Node14 -->
<g id="edge14" class="edge"><title>Node8&#45;&gt;Node14</title>
<path fill="none" stroke="midnightblue" d="M1001.53,-210.612C1010,-207.955 1018.55,-204.493 1026,-200 1045.92,-187.99 1042.68,-174.966 1062,-162 1069.14,-157.209 1077.66,-153.371 1085.58,-150.433"/>
<polygon fill="midnightblue" stroke="midnightblue" points="1086.79,-153.717 1095.14,-147.19 1084.54,-147.088 1086.79,-153.717"/>
</g>
<!-- Node10 -->
<g id="node10" class="node"><title>Node10</title>
<g id="a_node10"><a xlink:href="../../df/da9/host_8c.html#a809d5cf7574c1f5e27758950d53653f4" target="_top" xlink:title="equals">
<polygon fill="none" stroke="black" points="1198.5,-152.5 1198.5,-171.5 1243.5,-171.5 1243.5,-152.5 1198.5,-152.5"/>
<text text-anchor="middle" x="1221" y="-159.5" font-family="Helvetica,sans-Serif" font-size="10.00">equals</text>
</a>
</g>
</g>
<!-- Node9&#45;&gt;Node10 -->
<g id="edge9" class="edge"><title>Node9&#45;&gt;Node10</title>
<path fill="none" stroke="midnightblue" d="M1162.12,-172.279C1171.08,-170.687 1180.2,-169.066 1188.48,-167.597"/>
<polygon fill="midnightblue" stroke="midnightblue" points="1189.2,-171.024 1198.44,-165.829 1187.98,-164.132 1189.2,-171.024"/>
</g>
<!-- Node11 -->
<g id="node11" class="node"><title>Node11</title>
<g id="a_node11"><a xlink:href="../../df/da9/host_8c.html#a0ea5fbf16ec81f3c5eaf6dc5da8d452a" target="_top" xlink:title="ip_equals">
<polygon fill="none" stroke="black" points="1280,-171.5 1280,-190.5 1338,-190.5 1338,-171.5 1280,-171.5"/>
<text text-anchor="middle" x="1309" y="-178.5" font-family="Helvetica,sans-Serif" font-size="10.00">ip_equals</text>
</a>
</g>
</g>
<!-- Node9&#45;&gt;Node11 -->
<g id="edge12" class="edge"><title>Node9&#45;&gt;Node11</title>
<path fill="none" stroke="midnightblue" d="M1162.21,-181C1195.51,-181 1238.88,-181 1269.63,-181"/>
<polygon fill="midnightblue" stroke="midnightblue" points="1269.94,-184.5 1279.94,-181 1269.94,-177.5 1269.94,-184.5"/>
</g>
<!-- Node10&#45;&gt;Node11 -->
<g id="edge10" class="edge"><title>Node10&#45;&gt;Node11</title>
<path fill="none" stroke="midnightblue" d="M1243.7,-166.795C1251.66,-168.552 1260.91,-170.596 1269.88,-172.578"/>
<polygon fill="midnightblue" stroke="midnightblue" points="1269.28,-176.029 1279.8,-174.769 1270.79,-169.194 1269.28,-176.029"/>
</g>
<!-- Node12 -->
<g id="node12" class="node"><title>Node12</title>
<g id="a_node12"><a xlink:href="../../dd/d74/group__memory__i.html#ga46d7935db00fd7092430dbf4f36c2850" target="_top" xlink:title="memeq">
<polygon fill="none" stroke="black" points="1374.5,-171.5 1374.5,-190.5 1423.5,-190.5 1423.5,-171.5 1374.5,-171.5"/>
<text text-anchor="middle" x="1399" y="-178.5" font-family="Helvetica,sans-Serif" font-size="10.00">memeq</text>
</a>
</g>
</g>
<!-- Node11&#45;&gt;Node12 -->
<g id="edge11" class="edge"><title>Node11&#45;&gt;Node12</title>
<path fill="none" stroke="midnightblue" d="M1338.33,-181C1346.62,-181 1355.76,-181 1364.34,-181"/>
<polygon fill="midnightblue" stroke="midnightblue" points="1364.44,-184.5 1374.44,-181 1364.44,-177.5 1364.44,-184.5"/>
</g>
<!-- Node17&#45;&gt;Node9 -->
<g id="edge18" class="edge"><title>Node17&#45;&gt;Node9</title>
<path fill="none" stroke="midnightblue" d="M1025.55,-181C1034.2,-181 1043.01,-181 1051.52,-181"/>
<polygon fill="midnightblue" stroke="midnightblue" points="1051.72,-184.5 1061.72,-181 1051.72,-177.5 1051.72,-184.5"/>
</g>
<!-- Node17&#45;&gt;Node13 -->
<g id="edge19" class="edge"><title>Node17&#45;&gt;Node13</title>
<path fill="none" stroke="midnightblue" d="M996.608,-190.589C1016.71,-195.581 1041.48,-201.732 1062.82,-207.033"/>
<polygon fill="midnightblue" stroke="midnightblue" points="1062.12,-210.466 1072.67,-209.48 1063.81,-203.673 1062.12,-210.466"/>
</g>
<!-- Node17&#45;&gt;Node14 -->
<g id="edge20" class="edge"><title>Node17&#45;&gt;Node14</title>
<path fill="none" stroke="midnightblue" d="M996.608,-171.411C1024.37,-164.516 1061.04,-155.409 1085.29,-149.386"/>
<polygon fill="midnightblue" stroke="midnightblue" points="1086.31,-152.74 1095.17,-146.932 1084.62,-145.946 1086.31,-152.74"/>
</g>
<!-- Node18&#45;&gt;Node14 -->
<g id="edge23" class="edge"><title>Node18&#45;&gt;Node14</title>
<path fill="none" stroke="midnightblue" d="M382.726,-68.0638C445.956,-75.4565 552.221,-86 644,-86 644,-86 644,-86 798,-86 906.257,-86 1032.22,-119.411 1085.32,-135.074"/>
<polygon fill="midnightblue" stroke="midnightblue" points="1084.64,-138.525 1095.22,-138.041 1086.65,-131.819 1084.64,-138.525"/>
</g>
<!-- Node19 -->
<g id="node19" class="node"><title>Node19</title>
<g id="a_node19"><a xlink:href="../../d3/d58/traffic__selector_8c.html#a33ffa864c84fe38606daac30bff2a0b0" target="_top" xlink:title="traffic_selector_create">
<polygon fill="none" stroke="black" points="430.5,-38.5 430.5,-57.5 543.5,-57.5 543.5,-38.5 430.5,-38.5"/>
<text text-anchor="middle" x="487" y="-45.5" font-family="Helvetica,sans-Serif" font-size="10.00">traffic_selector_create</text>
</a>
</g>
</g>
<!-- Node18&#45;&gt;Node19 -->
<g id="edge22" class="edge"><title>Node18&#45;&gt;Node19</title>
<path fill="none" stroke="midnightblue" d="M382.61,-56.4532C394.714,-55.4636 407.632,-54.4074 420.091,-53.3888"/>
<polygon fill="midnightblue" stroke="midnightblue" points="420.739,-56.8475 430.421,-52.5442 420.169,-49.8708 420.739,-56.8475"/>
</g>
<!-- Node20 -->
<g id="node20" class="node"><title>Node20</title>
<g id="a_node20"><a xlink:href="../../d3/d58/traffic__selector_8c.html#a66ba09aae4797862904231be831f2eb0" target="_top" xlink:title="calc_range">
<polygon fill="none" stroke="black" points="455,-0.5 455,-19.5 519,-19.5 519,-0.5 455,-0.5"/>
<text text-anchor="middle" x="487" y="-7.5" font-family="Helvetica,sans-Serif" font-size="10.00">calc_range</text>
</a>
</g>
</g>
<!-- Node18&#45;&gt;Node20 -->
<g id="edge24" class="edge"><title>Node18&#45;&gt;Node20</title>
<path fill="none" stroke="midnightblue" d="M373.318,-45.9657C389.926,-40.5912 408.796,-34.5043 426,-29 432.503,-26.9195 439.405,-24.7227 446.126,-22.5903"/>
<polygon fill="midnightblue" stroke="midnightblue" points="447.298,-25.8906 455.773,-19.5333 445.183,-19.2176 447.298,-25.8906"/>
</g>
</g>
</svg>
