<?xml version="1.0" encoding="UTF-8" standalone="no"?>
<!DOCTYPE svg PUBLIC "-//W3C//DTD SVG 1.1//EN"
 "http://www.w3.org/Graphics/SVG/1.1/DTD/svg11.dtd">
<!-- Generated by graphviz version 2.36.0 (20140111.2315)
 -->
<!-- Title: get_card Pages: 1 -->
<svg width="1312pt" height="857pt"
 viewBox="0.00 0.00 1312.00 857.00" xmlns="http://www.w3.org/2000/svg" xmlns:xlink="http://www.w3.org/1999/xlink">
<g id="graph0" class="graph" transform="scale(1 1) rotate(0) translate(4 853)">
<title>get_card</title>
<!-- Node1 -->
<g id="node1" class="node"><title>Node1</title>
<polygon fill="#bfbfbf" stroke="black" points="0,-725.5 0,-744.5 54,-744.5 54,-725.5 0,-725.5"/>
<text text-anchor="middle" x="27" y="-732.5" font-family="Helvetica,sans-Serif" font-size="10.00">get_card</text>
</g>
<!-- Node2 -->
<g id="node2" class="node"><title>Node2</title>
<g id="a_node2"><a xlink:href="../../d3/d9f/group__eap__simaka__pseudonym__card.html#ga8668151363347b619df4474c4db836a4" target="_top" xlink:title="eap_simaka_pseudonym\l_card_create">
<polygon fill="none" stroke="black" points="90.5,-720 90.5,-750 215.5,-750 215.5,-720 90.5,-720"/>
<text text-anchor="start" x="98.5" y="-738" font-family="Helvetica,sans-Serif" font-size="10.00">eap_simaka_pseudonym</text>
<text text-anchor="middle" x="153" y="-727" font-family="Helvetica,sans-Serif" font-size="10.00">_card_create</text>
</a>
</g>
</g>
<!-- Node1&#45;&gt;Node2 -->
<g id="edge1" class="edge"><title>Node1&#45;&gt;Node2</title>
<path fill="none" stroke="midnightblue" d="M54.2972,-735C62.0762,-735 70.9927,-735 80.2052,-735"/>
<polygon fill="midnightblue" stroke="midnightblue" points="80.2782,-738.5 90.2781,-735 80.2781,-731.5 80.2782,-738.5"/>
</g>
<!-- Node3 -->
<g id="node3" class="node"><title>Node3</title>
<g id="a_node3"><a xlink:href="../../d6/d87/group__utils__i.html#ga9336a4d5728eb7ed977aacaeb8fd2c41" target="_top" xlink:title="return_false">
<polygon fill="none" stroke="black" points="264,-820.5 264,-839.5 332,-839.5 332,-820.5 264,-820.5"/>
<text text-anchor="middle" x="298" y="-827.5" font-family="Helvetica,sans-Serif" font-size="10.00">return_false</text>
</a>
</g>
</g>
<!-- Node2&#45;&gt;Node3 -->
<g id="edge2" class="edge"><title>Node2&#45;&gt;Node3</title>
<path fill="none" stroke="midnightblue" d="M170.724,-750.179C189.492,-766.669 221.341,-793.054 252,-811 255.188,-812.866 258.594,-814.647 262.052,-816.319"/>
<polygon fill="midnightblue" stroke="midnightblue" points="260.657,-819.529 271.211,-820.468 263.546,-813.153 260.657,-819.529"/>
</g>
<!-- Node4 -->
<g id="node4" class="node"><title>Node4</title>
<g id="a_node4"><a xlink:href="../../d6/d87/group__utils__i.html#ga7c51b3b4a8c5d7999d5477cf2ffad5ea" target="_top" xlink:title="return_null">
<polygon fill="none" stroke="black" points="267,-782.5 267,-801.5 329,-801.5 329,-782.5 267,-782.5"/>
<text text-anchor="middle" x="298" y="-789.5" font-family="Helvetica,sans-Serif" font-size="10.00">return_null</text>
</a>
</g>
</g>
<!-- Node2&#45;&gt;Node4 -->
<g id="edge3" class="edge"><title>Node2&#45;&gt;Node4</title>
<path fill="none" stroke="midnightblue" d="M191.946,-750.125C214.19,-758.992 242.037,-770.091 263.471,-778.635"/>
<polygon fill="midnightblue" stroke="midnightblue" points="262.239,-781.912 272.824,-782.363 264.831,-775.409 262.239,-781.912"/>
</g>
<!-- Node5 -->
<g id="node5" class="node"><title>Node5</title>
<g id="a_node5"><a xlink:href="../../d6/d87/group__utils__i.html#ga9feb7476507383309c8e3ff2648016f3" target="_top" xlink:title="nop">
<polygon fill="none" stroke="black" points="282,-744.5 282,-763.5 314,-763.5 314,-744.5 282,-744.5"/>
<text text-anchor="middle" x="298" y="-751.5" font-family="Helvetica,sans-Serif" font-size="10.00">nop</text>
</a>
</g>
</g>
<!-- Node2&#45;&gt;Node5 -->
<g id="edge4" class="edge"><title>Node2&#45;&gt;Node5</title>
<path fill="none" stroke="midnightblue" d="M215.89,-743.223C235.449,-745.822 255.984,-748.55 271.499,-750.612"/>
<polygon fill="midnightblue" stroke="midnightblue" points="271.448,-754.136 281.822,-751.983 272.371,-747.197 271.448,-754.136"/>
</g>
<!-- Node6 -->
<g id="node6" class="node"><title>Node6</title>
<g id="a_node6"><a xlink:href="../../db/dcc/group__hashtable.html#gae6df65038e6d4d725832e59eff4c1d90" target="_top" xlink:title="hashtable_create">
<polygon fill="none" stroke="black" points="252.5,-706.5 252.5,-725.5 343.5,-725.5 343.5,-706.5 252.5,-706.5"/>
<text text-anchor="middle" x="298" y="-713.5" font-family="Helvetica,sans-Serif" font-size="10.00">hashtable_create</text>
</a>
</g>
</g>
<!-- Node2&#45;&gt;Node6 -->
<g id="edge5" class="edge"><title>Node2&#45;&gt;Node6</title>
<path fill="none" stroke="midnightblue" d="M215.89,-726.777C224.679,-725.609 233.666,-724.415 242.305,-723.267"/>
<polygon fill="midnightblue" stroke="midnightblue" points="242.803,-726.732 252.255,-721.945 241.881,-719.793 242.803,-726.732"/>
</g>
<!-- Node42 -->
<g id="node42" class="node"><title>Node42</title>
<g id="a_node42"><a xlink:href="../../df/d06/eap__simaka__pseudonym__card_8c.html#a99a38f3a16e20e14e7cf9035d98ffbf7" target="_top" xlink:title="hash">
<polygon fill="none" stroke="black" points="279,-668.5 279,-687.5 317,-687.5 317,-668.5 279,-668.5"/>
<text text-anchor="middle" x="298" y="-675.5" font-family="Helvetica,sans-Serif" font-size="10.00">hash</text>
</a>
</g>
</g>
<!-- Node2&#45;&gt;Node42 -->
<g id="edge54" class="edge"><title>Node2&#45;&gt;Node42</title>
<path fill="none" stroke="midnightblue" d="M191.946,-719.875C216.342,-710.15 247.479,-697.739 269.502,-688.961"/>
<polygon fill="midnightblue" stroke="midnightblue" points="270.93,-692.16 278.923,-685.206 268.338,-685.657 270.93,-692.16"/>
</g>
<!-- Node50 -->
<g id="node50" class="node"><title>Node50</title>
<g id="a_node50"><a xlink:href="../../df/d06/eap__simaka__pseudonym__card_8c.html#ab6e05c591d491e579e6f03f6919f62c1" target="_top" xlink:title="equals">
<polygon fill="none" stroke="black" points="275.5,-630.5 275.5,-649.5 320.5,-649.5 320.5,-630.5 275.5,-630.5"/>
<text text-anchor="middle" x="298" y="-637.5" font-family="Helvetica,sans-Serif" font-size="10.00">equals</text>
</a>
</g>
</g>
<!-- Node2&#45;&gt;Node50 -->
<g id="edge63" class="edge"><title>Node2&#45;&gt;Node50</title>
<path fill="none" stroke="midnightblue" d="M170.724,-719.821C189.492,-703.331 221.341,-676.946 252,-659 256.345,-656.456 261.096,-654.071 265.83,-651.906"/>
<polygon fill="midnightblue" stroke="midnightblue" points="267.585,-654.962 275.388,-647.795 264.819,-648.531 267.585,-654.962"/>
</g>
<!-- Node7 -->
<g id="node7" class="node"><title>Node7</title>
<g id="a_node7"><a xlink:href="../../d3/d7e/crypto__factory_8c.html#a232a78e6f892cf38a9a97e311c44ed89" target="_top" xlink:title="create_enumerator">
<polygon fill="none" stroke="black" points="380,-706.5 380,-725.5 478,-725.5 478,-706.5 380,-706.5"/>
<text text-anchor="middle" x="429" y="-713.5" font-family="Helvetica,sans-Serif" font-size="10.00">create_enumerator</text>
</a>
</g>
</g>
<!-- Node6&#45;&gt;Node7 -->
<g id="edge6" class="edge"><title>Node6&#45;&gt;Node7</title>
<path fill="none" stroke="midnightblue" d="M343.756,-716C352.124,-716 360.984,-716 369.691,-716"/>
<polygon fill="midnightblue" stroke="midnightblue" points="369.805,-719.5 379.805,-716 369.805,-712.5 369.805,-719.5"/>
</g>
<!-- Node18 -->
<g id="node18" class="node"><title>Node18</title>
<g id="a_node18"><a xlink:href="../../dc/d21/daemon_8c.html#a1e824dfeaa337e709772cb0c8e6c8dcc" target="_top" xlink:title="destroy">
<polygon fill="none" stroke="black" points="404.5,-554.5 404.5,-573.5 453.5,-573.5 453.5,-554.5 404.5,-554.5"/>
<text text-anchor="middle" x="429" y="-561.5" font-family="Helvetica,sans-Serif" font-size="10.00">destroy</text>
</a>
</g>
</g>
<!-- Node6&#45;&gt;Node18 -->
<g id="edge19" class="edge"><title>Node6&#45;&gt;Node18</title>
<path fill="none" stroke="midnightblue" d="M329.047,-706.345C334.366,-703.82 339.602,-700.73 344,-697 381.673,-665.043 408.046,-611.842 420.279,-583.376"/>
<polygon fill="midnightblue" stroke="midnightblue" points="423.664,-584.35 424.269,-573.772 417.2,-581.664 423.664,-584.35"/>
</g>
<!-- Node39 -->
<g id="node39" class="node"><title>Node39</title>
<g id="a_node39"><a xlink:href="../../d5/dea/openssl__plugin_8c.html#aa87fbc0aaf3d4f1344dae1a9b326d120" target="_top" xlink:title="destroy_function">
<polygon fill="none" stroke="black" points="1135.5,-772.5 1135.5,-791.5 1224.5,-791.5 1224.5,-772.5 1135.5,-772.5"/>
<text text-anchor="middle" x="1180" y="-779.5" font-family="Helvetica,sans-Serif" font-size="10.00">destroy_function</text>
</a>
</g>
</g>
<!-- Node6&#45;&gt;Node39 -->
<g id="edge50" class="edge"><title>Node6&#45;&gt;Node39</title>
<path fill="none" stroke="midnightblue" d="M329.047,-725.655C334.366,-728.18 339.602,-731.27 344,-735 366.849,-754.383 356.086,-773.947 380,-792 451.725,-846.145 484.133,-849 574,-849 574,-849 574,-849 883,-849 979.723,-849 1089.94,-814.548 1144.56,-795.054"/>
<polygon fill="midnightblue" stroke="midnightblue" points="1145.88,-798.296 1154.09,-791.599 1143.5,-791.715 1145.88,-798.296"/>
</g>
<!-- Node40 -->
<g id="node40" class="node"><title>Node40</title>
<g id="a_node40"><a xlink:href="../../d8/de9/hashtable_8c.html#a053c183893f9804d2487335c70840dba" target="_top" xlink:title="init_hashtable">
<polygon fill="none" stroke="black" points="390.5,-763.5 390.5,-782.5 467.5,-782.5 467.5,-763.5 390.5,-763.5"/>
<text text-anchor="middle" x="429" y="-770.5" font-family="Helvetica,sans-Serif" font-size="10.00">init_hashtable</text>
</a>
</g>
</g>
<!-- Node6&#45;&gt;Node40 -->
<g id="edge52" class="edge"><title>Node6&#45;&gt;Node40</title>
<path fill="none" stroke="midnightblue" d="M321.941,-725.554C329.029,-728.542 336.851,-731.875 344,-735 361.975,-742.859 381.992,-751.903 397.976,-759.196"/>
<polygon fill="midnightblue" stroke="midnightblue" points="396.803,-762.508 407.353,-763.484 399.714,-756.142 396.803,-762.508"/>
</g>
<!-- Node8 -->
<g id="node8" class="node"><title>Node8</title>
<g id="a_node8"><a xlink:href="../../d3/de6/group__enumerator.html#ga7e32271ea79eb88b576ca6eb1c582751" target="_top" xlink:title="enumerator_create_filter">
<polygon fill="none" stroke="black" points="514,-687.5 514,-706.5 636,-706.5 636,-687.5 514,-687.5"/>
<text text-anchor="middle" x="575" y="-694.5" font-family="Helvetica,sans-Serif" font-size="10.00">enumerator_create_filter</text>
</a>
</g>
</g>
<!-- Node7&#45;&gt;Node8 -->
<g id="edge7" class="edge"><title>Node7&#45;&gt;Node8</title>
<path fill="none" stroke="midnightblue" d="M478.351,-709.62C486.513,-708.543 495.133,-707.406 503.719,-706.273"/>
<polygon fill="midnightblue" stroke="midnightblue" points="504.299,-709.727 513.755,-704.949 503.383,-702.787 504.299,-709.727"/>
</g>
<!-- Node10 -->
<g id="node10" class="node"><title>Node10</title>
<g id="a_node10"><a xlink:href="../../dd/df8/x509__crl_8c.html#a39e3ce1a2351f3e2d5414c75a694290c" target="_top" xlink:title="filter">
<polygon fill="none" stroke="black" points="864.5,-649.5 864.5,-668.5 899.5,-668.5 899.5,-649.5 864.5,-649.5"/>
<text text-anchor="middle" x="882" y="-656.5" font-family="Helvetica,sans-Serif" font-size="10.00">filter</text>
</a>
</g>
</g>
<!-- Node7&#45;&gt;Node10 -->
<g id="edge13" class="edge"><title>Node7&#45;&gt;Node10</title>
<path fill="none" stroke="midnightblue" d="M446.768,-706.447C463.305,-697.506 489.579,-684.572 514,-678 637.503,-644.765 792.624,-651.929 854.115,-656.602"/>
<polygon fill="midnightblue" stroke="midnightblue" points="853.904,-660.096 864.152,-657.408 854.464,-653.119 853.904,-660.096"/>
</g>
<!-- Node13 -->
<g id="node13" class="node"><title>Node13</title>
<g id="a_node13"><a xlink:href="../../d3/dc0/group__linked__list.html#ga15bb4333e53dbef32d196e4388f43fdf" target="_top" xlink:title="linked_list_create">
<polygon fill="none" stroke="black" points="529,-763.5 529,-782.5 621,-782.5 621,-763.5 529,-763.5"/>
<text text-anchor="middle" x="575" y="-770.5" font-family="Helvetica,sans-Serif" font-size="10.00">linked_list_create</text>
</a>
</g>
</g>
<!-- Node7&#45;&gt;Node13 -->
<g id="edge14" class="edge"><title>Node7&#45;&gt;Node13</title>
<path fill="none" stroke="midnightblue" d="M449.41,-725.571C466.26,-733.688 491.429,-745.356 514,-754 519.622,-756.153 525.603,-758.259 531.528,-760.239"/>
<polygon fill="midnightblue" stroke="midnightblue" points="530.781,-763.677 541.373,-763.438 532.944,-757.019 530.781,-763.677"/>
</g>
<!-- Node16 -->
<g id="node16" class="node"><title>Node16</title>
<g id="a_node16"><a xlink:href="../../d3/d7e/crypto__factory_8c.html#a4e4b3de361576a5459952730cc042ca5" target="_top" xlink:title="unique_check">
<polygon fill="none" stroke="black" points="536.5,-725.5 536.5,-744.5 613.5,-744.5 613.5,-725.5 536.5,-725.5"/>
<text text-anchor="middle" x="575" y="-732.5" font-family="Helvetica,sans-Serif" font-size="10.00">unique_check</text>
</a>
</g>
</g>
<!-- Node7&#45;&gt;Node16 -->
<g id="edge17" class="edge"><title>Node7&#45;&gt;Node16</title>
<path fill="none" stroke="midnightblue" d="M478.351,-722.38C493.752,-724.412 510.778,-726.658 526.144,-728.686"/>
<polygon fill="midnightblue" stroke="midnightblue" points="526.105,-732.211 536.477,-730.049 527.021,-725.271 526.105,-732.211"/>
</g>
<!-- Node9 -->
<g id="node9" class="node"><title>Node9</title>
<g id="a_node9"><a xlink:href="../../de/d46/enumerator_8c.html#a801ada63221011518bb6957f3ef2c747" target="_top" xlink:title="enumerate_filter">
<polygon fill="none" stroke="black" points="687,-687.5 687,-706.5 773,-706.5 773,-687.5 687,-687.5"/>
<text text-anchor="middle" x="730" y="-694.5" font-family="Helvetica,sans-Serif" font-size="10.00">enumerate_filter</text>
</a>
</g>
</g>
<!-- Node8&#45;&gt;Node9 -->
<g id="edge8" class="edge"><title>Node8&#45;&gt;Node9</title>
<path fill="none" stroke="midnightblue" d="M636.031,-697C649.374,-697 663.42,-697 676.438,-697"/>
<polygon fill="midnightblue" stroke="midnightblue" points="676.624,-700.5 686.624,-697 676.624,-693.5 676.624,-700.5"/>
</g>
<!-- Node8&#45;&gt;Node10 -->
<g id="edge12" class="edge"><title>Node8&#45;&gt;Node10</title>
<path fill="none" stroke="midnightblue" d="M619.323,-687.425C635.756,-684.057 654.679,-680.494 672,-678 737.102,-668.625 814.319,-663.024 854.19,-660.536"/>
<polygon fill="midnightblue" stroke="midnightblue" points="854.634,-664.015 864.404,-659.916 854.21,-657.028 854.634,-664.015"/>
</g>
<!-- Node11 -->
<g id="node11" class="node"><title>Node11</title>
<g id="a_node11"><a xlink:href="../../de/d46/enumerator_8c.html#a01c799700a22a2e067044a03731d13bc" target="_top" xlink:title="destroy_filter">
<polygon fill="none" stroke="black" points="1143.5,-668.5 1143.5,-687.5 1216.5,-687.5 1216.5,-668.5 1143.5,-668.5"/>
<text text-anchor="middle" x="1180" y="-675.5" font-family="Helvetica,sans-Serif" font-size="10.00">destroy_filter</text>
</a>
</g>
</g>
<!-- Node8&#45;&gt;Node11 -->
<g id="edge10" class="edge"><title>Node8&#45;&gt;Node11</title>
<path fill="none" stroke="midnightblue" d="M614.977,-706.51C632.32,-710.275 653.062,-714.144 672,-716 841.847,-732.646 1044.34,-702.473 1133.28,-686.706"/>
<polygon fill="midnightblue" stroke="midnightblue" points="1134.08,-690.119 1143.3,-684.905 1132.84,-683.229 1134.08,-690.119"/>
</g>
<!-- Node9&#45;&gt;Node10 -->
<g id="edge9" class="edge"><title>Node9&#45;&gt;Node10</title>
<path fill="none" stroke="midnightblue" d="M768.851,-687.411C795.614,-680.631 830.821,-671.712 854.592,-665.69"/>
<polygon fill="midnightblue" stroke="midnightblue" points="855.495,-669.072 864.329,-663.223 853.776,-662.286 855.495,-669.072"/>
</g>
<!-- Node12 -->
<g id="node12" class="node"><title>Node12</title>
<g id="a_node12"><a xlink:href="../../da/dfc/settings__parser_8c.html#af07d89f5ceaea0c7c8252cc41fd75f37" target="_top" xlink:title="free">
<polygon fill="none" stroke="black" points="1270.5,-535.5 1270.5,-554.5 1303.5,-554.5 1303.5,-535.5 1270.5,-535.5"/>
<text text-anchor="middle" x="1287" y="-542.5" font-family="Helvetica,sans-Serif" font-size="10.00">free</text>
</a>
</g>
</g>
<!-- Node11&#45;&gt;Node12 -->
<g id="edge11" class="edge"><title>Node11&#45;&gt;Node12</title>
<path fill="none" stroke="midnightblue" d="M1188.55,-668.435C1206.02,-646.304 1249.46,-591.287 1271.97,-562.771"/>
<polygon fill="midnightblue" stroke="midnightblue" points="1274.78,-564.855 1278.23,-554.837 1269.29,-560.517 1274.78,-564.855"/>
</g>
<!-- Node14 -->
<g id="node14" class="node"><title>Node14</title>
<g id="a_node14"><a xlink:href="../../d9/d78/duplicheck__listener_8c.html#a42e92cbe3b8fa821d53d1fdb7db5a639" target="_top" xlink:title="remove_first">
<polygon fill="none" stroke="black" points="694.5,-801.5 694.5,-820.5 765.5,-820.5 765.5,-801.5 694.5,-801.5"/>
<text text-anchor="middle" x="730" y="-808.5" font-family="Helvetica,sans-Serif" font-size="10.00">remove_first</text>
</a>
</g>
</g>
<!-- Node13&#45;&gt;Node14 -->
<g id="edge15" class="edge"><title>Node13&#45;&gt;Node14</title>
<path fill="none" stroke="midnightblue" d="M614.608,-782.589C635.873,-787.87 662.364,-794.45 684.496,-799.947"/>
<polygon fill="midnightblue" stroke="midnightblue" points="683.775,-803.374 694.324,-802.388 685.462,-796.58 683.775,-803.374"/>
</g>
<!-- Node15 -->
<g id="node15" class="node"><title>Node15</title>
<g id="a_node15"><a xlink:href="../../d9/d78/duplicheck__listener_8c.html#acaae3ea9f18caab2a2e47637da396ca9" target="_top" xlink:title="remove_if_empty">
<polygon fill="none" stroke="red" points="836,-801.5 836,-820.5 928,-820.5 928,-801.5 836,-801.5"/>
<text text-anchor="middle" x="882" y="-808.5" font-family="Helvetica,sans-Serif" font-size="10.00">remove_if_empty</text>
</a>
</g>
</g>
<!-- Node14&#45;&gt;Node15 -->
<g id="edge16" class="edge"><title>Node14&#45;&gt;Node15</title>
<path fill="none" stroke="midnightblue" d="M765.79,-811C783.552,-811 805.585,-811 825.611,-811"/>
<polygon fill="midnightblue" stroke="midnightblue" points="825.868,-814.5 835.868,-811 825.868,-807.5 825.868,-814.5"/>
</g>
<!-- Node17 -->
<g id="node17" class="node"><title>Node17</title>
<g id="a_node17"><a xlink:href="../../d3/d7e/crypto__factory_8c.html#a1bec9a4fd91abbb0271d27bb5ab69bd4" target="_top" xlink:title="entry_match">
<polygon fill="none" stroke="black" points="694.5,-763.5 694.5,-782.5 765.5,-782.5 765.5,-763.5 694.5,-763.5"/>
<text text-anchor="middle" x="730" y="-770.5" font-family="Helvetica,sans-Serif" font-size="10.00">entry_match</text>
</a>
</g>
</g>
<!-- Node16&#45;&gt;Node17 -->
<g id="edge18" class="edge"><title>Node16&#45;&gt;Node17</title>
<path fill="none" stroke="midnightblue" d="M613.82,-744.393C635.23,-749.711 662.126,-756.391 684.541,-761.958"/>
<polygon fill="midnightblue" stroke="midnightblue" points="683.941,-765.415 694.489,-764.429 685.628,-758.621 683.941,-765.415"/>
</g>
<!-- Node18&#45;&gt;Node12 -->
<g id="edge20" class="edge"><title>Node18&#45;&gt;Node12</title>
<path fill="none" stroke="midnightblue" d="M453.612,-566.523C504.089,-571.691 626.272,-583 729,-583 729,-583 729,-583 1034,-583 1123.29,-583 1146.91,-583.705 1234,-564 1243.03,-561.957 1252.62,-558.762 1261.08,-555.571"/>
<polygon fill="midnightblue" stroke="midnightblue" points="1262.37,-558.825 1270.39,-551.896 1259.8,-552.315 1262.37,-558.825"/>
</g>
<!-- Node19 -->
<g id="node19" class="node"><title>Node19</title>
<g id="a_node19"><a xlink:href="../../dc/d21/daemon_8c.html#a1b7023117168a75858bd535a56e709e2" target="_top" xlink:title="logger_entry_destroy">
<polygon fill="none" stroke="black" points="1126.5,-535.5 1126.5,-554.5 1233.5,-554.5 1233.5,-535.5 1126.5,-535.5"/>
<text text-anchor="middle" x="1180" y="-542.5" font-family="Helvetica,sans-Serif" font-size="10.00">logger_entry_destroy</text>
</a>
</g>
</g>
<!-- Node18&#45;&gt;Node19 -->
<g id="edge21" class="edge"><title>Node18&#45;&gt;Node19</title>
<path fill="none" stroke="midnightblue" d="M453.612,-561.477C504.089,-556.309 626.272,-545 729,-545 729,-545 729,-545 883,-545 963.519,-545 1056.36,-545 1116.27,-545"/>
<polygon fill="midnightblue" stroke="midnightblue" points="1116.33,-548.5 1126.33,-545 1116.33,-541.5 1116.33,-548.5"/>
</g>
<!-- Node20 -->
<g id="node20" class="node"><title>Node20</title>
<g id="a_node20"><a xlink:href="../../d9/d32/connect__manager_8c.html#a3b4dd773d88779165dc7243cb4e4fbee" target="_top" xlink:title="sender">
<polygon fill="none" stroke="black" points="552,-310.5 552,-329.5 598,-329.5 598,-310.5 552,-310.5"/>
<text text-anchor="middle" x="575" y="-317.5" font-family="Helvetica,sans-Serif" font-size="10.00">sender</text>
</a>
</g>
</g>
<!-- Node18&#45;&gt;Node20 -->
<g id="edge23" class="edge"><title>Node18&#45;&gt;Node20</title>
<path fill="none" stroke="midnightblue" d="M435.645,-554.435C457.147,-518.001 534.164,-387.5 562.998,-338.642"/>
<polygon fill="midnightblue" stroke="midnightblue" points="566.169,-340.155 568.238,-329.764 560.141,-336.597 566.169,-340.155"/>
</g>
<!-- Node19&#45;&gt;Node12 -->
<g id="edge22" class="edge"><title>Node19&#45;&gt;Node12</title>
<path fill="none" stroke="midnightblue" d="M1233.81,-545C1242.94,-545 1252.05,-545 1260.05,-545"/>
<polygon fill="midnightblue" stroke="midnightblue" points="1260.17,-548.5 1270.16,-545 1260.16,-541.5 1260.17,-548.5"/>
</g>
<!-- Node21 -->
<g id="node21" class="node"><title>Node21</title>
<g id="a_node21"><a xlink:href="../../d9/d32/connect__manager_8c.html#ad295327b74b1c4e19a7096ad2979765b" target="_top" xlink:title="check_create">
<polygon fill="none" stroke="black" points="692.5,-291.5 692.5,-310.5 767.5,-310.5 767.5,-291.5 692.5,-291.5"/>
<text text-anchor="middle" x="730" y="-298.5" font-family="Helvetica,sans-Serif" font-size="10.00">check_create</text>
</a>
</g>
</g>
<!-- Node20&#45;&gt;Node21 -->
<g id="edge24" class="edge"><title>Node20&#45;&gt;Node21</title>
<path fill="none" stroke="midnightblue" d="M598.248,-317.237C620.17,-314.515 654.34,-310.271 682.251,-306.805"/>
<polygon fill="midnightblue" stroke="midnightblue" points="682.724,-310.274 692.217,-305.568 681.861,-303.327 682.724,-310.274"/>
</g>
<!-- Node22 -->
<g id="node22" class="node"><title>Node22</title>
<g id="a_node22"><a xlink:href="../../d9/d32/connect__manager_8c.html#a204f99a4a38f8c08c42cd120bcf1b9f7" target="_top" xlink:title="check_destroy">
<polygon fill="none" stroke="black" points="993,-345.5 993,-364.5 1073,-364.5 1073,-345.5 993,-345.5"/>
<text text-anchor="middle" x="1033" y="-352.5" font-family="Helvetica,sans-Serif" font-size="10.00">check_destroy</text>
</a>
</g>
</g>
<!-- Node20&#45;&gt;Node22 -->
<g id="edge25" class="edge"><title>Node20&#45;&gt;Node22</title>
<path fill="none" stroke="midnightblue" d="M594.513,-310.36C613.412,-301.082 643.882,-287.651 672,-282 788.784,-258.531 827.909,-238.689 940,-279 972.29,-290.612 1001.31,-319.013 1017.77,-337.616"/>
<polygon fill="midnightblue" stroke="midnightblue" points="1015.26,-340.06 1024.42,-345.379 1020.57,-335.507 1015.26,-340.06"/>
</g>
<!-- Node24 -->
<g id="node24" class="node"><title>Node24</title>
<g id="a_node24"><a xlink:href="../../d7/d87/group__endpoint__notify.html#ga89474ccd935bd6aeb2db5ae84c2fcbcf" target="_top" xlink:title="endpoint_notify_create\l_from_host">
<polygon fill="none" stroke="black" points="672.5,-191 672.5,-221 787.5,-221 787.5,-191 672.5,-191"/>
<text text-anchor="start" x="680.5" y="-209" font-family="Helvetica,sans-Serif" font-size="10.00">endpoint_notify_create</text>
<text text-anchor="middle" x="730" y="-198" font-family="Helvetica,sans-Serif" font-size="10.00">_from_host</text>
</a>
</g>
</g>
<!-- Node20&#45;&gt;Node24 -->
<g id="edge29" class="edge"><title>Node20&#45;&gt;Node24</title>
<path fill="none" stroke="midnightblue" d="M585.457,-310.356C601.992,-293.821 637.676,-259.566 672,-236 677.143,-232.469 682.75,-229.053 688.376,-225.869"/>
<polygon fill="midnightblue" stroke="midnightblue" points="690.065,-228.934 697.168,-221.073 686.713,-222.789 690.065,-228.934"/>
</g>
<!-- Node26 -->
<g id="node26" class="node"><title>Node26</title>
<g id="a_node26"><a xlink:href="../../d9/d32/connect__manager_8c.html#a7f4c528dceb6dc21cbeeb405365db27d" target="_top" xlink:title="get_checklist_by_id">
<polygon fill="none" stroke="black" points="678.5,-152.5 678.5,-171.5 781.5,-171.5 781.5,-152.5 678.5,-152.5"/>
<text text-anchor="middle" x="730" y="-159.5" font-family="Helvetica,sans-Serif" font-size="10.00">get_checklist_by_id</text>
</a>
</g>
</g>
<!-- Node20&#45;&gt;Node26 -->
<g id="edge31" class="edge"><title>Node20&#45;&gt;Node26</title>
<path fill="none" stroke="midnightblue" d="M580.027,-310.315C590.966,-285.176 623.688,-217.276 672,-181 674.505,-179.119 677.207,-177.418 680.024,-175.88"/>
<polygon fill="midnightblue" stroke="midnightblue" points="681.762,-178.931 689.32,-171.506 678.782,-172.597 681.762,-178.931"/>
</g>
<!-- Node28 -->
<g id="node28" class="node"><title>Node28</title>
<g id="a_node28"><a xlink:href="../../d9/d32/connect__manager_8c.html#a0c6f96218c9be021da288127130acaea" target="_top" xlink:title="get_triggered_pair">
<polygon fill="none" stroke="black" points="683,-114.5 683,-133.5 777,-133.5 777,-114.5 683,-114.5"/>
<text text-anchor="middle" x="730" y="-121.5" font-family="Helvetica,sans-Serif" font-size="10.00">get_triggered_pair</text>
</a>
</g>
</g>
<!-- Node20&#45;&gt;Node28 -->
<g id="edge33" class="edge"><title>Node20&#45;&gt;Node28</title>
<path fill="none" stroke="midnightblue" d="M580.18,-310.163C594.616,-276.59 643.07,-167.258 672,-143 674.028,-141.299 676.214,-139.749 678.507,-138.336"/>
<polygon fill="midnightblue" stroke="midnightblue" points="680.5,-141.246 687.771,-133.54 677.282,-135.029 680.5,-141.246"/>
</g>
<!-- Node29 -->
<g id="node29" class="node"><title>Node29</title>
<g id="a_node29"><a xlink:href="../../d9/d32/connect__manager_8c.html#a7bcdfc183dd5ea52c1db9112000121eb" target="_top" xlink:title="match_waiting_pair">
<polygon fill="none" stroke="black" points="679.5,-432.5 679.5,-451.5 780.5,-451.5 780.5,-432.5 679.5,-432.5"/>
<text text-anchor="middle" x="730" y="-439.5" font-family="Helvetica,sans-Serif" font-size="10.00">match_waiting_pair</text>
</a>
</g>
</g>
<!-- Node20&#45;&gt;Node29 -->
<g id="edge34" class="edge"><title>Node20&#45;&gt;Node29</title>
<path fill="none" stroke="midnightblue" d="M582.491,-329.743C596.477,-350.006 631.487,-396.967 672,-423 675.124,-425.007 678.48,-426.823 681.945,-428.463"/>
<polygon fill="midnightblue" stroke="midnightblue" points="680.709,-431.74 691.283,-432.401 683.429,-425.29 680.709,-431.74"/>
</g>
<!-- Node30 -->
<g id="node30" class="node"><title>Node30</title>
<g id="a_node30"><a xlink:href="../../d9/d32/connect__manager_8c.html#ab04c347706d661bcbd52ba901be05697" target="_top" xlink:title="schedule_checks">
<polygon fill="none" stroke="black" points="684,-394.5 684,-413.5 776,-413.5 776,-394.5 684,-394.5"/>
<text text-anchor="middle" x="730" y="-401.5" font-family="Helvetica,sans-Serif" font-size="10.00">schedule_checks</text>
</a>
</g>
</g>
<!-- Node20&#45;&gt;Node30 -->
<g id="edge35" class="edge"><title>Node20&#45;&gt;Node30</title>
<path fill="none" stroke="midnightblue" d="M598.248,-327.286C628.181,-341.214 680.947,-370.263 709.438,-388.569"/>
<polygon fill="midnightblue" stroke="midnightblue" points="707.836,-391.707 718.101,-394.328 711.711,-385.878 707.836,-391.707"/>
</g>
<!-- Node34 -->
<g id="node34" class="node"><title>Node34</title>
<g id="a_node34"><a xlink:href="../../d9/d32/connect__manager_8c.html#a84c6b0f36d7353c32bb874be21759a5f" target="_top" xlink:title="send_check">
<polygon fill="none" stroke="black" points="695.5,-329.5 695.5,-348.5 764.5,-348.5 764.5,-329.5 695.5,-329.5"/>
<text text-anchor="middle" x="730" y="-336.5" font-family="Helvetica,sans-Serif" font-size="10.00">send_check</text>
</a>
</g>
</g>
<!-- Node20&#45;&gt;Node34 -->
<g id="edge42" class="edge"><title>Node20&#45;&gt;Node34</title>
<path fill="none" stroke="midnightblue" d="M598.248,-322.763C620.982,-325.586 656.888,-330.045 685.326,-333.576"/>
<polygon fill="midnightblue" stroke="midnightblue" points="685.071,-337.072 695.426,-334.831 685.934,-330.125 685.071,-337.072"/>
</g>
<!-- Node22&#45;&gt;Node12 -->
<g id="edge28" class="edge"><title>Node22&#45;&gt;Node12</title>
<path fill="none" stroke="midnightblue" d="M1073.15,-351.577C1117.46,-349.913 1189.28,-354.211 1234,-393 1273.39,-427.165 1282.98,-492.496 1285.29,-525.251"/>
<polygon fill="midnightblue" stroke="midnightblue" points="1281.8,-525.578 1285.84,-535.373 1288.79,-525.198 1281.8,-525.578"/>
</g>
<!-- Node23 -->
<g id="node23" class="node"><title>Node23</title>
<g id="a_node23"><a xlink:href="../../d4/d87/group__chunk.html#gaa86c84493369a4254d5801cdca20d458" target="_top" xlink:title="chunk_free">
<polygon fill="none" stroke="black" points="1147.5,-402.5 1147.5,-421.5 1212.5,-421.5 1212.5,-402.5 1147.5,-402.5"/>
<text text-anchor="middle" x="1180" y="-409.5" font-family="Helvetica,sans-Serif" font-size="10.00">chunk_free</text>
</a>
</g>
</g>
<!-- Node22&#45;&gt;Node23 -->
<g id="edge26" class="edge"><title>Node22&#45;&gt;Node23</title>
<path fill="none" stroke="midnightblue" d="M1063.51,-364.54C1072.1,-367.445 1081.47,-370.736 1090,-374 1109.68,-381.526 1131.43,-390.796 1148.5,-398.296"/>
<polygon fill="midnightblue" stroke="midnightblue" points="1147.41,-401.637 1157.97,-402.481 1150.24,-395.235 1147.41,-401.637"/>
</g>
<!-- Node23&#45;&gt;Node12 -->
<g id="edge27" class="edge"><title>Node23&#45;&gt;Node12</title>
<path fill="none" stroke="midnightblue" d="M1191.82,-421.564C1203.03,-431.747 1220.73,-448.62 1234,-465 1250.04,-484.798 1265.58,-509.685 1275.42,-526.399"/>
<polygon fill="midnightblue" stroke="midnightblue" points="1272.48,-528.301 1280.53,-535.195 1278.54,-524.789 1272.48,-528.301"/>
</g>
<!-- Node25 -->
<g id="node25" class="node"><title>Node25</title>
<g id="a_node25"><a xlink:href="../../da/d0c/endpoint__notify_8c.html#a55fdd0651a0e929c599c0ffd77626082" target="_top" xlink:title="endpoint_notify_create">
<polygon fill="none" stroke="black" points="824.5,-193.5 824.5,-212.5 939.5,-212.5 939.5,-193.5 824.5,-193.5"/>
<text text-anchor="middle" x="882" y="-200.5" font-family="Helvetica,sans-Serif" font-size="10.00">endpoint_notify_create</text>
</a>
</g>
</g>
<!-- Node24&#45;&gt;Node25 -->
<g id="edge30" class="edge"><title>Node24&#45;&gt;Node25</title>
<path fill="none" stroke="midnightblue" d="M787.709,-204.866C796.295,-204.694 805.223,-204.516 814.002,-204.34"/>
<polygon fill="midnightblue" stroke="midnightblue" points="814.283,-207.835 824.211,-204.136 814.143,-200.837 814.283,-207.835"/>
</g>
<!-- Node27 -->
<g id="node27" class="node"><title>Node27</title>
<g id="a_node27"><a xlink:href="../../d9/d32/connect__manager_8c.html#a48e6c7d1bc525dc1f2627c117ec8fcdf" target="_top" xlink:title="match_checklist_by_id">
<polygon fill="none" stroke="red" points="824,-152.5 824,-171.5 940,-171.5 940,-152.5 824,-152.5"/>
<text text-anchor="middle" x="882" y="-159.5" font-family="Helvetica,sans-Serif" font-size="10.00">match_checklist_by_id</text>
</a>
</g>
</g>
<!-- Node26&#45;&gt;Node27 -->
<g id="edge32" class="edge"><title>Node26&#45;&gt;Node27</title>
<path fill="none" stroke="midnightblue" d="M781.783,-162C792.024,-162 802.94,-162 813.646,-162"/>
<polygon fill="midnightblue" stroke="midnightblue" points="813.817,-165.5 823.817,-162 813.817,-158.5 813.817,-165.5"/>
</g>
<!-- Node30&#45;&gt;Node20 -->
<g id="edge41" class="edge"><title>Node30&#45;&gt;Node20</title>
<path fill="none" stroke="midnightblue" d="M701.966,-394.452C671.473,-379.835 622.622,-352.815 595.59,-335.448"/>
<polygon fill="midnightblue" stroke="midnightblue" points="597.27,-332.362 587.003,-329.744 593.396,-338.193 597.27,-332.362"/>
</g>
<!-- Node31 -->
<g id="node31" class="node"><title>Node31</title>
<g id="a_node31"><a xlink:href="../../d9/d32/connect__manager_8c.html#a77eb11570d14635d5e6f46bc56b6efcf" target="_top" xlink:title="callback_data_create">
<polygon fill="none" stroke="black" points="827.5,-459.5 827.5,-478.5 936.5,-478.5 936.5,-459.5 827.5,-459.5"/>
<text text-anchor="middle" x="882" y="-466.5" font-family="Helvetica,sans-Serif" font-size="10.00">callback_data_create</text>
</a>
</g>
</g>
<!-- Node30&#45;&gt;Node31 -->
<g id="edge36" class="edge"><title>Node30&#45;&gt;Node31</title>
<path fill="none" stroke="midnightblue" d="M763.751,-413.504C771.818,-416.228 780.338,-419.438 788,-423 805.004,-430.904 807.312,-436.449 824,-445 831.189,-448.684 839.076,-452.275 846.629,-455.511"/>
<polygon fill="midnightblue" stroke="midnightblue" points="845.364,-458.775 855.94,-459.398 848.061,-452.315 845.364,-458.775"/>
</g>
<!-- Node32 -->
<g id="node32" class="node"><title>Node32</title>
<g id="a_node32"><a xlink:href="../../d9/d32/connect__manager_8c.html#a4674a63e69fa1940f68b6d6d4532d1dc" target="_top" xlink:title="callback_data_destroy">
<polygon fill="none" stroke="black" points="976,-421.5 976,-440.5 1090,-440.5 1090,-421.5 976,-421.5"/>
<text text-anchor="middle" x="1033" y="-428.5" font-family="Helvetica,sans-Serif" font-size="10.00">callback_data_destroy</text>
</a>
</g>
</g>
<!-- Node30&#45;&gt;Node32 -->
<g id="edge37" class="edge"><title>Node30&#45;&gt;Node32</title>
<path fill="none" stroke="midnightblue" d="M776.063,-408.042C826.344,-412.552 908.18,-419.893 965.751,-425.057"/>
<polygon fill="midnightblue" stroke="midnightblue" points="965.573,-428.555 975.846,-425.963 966.199,-421.583 965.573,-428.555"/>
</g>
<!-- Node33 -->
<g id="node33" class="node"><title>Node33</title>
<g id="a_node33"><a xlink:href="../../d0/d8f/group__callback__job.html#ga6934f856d27d82413610263e27a5cfa1" target="_top" xlink:title="callback_job_create">
<polygon fill="none" stroke="red" points="981.5,-478.5 981.5,-497.5 1084.5,-497.5 1084.5,-478.5 981.5,-478.5"/>
<text text-anchor="middle" x="1033" y="-485.5" font-family="Helvetica,sans-Serif" font-size="10.00">callback_job_create</text>
</a>
</g>
</g>
<!-- Node30&#45;&gt;Node33 -->
<g id="edge40" class="edge"><title>Node30&#45;&gt;Node33</title>
<path fill="none" stroke="midnightblue" d="M772.198,-413.577C777.876,-416.043 783.347,-419.133 788,-423 813.398,-444.107 795.549,-471.234 824,-488 874.654,-517.85 945.012,-509.73 989.521,-499.865"/>
<polygon fill="midnightblue" stroke="midnightblue" points="990.491,-503.232 999.43,-497.544 988.895,-496.416 990.491,-503.232"/>
</g>
<!-- Node32&#45;&gt;Node12 -->
<g id="edge39" class="edge"><title>Node32&#45;&gt;Node12</title>
<path fill="none" stroke="midnightblue" d="M1055.05,-440.523C1101.2,-461.4 1211.11,-511.12 1260.82,-533.607"/>
<polygon fill="midnightblue" stroke="midnightblue" points="1259.64,-536.916 1270.19,-537.849 1262.52,-530.538 1259.64,-536.916"/>
</g>
<!-- Node32&#45;&gt;Node23 -->
<g id="edge38" class="edge"><title>Node32&#45;&gt;Node23</title>
<path fill="none" stroke="midnightblue" d="M1090.06,-423.654C1105.71,-421.604 1122.43,-419.412 1137.11,-417.489"/>
<polygon fill="midnightblue" stroke="midnightblue" points="1137.93,-420.912 1147.39,-416.142 1137.02,-413.971 1137.93,-420.912"/>
</g>
<!-- Node35 -->
<g id="node35" class="node"><title>Node35</title>
<g id="a_node35"><a xlink:href="../../d9/d32/connect__manager_8c.html#aedcaf4b4ca6bc58701b4c01f1e6c3b54" target="_top" xlink:title="build_signature">
<polygon fill="none" stroke="black" points="992,-383.5 992,-402.5 1074,-402.5 1074,-383.5 992,-383.5"/>
<text text-anchor="middle" x="1033" y="-390.5" font-family="Helvetica,sans-Serif" font-size="10.00">build_signature</text>
</a>
</g>
</g>
<!-- Node34&#45;&gt;Node35 -->
<g id="edge43" class="edge"><title>Node34&#45;&gt;Node35</title>
<path fill="none" stroke="midnightblue" d="M763.751,-329.496C771.818,-326.772 780.338,-323.562 788,-320 805.004,-312.096 805.95,-303.079 824,-298 873.629,-284.036 896.435,-270.431 940,-298 971.583,-317.987 948.093,-349.138 976,-374 978.156,-375.921 980.514,-377.649 983.004,-379.203"/>
<polygon fill="midnightblue" stroke="midnightblue" points="981.392,-382.31 991.875,-383.848 984.639,-376.109 981.392,-382.31"/>
</g>
<!-- Node36 -->
<g id="node36" class="node"><title>Node36</title>
<g id="a_node36"><a xlink:href="../../d1/d7f/group__ike__sa__id.html#gaa080d65d35119ab2dd69b73309c14566" target="_top" xlink:title="ike_sa_id_create">
<polygon fill="none" stroke="black" points="837,-345.5 837,-364.5 927,-364.5 927,-345.5 837,-345.5"/>
<text text-anchor="middle" x="882" y="-352.5" font-family="Helvetica,sans-Serif" font-size="10.00">ike_sa_id_create</text>
</a>
</g>
</g>
<!-- Node34&#45;&gt;Node36 -->
<g id="edge45" class="edge"><title>Node34&#45;&gt;Node36</title>
<path fill="none" stroke="midnightblue" d="M764.663,-342.591C782.998,-344.546 806.126,-347.013 826.921,-349.232"/>
<polygon fill="midnightblue" stroke="midnightblue" points="826.597,-352.717 836.911,-350.297 827.339,-345.756 826.597,-352.717"/>
</g>
<!-- Node37 -->
<g id="node37" class="node"><title>Node37</title>
<g id="a_node37"><a xlink:href="../../de/d9a/group__message.html#gac4bba880d7840360ecb8e4137526420b" target="_top" xlink:title="message_create">
<polygon fill="none" stroke="red" points="837.5,-307.5 837.5,-326.5 926.5,-326.5 926.5,-307.5 837.5,-307.5"/>
<text text-anchor="middle" x="882" y="-314.5" font-family="Helvetica,sans-Serif" font-size="10.00">message_create</text>
</a>
</g>
</g>
<!-- Node34&#45;&gt;Node37 -->
<g id="edge46" class="edge"><title>Node34&#45;&gt;Node37</title>
<path fill="none" stroke="midnightblue" d="M764.663,-334.063C783.146,-331.352 806.501,-327.927 827.426,-324.858"/>
<polygon fill="midnightblue" stroke="midnightblue" points="828.085,-328.298 837.471,-323.384 827.069,-321.372 828.085,-328.298"/>
</g>
<!-- Node38 -->
<g id="node38" class="node"><title>Node38</title>
<g id="a_node38"><a xlink:href="../../d9/d32/connect__manager_8c.html#a78416603d2ebd2bb0dcf49e3ccd4ae9c" target="_top" xlink:title="queue_retransmission">
<polygon fill="none" stroke="red" points="826,-383.5 826,-402.5 938,-402.5 938,-383.5 826,-383.5"/>
<text text-anchor="middle" x="882" y="-390.5" font-family="Helvetica,sans-Serif" font-size="10.00">queue_retransmission</text>
</a>
</g>
</g>
<!-- Node34&#45;&gt;Node38 -->
<g id="edge47" class="edge"><title>Node34&#45;&gt;Node38</title>
<path fill="none" stroke="midnightblue" d="M755.773,-348.618C774.456,-355.799 800.75,-365.753 824,-374 829.731,-376.033 835.808,-378.125 841.776,-380.144"/>
<polygon fill="midnightblue" stroke="midnightblue" points="841.042,-383.59 851.636,-383.45 843.267,-376.953 841.042,-383.59"/>
</g>
<!-- Node35&#45;&gt;Node23 -->
<g id="edge44" class="edge"><title>Node35&#45;&gt;Node23</title>
<path fill="none" stroke="midnightblue" d="M1074.01,-398.242C1093.71,-400.824 1117.45,-403.934 1137.36,-406.544"/>
<polygon fill="midnightblue" stroke="midnightblue" points="1137.02,-410.029 1147.39,-407.858 1137.93,-403.088 1137.02,-410.029"/>
</g>
<!-- Node38&#45;&gt;Node32 -->
<g id="edge48" class="edge"><title>Node38&#45;&gt;Node32</title>
<path fill="none" stroke="midnightblue" d="M920.599,-402.589C940.084,-407.558 964.075,-413.677 984.796,-418.961"/>
<polygon fill="midnightblue" stroke="midnightblue" points="984.117,-422.4 994.671,-421.48 985.846,-415.617 984.117,-422.4"/>
</g>
<!-- Node38&#45;&gt;Node33 -->
<g id="edge49" class="edge"><title>Node38&#45;&gt;Node33</title>
<path fill="none" stroke="midnightblue" d="M898.107,-402.632C924.099,-419.204 977.462,-453.228 1008.4,-472.951"/>
<polygon fill="midnightblue" stroke="midnightblue" points="1006.54,-475.918 1016.85,-478.343 1010.3,-470.015 1006.54,-475.918"/>
</g>
<!-- Node39&#45;&gt;Node12 -->
<g id="edge51" class="edge"><title>Node39&#45;&gt;Node12</title>
<path fill="none" stroke="midnightblue" d="M1187.96,-772.47C1198.9,-757.168 1220.27,-725.902 1234,-697 1255.76,-651.208 1272.84,-593.809 1280.91,-564.375"/>
<polygon fill="midnightblue" stroke="midnightblue" points="1284.33,-565.111 1283.55,-554.545 1277.57,-563.293 1284.33,-565.111"/>
</g>
<!-- Node41 -->
<g id="node41" class="node"><title>Node41</title>
<g id="a_node41"><a xlink:href="../../d8/de9/hashtable_8c.html#adc1f54b2244040a4e4de073db4ed27fa" target="_top" xlink:title="get_nearest_powerof2">
<polygon fill="none" stroke="black" points="518.5,-801.5 518.5,-820.5 631.5,-820.5 631.5,-801.5 518.5,-801.5"/>
<text text-anchor="middle" x="575" y="-808.5" font-family="Helvetica,sans-Serif" font-size="10.00">get_nearest_powerof2</text>
</a>
</g>
</g>
<!-- Node40&#45;&gt;Node41 -->
<g id="edge53" class="edge"><title>Node40&#45;&gt;Node41</title>
<path fill="none" stroke="midnightblue" d="M466.337,-782.589C485.083,-787.536 508.143,-793.621 528.107,-798.889"/>
<polygon fill="midnightblue" stroke="midnightblue" points="527.362,-802.312 537.924,-801.48 529.148,-795.544 527.362,-802.312"/>
</g>
<!-- Node43 -->
<g id="node43" class="node"><title>Node43</title>
<g id="a_node43"><a xlink:href="../../d4/d87/group__chunk.html#ga714bd1cb9e1f743523c2a58a49f1b6a4" target="_top" xlink:title="chunk_hash">
<polygon fill="none" stroke="black" points="394.5,-350.5 394.5,-369.5 463.5,-369.5 463.5,-350.5 394.5,-350.5"/>
<text text-anchor="middle" x="429" y="-357.5" font-family="Helvetica,sans-Serif" font-size="10.00">chunk_hash</text>
</a>
</g>
</g>
<!-- Node42&#45;&gt;Node43 -->
<g id="edge55" class="edge"><title>Node42&#45;&gt;Node43</title>
<path fill="none" stroke="midnightblue" d="M317.008,-674.346C326.271,-671.592 337.046,-666.888 344,-659 353.607,-648.104 406.579,-443.616 423.086,-379.236"/>
<polygon fill="midnightblue" stroke="midnightblue" points="426.481,-380.09 425.57,-369.535 419.699,-378.354 426.481,-380.09"/>
</g>
<!-- Node44 -->
<g id="node44" class="node"><title>Node44</title>
<g id="a_node44"><a xlink:href="../../d4/d87/group__chunk.html#gac5619cf208f72c56bf142cbc4378e388" target="_top" xlink:title="chunk_mac">
<polygon fill="none" stroke="black" points="541.5,-165.5 541.5,-184.5 608.5,-184.5 608.5,-165.5 541.5,-165.5"/>
<text text-anchor="middle" x="575" y="-172.5" font-family="Helvetica,sans-Serif" font-size="10.00">chunk_mac</text>
</a>
</g>
</g>
<!-- Node43&#45;&gt;Node44 -->
<g id="edge56" class="edge"><title>Node43&#45;&gt;Node44</title>
<path fill="none" stroke="midnightblue" d="M437.539,-350.314C460.576,-320.718 530.284,-231.163 560.162,-192.778"/>
<polygon fill="midnightblue" stroke="midnightblue" points="563.155,-194.631 566.535,-184.59 557.631,-190.331 563.155,-194.631"/>
</g>
<!-- Node45 -->
<g id="node45" class="node"><title>Node45</title>
<g id="a_node45"><a xlink:href="../../d8/d39/chunk_8c.html#a09c1163fbcb7fd5f8dc5652c9083511a" target="_top" xlink:title="chunk_mac_inc">
<polygon fill="none" stroke="black" points="687.5,-76.5 687.5,-95.5 772.5,-95.5 772.5,-76.5 687.5,-76.5"/>
<text text-anchor="middle" x="730" y="-83.5" font-family="Helvetica,sans-Serif" font-size="10.00">chunk_mac_inc</text>
</a>
</g>
</g>
<!-- Node44&#45;&gt;Node45 -->
<g id="edge57" class="edge"><title>Node44&#45;&gt;Node45</title>
<path fill="none" stroke="midnightblue" d="M586.782,-165.389C603.808,-150.633 638.447,-122.293 672,-105 676.074,-102.9 680.428,-100.962 684.847,-99.1907"/>
<polygon fill="midnightblue" stroke="midnightblue" points="686.388,-102.352 694.54,-95.5839 683.947,-95.7913 686.388,-102.352"/>
</g>
<!-- Node46 -->
<g id="node46" class="node"><title>Node46</title>
<g id="a_node46"><a xlink:href="../../d8/d39/chunk_8c.html#ab5aaa633967a7323bfda1d3b7773374e" target="_top" xlink:title="sipcompress">
<polygon fill="none" stroke="black" points="846,-114.5 846,-133.5 918,-133.5 918,-114.5 846,-114.5"/>
<text text-anchor="middle" x="882" y="-121.5" font-family="Helvetica,sans-Serif" font-size="10.00">sipcompress</text>
</a>
</g>
</g>
<!-- Node45&#45;&gt;Node46 -->
<g id="edge58" class="edge"><title>Node45&#45;&gt;Node46</title>
<path fill="none" stroke="midnightblue" d="M768.851,-95.589C789.306,-100.771 814.691,-107.202 836.135,-112.634"/>
<polygon fill="midnightblue" stroke="midnightblue" points="835.438,-116.068 845.991,-115.131 837.157,-109.283 835.438,-116.068"/>
</g>
<!-- Node47 -->
<g id="node47" class="node"><title>Node47</title>
<g id="a_node47"><a xlink:href="../../d8/d39/chunk_8c.html#a9ef077ebff7df5d4b102da51b511e597" target="_top" xlink:title="sipround">
<polygon fill="none" stroke="red" points="1006.5,-95.5 1006.5,-114.5 1059.5,-114.5 1059.5,-95.5 1006.5,-95.5"/>
<text text-anchor="middle" x="1033" y="-102.5" font-family="Helvetica,sans-Serif" font-size="10.00">sipround</text>
</a>
</g>
</g>
<!-- Node45&#45;&gt;Node47 -->
<g id="edge62" class="edge"><title>Node45&#45;&gt;Node47</title>
<path fill="none" stroke="midnightblue" d="M772.537,-88.6219C831.928,-92.3709 940.116,-99.2 996.178,-102.739"/>
<polygon fill="midnightblue" stroke="midnightblue" points="996.14,-106.243 1006.34,-103.38 996.581,-99.2572 996.14,-106.243"/>
</g>
<!-- Node48 -->
<g id="node48" class="node"><title>Node48</title>
<g id="a_node48"><a xlink:href="../../d8/d39/chunk_8c.html#a740b095c15858f572fbedfe727233276" target="_top" xlink:title="sipget">
<polygon fill="none" stroke="black" points="860.5,-38.5 860.5,-57.5 903.5,-57.5 903.5,-38.5 860.5,-38.5"/>
<text text-anchor="middle" x="882" y="-45.5" font-family="Helvetica,sans-Serif" font-size="10.00">sipget</text>
</a>
</g>
</g>
<!-- Node45&#45;&gt;Node48 -->
<g id="edge60" class="edge"><title>Node45&#45;&gt;Node48</title>
<path fill="none" stroke="midnightblue" d="M768.851,-76.411C794.102,-70.0141 826.869,-61.7131 850.457,-55.7376"/>
<polygon fill="midnightblue" stroke="midnightblue" points="851.437,-59.1 860.271,-53.2513 849.718,-52.3143 851.437,-59.1"/>
</g>
<!-- Node49 -->
<g id="node49" class="node"><title>Node49</title>
<g id="a_node49"><a xlink:href="../../d8/d39/chunk_8c.html#a16bb91c5f20c585526fb6f76b5ffc6d3" target="_top" xlink:title="siplast">
<polygon fill="none" stroke="black" points="859.5,-0.5 859.5,-19.5 904.5,-19.5 904.5,-0.5 859.5,-0.5"/>
<text text-anchor="middle" x="882" y="-7.5" font-family="Helvetica,sans-Serif" font-size="10.00">siplast</text>
</a>
</g>
</g>
<!-- Node45&#45;&gt;Node49 -->
<g id="edge61" class="edge"><title>Node45&#45;&gt;Node49</title>
<path fill="none" stroke="midnightblue" d="M744.318,-76.4833C761.9,-64.2435 794.129,-42.9097 824,-29 832.156,-25.2021 841.286,-21.8066 849.809,-18.9735"/>
<polygon fill="midnightblue" stroke="midnightblue" points="850.967,-22.2779 859.439,-15.9156 848.849,-15.6061 850.967,-22.2779"/>
</g>
<!-- Node46&#45;&gt;Node47 -->
<g id="edge59" class="edge"><title>Node46&#45;&gt;Node47</title>
<path fill="none" stroke="midnightblue" d="M918.311,-119.497C941.85,-116.496 972.685,-112.564 996.303,-109.552"/>
<polygon fill="midnightblue" stroke="midnightblue" points="996.79,-113.018 1006.27,-108.281 995.904,-106.075 996.79,-113.018"/>
</g>
</g>
</svg>
