<?xml version="1.0" encoding="UTF-8" standalone="no"?>
<!DOCTYPE svg PUBLIC "-//W3C//DTD SVG 1.1//EN"
 "http://www.w3.org/Graphics/SVG/1.1/DTD/svg11.dtd">
<!-- Generated by graphviz version 2.36.0 (20140111.2315)
 -->
<!-- Title: private_pb_pdp_referral_msg_t Pages: 1 -->
<svg width="128pt" height="162pt"
 viewBox="0.00 0.00 128.00 162.00" xmlns="http://www.w3.org/2000/svg" xmlns:xlink="http://www.w3.org/1999/xlink">
<g id="graph0" class="graph" transform="scale(1 1) rotate(0) translate(4 158)">
<title>private_pb_pdp_referral_msg_t</title>
<!-- Node1 -->
<g id="node1" class="node"><title>Node1</title>
<polygon fill="#bfbfbf" stroke="black" points="0,-1 0,-31 118,-31 118,-1 0,-1"/>
<text text-anchor="start" x="8" y="-19" font-family="Helvetica,sans-Serif" font-size="10.00">private_pb_pdp_referral</text>
<text text-anchor="middle" x="59" y="-8" font-family="Helvetica,sans-Serif" font-size="10.00">_msg_t</text>
</g>
<!-- Node2 -->
<g id="node2" class="node"><title>Node2</title>
<polygon fill="none" stroke="#bfbfbf" points="38.5,-134.5 38.5,-153.5 79.5,-153.5 79.5,-134.5 38.5,-134.5"/>
<text text-anchor="middle" x="59" y="-141.5" font-family="Helvetica,sans-Serif" font-size="10.00">struct</text>
</g>
<!-- Node2&#45;&gt;Node1 -->
<g id="edge1" class="edge"><title>Node2&#45;&gt;Node1</title>
<path fill="none" stroke="#9a32cd" stroke-dasharray="5,2" d="M59,-124.182C59,-98.8042 59,-54.164 59,-31.3311"/>
<polygon fill="#9a32cd" stroke="#9a32cd" points="55.5001,-124.339 59,-134.34 62.5001,-124.34 55.5001,-124.339"/>
<text text-anchor="middle" x="89.5" y="-108" font-family="Helvetica,sans-Serif" font-size="10.00"> fqdn</text>
<text text-anchor="middle" x="89.5" y="-97" font-family="Helvetica,sans-Serif" font-size="10.00">identifier</text>
<text text-anchor="middle" x="89.5" y="-86" font-family="Helvetica,sans-Serif" font-size="10.00">public</text>
<text text-anchor="middle" x="89.5" y="-75" font-family="Helvetica,sans-Serif" font-size="10.00">identifier_type</text>
<text text-anchor="middle" x="89.5" y="-64" font-family="Helvetica,sans-Serif" font-size="10.00">type</text>
<text text-anchor="middle" x="89.5" y="-53" font-family="Helvetica,sans-Serif" font-size="10.00">encoding</text>
</g>
</g>
</svg>
