<?xml version="1.0" encoding="UTF-8" standalone="no"?>
<!DOCTYPE svg PUBLIC "-//W3C//DTD SVG 1.1//EN"
 "http://www.w3.org/Graphics/SVG/1.1/DTD/svg11.dtd">
<!-- Generated by graphviz version 2.36.0 (20140111.2315)
 -->
<!-- Title: private_migrate_job_t Pages: 1 -->
<svg width="330pt" height="186pt"
 viewBox="0.00 0.00 330.00 186.00" xmlns="http://www.w3.org/2000/svg" xmlns:xlink="http://www.w3.org/1999/xlink">
<g id="graph0" class="graph" transform="scale(1 1) rotate(0) translate(4 182)">
<title>private_migrate_job_t</title>
<!-- Node1 -->
<g id="node1" class="node"><title>Node1</title>
<polygon fill="#bfbfbf" stroke="black" points="26,-0.5 26,-19.5 136,-19.5 136,-0.5 26,-0.5"/>
<text text-anchor="middle" x="81" y="-7.5" font-family="Helvetica,sans-Serif" font-size="10.00">private_migrate_job_t</text>
</g>
<!-- Node2 -->
<g id="node2" class="node"><title>Node2</title>
<polygon fill="none" stroke="#bfbfbf" points="-0.5,-79.5 -0.5,-98.5 40.5,-98.5 40.5,-79.5 -0.5,-79.5"/>
<text text-anchor="middle" x="20" y="-86.5" font-family="Helvetica,sans-Serif" font-size="10.00">struct</text>
</g>
<!-- Node2&#45;&gt;Node1 -->
<g id="edge1" class="edge"><title>Node2&#45;&gt;Node1</title>
<path fill="none" stroke="#9a32cd" stroke-dasharray="5,2" d="M28.0768,-69.8862C33.0179,-59.9018 39.9346,-47.6189 48,-38 53.8977,-30.9664 61.8244,-24.4119 68.4308,-19.5225"/>
<polygon fill="#9a32cd" stroke="#9a32cd" points="24.7616,-68.7117 23.6775,-79.2509 31.0974,-71.6881 24.7616,-68.7117"/>
<text text-anchor="middle" x="62.5" y="-46.5" font-family="Helvetica,sans-Serif" font-size="10.00"> public</text>
</g>
<!-- Node3 -->
<g id="node3" class="node"><title>Node3</title>
<g id="a_node3"><a xlink:href="../../d5/dcf/structhost__t.html" target="_top" xlink:title="host_t">
<polygon fill="none" stroke="black" points="59,-79.5 59,-98.5 103,-98.5 103,-79.5 59,-79.5"/>
<text text-anchor="middle" x="81" y="-86.5" font-family="Helvetica,sans-Serif" font-size="10.00">host_t</text>
</a>
</g>
</g>
<!-- Node3&#45;&gt;Node1 -->
<g id="edge2" class="edge"><title>Node3&#45;&gt;Node1</title>
<path fill="none" stroke="#9a32cd" stroke-dasharray="5,2" d="M81,-69.3145C81,-53.5917 81,-31.8079 81,-19.8094"/>
<polygon fill="#9a32cd" stroke="#9a32cd" points="77.5001,-69.4654 81,-79.4655 84.5001,-69.4655 77.5001,-69.4654"/>
<text text-anchor="middle" x="96.5" y="-52" font-family="Helvetica,sans-Serif" font-size="10.00"> local</text>
<text text-anchor="middle" x="96.5" y="-41" font-family="Helvetica,sans-Serif" font-size="10.00">remote</text>
</g>
<!-- Node3&#45;&gt;Node3 -->
<g id="edge4" class="edge"><title>Node3&#45;&gt;Node3</title>
<path fill="none" stroke="#9a32cd" stroke-dasharray="5,2" d="M113.111,-95.5782C117.259,-94.4398 120,-92.2471 120,-89 120,-83.5312 112.224,-81.0532 103.051,-81.5659"/>
<polygon fill="#9a32cd" stroke="#9a32cd" points="112.718,-92.0989 103.051,-96.4341 113.312,-99.0737 112.718,-92.0989"/>
<text text-anchor="middle" x="133.5" y="-86.5" font-family="Helvetica,sans-Serif" font-size="10.00"> clone</text>
</g>
<!-- Node4 -->
<g id="node4" class="node"><title>Node4</title>
<g id="a_node4"><a xlink:href="../../d0/d14/structchunk__t.html" target="_top" xlink:title="chunk_t">
<polygon fill="none" stroke="black" points="126.5,-158.5 126.5,-177.5 177.5,-177.5 177.5,-158.5 126.5,-158.5"/>
<text text-anchor="middle" x="152" y="-165.5" font-family="Helvetica,sans-Serif" font-size="10.00">chunk_t</text>
</a>
</g>
</g>
<!-- Node4&#45;&gt;Node3 -->
<g id="edge3" class="edge"><title>Node4&#45;&gt;Node3</title>
<path fill="none" stroke="#9a32cd" stroke-dasharray="5,2" d="M127.605,-152.932C122.119,-149.14 116.574,-144.755 112,-140 99.821,-127.34 90.0136,-109.121 84.8888,-98.5278"/>
<polygon fill="#9a32cd" stroke="#9a32cd" points="125.73,-155.887 136.029,-158.371 129.527,-150.006 125.73,-155.887"/>
<text text-anchor="middle" x="140.5" y="-126.5" font-family="Helvetica,sans-Serif" font-size="10.00"> get_address</text>
</g>
<!-- Node5 -->
<g id="node5" class="node"><title>Node5</title>
<g id="a_node5"><a xlink:href="../../d4/d0a/structtraffic__selector__t.html" target="_top" xlink:title="traffic_selector_t">
<polygon fill="none" stroke="black" points="166.5,-79.5 166.5,-98.5 255.5,-98.5 255.5,-79.5 166.5,-79.5"/>
<text text-anchor="middle" x="211" y="-86.5" font-family="Helvetica,sans-Serif" font-size="10.00">traffic_selector_t</text>
</a>
</g>
</g>
<!-- Node4&#45;&gt;Node5 -->
<g id="edge6" class="edge"><title>Node4&#45;&gt;Node5</title>
<path fill="none" stroke="#9a32cd" stroke-dasharray="5,2" d="M164.936,-150.118C177.057,-134.298 194.699,-111.274 204.25,-98.8094"/>
<polygon fill="#9a32cd" stroke="#9a32cd" points="161.843,-148.399 158.539,-158.465 167.4,-152.656 161.843,-148.399"/>
<text text-anchor="middle" x="228.5" y="-132" font-family="Helvetica,sans-Serif" font-size="10.00"> get_to_address</text>
<text text-anchor="middle" x="228.5" y="-121" font-family="Helvetica,sans-Serif" font-size="10.00">get_from_address</text>
</g>
<!-- Node5&#45;&gt;Node1 -->
<g id="edge5" class="edge"><title>Node5&#45;&gt;Node1</title>
<path fill="none" stroke="#9a32cd" stroke-dasharray="5,2" d="M187.874,-74.3026C161.114,-58.4523 117.867,-32.8365 95.4735,-19.5728"/>
<polygon fill="#9a32cd" stroke="#9a32cd" points="186.203,-77.3806 196.591,-79.4655 189.771,-71.3578 186.203,-77.3806"/>
<text text-anchor="middle" x="177.5" y="-52" font-family="Helvetica,sans-Serif" font-size="10.00"> dst_ts</text>
<text text-anchor="middle" x="177.5" y="-41" font-family="Helvetica,sans-Serif" font-size="10.00">src_ts</text>
</g>
<!-- Node5&#45;&gt;Node5 -->
<g id="edge7" class="edge"><title>Node5&#45;&gt;Node5</title>
<path fill="none" stroke="#9a32cd" stroke-dasharray="5,2" d="M265.516,-94.8245C270.126,-93.5782 273,-91.6367 273,-89 273,-84.7812 265.644,-82.3423 255.586,-81.6831"/>
<polygon fill="#9a32cd" stroke="#9a32cd" points="264.955,-91.3694 255.586,-96.3169 265.995,-98.2917 264.955,-91.3694"/>
<text text-anchor="middle" x="297.5" y="-92" font-family="Helvetica,sans-Serif" font-size="10.00"> clone</text>
<text text-anchor="middle" x="297.5" y="-81" font-family="Helvetica,sans-Serif" font-size="10.00">get_subset</text>
</g>
</g>
</svg>
