<?xml version="1.0" encoding="UTF-8" standalone="no"?>
<!DOCTYPE svg PUBLIC "-//W3C//DTD SVG 1.1//EN"
 "http://www.w3.org/Graphics/SVG/1.1/DTD/svg11.dtd">
<!-- Generated by graphviz version 2.36.0 (20140111.2315)
 -->
<!-- Title: TNC_TNCC_GetAttribute Pages: 1 -->
<svg width="404pt" height="28pt"
 viewBox="0.00 0.00 404.00 28.00" xmlns="http://www.w3.org/2000/svg" xmlns:xlink="http://www.w3.org/1999/xlink">
<g id="graph0" class="graph" transform="scale(1 1) rotate(0) translate(4 24)">
<title>TNC_TNCC_GetAttribute</title>
<!-- Node1 -->
<g id="node1" class="node"><title>Node1</title>
<polygon fill="#bfbfbf" stroke="black" points="0.5,-0.5 0.5,-19.5 129.5,-19.5 129.5,-0.5 0.5,-0.5"/>
<text text-anchor="middle" x="65" y="-7.5" font-family="Helvetica,sans-Serif" font-size="10.00">TNC_TNCC_GetAttribute</text>
</g>
<!-- Node2 -->
<g id="node2" class="node"><title>Node2</title>
<g id="a_node2"><a xlink:href="../../de/d10/group__tncifimc.html#gab6b922f0cce604f2645e88d7b54bdc28" target="_top" xlink:title="TNC_TNCC_BindFunction">
<polygon fill="none" stroke="black" points="166,-0.5 166,-19.5 300,-19.5 300,-0.5 166,-0.5"/>
<text text-anchor="middle" x="233" y="-7.5" font-family="Helvetica,sans-Serif" font-size="10.00">TNC_TNCC_BindFunction</text>
</a>
</g>
</g>
<!-- Node1&#45;&gt;Node2 -->
<g id="edge1" class="edge"><title>Node1&#45;&gt;Node2</title>
<path fill="none" stroke="midnightblue" d="M139.843,-10C148.553,-10 157.398,-10 165.99,-10"/>
<polygon fill="midnightblue" stroke="midnightblue" points="139.705,-6.5001 129.705,-10 139.705,-13.5001 139.705,-6.5001"/>
</g>
<!-- Node3 -->
<g id="node3" class="node"><title>Node3</title>
<g id="a_node3"><a xlink:href="../../dd/d14/tnc__imc__manager_8c.html#adf2ca6cb3b5340fe77fd5279b6d9a66e" target="_top" xlink:title="METHOD">
<polygon fill="none" stroke="black" points="336,-0.5 336,-19.5 396,-19.5 396,-0.5 336,-0.5"/>
<text text-anchor="middle" x="366" y="-7.5" font-family="Helvetica,sans-Serif" font-size="10.00">METHOD</text>
</a>
</g>
</g>
<!-- Node2&#45;&gt;Node3 -->
<g id="edge2" class="edge"><title>Node2&#45;&gt;Node3</title>
<path fill="none" stroke="midnightblue" d="M310.426,-10C319.351,-10 327.998,-10 335.678,-10"/>
<polygon fill="midnightblue" stroke="midnightblue" points="310.268,-6.5001 300.268,-10 310.268,-13.5001 310.268,-6.5001"/>
</g>
</g>
</svg>
