<?xml version="1.0" encoding="UTF-8" standalone="no"?>
<!DOCTYPE svg PUBLIC "-//W3C//DTD SVG 1.1//EN"
 "http://www.w3.org/Graphics/SVG/1.1/DTD/svg11.dtd">
<!-- Generated by graphviz version 2.36.0 (20140111.2315)
 -->
<!-- Title: METHOD Pages: 1 -->
<svg width="1160pt" height="431pt"
 viewBox="0.00 0.00 1160.00 431.00" xmlns="http://www.w3.org/2000/svg" xmlns:xlink="http://www.w3.org/1999/xlink">
<g id="graph0" class="graph" transform="scale(1 1) rotate(0) translate(4 427)">
<title>METHOD</title>
<!-- Node1 -->
<g id="node1" class="node"><title>Node1</title>
<polygon fill="#bfbfbf" stroke="black" points="0,-321.5 0,-340.5 60,-340.5 60,-321.5 0,-321.5"/>
<text text-anchor="middle" x="30" y="-328.5" font-family="Helvetica,sans-Serif" font-size="10.00">METHOD</text>
</g>
<!-- Node2 -->
<g id="node2" class="node"><title>Node2</title>
<g id="a_node2"><a xlink:href="../../d5/d4c/group__leap.html#ga8af7319ead3f7b0ae1e9319d4539caef" target="_top" xlink:title="eap_type_from_string">
<polygon fill="none" stroke="black" points="96,-384.5 96,-403.5 206,-403.5 206,-384.5 96,-384.5"/>
<text text-anchor="middle" x="151" y="-391.5" font-family="Helvetica,sans-Serif" font-size="10.00">eap_type_from_string</text>
</a>
</g>
</g>
<!-- Node1&#45;&gt;Node2 -->
<g id="edge1" class="edge"><title>Node1&#45;&gt;Node2</title>
<path fill="none" stroke="midnightblue" d="M49.0735,-340.568C68.6443,-350.929 100.086,-367.575 122.677,-379.535"/>
<polygon fill="midnightblue" stroke="midnightblue" points="121.281,-382.756 131.756,-384.342 124.556,-376.569 121.281,-382.756"/>
</g>
<!-- Node4 -->
<g id="node4" class="node"><title>Node4</title>
<g id="a_node4"><a xlink:href="../../d5/d8d/group__identification.html#gab29a484b3dffdd09b0d355ff9fced2c7" target="_top" xlink:title="identification_create\l_from_data">
<polygon fill="none" stroke="black" points="99,-316 99,-346 203,-346 203,-316 99,-316"/>
<text text-anchor="start" x="107" y="-334" font-family="Helvetica,sans-Serif" font-size="10.00">identification_create</text>
<text text-anchor="middle" x="151" y="-323" font-family="Helvetica,sans-Serif" font-size="10.00">_from_data</text>
</a>
</g>
</g>
<!-- Node1&#45;&gt;Node4 -->
<g id="edge3" class="edge"><title>Node1&#45;&gt;Node4</title>
<path fill="none" stroke="midnightblue" d="M60.1107,-331C68.8837,-331 78.8616,-331 88.9003,-331"/>
<polygon fill="midnightblue" stroke="midnightblue" points="88.9169,-334.5 98.9169,-331 88.9169,-327.5 88.9169,-334.5"/>
</g>
<!-- Node34 -->
<g id="node34" class="node"><title>Node34</title>
<g id="a_node34"><a xlink:href="../../da/d4e/xauth__eap_8c.html#a329e53b4a82555199b3235087bf906dc" target="_top" xlink:title="verify_eap">
<polygon fill="none" stroke="black" points="120,-169.5 120,-188.5 182,-188.5 182,-169.5 120,-169.5"/>
<text text-anchor="middle" x="151" y="-176.5" font-family="Helvetica,sans-Serif" font-size="10.00">verify_eap</text>
</a>
</g>
</g>
<!-- Node1&#45;&gt;Node34 -->
<g id="edge43" class="edge"><title>Node1&#45;&gt;Node34</title>
<path fill="none" stroke="midnightblue" d="M38.444,-321.492C57.9782,-296.54 110.938,-228.894 136.214,-196.608"/>
<polygon fill="midnightblue" stroke="midnightblue" points="139.15,-198.536 142.559,-188.505 133.638,-194.221 139.15,-198.536"/>
</g>
<!-- Node3 -->
<g id="node3" class="node"><title>Node3</title>
<g id="a_node3"><a xlink:href="../../d4/d40/group__string__i.html#ga74aa090049b1a330542e013117a60f1e" target="_top" xlink:title="strcaseeq">
<polygon fill="none" stroke="black" points="264.5,-403.5 264.5,-422.5 323.5,-422.5 323.5,-403.5 264.5,-403.5"/>
<text text-anchor="middle" x="294" y="-410.5" font-family="Helvetica,sans-Serif" font-size="10.00">strcaseeq</text>
</a>
</g>
</g>
<!-- Node2&#45;&gt;Node3 -->
<g id="edge2" class="edge"><title>Node2&#45;&gt;Node3</title>
<path fill="none" stroke="midnightblue" d="M206.111,-401.292C222.109,-403.447 239.3,-405.764 254.133,-407.763"/>
<polygon fill="midnightblue" stroke="midnightblue" points="254.089,-411.288 264.467,-409.155 255.024,-404.351 254.089,-411.288"/>
</g>
<!-- Node5 -->
<g id="node5" class="node"><title>Node5</title>
<g id="a_node5"><a xlink:href="../../d0/da0/group__asn1i.html#ga27ea1bb96f8a7a13920184b9d211548a" target="_top" xlink:title="is_asn1">
<polygon fill="none" stroke="black" points="269,-365.5 269,-384.5 319,-384.5 319,-365.5 269,-365.5"/>
<text text-anchor="middle" x="294" y="-372.5" font-family="Helvetica,sans-Serif" font-size="10.00">is_asn1</text>
</a>
</g>
</g>
<!-- Node4&#45;&gt;Node5 -->
<g id="edge4" class="edge"><title>Node4&#45;&gt;Node5</title>
<path fill="none" stroke="midnightblue" d="M200.13,-346.019C219.47,-352.054 241.316,-358.872 258.959,-364.377"/>
<polygon fill="midnightblue" stroke="midnightblue" points="258.221,-367.814 268.81,-367.451 260.307,-361.131 258.221,-367.814"/>
</g>
<!-- Node7 -->
<g id="node7" class="node"><title>Node7</title>
<g id="a_node7"><a xlink:href="../../d5/d8d/group__identification.html#gaaf048646417f796b2b49277141f1cd40" target="_top" xlink:title="identification_create\l_from_encoding">
<polygon fill="none" stroke="black" points="242,-316 242,-346 346,-346 346,-316 242,-316"/>
<text text-anchor="start" x="250" y="-334" font-family="Helvetica,sans-Serif" font-size="10.00">identification_create</text>
<text text-anchor="middle" x="294" y="-323" font-family="Helvetica,sans-Serif" font-size="10.00">_from_encoding</text>
</a>
</g>
</g>
<!-- Node4&#45;&gt;Node7 -->
<g id="edge6" class="edge"><title>Node4&#45;&gt;Node7</title>
<path fill="none" stroke="midnightblue" d="M203.303,-331C212.555,-331 222.285,-331 231.785,-331"/>
<polygon fill="midnightblue" stroke="midnightblue" points="231.971,-334.5 241.971,-331 231.971,-327.5 231.971,-334.5"/>
</g>
<!-- Node11 -->
<g id="node11" class="node"><title>Node11</title>
<g id="a_node11"><a xlink:href="../../d5/d8d/group__identification.html#ga23065d7dd9165080ce47e4c20089761e" target="_top" xlink:title="identification_create\l_from_string">
<polygon fill="none" stroke="black" points="242,-207 242,-237 346,-237 346,-207 242,-207"/>
<text text-anchor="start" x="250" y="-225" font-family="Helvetica,sans-Serif" font-size="10.00">identification_create</text>
<text text-anchor="middle" x="294" y="-214" font-family="Helvetica,sans-Serif" font-size="10.00">_from_string</text>
</a>
</g>
</g>
<!-- Node4&#45;&gt;Node11 -->
<g id="edge10" class="edge"><title>Node4&#45;&gt;Node11</title>
<path fill="none" stroke="midnightblue" d="M171.605,-315.844C196.018,-296.972 237.866,-264.622 265.482,-243.273"/>
<polygon fill="midnightblue" stroke="midnightblue" points="267.79,-245.912 273.561,-237.027 263.509,-240.374 267.79,-245.912"/>
</g>
<!-- Node6 -->
<g id="node6" class="node"><title>Node6</title>
<g id="a_node6"><a xlink:href="../../d0/da0/group__asn1i.html#ga2c7e03292ddec17485539f5f0e504098" target="_top" xlink:title="asn1_length">
<polygon fill="none" stroke="black" points="396.5,-403.5 396.5,-422.5 465.5,-422.5 465.5,-403.5 396.5,-403.5"/>
<text text-anchor="middle" x="431" y="-410.5" font-family="Helvetica,sans-Serif" font-size="10.00">asn1_length</text>
</a>
</g>
</g>
<!-- Node5&#45;&gt;Node6 -->
<g id="edge5" class="edge"><title>Node5&#45;&gt;Node6</title>
<path fill="none" stroke="midnightblue" d="M319.135,-381.794C337.898,-387.075 364.412,-394.538 386.807,-400.842"/>
<polygon fill="midnightblue" stroke="midnightblue" points="385.865,-404.213 396.439,-403.553 387.762,-397.475 385.865,-404.213"/>
</g>
<!-- Node8 -->
<g id="node8" class="node"><title>Node8</title>
<g id="a_node8"><a xlink:href="../../d6/d2f/identification_8c.html#a2c4638c8ff8771dbda52e0c3b7aac28b" target="_top" xlink:title="identification_create">
<polygon fill="none" stroke="black" points="522,-334.5 522,-353.5 626,-353.5 626,-334.5 522,-334.5"/>
<text text-anchor="middle" x="574" y="-341.5" font-family="Helvetica,sans-Serif" font-size="10.00">identification_create</text>
</a>
</g>
</g>
<!-- Node7&#45;&gt;Node8 -->
<g id="edge7" class="edge"><title>Node7&#45;&gt;Node8</title>
<path fill="none" stroke="midnightblue" d="M346.191,-344.789C357.874,-347.37 370.297,-349.672 382,-351 425.096,-355.89 473.977,-353.961 511.501,-350.902"/>
<polygon fill="midnightblue" stroke="midnightblue" points="512.108,-354.363 521.769,-350.014 511.505,-347.389 512.108,-354.363"/>
</g>
<!-- Node9 -->
<g id="node9" class="node"><title>Node9</title>
<g id="a_node9"><a xlink:href="../../d6/d87/group__utils__i.html#ga9336a4d5728eb7ed977aacaeb8fd2c41" target="_top" xlink:title="return_false">
<polygon fill="none" stroke="black" points="682,-380.5 682,-399.5 750,-399.5 750,-380.5 682,-380.5"/>
<text text-anchor="middle" x="716" y="-387.5" font-family="Helvetica,sans-Serif" font-size="10.00">return_false</text>
</a>
</g>
</g>
<!-- Node8&#45;&gt;Node9 -->
<g id="edge8" class="edge"><title>Node8&#45;&gt;Node9</title>
<path fill="none" stroke="midnightblue" d="M604.008,-353.531C624.938,-360.408 653.418,-369.766 676.287,-377.28"/>
<polygon fill="midnightblue" stroke="midnightblue" points="675.436,-380.684 686.029,-380.481 677.621,-374.034 675.436,-380.684"/>
</g>
<!-- Node10 -->
<g id="node10" class="node"><title>Node10</title>
<g id="a_node10"><a xlink:href="../../d6/d87/group__utils__i.html#ga2cd701fdf8284f1c4c85d3334d5072cf" target="_top" xlink:title="return_true">
<polygon fill="none" stroke="black" points="684.5,-342.5 684.5,-361.5 747.5,-361.5 747.5,-342.5 684.5,-342.5"/>
<text text-anchor="middle" x="716" y="-349.5" font-family="Helvetica,sans-Serif" font-size="10.00">return_true</text>
</a>
</g>
</g>
<!-- Node8&#45;&gt;Node10 -->
<g id="edge9" class="edge"><title>Node8&#45;&gt;Node10</title>
<path fill="none" stroke="midnightblue" d="M626.336,-346.933C642.188,-347.839 659.417,-348.824 674.436,-349.682"/>
<polygon fill="midnightblue" stroke="midnightblue" points="674.252,-353.177 684.436,-350.253 674.652,-346.189 674.252,-353.177"/>
</g>
<!-- Node11&#45;&gt;Node8 -->
<g id="edge39" class="edge"><title>Node11&#45;&gt;Node8</title>
<path fill="none" stroke="midnightblue" d="M304.034,-237.186C317.842,-258.893 346.385,-298.237 382,-317 421.846,-337.992 472.537,-344.38 511.683,-345.714"/>
<polygon fill="midnightblue" stroke="midnightblue" points="511.804,-349.218 521.885,-345.958 511.971,-342.22 511.804,-349.218"/>
</g>
<!-- Node12 -->
<g id="node12" class="node"><title>Node12</title>
<g id="a_node12"><a xlink:href="../../d6/d2f/identification_8c.html#afd254ae787b9b095e0c4cdb0e493b216" target="_top" xlink:title="create_from_string\l_with_prefix_type">
<polygon fill="none" stroke="black" points="382,-229 382,-259 480,-259 480,-229 382,-229"/>
<text text-anchor="start" x="390" y="-247" font-family="Helvetica,sans-Serif" font-size="10.00">create_from_string</text>
<text text-anchor="middle" x="431" y="-236" font-family="Helvetica,sans-Serif" font-size="10.00">_with_prefix_type</text>
</a>
</g>
</g>
<!-- Node11&#45;&gt;Node12 -->
<g id="edge11" class="edge"><title>Node11&#45;&gt;Node12</title>
<path fill="none" stroke="midnightblue" d="M346.038,-230.317C354.41,-231.682 363.142,-233.105 371.674,-234.495"/>
<polygon fill="midnightblue" stroke="midnightblue" points="371.133,-237.953 381.566,-236.107 372.259,-231.044 371.133,-237.953"/>
</g>
<!-- Node13 -->
<g id="node13" class="node"><title>Node13</title>
<g id="a_node13"><a xlink:href="../../d4/d87/group__chunk.html#gaadc119e547e9a456a8c2c6271290b584" target="_top" xlink:title="chunk_from_hex">
<polygon fill="none" stroke="black" points="529.5,-266.5 529.5,-285.5 618.5,-285.5 618.5,-266.5 529.5,-266.5"/>
<text text-anchor="middle" x="574" y="-273.5" font-family="Helvetica,sans-Serif" font-size="10.00">chunk_from_hex</text>
</a>
</g>
</g>
<!-- Node11&#45;&gt;Node13 -->
<g id="edge42" class="edge"><title>Node11&#45;&gt;Node13</title>
<path fill="none" stroke="midnightblue" d="M346.248,-210.219C384.654,-203.935 437.656,-200.786 480,-219 501.371,-228.192 496.377,-244.503 516,-257 519.178,-259.024 522.595,-260.855 526.119,-262.508"/>
<polygon fill="midnightblue" stroke="midnightblue" points="525.032,-265.847 535.608,-266.474 527.732,-259.389 525.032,-265.847"/>
</g>
<!-- Node19 -->
<g id="node19" class="node"><title>Node19</title>
<g id="a_node19"><a xlink:href="../../d6/d2f/identification_8c.html#ad1d2bbb8825975270a82317092f0dc8c" target="_top" xlink:title="create_from_string\l_with_num_type">
<polygon fill="none" stroke="black" points="382,-278 382,-308 480,-308 480,-278 382,-278"/>
<text text-anchor="start" x="390" y="-296" font-family="Helvetica,sans-Serif" font-size="10.00">create_from_string</text>
<text text-anchor="middle" x="431" y="-285" font-family="Helvetica,sans-Serif" font-size="10.00">_with_num_type</text>
</a>
</g>
</g>
<!-- Node11&#45;&gt;Node19 -->
<g id="edge19" class="edge"><title>Node11&#45;&gt;Node19</title>
<path fill="none" stroke="midnightblue" d="M323.581,-237.169C340.545,-246.158 362.484,-257.758 382,-268 385.271,-269.716 388.669,-271.495 392.078,-273.277"/>
<polygon fill="midnightblue" stroke="midnightblue" points="390.564,-276.435 401.049,-277.958 393.803,-270.229 390.564,-276.435"/>
</g>
<!-- Node20 -->
<g id="node20" class="node"><title>Node20</title>
<g id="a_node20"><a xlink:href="../../d6/d2f/identification_8c.html#a40ec64238fd9138c59eb02096163c9a1" target="_top" xlink:title="atodn">
<polygon fill="none" stroke="black" points="410.5,-152.5 410.5,-171.5 451.5,-171.5 451.5,-152.5 410.5,-152.5"/>
<text text-anchor="middle" x="431" y="-159.5" font-family="Helvetica,sans-Serif" font-size="10.00">atodn</text>
</a>
</g>
</g>
<!-- Node11&#45;&gt;Node20 -->
<g id="edge22" class="edge"><title>Node11&#45;&gt;Node20</title>
<path fill="none" stroke="midnightblue" d="M329.066,-206.859C351.184,-197.029 379.708,-184.352 400.789,-174.983"/>
<polygon fill="midnightblue" stroke="midnightblue" points="402.472,-178.065 410.189,-170.805 399.629,-171.668 402.472,-178.065"/>
</g>
<!-- Node32 -->
<g id="node32" class="node"><title>Node32</title>
<g id="a_node32"><a xlink:href="../../d4/d40/group__string__i.html#ga65c3d08890165aaa4663c72d07f93bb7" target="_top" xlink:title="streq">
<polygon fill="none" stroke="black" points="412,-114.5 412,-133.5 450,-133.5 450,-114.5 412,-114.5"/>
<text text-anchor="middle" x="431" y="-121.5" font-family="Helvetica,sans-Serif" font-size="10.00">streq</text>
</a>
</g>
</g>
<!-- Node11&#45;&gt;Node32 -->
<g id="edge40" class="edge"><title>Node11&#45;&gt;Node32</title>
<path fill="none" stroke="midnightblue" d="M308.46,-206.837C324.531,-189.481 352.907,-161.122 382,-143 388.236,-139.116 395.399,-135.771 402.257,-133.019"/>
<polygon fill="midnightblue" stroke="midnightblue" points="403.79,-136.183 411.942,-129.416 401.35,-129.622 403.79,-136.183"/>
</g>
<!-- Node33 -->
<g id="node33" class="node"><title>Node33</title>
<g id="a_node33"><a xlink:href="../../da/d9b/group__windows.html#ga7fb1f8a8f40e09fa09e625d2a09dc04e" target="_top" xlink:title="inet_pton">
<polygon fill="none" stroke="black" points="403,-76.5 403,-95.5 459,-95.5 459,-76.5 403,-76.5"/>
<text text-anchor="middle" x="431" y="-83.5" font-family="Helvetica,sans-Serif" font-size="10.00">inet_pton</text>
</a>
</g>
</g>
<!-- Node11&#45;&gt;Node33 -->
<g id="edge41" class="edge"><title>Node11&#45;&gt;Node33</title>
<path fill="none" stroke="midnightblue" d="M302.577,-206.966C315.641,-182.431 344.638,-133.649 382,-105 385.577,-102.257 389.602,-99.8585 393.76,-97.7748"/>
<polygon fill="midnightblue" stroke="midnightblue" points="395.226,-100.954 402.953,-93.7052 392.392,-94.5526 395.226,-100.954"/>
</g>
<!-- Node12&#45;&gt;Node8 -->
<g id="edge16" class="edge"><title>Node12&#45;&gt;Node8</title>
<path fill="none" stroke="midnightblue" d="M464.563,-259.052C469.835,-261.835 475.151,-264.861 480,-268 495.045,-277.737 531.814,-308.662 554.352,-327.932"/>
<polygon fill="midnightblue" stroke="midnightblue" points="552.075,-330.591 561.944,-334.444 556.632,-325.277 552.075,-330.591"/>
</g>
<!-- Node12&#45;&gt;Node13 -->
<g id="edge12" class="edge"><title>Node12&#45;&gt;Node13</title>
<path fill="none" stroke="midnightblue" d="M480.13,-254.923C493.226,-257.895 507.471,-261.128 520.782,-264.149"/>
<polygon fill="midnightblue" stroke="midnightblue" points="520.218,-267.61 530.745,-266.41 521.767,-260.784 520.218,-267.61"/>
</g>
<!-- Node17 -->
<g id="node17" class="node"><title>Node17</title>
<g id="a_node17"><a xlink:href="../../d4/d40/group__string__i.html#gad04895c77cc61acb068222c88d72dff0" target="_top" xlink:title="strcasepfx">
<polygon fill="none" stroke="black" points="543,-228.5 543,-247.5 605,-247.5 605,-228.5 543,-228.5"/>
<text text-anchor="middle" x="574" y="-235.5" font-family="Helvetica,sans-Serif" font-size="10.00">strcasepfx</text>
</a>
</g>
</g>
<!-- Node12&#45;&gt;Node17 -->
<g id="edge17" class="edge"><title>Node12&#45;&gt;Node17</title>
<path fill="none" stroke="midnightblue" d="M480.13,-241.952C497.145,-241.228 516.1,-240.421 532.426,-239.727"/>
<polygon fill="midnightblue" stroke="midnightblue" points="532.885,-243.21 542.728,-239.288 532.588,-236.217 532.885,-243.21"/>
</g>
<!-- Node14 -->
<g id="node14" class="node"><title>Node14</title>
<g id="a_node14"><a xlink:href="../../da/dfc/settings__parser_8c.html#a5faf6a2d99f50a4655dd390199a8db7b" target="_top" xlink:title="malloc">
<polygon fill="none" stroke="black" points="825.5,-266.5 825.5,-285.5 870.5,-285.5 870.5,-266.5 825.5,-266.5"/>
<text text-anchor="middle" x="848" y="-273.5" font-family="Helvetica,sans-Serif" font-size="10.00">malloc</text>
</a>
</g>
</g>
<!-- Node13&#45;&gt;Node14 -->
<g id="edge13" class="edge"><title>Node13&#45;&gt;Node14</title>
<path fill="none" stroke="midnightblue" d="M612.743,-285.51C629.541,-289.275 649.637,-293.143 668,-295 710.45,-299.292 721.603,-299.791 764,-295 781.186,-293.058 800,-288.922 815.364,-285.004"/>
<polygon fill="midnightblue" stroke="midnightblue" points="816.613,-288.294 825.387,-282.356 814.824,-281.526 816.613,-288.294"/>
</g>
<!-- Node15 -->
<g id="node15" class="node"><title>Node15</title>
<g id="a_node15"><a xlink:href="../../d8/d39/chunk_8c.html#a0674de9b4dc86d182ca6a08b9595279f" target="_top" xlink:title="hex2bin">
<polygon fill="none" stroke="black" points="691,-266.5 691,-285.5 741,-285.5 741,-266.5 691,-266.5"/>
<text text-anchor="middle" x="716" y="-273.5" font-family="Helvetica,sans-Serif" font-size="10.00">hex2bin</text>
</a>
</g>
</g>
<!-- Node13&#45;&gt;Node15 -->
<g id="edge14" class="edge"><title>Node13&#45;&gt;Node15</title>
<path fill="none" stroke="midnightblue" d="M618.529,-276C638.484,-276 661.803,-276 680.516,-276"/>
<polygon fill="midnightblue" stroke="midnightblue" points="680.664,-279.5 690.664,-276 680.664,-272.5 680.664,-279.5"/>
</g>
<!-- Node16 -->
<g id="node16" class="node"><title>Node16</title>
<g id="a_node16"><a xlink:href="../../d4/d87/group__chunk.html#gad94ca029616a107e89eaa618408fd7b6" target="_top" xlink:title="chunk_create">
<polygon fill="none" stroke="black" points="678.5,-228.5 678.5,-247.5 753.5,-247.5 753.5,-228.5 678.5,-228.5"/>
<text text-anchor="middle" x="716" y="-235.5" font-family="Helvetica,sans-Serif" font-size="10.00">chunk_create</text>
</a>
</g>
</g>
<!-- Node13&#45;&gt;Node16 -->
<g id="edge15" class="edge"><title>Node13&#45;&gt;Node16</title>
<path fill="none" stroke="midnightblue" d="M610.328,-266.411C628.401,-261.506 650.598,-255.48 669.895,-250.243"/>
<polygon fill="midnightblue" stroke="midnightblue" points="670.949,-253.583 679.683,-247.586 669.116,-246.828 670.949,-253.583"/>
</g>
<!-- Node18 -->
<g id="node18" class="node"><title>Node18</title>
<g id="a_node18"><a xlink:href="../../d4/d40/group__string__i.html#ga9642181c8684012e619edccbc9f52d1c" target="_top" xlink:title="strncaseeq">
<polygon fill="none" stroke="black" points="683.5,-190.5 683.5,-209.5 748.5,-209.5 748.5,-190.5 683.5,-190.5"/>
<text text-anchor="middle" x="716" y="-197.5" font-family="Helvetica,sans-Serif" font-size="10.00">strncaseeq</text>
</a>
</g>
</g>
<!-- Node17&#45;&gt;Node18 -->
<g id="edge18" class="edge"><title>Node17&#45;&gt;Node18</title>
<path fill="none" stroke="midnightblue" d="M605.034,-229.848C624.96,-224.439 651.385,-217.267 673.337,-211.308"/>
<polygon fill="midnightblue" stroke="midnightblue" points="674.335,-214.664 683.069,-208.667 672.501,-207.909 674.335,-214.664"/>
</g>
<!-- Node19&#45;&gt;Node8 -->
<g id="edge21" class="edge"><title>Node19&#45;&gt;Node8</title>
<path fill="none" stroke="midnightblue" d="M473.542,-308.026C493.603,-315.282 517.45,-323.907 536.764,-330.893"/>
<polygon fill="midnightblue" stroke="midnightblue" points="535.812,-334.271 546.407,-334.381 538.193,-327.688 535.812,-334.271"/>
</g>
<!-- Node19&#45;&gt;Node13 -->
<g id="edge20" class="edge"><title>Node19&#45;&gt;Node13</title>
<path fill="none" stroke="midnightblue" d="M480.13,-287.197C492.72,-285.679 506.372,-284.033 519.235,-282.482"/>
<polygon fill="midnightblue" stroke="midnightblue" points="519.837,-285.935 529.346,-281.263 518.999,-278.985 519.837,-285.935"/>
</g>
<!-- Node21 -->
<g id="node21" class="node"><title>Node21</title>
<g id="a_node21"><a xlink:href="../../d0/da0/group__asn1i.html#gafc47ce497a7d333125fe7b4919ecf156" target="_top" xlink:title="asn1_build_known_oid">
<polygon fill="none" stroke="black" points="516.5,-190.5 516.5,-209.5 631.5,-209.5 631.5,-190.5 516.5,-190.5"/>
<text text-anchor="middle" x="574" y="-197.5" font-family="Helvetica,sans-Serif" font-size="10.00">asn1_build_known_oid</text>
</a>
</g>
</g>
<!-- Node20&#45;&gt;Node21 -->
<g id="edge23" class="edge"><title>Node20&#45;&gt;Node21</title>
<path fill="none" stroke="midnightblue" d="M451.605,-167.284C471.179,-172.559 501.958,-180.854 527.626,-187.772"/>
<polygon fill="midnightblue" stroke="midnightblue" points="526.973,-191.22 537.539,-190.443 528.795,-184.462 526.973,-191.22"/>
</g>
<!-- Node22 -->
<g id="node22" class="node"><title>Node22</title>
<g id="a_node22"><a xlink:href="../../d0/da0/group__asn1i.html#gaa4b22cdadd3251eef380d585a8d3adc1" target="_top" xlink:title="asn1_build_object">
<polygon fill="none" stroke="black" points="668.5,-152.5 668.5,-171.5 763.5,-171.5 763.5,-152.5 668.5,-152.5"/>
<text text-anchor="middle" x="716" y="-159.5" font-family="Helvetica,sans-Serif" font-size="10.00">asn1_build_object</text>
</a>
</g>
</g>
<!-- Node20&#45;&gt;Node22 -->
<g id="edge24" class="edge"><title>Node20&#45;&gt;Node22</title>
<path fill="none" stroke="midnightblue" d="M451.9,-162C494.149,-162 594.155,-162 657.982,-162"/>
<polygon fill="midnightblue" stroke="midnightblue" points="658.289,-165.5 668.289,-162 658.289,-158.5 658.289,-165.5"/>
</g>
<!-- Node24 -->
<g id="node24" class="node"><title>Node24</title>
<g id="a_node24"><a xlink:href="../../d0/da0/group__asn1i.html#gae7dc25238f49a79e26e78b7078871319" target="_top" xlink:title="asn1_is_printablestring">
<polygon fill="none" stroke="black" points="516,-114.5 516,-133.5 632,-133.5 632,-114.5 516,-114.5"/>
<text text-anchor="middle" x="574" y="-121.5" font-family="Helvetica,sans-Serif" font-size="10.00">asn1_is_printablestring</text>
</a>
</g>
</g>
<!-- Node20&#45;&gt;Node24 -->
<g id="edge27" class="edge"><title>Node20&#45;&gt;Node24</title>
<path fill="none" stroke="midnightblue" d="M451.605,-156.716C471.179,-151.441 501.958,-143.146 527.626,-136.228"/>
<polygon fill="midnightblue" stroke="midnightblue" points="528.795,-139.538 537.539,-133.557 526.973,-132.78 528.795,-139.538"/>
</g>
<!-- Node25 -->
<g id="node25" class="node"><title>Node25</title>
<g id="a_node25"><a xlink:href="../../d0/da0/group__asn1i.html#gaa5b766a452be068282b808b6b6f85f7e" target="_top" xlink:title="asn1_wrap">
<polygon fill="none" stroke="black" points="542,-76.5 542,-95.5 606,-95.5 606,-76.5 542,-76.5"/>
<text text-anchor="middle" x="574" y="-83.5" font-family="Helvetica,sans-Serif" font-size="10.00">asn1_wrap</text>
</a>
</g>
</g>
<!-- Node20&#45;&gt;Node25 -->
<g id="edge28" class="edge"><title>Node20&#45;&gt;Node25</title>
<path fill="none" stroke="midnightblue" d="M451.639,-156.394C460.725,-153.272 471.388,-148.824 480,-143 499.271,-129.967 496.377,-117.497 516,-105 521.016,-101.805 526.626,-99.091 532.315,-96.8019"/>
<polygon fill="midnightblue" stroke="midnightblue" points="533.663,-100.036 541.875,-93.3408 531.28,-93.4542 533.663,-100.036"/>
</g>
<!-- Node31 -->
<g id="node31" class="node"><title>Node31</title>
<g id="a_node31"><a xlink:href="../../da/dfc/settings__parser_8c.html#af07d89f5ceaea0c7c8252cc41fd75f37" target="_top" xlink:title="free">
<polygon fill="none" stroke="black" points="964.5,-76.5 964.5,-95.5 997.5,-95.5 997.5,-76.5 964.5,-76.5"/>
<text text-anchor="middle" x="981" y="-83.5" font-family="Helvetica,sans-Serif" font-size="10.00">free</text>
</a>
</g>
</g>
<!-- Node20&#45;&gt;Node31 -->
<g id="edge38" class="edge"><title>Node20&#45;&gt;Node31</title>
<path fill="none" stroke="midnightblue" d="M451.601,-157.835C461.113,-154.986 472.15,-150.352 480,-143 507.279,-117.451 484.417,-86.9866 516,-67 589.336,-20.5904 867.489,-65.6781 954.096,-81.191"/>
<polygon fill="midnightblue" stroke="midnightblue" points="953.663,-84.6693 964.127,-83.0096 954.912,-77.7816 953.663,-84.6693"/>
</g>
<!-- Node22&#45;&gt;Node14 -->
<g id="edge26" class="edge"><title>Node22&#45;&gt;Node14</title>
<path fill="none" stroke="midnightblue" d="M746.936,-171.643C752.86,-174.216 758.837,-177.326 764,-181 772.136,-186.79 810.807,-232.548 832.375,-258.387"/>
<polygon fill="midnightblue" stroke="midnightblue" points="829.876,-260.855 838.965,-266.299 835.255,-256.375 829.876,-260.855"/>
</g>
<!-- Node23 -->
<g id="node23" class="node"><title>Node23</title>
<g id="a_node23"><a xlink:href="../../d6/d36/asn1_8c.html#a72c37051a4d4cda52b0ab80893884abd" target="_top" xlink:title="asn1_code_length">
<polygon fill="none" stroke="black" points="800.5,-190.5 800.5,-209.5 895.5,-209.5 895.5,-190.5 800.5,-190.5"/>
<text text-anchor="middle" x="848" y="-197.5" font-family="Helvetica,sans-Serif" font-size="10.00">asn1_code_length</text>
</a>
</g>
</g>
<!-- Node22&#45;&gt;Node23 -->
<g id="edge25" class="edge"><title>Node22&#45;&gt;Node23</title>
<path fill="none" stroke="midnightblue" d="M749.804,-171.589C766.278,-176.404 786.443,-182.299 804.127,-187.468"/>
<polygon fill="midnightblue" stroke="midnightblue" points="803.626,-190.968 814.206,-190.414 805.59,-184.249 803.626,-190.968"/>
</g>
<!-- Node25&#45;&gt;Node22 -->
<g id="edge29" class="edge"><title>Node25&#45;&gt;Node22</title>
<path fill="none" stroke="midnightblue" d="M606.125,-93.3408C614.894,-96.1971 624.169,-100.013 632,-105 651.623,-117.497 648.777,-129.897 668,-143 670.691,-144.834 673.586,-146.535 676.569,-148.103"/>
<polygon fill="midnightblue" stroke="midnightblue" points="675.135,-151.296 685.671,-152.407 678.127,-144.968 675.135,-151.296"/>
</g>
<!-- Node26 -->
<g id="node26" class="node"><title>Node26</title>
<g id="a_node26"><a xlink:href="../../d4/d87/group__chunk.html#gaaa5a9811df1bd2ae5e331748f7fbaf75" target="_top" xlink:title="chunk_clear">
<polygon fill="none" stroke="black" points="681.5,-114.5 681.5,-133.5 750.5,-133.5 750.5,-114.5 681.5,-114.5"/>
<text text-anchor="middle" x="716" y="-121.5" font-family="Helvetica,sans-Serif" font-size="10.00">chunk_clear</text>
</a>
</g>
</g>
<!-- Node25&#45;&gt;Node26 -->
<g id="edge30" class="edge"><title>Node25&#45;&gt;Node26</title>
<path fill="none" stroke="midnightblue" d="M606.071,-94.4334C625.264,-99.6432 650.184,-106.407 671.344,-112.15"/>
<polygon fill="midnightblue" stroke="midnightblue" points="670.509,-115.55 681.076,-114.792 672.342,-108.795 670.509,-115.55"/>
</g>
<!-- Node25&#45;&gt;Node31 -->
<g id="edge37" class="edge"><title>Node25&#45;&gt;Node31</title>
<path fill="none" stroke="midnightblue" d="M606.107,-86C683.292,-86 882.506,-86 953.987,-86"/>
<polygon fill="midnightblue" stroke="midnightblue" points="954.324,-89.5001 964.324,-86 954.324,-82.5001 954.324,-89.5001"/>
</g>
<!-- Node27 -->
<g id="node27" class="node"><title>Node27</title>
<g id="a_node27"><a xlink:href="../../dd/d74/group__memory__i.html#ga6d5ce21860b55e0c54353999c4f4f077" target="_top" xlink:title="memwipe">
<polygon fill="none" stroke="black" points="818.5,-152.5 818.5,-171.5 877.5,-171.5 877.5,-152.5 818.5,-152.5"/>
<text text-anchor="middle" x="848" y="-159.5" font-family="Helvetica,sans-Serif" font-size="10.00">memwipe</text>
</a>
</g>
</g>
<!-- Node26&#45;&gt;Node27 -->
<g id="edge31" class="edge"><title>Node26&#45;&gt;Node27</title>
<path fill="none" stroke="midnightblue" d="M749.804,-133.589C767.657,-138.807 789.844,-145.293 808.511,-150.749"/>
<polygon fill="midnightblue" stroke="midnightblue" points="807.609,-154.132 818.189,-153.578 809.573,-147.413 807.609,-154.132"/>
</g>
<!-- Node30 -->
<g id="node30" class="node"><title>Node30</title>
<g id="a_node30"><a xlink:href="../../d4/d87/group__chunk.html#gaa86c84493369a4254d5801cdca20d458" target="_top" xlink:title="chunk_free">
<polygon fill="none" stroke="black" points="815.5,-114.5 815.5,-133.5 880.5,-133.5 880.5,-114.5 815.5,-114.5"/>
<text text-anchor="middle" x="848" y="-121.5" font-family="Helvetica,sans-Serif" font-size="10.00">chunk_free</text>
</a>
</g>
</g>
<!-- Node26&#45;&gt;Node30 -->
<g id="edge35" class="edge"><title>Node26&#45;&gt;Node30</title>
<path fill="none" stroke="midnightblue" d="M750.817,-124C767.264,-124 787.202,-124 804.652,-124"/>
<polygon fill="midnightblue" stroke="midnightblue" points="805.141,-127.5 815.141,-124 805.141,-120.5 805.141,-127.5"/>
</g>
<!-- Node28 -->
<g id="node28" class="node"><title>Node28</title>
<g id="a_node28"><a xlink:href="../../dd/d74/group__memory__i.html#ga4d6f7708d6b8ea1ec0fbe97b3885ce1e" target="_top" xlink:title="memwipe_inline">
<polygon fill="none" stroke="black" points="1066,-152.5 1066,-171.5 1152,-171.5 1152,-152.5 1066,-152.5"/>
<text text-anchor="middle" x="1109" y="-159.5" font-family="Helvetica,sans-Serif" font-size="10.00">memwipe_inline</text>
</a>
</g>
</g>
<!-- Node27&#45;&gt;Node28 -->
<g id="edge32" class="edge"><title>Node27&#45;&gt;Node28</title>
<path fill="none" stroke="midnightblue" d="M877.707,-162C920.642,-162 1002.26,-162 1055.9,-162"/>
<polygon fill="midnightblue" stroke="midnightblue" points="1055.9,-165.5 1065.9,-162 1055.9,-158.5 1055.9,-165.5"/>
</g>
<!-- Node29 -->
<g id="node29" class="node"><title>Node29</title>
<g id="a_node29"><a xlink:href="../../dd/d74/group__memory__i.html#gabf6fa8b701d6f2052a551333b3694063" target="_top" xlink:title="memwipe_noinline">
<polygon fill="none" stroke="black" points="932.5,-133.5 932.5,-152.5 1029.5,-152.5 1029.5,-133.5 932.5,-133.5"/>
<text text-anchor="middle" x="981" y="-140.5" font-family="Helvetica,sans-Serif" font-size="10.00">memwipe_noinline</text>
</a>
</g>
</g>
<!-- Node27&#45;&gt;Node29 -->
<g id="edge33" class="edge"><title>Node27&#45;&gt;Node29</title>
<path fill="none" stroke="midnightblue" d="M877.749,-157.83C890.846,-155.931 906.843,-153.61 922.259,-151.375"/>
<polygon fill="midnightblue" stroke="midnightblue" points="922.875,-154.822 932.269,-149.923 921.87,-147.895 922.875,-154.822"/>
</g>
<!-- Node29&#45;&gt;Node28 -->
<g id="edge34" class="edge"><title>Node29&#45;&gt;Node28</title>
<path fill="none" stroke="midnightblue" d="M1029.64,-150.183C1038.15,-151.467 1047.06,-152.811 1055.7,-154.114"/>
<polygon fill="midnightblue" stroke="midnightblue" points="1055.26,-157.587 1065.67,-155.618 1056.31,-150.665 1055.26,-157.587"/>
</g>
<!-- Node30&#45;&gt;Node31 -->
<g id="edge36" class="edge"><title>Node30&#45;&gt;Node31</title>
<path fill="none" stroke="midnightblue" d="M880.711,-114.801C903.384,-108.225 933.494,-99.4903 954.589,-93.3711"/>
<polygon fill="midnightblue" stroke="midnightblue" points="955.801,-96.664 964.43,-90.5165 953.851,-89.9411 955.801,-96.664"/>
</g>
<!-- Node35 -->
<g id="node35" class="node"><title>Node35</title>
<g id="a_node35"><a xlink:href="../../df/d12/mconsole_8c.html#a251c32cfa402f283bd6349486d9caac0" target="_top" xlink:title="request">
<polygon fill="none" stroke="black" points="269.5,-38.5 269.5,-57.5 318.5,-57.5 318.5,-38.5 269.5,-38.5"/>
<text text-anchor="middle" x="294" y="-45.5" font-family="Helvetica,sans-Serif" font-size="10.00">request</text>
</a>
</g>
</g>
<!-- Node34&#45;&gt;Node35 -->
<g id="edge44" class="edge"><title>Node34&#45;&gt;Node35</title>
<path fill="none" stroke="midnightblue" d="M162.598,-169.154C186.6,-146.854 245.33,-92.2888 275.09,-64.64"/>
<polygon fill="midnightblue" stroke="midnightblue" points="277.718,-66.9752 282.662,-57.6045 272.954,-61.8469 277.718,-66.9752"/>
</g>
<!-- Node36 -->
<g id="node36" class="node"><title>Node36</title>
<g id="a_node36"><a xlink:href="../../d1/d14/fetch_8c.html#a17dd1592e9f4ebc44d5126c03a3a9697" target="_top" xlink:title="cb">
<polygon fill="none" stroke="black" points="416.5,-38.5 416.5,-57.5 445.5,-57.5 445.5,-38.5 416.5,-38.5"/>
<text text-anchor="middle" x="431" y="-45.5" font-family="Helvetica,sans-Serif" font-size="10.00">cb</text>
</a>
</g>
</g>
<!-- Node35&#45;&gt;Node36 -->
<g id="edge45" class="edge"><title>Node35&#45;&gt;Node36</title>
<path fill="none" stroke="midnightblue" d="M318.515,-48C343.016,-48 381.211,-48 405.92,-48"/>
<polygon fill="midnightblue" stroke="midnightblue" points="406.226,-51.5001 416.226,-48 406.226,-44.5001 406.226,-51.5001"/>
</g>
<!-- Node37 -->
<g id="node37" class="node"><title>Node37</title>
<g id="a_node37"><a xlink:href="../../d0/d83/dumm_2main_8c.html#a01131b63acf241e9db91704d89ce15d2" target="_top" xlink:title="idle">
<polygon fill="none" stroke="black" points="415,-0.5 415,-19.5 447,-19.5 447,-0.5 415,-0.5"/>
<text text-anchor="middle" x="431" y="-7.5" font-family="Helvetica,sans-Serif" font-size="10.00">idle</text>
</a>
</g>
</g>
<!-- Node35&#45;&gt;Node37 -->
<g id="edge46" class="edge"><title>Node35&#45;&gt;Node37</title>
<path fill="none" stroke="midnightblue" d="M318.515,-41.3809C342.708,-34.5711 380.253,-24.0028 404.982,-17.0421"/>
<polygon fill="midnightblue" stroke="midnightblue" points="406.041,-20.38 414.719,-14.3013 404.145,-13.6418 406.041,-20.38"/>
</g>
<!-- Node38 -->
<g id="node38" class="node"><title>Node38</title>
<g id="a_node38"><a xlink:href="../../da/d9b/group__windows.html#gaa1124f0d208ff28b7d9cf563ff183e8d" target="_top" xlink:title="sched_yield">
<polygon fill="none" stroke="black" points="540,-0.5 540,-19.5 608,-19.5 608,-0.5 540,-0.5"/>
<text text-anchor="middle" x="574" y="-7.5" font-family="Helvetica,sans-Serif" font-size="10.00">sched_yield</text>
</a>
</g>
</g>
<!-- Node37&#45;&gt;Node38 -->
<g id="edge47" class="edge"><title>Node37&#45;&gt;Node38</title>
<path fill="none" stroke="midnightblue" d="M447.089,-10C466.704,-10 501.777,-10 529.934,-10"/>
<polygon fill="midnightblue" stroke="midnightblue" points="529.953,-13.5001 539.953,-10 529.953,-6.5001 529.953,-13.5001"/>
</g>
</g>
</svg>
