<?xml version="1.0" encoding="UTF-8" standalone="no"?>
<!DOCTYPE svg PUBLIC "-//W3C//DTD SVG 1.1//EN"
 "http://www.w3.org/Graphics/SVG/1.1/DTD/svg11.dtd">
<!-- Generated by graphviz version 2.36.0 (20140111.2315)
 -->
<!-- Title: METHOD Pages: 1 -->
<svg width="506pt" height="180pt"
 viewBox="0.00 0.00 506.00 180.00" xmlns="http://www.w3.org/2000/svg" xmlns:xlink="http://www.w3.org/1999/xlink">
<g id="graph0" class="graph" transform="scale(1 1) rotate(0) translate(4 176)">
<title>METHOD</title>
<!-- Node1 -->
<g id="node1" class="node"><title>Node1</title>
<polygon fill="#bfbfbf" stroke="black" points="0,-76.5 0,-95.5 60,-95.5 60,-76.5 0,-76.5"/>
<text text-anchor="middle" x="30" y="-83.5" font-family="Helvetica,sans-Serif" font-size="10.00">METHOD</text>
</g>
<!-- Node2 -->
<g id="node2" class="node"><title>Node2</title>
<g id="a_node2"><a xlink:href="../../d4/db6/openssl__rsa__public__key_8c.html#a7e5b1925d258932c79d3a15d3f590081" target="_top" xlink:title="verify_emsa_pkcs1_signature">
<polygon fill="none" stroke="black" points="96,-76.5 96,-95.5 242,-95.5 242,-76.5 96,-76.5"/>
<text text-anchor="middle" x="169" y="-83.5" font-family="Helvetica,sans-Serif" font-size="10.00">verify_emsa_pkcs1_signature</text>
</a>
</g>
</g>
<!-- Node1&#45;&gt;Node2 -->
<g id="edge1" class="edge"><title>Node1&#45;&gt;Node2</title>
<path fill="none" stroke="midnightblue" d="M60.0542,-86C67.8412,-86 76.6599,-86 85.8187,-86"/>
<polygon fill="midnightblue" stroke="midnightblue" points="85.8579,-89.5001 95.8579,-86 85.8578,-82.5001 85.8579,-89.5001"/>
</g>
<!-- Node3 -->
<g id="node3" class="node"><title>Node3</title>
<g id="a_node3"><a xlink:href="../../d4/d87/group__chunk.html#gaaabd31666a00f250bb4a339c82373be8" target="_top" xlink:title="chunk_skip">
<polygon fill="none" stroke="black" points="298,-152.5 298,-171.5 364,-171.5 364,-152.5 298,-152.5"/>
<text text-anchor="middle" x="331" y="-159.5" font-family="Helvetica,sans-Serif" font-size="10.00">chunk_skip</text>
</a>
</g>
</g>
<!-- Node2&#45;&gt;Node3 -->
<g id="edge2" class="edge"><title>Node2&#45;&gt;Node3</title>
<path fill="none" stroke="midnightblue" d="M186.488,-95.6026C207.376,-107.556 244.673,-128.198 278,-143 282.485,-144.992 287.25,-146.945 292.005,-148.796"/>
<polygon fill="midnightblue" stroke="midnightblue" points="291.064,-152.182 301.656,-152.431 293.531,-145.631 291.064,-152.182"/>
</g>
<!-- Node4 -->
<g id="node4" class="node"><title>Node4</title>
<g id="a_node4"><a xlink:href="../../da/dfc/settings__parser_8c.html#a5faf6a2d99f50a4655dd390199a8db7b" target="_top" xlink:title="malloc">
<polygon fill="none" stroke="black" points="308.5,-114.5 308.5,-133.5 353.5,-133.5 353.5,-114.5 308.5,-114.5"/>
<text text-anchor="middle" x="331" y="-121.5" font-family="Helvetica,sans-Serif" font-size="10.00">malloc</text>
</a>
</g>
</g>
<!-- Node2&#45;&gt;Node4 -->
<g id="edge3" class="edge"><title>Node2&#45;&gt;Node4</title>
<path fill="none" stroke="midnightblue" d="M210.375,-95.589C237.713,-102.082 273.312,-110.537 298.547,-116.53"/>
<polygon fill="midnightblue" stroke="midnightblue" points="297.8,-119.95 308.338,-118.855 299.418,-113.139 297.8,-119.95"/>
</g>
<!-- Node5 -->
<g id="node5" class="node"><title>Node5</title>
<g id="a_node5"><a xlink:href="../../d4/d87/group__chunk.html#gaef4ef97b1a4298f2b3aacb9fe48a2c85" target="_top" xlink:title="chunk_equals_const">
<polygon fill="none" stroke="black" points="278,-76.5 278,-95.5 384,-95.5 384,-76.5 278,-76.5"/>
<text text-anchor="middle" x="331" y="-83.5" font-family="Helvetica,sans-Serif" font-size="10.00">chunk_equals_const</text>
</a>
</g>
</g>
<!-- Node2&#45;&gt;Node5 -->
<g id="edge4" class="edge"><title>Node2&#45;&gt;Node5</title>
<path fill="none" stroke="midnightblue" d="M242.043,-86C250.652,-86 259.386,-86 267.84,-86"/>
<polygon fill="midnightblue" stroke="midnightblue" points="267.985,-89.5001 277.985,-86 267.985,-82.5001 267.985,-89.5001"/>
</g>
<!-- Node7 -->
<g id="node7" class="node"><title>Node7</title>
<g id="a_node7"><a xlink:href="../../d4/d87/group__chunk.html#gad94ca029616a107e89eaa618408fd7b6" target="_top" xlink:title="chunk_create">
<polygon fill="none" stroke="black" points="293.5,-38.5 293.5,-57.5 368.5,-57.5 368.5,-38.5 293.5,-38.5"/>
<text text-anchor="middle" x="331" y="-45.5" font-family="Helvetica,sans-Serif" font-size="10.00">chunk_create</text>
</a>
</g>
</g>
<!-- Node2&#45;&gt;Node7 -->
<g id="edge6" class="edge"><title>Node2&#45;&gt;Node7</title>
<path fill="none" stroke="midnightblue" d="M210.375,-76.411C232.632,-71.1249 260.364,-64.5386 283.521,-59.0388"/>
<polygon fill="midnightblue" stroke="midnightblue" points="284.548,-62.3924 293.468,-56.6763 282.93,-55.5818 284.548,-62.3924"/>
</g>
<!-- Node8 -->
<g id="node8" class="node"><title>Node8</title>
<g id="a_node8"><a xlink:href="../../da/dfc/settings__parser_8c.html#af07d89f5ceaea0c7c8252cc41fd75f37" target="_top" xlink:title="free">
<polygon fill="none" stroke="black" points="314.5,-0.5 314.5,-19.5 347.5,-19.5 347.5,-0.5 314.5,-0.5"/>
<text text-anchor="middle" x="331" y="-7.5" font-family="Helvetica,sans-Serif" font-size="10.00">free</text>
</a>
</g>
</g>
<!-- Node2&#45;&gt;Node8 -->
<g id="edge7" class="edge"><title>Node2&#45;&gt;Node8</title>
<path fill="none" stroke="midnightblue" d="M186.488,-76.3974C207.376,-64.4443 244.673,-43.8017 278,-29 286.586,-25.1864 296.197,-21.515 304.798,-18.4332"/>
<polygon fill="midnightblue" stroke="midnightblue" points="306.021,-21.7133 314.309,-15.113 303.714,-15.1044 306.021,-21.7133"/>
</g>
<!-- Node6 -->
<g id="node6" class="node"><title>Node6</title>
<g id="a_node6"><a xlink:href="../../dd/d74/group__memory__i.html#gaf513a161cbe0ba0964578ee21ca4263b" target="_top" xlink:title="memeq_const">
<polygon fill="none" stroke="black" points="420,-76.5 420,-95.5 498,-95.5 498,-76.5 420,-76.5"/>
<text text-anchor="middle" x="459" y="-83.5" font-family="Helvetica,sans-Serif" font-size="10.00">memeq_const</text>
</a>
</g>
</g>
<!-- Node5&#45;&gt;Node6 -->
<g id="edge5" class="edge"><title>Node5&#45;&gt;Node6</title>
<path fill="none" stroke="midnightblue" d="M384.341,-86C392.708,-86 401.334,-86 409.604,-86"/>
<polygon fill="midnightblue" stroke="midnightblue" points="409.843,-89.5001 419.843,-86 409.843,-82.5001 409.843,-89.5001"/>
</g>
</g>
</svg>
