<?xml version="1.0" encoding="UTF-8" standalone="no"?>
<!DOCTYPE svg PUBLIC "-//W3C//DTD SVG 1.1//EN"
 "http://www.w3.org/Graphics/SVG/1.1/DTD/svg11.dtd">
<!-- Generated by graphviz version 2.36.0 (20140111.2315)
 -->
<!-- Title: private_simaka_manager_t Pages: 1 -->
<svg width="281pt" height="186pt"
 viewBox="0.00 0.00 281.00 186.00" xmlns="http://www.w3.org/2000/svg" xmlns:xlink="http://www.w3.org/1999/xlink">
<g id="graph0" class="graph" transform="scale(1 1) rotate(0) translate(4 182)">
<title>private_simaka_manager_t</title>
<!-- Node1 -->
<g id="node1" class="node"><title>Node1</title>
<polygon fill="#bfbfbf" stroke="black" points="24,-0.5 24,-19.5 158,-19.5 158,-0.5 24,-0.5"/>
<text text-anchor="middle" x="91" y="-7.5" font-family="Helvetica,sans-Serif" font-size="10.00">private_simaka_manager_t</text>
</g>
<!-- Node2 -->
<g id="node2" class="node"><title>Node2</title>
<g id="a_node2"><a xlink:href="../../db/d86/structrwlock__t.html" target="_top" xlink:title="rwlock_t">
<polygon fill="none" stroke="black" points="-0.5,-90.5 -0.5,-109.5 52.5,-109.5 52.5,-90.5 -0.5,-90.5"/>
<text text-anchor="middle" x="26" y="-97.5" font-family="Helvetica,sans-Serif" font-size="10.00">rwlock_t</text>
</a>
</g>
</g>
<!-- Node2&#45;&gt;Node1 -->
<g id="edge1" class="edge"><title>Node2&#45;&gt;Node1</title>
<path fill="none" stroke="#9a32cd" stroke-dasharray="5,2" d="M35.9825,-81.4097C43.3928,-68.8763 54.0687,-51.8633 65,-38 70.1575,-31.4591 76.6575,-24.7091 81.8681,-19.5943"/>
<polygon fill="#9a32cd" stroke="#9a32cd" points="32.7841,-79.9484 30.7971,-90.3553 38.8402,-83.4589 32.7841,-79.9484"/>
<text text-anchor="middle" x="76" y="-52.5" font-family="Helvetica,sans-Serif" font-size="10.00"> lock</text>
</g>
<!-- Node3 -->
<g id="node3" class="node"><title>Node3</title>
<polygon fill="none" stroke="#bfbfbf" points="70.5,-90.5 70.5,-109.5 111.5,-109.5 111.5,-90.5 70.5,-90.5"/>
<text text-anchor="middle" x="91" y="-97.5" font-family="Helvetica,sans-Serif" font-size="10.00">struct</text>
</g>
<!-- Node3&#45;&gt;Node1 -->
<g id="edge2" class="edge"><title>Node3&#45;&gt;Node1</title>
<path fill="none" stroke="#9a32cd" stroke-dasharray="5,2" d="M91,-79.9784C91,-61.3096 91,-33.6696 91,-19.7241"/>
<polygon fill="#9a32cd" stroke="#9a32cd" points="87.5001,-80.2405 91,-90.2405 94.5001,-80.2405 87.5001,-80.2405"/>
<text text-anchor="middle" x="105.5" y="-52.5" font-family="Helvetica,sans-Serif" font-size="10.00"> public</text>
</g>
<!-- Node4 -->
<g id="node4" class="node"><title>Node4</title>
<g id="a_node4"><a xlink:href="../../dc/de6/structlinked__list__t.html" target="_top" xlink:title="linked_list_t">
<polygon fill="none" stroke="black" points="130,-90.5 130,-109.5 198,-109.5 198,-90.5 130,-90.5"/>
<text text-anchor="middle" x="164" y="-97.5" font-family="Helvetica,sans-Serif" font-size="10.00">linked_list_t</text>
</a>
</g>
</g>
<!-- Node4&#45;&gt;Node1 -->
<g id="edge3" class="edge"><title>Node4&#45;&gt;Node1</title>
<path fill="none" stroke="#9a32cd" stroke-dasharray="5,2" d="M154.4,-81.3944C146.996,-68.6359 136.016,-51.353 124,-38 117.86,-31.1768 109.926,-24.6288 103.376,-19.6904"/>
<polygon fill="#9a32cd" stroke="#9a32cd" points="151.363,-83.1354 159.322,-90.1289 157.462,-79.6987 151.363,-83.1354"/>
<text text-anchor="middle" x="168" y="-63.5" font-family="Helvetica,sans-Serif" font-size="10.00"> hooks</text>
<text text-anchor="middle" x="168" y="-52.5" font-family="Helvetica,sans-Serif" font-size="10.00">providers</text>
<text text-anchor="middle" x="168" y="-41.5" font-family="Helvetica,sans-Serif" font-size="10.00">cards</text>
</g>
<!-- Node4&#45;&gt;Node4 -->
<g id="edge4" class="edge"><title>Node4&#45;&gt;Node4</title>
<path fill="none" stroke="#9a32cd" stroke-dasharray="5,2" d="M208.148,-105.333C212.925,-104.309 216,-102.532 216,-100 216,-95.9492 208.127,-93.8289 198.008,-93.639"/>
<polygon fill="#9a32cd" stroke="#9a32cd" points="207.604,-101.87 198.008,-106.361 208.311,-108.834 207.604,-101.87"/>
<text text-anchor="middle" x="244.5" y="-97.5" font-family="Helvetica,sans-Serif" font-size="10.00"> clone_offset</text>
</g>
<!-- Node5 -->
<g id="node5" class="node"><title>Node5</title>
<g id="a_node5"><a xlink:href="../../db/dd3/structenumerator__t.html" target="_top" xlink:title="enumerator_t">
<polygon fill="none" stroke="black" points="127,-158.5 127,-177.5 201,-177.5 201,-158.5 127,-158.5"/>
<text text-anchor="middle" x="164" y="-165.5" font-family="Helvetica,sans-Serif" font-size="10.00">enumerator_t</text>
</a>
</g>
</g>
<!-- Node5&#45;&gt;Node4 -->
<g id="edge5" class="edge"><title>Node5&#45;&gt;Node4</title>
<path fill="none" stroke="#9a32cd" stroke-dasharray="5,2" d="M164,-148.041C164,-135.472 164,-119.563 164,-109.841"/>
<polygon fill="#9a32cd" stroke="#9a32cd" points="160.5,-148.372 164,-158.372 167.5,-148.372 160.5,-148.372"/>
<text text-anchor="middle" x="206.5" y="-131.5" font-family="Helvetica,sans-Serif" font-size="10.00"> create_enumerator</text>
</g>
</g>
</svg>
