<?xml version="1.0" encoding="UTF-8" standalone="no"?>
<!DOCTYPE svg PUBLIC "-//W3C//DTD SVG 1.1//EN"
 "http://www.w3.org/Graphics/SVG/1.1/DTD/svg11.dtd">
<!-- Generated by graphviz version 2.36.0 (20140111.2315)
 -->
<!-- Title: cert_enumerator_t Pages: 1 -->
<svg width="410pt" height="330pt"
 viewBox="0.00 0.00 410.00 330.00" xmlns="http://www.w3.org/2000/svg" xmlns:xlink="http://www.w3.org/1999/xlink">
<g id="graph0" class="graph" transform="scale(1 1) rotate(0) translate(4 326)">
<title>cert_enumerator_t</title>
<!-- Node1 -->
<g id="node1" class="node"><title>Node1</title>
<polygon fill="#bfbfbf" stroke="black" points="169.5,-0.5 169.5,-19.5 264.5,-19.5 264.5,-0.5 169.5,-0.5"/>
<text text-anchor="middle" x="217" y="-7.5" font-family="Helvetica,sans-Serif" font-size="10.00">cert_enumerator_t</text>
</g>
<!-- Node2 -->
<g id="node2" class="node"><title>Node2</title>
<g id="a_node2"><a xlink:href="../../d6/d41/structcertificate__t.html" target="_top" xlink:title="certificate_t">
<polygon fill="none" stroke="black" points="68,-146.5 68,-165.5 136,-165.5 136,-146.5 68,-146.5"/>
<text text-anchor="middle" x="102" y="-153.5" font-family="Helvetica,sans-Serif" font-size="10.00">certificate_t</text>
</a>
</g>
</g>
<!-- Node2&#45;&gt;Node1 -->
<g id="edge1" class="edge"><title>Node2&#45;&gt;Node1</title>
<path fill="none" stroke="#9a32cd" stroke-dasharray="5,2" d="M99.1912,-136.486C97.3414,-117.635 97.3583,-88.3632 111,-68 127.921,-42.7421 159.849,-27.7825 184.259,-19.574"/>
<polygon fill="#9a32cd" stroke="#9a32cd" points="95.7259,-136.983 100.443,-146.469 102.672,-136.112 95.7259,-136.983"/>
<text text-anchor="middle" x="128" y="-75.5" font-family="Helvetica,sans-Serif" font-size="10.00"> current</text>
</g>
<!-- Node2&#45;&gt;Node2 -->
<g id="edge2" class="edge"><title>Node2&#45;&gt;Node2</title>
<path fill="none" stroke="#9a32cd" stroke-dasharray="5,2" d="M146.148,-161.96C150.925,-160.816 154,-158.83 154,-156 154,-151.473 146.127,-149.103 136.008,-148.891"/>
<polygon fill="#9a32cd" stroke="#9a32cd" points="145.551,-158.506 136.008,-163.109 146.339,-165.461 145.551,-158.506"/>
<text text-anchor="middle" x="171" y="-153.5" font-family="Helvetica,sans-Serif" font-size="10.00"> get_ref</text>
</g>
<!-- Node8 -->
<g id="node8" class="node"><title>Node8</title>
<g id="a_node8"><a xlink:href="../../d4/de0/structrelation__t.html" target="_top" xlink:title="relation_t">
<polygon fill="none" stroke="black" points="154,-68.5 154,-87.5 210,-87.5 210,-68.5 154,-68.5"/>
<text text-anchor="middle" x="182" y="-75.5" font-family="Helvetica,sans-Serif" font-size="10.00">relation_t</text>
</a>
</g>
</g>
<!-- Node2&#45;&gt;Node8 -->
<g id="edge12" class="edge"><title>Node2&#45;&gt;Node8</title>
<path fill="none" stroke="#9a32cd" stroke-dasharray="5,2" d="M118.522,-139.304C135.008,-123.642 159.73,-100.156 172.93,-87.6165"/>
<polygon fill="#9a32cd" stroke="#9a32cd" points="116.016,-136.857 111.177,-146.282 120.838,-141.932 116.016,-136.857"/>
<text text-anchor="middle" x="168" y="-120" font-family="Helvetica,sans-Serif" font-size="10.00"> issuer</text>
<text text-anchor="middle" x="168" y="-109" font-family="Helvetica,sans-Serif" font-size="10.00">subject</text>
</g>
<!-- Node3 -->
<g id="node3" class="node"><title>Node3</title>
<g id="a_node3"><a xlink:href="../../d6/d02/structidentification__t.html" target="_top" xlink:title="identification_t">
<polygon fill="none" stroke="black" points="0,-224.5 0,-243.5 80,-243.5 80,-224.5 0,-224.5"/>
<text text-anchor="middle" x="40" y="-231.5" font-family="Helvetica,sans-Serif" font-size="10.00">identification_t</text>
</a>
</g>
</g>
<!-- Node3&#45;&gt;Node1 -->
<g id="edge9" class="edge"><title>Node3&#45;&gt;Node1</title>
<path fill="none" stroke="#9a32cd" stroke-dasharray="5,2" d="M39.5718,-214.276C39.7125,-188.557 42.6243,-141.458 60,-106 78.2631,-68.7317 88.599,-59.6619 124,-38 137.767,-29.5759 154.287,-23.673 169.559,-19.585"/>
<polygon fill="#9a32cd" stroke="#9a32cd" points="36.0735,-214.501 39.6602,-224.47 43.0733,-214.44 36.0735,-214.501"/>
<text text-anchor="middle" x="77.5" y="-120" font-family="Helvetica,sans-Serif" font-size="10.00"> identity</text>
<text text-anchor="middle" x="77.5" y="-109" font-family="Helvetica,sans-Serif" font-size="10.00">id</text>
</g>
<!-- Node3&#45;&gt;Node2 -->
<g id="edge3" class="edge"><title>Node3&#45;&gt;Node2</title>
<path fill="none" stroke="#9a32cd" stroke-dasharray="5,2" d="M53.5077,-216.442C66.2751,-200.792 84.927,-177.928 94.9708,-165.616"/>
<polygon fill="#9a32cd" stroke="#9a32cd" points="50.7215,-214.321 47.1122,-224.282 56.1455,-218.746 50.7215,-214.321"/>
<text text-anchor="middle" x="106" y="-198" font-family="Helvetica,sans-Serif" font-size="10.00"> get_subject</text>
<text text-anchor="middle" x="106" y="-187" font-family="Helvetica,sans-Serif" font-size="10.00">get_issuer</text>
</g>
<!-- Node3&#45;&gt;Node3 -->
<g id="edge4" class="edge"><title>Node3&#45;&gt;Node3</title>
<path fill="none" stroke="#9a32cd" stroke-dasharray="5,2" d="M90.2648,-239.724C95.0048,-238.552 98,-236.644 98,-234 98,-229.77 90.3323,-227.423 80.1186,-226.96"/>
<polygon fill="#9a32cd" stroke="#9a32cd" points="89.5857,-236.283 80.1186,-241.04 90.4856,-243.225 89.5857,-236.283"/>
<text text-anchor="middle" x="111.5" y="-231.5" font-family="Helvetica,sans-Serif" font-size="10.00"> clone</text>
</g>
<!-- Node4 -->
<g id="node4" class="node"><title>Node4</title>
<g id="a_node4"><a xlink:href="../../d0/d14/structchunk__t.html" target="_top" xlink:title="chunk_t">
<polygon fill="none" stroke="black" points="14.5,-302.5 14.5,-321.5 65.5,-321.5 65.5,-302.5 14.5,-302.5"/>
<text text-anchor="middle" x="40" y="-309.5" font-family="Helvetica,sans-Serif" font-size="10.00">chunk_t</text>
</a>
</g>
</g>
<!-- Node4&#45;&gt;Node3 -->
<g id="edge5" class="edge"><title>Node4&#45;&gt;Node3</title>
<path fill="none" stroke="#9a32cd" stroke-dasharray="5,2" d="M40,-292.224C40,-276.697 40,-255.358 40,-243.616"/>
<polygon fill="#9a32cd" stroke="#9a32cd" points="36.5001,-292.282 40,-302.282 43.5001,-292.282 36.5001,-292.282"/>
<text text-anchor="middle" x="70.5" y="-270.5" font-family="Helvetica,sans-Serif" font-size="10.00"> get_encoding</text>
</g>
<!-- Node5 -->
<g id="node5" class="node"><title>Node5</title>
<g id="a_node5"><a xlink:href="../../db/dd3/structenumerator__t.html" target="_top" xlink:title="enumerator_t">
<polygon fill="none" stroke="black" points="219,-302.5 219,-321.5 293,-321.5 293,-302.5 219,-302.5"/>
<text text-anchor="middle" x="256" y="-309.5" font-family="Helvetica,sans-Serif" font-size="10.00">enumerator_t</text>
</a>
</g>
</g>
<!-- Node5&#45;&gt;Node1 -->
<g id="edge17" class="edge"><title>Node5&#45;&gt;Node1</title>
<path fill="none" stroke="#9a32cd" stroke-dasharray="5,2" d="M303.14,-309.419C323.918,-306.36 347.159,-299.356 363,-284 379.263,-268.236 377,-257.649 377,-235 377,-235 377,-235 377,-77 377,-27.8711 311.736,-14.5752 264.572,-11.381"/>
<polygon fill="#9a32cd" stroke="#9a32cd" points="302.689,-305.948 293.182,-310.623 303.529,-312.897 302.689,-305.948"/>
<text text-anchor="middle" x="389.5" y="-153.5" font-family="Helvetica,sans-Serif" font-size="10.00"> inner</text>
</g>
<!-- Node5&#45;&gt;Node3 -->
<g id="edge6" class="edge"><title>Node5&#45;&gt;Node3</title>
<path fill="none" stroke="#9a32cd" stroke-dasharray="5,2" d="M209.021,-303.092C188.073,-298.754 163.357,-292.497 142,-284 123.867,-276.785 121.469,-270.699 104,-262 90.3982,-255.227 74.6817,-248.58 62.2273,-243.577"/>
<polygon fill="#9a32cd" stroke="#9a32cd" points="208.48,-306.553 218.97,-305.069 209.844,-299.687 208.48,-306.553"/>
<text text-anchor="middle" x="195" y="-270.5" font-family="Helvetica,sans-Serif" font-size="10.00"> create_part_enumerator</text>
</g>
<!-- Node11 -->
<g id="node11" class="node"><title>Node11</title>
<g id="a_node11"><a xlink:href="../../dd/d2f/structrr__set__t.html" target="_top" xlink:title="rr_set_t">
<polygon fill="none" stroke="black" points="285,-224.5 285,-243.5 335,-243.5 335,-224.5 285,-224.5"/>
<text text-anchor="middle" x="310" y="-231.5" font-family="Helvetica,sans-Serif" font-size="10.00">rr_set_t</text>
</a>
</g>
</g>
<!-- Node5&#45;&gt;Node11 -->
<g id="edge16" class="edge"><title>Node5&#45;&gt;Node11</title>
<path fill="none" stroke="#9a32cd" stroke-dasharray="5,2" d="M252.041,-292.367C250.989,-282.623 251.417,-270.904 257,-262 263.253,-252.026 274.448,-245.581 284.942,-241.5"/>
<polygon fill="#9a32cd" stroke="#9a32cd" points="248.593,-292.971 253.661,-302.275 255.501,-291.841 248.593,-292.971"/>
<text text-anchor="middle" x="310" y="-276" font-family="Helvetica,sans-Serif" font-size="10.00"> create_rr_enumerator</text>
<text text-anchor="middle" x="310" y="-265" font-family="Helvetica,sans-Serif" font-size="10.00">create_rrsig_enumerator</text>
</g>
<!-- Node6 -->
<g id="node6" class="node"><title>Node6</title>
<g id="a_node6"><a xlink:href="../../d0/d6f/structpublic__key__t.html" target="_top" xlink:title="public_key_t">
<polygon fill="none" stroke="black" points="143.5,-224.5 143.5,-243.5 214.5,-243.5 214.5,-224.5 143.5,-224.5"/>
<text text-anchor="middle" x="179" y="-231.5" font-family="Helvetica,sans-Serif" font-size="10.00">public_key_t</text>
</a>
</g>
</g>
<!-- Node6&#45;&gt;Node2 -->
<g id="edge7" class="edge"><title>Node6&#45;&gt;Node2</title>
<path fill="none" stroke="#9a32cd" stroke-dasharray="5,2" d="M166.156,-216.35C158.217,-206.498 147.556,-194.026 137,-184 129.989,-177.341 121.4,-170.696 114.486,-165.665"/>
<polygon fill="#9a32cd" stroke="#9a32cd" points="163.417,-218.528 172.362,-224.206 168.91,-214.189 163.417,-218.528"/>
<text text-anchor="middle" x="192.5" y="-192.5" font-family="Helvetica,sans-Serif" font-size="10.00"> get_public_key</text>
</g>
<!-- Node6&#45;&gt;Node6 -->
<g id="edge8" class="edge"><title>Node6&#45;&gt;Node6</title>
<path fill="none" stroke="#9a32cd" stroke-dasharray="5,2" d="M224.812,-239.757C229.212,-238.587 232,-236.668 232,-234 232,-229.621 224.493,-227.261 214.669,-226.918"/>
<polygon fill="#9a32cd" stroke="#9a32cd" points="224.132,-236.316 214.669,-241.082 225.038,-243.257 224.132,-236.316"/>
<text text-anchor="middle" x="249" y="-231.5" font-family="Helvetica,sans-Serif" font-size="10.00"> get_ref</text>
</g>
<!-- Node7 -->
<g id="node7" class="node"><title>Node7</title>
<polygon fill="none" stroke="#bfbfbf" points="228.5,-68.5 228.5,-87.5 269.5,-87.5 269.5,-68.5 228.5,-68.5"/>
<text text-anchor="middle" x="249" y="-75.5" font-family="Helvetica,sans-Serif" font-size="10.00">struct</text>
</g>
<!-- Node7&#45;&gt;Node1 -->
<g id="edge10" class="edge"><title>Node7&#45;&gt;Node1</title>
<path fill="none" stroke="#9a32cd" stroke-dasharray="5,2" d="M240.363,-59.1859C234.189,-46.4523 226.145,-29.8607 221.287,-19.8411"/>
<polygon fill="#9a32cd" stroke="#9a32cd" points="237.304,-60.9005 244.817,-68.3717 243.603,-57.8465 237.304,-60.9005"/>
<text text-anchor="middle" x="250.5" y="-41.5" font-family="Helvetica,sans-Serif" font-size="10.00"> public</text>
</g>
<!-- Node8&#45;&gt;Node1 -->
<g id="edge11" class="edge"><title>Node8&#45;&gt;Node1</title>
<path fill="none" stroke="#9a32cd" stroke-dasharray="5,2" d="M181.756,-58.1809C182.34,-51.4972 183.793,-44.1199 187,-38 190.838,-30.6765 197.512,-24.3678 203.592,-19.6944"/>
<polygon fill="#9a32cd" stroke="#9a32cd" points="178.25,-58.3255 181.436,-68.4298 185.246,-58.5437 178.25,-58.3255"/>
<text text-anchor="middle" x="207" y="-41.5" font-family="Helvetica,sans-Serif" font-size="10.00"> relations</text>
</g>
<!-- Node9 -->
<g id="node9" class="node"><title>Node9</title>
<g id="a_node9"><a xlink:href="../../db/d86/structrwlock__t.html" target="_top" xlink:title="rwlock_t">
<polygon fill="none" stroke="black" points="206.5,-146.5 206.5,-165.5 259.5,-165.5 259.5,-146.5 206.5,-146.5"/>
<text text-anchor="middle" x="233" y="-153.5" font-family="Helvetica,sans-Serif" font-size="10.00">rwlock_t</text>
</a>
</g>
</g>
<!-- Node9&#45;&gt;Node8 -->
<g id="edge13" class="edge"><title>Node9&#45;&gt;Node8</title>
<path fill="none" stroke="#9a32cd" stroke-dasharray="5,2" d="M221.3,-137.565C210.821,-121.949 195.891,-99.7002 187.782,-87.6165"/>
<polygon fill="#9a32cd" stroke="#9a32cd" points="218.671,-139.928 227.15,-146.282 224.484,-136.028 218.671,-139.928"/>
<text text-anchor="middle" x="225" y="-114.5" font-family="Helvetica,sans-Serif" font-size="10.00"> lock</text>
</g>
<!-- Node10 -->
<g id="node10" class="node"><title>Node10</title>
<g id="a_node10"><a xlink:href="../../db/d8d/structresolver__response__t.html" target="_top" xlink:title="resolver_response_t">
<polygon fill="none" stroke="black" points="258,-107.5 258,-126.5 362,-126.5 362,-107.5 258,-107.5"/>
<text text-anchor="middle" x="310" y="-114.5" font-family="Helvetica,sans-Serif" font-size="10.00">resolver_response_t</text>
</a>
</g>
</g>
<!-- Node10&#45;&gt;Node1 -->
<g id="edge14" class="edge"><title>Node10&#45;&gt;Node1</title>
<path fill="none" stroke="#9a32cd" stroke-dasharray="5,2" d="M303.947,-97.5224C297.542,-80.3356 285.992,-54.9063 269,-38 260.996,-30.0361 250.157,-23.9023 240.446,-19.5088"/>
<polygon fill="#9a32cd" stroke="#9a32cd" points="300.815,-99.1689 307.419,-107.454 307.423,-96.8591 300.815,-99.1689"/>
<text text-anchor="middle" x="321.5" y="-75.5" font-family="Helvetica,sans-Serif" font-size="10.00"> response</text>
</g>
<!-- Node11&#45;&gt;Node10 -->
<g id="edge15" class="edge"><title>Node11&#45;&gt;Node10</title>
<path fill="none" stroke="#9a32cd" stroke-dasharray="5,2" d="M310,-214.245C310,-189.056 310,-145.317 310,-126.744"/>
<polygon fill="#9a32cd" stroke="#9a32cd" points="306.5,-214.356 310,-224.356 313.5,-214.356 306.5,-214.356"/>
<text text-anchor="middle" x="333.5" y="-192.5" font-family="Helvetica,sans-Serif" font-size="10.00"> get_rr_set</text>
</g>
</g>
</svg>
