<?xml version="1.0" encoding="UTF-8" standalone="no"?>
<!DOCTYPE svg PUBLIC "-//W3C//DTD SVG 1.1//EN"
 "http://www.w3.org/Graphics/SVG/1.1/DTD/svg11.dtd">
<!-- Generated by graphviz version 2.36.0 (20140111.2315)
 -->
<!-- Title: host.c Pages: 1 -->
<svg width="2449pt" height="500pt"
 viewBox="0.00 0.00 2449.00 500.00" xmlns="http://www.w3.org/2000/svg" xmlns:xlink="http://www.w3.org/1999/xlink">
<g id="graph0" class="graph" transform="scale(1 1) rotate(0) translate(4 496)">
<title>host.c</title>
<!-- Node1 -->
<g id="node1" class="node"><title>Node1</title>
<polygon fill="#bfbfbf" stroke="black" points="2191,-472.5 2191,-491.5 2235,-491.5 2235,-472.5 2191,-472.5"/>
<text text-anchor="middle" x="2213" y="-479.5" font-family="Helvetica,sans-Serif" font-size="10.00">host.c</text>
</g>
<!-- Node2 -->
<g id="node2" class="node"><title>Node2</title>
<g id="a_node2"><a xlink:href="../../df/ded/host_8h.html" target="_top" xlink:title="host.h">
<polygon fill="none" stroke="black" points="2217,-292.5 2217,-311.5 2261,-311.5 2261,-292.5 2217,-292.5"/>
<text text-anchor="middle" x="2239" y="-299.5" font-family="Helvetica,sans-Serif" font-size="10.00">host.h</text>
</a>
</g>
</g>
<!-- Node1&#45;&gt;Node2 -->
<g id="edge1" class="edge"><title>Node1&#45;&gt;Node2</title>
<path fill="none" stroke="midnightblue" d="M2235.07,-475.582C2273.47,-464.824 2351.61,-436.746 2384,-380 2391.05,-367.648 2392.44,-359.45 2384,-348 2358.33,-313.149 2305.92,-304.494 2271.64,-302.767"/>
<polygon fill="midnightblue" stroke="midnightblue" points="2271.32,-299.254 2261.21,-302.425 2271.09,-306.25 2271.32,-299.254"/>
</g>
<!-- Node31 -->
<g id="node31" class="node"><title>Node31</title>
<g id="a_node31"><a xlink:href="../../db/d16/debug_8h.html" target="_top" xlink:title="utils/debug.h">
<polygon fill="none" stroke="black" points="2038,-292.5 2038,-311.5 2110,-311.5 2110,-292.5 2038,-292.5"/>
<text text-anchor="middle" x="2074" y="-299.5" font-family="Helvetica,sans-Serif" font-size="10.00">utils/debug.h</text>
</a>
</g>
</g>
<!-- Node1&#45;&gt;Node31 -->
<g id="edge36" class="edge"><title>Node1&#45;&gt;Node31</title>
<path fill="none" stroke="midnightblue" d="M2211.29,-472.489C2206.34,-449.734 2190.06,-386.596 2155,-348 2142.19,-333.899 2123.9,-323.215 2107.94,-315.803"/>
<polygon fill="midnightblue" stroke="midnightblue" points="2108.94,-312.419 2098.37,-311.61 2106.13,-318.83 2108.94,-312.419"/>
</g>
<!-- Node32 -->
<g id="node32" class="node"><title>Node32</title>
<g id="a_node32"><a xlink:href="../../dd/d08/library_8h.html" target="_top" xlink:title="library.h">
<polygon fill="none" stroke="black" points="950.5,-416.5 950.5,-435.5 1001.5,-435.5 1001.5,-416.5 950.5,-416.5"/>
<text text-anchor="middle" x="976" y="-423.5" font-family="Helvetica,sans-Serif" font-size="10.00">library.h</text>
</a>
</g>
</g>
<!-- Node1&#45;&gt;Node32 -->
<g id="edge39" class="edge"><title>Node1&#45;&gt;Node32</title>
<path fill="none" stroke="midnightblue" d="M2190.74,-480.028C2042.36,-473.551 1196.82,-436.64 1011.78,-428.562"/>
<polygon fill="midnightblue" stroke="midnightblue" points="1011.66,-425.054 1001.52,-428.114 1011.36,-432.047 1011.66,-425.054"/>
</g>
<!-- Node3 -->
<g id="node3" class="node"><title>Node3</title>
<g id="a_node3"><a xlink:href="../../d5/d60/utils_8h.html" target="_top" xlink:title="utils/utils.h">
<polygon fill="none" stroke="black" points="1310,-180.5 1310,-199.5 1374,-199.5 1374,-180.5 1310,-180.5"/>
<text text-anchor="middle" x="1342" y="-187.5" font-family="Helvetica,sans-Serif" font-size="10.00">utils/utils.h</text>
</a>
</g>
</g>
<!-- Node2&#45;&gt;Node3 -->
<g id="edge2" class="edge"><title>Node2&#45;&gt;Node3</title>
<path fill="none" stroke="midnightblue" d="M2216.61,-292.461C2194.39,-283.822 2159.48,-269.806 2130,-256 2112.72,-247.905 2110.38,-241.131 2092,-236 1957.31,-198.403 1522.12,-192.218 1384.28,-191.2"/>
<polygon fill="midnightblue" stroke="midnightblue" points="1384.15,-187.699 1374.12,-191.131 1384.1,-194.699 1384.15,-187.699"/>
</g>
<!-- Node4 -->
<g id="node4" class="node"><title>Node4</title>
<polygon fill="none" stroke="#bfbfbf" points="2181,-124.5 2181,-143.5 2249,-143.5 2249,-124.5 2181,-124.5"/>
<text text-anchor="middle" x="2215" y="-131.5" font-family="Helvetica,sans-Serif" font-size="10.00">sys/types.h</text>
</g>
<!-- Node2&#45;&gt;Node4 -->
<g id="edge35" class="edge"><title>Node2&#45;&gt;Node4</title>
<path fill="none" stroke="midnightblue" d="M2237.71,-292.075C2233.93,-265.945 2222.84,-189.211 2217.69,-153.577"/>
<polygon fill="midnightblue" stroke="midnightblue" points="2221.13,-152.964 2216.24,-143.568 2214.21,-153.966 2221.13,-152.964"/>
</g>
<!-- Node5 -->
<g id="node5" class="node"><title>Node5</title>
<polygon fill="none" stroke="#bfbfbf" points="1865,-0.5 1865,-19.5 1913,-19.5 1913,-0.5 1865,-0.5"/>
<text text-anchor="middle" x="1889" y="-7.5" font-family="Helvetica,sans-Serif" font-size="10.00">stdlib.h</text>
</g>
<!-- Node2&#45;&gt;Node5 -->
<g id="edge33" class="edge"><title>Node2&#45;&gt;Node5</title>
<path fill="none" stroke="midnightblue" d="M2244.28,-292.231C2254.73,-274.043 2277,-230.601 2277,-191 2277,-191 2277,-191 2277,-133 2277,-59.2285 2018.52,-24.6073 1923.5,-14.3728"/>
<polygon fill="midnightblue" stroke="midnightblue" points="1923.58,-10.8618 1913.27,-13.2973 1922.85,-17.8234 1923.58,-10.8618"/>
</g>
<!-- Node29 -->
<g id="node29" class="node"><title>Node29</title>
<g id="a_node29"><a xlink:href="../../dd/dd5/chunk_8h.html" target="_top" xlink:title="utils/chunk.h">
<polygon fill="none" stroke="red" points="2139,-236.5 2139,-255.5 2211,-255.5 2211,-236.5 2139,-236.5"/>
<text text-anchor="middle" x="2175" y="-243.5" font-family="Helvetica,sans-Serif" font-size="10.00">utils/chunk.h</text>
</a>
</g>
</g>
<!-- Node2&#45;&gt;Node29 -->
<g id="edge29" class="edge"><title>Node2&#45;&gt;Node29</title>
<path fill="none" stroke="midnightblue" d="M2228.72,-292.324C2219.16,-284.263 2204.72,-272.077 2193.22,-262.369"/>
<polygon fill="midnightblue" stroke="midnightblue" points="2195.37,-259.608 2185.47,-255.834 2190.86,-264.958 2195.37,-259.608"/>
</g>
<!-- Node30 -->
<g id="node30" class="node"><title>Node30</title>
<polygon fill="none" stroke="#bfbfbf" points="2037,-236.5 2037,-255.5 2083,-255.5 2083,-236.5 2037,-236.5"/>
<text text-anchor="middle" x="2060" y="-243.5" font-family="Helvetica,sans-Serif" font-size="10.00">stdio.h</text>
</g>
<!-- Node2&#45;&gt;Node30 -->
<g id="edge34" class="edge"><title>Node2&#45;&gt;Node30</title>
<path fill="none" stroke="midnightblue" d="M2216.69,-294.27C2185.64,-284.903 2129.17,-267.867 2093.17,-257.008"/>
<polygon fill="midnightblue" stroke="midnightblue" points="2093.74,-253.523 2083.16,-253.986 2091.72,-260.225 2093.74,-253.523"/>
</g>
<!-- Node3&#45;&gt;Node4 -->
<g id="edge3" class="edge"><title>Node3&#45;&gt;Node4</title>
<path fill="none" stroke="midnightblue" d="M1374.16,-188.956C1485.2,-188.444 1862.57,-183.695 2171,-144 2171.1,-143.987 2171.2,-143.974 2171.3,-143.961"/>
<polygon fill="midnightblue" stroke="midnightblue" points="2171.62,-147.453 2180.97,-142.476 2170.56,-140.534 2171.62,-147.453"/>
</g>
<!-- Node3&#45;&gt;Node5 -->
<g id="edge4" class="edge"><title>Node3&#45;&gt;Node5</title>
<path fill="none" stroke="midnightblue" d="M1374.16,-189.586C1436.7,-189.707 1578.17,-184.955 1688,-144 1726.98,-129.463 1826.68,-57.2598 1869.25,-25.7496"/>
<polygon fill="midnightblue" stroke="midnightblue" points="1871.49,-28.451 1877.43,-19.6787 1867.31,-22.8313 1871.49,-28.451"/>
</g>
<!-- Node6 -->
<g id="node6" class="node"><title>Node6</title>
<polygon fill="none" stroke="#bfbfbf" points="1468,-124.5 1468,-143.5 1520,-143.5 1520,-124.5 1468,-124.5"/>
<text text-anchor="middle" x="1494" y="-131.5" font-family="Helvetica,sans-Serif" font-size="10.00">stddef.h</text>
</g>
<!-- Node3&#45;&gt;Node6 -->
<g id="edge5" class="edge"><title>Node3&#45;&gt;Node6</title>
<path fill="none" stroke="midnightblue" d="M1366.08,-180.444C1391.54,-171.399 1431.89,-157.064 1460.46,-146.916"/>
<polygon fill="midnightblue" stroke="midnightblue" points="1461.78,-150.162 1470.03,-143.516 1459.43,-143.566 1461.78,-150.162"/>
</g>
<!-- Node7 -->
<g id="node7" class="node"><title>Node7</title>
<polygon fill="none" stroke="#bfbfbf" points="1538,-124.5 1538,-143.5 1600,-143.5 1600,-124.5 1538,-124.5"/>
<text text-anchor="middle" x="1569" y="-131.5" font-family="Helvetica,sans-Serif" font-size="10.00">sys/time.h</text>
</g>
<!-- Node3&#45;&gt;Node7 -->
<g id="edge6" class="edge"><title>Node3&#45;&gt;Node7</title>
<path fill="none" stroke="midnightblue" d="M1374.04,-181.378C1414.41,-171.776 1483.82,-155.263 1528.01,-144.751"/>
<polygon fill="midnightblue" stroke="midnightblue" points="1528.93,-148.13 1537.85,-142.41 1527.31,-141.32 1528.93,-148.13"/>
</g>
<!-- Node8 -->
<g id="node8" class="node"><title>Node8</title>
<g id="a_node8"><a xlink:href="../../da/d66/string_8h.html" target="_top" xlink:title="string.h">
<polygon fill="none" stroke="black" points="2113.5,-124.5 2113.5,-143.5 2162.5,-143.5 2162.5,-124.5 2113.5,-124.5"/>
<text text-anchor="middle" x="2138" y="-131.5" font-family="Helvetica,sans-Serif" font-size="10.00">string.h</text>
</a>
</g>
</g>
<!-- Node3&#45;&gt;Node8 -->
<g id="edge7" class="edge"><title>Node3&#45;&gt;Node8</title>
<path fill="none" stroke="midnightblue" d="M1374.19,-189.387C1478.4,-190.159 1815.94,-188.898 2103.05,-143.789"/>
<polygon fill="midnightblue" stroke="midnightblue" points="2103.92,-147.195 2113.24,-142.166 2102.81,-140.282 2103.92,-147.195"/>
</g>
<!-- Node9 -->
<g id="node9" class="node"><title>Node9</title>
<polygon fill="none" stroke="#bfbfbf" points="1618,-124.5 1618,-143.5 1680,-143.5 1680,-124.5 1618,-124.5"/>
<text text-anchor="middle" x="1649" y="-131.5" font-family="Helvetica,sans-Serif" font-size="10.00">arpa/inet.h</text>
</g>
<!-- Node3&#45;&gt;Node9 -->
<g id="edge8" class="edge"><title>Node3&#45;&gt;Node9</title>
<path fill="none" stroke="midnightblue" d="M1374.03,-184.096C1422.33,-176.589 1516.91,-161.455 1607.78,-143.958"/>
<polygon fill="midnightblue" stroke="midnightblue" points="1608.54,-147.375 1617.69,-142.036 1607.21,-140.503 1608.54,-147.375"/>
</g>
<!-- Node10 -->
<g id="node10" class="node"><title>Node10</title>
<polygon fill="none" stroke="#bfbfbf" points="1736.5,-124.5 1736.5,-143.5 1809.5,-143.5 1809.5,-124.5 1736.5,-124.5"/>
<text text-anchor="middle" x="1773" y="-131.5" font-family="Helvetica,sans-Serif" font-size="10.00">sys/socket.h</text>
</g>
<!-- Node3&#45;&gt;Node10 -->
<g id="edge9" class="edge"><title>Node3&#45;&gt;Node10</title>
<path fill="none" stroke="midnightblue" d="M1374.11,-185.82C1439.65,-179.191 1593.51,-162.93 1722,-144 1723.45,-143.787 1724.91,-143.565 1726.39,-143.336"/>
<polygon fill="midnightblue" stroke="midnightblue" points="1726.96,-146.79 1736.27,-141.739 1725.84,-139.88 1726.96,-146.79"/>
</g>
<!-- Node11 -->
<g id="node11" class="node"><title>Node11</title>
<polygon fill="none" stroke="#bfbfbf" points="1827.5,-124.5 1827.5,-143.5 1876.5,-143.5 1876.5,-124.5 1827.5,-124.5"/>
<text text-anchor="middle" x="1852" y="-131.5" font-family="Helvetica,sans-Serif" font-size="10.00">netdb.h</text>
</g>
<!-- Node3&#45;&gt;Node11 -->
<g id="edge10" class="edge"><title>Node3&#45;&gt;Node11</title>
<path fill="none" stroke="midnightblue" d="M1374.28,-187.78C1450.03,-184.53 1645.11,-173.896 1817.23,-143.835"/>
<polygon fill="midnightblue" stroke="midnightblue" points="1817.99,-147.255 1827.22,-142.063 1816.77,-140.363 1817.99,-147.255"/>
</g>
<!-- Node12 -->
<g id="node12" class="node"><title>Node12</title>
<polygon fill="none" stroke="#bfbfbf" points="1894.5,-124.5 1894.5,-143.5 1959.5,-143.5 1959.5,-124.5 1894.5,-124.5"/>
<text text-anchor="middle" x="1927" y="-131.5" font-family="Helvetica,sans-Serif" font-size="10.00">netinet/in.h</text>
</g>
<!-- Node3&#45;&gt;Node12 -->
<g id="edge11" class="edge"><title>Node3&#45;&gt;Node12</title>
<path fill="none" stroke="midnightblue" d="M1374.3,-187.772C1457.26,-184.309 1684.75,-172.874 1883.99,-143.957"/>
<polygon fill="midnightblue" stroke="midnightblue" points="1884.67,-147.394 1894.06,-142.477 1883.66,-140.469 1884.67,-147.394"/>
</g>
<!-- Node13 -->
<g id="node13" class="node"><title>Node13</title>
<polygon fill="none" stroke="#bfbfbf" points="1977.5,-124.5 1977.5,-143.5 2028.5,-143.5 2028.5,-124.5 1977.5,-124.5"/>
<text text-anchor="middle" x="2003" y="-131.5" font-family="Helvetica,sans-Serif" font-size="10.00">sched.h</text>
</g>
<!-- Node3&#45;&gt;Node13 -->
<g id="edge12" class="edge"><title>Node3&#45;&gt;Node13</title>
<path fill="none" stroke="midnightblue" d="M1374.16,-188.723C1465.6,-187.508 1734.93,-180.947 1967.5,-143.745"/>
<polygon fill="midnightblue" stroke="midnightblue" points="1968.19,-147.179 1977.5,-142.123 1967.07,-140.27 1968.19,-147.179"/>
</g>
<!-- Node14 -->
<g id="node14" class="node"><title>Node14</title>
<polygon fill="none" stroke="#bfbfbf" points="350,-124.5 350,-143.5 390,-143.5 390,-124.5 350,-124.5"/>
<text text-anchor="middle" x="370" y="-131.5" font-family="Helvetica,sans-Serif" font-size="10.00">poll.h</text>
</g>
<!-- Node3&#45;&gt;Node14 -->
<g id="edge13" class="edge"><title>Node3&#45;&gt;Node14</title>
<path fill="none" stroke="midnightblue" d="M1309.95,-188.559C1168.64,-186.449 599.702,-176.194 400.188,-143.675"/>
<polygon fill="midnightblue" stroke="midnightblue" points="400.567,-140.19 390.12,-141.959 399.39,-147.09 400.567,-140.19"/>
</g>
<!-- Node15 -->
<g id="node15" class="node"><title>Node15</title>
<polygon fill="none" stroke="#bfbfbf" points="408,-124.5 408,-143.5 458,-143.5 458,-124.5 408,-124.5"/>
<text text-anchor="middle" x="433" y="-131.5" font-family="Helvetica,sans-Serif" font-size="10.00">signal.h</text>
</g>
<!-- Node3&#45;&gt;Node15 -->
<g id="edge14" class="edge"><title>Node3&#45;&gt;Node15</title>
<path fill="none" stroke="midnightblue" d="M1309.56,-188.233C1174.23,-184.895 653.485,-170.665 468.019,-143.77"/>
<polygon fill="midnightblue" stroke="midnightblue" points="468.539,-140.309 458.127,-142.273 467.491,-147.23 468.539,-140.309"/>
</g>
<!-- Node16 -->
<g id="node16" class="node"><title>Node16</title>
<g id="a_node16"><a xlink:href="../../d9/d49/types_8h.html" target="_top" xlink:title="utils/types.h">
<polygon fill="none" stroke="black" points="476,-124.5 476,-143.5 546,-143.5 546,-124.5 476,-124.5"/>
<text text-anchor="middle" x="511" y="-131.5" font-family="Helvetica,sans-Serif" font-size="10.00">utils/types.h</text>
</a>
</g>
</g>
<!-- Node3&#45;&gt;Node16 -->
<g id="edge15" class="edge"><title>Node3&#45;&gt;Node16</title>
<path fill="none" stroke="midnightblue" d="M1309.99,-188.826C1203.94,-187.902 854.409,-182.069 556.595,-144.022"/>
<polygon fill="midnightblue" stroke="midnightblue" points="556.834,-140.524 546.467,-142.713 555.936,-147.466 556.834,-140.524"/>
</g>
<!-- Node17 -->
<g id="node17" class="node"><title>Node17</title>
<g id="a_node17"><a xlink:href="../../d0/d9b/enum_8h.html" target="_top" xlink:title="enum.h">
<polygon fill="none" stroke="black" points="2046.5,-124.5 2046.5,-143.5 2095.5,-143.5 2095.5,-124.5 2046.5,-124.5"/>
<text text-anchor="middle" x="2071" y="-131.5" font-family="Helvetica,sans-Serif" font-size="10.00">enum.h</text>
</a>
</g>
</g>
<!-- Node3&#45;&gt;Node17 -->
<g id="edge16" class="edge"><title>Node3&#45;&gt;Node17</title>
<path fill="none" stroke="midnightblue" d="M1374.11,-189.127C1472.15,-189.049 1776.16,-185.368 2036.23,-143.773"/>
<polygon fill="midnightblue" stroke="midnightblue" points="2036.93,-147.205 2046.24,-142.149 2035.81,-140.295 2036.93,-147.205"/>
</g>
<!-- Node19 -->
<g id="node19" class="node"><title>Node19</title>
<g id="a_node19"><a xlink:href="../../d8/d19/atomics_8h.html" target="_top" xlink:title="utils/atomics.h">
<polygon fill="none" stroke="black" points="564,-124.5 564,-143.5 644,-143.5 644,-124.5 564,-124.5"/>
<text text-anchor="middle" x="604" y="-131.5" font-family="Helvetica,sans-Serif" font-size="10.00">utils/atomics.h</text>
</a>
</g>
</g>
<!-- Node3&#45;&gt;Node19 -->
<g id="edge19" class="edge"><title>Node3&#45;&gt;Node19</title>
<path fill="none" stroke="midnightblue" d="M1309.94,-188.233C1212.73,-185.625 912.65,-175.513 654.009,-143.976"/>
<polygon fill="midnightblue" stroke="midnightblue" points="654.406,-140.499 644.053,-142.749 653.549,-147.446 654.406,-140.499"/>
</g>
<!-- Node20 -->
<g id="node20" class="node"><title>Node20</title>
<g id="a_node20"><a xlink:href="../../d1/ddf/align_8h.html" target="_top" xlink:title="utils/align.h">
<polygon fill="none" stroke="black" points="662,-124.5 662,-143.5 728,-143.5 728,-124.5 662,-124.5"/>
<text text-anchor="middle" x="695" y="-131.5" font-family="Helvetica,sans-Serif" font-size="10.00">utils/align.h</text>
</a>
</g>
</g>
<!-- Node3&#45;&gt;Node20 -->
<g id="edge20" class="edge"><title>Node3&#45;&gt;Node20</title>
<path fill="none" stroke="midnightblue" d="M1309.69,-188.152C1220.31,-185.477 962.086,-175.522 738.351,-144.007"/>
<polygon fill="midnightblue" stroke="midnightblue" points="738.79,-140.535 728.396,-142.587 737.802,-147.464 738.79,-140.535"/>
</g>
<!-- Node21 -->
<g id="node21" class="node"><title>Node21</title>
<g id="a_node21"><a xlink:href="../../d5/d17/byteorder_8h.html" target="_top" xlink:title="utils/byteorder.h">
<polygon fill="none" stroke="black" points="746,-124.5 746,-143.5 832,-143.5 832,-124.5 746,-124.5"/>
<text text-anchor="middle" x="789" y="-131.5" font-family="Helvetica,sans-Serif" font-size="10.00">utils/byteorder.h</text>
</a>
</g>
</g>
<!-- Node3&#45;&gt;Node21 -->
<g id="edge21" class="edge"><title>Node3&#45;&gt;Node21</title>
<path fill="none" stroke="midnightblue" d="M1309.96,-187.035C1231.81,-182.047 1025.07,-167.683 842.16,-144.051"/>
<polygon fill="midnightblue" stroke="midnightblue" points="842.458,-140.56 832.089,-142.737 841.552,-147.501 842.458,-140.56"/>
</g>
<!-- Node22 -->
<g id="node22" class="node"><title>Node22</title>
<g id="a_node22"><a xlink:href="../../dc/d18/memory_8h.html" target="_top" xlink:title="utils/memory.h">
<polygon fill="none" stroke="black" points="850.5,-124.5 850.5,-143.5 931.5,-143.5 931.5,-124.5 850.5,-124.5"/>
<text text-anchor="middle" x="891" y="-131.5" font-family="Helvetica,sans-Serif" font-size="10.00">utils/memory.h</text>
</a>
</g>
</g>
<!-- Node3&#45;&gt;Node22 -->
<g id="edge22" class="edge"><title>Node3&#45;&gt;Node22</title>
<path fill="none" stroke="midnightblue" d="M1309.85,-186.174C1243.16,-180.146 1084.7,-164.964 941.861,-144.19"/>
<polygon fill="midnightblue" stroke="midnightblue" points="942.008,-140.674 931.605,-142.685 940.991,-147.6 942.008,-140.674"/>
</g>
<!-- Node23 -->
<g id="node23" class="node"><title>Node23</title>
<g id="a_node23"><a xlink:href="../../d9/dd1/strerror_8h.html" target="_top" xlink:title="utils/strerror.h">
<polygon fill="none" stroke="black" points="949.5,-124.5 949.5,-143.5 1026.5,-143.5 1026.5,-124.5 949.5,-124.5"/>
<text text-anchor="middle" x="988" y="-131.5" font-family="Helvetica,sans-Serif" font-size="10.00">utils/strerror.h</text>
</a>
</g>
</g>
<!-- Node3&#45;&gt;Node23 -->
<g id="edge23" class="edge"><title>Node3&#45;&gt;Node23</title>
<path fill="none" stroke="midnightblue" d="M1309.66,-184.733C1255.37,-177.466 1142.22,-161.885 1036.87,-144.262"/>
<polygon fill="midnightblue" stroke="midnightblue" points="1037.15,-140.759 1026.7,-142.55 1035.98,-147.662 1037.15,-140.759"/>
</g>
<!-- Node24 -->
<g id="node24" class="node"><title>Node24</title>
<g id="a_node24"><a xlink:href="../../d1/d13/status_8h.html" target="_top" xlink:title="utils/status.h">
<polygon fill="none" stroke="black" points="1044.5,-124.5 1044.5,-143.5 1117.5,-143.5 1117.5,-124.5 1044.5,-124.5"/>
<text text-anchor="middle" x="1081" y="-131.5" font-family="Helvetica,sans-Serif" font-size="10.00">utils/status.h</text>
</a>
</g>
</g>
<!-- Node3&#45;&gt;Node24 -->
<g id="edge24" class="edge"><title>Node3&#45;&gt;Node24</title>
<path fill="none" stroke="midnightblue" d="M1310,-182.379C1264.44,-172.953 1180.59,-155.605 1127.98,-144.72"/>
<polygon fill="midnightblue" stroke="midnightblue" points="1128.39,-141.232 1117.89,-142.633 1126.98,-148.087 1128.39,-141.232"/>
</g>
<!-- Node25 -->
<g id="node25" class="node"><title>Node25</title>
<g id="a_node25"><a xlink:href="../../de/d10/object_8h.html" target="_top" xlink:title="utils/object.h">
<polygon fill="none" stroke="black" points="1136,-124.5 1136,-143.5 1208,-143.5 1208,-124.5 1136,-124.5"/>
<text text-anchor="middle" x="1172" y="-131.5" font-family="Helvetica,sans-Serif" font-size="10.00">utils/object.h</text>
</a>
</g>
</g>
<!-- Node3&#45;&gt;Node25 -->
<g id="edge25" class="edge"><title>Node3&#45;&gt;Node25</title>
<path fill="none" stroke="midnightblue" d="M1315.06,-180.444C1286.34,-171.32 1240.67,-156.813 1208.68,-146.651"/>
<polygon fill="midnightblue" stroke="midnightblue" points="1209.4,-143.208 1198.81,-143.516 1207.28,-149.88 1209.4,-143.208"/>
</g>
<!-- Node26 -->
<g id="node26" class="node"><title>Node26</title>
<g id="a_node26"><a xlink:href="../../d7/dd4/path_8h.html" target="_top" xlink:title="utils/path.h">
<polygon fill="none" stroke="black" points="1226.5,-124.5 1226.5,-143.5 1291.5,-143.5 1291.5,-124.5 1226.5,-124.5"/>
<text text-anchor="middle" x="1259" y="-131.5" font-family="Helvetica,sans-Serif" font-size="10.00">utils/path.h</text>
</a>
</g>
</g>
<!-- Node3&#45;&gt;Node26 -->
<g id="edge26" class="edge"><title>Node3&#45;&gt;Node26</title>
<path fill="none" stroke="midnightblue" d="M1328.66,-180.324C1315.84,-171.979 1296.22,-159.212 1281.06,-149.352"/>
<polygon fill="midnightblue" stroke="midnightblue" points="1282.59,-146.174 1272.3,-143.655 1278.78,-152.042 1282.59,-146.174"/>
</g>
<!-- Node27 -->
<g id="node27" class="node"><title>Node27</title>
<g id="a_node27"><a xlink:href="../../de/df7/time_8h.html" target="_top" xlink:title="utils/time.h">
<polygon fill="none" stroke="black" points="1309.5,-124.5 1309.5,-143.5 1374.5,-143.5 1374.5,-124.5 1309.5,-124.5"/>
<text text-anchor="middle" x="1342" y="-131.5" font-family="Helvetica,sans-Serif" font-size="10.00">utils/time.h</text>
</a>
</g>
</g>
<!-- Node3&#45;&gt;Node27 -->
<g id="edge27" class="edge"><title>Node3&#45;&gt;Node27</title>
<path fill="none" stroke="midnightblue" d="M1342,-180.083C1342,-173.006 1342,-162.861 1342,-153.986"/>
<polygon fill="midnightblue" stroke="midnightblue" points="1345.5,-153.751 1342,-143.751 1338.5,-153.751 1345.5,-153.751"/>
</g>
<!-- Node28 -->
<g id="node28" class="node"><title>Node28</title>
<g id="a_node28"><a xlink:href="../../dd/d71/tty_8h.html" target="_top" xlink:title="utils/tty.h">
<polygon fill="none" stroke="black" points="1392.5,-124.5 1392.5,-143.5 1449.5,-143.5 1449.5,-124.5 1392.5,-124.5"/>
<text text-anchor="middle" x="1421" y="-131.5" font-family="Helvetica,sans-Serif" font-size="10.00">utils/tty.h</text>
</a>
</g>
</g>
<!-- Node3&#45;&gt;Node28 -->
<g id="edge28" class="edge"><title>Node3&#45;&gt;Node28</title>
<path fill="none" stroke="midnightblue" d="M1354.69,-180.324C1366.9,-171.979 1385.58,-159.212 1400,-149.352"/>
<polygon fill="midnightblue" stroke="midnightblue" points="1402.06,-152.187 1408.34,-143.655 1398.11,-146.408 1402.06,-152.187"/>
</g>
<!-- Node18 -->
<g id="node18" class="node"><title>Node18</title>
<g id="a_node18"><a xlink:href="../../dc/d6a/printf__hook_8h.html" target="_top" xlink:title="utils/printf_hook/printf\l_hook.h">
<polygon fill="none" stroke="black" points="2016,-57 2016,-87 2126,-87 2126,-57 2016,-57"/>
<text text-anchor="start" x="2024" y="-75" font-family="Helvetica,sans-Serif" font-size="10.00">utils/printf_hook/printf</text>
<text text-anchor="middle" x="2071" y="-64" font-family="Helvetica,sans-Serif" font-size="10.00">_hook.h</text>
</a>
</g>
</g>
<!-- Node17&#45;&gt;Node18 -->
<g id="edge17" class="edge"><title>Node17&#45;&gt;Node18</title>
<path fill="none" stroke="midnightblue" d="M2071,-124.403C2071,-117.341 2071,-106.975 2071,-97.399"/>
<polygon fill="midnightblue" stroke="midnightblue" points="2074.5,-97.1408 2071,-87.1408 2067.5,-97.1408 2074.5,-97.1408"/>
</g>
<!-- Node18&#45;&gt;Node5 -->
<g id="edge18" class="edge"><title>Node18&#45;&gt;Node5</title>
<path fill="none" stroke="midnightblue" d="M2028.33,-56.9327C1996.14,-46.321 1952.59,-31.9626 1922.79,-22.1408"/>
<polygon fill="midnightblue" stroke="midnightblue" points="1923.85,-18.8029 1913.25,-18.9959 1921.66,-25.4509 1923.85,-18.8029"/>
</g>
<!-- Node29&#45;&gt;Node3 -->
<g id="edge32" class="edge"><title>Node29&#45;&gt;Node3</title>
<path fill="none" stroke="midnightblue" d="M2138.76,-237.946C2134.14,-237.204 2129.47,-236.528 2125,-236 1843.45,-202.694 1501.92,-193.798 1384.23,-191.637"/>
<polygon fill="midnightblue" stroke="midnightblue" points="1384.25,-188.137 1374.19,-191.459 1384.13,-195.136 1384.25,-188.137"/>
</g>
<!-- Node29&#45;&gt;Node4 -->
<g id="edge31" class="edge"><title>Node29&#45;&gt;Node4</title>
<path fill="none" stroke="midnightblue" d="M2178.14,-236.368C2184.62,-218.537 2199.62,-177.295 2208.36,-153.272"/>
<polygon fill="midnightblue" stroke="midnightblue" points="2211.75,-154.185 2211.88,-143.591 2205.17,-151.793 2211.75,-154.185"/>
</g>
<!-- Node29&#45;&gt;Node8 -->
<g id="edge30" class="edge"><title>Node29&#45;&gt;Node8</title>
<path fill="none" stroke="midnightblue" d="M2172.1,-236.368C2166.1,-218.537 2152.23,-177.295 2144.15,-153.272"/>
<polygon fill="midnightblue" stroke="midnightblue" points="2147.4,-151.954 2140.89,-143.591 2140.76,-154.185 2147.4,-151.954"/>
</g>
<!-- Node31&#45;&gt;Node3 -->
<g id="edge38" class="edge"><title>Node31&#45;&gt;Node3</title>
<path fill="none" stroke="midnightblue" d="M2037.7,-295.545C1914.96,-277.1 1515.78,-217.114 1384.37,-197.367"/>
<polygon fill="midnightblue" stroke="midnightblue" points="1384.7,-193.878 1374.3,-195.853 1383.66,-200.8 1384.7,-193.878"/>
</g>
<!-- Node31&#45;&gt;Node30 -->
<g id="edge37" class="edge"><title>Node31&#45;&gt;Node30</title>
<path fill="none" stroke="midnightblue" d="M2071.69,-292.083C2069.83,-284.927 2067.16,-274.635 2064.85,-265.691"/>
<polygon fill="midnightblue" stroke="midnightblue" points="2068.17,-264.553 2062.27,-255.751 2061.39,-266.309 2068.17,-264.553"/>
</g>
<!-- Node32&#45;&gt;Node3 -->
<g id="edge41" class="edge"><title>Node32&#45;&gt;Node3</title>
<path fill="none" stroke="midnightblue" d="M950.421,-424.43C822.275,-421.455 255.237,-406.805 230,-380 220.251,-369.645 220.673,-358.737 230,-348 301.88,-265.258 1105.43,-206.741 1299.84,-193.731"/>
<polygon fill="midnightblue" stroke="midnightblue" points="1300.2,-197.215 1309.94,-193.059 1299.73,-190.23 1300.2,-197.215"/>
</g>
<!-- Node32&#45;&gt;Node18 -->
<g id="edge40" class="edge"><title>Node32&#45;&gt;Node18</title>
<path fill="none" stroke="midnightblue" d="M1001.58,-424.815C1187.09,-423.392 2320.37,-413.351 2384,-380 2421.71,-360.234 2441,-345.579 2441,-303 2441,-303 2441,-303 2441,-189 2441,-125.904 2242.62,-93.0146 2136.38,-79.9253"/>
<polygon fill="midnightblue" stroke="midnightblue" points="2136.74,-76.4438 2126.39,-78.72 2135.9,-83.3934 2136.74,-76.4438"/>
</g>
<!-- Node32&#45;&gt;Node29 -->
<g id="edge65" class="edge"><title>Node32&#45;&gt;Node29</title>
<path fill="none" stroke="midnightblue" d="M1001.76,-424.939C1170.35,-424.425 2110.54,-419.778 2155,-380 2187.11,-351.275 2183.32,-294.868 2178.7,-265.604"/>
<polygon fill="midnightblue" stroke="midnightblue" points="2182.11,-264.742 2176.9,-255.513 2175.21,-265.972 2182.11,-264.742"/>
</g>
<!-- Node33 -->
<g id="node33" class="node"><title>Node33</title>
<g id="a_node33"><a xlink:href="../../d2/d0c/host__resolver_8h.html" target="_top" xlink:title="networking/host_resolver.h">
<polygon fill="none" stroke="black" points="2241,-354.5 2241,-373.5 2375,-373.5 2375,-354.5 2241,-354.5"/>
<text text-anchor="middle" x="2308" y="-361.5" font-family="Helvetica,sans-Serif" font-size="10.00">networking/host_resolver.h</text>
</a>
</g>
</g>
<!-- Node32&#45;&gt;Node33 -->
<g id="edge42" class="edge"><title>Node32&#45;&gt;Node33</title>
<path fill="none" stroke="midnightblue" d="M1001.66,-424.888C1129.81,-424.153 1713.26,-418.732 2189,-380 2205.16,-378.685 2222.49,-376.782 2238.79,-374.772"/>
<polygon fill="midnightblue" stroke="midnightblue" points="2239.31,-378.235 2248.79,-373.51 2238.43,-371.29 2239.31,-378.235"/>
</g>
<!-- Node34 -->
<g id="node34" class="node"><title>Node34</title>
<g id="a_node34"><a xlink:href="../../d7/d82/stream__manager_8h.html" target="_top" xlink:title="networking/streams\l/stream_manager.h">
<polygon fill="none" stroke="red" points="250,-349 250,-379 352,-379 352,-349 250,-349"/>
<text text-anchor="start" x="258" y="-367" font-family="Helvetica,sans-Serif" font-size="10.00">networking/streams</text>
<text text-anchor="middle" x="301" y="-356" font-family="Helvetica,sans-Serif" font-size="10.00">/stream_manager.h</text>
</a>
</g>
</g>
<!-- Node32&#45;&gt;Node34 -->
<g id="edge44" class="edge"><title>Node32&#45;&gt;Node34</title>
<path fill="none" stroke="midnightblue" d="M950.279,-424.75C865.647,-423.574 589.615,-417.016 356.547,-380.641"/>
<polygon fill="midnightblue" stroke="midnightblue" points="356.956,-377.162 346.531,-379.055 355.861,-384.076 356.956,-377.162"/>
</g>
<!-- Node35 -->
<g id="node35" class="node"><title>Node35</title>
<g id="a_node35"><a xlink:href="../../d9/d99/processor_8h.html" target="_top" xlink:title="processing/processor.h">
<polygon fill="none" stroke="red" points="0,-292.5 0,-311.5 118,-311.5 118,-292.5 0,-292.5"/>
<text text-anchor="middle" x="59" y="-299.5" font-family="Helvetica,sans-Serif" font-size="10.00">processing/processor.h</text>
</a>
</g>
</g>
<!-- Node32&#45;&gt;Node35 -->
<g id="edge46" class="edge"><title>Node32&#45;&gt;Node35</title>
<path fill="none" stroke="midnightblue" d="M950.244,-424.784C815.788,-423.456 199.349,-415.261 123,-380 95.626,-367.357 73.4129,-339.402 63.3052,-320.884"/>
<polygon fill="midnightblue" stroke="midnightblue" points="66.4148,-319.272 58.9793,-311.725 60.0852,-322.262 66.4148,-319.272"/>
</g>
<!-- Node36 -->
<g id="node36" class="node"><title>Node36</title>
<g id="a_node36"><a xlink:href="../../d2/dd8/scheduler_8h.html" target="_top" xlink:title="processing/scheduler.h">
<polygon fill="none" stroke="red" points="370.5,-354.5 370.5,-373.5 487.5,-373.5 487.5,-354.5 370.5,-354.5"/>
<text text-anchor="middle" x="429" y="-361.5" font-family="Helvetica,sans-Serif" font-size="10.00">processing/scheduler.h</text>
</a>
</g>
</g>
<!-- Node32&#45;&gt;Node36 -->
<g id="edge50" class="edge"><title>Node32&#45;&gt;Node36</title>
<path fill="none" stroke="midnightblue" d="M950.288,-423.91C877.134,-420.311 663.148,-407.438 488,-380 480.528,-378.829 472.646,-377.335 465.134,-375.745"/>
<polygon fill="midnightblue" stroke="midnightblue" points="465.711,-372.288 455.19,-373.539 464.195,-379.122 465.711,-372.288"/>
</g>
<!-- Node37 -->
<g id="node37" class="node"><title>Node37</title>
<g id="a_node37"><a xlink:href="../../dd/d33/watcher_8h.html" target="_top" xlink:title="processing/watcher.h">
<polygon fill="none" stroke="black" points="506,-354.5 506,-373.5 616,-373.5 616,-354.5 506,-354.5"/>
<text text-anchor="middle" x="561" y="-361.5" font-family="Helvetica,sans-Serif" font-size="10.00">processing/watcher.h</text>
</a>
</g>
</g>
<!-- Node32&#45;&gt;Node37 -->
<g id="edge52" class="edge"><title>Node32&#45;&gt;Node37</title>
<path fill="none" stroke="midnightblue" d="M950.137,-423.022C890.459,-417.784 739.935,-402.407 616,-380 609.441,-378.814 602.543,-377.389 595.91,-375.894"/>
<polygon fill="midnightblue" stroke="midnightblue" points="596.326,-372.397 585.791,-373.515 594.724,-379.211 596.326,-372.397"/>
</g>
<!-- Node38 -->
<g id="node38" class="node"><title>Node38</title>
<g id="a_node38"><a xlink:href="../../d4/d1b/crypto__factory_8h.html" target="_top" xlink:title="crypto/crypto_factory.h">
<polygon fill="none" stroke="red" points="634.5,-354.5 634.5,-373.5 751.5,-373.5 751.5,-354.5 634.5,-354.5"/>
<text text-anchor="middle" x="693" y="-361.5" font-family="Helvetica,sans-Serif" font-size="10.00">crypto/crypto_factory.h</text>
</a>
</g>
</g>
<!-- Node32&#45;&gt;Node38 -->
<g id="edge54" class="edge"><title>Node32&#45;&gt;Node38</title>
<path fill="none" stroke="midnightblue" d="M950.196,-420.82C907.998,-412.988 822.699,-395.494 751,-380 744.73,-378.645 738.136,-377.197 731.714,-375.755"/>
<polygon fill="midnightblue" stroke="midnightblue" points="732.363,-372.313 721.836,-373.508 730.811,-379.139 732.363,-372.313"/>
</g>
<!-- Node39 -->
<g id="node39" class="node"><title>Node39</title>
<g id="a_node39"><a xlink:href="../../d3/dc3/proposal__keywords_8h.html" target="_top" xlink:title="crypto/proposal/proposal\l_keywords.h">
<polygon fill="none" stroke="red" points="769.5,-349 769.5,-379 892.5,-379 892.5,-349 769.5,-349"/>
<text text-anchor="start" x="777.5" y="-367" font-family="Helvetica,sans-Serif" font-size="10.00">crypto/proposal/proposal</text>
<text text-anchor="middle" x="831" y="-356" font-family="Helvetica,sans-Serif" font-size="10.00">_keywords.h</text>
</a>
</g>
</g>
<!-- Node32&#45;&gt;Node39 -->
<g id="edge56" class="edge"><title>Node32&#45;&gt;Node39</title>
<path fill="none" stroke="midnightblue" d="M950.324,-416.403C927.553,-407.755 894.234,-394.155 868.523,-383.115"/>
<polygon fill="midnightblue" stroke="midnightblue" points="869.647,-379.788 859.079,-379.025 866.865,-386.211 869.647,-379.788"/>
</g>
<!-- Node40 -->
<g id="node40" class="node"><title>Node40</title>
<g id="a_node40"><a xlink:href="../../d3/db8/fetcher__manager_8h.html" target="_top" xlink:title="fetcher/fetcher_manager.h">
<polygon fill="none" stroke="red" points="910.5,-354.5 910.5,-373.5 1041.5,-373.5 1041.5,-354.5 910.5,-354.5"/>
<text text-anchor="middle" x="976" y="-361.5" font-family="Helvetica,sans-Serif" font-size="10.00">fetcher/fetcher_manager.h</text>
</a>
</g>
</g>
<!-- Node32&#45;&gt;Node40 -->
<g id="edge58" class="edge"><title>Node32&#45;&gt;Node40</title>
<path fill="none" stroke="midnightblue" d="M976,-416.403C976,-407.938 976,-394.728 976,-383.82"/>
<polygon fill="midnightblue" stroke="midnightblue" points="979.5,-383.581 976,-373.581 972.5,-383.581 979.5,-383.581"/>
</g>
<!-- Node41 -->
<g id="node41" class="node"><title>Node41</title>
<g id="a_node41"><a xlink:href="../../d0/d65/resolver__manager_8h.html" target="_top" xlink:title="resolver/resolver_manager.h">
<polygon fill="none" stroke="red" points="1060,-354.5 1060,-373.5 1200,-373.5 1200,-354.5 1060,-354.5"/>
<text text-anchor="middle" x="1130" y="-361.5" font-family="Helvetica,sans-Serif" font-size="10.00">resolver/resolver_manager.h</text>
</a>
</g>
</g>
<!-- Node32&#45;&gt;Node41 -->
<g id="edge59" class="edge"><title>Node32&#45;&gt;Node41</title>
<path fill="none" stroke="midnightblue" d="M998.064,-416.403C1024.37,-406.156 1068.51,-388.956 1098.42,-377.302"/>
<polygon fill="midnightblue" stroke="midnightblue" points="1099.93,-380.472 1107.98,-373.581 1097.39,-373.95 1099.93,-380.472"/>
</g>
<!-- Node42 -->
<g id="node42" class="node"><title>Node42</title>
<g id="a_node42"><a xlink:href="../../d7/db6/database__factory_8h.html" target="_top" xlink:title="database/database_factory.h">
<polygon fill="none" stroke="red" points="1218.5,-354.5 1218.5,-373.5 1361.5,-373.5 1361.5,-354.5 1218.5,-354.5"/>
<text text-anchor="middle" x="1290" y="-361.5" font-family="Helvetica,sans-Serif" font-size="10.00">database/database_factory.h</text>
</a>
</g>
</g>
<!-- Node32&#45;&gt;Node42 -->
<g id="edge60" class="edge"><title>Node32&#45;&gt;Node42</title>
<path fill="none" stroke="midnightblue" d="M1001.7,-420.09C1052.48,-410.387 1166.68,-388.564 1235.13,-375.484"/>
<polygon fill="midnightblue" stroke="midnightblue" points="1236.13,-378.857 1245.3,-373.542 1234.82,-371.981 1236.13,-378.857"/>
</g>
<!-- Node43 -->
<g id="node43" class="node"><title>Node43</title>
<g id="a_node43"><a xlink:href="../../d3/dc9/credential__factory_8h.html" target="_top" xlink:title="credentials/credential\l_factory.h">
<polygon fill="none" stroke="red" points="1379.5,-349 1379.5,-379 1488.5,-379 1488.5,-349 1379.5,-349"/>
<text text-anchor="start" x="1387.5" y="-367" font-family="Helvetica,sans-Serif" font-size="10.00">credentials/credential</text>
<text text-anchor="middle" x="1434" y="-356" font-family="Helvetica,sans-Serif" font-size="10.00">_factory.h</text>
</a>
</g>
</g>
<!-- Node32&#45;&gt;Node43 -->
<g id="edge61" class="edge"><title>Node32&#45;&gt;Node43</title>
<path fill="none" stroke="midnightblue" d="M1001.96,-423.088C1063.82,-418.309 1224.85,-404.553 1369.34,-379.98"/>
<polygon fill="midnightblue" stroke="midnightblue" points="1370.01,-383.416 1379.27,-378.269 1368.82,-376.517 1370.01,-383.416"/>
</g>
<!-- Node44 -->
<g id="node44" class="node"><title>Node44</title>
<g id="a_node44"><a xlink:href="../../d1/db3/credential__manager_8h.html" target="_top" xlink:title="credentials/credential\l_manager.h">
<polygon fill="none" stroke="red" points="1506.5,-349 1506.5,-379 1615.5,-379 1615.5,-349 1506.5,-349"/>
<text text-anchor="start" x="1514.5" y="-367" font-family="Helvetica,sans-Serif" font-size="10.00">credentials/credential</text>
<text text-anchor="middle" x="1561" y="-356" font-family="Helvetica,sans-Serif" font-size="10.00">_manager.h</text>
</a>
</g>
</g>
<!-- Node32&#45;&gt;Node44 -->
<g id="edge62" class="edge"><title>Node32&#45;&gt;Node44</title>
<path fill="none" stroke="midnightblue" d="M1001.64,-424.094C1076.39,-421.176 1300.66,-410.469 1496.4,-379.933"/>
<polygon fill="midnightblue" stroke="midnightblue" points="1496.96,-383.388 1506.29,-378.369 1495.87,-376.474 1496.96,-383.388"/>
</g>
<!-- Node45 -->
<g id="node45" class="node"><title>Node45</title>
<g id="a_node45"><a xlink:href="../../d6/d2f/cred__encoding_8h.html" target="_top" xlink:title="credentials/cred_encoding.h">
<polygon fill="none" stroke="black" points="1634,-354.5 1634,-373.5 1772,-373.5 1772,-354.5 1634,-354.5"/>
<text text-anchor="middle" x="1703" y="-361.5" font-family="Helvetica,sans-Serif" font-size="10.00">credentials/cred_encoding.h</text>
</a>
</g>
</g>
<!-- Node32&#45;&gt;Node45 -->
<g id="edge63" class="edge"><title>Node32&#45;&gt;Node45</title>
<path fill="none" stroke="midnightblue" d="M1001.64,-424.194C1088.42,-421.416 1377.62,-410.669 1615,-380 1624.45,-378.779 1634.48,-377.142 1644.28,-375.398"/>
<polygon fill="midnightblue" stroke="midnightblue" points="1645.17,-378.794 1654.38,-373.554 1643.91,-371.908 1645.17,-378.794"/>
</g>
<!-- Node46 -->
<g id="node46" class="node"><title>Node46</title>
<g id="a_node46"><a xlink:href="../../d8/d14/capabilities_8h.html" target="_top" xlink:title="utils/capabilities.h">
<polygon fill="none" stroke="black" points="1790.5,-354.5 1790.5,-373.5 1885.5,-373.5 1885.5,-354.5 1790.5,-354.5"/>
<text text-anchor="middle" x="1838" y="-361.5" font-family="Helvetica,sans-Serif" font-size="10.00">utils/capabilities.h</text>
</a>
</g>
</g>
<!-- Node32&#45;&gt;Node46 -->
<g id="edge66" class="edge"><title>Node32&#45;&gt;Node46</title>
<path fill="none" stroke="midnightblue" d="M1001.6,-425.479C1101.32,-426.764 1471.62,-427.422 1772,-380 1778.3,-379.005 1784.91,-377.605 1791.44,-376.057"/>
<polygon fill="midnightblue" stroke="midnightblue" points="1792.72,-379.347 1801.58,-373.537 1791.03,-372.553 1792.72,-379.347"/>
</g>
<!-- Node47 -->
<g id="node47" class="node"><title>Node47</title>
<g id="a_node47"><a xlink:href="../../df/d43/integrity__checker_8h.html" target="_top" xlink:title="utils/integrity_checker.h">
<polygon fill="none" stroke="black" points="87,-236.5 87,-255.5 207,-255.5 207,-236.5 87,-236.5"/>
<text text-anchor="middle" x="147" y="-243.5" font-family="Helvetica,sans-Serif" font-size="10.00">utils/integrity_checker.h</text>
</a>
</g>
</g>
<!-- Node32&#45;&gt;Node47 -->
<g id="edge68" class="edge"><title>Node32&#45;&gt;Node47</title>
<path fill="none" stroke="midnightblue" d="M950.253,-424.456C815.854,-421.506 199.826,-406.567 170,-380 137.715,-351.243 140.02,-294.85 143.826,-265.596"/>
<polygon fill="midnightblue" stroke="midnightblue" points="147.316,-265.918 145.343,-255.509 140.394,-264.877 147.316,-265.918"/>
</g>
<!-- Node48 -->
<g id="node48" class="node"><title>Node48</title>
<g id="a_node48"><a xlink:href="../../de/d86/leak__detective_8h.html" target="_top" xlink:title="utils/leak_detective.h">
<polygon fill="none" stroke="red" points="1903.5,-354.5 1903.5,-373.5 2012.5,-373.5 2012.5,-354.5 1903.5,-354.5"/>
<text text-anchor="middle" x="1958" y="-361.5" font-family="Helvetica,sans-Serif" font-size="10.00">utils/leak_detective.h</text>
</a>
</g>
</g>
<!-- Node32&#45;&gt;Node48 -->
<g id="edge70" class="edge"><title>Node32&#45;&gt;Node48</title>
<path fill="none" stroke="midnightblue" d="M1001.55,-424.302C1130.26,-420.881 1706.84,-405.034 1885,-380 1892.55,-378.939 1900.52,-377.411 1908.33,-375.731"/>
<polygon fill="midnightblue" stroke="midnightblue" points="1909.1,-379.144 1918.1,-373.546 1907.58,-372.313 1909.1,-379.144"/>
</g>
<!-- Node49 -->
<g id="node49" class="node"><title>Node49</title>
<g id="a_node49"><a xlink:href="../../de/db6/plugin__loader_8h.html" target="_top" xlink:title="plugins/plugin_loader.h">
<polygon fill="none" stroke="red" points="2031,-354.5 2031,-373.5 2147,-373.5 2147,-354.5 2031,-354.5"/>
<text text-anchor="middle" x="2089" y="-361.5" font-family="Helvetica,sans-Serif" font-size="10.00">plugins/plugin_loader.h</text>
</a>
</g>
</g>
<!-- Node32&#45;&gt;Node49 -->
<g id="edge72" class="edge"><title>Node32&#45;&gt;Node49</title>
<path fill="none" stroke="midnightblue" d="M1001.54,-424.504C1141.32,-421.697 1814.83,-406.969 2021,-380 2029.1,-378.941 2037.65,-377.397 2045.86,-375.697"/>
<polygon fill="midnightblue" stroke="midnightblue" points="2046.63,-379.113 2055.66,-373.569 2045.14,-372.273 2046.63,-379.113"/>
</g>
<!-- Node50 -->
<g id="node50" class="node"><title>Node50</title>
<g id="a_node50"><a xlink:href="../../de/d60/settings_8h.html" target="_top" xlink:title="settings/settings.h">
<polygon fill="none" stroke="red" points="766.5,-292.5 766.5,-311.5 863.5,-311.5 863.5,-292.5 766.5,-292.5"/>
<text text-anchor="middle" x="815" y="-299.5" font-family="Helvetica,sans-Serif" font-size="10.00">settings/settings.h</text>
</a>
</g>
</g>
<!-- Node32&#45;&gt;Node50 -->
<g id="edge74" class="edge"><title>Node32&#45;&gt;Node50</title>
<path fill="none" stroke="midnightblue" d="M950.379,-424.406C823.31,-421.336 265.827,-406.394 241,-380 231.255,-369.641 231.344,-358.442 241,-348 275.469,-310.723 616.748,-304.271 756.149,-303.196"/>
<polygon fill="midnightblue" stroke="midnightblue" points="756.252,-306.695 766.227,-303.125 756.203,-299.695 756.252,-306.695"/>
</g>
<!-- Node33&#45;&gt;Node2 -->
<g id="edge43" class="edge"><title>Node33&#45;&gt;Node2</title>
<path fill="none" stroke="midnightblue" d="M2298.11,-354.403C2287.35,-345.047 2269.93,-329.895 2256.78,-318.46"/>
<polygon fill="midnightblue" stroke="midnightblue" points="2258.71,-315.501 2248.87,-311.581 2254.12,-320.784 2258.71,-315.501"/>
</g>
<!-- Node34&#45;&gt;Node32 -->
<g id="edge45" class="edge"><title>Node34&#45;&gt;Node32</title>
<path fill="none" stroke="midnightblue" d="M352.008,-376.491C358.074,-377.839 364.169,-379.065 370,-380 584.762,-414.44 845.999,-422.558 940.176,-424.442"/>
<polygon fill="midnightblue" stroke="midnightblue" points="940.243,-427.944 950.308,-424.633 940.376,-420.945 940.243,-427.944"/>
</g>
<!-- Node35&#45;&gt;Node3 -->
<g id="edge47" class="edge"><title>Node35&#45;&gt;Node3</title>
<path fill="none" stroke="midnightblue" d="M58.6129,-292.089C58.5298,-277.655 60.7379,-249.425 78,-236 127.246,-197.701 1085.42,-191.937 1299.73,-191.126"/>
<polygon fill="midnightblue" stroke="midnightblue" points="1299.95,-194.625 1309.94,-191.089 1299.92,-187.625 1299.95,-194.625"/>
</g>
<!-- Node35&#45;&gt;Node5 -->
<g id="edge48" class="edge"><title>Node35&#45;&gt;Node5</title>
<path fill="none" stroke="midnightblue" d="M53.7163,-292.231C43.2749,-274.043 21,-230.601 21,-191 21,-191 21,-191 21,-133 21,-37.3823 1600.05,-14.4599 1854.56,-11.3863"/>
<polygon fill="midnightblue" stroke="midnightblue" points="1854.74,-14.8845 1864.7,-11.266 1854.66,-7.88501 1854.74,-14.8845"/>
</g>
<!-- Node35&#45;&gt;Node32 -->
<g id="edge49" class="edge"><title>Node35&#45;&gt;Node32</title>
<path fill="none" stroke="midnightblue" d="M69.1458,-311.725C83.3628,-328.523 108.557,-365.016 141,-380 214.583,-413.984 789.845,-422.827 940.215,-424.611"/>
<polygon fill="midnightblue" stroke="midnightblue" points="940.255,-428.112 950.295,-424.728 940.336,-421.113 940.255,-428.112"/>
</g>
<!-- Node36&#45;&gt;Node32 -->
<g id="edge51" class="edge"><title>Node36&#45;&gt;Node32</title>
<path fill="none" stroke="midnightblue" d="M472.382,-373.539C483.397,-375.91 495.131,-378.297 506,-380 666.975,-405.217 860.757,-418.133 939.893,-422.852"/>
<polygon fill="midnightblue" stroke="midnightblue" points="940.095,-426.37 950.284,-423.464 940.507,-419.382 940.095,-426.37"/>
</g>
<!-- Node37&#45;&gt;Node32 -->
<g id="edge53" class="edge"><title>Node37&#45;&gt;Node32</title>
<path fill="none" stroke="midnightblue" d="M603.034,-373.515C613.225,-375.829 624.005,-378.193 634,-380 745.157,-400.097 877.702,-414.538 940.24,-421.082"/>
<polygon fill="midnightblue" stroke="midnightblue" points="940.064,-424.582 950.373,-422.137 940.79,-417.62 940.064,-424.582"/>
</g>
<!-- Node38&#45;&gt;Node32 -->
<g id="edge55" class="edge"><title>Node38&#45;&gt;Node32</title>
<path fill="none" stroke="midnightblue" d="M739.245,-373.508C749.139,-375.655 759.446,-377.935 769,-380 829.23,-393.015 899.057,-407.443 940.403,-416.368"/>
<polygon fill="midnightblue" stroke="midnightblue" points="939.762,-419.81 950.278,-418.514 941.249,-412.97 939.762,-419.81"/>
</g>
<!-- Node39&#45;&gt;Node32 -->
<g id="edge57" class="edge"><title>Node39&#45;&gt;Node32</title>
<path fill="none" stroke="midnightblue" d="M870.71,-379.025C896.265,-389.062 928.601,-402.465 950.735,-412.209"/>
<polygon fill="midnightblue" stroke="midnightblue" points="949.568,-415.521 960.126,-416.403 952.422,-409.13 949.568,-415.521"/>
</g>
<!-- Node45&#45;&gt;Node32 -->
<g id="edge64" class="edge"><title>Node45&#45;&gt;Node32</title>
<path fill="none" stroke="midnightblue" d="M1671.54,-373.554C1659.52,-375.954 1645.74,-378.354 1633,-380 1397.49,-410.428 1110.98,-421.246 1011.71,-424.126"/>
<polygon fill="midnightblue" stroke="midnightblue" points="1011.51,-420.63 1001.62,-424.41 1011.71,-427.628 1011.51,-420.63"/>
</g>
<!-- Node46&#45;&gt;Node32 -->
<g id="edge67" class="edge"><title>Node46&#45;&gt;Node32</title>
<path fill="none" stroke="midnightblue" d="M1818.66,-373.537C1809.93,-376.028 1799.6,-378.484 1790,-380 1492.65,-426.944 1126.77,-426.773 1012.02,-425.517"/>
<polygon fill="midnightblue" stroke="midnightblue" points="1011.76,-422.014 1001.71,-425.394 1011.67,-429.013 1011.76,-422.014"/>
</g>
<!-- Node47&#45;&gt;Node3 -->
<g id="edge69" class="edge"><title>Node47&#45;&gt;Node3</title>
<path fill="none" stroke="midnightblue" d="M207.134,-237.274C211.821,-236.798 216.485,-236.365 221,-236 640.948,-202.09 1151.56,-193.357 1299.8,-191.464"/>
<polygon fill="midnightblue" stroke="midnightblue" points="1299.88,-194.964 1309.84,-191.34 1299.8,-187.964 1299.88,-194.964"/>
</g>
<!-- Node48&#45;&gt;Node32 -->
<g id="edge71" class="edge"><title>Node48&#45;&gt;Node32</title>
<path fill="none" stroke="midnightblue" d="M1935.18,-373.546C1925.32,-376.037 1913.74,-378.491 1903,-380 1726.88,-404.748 1161.39,-420.518 1012.26,-424.18"/>
<polygon fill="midnightblue" stroke="midnightblue" points="1011.77,-420.691 1001.85,-424.432 1011.94,-427.688 1011.77,-420.691"/>
</g>
<!-- Node49&#45;&gt;Node31 -->
<g id="edge73" class="edge"><title>Node49&#45;&gt;Node31</title>
<path fill="none" stroke="midnightblue" d="M2086.85,-354.403C2084.71,-345.849 2081.36,-332.45 2078.62,-321.476"/>
<polygon fill="midnightblue" stroke="midnightblue" points="2081.97,-320.433 2076.15,-311.581 2075.18,-322.131 2081.97,-320.433"/>
</g>
<!-- Node50&#45;&gt;Node3 -->
<g id="edge75" class="edge"><title>Node50&#45;&gt;Node3</title>
<path fill="none" stroke="midnightblue" d="M855.914,-292.46C953.781,-272.032 1200.61,-220.513 1299.78,-199.812"/>
<polygon fill="midnightblue" stroke="midnightblue" points="1300.67,-203.202 1309.74,-197.733 1299.24,-196.35 1300.67,-203.202"/>
</g>
</g>
</svg>
