<?xml version="1.0" encoding="UTF-8" standalone="no"?>
<!DOCTYPE svg PUBLIC "-//W3C//DTD SVG 1.1//EN"
 "http://www.w3.org/Graphics/SVG/1.1/DTD/svg11.dtd">
<!-- Generated by graphviz version 2.36.0 (20140111.2315)
 -->
<!-- Title: tnccs_tncs_contact_info_msg.h Pages: 1 -->
<svg width="201pt" height="108pt"
 viewBox="0.00 0.00 201.00 108.00" xmlns="http://www.w3.org/2000/svg" xmlns:xlink="http://www.w3.org/1999/xlink">
<g id="graph0" class="graph" transform="scale(1 1) rotate(0) translate(4 104)">
<title>tnccs_tncs_contact_info_msg.h</title>
<!-- Node1 -->
<g id="node1" class="node"><title>Node1</title>
<polygon fill="#bfbfbf" stroke="black" points="38,-69 38,-99 140,-99 140,-69 38,-69"/>
<text text-anchor="start" x="46" y="-87" font-family="Helvetica,sans-Serif" font-size="10.00">tnccs_tncs_contact</text>
<text text-anchor="middle" x="89" y="-76" font-family="Helvetica,sans-Serif" font-size="10.00">_info_msg.h</text>
</g>
<!-- Node2 -->
<g id="node2" class="node"><title>Node2</title>
<g id="a_node2"><a xlink:href="../../d4/dc7/tnccs__msg_8c.html" target="_top" xlink:title="tnccs_msg.c">
<polygon fill="none" stroke="black" points="-0.5,-6.5 -0.5,-25.5 72.5,-25.5 72.5,-6.5 -0.5,-6.5"/>
<text text-anchor="middle" x="36" y="-13.5" font-family="Helvetica,sans-Serif" font-size="10.00">tnccs_msg.c</text>
</a>
</g>
</g>
<!-- Node1&#45;&gt;Node2 -->
<g id="edge1" class="edge"><title>Node1&#45;&gt;Node2</title>
<path fill="none" stroke="midnightblue" d="M71.1896,-60.821C61.5742,-48.8471 50.2425,-34.7359 43.0894,-25.8283"/>
<polygon fill="midnightblue" stroke="midnightblue" points="68.5094,-63.0733 77.4998,-68.679 73.9674,-58.6903 68.5094,-63.0733"/>
</g>
<!-- Node3 -->
<g id="node3" class="node"><title>Node3</title>
<g id="a_node3"><a xlink:href="../../d0/df3/tnccs__tncs__contact__info__msg_8c.html" target="_top" xlink:title="tnccs_tncs_contact\l_info_msg.c">
<polygon fill="none" stroke="black" points="91,-1 91,-31 193,-31 193,-1 91,-1"/>
<text text-anchor="start" x="99" y="-19" font-family="Helvetica,sans-Serif" font-size="10.00">tnccs_tncs_contact</text>
<text text-anchor="middle" x="142" y="-8" font-family="Helvetica,sans-Serif" font-size="10.00">_info_msg.c</text>
</a>
</g>
</g>
<!-- Node1&#45;&gt;Node3 -->
<g id="edge2" class="edge"><title>Node1&#45;&gt;Node3</title>
<path fill="none" stroke="midnightblue" d="M106.981,-60.608C114.767,-50.9125 123.651,-39.8499 130.522,-31.2931"/>
<polygon fill="midnightblue" stroke="midnightblue" points="104.033,-58.6903 100.5,-68.679 109.491,-63.0733 104.033,-58.6903"/>
</g>
</g>
</svg>
