<?xml version="1.0" encoding="UTF-8" standalone="no"?>
<!DOCTYPE svg PUBLIC "-//W3C//DTD SVG 1.1//EN"
 "http://www.w3.org/Graphics/SVG/1.1/DTD/svg11.dtd">
<!-- Generated by graphviz version 2.36.0 (20140111.2315)
 -->
<!-- Title: imc_imv_msg_create Pages: 1 -->
<svg width="482pt" height="85pt"
 viewBox="0.00 0.00 482.00 85.00" xmlns="http://www.w3.org/2000/svg" xmlns:xlink="http://www.w3.org/1999/xlink">
<g id="graph0" class="graph" transform="scale(1 1) rotate(0) translate(4 81)">
<title>imc_imv_msg_create</title>
<!-- Node1 -->
<g id="node1" class="node"><title>Node1</title>
<polygon fill="#bfbfbf" stroke="black" points="0,-19.5 0,-38.5 110,-38.5 110,-19.5 0,-19.5"/>
<text text-anchor="middle" x="55" y="-26.5" font-family="Helvetica,sans-Serif" font-size="10.00">imc_imv_msg_create</text>
</g>
<!-- Node2 -->
<g id="node2" class="node"><title>Node2</title>
<g id="a_node2"><a xlink:href="../../d7/db2/imc__imv__msg_8c.html#a73aa0aa84e02c660d03788725782b573" target="_top" xlink:title="encode_base64">
<polygon fill="none" stroke="black" points="146.5,-38.5 146.5,-57.5 231.5,-57.5 231.5,-38.5 146.5,-38.5"/>
<text text-anchor="middle" x="189" y="-45.5" font-family="Helvetica,sans-Serif" font-size="10.00">encode_base64</text>
</a>
</g>
</g>
<!-- Node1&#45;&gt;Node2 -->
<g id="edge1" class="edge"><title>Node1&#45;&gt;Node2</title>
<path fill="none" stroke="midnightblue" d="M110.07,-36.7828C118.77,-38.0351 127.755,-39.3284 136.395,-40.572"/>
<polygon fill="midnightblue" stroke="midnightblue" points="135.944,-44.0431 146.341,-42.0036 136.941,-37.1145 135.944,-44.0431"/>
</g>
<!-- Node6 -->
<g id="node6" class="node"><title>Node6</title>
<g id="a_node6"><a xlink:href="../../da/dfc/settings__parser_8c.html#af07d89f5ceaea0c7c8252cc41fd75f37" target="_top" xlink:title="free">
<polygon fill="none" stroke="black" points="172.5,-0.5 172.5,-19.5 205.5,-19.5 205.5,-0.5 172.5,-0.5"/>
<text text-anchor="middle" x="189" y="-7.5" font-family="Helvetica,sans-Serif" font-size="10.00">free</text>
</a>
</g>
</g>
<!-- Node1&#45;&gt;Node6 -->
<g id="edge6" class="edge"><title>Node1&#45;&gt;Node6</title>
<path fill="none" stroke="midnightblue" d="M110.07,-21.2172C128.175,-18.6112 147.518,-15.827 162.404,-13.6843"/>
<polygon fill="midnightblue" stroke="midnightblue" points="162.975,-17.1383 172.374,-12.2492 161.977,-10.2097 162.975,-17.1383"/>
</g>
<!-- Node3 -->
<g id="node3" class="node"><title>Node3</title>
<g id="a_node3"><a xlink:href="../../d4/d87/group__chunk.html#gad94ca029616a107e89eaa618408fd7b6" target="_top" xlink:title="chunk_create">
<polygon fill="none" stroke="black" points="398.5,-57.5 398.5,-76.5 473.5,-76.5 473.5,-57.5 398.5,-57.5"/>
<text text-anchor="middle" x="436" y="-64.5" font-family="Helvetica,sans-Serif" font-size="10.00">chunk_create</text>
</a>
</g>
</g>
<!-- Node2&#45;&gt;Node3 -->
<g id="edge2" class="edge"><title>Node2&#45;&gt;Node3</title>
<path fill="none" stroke="midnightblue" d="M231.561,-51.2231C275.004,-54.5922 343.03,-59.8676 388.301,-63.3784"/>
<polygon fill="midnightblue" stroke="midnightblue" points="388.202,-66.8812 398.443,-64.165 388.744,-59.9022 388.202,-66.8812"/>
</g>
<!-- Node4 -->
<g id="node4" class="node"><title>Node4</title>
<g id="a_node4"><a xlink:href="../../d4/d87/group__chunk.html#ga7aad3a3d9985c020b0a97a25b8d32daa" target="_top" xlink:title="chunk_to_base64">
<polygon fill="none" stroke="black" points="268.5,-19.5 268.5,-38.5 361.5,-38.5 361.5,-19.5 268.5,-19.5"/>
<text text-anchor="middle" x="315" y="-26.5" font-family="Helvetica,sans-Serif" font-size="10.00">chunk_to_base64</text>
</a>
</g>
</g>
<!-- Node2&#45;&gt;Node4 -->
<g id="edge3" class="edge"><title>Node2&#45;&gt;Node4</title>
<path fill="none" stroke="midnightblue" d="M231.635,-41.6204C240.223,-40.3045 249.398,-38.8987 258.391,-37.5207"/>
<polygon fill="midnightblue" stroke="midnightblue" points="259.072,-40.9573 268.427,-35.983 258.012,-34.038 259.072,-40.9573"/>
</g>
<!-- Node4&#45;&gt;Node3 -->
<g id="edge5" class="edge"><title>Node4&#45;&gt;Node3</title>
<path fill="none" stroke="midnightblue" d="M346.029,-38.589C360.968,-43.3594 379.223,-49.1888 395.301,-54.3229"/>
<polygon fill="midnightblue" stroke="midnightblue" points="394.39,-57.7062 404.981,-57.4141 396.519,-51.0379 394.39,-57.7062"/>
</g>
<!-- Node5 -->
<g id="node5" class="node"><title>Node5</title>
<g id="a_node5"><a xlink:href="../../da/dfc/settings__parser_8c.html#a5faf6a2d99f50a4655dd390199a8db7b" target="_top" xlink:title="malloc">
<polygon fill="none" stroke="black" points="413.5,-19.5 413.5,-38.5 458.5,-38.5 458.5,-19.5 413.5,-19.5"/>
<text text-anchor="middle" x="436" y="-26.5" font-family="Helvetica,sans-Serif" font-size="10.00">malloc</text>
</a>
</g>
</g>
<!-- Node4&#45;&gt;Node5 -->
<g id="edge4" class="edge"><title>Node4&#45;&gt;Node5</title>
<path fill="none" stroke="midnightblue" d="M361.668,-29C375.494,-29 390.374,-29 403.094,-29"/>
<polygon fill="midnightblue" stroke="midnightblue" points="403.2,-32.5001 413.2,-29 403.199,-25.5001 403.2,-32.5001"/>
</g>
</g>
</svg>
