<?xml version="1.0" encoding="UTF-8" standalone="no"?>
<!DOCTYPE svg PUBLIC "-//W3C//DTD SVG 1.1//EN"
 "http://www.w3.org/Graphics/SVG/1.1/DTD/svg11.dtd">
<!-- Generated by graphviz version 2.36.0 (20140111.2315)
 -->
<!-- Title: private_curl_plugin_t Pages: 1 -->
<svg width="164pt" height="208pt"
 viewBox="0.00 0.00 164.00 208.00" xmlns="http://www.w3.org/2000/svg" xmlns:xlink="http://www.w3.org/1999/xlink">
<g id="graph0" class="graph" transform="scale(1 1) rotate(0) translate(4 204)">
<title>private_curl_plugin_t</title>
<!-- Node1 -->
<g id="node1" class="node"><title>Node1</title>
<polygon fill="#bfbfbf" stroke="black" points="0,-0.5 0,-19.5 106,-19.5 106,-0.5 0,-0.5"/>
<text text-anchor="middle" x="53" y="-7.5" font-family="Helvetica,sans-Serif" font-size="10.00">private_curl_plugin_t</text>
</g>
<!-- Node2 -->
<g id="node2" class="node"><title>Node2</title>
<polygon fill="none" stroke="#bfbfbf" points="15.5,-180.5 15.5,-199.5 56.5,-199.5 56.5,-180.5 15.5,-180.5"/>
<text text-anchor="middle" x="36" y="-187.5" font-family="Helvetica,sans-Serif" font-size="10.00">struct</text>
</g>
<!-- Node2&#45;&gt;Node1 -->
<g id="edge1" class="edge"><title>Node2&#45;&gt;Node1</title>
<path fill="none" stroke="#9a32cd" stroke-dasharray="5,2" d="M32.9826,-170.268C29.6743,-146.339 25.6254,-103.742 32,-68 35.1849,-50.1425 43.5698,-30.5503 48.7295,-19.6156"/>
<polygon fill="#9a32cd" stroke="#9a32cd" points="29.5577,-171.031 34.4983,-180.404 36.4808,-169.996 29.5577,-171.031"/>
<text text-anchor="middle" x="46.5" y="-75.5" font-family="Helvetica,sans-Serif" font-size="10.00"> public</text>
</g>
<!-- Node3 -->
<g id="node3" class="node"><title>Node3</title>
<g id="a_node3"><a xlink:href="../../d8/d6f/structplugin__feature__t.html" target="_top" xlink:title="plugin_feature_t">
<polygon fill="none" stroke="black" points="70,-68.5 70,-87.5 156,-87.5 156,-68.5 70,-68.5"/>
<text text-anchor="middle" x="113" y="-75.5" font-family="Helvetica,sans-Serif" font-size="10.00">plugin_feature_t</text>
</a>
</g>
</g>
<!-- Node2&#45;&gt;Node3 -->
<g id="edge3" class="edge"><title>Node2&#45;&gt;Node3</title>
<path fill="none" stroke="#9a32cd" stroke-dasharray="5,2" d="M42.4818,-170.776C49.4081,-152.984 61.642,-125.776 78,-106 83.9675,-98.7856 92.1962,-92.3154 99.1755,-87.5185"/>
<polygon fill="#9a32cd" stroke="#9a32cd" points="39.1593,-169.669 38.9456,-180.262 45.7183,-172.114 39.1593,-169.669"/>
<text text-anchor="middle" x="93.5" y="-153.5" font-family="Helvetica,sans-Serif" font-size="10.00"> aead</text>
<text text-anchor="middle" x="93.5" y="-142.5" font-family="Helvetica,sans-Serif" font-size="10.00">crypter</text>
<text text-anchor="middle" x="93.5" y="-131.5" font-family="Helvetica,sans-Serif" font-size="10.00">reg</text>
<text text-anchor="middle" x="93.5" y="-120.5" font-family="Helvetica,sans-Serif" font-size="10.00">eap</text>
<text text-anchor="middle" x="93.5" y="-109.5" font-family="Helvetica,sans-Serif" font-size="10.00">cb</text>
</g>
<!-- Node3&#45;&gt;Node1 -->
<g id="edge2" class="edge"><title>Node3&#45;&gt;Node1</title>
<path fill="none" stroke="#9a32cd" stroke-dasharray="5,2" d="M98.1636,-60.68C86.4334,-47.7768 70.5068,-30.2575 61.0374,-19.8411"/>
<polygon fill="#9a32cd" stroke="#9a32cd" points="95.8395,-63.3266 105.156,-68.3717 101.019,-58.6179 95.8395,-63.3266"/>
<text text-anchor="middle" x="108.5" y="-41.5" font-family="Helvetica,sans-Serif" font-size="10.00"> features</text>
</g>
<!-- Node4 -->
<g id="node4" class="node"><title>Node4</title>
<g id="a_node4"><a xlink:href="../../d7/d5a/structplugin__t.html" target="_top" xlink:title="plugin_t">
<polygon fill="none" stroke="black" points="88,-180.5 88,-199.5 138,-199.5 138,-180.5 88,-180.5"/>
<text text-anchor="middle" x="113" y="-187.5" font-family="Helvetica,sans-Serif" font-size="10.00">plugin_t</text>
</a>
</g>
</g>
<!-- Node4&#45;&gt;Node3 -->
<g id="edge4" class="edge"><title>Node4&#45;&gt;Node3</title>
<path fill="none" stroke="#9a32cd" stroke-dasharray="5,2" d="M113,-170.348C113,-146.254 113,-105.308 113,-87.5914"/>
<polygon fill="#9a32cd" stroke="#9a32cd" points="109.5,-170.368 113,-180.368 116.5,-170.369 109.5,-170.368"/>
<text text-anchor="middle" x="116.5" y="-131.5" font-family="Helvetica,sans-Serif" font-size="10.00"> f</text>
</g>
</g>
</svg>
