<?xml version="1.0" encoding="UTF-8" standalone="no"?>
<!DOCTYPE svg PUBLIC "-//W3C//DTD SVG 1.1//EN"
 "http://www.w3.org/Graphics/SVG/1.1/DTD/svg11.dtd">
<!-- Generated by graphviz version 2.36.0 (20140111.2315)
 -->
<!-- Title: seg_contract_create Pages: 1 -->
<svg width="292pt" height="104pt"
 viewBox="0.00 0.00 292.00 104.00" xmlns="http://www.w3.org/2000/svg" xmlns:xlink="http://www.w3.org/1999/xlink">
<g id="graph0" class="graph" transform="scale(1 1) rotate(0) translate(4 100)">
<title>seg_contract_create</title>
<!-- Node1 -->
<g id="node1" class="node"><title>Node1</title>
<polygon fill="#bfbfbf" stroke="black" points="0.5,-38.5 0.5,-57.5 105.5,-57.5 105.5,-38.5 0.5,-38.5"/>
<text text-anchor="middle" x="53" y="-45.5" font-family="Helvetica,sans-Serif" font-size="10.00">seg_contract_create</text>
</g>
<!-- Node2 -->
<g id="node2" class="node"><title>Node2</title>
<g id="a_node2"><a xlink:href="../../d5/d31/imc__msg_8c.html#a10651180330048b3925132a5d137dce4" target="_top" xlink:title="METHOD">
<polygon fill="none" stroke="black" points="183,-76.5 183,-95.5 243,-95.5 243,-76.5 183,-76.5"/>
<text text-anchor="middle" x="213" y="-83.5" font-family="Helvetica,sans-Serif" font-size="10.00">METHOD</text>
</a>
</g>
</g>
<!-- Node1&#45;&gt;Node2 -->
<g id="edge1" class="edge"><title>Node1&#45;&gt;Node2</title>
<path fill="none" stroke="midnightblue" d="M103.896,-60.0003C129.795,-66.2293 160.547,-73.6251 182.617,-78.9332"/>
<polygon fill="midnightblue" stroke="midnightblue" points="104.411,-56.5245 93.8701,-57.589 102.774,-63.3304 104.411,-56.5245"/>
</g>
<!-- Node3 -->
<g id="node3" class="node"><title>Node3</title>
<g id="a_node3"><a xlink:href="../../df/da3/test__imcv__seg_8c.html#a1a9dcb0cb3ad76363946728d4be811a6" target="_top" xlink:title="START_TEST">
<polygon fill="none" stroke="black" points="173,-38.5 173,-57.5 253,-57.5 253,-38.5 173,-38.5"/>
<text text-anchor="middle" x="213" y="-45.5" font-family="Helvetica,sans-Serif" font-size="10.00">START_TEST</text>
</a>
</g>
</g>
<!-- Node1&#45;&gt;Node3 -->
<g id="edge2" class="edge"><title>Node1&#45;&gt;Node3</title>
<path fill="none" stroke="midnightblue" d="M115.923,-48C135.126,-48 155.742,-48 172.934,-48"/>
<polygon fill="midnightblue" stroke="midnightblue" points="115.735,-44.5001 105.735,-48 115.735,-51.5001 115.735,-44.5001"/>
</g>
<!-- Node4 -->
<g id="node4" class="node"><title>Node4</title>
<g id="a_node4"><a xlink:href="../../de/d10/group__tncifimc.html#ga72bb832f2d5fc794ab3c2b9675d9b59e" target="_top" xlink:title="TNC_IMC_BeginHandshake">
<polygon fill="none" stroke="black" points="142.5,-0.5 142.5,-19.5 283.5,-19.5 283.5,-0.5 142.5,-0.5"/>
<text text-anchor="middle" x="213" y="-7.5" font-family="Helvetica,sans-Serif" font-size="10.00">TNC_IMC_BeginHandshake</text>
</a>
</g>
</g>
<!-- Node1&#45;&gt;Node4 -->
<g id="edge3" class="edge"><title>Node1&#45;&gt;Node4</title>
<path fill="none" stroke="midnightblue" d="M103.762,-36.032C125.903,-30.7069 151.612,-24.5238 172.417,-19.5201"/>
<polygon fill="midnightblue" stroke="midnightblue" points="102.774,-32.6696 93.8701,-38.411 104.411,-39.4755 102.774,-32.6696"/>
</g>
</g>
</svg>
