<?xml version="1.0" encoding="UTF-8" standalone="no"?>
<!DOCTYPE svg PUBLIC "-//W3C//DTD SVG 1.1//EN"
 "http://www.w3.org/Graphics/SVG/1.1/DTD/svg11.dtd">
<!-- Generated by graphviz version 2.36.0 (20140111.2315)
 -->
<!-- Title: timeval_cmp Pages: 1 -->
<!--zoomable 370 -->
<svg id="main" version="1.1" xmlns="http://www.w3.org/2000/svg" xmlns:xlink="http://www.w3.org/1999/xlink" xml:space="preserve" onload="init(evt)">
<style type="text/css"><![CDATA[
.edge:hover path { stroke: red; }
.edge:hover polygon { stroke: red; fill: red; }
]]></style>
<script type="text/javascript"><![CDATA[
var edges = document.getElementsByTagName('g');
if (edges && edges.length) {
  for (var i=0;i<edges.length;i++) {
    if (edges[i].id.substr(0,4)=='edge') {
      edges[i].setAttribute('class','edge');
    }
  }
}
]]></script>
        <defs>
                <circle id="rim" cx="0" cy="0" r="7"/>
                <circle id="rim2" cx="0" cy="0" r="3.5"/>
                <g id="zoomPlus">
                        <use xlink:href="#rim" fill="#404040">
                                <set attributeName="fill" to="#808080" begin="zoomplus.mouseover" end="zoomplus.mouseout"/>
                        </use>
                        <path d="M-4,0h8M0,-4v8" fill="none" stroke="white" stroke-width="1.5" pointer-events="none"/>
                </g>
                <g id="zoomMin">
                        <use xlink:href="#rim" fill="#404040">
                                <set attributeName="fill" to="#808080" begin="zoomminus.mouseover" end="zoomminus.mouseout"/>
                        </use>
                        <path d="M-4,0h8" fill="none" stroke="white" stroke-width="1.5" pointer-events="none"/>
                </g>
                <g id="dirArrow">
                        <path fill="none" stroke="white" stroke-width="1.5" d="M0,-3.0v7 M-2.5,-0.5L0,-3.0L2.5,-0.5"/>
                </g>
               <g id="resetDef">
                       <use xlink:href="#rim2" fill="#404040">
                               <set attributeName="fill" to="#808080" begin="reset.mouseover" end="reset.mouseout"/>
                       </use>
               </g>
        </defs>

<script type="text/javascript">
var viewWidth = 1118;
var viewHeight = 370;
var sectionId = 'dynsection-13';
</script>
<script xlink:href="../../svgpan.js"/>
<svg id="graph" class="graph">
<g id="viewport">
<title>timeval_cmp</title>
<!-- Node1 -->
<g id="node1" class="node"><title>Node1</title>
<polygon fill="#bfbfbf" stroke="black" points="0,-260.5 0,-279.5 72,-279.5 72,-260.5 0,-260.5"/>
<text text-anchor="middle" x="36" y="-267.5" font-family="Helvetica,sans-Serif" font-size="10.00">timeval_cmp</text>
</g>
<!-- Node2 -->
<g id="node2" class="node"><title>Node2</title>
<g id="a_node2"><a xlink:href="../../dd/d6c/scheduler_8c.html#a24fd674de2a707ff40fc6252fd89ffaf" target="_top" xlink:title="METHOD">
<polygon fill="none" stroke="black" points="117,-298.5 117,-317.5 177,-317.5 177,-298.5 117,-298.5"/>
<text text-anchor="middle" x="147" y="-305.5" font-family="Helvetica,sans-Serif" font-size="10.00">METHOD</text>
</a>
</g>
</g>
<!-- Node1&#45;&gt;Node2 -->
<g id="edge1" class="edge"><title>Node1&#45;&gt;Node2</title>
<path fill="none" stroke="midnightblue" d="M74.2085,-282.972C88.7303,-288.034 105.079,-293.734 118.503,-298.414"/>
<polygon fill="midnightblue" stroke="midnightblue" points="75.1001,-279.576 64.5053,-279.589 72.7957,-286.186 75.1001,-279.576"/>
</g>
<!-- Node3 -->
<g id="node3" class="node"><title>Node3</title>
<g id="a_node3"><a xlink:href="../../dd/d6c/scheduler_8c.html#aaf856d3eb6842150a15d64a0eb9f1a63" target="_top" xlink:title="remove_event">
<polygon fill="none" stroke="black" points="108,-260.5 108,-279.5 186,-279.5 186,-260.5 108,-260.5"/>
<text text-anchor="middle" x="147" y="-267.5" font-family="Helvetica,sans-Serif" font-size="10.00">remove_event</text>
</a>
</g>
</g>
<!-- Node1&#45;&gt;Node3 -->
<g id="edge2" class="edge"><title>Node1&#45;&gt;Node3</title>
<path fill="none" stroke="midnightblue" d="M82.2897,-270C90.8273,-270 99.6755,-270 107.963,-270"/>
<polygon fill="midnightblue" stroke="midnightblue" points="82.0883,-266.5 72.0883,-270 82.0882,-273.5 82.0883,-266.5"/>
</g>
<!-- Node5 -->
<g id="node5" class="node"><title>Node5</title>
<g id="a_node5"><a xlink:href="../../dd/d6c/scheduler_8c.html#abaf65a8c3e7c64974231ce0fea8e3786" target="_top" xlink:title="schedule">
<polygon fill="none" stroke="black" points="224,-222.5 224,-241.5 280,-241.5 280,-222.5 224,-222.5"/>
<text text-anchor="middle" x="252" y="-229.5" font-family="Helvetica,sans-Serif" font-size="10.00">schedule</text>
</a>
</g>
</g>
<!-- Node1&#45;&gt;Node5 -->
<g id="edge36" class="edge"><title>Node1&#45;&gt;Node5</title>
<path fill="none" stroke="midnightblue" d="M79.249,-257.734C88.6594,-255.271 98.6263,-252.869 108,-251 148.035,-243.018 195.062,-237.498 223.946,-234.541"/>
<polygon fill="midnightblue" stroke="midnightblue" points="78.0576,-254.43 69.3105,-260.408 79.8765,-261.189 78.0576,-254.43"/>
</g>
<!-- Node4 -->
<g id="node4" class="node"><title>Node4</title>
<g id="a_node4"><a xlink:href="../../dd/d6c/scheduler_8c.html#a3d605f347766b2af15a363e5d18911c0" target="_top" xlink:title="METHOD">
<polygon fill="none" stroke="black" points="222,-260.5 222,-279.5 282,-279.5 282,-260.5 222,-260.5"/>
<text text-anchor="middle" x="252" y="-267.5" font-family="Helvetica,sans-Serif" font-size="10.00">METHOD</text>
</a>
</g>
</g>
<!-- Node3&#45;&gt;Node4 -->
<g id="edge3" class="edge"><title>Node3&#45;&gt;Node4</title>
<path fill="none" stroke="midnightblue" d="M196.201,-270C204.941,-270 213.807,-270 221.789,-270"/>
<polygon fill="midnightblue" stroke="midnightblue" points="196.061,-266.5 186.061,-270 196.061,-273.5 196.061,-266.5"/>
</g>
<!-- Node3&#45;&gt;Node5 -->
<g id="edge4" class="edge"><title>Node3&#45;&gt;Node5</title>
<path fill="none" stroke="midnightblue" d="M183.557,-256.882C197.18,-251.856 212.454,-246.221 225.017,-241.586"/>
<polygon fill="midnightblue" stroke="midnightblue" points="182.162,-253.666 173.991,-260.411 184.585,-260.233 182.162,-253.666"/>
</g>
<!-- Node6 -->
<g id="node6" class="node"><title>Node6</title>
<g id="a_node6"><a xlink:href="../../d9/df6/blowfish__crypter_8c.html#a870c6fb16e6d2187d9bd05921b74ce10" target="_top" xlink:title="METHOD">
<polygon fill="none" stroke="black" points="334,-260.5 334,-279.5 394,-279.5 394,-260.5 334,-260.5"/>
<text text-anchor="middle" x="364" y="-267.5" font-family="Helvetica,sans-Serif" font-size="10.00">METHOD</text>
</a>
</g>
</g>
<!-- Node5&#45;&gt;Node6 -->
<g id="edge5" class="edge"><title>Node5&#45;&gt;Node6</title>
<path fill="none" stroke="midnightblue" d="M289.646,-244.66C304.562,-249.812 321.512,-255.668 335.358,-260.451"/>
<polygon fill="midnightblue" stroke="midnightblue" points="290.786,-241.35 280.191,-241.393 288.5,-247.967 290.786,-241.35"/>
</g>
<!-- Node7 -->
<g id="node7" class="node"><title>Node7</title>
<g id="a_node7"><a xlink:href="../../df/d69/aesni__key_8c.html#aca3728b1dc07a9eaa1872645e7740f1e" target="_top" xlink:title="reverse_key">
<polygon fill="none" stroke="black" points="329,-222.5 329,-241.5 399,-241.5 399,-222.5 329,-222.5"/>
<text text-anchor="middle" x="364" y="-229.5" font-family="Helvetica,sans-Serif" font-size="10.00">reverse_key</text>
</a>
</g>
</g>
<!-- Node5&#45;&gt;Node7 -->
<g id="edge6" class="edge"><title>Node5&#45;&gt;Node7</title>
<path fill="none" stroke="midnightblue" d="M290.241,-232C302.661,-232 316.435,-232 328.627,-232"/>
<polygon fill="midnightblue" stroke="midnightblue" points="290.191,-228.5 280.191,-232 290.191,-235.5 290.191,-228.5"/>
</g>
<!-- Node10 -->
<g id="node10" class="node"><title>Node10</title>
<g id="a_node10"><a xlink:href="../../d6/dcb/group__scheduler.html#ga11a11e9816166a7a9d7d9094c24fa195" target="_top" xlink:title="scheduler_create">
<polygon fill="none" stroke="black" points="318.5,-175.5 318.5,-194.5 409.5,-194.5 409.5,-175.5 318.5,-175.5"/>
<text text-anchor="middle" x="364" y="-182.5" font-family="Helvetica,sans-Serif" font-size="10.00">scheduler_create</text>
</a>
</g>
</g>
<!-- Node5&#45;&gt;Node10 -->
<g id="edge9" class="edge"><title>Node5&#45;&gt;Node10</title>
<path fill="none" stroke="midnightblue" d="M284.683,-218.463C302.497,-210.851 324.316,-201.529 340.395,-194.658"/>
<polygon fill="midnightblue" stroke="midnightblue" points="283.081,-215.341 275.26,-222.489 285.831,-221.778 283.081,-215.341"/>
</g>
<!-- Node8 -->
<g id="node8" class="node"><title>Node8</title>
<g id="a_node8"><a xlink:href="../../db/d72/group__aesni__key.html#ga534b2359a50eaa04afc21da46923fd3d" target="_top" xlink:title="aesni_key_create">
<polygon fill="none" stroke="black" points="446.5,-275.5 446.5,-294.5 539.5,-294.5 539.5,-275.5 446.5,-275.5"/>
<text text-anchor="middle" x="493" y="-282.5" font-family="Helvetica,sans-Serif" font-size="10.00">aesni_key_create</text>
</a>
</g>
</g>
<!-- Node7&#45;&gt;Node8 -->
<g id="edge7" class="edge"><title>Node7&#45;&gt;Node8</title>
<path fill="none" stroke="midnightblue" d="M397.455,-245.544C419.887,-254.906 449.175,-267.128 469.172,-275.474"/>
<polygon fill="midnightblue" stroke="midnightblue" points="398.575,-242.219 387.999,-241.598 395.879,-248.679 398.575,-242.219"/>
</g>
<!-- Node9 -->
<g id="node9" class="node"><title>Node9</title>
<g id="a_node9"><a xlink:href="../../d4/d72/aesni__cbc_8c.html#a8c6066fba3336ce9f1f84d102a40309d" target="_top" xlink:title="METHOD">
<polygon fill="none" stroke="black" points="581,-323.5 581,-342.5 641,-342.5 641,-323.5 581,-323.5"/>
<text text-anchor="middle" x="611" y="-330.5" font-family="Helvetica,sans-Serif" font-size="10.00">METHOD</text>
</a>
</g>
</g>
<!-- Node8&#45;&gt;Node9 -->
<g id="edge8" class="edge"><title>Node8&#45;&gt;Node9</title>
<path fill="none" stroke="midnightblue" d="M526.476,-298.438C545.68,-306.385 569.547,-316.261 586.845,-323.418"/>
<polygon fill="midnightblue" stroke="midnightblue" points="527.774,-295.188 517.196,-294.598 525.097,-301.656 527.774,-295.188"/>
</g>
<!-- Node11 -->
<g id="node11" class="node"><title>Node11</title>
<g id="a_node11"><a xlink:href="../../d3/d99/group__library.html#ga18cf1ca25ca811f74ba75c1de79cee4f" target="_top" xlink:title="library_init">
<polygon fill="none" stroke="black" points="462.5,-171.5 462.5,-190.5 523.5,-190.5 523.5,-171.5 462.5,-171.5"/>
<text text-anchor="middle" x="493" y="-178.5" font-family="Helvetica,sans-Serif" font-size="10.00">library_init</text>
</a>
</g>
</g>
<!-- Node10&#45;&gt;Node11 -->
<g id="edge10" class="edge"><title>Node10&#45;&gt;Node11</title>
<path fill="none" stroke="midnightblue" d="M420.178,-183.262C434.667,-182.806 449.744,-182.331 462.322,-181.935"/>
<polygon fill="midnightblue" stroke="midnightblue" points="419.66,-179.777 409.775,-183.59 419.881,-186.773 419.66,-179.777"/>
</g>
<!-- Node11&#45;&gt;Node11 -->
<g id="edge24" class="edge"><title>Node11&#45;&gt;Node11</title>
<path fill="none" stroke="midnightblue" d="M471.051,-200.029C472.248,-205.128 479.564,-209 493,-209 513.973,-209 520.035,-199.565 511.187,-190.757"/>
<polygon fill="midnightblue" stroke="midnightblue" points="474.296,-201.339 474.813,-190.757 467.81,-198.707 474.296,-201.339"/>
</g>
<!-- Node12 -->
<g id="node12" class="node"><title>Node12</title>
<g id="a_node12"><a xlink:href="../../de/dca/__copyright_8c.html#a0ddf1224851353fc92bfbff6f499fa97" target="_top" xlink:title="main">
<polygon fill="none" stroke="black" points="592,-285.5 592,-304.5 630,-304.5 630,-285.5 592,-285.5"/>
<text text-anchor="middle" x="611" y="-292.5" font-family="Helvetica,sans-Serif" font-size="10.00">main</text>
</a>
</g>
</g>
<!-- Node11&#45;&gt;Node12 -->
<g id="edge11" class="edge"><title>Node11&#45;&gt;Node12</title>
<path fill="none" stroke="midnightblue" d="M506.52,-198.99C521.384,-219.436 547.741,-252.954 576,-276 580.821,-279.932 586.568,-283.491 591.953,-286.439"/>
<polygon fill="midnightblue" stroke="midnightblue" points="509.191,-196.708 500.534,-190.6 503.492,-200.773 509.191,-196.708"/>
</g>
<!-- Node13 -->
<g id="node13" class="node"><title>Node13</title>
<g id="a_node13"><a xlink:href="../../dd/dcc/charon-svc_8c.html#a2a57519866b925dd058567c145b8ae45" target="_top" xlink:title="init_and_run">
<polygon fill="none" stroke="black" points="576.5,-247.5 576.5,-266.5 645.5,-266.5 645.5,-247.5 576.5,-247.5"/>
<text text-anchor="middle" x="611" y="-254.5" font-family="Helvetica,sans-Serif" font-size="10.00">init_and_run</text>
</a>
</g>
</g>
<!-- Node11&#45;&gt;Node13 -->
<g id="edge12" class="edge"><title>Node11&#45;&gt;Node13</title>
<path fill="none" stroke="midnightblue" d="M515.387,-196.725C531.711,-208.516 554.91,-224.821 576,-238 581.161,-241.225 586.895,-244.531 592.162,-247.462"/>
<polygon fill="midnightblue" stroke="midnightblue" points="517.229,-193.737 507.082,-190.688 513.112,-199.399 517.229,-193.737"/>
</g>
<!-- Node17 -->
<g id="node17" class="node"><title>Node17</title>
<g id="a_node17"><a xlink:href="../../d1/d4c/ext_2dumm_8c.html#a483775b052d2c5ac3e09664bcbe4f09b" target="_top" xlink:title="Init_dumm">
<polygon fill="none" stroke="black" points="580,-209.5 580,-228.5 642,-228.5 642,-209.5 580,-209.5"/>
<text text-anchor="middle" x="611" y="-216.5" font-family="Helvetica,sans-Serif" font-size="10.00">Init_dumm</text>
</a>
</g>
</g>
<!-- Node11&#45;&gt;Node17 -->
<g id="edge17" class="edge"><title>Node11&#45;&gt;Node17</title>
<path fill="none" stroke="midnightblue" d="M533.153,-193.826C548.718,-198.925 566.314,-204.689 580.738,-209.414"/>
<polygon fill="midnightblue" stroke="midnightblue" points="533.864,-190.376 523.272,-190.589 531.685,-197.028 533.864,-190.376"/>
</g>
<!-- Node18 -->
<g id="node18" class="node"><title>Node18</title>
<g id="a_node18"><a xlink:href="../../d0/d9e/group__libimcv.html#ga1a2bc69328f409c080b8814e28972ecf" target="_top" xlink:title="libimcv_init">
<polygon fill="none" stroke="black" points="578.5,-171.5 578.5,-190.5 643.5,-190.5 643.5,-171.5 578.5,-171.5"/>
<text text-anchor="middle" x="611" y="-178.5" font-family="Helvetica,sans-Serif" font-size="10.00">libimcv_init</text>
</a>
</g>
</g>
<!-- Node11&#45;&gt;Node18 -->
<g id="edge18" class="edge"><title>Node11&#45;&gt;Node18</title>
<path fill="none" stroke="midnightblue" d="M533.827,-181C548.407,-181 564.692,-181 578.45,-181"/>
<polygon fill="midnightblue" stroke="midnightblue" points="533.572,-177.5 523.572,-181 533.572,-184.5 533.572,-177.5"/>
</g>
<!-- Node24 -->
<g id="node24" class="node"><title>Node24</title>
<g id="a_node24"><a xlink:href="../../dc/d7a/group__libvici.html#ga51b7da53077930dc9e0f9de1298a4f9c" target="_top" xlink:title="vici_init">
<polygon fill="none" stroke="black" points="586,-133.5 586,-152.5 636,-152.5 636,-133.5 586,-133.5"/>
<text text-anchor="middle" x="611" y="-140.5" font-family="Helvetica,sans-Serif" font-size="10.00">vici_init</text>
</a>
</g>
</g>
<!-- Node11&#45;&gt;Node24 -->
<g id="edge25" class="edge"><title>Node11&#45;&gt;Node24</title>
<path fill="none" stroke="midnightblue" d="M533.19,-168.162C550.629,-162.449 570.612,-155.903 585.824,-150.92"/>
<polygon fill="midnightblue" stroke="midnightblue" points="531.685,-164.972 523.272,-171.411 533.864,-171.624 531.685,-164.972"/>
</g>
<!-- Node26 -->
<g id="node26" class="node"><title>Node26</title>
<g id="a_node26"><a xlink:href="../../d7/d9b/pt-tls-client_8c.html#aedc913c139bb562646d3459b0ca28997" target="_top" xlink:title="init">
<polygon fill="none" stroke="black" points="596.5,-95.5 596.5,-114.5 625.5,-114.5 625.5,-95.5 596.5,-95.5"/>
<text text-anchor="middle" x="611" y="-102.5" font-family="Helvetica,sans-Serif" font-size="10.00">init</text>
</a>
</g>
</g>
<!-- Node11&#45;&gt;Node26 -->
<g id="edge27" class="edge"><title>Node11&#45;&gt;Node26</title>
<path fill="none" stroke="midnightblue" d="M515.387,-165.275C531.711,-153.484 554.91,-137.179 576,-124 582.537,-119.915 589.995,-115.7 596.256,-112.282"/>
<polygon fill="midnightblue" stroke="midnightblue" points="513.112,-162.601 507.082,-171.312 517.229,-168.263 513.112,-162.601"/>
</g>
<!-- Node28 -->
<g id="node28" class="node"><title>Node28</title>
<g id="a_node28"><a xlink:href="../../d8/df9/test__runner_8c.html#a4581d637b94ffd7a3cb7dc3c8aa7946d" target="_top" xlink:title="load_suites">
<polygon fill="none" stroke="black" points="831,-38.5 831,-57.5 897,-57.5 897,-38.5 831,-38.5"/>
<text text-anchor="middle" x="864" y="-45.5" font-family="Helvetica,sans-Serif" font-size="10.00">load_suites</text>
</a>
</g>
</g>
<!-- Node11&#45;&gt;Node28 -->
<g id="edge29" class="edge"><title>Node11&#45;&gt;Node28</title>
<path fill="none" stroke="midnightblue" d="M504.475,-162.534C517.999,-140.526 543.682,-104.42 576,-86 658.312,-39.0858 775.012,-40.6573 830.831,-44.7476"/>
<polygon fill="midnightblue" stroke="midnightblue" points="501.381,-160.889 499.288,-171.275 507.401,-164.462 501.381,-160.889"/>
</g>
<!-- Node31 -->
<g id="node31" class="node"><title>Node31</title>
<g id="a_node31"><a xlink:href="../../d8/df9/test__runner_8c.html#a9a715421b4e66be894fcf98820d3312b" target="_top" xlink:title="pre_test">
<polygon fill="none" stroke="black" points="585,-0.5 585,-19.5 637,-19.5 637,-0.5 585,-0.5"/>
<text text-anchor="middle" x="611" y="-7.5" font-family="Helvetica,sans-Serif" font-size="10.00">pre_test</text>
</a>
</g>
</g>
<!-- Node11&#45;&gt;Node31 -->
<g id="edge32" class="edge"><title>Node11&#45;&gt;Node31</title>
<path fill="none" stroke="midnightblue" d="M501.383,-161.886C513.567,-132.091 540.147,-73.8636 576,-34 580.928,-28.5205 587.327,-23.5974 593.242,-19.6572"/>
<polygon fill="midnightblue" stroke="midnightblue" points="498.007,-160.905 497.555,-171.49 504.509,-163.496 498.007,-160.905"/>
</g>
<!-- Node14 -->
<g id="node14" class="node"><title>Node14</title>
<g id="a_node14"><a xlink:href="../../dd/dcc/charon-svc_8c.html#abbee77e5d66102b8a8b52c080af297b0" target="_top" xlink:title="console_main">
<polygon fill="none" stroke="black" points="690.5,-342.5 690.5,-361.5 767.5,-361.5 767.5,-342.5 690.5,-342.5"/>
<text text-anchor="middle" x="729" y="-349.5" font-family="Helvetica,sans-Serif" font-size="10.00">console_main</text>
</a>
</g>
</g>
<!-- Node13&#45;&gt;Node14 -->
<g id="edge13" class="edge"><title>Node13&#45;&gt;Node14</title>
<path fill="none" stroke="midnightblue" d="M641.391,-272.11C643.013,-273.342 644.564,-274.64 646,-276 667.748,-296.61 659.075,-313.707 682,-333 686.495,-336.783 691.848,-339.897 697.286,-342.431"/>
<polygon fill="midnightblue" stroke="midnightblue" points="643.179,-269.097 632.902,-266.521 639.329,-274.944 643.179,-269.097"/>
</g>
<!-- Node16 -->
<g id="node16" class="node"><title>Node16</title>
<g id="a_node16"><a xlink:href="../../dd/dcc/charon-svc_8c.html#a2187fa70ac95082f38e9cf770aa45af2" target="_top" xlink:title="service_main">
<polygon fill="none" stroke="black" points="692,-304.5 692,-323.5 766,-323.5 766,-304.5 692,-304.5"/>
<text text-anchor="middle" x="729" y="-311.5" font-family="Helvetica,sans-Serif" font-size="10.00">service_main</text>
</a>
</g>
</g>
<!-- Node13&#45;&gt;Node16 -->
<g id="edge15" class="edge"><title>Node13&#45;&gt;Node16</title>
<path fill="none" stroke="midnightblue" d="M638.333,-271.67C654.449,-280.573 673.547,-290.974 682,-295 688.865,-298.27 696.445,-301.537 703.439,-304.416"/>
<polygon fill="midnightblue" stroke="midnightblue" points="639.736,-268.445 629.293,-266.66 636.343,-274.568 639.736,-268.445"/>
</g>
<!-- Node15 -->
<g id="node15" class="node"><title>Node15</title>
<g id="a_node15"><a xlink:href="../../dd/dcc/charon-svc_8c.html#a0ddf1224851353fc92bfbff6f499fa97" target="_top" xlink:title="main">
<polygon fill="none" stroke="black" points="845,-323.5 845,-342.5 883,-342.5 883,-323.5 845,-323.5"/>
<text text-anchor="middle" x="864" y="-330.5" font-family="Helvetica,sans-Serif" font-size="10.00">main</text>
</a>
</g>
</g>
<!-- Node14&#45;&gt;Node15 -->
<g id="edge14" class="edge"><title>Node14&#45;&gt;Node15</title>
<path fill="none" stroke="midnightblue" d="M777.797,-345.172C800.994,-341.858 827.496,-338.072 844.699,-335.614"/>
<polygon fill="midnightblue" stroke="midnightblue" points="777.161,-341.727 767.757,-346.606 778.151,-348.657 777.161,-341.727"/>
</g>
<!-- Node16&#45;&gt;Node15 -->
<g id="edge16" class="edge"><title>Node16&#45;&gt;Node15</title>
<path fill="none" stroke="midnightblue" d="M776.486,-320.641C799.973,-323.996 827.134,-327.876 844.664,-330.381"/>
<polygon fill="midnightblue" stroke="midnightblue" points="776.737,-317.141 766.343,-319.192 775.747,-324.071 776.737,-317.141"/>
</g>
<!-- Node19 -->
<g id="node19" class="node"><title>Node19</title>
<g id="a_node19"><a xlink:href="../../da/d03/attest_8c.html#a0ddf1224851353fc92bfbff6f499fa97" target="_top" xlink:title="main">
<polygon fill="none" stroke="black" points="710,-266.5 710,-285.5 748,-285.5 748,-266.5 710,-266.5"/>
<text text-anchor="middle" x="729" y="-273.5" font-family="Helvetica,sans-Serif" font-size="10.00">main</text>
</a>
</g>
</g>
<!-- Node18&#45;&gt;Node19 -->
<g id="edge19" class="edge"><title>Node18&#45;&gt;Node19</title>
<path fill="none" stroke="midnightblue" d="M641.391,-196.11C643.013,-197.342 644.564,-198.64 646,-200 667.748,-220.61 659.075,-237.707 682,-257 689.933,-263.676 700.536,-268.268 709.563,-271.263"/>
<polygon fill="midnightblue" stroke="midnightblue" points="643.179,-193.097 632.902,-190.521 639.329,-198.944 643.179,-193.097"/>
</g>
<!-- Node20 -->
<g id="node20" class="node"><title>Node20</title>
<g id="a_node20"><a xlink:href="../../da/df6/group__imc__agent__t.html#ga4e3d8335be0a5db3f9057bbe23ce97e1" target="_top" xlink:title="imc_agent_create">
<polygon fill="none" stroke="black" points="682,-228.5 682,-247.5 776,-247.5 776,-228.5 682,-228.5"/>
<text text-anchor="middle" x="729" y="-235.5" font-family="Helvetica,sans-Serif" font-size="10.00">imc_agent_create</text>
</a>
</g>
</g>
<!-- Node18&#45;&gt;Node20 -->
<g id="edge20" class="edge"><title>Node18&#45;&gt;Node20</title>
<path fill="none" stroke="midnightblue" d="M638.333,-195.67C654.449,-204.573 673.547,-214.974 682,-219 688.865,-222.27 696.445,-225.537 703.439,-228.416"/>
<polygon fill="midnightblue" stroke="midnightblue" points="639.736,-192.445 629.293,-190.66 636.343,-198.568 639.736,-192.445"/>
</g>
<!-- Node22 -->
<g id="node22" class="node"><title>Node22</title>
<g id="a_node22"><a xlink:href="../../dd/dd4/group__imv__agent__t.html#ga207ef25d8bf8c613ac61d089d0874d9b" target="_top" xlink:title="imv_agent_create">
<polygon fill="none" stroke="black" points="682,-190.5 682,-209.5 776,-209.5 776,-190.5 682,-190.5"/>
<text text-anchor="middle" x="729" y="-197.5" font-family="Helvetica,sans-Serif" font-size="10.00">imv_agent_create</text>
</a>
</g>
</g>
<!-- Node18&#45;&gt;Node22 -->
<g id="edge22" class="edge"><title>Node18&#45;&gt;Node22</title>
<path fill="none" stroke="midnightblue" d="M653.742,-187.837C662.908,-189.338 672.664,-190.936 681.987,-192.463"/>
<polygon fill="midnightblue" stroke="midnightblue" points="654.132,-184.354 643.698,-186.192 653,-191.262 654.132,-184.354"/>
</g>
<!-- Node23 -->
<g id="node23" class="node"><title>Node23</title>
<g id="a_node23"><a xlink:href="../../df/da3/test__imcv__seg_8c.html#ac72d7ad0385a61efdaf1d769d5b7da2b" target="_top" xlink:title="START_TEST">
<polygon fill="none" stroke="black" points="689,-152.5 689,-171.5 769,-171.5 769,-152.5 689,-152.5"/>
<text text-anchor="middle" x="729" y="-159.5" font-family="Helvetica,sans-Serif" font-size="10.00">START_TEST</text>
</a>
</g>
</g>
<!-- Node18&#45;&gt;Node23 -->
<g id="edge23" class="edge"><title>Node18&#45;&gt;Node23</title>
<path fill="none" stroke="midnightblue" d="M653.876,-174.141C665.299,-172.27 677.627,-170.251 688.889,-168.406"/>
<polygon fill="midnightblue" stroke="midnightblue" points="653,-170.738 643.698,-175.808 654.132,-177.646 653,-170.738"/>
</g>
<!-- Node21 -->
<g id="node21" class="node"><title>Node21</title>
<g id="a_node21"><a xlink:href="../../de/d10/group__tncifimc.html#ga6a4653276d3fc1d46b7703d41a2dc5b5" target="_top" xlink:title="TNC_IMC_Initialize">
<polygon fill="none" stroke="black" points="812.5,-228.5 812.5,-247.5 915.5,-247.5 915.5,-228.5 812.5,-228.5"/>
<text text-anchor="middle" x="864" y="-235.5" font-family="Helvetica,sans-Serif" font-size="10.00">TNC_IMC_Initialize</text>
</a>
</g>
</g>
<!-- Node20&#45;&gt;Node21 -->
<g id="edge21" class="edge"><title>Node20&#45;&gt;Node21</title>
<path fill="none" stroke="midnightblue" d="M786.203,-238C794.898,-238 803.833,-238 812.395,-238"/>
<polygon fill="midnightblue" stroke="midnightblue" points="786.144,-234.5 776.144,-238 786.144,-241.5 786.144,-234.5"/>
</g>
<!-- Node25 -->
<g id="node25" class="node"><title>Node25</title>
<g id="a_node25"><a xlink:href="../../d6/dca/test__event_8c.html#afe8c30a13467d05abe5f4f9f0961b716" target="_top" xlink:title="START_TEST">
<polygon fill="none" stroke="black" points="689,-114.5 689,-133.5 769,-133.5 769,-114.5 689,-114.5"/>
<text text-anchor="middle" x="729" y="-121.5" font-family="Helvetica,sans-Serif" font-size="10.00">START_TEST</text>
</a>
</g>
</g>
<!-- Node24&#45;&gt;Node25 -->
<g id="edge26" class="edge"><title>Node24&#45;&gt;Node25</title>
<path fill="none" stroke="midnightblue" d="M646.271,-137.387C659.667,-135.193 675.103,-132.664 688.927,-130.4"/>
<polygon fill="midnightblue" stroke="midnightblue" points="645.338,-133.993 636.035,-139.063 646.47,-140.901 645.338,-133.993"/>
</g>
<!-- Node27 -->
<g id="node27" class="node"><title>Node27</title>
<g id="a_node27"><a xlink:href="../../d7/d9b/pt-tls-client_8c.html#a0ddf1224851353fc92bfbff6f499fa97" target="_top" xlink:title="main">
<polygon fill="none" stroke="black" points="710,-76.5 710,-95.5 748,-95.5 748,-76.5 710,-76.5"/>
<text text-anchor="middle" x="729" y="-83.5" font-family="Helvetica,sans-Serif" font-size="10.00">main</text>
</a>
</g>
</g>
<!-- Node26&#45;&gt;Node27 -->
<g id="edge28" class="edge"><title>Node26&#45;&gt;Node27</title>
<path fill="none" stroke="midnightblue" d="M635.892,-101.087C657.787,-97.5003 689.741,-92.2665 709.679,-89.0008"/>
<polygon fill="midnightblue" stroke="midnightblue" points="635.065,-97.6754 625.762,-102.746 636.197,-104.583 635.065,-97.6754"/>
</g>
<!-- Node29 -->
<g id="node29" class="node"><title>Node29</title>
<g id="a_node29"><a xlink:href="../../d7/deb/group__test__runner.html#ga8946393b8d2910f2fd2ccb191070c2bf" target="_top" xlink:title="test_runner_run">
<polygon fill="none" stroke="black" points="952,-19.5 952,-38.5 1036,-38.5 1036,-19.5 952,-19.5"/>
<text text-anchor="middle" x="994" y="-26.5" font-family="Helvetica,sans-Serif" font-size="10.00">test_runner_run</text>
</a>
</g>
</g>
<!-- Node28&#45;&gt;Node29 -->
<g id="edge30" class="edge"><title>Node28&#45;&gt;Node29</title>
<path fill="none" stroke="midnightblue" d="M907.407,-41.7052C921.752,-39.5759 937.736,-37.2033 951.972,-35.0901"/>
<polygon fill="midnightblue" stroke="midnightblue" points="906.677,-38.2751 897.3,-43.2055 907.705,-45.1992 906.677,-38.2751"/>
</g>
<!-- Node30 -->
<g id="node30" class="node"><title>Node30</title>
<g id="a_node30"><a xlink:href="../../db/da5/bliss__tests_8c.html#a0ddf1224851353fc92bfbff6f499fa97" target="_top" xlink:title="main">
<polygon fill="none" stroke="black" points="1072,-19.5 1072,-38.5 1110,-38.5 1110,-19.5 1072,-19.5"/>
<text text-anchor="middle" x="1091" y="-26.5" font-family="Helvetica,sans-Serif" font-size="10.00">main</text>
</a>
</g>
</g>
<!-- Node29&#45;&gt;Node30 -->
<g id="edge31" class="edge"><title>Node29&#45;&gt;Node30</title>
<path fill="none" stroke="midnightblue" d="M1046.38,-29C1055.46,-29 1064.35,-29 1071.71,-29"/>
<polygon fill="midnightblue" stroke="midnightblue" points="1046.12,-25.5001 1036.12,-29 1046.12,-32.5001 1046.12,-25.5001"/>
</g>
<!-- Node32 -->
<g id="node32" class="node"><title>Node32</title>
<g id="a_node32"><a xlink:href="../../d8/df9/test__runner_8c.html#a91aeafa598c15ed7c3b23ac4d7e1506b" target="_top" xlink:title="run_case">
<polygon fill="none" stroke="black" points="701,-0.5 701,-19.5 757,-19.5 757,-0.5 701,-0.5"/>
<text text-anchor="middle" x="729" y="-7.5" font-family="Helvetica,sans-Serif" font-size="10.00">run_case</text>
</a>
</g>
</g>
<!-- Node31&#45;&gt;Node32 -->
<g id="edge33" class="edge"><title>Node31&#45;&gt;Node32</title>
<path fill="none" stroke="midnightblue" d="M647.399,-10C664.588,-10 684.915,-10 700.856,-10"/>
<polygon fill="midnightblue" stroke="midnightblue" points="647.17,-6.5001 637.17,-10 647.17,-13.5001 647.17,-6.5001"/>
</g>
<!-- Node33 -->
<g id="node33" class="node"><title>Node33</title>
<g id="a_node33"><a xlink:href="../../d8/df9/test__runner_8c.html#a5440bde1f37dd6de5b8ee9646002e3eb" target="_top" xlink:title="run_suite">
<polygon fill="none" stroke="black" points="836,-0.5 836,-19.5 892,-19.5 892,-0.5 836,-0.5"/>
<text text-anchor="middle" x="864" y="-7.5" font-family="Helvetica,sans-Serif" font-size="10.00">run_suite</text>
</a>
</g>
</g>
<!-- Node32&#45;&gt;Node33 -->
<g id="edge34" class="edge"><title>Node32&#45;&gt;Node33</title>
<path fill="none" stroke="midnightblue" d="M767.441,-10C789.184,-10 816.086,-10 835.801,-10"/>
<polygon fill="midnightblue" stroke="midnightblue" points="767.236,-6.5001 757.235,-10 767.235,-13.5001 767.236,-6.5001"/>
</g>
<!-- Node33&#45;&gt;Node29 -->
<g id="edge35" class="edge"><title>Node33&#45;&gt;Node29</title>
<path fill="none" stroke="midnightblue" d="M902.406,-15.5525C917.893,-17.8513 935.907,-20.5252 951.773,-22.8804"/>
<polygon fill="midnightblue" stroke="midnightblue" points="902.551,-12.0357 892.146,-14.0294 901.523,-18.9598 902.551,-12.0357"/>
</g>
</g>
</svg>
        <g id="navigator" transform="translate(0 0)" fill="#404254">
                <rect fill="#f2f5e9" fill-opacity="0.5" stroke="#606060" stroke-width=".5" x="0" y="0" width="60" height="60"/>
                <use id="zoomplus" xlink:href="#zoomPlus" x="17" y="9" onmousedown="handleZoom(evt,'in')"/>
                <use id="zoomminus" xlink:href="#zoomMin" x="42" y="9" onmousedown="handleZoom(evt,'out')"/>
                <use id="reset" xlink:href="#resetDef" x="30" y="36" onmousedown="handleReset()"/>
                <g id="arrowUp" xlink:href="#dirArrow" transform="translate(30 24)" onmousedown="handlePan(0,-1)">
                  <use xlink:href="#rim" fill="#404040">
                        <set attributeName="fill" to="#808080" begin="arrowUp.mouseover" end="arrowUp.mouseout"/>
                  </use>
                  <path fill="none" stroke="white" stroke-width="1.5" d="M0,-3.0v7 M-2.5,-0.5L0,-3.0L2.5,-0.5"/>
                </g>
                <g id="arrowRight" xlink:href="#dirArrow" transform="rotate(90) translate(36 -43)" onmousedown="handlePan(1,0)">
                  <use xlink:href="#rim" fill="#404040">
                        <set attributeName="fill" to="#808080" begin="arrowRight.mouseover" end="arrowRight.mouseout"/>
                  </use>
                  <path fill="none" stroke="white" stroke-width="1.5" d="M0,-3.0v7 M-2.5,-0.5L0,-3.0L2.5,-0.5"/>
                </g>
                <g id="arrowDown" xlink:href="#dirArrow" transform="rotate(180) translate(-30 -48)" onmousedown="handlePan(0,1)">
                  <use xlink:href="#rim" fill="#404040">
                        <set attributeName="fill" to="#808080" begin="arrowDown.mouseover" end="arrowDown.mouseout"/>
                  </use>
                  <path fill="none" stroke="white" stroke-width="1.5" d="M0,-3.0v7 M-2.5,-0.5L0,-3.0L2.5,-0.5"/>
                </g>
                <g id="arrowLeft" xlink:href="#dirArrow" transform="rotate(270) translate(-36 17)" onmousedown="handlePan(-1,0)">
                  <use xlink:href="#rim" fill="#404040">
                        <set attributeName="fill" to="#808080" begin="arrowLeft.mouseover" end="arrowLeft.mouseout"/>
                  </use>
                  <path fill="none" stroke="white" stroke-width="1.5" d="M0,-3.0v7 M-2.5,-0.5L0,-3.0L2.5,-0.5"/>
                </g>
        </g>
        <svg viewBox="0 0 15 15" width="100%" height="30px" preserveAspectRatio="xMaxYMin meet">
         <g id="arrow_out" transform="scale(0.3 0.3)">
          <a xlink:href="scheduler_8c_a22cdf3ef2a58a258301d5b3cc2aae8c5_icgraph_org.svg" target="_base">
           <rect id="button" ry="5" rx="5" y="6" x="6" height="38" width="38"
                fill="#f2f5e9" fill-opacity="0.5" stroke="#606060" stroke-width="1.0"/>
           <path id="arrow"
             d="M 11.500037,31.436501 C 11.940474,20.09759 22.043105,11.32322 32.158766,21.979434 L 37.068811,17.246167 C 37.068811,17.246167 37.088388,32 37.088388,32 L 22.160133,31.978069 C 22.160133,31.978069 26.997745,27.140456 26.997745,27.140456 C 18.528582,18.264221 13.291696,25.230495 11.500037,31.436501 z"
             style="fill:#404040;"/>
          </a>
         </g>
        </svg>
</svg>
