<?xml version="1.0" encoding="UTF-8" standalone="no"?>
<!DOCTYPE svg PUBLIC "-//W3C//DTD SVG 1.1//EN"
 "http://www.w3.org/Graphics/SVG/1.1/DTD/svg11.dtd">
<!-- Generated by graphviz version 2.36.0 (20140111.2315)
 -->
<!-- Title: guest_hash Pages: 1 -->
<svg width="474pt" height="123pt"
 viewBox="0.00 0.00 474.00 123.00" xmlns="http://www.w3.org/2000/svg" xmlns:xlink="http://www.w3.org/1999/xlink">
<g id="graph0" class="graph" transform="scale(1 1) rotate(0) translate(4 119)">
<title>guest_hash</title>
<!-- Node1 -->
<g id="node1" class="node"><title>Node1</title>
<polygon fill="#bfbfbf" stroke="black" points="0.5,-47.5 0.5,-66.5 67.5,-66.5 67.5,-47.5 0.5,-47.5"/>
<text text-anchor="middle" x="34" y="-54.5" font-family="Helvetica,sans-Serif" font-size="10.00">guest_hash</text>
</g>
<!-- Node2 -->
<g id="node2" class="node"><title>Node2</title>
<g id="a_node2"><a xlink:href="../../d1/d4c/ext_2dumm_8c.html#a53d777c6880c18b621e9d6f59bfa4d66" target="_top" xlink:title="guest_each">
<polygon fill="none" stroke="black" points="204.5,-95.5 204.5,-114.5 271.5,-114.5 271.5,-95.5 204.5,-95.5"/>
<text text-anchor="middle" x="238" y="-102.5" font-family="Helvetica,sans-Serif" font-size="10.00">guest_each</text>
</a>
</g>
</g>
<!-- Node1&#45;&gt;Node2 -->
<g id="edge1" class="edge"><title>Node1&#45;&gt;Node2</title>
<path fill="none" stroke="midnightblue" d="M77.2604,-69.0252C86.074,-71.4238 95.3225,-73.8609 104,-76 138.075,-84.3998 177.371,-92.8128 204.365,-98.3972"/>
<polygon fill="midnightblue" stroke="midnightblue" points="78.1183,-65.6312 67.5479,-66.3513 76.2602,-72.3801 78.1183,-65.6312"/>
</g>
<!-- Node5 -->
<g id="node5" class="node"><title>Node5</title>
<g id="a_node5"><a xlink:href="../../d1/d4c/ext_2dumm_8c.html#a8e3a2cdf7a4331c5f61482c9a1b19dac" target="_top" xlink:title="guest_find">
<polygon fill="none" stroke="black" points="105,-47.5 105,-66.5 167,-66.5 167,-47.5 105,-47.5"/>
<text text-anchor="middle" x="136" y="-54.5" font-family="Helvetica,sans-Serif" font-size="10.00">guest_find</text>
</a>
</g>
</g>
<!-- Node1&#45;&gt;Node5 -->
<g id="edge4" class="edge"><title>Node1&#45;&gt;Node5</title>
<path fill="none" stroke="midnightblue" d="M77.8268,-57C86.9384,-57 96.3745,-57 104.891,-57"/>
<polygon fill="midnightblue" stroke="midnightblue" points="77.7438,-53.5001 67.7437,-57 77.7437,-60.5001 77.7438,-53.5001"/>
</g>
<!-- Node7 -->
<g id="node7" class="node"><title>Node7</title>
<g id="a_node7"><a xlink:href="../../d1/d4c/ext_2dumm_8c.html#a855600e413bdf9b4b404a78e78419d32" target="_top" xlink:title="guest_new">
<polygon fill="none" stroke="black" points="104,-0.5 104,-19.5 168,-19.5 168,-0.5 104,-0.5"/>
<text text-anchor="middle" x="136" y="-7.5" font-family="Helvetica,sans-Serif" font-size="10.00">guest_new</text>
</a>
</g>
</g>
<!-- Node1&#45;&gt;Node7 -->
<g id="edge8" class="edge"><title>Node1&#45;&gt;Node7</title>
<path fill="none" stroke="midnightblue" d="M64.7061,-43.0381C80.7302,-35.5068 100.104,-26.4013 114.45,-19.6583"/>
<polygon fill="midnightblue" stroke="midnightblue" points="62.798,-40.0676 55.2365,-47.4888 65.7755,-46.4028 62.798,-40.0676"/>
</g>
<!-- Node3 -->
<g id="node3" class="node"><title>Node3</title>
<g id="a_node3"><a xlink:href="../../d1/d4c/ext_2dumm_8c.html#a1d568426e589d4d278d2c44184bd3d76" target="_top" xlink:title="guest_init">
<polygon fill="none" stroke="black" points="308.5,-38.5 308.5,-57.5 367.5,-57.5 367.5,-38.5 308.5,-38.5"/>
<text text-anchor="middle" x="338" y="-45.5" font-family="Helvetica,sans-Serif" font-size="10.00">guest_init</text>
</a>
</g>
</g>
<!-- Node2&#45;&gt;Node3 -->
<g id="edge2" class="edge"><title>Node2&#45;&gt;Node3</title>
<path fill="none" stroke="midnightblue" d="M264.335,-90.2642C282.077,-79.9452 305.265,-66.4581 320.621,-57.5265"/>
<polygon fill="midnightblue" stroke="midnightblue" points="262.509,-87.2775 255.624,-95.3307 266.028,-93.3284 262.509,-87.2775"/>
</g>
<!-- Node4 -->
<g id="node4" class="node"><title>Node4</title>
<g id="a_node4"><a xlink:href="../../d1/d4c/ext_2dumm_8c.html#a483775b052d2c5ac3e09664bcbe4f09b" target="_top" xlink:title="Init_dumm">
<polygon fill="none" stroke="black" points="404,-38.5 404,-57.5 466,-57.5 466,-38.5 404,-38.5"/>
<text text-anchor="middle" x="435" y="-45.5" font-family="Helvetica,sans-Serif" font-size="10.00">Init_dumm</text>
</a>
</g>
</g>
<!-- Node3&#45;&gt;Node4 -->
<g id="edge3" class="edge"><title>Node3&#45;&gt;Node4</title>
<path fill="none" stroke="midnightblue" d="M377.532,-48C386.305,-48 395.502,-48 403.866,-48"/>
<polygon fill="midnightblue" stroke="midnightblue" points="377.503,-44.5001 367.503,-48 377.503,-51.5001 377.503,-44.5001"/>
</g>
<!-- Node5&#45;&gt;Node3 -->
<g id="edge7" class="edge"><title>Node5&#45;&gt;Node3</title>
<path fill="none" stroke="midnightblue" d="M177.799,-55.164C216.627,-53.4168 274.062,-50.8322 308.288,-49.292"/>
<polygon fill="midnightblue" stroke="midnightblue" points="177.208,-51.687 167.376,-55.6331 177.523,-58.6799 177.208,-51.687"/>
</g>
<!-- Node6 -->
<g id="node6" class="node"><title>Node6</title>
<g id="a_node6"><a xlink:href="../../d1/d4c/ext_2dumm_8c.html#a2a61bb55bf38aa155e9d86cf1f56f050" target="_top" xlink:title="guest_get">
<polygon fill="none" stroke="black" points="208.5,-19.5 208.5,-38.5 267.5,-38.5 267.5,-19.5 208.5,-19.5"/>
<text text-anchor="middle" x="238" y="-26.5" font-family="Helvetica,sans-Serif" font-size="10.00">guest_get</text>
</a>
</g>
</g>
<!-- Node5&#45;&gt;Node6 -->
<g id="edge5" class="edge"><title>Node5&#45;&gt;Node6</title>
<path fill="none" stroke="midnightblue" d="M176.856,-45.8404C187.4,-42.888 198.573,-39.7596 208.39,-37.0108"/>
<polygon fill="midnightblue" stroke="midnightblue" points="175.689,-42.5323 167.003,-48.5991 177.577,-49.2731 175.689,-42.5323"/>
</g>
<!-- Node6&#45;&gt;Node3 -->
<g id="edge6" class="edge"><title>Node6&#45;&gt;Node3</title>
<path fill="none" stroke="midnightblue" d="M277.537,-36.4714C287.746,-38.4508 298.592,-40.5535 308.186,-42.4135"/>
<polygon fill="midnightblue" stroke="midnightblue" points="278.092,-33.0141 267.609,-34.5467 276.76,-39.8861 278.092,-33.0141"/>
</g>
<!-- Node7&#45;&gt;Node3 -->
<g id="edge9" class="edge"><title>Node7&#45;&gt;Node3</title>
<path fill="none" stroke="midnightblue" d="M178.458,-4.45945C205.55,-2.18069 241.444,-1.72352 272,-10 292.187,-15.468 312.531,-28.9447 324.95,-38.2834"/>
<polygon fill="midnightblue" stroke="midnightblue" points="177.787,-1.00767 168.167,-5.44705 178.456,-7.97565 177.787,-1.00767"/>
</g>
</g>
</svg>
