<?xml version="1.0" encoding="UTF-8" standalone="no"?>
<!DOCTYPE svg PUBLIC "-//W3C//DTD SVG 1.1//EN"
 "http://www.w3.org/Graphics/SVG/1.1/DTD/svg11.dtd">
<!-- Generated by graphviz version 2.36.0 (20140111.2315)
 -->
<!-- Title: bliss_public_key_info_encode Pages: 1 -->
<svg width="388pt" height="66pt"
 viewBox="0.00 0.00 388.00 66.00" xmlns="http://www.w3.org/2000/svg" xmlns:xlink="http://www.w3.org/1999/xlink">
<g id="graph0" class="graph" transform="scale(1 1) rotate(0) translate(4 62)">
<title>bliss_public_key_info_encode</title>
<!-- Node1 -->
<g id="node1" class="node"><title>Node1</title>
<polygon fill="#bfbfbf" stroke="black" points="0,-14 0,-44 110,-44 110,-14 0,-14"/>
<text text-anchor="start" x="8" y="-32" font-family="Helvetica,sans-Serif" font-size="10.00">bliss_public_key_info</text>
<text text-anchor="middle" x="55" y="-21" font-family="Helvetica,sans-Serif" font-size="10.00">_encode</text>
</g>
<!-- Node2 -->
<g id="node2" class="node"><title>Node2</title>
<g id="a_node2"><a xlink:href="../../d1/d4c/group__bliss__public__key.html#ga42542e450abcf0ee40b2e8b47fcde8ee" target="_top" xlink:title="bliss_public_key_fingerprint">
<polygon fill="none" stroke="black" points="146.5,-38.5 146.5,-57.5 283.5,-57.5 283.5,-38.5 146.5,-38.5"/>
<text text-anchor="middle" x="215" y="-45.5" font-family="Helvetica,sans-Serif" font-size="10.00">bliss_public_key_fingerprint</text>
</a>
</g>
</g>
<!-- Node1&#45;&gt;Node2 -->
<g id="edge1" class="edge"><title>Node1&#45;&gt;Node2</title>
<path fill="none" stroke="midnightblue" d="M120.327,-36.7356C128.921,-37.769 137.755,-38.8313 146.403,-39.8712"/>
<polygon fill="midnightblue" stroke="midnightblue" points="120.721,-33.2578 110.375,-35.5387 119.885,-40.2077 120.721,-33.2578"/>
</g>
<!-- Node4 -->
<g id="node4" class="node"><title>Node4</title>
<g id="a_node4"><a xlink:href="../../df/d6a/bliss__private__key_8c.html#a925a7a90c1a72c6bc10b9e35a2c48399" target="_top" xlink:title="METHOD">
<polygon fill="none" stroke="black" points="185,-0.5 185,-19.5 245,-19.5 245,-0.5 185,-0.5"/>
<text text-anchor="middle" x="215" y="-7.5" font-family="Helvetica,sans-Serif" font-size="10.00">METHOD</text>
</a>
</g>
</g>
<!-- Node1&#45;&gt;Node4 -->
<g id="edge3" class="edge"><title>Node1&#45;&gt;Node4</title>
<path fill="none" stroke="midnightblue" d="M120.5,-21.2437C142.841,-18.5571 166.784,-15.6779 184.848,-13.5056"/>
<polygon fill="midnightblue" stroke="midnightblue" points="119.885,-17.7923 110.375,-22.4613 120.721,-24.7422 119.885,-17.7923"/>
</g>
<!-- Node3 -->
<g id="node3" class="node"><title>Node3</title>
<g id="a_node3"><a xlink:href="../../df/d6a/bliss__private__key_8c.html#abc40f30002beac5a8ea940ebecb4bb10" target="_top" xlink:title="METHOD">
<polygon fill="none" stroke="black" points="320,-38.5 320,-57.5 380,-57.5 380,-38.5 320,-38.5"/>
<text text-anchor="middle" x="350" y="-45.5" font-family="Helvetica,sans-Serif" font-size="10.00">METHOD</text>
</a>
</g>
</g>
<!-- Node2&#45;&gt;Node3 -->
<g id="edge2" class="edge"><title>Node2&#45;&gt;Node3</title>
<path fill="none" stroke="midnightblue" d="M293.747,-48C302.96,-48 311.876,-48 319.76,-48"/>
<polygon fill="midnightblue" stroke="midnightblue" points="293.669,-44.5001 283.669,-48 293.669,-51.5001 293.669,-44.5001"/>
</g>
</g>
</svg>
