<?xml version="1.0" encoding="UTF-8" standalone="no"?>
<!DOCTYPE svg PUBLIC "-//W3C//DTD SVG 1.1//EN"
 "http://www.w3.org/Graphics/SVG/1.1/DTD/svg11.dtd">
<!-- Generated by graphviz version 2.36.0 (20140111.2315)
 -->
<!-- Title: bliss_public_key_from_asn1 Pages: 1 -->
<svg width="476pt" height="115pt"
 viewBox="0.00 0.00 476.00 115.00" xmlns="http://www.w3.org/2000/svg" xmlns:xlink="http://www.w3.org/1999/xlink">
<g id="graph0" class="graph" transform="scale(1 1) rotate(0) translate(4 111)">
<title>bliss_public_key_from_asn1</title>
<!-- Node1 -->
<g id="node1" class="node"><title>Node1</title>
<polygon fill="#bfbfbf" stroke="black" points="0,-38.5 0,-57.5 140,-57.5 140,-38.5 0,-38.5"/>
<text text-anchor="middle" x="70" y="-45.5" font-family="Helvetica,sans-Serif" font-size="10.00">bliss_public_key_from_asn1</text>
</g>
<!-- Node2 -->
<g id="node2" class="node"><title>Node2</title>
<g id="a_node2"><a xlink:href="../../d6/d34/group__bliss__bitpacker.html#gad1fb14d20c114c5aba0c1cb7576e3b8c" target="_top" xlink:title="bliss_bitpacker_create\l_from_data">
<polygon fill="none" stroke="black" points="176,-77 176,-107 290,-107 290,-77 176,-77"/>
<text text-anchor="start" x="184" y="-95" font-family="Helvetica,sans-Serif" font-size="10.00">bliss_bitpacker_create</text>
<text text-anchor="middle" x="233" y="-84" font-family="Helvetica,sans-Serif" font-size="10.00">_from_data</text>
</a>
</g>
</g>
<!-- Node1&#45;&gt;Node2 -->
<g id="edge1" class="edge"><title>Node1&#45;&gt;Node2</title>
<path fill="none" stroke="midnightblue" d="M105.935,-57.5473C123.819,-62.4349 146.176,-68.5451 167.077,-74.2571"/>
<polygon fill="midnightblue" stroke="midnightblue" points="166.305,-77.6745 176.874,-76.9346 168.151,-70.9221 166.305,-77.6745"/>
</g>
<!-- Node5 -->
<g id="node5" class="node"><title>Node5</title>
<g id="a_node5"><a xlink:href="../../d4/d87/group__chunk.html#gaaabd31666a00f250bb4a339c82373be8" target="_top" xlink:title="chunk_skip">
<polygon fill="none" stroke="black" points="200,-38.5 200,-57.5 266,-57.5 266,-38.5 200,-38.5"/>
<text text-anchor="middle" x="233" y="-45.5" font-family="Helvetica,sans-Serif" font-size="10.00">chunk_skip</text>
</a>
</g>
</g>
<!-- Node1&#45;&gt;Node5 -->
<g id="edge4" class="edge"><title>Node1&#45;&gt;Node5</title>
<path fill="none" stroke="midnightblue" d="M140.213,-48C157.109,-48 174.682,-48 189.875,-48"/>
<polygon fill="midnightblue" stroke="midnightblue" points="189.975,-51.5001 199.975,-48 189.975,-44.5001 189.975,-51.5001"/>
</g>
<!-- Node6 -->
<g id="node6" class="node"><title>Node6</title>
<g id="a_node6"><a xlink:href="../../da/dfc/settings__parser_8c.html#a5faf6a2d99f50a4655dd390199a8db7b" target="_top" xlink:title="malloc">
<polygon fill="none" stroke="black" points="210.5,-0.5 210.5,-19.5 255.5,-19.5 255.5,-0.5 210.5,-0.5"/>
<text text-anchor="middle" x="233" y="-7.5" font-family="Helvetica,sans-Serif" font-size="10.00">malloc</text>
</a>
</g>
</g>
<!-- Node1&#45;&gt;Node6 -->
<g id="edge5" class="edge"><title>Node1&#45;&gt;Node6</title>
<path fill="none" stroke="midnightblue" d="M111.627,-38.411C139.137,-31.9181 174.958,-23.4634 200.35,-17.4701"/>
<polygon fill="midnightblue" stroke="midnightblue" points="201.275,-20.8482 210.203,-15.1446 199.666,-14.0354 201.275,-20.8482"/>
</g>
<!-- Node3 -->
<g id="node3" class="node"><title>Node3</title>
<g id="a_node3"><a xlink:href="../../da/dbd/group__align__i.html#ga601113ac97db27e9d8ed1ac94b38913d" target="_top" xlink:title="round_up">
<polygon fill="none" stroke="black" points="326,-82.5 326,-101.5 382,-101.5 382,-82.5 326,-82.5"/>
<text text-anchor="middle" x="354" y="-89.5" font-family="Helvetica,sans-Serif" font-size="10.00">round_up</text>
</a>
</g>
</g>
<!-- Node2&#45;&gt;Node3 -->
<g id="edge2" class="edge"><title>Node2&#45;&gt;Node3</title>
<path fill="none" stroke="midnightblue" d="M290.015,-92C298.65,-92 307.383,-92 315.483,-92"/>
<polygon fill="midnightblue" stroke="midnightblue" points="315.706,-95.5001 325.706,-92 315.706,-88.5001 315.706,-95.5001"/>
</g>
<!-- Node4 -->
<g id="node4" class="node"><title>Node4</title>
<g id="a_node4"><a xlink:href="../../da/dbd/group__align__i.html#ga2e30c21b6abf68fad660942e484d459c" target="_top" xlink:title="pad_len">
<polygon fill="none" stroke="black" points="418,-82.5 418,-101.5 468,-101.5 468,-82.5 418,-82.5"/>
<text text-anchor="middle" x="443" y="-89.5" font-family="Helvetica,sans-Serif" font-size="10.00">pad_len</text>
</a>
</g>
</g>
<!-- Node3&#45;&gt;Node4 -->
<g id="edge3" class="edge"><title>Node3&#45;&gt;Node4</title>
<path fill="none" stroke="midnightblue" d="M382.05,-92C390.207,-92 399.268,-92 407.824,-92"/>
<polygon fill="midnightblue" stroke="midnightblue" points="407.915,-95.5001 417.915,-92 407.915,-88.5001 407.915,-95.5001"/>
</g>
</g>
</svg>
