<?xml version="1.0" encoding="UTF-8" standalone="no"?>
<!DOCTYPE svg PUBLIC "-//W3C//DTD SVG 1.1//EN"
 "http://www.w3.org/Graphics/SVG/1.1/DTD/svg11.dtd">
<!-- Generated by graphviz version 2.36.0 (20140111.2315)
 -->
<!-- Title: timeval_add_ms Pages: 1 -->
<svg width="872pt" height="294pt"
 viewBox="0.00 0.00 872.00 294.00" xmlns="http://www.w3.org/2000/svg" xmlns:xlink="http://www.w3.org/1999/xlink">
<g id="graph0" class="graph" transform="scale(1 1) rotate(0) translate(4 290)">
<title>timeval_add_ms</title>
<!-- Node1 -->
<g id="node1" class="node"><title>Node1</title>
<polygon fill="#bfbfbf" stroke="black" points="0,-114.5 0,-133.5 88,-133.5 88,-114.5 0,-114.5"/>
<text text-anchor="middle" x="44" y="-121.5" font-family="Helvetica,sans-Serif" font-size="10.00">timeval_add_ms</text>
</g>
<!-- Node2 -->
<g id="node2" class="node"><title>Node2</title>
<g id="a_node2"><a xlink:href="../../d7/d3d/kernel__iph__net_8c.html#a9678412657577567f7a54d96c5590579" target="_top" xlink:title="fire_roam_event">
<polygon fill="none" stroke="black" points="136,-209.5 136,-228.5 222,-228.5 222,-209.5 136,-209.5"/>
<text text-anchor="middle" x="179" y="-216.5" font-family="Helvetica,sans-Serif" font-size="10.00">fire_roam_event</text>
</a>
</g>
</g>
<!-- Node1&#45;&gt;Node2 -->
<g id="edge1" class="edge"><title>Node1&#45;&gt;Node2</title>
<path fill="none" stroke="midnightblue" d="M66.2112,-139.408C82.0888,-150.916 104.36,-167.005 124,-181 137.63,-190.713 153.277,-201.707 164.208,-209.361"/>
<polygon fill="midnightblue" stroke="midnightblue" points="68.2552,-136.567 58.1054,-133.528 64.145,-142.233 68.2552,-136.567"/>
</g>
<!-- Node10 -->
<g id="node10" class="node"><title>Node10</title>
<g id="a_node10"><a xlink:href="../../d8/d62/mutex_8c.html#ac9ecfa77806b8b585eb01f5df6e984fa" target="_top" xlink:title="METHOD">
<polygon fill="none" stroke="black" points="149,-152.5 149,-171.5 209,-171.5 209,-152.5 149,-152.5"/>
<text text-anchor="middle" x="179" y="-159.5" font-family="Helvetica,sans-Serif" font-size="10.00">METHOD</text>
</a>
</g>
</g>
<!-- Node1&#45;&gt;Node10 -->
<g id="edge12" class="edge"><title>Node1&#45;&gt;Node10</title>
<path fill="none" stroke="midnightblue" d="M88.3225,-136.378C108.194,-142.055 131.222,-148.635 148.967,-153.705"/>
<polygon fill="midnightblue" stroke="midnightblue" points="89.1383,-132.971 78.5615,-133.589 87.2152,-139.702 89.1383,-132.971"/>
</g>
<!-- Node11 -->
<g id="node11" class="node"><title>Node11</title>
<g id="a_node11"><a xlink:href="../../d5/d90/kernel__netlink__net_8c.html#a0f4d312f2e3ae7e2ef669ff35e21bee8" target="_top" xlink:title="queue_route_reinstall">
<polygon fill="none" stroke="black" points="124.5,-114.5 124.5,-133.5 233.5,-133.5 233.5,-114.5 124.5,-114.5"/>
<text text-anchor="middle" x="179" y="-121.5" font-family="Helvetica,sans-Serif" font-size="10.00">queue_route_reinstall</text>
</a>
</g>
</g>
<!-- Node1&#45;&gt;Node11 -->
<g id="edge13" class="edge"><title>Node1&#45;&gt;Node11</title>
<path fill="none" stroke="midnightblue" d="M98.4077,-124C106.946,-124 115.785,-124 124.329,-124"/>
<polygon fill="midnightblue" stroke="midnightblue" points="98.1813,-120.5 88.1813,-124 98.1813,-127.5 98.1813,-120.5"/>
</g>
<!-- Node19 -->
<g id="node19" class="node"><title>Node19</title>
<g id="a_node19"><a xlink:href="../../d1/dfe/kernel__netlink__shared_8c.html#a2403344f96176602cdc088e56fd08d02" target="_top" xlink:title="read_msg">
<polygon fill="none" stroke="black" points="149.5,-76.5 149.5,-95.5 208.5,-95.5 208.5,-76.5 149.5,-76.5"/>
<text text-anchor="middle" x="179" y="-83.5" font-family="Helvetica,sans-Serif" font-size="10.00">read_msg</text>
</a>
</g>
</g>
<!-- Node1&#45;&gt;Node19 -->
<g id="edge24" class="edge"><title>Node1&#45;&gt;Node19</title>
<path fill="none" stroke="midnightblue" d="M88.394,-111.602C108.414,-105.882 131.625,-99.2499 149.407,-94.1695"/>
<polygon fill="midnightblue" stroke="midnightblue" points="87.2152,-108.298 78.5615,-114.411 89.1383,-115.029 87.2152,-108.298"/>
</g>
<!-- Node24 -->
<g id="node24" class="node"><title>Node24</title>
<g id="a_node24"><a xlink:href="../../d9/dbe/test__utils_8c.html#a68351e9d479ea6c75d8f6342b667c9ca" target="_top" xlink:title="START_TEST">
<polygon fill="none" stroke="black" points="139,-38.5 139,-57.5 219,-57.5 219,-38.5 139,-38.5"/>
<text text-anchor="middle" x="179" y="-45.5" font-family="Helvetica,sans-Serif" font-size="10.00">START_TEST</text>
</a>
</g>
</g>
<!-- Node1&#45;&gt;Node24 -->
<g id="edge29" class="edge"><title>Node1&#45;&gt;Node24</title>
<path fill="none" stroke="midnightblue" d="M63.8457,-108.015C79.2473,-95.5587 101.995,-78.5027 124,-67 130.87,-63.4088 138.567,-60.2422 145.948,-57.5747"/>
<polygon fill="midnightblue" stroke="midnightblue" points="61.59,-105.339 56.0964,-114.398 66.0404,-110.742 61.59,-105.339"/>
</g>
<!-- Node3 -->
<g id="node3" class="node"><title>Node3</title>
<g id="a_node3"><a xlink:href="../../d7/d3d/kernel__iph__net_8c.html#ad9e91c77b4d133e0a7f53bbc6b0f9dc8" target="_top" xlink:title="remove_interface">
<polygon fill="none" stroke="black" points="270,-266.5 270,-285.5 362,-285.5 362,-266.5 270,-266.5"/>
<text text-anchor="middle" x="316" y="-273.5" font-family="Helvetica,sans-Serif" font-size="10.00">remove_interface</text>
</a>
</g>
</g>
<!-- Node2&#45;&gt;Node3 -->
<g id="edge2" class="edge"><title>Node2&#45;&gt;Node3</title>
<path fill="none" stroke="midnightblue" d="M211.925,-232.479C236.655,-242.921 270.304,-257.129 292.33,-266.428"/>
<polygon fill="midnightblue" stroke="midnightblue" points="213.17,-229.206 202.596,-228.541 210.447,-235.655 213.17,-229.206"/>
</g>
<!-- Node7 -->
<g id="node7" class="node"><title>Node7</title>
<g id="a_node7"><a xlink:href="../../d7/d3d/kernel__iph__net_8c.html#ae0f433c0954c7265ff456f0a698e07a5" target="_top" xlink:title="update_addrs">
<polygon fill="none" stroke="black" points="278.5,-228.5 278.5,-247.5 353.5,-247.5 353.5,-228.5 278.5,-228.5"/>
<text text-anchor="middle" x="316" y="-235.5" font-family="Helvetica,sans-Serif" font-size="10.00">update_addrs</text>
</a>
</g>
</g>
<!-- Node2&#45;&gt;Node7 -->
<g id="edge6" class="edge"><title>Node2&#45;&gt;Node7</title>
<path fill="none" stroke="midnightblue" d="M232.247,-226.353C247.615,-228.516 264.096,-230.836 278.272,-232.831"/>
<polygon fill="midnightblue" stroke="midnightblue" points="232.735,-222.888 222.344,-224.96 231.759,-229.819 232.735,-222.888"/>
</g>
<!-- Node9 -->
<g id="node9" class="node"><title>Node9</title>
<g id="a_node9"><a xlink:href="../../d7/d3d/kernel__iph__net_8c.html#a6561f672f526374b4971a5aac1dad555" target="_top" xlink:title="update_interface">
<polygon fill="none" stroke="black" points="398.5,-190.5 398.5,-209.5 487.5,-209.5 487.5,-190.5 398.5,-190.5"/>
<text text-anchor="middle" x="443" y="-197.5" font-family="Helvetica,sans-Serif" font-size="10.00">update_interface</text>
</a>
</g>
</g>
<!-- Node2&#45;&gt;Node9 -->
<g id="edge11" class="edge"><title>Node2&#45;&gt;Node9</title>
<path fill="none" stroke="midnightblue" d="M232.106,-215.221C280.75,-211.694 352.522,-206.489 398.262,-203.172"/>
<polygon fill="midnightblue" stroke="midnightblue" points="231.815,-211.733 222.095,-215.947 232.322,-218.715 231.815,-211.733"/>
</g>
<!-- Node4 -->
<g id="node4" class="node"><title>Node4</title>
<g id="a_node4"><a xlink:href="../../d7/d3d/kernel__iph__net_8c.html#ad06e9aea0b0dd215f0e3910e6829cd14" target="_top" xlink:title="change_interface">
<polygon fill="none" stroke="black" points="526.5,-228.5 526.5,-247.5 617.5,-247.5 617.5,-228.5 526.5,-228.5"/>
<text text-anchor="middle" x="572" y="-235.5" font-family="Helvetica,sans-Serif" font-size="10.00">change_interface</text>
</a>
</g>
</g>
<!-- Node3&#45;&gt;Node4 -->
<g id="edge3" class="edge"><title>Node3&#45;&gt;Node4</title>
<path fill="none" stroke="midnightblue" d="M372.286,-271.473C405.882,-268.322 449.567,-263.512 488,-257 503.012,-254.456 519.38,-250.884 533.583,-247.522"/>
<polygon fill="midnightblue" stroke="midnightblue" points="371.839,-268 362.2,-272.398 372.478,-274.97 371.839,-268"/>
</g>
<!-- Node5 -->
<g id="node5" class="node"><title>Node5</title>
<g id="a_node5"><a xlink:href="../../d4/dee/group__kernel__iph__net__i.html#ga64fae3c567020cfd75b0f5122c65e27d" target="_top" xlink:title="kernel_iph_net_create">
<polygon fill="none" stroke="black" points="656,-228.5 656,-247.5 768,-247.5 768,-228.5 656,-228.5"/>
<text text-anchor="middle" x="712" y="-235.5" font-family="Helvetica,sans-Serif" font-size="10.00">kernel_iph_net_create</text>
</a>
</g>
</g>
<!-- Node4&#45;&gt;Node5 -->
<g id="edge4" class="edge"><title>Node4&#45;&gt;Node5</title>
<path fill="none" stroke="midnightblue" d="M627.966,-238C637.128,-238 646.635,-238 655.803,-238"/>
<polygon fill="midnightblue" stroke="midnightblue" points="627.805,-234.5 617.805,-238 627.805,-241.5 627.805,-234.5"/>
</g>
<!-- Node6 -->
<g id="node6" class="node"><title>Node6</title>
<g id="a_node6"><a xlink:href="../../dd/dd4/kernel__iph__plugin_8c.html#a26941195ca83bac4b1e9bb4b49329607" target="_top" xlink:title="METHOD">
<polygon fill="none" stroke="black" points="804,-228.5 804,-247.5 864,-247.5 864,-228.5 804,-228.5"/>
<text text-anchor="middle" x="834" y="-235.5" font-family="Helvetica,sans-Serif" font-size="10.00">METHOD</text>
</a>
</g>
</g>
<!-- Node5&#45;&gt;Node6 -->
<g id="edge5" class="edge"><title>Node5&#45;&gt;Node6</title>
<path fill="none" stroke="midnightblue" d="M778.211,-238C787.161,-238 795.955,-238 803.789,-238"/>
<polygon fill="midnightblue" stroke="midnightblue" points="778.083,-234.5 768.083,-238 778.083,-241.5 778.083,-234.5"/>
</g>
<!-- Node8 -->
<g id="node8" class="node"><title>Node8</title>
<g id="a_node8"><a xlink:href="../../d7/d3d/kernel__iph__net_8c.html#aac0c547b355dc0603714fd86de2d6147" target="_top" xlink:title="add_interface">
<polygon fill="none" stroke="black" points="405.5,-228.5 405.5,-247.5 480.5,-247.5 480.5,-228.5 405.5,-228.5"/>
<text text-anchor="middle" x="443" y="-235.5" font-family="Helvetica,sans-Serif" font-size="10.00">add_interface</text>
</a>
</g>
</g>
<!-- Node7&#45;&gt;Node8 -->
<g id="edge7" class="edge"><title>Node7&#45;&gt;Node8</title>
<path fill="none" stroke="midnightblue" d="M364.047,-238C377.74,-238 392.49,-238 405.435,-238"/>
<polygon fill="midnightblue" stroke="midnightblue" points="363.828,-234.5 353.828,-238 363.828,-241.5 363.828,-234.5"/>
</g>
<!-- Node7&#45;&gt;Node9 -->
<g id="edge9" class="edge"><title>Node7&#45;&gt;Node9</title>
<path fill="none" stroke="midnightblue" d="M358.235,-225.465C375.239,-220.295 394.629,-214.401 410.467,-209.586"/>
<polygon fill="midnightblue" stroke="midnightblue" points="357.092,-222.154 348.543,-228.411 359.128,-228.851 357.092,-222.154"/>
</g>
<!-- Node8&#45;&gt;Node4 -->
<g id="edge8" class="edge"><title>Node8&#45;&gt;Node4</title>
<path fill="none" stroke="midnightblue" d="M491.04,-238C502.551,-238 514.837,-238 526.239,-238"/>
<polygon fill="midnightblue" stroke="midnightblue" points="490.734,-234.5 480.734,-238 490.734,-241.5 490.734,-234.5"/>
</g>
<!-- Node9&#45;&gt;Node4 -->
<g id="edge10" class="edge"><title>Node9&#45;&gt;Node4</title>
<path fill="none" stroke="midnightblue" d="M485.894,-212.535C503.171,-217.705 522.871,-223.599 538.963,-228.414"/>
<polygon fill="midnightblue" stroke="midnightblue" points="486.631,-209.103 476.047,-209.589 484.624,-215.809 486.631,-209.103"/>
</g>
<!-- Node12 -->
<g id="node12" class="node"><title>Node12</title>
<g id="a_node12"><a xlink:href="../../d5/d90/kernel__netlink__net_8c.html#aeca4a8be4eca27916eee69fadda9b886" target="_top" xlink:title="METHOD">
<polygon fill="none" stroke="black" points="286,-152.5 286,-171.5 346,-171.5 346,-152.5 286,-152.5"/>
<text text-anchor="middle" x="316" y="-159.5" font-family="Helvetica,sans-Serif" font-size="10.00">METHOD</text>
</a>
</g>
</g>
<!-- Node11&#45;&gt;Node12 -->
<g id="edge14" class="edge"><title>Node11&#45;&gt;Node12</title>
<path fill="none" stroke="midnightblue" d="M223.768,-136.32C244.153,-142.058 267.845,-148.727 285.977,-153.831"/>
<polygon fill="midnightblue" stroke="midnightblue" points="224.64,-132.93 214.066,-133.589 222.744,-139.668 224.64,-132.93"/>
</g>
<!-- Node13 -->
<g id="node13" class="node"><title>Node13</title>
<g id="a_node13"><a xlink:href="../../d5/d90/kernel__netlink__net_8c.html#a524a440e79bfb8f59290902a14bb30e8" target="_top" xlink:title="process_addr">
<polygon fill="none" stroke="black" points="278.5,-76.5 278.5,-95.5 353.5,-95.5 353.5,-76.5 278.5,-76.5"/>
<text text-anchor="middle" x="316" y="-83.5" font-family="Helvetica,sans-Serif" font-size="10.00">process_addr</text>
</a>
</g>
</g>
<!-- Node11&#45;&gt;Node13 -->
<g id="edge15" class="edge"><title>Node11&#45;&gt;Node13</title>
<path fill="none" stroke="midnightblue" d="M223.762,-111.682C242.311,-106.461 263.599,-100.468 280.945,-95.5859"/>
<polygon fill="midnightblue" stroke="midnightblue" points="222.744,-108.332 214.066,-114.411 224.64,-115.07 222.744,-108.332"/>
</g>
<!-- Node18 -->
<g id="node18" class="node"><title>Node18</title>
<g id="a_node18"><a xlink:href="../../d5/d90/kernel__netlink__net_8c.html#a0f87b0e61837c8bde853f9eda9756613" target="_top" xlink:title="process_link">
<polygon fill="none" stroke="black" points="280.5,-114.5 280.5,-133.5 351.5,-133.5 351.5,-114.5 280.5,-114.5"/>
<text text-anchor="middle" x="316" y="-121.5" font-family="Helvetica,sans-Serif" font-size="10.00">process_link</text>
</a>
</g>
</g>
<!-- Node11&#45;&gt;Node18 -->
<g id="edge21" class="edge"><title>Node11&#45;&gt;Node18</title>
<path fill="none" stroke="midnightblue" d="M243.806,-124C256.442,-124 269.251,-124 280.455,-124"/>
<polygon fill="midnightblue" stroke="midnightblue" points="243.744,-120.5 233.743,-124 243.743,-127.5 243.744,-120.5"/>
</g>
<!-- Node14 -->
<g id="node14" class="node"><title>Node14</title>
<g id="a_node14"><a xlink:href="../../d5/d90/kernel__netlink__net_8c.html#a6171ad9e6cb4f8e8abc248a8e14182ca" target="_top" xlink:title="init_address_list">
<polygon fill="none" stroke="black" points="399.5,-114.5 399.5,-133.5 486.5,-133.5 486.5,-114.5 399.5,-114.5"/>
<text text-anchor="middle" x="443" y="-121.5" font-family="Helvetica,sans-Serif" font-size="10.00">init_address_list</text>
</a>
</g>
</g>
<!-- Node13&#45;&gt;Node14 -->
<g id="edge16" class="edge"><title>Node13&#45;&gt;Node14</title>
<path fill="none" stroke="midnightblue" d="M358.235,-98.5353C375.239,-103.705 394.629,-109.599 410.467,-114.414"/>
<polygon fill="midnightblue" stroke="midnightblue" points="359.128,-95.149 348.543,-95.589 357.092,-101.846 359.128,-95.149"/>
</g>
<!-- Node17 -->
<g id="node17" class="node"><title>Node17</title>
<g id="a_node17"><a xlink:href="../../d5/d90/kernel__netlink__net_8c.html#aadc72ac0ee4c3eee050dcde86c5230d6" target="_top" xlink:title="receive_events">
<polygon fill="none" stroke="black" points="401.5,-76.5 401.5,-95.5 484.5,-95.5 484.5,-76.5 401.5,-76.5"/>
<text text-anchor="middle" x="443" y="-83.5" font-family="Helvetica,sans-Serif" font-size="10.00">receive_events</text>
</a>
</g>
</g>
<!-- Node13&#45;&gt;Node17 -->
<g id="edge19" class="edge"><title>Node13&#45;&gt;Node17</title>
<path fill="none" stroke="midnightblue" d="M363.854,-86C376.082,-86 389.165,-86 401.06,-86"/>
<polygon fill="midnightblue" stroke="midnightblue" points="363.828,-82.5001 353.828,-86 363.828,-89.5001 363.828,-82.5001"/>
</g>
<!-- Node15 -->
<g id="node15" class="node"><title>Node15</title>
<g id="a_node15"><a xlink:href="../../d5/dbb/group__kernel__netlink__net__i.html#ga085e463746e0ef5b2537f94dee888bb3" target="_top" xlink:title="kernel_netlink_net\l_create">
<polygon fill="none" stroke="black" points="524.5,-93 524.5,-123 619.5,-123 619.5,-93 524.5,-93"/>
<text text-anchor="start" x="532.5" y="-111" font-family="Helvetica,sans-Serif" font-size="10.00">kernel_netlink_net</text>
<text text-anchor="middle" x="572" y="-100" font-family="Helvetica,sans-Serif" font-size="10.00">_create</text>
</a>
</g>
</g>
<!-- Node14&#45;&gt;Node15 -->
<g id="edge17" class="edge"><title>Node14&#45;&gt;Node15</title>
<path fill="none" stroke="midnightblue" d="M496.787,-117.35C505.923,-116.199 515.364,-115.009 524.324,-113.88"/>
<polygon fill="midnightblue" stroke="midnightblue" points="496.127,-113.905 486.642,-118.628 497.002,-120.85 496.127,-113.905"/>
</g>
<!-- Node16 -->
<g id="node16" class="node"><title>Node16</title>
<g id="a_node16"><a xlink:href="../../da/d4c/kernel__netlink__plugin_8c.html#afff6cb796b37dd206b1f16ec44e924d0" target="_top" xlink:title="METHOD">
<polygon fill="none" stroke="black" points="682,-98.5 682,-117.5 742,-117.5 742,-98.5 682,-98.5"/>
<text text-anchor="middle" x="712" y="-105.5" font-family="Helvetica,sans-Serif" font-size="10.00">METHOD</text>
</a>
</g>
</g>
<!-- Node15&#45;&gt;Node16 -->
<g id="edge18" class="edge"><title>Node15&#45;&gt;Node16</title>
<path fill="none" stroke="midnightblue" d="M630.004,-108C647.746,-108 666.58,-108 681.618,-108"/>
<polygon fill="midnightblue" stroke="midnightblue" points="629.721,-104.5 619.721,-108 629.72,-111.5 629.721,-104.5"/>
</g>
<!-- Node17&#45;&gt;Node15 -->
<g id="edge20" class="edge"><title>Node17&#45;&gt;Node15</title>
<path fill="none" stroke="midnightblue" d="M494.54,-94.755C504.332,-96.4512 514.554,-98.2219 524.219,-99.8961"/>
<polygon fill="midnightblue" stroke="midnightblue" points="494.983,-91.2797 484.533,-93.0214 493.789,-98.177 494.983,-91.2797"/>
</g>
<!-- Node18&#45;&gt;Node14 -->
<g id="edge22" class="edge"><title>Node18&#45;&gt;Node14</title>
<path fill="none" stroke="midnightblue" d="M362.181,-124C374.307,-124 387.376,-124 399.359,-124"/>
<polygon fill="midnightblue" stroke="midnightblue" points="361.82,-120.5 351.819,-124 361.819,-127.5 361.82,-120.5"/>
</g>
<!-- Node18&#45;&gt;Node17 -->
<g id="edge23" class="edge"><title>Node18&#45;&gt;Node17</title>
<path fill="none" stroke="midnightblue" d="M358.235,-111.465C375.239,-106.295 394.629,-100.401 410.467,-95.5859"/>
<polygon fill="midnightblue" stroke="midnightblue" points="357.092,-108.154 348.543,-114.411 359.128,-114.851 357.092,-108.154"/>
</g>
<!-- Node20 -->
<g id="node20" class="node"><title>Node20</title>
<g id="a_node20"><a xlink:href="../../d1/dfe/kernel__netlink__shared_8c.html#a1f6cb9c155bb0d3eda40e9b9cb78a154" target="_top" xlink:title="read_and_queue">
<polygon fill="none" stroke="black" points="272,-38.5 272,-57.5 360,-57.5 360,-38.5 272,-38.5"/>
<text text-anchor="middle" x="316" y="-45.5" font-family="Helvetica,sans-Serif" font-size="10.00">read_and_queue</text>
</a>
</g>
</g>
<!-- Node19&#45;&gt;Node20 -->
<g id="edge25" class="edge"><title>Node19&#45;&gt;Node20</title>
<path fill="none" stroke="midnightblue" d="M218.269,-75.2281C238.074,-69.6533 262.04,-62.9072 281.162,-57.5246"/>
<polygon fill="midnightblue" stroke="midnightblue" points="217.308,-71.8625 208.63,-77.9412 219.204,-78.6007 217.308,-71.8625"/>
</g>
<!-- Node21 -->
<g id="node21" class="node"><title>Node21</title>
<g id="a_node21"><a xlink:href="../../d1/dfe/kernel__netlink__shared_8c.html#af4753d3cfb46ae9a5a8723cfa9364c2d" target="_top" xlink:title="CALLBACK">
<polygon fill="none" stroke="black" points="408.5,-0.5 408.5,-19.5 477.5,-19.5 477.5,-0.5 408.5,-0.5"/>
<text text-anchor="middle" x="443" y="-7.5" font-family="Helvetica,sans-Serif" font-size="10.00">CALLBACK</text>
</a>
</g>
</g>
<!-- Node20&#45;&gt;Node21 -->
<g id="edge26" class="edge"><title>Node20&#45;&gt;Node21</title>
<path fill="none" stroke="midnightblue" d="M358.235,-35.4647C375.239,-30.2952 394.629,-24.4009 410.467,-19.5859"/>
<polygon fill="midnightblue" stroke="midnightblue" points="357.092,-32.1537 348.543,-38.411 359.128,-38.851 357.092,-32.1537"/>
</g>
<!-- Node22 -->
<g id="node22" class="node"><title>Node22</title>
<g id="a_node22"><a xlink:href="../../d1/dfe/kernel__netlink__shared_8c.html#aadbe5517db7998abfcaf13e1cdf1d28f" target="_top" xlink:title="send_once">
<polygon fill="none" stroke="black" points="411,-38.5 411,-57.5 475,-57.5 475,-38.5 411,-38.5"/>
<text text-anchor="middle" x="443" y="-45.5" font-family="Helvetica,sans-Serif" font-size="10.00">send_once</text>
</a>
</g>
</g>
<!-- Node20&#45;&gt;Node22 -->
<g id="edge27" class="edge"><title>Node20&#45;&gt;Node22</title>
<path fill="none" stroke="midnightblue" d="M370.383,-48C384.15,-48 398.521,-48 410.744,-48"/>
<polygon fill="midnightblue" stroke="midnightblue" points="370.018,-44.5001 360.018,-48 370.018,-51.5001 370.018,-44.5001"/>
</g>
<!-- Node23 -->
<g id="node23" class="node"><title>Node23</title>
<g id="a_node23"><a xlink:href="../../d1/dfe/kernel__netlink__shared_8c.html#abd5bc6f39c3c3bec9ddb930e1fc3079c" target="_top" xlink:title="METHOD">
<polygon fill="none" stroke="black" points="542,-38.5 542,-57.5 602,-57.5 602,-38.5 542,-38.5"/>
<text text-anchor="middle" x="572" y="-45.5" font-family="Helvetica,sans-Serif" font-size="10.00">METHOD</text>
</a>
</g>
</g>
<!-- Node22&#45;&gt;Node23 -->
<g id="edge28" class="edge"><title>Node22&#45;&gt;Node23</title>
<path fill="none" stroke="midnightblue" d="M485.295,-48C503.812,-48 525.211,-48 541.994,-48"/>
<polygon fill="midnightblue" stroke="midnightblue" points="485.068,-44.5001 475.068,-48 485.068,-51.5001 485.068,-44.5001"/>
</g>
</g>
</svg>
