<?xml version="1.0" encoding="UTF-8" standalone="no"?>
<!DOCTYPE svg PUBLIC "-//W3C//DTD SVG 1.1//EN"
 "http://www.w3.org/Graphics/SVG/1.1/DTD/svg11.dtd">
<!-- Generated by graphviz version 2.36.0 (20140111.2315)
 -->
<!-- Title: parser_helper_create Pages: 1 -->
<!--zoomable 256 -->
<svg id="main" version="1.1" xmlns="http://www.w3.org/2000/svg" xmlns:xlink="http://www.w3.org/1999/xlink" xml:space="preserve" onload="init(evt)">
<style type="text/css"><![CDATA[
.edge:hover path { stroke: red; }
.edge:hover polygon { stroke: red; fill: red; }
]]></style>
<script type="text/javascript"><![CDATA[
var edges = document.getElementsByTagName('g');
if (edges && edges.length) {
  for (var i=0;i<edges.length;i++) {
    if (edges[i].id.substr(0,4)=='edge') {
      edges[i].setAttribute('class','edge');
    }
  }
}
]]></script>
        <defs>
                <circle id="rim" cx="0" cy="0" r="7"/>
                <circle id="rim2" cx="0" cy="0" r="3.5"/>
                <g id="zoomPlus">
                        <use xlink:href="#rim" fill="#404040">
                                <set attributeName="fill" to="#808080" begin="zoomplus.mouseover" end="zoomplus.mouseout"/>
                        </use>
                        <path d="M-4,0h8M0,-4v8" fill="none" stroke="white" stroke-width="1.5" pointer-events="none"/>
                </g>
                <g id="zoomMin">
                        <use xlink:href="#rim" fill="#404040">
                                <set attributeName="fill" to="#808080" begin="zoomminus.mouseover" end="zoomminus.mouseout"/>
                        </use>
                        <path d="M-4,0h8" fill="none" stroke="white" stroke-width="1.5" pointer-events="none"/>
                </g>
                <g id="dirArrow">
                        <path fill="none" stroke="white" stroke-width="1.5" d="M0,-3.0v7 M-2.5,-0.5L0,-3.0L2.5,-0.5"/>
                </g>
               <g id="resetDef">
                       <use xlink:href="#rim2" fill="#404040">
                               <set attributeName="fill" to="#808080" begin="reset.mouseover" end="reset.mouseout"/>
                       </use>
               </g>
        </defs>

<script type="text/javascript">
var viewWidth = 568;
var viewHeight = 256;
var sectionId = 'dynsection-1';
</script>
<script xlink:href="../../svgpan.js"/>
<svg id="graph" class="graph">
<g id="viewport">
<title>parser_helper_create</title>
<!-- Node1 -->
<g id="node1" class="node"><title>Node1</title>
<polygon fill="#bfbfbf" stroke="black" points="0.5,-114.5 0.5,-133.5 107.5,-133.5 107.5,-114.5 0.5,-114.5"/>
<text text-anchor="middle" x="54" y="-121.5" font-family="Helvetica,sans-Serif" font-size="10.00">parser_helper_create</text>
</g>
<!-- Node2 -->
<g id="node2" class="node"><title>Node2</title>
<g id="a_node2"><a xlink:href="../../d1/d0e/group__array.html#ga9acc78bc2e06102ff37133b5aa0e0a4f" target="_top" xlink:title="array_create">
<polygon fill="none" stroke="black" points="154.5,-190.5 154.5,-209.5 225.5,-209.5 225.5,-190.5 154.5,-190.5"/>
<text text-anchor="middle" x="190" y="-197.5" font-family="Helvetica,sans-Serif" font-size="10.00">array_create</text>
</a>
</g>
</g>
<!-- Node1&#45;&gt;Node2 -->
<g id="edge1" class="edge"><title>Node1&#45;&gt;Node2</title>
<path fill="none" stroke="midnightblue" d="M71.9712,-133.625C95.0282,-146.703 136.45,-170.196 163.322,-185.437"/>
<polygon fill="midnightblue" stroke="midnightblue" points="161.742,-188.564 172.167,-190.453 165.195,-182.475 161.742,-188.564"/>
</g>
<!-- Node5 -->
<g id="node5" class="node"><title>Node5</title>
<g id="a_node5"><a xlink:href="../../d1/d0e/group__array.html#ga47238d69e35235b059ea47cdd82120e2" target="_top" xlink:title="array_insert">
<polygon fill="none" stroke="black" points="156,-114.5 156,-133.5 224,-133.5 224,-114.5 156,-114.5"/>
<text text-anchor="middle" x="190" y="-121.5" font-family="Helvetica,sans-Serif" font-size="10.00">array_insert</text>
</a>
</g>
</g>
<!-- Node1&#45;&gt;Node5 -->
<g id="edge4" class="edge"><title>Node1&#45;&gt;Node5</title>
<path fill="none" stroke="midnightblue" d="M107.576,-124C120.165,-124 133.468,-124 145.59,-124"/>
<polygon fill="midnightblue" stroke="midnightblue" points="145.891,-127.5 155.891,-124 145.891,-120.5 145.891,-127.5"/>
</g>
<!-- Node12 -->
<g id="node12" class="node"><title>Node12</title>
<g id="a_node12"><a xlink:href="../../dd/d3c/group__bio__writer.html#gac7993ee5c686c5e28413eef0a03e1e89" target="_top" xlink:title="bio_writer_create">
<polygon fill="none" stroke="black" points="144.5,-76.5 144.5,-95.5 235.5,-95.5 235.5,-76.5 144.5,-76.5"/>
<text text-anchor="middle" x="190" y="-83.5" font-family="Helvetica,sans-Serif" font-size="10.00">bio_writer_create</text>
</a>
</g>
</g>
<!-- Node1&#45;&gt;Node12 -->
<g id="edge16" class="edge"><title>Node1&#45;&gt;Node12</title>
<path fill="none" stroke="midnightblue" d="M88.8139,-114.411C106.033,-109.528 127.164,-103.536 145.573,-98.315"/>
<polygon fill="midnightblue" stroke="midnightblue" points="146.531,-101.681 155.197,-95.5859 144.621,-94.947 146.531,-101.681"/>
</g>
<!-- Node3 -->
<g id="node3" class="node"><title>Node3</title>
<g id="a_node3"><a xlink:href="../../da/dfc/settings__parser_8c.html#a5faf6a2d99f50a4655dd390199a8db7b" target="_top" xlink:title="malloc">
<polygon fill="none" stroke="black" points="283.5,-228.5 283.5,-247.5 328.5,-247.5 328.5,-228.5 283.5,-228.5"/>
<text text-anchor="middle" x="306" y="-235.5" font-family="Helvetica,sans-Serif" font-size="10.00">malloc</text>
</a>
</g>
</g>
<!-- Node2&#45;&gt;Node3 -->
<g id="edge2" class="edge"><title>Node2&#45;&gt;Node3</title>
<path fill="none" stroke="midnightblue" d="M219.767,-209.589C236.154,-215.051 256.706,-221.902 273.523,-227.508"/>
<polygon fill="midnightblue" stroke="midnightblue" points="272.847,-230.971 283.44,-230.813 275.06,-224.331 272.847,-230.971"/>
</g>
<!-- Node4 -->
<g id="node4" class="node"><title>Node4</title>
<g id="a_node4"><a xlink:href="../../dc/dcc/array_8c.html#a1814774789ffaf948b25734a7dd0f3ed" target="_top" xlink:title="get_size">
<polygon fill="none" stroke="black" points="506.5,-95.5 506.5,-114.5 559.5,-114.5 559.5,-95.5 506.5,-95.5"/>
<text text-anchor="middle" x="533" y="-102.5" font-family="Helvetica,sans-Serif" font-size="10.00">get_size</text>
</a>
</g>
</g>
<!-- Node2&#45;&gt;Node4 -->
<g id="edge3" class="edge"><title>Node2&#45;&gt;Node4</title>
<path fill="none" stroke="midnightblue" d="M225.572,-202.464C280.305,-204.917 388.998,-203.819 470,-165 490.135,-155.35 507.843,-136.596 519.123,-122.611"/>
<polygon fill="midnightblue" stroke="midnightblue" points="521.935,-124.696 525.28,-114.644 516.396,-120.416 521.935,-124.696"/>
</g>
<!-- Node5&#45;&gt;Node4 -->
<g id="edge15" class="edge"><title>Node5&#45;&gt;Node4</title>
<path fill="none" stroke="midnightblue" d="M223.8,-114.493C238.417,-110.729 255.93,-106.86 272,-105 351.747,-95.7722 446.177,-99.3659 496.399,-102.42"/>
<polygon fill="midnightblue" stroke="midnightblue" points="496.221,-105.916 506.424,-103.059 496.666,-98.9299 496.221,-105.916"/>
</g>
<!-- Node6 -->
<g id="node6" class="node"><title>Node6</title>
<g id="a_node6"><a xlink:href="../../d1/d0e/group__array.html#ga37bb7fb1dde90d6fb84dac0027bb3606" target="_top" xlink:title="array_count">
<polygon fill="none" stroke="black" points="272,-114.5 272,-133.5 340,-133.5 340,-114.5 272,-114.5"/>
<text text-anchor="middle" x="306" y="-121.5" font-family="Helvetica,sans-Serif" font-size="10.00">array_count</text>
</a>
</g>
</g>
<!-- Node5&#45;&gt;Node6 -->
<g id="edge5" class="edge"><title>Node5&#45;&gt;Node6</title>
<path fill="none" stroke="midnightblue" d="M224.28,-124C235.986,-124 249.317,-124 261.726,-124"/>
<polygon fill="midnightblue" stroke="midnightblue" points="261.876,-127.5 271.876,-124 261.876,-120.5 261.876,-127.5"/>
</g>
<!-- Node7 -->
<g id="node7" class="node"><title>Node7</title>
<g id="a_node7"><a xlink:href="../../dc/dcc/array_8c.html#ac4d67e4df8ac1f0185b4e122fdd39169" target="_top" xlink:title="insert_head">
<polygon fill="none" stroke="black" points="272.5,-38.5 272.5,-57.5 339.5,-57.5 339.5,-38.5 272.5,-38.5"/>
<text text-anchor="middle" x="306" y="-45.5" font-family="Helvetica,sans-Serif" font-size="10.00">insert_head</text>
</a>
</g>
</g>
<!-- Node5&#45;&gt;Node7 -->
<g id="edge6" class="edge"><title>Node5&#45;&gt;Node7</title>
<path fill="none" stroke="midnightblue" d="M217.94,-114.4C224.082,-111.733 230.434,-108.574 236,-105 254.265,-93.2739 255.196,-85.7385 272,-72 275.393,-69.2256 279.074,-66.3902 282.705,-63.6855"/>
<polygon fill="midnightblue" stroke="midnightblue" points="284.902,-66.4155 290.929,-57.7017 280.784,-60.7553 284.902,-66.4155"/>
</g>
<!-- Node10 -->
<g id="node10" class="node"><title>Node10</title>
<g id="a_node10"><a xlink:href="../../dc/dcc/array_8c.html#a7734db8d12ada729da8d593e21e9f161" target="_top" xlink:title="insert_tail">
<polygon fill="none" stroke="black" points="276.5,-152.5 276.5,-171.5 335.5,-171.5 335.5,-152.5 276.5,-152.5"/>
<text text-anchor="middle" x="306" y="-159.5" font-family="Helvetica,sans-Serif" font-size="10.00">insert_tail</text>
</a>
</g>
</g>
<!-- Node5&#45;&gt;Node10 -->
<g id="edge11" class="edge"><title>Node5&#45;&gt;Node10</title>
<path fill="none" stroke="midnightblue" d="M219.767,-133.589C233.943,-138.314 251.237,-144.079 266.532,-149.177"/>
<polygon fill="midnightblue" stroke="midnightblue" points="265.649,-152.572 276.242,-152.414 267.862,-145.931 265.649,-152.572"/>
</g>
<!-- Node7&#45;&gt;Node4 -->
<g id="edge7" class="edge"><title>Node7&#45;&gt;Node4</title>
<path fill="none" stroke="midnightblue" d="M339.607,-49.5198C373.06,-51.8319 426.252,-57.6162 470,-72 483.394,-76.4036 497.336,-83.5613 508.6,-90.0868"/>
<polygon fill="midnightblue" stroke="midnightblue" points="506.985,-93.1996 517.36,-95.3453 510.587,-87.1978 506.985,-93.1996"/>
</g>
<!-- Node8 -->
<g id="node8" class="node"><title>Node8</title>
<g id="a_node8"><a xlink:href="../../dc/dcc/array_8c.html#a49bc76dddc601773d22e55854d80d599" target="_top" xlink:title="make_head_room">
<polygon fill="none" stroke="black" points="376,-0.5 376,-19.5 470,-19.5 470,-0.5 376,-0.5"/>
<text text-anchor="middle" x="423" y="-7.5" font-family="Helvetica,sans-Serif" font-size="10.00">make_head_room</text>
</a>
</g>
</g>
<!-- Node7&#45;&gt;Node8 -->
<g id="edge8" class="edge"><title>Node7&#45;&gt;Node8</title>
<path fill="none" stroke="midnightblue" d="M336.019,-38.411C350.32,-33.6856 367.765,-27.9211 383.195,-22.8226"/>
<polygon fill="midnightblue" stroke="midnightblue" points="384.593,-26.0468 392.99,-19.5859 382.397,-19.4002 384.593,-26.0468"/>
</g>
<!-- Node8&#45;&gt;Node4 -->
<g id="edge9" class="edge"><title>Node8&#45;&gt;Node4</title>
<path fill="none" stroke="midnightblue" d="M446.542,-19.6675C454.355,-23.5471 462.922,-28.4281 470,-34 489.562,-49.4008 507.771,-71.5728 519.325,-87.0284"/>
<polygon fill="midnightblue" stroke="midnightblue" points="516.6,-89.2316 525.32,-95.2503 522.257,-85.1078 516.6,-89.2316"/>
</g>
<!-- Node9 -->
<g id="node9" class="node"><title>Node9</title>
<g id="a_node9"><a xlink:href="../../d3/d18/bio__writer_8c.html#ac0780abbf27cfe6586832be791da0554" target="_top" xlink:title="increase">
<polygon fill="none" stroke="black" points="506.5,-0.5 506.5,-19.5 559.5,-19.5 559.5,-0.5 506.5,-0.5"/>
<text text-anchor="middle" x="533" y="-7.5" font-family="Helvetica,sans-Serif" font-size="10.00">increase</text>
</a>
</g>
</g>
<!-- Node8&#45;&gt;Node9 -->
<g id="edge10" class="edge"><title>Node8&#45;&gt;Node9</title>
<path fill="none" stroke="midnightblue" d="M470.115,-10C478.822,-10 487.809,-10 496.144,-10"/>
<polygon fill="midnightblue" stroke="midnightblue" points="496.281,-13.5001 506.281,-10 496.281,-6.5001 496.281,-13.5001"/>
</g>
<!-- Node10&#45;&gt;Node4 -->
<g id="edge12" class="edge"><title>Node10&#45;&gt;Node4</title>
<path fill="none" stroke="midnightblue" d="M335.505,-162.354C368.703,-161.937 424.765,-158.643 470,-143 485.022,-137.805 500.265,-128.528 511.878,-120.441"/>
<polygon fill="midnightblue" stroke="midnightblue" points="513.935,-123.273 519.987,-114.576 509.833,-117.601 513.935,-123.273"/>
</g>
<!-- Node11 -->
<g id="node11" class="node"><title>Node11</title>
<g id="a_node11"><a xlink:href="../../dc/dcc/array_8c.html#a0d1a5fbba30c6ff74cd9cfa9d2789952" target="_top" xlink:title="make_tail_room">
<polygon fill="none" stroke="black" points="380,-114.5 380,-133.5 466,-133.5 466,-114.5 380,-114.5"/>
<text text-anchor="middle" x="423" y="-121.5" font-family="Helvetica,sans-Serif" font-size="10.00">make_tail_room</text>
</a>
</g>
</g>
<!-- Node10&#45;&gt;Node11 -->
<g id="edge13" class="edge"><title>Node10&#45;&gt;Node11</title>
<path fill="none" stroke="midnightblue" d="M335.723,-152.509C350.13,-147.748 367.785,-141.914 383.363,-136.767"/>
<polygon fill="midnightblue" stroke="midnightblue" points="384.848,-139.963 393.245,-133.502 382.652,-133.316 384.848,-139.963"/>
</g>
<!-- Node11&#45;&gt;Node4 -->
<g id="edge14" class="edge"><title>Node11&#45;&gt;Node4</title>
<path fill="none" stroke="midnightblue" d="M466.065,-116.6C476.069,-114.84 486.648,-112.979 496.334,-111.275"/>
<polygon fill="midnightblue" stroke="midnightblue" points="497.182,-114.679 506.425,-109.499 495.97,-107.785 497.182,-114.679"/>
</g>
</g>
</svg>
        <g id="navigator" transform="translate(0 0)" fill="#404254">
                <rect fill="#f2f5e9" fill-opacity="0.5" stroke="#606060" stroke-width=".5" x="0" y="0" width="60" height="60"/>
                <use id="zoomplus" xlink:href="#zoomPlus" x="17" y="9" onmousedown="handleZoom(evt,'in')"/>
                <use id="zoomminus" xlink:href="#zoomMin" x="42" y="9" onmousedown="handleZoom(evt,'out')"/>
                <use id="reset" xlink:href="#resetDef" x="30" y="36" onmousedown="handleReset()"/>
                <g id="arrowUp" xlink:href="#dirArrow" transform="translate(30 24)" onmousedown="handlePan(0,-1)">
                  <use xlink:href="#rim" fill="#404040">
                        <set attributeName="fill" to="#808080" begin="arrowUp.mouseover" end="arrowUp.mouseout"/>
                  </use>
                  <path fill="none" stroke="white" stroke-width="1.5" d="M0,-3.0v7 M-2.5,-0.5L0,-3.0L2.5,-0.5"/>
                </g>
                <g id="arrowRight" xlink:href="#dirArrow" transform="rotate(90) translate(36 -43)" onmousedown="handlePan(1,0)">
                  <use xlink:href="#rim" fill="#404040">
                        <set attributeName="fill" to="#808080" begin="arrowRight.mouseover" end="arrowRight.mouseout"/>
                  </use>
                  <path fill="none" stroke="white" stroke-width="1.5" d="M0,-3.0v7 M-2.5,-0.5L0,-3.0L2.5,-0.5"/>
                </g>
                <g id="arrowDown" xlink:href="#dirArrow" transform="rotate(180) translate(-30 -48)" onmousedown="handlePan(0,1)">
                  <use xlink:href="#rim" fill="#404040">
                        <set attributeName="fill" to="#808080" begin="arrowDown.mouseover" end="arrowDown.mouseout"/>
                  </use>
                  <path fill="none" stroke="white" stroke-width="1.5" d="M0,-3.0v7 M-2.5,-0.5L0,-3.0L2.5,-0.5"/>
                </g>
                <g id="arrowLeft" xlink:href="#dirArrow" transform="rotate(270) translate(-36 17)" onmousedown="handlePan(-1,0)">
                  <use xlink:href="#rim" fill="#404040">
                        <set attributeName="fill" to="#808080" begin="arrowLeft.mouseover" end="arrowLeft.mouseout"/>
                  </use>
                  <path fill="none" stroke="white" stroke-width="1.5" d="M0,-3.0v7 M-2.5,-0.5L0,-3.0L2.5,-0.5"/>
                </g>
        </g>
        <svg viewBox="0 0 15 15" width="100%" height="30px" preserveAspectRatio="xMaxYMin meet">
         <g id="arrow_out" transform="scale(0.3 0.3)">
          <a xlink:href="group__parser__helper_ga83f2ecd51092f131d8c472888c327ac8_cgraph_org.svg" target="_base">
           <rect id="button" ry="5" rx="5" y="6" x="6" height="38" width="38"
                fill="#f2f5e9" fill-opacity="0.5" stroke="#606060" stroke-width="1.0"/>
           <path id="arrow"
             d="M 11.500037,31.436501 C 11.940474,20.09759 22.043105,11.32322 32.158766,21.979434 L 37.068811,17.246167 C 37.068811,17.246167 37.088388,32 37.088388,32 L 22.160133,31.978069 C 22.160133,31.978069 26.997745,27.140456 26.997745,27.140456 C 18.528582,18.264221 13.291696,25.230495 11.500037,31.436501 z"
             style="fill:#404040;"/>
          </a>
         </g>
        </svg>
</svg>
