<?xml version="1.0" encoding="UTF-8" standalone="no"?>
<!DOCTYPE svg PUBLIC "-//W3C//DTD SVG 1.1//EN"
 "http://www.w3.org/Graphics/SVG/1.1/DTD/svg11.dtd">
<!-- Generated by graphviz version 2.36.0 (20140111.2315)
 -->
<!-- Title: pts_create Pages: 1 -->
<svg width="396pt" height="87pt"
 viewBox="0.00 0.00 396.00 87.00" xmlns="http://www.w3.org/2000/svg" xmlns:xlink="http://www.w3.org/1999/xlink">
<g id="graph0" class="graph" transform="scale(1 1) rotate(0) translate(4 83)">
<title>pts_create</title>
<!-- Node1 -->
<g id="node1" class="node"><title>Node1</title>
<polygon fill="#bfbfbf" stroke="black" points="0,-29.5 0,-48.5 62,-48.5 62,-29.5 0,-29.5"/>
<text text-anchor="middle" x="31" y="-36.5" font-family="Helvetica,sans-Serif" font-size="10.00">pts_create</text>
</g>
<!-- Node2 -->
<g id="node2" class="node"><title>Node2</title>
<g id="a_node2"><a xlink:href="../../dd/d91/group__imc__attestation__state__t.html#ga1ebda8e20fd02f87b50218a7ee2c1825" target="_top" xlink:title="imc_attestation_state\l_create">
<polygon fill="none" stroke="black" points="98,-49 98,-79 208,-79 208,-49 98,-49"/>
<text text-anchor="start" x="106" y="-67" font-family="Helvetica,sans-Serif" font-size="10.00">imc_attestation_state</text>
<text text-anchor="middle" x="153" y="-56" font-family="Helvetica,sans-Serif" font-size="10.00">_create</text>
</a>
</g>
</g>
<!-- Node1&#45;&gt;Node2 -->
<g id="edge1" class="edge"><title>Node1&#45;&gt;Node2</title>
<path fill="none" stroke="midnightblue" d="M72.3309,-47.4023C80.5408,-49.1127 89.3031,-50.9381 97.9021,-52.7296"/>
<polygon fill="midnightblue" stroke="midnightblue" points="72.7847,-43.9217 62.2811,-45.3086 71.357,-50.7746 72.7847,-43.9217"/>
</g>
<!-- Node4 -->
<g id="node4" class="node"><title>Node4</title>
<g id="a_node4"><a xlink:href="../../d3/dfd/group__imv__attestation__state__t.html#gaa1dca7d96713deed3b0e7baad2fb2e5a" target="_top" xlink:title="imv_attestation_state\l_create">
<polygon fill="none" stroke="black" points="98,-0 98,-30 208,-30 208,-0 98,-0"/>
<text text-anchor="start" x="106" y="-18" font-family="Helvetica,sans-Serif" font-size="10.00">imv_attestation_state</text>
<text text-anchor="middle" x="153" y="-7" font-family="Helvetica,sans-Serif" font-size="10.00">_create</text>
</a>
</g>
</g>
<!-- Node1&#45;&gt;Node4 -->
<g id="edge3" class="edge"><title>Node1&#45;&gt;Node4</title>
<path fill="none" stroke="midnightblue" d="M72.3309,-30.9338C80.5408,-29.2918 89.3031,-27.5394 97.9021,-25.8196"/>
<polygon fill="midnightblue" stroke="midnightblue" points="71.4004,-27.5505 62.2811,-32.9438 72.7733,-34.4146 71.4004,-27.5505"/>
</g>
<!-- Node3 -->
<g id="node3" class="node"><title>Node3</title>
<g id="a_node3"><a xlink:href="../../de/d10/group__tncifimc.html#gaea9e31d7d5bcb1fbea2de51c91e1beed" target="_top" xlink:title="TNC_IMC_NotifyConnection\lChange">
<polygon fill="none" stroke="black" points="244.5,-49 244.5,-79 387.5,-79 387.5,-49 244.5,-49"/>
<text text-anchor="start" x="252.5" y="-67" font-family="Helvetica,sans-Serif" font-size="10.00">TNC_IMC_NotifyConnection</text>
<text text-anchor="middle" x="316" y="-56" font-family="Helvetica,sans-Serif" font-size="10.00">Change</text>
</a>
</g>
</g>
<!-- Node2&#45;&gt;Node3 -->
<g id="edge2" class="edge"><title>Node2&#45;&gt;Node3</title>
<path fill="none" stroke="midnightblue" d="M218.299,-64C226.819,-64 235.592,-64 244.214,-64"/>
<polygon fill="midnightblue" stroke="midnightblue" points="218.059,-60.5001 208.059,-64 218.059,-67.5001 218.059,-60.5001"/>
</g>
<!-- Node5 -->
<g id="node5" class="node"><title>Node5</title>
<g id="a_node5"><a xlink:href="../../de/d68/imv__attestation__agent_8c.html#a3c3a1e4c6f0c7723ed8a80492438d11d" target="_top" xlink:title="METHOD">
<polygon fill="none" stroke="black" points="286,-5.5 286,-24.5 346,-24.5 346,-5.5 286,-5.5"/>
<text text-anchor="middle" x="316" y="-12.5" font-family="Helvetica,sans-Serif" font-size="10.00">METHOD</text>
</a>
</g>
</g>
<!-- Node4&#45;&gt;Node5 -->
<g id="edge4" class="edge"><title>Node4&#45;&gt;Node5</title>
<path fill="none" stroke="midnightblue" d="M218.27,-15C241.614,-15 266.857,-15 285.701,-15"/>
<polygon fill="midnightblue" stroke="midnightblue" points="218.059,-11.5001 208.059,-15 218.059,-18.5001 218.059,-11.5001"/>
</g>
</g>
</svg>
