<?xml version="1.0" encoding="UTF-8" standalone="no"?>
<!DOCTYPE svg PUBLIC "-//W3C//DTD SVG 1.1//EN"
 "http://www.w3.org/Graphics/SVG/1.1/DTD/svg11.dtd">
<!-- Generated by graphviz version 2.36.0 (20140111.2315)
 -->
<!-- Title: has_notify_errors Pages: 1 -->
<svg width="464pt" height="256pt"
 viewBox="0.00 0.00 464.00 256.00" xmlns="http://www.w3.org/2000/svg" xmlns:xlink="http://www.w3.org/1999/xlink">
<g id="graph0" class="graph" transform="scale(1 1) rotate(0) translate(4 252)">
<title>has_notify_errors</title>
<!-- Node1 -->
<g id="node1" class="node"><title>Node1</title>
<polygon fill="#bfbfbf" stroke="black" points="0,-76.5 0,-95.5 92,-95.5 92,-76.5 0,-76.5"/>
<text text-anchor="middle" x="46" y="-83.5" font-family="Helvetica,sans-Serif" font-size="10.00">has_notify_errors</text>
</g>
<!-- Node2 -->
<g id="node2" class="node"><title>Node2</title>
<g id="a_node2"><a xlink:href="../../d4/da5/watcher_8c.html#a8f0e10b20c0f4d75132f5af69278c063" target="_top" xlink:title="notify">
<polygon fill="none" stroke="black" points="128.5,-76.5 128.5,-95.5 169.5,-95.5 169.5,-76.5 128.5,-76.5"/>
<text text-anchor="middle" x="149" y="-83.5" font-family="Helvetica,sans-Serif" font-size="10.00">notify</text>
</a>
</g>
</g>
<!-- Node1&#45;&gt;Node2 -->
<g id="edge1" class="edge"><title>Node1&#45;&gt;Node2</title>
<path fill="none" stroke="midnightblue" d="M92.1826,-86C101.02,-86 110.078,-86 118.256,-86"/>
<polygon fill="midnightblue" stroke="midnightblue" points="118.408,-89.5001 128.408,-86 118.408,-82.5001 118.408,-89.5001"/>
</g>
<!-- Node3 -->
<g id="node3" class="node"><title>Node3</title>
<g id="a_node3"><a xlink:href="../../d0/d8f/group__callback__job.html#gadfa6801d50c2e34bb3f9e1c98efe02d0" target="_top" xlink:title="callback_job_create\l_with_prio">
<polygon fill="none" stroke="black" points="206.5,-185 206.5,-215 309.5,-215 309.5,-185 206.5,-185"/>
<text text-anchor="start" x="214.5" y="-203" font-family="Helvetica,sans-Serif" font-size="10.00">callback_job_create</text>
<text text-anchor="middle" x="258" y="-192" font-family="Helvetica,sans-Serif" font-size="10.00">_with_prio</text>
</a>
</g>
</g>
<!-- Node2&#45;&gt;Node3 -->
<g id="edge2" class="edge"><title>Node2&#45;&gt;Node3</title>
<path fill="none" stroke="midnightblue" d="M159.123,-95.7196C175.996,-113.696 212.482,-152.57 235.828,-177.443"/>
<polygon fill="midnightblue" stroke="midnightblue" points="233.509,-180.087 242.905,-184.983 238.613,-175.296 233.509,-180.087"/>
</g>
<!-- Node6 -->
<g id="node6" class="node"><title>Node6</title>
<g id="a_node6"><a xlink:href="../../d4/da5/watcher_8c.html#aa9f8d5f98b20ea9cea8adaa68b6e4ab5" target="_top" xlink:title="notify_async">
<polygon fill="none" stroke="black" points="222,-114.5 222,-133.5 294,-133.5 294,-114.5 222,-114.5"/>
<text text-anchor="middle" x="258" y="-121.5" font-family="Helvetica,sans-Serif" font-size="10.00">notify_async</text>
</a>
</g>
</g>
<!-- Node2&#45;&gt;Node6 -->
<g id="edge5" class="edge"><title>Node2&#45;&gt;Node6</title>
<path fill="none" stroke="midnightblue" d="M169.625,-92.9698C183.848,-98.0207 203.496,-104.999 220.558,-111.058"/>
<polygon fill="midnightblue" stroke="midnightblue" points="219.651,-114.45 230.245,-114.498 221.993,-107.853 219.651,-114.45"/>
</g>
<!-- Node10 -->
<g id="node10" class="node"><title>Node10</title>
<g id="a_node10"><a xlink:href="../../d4/da5/watcher_8c.html#aa35392aaf7997cfd0f06e6bbe86feb73" target="_top" xlink:title="notify_end">
<polygon fill="none" stroke="black" points="227,-76.5 227,-95.5 289,-95.5 289,-76.5 227,-76.5"/>
<text text-anchor="middle" x="258" y="-83.5" font-family="Helvetica,sans-Serif" font-size="10.00">notify_end</text>
</a>
</g>
</g>
<!-- Node2&#45;&gt;Node10 -->
<g id="edge9" class="edge"><title>Node2&#45;&gt;Node10</title>
<path fill="none" stroke="midnightblue" d="M169.625,-86C182.79,-86 200.603,-86 216.712,-86"/>
<polygon fill="midnightblue" stroke="midnightblue" points="216.986,-89.5001 226.985,-86 216.985,-82.5001 216.986,-89.5001"/>
</g>
<!-- Node13 -->
<g id="node13" class="node"><title>Node13</title>
<g id="a_node13"><a xlink:href="../../d6/d87/group__utils__i.html#ga9336a4d5728eb7ed977aacaeb8fd2c41" target="_top" xlink:title="return_false">
<polygon fill="none" stroke="black" points="224,-38.5 224,-57.5 292,-57.5 292,-38.5 224,-38.5"/>
<text text-anchor="middle" x="258" y="-45.5" font-family="Helvetica,sans-Serif" font-size="10.00">return_false</text>
</a>
</g>
</g>
<!-- Node2&#45;&gt;Node13 -->
<g id="edge13" class="edge"><title>Node2&#45;&gt;Node13</title>
<path fill="none" stroke="midnightblue" d="M169.625,-79.0302C183.848,-73.9793 203.496,-67.0015 220.558,-60.9419"/>
<polygon fill="midnightblue" stroke="midnightblue" points="221.993,-64.1466 230.245,-57.5017 219.651,-57.5502 221.993,-64.1466"/>
</g>
<!-- Node4 -->
<g id="node4" class="node"><title>Node4</title>
<g id="a_node4"><a xlink:href="../../d1/d14/fetch_8c.html#a17dd1592e9f4ebc44d5126c03a3a9697" target="_top" xlink:title="cb">
<polygon fill="none" stroke="black" points="386.5,-228.5 386.5,-247.5 415.5,-247.5 415.5,-228.5 386.5,-228.5"/>
<text text-anchor="middle" x="401" y="-235.5" font-family="Helvetica,sans-Serif" font-size="10.00">cb</text>
</a>
</g>
</g>
<!-- Node3&#45;&gt;Node4 -->
<g id="edge3" class="edge"><title>Node3&#45;&gt;Node4</title>
<path fill="none" stroke="midnightblue" d="M309.506,-213.612C332.361,-219.771 358.273,-226.754 376.494,-231.665"/>
<polygon fill="midnightblue" stroke="midnightblue" points="375.686,-235.072 386.253,-234.295 377.508,-228.313 375.686,-235.072"/>
</g>
<!-- Node5 -->
<g id="node5" class="node"><title>Node5</title>
<g id="a_node5"><a xlink:href="../../d2/dca/nm__backend_8c.html#a22ea158445c16ed72f5ab270e1dc691b" target="_top" xlink:title="cancel">
<polygon fill="none" stroke="black" points="378.5,-190.5 378.5,-209.5 423.5,-209.5 423.5,-190.5 378.5,-190.5"/>
<text text-anchor="middle" x="401" y="-197.5" font-family="Helvetica,sans-Serif" font-size="10.00">cancel</text>
</a>
</g>
</g>
<!-- Node3&#45;&gt;Node5 -->
<g id="edge4" class="edge"><title>Node3&#45;&gt;Node5</title>
<path fill="none" stroke="midnightblue" d="M309.506,-200C329.138,-200 351.024,-200 368.355,-200"/>
<polygon fill="midnightblue" stroke="midnightblue" points="368.496,-203.5 378.496,-200 368.496,-196.5 368.496,-203.5"/>
</g>
<!-- Node7 -->
<g id="node7" class="node"><title>Node7</title>
<g id="a_node7"><a xlink:href="../../da/dd8/group__thread.html#ga5c78b3b4d797a5e3fd535b81d1120857" target="_top" xlink:title="thread_cleanup_push">
<polygon fill="none" stroke="black" points="346.5,-152.5 346.5,-171.5 455.5,-171.5 455.5,-152.5 346.5,-152.5"/>
<text text-anchor="middle" x="401" y="-159.5" font-family="Helvetica,sans-Serif" font-size="10.00">thread_cleanup_push</text>
</a>
</g>
</g>
<!-- Node6&#45;&gt;Node7 -->
<g id="edge6" class="edge"><title>Node6&#45;&gt;Node7</title>
<path fill="none" stroke="midnightblue" d="M294.217,-133.491C312.638,-138.456 335.391,-144.588 355.069,-149.891"/>
<polygon fill="midnightblue" stroke="midnightblue" points="354.177,-153.275 364.744,-152.498 355.999,-146.517 354.177,-153.275"/>
</g>
<!-- Node8 -->
<g id="node8" class="node"><title>Node8</title>
<g id="a_node8"><a xlink:href="../../d4/da5/watcher_8c.html#af07a8ce292029fcffea96da307cbaec9" target="_top" xlink:title="unregister">
<polygon fill="none" stroke="black" points="371.5,-114.5 371.5,-133.5 430.5,-133.5 430.5,-114.5 371.5,-114.5"/>
<text text-anchor="middle" x="401" y="-121.5" font-family="Helvetica,sans-Serif" font-size="10.00">unregister</text>
</a>
</g>
</g>
<!-- Node6&#45;&gt;Node8 -->
<g id="edge7" class="edge"><title>Node6&#45;&gt;Node8</title>
<path fill="none" stroke="midnightblue" d="M294.217,-124C314.592,-124 340.266,-124 361.217,-124"/>
<polygon fill="midnightblue" stroke="midnightblue" points="361.384,-127.5 371.384,-124 361.384,-120.5 361.384,-127.5"/>
</g>
<!-- Node9 -->
<g id="node9" class="node"><title>Node9</title>
<g id="a_node9"><a xlink:href="../../da/dd8/group__thread.html#ga669a6d403cfb4dc30e7a389b3b6cf48b" target="_top" xlink:title="thread_cleanup_pop">
<polygon fill="none" stroke="black" points="349,-76.5 349,-95.5 453,-95.5 453,-76.5 349,-76.5"/>
<text text-anchor="middle" x="401" y="-83.5" font-family="Helvetica,sans-Serif" font-size="10.00">thread_cleanup_pop</text>
</a>
</g>
</g>
<!-- Node6&#45;&gt;Node9 -->
<g id="edge8" class="edge"><title>Node6&#45;&gt;Node9</title>
<path fill="none" stroke="midnightblue" d="M294.217,-114.509C312.638,-109.544 335.391,-103.412 355.069,-98.1091"/>
<polygon fill="midnightblue" stroke="midnightblue" points="355.999,-101.483 364.744,-95.5017 354.177,-94.7245 355.999,-101.483"/>
</g>
<!-- Node11 -->
<g id="node11" class="node"><title>Node11</title>
<g id="a_node11"><a xlink:href="../../da/dfc/settings__parser_8c.html#af07d89f5ceaea0c7c8252cc41fd75f37" target="_top" xlink:title="free">
<polygon fill="none" stroke="black" points="384.5,-38.5 384.5,-57.5 417.5,-57.5 417.5,-38.5 384.5,-38.5"/>
<text text-anchor="middle" x="401" y="-45.5" font-family="Helvetica,sans-Serif" font-size="10.00">free</text>
</a>
</g>
</g>
<!-- Node10&#45;&gt;Node11 -->
<g id="edge10" class="edge"><title>Node10&#45;&gt;Node11</title>
<path fill="none" stroke="midnightblue" d="M289.248,-77.848C314.624,-71.0092 350.462,-61.3506 374.428,-54.8918"/>
<polygon fill="midnightblue" stroke="midnightblue" points="375.47,-58.2359 384.215,-52.2542 373.648,-51.477 375.47,-58.2359"/>
</g>
<!-- Node12 -->
<g id="node12" class="node"><title>Node12</title>
<g id="a_node12"><a xlink:href="../../d4/da5/watcher_8c.html#a555c5ce92a336acef1ff02fb00381924" target="_top" xlink:title="update">
<polygon fill="none" stroke="black" points="378,-0.5 378,-19.5 424,-19.5 424,-0.5 378,-0.5"/>
<text text-anchor="middle" x="401" y="-7.5" font-family="Helvetica,sans-Serif" font-size="10.00">update</text>
</a>
</g>
</g>
<!-- Node10&#45;&gt;Node12 -->
<g id="edge11" class="edge"><title>Node10&#45;&gt;Node12</title>
<path fill="none" stroke="midnightblue" d="M289.233,-77.3211C296.352,-74.5906 303.696,-71.171 310,-67 329.402,-54.1627 326.481,-41.6593 346,-29 352.725,-24.6382 360.573,-21.1388 368.169,-18.3914"/>
<polygon fill="midnightblue" stroke="midnightblue" points="369.48,-21.6447 377.892,-15.2036 367.3,-14.993 369.48,-21.6447"/>
</g>
<!-- Node12&#45;&gt;Node2 -->
<g id="edge12" class="edge"><title>Node12&#45;&gt;Node2</title>
<path fill="none" stroke="midnightblue" d="M377.76,-7.4482C340.293,-4.14839 263.095,-1.70539 206,-29 187.899,-37.6534 172.377,-54.7215 162.297,-67.9349"/>
<polygon fill="midnightblue" stroke="midnightblue" points="159.258,-66.1648 156.224,-76.316 164.926,-70.2724 159.258,-66.1648"/>
</g>
</g>
</svg>
