<?xml version="1.0" encoding="UTF-8" standalone="no"?>
<!DOCTYPE svg PUBLIC "-//W3C//DTD SVG 1.1//EN"
 "http://www.w3.org/Graphics/SVG/1.1/DTD/svg11.dtd">
<!-- Generated by graphviz version 2.36.0 (20140111.2315)
 -->
<!-- Title: receive_packet Pages: 1 -->
<svg width="692pt" height="161pt"
 viewBox="0.00 0.00 692.00 161.00" xmlns="http://www.w3.org/2000/svg" xmlns:xlink="http://www.w3.org/1999/xlink">
<g id="graph0" class="graph" transform="scale(1 1) rotate(0) translate(4 157)">
<title>receive_packet</title>
<!-- Node1 -->
<g id="node1" class="node"><title>Node1</title>
<polygon fill="#bfbfbf" stroke="black" points="0.5,-66.5 0.5,-85.5 83.5,-85.5 83.5,-66.5 0.5,-66.5"/>
<text text-anchor="middle" x="42" y="-73.5" font-family="Helvetica,sans-Serif" font-size="10.00">receive_packet</text>
</g>
<!-- Node2 -->
<g id="node2" class="node"><title>Node2</title>
<g id="a_node2"><a xlink:href="../../d4/d87/group__chunk.html#gad94ca029616a107e89eaa618408fd7b6" target="_top" xlink:title="chunk_create">
<polygon fill="none" stroke="black" points="151.5,-104.5 151.5,-123.5 226.5,-123.5 226.5,-104.5 151.5,-104.5"/>
<text text-anchor="middle" x="189" y="-111.5" font-family="Helvetica,sans-Serif" font-size="10.00">chunk_create</text>
</a>
</g>
</g>
<!-- Node1&#45;&gt;Node2 -->
<g id="edge1" class="edge"><title>Node1&#45;&gt;Node2</title>
<path fill="none" stroke="midnightblue" d="M79.5896,-85.589C98.4654,-90.5358 121.686,-96.6211 141.788,-101.889"/>
<polygon fill="midnightblue" stroke="midnightblue" points="141.113,-105.33 151.673,-104.48 142.887,-98.5591 141.113,-105.33"/>
</g>
<!-- Node3 -->
<g id="node3" class="node"><title>Node3</title>
<g id="a_node3"><a xlink:href="../../d7/df1/group__host.html#ga3183b60055297ceaa19b4a5996496830" target="_top" xlink:title="host_create_from_sockaddr">
<polygon fill="none" stroke="black" points="120.5,-66.5 120.5,-85.5 257.5,-85.5 257.5,-66.5 120.5,-66.5"/>
<text text-anchor="middle" x="189" y="-73.5" font-family="Helvetica,sans-Serif" font-size="10.00">host_create_from_sockaddr</text>
</a>
</g>
</g>
<!-- Node1&#45;&gt;Node3 -->
<g id="edge2" class="edge"><title>Node1&#45;&gt;Node3</title>
<path fill="none" stroke="midnightblue" d="M83.7765,-76C92.0534,-76 101.018,-76 110.095,-76"/>
<polygon fill="midnightblue" stroke="midnightblue" points="110.362,-79.5001 120.362,-76 110.362,-72.5001 110.362,-79.5001"/>
</g>
<!-- Node10 -->
<g id="node10" class="node"><title>Node10</title>
<g id="a_node10"><a xlink:href="../../db/dd9/group__packet.html#ga860fd5eabb20eac45cf95ab30dc56a34" target="_top" xlink:title="packet_create">
<polygon fill="none" stroke="black" points="150,-19.5 150,-38.5 228,-38.5 228,-19.5 150,-19.5"/>
<text text-anchor="middle" x="189" y="-26.5" font-family="Helvetica,sans-Serif" font-size="10.00">packet_create</text>
</a>
</g>
</g>
<!-- Node1&#45;&gt;Node10 -->
<g id="edge10" class="edge"><title>Node1&#45;&gt;Node10</title>
<path fill="none" stroke="midnightblue" d="M72.3429,-66.4888C94.3807,-59.3456 124.783,-49.491 148.887,-41.6782"/>
<polygon fill="midnightblue" stroke="midnightblue" points="150.019,-44.9905 158.452,-38.5776 147.86,-38.3316 150.019,-44.9905"/>
</g>
<!-- Node4 -->
<g id="node4" class="node"><title>Node4</title>
<g id="a_node4"><a xlink:href="../../df/da9/host_8c.html#ac3854e66d5a7563cae9608acbcad6eb5" target="_top" xlink:title="host_create_empty">
<polygon fill="none" stroke="black" points="308,-114.5 308,-133.5 408,-133.5 408,-114.5 308,-114.5"/>
<text text-anchor="middle" x="358" y="-121.5" font-family="Helvetica,sans-Serif" font-size="10.00">host_create_empty</text>
</a>
</g>
</g>
<!-- Node3&#45;&gt;Node4 -->
<g id="edge3" class="edge"><title>Node3&#45;&gt;Node4</title>
<path fill="none" stroke="midnightblue" d="M224.617,-85.5823C235.327,-88.571 247.158,-91.8975 258,-95 276.712,-100.355 297.377,-106.389 314.965,-111.561"/>
<polygon fill="midnightblue" stroke="midnightblue" points="314.346,-115.027 324.928,-114.495 316.324,-108.312 314.346,-115.027"/>
</g>
<!-- Node8 -->
<g id="node8" class="node"><title>Node8</title>
<g id="a_node8"><a xlink:href="../../df/da9/host_8c.html#a1fb6a6590d2576c32709b890623cad8c" target="_top" xlink:title="update_sa_len">
<polygon fill="none" stroke="black" points="318,-76.5 318,-95.5 398,-95.5 398,-76.5 318,-76.5"/>
<text text-anchor="middle" x="358" y="-83.5" font-family="Helvetica,sans-Serif" font-size="10.00">update_sa_len</text>
</a>
</g>
</g>
<!-- Node3&#45;&gt;Node8 -->
<g id="edge8" class="edge"><title>Node3&#45;&gt;Node8</title>
<path fill="none" stroke="midnightblue" d="M257.925,-80.0674C274.507,-81.0603 291.938,-82.1041 307.477,-83.0346"/>
<polygon fill="midnightblue" stroke="midnightblue" points="307.707,-86.5545 317.899,-83.6586 308.126,-79.567 307.707,-86.5545"/>
</g>
<!-- Node9 -->
<g id="node9" class="node"><title>Node9</title>
<g id="a_node9"><a xlink:href="../../da/dfc/settings__parser_8c.html#af07d89f5ceaea0c7c8252cc41fd75f37" target="_top" xlink:title="free">
<polygon fill="none" stroke="black" points="341.5,-38.5 341.5,-57.5 374.5,-57.5 374.5,-38.5 341.5,-38.5"/>
<text text-anchor="middle" x="358" y="-45.5" font-family="Helvetica,sans-Serif" font-size="10.00">free</text>
</a>
</g>
</g>
<!-- Node3&#45;&gt;Node9 -->
<g id="edge9" class="edge"><title>Node3&#45;&gt;Node9</title>
<path fill="none" stroke="midnightblue" d="M247.005,-66.4423C275.588,-61.6499 308.792,-56.0828 331.179,-52.3292"/>
<polygon fill="midnightblue" stroke="midnightblue" points="331.949,-55.7491 341.233,-50.6436 330.792,-48.8455 331.949,-55.7491"/>
</g>
<!-- Node5 -->
<g id="node5" class="node"><title>Node5</title>
<g id="a_node5"><a xlink:href="../../df/da9/host_8c.html#a809d5cf7574c1f5e27758950d53653f4" target="_top" xlink:title="equals">
<polygon fill="none" stroke="black" points="458.5,-133.5 458.5,-152.5 503.5,-152.5 503.5,-133.5 458.5,-133.5"/>
<text text-anchor="middle" x="481" y="-140.5" font-family="Helvetica,sans-Serif" font-size="10.00">equals</text>
</a>
</g>
</g>
<!-- Node4&#45;&gt;Node5 -->
<g id="edge4" class="edge"><title>Node4&#45;&gt;Node5</title>
<path fill="none" stroke="midnightblue" d="M408.215,-131.728C421.676,-133.842 435.91,-136.077 448.122,-137.994"/>
<polygon fill="midnightblue" stroke="midnightblue" points="447.841,-141.493 458.263,-139.587 448.927,-134.578 447.841,-141.493"/>
</g>
<!-- Node6 -->
<g id="node6" class="node"><title>Node6</title>
<g id="a_node6"><a xlink:href="../../df/da9/host_8c.html#a0ea5fbf16ec81f3c5eaf6dc5da8d452a" target="_top" xlink:title="ip_equals">
<polygon fill="none" stroke="black" points="540,-114.5 540,-133.5 598,-133.5 598,-114.5 540,-114.5"/>
<text text-anchor="middle" x="569" y="-121.5" font-family="Helvetica,sans-Serif" font-size="10.00">ip_equals</text>
</a>
</g>
</g>
<!-- Node4&#45;&gt;Node6 -->
<g id="edge7" class="edge"><title>Node4&#45;&gt;Node6</title>
<path fill="none" stroke="midnightblue" d="M408.001,-124C445.177,-124 495.555,-124 529.78,-124"/>
<polygon fill="midnightblue" stroke="midnightblue" points="529.851,-127.5 539.851,-124 529.851,-120.5 529.851,-127.5"/>
</g>
<!-- Node5&#45;&gt;Node6 -->
<g id="edge5" class="edge"><title>Node5&#45;&gt;Node6</title>
<path fill="none" stroke="midnightblue" d="M503.701,-138.205C511.655,-136.448 520.91,-134.404 529.877,-132.422"/>
<polygon fill="midnightblue" stroke="midnightblue" points="530.786,-135.806 539.796,-130.231 529.276,-128.971 530.786,-135.806"/>
</g>
<!-- Node7 -->
<g id="node7" class="node"><title>Node7</title>
<g id="a_node7"><a xlink:href="../../dd/d74/group__memory__i.html#ga46d7935db00fd7092430dbf4f36c2850" target="_top" xlink:title="memeq">
<polygon fill="none" stroke="black" points="634.5,-114.5 634.5,-133.5 683.5,-133.5 683.5,-114.5 634.5,-114.5"/>
<text text-anchor="middle" x="659" y="-121.5" font-family="Helvetica,sans-Serif" font-size="10.00">memeq</text>
</a>
</g>
</g>
<!-- Node6&#45;&gt;Node7 -->
<g id="edge6" class="edge"><title>Node6&#45;&gt;Node7</title>
<path fill="none" stroke="midnightblue" d="M598.328,-124C606.615,-124 615.756,-124 624.34,-124"/>
<polygon fill="midnightblue" stroke="midnightblue" points="624.439,-127.5 634.439,-124 624.439,-120.5 624.439,-127.5"/>
</g>
<!-- Node11 -->
<g id="node11" class="node"><title>Node11</title>
<g id="a_node11"><a xlink:href="../../db/dd9/group__packet.html#ga09772f9176b3dc9c958bc821f515be79" target="_top" xlink:title="packet_create_from_data">
<polygon fill="none" stroke="black" points="294.5,-0.5 294.5,-19.5 421.5,-19.5 421.5,-0.5 294.5,-0.5"/>
<text text-anchor="middle" x="358" y="-7.5" font-family="Helvetica,sans-Serif" font-size="10.00">packet_create_from_data</text>
</a>
</g>
</g>
<!-- Node10&#45;&gt;Node11 -->
<g id="edge11" class="edge"><title>Node10&#45;&gt;Node11</title>
<path fill="none" stroke="midnightblue" d="M228.313,-24.641C244.96,-22.7471 265.035,-20.4631 284.326,-18.2682"/>
<polygon fill="midnightblue" stroke="midnightblue" points="284.781,-21.7393 294.321,-17.1312 283.989,-14.7841 284.781,-21.7393"/>
</g>
</g>
</svg>
