<?xml version="1.0" encoding="UTF-8" standalone="no"?>
<!DOCTYPE svg PUBLIC "-//W3C//DTD SVG 1.1//EN"
 "http://www.w3.org/Graphics/SVG/1.1/DTD/svg11.dtd">
<!-- Generated by graphviz version 2.36.0 (20140111.2315)
 -->
<!-- Title: METHOD Pages: 1 -->
<svg width="432pt" height="260pt"
 viewBox="0.00 0.00 432.00 260.00" xmlns="http://www.w3.org/2000/svg" xmlns:xlink="http://www.w3.org/1999/xlink">
<g id="graph0" class="graph" transform="scale(1 1) rotate(0) translate(4 256)">
<title>METHOD</title>
<!-- Node1 -->
<g id="node1" class="node"><title>Node1</title>
<polygon fill="#bfbfbf" stroke="black" points="0,-196.5 0,-215.5 60,-215.5 60,-196.5 0,-196.5"/>
<text text-anchor="middle" x="30" y="-203.5" font-family="Helvetica,sans-Serif" font-size="10.00">METHOD</text>
</g>
<!-- Node2 -->
<g id="node2" class="node"><title>Node2</title>
<g id="a_node2"><a xlink:href="../../da/dfc/settings__parser_8c.html#af07d89f5ceaea0c7c8252cc41fd75f37" target="_top" xlink:title="free">
<polygon fill="none" stroke="black" points="352.5,-232.5 352.5,-251.5 385.5,-251.5 385.5,-232.5 352.5,-232.5"/>
<text text-anchor="middle" x="369" y="-239.5" font-family="Helvetica,sans-Serif" font-size="10.00">free</text>
</a>
</g>
</g>
<!-- Node1&#45;&gt;Node2 -->
<g id="edge1" class="edge"><title>Node1&#45;&gt;Node2</title>
<path fill="none" stroke="midnightblue" d="M60.2579,-210.277C89.1281,-214.405 134.543,-220.652 174,-225 233.998,-231.611 304.664,-237.269 341.939,-240.088"/>
<polygon fill="midnightblue" stroke="midnightblue" points="342.152,-243.614 352.386,-240.87 342.675,-236.633 342.152,-243.614"/>
</g>
<!-- Node3 -->
<g id="node3" class="node"><title>Node3</title>
<g id="a_node3"><a xlink:href="../../d4/da5/watcher_8c.html#a8f0e10b20c0f4d75132f5af69278c063" target="_top" xlink:title="notify">
<polygon fill="none" stroke="black" points="96.5,-136.5 96.5,-155.5 137.5,-155.5 137.5,-136.5 96.5,-136.5"/>
<text text-anchor="middle" x="117" y="-143.5" font-family="Helvetica,sans-Serif" font-size="10.00">notify</text>
</a>
</g>
</g>
<!-- Node1&#45;&gt;Node3 -->
<g id="edge2" class="edge"><title>Node1&#45;&gt;Node3</title>
<path fill="none" stroke="midnightblue" d="M44.6567,-196.36C57.9163,-187 78.268,-172.634 93.8462,-161.638"/>
<polygon fill="midnightblue" stroke="midnightblue" points="96.2259,-164.242 102.377,-155.616 92.1891,-158.524 96.2259,-164.242"/>
</g>
<!-- Node4 -->
<g id="node4" class="node"><title>Node4</title>
<g id="a_node4"><a xlink:href="../../d0/d8f/group__callback__job.html#gadfa6801d50c2e34bb3f9e1c98efe02d0" target="_top" xlink:title="callback_job_create\l_with_prio">
<polygon fill="none" stroke="black" points="174.5,-109 174.5,-139 277.5,-139 277.5,-109 174.5,-109"/>
<text text-anchor="start" x="182.5" y="-127" font-family="Helvetica,sans-Serif" font-size="10.00">callback_job_create</text>
<text text-anchor="middle" x="226" y="-116" font-family="Helvetica,sans-Serif" font-size="10.00">_with_prio</text>
</a>
</g>
</g>
<!-- Node3&#45;&gt;Node4 -->
<g id="edge3" class="edge"><title>Node3&#45;&gt;Node4</title>
<path fill="none" stroke="midnightblue" d="M137.625,-141.965C145.327,-140.381 154.62,-138.471 164.232,-136.494"/>
<polygon fill="midnightblue" stroke="midnightblue" points="165.22,-139.864 174.31,-134.422 163.81,-133.008 165.22,-139.864"/>
</g>
<!-- Node7 -->
<g id="node7" class="node"><title>Node7</title>
<g id="a_node7"><a xlink:href="../../d4/da5/watcher_8c.html#aa9f8d5f98b20ea9cea8adaa68b6e4ab5" target="_top" xlink:title="notify_async">
<polygon fill="none" stroke="black" points="190,-70.5 190,-89.5 262,-89.5 262,-70.5 190,-70.5"/>
<text text-anchor="middle" x="226" y="-77.5" font-family="Helvetica,sans-Serif" font-size="10.00">notify_async</text>
</a>
</g>
</g>
<!-- Node3&#45;&gt;Node7 -->
<g id="edge6" class="edge"><title>Node3&#45;&gt;Node7</title>
<path fill="none" stroke="midnightblue" d="M127.53,-136.212C138.089,-125.819 156.013,-109.477 174,-99 177.438,-96.9974 181.125,-95.1396 184.886,-93.433"/>
<polygon fill="midnightblue" stroke="midnightblue" points="186.409,-96.5901 194.287,-89.5064 183.711,-90.1309 186.409,-96.5901"/>
</g>
<!-- Node11 -->
<g id="node11" class="node"><title>Node11</title>
<g id="a_node11"><a xlink:href="../../d4/da5/watcher_8c.html#aa35392aaf7997cfd0f06e6bbe86feb73" target="_top" xlink:title="notify_end">
<polygon fill="none" stroke="black" points="195,-196.5 195,-215.5 257,-215.5 257,-196.5 195,-196.5"/>
<text text-anchor="middle" x="226" y="-203.5" font-family="Helvetica,sans-Serif" font-size="10.00">notify_end</text>
</a>
</g>
</g>
<!-- Node3&#45;&gt;Node11 -->
<g id="edge10" class="edge"><title>Node3&#45;&gt;Node11</title>
<path fill="none" stroke="midnightblue" d="M131.955,-155.701C143.098,-163.267 159.237,-173.827 174,-182 180.27,-185.471 187.126,-188.92 193.72,-192.076"/>
<polygon fill="midnightblue" stroke="midnightblue" points="192.554,-195.394 203.095,-196.458 195.518,-189.052 192.554,-195.394"/>
</g>
<!-- Node13 -->
<g id="node13" class="node"><title>Node13</title>
<g id="a_node13"><a xlink:href="../../d6/d87/group__utils__i.html#ga9336a4d5728eb7ed977aacaeb8fd2c41" target="_top" xlink:title="return_false">
<polygon fill="none" stroke="black" points="192,-32.5 192,-51.5 260,-51.5 260,-32.5 192,-32.5"/>
<text text-anchor="middle" x="226" y="-39.5" font-family="Helvetica,sans-Serif" font-size="10.00">return_false</text>
</a>
</g>
</g>
<!-- Node3&#45;&gt;Node13 -->
<g id="edge14" class="edge"><title>Node3&#45;&gt;Node13</title>
<path fill="none" stroke="midnightblue" d="M121.89,-136.41C129.418,-118.992 147.595,-82.0244 174,-61 176.706,-58.8454 179.681,-56.9184 182.793,-55.1981"/>
<polygon fill="midnightblue" stroke="midnightblue" points="184.306,-58.3541 191.815,-50.8795 181.284,-52.0402 184.306,-58.3541"/>
</g>
<!-- Node5 -->
<g id="node5" class="node"><title>Node5</title>
<g id="a_node5"><a xlink:href="../../d1/d14/fetch_8c.html#a17dd1592e9f4ebc44d5126c03a3a9697" target="_top" xlink:title="cb">
<polygon fill="none" stroke="black" points="354.5,-152.5 354.5,-171.5 383.5,-171.5 383.5,-152.5 354.5,-152.5"/>
<text text-anchor="middle" x="369" y="-159.5" font-family="Helvetica,sans-Serif" font-size="10.00">cb</text>
</a>
</g>
</g>
<!-- Node4&#45;&gt;Node5 -->
<g id="edge4" class="edge"><title>Node4&#45;&gt;Node5</title>
<path fill="none" stroke="midnightblue" d="M277.506,-137.612C300.361,-143.771 326.273,-150.754 344.494,-155.665"/>
<polygon fill="midnightblue" stroke="midnightblue" points="343.686,-159.072 354.253,-158.295 345.508,-152.313 343.686,-159.072"/>
</g>
<!-- Node6 -->
<g id="node6" class="node"><title>Node6</title>
<g id="a_node6"><a xlink:href="../../d2/dca/nm__backend_8c.html#a22ea158445c16ed72f5ab270e1dc691b" target="_top" xlink:title="cancel">
<polygon fill="none" stroke="black" points="346.5,-114.5 346.5,-133.5 391.5,-133.5 391.5,-114.5 346.5,-114.5"/>
<text text-anchor="middle" x="369" y="-121.5" font-family="Helvetica,sans-Serif" font-size="10.00">cancel</text>
</a>
</g>
</g>
<!-- Node4&#45;&gt;Node6 -->
<g id="edge5" class="edge"><title>Node4&#45;&gt;Node6</title>
<path fill="none" stroke="midnightblue" d="M277.506,-124C297.138,-124 319.024,-124 336.355,-124"/>
<polygon fill="midnightblue" stroke="midnightblue" points="336.496,-127.5 346.496,-124 336.496,-120.5 336.496,-127.5"/>
</g>
<!-- Node8 -->
<g id="node8" class="node"><title>Node8</title>
<g id="a_node8"><a xlink:href="../../da/dd8/group__thread.html#ga5c78b3b4d797a5e3fd535b81d1120857" target="_top" xlink:title="thread_cleanup_push">
<polygon fill="none" stroke="black" points="314.5,-76.5 314.5,-95.5 423.5,-95.5 423.5,-76.5 314.5,-76.5"/>
<text text-anchor="middle" x="369" y="-83.5" font-family="Helvetica,sans-Serif" font-size="10.00">thread_cleanup_push</text>
</a>
</g>
</g>
<!-- Node7&#45;&gt;Node8 -->
<g id="edge7" class="edge"><title>Node7&#45;&gt;Node8</title>
<path fill="none" stroke="midnightblue" d="M262.217,-81.4986C274.885,-82.0376 289.6,-82.6638 303.956,-83.2747"/>
<polygon fill="midnightblue" stroke="midnightblue" points="304.172,-86.787 314.311,-83.7154 304.469,-79.7933 304.172,-86.787"/>
</g>
<!-- Node9 -->
<g id="node9" class="node"><title>Node9</title>
<g id="a_node9"><a xlink:href="../../d4/da5/watcher_8c.html#af07a8ce292029fcffea96da307cbaec9" target="_top" xlink:title="unregister">
<polygon fill="none" stroke="black" points="339.5,-38.5 339.5,-57.5 398.5,-57.5 398.5,-38.5 339.5,-38.5"/>
<text text-anchor="middle" x="369" y="-45.5" font-family="Helvetica,sans-Serif" font-size="10.00">unregister</text>
</a>
</g>
</g>
<!-- Node7&#45;&gt;Node9 -->
<g id="edge8" class="edge"><title>Node7&#45;&gt;Node9</title>
<path fill="none" stroke="midnightblue" d="M262.217,-72.0076C282.685,-67.3622 308.5,-61.5035 329.504,-56.7366"/>
<polygon fill="midnightblue" stroke="midnightblue" points="330.407,-60.1209 339.384,-54.4944 328.858,-53.2944 330.407,-60.1209"/>
</g>
<!-- Node10 -->
<g id="node10" class="node"><title>Node10</title>
<g id="a_node10"><a xlink:href="../../da/dd8/group__thread.html#ga669a6d403cfb4dc30e7a389b3b6cf48b" target="_top" xlink:title="thread_cleanup_pop">
<polygon fill="none" stroke="black" points="317,-0.5 317,-19.5 421,-19.5 421,-0.5 317,-0.5"/>
<text text-anchor="middle" x="369" y="-7.5" font-family="Helvetica,sans-Serif" font-size="10.00">thread_cleanup_pop</text>
</a>
</g>
</g>
<!-- Node7&#45;&gt;Node10 -->
<g id="edge9" class="edge"><title>Node7&#45;&gt;Node10</title>
<path fill="none" stroke="midnightblue" d="M258.326,-70.4156C265.036,-67.7968 271.928,-64.6533 278,-61 296.343,-49.9638 295.557,-39.8679 314,-29 317.418,-26.9858 321.084,-25.1377 324.836,-23.4529"/>
<polygon fill="midnightblue" stroke="midnightblue" points="326.322,-26.6268 334.251,-19.5999 323.67,-20.1483 326.322,-26.6268"/>
</g>
<!-- Node11&#45;&gt;Node2 -->
<g id="edge11" class="edge"><title>Node11&#45;&gt;Node2</title>
<path fill="none" stroke="midnightblue" d="M257.248,-213.723C282.624,-220.202 318.462,-229.352 342.428,-235.471"/>
<polygon fill="midnightblue" stroke="midnightblue" points="341.66,-238.887 352.215,-237.97 343.391,-232.105 341.66,-238.887"/>
</g>
<!-- Node12 -->
<g id="node12" class="node"><title>Node12</title>
<g id="a_node12"><a xlink:href="../../d4/da5/watcher_8c.html#a555c5ce92a336acef1ff02fb00381924" target="_top" xlink:title="update">
<polygon fill="none" stroke="black" points="346,-193.5 346,-212.5 392,-212.5 392,-193.5 346,-193.5"/>
<text text-anchor="middle" x="369" y="-200.5" font-family="Helvetica,sans-Serif" font-size="10.00">update</text>
</a>
</g>
</g>
<!-- Node11&#45;&gt;Node12 -->
<g id="edge12" class="edge"><title>Node11&#45;&gt;Node12</title>
<path fill="none" stroke="midnightblue" d="M257.248,-205.356C280.264,-204.867 311.889,-204.194 335.453,-203.692"/>
<polygon fill="midnightblue" stroke="midnightblue" points="335.73,-207.187 345.653,-203.475 335.581,-200.189 335.73,-207.187"/>
</g>
<!-- Node12&#45;&gt;Node3 -->
<g id="edge13" class="edge"><title>Node12&#45;&gt;Node3</title>
<path fill="none" stroke="midnightblue" d="M345.999,-197.984C301.003,-187.725 198.429,-164.338 147.631,-152.756"/>
<polygon fill="midnightblue" stroke="midnightblue" points="148.145,-149.283 137.617,-150.473 146.589,-156.108 148.145,-149.283"/>
</g>
</g>
</svg>
