<?xml version="1.0" encoding="UTF-8" standalone="no"?>
<!DOCTYPE svg PUBLIC "-//W3C//DTD SVG 1.1//EN"
 "http://www.w3.org/Graphics/SVG/1.1/DTD/svg11.dtd">
<!-- Generated by graphviz version 2.36.0 (20140111.2315)
 -->
<!-- Title: update Pages: 1 -->
<svg width="664pt" height="218pt"
 viewBox="0.00 0.00 664.00 218.00" xmlns="http://www.w3.org/2000/svg" xmlns:xlink="http://www.w3.org/1999/xlink">
<g id="graph0" class="graph" transform="scale(1 1) rotate(0) translate(4 214)">
<title>update</title>
<!-- Node1 -->
<g id="node1" class="node"><title>Node1</title>
<polygon fill="#bfbfbf" stroke="black" points="0,-95.5 0,-114.5 46,-114.5 46,-95.5 0,-95.5"/>
<text text-anchor="middle" x="23" y="-102.5" font-family="Helvetica,sans-Serif" font-size="10.00">update</text>
</g>
<!-- Node2 -->
<g id="node2" class="node"><title>Node2</title>
<g id="a_node2"><a xlink:href="../../d2/d6b/attest__db_8c.html#ac4f0dc290cfd81c89bfaa9824363e4f0" target="_top" xlink:title="insert_file_hash">
<polygon fill="none" stroke="black" points="94.5,-190.5 94.5,-209.5 179.5,-209.5 179.5,-190.5 94.5,-190.5"/>
<text text-anchor="middle" x="137" y="-197.5" font-family="Helvetica,sans-Serif" font-size="10.00">insert_file_hash</text>
</a>
</g>
</g>
<!-- Node1&#45;&gt;Node2 -->
<g id="edge1" class="edge"><title>Node1&#45;&gt;Node2</title>
<path fill="none" stroke="midnightblue" d="M33.9874,-123.655C44.0312,-140.781 61.0141,-165.743 82,-181 87.225,-184.799 93.278,-187.893 99.4017,-190.396"/>
<polygon fill="midnightblue" stroke="midnightblue" points="36.852,-121.608 28.8979,-114.61 30.7514,-125.041 36.852,-121.608"/>
</g>
<!-- Node5 -->
<g id="node5" class="node"><title>Node5</title>
<g id="a_node5"><a xlink:href="../../dd/d99/child__sa_8c.html#a7b0ec5f6d2f5b8a906758e376e12fb4a" target="_top" xlink:title="METHOD">
<polygon fill="none" stroke="black" points="107,-152.5 107,-171.5 167,-171.5 167,-152.5 107,-152.5"/>
<text text-anchor="middle" x="137" y="-159.5" font-family="Helvetica,sans-Serif" font-size="10.00">METHOD</text>
</a>
</g>
</g>
<!-- Node1&#45;&gt;Node5 -->
<g id="edge4" class="edge"><title>Node1&#45;&gt;Node5</title>
<path fill="none" stroke="midnightblue" d="M48.7745,-119.813C58.9458,-125.705 70.916,-132.401 82,-138 92.0729,-143.088 103.46,-148.235 113.171,-152.45"/>
<polygon fill="midnightblue" stroke="midnightblue" points="50.414,-116.717 40.0164,-114.682 46.8755,-122.757 50.414,-116.717"/>
</g>
<!-- Node6 -->
<g id="node6" class="node"><title>Node6</title>
<g id="a_node6"><a xlink:href="../../d5/d90/kernel__netlink__net_8c.html#a524a440e79bfb8f59290902a14bb30e8" target="_top" xlink:title="process_addr">
<polygon fill="none" stroke="black" points="228.5,-38.5 228.5,-57.5 303.5,-57.5 303.5,-38.5 228.5,-38.5"/>
<text text-anchor="middle" x="266" y="-45.5" font-family="Helvetica,sans-Serif" font-size="10.00">process_addr</text>
</a>
</g>
</g>
<!-- Node1&#45;&gt;Node6 -->
<g id="edge5" class="edge"><title>Node1&#45;&gt;Node6</title>
<path fill="none" stroke="midnightblue" d="M43.2877,-88.9903C54.0159,-80.992 67.9996,-71.9797 82,-67 130.603,-49.7128 190.714,-46.6755 228.469,-46.7887"/>
<polygon fill="midnightblue" stroke="midnightblue" points="40.8501,-86.4526 35.1129,-95.3596 45.1524,-91.9744 40.8501,-86.4526"/>
</g>
<!-- Node11 -->
<g id="node11" class="node"><title>Node11</title>
<g id="a_node11"><a xlink:href="../../d5/d90/kernel__netlink__net_8c.html#a0f87b0e61837c8bde853f9eda9756613" target="_top" xlink:title="process_link">
<polygon fill="none" stroke="black" points="230.5,-114.5 230.5,-133.5 301.5,-133.5 301.5,-114.5 230.5,-114.5"/>
<text text-anchor="middle" x="266" y="-121.5" font-family="Helvetica,sans-Serif" font-size="10.00">process_link</text>
</a>
</g>
</g>
<!-- Node1&#45;&gt;Node11 -->
<g id="edge11" class="edge"><title>Node1&#45;&gt;Node11</title>
<path fill="none" stroke="midnightblue" d="M56.3869,-107.553C101.662,-111.123 183.54,-117.578 230.117,-121.25"/>
<polygon fill="midnightblue" stroke="midnightblue" points="56.4849,-104.05 46.2407,-106.753 55.9347,-111.029 56.4849,-104.05"/>
</g>
<!-- Node12 -->
<g id="node12" class="node"><title>Node12</title>
<g id="a_node12"><a xlink:href="../../d7/d68/ike__mobike_8c.html#aa55fe88fcc8ea7f9bd255e1faedaf151" target="_top" xlink:title="process_payloads">
<polygon fill="none" stroke="black" points="89.5,-0.5 89.5,-19.5 184.5,-19.5 184.5,-0.5 89.5,-0.5"/>
<text text-anchor="middle" x="137" y="-7.5" font-family="Helvetica,sans-Serif" font-size="10.00">process_payloads</text>
</a>
</g>
</g>
<!-- Node1&#45;&gt;Node12 -->
<g id="edge14" class="edge"><title>Node1&#45;&gt;Node12</title>
<path fill="none" stroke="midnightblue" d="M35.6854,-86.238C46.2125,-70.583 62.9322,-48.5566 82,-34 89.7469,-28.086 99.1805,-23.2562 107.982,-19.5204"/>
<polygon fill="midnightblue" stroke="midnightblue" points="32.4806,-84.7464 29.9654,-95.0383 38.3498,-88.5612 32.4806,-84.7464"/>
</g>
<!-- Node14 -->
<g id="node14" class="node"><title>Node14</title>
<g id="a_node14"><a xlink:href="../../d5/d90/kernel__netlink__net_8c.html#a0f4d312f2e3ae7e2ef669ff35e21bee8" target="_top" xlink:title="queue_route_reinstall">
<polygon fill="none" stroke="black" points="82.5,-76.5 82.5,-95.5 191.5,-95.5 191.5,-76.5 82.5,-76.5"/>
<text text-anchor="middle" x="137" y="-83.5" font-family="Helvetica,sans-Serif" font-size="10.00">queue_route_reinstall</text>
</a>
</g>
</g>
<!-- Node1&#45;&gt;Node14 -->
<g id="edge16" class="edge"><title>Node1&#45;&gt;Node14</title>
<path fill="none" stroke="midnightblue" d="M56.0359,-99.5653C64.2739,-98.1678 73.3645,-96.6257 82.3731,-95.0974"/>
<polygon fill="midnightblue" stroke="midnightblue" points="55.4013,-96.1229 46.1276,-101.246 56.5722,-103.024 55.4013,-96.1229"/>
</g>
<!-- Node3 -->
<g id="node3" class="node"><title>Node3</title>
<g id="a_node3"><a xlink:href="../../d2/d6b/attest__db_8c.html#a8a32d651a70f40e92a03705022732a7b" target="_top" xlink:title="add_hash">
<polygon fill="none" stroke="black" points="236.5,-190.5 236.5,-209.5 295.5,-209.5 295.5,-190.5 236.5,-190.5"/>
<text text-anchor="middle" x="266" y="-197.5" font-family="Helvetica,sans-Serif" font-size="10.00">add_hash</text>
</a>
</g>
</g>
<!-- Node2&#45;&gt;Node3 -->
<g id="edge2" class="edge"><title>Node2&#45;&gt;Node3</title>
<path fill="none" stroke="midnightblue" d="M189.799,-200C205.628,-200 222.463,-200 236.182,-200"/>
<polygon fill="midnightblue" stroke="midnightblue" points="189.585,-196.5 179.585,-200 189.585,-203.5 189.585,-196.5"/>
</g>
<!-- Node4 -->
<g id="node4" class="node"><title>Node4</title>
<g id="a_node4"><a xlink:href="../../d2/d6b/attest__db_8c.html#a4e99fac2edbe306e322ca1e4692dc2c8" target="_top" xlink:title="METHOD">
<polygon fill="none" stroke="black" points="354,-190.5 354,-209.5 414,-209.5 414,-190.5 354,-190.5"/>
<text text-anchor="middle" x="384" y="-197.5" font-family="Helvetica,sans-Serif" font-size="10.00">METHOD</text>
</a>
</g>
</g>
<!-- Node3&#45;&gt;Node4 -->
<g id="edge3" class="edge"><title>Node3&#45;&gt;Node4</title>
<path fill="none" stroke="midnightblue" d="M306.095,-200C321.714,-200 339.388,-200 353.85,-200"/>
<polygon fill="midnightblue" stroke="midnightblue" points="305.674,-196.5 295.674,-200 305.674,-203.5 305.674,-196.5"/>
</g>
<!-- Node7 -->
<g id="node7" class="node"><title>Node7</title>
<g id="a_node7"><a xlink:href="../../d5/d90/kernel__netlink__net_8c.html#aadc72ac0ee4c3eee050dcde86c5230d6" target="_top" xlink:title="receive_events">
<polygon fill="none" stroke="black" points="342.5,-95.5 342.5,-114.5 425.5,-114.5 425.5,-95.5 342.5,-95.5"/>
<text text-anchor="middle" x="384" y="-102.5" font-family="Helvetica,sans-Serif" font-size="10.00">receive_events</text>
</a>
</g>
</g>
<!-- Node6&#45;&gt;Node7 -->
<g id="edge6" class="edge"><title>Node6&#45;&gt;Node7</title>
<path fill="none" stroke="midnightblue" d="M294.898,-62.2835C297.972,-63.87 301.054,-65.4661 304,-67 320.047,-75.3545 323.716,-78.117 340,-86 346.611,-89.2006 353.889,-92.4991 360.547,-95.4311"/>
<polygon fill="midnightblue" stroke="midnightblue" points="296.337,-59.0882 285.844,-57.625 293.135,-65.3125 296.337,-59.0882"/>
</g>
<!-- Node10 -->
<g id="node10" class="node"><title>Node10</title>
<g id="a_node10"><a xlink:href="../../d5/d90/kernel__netlink__net_8c.html#a6171ad9e6cb4f8e8abc248a8e14182ca" target="_top" xlink:title="init_address_list">
<polygon fill="none" stroke="black" points="340.5,-57.5 340.5,-76.5 427.5,-76.5 427.5,-57.5 340.5,-57.5"/>
<text text-anchor="middle" x="384" y="-64.5" font-family="Helvetica,sans-Serif" font-size="10.00">init_address_list</text>
</a>
</g>
</g>
<!-- Node6&#45;&gt;Node10 -->
<g id="edge9" class="edge"><title>Node6&#45;&gt;Node10</title>
<path fill="none" stroke="midnightblue" d="M313.826,-55.6698C322.633,-57.1124 331.797,-58.6134 340.465,-60.033"/>
<polygon fill="midnightblue" stroke="midnightblue" points="314.137,-52.1742 303.703,-54.0117 313.006,-59.0822 314.137,-52.1742"/>
</g>
<!-- Node8 -->
<g id="node8" class="node"><title>Node8</title>
<g id="a_node8"><a xlink:href="../../d5/dbb/group__kernel__netlink__net__i.html#ga085e463746e0ef5b2537f94dee888bb3" target="_top" xlink:title="kernel_netlink_net\l_create">
<polygon fill="none" stroke="black" points="464.5,-71 464.5,-101 559.5,-101 559.5,-71 464.5,-71"/>
<text text-anchor="start" x="472.5" y="-89" font-family="Helvetica,sans-Serif" font-size="10.00">kernel_netlink_net</text>
<text text-anchor="middle" x="512" y="-78" font-family="Helvetica,sans-Serif" font-size="10.00">_create</text>
</a>
</g>
</g>
<!-- Node7&#45;&gt;Node8 -->
<g id="edge7" class="edge"><title>Node7&#45;&gt;Node8</title>
<path fill="none" stroke="midnightblue" d="M435.659,-97.3609C445.146,-95.9303 455.021,-94.4412 464.379,-93.0302"/>
<polygon fill="midnightblue" stroke="midnightblue" points="434.927,-93.9317 425.561,-98.8837 435.971,-100.853 434.927,-93.9317"/>
</g>
<!-- Node9 -->
<g id="node9" class="node"><title>Node9</title>
<g id="a_node9"><a xlink:href="../../da/d4c/kernel__netlink__plugin_8c.html#afff6cb796b37dd206b1f16ec44e924d0" target="_top" xlink:title="METHOD">
<polygon fill="none" stroke="black" points="596,-76.5 596,-95.5 656,-95.5 656,-76.5 596,-76.5"/>
<text text-anchor="middle" x="626" y="-83.5" font-family="Helvetica,sans-Serif" font-size="10.00">METHOD</text>
</a>
</g>
</g>
<!-- Node8&#45;&gt;Node9 -->
<g id="edge8" class="edge"><title>Node8&#45;&gt;Node9</title>
<path fill="none" stroke="midnightblue" d="M569.673,-86C578.696,-86 587.696,-86 595.736,-86"/>
<polygon fill="midnightblue" stroke="midnightblue" points="569.525,-82.5001 559.525,-86 569.525,-89.5001 569.525,-82.5001"/>
</g>
<!-- Node10&#45;&gt;Node8 -->
<g id="edge10" class="edge"><title>Node10&#45;&gt;Node8</title>
<path fill="none" stroke="midnightblue" d="M437.581,-74.9289C446.514,-76.2759 455.734,-77.6662 464.496,-78.9875"/>
<polygon fill="midnightblue" stroke="midnightblue" points="438.068,-71.4628 427.658,-73.4325 437.024,-78.3846 438.068,-71.4628"/>
</g>
<!-- Node11&#45;&gt;Node7 -->
<g id="edge12" class="edge"><title>Node11&#45;&gt;Node7</title>
<path fill="none" stroke="midnightblue" d="M311.911,-116.644C321.849,-115.016 332.327,-113.3 342.095,-111.7"/>
<polygon fill="midnightblue" stroke="midnightblue" points="311.107,-113.229 301.804,-118.299 312.238,-120.137 311.107,-113.229"/>
</g>
<!-- Node11&#45;&gt;Node10 -->
<g id="edge13" class="edge"><title>Node11&#45;&gt;Node10</title>
<path fill="none" stroke="midnightblue" d="M294.898,-109.717C297.972,-108.13 301.054,-106.534 304,-105 320.047,-96.6455 323.716,-93.883 340,-86 346.611,-82.7994 353.889,-79.5009 360.547,-76.5689"/>
<polygon fill="midnightblue" stroke="midnightblue" points="293.135,-106.687 285.844,-114.375 296.337,-112.912 293.135,-106.687"/>
</g>
<!-- Node13 -->
<g id="node13" class="node"><title>Node13</title>
<g id="a_node13"><a xlink:href="../../d7/d68/ike__mobike_8c.html#a77f3ba81fce6de43dc7e324fc26f737a" target="_top" xlink:title="METHOD">
<polygon fill="none" stroke="black" points="236,-0.5 236,-19.5 296,-19.5 296,-0.5 236,-0.5"/>
<text text-anchor="middle" x="266" y="-7.5" font-family="Helvetica,sans-Serif" font-size="10.00">METHOD</text>
</a>
</g>
</g>
<!-- Node12&#45;&gt;Node13 -->
<g id="edge15" class="edge"><title>Node12&#45;&gt;Node13</title>
<path fill="none" stroke="midnightblue" d="M194.769,-10C208.943,-10 223.57,-10 235.781,-10"/>
<polygon fill="midnightblue" stroke="midnightblue" points="194.569,-6.5001 184.569,-10 194.569,-13.5001 194.569,-6.5001"/>
</g>
<!-- Node14&#45;&gt;Node6 -->
<g id="edge18" class="edge"><title>Node14&#45;&gt;Node6</title>
<path fill="none" stroke="midnightblue" d="M179.894,-73.4647C197.171,-68.2952 216.871,-62.4009 232.963,-57.5859"/>
<polygon fill="midnightblue" stroke="midnightblue" points="178.624,-70.1912 170.047,-76.411 180.631,-76.8975 178.624,-70.1912"/>
</g>
<!-- Node14&#45;&gt;Node11 -->
<g id="edge17" class="edge"><title>Node14&#45;&gt;Node11</title>
<path fill="none" stroke="midnightblue" d="M179.894,-98.5353C197.171,-103.705 216.871,-109.599 232.963,-114.414"/>
<polygon fill="midnightblue" stroke="midnightblue" points="180.631,-95.1025 170.047,-95.589 178.624,-101.809 180.631,-95.1025"/>
</g>
<!-- Node15 -->
<g id="node15" class="node"><title>Node15</title>
<g id="a_node15"><a xlink:href="../../d5/d90/kernel__netlink__net_8c.html#aeca4a8be4eca27916eee69fadda9b886" target="_top" xlink:title="METHOD">
<polygon fill="none" stroke="black" points="236,-76.5 236,-95.5 296,-95.5 296,-76.5 236,-76.5"/>
<text text-anchor="middle" x="266" y="-83.5" font-family="Helvetica,sans-Serif" font-size="10.00">METHOD</text>
</a>
</g>
</g>
<!-- Node14&#45;&gt;Node15 -->
<g id="edge19" class="edge"><title>Node14&#45;&gt;Node15</title>
<path fill="none" stroke="midnightblue" d="M201.868,-86C213.822,-86 225.758,-86 235.983,-86"/>
<polygon fill="midnightblue" stroke="midnightblue" points="201.859,-82.5001 191.859,-86 201.859,-89.5001 201.859,-82.5001"/>
</g>
</g>
</svg>
