<?xml version="1.0" encoding="UTF-8" standalone="no"?>
<!DOCTYPE svg PUBLIC "-//W3C//DTD SVG 1.1//EN"
 "http://www.w3.org/Graphics/SVG/1.1/DTD/svg11.dtd">
<!-- Generated by graphviz version 2.36.0 (20140111.2315)
 -->
<!-- Title: bit_shift Pages: 1 -->
<svg width="256pt" height="28pt"
 viewBox="0.00 0.00 256.00 28.00" xmlns="http://www.w3.org/2000/svg" xmlns:xlink="http://www.w3.org/1999/xlink">
<g id="graph0" class="graph" transform="scale(1 1) rotate(0) translate(4 24)">
<title>bit_shift</title>
<!-- Node1 -->
<g id="node1" class="node"><title>Node1</title>
<polygon fill="#bfbfbf" stroke="black" points="0.5,-0.5 0.5,-19.5 51.5,-19.5 51.5,-0.5 0.5,-0.5"/>
<text text-anchor="middle" x="26" y="-7.5" font-family="Helvetica,sans-Serif" font-size="10.00">bit_shift</text>
</g>
<!-- Node2 -->
<g id="node2" class="node"><title>Node2</title>
<g id="a_node2"><a xlink:href="../../dc/d33/cmac_8c.html#a74168b99fd2812ec27d853aaae0e404f" target="_top" xlink:title="derive_key">
<polygon fill="none" stroke="black" points="88,-0.5 88,-19.5 152,-19.5 152,-0.5 88,-0.5"/>
<text text-anchor="middle" x="120" y="-7.5" font-family="Helvetica,sans-Serif" font-size="10.00">derive_key</text>
</a>
</g>
</g>
<!-- Node1&#45;&gt;Node2 -->
<g id="edge1" class="edge"><title>Node1&#45;&gt;Node2</title>
<path fill="none" stroke="midnightblue" d="M61.7005,-10C70.2315,-10 79.3153,-10 87.6765,-10"/>
<polygon fill="midnightblue" stroke="midnightblue" points="61.6543,-6.5001 51.6543,-10 61.6543,-13.5001 61.6543,-6.5001"/>
</g>
<!-- Node3 -->
<g id="node3" class="node"><title>Node3</title>
<g id="a_node3"><a xlink:href="../../dc/d33/cmac_8c.html#a9ddb54f4230527837f70adb2a3efbd0e" target="_top" xlink:title="METHOD">
<polygon fill="none" stroke="black" points="188,-0.5 188,-19.5 248,-19.5 248,-0.5 188,-0.5"/>
<text text-anchor="middle" x="218" y="-7.5" font-family="Helvetica,sans-Serif" font-size="10.00">METHOD</text>
</a>
</g>
</g>
<!-- Node2&#45;&gt;Node3 -->
<g id="edge2" class="edge"><title>Node2&#45;&gt;Node3</title>
<path fill="none" stroke="midnightblue" d="M162.433,-10C171.026,-10 179.905,-10 187.941,-10"/>
<polygon fill="midnightblue" stroke="midnightblue" points="162.168,-6.5001 152.168,-10 162.168,-13.5001 162.168,-6.5001"/>
</g>
</g>
</svg>
