<?xml version="1.0" encoding="UTF-8" standalone="no"?>
<!DOCTYPE svg PUBLIC "-//W3C//DTD SVG 1.1//EN"
 "http://www.w3.org/Graphics/SVG/1.1/DTD/svg11.dtd">
<!-- Generated by graphviz version 2.36.0 (20140111.2315)
 -->
<!-- Title: add_endpoints_to_message Pages: 1 -->
<svg width="412pt" height="66pt"
 viewBox="0.00 0.00 412.00 66.00" xmlns="http://www.w3.org/2000/svg" xmlns:xlink="http://www.w3.org/1999/xlink">
<g id="graph0" class="graph" transform="scale(1 1) rotate(0) translate(4 62)">
<title>add_endpoints_to_message</title>
<!-- Node1 -->
<g id="node1" class="node"><title>Node1</title>
<polygon fill="#bfbfbf" stroke="black" points="0,-19.5 0,-38.5 138,-38.5 138,-19.5 0,-19.5"/>
<text text-anchor="middle" x="69" y="-26.5" font-family="Helvetica,sans-Serif" font-size="10.00">add_endpoints_to_message</text>
</g>
<!-- Node2 -->
<g id="node2" class="node"><title>Node2</title>
<g id="a_node2"><a xlink:href="../../d4/de0/ike__me_8c.html#adae6bca69625314831359005924307f1" target="_top" xlink:title="gather_and_add_endpoints">
<polygon fill="none" stroke="black" points="174.5,-38.5 174.5,-57.5 307.5,-57.5 307.5,-38.5 174.5,-38.5"/>
<text text-anchor="middle" x="241" y="-45.5" font-family="Helvetica,sans-Serif" font-size="10.00">gather_and_add_endpoints</text>
</a>
</g>
</g>
<!-- Node1&#45;&gt;Node2 -->
<g id="edge1" class="edge"><title>Node1&#45;&gt;Node2</title>
<path fill="none" stroke="midnightblue" d="M148.307,-37.752C157.002,-38.7237 165.79,-39.706 174.306,-40.6577"/>
<polygon fill="midnightblue" stroke="midnightblue" points="148.493,-34.251 138.166,-36.6185 147.715,-41.2077 148.493,-34.251"/>
</g>
<!-- Node4 -->
<g id="node4" class="node"><title>Node4</title>
<g id="a_node4"><a xlink:href="../../d4/de0/ike__me_8c.html#a2635ccca86742c80f0fe24e18591465e" target="_top" xlink:title="METHOD">
<polygon fill="none" stroke="black" points="211,-0.5 211,-19.5 271,-19.5 271,-0.5 211,-0.5"/>
<text text-anchor="middle" x="241" y="-7.5" font-family="Helvetica,sans-Serif" font-size="10.00">METHOD</text>
</a>
</g>
</g>
<!-- Node1&#45;&gt;Node4 -->
<g id="edge3" class="edge"><title>Node1&#45;&gt;Node4</title>
<path fill="none" stroke="midnightblue" d="M148.338,-20.2446C170.62,-17.7542 193.516,-15.1953 210.851,-13.2578"/>
<polygon fill="midnightblue" stroke="midnightblue" points="147.715,-16.7923 138.166,-21.3815 148.493,-23.749 147.715,-16.7923"/>
</g>
<!-- Node3 -->
<g id="node3" class="node"><title>Node3</title>
<g id="a_node3"><a xlink:href="../../d4/de0/ike__me_8c.html#a8eba49d78f6354fbb20a9561e4da557f" target="_top" xlink:title="METHOD">
<polygon fill="none" stroke="black" points="344,-38.5 344,-57.5 404,-57.5 404,-38.5 344,-38.5"/>
<text text-anchor="middle" x="374" y="-45.5" font-family="Helvetica,sans-Serif" font-size="10.00">METHOD</text>
</a>
</g>
</g>
<!-- Node2&#45;&gt;Node3 -->
<g id="edge2" class="edge"><title>Node2&#45;&gt;Node3</title>
<path fill="none" stroke="midnightblue" d="M317.898,-48C327.058,-48 335.939,-48 343.801,-48"/>
<polygon fill="midnightblue" stroke="midnightblue" points="317.884,-44.5001 307.884,-48 317.884,-51.5001 317.884,-44.5001"/>
</g>
</g>
</svg>
