<?xml version="1.0" encoding="UTF-8" standalone="no"?>
<!DOCTYPE svg PUBLIC "-//W3C//DTD SVG 1.1//EN"
 "http://www.w3.org/Graphics/SVG/1.1/DTD/svg11.dtd">
<!-- Generated by graphviz version 2.36.0 (20140111.2315)
 -->
<!-- Title: stream_unix.h Pages: 1 -->
<svg width="335pt" height="84pt"
 viewBox="0.00 0.00 335.00 84.00" xmlns="http://www.w3.org/2000/svg" xmlns:xlink="http://www.w3.org/1999/xlink">
<g id="graph0" class="graph" transform="scale(1 1) rotate(0) translate(4 80)">
<title>stream_unix.h</title>
<!-- Node1 -->
<g id="node1" class="node"><title>Node1</title>
<polygon fill="#bfbfbf" stroke="black" points="134,-56.5 134,-75.5 212,-75.5 212,-56.5 134,-56.5"/>
<text text-anchor="middle" x="173" y="-63.5" font-family="Helvetica,sans-Serif" font-size="10.00">stream_unix.h</text>
</g>
<!-- Node2 -->
<g id="node2" class="node"><title>Node2</title>
<g id="a_node2"><a xlink:href="../../d8/d57/stream__manager_8c.html" target="_top" xlink:title="stream_manager.c">
<polygon fill="none" stroke="black" points="0,-0.5 0,-19.5 98,-19.5 98,-0.5 0,-0.5"/>
<text text-anchor="middle" x="49" y="-7.5" font-family="Helvetica,sans-Serif" font-size="10.00">stream_manager.c</text>
</a>
</g>
</g>
<!-- Node1&#45;&gt;Node2 -->
<g id="edge1" class="edge"><title>Node1&#45;&gt;Node2</title>
<path fill="none" stroke="midnightblue" d="M143.993,-52.3678C120.771,-42.2553 88.8375,-28.3486 68.5562,-19.5164"/>
<polygon fill="midnightblue" stroke="midnightblue" points="142.786,-55.6597 153.352,-56.4435 145.581,-49.2419 142.786,-55.6597"/>
</g>
<!-- Node3 -->
<g id="node3" class="node"><title>Node3</title>
<g id="a_node3"><a xlink:href="../../d0/d81/stream__service__unix_8c.html" target="_top" xlink:title="stream_service_unix.c">
<polygon fill="none" stroke="black" points="115.5,-0.5 115.5,-19.5 230.5,-19.5 230.5,-0.5 115.5,-0.5"/>
<text text-anchor="middle" x="173" y="-7.5" font-family="Helvetica,sans-Serif" font-size="10.00">stream_service_unix.c</text>
</a>
</g>
</g>
<!-- Node1&#45;&gt;Node3 -->
<g id="edge2" class="edge"><title>Node1&#45;&gt;Node3</title>
<path fill="none" stroke="midnightblue" d="M173,-45.8045C173,-36.9102 173,-26.7798 173,-19.7511"/>
<polygon fill="midnightblue" stroke="midnightblue" points="169.5,-46.083 173,-56.083 176.5,-46.083 169.5,-46.083"/>
</g>
<!-- Node4 -->
<g id="node4" class="node"><title>Node4</title>
<g id="a_node4"><a xlink:href="../../dd/de8/stream__unix_8c.html" target="_top" xlink:title="stream_unix.c">
<polygon fill="none" stroke="black" points="249,-0.5 249,-19.5 327,-19.5 327,-0.5 249,-0.5"/>
<text text-anchor="middle" x="288" y="-7.5" font-family="Helvetica,sans-Serif" font-size="10.00">stream_unix.c</text>
</a>
</g>
</g>
<!-- Node1&#45;&gt;Node4 -->
<g id="edge3" class="edge"><title>Node1&#45;&gt;Node4</title>
<path fill="none" stroke="midnightblue" d="M200.481,-52.096C221.966,-42.0073 251.222,-28.2697 269.863,-19.5164"/>
<polygon fill="midnightblue" stroke="midnightblue" points="198.786,-49.025 191.222,-56.4435 201.762,-55.3612 198.786,-49.025"/>
</g>
</g>
</svg>
